<?xml version="1.0" standalone="no"?>
<svg width="567.429" height="386.304" viewBox="0 0 567.429 386.304" xmlns="http://www.w3.org/2000/svg" shape-rendering="crispEdges">
<title>
img/week2/AngleTH2D.svg
</title>
<desc>
Creator: ROOT Version 6.22/08
CreationDate: Mon Jun 21 21:38:16 2021</desc>
<defs>
</defs>
<rect x="0.5" y="0" width="566.929" height="385.804" fill="white"/>
<rect x="57.1929" y="38.5804" width="453.543" height="308.643" fill="white"/>
<rect x="57.1929" y="38.5804" width="453.543" height="308.643" fill="none" stroke="black"/>
<rect x="90.6736" y="300.199" width="1.0702" height="1.45658" fill="none" stroke="#000099"/>
<rect x="113.351" y="300.199" width="1.0702" height="1.45658" fill="none" stroke="#000099"/>
<rect x="135.449" y="299.411" width="2.2278" height="3.03211" fill="none" stroke="#000099"/>
<rect x="157.759" y="298.911" width="2.96325" height="4.03308" fill="none" stroke="#000099"/>
<rect x="180.038" y="298.37" width="3.75842" height="5.11533" fill="none" stroke="#000099"/>
<rect x="202.162" y="297.616" width="4.8652" height="6.62169" fill="none" stroke="#000099"/>
<rect x="224.017" y="296.497" width="6.50978" height="8.86002" fill="none" stroke="#000099"/>
<rect x="245.897" y="295.413" width="8.10344" height="11.029" fill="none" stroke="#000099"/>
<rect x="267.731" y="294.266" width="9.78908" height="13.3232" fill="none" stroke="#000099"/>
<rect x="290.051" y="293.779" width="10.504" height="14.2962" fill="none" stroke="#000099"/>
<rect x="312.638" y="293.657" width="10.6842" height="14.5415" fill="none" stroke="#000099"/>
<rect x="335.544" y="293.967" width="10.2278" height="13.9203" fill="none" stroke="#000099"/>
<rect x="358.074" y="293.767" width="10.5221" height="14.321" fill="none" stroke="#000099"/>
<rect x="380.983" y="294.082" width="10.0584" height="13.6898" fill="none" stroke="#000099"/>
<rect x="404.375" y="295.056" width="8.62824" height="11.7433" fill="none" stroke="#000099"/>
<rect x="427.79" y="296.06" width="7.15249" height="9.73477" fill="none" stroke="#000099"/>
<rect x="450.803" y="296.517" width="6.48039" height="8.82002" fill="none" stroke="#000099"/>
<rect x="474.514" y="297.924" width="4.41255" height="6.00563" fill="none" stroke="#000099"/>
<rect x="497.678" y="298.586" width="3.44022" height="4.68224" fill="none" stroke="#000099"/>
<rect x="67.9964" y="269.335" width="1.0702" height="1.45658" fill="none" stroke="#000099"/>
<rect x="90.0527" y="268.49" width="2.3119" height="3.14657" fill="none" stroke="#000099"/>
<rect x="112.816" y="268.606" width="2.1404" height="2.91316" fill="none" stroke="#000099"/>
<rect x="135.049" y="268.003" width="3.02699" height="4.11982" fill="none" stroke="#000099"/>
<rect x="157.387" y="267.54" width="3.70729" height="5.04573" fill="none" stroke="#000099"/>
<rect x="178.938" y="266.008" width="5.95863" height="8.10988" fill="none" stroke="#000099"/>
<rect x="201.267" y="265.534" width="6.65478" height="9.05737" fill="none" stroke="#000099"/>
<rect x="222.859" y="264.057" width="8.82511" height="12.0113" fill="none" stroke="#000099"/>
<rect x="245.054" y="263.401" width="9.78908" height="13.3232" fill="none" stroke="#000099"/>
<rect x="267.108" y="262.553" width="11.0357" height="15.0199" fill="none" stroke="#000099"/>
<rect x="289.657" y="262.378" width="11.2922" height="15.369" fill="none" stroke="#000099"/>
<rect x="312.201" y="262.197" width="11.5595" height="15.7328" fill="none" stroke="#000099"/>
<rect x="335.131" y="262.541" width="11.053" height="15.0435" fill="none" stroke="#000099"/>
<rect x="357.895" y="262.66" width="10.8789" height="14.8066" fill="none" stroke="#000099"/>
<rect x="381.147" y="263.441" width="9.7304" height="13.2434" fill="none" stroke="#000099"/>
<rect x="404.625" y="264.532" width="8.12696" height="11.061" fill="none" stroke="#000099"/>
<rect x="428.024" y="265.515" width="6.68341" height="9.09633" fill="none" stroke="#000099"/>
<rect x="451.533" y="266.647" width="5.01969" height="6.83196" fill="none" stroke="#000099"/>
<rect x="474.718" y="267.338" width="4.00433" height="5.45002" fill="none" stroke="#000099"/>
<rect x="498.087" y="268.279" width="2.62145" height="3.56787" fill="none" stroke="#000099"/>
<rect x="67.0824" y="237.226" width="2.89812" height="3.94443" fill="none" stroke="#000099"/>
<rect x="89.1594" y="236.409" width="4.09856" height="5.57827" fill="none" stroke="#000099"/>
<rect x="111.86" y="236.441" width="4.05172" height="5.51452" fill="none" stroke="#000099"/>
<rect x="133.165" y="234.573" width="6.79669" height="9.25051" fill="none" stroke="#000099"/>
<rect x="155.224" y="233.732" width="8.03246" height="10.9324" fill="none" stroke="#000099"/>
<rect x="176.926" y="232.406" width="9.98218" height="13.5861" fill="none" stroke="#000099"/>
<rect x="199.388" y="232.113" width="10.4127" height="14.172" fill="none" stroke="#000099"/>
<rect x="221.194" y="230.927" width="12.1552" height="16.5435" fill="none" stroke="#000099"/>
<rect x="243.663" y="230.643" width="12.572" height="17.1109" fill="none" stroke="#000099"/>
<rect x="266.014" y="230.2" width="13.2232" height="17.9972" fill="none" stroke="#000099"/>
<rect x="289.785" y="231.689" width="11.0357" height="15.0199" fill="none" stroke="#000099"/>
<rect x="312.317" y="231.491" width="11.3259" height="15.415" fill="none" stroke="#000099"/>
<rect x="336.366" y="233.357" width="8.58388" height="11.6829" fill="none" stroke="#000099"/>
<rect x="359.451" y="233.913" width="7.76665" height="10.5707" fill="none" stroke="#000099"/>
<rect x="383.372" y="235.606" width="5.27918" height="7.18513" fill="none" stroke="#000099"/>
<rect x="406.276" y="235.915" width="4.82581" height="6.56807" fill="none" stroke="#000099"/>
<rect x="429.512" y="236.676" width="3.70729" height="5.04573" fill="none" stroke="#000099"/>
<rect x="452.662" y="237.318" width="2.76325" height="3.76087" fill="none" stroke="#000099"/>
<rect x="475.903" y="238.086" width="1.63476" height="2.22496" fill="none" stroke="#000099"/>
<rect x="498.524" y="238.009" width="1.74763" height="2.37858" fill="none" stroke="#000099"/>
<rect x="67.4613" y="206.878" width="2.1404" height="2.91316" fill="none" stroke="#000099"/>
<rect x="89.355" y="205.811" width="3.70729" height="5.04573" fill="none" stroke="#000099"/>
<rect x="111.453" y="205.023" width="4.8652" height="6.62169" fill="none" stroke="#000099"/>
<rect x="132.973" y="203.449" width="7.17913" height="9.77102" fill="none" stroke="#000099"/>
<rect x="155.049" y="202.631" width="8.38135" height="11.4073" fill="none" stroke="#000099"/>
<rect x="176.917" y="201.528" width="10.0013" height="13.6121" fill="none" stroke="#000099"/>
<rect x="198.462" y="199.988" width="12.2646" height="16.6925" fill="none" stroke="#000099"/>
<rect x="220.718" y="199.415" width="13.1072" height="17.8394" fill="none" stroke="#000099"/>
<rect x="242.904" y="198.746" width="14.0899" height="19.1767" fill="none" stroke="#000099"/>
<rect x="265.711" y="198.923" width="13.8301" height="18.8231" fill="none" stroke="#000099"/>
<rect x="288.875" y="199.585" width="12.8573" height="17.4992" fill="none" stroke="#000099"/>
<rect x="312.506" y="200.883" width="10.9489" height="14.9018" fill="none" stroke="#000099"/>
<rect x="335.842" y="201.78" width="9.63181" height="13.1092" fill="none" stroke="#000099"/>
<rect x="359.366" y="202.933" width="7.93683" height="10.8023" fill="none" stroke="#000099"/>
<rect x="383.097" y="204.367" width="5.82908" height="7.93356" fill="none" stroke="#000099"/>
<rect x="406.419" y="205.244" width="4.54048" height="6.17974" fill="none" stroke="#000099"/>
<rect x="429.917" y="206.362" width="2.89812" height="3.94443" fill="none" stroke="#000099"/>
<rect x="452.77" y="206.601" width="2.54759" height="3.46735" fill="none" stroke="#000099"/>
<rect x="475.743" y="207.005" width="1.95391" height="2.65934" fill="none" stroke="#000099"/>
<rect x="499.089" y="207.914" width="0.617881" height="0.840956" fill="none" stroke="#000099"/>
<rect x="68.2226" y="177.049" width="0.617881" height="0.840956" fill="none" stroke="#000099"/>
<rect x="90.4519" y="176.44" width="1.51349" height="2.05991" fill="none" stroke="#000099"/>
<rect x="112.539" y="175.637" width="2.69328" height="3.66564" fill="none" stroke="#000099"/>
<rect x="135.018" y="175.368" width="3.08941" height="4.20478" fill="none" stroke="#000099"/>
<rect x="157.894" y="175.637" width="2.69328" height="3.66564" fill="none" stroke="#000099"/>
<rect x="179.988" y="174.844" width="3.85867" height="5.25177" fill="none" stroke="#000099"/>
<rect x="201.459" y="173.203" width="6.27081" height="8.53477" fill="none" stroke="#000099"/>
<rect x="223.081" y="171.766" width="8.38135" height="11.4073" fill="none" stroke="#000099"/>
<rect x="245.015" y="170.755" width="9.86677" height="13.429" fill="none" stroke="#000099"/>
<rect x="266.302" y="168.863" width="12.6477" height="17.2139" fill="none" stroke="#000099"/>
<rect x="287.58" y="166.958" width="15.447" height="21.0239" fill="none" stroke="#000099"/>
<rect x="310.013" y="166.627" width="15.9337" height="21.6862" fill="none" stroke="#000099"/>
<rect x="333.204" y="167.326" width="14.9062" height="20.2878" fill="none" stroke="#000099"/>
<rect x="355.704" y="167.085" width="15.2605" height="20.7701" fill="none" stroke="#000099"/>
<rect x="379.069" y="168.021" width="13.8852" height="18.8981" fill="none" stroke="#000099"/>
<rect x="403.707" y="170.69" width="9.96303" height="13.56" fill="none" stroke="#000099"/>
<rect x="427.79" y="172.603" width="7.15249" height="9.73477" fill="none" stroke="#000099"/>
<rect x="451.422" y="173.902" width="5.2429" height="7.13575" fill="none" stroke="#000099"/>
<rect x="474.867" y="174.947" width="3.70729" height="5.04573" fill="none" stroke="#000099"/>
<rect x="498.124" y="175.736" width="2.54759" height="3.46735" fill="none" stroke="#000099"/>
<rect x="67.8407" y="145.665" width="1.38162" height="1.88043" fill="none" stroke="#000099"/>
<rect x="90.3348" y="145.416" width="1.74763" height="2.37858" fill="none" stroke="#000099"/>
<rect x="112.909" y="145.276" width="1.95391" height="2.65934" fill="none" stroke="#000099"/>
<rect x="135.252" y="144.822" width="2.62145" height="3.56787" fill="none" stroke="#000099"/>
<rect x="157.859" y="144.725" width="2.76325" height="3.76087" fill="none" stroke="#000099"/>
<rect x="179.868" y="143.816" width="4.09856" height="5.57827" fill="none" stroke="#000099"/>
<rect x="201.919" y="142.964" width="5.35101" height="7.28289" fill="none" stroke="#000099"/>
<rect x="223.501" y="141.473" width="7.5422" height="10.2652" fill="none" stroke="#000099"/>
<rect x="244.882" y="139.709" width="10.134" height="13.7927" fill="none" stroke="#000099"/>
<rect x="266.596" y="138.398" width="12.0606" height="16.4148" fill="none" stroke="#000099"/>
<rect x="287.445" y="135.91" width="15.7165" height="21.3907" fill="none" stroke="#000099"/>
<rect x="308.837" y="134.161" width="18.2876" height="24.89" fill="none" stroke="#000099"/>
<rect x="332.368" y="135.323" width="16.5795" height="22.5652" fill="none" stroke="#000099"/>
<rect x="354.965" y="135.214" width="16.7399" height="22.7835" fill="none" stroke="#000099"/>
<rect x="378.552" y="136.453" width="14.919" height="20.3052" fill="none" stroke="#000099"/>
<rect x="403.085" y="138.979" width="11.2073" height="15.2536" fill="none" stroke="#000099"/>
<rect x="427.685" y="141.595" width="7.3629" height="10.0211" fill="none" stroke="#000099"/>
<rect x="451.112" y="142.617" width="5.86174" height="7.97801" fill="none" stroke="#000099"/>
<rect x="474.347" y="143.376" width="4.74604" height="6.4595" fill="none" stroke="#000099"/>
<rect x="498.162" y="144.924" width="2.47152" height="3.36382" fill="none" stroke="#000099"/>
<rect x="67.3755" y="114.168" width="2.3119" height="3.14657" fill="none" stroke="#000099"/>
<rect x="89.355" y="113.218" width="3.70729" height="5.04573" fill="none" stroke="#000099"/>
<rect x="111.473" y="112.457" width="4.82581" height="6.56807" fill="none" stroke="#000099"/>
<rect x="133.6" y="111.708" width="5.92651" height="8.06616" fill="none" stroke="#000099"/>
<rect x="155.611" y="110.802" width="7.25846" height="9.87899" fill="none" stroke="#000099"/>
<rect x="177.072" y="109.146" width="9.69109" height="13.1899" fill="none" stroke="#000099"/>
<rect x="198.092" y="106.891" width="13.0049" height="17.7001" fill="none" stroke="#000099"/>
<rect x="220.133" y="106.025" width="14.2783" height="19.4332" fill="none" stroke="#000099"/>
<rect x="242.281" y="105.305" width="15.3354" height="20.872" fill="none" stroke="#000099"/>
<rect x="263.871" y="103.826" width="17.5091" height="23.8304" fill="none" stroke="#000099"/>
<rect x="286.387" y="103.606" width="17.8331" height="24.2714" fill="none" stroke="#000099"/>
<rect x="309.696" y="104.466" width="16.568" height="22.5495" fill="none" stroke="#000099"/>
<rect x="333.185" y="105.571" width="14.9446" height="20.34" fill="none" stroke="#000099"/>
<rect x="357.328" y="107.566" width="12.013" height="16.35" fill="none" stroke="#000099"/>
<rect x="381.578" y="109.706" width="8.86826" height="12.07" fill="none" stroke="#000099"/>
<rect x="405.678" y="111.643" width="6.02236" height="8.19662" fill="none" stroke="#000099"/>
<rect x="429.117" y="112.68" width="4.49824" height="6.12225" fill="none" stroke="#000099"/>
<rect x="452.594" y="113.769" width="2.89812" height="3.94443" fill="none" stroke="#000099"/>
<rect x="475.607" y="114.225" width="2.2278" height="3.03211" fill="none" stroke="#000099"/>
<rect x="498.707" y="114.801" width="1.38162" height="1.88043" fill="none" stroke="#000099"/>
<rect x="67.5069" y="83.4824" width="2.04928" height="2.78913" fill="none" stroke="#000099"/>
<rect x="90.3913" y="83.7645" width="1.63476" height="2.22496" fill="none" stroke="#000099"/>
<rect x="112.689" y="83.2484" width="2.39304" height="3.25701" fill="none" stroke="#000099"/>
<rect x="134.958" y="82.6921" width="3.2106" height="4.36973" fill="none" stroke="#000099"/>
<rect x="157.311" y="82.251" width="3.85867" height="5.25177" fill="none" stroke="#000099"/>
<rect x="179.154" y="81.1161" width="5.5265" height="7.52174" fill="none" stroke="#000099"/>
<rect x="200.939" y="79.9018" width="7.31087" height="9.95032" fill="none" stroke="#000099"/>
<rect x="222.065" y="77.7909" width="10.4127" height="14.172" fill="none" stroke="#000099"/>
<rect x="243.131" y="75.5978" width="13.6354" height="18.5583" fill="none" stroke="#000099"/>
<rect x="263.981" y="73.1111" width="17.2896" height="23.5317" fill="none" stroke="#000099"/>
<rect x="285.245" y="71.1872" width="20.1168" height="27.3795" fill="none" stroke="#000099"/>
<rect x="306.642" y="69.4448" width="22.6772" height="30.8643" fill="none" stroke="#000099"/>
<rect x="330.786" y="71.4414" width="19.7432" height="26.8711" fill="none" stroke="#000099"/>
<rect x="355.704" y="74.4919" width="15.2605" height="20.7701" fill="none" stroke="#000099"/>
<rect x="380.199" y="76.9657" width="11.6254" height="15.8225" fill="none" stroke="#000099"/>
<rect x="404.233" y="78.8127" width="8.91121" height="12.1284" fill="none" stroke="#000099"/>
<rect x="428.673" y="81.2113" width="5.38656" height="7.33128" fill="none" stroke="#000099"/>
<rect x="451.859" y="81.9037" width="4.36908" height="5.94646" fill="none" stroke="#000099"/>
<rect x="475.115" y="82.6921" width="3.2106" height="4.36973" fill="none" stroke="#000099"/>
<rect x="498.162" y="83.195" width="2.47152" height="3.36382" fill="none" stroke="#000099"/>
<path d="M57.1929,347.224h 453.543" fill="none" stroke="black"/>
<path d="M57.1929,337.964v 9.2593" fill="none" stroke="black"/>
<path d="M68.5315,342.594v 4.62965" fill="none" stroke="black"/>
<path d="M79.8701,342.594v 4.62965" fill="none" stroke="black"/>
<path d="M91.2087,342.594v 4.62965" fill="none" stroke="black"/>
<path d="M102.547,337.964v 9.2593" fill="none" stroke="black"/>
<path d="M113.886,342.594v 4.62965" fill="none" stroke="black"/>
<path d="M125.224,342.594v 4.62965" fill="none" stroke="black"/>
<path d="M136.563,342.594v 4.62965" fill="none" stroke="black"/>
<path d="M147.902,337.964v 9.2593" fill="none" stroke="black"/>
<path d="M159.24,342.594v 4.62965" fill="none" stroke="black"/>
<path d="M170.579,342.594v 4.62965" fill="none" stroke="black"/>
<path d="M181.917,342.594v 4.62965" fill="none" stroke="black"/>
<path d="M193.256,337.964v 9.2593" fill="none" stroke="black"/>
<path d="M204.594,342.594v 4.62965" fill="none" stroke="black"/>
<path d="M215.933,342.594v 4.62965" fill="none" stroke="black"/>
<path d="M227.272,342.594v 4.62965" fill="none" stroke="black"/>
<path d="M238.61,337.964v 9.2593" fill="none" stroke="black"/>
<path d="M249.949,342.594v 4.62965" fill="none" stroke="black"/>
<path d="M261.287,342.594v 4.62965" fill="none" stroke="black"/>
<path d="M272.626,342.594v 4.62965" fill="none" stroke="black"/>
<path d="M283.965,337.964v 9.2593" fill="none" stroke="black"/>
<path d="M295.303,342.594v 4.62965" fill="none" stroke="black"/>
<path d="M306.642,342.594v 4.62965" fill="none" stroke="black"/>
<path d="M317.98,342.594v 4.62965" fill="none" stroke="black"/>
<path d="M329.319,337.964v 9.2593" fill="none" stroke="black"/>
<path d="M340.657,342.594v 4.62965" fill="none" stroke="black"/>
<path d="M351.996,342.594v 4.62965" fill="none" stroke="black"/>
<path d="M363.335,342.594v 4.62965" fill="none" stroke="black"/>
<path d="M374.673,337.964v 9.2593" fill="none" stroke="black"/>
<path d="M386.012,342.594v 4.62965" fill="none" stroke="black"/>
<path d="M397.35,342.594v 4.62965" fill="none" stroke="black"/>
<path d="M408.689,342.594v 4.62965" fill="none" stroke="black"/>
<path d="M420.028,337.964v 9.2593" fill="none" stroke="black"/>
<path d="M431.366,342.594v 4.62965" fill="none" stroke="black"/>
<path d="M442.705,342.594v 4.62965" fill="none" stroke="black"/>
<path d="M454.043,342.594v 4.62965" fill="none" stroke="black"/>
<path d="M465.382,337.964v 9.2593" fill="none" stroke="black"/>
<path d="M476.72,342.594v 4.62965" fill="none" stroke="black"/>
<path d="M488.059,342.594v 4.62965" fill="none" stroke="black"/>
<path d="M499.398,342.594v 4.62965" fill="none" stroke="black"/>
<path d="M510.736,337.964v 9.2593" fill="none" stroke="black"/>
<text xml:space="preserve" x="52.482" y="359.813" fill="black" font-size="12.8882" font-family="Helvetica">10</text>
<text xml:space="preserve" x="45.1721" y="359.813" fill="black" font-size="12.8882" font-family="Times">&#8722;</text>
<text xml:space="preserve" x="101.215" y="359.813" fill="black" font-size="12.8882" font-family="Helvetica">8</text>
<text xml:space="preserve" x="94.7174" y="359.813" fill="black" font-size="12.8882" font-family="Times">&#8722;</text>
<text xml:space="preserve" x="146.699" y="359.813" fill="black" font-size="12.8882" font-family="Helvetica">6</text>
<text xml:space="preserve" x="140.202" y="359.813" fill="black" font-size="12.8882" font-family="Times">&#8722;</text>
<text xml:space="preserve" x="192.184" y="359.813" fill="black" font-size="12.8882" font-family="Helvetica">4</text>
<text xml:space="preserve" x="185.686" y="359.813" fill="black" font-size="12.8882" font-family="Times">&#8722;</text>
<text xml:space="preserve" x="237.668" y="359.813" fill="black" font-size="12.8882" font-family="Helvetica">2</text>
<text xml:space="preserve" x="231.17" y="359.813" fill="black" font-size="12.8882" font-family="Times">&#8722;</text>
<text xml:space="preserve" x="279.903" y="359.813" fill="black" font-size="12.8882" font-family="Helvetica">0</text>
<text xml:space="preserve" x="324.576" y="359.813" fill="black" font-size="12.8882" font-family="Helvetica">2</text>
<text xml:space="preserve" x="370.06" y="359.813" fill="black" font-size="12.8882" font-family="Helvetica">4</text>
<text xml:space="preserve" x="415.544" y="359.813" fill="black" font-size="12.8882" font-family="Helvetica">6</text>
<text xml:space="preserve" x="461.028" y="359.813" fill="black" font-size="12.8882" font-family="Helvetica">8</text>
<text xml:space="preserve" x="503.264" y="359.813" fill="black" font-size="12.8882" font-family="Helvetica">10</text>
<text xml:space="preserve" x="440.723" y="372.809" fill="black" font-size="12.8882" font-family="Helvetica">time lag [ps]</text>
<path d="M57.1929,347.224v -308.643" fill="none" stroke="black"/>
<path d="M70.7992,331.792h -13.6063" fill="none" stroke="black"/>
<path d="M63.9961,325.619h -6.80315" fill="none" stroke="black"/>
<path d="M63.9961,319.446h -6.80315" fill="none" stroke="black"/>
<path d="M63.9961,313.273h -6.80315" fill="none" stroke="black"/>
<path d="M63.9961,307.1h -6.80315" fill="none" stroke="black"/>
<path d="M70.7992,300.927h -13.6063" fill="none" stroke="black"/>
<path d="M63.9961,294.754h -6.80315" fill="none" stroke="black"/>
<path d="M63.9961,288.582h -6.80315" fill="none" stroke="black"/>
<path d="M63.9961,282.409h -6.80315" fill="none" stroke="black"/>
<path d="M63.9961,276.236h -6.80315" fill="none" stroke="black"/>
<path d="M70.7992,270.063h -13.6063" fill="none" stroke="black"/>
<path d="M63.9961,263.89h -6.80315" fill="none" stroke="black"/>
<path d="M63.9961,257.717h -6.80315" fill="none" stroke="black"/>
<path d="M63.9961,251.544h -6.80315" fill="none" stroke="black"/>
<path d="M63.9961,245.371h -6.80315" fill="none" stroke="black"/>
<path d="M70.7992,239.199h -13.6063" fill="none" stroke="black"/>
<path d="M63.9961,233.026h -6.80315" fill="none" stroke="black"/>
<path d="M63.9961,226.853h -6.80315" fill="none" stroke="black"/>
<path d="M63.9961,220.68h -6.80315" fill="none" stroke="black"/>
<path d="M63.9961,214.507h -6.80315" fill="none" stroke="black"/>
<path d="M70.7992,208.334h -13.6063" fill="none" stroke="black"/>
<path d="M63.9961,202.161h -6.80315" fill="none" stroke="black"/>
<path d="M63.9961,195.989h -6.80315" fill="none" stroke="black"/>
<path d="M63.9961,189.816h -6.80315" fill="none" stroke="black"/>
<path d="M63.9961,183.643h -6.80315" fill="none" stroke="black"/>
<path d="M70.7992,177.47h -13.6063" fill="none" stroke="black"/>
<path d="M63.9961,171.297h -6.80315" fill="none" stroke="black"/>
<path d="M63.9961,165.124h -6.80315" fill="none" stroke="black"/>
<path d="M63.9961,158.951h -6.80315" fill="none" stroke="black"/>
<path d="M63.9961,152.778h -6.80315" fill="none" stroke="black"/>
<path d="M70.7992,146.606h -13.6063" fill="none" stroke="black"/>
<path d="M63.9961,140.433h -6.80315" fill="none" stroke="black"/>
<path d="M63.9961,134.26h -6.80315" fill="none" stroke="black"/>
<path d="M63.9961,128.087h -6.80315" fill="none" stroke="black"/>
<path d="M63.9961,121.914h -6.80315" fill="none" stroke="black"/>
<path d="M70.7992,115.741h -13.6063" fill="none" stroke="black"/>
<path d="M63.9961,109.568h -6.80315" fill="none" stroke="black"/>
<path d="M63.9961,103.396h -6.80315" fill="none" stroke="black"/>
<path d="M63.9961,97.2227h -6.80315" fill="none" stroke="black"/>
<path d="M63.9961,91.0498h -6.80315" fill="none" stroke="black"/>
<path d="M70.7992,84.8769h -13.6063" fill="none" stroke="black"/>
<path d="M63.9961,78.7041h -6.80315" fill="none" stroke="black"/>
<path d="M63.9961,72.5312h -6.80315" fill="none" stroke="black"/>
<path d="M63.9961,66.3583h -6.80315" fill="none" stroke="black"/>
<path d="M63.9961,60.1855h -6.80315" fill="none" stroke="black"/>
<path d="M70.7992,54.0126h -13.6063" fill="none" stroke="black"/>
<path d="M70.7992,331.792h -13.6063" fill="none" stroke="black"/>
<path d="M63.9961,337.964h -6.80315" fill="none" stroke="black"/>
<path d="M63.9961,344.137h -6.80315" fill="none" stroke="black"/>
<path d="M70.7992,54.0126h -13.6063" fill="none" stroke="black"/>
<path d="M63.9961,47.8397h -6.80315" fill="none" stroke="black"/>
<path d="M63.9961,41.6669h -6.80315" fill="none" stroke="black"/>
<text xml:space="preserve" x="46.7965" y="336.259" fill="black" font-size="12.8882" font-family="Helvetica">0</text>
<text xml:space="preserve" x="49.2332" y="306.207" fill="black" font-size="12.8882" font-family="Helvetica">1</text>
<text xml:space="preserve" x="46.7965" y="275.342" fill="black" font-size="12.8882" font-family="Helvetica">2</text>
<text xml:space="preserve" x="46.7965" y="243.666" fill="black" font-size="12.8882" font-family="Helvetica">3</text>
<text xml:space="preserve" x="46.7965" y="213.614" fill="black" font-size="12.8882" font-family="Helvetica">4</text>
<text xml:space="preserve" x="46.7965" y="181.937" fill="black" font-size="12.8882" font-family="Helvetica">5</text>
<text xml:space="preserve" x="46.7965" y="151.073" fill="black" font-size="12.8882" font-family="Helvetica">6</text>
<text xml:space="preserve" x="46.7965" y="121.021" fill="black" font-size="12.8882" font-family="Helvetica">7</text>
<text xml:space="preserve" x="46.7965" y="89.3441" fill="black" font-size="12.8882" font-family="Helvetica">8</text>
<text xml:space="preserve" x="46.7965" y="58.4798" fill="black" font-size="12.8882" font-family="Helvetica">9</text>
<g transform="rotate(-90,34.6132,69.8509)">
<text xml:space="preserve" x="34.6132" y="69.8509" fill="black" font-size="12.8882" font-family="Helvetica"> layer</text>
</g></svg>
