<?xml version="1.0" standalone="no"?>
<svg width="567.429" height="386.304" viewBox="0 0 567.429 386.304" xmlns="http://www.w3.org/2000/svg" shape-rendering="crispEdges">
<title>
img/week2/AngleTH2D_calibrated_rebined.svg
</title>
<desc>
Creator: ROOT Version 6.22/08
CreationDate: Tue Jun 22 01:32:21 2021</desc>
<defs>
</defs>
<rect x="0.5" y="0" width="566.929" height="385.804" fill="white"/>
<rect x="57.1929" y="38.5804" width="453.543" height="308.643" fill="white"/>
<rect x="57.1929" y="38.5804" width="453.543" height="308.643" fill="none" stroke="black"/>
<rect x="77.0585" y="299.014" width="5.62317" height="3.82666" fill="none" stroke="#000099"/>
<rect x="121.585" y="298.451" width="7.27908" height="4.95353" fill="none" stroke="#000099"/>
<rect x="162.803" y="295.636" width="15.5516" height="10.5831" fill="none" stroke="#000099"/>
<rect x="208.61" y="295.944" width="14.646" height="9.9668" fill="none" stroke="#000099"/>
<rect x="250.079" y="293.3" width="22.4166" height="15.2548" fill="none" stroke="#000099"/>
<rect x="298.991" y="295.721" width="15.3023" height="10.4134" fill="none" stroke="#000099"/>
<rect x="341.107" y="293.517" width="21.7785" height="14.8206" fill="none" stroke="#000099"/>
<rect x="390.896" y="296.535" width="12.9092" height="8.78489" fill="none" stroke="#000099"/>
<rect x="435.485" y="296.014" width="14.4403" height="9.82684" fill="none" stroke="#000099"/>
<rect x="484.758" y="298.681" width="6.60185" height="4.49266" fill="none" stroke="#000099"/>
<rect x="77.6057" y="268.522" width="4.52883" height="3.08194" fill="none" stroke="#000099"/>
<rect x="119.975" y="266.49" width="10.4997" height="7.14519" fill="none" stroke="#000099"/>
<rect x="162.31" y="264.436" width="16.537" height="11.2537" fill="none" stroke="#000099"/>
<rect x="208.61" y="265.08" width="14.646" height="9.9668" fill="none" stroke="#000099"/>
<rect x="249.476" y="262.025" width="23.6231" height="16.0759" fill="none" stroke="#000099"/>
<rect x="297.994" y="264.178" width="17.2948" height="11.7694" fill="none" stroke="#000099"/>
<rect x="340.394" y="262.168" width="23.2034" height="15.7903" fill="none" stroke="#000099"/>
<rect x="387.866" y="263.609" width="18.968" height="12.908" fill="none" stroke="#000099"/>
<rect x="437.705" y="266.661" width="9.99939" height="6.80474" fill="none" stroke="#000099"/>
<rect x="483.255" y="266.794" width="9.60711" height="6.53779" fill="none" stroke="#000099"/>
<rect x="76.115" y="236.643" width="7.51022" height="5.11082" fill="none" stroke="#000099"/>
<rect x="122.193" y="237.136" width="6.06199" height="4.12528" fill="none" stroke="#000099"/>
<rect x="162.707" y="233.842" width="15.7427" height="10.7132" fill="none" stroke="#000099"/>
<rect x="205.142" y="231.855" width="21.5814" height="14.6865" fill="none" stroke="#000099"/>
<rect x="252.194" y="233.011" width="18.186" height="12.3758" fill="none" stroke="#000099"/>
<rect x="292.992" y="229.91" width="27.2985" height="18.5771" fill="none" stroke="#000099"/>
<rect x="343.741" y="233.581" width="16.5111" height="11.2361" fill="none" stroke="#000099"/>
<rect x="386.719" y="231.964" width="21.2622" height="14.4693" fill="none" stroke="#000099"/>
<rect x="436.895" y="235.245" width="11.6201" height="7.90765" fill="none" stroke="#000099"/>
<rect x="482.708" y="235.557" width="10.7012" height="7.28235" fill="none" stroke="#000099"/>
<rect x="77.909" y="207" width="3.92208" height="2.66904" fill="none" stroke="#000099"/>
<rect x="122.451" y="206.447" width="5.54667" height="3.77459" fill="none" stroke="#000099"/>
<rect x="164.091" y="203.919" width="12.9752" height="8.82982" fill="none" stroke="#000099"/>
<rect x="206.172" y="201.691" width="19.5231" height="13.2858" fill="none" stroke="#000099"/>
<rect x="247.859" y="199.196" width="26.8567" height="18.2764" fill="none" stroke="#000099"/>
<rect x="291.872" y="198.283" width="29.5389" height="20.1017" fill="none" stroke="#000099"/>
<rect x="339.363" y="199.737" width="25.2663" height="17.1941" fill="none" stroke="#000099"/>
<rect x="388.014" y="201.981" width="18.6729" height="12.7072" fill="none" stroke="#000099"/>
<rect x="438.344" y="205.367" width="8.72119" height="5.93491" fill="none" stroke="#000099"/>
<rect x="484.029" y="205.592" width="8.05912" height="5.48436" fill="none" stroke="#000099"/>
<rect x="77.559" y="175.897" width="4.62222" height="3.14549" fill="none" stroke="#000099"/>
<rect x="122.158" y="175.383" width="6.13207" height="4.17297" fill="none" stroke="#000099"/>
<rect x="165.071" y="173.722" width="11.016" height="7.49658" fill="none" stroke="#000099"/>
<rect x="206.248" y="170.879" width="19.3693" height="13.1811" fill="none" stroke="#000099"/>
<rect x="246.353" y="167.307" width="29.8697" height="20.3268" fill="none" stroke="#000099"/>
<rect x="290.319" y="166.362" width="32.6448" height="22.2153" fill="none" stroke="#000099"/>
<rect x="336.562" y="166.967" width="30.8687" height="21.0066" fill="none" stroke="#000099"/>
<rect x="388.176" y="171.226" width="18.3497" height="12.4873" fill="none" stroke="#000099"/>
<rect x="437.901" y="174.201" width="9.60711" height="6.53779" fill="none" stroke="#000099"/>
<rect x="485.748" y="175.897" width="4.62222" height="3.14549" fill="none" stroke="#000099"/>
<rect x="77.4242" y="144.941" width="4.8917" height="3.32888" fill="none" stroke="#000099"/>
<rect x="121.527" y="144.089" width="7.39555" height="5.03279" fill="none" stroke="#000099"/>
<rect x="163.661" y="141.898" width="13.8358" height="9.41549" fill="none" stroke="#000099"/>
<rect x="208.352" y="141.447" width="15.162" height="10.318" fill="none" stroke="#000099"/>
<rect x="246.467" y="136.52" width="29.6399" height="20.1704" fill="none" stroke="#000099"/>
<rect x="288.176" y="134.039" width="36.9315" height="25.1325" fill="none" stroke="#000099"/>
<rect x="335.222" y="135.19" width="33.5485" height="22.8303" fill="none" stroke="#000099"/>
<rect x="387.319" y="139.779" width="20.0628" height="13.653" fill="none" stroke="#000099"/>
<rect x="437.063" y="142.766" width="11.2843" height="7.67913" fill="none" stroke="#000099"/>
<rect x="485.613" y="144.941" width="4.8917" height="3.32888" fill="none" stroke="#000099"/>
<rect x="77.803" y="114.335" width="4.13424" height="2.81342" fill="none" stroke="#000099"/>
<rect x="120.672" y="112.643" width="9.10472" height="6.19591" fill="none" stroke="#000099"/>
<rect x="163.569" y="110.971" width="14.0199" height="9.54076" fill="none" stroke="#000099"/>
<rect x="203.8" y="107.485" width="24.2656" height="16.5131" fill="none" stroke="#000099"/>
<rect x="245.613" y="105.074" width="31.3494" height="21.3338" fill="none" stroke="#000099"/>
<rect x="287.946" y="103.019" width="37.3915" height="25.4455" fill="none" stroke="#000099"/>
<rect x="335.305" y="104.383" width="33.3825" height="22.7174" fill="none" stroke="#000099"/>
<rect x="386.18" y="108.14" width="22.3402" height="15.2029" fill="none" stroke="#000099"/>
<rect x="437.082" y="111.915" width="11.2463" height="7.65332" fill="none" stroke="#000099"/>
<rect x="485.325" y="113.88" width="5.46909" height="3.7218" fill="none" stroke="#000099"/>
<rect x="77.909" y="83.5424" width="3.92208" height="2.66904" fill="none" stroke="#000099"/>
<rect x="122.229" y="82.8384" width="5.99108" height="4.07703" fill="none" stroke="#000099"/>
<rect x="165.536" y="81.4456" width="10.0845" height="6.86266" fill="none" stroke="#000099"/>
<rect x="206.415" y="78.4" width="19.0355" height="12.9539" fill="none" stroke="#000099"/>
<rect x="244.815" y="73.6673" width="32.9445" height="22.4192" fill="none" stroke="#000099"/>
<rect x="283.965" y="69.4448" width="45.3543" height="30.8643" fill="none" stroke="#000099"/>
<rect x="333.329" y="72.1736" width="37.3343" height="25.4066" fill="none" stroke="#000099"/>
<rect x="386.393" y="77.4201" width="21.9154" height="14.9138" fill="none" stroke="#000099"/>
<rect x="437.516" y="81.3461" width="10.3769" height="7.06162" fill="none" stroke="#000099"/>
<rect x="485.028" y="82.8143" width="6.06199" height="4.12528" fill="none" stroke="#000099"/>
<path d="M57.1929,347.224h 453.543" fill="none" stroke="black"/>
<path d="M73.0228,337.964v 9.2593" fill="none" stroke="black"/>
<path d="M88.2952,342.594v 4.62965" fill="none" stroke="black"/>
<path d="M103.568,342.594v 4.62965" fill="none" stroke="black"/>
<path d="M118.84,342.594v 4.62965" fill="none" stroke="black"/>
<path d="M134.113,337.964v 9.2593" fill="none" stroke="black"/>
<path d="M149.385,342.594v 4.62965" fill="none" stroke="black"/>
<path d="M164.657,342.594v 4.62965" fill="none" stroke="black"/>
<path d="M179.93,342.594v 4.62965" fill="none" stroke="black"/>
<path d="M195.202,337.964v 9.2593" fill="none" stroke="black"/>
<path d="M210.475,342.594v 4.62965" fill="none" stroke="black"/>
<path d="M225.747,342.594v 4.62965" fill="none" stroke="black"/>
<path d="M241.02,342.594v 4.62965" fill="none" stroke="black"/>
<path d="M256.292,337.964v 9.2593" fill="none" stroke="black"/>
<path d="M271.564,342.594v 4.62965" fill="none" stroke="black"/>
<path d="M286.837,342.594v 4.62965" fill="none" stroke="black"/>
<path d="M302.109,342.594v 4.62965" fill="none" stroke="black"/>
<path d="M317.382,337.964v 9.2593" fill="none" stroke="black"/>
<path d="M332.654,342.594v 4.62965" fill="none" stroke="black"/>
<path d="M347.927,342.594v 4.62965" fill="none" stroke="black"/>
<path d="M363.199,342.594v 4.62965" fill="none" stroke="black"/>
<path d="M378.471,337.964v 9.2593" fill="none" stroke="black"/>
<path d="M393.744,342.594v 4.62965" fill="none" stroke="black"/>
<path d="M409.016,342.594v 4.62965" fill="none" stroke="black"/>
<path d="M424.289,342.594v 4.62965" fill="none" stroke="black"/>
<path d="M439.561,337.964v 9.2593" fill="none" stroke="black"/>
<path d="M454.834,342.594v 4.62965" fill="none" stroke="black"/>
<path d="M470.106,342.594v 4.62965" fill="none" stroke="black"/>
<path d="M485.379,342.594v 4.62965" fill="none" stroke="black"/>
<path d="M500.651,337.964v 9.2593" fill="none" stroke="black"/>
<path d="M73.0228,337.964v 9.2593" fill="none" stroke="black"/>
<path d="M57.7503,342.594v 4.62965" fill="none" stroke="black"/>
<path d="M500.651,337.964v 9.2593" fill="none" stroke="black"/>
<text xml:space="preserve" x="64.6653" y="359.813" fill="black" font-size="12.8882" font-family="Helvetica">400</text>
<text xml:space="preserve" x="58.1676" y="359.813" fill="black" font-size="12.8882" font-family="Times">&#8722;</text>
<text xml:space="preserve" x="125.582" y="359.813" fill="black" font-size="12.8882" font-family="Helvetica">200</text>
<text xml:space="preserve" x="119.084" y="359.813" fill="black" font-size="12.8882" font-family="Times">&#8722;</text>
<text xml:space="preserve" x="190.559" y="359.813" fill="black" font-size="12.8882" font-family="Helvetica">0</text>
<text xml:space="preserve" x="244.166" y="359.813" fill="black" font-size="12.8882" font-family="Helvetica">200</text>
<text xml:space="preserve" x="305.895" y="359.813" fill="black" font-size="12.8882" font-family="Helvetica">400</text>
<text xml:space="preserve" x="366.811" y="359.813" fill="black" font-size="12.8882" font-family="Helvetica">600</text>
<text xml:space="preserve" x="427.727" y="359.813" fill="black" font-size="12.8882" font-family="Helvetica">800</text>
<text xml:space="preserve" x="485.395" y="359.813" fill="black" font-size="12.8882" font-family="Helvetica">1000</text>
<text xml:space="preserve" x="430.164" y="372.809" fill="black" font-size="12.8882" font-family="Helvetica">distance [mm]</text>
<path d="M57.1929,347.224v -308.643" fill="none" stroke="black"/>
<path d="M70.7992,331.792h -13.6063" fill="none" stroke="black"/>
<path d="M63.9961,325.619h -6.80315" fill="none" stroke="black"/>
<path d="M63.9961,319.446h -6.80315" fill="none" stroke="black"/>
<path d="M63.9961,313.273h -6.80315" fill="none" stroke="black"/>
<path d="M63.9961,307.1h -6.80315" fill="none" stroke="black"/>
<path d="M70.7992,300.927h -13.6063" fill="none" stroke="black"/>
<path d="M63.9961,294.754h -6.80315" fill="none" stroke="black"/>
<path d="M63.9961,288.582h -6.80315" fill="none" stroke="black"/>
<path d="M63.9961,282.409h -6.80315" fill="none" stroke="black"/>
<path d="M63.9961,276.236h -6.80315" fill="none" stroke="black"/>
<path d="M70.7992,270.063h -13.6063" fill="none" stroke="black"/>
<path d="M63.9961,263.89h -6.80315" fill="none" stroke="black"/>
<path d="M63.9961,257.717h -6.80315" fill="none" stroke="black"/>
<path d="M63.9961,251.544h -6.80315" fill="none" stroke="black"/>
<path d="M63.9961,245.371h -6.80315" fill="none" stroke="black"/>
<path d="M70.7992,239.199h -13.6063" fill="none" stroke="black"/>
<path d="M63.9961,233.026h -6.80315" fill="none" stroke="black"/>
<path d="M63.9961,226.853h -6.80315" fill="none" stroke="black"/>
<path d="M63.9961,220.68h -6.80315" fill="none" stroke="black"/>
<path d="M63.9961,214.507h -6.80315" fill="none" stroke="black"/>
<path d="M70.7992,208.334h -13.6063" fill="none" stroke="black"/>
<path d="M63.9961,202.161h -6.80315" fill="none" stroke="black"/>
<path d="M63.9961,195.989h -6.80315" fill="none" stroke="black"/>
<path d="M63.9961,189.816h -6.80315" fill="none" stroke="black"/>
<path d="M63.9961,183.643h -6.80315" fill="none" stroke="black"/>
<path d="M70.7992,177.47h -13.6063" fill="none" stroke="black"/>
<path d="M63.9961,171.297h -6.80315" fill="none" stroke="black"/>
<path d="M63.9961,165.124h -6.80315" fill="none" stroke="black"/>
<path d="M63.9961,158.951h -6.80315" fill="none" stroke="black"/>
<path d="M63.9961,152.778h -6.80315" fill="none" stroke="black"/>
<path d="M70.7992,146.606h -13.6063" fill="none" stroke="black"/>
<path d="M63.9961,140.433h -6.80315" fill="none" stroke="black"/>
<path d="M63.9961,134.26h -6.80315" fill="none" stroke="black"/>
<path d="M63.9961,128.087h -6.80315" fill="none" stroke="black"/>
<path d="M63.9961,121.914h -6.80315" fill="none" stroke="black"/>
<path d="M70.7992,115.741h -13.6063" fill="none" stroke="black"/>
<path d="M63.9961,109.568h -6.80315" fill="none" stroke="black"/>
<path d="M63.9961,103.396h -6.80315" fill="none" stroke="black"/>
<path d="M63.9961,97.2227h -6.80315" fill="none" stroke="black"/>
<path d="M63.9961,91.0498h -6.80315" fill="none" stroke="black"/>
<path d="M70.7992,84.8769h -13.6063" fill="none" stroke="black"/>
<path d="M63.9961,78.7041h -6.80315" fill="none" stroke="black"/>
<path d="M63.9961,72.5312h -6.80315" fill="none" stroke="black"/>
<path d="M63.9961,66.3583h -6.80315" fill="none" stroke="black"/>
<path d="M63.9961,60.1855h -6.80315" fill="none" stroke="black"/>
<path d="M70.7992,54.0126h -13.6063" fill="none" stroke="black"/>
<path d="M70.7992,331.792h -13.6063" fill="none" stroke="black"/>
<path d="M63.9961,337.964h -6.80315" fill="none" stroke="black"/>
<path d="M63.9961,344.137h -6.80315" fill="none" stroke="black"/>
<path d="M70.7992,54.0126h -13.6063" fill="none" stroke="black"/>
<path d="M63.9961,47.8397h -6.80315" fill="none" stroke="black"/>
<path d="M63.9961,41.6669h -6.80315" fill="none" stroke="black"/>
<text xml:space="preserve" x="46.7965" y="336.259" fill="black" font-size="12.8882" font-family="Helvetica">0</text>
<text xml:space="preserve" x="49.2332" y="306.207" fill="black" font-size="12.8882" font-family="Helvetica">1</text>
<text xml:space="preserve" x="46.7965" y="275.342" fill="black" font-size="12.8882" font-family="Helvetica">2</text>
<text xml:space="preserve" x="46.7965" y="243.666" fill="black" font-size="12.8882" font-family="Helvetica">3</text>
<text xml:space="preserve" x="46.7965" y="213.614" fill="black" font-size="12.8882" font-family="Helvetica">4</text>
<text xml:space="preserve" x="46.7965" y="181.937" fill="black" font-size="12.8882" font-family="Helvetica">5</text>
<text xml:space="preserve" x="46.7965" y="151.073" fill="black" font-size="12.8882" font-family="Helvetica">6</text>
<text xml:space="preserve" x="46.7965" y="121.021" fill="black" font-size="12.8882" font-family="Helvetica">7</text>
<text xml:space="preserve" x="46.7965" y="89.3441" fill="black" font-size="12.8882" font-family="Helvetica">8</text>
<text xml:space="preserve" x="46.7965" y="58.4798" fill="black" font-size="12.8882" font-family="Helvetica">9</text>
<g transform="rotate(-90,34.6132,69.8509)">
<text xml:space="preserve" x="34.6132" y="69.8509" fill="black" font-size="12.8882" font-family="Helvetica"> layer</text>
</g>
<rect x="442.705" y="25.0773" width="113.386" height="15.4322" fill="white"/>
<path d="M442.705,40.5094h 113.386" fill="none" stroke="black"/>
<path d="M556.091,40.5094v -15.4322" fill="none" stroke="black"/>
<path d="M556.091,25.0773h -113.386" fill="none" stroke="black"/>
<path d="M442.705,25.0773v 15.4322" fill="none" stroke="black"/>
<text xml:space="preserve" x="448.033" y="37.3621" fill="black" font-size="13.5253" font-family="Helvetica">Entries </text>
<text xml:space="preserve" x="510.574" y="37.3621" fill="black" font-size="13.5253" font-family="Helvetica"> 35712</text>
<rect x="442.705" y="25.0773" width="113.386" height="15.4322" fill="white"/>
<path d="M442.705,40.5094h 113.386" fill="none" stroke="black"/>
<path d="M556.091,40.5094v -15.4322" fill="none" stroke="black"/>
<path d="M556.091,25.0773h -113.386" fill="none" stroke="black"/>
<path d="M442.705,25.0773v 15.4322" fill="none" stroke="black"/>
<text xml:space="preserve" x="448.033" y="37.3621" fill="black" font-size="13.5253" font-family="Helvetica">Entries </text>
<text xml:space="preserve" x="510.574" y="37.3621" fill="black" font-size="13.5253" font-family="Helvetica"> 35712</text></svg>
