<?xml version="1.0" standalone="no"?>
<svg width="567.429" height="386.304" viewBox="0 0 567.429 386.304" xmlns="http://www.w3.org/2000/svg" shape-rendering="crispEdges">
<title>
img/week2/Combined560mm_ch_60_61_62_63.svg
</title>
<desc>
Creator: ROOT Version 6.22/08
CreationDate: Mon Jun 21 21:39:48 2021</desc>
<defs>
</defs>
<rect x="0.5" y="0" width="566.929" height="385.804" fill="white"/>
<rect x="57.1929" y="38.5804" width="453.543" height="308.643" fill="white"/>
<rect x="57.1929" y="38.5804" width="453.543" height="308.643" fill="none" stroke="black"/>
<rect x="57.1929" y="38.5804" width="453.543" height="308.643" fill="white"/>
<rect x="57.1929" y="38.5804" width="453.543" height="308.643" fill="none" stroke="black"/>
<path d="M57.1929,347.224h 120.945v -9.21068h 30.2362v -2.30267h 30.2362v -82.8961h 30.2362v -193.424h 30.2362v 135.858h 30.2362v 145.068h 30.2362v 6.90801h 151.181" fill="none" stroke="#000099"/>
<g fill="#ff0000">
<polygon points=" 279.741, 55.1665 288.188, 55.1665 283.965, 63.6136"/>
</g>
<path d="M59.4606,347.224h 131.528l 4.53543, -0.0648422l 4.53543, -0.0818948l 4.53543, -0.171792l 4.53543, -0.344733l 4.53543, -0.661532l 4.53543, -1.21348l 4.53543, -2.12678l 4.53543, -3.55929l 4.53543, -5.68393l 4.53543, -8.65346l 4.53543,
 -12.5457l 4.53543, -17.2951l 4.53543, -22.6272l 4.53543, -28.0187l 4.53543, -32.713l 4.53543, -35.8075l 4.53543, -36.4142l 4.53543, -33.8661l 4.53543, -27.9176l 4.53543, -18.8752" fill="none" stroke="#ff0000" stroke-width="2"/>
<path d="M281.697,58.5818l 4.53543, -7.60752l 4.53543, 4.58544l 4.53543, 16.2187l 4.53543, 25.9198l 4.53543, 32.6943l 4.53543, 36.0906l 4.53543, 36.2243l 4.53543, 33.6741l 4.53543, 29.2928l 4.53543, 23.997l 4.53543, 18.5911l 4.53543, 13.6607l
 4.53543, 9.54063l 4.53543, 6.34308l 4.53543, 4.01946l 4.53543, 2.4299l 4.53543, 1.40246l 4.53543, 0.77329l 4.53543, 0.407529l 4.53543, 0.205363l 4.53543, 0.0989888l 4.53543, 0.045654l 4.53543, 0.0342054h 117.921" fill="none" stroke="#ff0000"
 stroke-width="2"/>
<path d="M503.933,347.224h 4.53543" fill="none" stroke="#ff0000" stroke-width="2"/>
<path d="M57.1929,347.224h 453.543" fill="none" stroke="black"/>
<path d="M84.5516,337.964v 9.2593" fill="none" stroke="black"/>
<path d="M99.6623,342.594v 4.62965" fill="none" stroke="black"/>
<path d="M114.773,342.594v 4.62965" fill="none" stroke="black"/>
<path d="M129.884,342.594v 4.62965" fill="none" stroke="black"/>
<path d="M144.995,342.594v 4.62965" fill="none" stroke="black"/>
<path d="M160.105,337.964v 9.2593" fill="none" stroke="black"/>
<path d="M175.216,342.594v 4.62965" fill="none" stroke="black"/>
<path d="M190.327,342.594v 4.62965" fill="none" stroke="black"/>
<path d="M205.437,342.594v 4.62965" fill="none" stroke="black"/>
<path d="M220.548,342.594v 4.62965" fill="none" stroke="black"/>
<path d="M235.659,337.964v 9.2593" fill="none" stroke="black"/>
<path d="M250.77,342.594v 4.62965" fill="none" stroke="black"/>
<path d="M265.88,342.594v 4.62965" fill="none" stroke="black"/>
<path d="M280.991,342.594v 4.62965" fill="none" stroke="black"/>
<path d="M296.102,342.594v 4.62965" fill="none" stroke="black"/>
<path d="M311.213,337.964v 9.2593" fill="none" stroke="black"/>
<path d="M326.323,342.594v 4.62965" fill="none" stroke="black"/>
<path d="M341.434,342.594v 4.62965" fill="none" stroke="black"/>
<path d="M356.545,342.594v 4.62965" fill="none" stroke="black"/>
<path d="M371.656,342.594v 4.62965" fill="none" stroke="black"/>
<path d="M386.766,337.964v 9.2593" fill="none" stroke="black"/>
<path d="M401.877,342.594v 4.62965" fill="none" stroke="black"/>
<path d="M416.988,342.594v 4.62965" fill="none" stroke="black"/>
<path d="M432.098,342.594v 4.62965" fill="none" stroke="black"/>
<path d="M447.209,342.594v 4.62965" fill="none" stroke="black"/>
<path d="M462.32,337.964v 9.2593" fill="none" stroke="black"/>
<path d="M84.5516,337.964v 9.2593" fill="none" stroke="black"/>
<path d="M69.4409,342.594v 4.62965" fill="none" stroke="black"/>
<path d="M462.32,337.964v 9.2593" fill="none" stroke="black"/>
<path d="M477.431,342.594v 4.62965" fill="none" stroke="black"/>
<path d="M492.541,342.594v 4.62965" fill="none" stroke="black"/>
<path d="M507.652,342.594v 4.62965" fill="none" stroke="black"/>
<text xml:space="preserve" x="72.7875" y="359.813" fill="black" font-size="12.8882" font-family="Helvetica">780</text>
<text xml:space="preserve" x="148.324" y="359.813" fill="black" font-size="12.8882" font-family="Helvetica">790</text>
<text xml:space="preserve" x="223.86" y="359.813" fill="black" font-size="12.8882" font-family="Helvetica">800</text>
<text xml:space="preserve" x="299.397" y="359.813" fill="black" font-size="12.8882" font-family="Helvetica">810</text>
<text xml:space="preserve" x="374.933" y="359.813" fill="black" font-size="12.8882" font-family="Helvetica">820</text>
<text xml:space="preserve" x="450.47" y="359.813" fill="black" font-size="12.8882" font-family="Helvetica">830</text>
<text xml:space="preserve" x="481.334" y="373.621" fill="black" font-size="12.8882" font-family="Helvetica">Time</text>
<path d="M57.1929,347.224v -308.643" fill="none" stroke="black"/>
<path d="M70.7992,347.224h -13.6063" fill="none" stroke="black"/>
<path d="M63.9961,335.71h -6.80315" fill="none" stroke="black"/>
<path d="M63.9961,324.197h -6.80315" fill="none" stroke="black"/>
<path d="M63.9961,312.684h -6.80315" fill="none" stroke="black"/>
<path d="M70.7992,301.17h -13.6063" fill="none" stroke="black"/>
<path d="M63.9961,289.657h -6.80315" fill="none" stroke="black"/>
<path d="M63.9961,278.144h -6.80315" fill="none" stroke="black"/>
<path d="M63.9961,266.63h -6.80315" fill="none" stroke="black"/>
<path d="M70.7992,255.117h -13.6063" fill="none" stroke="black"/>
<path d="M63.9961,243.604h -6.80315" fill="none" stroke="black"/>
<path d="M63.9961,232.09h -6.80315" fill="none" stroke="black"/>
<path d="M63.9961,220.577h -6.80315" fill="none" stroke="black"/>
<path d="M70.7992,209.064h -13.6063" fill="none" stroke="black"/>
<path d="M63.9961,197.55h -6.80315" fill="none" stroke="black"/>
<path d="M63.9961,186.037h -6.80315" fill="none" stroke="black"/>
<path d="M63.9961,174.524h -6.80315" fill="none" stroke="black"/>
<path d="M70.7992,163.01h -13.6063" fill="none" stroke="black"/>
<path d="M63.9961,151.497h -6.80315" fill="none" stroke="black"/>
<path d="M63.9961,139.984h -6.80315" fill="none" stroke="black"/>
<path d="M63.9961,128.47h -6.80315" fill="none" stroke="black"/>
<path d="M70.7992,116.957h -13.6063" fill="none" stroke="black"/>
<path d="M63.9961,105.443h -6.80315" fill="none" stroke="black"/>
<path d="M63.9961,93.9301h -6.80315" fill="none" stroke="black"/>
<path d="M63.9961,82.4168h -6.80315" fill="none" stroke="black"/>
<path d="M70.7992,70.9034h -13.6063" fill="none" stroke="black"/>
<path d="M70.7992,70.9034h -13.6063" fill="none" stroke="black"/>
<path d="M63.9961,59.3901h -6.80315" fill="none" stroke="black"/>
<path d="M63.9961,47.8767h -6.80315" fill="none" stroke="black"/>
<text xml:space="preserve" x="46.7965" y="351.691" fill="black" font-size="12.8882" font-family="Helvetica">0</text>
<text xml:space="preserve" x="39.4865" y="305.395" fill="black" font-size="12.8882" font-family="Helvetica">20</text>
<text xml:space="preserve" x="39.4865" y="259.91" fill="black" font-size="12.8882" font-family="Helvetica">40</text>
<text xml:space="preserve" x="39.4865" y="213.614" fill="black" font-size="12.8882" font-family="Helvetica">60</text>
<text xml:space="preserve" x="39.4865" y="167.317" fill="black" font-size="12.8882" font-family="Helvetica">80</text>
<text xml:space="preserve" x="32.1766" y="121.021" fill="black" font-size="12.8882" font-family="Helvetica">100</text>
<text xml:space="preserve" x="32.1766" y="75.5364" fill="black" font-size="12.8882" font-family="Helvetica">120</text>
<g transform="rotate(-90,21.6177,71.4753)">
<text xml:space="preserve" x="21.6177" y="71.4753" fill="black" font-size="12.8882" font-family="Helvetica">Event</text>
</g>
<text xml:space="preserve" x="208.428" y="18.681" fill="black" font-size="17.0471" font-family="Helvetica">560mm 60 61 62 63</text></svg>
