<?xml version="1.0" standalone="no"?>
<svg width="567.429" height="386.304" viewBox="0 0 567.429 386.304" xmlns="http://www.w3.org/2000/svg" shape-rendering="crispEdges">
<title>
img/week2/Combined670mm_ch_31.svg
</title>
<desc>
Creator: ROOT Version 6.22/08
CreationDate: Thu Jun 24 12:00:38 2021</desc>
<defs>
</defs>
<rect x="0.5" y="0" width="566.929" height="385.804" fill="white"/>
<rect x="57.1929" y="38.5804" width="453.543" height="308.643" fill="white"/>
<rect x="57.1929" y="38.5804" width="453.543" height="308.643" fill="none" stroke="black"/>
<rect x="57.1929" y="38.5804" width="453.543" height="308.643" fill="white"/>
<rect x="57.1929" y="38.5804" width="453.543" height="308.643" fill="none" stroke="black"/>
<path d="M57.1929,347.224h 161.98v -39.6332h 32.396v -214.68h 32.396v -39.6332h 32.396v 284.038h 32.396v 9.90829h 161.98" fill="none" stroke="#000099"/>
<g fill="#ff0000">
<polygon points=" 263.543, 88.6874 271.99, 88.6874 267.767, 97.1344"/>
</g>
<path d="M59.4606,347.224h 136.063l 4.53543, -0.052118l 4.53543, -0.0820615l 4.53543, -0.193394l 4.53543, -0.430752l 4.53543, -0.906337l 4.53543, -1.80048l 4.53543, -3.3746l 4.53543, -5.9624l 4.53543, -9.92003l 4.53543, -15.5199l 4.53543, -22.7898l
 4.53543, -31.3307l 4.53543, -40.1812l 4.53543, -47.8189l 4.53543, -52.3704l 4.53543, -52.0365l 2.37242, -23.8739" fill="none" stroke="#ff0000" stroke-width="2"/>
<path d="M295.718,38.5804l 4.12088, 44.5139" fill="none" stroke="#ff0000" stroke-width="2"/>
<path d="M299.839,83.0943l 4.53543, 52.8559l 4.53543, 51.0238l 4.53543, 44.991l 4.53543, 36.6494l 4.53543, 27.7701l 4.53543, 19.6613l 4.53543, 13.047l 4.53543, 8.13284l 4.53543, 4.77006l 4.53543, 2.63574l 4.53543, 1.37343l 4.53543, 0.675423l 4.53543,
 0.313678l 4.53543, 0.137644l 4.53543, 0.0570931l 4.53543, 0.0350162h 136.063" fill="none" stroke="#ff0000" stroke-width="2"/>
<rect x="351.996" y="25.0773" width="204.094" height="108.025" fill="white"/>
<path d="M351.996,133.102h 204.094" fill="none" stroke="black"/>
<path d="M556.091,133.102v -108.025" fill="none" stroke="black"/>
<path d="M556.091,25.0773h -204.094" fill="none" stroke="black"/>
<path d="M351.996,25.0773v 108.025" fill="none" stroke="black"/>
<text xml:space="preserve" x="361.938" y="38.9865" fill="black" font-size="15.6962" font-family="Helvetica">Entries </text>
<text xml:space="preserve" x="517.884" y="38.9865" fill="black" font-size="15.6962" font-family="Helvetica"> 181</text>
<text xml:space="preserve" x="375.745" y="57.6676" fill="black" font-size="15.6962" font-family="Helvetica"> / ndf </text>
<text xml:space="preserve" x="370.06" y="52.7943" fill="black" font-size="10.6308" font-family="Helvetica">2</text>
<text xml:space="preserve" x="361.938" y="57.6676" fill="black" font-size="15.6962" font-family="Times">&#0967;</text>
<text xml:space="preserve" x="483.771" y="57.6676" fill="black" font-size="15.6962" font-family="Helvetica"> 6.054 / 1</text>
<text xml:space="preserve" x="361.938" y="75.5364" fill="black" font-size="15.6962" font-family="Helvetica">Prob  </text>
<text xml:space="preserve" x="485.395" y="75.5364" fill="black" font-size="15.6962" font-family="Helvetica"> 0.01387</text>
<text xml:space="preserve" x="361.938" y="94.2175" fill="black" font-size="15.6962" font-family="Helvetica">Const    </text>
<text xml:space="preserve" x="511.386" y="93.4052" fill="black" font-size="15.6962" font-family="Helvetica"> 12.3</text>
<text xml:space="preserve" x="502.452" y="93.4052" fill="black" font-size="15.6962" font-family="Times">&#0177;</text>
<text xml:space="preserve" x="457.78" y="93.4052" fill="black" font-size="15.6962" font-family="Helvetica"> 115.1 </text>
<text xml:space="preserve" x="361.938" y="111.274" fill="black" font-size="15.6962" font-family="Helvetica">Mean     </text>
<text xml:space="preserve" x="520.32" y="111.274" fill="black" font-size="15.6962" font-family="Helvetica"> 0.2</text>
<text xml:space="preserve" x="511.386" y="111.274" fill="black" font-size="15.6962" font-family="Times">&#0177;</text>
<text xml:space="preserve" x="464.277" y="111.274" fill="black" font-size="15.6962" font-family="Helvetica"> 808.3 </text>
<text xml:space="preserve" x="361.938" y="128.331" fill="black" font-size="15.6962" font-family="Helvetica">Sigma    </text>
<text xml:space="preserve" x="505.7" y="129.143" fill="black" font-size="15.6962" font-family="Helvetica"> 0.181</text>
<text xml:space="preserve" x="496.766" y="129.143" fill="black" font-size="15.6962" font-family="Times">&#0177;</text>
<text xml:space="preserve" x="452.094" y="129.143" fill="black" font-size="15.6962" font-family="Helvetica"> 2.431 </text>
<path d="M57.1929,347.224h 453.543" fill="none" stroke="black"/>
<path d="M135.06,337.964v 9.2593" fill="none" stroke="black"/>
<path d="M151.25,342.594v 4.62965" fill="none" stroke="black"/>
<path d="M167.44,342.594v 4.62965" fill="none" stroke="black"/>
<path d="M183.63,342.594v 4.62965" fill="none" stroke="black"/>
<path d="M199.82,342.594v 4.62965" fill="none" stroke="black"/>
<path d="M216.011,337.964v 9.2593" fill="none" stroke="black"/>
<path d="M232.201,342.594v 4.62965" fill="none" stroke="black"/>
<path d="M248.391,342.594v 4.62965" fill="none" stroke="black"/>
<path d="M264.581,342.594v 4.62965" fill="none" stroke="black"/>
<path d="M280.771,342.594v 4.62965" fill="none" stroke="black"/>
<path d="M296.961,337.964v 9.2593" fill="none" stroke="black"/>
<path d="M313.151,342.594v 4.62965" fill="none" stroke="black"/>
<path d="M329.341,342.594v 4.62965" fill="none" stroke="black"/>
<path d="M345.531,342.594v 4.62965" fill="none" stroke="black"/>
<path d="M361.721,342.594v 4.62965" fill="none" stroke="black"/>
<path d="M377.911,337.964v 9.2593" fill="none" stroke="black"/>
<path d="M394.101,342.594v 4.62965" fill="none" stroke="black"/>
<path d="M410.291,342.594v 4.62965" fill="none" stroke="black"/>
<path d="M426.481,342.594v 4.62965" fill="none" stroke="black"/>
<path d="M442.672,342.594v 4.62965" fill="none" stroke="black"/>
<path d="M458.862,337.964v 9.2593" fill="none" stroke="black"/>
<path d="M135.06,337.964v 9.2593" fill="none" stroke="black"/>
<path d="M118.87,342.594v 4.62965" fill="none" stroke="black"/>
<path d="M102.68,342.594v 4.62965" fill="none" stroke="black"/>
<path d="M86.49,342.594v 4.62965" fill="none" stroke="black"/>
<path d="M70.2999,342.594v 4.62965" fill="none" stroke="black"/>
<path d="M458.862,337.964v 9.2593" fill="none" stroke="black"/>
<path d="M475.052,342.594v 4.62965" fill="none" stroke="black"/>
<path d="M491.242,342.594v 4.62965" fill="none" stroke="black"/>
<path d="M507.432,342.594v 4.62965" fill="none" stroke="black"/>
<text xml:space="preserve" x="123.145" y="359.813" fill="black" font-size="12.8882" font-family="Helvetica">790</text>
<text xml:space="preserve" x="204.367" y="359.813" fill="black" font-size="12.8882" font-family="Helvetica">800</text>
<text xml:space="preserve" x="285.589" y="359.813" fill="black" font-size="12.8882" font-family="Helvetica">810</text>
<text xml:space="preserve" x="365.999" y="359.813" fill="black" font-size="12.8882" font-family="Helvetica">820</text>
<text xml:space="preserve" x="447.221" y="359.813" fill="black" font-size="12.8882" font-family="Helvetica">830</text>
<text xml:space="preserve" x="457.78" y="372.809" fill="black" font-size="12.8882" font-family="Helvetica">Time [ns]</text>
<path d="M57.1929,347.224v -308.643" fill="none" stroke="black"/>
<path d="M70.7992,347.224h -13.6063" fill="none" stroke="black"/>
<path d="M63.9961,340.618h -6.80315" fill="none" stroke="black"/>
<path d="M63.9961,334.013h -6.80315" fill="none" stroke="black"/>
<path d="M63.9961,327.407h -6.80315" fill="none" stroke="black"/>
<path d="M63.9961,320.802h -6.80315" fill="none" stroke="black"/>
<path d="M70.7992,314.196h -13.6063" fill="none" stroke="black"/>
<path d="M63.9961,307.591h -6.80315" fill="none" stroke="black"/>
<path d="M63.9961,300.985h -6.80315" fill="none" stroke="black"/>
<path d="M63.9961,294.38h -6.80315" fill="none" stroke="black"/>
<path d="M63.9961,287.774h -6.80315" fill="none" stroke="black"/>
<path d="M70.7992,281.168h -13.6063" fill="none" stroke="black"/>
<path d="M63.9961,274.563h -6.80315" fill="none" stroke="black"/>
<path d="M63.9961,267.957h -6.80315" fill="none" stroke="black"/>
<path d="M63.9961,261.352h -6.80315" fill="none" stroke="black"/>
<path d="M63.9961,254.746h -6.80315" fill="none" stroke="black"/>
<path d="M70.7992,248.141h -13.6063" fill="none" stroke="black"/>
<path d="M63.9961,241.535h -6.80315" fill="none" stroke="black"/>
<path d="M63.9961,234.93h -6.80315" fill="none" stroke="black"/>
<path d="M63.9961,228.324h -6.80315" fill="none" stroke="black"/>
<path d="M63.9961,221.719h -6.80315" fill="none" stroke="black"/>
<path d="M70.7992,215.113h -13.6063" fill="none" stroke="black"/>
<path d="M63.9961,208.508h -6.80315" fill="none" stroke="black"/>
<path d="M63.9961,201.902h -6.80315" fill="none" stroke="black"/>
<path d="M63.9961,195.297h -6.80315" fill="none" stroke="black"/>
<path d="M63.9961,188.691h -6.80315" fill="none" stroke="black"/>
<path d="M70.7992,182.086h -13.6063" fill="none" stroke="black"/>
<path d="M63.9961,175.48h -6.80315" fill="none" stroke="black"/>
<path d="M63.9961,168.874h -6.80315" fill="none" stroke="black"/>
<path d="M63.9961,162.269h -6.80315" fill="none" stroke="black"/>
<path d="M63.9961,155.663h -6.80315" fill="none" stroke="black"/>
<path d="M70.7992,149.058h -13.6063" fill="none" stroke="black"/>
<path d="M63.9961,142.452h -6.80315" fill="none" stroke="black"/>
<path d="M63.9961,135.847h -6.80315" fill="none" stroke="black"/>
<path d="M63.9961,129.241h -6.80315" fill="none" stroke="black"/>
<path d="M63.9961,122.636h -6.80315" fill="none" stroke="black"/>
<path d="M70.7992,116.03h -13.6063" fill="none" stroke="black"/>
<path d="M63.9961,109.425h -6.80315" fill="none" stroke="black"/>
<path d="M63.9961,102.819h -6.80315" fill="none" stroke="black"/>
<path d="M63.9961,96.2137h -6.80315" fill="none" stroke="black"/>
<path d="M63.9961,89.6081h -6.80315" fill="none" stroke="black"/>
<path d="M70.7992,83.0026h -13.6063" fill="none" stroke="black"/>
<path d="M63.9961,76.3971h -6.80315" fill="none" stroke="black"/>
<path d="M63.9961,69.7915h -6.80315" fill="none" stroke="black"/>
<path d="M63.9961,63.186h -6.80315" fill="none" stroke="black"/>
<path d="M63.9961,56.5805h -6.80315" fill="none" stroke="black"/>
<path d="M70.7992,49.975h -13.6063" fill="none" stroke="black"/>
<path d="M70.7992,49.975h -13.6063" fill="none" stroke="black"/>
<path d="M63.9961,43.3694h -6.80315" fill="none" stroke="black"/>
<text xml:space="preserve" x="46.7965" y="351.691" fill="black" font-size="12.8882" font-family="Helvetica">0</text>
<text xml:space="preserve" x="39.4865" y="318.39" fill="black" font-size="12.8882" font-family="Helvetica">10</text>
<text xml:space="preserve" x="39.4865" y="285.901" fill="black" font-size="12.8882" font-family="Helvetica">20</text>
<text xml:space="preserve" x="39.4865" y="252.6" fill="black" font-size="12.8882" font-family="Helvetica">30</text>
<text xml:space="preserve" x="39.4865" y="219.299" fill="black" font-size="12.8882" font-family="Helvetica">40</text>
<text xml:space="preserve" x="39.4865" y="186.81" fill="black" font-size="12.8882" font-family="Helvetica">50</text>
<text xml:space="preserve" x="39.4865" y="153.509" fill="black" font-size="12.8882" font-family="Helvetica">60</text>
<text xml:space="preserve" x="39.4865" y="120.208" fill="black" font-size="12.8882" font-family="Helvetica">70</text>
<text xml:space="preserve" x="39.4865" y="87.7197" fill="black" font-size="12.8882" font-family="Helvetica">80</text>
<text xml:space="preserve" x="39.4865" y="54.4187" fill="black" font-size="12.8882" font-family="Helvetica">90</text>
<g transform="rotate(-90,28.9277,71.4753)">
<text xml:space="preserve" x="28.9277" y="71.4753" fill="black" font-size="12.8882" font-family="Helvetica">Event</text>
</g>
<rect x="351.996" y="25.0773" width="204.094" height="108.025" fill="white"/>
<path d="M351.996,133.102h 204.094" fill="none" stroke="black"/>
<path d="M556.091,133.102v -108.025" fill="none" stroke="black"/>
<path d="M556.091,25.0773h -204.094" fill="none" stroke="black"/>
<path d="M351.996,25.0773v 108.025" fill="none" stroke="black"/>
<text xml:space="preserve" x="361.938" y="38.9865" fill="black" font-size="15.6962" font-family="Helvetica">Entries </text>
<text xml:space="preserve" x="517.884" y="38.9865" fill="black" font-size="15.6962" font-family="Helvetica"> 181</text>
<text xml:space="preserve" x="375.745" y="57.6676" fill="black" font-size="15.6962" font-family="Helvetica"> / ndf </text>
<text xml:space="preserve" x="370.06" y="52.7943" fill="black" font-size="10.6308" font-family="Helvetica">2</text>
<text xml:space="preserve" x="361.938" y="57.6676" fill="black" font-size="15.6962" font-family="Times">&#0967;</text>
<text xml:space="preserve" x="483.771" y="57.6676" fill="black" font-size="15.6962" font-family="Helvetica"> 6.054 / 1</text>
<text xml:space="preserve" x="361.938" y="75.5364" fill="black" font-size="15.6962" font-family="Helvetica">Prob  </text>
<text xml:space="preserve" x="485.395" y="75.5364" fill="black" font-size="15.6962" font-family="Helvetica"> 0.01387</text>
<text xml:space="preserve" x="361.938" y="94.2175" fill="black" font-size="15.6962" font-family="Helvetica">Const    </text>
<text xml:space="preserve" x="511.386" y="93.4052" fill="black" font-size="15.6962" font-family="Helvetica"> 12.3</text>
<text xml:space="preserve" x="502.452" y="93.4052" fill="black" font-size="15.6962" font-family="Times">&#0177;</text>
<text xml:space="preserve" x="457.78" y="93.4052" fill="black" font-size="15.6962" font-family="Helvetica"> 115.1 </text>
<text xml:space="preserve" x="361.938" y="111.274" fill="black" font-size="15.6962" font-family="Helvetica">Mean     </text>
<text xml:space="preserve" x="520.32" y="111.274" fill="black" font-size="15.6962" font-family="Helvetica"> 0.2</text>
<text xml:space="preserve" x="511.386" y="111.274" fill="black" font-size="15.6962" font-family="Times">&#0177;</text>
<text xml:space="preserve" x="464.277" y="111.274" fill="black" font-size="15.6962" font-family="Helvetica"> 808.3 </text>
<text xml:space="preserve" x="361.938" y="128.331" fill="black" font-size="15.6962" font-family="Helvetica">Sigma    </text>
<text xml:space="preserve" x="505.7" y="129.143" fill="black" font-size="15.6962" font-family="Helvetica"> 0.181</text>
<text xml:space="preserve" x="496.766" y="129.143" fill="black" font-size="15.6962" font-family="Times">&#0177;</text>
<text xml:space="preserve" x="452.094" y="129.143" fill="black" font-size="15.6962" font-family="Helvetica"> 2.431 </text>
<text xml:space="preserve" x="244.978" y="18.681" fill="black" font-size="17.0471" font-family="Helvetica">670mm 31</text></svg>
