<?xml version="1.0" standalone="no"?>
<svg width="567.429" height="384.969" viewBox="0 0 567.429 384.969" xmlns="http://www.w3.org/2000/svg" shape-rendering="crispEdges">
<title>
img/week2/Combined560mm_ch_10.svg
</title>
<desc>
Creator: ROOT Version 6.22/09
CreationDate: Thu Jun 24 12:12:14 2021</desc>
<defs>
</defs>
<rect x="0.5" y="0" width="566.929" height="384.469" fill="white"/>
<rect x="57.1929" y="38.4469" width="453.543" height="307.575" fill="white"/>
<rect x="57.1929" y="38.4469" width="453.543" height="307.575" fill="none" stroke="black"/>
<rect x="57.1929" y="38.4469" width="453.543" height="307.575" fill="white"/>
<rect x="57.1929" y="38.4469" width="453.543" height="307.575" fill="none" stroke="black"/>
<path d="M57.1929,346.022h 113.386v -7.54084h 56.6929v -67.8676h 28.3465v -180.98h 28.3465v -15.0817h 28.3465v 256.389h 28.3465v 15.0817h 170.079" fill="none" stroke="#000099"/>
<g fill="#ff0000">
<polygon points=" 265.556, 85.3979 274.027, 85.3979 269.791, 93.8692"/>
</g>
<path d="M59.4606,346.022h 126.992l 4.53543, -0.0396398l 4.53543, -0.058091l 4.53543, -0.132022l 4.53543, -0.28526l 4.53543, -0.585777l 4.53543, -1.14268l 4.53543, -2.11631l 4.53543, -3.71884l 4.53543, -6.19516l 4.53543, -9.77371l 4.53543, -14.5829l
 4.53543, -20.5418l 4.53543, -27.252l 4.53543, -33.9357l 4.53543, -39.4696l 4.53543, -42.5474l 4.53543, -41.9627l 4.53543, -36.9513l 4.33698, -26.2844" fill="none" stroke="#ff0000" stroke-width="2"/>
<path d="M286.055,38.4469l 0.176898, 0.608293" fill="none" stroke="#ff0000" stroke-width="2"/>
<path d="M286.232,39.0552l 4.53543, 28.4204l 4.53543, 37.5378l 4.53543, 42.172l 4.53543, 42.4178l 4.53543, 39.0884l 4.53543, 33.4113l 4.53543, 26.687l 4.53543, 20.0146l 4.53543, 14.1403l 4.53543, 9.43304l 4.53543, 5.9522l 4.53543, 3.55719l 4.53543,
 2.01551l 4.53543, 1.08358l 4.53543, 0.553128l 4.53543, 0.268229l 4.53543, 0.123622l 4.53543, 0.05417l 4.53543, 0.0367215h 131.528" fill="none" stroke="#ff0000" stroke-width="2"/>
<path d="M503.933,346.022h 4.53543" fill="none" stroke="#ff0000" stroke-width="2"/>
<path d="M57.1929,346.022h 453.543" fill="none" stroke="black"/>
<path d="M82.8417,336.795v 9.22726" fill="none" stroke="black"/>
<path d="M97.008,341.409v 4.61363" fill="none" stroke="black"/>
<path d="M111.174,341.409v 4.61363" fill="none" stroke="black"/>
<path d="M125.341,341.409v 4.61363" fill="none" stroke="black"/>
<path d="M139.507,341.409v 4.61363" fill="none" stroke="black"/>
<path d="M153.673,336.795v 9.22726" fill="none" stroke="black"/>
<path d="M167.84,341.409v 4.61363" fill="none" stroke="black"/>
<path d="M182.006,341.409v 4.61363" fill="none" stroke="black"/>
<path d="M196.172,341.409v 4.61363" fill="none" stroke="black"/>
<path d="M210.338,341.409v 4.61363" fill="none" stroke="black"/>
<path d="M224.505,336.795v 9.22726" fill="none" stroke="black"/>
<path d="M238.671,341.409v 4.61363" fill="none" stroke="black"/>
<path d="M252.837,341.409v 4.61363" fill="none" stroke="black"/>
<path d="M267.004,341.409v 4.61363" fill="none" stroke="black"/>
<path d="M281.17,341.409v 4.61363" fill="none" stroke="black"/>
<path d="M295.336,336.795v 9.22726" fill="none" stroke="black"/>
<path d="M309.503,341.409v 4.61363" fill="none" stroke="black"/>
<path d="M323.669,341.409v 4.61363" fill="none" stroke="black"/>
<path d="M337.835,341.409v 4.61363" fill="none" stroke="black"/>
<path d="M352.002,341.409v 4.61363" fill="none" stroke="black"/>
<path d="M366.168,336.795v 9.22726" fill="none" stroke="black"/>
<path d="M380.334,341.409v 4.61363" fill="none" stroke="black"/>
<path d="M394.501,341.409v 4.61363" fill="none" stroke="black"/>
<path d="M408.667,341.409v 4.61363" fill="none" stroke="black"/>
<path d="M422.833,341.409v 4.61363" fill="none" stroke="black"/>
<path d="M436.999,336.795v 9.22726" fill="none" stroke="black"/>
<path d="M451.166,341.409v 4.61363" fill="none" stroke="black"/>
<path d="M465.332,341.409v 4.61363" fill="none" stroke="black"/>
<path d="M479.498,341.409v 4.61363" fill="none" stroke="black"/>
<path d="M493.665,341.409v 4.61363" fill="none" stroke="black"/>
<path d="M507.831,336.795v 9.22726" fill="none" stroke="black"/>
<path d="M82.8417,336.795v 9.22726" fill="none" stroke="black"/>
<path d="M68.6754,341.409v 4.61363" fill="none" stroke="black"/>
<path d="M507.831,336.795v 9.22726" fill="none" stroke="black"/>
<text xml:space="preserve" x="72.1807" y="358.403" fill="black" font-size="12.8453" font-family="Helvetica">780</text>
<text xml:space="preserve" x="143.047" y="358.403" fill="black" font-size="12.8453" font-family="Helvetica">790</text>
<text xml:space="preserve" x="213.913" y="358.403" fill="black" font-size="12.8453" font-family="Helvetica">800</text>
<text xml:space="preserve" x="283.965" y="358.403" fill="black" font-size="12.8453" font-family="Helvetica">810</text>
<text xml:space="preserve" x="354.831" y="358.403" fill="black" font-size="12.8453" font-family="Helvetica">820</text>
<text xml:space="preserve" x="425.697" y="358.403" fill="black" font-size="12.8453" font-family="Helvetica">830</text>
<text xml:space="preserve" x="496.563" y="358.403" fill="black" font-size="12.8453" font-family="Helvetica">840</text>
<text xml:space="preserve" x="460.723" y="370.622" fill="black" font-size="12.8453" font-family="Helvetica">Time [ps]</text>
<path d="M57.1929,346.022v -307.575" fill="none" stroke="black"/>
<path d="M70.7992,346.022h -13.6063" fill="none" stroke="black"/>
<path d="M63.9961,338.481h -6.80315" fill="none" stroke="black"/>
<path d="M63.9961,330.941h -6.80315" fill="none" stroke="black"/>
<path d="M63.9961,323.4h -6.80315" fill="none" stroke="black"/>
<path d="M63.9961,315.859h -6.80315" fill="none" stroke="black"/>
<path d="M70.7992,308.318h -13.6063" fill="none" stroke="black"/>
<path d="M63.9961,300.777h -6.80315" fill="none" stroke="black"/>
<path d="M63.9961,293.236h -6.80315" fill="none" stroke="black"/>
<path d="M63.9961,285.695h -6.80315" fill="none" stroke="black"/>
<path d="M63.9961,278.155h -6.80315" fill="none" stroke="black"/>
<path d="M70.7992,270.614h -13.6063" fill="none" stroke="black"/>
<path d="M63.9961,263.073h -6.80315" fill="none" stroke="black"/>
<path d="M63.9961,255.532h -6.80315" fill="none" stroke="black"/>
<path d="M63.9961,247.991h -6.80315" fill="none" stroke="black"/>
<path d="M63.9961,240.45h -6.80315" fill="none" stroke="black"/>
<path d="M70.7992,232.91h -13.6063" fill="none" stroke="black"/>
<path d="M63.9961,225.369h -6.80315" fill="none" stroke="black"/>
<path d="M63.9961,217.828h -6.80315" fill="none" stroke="black"/>
<path d="M63.9961,210.287h -6.80315" fill="none" stroke="black"/>
<path d="M63.9961,202.746h -6.80315" fill="none" stroke="black"/>
<path d="M70.7992,195.205h -13.6063" fill="none" stroke="black"/>
<path d="M63.9961,187.665h -6.80315" fill="none" stroke="black"/>
<path d="M63.9961,180.124h -6.80315" fill="none" stroke="black"/>
<path d="M63.9961,172.583h -6.80315" fill="none" stroke="black"/>
<path d="M63.9961,165.042h -6.80315" fill="none" stroke="black"/>
<path d="M70.7992,157.501h -13.6063" fill="none" stroke="black"/>
<path d="M63.9961,149.96h -6.80315" fill="none" stroke="black"/>
<path d="M63.9961,142.419h -6.80315" fill="none" stroke="black"/>
<path d="M63.9961,134.879h -6.80315" fill="none" stroke="black"/>
<path d="M63.9961,127.338h -6.80315" fill="none" stroke="black"/>
<path d="M70.7992,119.797h -13.6063" fill="none" stroke="black"/>
<path d="M63.9961,112.256h -6.80315" fill="none" stroke="black"/>
<path d="M63.9961,104.715h -6.80315" fill="none" stroke="black"/>
<path d="M63.9961,97.1744h -6.80315" fill="none" stroke="black"/>
<path d="M63.9961,89.6335h -6.80315" fill="none" stroke="black"/>
<path d="M70.7992,82.0927h -13.6063" fill="none" stroke="black"/>
<path d="M63.9961,74.5519h -6.80315" fill="none" stroke="black"/>
<path d="M63.9961,67.011h -6.80315" fill="none" stroke="black"/>
<path d="M63.9961,59.4702h -6.80315" fill="none" stroke="black"/>
<path d="M63.9961,51.9293h -6.80315" fill="none" stroke="black"/>
<path d="M70.7992,44.3885h -13.6063" fill="none" stroke="black"/>
<path d="M70.7992,44.3885h -13.6063" fill="none" stroke="black"/>
<text xml:space="preserve" x="47.7441" y="350.258" fill="black" font-size="12.8453" font-family="Helvetica">0</text>
<text xml:space="preserve" x="47.7441" y="312.788" fill="black" font-size="12.8453" font-family="Helvetica">5</text>
<text xml:space="preserve" x="41.2277" y="275.319" fill="black" font-size="12.8453" font-family="Helvetica">10</text>
<text xml:space="preserve" x="40.4131" y="237.035" fill="black" font-size="12.8453" font-family="Helvetica">15</text>
<text xml:space="preserve" x="41.2277" y="199.566" fill="black" font-size="12.8453" font-family="Helvetica">20</text>
<text xml:space="preserve" x="40.4131" y="162.096" fill="black" font-size="12.8453" font-family="Helvetica">25</text>
<text xml:space="preserve" x="41.2277" y="124.627" fill="black" font-size="12.8453" font-family="Helvetica">30</text>
<text xml:space="preserve" x="40.4131" y="86.3427" fill="black" font-size="12.8453" font-family="Helvetica">35</text>
<text xml:space="preserve" x="41.2277" y="48.8732" fill="black" font-size="12.8453" font-family="Helvetica">40</text>
<g transform="rotate(-90,28.1948,70.0516)">
<text xml:space="preserve" x="28.1948" y="70.0516" fill="black" font-size="12.8453" font-family="Helvetica">Event</text>
</g>
<text xml:space="preserve" x="243.237" y="18.7347" fill="black" font-size="16.9898" font-family="Helvetica">560mm 10</text></svg>
