<?xml version="1.0" standalone="no"?>
<svg width="567.429" height="384.969" viewBox="0 0 567.429 384.969" xmlns="http://www.w3.org/2000/svg" shape-rendering="crispEdges">
<title>
img/week2/Combined670mm_ch_46.svg
</title>
<desc>
Creator: ROOT Version 6.22/09
CreationDate: Thu Jun 24 12:12:14 2021</desc>
<defs>
</defs>
<rect x="0.5" y="0" width="566.929" height="384.469" fill="white"/>
<rect x="57.1929" y="38.4469" width="453.543" height="307.575" fill="white"/>
<rect x="57.1929" y="38.4469" width="453.543" height="307.575" fill="none" stroke="black"/>
<rect x="57.1929" y="38.4469" width="453.543" height="307.575" fill="white"/>
<rect x="57.1929" y="38.4469" width="453.543" height="307.575" fill="none" stroke="black"/>
<path d="M57.1929,346.022h 90.7087v -5.27023h 30.2362v -10.5405h 30.2362v 5.27023h 30.2362v -179.188h 30.2362v -89.5938h 30.2362v 205.539h 30.2362v 73.7831h 181.417" fill="none" stroke="#000099"/>
<g fill="#ff0000">
<polygon points=" 279.729, 62.4646 288.2, 62.4646 283.965, 70.936"/>
</g>
<path d="M59.4606,346.022h 122.457l 4.53543, -0.0460517l 4.53543, -0.063002l 4.53543, -0.137987l 4.53543, -0.288299l 4.53543, -0.574406l 4.53543, -1.0909l 4.53543, -1.97391l 4.53543, -3.4008l 4.53543, -5.57474l 4.53543, -8.68664l 4.53543, -12.8513l
 4.53543, -18.0233l 4.53543, -23.9121l 4.53543, -29.9262l 4.53543, -35.1847l 4.53543, -38.622l 4.53543, -39.1872l 4.53543, -36.1047l 4.53543, -29.1241l 4.53543, -18.6767l 3.18822, -4.12638" fill="none" stroke="#ff0000" stroke-width="2"/>
<path d="M278.189,38.4469l 3.50823, 5.95513" fill="none" stroke="#ff0000" stroke-width="2"/>
<path d="M281.697,44.4021l 4.53543, 20.27l 4.53543, 30.2963l 4.53543, 36.7551l 4.53543, 39.312l 4.53543, 38.3009l 4.53543, 34.5508l 4.53543, 29.129l 4.53543, 23.0859l 4.53543, 17.267l 4.53543, 12.2213l 4.53543, 8.20197l 4.53543, 5.22714l 4.53543,
 3.16705l 4.53543, 1.82592l 4.53543, 1.00245l 4.53543, 0.524382l 4.53543, 0.261488l 4.53543, 0.124351l 4.53543, 0.0564137l 4.53543, 0.0408076h 126.992" fill="none" stroke="#ff0000" stroke-width="2"/>
<path d="M499.398,346.022h 9.07087" fill="none" stroke="#ff0000" stroke-width="2"/>
<path d="M57.1929,346.022h 453.543" fill="none" stroke="black"/>
<path d="M84.5516,336.795v 9.22726" fill="none" stroke="black"/>
<path d="M99.6623,341.409v 4.61363" fill="none" stroke="black"/>
<path d="M114.773,341.409v 4.61363" fill="none" stroke="black"/>
<path d="M129.884,341.409v 4.61363" fill="none" stroke="black"/>
<path d="M144.995,341.409v 4.61363" fill="none" stroke="black"/>
<path d="M160.105,336.795v 9.22726" fill="none" stroke="black"/>
<path d="M175.216,341.409v 4.61363" fill="none" stroke="black"/>
<path d="M190.327,341.409v 4.61363" fill="none" stroke="black"/>
<path d="M205.437,341.409v 4.61363" fill="none" stroke="black"/>
<path d="M220.548,341.409v 4.61363" fill="none" stroke="black"/>
<path d="M235.659,336.795v 9.22726" fill="none" stroke="black"/>
<path d="M250.77,341.409v 4.61363" fill="none" stroke="black"/>
<path d="M265.88,341.409v 4.61363" fill="none" stroke="black"/>
<path d="M280.991,341.409v 4.61363" fill="none" stroke="black"/>
<path d="M296.102,341.409v 4.61363" fill="none" stroke="black"/>
<path d="M311.213,336.795v 9.22726" fill="none" stroke="black"/>
<path d="M326.323,341.409v 4.61363" fill="none" stroke="black"/>
<path d="M341.434,341.409v 4.61363" fill="none" stroke="black"/>
<path d="M356.545,341.409v 4.61363" fill="none" stroke="black"/>
<path d="M371.656,341.409v 4.61363" fill="none" stroke="black"/>
<path d="M386.766,336.795v 9.22726" fill="none" stroke="black"/>
<path d="M401.877,341.409v 4.61363" fill="none" stroke="black"/>
<path d="M416.988,341.409v 4.61363" fill="none" stroke="black"/>
<path d="M432.098,341.409v 4.61363" fill="none" stroke="black"/>
<path d="M447.209,341.409v 4.61363" fill="none" stroke="black"/>
<path d="M462.32,336.795v 9.22726" fill="none" stroke="black"/>
<path d="M84.5516,336.795v 9.22726" fill="none" stroke="black"/>
<path d="M69.4409,341.409v 4.61363" fill="none" stroke="black"/>
<path d="M462.32,336.795v 9.22726" fill="none" stroke="black"/>
<path d="M477.431,341.409v 4.61363" fill="none" stroke="black"/>
<path d="M492.541,341.409v 4.61363" fill="none" stroke="black"/>
<path d="M507.652,341.409v 4.61363" fill="none" stroke="black"/>
<text xml:space="preserve" x="73.8098" y="358.403" fill="black" font-size="12.8453" font-family="Helvetica">780</text>
<text xml:space="preserve" x="148.749" y="358.403" fill="black" font-size="12.8453" font-family="Helvetica">790</text>
<text xml:space="preserve" x="224.502" y="358.403" fill="black" font-size="12.8453" font-family="Helvetica">800</text>
<text xml:space="preserve" x="300.256" y="358.403" fill="black" font-size="12.8453" font-family="Helvetica">810</text>
<text xml:space="preserve" x="376.009" y="358.403" fill="black" font-size="12.8453" font-family="Helvetica">820</text>
<text xml:space="preserve" x="450.948" y="358.403" fill="black" font-size="12.8453" font-family="Helvetica">830</text>
<text xml:space="preserve" x="460.723" y="370.622" fill="black" font-size="12.8453" font-family="Helvetica">Time [ps]</text>
<path d="M57.1929,346.022v -307.575" fill="none" stroke="black"/>
<path d="M70.7992,346.022h -13.6063" fill="none" stroke="black"/>
<path d="M63.9961,335.482h -6.80315" fill="none" stroke="black"/>
<path d="M63.9961,324.941h -6.80315" fill="none" stroke="black"/>
<path d="M63.9961,314.401h -6.80315" fill="none" stroke="black"/>
<path d="M63.9961,303.86h -6.80315" fill="none" stroke="black"/>
<path d="M70.7992,293.32h -13.6063" fill="none" stroke="black"/>
<path d="M63.9961,282.78h -6.80315" fill="none" stroke="black"/>
<path d="M63.9961,272.239h -6.80315" fill="none" stroke="black"/>
<path d="M63.9961,261.699h -6.80315" fill="none" stroke="black"/>
<path d="M63.9961,251.158h -6.80315" fill="none" stroke="black"/>
<path d="M70.7992,240.618h -13.6063" fill="none" stroke="black"/>
<path d="M63.9961,230.077h -6.80315" fill="none" stroke="black"/>
<path d="M63.9961,219.537h -6.80315" fill="none" stroke="black"/>
<path d="M63.9961,208.996h -6.80315" fill="none" stroke="black"/>
<path d="M63.9961,198.456h -6.80315" fill="none" stroke="black"/>
<path d="M70.7992,187.915h -13.6063" fill="none" stroke="black"/>
<path d="M63.9961,177.375h -6.80315" fill="none" stroke="black"/>
<path d="M63.9961,166.835h -6.80315" fill="none" stroke="black"/>
<path d="M63.9961,156.294h -6.80315" fill="none" stroke="black"/>
<path d="M63.9961,145.754h -6.80315" fill="none" stroke="black"/>
<path d="M70.7992,135.213h -13.6063" fill="none" stroke="black"/>
<path d="M63.9961,124.673h -6.80315" fill="none" stroke="black"/>
<path d="M63.9961,114.132h -6.80315" fill="none" stroke="black"/>
<path d="M63.9961,103.592h -6.80315" fill="none" stroke="black"/>
<path d="M63.9961,93.0515h -6.80315" fill="none" stroke="black"/>
<path d="M70.7992,82.511h -13.6063" fill="none" stroke="black"/>
<path d="M70.7992,82.511h -13.6063" fill="none" stroke="black"/>
<path d="M63.9961,71.9706h -6.80315" fill="none" stroke="black"/>
<path d="M63.9961,61.4301h -6.80315" fill="none" stroke="black"/>
<path d="M63.9961,50.8896h -6.80315" fill="none" stroke="black"/>
<path d="M63.9961,40.3492h -6.80315" fill="none" stroke="black"/>
<text xml:space="preserve" x="47.7441" y="350.258" fill="black" font-size="12.8453" font-family="Helvetica">0</text>
<text xml:space="preserve" x="41.2277" y="298.127" fill="black" font-size="12.8453" font-family="Helvetica">10</text>
<text xml:space="preserve" x="41.2277" y="245.181" fill="black" font-size="12.8453" font-family="Helvetica">20</text>
<text xml:space="preserve" x="41.2277" y="192.235" fill="black" font-size="12.8453" font-family="Helvetica">30</text>
<text xml:space="preserve" x="41.2277" y="139.289" fill="black" font-size="12.8453" font-family="Helvetica">40</text>
<text xml:space="preserve" x="41.2277" y="87.1572" fill="black" font-size="12.8453" font-family="Helvetica">50</text>
<g transform="rotate(-90,29.0094,70.0516)">
<text xml:space="preserve" x="29.0094" y="70.0516" fill="black" font-size="12.8453" font-family="Helvetica">Event</text>
</g>
<text xml:space="preserve" x="243.237" y="18.7347" fill="black" font-size="16.9898" font-family="Helvetica">670mm 46</text></svg>
