<?xml version="1.0" standalone="no"?>
<svg width="567.429" height="386.304" viewBox="0 0 567.429 386.304" xmlns="http://www.w3.org/2000/svg" shape-rendering="crispEdges">
<title>
img/week2/Combined420mm_ch_4.svg
</title>
<desc>
Creator: ROOT Version 6.22/08
CreationDate: Tue Jun 22 00:35:24 2021</desc>
<defs>
</defs>
<rect x="0.5" y="0" width="566.929" height="385.804" fill="white"/>
<rect x="57.1929" y="38.5804" width="453.543" height="308.643" fill="white"/>
<rect x="57.1929" y="38.5804" width="453.543" height="308.643" fill="none" stroke="black"/>
<rect x="57.1929" y="38.5804" width="453.543" height="308.643" fill="white"/>
<rect x="57.1929" y="38.5804" width="453.543" height="308.643" fill="none" stroke="black"/>
<path d="M57.1929,347.224h 125.984v -5.76462h 25.1968v 5.76462h 25.1968v -34.5877h 25.1968v -213.291h 25.1968v -28.8231h 25.1968v 184.468h 25.1968v 92.2339h 176.378" fill="none" stroke="#000099"/>
<g fill="#ff0000">
<polygon points=" 292.339, 66.2985 300.787, 66.2985 296.563, 74.7455"/>
</g>
<path d="M59.4606,347.224h 136.063l 4.53543, -0.0350318l 4.53543, -0.0522749l 4.53543, -0.120044l 4.53543, -0.261934l 4.53543, -0.542854l 4.53543, -1.06812l 4.53543, -1.99417l 4.53543, -3.53041l 4.53543, -5.92168l 4.53543, -9.40089l 4.53543,
 -14.1063l 4.53543, -19.9712l 4.53543, -26.6132l 4.53543, -33.2676l 4.53543, -38.8168l 4.53543, -41.9502l 4.53543, -41.4492l 4.53543, -36.5344l 4.53543, -27.1685" fill="none" stroke="#ff0000" stroke-width="2"/>
<path d="M292.982,38.5804l 2.32164, 7.98034" fill="none" stroke="#ff0000" stroke-width="2"/>
<path d="M295.303,46.5608l 4.53543, 28.2684l 4.53543, 37.2202l 4.53543, 41.6862l 4.53543, 41.7859l 4.53543, 38.3572l 4.53543, 32.6427l 4.53543, 25.945l 4.53543, 19.3518l 4.53543, 13.5896l 4.53543, 9.00595l 4.53543, 5.64203l 4.53543, 3.34576l 4.53543,
 1.87997l 4.53543, 1.00175l 4.53543, 0.50652l 4.53543, 0.243165l 4.53543, 0.110882l 4.53543, 0.0480445l 4.53543, 0.0319438h 126.992" fill="none" stroke="#ff0000" stroke-width="2"/>
<rect x="351.996" y="25.0773" width="204.094" height="108.025" fill="white"/>
<path d="M351.996,133.102h 204.094" fill="none" stroke="black"/>
<path d="M556.091,133.102v -108.025" fill="none" stroke="black"/>
<path d="M556.091,25.0773h -204.094" fill="none" stroke="black"/>
<path d="M351.996,25.0773v 108.025" fill="none" stroke="black"/>
<text xml:space="preserve" x="361.938" y="38.9865" fill="black" font-size="15.6962" font-family="Helvetica">Entries </text>
<text xml:space="preserve" x="515.447" y="39.7988" fill="black" font-size="15.6962" font-family="Helvetica"> 114</text>
<text xml:space="preserve" x="375.745" y="57.6676" fill="black" font-size="15.6962" font-family="Helvetica"> / ndf </text>
<text xml:space="preserve" x="370.06" y="52.7943" fill="black" font-size="10.6308" font-family="Helvetica">2</text>
<text xml:space="preserve" x="361.938" y="57.6676" fill="black" font-size="15.6962" font-family="Times">&#0967;</text>
<text xml:space="preserve" x="481.334" y="57.6676" fill="black" font-size="15.6962" font-family="Helvetica"> 1.685 / 2</text>
<text xml:space="preserve" x="361.938" y="75.5364" fill="black" font-size="15.6962" font-family="Helvetica">Prob  </text>
<text xml:space="preserve" x="494.329" y="75.5364" fill="black" font-size="15.6962" font-family="Helvetica"> 0.4307</text>
<text xml:space="preserve" x="361.938" y="94.2175" fill="black" font-size="15.6962" font-family="Helvetica">Const    </text>
<text xml:space="preserve" x="511.386" y="93.4052" fill="black" font-size="15.6962" font-family="Helvetica"> 6.60</text>
<text xml:space="preserve" x="502.452" y="93.4052" fill="black" font-size="15.6962" font-family="Times">&#0177;</text>
<text xml:space="preserve" x="454.531" y="93.4052" fill="black" font-size="15.6962" font-family="Helvetica"> 55.26 </text>
<text xml:space="preserve" x="361.938" y="111.274" fill="black" font-size="15.6962" font-family="Helvetica">Mean     </text>
<text xml:space="preserve" x="520.32" y="111.274" fill="black" font-size="15.6962" font-family="Helvetica"> 0.3</text>
<text xml:space="preserve" x="511.386" y="111.274" fill="black" font-size="15.6962" font-family="Times">&#0177;</text>
<text xml:space="preserve" x="466.714" y="111.274" fill="black" font-size="15.6962" font-family="Helvetica"> 809.1 </text>
<text xml:space="preserve" x="361.938" y="128.331" fill="black" font-size="15.6962" font-family="Helvetica">Sigma    </text>
<text xml:space="preserve" x="502.452" y="129.143" fill="black" font-size="15.6962" font-family="Helvetica"> 0.264</text>
<text xml:space="preserve" x="493.517" y="129.143" fill="black" font-size="15.6962" font-family="Times">&#0177;</text>
<text xml:space="preserve" x="445.596" y="129.143" fill="black" font-size="15.6962" font-family="Helvetica"> 3.282 </text>
<path d="M57.1929,347.224h 453.543" fill="none" stroke="black"/>
<path d="M105.189,337.964v 9.2593" fill="none" stroke="black"/>
<path d="M117.781,342.594v 4.62965" fill="none" stroke="black"/>
<path d="M130.373,342.594v 4.62965" fill="none" stroke="black"/>
<path d="M142.965,342.594v 4.62965" fill="none" stroke="black"/>
<path d="M155.558,342.594v 4.62965" fill="none" stroke="black"/>
<path d="M168.15,337.964v 9.2593" fill="none" stroke="black"/>
<path d="M180.742,342.594v 4.62965" fill="none" stroke="black"/>
<path d="M193.335,342.594v 4.62965" fill="none" stroke="black"/>
<path d="M205.927,342.594v 4.62965" fill="none" stroke="black"/>
<path d="M218.519,342.594v 4.62965" fill="none" stroke="black"/>
<path d="M231.111,337.964v 9.2593" fill="none" stroke="black"/>
<path d="M243.704,342.594v 4.62965" fill="none" stroke="black"/>
<path d="M256.296,342.594v 4.62965" fill="none" stroke="black"/>
<path d="M268.888,342.594v 4.62965" fill="none" stroke="black"/>
<path d="M281.481,342.594v 4.62965" fill="none" stroke="black"/>
<path d="M294.073,337.964v 9.2593" fill="none" stroke="black"/>
<path d="M306.665,342.594v 4.62965" fill="none" stroke="black"/>
<path d="M319.257,342.594v 4.62965" fill="none" stroke="black"/>
<path d="M331.85,342.594v 4.62965" fill="none" stroke="black"/>
<path d="M344.442,342.594v 4.62965" fill="none" stroke="black"/>
<path d="M357.034,337.964v 9.2593" fill="none" stroke="black"/>
<path d="M369.626,342.594v 4.62965" fill="none" stroke="black"/>
<path d="M382.219,342.594v 4.62965" fill="none" stroke="black"/>
<path d="M394.811,342.594v 4.62965" fill="none" stroke="black"/>
<path d="M407.403,342.594v 4.62965" fill="none" stroke="black"/>
<path d="M419.996,337.964v 9.2593" fill="none" stroke="black"/>
<path d="M432.588,342.594v 4.62965" fill="none" stroke="black"/>
<path d="M445.18,342.594v 4.62965" fill="none" stroke="black"/>
<path d="M457.772,342.594v 4.62965" fill="none" stroke="black"/>
<path d="M470.365,342.594v 4.62965" fill="none" stroke="black"/>
<path d="M482.957,337.964v 9.2593" fill="none" stroke="black"/>
<path d="M105.189,337.964v 9.2593" fill="none" stroke="black"/>
<path d="M92.5964,342.594v 4.62965" fill="none" stroke="black"/>
<path d="M80.0041,342.594v 4.62965" fill="none" stroke="black"/>
<path d="M67.4118,342.594v 4.62965" fill="none" stroke="black"/>
<path d="M482.957,337.964v 9.2593" fill="none" stroke="black"/>
<path d="M495.549,342.594v 4.62965" fill="none" stroke="black"/>
<path d="M508.142,342.594v 4.62965" fill="none" stroke="black"/>
<text xml:space="preserve" x="93.093" y="359.813" fill="black" font-size="12.8882" font-family="Helvetica">780</text>
<text xml:space="preserve" x="156.446" y="359.813" fill="black" font-size="12.8882" font-family="Helvetica">790</text>
<text xml:space="preserve" x="218.987" y="359.813" fill="black" font-size="12.8882" font-family="Helvetica">800</text>
<text xml:space="preserve" x="282.34" y="359.813" fill="black" font-size="12.8882" font-family="Helvetica">810</text>
<text xml:space="preserve" x="344.881" y="359.813" fill="black" font-size="12.8882" font-family="Helvetica">820</text>
<text xml:space="preserve" x="408.234" y="359.813" fill="black" font-size="12.8882" font-family="Helvetica">830</text>
<text xml:space="preserve" x="470.775" y="359.813" fill="black" font-size="12.8882" font-family="Helvetica">840</text>
<text xml:space="preserve" x="481.334" y="373.621" fill="black" font-size="12.8882" font-family="Helvetica">Time</text>
<path d="M57.1929,347.224v -308.643" fill="none" stroke="black"/>
<path d="M70.7992,347.224h -13.6063" fill="none" stroke="black"/>
<path d="M63.9961,335.695h -6.80315" fill="none" stroke="black"/>
<path d="M63.9961,324.165h -6.80315" fill="none" stroke="black"/>
<path d="M63.9961,312.636h -6.80315" fill="none" stroke="black"/>
<path d="M63.9961,301.107h -6.80315" fill="none" stroke="black"/>
<path d="M70.7992,289.578h -13.6063" fill="none" stroke="black"/>
<path d="M63.9961,278.048h -6.80315" fill="none" stroke="black"/>
<path d="M63.9961,266.519h -6.80315" fill="none" stroke="black"/>
<path d="M63.9961,254.99h -6.80315" fill="none" stroke="black"/>
<path d="M63.9961,243.461h -6.80315" fill="none" stroke="black"/>
<path d="M70.7992,231.931h -13.6063" fill="none" stroke="black"/>
<path d="M63.9961,220.402h -6.80315" fill="none" stroke="black"/>
<path d="M63.9961,208.873h -6.80315" fill="none" stroke="black"/>
<path d="M63.9961,197.344h -6.80315" fill="none" stroke="black"/>
<path d="M63.9961,185.814h -6.80315" fill="none" stroke="black"/>
<path d="M70.7992,174.285h -13.6063" fill="none" stroke="black"/>
<path d="M63.9961,162.756h -6.80315" fill="none" stroke="black"/>
<path d="M63.9961,151.227h -6.80315" fill="none" stroke="black"/>
<path d="M63.9961,139.697h -6.80315" fill="none" stroke="black"/>
<path d="M63.9961,128.168h -6.80315" fill="none" stroke="black"/>
<path d="M70.7992,116.639h -13.6063" fill="none" stroke="black"/>
<path d="M63.9961,105.11h -6.80315" fill="none" stroke="black"/>
<path d="M63.9961,93.5805h -6.80315" fill="none" stroke="black"/>
<path d="M63.9961,82.0512h -6.80315" fill="none" stroke="black"/>
<path d="M63.9961,70.522h -6.80315" fill="none" stroke="black"/>
<path d="M70.7992,58.9928h -13.6063" fill="none" stroke="black"/>
<path d="M70.7992,58.9928h -13.6063" fill="none" stroke="black"/>
<path d="M63.9961,47.4635h -6.80315" fill="none" stroke="black"/>
<text xml:space="preserve" x="46.7965" y="351.691" fill="black" font-size="12.8882" font-family="Helvetica">0</text>
<text xml:space="preserve" x="39.4865" y="294.023" fill="black" font-size="12.8882" font-family="Helvetica">10</text>
<text xml:space="preserve" x="39.4865" y="236.356" fill="black" font-size="12.8882" font-family="Helvetica">20</text>
<text xml:space="preserve" x="39.4865" y="178.688" fill="black" font-size="12.8882" font-family="Helvetica">30</text>
<text xml:space="preserve" x="39.4865" y="121.021" fill="black" font-size="12.8882" font-family="Helvetica">40</text>
<text xml:space="preserve" x="39.4865" y="63.3531" fill="black" font-size="12.8882" font-family="Helvetica">50</text>
<g transform="rotate(-90,28.9277,71.4753)">
<text xml:space="preserve" x="28.9277" y="71.4753" fill="black" font-size="12.8882" font-family="Helvetica">Event</text>
</g>
<rect x="351.996" y="25.0773" width="204.094" height="108.025" fill="white"/>
<path d="M351.996,133.102h 204.094" fill="none" stroke="black"/>
<path d="M556.091,133.102v -108.025" fill="none" stroke="black"/>
<path d="M556.091,25.0773h -204.094" fill="none" stroke="black"/>
<path d="M351.996,25.0773v 108.025" fill="none" stroke="black"/>
<text xml:space="preserve" x="361.938" y="38.9865" fill="black" font-size="15.6962" font-family="Helvetica">Entries </text>
<text xml:space="preserve" x="515.447" y="39.7988" fill="black" font-size="15.6962" font-family="Helvetica"> 114</text>
<text xml:space="preserve" x="375.745" y="57.6676" fill="black" font-size="15.6962" font-family="Helvetica"> / ndf </text>
<text xml:space="preserve" x="370.06" y="52.7943" fill="black" font-size="10.6308" font-family="Helvetica">2</text>
<text xml:space="preserve" x="361.938" y="57.6676" fill="black" font-size="15.6962" font-family="Times">&#0967;</text>
<text xml:space="preserve" x="481.334" y="57.6676" fill="black" font-size="15.6962" font-family="Helvetica"> 1.685 / 2</text>
<text xml:space="preserve" x="361.938" y="75.5364" fill="black" font-size="15.6962" font-family="Helvetica">Prob  </text>
<text xml:space="preserve" x="494.329" y="75.5364" fill="black" font-size="15.6962" font-family="Helvetica"> 0.4307</text>
<text xml:space="preserve" x="361.938" y="94.2175" fill="black" font-size="15.6962" font-family="Helvetica">Const    </text>
<text xml:space="preserve" x="511.386" y="93.4052" fill="black" font-size="15.6962" font-family="Helvetica"> 6.60</text>
<text xml:space="preserve" x="502.452" y="93.4052" fill="black" font-size="15.6962" font-family="Times">&#0177;</text>
<text xml:space="preserve" x="454.531" y="93.4052" fill="black" font-size="15.6962" font-family="Helvetica"> 55.26 </text>
<text xml:space="preserve" x="361.938" y="111.274" fill="black" font-size="15.6962" font-family="Helvetica">Mean     </text>
<text xml:space="preserve" x="520.32" y="111.274" fill="black" font-size="15.6962" font-family="Helvetica"> 0.3</text>
<text xml:space="preserve" x="511.386" y="111.274" fill="black" font-size="15.6962" font-family="Times">&#0177;</text>
<text xml:space="preserve" x="466.714" y="111.274" fill="black" font-size="15.6962" font-family="Helvetica"> 809.1 </text>
<text xml:space="preserve" x="361.938" y="128.331" fill="black" font-size="15.6962" font-family="Helvetica">Sigma    </text>
<text xml:space="preserve" x="502.452" y="129.143" fill="black" font-size="15.6962" font-family="Helvetica"> 0.264</text>
<text xml:space="preserve" x="493.517" y="129.143" fill="black" font-size="15.6962" font-family="Times">&#0177;</text>
<text xml:space="preserve" x="445.596" y="129.143" fill="black" font-size="15.6962" font-family="Helvetica"> 3.282 </text>
<text xml:space="preserve" x="248.227" y="18.681" fill="black" font-size="17.0471" font-family="Helvetica">420mm 4</text></svg>
