<?xml version="1.0" standalone="no"?>
<svg width="567.429" height="386.304" viewBox="0 0 567.429 386.304" xmlns="http://www.w3.org/2000/svg" shape-rendering="crispEdges">
<title>
img/week2/Combined670mm_ch_48_49_50_51.svg
</title>
<desc>
Creator: ROOT Version 6.22/08
CreationDate: Mon Jun 21 21:39:59 2021</desc>
<defs>
</defs>
<rect x="0.5" y="0" width="566.929" height="385.804" fill="white"/>
<rect x="57.1929" y="38.5804" width="453.543" height="308.643" fill="white"/>
<rect x="57.1929" y="38.5804" width="453.543" height="308.643" fill="none" stroke="black"/>
<rect x="57.1929" y="38.5804" width="453.543" height="308.643" fill="white"/>
<rect x="57.1929" y="38.5804" width="453.543" height="308.643" fill="none" stroke="black"/>
<path d="M57.1929,347.224h 30.2362v -1.73429h 30.2362v 1.73429h 60.4724v -6.93715h 30.2362v -1.73429h 30.2362v -58.9658h 30.2362v -216.786h 30.2362v 124.869h 30.2362v 154.352h 30.2362v 5.20287h 151.181" fill="none" stroke="#000099"/>
<g fill="#ff0000">
<polygon points=" 279.741, 58.5769 288.188, 58.5769 283.965, 67.024"/>
</g>
<path d="M59.4606,347.224h 140.598l 4.53543, -0.0585653l 4.53543, -0.0842241l 4.53543, -0.188699l 4.53543, -0.401263l 4.53543, -0.809521l 4.53543, -1.5486l 4.53543, -2.80731l 4.53543, -4.81877l 4.53543, -7.82436l 4.53543, -12.0027l 4.53543, -17.3661l
 4.53543, -23.6457l 4.53543, -30.2046l 4.53543, -36.0332l 4.53543, -39.8688l 4.53543, -40.4488l 4.53543, -36.8515l 4.53543, -28.8237" fill="none" stroke="#ff0000" stroke-width="2"/>
<path d="M281.697,63.4373l 4.53543, -16.9754l 4.53543, -2.74603l 4.53543, 11.8771l 4.53543, 24.8141l 4.53543, 34.3778l 4.53543, 39.6328l 4.53543, 40.524l 4.53543, 37.759l 4.53543, 32.5156l 4.53543, 26.0923l 4.53543, 19.6139l 4.53543, 13.8609l
 4.53543, 9.23186l 4.53543, 5.80577l 4.53543, 3.45231l 4.53543, 1.94316l 4.53543, 1.03616l 4.53543, 0.523795l 4.53543, 0.251164l 4.53543, 0.114292l 4.53543, 0.0493743l 4.53543, 0.0326018h 122.457" fill="none" stroke="#ff0000" stroke-width="2"/>
<path d="M503.933,347.224h 4.53543" fill="none" stroke="#ff0000" stroke-width="2"/>
<path d="M57.1929,347.224h 453.543" fill="none" stroke="black"/>
<path d="M84.5516,337.964v 9.2593" fill="none" stroke="black"/>
<path d="M99.6623,342.594v 4.62965" fill="none" stroke="black"/>
<path d="M114.773,342.594v 4.62965" fill="none" stroke="black"/>
<path d="M129.884,342.594v 4.62965" fill="none" stroke="black"/>
<path d="M144.995,342.594v 4.62965" fill="none" stroke="black"/>
<path d="M160.105,337.964v 9.2593" fill="none" stroke="black"/>
<path d="M175.216,342.594v 4.62965" fill="none" stroke="black"/>
<path d="M190.327,342.594v 4.62965" fill="none" stroke="black"/>
<path d="M205.437,342.594v 4.62965" fill="none" stroke="black"/>
<path d="M220.548,342.594v 4.62965" fill="none" stroke="black"/>
<path d="M235.659,337.964v 9.2593" fill="none" stroke="black"/>
<path d="M250.77,342.594v 4.62965" fill="none" stroke="black"/>
<path d="M265.88,342.594v 4.62965" fill="none" stroke="black"/>
<path d="M280.991,342.594v 4.62965" fill="none" stroke="black"/>
<path d="M296.102,342.594v 4.62965" fill="none" stroke="black"/>
<path d="M311.213,337.964v 9.2593" fill="none" stroke="black"/>
<path d="M326.323,342.594v 4.62965" fill="none" stroke="black"/>
<path d="M341.434,342.594v 4.62965" fill="none" stroke="black"/>
<path d="M356.545,342.594v 4.62965" fill="none" stroke="black"/>
<path d="M371.656,342.594v 4.62965" fill="none" stroke="black"/>
<path d="M386.766,337.964v 9.2593" fill="none" stroke="black"/>
<path d="M401.877,342.594v 4.62965" fill="none" stroke="black"/>
<path d="M416.988,342.594v 4.62965" fill="none" stroke="black"/>
<path d="M432.098,342.594v 4.62965" fill="none" stroke="black"/>
<path d="M447.209,342.594v 4.62965" fill="none" stroke="black"/>
<path d="M462.32,337.964v 9.2593" fill="none" stroke="black"/>
<path d="M84.5516,337.964v 9.2593" fill="none" stroke="black"/>
<path d="M69.4409,342.594v 4.62965" fill="none" stroke="black"/>
<path d="M462.32,337.964v 9.2593" fill="none" stroke="black"/>
<path d="M477.431,342.594v 4.62965" fill="none" stroke="black"/>
<path d="M492.541,342.594v 4.62965" fill="none" stroke="black"/>
<path d="M507.652,342.594v 4.62965" fill="none" stroke="black"/>
<text xml:space="preserve" x="72.7875" y="359.813" fill="black" font-size="12.8882" font-family="Helvetica">780</text>
<text xml:space="preserve" x="148.324" y="359.813" fill="black" font-size="12.8882" font-family="Helvetica">790</text>
<text xml:space="preserve" x="223.86" y="359.813" fill="black" font-size="12.8882" font-family="Helvetica">800</text>
<text xml:space="preserve" x="299.397" y="359.813" fill="black" font-size="12.8882" font-family="Helvetica">810</text>
<text xml:space="preserve" x="374.933" y="359.813" fill="black" font-size="12.8882" font-family="Helvetica">820</text>
<text xml:space="preserve" x="450.47" y="359.813" fill="black" font-size="12.8882" font-family="Helvetica">830</text>
<text xml:space="preserve" x="481.334" y="373.621" fill="black" font-size="12.8882" font-family="Helvetica">Time</text>
<path d="M57.1929,347.224v -308.643" fill="none" stroke="black"/>
<path d="M70.7992,347.224h -13.6063" fill="none" stroke="black"/>
<path d="M63.9961,338.552h -6.80315" fill="none" stroke="black"/>
<path d="M63.9961,329.881h -6.80315" fill="none" stroke="black"/>
<path d="M63.9961,321.209h -6.80315" fill="none" stroke="black"/>
<path d="M70.7992,312.538h -13.6063" fill="none" stroke="black"/>
<path d="M63.9961,303.867h -6.80315" fill="none" stroke="black"/>
<path d="M63.9961,295.195h -6.80315" fill="none" stroke="black"/>
<path d="M63.9961,286.524h -6.80315" fill="none" stroke="black"/>
<path d="M70.7992,277.852h -13.6063" fill="none" stroke="black"/>
<path d="M63.9961,269.181h -6.80315" fill="none" stroke="black"/>
<path d="M63.9961,260.509h -6.80315" fill="none" stroke="black"/>
<path d="M63.9961,251.838h -6.80315" fill="none" stroke="black"/>
<path d="M70.7992,243.166h -13.6063" fill="none" stroke="black"/>
<path d="M63.9961,234.495h -6.80315" fill="none" stroke="black"/>
<path d="M63.9961,225.824h -6.80315" fill="none" stroke="black"/>
<path d="M63.9961,217.152h -6.80315" fill="none" stroke="black"/>
<path d="M70.7992,208.481h -13.6063" fill="none" stroke="black"/>
<path d="M63.9961,199.809h -6.80315" fill="none" stroke="black"/>
<path d="M63.9961,191.138h -6.80315" fill="none" stroke="black"/>
<path d="M63.9961,182.466h -6.80315" fill="none" stroke="black"/>
<path d="M70.7992,173.795h -13.6063" fill="none" stroke="black"/>
<path d="M63.9961,165.123h -6.80315" fill="none" stroke="black"/>
<path d="M63.9961,156.452h -6.80315" fill="none" stroke="black"/>
<path d="M63.9961,147.781h -6.80315" fill="none" stroke="black"/>
<path d="M70.7992,139.109h -13.6063" fill="none" stroke="black"/>
<path d="M63.9961,130.438h -6.80315" fill="none" stroke="black"/>
<path d="M63.9961,121.766h -6.80315" fill="none" stroke="black"/>
<path d="M63.9961,113.095h -6.80315" fill="none" stroke="black"/>
<path d="M70.7992,104.423h -13.6063" fill="none" stroke="black"/>
<path d="M63.9961,95.752h -6.80315" fill="none" stroke="black"/>
<path d="M63.9961,87.0805h -6.80315" fill="none" stroke="black"/>
<path d="M63.9961,78.4091h -6.80315" fill="none" stroke="black"/>
<path d="M70.7992,69.7376h -13.6063" fill="none" stroke="black"/>
<path d="M70.7992,69.7376h -13.6063" fill="none" stroke="black"/>
<path d="M63.9961,61.0662h -6.80315" fill="none" stroke="black"/>
<path d="M63.9961,52.3947h -6.80315" fill="none" stroke="black"/>
<path d="M63.9961,43.7233h -6.80315" fill="none" stroke="black"/>
<text xml:space="preserve" x="46.7965" y="351.691" fill="black" font-size="12.8882" font-family="Helvetica">0</text>
<text xml:space="preserve" x="39.4865" y="316.766" fill="black" font-size="12.8882" font-family="Helvetica">20</text>
<text xml:space="preserve" x="39.4865" y="282.652" fill="black" font-size="12.8882" font-family="Helvetica">40</text>
<text xml:space="preserve" x="39.4865" y="247.727" fill="black" font-size="12.8882" font-family="Helvetica">60</text>
<text xml:space="preserve" x="39.4865" y="212.801" fill="black" font-size="12.8882" font-family="Helvetica">80</text>
<text xml:space="preserve" x="32.1766" y="177.876" fill="black" font-size="12.8882" font-family="Helvetica">100</text>
<text xml:space="preserve" x="32.1766" y="143.763" fill="black" font-size="12.8882" font-family="Helvetica">120</text>
<text xml:space="preserve" x="32.1766" y="108.837" fill="black" font-size="12.8882" font-family="Helvetica">140</text>
<text xml:space="preserve" x="32.1766" y="73.912" fill="black" font-size="12.8882" font-family="Helvetica">160</text>
<g transform="rotate(-90,21.6177,71.4753)">
<text xml:space="preserve" x="21.6177" y="71.4753" fill="black" font-size="12.8882" font-family="Helvetica">Event</text>
</g>
<text xml:space="preserve" x="209.24" y="18.681" fill="black" font-size="17.0471" font-family="Helvetica">670mm 48 49 50 51</text></svg>
