<?xml version="1.0" standalone="no"?>
<svg width="567.429" height="386.304" viewBox="0 0 567.429 386.304" xmlns="http://www.w3.org/2000/svg" shape-rendering="crispEdges">
<title>
img/week2/Combined0mm_ch_35.svg
</title>
<desc>
Creator: ROOT Version 6.22/08
CreationDate: Mon Jun 21 16:55:03 2021</desc>
<defs>
</defs>
<rect x="0.5" y="0" width="566.929" height="385.804" fill="white"/>
<rect x="57.1929" y="38.5804" width="453.543" height="308.643" fill="white"/>
<rect x="57.1929" y="38.5804" width="453.543" height="308.643" fill="none" stroke="black"/>
<rect x="57.1929" y="38.5804" width="453.543" height="308.643" fill="white"/>
<rect x="57.1929" y="38.5804" width="453.543" height="308.643" fill="none" stroke="black"/>
<path d="M57.1929,347.224h 64.7919v -2.47013h 32.396v -2.47013h 32.396v 4.94027h 32.396v -41.9923h 32.396v -130.917h 32.396v -121.037h 32.396v 264.304h 32.396v 29.6416h 161.98" fill="none" stroke="#000099"/>
<g fill="#ff0000">
<polygon points=" 295.939, 49.0542 304.386, 49.0542 300.163, 57.5013"/>
</g>
<path d="M59.4606,347.224h 131.528l 4.53543, -0.0406092l 4.53543, -0.05486l 4.53543, -0.119516l 4.53543, -0.248741l 4.53543, -0.494399l 4.53543, -0.938099l 4.53543, -1.69849l 4.53543, -2.93277l 4.53543, -4.82614l 4.53543, -7.56241l 4.53543, -11.2719l
 4.53543, -15.959l 4.53543, -21.424l 4.53543, -27.2019l 4.53543, -32.5525l 4.53543, -36.5271l 4.53543, -38.1228l 4.53543, -36.504l 4.53543, -31.2388l 4.53543, -22.4795" fill="none" stroke="#ff0000" stroke-width="2"/>
<path d="M281.697,55.0262l 4.53543, -11.0172l 4.53543, 1.82318l 4.53543, 14.4331l 4.53543, 25.2523l 4.53543, 33.0852l 4.53543, 37.3165l 4.53543, 37.9694l 4.53543, 35.6111l 4.53543, 31.1484l 4.53543, 25.5892l 4.53543, 19.8356l 4.53543, 14.5539l
 4.53543, 10.1308l 4.53543, 6.70141l 4.53543, 4.21799l 4.53543, 2.52868l 4.53543, 1.44504l 4.53543, 0.78766l 4.53543, 0.409732l 4.53543, 0.203494l 4.53543, 0.0965285l 4.53543, 0.0437465l 4.53543, 0.0317129h 117.921" fill="none" stroke="#ff0000"
 stroke-width="2"/>
<path d="M503.933,347.224h 4.53543" fill="none" stroke="#ff0000" stroke-width="2"/>
<path d="M57.1929,347.224h 453.543" fill="none" stroke="black"/>
<path d="M135.06,337.964v 9.2593" fill="none" stroke="black"/>
<path d="M151.25,342.594v 4.62965" fill="none" stroke="black"/>
<path d="M167.44,342.594v 4.62965" fill="none" stroke="black"/>
<path d="M183.63,342.594v 4.62965" fill="none" stroke="black"/>
<path d="M199.82,342.594v 4.62965" fill="none" stroke="black"/>
<path d="M216.011,337.964v 9.2593" fill="none" stroke="black"/>
<path d="M232.201,342.594v 4.62965" fill="none" stroke="black"/>
<path d="M248.391,342.594v 4.62965" fill="none" stroke="black"/>
<path d="M264.581,342.594v 4.62965" fill="none" stroke="black"/>
<path d="M280.771,342.594v 4.62965" fill="none" stroke="black"/>
<path d="M296.961,337.964v 9.2593" fill="none" stroke="black"/>
<path d="M313.151,342.594v 4.62965" fill="none" stroke="black"/>
<path d="M329.341,342.594v 4.62965" fill="none" stroke="black"/>
<path d="M345.531,342.594v 4.62965" fill="none" stroke="black"/>
<path d="M361.721,342.594v 4.62965" fill="none" stroke="black"/>
<path d="M377.911,337.964v 9.2593" fill="none" stroke="black"/>
<path d="M394.101,342.594v 4.62965" fill="none" stroke="black"/>
<path d="M410.291,342.594v 4.62965" fill="none" stroke="black"/>
<path d="M426.481,342.594v 4.62965" fill="none" stroke="black"/>
<path d="M442.672,342.594v 4.62965" fill="none" stroke="black"/>
<path d="M458.862,337.964v 9.2593" fill="none" stroke="black"/>
<path d="M135.06,337.964v 9.2593" fill="none" stroke="black"/>
<path d="M118.87,342.594v 4.62965" fill="none" stroke="black"/>
<path d="M102.68,342.594v 4.62965" fill="none" stroke="black"/>
<path d="M86.49,342.594v 4.62965" fill="none" stroke="black"/>
<path d="M70.2999,342.594v 4.62965" fill="none" stroke="black"/>
<path d="M458.862,337.964v 9.2593" fill="none" stroke="black"/>
<path d="M475.052,342.594v 4.62965" fill="none" stroke="black"/>
<path d="M491.242,342.594v 4.62965" fill="none" stroke="black"/>
<path d="M507.432,342.594v 4.62965" fill="none" stroke="black"/>
<text xml:space="preserve" x="123.145" y="359.813" fill="black" font-size="12.8882" font-family="Helvetica">790</text>
<text xml:space="preserve" x="204.367" y="359.813" fill="black" font-size="12.8882" font-family="Helvetica">800</text>
<text xml:space="preserve" x="285.589" y="359.813" fill="black" font-size="12.8882" font-family="Helvetica">810</text>
<text xml:space="preserve" x="365.999" y="359.813" fill="black" font-size="12.8882" font-family="Helvetica">820</text>
<text xml:space="preserve" x="447.221" y="359.813" fill="black" font-size="12.8882" font-family="Helvetica">830</text>
<text xml:space="preserve" x="481.334" y="373.621" fill="black" font-size="12.8882" font-family="Helvetica">Time</text>
<path d="M57.1929,347.224v -308.643" fill="none" stroke="black"/>
<path d="M70.7992,347.224h -13.6063" fill="none" stroke="black"/>
<path d="M63.9961,334.873h -6.80315" fill="none" stroke="black"/>
<path d="M63.9961,322.522h -6.80315" fill="none" stroke="black"/>
<path d="M63.9961,310.172h -6.80315" fill="none" stroke="black"/>
<path d="M70.7992,297.821h -13.6063" fill="none" stroke="black"/>
<path d="M63.9961,285.47h -6.80315" fill="none" stroke="black"/>
<path d="M63.9961,273.12h -6.80315" fill="none" stroke="black"/>
<path d="M63.9961,260.769h -6.80315" fill="none" stroke="black"/>
<path d="M70.7992,248.418h -13.6063" fill="none" stroke="black"/>
<path d="M63.9961,236.068h -6.80315" fill="none" stroke="black"/>
<path d="M63.9961,223.717h -6.80315" fill="none" stroke="black"/>
<path d="M63.9961,211.366h -6.80315" fill="none" stroke="black"/>
<path d="M70.7992,199.016h -13.6063" fill="none" stroke="black"/>
<path d="M63.9961,186.665h -6.80315" fill="none" stroke="black"/>
<path d="M63.9961,174.314h -6.80315" fill="none" stroke="black"/>
<path d="M63.9961,161.964h -6.80315" fill="none" stroke="black"/>
<path d="M70.7992,149.613h -13.6063" fill="none" stroke="black"/>
<path d="M63.9961,137.262h -6.80315" fill="none" stroke="black"/>
<path d="M63.9961,124.912h -6.80315" fill="none" stroke="black"/>
<path d="M63.9961,112.561h -6.80315" fill="none" stroke="black"/>
<path d="M70.7992,100.21h -13.6063" fill="none" stroke="black"/>
<path d="M63.9961,87.8596h -6.80315" fill="none" stroke="black"/>
<path d="M63.9961,75.5089h -6.80315" fill="none" stroke="black"/>
<path d="M63.9961,63.1583h -6.80315" fill="none" stroke="black"/>
<path d="M70.7992,50.8076h -13.6063" fill="none" stroke="black"/>
<path d="M70.7992,50.8076h -13.6063" fill="none" stroke="black"/>
<text xml:space="preserve" x="46.7965" y="351.691" fill="black" font-size="12.8882" font-family="Helvetica">0</text>
<text xml:space="preserve" x="39.4865" y="302.146" fill="black" font-size="12.8882" font-family="Helvetica">20</text>
<text xml:space="preserve" x="39.4865" y="252.6" fill="black" font-size="12.8882" font-family="Helvetica">40</text>
<text xml:space="preserve" x="39.4865" y="203.867" fill="black" font-size="12.8882" font-family="Helvetica">60</text>
<text xml:space="preserve" x="39.4865" y="154.322" fill="black" font-size="12.8882" font-family="Helvetica">80</text>
<text xml:space="preserve" x="32.1766" y="104.776" fill="black" font-size="12.8882" font-family="Helvetica">100</text>
<text xml:space="preserve" x="32.1766" y="55.2309" fill="black" font-size="12.8882" font-family="Helvetica">120</text>
<g transform="rotate(-90,21.6177,71.4753)">
<text xml:space="preserve" x="21.6177" y="71.4753" fill="black" font-size="12.8882" font-family="Helvetica">Event</text>
</g>
<text xml:space="preserve" x="253.1" y="18.681" fill="black" font-size="17.0471" font-family="Helvetica">0mm 35</text></svg>
