<?xml version="1.0" standalone="no"?>
<svg width="567.429" height="384.68" viewBox="0 0 567.429 384.68" xmlns="http://www.w3.org/2000/svg" shape-rendering="crispEdges">
<title>
img/week2/Combined280mm_ch_56_57_58_59.svg
</title>
<desc>
Creator: ROOT Version 6.22/09
CreationDate: Tue Jun 22 18:02:30 2021</desc>
<defs>
</defs>
<rect x="0.5" y="0" width="566.929" height="384.18" fill="white"/>
<rect x="57.1929" y="38.418" width="453.543" height="307.344" fill="white"/>
<rect x="57.1929" y="38.418" width="453.543" height="307.344" fill="none" stroke="black"/>
<rect x="57.1929" y="38.418" width="453.543" height="307.344" fill="white"/>
<rect x="57.1929" y="38.418" width="453.543" height="307.344" fill="none" stroke="black"/>
<path d="M57.1929,345.762h 30.2362v -1.16154h 30.2362v 1.16154h 30.2362v -2.32308h 30.2362v -4.64616h 30.2362v -13.9385h 30.2362v -138.223h 30.2362v -133.577h 30.2362v 246.247h 30.2362v 45.3001h 30.2362v 1.16154h 151.181" fill="none"
 stroke="#000099"/>
<g fill="#ff0000">
<polygon points=" 279.741, 48.8299 288.188, 48.8299 283.965, 57.2769"/>
</g>
<path d="M59.4606,345.762h 126.992l 4.53543, -0.0706626l 4.53543, -0.0986681l 4.53543, -0.217323l 4.53543, -0.454645l 4.53543, -0.902991l 4.53543, -1.70181l 4.53543, -3.0414l 4.53543, -5.15022l 4.53543, -8.25524l 4.53543, -12.509l 4.53543, -17.8883l
 4.53543, -24.0865l 4.53543, -30.4402l 4.53543, -35.939l 4.53543, -39.356l 4.53543, -39.5015l 4.53543, -35.5486l 4.53543, -27.3351l 4.53543, -15.5279l 4.53543, -1.56827l 4.53543, 12.6129" fill="none" stroke="#ff0000" stroke-width="2"/>
<path d="M281.697,58.7814l 4.53543, 25.0336l 4.53543, 34.1148l 4.53543, 39.0081l 4.53543, 39.7025l 4.53543, 36.9031l 4.53543, 31.7494l 4.53543, 25.4853l 4.53543, 19.1839l 4.53543, 13.5888l 4.53543, 9.08002l 4.53543, 5.73376l 4.53543, 3.42637l
 4.53543, 1.93968l 4.53543, 1.0411l 4.53543, 0.530172l 4.53543, 0.256295l 4.53543, 0.117668l 4.53543, 0.0513266l 4.53543, 0.0344809h 136.063" fill="none" stroke="#ff0000" stroke-width="2"/>
<path d="M503.933,345.762h 4.53543" fill="none" stroke="#ff0000" stroke-width="2"/>
<rect x="351.996" y="24.9717" width="204.094" height="107.57" fill="white"/>
<path d="M351.996,132.542h 204.094" fill="none" stroke="black"/>
<path d="M556.091,132.542v -107.57" fill="none" stroke="black"/>
<path d="M556.091,24.9717h -204.094" fill="none" stroke="black"/>
<path d="M351.996,24.9717v 107.57" fill="none" stroke="black"/>
<text xml:space="preserve" x="361.938" y="38.9865" fill="black" font-size="15.6322" font-family="Helvetica">Entries </text>
<text xml:space="preserve" x="518.696" y="38.9865" fill="black" font-size="15.6322" font-family="Helvetica"> 461</text>
<text xml:space="preserve" x="375.745" y="56.8554" fill="black" font-size="15.6322" font-family="Helvetica"> / ndf </text>
<text xml:space="preserve" x="370.06" y="51.982" fill="black" font-size="10.5881" font-family="Helvetica">2</text>
<text xml:space="preserve" x="361.938" y="56.8554" fill="black" font-size="15.6322" font-family="Times">&#0967;</text>
<text xml:space="preserve" x="481.334" y="56.8554" fill="black" font-size="15.6322" font-family="Helvetica"> 15.93 / 6</text>
<text xml:space="preserve" x="361.938" y="74.7242" fill="black" font-size="15.6322" font-family="Helvetica">Prob  </text>
<text xml:space="preserve" x="486.207" y="74.7242" fill="black" font-size="15.6322" font-family="Helvetica"> 0.01413</text>
<text xml:space="preserve" x="361.938" y="94.2175" fill="black" font-size="15.6322" font-family="Helvetica">Const    </text>
<text xml:space="preserve" x="511.386" y="93.4052" fill="black" font-size="15.6322" font-family="Helvetica"> 16.4</text>
<text xml:space="preserve" x="502.452" y="93.4052" fill="black" font-size="15.6322" font-family="Times">&#0177;</text>
<text xml:space="preserve" x="455.343" y="93.4052" fill="black" font-size="15.6322" font-family="Helvetica"> 258.9 </text>
<text xml:space="preserve" x="361.938" y="111.274" fill="black" font-size="15.6322" font-family="Helvetica">Mean     </text>
<text xml:space="preserve" x="522.757" y="111.274" fill="black" font-size="15.6322" font-family="Helvetica"> 0.1</text>
<text xml:space="preserve" x="513.823" y="111.274" fill="black" font-size="15.6322" font-family="Times">&#0177;</text>
<text xml:space="preserve" x="466.714" y="111.274" fill="black" font-size="15.6322" font-family="Helvetica"> 809.3 </text>
<text xml:space="preserve" x="361.938" y="128.331" fill="black" font-size="15.6322" font-family="Helvetica">Sigma    </text>
<text xml:space="preserve" x="503.264" y="129.143" fill="black" font-size="15.6322" font-family="Helvetica"> 0.115</text>
<text xml:space="preserve" x="494.329" y="129.143" fill="black" font-size="15.6322" font-family="Times">&#0177;</text>
<text xml:space="preserve" x="447.221" y="129.143" fill="black" font-size="15.6322" font-family="Helvetica"> 2.733 </text>
<path d="M57.1929,345.762h 453.543" fill="none" stroke="black"/>
<path d="M129.869,336.541v 9.22031" fill="none" stroke="black"/>
<path d="M144.98,341.152v 4.61016" fill="none" stroke="black"/>
<path d="M160.09,341.152v 4.61016" fill="none" stroke="black"/>
<path d="M175.201,341.152v 4.61016" fill="none" stroke="black"/>
<path d="M190.312,341.152v 4.61016" fill="none" stroke="black"/>
<path d="M205.423,336.541v 9.22031" fill="none" stroke="black"/>
<path d="M220.533,341.152v 4.61016" fill="none" stroke="black"/>
<path d="M235.644,341.152v 4.61016" fill="none" stroke="black"/>
<path d="M250.755,341.152v 4.61016" fill="none" stroke="black"/>
<path d="M265.866,341.152v 4.61016" fill="none" stroke="black"/>
<path d="M280.976,336.541v 9.22031" fill="none" stroke="black"/>
<path d="M296.087,341.152v 4.61016" fill="none" stroke="black"/>
<path d="M311.198,341.152v 4.61016" fill="none" stroke="black"/>
<path d="M326.309,341.152v 4.61016" fill="none" stroke="black"/>
<path d="M341.419,341.152v 4.61016" fill="none" stroke="black"/>
<path d="M356.53,336.541v 9.22031" fill="none" stroke="black"/>
<path d="M371.641,341.152v 4.61016" fill="none" stroke="black"/>
<path d="M386.751,341.152v 4.61016" fill="none" stroke="black"/>
<path d="M401.862,341.152v 4.61016" fill="none" stroke="black"/>
<path d="M416.973,341.152v 4.61016" fill="none" stroke="black"/>
<path d="M432.084,336.541v 9.22031" fill="none" stroke="black"/>
<path d="M447.194,341.152v 4.61016" fill="none" stroke="black"/>
<path d="M462.305,341.152v 4.61016" fill="none" stroke="black"/>
<path d="M477.416,341.152v 4.61016" fill="none" stroke="black"/>
<path d="M492.527,341.152v 4.61016" fill="none" stroke="black"/>
<path d="M507.637,336.541v 9.22031" fill="none" stroke="black"/>
<path d="M129.869,336.541v 9.22031" fill="none" stroke="black"/>
<path d="M114.758,341.152v 4.61016" fill="none" stroke="black"/>
<path d="M99.6476,341.152v 4.61016" fill="none" stroke="black"/>
<path d="M84.5368,341.152v 4.61016" fill="none" stroke="black"/>
<path d="M69.4261,341.152v 4.61016" fill="none" stroke="black"/>
<path d="M507.637,336.541v 9.22031" fill="none" stroke="black"/>
<text xml:space="preserve" x="119.084" y="358.189" fill="black" font-size="12.836" font-family="Helvetica">790</text>
<text xml:space="preserve" x="194.62" y="358.189" fill="black" font-size="12.836" font-family="Helvetica">800</text>
<text xml:space="preserve" x="270.157" y="358.189" fill="black" font-size="12.836" font-family="Helvetica">810</text>
<text xml:space="preserve" x="345.693" y="358.189" fill="black" font-size="12.836" font-family="Helvetica">820</text>
<text xml:space="preserve" x="421.23" y="358.189" fill="black" font-size="12.836" font-family="Helvetica">830</text>
<text xml:space="preserve" x="496.766" y="358.189" fill="black" font-size="12.836" font-family="Helvetica">840</text>
<text xml:space="preserve" x="461.028" y="370.372" fill="black" font-size="12.836" font-family="Helvetica">Time [ps]</text>
<path d="M57.1929,345.762v -307.344" fill="none" stroke="black"/>
<path d="M70.7992,345.762h -13.6063" fill="none" stroke="black"/>
<path d="M63.9961,334.146h -6.80315" fill="none" stroke="black"/>
<path d="M63.9961,322.531h -6.80315" fill="none" stroke="black"/>
<path d="M63.9961,310.916h -6.80315" fill="none" stroke="black"/>
<path d="M63.9961,299.3h -6.80315" fill="none" stroke="black"/>
<path d="M70.7992,287.685h -13.6063" fill="none" stroke="black"/>
<path d="M63.9961,276.069h -6.80315" fill="none" stroke="black"/>
<path d="M63.9961,264.454h -6.80315" fill="none" stroke="black"/>
<path d="M63.9961,252.839h -6.80315" fill="none" stroke="black"/>
<path d="M63.9961,241.223h -6.80315" fill="none" stroke="black"/>
<path d="M70.7992,229.608h -13.6063" fill="none" stroke="black"/>
<path d="M63.9961,217.992h -6.80315" fill="none" stroke="black"/>
<path d="M63.9961,206.377h -6.80315" fill="none" stroke="black"/>
<path d="M63.9961,194.761h -6.80315" fill="none" stroke="black"/>
<path d="M63.9961,183.146h -6.80315" fill="none" stroke="black"/>
<path d="M70.7992,171.531h -13.6063" fill="none" stroke="black"/>
<path d="M63.9961,159.915h -6.80315" fill="none" stroke="black"/>
<path d="M63.9961,148.3h -6.80315" fill="none" stroke="black"/>
<path d="M63.9961,136.684h -6.80315" fill="none" stroke="black"/>
<path d="M63.9961,125.069h -6.80315" fill="none" stroke="black"/>
<path d="M70.7992,113.454h -13.6063" fill="none" stroke="black"/>
<path d="M63.9961,101.838h -6.80315" fill="none" stroke="black"/>
<path d="M63.9961,90.2227h -6.80315" fill="none" stroke="black"/>
<path d="M63.9961,78.6073h -6.80315" fill="none" stroke="black"/>
<path d="M63.9961,66.9919h -6.80315" fill="none" stroke="black"/>
<path d="M70.7992,55.3765h -13.6063" fill="none" stroke="black"/>
<path d="M70.7992,55.3765h -13.6063" fill="none" stroke="black"/>
<path d="M63.9961,43.7611h -6.80315" fill="none" stroke="black"/>
<text xml:space="preserve" x="47.6087" y="350.067" fill="black" font-size="12.836" font-family="Helvetica">0</text>
<text xml:space="preserve" x="41.111" y="292.399" fill="black" font-size="12.836" font-family="Helvetica">50</text>
<text xml:space="preserve" x="33.801" y="233.919" fill="black" font-size="12.836" font-family="Helvetica">100</text>
<text xml:space="preserve" x="33.801" y="176.252" fill="black" font-size="12.836" font-family="Helvetica">150</text>
<text xml:space="preserve" x="33.801" y="117.772" fill="black" font-size="12.836" font-family="Helvetica">200</text>
<text xml:space="preserve" x="33.801" y="60.1042" fill="black" font-size="12.836" font-family="Helvetica">250</text>
<g transform="rotate(-90,20.8055,69.8509)">
<text xml:space="preserve" x="20.8055" y="69.8509" fill="black" font-size="12.836" font-family="Helvetica">Event</text>
</g>
<rect x="351.996" y="24.9717" width="204.094" height="107.57" fill="white"/>
<path d="M351.996,132.542h 204.094" fill="none" stroke="black"/>
<path d="M556.091,132.542v -107.57" fill="none" stroke="black"/>
<path d="M556.091,24.9717h -204.094" fill="none" stroke="black"/>
<path d="M351.996,24.9717v 107.57" fill="none" stroke="black"/>
<text xml:space="preserve" x="361.938" y="38.9865" fill="black" font-size="15.6322" font-family="Helvetica">Entries </text>
<text xml:space="preserve" x="518.696" y="38.9865" fill="black" font-size="15.6322" font-family="Helvetica"> 461</text>
<text xml:space="preserve" x="375.745" y="56.8554" fill="black" font-size="15.6322" font-family="Helvetica"> / ndf </text>
<text xml:space="preserve" x="370.06" y="51.982" fill="black" font-size="10.5881" font-family="Helvetica">2</text>
<text xml:space="preserve" x="361.938" y="56.8554" fill="black" font-size="15.6322" font-family="Times">&#0967;</text>
<text xml:space="preserve" x="481.334" y="56.8554" fill="black" font-size="15.6322" font-family="Helvetica"> 15.93 / 6</text>
<text xml:space="preserve" x="361.938" y="74.7242" fill="black" font-size="15.6322" font-family="Helvetica">Prob  </text>
<text xml:space="preserve" x="486.207" y="74.7242" fill="black" font-size="15.6322" font-family="Helvetica"> 0.01413</text>
<text xml:space="preserve" x="361.938" y="94.2175" fill="black" font-size="15.6322" font-family="Helvetica">Const    </text>
<text xml:space="preserve" x="511.386" y="93.4052" fill="black" font-size="15.6322" font-family="Helvetica"> 16.4</text>
<text xml:space="preserve" x="502.452" y="93.4052" fill="black" font-size="15.6322" font-family="Times">&#0177;</text>
<text xml:space="preserve" x="455.343" y="93.4052" fill="black" font-size="15.6322" font-family="Helvetica"> 258.9 </text>
<text xml:space="preserve" x="361.938" y="111.274" fill="black" font-size="15.6322" font-family="Helvetica">Mean     </text>
<text xml:space="preserve" x="522.757" y="111.274" fill="black" font-size="15.6322" font-family="Helvetica"> 0.1</text>
<text xml:space="preserve" x="513.823" y="111.274" fill="black" font-size="15.6322" font-family="Times">&#0177;</text>
<text xml:space="preserve" x="466.714" y="111.274" fill="black" font-size="15.6322" font-family="Helvetica"> 809.3 </text>
<text xml:space="preserve" x="361.938" y="128.331" fill="black" font-size="15.6322" font-family="Helvetica">Sigma    </text>
<text xml:space="preserve" x="503.264" y="129.143" fill="black" font-size="15.6322" font-family="Helvetica"> 0.115</text>
<text xml:space="preserve" x="494.329" y="129.143" fill="black" font-size="15.6322" font-family="Times">&#0177;</text>
<text xml:space="preserve" x="447.221" y="129.143" fill="black" font-size="15.6322" font-family="Helvetica"> 2.733 </text>
<text xml:space="preserve" x="208.428" y="18.681" fill="black" font-size="16.9774" font-family="Helvetica">280mm 56 57 58 59</text></svg>
