<?xml version="1.0" standalone="no"?>
<svg width="567.429" height="386.304" viewBox="0 0 567.429 386.304" xmlns="http://www.w3.org/2000/svg" shape-rendering="crispEdges">
<title>
img/week2/Combined670mm_ch_62.svg
</title>
<desc>
Creator: ROOT Version 6.22/08
CreationDate: Thu Jun 24 11:58:33 2021</desc>
<defs>
</defs>
<rect x="0.5" y="0" width="566.929" height="385.804" fill="white"/>
<rect x="57.1929" y="38.5804" width="453.543" height="308.643" fill="white"/>
<rect x="57.1929" y="38.5804" width="453.543" height="308.643" fill="none" stroke="black"/>
<rect x="57.1929" y="38.5804" width="453.543" height="308.643" fill="white"/>
<rect x="57.1929" y="38.5804" width="453.543" height="308.643" fill="none" stroke="black"/>
<path d="M57.1929,347.224h 104.664v -8.16517h 34.8879v 8.16517h 34.8879v -89.8169h 34.8879v -204.129h 34.8879v 204.129h 34.8879v 89.8169h 174.44" fill="none" stroke="#000099"/>
<g fill="#ff0000">
<polygon points=" 279.741, 49.0542 288.188, 49.0542 283.965, 57.5013"/>
</g>
<path d="M59.4606,347.224h 126.992l 4.53543, -0.0650053l 4.53543, -0.0798269l 4.53543, -0.165185l 4.53543, -0.327526l 4.53543, -0.622072l 4.53543, -1.13133l 4.53543, -1.96925l 4.53543, -3.27896l 4.53543, -5.2193l 4.53543, -7.93546l 4.53543, -11.5124l
 4.53543, -15.9154l 4.53543, -20.9298l 4.53543, -26.1204l 4.53543, -30.8329l 4.53543, -34.2575l 4.53543, -35.5568l 4.53543, -34.0424l 4.53543, -29.3593l 4.53543, -21.6256l 4.53543, -11.4779" fill="none" stroke="#ff0000" stroke-width="2"/>
<path d="M281.697,54.7994l 4.53543, 0.0041326l 4.53543, 11.4857l 4.53543, 21.632l 4.53543, 29.3638l 4.53543, 34.0446l 4.53543, 35.5568l 4.53543, 34.2557l 4.53543, 30.8299l 4.53543, 26.1168l 4.53543, 20.9261l 4.53543, 15.912l 4.53543, 11.5096l
 4.53543, 7.93325l 4.53543, 5.21768l 4.53543, 3.27784l 4.53543, 1.96851l 4.53543, 1.13087l 4.53543, 0.6218l 4.53543, 0.327373l 4.53543, 0.165103l 4.53543, 0.0797848l 4.53543, 0.0649676h 122.457" fill="none" stroke="#ff0000" stroke-width="2"/>
<path d="M503.933,347.224h 4.53543" fill="none" stroke="#ff0000" stroke-width="2"/>
<rect x="351.996" y="25.0773" width="204.094" height="108.025" fill="white"/>
<path d="M351.996,133.102h 204.094" fill="none" stroke="black"/>
<path d="M556.091,133.102v -108.025" fill="none" stroke="black"/>
<path d="M556.091,25.0773h -204.094" fill="none" stroke="black"/>
<path d="M351.996,25.0773v 108.025" fill="none" stroke="black"/>
<text xml:space="preserve" x="361.938" y="38.9865" fill="black" font-size="15.6962" font-family="Helvetica">Entries </text>
<text xml:space="preserve" x="524.382" y="38.9865" fill="black" font-size="15.6962" font-family="Helvetica"> 59</text>
<text xml:space="preserve" x="375.745" y="57.6676" fill="black" font-size="15.6962" font-family="Helvetica"> / ndf </text>
<text xml:space="preserve" x="370.06" y="52.7943" fill="black" font-size="10.6308" font-family="Helvetica">2</text>
<text xml:space="preserve" x="361.938" y="57.6676" fill="black" font-size="15.6962" font-family="Times">&#0967;</text>
<text xml:space="preserve" x="475.648" y="57.6676" fill="black" font-size="15.6962" font-family="Helvetica"> 0.9983 / 1</text>
<text xml:space="preserve" x="361.938" y="75.5364" fill="black" font-size="15.6962" font-family="Helvetica">Prob  </text>
<text xml:space="preserve" x="494.329" y="75.5364" fill="black" font-size="15.6962" font-family="Helvetica"> 0.3177</text>
<text xml:space="preserve" x="361.938" y="94.2175" fill="black" font-size="15.6962" font-family="Helvetica">Const    </text>
<text xml:space="preserve" x="513.823" y="93.4052" fill="black" font-size="15.6962" font-family="Helvetica"> 6.01</text>
<text xml:space="preserve" x="504.888" y="93.4052" fill="black" font-size="15.6962" font-family="Times">&#0177;</text>
<text xml:space="preserve" x="456.967" y="93.4052" fill="black" font-size="15.6962" font-family="Helvetica"> 35.99 </text>
<text xml:space="preserve" x="361.938" y="111.274" fill="black" font-size="15.6962" font-family="Helvetica">Mean     </text>
<text xml:space="preserve" x="519.508" y="111.274" fill="black" font-size="15.6962" font-family="Helvetica"> 0.4</text>
<text xml:space="preserve" x="510.574" y="111.274" fill="black" font-size="15.6962" font-family="Times">&#0177;</text>
<text xml:space="preserve" x="462.653" y="111.274" fill="black" font-size="15.6962" font-family="Helvetica"> 806.4 </text>
<text xml:space="preserve" x="361.938" y="128.331" fill="black" font-size="15.6962" font-family="Helvetica">Sigma    </text>
<text xml:space="preserve" x="502.452" y="129.143" fill="black" font-size="15.6962" font-family="Helvetica"> 0.297</text>
<text xml:space="preserve" x="493.517" y="129.143" fill="black" font-size="15.6962" font-family="Times">&#0177;</text>
<text xml:space="preserve" x="445.596" y="129.143" fill="black" font-size="15.6962" font-family="Helvetica"> 2.599 </text>
<path d="M57.1929,347.224h 453.543" fill="none" stroke="black"/>
<path d="M141.05,337.964v 9.2593" fill="none" stroke="black"/>
<path d="M158.485,342.594v 4.62965" fill="none" stroke="black"/>
<path d="M175.921,342.594v 4.62965" fill="none" stroke="black"/>
<path d="M193.356,342.594v 4.62965" fill="none" stroke="black"/>
<path d="M210.792,342.594v 4.62965" fill="none" stroke="black"/>
<path d="M228.227,337.964v 9.2593" fill="none" stroke="black"/>
<path d="M245.663,342.594v 4.62965" fill="none" stroke="black"/>
<path d="M263.098,342.594v 4.62965" fill="none" stroke="black"/>
<path d="M280.534,342.594v 4.62965" fill="none" stroke="black"/>
<path d="M297.969,342.594v 4.62965" fill="none" stroke="black"/>
<path d="M315.405,337.964v 9.2593" fill="none" stroke="black"/>
<path d="M332.84,342.594v 4.62965" fill="none" stroke="black"/>
<path d="M350.276,342.594v 4.62965" fill="none" stroke="black"/>
<path d="M367.711,342.594v 4.62965" fill="none" stroke="black"/>
<path d="M385.146,342.594v 4.62965" fill="none" stroke="black"/>
<path d="M402.582,337.964v 9.2593" fill="none" stroke="black"/>
<path d="M420.017,342.594v 4.62965" fill="none" stroke="black"/>
<path d="M437.453,342.594v 4.62965" fill="none" stroke="black"/>
<path d="M454.888,342.594v 4.62965" fill="none" stroke="black"/>
<path d="M472.324,342.594v 4.62965" fill="none" stroke="black"/>
<path d="M489.759,337.964v 9.2593" fill="none" stroke="black"/>
<path d="M141.05,337.964v 9.2593" fill="none" stroke="black"/>
<path d="M123.615,342.594v 4.62965" fill="none" stroke="black"/>
<path d="M106.179,342.594v 4.62965" fill="none" stroke="black"/>
<path d="M88.7436,342.594v 4.62965" fill="none" stroke="black"/>
<path d="M71.3081,342.594v 4.62965" fill="none" stroke="black"/>
<path d="M489.759,337.964v 9.2593" fill="none" stroke="black"/>
<path d="M507.195,342.594v 4.62965" fill="none" stroke="black"/>
<text xml:space="preserve" x="129.643" y="359.813" fill="black" font-size="12.8882" font-family="Helvetica">790</text>
<text xml:space="preserve" x="216.55" y="359.813" fill="black" font-size="12.8882" font-family="Helvetica">800</text>
<text xml:space="preserve" x="303.458" y="359.813" fill="black" font-size="12.8882" font-family="Helvetica">810</text>
<text xml:space="preserve" x="391.178" y="359.813" fill="black" font-size="12.8882" font-family="Helvetica">820</text>
<text xml:space="preserve" x="478.085" y="359.813" fill="black" font-size="12.8882" font-family="Helvetica">830</text>
<text xml:space="preserve" x="457.78" y="372.809" fill="black" font-size="12.8882" font-family="Helvetica">Time [ns]</text>
<path d="M57.1929,347.224v -308.643" fill="none" stroke="black"/>
<path d="M70.7992,347.224h -13.6063" fill="none" stroke="black"/>
<path d="M63.9961,339.059h -6.80315" fill="none" stroke="black"/>
<path d="M63.9961,330.893h -6.80315" fill="none" stroke="black"/>
<path d="M63.9961,322.728h -6.80315" fill="none" stroke="black"/>
<path d="M63.9961,314.563h -6.80315" fill="none" stroke="black"/>
<path d="M70.7992,306.398h -13.6063" fill="none" stroke="black"/>
<path d="M63.9961,298.233h -6.80315" fill="none" stroke="black"/>
<path d="M63.9961,290.068h -6.80315" fill="none" stroke="black"/>
<path d="M63.9961,281.902h -6.80315" fill="none" stroke="black"/>
<path d="M63.9961,273.737h -6.80315" fill="none" stroke="black"/>
<path d="M70.7992,265.572h -13.6063" fill="none" stroke="black"/>
<path d="M63.9961,257.407h -6.80315" fill="none" stroke="black"/>
<path d="M63.9961,249.242h -6.80315" fill="none" stroke="black"/>
<path d="M63.9961,241.077h -6.80315" fill="none" stroke="black"/>
<path d="M63.9961,232.911h -6.80315" fill="none" stroke="black"/>
<path d="M70.7992,224.746h -13.6063" fill="none" stroke="black"/>
<path d="M63.9961,216.581h -6.80315" fill="none" stroke="black"/>
<path d="M63.9961,208.416h -6.80315" fill="none" stroke="black"/>
<path d="M63.9961,200.251h -6.80315" fill="none" stroke="black"/>
<path d="M63.9961,192.086h -6.80315" fill="none" stroke="black"/>
<path d="M70.7992,183.92h -13.6063" fill="none" stroke="black"/>
<path d="M63.9961,175.755h -6.80315" fill="none" stroke="black"/>
<path d="M63.9961,167.59h -6.80315" fill="none" stroke="black"/>
<path d="M63.9961,159.425h -6.80315" fill="none" stroke="black"/>
<path d="M63.9961,151.26h -6.80315" fill="none" stroke="black"/>
<path d="M70.7992,143.095h -13.6063" fill="none" stroke="black"/>
<path d="M63.9961,134.929h -6.80315" fill="none" stroke="black"/>
<path d="M63.9961,126.764h -6.80315" fill="none" stroke="black"/>
<path d="M63.9961,118.599h -6.80315" fill="none" stroke="black"/>
<path d="M63.9961,110.434h -6.80315" fill="none" stroke="black"/>
<path d="M70.7992,102.269h -13.6063" fill="none" stroke="black"/>
<path d="M63.9961,94.1036h -6.80315" fill="none" stroke="black"/>
<path d="M63.9961,85.9384h -6.80315" fill="none" stroke="black"/>
<path d="M63.9961,77.7732h -6.80315" fill="none" stroke="black"/>
<path d="M63.9961,69.6081h -6.80315" fill="none" stroke="black"/>
<path d="M70.7992,61.4429h -13.6063" fill="none" stroke="black"/>
<path d="M70.7992,61.4429h -13.6063" fill="none" stroke="black"/>
<path d="M63.9961,53.2777h -6.80315" fill="none" stroke="black"/>
<path d="M63.9961,45.1126h -6.80315" fill="none" stroke="black"/>
<text xml:space="preserve" x="46.7965" y="351.691" fill="black" font-size="12.8882" font-family="Helvetica">0</text>
<text xml:space="preserve" x="46.7965" y="311.08" fill="black" font-size="12.8882" font-family="Helvetica">5</text>
<text xml:space="preserve" x="39.4865" y="269.657" fill="black" font-size="12.8882" font-family="Helvetica">10</text>
<text xml:space="preserve" x="39.4865" y="229.046" fill="black" font-size="12.8882" font-family="Helvetica">15</text>
<text xml:space="preserve" x="39.4865" y="188.435" fill="black" font-size="12.8882" font-family="Helvetica">20</text>
<text xml:space="preserve" x="39.4865" y="147.824" fill="black" font-size="12.8882" font-family="Helvetica">25</text>
<text xml:space="preserve" x="39.4865" y="106.401" fill="black" font-size="12.8882" font-family="Helvetica">30</text>
<text xml:space="preserve" x="39.4865" y="65.7898" fill="black" font-size="12.8882" font-family="Helvetica">35</text>
<g transform="rotate(-90,28.9277,71.4753)">
<text xml:space="preserve" x="28.9277" y="71.4753" fill="black" font-size="12.8882" font-family="Helvetica">Event</text>
</g>
<rect x="351.996" y="25.0773" width="204.094" height="108.025" fill="white"/>
<path d="M351.996,133.102h 204.094" fill="none" stroke="black"/>
<path d="M556.091,133.102v -108.025" fill="none" stroke="black"/>
<path d="M556.091,25.0773h -204.094" fill="none" stroke="black"/>
<path d="M351.996,25.0773v 108.025" fill="none" stroke="black"/>
<text xml:space="preserve" x="361.938" y="38.9865" fill="black" font-size="15.6962" font-family="Helvetica">Entries </text>
<text xml:space="preserve" x="524.382" y="38.9865" fill="black" font-size="15.6962" font-family="Helvetica"> 59</text>
<text xml:space="preserve" x="375.745" y="57.6676" fill="black" font-size="15.6962" font-family="Helvetica"> / ndf </text>
<text xml:space="preserve" x="370.06" y="52.7943" fill="black" font-size="10.6308" font-family="Helvetica">2</text>
<text xml:space="preserve" x="361.938" y="57.6676" fill="black" font-size="15.6962" font-family="Times">&#0967;</text>
<text xml:space="preserve" x="475.648" y="57.6676" fill="black" font-size="15.6962" font-family="Helvetica"> 0.9983 / 1</text>
<text xml:space="preserve" x="361.938" y="75.5364" fill="black" font-size="15.6962" font-family="Helvetica">Prob  </text>
<text xml:space="preserve" x="494.329" y="75.5364" fill="black" font-size="15.6962" font-family="Helvetica"> 0.3177</text>
<text xml:space="preserve" x="361.938" y="94.2175" fill="black" font-size="15.6962" font-family="Helvetica">Const    </text>
<text xml:space="preserve" x="513.823" y="93.4052" fill="black" font-size="15.6962" font-family="Helvetica"> 6.01</text>
<text xml:space="preserve" x="504.888" y="93.4052" fill="black" font-size="15.6962" font-family="Times">&#0177;</text>
<text xml:space="preserve" x="456.967" y="93.4052" fill="black" font-size="15.6962" font-family="Helvetica"> 35.99 </text>
<text xml:space="preserve" x="361.938" y="111.274" fill="black" font-size="15.6962" font-family="Helvetica">Mean     </text>
<text xml:space="preserve" x="519.508" y="111.274" fill="black" font-size="15.6962" font-family="Helvetica"> 0.4</text>
<text xml:space="preserve" x="510.574" y="111.274" fill="black" font-size="15.6962" font-family="Times">&#0177;</text>
<text xml:space="preserve" x="462.653" y="111.274" fill="black" font-size="15.6962" font-family="Helvetica"> 806.4 </text>
<text xml:space="preserve" x="361.938" y="128.331" fill="black" font-size="15.6962" font-family="Helvetica">Sigma    </text>
<text xml:space="preserve" x="502.452" y="129.143" fill="black" font-size="15.6962" font-family="Helvetica"> 0.297</text>
<text xml:space="preserve" x="493.517" y="129.143" fill="black" font-size="15.6962" font-family="Times">&#0177;</text>
<text xml:space="preserve" x="445.596" y="129.143" fill="black" font-size="15.6962" font-family="Helvetica"> 2.599 </text>
<text xml:space="preserve" x="243.354" y="18.681" fill="black" font-size="17.0471" font-family="Helvetica">670mm 62</text></svg>
