<?xml version="1.0" standalone="no"?>
<svg width="567.429" height="386.304" viewBox="0 0 567.429 386.304" xmlns="http://www.w3.org/2000/svg" shape-rendering="crispEdges">
<title>
img/week2/Combined560mm_ch_6.svg
</title>
<desc>
Creator: ROOT Version 6.22/08
CreationDate: Thu Jun 24 11:58:47 2021</desc>
<defs>
</defs>
<rect x="0.5" y="0" width="566.929" height="385.804" fill="white"/>
<rect x="57.1929" y="38.5804" width="453.543" height="308.643" fill="white"/>
<rect x="57.1929" y="38.5804" width="453.543" height="308.643" fill="none" stroke="black"/>
<rect x="57.1929" y="38.5804" width="453.543" height="308.643" fill="white"/>
<rect x="57.1929" y="38.5804" width="453.543" height="308.643" fill="none" stroke="black"/>
<path d="M57.1929,347.224h 151.181v -7.73542h 30.2362v -116.031h 30.2362v -170.179h 30.2362v 201.121h 30.2362v 92.8251h 181.417" fill="none" stroke="#000099"/>
<g fill="#ff0000">
<polygon points=" 279.741, 49.0542 288.188, 49.0542 283.965, 57.5013"/>
</g>
<path d="M59.4606,347.224h 126.992l 4.53543, -0.0370113l 4.53543, -0.0517946l 4.53543, -0.114929l 4.53543, -0.243162l 4.53543, -0.490374l 4.53543, -0.942219l 4.53543, -1.72407l 4.53543, -3.00247l 4.53543, -4.97283l 4.53543, -7.82589l 4.53543,
 -11.6886l 4.53543, -16.5435l 4.53543, -22.1439l 4.53543, -27.9532l 4.53543, -33.1456l 4.53543, -36.6977l 4.53543, -37.5745l 4.53543, -34.9815l 4.53543, -28.6153l 4.53543, -18.8302l 4.53543, -6.64946" fill="none" stroke="#ff0000" stroke-width="2"/>
<path d="M281.697,52.9954l 4.53543, 6.40311l 4.53543, 18.6159l 4.53543, 28.4583l 4.53543, 34.8953l 4.53543, 37.5594l 4.53543, 36.7426l 4.53543, 33.2322l 4.53543, 28.0611l 4.53543, 22.2551l 4.53543, 16.6447l 4.53543, 11.7723l 4.53543, 7.88994l
 4.53543, 5.01848l 4.53543, 3.03296l 4.53543, 1.74323l 4.53543, 0.953586l 4.53543, 0.496751l 4.53543, 0.24655l 4.53543, 0.116637l 4.53543, 0.0526119l 4.53543, 0.0376506h 126.992" fill="none" stroke="#ff0000" stroke-width="2"/>
<path d="M503.933,347.224h 4.53543" fill="none" stroke="#ff0000" stroke-width="2"/>
<rect x="351.996" y="25.0773" width="204.094" height="108.025" fill="white"/>
<path d="M351.996,133.102h 204.094" fill="none" stroke="black"/>
<path d="M556.091,133.102v -108.025" fill="none" stroke="black"/>
<path d="M556.091,25.0773h -204.094" fill="none" stroke="black"/>
<path d="M351.996,25.0773v 108.025" fill="none" stroke="black"/>
<text xml:space="preserve" x="361.938" y="38.9865" fill="black" font-size="15.6962" font-family="Helvetica">Entries </text>
<text xml:space="preserve" x="524.382" y="38.9865" fill="black" font-size="15.6962" font-family="Helvetica"> 69</text>
<text xml:space="preserve" x="375.745" y="57.6676" fill="black" font-size="15.6962" font-family="Helvetica"> / ndf </text>
<text xml:space="preserve" x="370.06" y="52.7943" fill="black" font-size="10.6308" font-family="Helvetica">2</text>
<text xml:space="preserve" x="361.938" y="57.6676" fill="black" font-size="15.6962" font-family="Times">&#0967;</text>
<text xml:space="preserve" x="457.78" y="57.6676" fill="black" font-size="15.6962" font-family="Helvetica"> 0.006247 / 1</text>
<text xml:space="preserve" x="361.938" y="75.5364" fill="black" font-size="15.6962" font-family="Helvetica">Prob  </text>
<text xml:space="preserve" x="502.452" y="75.5364" fill="black" font-size="15.6962" font-family="Helvetica"> 0.937</text>
<text xml:space="preserve" x="361.938" y="94.2175" fill="black" font-size="15.6962" font-family="Helvetica">Const    </text>
<text xml:space="preserve" x="511.386" y="93.4052" fill="black" font-size="15.6962" font-family="Helvetica"> 5.87</text>
<text xml:space="preserve" x="502.452" y="93.4052" fill="black" font-size="15.6962" font-family="Times">&#0177;</text>
<text xml:space="preserve" x="454.531" y="93.4052" fill="black" font-size="15.6962" font-family="Helvetica"> 38.04 </text>
<text xml:space="preserve" x="361.938" y="111.274" fill="black" font-size="15.6962" font-family="Helvetica">Mean     </text>
<text xml:space="preserve" x="519.508" y="111.274" fill="black" font-size="15.6962" font-family="Helvetica"> 0.4</text>
<text xml:space="preserve" x="510.574" y="111.274" fill="black" font-size="15.6962" font-family="Times">&#0177;</text>
<text xml:space="preserve" x="465.902" y="111.274" fill="black" font-size="15.6962" font-family="Helvetica"> 810.1 </text>
<text xml:space="preserve" x="361.938" y="128.331" fill="black" font-size="15.6962" font-family="Helvetica">Sigma    </text>
<text xml:space="preserve" x="502.452" y="129.143" fill="black" font-size="15.6962" font-family="Helvetica"> 0.287</text>
<text xml:space="preserve" x="493.517" y="129.143" fill="black" font-size="15.6962" font-family="Times">&#0177;</text>
<text xml:space="preserve" x="445.596" y="129.143" fill="black" font-size="15.6962" font-family="Helvetica"> 2.834 </text>
<path d="M57.1929,347.224h 453.543" fill="none" stroke="black"/>
<path d="M129.869,337.964v 9.2593" fill="none" stroke="black"/>
<path d="M144.98,342.594v 4.62965" fill="none" stroke="black"/>
<path d="M160.09,342.594v 4.62965" fill="none" stroke="black"/>
<path d="M175.201,342.594v 4.62965" fill="none" stroke="black"/>
<path d="M190.312,342.594v 4.62965" fill="none" stroke="black"/>
<path d="M205.423,337.964v 9.2593" fill="none" stroke="black"/>
<path d="M220.533,342.594v 4.62965" fill="none" stroke="black"/>
<path d="M235.644,342.594v 4.62965" fill="none" stroke="black"/>
<path d="M250.755,342.594v 4.62965" fill="none" stroke="black"/>
<path d="M265.866,342.594v 4.62965" fill="none" stroke="black"/>
<path d="M280.976,337.964v 9.2593" fill="none" stroke="black"/>
<path d="M296.087,342.594v 4.62965" fill="none" stroke="black"/>
<path d="M311.198,342.594v 4.62965" fill="none" stroke="black"/>
<path d="M326.309,342.594v 4.62965" fill="none" stroke="black"/>
<path d="M341.419,342.594v 4.62965" fill="none" stroke="black"/>
<path d="M356.53,337.964v 9.2593" fill="none" stroke="black"/>
<path d="M371.641,342.594v 4.62965" fill="none" stroke="black"/>
<path d="M386.751,342.594v 4.62965" fill="none" stroke="black"/>
<path d="M401.862,342.594v 4.62965" fill="none" stroke="black"/>
<path d="M416.973,342.594v 4.62965" fill="none" stroke="black"/>
<path d="M432.084,337.964v 9.2593" fill="none" stroke="black"/>
<path d="M447.194,342.594v 4.62965" fill="none" stroke="black"/>
<path d="M462.305,342.594v 4.62965" fill="none" stroke="black"/>
<path d="M477.416,342.594v 4.62965" fill="none" stroke="black"/>
<path d="M492.527,342.594v 4.62965" fill="none" stroke="black"/>
<path d="M507.637,337.964v 9.2593" fill="none" stroke="black"/>
<path d="M129.869,337.964v 9.2593" fill="none" stroke="black"/>
<path d="M114.758,342.594v 4.62965" fill="none" stroke="black"/>
<path d="M99.6476,342.594v 4.62965" fill="none" stroke="black"/>
<path d="M84.5368,342.594v 4.62965" fill="none" stroke="black"/>
<path d="M69.4261,342.594v 4.62965" fill="none" stroke="black"/>
<path d="M507.637,337.964v 9.2593" fill="none" stroke="black"/>
<text xml:space="preserve" x="118.272" y="359.813" fill="black" font-size="12.8882" font-family="Helvetica">790</text>
<text xml:space="preserve" x="193.808" y="359.813" fill="black" font-size="12.8882" font-family="Helvetica">800</text>
<text xml:space="preserve" x="269.345" y="359.813" fill="black" font-size="12.8882" font-family="Helvetica">810</text>
<text xml:space="preserve" x="344.881" y="359.813" fill="black" font-size="12.8882" font-family="Helvetica">820</text>
<text xml:space="preserve" x="420.417" y="359.813" fill="black" font-size="12.8882" font-family="Helvetica">830</text>
<text xml:space="preserve" x="495.954" y="359.813" fill="black" font-size="12.8882" font-family="Helvetica">840</text>
<text xml:space="preserve" x="457.78" y="372.809" fill="black" font-size="12.8882" font-family="Helvetica">Time [ns]</text>
<path d="M57.1929,347.224v -308.643" fill="none" stroke="black"/>
<path d="M70.7992,347.224h -13.6063" fill="none" stroke="black"/>
<path d="M63.9961,339.488h -6.80315" fill="none" stroke="black"/>
<path d="M63.9961,331.753h -6.80315" fill="none" stroke="black"/>
<path d="M63.9961,324.018h -6.80315" fill="none" stroke="black"/>
<path d="M63.9961,316.282h -6.80315" fill="none" stroke="black"/>
<path d="M70.7992,308.547h -13.6063" fill="none" stroke="black"/>
<path d="M63.9961,300.811h -6.80315" fill="none" stroke="black"/>
<path d="M63.9961,293.076h -6.80315" fill="none" stroke="black"/>
<path d="M63.9961,285.34h -6.80315" fill="none" stroke="black"/>
<path d="M63.9961,277.605h -6.80315" fill="none" stroke="black"/>
<path d="M70.7992,269.87h -13.6063" fill="none" stroke="black"/>
<path d="M63.9961,262.134h -6.80315" fill="none" stroke="black"/>
<path d="M63.9961,254.399h -6.80315" fill="none" stroke="black"/>
<path d="M63.9961,246.663h -6.80315" fill="none" stroke="black"/>
<path d="M63.9961,238.928h -6.80315" fill="none" stroke="black"/>
<path d="M70.7992,231.192h -13.6063" fill="none" stroke="black"/>
<path d="M63.9961,223.457h -6.80315" fill="none" stroke="black"/>
<path d="M63.9961,215.722h -6.80315" fill="none" stroke="black"/>
<path d="M63.9961,207.986h -6.80315" fill="none" stroke="black"/>
<path d="M63.9961,200.251h -6.80315" fill="none" stroke="black"/>
<path d="M70.7992,192.515h -13.6063" fill="none" stroke="black"/>
<path d="M63.9961,184.78h -6.80315" fill="none" stroke="black"/>
<path d="M63.9961,177.044h -6.80315" fill="none" stroke="black"/>
<path d="M63.9961,169.309h -6.80315" fill="none" stroke="black"/>
<path d="M63.9961,161.574h -6.80315" fill="none" stroke="black"/>
<path d="M70.7992,153.838h -13.6063" fill="none" stroke="black"/>
<path d="M63.9961,146.103h -6.80315" fill="none" stroke="black"/>
<path d="M63.9961,138.367h -6.80315" fill="none" stroke="black"/>
<path d="M63.9961,130.632h -6.80315" fill="none" stroke="black"/>
<path d="M63.9961,122.897h -6.80315" fill="none" stroke="black"/>
<path d="M70.7992,115.161h -13.6063" fill="none" stroke="black"/>
<path d="M63.9961,107.426h -6.80315" fill="none" stroke="black"/>
<path d="M63.9961,99.6903h -6.80315" fill="none" stroke="black"/>
<path d="M63.9961,91.9548h -6.80315" fill="none" stroke="black"/>
<path d="M63.9961,84.2194h -6.80315" fill="none" stroke="black"/>
<path d="M70.7992,76.484h -13.6063" fill="none" stroke="black"/>
<path d="M70.7992,76.484h -13.6063" fill="none" stroke="black"/>
<path d="M63.9961,68.7486h -6.80315" fill="none" stroke="black"/>
<path d="M63.9961,61.0131h -6.80315" fill="none" stroke="black"/>
<path d="M63.9961,53.2777h -6.80315" fill="none" stroke="black"/>
<path d="M63.9961,45.5423h -6.80315" fill="none" stroke="black"/>
<text xml:space="preserve" x="46.7965" y="351.691" fill="black" font-size="12.8882" font-family="Helvetica">0</text>
<text xml:space="preserve" x="46.7965" y="312.704" fill="black" font-size="12.8882" font-family="Helvetica">5</text>
<text xml:space="preserve" x="39.4865" y="274.53" fill="black" font-size="12.8882" font-family="Helvetica">10</text>
<text xml:space="preserve" x="39.4865" y="235.544" fill="black" font-size="12.8882" font-family="Helvetica">15</text>
<text xml:space="preserve" x="39.4865" y="197.369" fill="black" font-size="12.8882" font-family="Helvetica">20</text>
<text xml:space="preserve" x="39.4865" y="158.383" fill="black" font-size="12.8882" font-family="Helvetica">25</text>
<text xml:space="preserve" x="39.4865" y="119.396" fill="black" font-size="12.8882" font-family="Helvetica">30</text>
<text xml:space="preserve" x="39.4865" y="81.2219" fill="black" font-size="12.8882" font-family="Helvetica">35</text>
<g transform="rotate(-90,28.9277,71.4753)">
<text xml:space="preserve" x="28.9277" y="71.4753" fill="black" font-size="12.8882" font-family="Helvetica">Event</text>
</g>
<rect x="351.996" y="25.0773" width="204.094" height="108.025" fill="white"/>
<path d="M351.996,133.102h 204.094" fill="none" stroke="black"/>
<path d="M556.091,133.102v -108.025" fill="none" stroke="black"/>
<path d="M556.091,25.0773h -204.094" fill="none" stroke="black"/>
<path d="M351.996,25.0773v 108.025" fill="none" stroke="black"/>
<text xml:space="preserve" x="361.938" y="38.9865" fill="black" font-size="15.6962" font-family="Helvetica">Entries </text>
<text xml:space="preserve" x="524.382" y="38.9865" fill="black" font-size="15.6962" font-family="Helvetica"> 69</text>
<text xml:space="preserve" x="375.745" y="57.6676" fill="black" font-size="15.6962" font-family="Helvetica"> / ndf </text>
<text xml:space="preserve" x="370.06" y="52.7943" fill="black" font-size="10.6308" font-family="Helvetica">2</text>
<text xml:space="preserve" x="361.938" y="57.6676" fill="black" font-size="15.6962" font-family="Times">&#0967;</text>
<text xml:space="preserve" x="457.78" y="57.6676" fill="black" font-size="15.6962" font-family="Helvetica"> 0.006247 / 1</text>
<text xml:space="preserve" x="361.938" y="75.5364" fill="black" font-size="15.6962" font-family="Helvetica">Prob  </text>
<text xml:space="preserve" x="502.452" y="75.5364" fill="black" font-size="15.6962" font-family="Helvetica"> 0.937</text>
<text xml:space="preserve" x="361.938" y="94.2175" fill="black" font-size="15.6962" font-family="Helvetica">Const    </text>
<text xml:space="preserve" x="511.386" y="93.4052" fill="black" font-size="15.6962" font-family="Helvetica"> 5.87</text>
<text xml:space="preserve" x="502.452" y="93.4052" fill="black" font-size="15.6962" font-family="Times">&#0177;</text>
<text xml:space="preserve" x="454.531" y="93.4052" fill="black" font-size="15.6962" font-family="Helvetica"> 38.04 </text>
<text xml:space="preserve" x="361.938" y="111.274" fill="black" font-size="15.6962" font-family="Helvetica">Mean     </text>
<text xml:space="preserve" x="519.508" y="111.274" fill="black" font-size="15.6962" font-family="Helvetica"> 0.4</text>
<text xml:space="preserve" x="510.574" y="111.274" fill="black" font-size="15.6962" font-family="Times">&#0177;</text>
<text xml:space="preserve" x="465.902" y="111.274" fill="black" font-size="15.6962" font-family="Helvetica"> 810.1 </text>
<text xml:space="preserve" x="361.938" y="128.331" fill="black" font-size="15.6962" font-family="Helvetica">Sigma    </text>
<text xml:space="preserve" x="502.452" y="129.143" fill="black" font-size="15.6962" font-family="Helvetica"> 0.287</text>
<text xml:space="preserve" x="493.517" y="129.143" fill="black" font-size="15.6962" font-family="Times">&#0177;</text>
<text xml:space="preserve" x="445.596" y="129.143" fill="black" font-size="15.6962" font-family="Helvetica"> 2.834 </text>
<text xml:space="preserve" x="248.227" y="18.681" fill="black" font-size="17.0471" font-family="Helvetica">560mm 6</text></svg>
