<?xml version="1.0" standalone="no"?>
<svg width="567.429" height="386.304" viewBox="0 0 567.429 386.304" xmlns="http://www.w3.org/2000/svg" shape-rendering="crispEdges">
<title>
img/week2/Combined0mm_ch_60.svg
</title>
<desc>
Creator: ROOT Version 6.22/08
CreationDate: Tue Jun 22 00:35:08 2021</desc>
<defs>
</defs>
<rect x="0.5" y="0" width="566.929" height="385.804" fill="white"/>
<rect x="57.1929" y="38.5804" width="453.543" height="308.643" fill="white"/>
<rect x="57.1929" y="38.5804" width="453.543" height="308.643" fill="none" stroke="black"/>
<rect x="57.1929" y="38.5804" width="453.543" height="308.643" fill="white"/>
<rect x="57.1929" y="38.5804" width="453.543" height="308.643" fill="none" stroke="black"/>
<path d="M57.1929,347.224h 160.074v -7.95368h 26.679v -127.259h 26.679v -151.12h 26.679v 159.074h 26.679v 127.259h 186.753" fill="none" stroke="#000099"/>
<g fill="#ff0000">
<polygon points=" 279.741, 56.6677 288.188, 56.6677 283.965, 65.1147"/>
</g>
<path d="M59.4606,347.224h 136.063l 4.53543, -0.0680461l 4.53543, -0.0963305l 4.53543, -0.213682l 4.53543, -0.449811l 4.53543, -0.898156l 4.53543, -1.70019l 4.53543, -3.04917l 4.53543, -5.17659l 4.53543, -8.31059l 4.53543, -12.5998l 4.53543,
 -18.0083l 4.53543, -24.2056l 4.53543, -30.4954l 4.53543, -35.8333l 4.53543, -38.9711l 4.53543, -38.7265l 4.53543, -34.3205l 4.53543, -25.6777l 4.53543, -13.5734" fill="none" stroke="#ff0000" stroke-width="2"/>
<path d="M281.697,54.8496l 4.53543, 0.452136l 4.53543, 14.4127l 4.53543, 26.3374l 4.53543, 34.727l 4.53543, 38.8598l 4.53543, 38.8621l 4.53543, 35.5483l 4.53543, 30.1145l 4.53543, 23.8028l 4.53543, 17.6387l 4.53543, 12.2946l 4.53543, 8.07969l
 4.53543, 5.01488l 4.53543, 2.94364l 4.53543, 1.63573l 4.53543, 0.861183l 4.53543, 0.429853l 4.53543, 0.203526l 4.53543, 0.0914505l 4.53543, 0.0642591h 131.528" fill="none" stroke="#ff0000" stroke-width="2"/>
<path d="M503.933,347.224h 4.53543" fill="none" stroke="#ff0000" stroke-width="2"/>
<rect x="351.996" y="25.0773" width="204.094" height="108.025" fill="white"/>
<path d="M351.996,133.102h 204.094" fill="none" stroke="black"/>
<path d="M556.091,133.102v -108.025" fill="none" stroke="black"/>
<path d="M556.091,25.0773h -204.094" fill="none" stroke="black"/>
<path d="M351.996,25.0773v 108.025" fill="none" stroke="black"/>
<text xml:space="preserve" x="361.938" y="38.9865" fill="black" font-size="15.6962" font-family="Helvetica">Entries </text>
<text xml:space="preserve" x="524.382" y="38.9865" fill="black" font-size="15.6962" font-family="Helvetica"> 70</text>
<text xml:space="preserve" x="375.745" y="57.6676" fill="black" font-size="15.6962" font-family="Helvetica"> / ndf </text>
<text xml:space="preserve" x="370.06" y="52.7943" fill="black" font-size="10.6308" font-family="Helvetica">2</text>
<text xml:space="preserve" x="361.938" y="57.6676" fill="black" font-size="15.6962" font-family="Times">&#0967;</text>
<text xml:space="preserve" x="475.648" y="57.6676" fill="black" font-size="15.6962" font-family="Helvetica"> 0.1645 / 1</text>
<text xml:space="preserve" x="361.938" y="75.5364" fill="black" font-size="15.6962" font-family="Helvetica">Prob  </text>
<text xml:space="preserve" x="502.452" y="75.5364" fill="black" font-size="15.6962" font-family="Helvetica"> 0.685</text>
<text xml:space="preserve" x="361.938" y="94.2175" fill="black" font-size="15.6962" font-family="Helvetica">Const    </text>
<text xml:space="preserve" x="511.386" y="93.4052" fill="black" font-size="15.6962" font-family="Helvetica"> 5.44</text>
<text xml:space="preserve" x="502.452" y="93.4052" fill="black" font-size="15.6962" font-family="Times">&#0177;</text>
<text xml:space="preserve" x="454.531" y="93.4052" fill="black" font-size="15.6962" font-family="Helvetica"> 36.96 </text>
<text xml:space="preserve" x="361.938" y="111.274" fill="black" font-size="15.6962" font-family="Helvetica">Mean     </text>
<text xml:space="preserve" x="519.508" y="111.274" fill="black" font-size="15.6962" font-family="Helvetica"> 0.4</text>
<text xml:space="preserve" x="510.574" y="111.274" fill="black" font-size="15.6962" font-family="Times">&#0177;</text>
<text xml:space="preserve" x="462.653" y="111.274" fill="black" font-size="15.6962" font-family="Helvetica"> 810.4 </text>
<text xml:space="preserve" x="361.938" y="128.331" fill="black" font-size="15.6962" font-family="Helvetica">Sigma    </text>
<text xml:space="preserve" x="502.452" y="129.143" fill="black" font-size="15.6962" font-family="Helvetica"> 0.302</text>
<text xml:space="preserve" x="493.517" y="129.143" fill="black" font-size="15.6962" font-family="Times">&#0177;</text>
<text xml:space="preserve" x="448.845" y="129.143" fill="black" font-size="15.6962" font-family="Helvetica"> 3.071 </text>
<path d="M57.1929,347.224h 453.543" fill="none" stroke="black"/>
<path d="M81.3329,337.964v 9.2593" fill="none" stroke="black"/>
<path d="M94.6659,342.594v 4.62965" fill="none" stroke="black"/>
<path d="M107.999,342.594v 4.62965" fill="none" stroke="black"/>
<path d="M121.332,342.594v 4.62965" fill="none" stroke="black"/>
<path d="M134.665,342.594v 4.62965" fill="none" stroke="black"/>
<path d="M147.998,337.964v 9.2593" fill="none" stroke="black"/>
<path d="M161.331,342.594v 4.62965" fill="none" stroke="black"/>
<path d="M174.664,342.594v 4.62965" fill="none" stroke="black"/>
<path d="M187.997,342.594v 4.62965" fill="none" stroke="black"/>
<path d="M201.33,342.594v 4.62965" fill="none" stroke="black"/>
<path d="M214.663,337.964v 9.2593" fill="none" stroke="black"/>
<path d="M227.996,342.594v 4.62965" fill="none" stroke="black"/>
<path d="M241.329,342.594v 4.62965" fill="none" stroke="black"/>
<path d="M254.662,342.594v 4.62965" fill="none" stroke="black"/>
<path d="M267.995,342.594v 4.62965" fill="none" stroke="black"/>
<path d="M281.328,337.964v 9.2593" fill="none" stroke="black"/>
<path d="M294.661,342.594v 4.62965" fill="none" stroke="black"/>
<path d="M307.994,342.594v 4.62965" fill="none" stroke="black"/>
<path d="M321.327,342.594v 4.62965" fill="none" stroke="black"/>
<path d="M334.66,342.594v 4.62965" fill="none" stroke="black"/>
<path d="M347.993,337.964v 9.2593" fill="none" stroke="black"/>
<path d="M361.326,342.594v 4.62965" fill="none" stroke="black"/>
<path d="M374.659,342.594v 4.62965" fill="none" stroke="black"/>
<path d="M387.992,342.594v 4.62965" fill="none" stroke="black"/>
<path d="M401.325,342.594v 4.62965" fill="none" stroke="black"/>
<path d="M414.658,337.964v 9.2593" fill="none" stroke="black"/>
<path d="M427.991,342.594v 4.62965" fill="none" stroke="black"/>
<path d="M441.324,342.594v 4.62965" fill="none" stroke="black"/>
<path d="M454.657,342.594v 4.62965" fill="none" stroke="black"/>
<path d="M467.99,342.594v 4.62965" fill="none" stroke="black"/>
<path d="M481.323,337.964v 9.2593" fill="none" stroke="black"/>
<path d="M81.3329,337.964v 9.2593" fill="none" stroke="black"/>
<path d="M67.9999,342.594v 4.62965" fill="none" stroke="black"/>
<path d="M481.323,337.964v 9.2593" fill="none" stroke="black"/>
<path d="M494.656,342.594v 4.62965" fill="none" stroke="black"/>
<path d="M507.989,342.594v 4.62965" fill="none" stroke="black"/>
<text xml:space="preserve" x="69.5387" y="359.813" fill="black" font-size="12.8882" font-family="Helvetica">780</text>
<text xml:space="preserve" x="136.141" y="359.813" fill="black" font-size="12.8882" font-family="Helvetica">790</text>
<text xml:space="preserve" x="202.743" y="359.813" fill="black" font-size="12.8882" font-family="Helvetica">800</text>
<text xml:space="preserve" x="269.345" y="359.813" fill="black" font-size="12.8882" font-family="Helvetica">810</text>
<text xml:space="preserve" x="335.947" y="359.813" fill="black" font-size="12.8882" font-family="Helvetica">820</text>
<text xml:space="preserve" x="402.549" y="359.813" fill="black" font-size="12.8882" font-family="Helvetica">830</text>
<text xml:space="preserve" x="469.151" y="359.813" fill="black" font-size="12.8882" font-family="Helvetica">840</text>
<text xml:space="preserve" x="481.334" y="373.621" fill="black" font-size="12.8882" font-family="Helvetica">Time</text>
<path d="M57.1929,347.224v -308.643" fill="none" stroke="black"/>
<path d="M70.7992,347.224h -13.6063" fill="none" stroke="black"/>
<path d="M63.9961,339.27h -6.80315" fill="none" stroke="black"/>
<path d="M63.9961,331.316h -6.80315" fill="none" stroke="black"/>
<path d="M63.9961,323.363h -6.80315" fill="none" stroke="black"/>
<path d="M63.9961,315.409h -6.80315" fill="none" stroke="black"/>
<path d="M70.7992,307.455h -13.6063" fill="none" stroke="black"/>
<path d="M63.9961,299.502h -6.80315" fill="none" stroke="black"/>
<path d="M63.9961,291.548h -6.80315" fill="none" stroke="black"/>
<path d="M63.9961,283.594h -6.80315" fill="none" stroke="black"/>
<path d="M63.9961,275.641h -6.80315" fill="none" stroke="black"/>
<path d="M70.7992,267.687h -13.6063" fill="none" stroke="black"/>
<path d="M63.9961,259.733h -6.80315" fill="none" stroke="black"/>
<path d="M63.9961,251.78h -6.80315" fill="none" stroke="black"/>
<path d="M63.9961,243.826h -6.80315" fill="none" stroke="black"/>
<path d="M63.9961,235.872h -6.80315" fill="none" stroke="black"/>
<path d="M70.7992,227.919h -13.6063" fill="none" stroke="black"/>
<path d="M63.9961,219.965h -6.80315" fill="none" stroke="black"/>
<path d="M63.9961,212.011h -6.80315" fill="none" stroke="black"/>
<path d="M63.9961,204.057h -6.80315" fill="none" stroke="black"/>
<path d="M63.9961,196.104h -6.80315" fill="none" stroke="black"/>
<path d="M70.7992,188.15h -13.6063" fill="none" stroke="black"/>
<path d="M63.9961,180.196h -6.80315" fill="none" stroke="black"/>
<path d="M63.9961,172.243h -6.80315" fill="none" stroke="black"/>
<path d="M63.9961,164.289h -6.80315" fill="none" stroke="black"/>
<path d="M63.9961,156.335h -6.80315" fill="none" stroke="black"/>
<path d="M70.7992,148.382h -13.6063" fill="none" stroke="black"/>
<path d="M63.9961,140.428h -6.80315" fill="none" stroke="black"/>
<path d="M63.9961,132.474h -6.80315" fill="none" stroke="black"/>
<path d="M63.9961,124.521h -6.80315" fill="none" stroke="black"/>
<path d="M63.9961,116.567h -6.80315" fill="none" stroke="black"/>
<path d="M70.7992,108.613h -13.6063" fill="none" stroke="black"/>
<path d="M63.9961,100.66h -6.80315" fill="none" stroke="black"/>
<path d="M63.9961,92.7059h -6.80315" fill="none" stroke="black"/>
<path d="M63.9961,84.7523h -6.80315" fill="none" stroke="black"/>
<path d="M63.9961,76.7986h -6.80315" fill="none" stroke="black"/>
<path d="M70.7992,68.8449h -13.6063" fill="none" stroke="black"/>
<path d="M70.7992,68.8449h -13.6063" fill="none" stroke="black"/>
<path d="M63.9961,60.8912h -6.80315" fill="none" stroke="black"/>
<path d="M63.9961,52.9375h -6.80315" fill="none" stroke="black"/>
<path d="M63.9961,44.9838h -6.80315" fill="none" stroke="black"/>
<text xml:space="preserve" x="46.7965" y="351.691" fill="black" font-size="12.8882" font-family="Helvetica">0</text>
<text xml:space="preserve" x="46.7965" y="311.892" fill="black" font-size="12.8882" font-family="Helvetica">5</text>
<text xml:space="preserve" x="39.4865" y="272.094" fill="black" font-size="12.8882" font-family="Helvetica">10</text>
<text xml:space="preserve" x="39.4865" y="232.295" fill="black" font-size="12.8882" font-family="Helvetica">15</text>
<text xml:space="preserve" x="39.4865" y="192.496" fill="black" font-size="12.8882" font-family="Helvetica">20</text>
<text xml:space="preserve" x="39.4865" y="152.697" fill="black" font-size="12.8882" font-family="Helvetica">25</text>
<text xml:space="preserve" x="39.4865" y="112.898" fill="black" font-size="12.8882" font-family="Helvetica">30</text>
<text xml:space="preserve" x="39.4865" y="73.0997" fill="black" font-size="12.8882" font-family="Helvetica">35</text>
<g transform="rotate(-90,28.9277,71.4753)">
<text xml:space="preserve" x="28.9277" y="71.4753" fill="black" font-size="12.8882" font-family="Helvetica">Event</text>
</g>
<rect x="351.996" y="25.0773" width="204.094" height="108.025" fill="white"/>
<path d="M351.996,133.102h 204.094" fill="none" stroke="black"/>
<path d="M556.091,133.102v -108.025" fill="none" stroke="black"/>
<path d="M556.091,25.0773h -204.094" fill="none" stroke="black"/>
<path d="M351.996,25.0773v 108.025" fill="none" stroke="black"/>
<text xml:space="preserve" x="361.938" y="38.9865" fill="black" font-size="15.6962" font-family="Helvetica">Entries </text>
<text xml:space="preserve" x="524.382" y="38.9865" fill="black" font-size="15.6962" font-family="Helvetica"> 70</text>
<text xml:space="preserve" x="375.745" y="57.6676" fill="black" font-size="15.6962" font-family="Helvetica"> / ndf </text>
<text xml:space="preserve" x="370.06" y="52.7943" fill="black" font-size="10.6308" font-family="Helvetica">2</text>
<text xml:space="preserve" x="361.938" y="57.6676" fill="black" font-size="15.6962" font-family="Times">&#0967;</text>
<text xml:space="preserve" x="475.648" y="57.6676" fill="black" font-size="15.6962" font-family="Helvetica"> 0.1645 / 1</text>
<text xml:space="preserve" x="361.938" y="75.5364" fill="black" font-size="15.6962" font-family="Helvetica">Prob  </text>
<text xml:space="preserve" x="502.452" y="75.5364" fill="black" font-size="15.6962" font-family="Helvetica"> 0.685</text>
<text xml:space="preserve" x="361.938" y="94.2175" fill="black" font-size="15.6962" font-family="Helvetica">Const    </text>
<text xml:space="preserve" x="511.386" y="93.4052" fill="black" font-size="15.6962" font-family="Helvetica"> 5.44</text>
<text xml:space="preserve" x="502.452" y="93.4052" fill="black" font-size="15.6962" font-family="Times">&#0177;</text>
<text xml:space="preserve" x="454.531" y="93.4052" fill="black" font-size="15.6962" font-family="Helvetica"> 36.96 </text>
<text xml:space="preserve" x="361.938" y="111.274" fill="black" font-size="15.6962" font-family="Helvetica">Mean     </text>
<text xml:space="preserve" x="519.508" y="111.274" fill="black" font-size="15.6962" font-family="Helvetica"> 0.4</text>
<text xml:space="preserve" x="510.574" y="111.274" fill="black" font-size="15.6962" font-family="Times">&#0177;</text>
<text xml:space="preserve" x="462.653" y="111.274" fill="black" font-size="15.6962" font-family="Helvetica"> 810.4 </text>
<text xml:space="preserve" x="361.938" y="128.331" fill="black" font-size="15.6962" font-family="Helvetica">Sigma    </text>
<text xml:space="preserve" x="502.452" y="129.143" fill="black" font-size="15.6962" font-family="Helvetica"> 0.302</text>
<text xml:space="preserve" x="493.517" y="129.143" fill="black" font-size="15.6962" font-family="Times">&#0177;</text>
<text xml:space="preserve" x="448.845" y="129.143" fill="black" font-size="15.6962" font-family="Helvetica"> 3.071 </text>
<text xml:space="preserve" x="253.1" y="18.681" fill="black" font-size="17.0471" font-family="Helvetica">0mm 60</text></svg>
