<?xml version="1.0" standalone="no"?>
<svg width="567.429" height="384.969" viewBox="0 0 567.429 384.969" xmlns="http://www.w3.org/2000/svg" shape-rendering="crispEdges">
<title>
img/week2/Combined560mm_ch_39.svg
</title>
<desc>
Creator: ROOT Version 6.22/09
CreationDate: Thu Jun 24 12:12:15 2021</desc>
<defs>
</defs>
<rect x="0.5" y="0" width="566.929" height="384.469" fill="white"/>
<rect x="57.1929" y="38.4469" width="453.543" height="307.575" fill="white"/>
<rect x="57.1929" y="38.4469" width="453.543" height="307.575" fill="none" stroke="black"/>
<rect x="57.1929" y="38.4469" width="453.543" height="307.575" fill="white"/>
<rect x="57.1929" y="38.4469" width="453.543" height="307.575" fill="none" stroke="black"/>
<path d="M57.1929,346.022h 120.945v -3.18401h 30.2362v -19.1041h 30.2362v -70.0482h 30.2362v -200.593h 30.2362v 213.329h 30.2362v 79.6002h 181.417" fill="none" stroke="#000099"/>
<g fill="#ff0000">
<polygon points=" 279.729, 48.8577 288.2, 48.8577 283.965, 57.329"/>
</g>
<path d="M59.4606,346.022h 136.063l 4.53543, -0.0615292l 4.53543, -0.0900143l 4.53543, -0.203175l 4.53543, -0.434361l 4.53543, -0.879119l 4.53543, -1.6835l 4.53543, -3.04819l 4.53543, -5.2138l 4.53543, -8.41527l 4.53543, -12.7985l 4.53543, -18.3061l
 4.53543, -24.561l 4.53543, -30.7966l 4.53543, -35.8901l 4.53543, -38.537l 4.53543, -37.557l 4.53543, -32.2582l 4.53543, -22.7384l 4.53543, -9.99561" fill="none" stroke="#ff0000" stroke-width="2"/>
<path d="M281.697,62.5549l 4.53543, 4.22332l 4.53543, 17.8143l 4.53543, 28.8262l 4.53543, 35.92l 4.53543, 38.6279l 4.53543, 37.3459l 4.53543, 33.0975l 4.53543, 27.1788l 4.53543, 20.8165l 4.53543, 14.9353l 4.53543, 10.068l 4.53543, 6.39058l 4.53543,
 3.82561l 4.53543, 2.16253l 4.53543, 1.15542l 4.53543, 0.583944l 4.53543, 0.279333l 4.53543, 0.126536l 4.53543, 0.0543042l 4.53543, 0.0353079h 131.528" fill="none" stroke="#ff0000" stroke-width="2"/>
<path d="M503.933,346.022h 4.53543" fill="none" stroke="#ff0000" stroke-width="2"/>
<path d="M57.1929,346.022h 453.543" fill="none" stroke="black"/>
<path d="M84.5516,336.795v 9.22726" fill="none" stroke="black"/>
<path d="M99.6623,341.409v 4.61363" fill="none" stroke="black"/>
<path d="M114.773,341.409v 4.61363" fill="none" stroke="black"/>
<path d="M129.884,341.409v 4.61363" fill="none" stroke="black"/>
<path d="M144.995,341.409v 4.61363" fill="none" stroke="black"/>
<path d="M160.105,336.795v 9.22726" fill="none" stroke="black"/>
<path d="M175.216,341.409v 4.61363" fill="none" stroke="black"/>
<path d="M190.327,341.409v 4.61363" fill="none" stroke="black"/>
<path d="M205.437,341.409v 4.61363" fill="none" stroke="black"/>
<path d="M220.548,341.409v 4.61363" fill="none" stroke="black"/>
<path d="M235.659,336.795v 9.22726" fill="none" stroke="black"/>
<path d="M250.77,341.409v 4.61363" fill="none" stroke="black"/>
<path d="M265.88,341.409v 4.61363" fill="none" stroke="black"/>
<path d="M280.991,341.409v 4.61363" fill="none" stroke="black"/>
<path d="M296.102,341.409v 4.61363" fill="none" stroke="black"/>
<path d="M311.213,336.795v 9.22726" fill="none" stroke="black"/>
<path d="M326.323,341.409v 4.61363" fill="none" stroke="black"/>
<path d="M341.434,341.409v 4.61363" fill="none" stroke="black"/>
<path d="M356.545,341.409v 4.61363" fill="none" stroke="black"/>
<path d="M371.656,341.409v 4.61363" fill="none" stroke="black"/>
<path d="M386.766,336.795v 9.22726" fill="none" stroke="black"/>
<path d="M401.877,341.409v 4.61363" fill="none" stroke="black"/>
<path d="M416.988,341.409v 4.61363" fill="none" stroke="black"/>
<path d="M432.098,341.409v 4.61363" fill="none" stroke="black"/>
<path d="M447.209,341.409v 4.61363" fill="none" stroke="black"/>
<path d="M462.32,336.795v 9.22726" fill="none" stroke="black"/>
<path d="M84.5516,336.795v 9.22726" fill="none" stroke="black"/>
<path d="M69.4409,341.409v 4.61363" fill="none" stroke="black"/>
<path d="M462.32,336.795v 9.22726" fill="none" stroke="black"/>
<path d="M477.431,341.409v 4.61363" fill="none" stroke="black"/>
<path d="M492.541,341.409v 4.61363" fill="none" stroke="black"/>
<path d="M507.652,341.409v 4.61363" fill="none" stroke="black"/>
<text xml:space="preserve" x="73.8098" y="358.403" fill="black" font-size="12.8453" font-family="Helvetica">780</text>
<text xml:space="preserve" x="148.749" y="358.403" fill="black" font-size="12.8453" font-family="Helvetica">790</text>
<text xml:space="preserve" x="224.502" y="358.403" fill="black" font-size="12.8453" font-family="Helvetica">800</text>
<text xml:space="preserve" x="300.256" y="358.403" fill="black" font-size="12.8453" font-family="Helvetica">810</text>
<text xml:space="preserve" x="376.009" y="358.403" fill="black" font-size="12.8453" font-family="Helvetica">820</text>
<text xml:space="preserve" x="450.948" y="358.403" fill="black" font-size="12.8453" font-family="Helvetica">830</text>
<text xml:space="preserve" x="460.723" y="370.622" fill="black" font-size="12.8453" font-family="Helvetica">Time [ps]</text>
<path d="M57.1929,346.022v -307.575" fill="none" stroke="black"/>
<path d="M70.7992,346.022h -13.6063" fill="none" stroke="black"/>
<path d="M63.9961,339.654h -6.80315" fill="none" stroke="black"/>
<path d="M63.9961,333.286h -6.80315" fill="none" stroke="black"/>
<path d="M63.9961,326.918h -6.80315" fill="none" stroke="black"/>
<path d="M63.9961,320.55h -6.80315" fill="none" stroke="black"/>
<path d="M70.7992,314.182h -13.6063" fill="none" stroke="black"/>
<path d="M63.9961,307.814h -6.80315" fill="none" stroke="black"/>
<path d="M63.9961,301.446h -6.80315" fill="none" stroke="black"/>
<path d="M63.9961,295.078h -6.80315" fill="none" stroke="black"/>
<path d="M63.9961,288.71h -6.80315" fill="none" stroke="black"/>
<path d="M70.7992,282.342h -13.6063" fill="none" stroke="black"/>
<path d="M63.9961,275.974h -6.80315" fill="none" stroke="black"/>
<path d="M63.9961,269.606h -6.80315" fill="none" stroke="black"/>
<path d="M63.9961,263.238h -6.80315" fill="none" stroke="black"/>
<path d="M63.9961,256.87h -6.80315" fill="none" stroke="black"/>
<path d="M70.7992,250.502h -13.6063" fill="none" stroke="black"/>
<path d="M63.9961,244.134h -6.80315" fill="none" stroke="black"/>
<path d="M63.9961,237.766h -6.80315" fill="none" stroke="black"/>
<path d="M63.9961,231.398h -6.80315" fill="none" stroke="black"/>
<path d="M63.9961,225.03h -6.80315" fill="none" stroke="black"/>
<path d="M70.7992,218.662h -13.6063" fill="none" stroke="black"/>
<path d="M63.9961,212.294h -6.80315" fill="none" stroke="black"/>
<path d="M63.9961,205.926h -6.80315" fill="none" stroke="black"/>
<path d="M63.9961,199.558h -6.80315" fill="none" stroke="black"/>
<path d="M63.9961,193.19h -6.80315" fill="none" stroke="black"/>
<path d="M70.7992,186.822h -13.6063" fill="none" stroke="black"/>
<path d="M63.9961,180.454h -6.80315" fill="none" stroke="black"/>
<path d="M63.9961,174.086h -6.80315" fill="none" stroke="black"/>
<path d="M63.9961,167.718h -6.80315" fill="none" stroke="black"/>
<path d="M63.9961,161.35h -6.80315" fill="none" stroke="black"/>
<path d="M70.7992,154.982h -13.6063" fill="none" stroke="black"/>
<path d="M63.9961,148.614h -6.80315" fill="none" stroke="black"/>
<path d="M63.9961,142.246h -6.80315" fill="none" stroke="black"/>
<path d="M63.9961,135.878h -6.80315" fill="none" stroke="black"/>
<path d="M63.9961,129.51h -6.80315" fill="none" stroke="black"/>
<path d="M70.7992,123.142h -13.6063" fill="none" stroke="black"/>
<path d="M63.9961,116.774h -6.80315" fill="none" stroke="black"/>
<path d="M63.9961,110.406h -6.80315" fill="none" stroke="black"/>
<path d="M63.9961,104.038h -6.80315" fill="none" stroke="black"/>
<path d="M63.9961,97.6695h -6.80315" fill="none" stroke="black"/>
<path d="M70.7992,91.3015h -13.6063" fill="none" stroke="black"/>
<path d="M63.9961,84.9335h -6.80315" fill="none" stroke="black"/>
<path d="M63.9961,78.5654h -6.80315" fill="none" stroke="black"/>
<path d="M63.9961,72.1974h -6.80315" fill="none" stroke="black"/>
<path d="M63.9961,65.8294h -6.80315" fill="none" stroke="black"/>
<path d="M70.7992,59.4614h -13.6063" fill="none" stroke="black"/>
<path d="M70.7992,59.4614h -13.6063" fill="none" stroke="black"/>
<path d="M63.9961,53.0934h -6.80315" fill="none" stroke="black"/>
<path d="M63.9961,46.7253h -6.80315" fill="none" stroke="black"/>
<path d="M63.9961,40.3573h -6.80315" fill="none" stroke="black"/>
<text xml:space="preserve" x="47.7441" y="350.258" fill="black" font-size="12.8453" font-family="Helvetica">0</text>
<text xml:space="preserve" x="41.2277" y="318.49" fill="black" font-size="12.8453" font-family="Helvetica">10</text>
<text xml:space="preserve" x="41.2277" y="286.723" fill="black" font-size="12.8453" font-family="Helvetica">20</text>
<text xml:space="preserve" x="41.2277" y="254.955" fill="black" font-size="12.8453" font-family="Helvetica">30</text>
<text xml:space="preserve" x="41.2277" y="223.188" fill="black" font-size="12.8453" font-family="Helvetica">40</text>
<text xml:space="preserve" x="41.2277" y="191.42" fill="black" font-size="12.8453" font-family="Helvetica">50</text>
<text xml:space="preserve" x="41.2277" y="159.652" fill="black" font-size="12.8453" font-family="Helvetica">60</text>
<text xml:space="preserve" x="41.2277" y="127.885" fill="black" font-size="12.8453" font-family="Helvetica">70</text>
<text xml:space="preserve" x="41.2277" y="96.1173" fill="black" font-size="12.8453" font-family="Helvetica">80</text>
<text xml:space="preserve" x="41.2277" y="63.5352" fill="black" font-size="12.8453" font-family="Helvetica">90</text>
<g transform="rotate(-90,29.0094,70.0516)">
<text xml:space="preserve" x="29.0094" y="70.0516" fill="black" font-size="12.8453" font-family="Helvetica">Event</text>
</g>
<text xml:space="preserve" x="243.237" y="18.7347" fill="black" font-size="16.9898" font-family="Helvetica">560mm 39</text></svg>
