<?xml version="1.0" standalone="no"?>
<svg width="567.429" height="386.304" viewBox="0 0 567.429 386.304" xmlns="http://www.w3.org/2000/svg" shape-rendering="crispEdges">
<title>
img/week2/Combined0mm_ch_48_49_50_51.svg
</title>
<desc>
Creator: ROOT Version 6.22/08
CreationDate: Mon Jun 21 21:39:56 2021</desc>
<defs>
</defs>
<rect x="0.5" y="0" width="566.929" height="385.804" fill="white"/>
<rect x="57.1929" y="38.5804" width="453.543" height="308.643" fill="white"/>
<rect x="57.1929" y="38.5804" width="453.543" height="308.643" fill="none" stroke="black"/>
<rect x="57.1929" y="38.5804" width="453.543" height="308.643" fill="white"/>
<rect x="57.1929" y="38.5804" width="453.543" height="308.643" fill="none" stroke="black"/>
<path d="M57.1929,347.224h 60.4724v -1.2299h 30.2362v -2.4598h 30.2362v -2.4598h 30.2362v -6.1495h 30.2362v -73.794h 30.2362v -207.853h 30.2362v 184.485h 30.2362v 105.771h 30.2362v 3.6897h 151.181" fill="none" stroke="#000099"/>
<g fill="#ff0000">
<polygon points=" 279.741, 49.0542 288.188, 49.0542 283.965, 57.5013"/>
</g>
<path d="M59.4606,347.224h 136.063l 4.53543, -0.0612998l 4.53543, -0.0863026l 4.53543, -0.1911l 4.53543, -0.401982l 4.53543, -0.802928l 4.53543, -1.52211l 4.53543, -2.73682l 4.53543, -4.66379l 4.53543, -7.52489l 4.53543, -11.4813l 4.53543, -16.5387l
 4.53543, -22.4431l 4.53543, -28.6029l 4.53543, -34.0858l 4.53543, -37.727l 4.53543, -38.3589l 4.53543, -35.1185l 4.53543, -27.7477l 4.53543, -16.775" fill="none" stroke="#ff0000" stroke-width="2"/>
<path d="M281.697,60.3538l 4.53543, -3.49475l 4.53543, 10.2778l 4.53543, 22.6137l 4.53543, 31.9135l 4.53543, 37.2463l 4.53543, 38.486l 4.53543, 36.224l 4.53543, 31.515l 4.53543, 25.5606l 4.53543, 19.4313l 4.53543, 13.8962l 4.53543, 9.37278l 4.53543,
 5.97364l 4.53543, 3.60267l 4.53543, 2.05827l 4.53543, 1.11493l 4.53543, 0.573012l 4.53543, 0.279575l 4.53543, 0.129554l 4.53543, 0.0570423l 4.53543, 0.0389051h 126.992" fill="none" stroke="#ff0000" stroke-width="2"/>
<path d="M503.933,347.224h 4.53543" fill="none" stroke="#ff0000" stroke-width="2"/>
<path d="M57.1929,347.224h 453.543" fill="none" stroke="black"/>
<path d="M129.869,337.964v 9.2593" fill="none" stroke="black"/>
<path d="M144.98,342.594v 4.62965" fill="none" stroke="black"/>
<path d="M160.09,342.594v 4.62965" fill="none" stroke="black"/>
<path d="M175.201,342.594v 4.62965" fill="none" stroke="black"/>
<path d="M190.312,342.594v 4.62965" fill="none" stroke="black"/>
<path d="M205.423,337.964v 9.2593" fill="none" stroke="black"/>
<path d="M220.533,342.594v 4.62965" fill="none" stroke="black"/>
<path d="M235.644,342.594v 4.62965" fill="none" stroke="black"/>
<path d="M250.755,342.594v 4.62965" fill="none" stroke="black"/>
<path d="M265.866,342.594v 4.62965" fill="none" stroke="black"/>
<path d="M280.976,337.964v 9.2593" fill="none" stroke="black"/>
<path d="M296.087,342.594v 4.62965" fill="none" stroke="black"/>
<path d="M311.198,342.594v 4.62965" fill="none" stroke="black"/>
<path d="M326.309,342.594v 4.62965" fill="none" stroke="black"/>
<path d="M341.419,342.594v 4.62965" fill="none" stroke="black"/>
<path d="M356.53,337.964v 9.2593" fill="none" stroke="black"/>
<path d="M371.641,342.594v 4.62965" fill="none" stroke="black"/>
<path d="M386.751,342.594v 4.62965" fill="none" stroke="black"/>
<path d="M401.862,342.594v 4.62965" fill="none" stroke="black"/>
<path d="M416.973,342.594v 4.62965" fill="none" stroke="black"/>
<path d="M432.084,337.964v 9.2593" fill="none" stroke="black"/>
<path d="M447.194,342.594v 4.62965" fill="none" stroke="black"/>
<path d="M462.305,342.594v 4.62965" fill="none" stroke="black"/>
<path d="M477.416,342.594v 4.62965" fill="none" stroke="black"/>
<path d="M492.527,342.594v 4.62965" fill="none" stroke="black"/>
<path d="M507.637,337.964v 9.2593" fill="none" stroke="black"/>
<path d="M129.869,337.964v 9.2593" fill="none" stroke="black"/>
<path d="M114.758,342.594v 4.62965" fill="none" stroke="black"/>
<path d="M99.6476,342.594v 4.62965" fill="none" stroke="black"/>
<path d="M84.5368,342.594v 4.62965" fill="none" stroke="black"/>
<path d="M69.4261,342.594v 4.62965" fill="none" stroke="black"/>
<path d="M507.637,337.964v 9.2593" fill="none" stroke="black"/>
<text xml:space="preserve" x="118.272" y="359.813" fill="black" font-size="12.8882" font-family="Helvetica">790</text>
<text xml:space="preserve" x="193.808" y="359.813" fill="black" font-size="12.8882" font-family="Helvetica">800</text>
<text xml:space="preserve" x="269.345" y="359.813" fill="black" font-size="12.8882" font-family="Helvetica">810</text>
<text xml:space="preserve" x="344.881" y="359.813" fill="black" font-size="12.8882" font-family="Helvetica">820</text>
<text xml:space="preserve" x="420.417" y="359.813" fill="black" font-size="12.8882" font-family="Helvetica">830</text>
<text xml:space="preserve" x="495.954" y="359.813" fill="black" font-size="12.8882" font-family="Helvetica">840</text>
<text xml:space="preserve" x="481.334" y="373.621" fill="black" font-size="12.8882" font-family="Helvetica">Time</text>
<path d="M57.1929,347.224v -308.643" fill="none" stroke="black"/>
<path d="M70.7992,347.224h -13.6063" fill="none" stroke="black"/>
<path d="M63.9961,334.925h -6.80315" fill="none" stroke="black"/>
<path d="M63.9961,322.626h -6.80315" fill="none" stroke="black"/>
<path d="M63.9961,310.327h -6.80315" fill="none" stroke="black"/>
<path d="M63.9961,298.028h -6.80315" fill="none" stroke="black"/>
<path d="M70.7992,285.729h -13.6063" fill="none" stroke="black"/>
<path d="M63.9961,273.43h -6.80315" fill="none" stroke="black"/>
<path d="M63.9961,261.131h -6.80315" fill="none" stroke="black"/>
<path d="M63.9961,248.832h -6.80315" fill="none" stroke="black"/>
<path d="M63.9961,236.533h -6.80315" fill="none" stroke="black"/>
<path d="M70.7992,224.234h -13.6063" fill="none" stroke="black"/>
<path d="M63.9961,211.935h -6.80315" fill="none" stroke="black"/>
<path d="M63.9961,199.636h -6.80315" fill="none" stroke="black"/>
<path d="M63.9961,187.337h -6.80315" fill="none" stroke="black"/>
<path d="M63.9961,175.038h -6.80315" fill="none" stroke="black"/>
<path d="M70.7992,162.739h -13.6063" fill="none" stroke="black"/>
<path d="M63.9961,150.44h -6.80315" fill="none" stroke="black"/>
<path d="M63.9961,138.141h -6.80315" fill="none" stroke="black"/>
<path d="M63.9961,125.842h -6.80315" fill="none" stroke="black"/>
<path d="M63.9961,113.543h -6.80315" fill="none" stroke="black"/>
<path d="M70.7992,101.244h -13.6063" fill="none" stroke="black"/>
<path d="M63.9961,88.9448h -6.80315" fill="none" stroke="black"/>
<path d="M63.9961,76.6458h -6.80315" fill="none" stroke="black"/>
<path d="M63.9961,64.3468h -6.80315" fill="none" stroke="black"/>
<path d="M63.9961,52.0478h -6.80315" fill="none" stroke="black"/>
<path d="M70.7992,39.7488h -13.6063" fill="none" stroke="black"/>
<path d="M70.7992,39.7488h -13.6063" fill="none" stroke="black"/>
<text xml:space="preserve" x="46.7965" y="351.691" fill="black" font-size="12.8882" font-family="Helvetica">0</text>
<text xml:space="preserve" x="39.4865" y="289.962" fill="black" font-size="12.8882" font-family="Helvetica">50</text>
<text xml:space="preserve" x="32.1766" y="229.046" fill="black" font-size="12.8882" font-family="Helvetica">100</text>
<text xml:space="preserve" x="32.1766" y="167.317" fill="black" font-size="12.8882" font-family="Helvetica">150</text>
<text xml:space="preserve" x="32.1766" y="105.589" fill="black" font-size="12.8882" font-family="Helvetica">200</text>
<text xml:space="preserve" x="32.1766" y="43.8598" fill="black" font-size="12.8882" font-family="Helvetica">250</text>
<g transform="rotate(-90,21.6177,71.4753)">
<text xml:space="preserve" x="21.6177" y="71.4753" fill="black" font-size="12.8882" font-family="Helvetica">Event</text>
</g>
<text xml:space="preserve" x="218.987" y="18.681" fill="black" font-size="17.0471" font-family="Helvetica">0mm 48 49 50 51</text></svg>
