<?xml version="1.0" standalone="no"?>
<svg width="567.429" height="386.304" viewBox="0 0 567.429 386.304" xmlns="http://www.w3.org/2000/svg" shape-rendering="crispEdges">
<title>
img/week2/Combined670mm_ch_30.svg
</title>
<desc>
Creator: ROOT Version 6.22/08
CreationDate: Thu Jun 24 12:00:33 2021</desc>
<defs>
</defs>
<rect x="0.5" y="0" width="566.929" height="385.804" fill="white"/>
<rect x="57.1929" y="38.5804" width="453.543" height="308.643" fill="white"/>
<rect x="57.1929" y="38.5804" width="453.543" height="308.643" fill="none" stroke="black"/>
<rect x="57.1929" y="38.5804" width="453.543" height="308.643" fill="white"/>
<rect x="57.1929" y="38.5804" width="453.543" height="308.643" fill="none" stroke="black"/>
<path d="M57.1929,347.224h 75.5906v -2.79949h 37.7953v -5.59897h 37.7953v -13.9974h 37.7953v -187.566h 37.7953v -83.9846h 37.7953v 279.949h 37.7953v 13.9974h 151.181" fill="none" stroke="#000099"/>
<g fill="#ff0000">
<polygon points=" 298.639, 49.0542 307.086, 49.0542 302.862, 57.5013"/>
</g>
<path d="M59.4606,347.224h 126.992l 4.53543, -0.0321398l 4.53543, -0.044131l 4.53543, -0.0972831l 4.53543, -0.205125l 4.53543, -0.413584l 4.53543, -0.797119l 4.53543, -1.46799l 4.53543, -2.58198l 4.53543, -4.33468l 4.53543, -6.94102l 4.53543,
 -10.5915l 4.53543, -15.3839l 4.53543, -21.2373l 4.53543, -27.8097l 4.53543, -34.4488l 4.53543, -40.2111l 4.53543, -43.973l 4.53543, -44.6335l 4.53543, -41.3736l 1.614, -12.066" fill="none" stroke="#ff0000" stroke-width="2"/>
<path d="M298.968,38.5804l 0.870336, 6.21508" fill="none" stroke="#ff0000" stroke-width="2"/>
<path d="M299.839,44.7955l 4.53543, 40.4896l 4.53543, 44.3993l 4.53543, 44.3038l 4.53543, 40.9547l 4.53543, 35.4268l 4.53543, 28.8555l 4.53543, 22.2221l 4.53543, 16.2273l 4.53543, 11.2594l 4.53543, 7.43472l 4.53543, 4.67752l 4.53543, 2.80656l
 4.53543, 1.60717l 4.53543, 0.87891l 4.53543, 0.459236l 4.53543, 0.22936l 4.53543, 0.109532l 4.53543, 0.0500305l 4.53543, 0.0368497h 122.457" fill="none" stroke="#ff0000" stroke-width="2"/>
<rect x="351.996" y="25.0773" width="204.094" height="108.025" fill="white"/>
<path d="M351.996,133.102h 204.094" fill="none" stroke="black"/>
<path d="M556.091,133.102v -108.025" fill="none" stroke="black"/>
<path d="M556.091,25.0773h -204.094" fill="none" stroke="black"/>
<path d="M351.996,25.0773v 108.025" fill="none" stroke="black"/>
<text xml:space="preserve" x="361.938" y="38.9865" fill="black" font-size="15.6962" font-family="Helvetica">Entries </text>
<text xml:space="preserve" x="515.447" y="38.9865" fill="black" font-size="15.6962" font-family="Helvetica"> 198</text>
<text xml:space="preserve" x="375.745" y="57.6676" fill="black" font-size="15.6962" font-family="Helvetica"> / ndf </text>
<text xml:space="preserve" x="370.06" y="52.7943" fill="black" font-size="10.6308" font-family="Helvetica">2</text>
<text xml:space="preserve" x="361.938" y="57.6676" fill="black" font-size="15.6962" font-family="Times">&#0967;</text>
<text xml:space="preserve" x="481.334" y="57.6676" fill="black" font-size="15.6962" font-family="Helvetica"> 7.716 / 3</text>
<text xml:space="preserve" x="361.938" y="75.5364" fill="black" font-size="15.6962" font-family="Helvetica">Prob  </text>
<text xml:space="preserve" x="485.395" y="75.5364" fill="black" font-size="15.6962" font-family="Helvetica"> 0.05226</text>
<text xml:space="preserve" x="361.938" y="94.2175" fill="black" font-size="15.6962" font-family="Helvetica">Const    </text>
<text xml:space="preserve" x="511.386" y="93.4052" fill="black" font-size="15.6962" font-family="Helvetica"> 13.3</text>
<text xml:space="preserve" x="502.452" y="93.4052" fill="black" font-size="15.6962" font-family="Times">&#0177;</text>
<text xml:space="preserve" x="455.343" y="93.4052" fill="black" font-size="15.6962" font-family="Helvetica"> 129.3 </text>
<text xml:space="preserve" x="361.938" y="111.274" fill="black" font-size="15.6962" font-family="Helvetica">Mean     </text>
<text xml:space="preserve" x="520.32" y="111.274" fill="black" font-size="15.6962" font-family="Helvetica"> 0.2</text>
<text xml:space="preserve" x="511.386" y="111.274" fill="black" font-size="15.6962" font-family="Times">&#0177;</text>
<text xml:space="preserve" x="463.465" y="111.274" fill="black" font-size="15.6962" font-family="Helvetica"> 812.7 </text>
<text xml:space="preserve" x="361.938" y="128.331" fill="black" font-size="15.6962" font-family="Helvetica">Sigma    </text>
<text xml:space="preserve" x="502.452" y="129.143" fill="black" font-size="15.6962" font-family="Helvetica"> 0.167</text>
<text xml:space="preserve" x="493.517" y="129.143" fill="black" font-size="15.6962" font-family="Times">&#0177;</text>
<text xml:space="preserve" x="446.408" y="129.143" fill="black" font-size="15.6962" font-family="Helvetica"> 2.343 </text>
<path d="M57.1929,347.224h 453.543" fill="none" stroke="black"/>
<path d="M72.4475,337.964v 9.2593" fill="none" stroke="black"/>
<path d="M81.8917,342.594v 4.62965" fill="none" stroke="black"/>
<path d="M91.3359,342.594v 4.62965" fill="none" stroke="black"/>
<path d="M100.78,342.594v 4.62965" fill="none" stroke="black"/>
<path d="M110.224,342.594v 4.62965" fill="none" stroke="black"/>
<path d="M119.669,337.964v 9.2593" fill="none" stroke="black"/>
<path d="M129.113,342.594v 4.62965" fill="none" stroke="black"/>
<path d="M138.557,342.594v 4.62965" fill="none" stroke="black"/>
<path d="M148.001,342.594v 4.62965" fill="none" stroke="black"/>
<path d="M157.445,342.594v 4.62965" fill="none" stroke="black"/>
<path d="M166.89,337.964v 9.2593" fill="none" stroke="black"/>
<path d="M176.334,342.594v 4.62965" fill="none" stroke="black"/>
<path d="M185.778,342.594v 4.62965" fill="none" stroke="black"/>
<path d="M195.222,342.594v 4.62965" fill="none" stroke="black"/>
<path d="M204.666,342.594v 4.62965" fill="none" stroke="black"/>
<path d="M214.111,337.964v 9.2593" fill="none" stroke="black"/>
<path d="M223.555,342.594v 4.62965" fill="none" stroke="black"/>
<path d="M232.999,342.594v 4.62965" fill="none" stroke="black"/>
<path d="M242.443,342.594v 4.62965" fill="none" stroke="black"/>
<path d="M251.887,342.594v 4.62965" fill="none" stroke="black"/>
<path d="M261.332,337.964v 9.2593" fill="none" stroke="black"/>
<path d="M270.776,342.594v 4.62965" fill="none" stroke="black"/>
<path d="M280.22,342.594v 4.62965" fill="none" stroke="black"/>
<path d="M289.664,342.594v 4.62965" fill="none" stroke="black"/>
<path d="M299.108,342.594v 4.62965" fill="none" stroke="black"/>
<path d="M308.553,337.964v 9.2593" fill="none" stroke="black"/>
<path d="M317.997,342.594v 4.62965" fill="none" stroke="black"/>
<path d="M327.441,342.594v 4.62965" fill="none" stroke="black"/>
<path d="M336.885,342.594v 4.62965" fill="none" stroke="black"/>
<path d="M346.33,342.594v 4.62965" fill="none" stroke="black"/>
<path d="M355.774,337.964v 9.2593" fill="none" stroke="black"/>
<path d="M365.218,342.594v 4.62965" fill="none" stroke="black"/>
<path d="M374.662,342.594v 4.62965" fill="none" stroke="black"/>
<path d="M384.106,342.594v 4.62965" fill="none" stroke="black"/>
<path d="M393.551,342.594v 4.62965" fill="none" stroke="black"/>
<path d="M402.995,337.964v 9.2593" fill="none" stroke="black"/>
<path d="M412.439,342.594v 4.62965" fill="none" stroke="black"/>
<path d="M421.883,342.594v 4.62965" fill="none" stroke="black"/>
<path d="M431.327,342.594v 4.62965" fill="none" stroke="black"/>
<path d="M440.772,342.594v 4.62965" fill="none" stroke="black"/>
<path d="M450.216,337.964v 9.2593" fill="none" stroke="black"/>
<path d="M459.66,342.594v 4.62965" fill="none" stroke="black"/>
<path d="M469.104,342.594v 4.62965" fill="none" stroke="black"/>
<path d="M478.548,342.594v 4.62965" fill="none" stroke="black"/>
<path d="M487.993,342.594v 4.62965" fill="none" stroke="black"/>
<path d="M497.437,337.964v 9.2593" fill="none" stroke="black"/>
<path d="M72.4475,337.964v 9.2593" fill="none" stroke="black"/>
<path d="M63.0033,342.594v 4.62965" fill="none" stroke="black"/>
<path d="M497.437,337.964v 9.2593" fill="none" stroke="black"/>
<path d="M506.881,342.594v 4.62965" fill="none" stroke="black"/>
<text xml:space="preserve" x="60.6042" y="359.813" fill="black" font-size="12.8882" font-family="Helvetica">790</text>
<text xml:space="preserve" x="107.713" y="359.813" fill="black" font-size="12.8882" font-family="Helvetica">795</text>
<text xml:space="preserve" x="154.822" y="359.813" fill="black" font-size="12.8882" font-family="Helvetica">800</text>
<text xml:space="preserve" x="201.93" y="359.813" fill="black" font-size="12.8882" font-family="Helvetica">805</text>
<text xml:space="preserve" x="249.851" y="359.813" fill="black" font-size="12.8882" font-family="Helvetica">810</text>
<text xml:space="preserve" x="296.96" y="359.813" fill="black" font-size="12.8882" font-family="Helvetica">815</text>
<text xml:space="preserve" x="344.069" y="359.813" fill="black" font-size="12.8882" font-family="Helvetica">820</text>
<text xml:space="preserve" x="391.178" y="359.813" fill="black" font-size="12.8882" font-family="Helvetica">825</text>
<text xml:space="preserve" x="438.286" y="359.813" fill="black" font-size="12.8882" font-family="Helvetica">830</text>
<text xml:space="preserve" x="485.395" y="359.813" fill="black" font-size="12.8882" font-family="Helvetica">835</text>
<text xml:space="preserve" x="457.78" y="372.809" fill="black" font-size="12.8882" font-family="Helvetica">Time [ns]</text>
<path d="M57.1929,347.224v -308.643" fill="none" stroke="black"/>
<path d="M70.7992,347.224h -13.6063" fill="none" stroke="black"/>
<path d="M63.9961,333.226h -6.80315" fill="none" stroke="black"/>
<path d="M63.9961,319.229h -6.80315" fill="none" stroke="black"/>
<path d="M63.9961,305.232h -6.80315" fill="none" stroke="black"/>
<path d="M70.7992,291.234h -13.6063" fill="none" stroke="black"/>
<path d="M63.9961,277.237h -6.80315" fill="none" stroke="black"/>
<path d="M63.9961,263.239h -6.80315" fill="none" stroke="black"/>
<path d="M63.9961,249.242h -6.80315" fill="none" stroke="black"/>
<path d="M70.7992,235.244h -13.6063" fill="none" stroke="black"/>
<path d="M63.9961,221.247h -6.80315" fill="none" stroke="black"/>
<path d="M63.9961,207.249h -6.80315" fill="none" stroke="black"/>
<path d="M63.9961,193.252h -6.80315" fill="none" stroke="black"/>
<path d="M70.7992,179.255h -13.6063" fill="none" stroke="black"/>
<path d="M63.9961,165.257h -6.80315" fill="none" stroke="black"/>
<path d="M63.9961,151.26h -6.80315" fill="none" stroke="black"/>
<path d="M63.9961,137.262h -6.80315" fill="none" stroke="black"/>
<path d="M70.7992,123.265h -13.6063" fill="none" stroke="black"/>
<path d="M63.9961,109.267h -6.80315" fill="none" stroke="black"/>
<path d="M63.9961,95.27h -6.80315" fill="none" stroke="black"/>
<path d="M63.9961,81.2726h -6.80315" fill="none" stroke="black"/>
<path d="M70.7992,67.2752h -13.6063" fill="none" stroke="black"/>
<path d="M70.7992,67.2752h -13.6063" fill="none" stroke="black"/>
<path d="M63.9961,53.2777h -6.80315" fill="none" stroke="black"/>
<path d="M63.9961,39.2803h -6.80315" fill="none" stroke="black"/>
<text xml:space="preserve" x="46.7965" y="351.691" fill="black" font-size="12.8882" font-family="Helvetica">0</text>
<text xml:space="preserve" x="39.4865" y="295.648" fill="black" font-size="12.8882" font-family="Helvetica">20</text>
<text xml:space="preserve" x="39.4865" y="239.605" fill="black" font-size="12.8882" font-family="Helvetica">40</text>
<text xml:space="preserve" x="39.4865" y="183.562" fill="black" font-size="12.8882" font-family="Helvetica">60</text>
<text xml:space="preserve" x="39.4865" y="127.518" fill="black" font-size="12.8882" font-family="Helvetica">80</text>
<text xml:space="preserve" x="32.1766" y="71.4753" fill="black" font-size="12.8882" font-family="Helvetica">100</text>
<g transform="rotate(-90,21.6177,71.4753)">
<text xml:space="preserve" x="21.6177" y="71.4753" fill="black" font-size="12.8882" font-family="Helvetica">Event</text>
</g>
<rect x="351.996" y="25.0773" width="204.094" height="108.025" fill="white"/>
<path d="M351.996,133.102h 204.094" fill="none" stroke="black"/>
<path d="M556.091,133.102v -108.025" fill="none" stroke="black"/>
<path d="M556.091,25.0773h -204.094" fill="none" stroke="black"/>
<path d="M351.996,25.0773v 108.025" fill="none" stroke="black"/>
<text xml:space="preserve" x="361.938" y="38.9865" fill="black" font-size="15.6962" font-family="Helvetica">Entries </text>
<text xml:space="preserve" x="515.447" y="38.9865" fill="black" font-size="15.6962" font-family="Helvetica"> 198</text>
<text xml:space="preserve" x="375.745" y="57.6676" fill="black" font-size="15.6962" font-family="Helvetica"> / ndf </text>
<text xml:space="preserve" x="370.06" y="52.7943" fill="black" font-size="10.6308" font-family="Helvetica">2</text>
<text xml:space="preserve" x="361.938" y="57.6676" fill="black" font-size="15.6962" font-family="Times">&#0967;</text>
<text xml:space="preserve" x="481.334" y="57.6676" fill="black" font-size="15.6962" font-family="Helvetica"> 7.716 / 3</text>
<text xml:space="preserve" x="361.938" y="75.5364" fill="black" font-size="15.6962" font-family="Helvetica">Prob  </text>
<text xml:space="preserve" x="485.395" y="75.5364" fill="black" font-size="15.6962" font-family="Helvetica"> 0.05226</text>
<text xml:space="preserve" x="361.938" y="94.2175" fill="black" font-size="15.6962" font-family="Helvetica">Const    </text>
<text xml:space="preserve" x="511.386" y="93.4052" fill="black" font-size="15.6962" font-family="Helvetica"> 13.3</text>
<text xml:space="preserve" x="502.452" y="93.4052" fill="black" font-size="15.6962" font-family="Times">&#0177;</text>
<text xml:space="preserve" x="455.343" y="93.4052" fill="black" font-size="15.6962" font-family="Helvetica"> 129.3 </text>
<text xml:space="preserve" x="361.938" y="111.274" fill="black" font-size="15.6962" font-family="Helvetica">Mean     </text>
<text xml:space="preserve" x="520.32" y="111.274" fill="black" font-size="15.6962" font-family="Helvetica"> 0.2</text>
<text xml:space="preserve" x="511.386" y="111.274" fill="black" font-size="15.6962" font-family="Times">&#0177;</text>
<text xml:space="preserve" x="463.465" y="111.274" fill="black" font-size="15.6962" font-family="Helvetica"> 812.7 </text>
<text xml:space="preserve" x="361.938" y="128.331" fill="black" font-size="15.6962" font-family="Helvetica">Sigma    </text>
<text xml:space="preserve" x="502.452" y="129.143" fill="black" font-size="15.6962" font-family="Helvetica"> 0.167</text>
<text xml:space="preserve" x="493.517" y="129.143" fill="black" font-size="15.6962" font-family="Times">&#0177;</text>
<text xml:space="preserve" x="446.408" y="129.143" fill="black" font-size="15.6962" font-family="Helvetica"> 2.343 </text>
<text xml:space="preserve" x="243.354" y="18.681" fill="black" font-size="17.0471" font-family="Helvetica">670mm 30</text></svg>
