<?xml version="1.0" standalone="no"?>
<svg width="567.429" height="384.68" viewBox="0 0 567.429 384.68" xmlns="http://www.w3.org/2000/svg" shape-rendering="crispEdges">
<title>
img/week2/Combined670mm_ch_32_33_34_35.svg
</title>
<desc>
Creator: ROOT Version 6.22/09
CreationDate: Tue Jun 22 18:03:28 2021</desc>
<defs>
</defs>
<rect x="0.5" y="0" width="566.929" height="384.18" fill="white"/>
<rect x="57.1929" y="38.418" width="453.543" height="307.344" fill="white"/>
<rect x="57.1929" y="38.418" width="453.543" height="307.344" fill="none" stroke="black"/>
<rect x="57.1929" y="38.418" width="453.543" height="307.344" fill="white"/>
<rect x="57.1929" y="38.418" width="453.543" height="307.344" fill="none" stroke="black"/>
<path d="M57.1929,345.762h 90.7087v -2.89095h 30.2362v -6.50463h 30.2362v -15.1775h 30.2362v -65.7691h 30.2362v -202.366h 30.2362v 190.08h 30.2362v 99.7377h 30.2362v 2.89095h 151.181" fill="none" stroke="#000099"/>
<g fill="#ff0000">
<polygon points=" 279.741, 48.8299 288.188, 48.8299 283.965, 57.2769"/>
</g>
<path d="M59.4606,345.762h 136.063l 4.53543, -0.0757886l 4.53543, -0.104248l 4.53543, -0.227614l 4.53543, -0.472154l 4.53543, -0.930098l 4.53543, -1.73901l 4.53543, -3.08403l 4.53543, -5.18355l 4.53543, -8.24863l 4.53543, -12.4111l 4.53543, -17.6264l
 4.53543, -23.5735l 4.53543, -29.5915l 4.53543, -34.6985l 4.53543, -37.7257l 4.53543, -37.5644l 4.53543, -33.4743l 4.53543, -25.361l 4.53543, -13.9164" fill="none" stroke="#ff0000" stroke-width="2"/>
<path d="M281.697,59.754l 4.53543, -0.549796l 4.53543, 12.894l 4.53543, 24.5525l 4.53543, 32.9686l 4.53543, 37.3875l 4.53543, 37.8432l 4.53543, 35.0334l 4.53543, 30.0489l 4.53543, 24.064l 4.53543, 18.0823l 4.53543, 12.7923l 4.53543, 8.54075l 4.53543,
 5.39096l 4.53543, 3.22139l 4.53543, 1.82423l 4.53543, 0.979789l 4.53543, 0.499452l 4.53543, 0.241768l 4.53543, 0.111184l 4.53543, 0.0485946l 4.53543, 0.0327753h 126.992" fill="none" stroke="#ff0000" stroke-width="2"/>
<path d="M503.933,345.762h 4.53543" fill="none" stroke="#ff0000" stroke-width="2"/>
<rect x="351.996" y="24.9717" width="204.094" height="107.57" fill="white"/>
<path d="M351.996,132.542h 204.094" fill="none" stroke="black"/>
<path d="M556.091,132.542v -107.57" fill="none" stroke="black"/>
<path d="M556.091,24.9717h -204.094" fill="none" stroke="black"/>
<path d="M351.996,24.9717v 107.57" fill="none" stroke="black"/>
<text xml:space="preserve" x="361.938" y="38.9865" fill="black" font-size="15.6322" font-family="Helvetica">Entries </text>
<text xml:space="preserve" x="515.447" y="38.9865" fill="black" font-size="15.6322" font-family="Helvetica"> 732</text>
<text xml:space="preserve" x="375.745" y="56.8554" fill="black" font-size="15.6322" font-family="Helvetica"> / ndf </text>
<text xml:space="preserve" x="370.06" y="51.982" fill="black" font-size="10.5881" font-family="Helvetica">2</text>
<text xml:space="preserve" x="361.938" y="56.8554" fill="black" font-size="15.6322" font-family="Times">&#0967;</text>
<text xml:space="preserve" x="481.334" y="56.8554" fill="black" font-size="15.6322" font-family="Helvetica"> 45.71 / 5</text>
<text xml:space="preserve" x="361.938" y="74.7242" fill="black" font-size="15.6322" font-family="Helvetica">Prob  </text>
<text xml:space="preserve" x="528.443" y="74.7242" fill="black" font-size="15.6322" font-family="Helvetica">08</text>
<text xml:space="preserve" x="519.508" y="74.7242" fill="black" font-size="15.6322" font-family="Times">&#8722;</text>
<text xml:space="preserve" x="468.338" y="74.7242" fill="black" font-size="15.6322" font-family="Helvetica"> 1.039e</text>
<text xml:space="preserve" x="361.938" y="94.2175" fill="black" font-size="15.6322" font-family="Helvetica">Const    </text>
<text xml:space="preserve" x="511.386" y="93.4052" fill="black" font-size="15.6322" font-family="Helvetica"> 19.6</text>
<text xml:space="preserve" x="502.452" y="93.4052" fill="black" font-size="15.6322" font-family="Times">&#0177;</text>
<text xml:space="preserve" x="455.343" y="93.4052" fill="black" font-size="15.6322" font-family="Helvetica"> 398.5 </text>
<text xml:space="preserve" x="361.938" y="111.274" fill="black" font-size="15.6322" font-family="Helvetica">Mean     </text>
<text xml:space="preserve" x="522.757" y="111.274" fill="black" font-size="15.6322" font-family="Helvetica"> 0.1</text>
<text xml:space="preserve" x="513.823" y="111.274" fill="black" font-size="15.6322" font-family="Times">&#0177;</text>
<text xml:space="preserve" x="465.902" y="111.274" fill="black" font-size="15.6322" font-family="Helvetica"> 806.4 </text>
<text xml:space="preserve" x="361.938" y="128.331" fill="black" font-size="15.6322" font-family="Helvetica">Sigma    </text>
<text xml:space="preserve" x="503.264" y="129.143" fill="black" font-size="15.6322" font-family="Helvetica"> 0.085</text>
<text xml:space="preserve" x="494.329" y="129.143" fill="black" font-size="15.6322" font-family="Times">&#0177;</text>
<text xml:space="preserve" x="449.657" y="129.143" fill="black" font-size="15.6322" font-family="Helvetica"> 2.741 </text>
<path d="M57.1929,345.762h 453.543" fill="none" stroke="black"/>
<path d="M84.5516,336.541v 9.22031" fill="none" stroke="black"/>
<path d="M99.6623,341.152v 4.61016" fill="none" stroke="black"/>
<path d="M114.773,341.152v 4.61016" fill="none" stroke="black"/>
<path d="M129.884,341.152v 4.61016" fill="none" stroke="black"/>
<path d="M144.995,341.152v 4.61016" fill="none" stroke="black"/>
<path d="M160.105,336.541v 9.22031" fill="none" stroke="black"/>
<path d="M175.216,341.152v 4.61016" fill="none" stroke="black"/>
<path d="M190.327,341.152v 4.61016" fill="none" stroke="black"/>
<path d="M205.437,341.152v 4.61016" fill="none" stroke="black"/>
<path d="M220.548,341.152v 4.61016" fill="none" stroke="black"/>
<path d="M235.659,336.541v 9.22031" fill="none" stroke="black"/>
<path d="M250.77,341.152v 4.61016" fill="none" stroke="black"/>
<path d="M265.88,341.152v 4.61016" fill="none" stroke="black"/>
<path d="M280.991,341.152v 4.61016" fill="none" stroke="black"/>
<path d="M296.102,341.152v 4.61016" fill="none" stroke="black"/>
<path d="M311.213,336.541v 9.22031" fill="none" stroke="black"/>
<path d="M326.323,341.152v 4.61016" fill="none" stroke="black"/>
<path d="M341.434,341.152v 4.61016" fill="none" stroke="black"/>
<path d="M356.545,341.152v 4.61016" fill="none" stroke="black"/>
<path d="M371.656,341.152v 4.61016" fill="none" stroke="black"/>
<path d="M386.766,336.541v 9.22031" fill="none" stroke="black"/>
<path d="M401.877,341.152v 4.61016" fill="none" stroke="black"/>
<path d="M416.988,341.152v 4.61016" fill="none" stroke="black"/>
<path d="M432.098,341.152v 4.61016" fill="none" stroke="black"/>
<path d="M447.209,341.152v 4.61016" fill="none" stroke="black"/>
<path d="M462.32,336.541v 9.22031" fill="none" stroke="black"/>
<path d="M84.5516,336.541v 9.22031" fill="none" stroke="black"/>
<path d="M69.4409,341.152v 4.61016" fill="none" stroke="black"/>
<path d="M462.32,336.541v 9.22031" fill="none" stroke="black"/>
<path d="M477.431,341.152v 4.61016" fill="none" stroke="black"/>
<path d="M492.541,341.152v 4.61016" fill="none" stroke="black"/>
<path d="M507.652,341.152v 4.61016" fill="none" stroke="black"/>
<text xml:space="preserve" x="73.5997" y="358.189" fill="black" font-size="12.836" font-family="Helvetica">780</text>
<text xml:space="preserve" x="149.136" y="358.189" fill="black" font-size="12.836" font-family="Helvetica">790</text>
<text xml:space="preserve" x="224.673" y="358.189" fill="black" font-size="12.836" font-family="Helvetica">800</text>
<text xml:space="preserve" x="300.209" y="358.189" fill="black" font-size="12.836" font-family="Helvetica">810</text>
<text xml:space="preserve" x="375.745" y="358.189" fill="black" font-size="12.836" font-family="Helvetica">820</text>
<text xml:space="preserve" x="451.282" y="358.189" fill="black" font-size="12.836" font-family="Helvetica">830</text>
<text xml:space="preserve" x="461.028" y="370.372" fill="black" font-size="12.836" font-family="Helvetica">Time [ps]</text>
<path d="M57.1929,345.762v -307.344" fill="none" stroke="black"/>
<path d="M70.7992,345.762h -13.6063" fill="none" stroke="black"/>
<path d="M63.9961,338.534h -6.80315" fill="none" stroke="black"/>
<path d="M63.9961,331.307h -6.80315" fill="none" stroke="black"/>
<path d="M63.9961,324.08h -6.80315" fill="none" stroke="black"/>
<path d="M63.9961,316.852h -6.80315" fill="none" stroke="black"/>
<path d="M70.7992,309.625h -13.6063" fill="none" stroke="black"/>
<path d="M63.9961,302.398h -6.80315" fill="none" stroke="black"/>
<path d="M63.9961,295.17h -6.80315" fill="none" stroke="black"/>
<path d="M63.9961,287.943h -6.80315" fill="none" stroke="black"/>
<path d="M63.9961,280.715h -6.80315" fill="none" stroke="black"/>
<path d="M70.7992,273.488h -13.6063" fill="none" stroke="black"/>
<path d="M63.9961,266.261h -6.80315" fill="none" stroke="black"/>
<path d="M63.9961,259.033h -6.80315" fill="none" stroke="black"/>
<path d="M63.9961,251.806h -6.80315" fill="none" stroke="black"/>
<path d="M63.9961,244.579h -6.80315" fill="none" stroke="black"/>
<path d="M70.7992,237.351h -13.6063" fill="none" stroke="black"/>
<path d="M63.9961,230.124h -6.80315" fill="none" stroke="black"/>
<path d="M63.9961,222.897h -6.80315" fill="none" stroke="black"/>
<path d="M63.9961,215.669h -6.80315" fill="none" stroke="black"/>
<path d="M63.9961,208.442h -6.80315" fill="none" stroke="black"/>
<path d="M70.7992,201.214h -13.6063" fill="none" stroke="black"/>
<path d="M63.9961,193.987h -6.80315" fill="none" stroke="black"/>
<path d="M63.9961,186.76h -6.80315" fill="none" stroke="black"/>
<path d="M63.9961,179.532h -6.80315" fill="none" stroke="black"/>
<path d="M63.9961,172.305h -6.80315" fill="none" stroke="black"/>
<path d="M70.7992,165.078h -13.6063" fill="none" stroke="black"/>
<path d="M63.9961,157.85h -6.80315" fill="none" stroke="black"/>
<path d="M63.9961,150.623h -6.80315" fill="none" stroke="black"/>
<path d="M63.9961,143.396h -6.80315" fill="none" stroke="black"/>
<path d="M63.9961,136.168h -6.80315" fill="none" stroke="black"/>
<path d="M70.7992,128.941h -13.6063" fill="none" stroke="black"/>
<path d="M63.9961,121.713h -6.80315" fill="none" stroke="black"/>
<path d="M63.9961,114.486h -6.80315" fill="none" stroke="black"/>
<path d="M63.9961,107.259h -6.80315" fill="none" stroke="black"/>
<path d="M63.9961,100.031h -6.80315" fill="none" stroke="black"/>
<path d="M70.7992,92.8039h -13.6063" fill="none" stroke="black"/>
<path d="M63.9961,85.5766h -6.80315" fill="none" stroke="black"/>
<path d="M63.9961,78.3492h -6.80315" fill="none" stroke="black"/>
<path d="M63.9961,71.1218h -6.80315" fill="none" stroke="black"/>
<path d="M63.9961,63.8945h -6.80315" fill="none" stroke="black"/>
<path d="M70.7992,56.6671h -13.6063" fill="none" stroke="black"/>
<path d="M70.7992,56.6671h -13.6063" fill="none" stroke="black"/>
<path d="M63.9961,49.4397h -6.80315" fill="none" stroke="black"/>
<path d="M63.9961,42.2123h -6.80315" fill="none" stroke="black"/>
<text xml:space="preserve" x="47.6087" y="350.067" fill="black" font-size="12.836" font-family="Helvetica">0</text>
<text xml:space="preserve" x="41.111" y="314.329" fill="black" font-size="12.836" font-family="Helvetica">50</text>
<text xml:space="preserve" x="33.801" y="277.779" fill="black" font-size="12.836" font-family="Helvetica">100</text>
<text xml:space="preserve" x="33.801" y="242.041" fill="black" font-size="12.836" font-family="Helvetica">150</text>
<text xml:space="preserve" x="33.801" y="205.492" fill="black" font-size="12.836" font-family="Helvetica">200</text>
<text xml:space="preserve" x="33.801" y="169.754" fill="black" font-size="12.836" font-family="Helvetica">250</text>
<text xml:space="preserve" x="33.801" y="133.204" fill="black" font-size="12.836" font-family="Helvetica">300</text>
<text xml:space="preserve" x="33.801" y="97.4663" fill="black" font-size="12.836" font-family="Helvetica">350</text>
<text xml:space="preserve" x="33.801" y="60.9165" fill="black" font-size="12.836" font-family="Helvetica">400</text>
<g transform="rotate(-90,20.8055,69.8509)">
<text xml:space="preserve" x="20.8055" y="69.8509" fill="black" font-size="12.836" font-family="Helvetica">Event</text>
</g>
<rect x="351.996" y="24.9717" width="204.094" height="107.57" fill="white"/>
<path d="M351.996,132.542h 204.094" fill="none" stroke="black"/>
<path d="M556.091,132.542v -107.57" fill="none" stroke="black"/>
<path d="M556.091,24.9717h -204.094" fill="none" stroke="black"/>
<path d="M351.996,24.9717v 107.57" fill="none" stroke="black"/>
<text xml:space="preserve" x="361.938" y="38.9865" fill="black" font-size="15.6322" font-family="Helvetica">Entries </text>
<text xml:space="preserve" x="515.447" y="38.9865" fill="black" font-size="15.6322" font-family="Helvetica"> 732</text>
<text xml:space="preserve" x="375.745" y="56.8554" fill="black" font-size="15.6322" font-family="Helvetica"> / ndf </text>
<text xml:space="preserve" x="370.06" y="51.982" fill="black" font-size="10.5881" font-family="Helvetica">2</text>
<text xml:space="preserve" x="361.938" y="56.8554" fill="black" font-size="15.6322" font-family="Times">&#0967;</text>
<text xml:space="preserve" x="481.334" y="56.8554" fill="black" font-size="15.6322" font-family="Helvetica"> 45.71 / 5</text>
<text xml:space="preserve" x="361.938" y="74.7242" fill="black" font-size="15.6322" font-family="Helvetica">Prob  </text>
<text xml:space="preserve" x="528.443" y="74.7242" fill="black" font-size="15.6322" font-family="Helvetica">08</text>
<text xml:space="preserve" x="519.508" y="74.7242" fill="black" font-size="15.6322" font-family="Times">&#8722;</text>
<text xml:space="preserve" x="468.338" y="74.7242" fill="black" font-size="15.6322" font-family="Helvetica"> 1.039e</text>
<text xml:space="preserve" x="361.938" y="94.2175" fill="black" font-size="15.6322" font-family="Helvetica">Const    </text>
<text xml:space="preserve" x="511.386" y="93.4052" fill="black" font-size="15.6322" font-family="Helvetica"> 19.6</text>
<text xml:space="preserve" x="502.452" y="93.4052" fill="black" font-size="15.6322" font-family="Times">&#0177;</text>
<text xml:space="preserve" x="455.343" y="93.4052" fill="black" font-size="15.6322" font-family="Helvetica"> 398.5 </text>
<text xml:space="preserve" x="361.938" y="111.274" fill="black" font-size="15.6322" font-family="Helvetica">Mean     </text>
<text xml:space="preserve" x="522.757" y="111.274" fill="black" font-size="15.6322" font-family="Helvetica"> 0.1</text>
<text xml:space="preserve" x="513.823" y="111.274" fill="black" font-size="15.6322" font-family="Times">&#0177;</text>
<text xml:space="preserve" x="465.902" y="111.274" fill="black" font-size="15.6322" font-family="Helvetica"> 806.4 </text>
<text xml:space="preserve" x="361.938" y="128.331" fill="black" font-size="15.6322" font-family="Helvetica">Sigma    </text>
<text xml:space="preserve" x="503.264" y="129.143" fill="black" font-size="15.6322" font-family="Helvetica"> 0.085</text>
<text xml:space="preserve" x="494.329" y="129.143" fill="black" font-size="15.6322" font-family="Times">&#0177;</text>
<text xml:space="preserve" x="449.657" y="129.143" fill="black" font-size="15.6322" font-family="Helvetica"> 2.741 </text>
<text xml:space="preserve" x="208.428" y="18.681" fill="black" font-size="16.9774" font-family="Helvetica">670mm 32 33 34 35</text></svg>
