<?xml version="1.0" standalone="no"?>
<svg width="567.429" height="384.969" viewBox="0 0 567.429 384.969" xmlns="http://www.w3.org/2000/svg" shape-rendering="crispEdges">
<title>
img/week2/Combined420mm_ch_51.svg
</title>
<desc>
Creator: ROOT Version 6.22/09
CreationDate: Thu Jun 24 12:33:05 2021</desc>
<defs>
</defs>
<rect x="0.5" y="0" width="566.929" height="384.469" fill="white"/>
<rect x="57.1929" y="38.4469" width="453.543" height="307.575" fill="white"/>
<rect x="57.1929" y="38.4469" width="453.543" height="307.575" fill="none" stroke="black"/>
<rect x="57.1929" y="38.4469" width="453.543" height="307.575" fill="white"/>
<rect x="57.1929" y="38.4469" width="453.543" height="307.575" fill="none" stroke="black"/>
<path d="M57.1929,346.022h 75.5906v -8.94364h 37.7953v -4.47182h 37.7953v -22.3591h 37.7953v -232.535h 37.7953v 13.4155h 37.7953v 250.422h 37.7953v 4.47182h 151.181" fill="none" stroke="#000099"/>
<g fill="#ff0000">
<polygon points=" 260.831, 73.4773 269.303, 73.4773 265.067, 81.9486"/>
</g>
<path d="M59.4606,346.022h 122.457l 4.53543, -0.0401332l 4.53543, -0.0547281l 4.53543, -0.120031l 4.53543, -0.251658l 4.53543, -0.504234l 4.53543, -0.965161l 4.53543, -1.76412l 4.53543, -3.07749l 4.53543, -5.12068l 4.53543, -8.12059l 4.53543,
 -12.2617l 4.53543, -17.6067l 4.53543, -24.0025l 4.53543, -30.9982l 4.53543, -37.8085l 4.53543, -43.361l 4.53543, -46.4449l 4.53543, -45.952l 3.2088, -29.1209" fill="none" stroke="#ff0000" stroke-width="2"/>
<path d="M294.314,38.4469l 0.989562, 8.11583" fill="none" stroke="#ff0000" stroke-width="2"/>
<path d="M295.303,46.5627l 4.53543, 44.1685l 4.53543, 46.7079l 4.53543, 45.2519l 4.53543, 40.7552l 4.53543, 34.4126l 4.53543, 27.3895l 4.53543, 20.6233l 4.53543, 14.7284l 4.53543, 9.99524l 4.53543, 6.45488l 4.53543, 3.97115l 4.53543, 2.32945l
 4.53543, 1.30377l 4.53543, 0.696639l 4.53543, 0.355528l 4.53543, 0.173368l 4.53543, 0.0808052l 4.53543, 0.0614463h 131.528" fill="none" stroke="#ff0000" stroke-width="2"/>
<path d="M57.1929,346.022h 453.543" fill="none" stroke="black"/>
<path d="M63.0218,336.795v 9.22726" fill="none" stroke="black"/>
<path d="M72.466,341.409v 4.61363" fill="none" stroke="black"/>
<path d="M81.9102,341.409v 4.61363" fill="none" stroke="black"/>
<path d="M91.3544,341.409v 4.61363" fill="none" stroke="black"/>
<path d="M100.799,341.409v 4.61363" fill="none" stroke="black"/>
<path d="M110.243,336.795v 9.22726" fill="none" stroke="black"/>
<path d="M119.687,341.409v 4.61363" fill="none" stroke="black"/>
<path d="M129.131,341.409v 4.61363" fill="none" stroke="black"/>
<path d="M138.575,341.409v 4.61363" fill="none" stroke="black"/>
<path d="M148.02,341.409v 4.61363" fill="none" stroke="black"/>
<path d="M157.464,336.795v 9.22726" fill="none" stroke="black"/>
<path d="M166.908,341.409v 4.61363" fill="none" stroke="black"/>
<path d="M176.352,341.409v 4.61363" fill="none" stroke="black"/>
<path d="M185.796,341.409v 4.61363" fill="none" stroke="black"/>
<path d="M195.241,341.409v 4.61363" fill="none" stroke="black"/>
<path d="M204.685,336.795v 9.22726" fill="none" stroke="black"/>
<path d="M214.129,341.409v 4.61363" fill="none" stroke="black"/>
<path d="M223.573,341.409v 4.61363" fill="none" stroke="black"/>
<path d="M233.018,341.409v 4.61363" fill="none" stroke="black"/>
<path d="M242.462,341.409v 4.61363" fill="none" stroke="black"/>
<path d="M251.906,336.795v 9.22726" fill="none" stroke="black"/>
<path d="M261.35,341.409v 4.61363" fill="none" stroke="black"/>
<path d="M270.794,341.409v 4.61363" fill="none" stroke="black"/>
<path d="M280.239,341.409v 4.61363" fill="none" stroke="black"/>
<path d="M289.683,341.409v 4.61363" fill="none" stroke="black"/>
<path d="M299.127,336.795v 9.22726" fill="none" stroke="black"/>
<path d="M308.571,341.409v 4.61363" fill="none" stroke="black"/>
<path d="M318.015,341.409v 4.61363" fill="none" stroke="black"/>
<path d="M327.46,341.409v 4.61363" fill="none" stroke="black"/>
<path d="M336.904,341.409v 4.61363" fill="none" stroke="black"/>
<path d="M346.348,336.795v 9.22726" fill="none" stroke="black"/>
<path d="M355.792,341.409v 4.61363" fill="none" stroke="black"/>
<path d="M365.236,341.409v 4.61363" fill="none" stroke="black"/>
<path d="M374.681,341.409v 4.61363" fill="none" stroke="black"/>
<path d="M384.125,341.409v 4.61363" fill="none" stroke="black"/>
<path d="M393.569,336.795v 9.22726" fill="none" stroke="black"/>
<path d="M403.013,341.409v 4.61363" fill="none" stroke="black"/>
<path d="M412.457,341.409v 4.61363" fill="none" stroke="black"/>
<path d="M421.902,341.409v 4.61363" fill="none" stroke="black"/>
<path d="M431.346,341.409v 4.61363" fill="none" stroke="black"/>
<path d="M440.79,336.795v 9.22726" fill="none" stroke="black"/>
<path d="M450.234,341.409v 4.61363" fill="none" stroke="black"/>
<path d="M459.678,341.409v 4.61363" fill="none" stroke="black"/>
<path d="M469.123,341.409v 4.61363" fill="none" stroke="black"/>
<path d="M478.567,341.409v 4.61363" fill="none" stroke="black"/>
<path d="M488.011,336.795v 9.22726" fill="none" stroke="black"/>
<path d="M63.0218,336.795v 9.22726" fill="none" stroke="black"/>
<path d="M488.011,336.795v 9.22726" fill="none" stroke="black"/>
<path d="M497.455,341.409v 4.61363" fill="none" stroke="black"/>
<path d="M506.9,341.409v 4.61363" fill="none" stroke="black"/>
<text xml:space="preserve" x="51.8169" y="358.403" fill="black" font-size="12.8453" font-family="Helvetica">785</text>
<text xml:space="preserve" x="99.061" y="358.403" fill="black" font-size="12.8453" font-family="Helvetica">790</text>
<text xml:space="preserve" x="146.305" y="358.403" fill="black" font-size="12.8453" font-family="Helvetica">795</text>
<text xml:space="preserve" x="193.549" y="358.403" fill="black" font-size="12.8453" font-family="Helvetica">800</text>
<text xml:space="preserve" x="240.793" y="358.403" fill="black" font-size="12.8453" font-family="Helvetica">805</text>
<text xml:space="preserve" x="288.037" y="358.403" fill="black" font-size="12.8453" font-family="Helvetica">810</text>
<text xml:space="preserve" x="335.281" y="358.403" fill="black" font-size="12.8453" font-family="Helvetica">815</text>
<text xml:space="preserve" x="382.526" y="358.403" fill="black" font-size="12.8453" font-family="Helvetica">820</text>
<text xml:space="preserve" x="429.77" y="358.403" fill="black" font-size="12.8453" font-family="Helvetica">825</text>
<text xml:space="preserve" x="477.014" y="358.403" fill="black" font-size="12.8453" font-family="Helvetica">830</text>
<text xml:space="preserve" x="460.723" y="370.622" fill="black" font-size="12.8453" font-family="Helvetica">Time [ns]</text>
<path d="M57.1929,346.022v -307.575" fill="none" stroke="black"/>
<path d="M70.7992,346.022h -13.6063" fill="none" stroke="black"/>
<path d="M63.9961,337.079h -6.80315" fill="none" stroke="black"/>
<path d="M63.9961,328.135h -6.80315" fill="none" stroke="black"/>
<path d="M63.9961,319.191h -6.80315" fill="none" stroke="black"/>
<path d="M63.9961,310.248h -6.80315" fill="none" stroke="black"/>
<path d="M70.7992,301.304h -13.6063" fill="none" stroke="black"/>
<path d="M63.9961,292.36h -6.80315" fill="none" stroke="black"/>
<path d="M63.9961,283.417h -6.80315" fill="none" stroke="black"/>
<path d="M63.9961,274.473h -6.80315" fill="none" stroke="black"/>
<path d="M63.9961,265.529h -6.80315" fill="none" stroke="black"/>
<path d="M70.7992,256.586h -13.6063" fill="none" stroke="black"/>
<path d="M63.9961,247.642h -6.80315" fill="none" stroke="black"/>
<path d="M63.9961,238.699h -6.80315" fill="none" stroke="black"/>
<path d="M63.9961,229.755h -6.80315" fill="none" stroke="black"/>
<path d="M63.9961,220.811h -6.80315" fill="none" stroke="black"/>
<path d="M70.7992,211.868h -13.6063" fill="none" stroke="black"/>
<path d="M63.9961,202.924h -6.80315" fill="none" stroke="black"/>
<path d="M63.9961,193.98h -6.80315" fill="none" stroke="black"/>
<path d="M63.9961,185.037h -6.80315" fill="none" stroke="black"/>
<path d="M63.9961,176.093h -6.80315" fill="none" stroke="black"/>
<path d="M70.7992,167.149h -13.6063" fill="none" stroke="black"/>
<path d="M63.9961,158.206h -6.80315" fill="none" stroke="black"/>
<path d="M63.9961,149.262h -6.80315" fill="none" stroke="black"/>
<path d="M63.9961,140.318h -6.80315" fill="none" stroke="black"/>
<path d="M63.9961,131.375h -6.80315" fill="none" stroke="black"/>
<path d="M70.7992,122.431h -13.6063" fill="none" stroke="black"/>
<path d="M63.9961,113.488h -6.80315" fill="none" stroke="black"/>
<path d="M63.9961,104.544h -6.80315" fill="none" stroke="black"/>
<path d="M63.9961,95.6003h -6.80315" fill="none" stroke="black"/>
<path d="M63.9961,86.6566h -6.80315" fill="none" stroke="black"/>
<path d="M70.7992,77.713h -13.6063" fill="none" stroke="black"/>
<path d="M70.7992,77.713h -13.6063" fill="none" stroke="black"/>
<path d="M63.9961,68.7693h -6.80315" fill="none" stroke="black"/>
<path d="M63.9961,59.8257h -6.80315" fill="none" stroke="black"/>
<path d="M63.9961,50.882h -6.80315" fill="none" stroke="black"/>
<path d="M63.9961,41.9384h -6.80315" fill="none" stroke="black"/>
<text xml:space="preserve" x="47.7441" y="350.258" fill="black" font-size="12.8453" font-family="Helvetica">0</text>
<text xml:space="preserve" x="41.2277" y="305.457" fill="black" font-size="12.8453" font-family="Helvetica">10</text>
<text xml:space="preserve" x="41.2277" y="261.472" fill="black" font-size="12.8453" font-family="Helvetica">20</text>
<text xml:space="preserve" x="41.2277" y="216.671" fill="black" font-size="12.8453" font-family="Helvetica">30</text>
<text xml:space="preserve" x="41.2277" y="171.871" fill="black" font-size="12.8453" font-family="Helvetica">40</text>
<text xml:space="preserve" x="41.2277" y="127.07" fill="black" font-size="12.8453" font-family="Helvetica">50</text>
<text xml:space="preserve" x="41.2277" y="82.2699" fill="black" font-size="12.8453" font-family="Helvetica">60</text>
<g transform="rotate(-90,29.0094,70.0516)">
<text xml:space="preserve" x="29.0094" y="70.0516" fill="black" font-size="12.8453" font-family="Helvetica">Event</text>
</g>
<text xml:space="preserve" x="244.866" y="18.7347" fill="black" font-size="16.9898" font-family="Helvetica">420mm 51</text></svg>
