<?xml version="1.0" standalone="no"?>
<svg width="567.429" height="386.304" viewBox="0 0 567.429 386.304" xmlns="http://www.w3.org/2000/svg" shape-rendering="crispEdges">
<title>
img/week2/Combined0mm_ch_34.svg
</title>
<desc>
Creator: ROOT Version 6.22/08
CreationDate: Mon Jun 21 16:54:59 2021</desc>
<defs>
</defs>
<rect x="0.5" y="0" width="566.929" height="385.804" fill="white"/>
<rect x="57.1929" y="38.5804" width="453.543" height="308.643" fill="white"/>
<rect x="57.1929" y="38.5804" width="453.543" height="308.643" fill="none" stroke="black"/>
<rect x="57.1929" y="38.5804" width="453.543" height="308.643" fill="white"/>
<rect x="57.1929" y="38.5804" width="453.543" height="308.643" fill="none" stroke="black"/>
<path d="M57.1929,347.224h 104.664v -2.01238h 34.8879v -6.03715h 34.8879v -40.2477h 34.8879v -241.486h 34.8879v 165.015h 34.8879v 122.755h 34.8879v 2.01238h 139.552" fill="none" stroke="#000099"/>
<g fill="#ff0000">
<polygon points=" 279.741, 53.217 288.188, 53.217 283.965, 61.6641"/>
</g>
<path d="M59.4606,347.224h 136.063l 4.53543, -0.0379121l 4.53543, -0.0540261l 4.53543, -0.12101l 4.53543, -0.25815l 4.53543, -0.524329l 4.53543, -1.01351l 4.53543, -1.8635l 4.53543, -3.25712l 4.53543, -5.40764l 4.53543, -8.51988l 4.53543, -12.7226l
 4.53543, -17.9778l 4.53543, -23.987l 4.53543, -30.1293l 4.53543, -35.473l 4.53543, -38.8901l 4.53543, -39.2766l 4.53543, -35.8382l 4.53543, -28.3594" fill="none" stroke="#ff0000" stroke-width="2"/>
<path d="M281.697,63.5126l 4.53543, -17.3633l 4.53543, -4.0882l 4.53543, 9.73657l 4.53543, 22.2603l 4.53543, 31.9178l 4.53543, 37.7495l 4.53543, 39.5458l 4.53543, 37.7885l 4.53543, 33.4356l 4.53543, 27.6331l 4.53543, 21.4491l 4.53543, 15.6948l
 4.53543, 10.8544l 4.53543, 7.10861l 4.53543, 4.41487l 4.53543, 2.60308l 4.53543, 1.45839l 4.53543, 0.776932l 4.53543, 0.393788l 4.53543, 0.189984l 4.53543, 0.0872803l 4.53543, 0.0641534h 122.457" fill="none" stroke="#ff0000" stroke-width="2"/>
<path d="M503.933,347.224h 4.53543" fill="none" stroke="#ff0000" stroke-width="2"/>
<path d="M57.1929,347.224h 453.543" fill="none" stroke="black"/>
<path d="M106.162,337.964v 9.2593" fill="none" stroke="black"/>
<path d="M123.597,342.594v 4.62965" fill="none" stroke="black"/>
<path d="M141.033,342.594v 4.62965" fill="none" stroke="black"/>
<path d="M158.468,342.594v 4.62965" fill="none" stroke="black"/>
<path d="M175.904,342.594v 4.62965" fill="none" stroke="black"/>
<path d="M193.339,337.964v 9.2593" fill="none" stroke="black"/>
<path d="M210.775,342.594v 4.62965" fill="none" stroke="black"/>
<path d="M228.21,342.594v 4.62965" fill="none" stroke="black"/>
<path d="M245.646,342.594v 4.62965" fill="none" stroke="black"/>
<path d="M263.081,342.594v 4.62965" fill="none" stroke="black"/>
<path d="M280.517,337.964v 9.2593" fill="none" stroke="black"/>
<path d="M297.952,342.594v 4.62965" fill="none" stroke="black"/>
<path d="M315.388,342.594v 4.62965" fill="none" stroke="black"/>
<path d="M332.823,342.594v 4.62965" fill="none" stroke="black"/>
<path d="M350.258,342.594v 4.62965" fill="none" stroke="black"/>
<path d="M367.694,337.964v 9.2593" fill="none" stroke="black"/>
<path d="M385.129,342.594v 4.62965" fill="none" stroke="black"/>
<path d="M402.565,342.594v 4.62965" fill="none" stroke="black"/>
<path d="M420,342.594v 4.62965" fill="none" stroke="black"/>
<path d="M437.436,342.594v 4.62965" fill="none" stroke="black"/>
<path d="M454.871,337.964v 9.2593" fill="none" stroke="black"/>
<path d="M106.162,337.964v 9.2593" fill="none" stroke="black"/>
<path d="M88.7266,342.594v 4.62965" fill="none" stroke="black"/>
<path d="M71.2911,342.594v 4.62965" fill="none" stroke="black"/>
<path d="M454.871,337.964v 9.2593" fill="none" stroke="black"/>
<path d="M472.307,342.594v 4.62965" fill="none" stroke="black"/>
<path d="M489.742,342.594v 4.62965" fill="none" stroke="black"/>
<path d="M507.178,342.594v 4.62965" fill="none" stroke="black"/>
<text xml:space="preserve" x="94.7174" y="359.813" fill="black" font-size="12.8882" font-family="Helvetica">790</text>
<text xml:space="preserve" x="181.625" y="359.813" fill="black" font-size="12.8882" font-family="Helvetica">800</text>
<text xml:space="preserve" x="268.532" y="359.813" fill="black" font-size="12.8882" font-family="Helvetica">810</text>
<text xml:space="preserve" x="356.252" y="359.813" fill="black" font-size="12.8882" font-family="Helvetica">820</text>
<text xml:space="preserve" x="443.16" y="359.813" fill="black" font-size="12.8882" font-family="Helvetica">830</text>
<text xml:space="preserve" x="481.334" y="373.621" fill="black" font-size="12.8882" font-family="Helvetica">Time</text>
<path d="M57.1929,347.224v -308.643" fill="none" stroke="black"/>
<path d="M70.7992,347.224h -13.6063" fill="none" stroke="black"/>
<path d="M63.9961,337.162h -6.80315" fill="none" stroke="black"/>
<path d="M63.9961,327.1h -6.80315" fill="none" stroke="black"/>
<path d="M63.9961,317.038h -6.80315" fill="none" stroke="black"/>
<path d="M70.7992,306.976h -13.6063" fill="none" stroke="black"/>
<path d="M63.9961,296.914h -6.80315" fill="none" stroke="black"/>
<path d="M63.9961,286.852h -6.80315" fill="none" stroke="black"/>
<path d="M63.9961,276.79h -6.80315" fill="none" stroke="black"/>
<path d="M70.7992,266.728h -13.6063" fill="none" stroke="black"/>
<path d="M63.9961,256.667h -6.80315" fill="none" stroke="black"/>
<path d="M63.9961,246.605h -6.80315" fill="none" stroke="black"/>
<path d="M63.9961,236.543h -6.80315" fill="none" stroke="black"/>
<path d="M70.7992,226.481h -13.6063" fill="none" stroke="black"/>
<path d="M63.9961,216.419h -6.80315" fill="none" stroke="black"/>
<path d="M63.9961,206.357h -6.80315" fill="none" stroke="black"/>
<path d="M63.9961,196.295h -6.80315" fill="none" stroke="black"/>
<path d="M70.7992,186.233h -13.6063" fill="none" stroke="black"/>
<path d="M63.9961,176.171h -6.80315" fill="none" stroke="black"/>
<path d="M63.9961,166.109h -6.80315" fill="none" stroke="black"/>
<path d="M63.9961,156.047h -6.80315" fill="none" stroke="black"/>
<path d="M70.7992,145.985h -13.6063" fill="none" stroke="black"/>
<path d="M63.9961,135.924h -6.80315" fill="none" stroke="black"/>
<path d="M63.9961,125.862h -6.80315" fill="none" stroke="black"/>
<path d="M63.9961,115.8h -6.80315" fill="none" stroke="black"/>
<path d="M70.7992,105.738h -13.6063" fill="none" stroke="black"/>
<path d="M63.9961,95.6758h -6.80315" fill="none" stroke="black"/>
<path d="M63.9961,85.6139h -6.80315" fill="none" stroke="black"/>
<path d="M63.9961,75.552h -6.80315" fill="none" stroke="black"/>
<path d="M70.7992,65.4901h -13.6063" fill="none" stroke="black"/>
<path d="M70.7992,65.4901h -13.6063" fill="none" stroke="black"/>
<path d="M63.9961,55.4282h -6.80315" fill="none" stroke="black"/>
<path d="M63.9961,45.3663h -6.80315" fill="none" stroke="black"/>
<text xml:space="preserve" x="46.7965" y="351.691" fill="black" font-size="12.8882" font-family="Helvetica">0</text>
<text xml:space="preserve" x="39.4865" y="311.08" fill="black" font-size="12.8882" font-family="Helvetica">20</text>
<text xml:space="preserve" x="39.4865" y="271.281" fill="black" font-size="12.8882" font-family="Helvetica">40</text>
<text xml:space="preserve" x="39.4865" y="230.67" fill="black" font-size="12.8882" font-family="Helvetica">60</text>
<text xml:space="preserve" x="39.4865" y="190.872" fill="black" font-size="12.8882" font-family="Helvetica">80</text>
<text xml:space="preserve" x="32.1766" y="150.261" fill="black" font-size="12.8882" font-family="Helvetica">100</text>
<text xml:space="preserve" x="32.1766" y="110.462" fill="black" font-size="12.8882" font-family="Helvetica">120</text>
<text xml:space="preserve" x="32.1766" y="69.8509" fill="black" font-size="12.8882" font-family="Helvetica">140</text>
<g transform="rotate(-90,21.6177,71.4753)">
<text xml:space="preserve" x="21.6177" y="71.4753" fill="black" font-size="12.8882" font-family="Helvetica">Event</text>
</g>
<text xml:space="preserve" x="253.1" y="18.681" fill="black" font-size="17.0471" font-family="Helvetica">0mm 34</text></svg>
