<?xml version="1.0" standalone="no"?>
<svg width="567.429" height="386.304" viewBox="0 0 567.429 386.304" xmlns="http://www.w3.org/2000/svg" shape-rendering="crispEdges">
<title>
img/week2/Combined670mm_ch_20_21_22_23.svg
</title>
<desc>
Creator: ROOT Version 6.22/08
CreationDate: Mon Jun 21 21:40:06 2021</desc>
<defs>
</defs>
<rect x="0.5" y="0" width="566.929" height="385.804" fill="white"/>
<rect x="57.1929" y="38.5804" width="453.543" height="308.643" fill="white"/>
<rect x="57.1929" y="38.5804" width="453.543" height="308.643" fill="none" stroke="black"/>
<rect x="57.1929" y="38.5804" width="453.543" height="308.643" fill="white"/>
<rect x="57.1929" y="38.5804" width="453.543" height="308.643" fill="none" stroke="black"/>
<path d="M57.1929,346.046h 30.2362v 1.1777h 60.4724v -2.3554h 60.4724v -21.1986h 30.2362v -73.0174h 30.2362v -187.254h 30.2362v 140.146h 30.2362v 140.146h 30.2362v 3.5331h 151.181" fill="none" stroke="#000099"/>
<g fill="#ff0000">
<polygon points=" 279.741, 59.1744 288.188, 59.1744 283.965, 67.6215"/>
</g>
<path d="M59.4606,347.224h 131.528l 4.53543, -0.0530025l 4.53543, -0.0707496l 4.53543, -0.152785l 4.53543, -0.314888l 4.53543, -0.619149l 4.53543, -1.16095l 4.53543, -2.07489l 4.53543, -3.53237l 4.53543, -5.724l 4.53543, -8.8202l 4.53543, -12.9084l
 4.53543, -17.9138l 4.53543, -23.5232l 4.53543, -29.1413l 4.53543, -33.9131l 4.53543, -36.8341l 4.53543, -36.9455l 4.53543, -33.5767l 4.53543, -26.5696l 4.53543, -16.4058" fill="none" stroke="#ff0000" stroke-width="2"/>
<path d="M281.697,56.9692l 4.53543, -4.18253l 4.53543, 8.57859l 4.53543, 20.2421l 4.53543, 29.4034l 4.53543, 35.1659l 4.53543, 37.2761l 4.53543, 36.0915l 4.53543, 32.4107l 4.53543, 27.2349l 4.53543, 21.5347l 4.53543, 16.0826l 4.53543, 11.3742l
 4.53543, 7.63259l 4.53543, 4.86673l 4.53543, 2.95192l 4.53543, 1.70474l 4.53543, 0.937996l 4.53543, 0.492024l 4.53543, 0.246161l 4.53543, 0.11751l 4.53543, 0.0535418l 4.53543, 0.0390605h 122.457" fill="none" stroke="#ff0000" stroke-width="2"/>
<path d="M503.933,347.224h 4.53543" fill="none" stroke="#ff0000" stroke-width="2"/>
<path d="M57.1929,347.224h 453.543" fill="none" stroke="black"/>
<path d="M129.869,337.964v 9.2593" fill="none" stroke="black"/>
<path d="M144.98,342.594v 4.62965" fill="none" stroke="black"/>
<path d="M160.09,342.594v 4.62965" fill="none" stroke="black"/>
<path d="M175.201,342.594v 4.62965" fill="none" stroke="black"/>
<path d="M190.312,342.594v 4.62965" fill="none" stroke="black"/>
<path d="M205.423,337.964v 9.2593" fill="none" stroke="black"/>
<path d="M220.533,342.594v 4.62965" fill="none" stroke="black"/>
<path d="M235.644,342.594v 4.62965" fill="none" stroke="black"/>
<path d="M250.755,342.594v 4.62965" fill="none" stroke="black"/>
<path d="M265.866,342.594v 4.62965" fill="none" stroke="black"/>
<path d="M280.976,337.964v 9.2593" fill="none" stroke="black"/>
<path d="M296.087,342.594v 4.62965" fill="none" stroke="black"/>
<path d="M311.198,342.594v 4.62965" fill="none" stroke="black"/>
<path d="M326.309,342.594v 4.62965" fill="none" stroke="black"/>
<path d="M341.419,342.594v 4.62965" fill="none" stroke="black"/>
<path d="M356.53,337.964v 9.2593" fill="none" stroke="black"/>
<path d="M371.641,342.594v 4.62965" fill="none" stroke="black"/>
<path d="M386.751,342.594v 4.62965" fill="none" stroke="black"/>
<path d="M401.862,342.594v 4.62965" fill="none" stroke="black"/>
<path d="M416.973,342.594v 4.62965" fill="none" stroke="black"/>
<path d="M432.084,337.964v 9.2593" fill="none" stroke="black"/>
<path d="M447.194,342.594v 4.62965" fill="none" stroke="black"/>
<path d="M462.305,342.594v 4.62965" fill="none" stroke="black"/>
<path d="M477.416,342.594v 4.62965" fill="none" stroke="black"/>
<path d="M492.527,342.594v 4.62965" fill="none" stroke="black"/>
<path d="M507.637,337.964v 9.2593" fill="none" stroke="black"/>
<path d="M129.869,337.964v 9.2593" fill="none" stroke="black"/>
<path d="M114.758,342.594v 4.62965" fill="none" stroke="black"/>
<path d="M99.6476,342.594v 4.62965" fill="none" stroke="black"/>
<path d="M84.5368,342.594v 4.62965" fill="none" stroke="black"/>
<path d="M69.4261,342.594v 4.62965" fill="none" stroke="black"/>
<path d="M507.637,337.964v 9.2593" fill="none" stroke="black"/>
<text xml:space="preserve" x="118.272" y="359.813" fill="black" font-size="12.8882" font-family="Helvetica">790</text>
<text xml:space="preserve" x="193.808" y="359.813" fill="black" font-size="12.8882" font-family="Helvetica">800</text>
<text xml:space="preserve" x="269.345" y="359.813" fill="black" font-size="12.8882" font-family="Helvetica">810</text>
<text xml:space="preserve" x="344.881" y="359.813" fill="black" font-size="12.8882" font-family="Helvetica">820</text>
<text xml:space="preserve" x="420.417" y="359.813" fill="black" font-size="12.8882" font-family="Helvetica">830</text>
<text xml:space="preserve" x="495.954" y="359.813" fill="black" font-size="12.8882" font-family="Helvetica">840</text>
<text xml:space="preserve" x="481.334" y="373.621" fill="black" font-size="12.8882" font-family="Helvetica">Time</text>
<path d="M57.1929,347.224v -308.643" fill="none" stroke="black"/>
<path d="M70.7992,347.224h -13.6063" fill="none" stroke="black"/>
<path d="M63.9961,335.447h -6.80315" fill="none" stroke="black"/>
<path d="M63.9961,323.67h -6.80315" fill="none" stroke="black"/>
<path d="M63.9961,311.893h -6.80315" fill="none" stroke="black"/>
<path d="M63.9961,300.116h -6.80315" fill="none" stroke="black"/>
<path d="M70.7992,288.339h -13.6063" fill="none" stroke="black"/>
<path d="M63.9961,276.562h -6.80315" fill="none" stroke="black"/>
<path d="M63.9961,264.785h -6.80315" fill="none" stroke="black"/>
<path d="M63.9961,253.008h -6.80315" fill="none" stroke="black"/>
<path d="M63.9961,241.231h -6.80315" fill="none" stroke="black"/>
<path d="M70.7992,229.454h -13.6063" fill="none" stroke="black"/>
<path d="M63.9961,217.677h -6.80315" fill="none" stroke="black"/>
<path d="M63.9961,205.9h -6.80315" fill="none" stroke="black"/>
<path d="M63.9961,194.123h -6.80315" fill="none" stroke="black"/>
<path d="M63.9961,182.346h -6.80315" fill="none" stroke="black"/>
<path d="M70.7992,170.569h -13.6063" fill="none" stroke="black"/>
<path d="M63.9961,158.792h -6.80315" fill="none" stroke="black"/>
<path d="M63.9961,147.015h -6.80315" fill="none" stroke="black"/>
<path d="M63.9961,135.238h -6.80315" fill="none" stroke="black"/>
<path d="M63.9961,123.461h -6.80315" fill="none" stroke="black"/>
<path d="M70.7992,111.684h -13.6063" fill="none" stroke="black"/>
<path d="M63.9961,99.9067h -6.80315" fill="none" stroke="black"/>
<path d="M63.9961,88.1296h -6.80315" fill="none" stroke="black"/>
<path d="M63.9961,76.3526h -6.80315" fill="none" stroke="black"/>
<path d="M63.9961,64.5756h -6.80315" fill="none" stroke="black"/>
<path d="M70.7992,52.7986h -13.6063" fill="none" stroke="black"/>
<path d="M70.7992,52.7986h -13.6063" fill="none" stroke="black"/>
<path d="M63.9961,41.0216h -6.80315" fill="none" stroke="black"/>
<text xml:space="preserve" x="46.7965" y="351.691" fill="black" font-size="12.8882" font-family="Helvetica">0</text>
<text xml:space="preserve" x="39.4865" y="293.211" fill="black" font-size="12.8882" font-family="Helvetica">50</text>
<text xml:space="preserve" x="32.1766" y="233.919" fill="black" font-size="12.8882" font-family="Helvetica">100</text>
<text xml:space="preserve" x="32.1766" y="175.439" fill="black" font-size="12.8882" font-family="Helvetica">150</text>
<text xml:space="preserve" x="32.1766" y="116.147" fill="black" font-size="12.8882" font-family="Helvetica">200</text>
<text xml:space="preserve" x="32.1766" y="57.6676" fill="black" font-size="12.8882" font-family="Helvetica">250</text>
<g transform="rotate(-90,21.6177,71.4753)">
<text xml:space="preserve" x="21.6177" y="71.4753" fill="black" font-size="12.8882" font-family="Helvetica">Event</text>
</g>
<text xml:space="preserve" x="208.428" y="18.681" fill="black" font-size="17.0471" font-family="Helvetica">670mm 20 21 22 23</text></svg>
