<?xml version="1.0" standalone="no"?>
<svg width="567.429" height="384.969" viewBox="0 0 567.429 384.969" xmlns="http://www.w3.org/2000/svg" shape-rendering="crispEdges">
<title>
img/week2/Combined140mm_ch_20_21_22_23.svg
</title>
<desc>
Creator: ROOT Version 6.22/09
CreationDate: Thu Jun 24 11:05:58 2021</desc>
<defs>
</defs>
<rect x="0.5" y="0" width="566.929" height="384.469" fill="white"/>
<rect x="57.1929" y="38.4469" width="453.543" height="307.575" fill="white"/>
<rect x="57.1929" y="38.4469" width="453.543" height="307.575" fill="none" stroke="black"/>
<rect x="57.1929" y="38.4469" width="453.543" height="307.575" fill="white"/>
<rect x="57.1929" y="38.4469" width="453.543" height="307.575" fill="none" stroke="black"/>
<path d="M57.1929,345.281h 60.4724v -0.740769h 30.2362v -0.740769h 60.4724v -16.2969h 30.2362v -50.3723h 30.2362v -207.415h 30.2362v 78.5215h 30.2362v 188.896h 30.2362v 8.88922h 151.181" fill="none" stroke="#000099"/>
<g fill="#ff0000">
<polygon points=" 279.729, 65.4799 288.2, 65.4799 283.965, 73.9512"/>
</g>
<path d="M59.4606,346.022h 136.063l 4.53543, -0.0344487l 4.53543, -0.0489208l 4.53543, -0.109494l 4.53543, -0.23362l 4.53543, -0.47501l 4.53543, -0.920018l 4.53543, -1.6966l 4.53543, -2.97714l 4.53543, -4.96756l 4.53543, -7.87445l 4.53543, -11.845l
 4.53543, -16.8827l 4.53543, -22.7554l 4.53543, -28.9259l 4.53543, -34.5437l 4.53543, -38.5321l 4.53543, -39.7781l 4.53543, -37.3978l 4.53543, -31.0096" fill="none" stroke="#ff0000" stroke-width="2"/>
<path d="M281.697,65.0146l 4.53543, -20.9238l 3.13215, -5.64386" fill="none" stroke="#ff0000" stroke-width="2"/>
<path d="M292.796,38.4469l 2.50737, 3.12619" fill="none" stroke="#ff0000" stroke-width="2"/>
<path d="M295.303,41.5731l 4.53543, 18.7355l 4.53543, 29.4094l 4.53543, 36.5237l 4.53543, 39.6318l 4.53543, 38.9984l 4.53543, 35.4342l 4.53543, 30.0312l 4.53543, 23.8901l 4.53543, 17.9126l 4.53543, 12.6954l 4.53543, 8.52288l 4.53543, 5.42824l
 4.53543, 3.28384l 4.53543, 1.8887l 4.53543, 1.03354l 4.53543, 0.538445l 4.53543, 0.267189l 4.53543, 0.12634l 4.53543, 0.0569452l 4.53543, 0.0406724h 122.457" fill="none" stroke="#ff0000" stroke-width="2"/>
<rect x="351.996" y="24.9905" width="204.094" height="107.651" fill="white"/>
<path d="M351.996,132.642h 204.094" fill="none" stroke="black"/>
<path d="M556.091,132.642v -107.651" fill="none" stroke="black"/>
<path d="M556.091,24.9905h -204.094" fill="none" stroke="black"/>
<path d="M351.996,24.9905v 107.651" fill="none" stroke="black"/>
<text xml:space="preserve" x="362.162" y="39.0986" fill="black" font-size="15.6436" font-family="Helvetica">Entries </text>
<text xml:space="preserve" x="515.298" y="39.0986" fill="black" font-size="15.6436" font-family="Helvetica"> 785</text>
<text xml:space="preserve" x="376.009" y="57.0187" fill="black" font-size="15.6436" font-family="Helvetica"> / ndf </text>
<text xml:space="preserve" x="370.307" y="52.1314" fill="black" font-size="10.5957" font-family="Helvetica">2</text>
<text xml:space="preserve" x="362.162" y="57.0187" fill="black" font-size="15.6436" font-family="Times">&#0967;</text>
<text xml:space="preserve" x="481.086" y="57.0187" fill="black" font-size="15.6436" font-family="Helvetica"> 39.97 / 8</text>
<text xml:space="preserve" x="362.162" y="74.9389" fill="black" font-size="15.6436" font-family="Helvetica">Prob  </text>
<text xml:space="preserve" x="528.331" y="74.9389" fill="black" font-size="15.6436" font-family="Helvetica">06</text>
<text xml:space="preserve" x="519.37" y="74.9389" fill="black" font-size="15.6436" font-family="Times">&#8722;</text>
<text xml:space="preserve" x="468.054" y="74.9389" fill="black" font-size="15.6436" font-family="Helvetica"> 3.241e</text>
<text xml:space="preserve" x="362.162" y="93.6736" fill="black" font-size="15.6436" font-family="Helvetica">Const    </text>
<text xml:space="preserve" x="513.669" y="92.8591" fill="black" font-size="15.6436" font-family="Helvetica"> 19.1</text>
<text xml:space="preserve" x="504.709" y="92.8591" fill="black" font-size="15.6436" font-family="Times">&#0177;</text>
<text xml:space="preserve" x="456.65" y="92.8591" fill="black" font-size="15.6436" font-family="Helvetica"> 418.7 </text>
<text xml:space="preserve" x="362.162" y="110.779" fill="black" font-size="15.6436" font-family="Helvetica">Mean     </text>
<text xml:space="preserve" x="522.629" y="110.779" fill="black" font-size="15.6436" font-family="Helvetica"> 0.1</text>
<text xml:space="preserve" x="513.669" y="110.779" fill="black" font-size="15.6436" font-family="Times">&#0177;</text>
<text xml:space="preserve" x="466.425" y="110.779" fill="black" font-size="15.6436" font-family="Helvetica"> 807.3 </text>
<text xml:space="preserve" x="362.162" y="127.885" fill="black" font-size="15.6436" font-family="Helvetica">Sigma    </text>
<text xml:space="preserve" x="502.265" y="128.699" fill="black" font-size="15.6436" font-family="Helvetica"> 0.077</text>
<text xml:space="preserve" x="493.305" y="128.699" fill="black" font-size="15.6436" font-family="Times">&#0177;</text>
<text xml:space="preserve" x="446.061" y="128.699" fill="black" font-size="15.6436" font-family="Helvetica"> 2.826 </text>
<path d="M57.1929,346.022h 453.543" fill="none" stroke="black"/>
<path d="M84.5516,336.795v 9.22726" fill="none" stroke="black"/>
<path d="M99.6623,341.409v 4.61363" fill="none" stroke="black"/>
<path d="M114.773,341.409v 4.61363" fill="none" stroke="black"/>
<path d="M129.884,341.409v 4.61363" fill="none" stroke="black"/>
<path d="M144.995,341.409v 4.61363" fill="none" stroke="black"/>
<path d="M160.105,336.795v 9.22726" fill="none" stroke="black"/>
<path d="M175.216,341.409v 4.61363" fill="none" stroke="black"/>
<path d="M190.327,341.409v 4.61363" fill="none" stroke="black"/>
<path d="M205.437,341.409v 4.61363" fill="none" stroke="black"/>
<path d="M220.548,341.409v 4.61363" fill="none" stroke="black"/>
<path d="M235.659,336.795v 9.22726" fill="none" stroke="black"/>
<path d="M250.77,341.409v 4.61363" fill="none" stroke="black"/>
<path d="M265.88,341.409v 4.61363" fill="none" stroke="black"/>
<path d="M280.991,341.409v 4.61363" fill="none" stroke="black"/>
<path d="M296.102,341.409v 4.61363" fill="none" stroke="black"/>
<path d="M311.213,336.795v 9.22726" fill="none" stroke="black"/>
<path d="M326.323,341.409v 4.61363" fill="none" stroke="black"/>
<path d="M341.434,341.409v 4.61363" fill="none" stroke="black"/>
<path d="M356.545,341.409v 4.61363" fill="none" stroke="black"/>
<path d="M371.656,341.409v 4.61363" fill="none" stroke="black"/>
<path d="M386.766,336.795v 9.22726" fill="none" stroke="black"/>
<path d="M401.877,341.409v 4.61363" fill="none" stroke="black"/>
<path d="M416.988,341.409v 4.61363" fill="none" stroke="black"/>
<path d="M432.098,341.409v 4.61363" fill="none" stroke="black"/>
<path d="M447.209,341.409v 4.61363" fill="none" stroke="black"/>
<path d="M462.32,336.795v 9.22726" fill="none" stroke="black"/>
<path d="M84.5516,336.795v 9.22726" fill="none" stroke="black"/>
<path d="M69.4409,341.409v 4.61363" fill="none" stroke="black"/>
<path d="M462.32,336.795v 9.22726" fill="none" stroke="black"/>
<path d="M477.431,341.409v 4.61363" fill="none" stroke="black"/>
<path d="M492.541,341.409v 4.61363" fill="none" stroke="black"/>
<path d="M507.652,341.409v 4.61363" fill="none" stroke="black"/>
<text xml:space="preserve" x="73.8098" y="358.403" fill="black" font-size="12.8453" font-family="Helvetica">780</text>
<text xml:space="preserve" x="148.749" y="358.403" fill="black" font-size="12.8453" font-family="Helvetica">790</text>
<text xml:space="preserve" x="224.502" y="358.403" fill="black" font-size="12.8453" font-family="Helvetica">800</text>
<text xml:space="preserve" x="300.256" y="358.403" fill="black" font-size="12.8453" font-family="Helvetica">810</text>
<text xml:space="preserve" x="376.009" y="358.403" fill="black" font-size="12.8453" font-family="Helvetica">820</text>
<text xml:space="preserve" x="450.948" y="358.403" fill="black" font-size="12.8453" font-family="Helvetica">830</text>
<text xml:space="preserve" x="460.723" y="370.622" fill="black" font-size="12.8453" font-family="Helvetica">Time [ps]</text>
<path d="M57.1929,346.022v -307.575" fill="none" stroke="black"/>
<path d="M70.7992,346.022h -13.6063" fill="none" stroke="black"/>
<path d="M63.9961,338.615h -6.80315" fill="none" stroke="black"/>
<path d="M63.9961,331.207h -6.80315" fill="none" stroke="black"/>
<path d="M63.9961,323.799h -6.80315" fill="none" stroke="black"/>
<path d="M63.9961,316.392h -6.80315" fill="none" stroke="black"/>
<path d="M70.7992,308.984h -13.6063" fill="none" stroke="black"/>
<path d="M63.9961,301.576h -6.80315" fill="none" stroke="black"/>
<path d="M63.9961,294.168h -6.80315" fill="none" stroke="black"/>
<path d="M63.9961,286.761h -6.80315" fill="none" stroke="black"/>
<path d="M63.9961,279.353h -6.80315" fill="none" stroke="black"/>
<path d="M70.7992,271.945h -13.6063" fill="none" stroke="black"/>
<path d="M63.9961,264.538h -6.80315" fill="none" stroke="black"/>
<path d="M63.9961,257.13h -6.80315" fill="none" stroke="black"/>
<path d="M63.9961,249.722h -6.80315" fill="none" stroke="black"/>
<path d="M63.9961,242.315h -6.80315" fill="none" stroke="black"/>
<path d="M70.7992,234.907h -13.6063" fill="none" stroke="black"/>
<path d="M63.9961,227.499h -6.80315" fill="none" stroke="black"/>
<path d="M63.9961,220.092h -6.80315" fill="none" stroke="black"/>
<path d="M63.9961,212.684h -6.80315" fill="none" stroke="black"/>
<path d="M63.9961,205.276h -6.80315" fill="none" stroke="black"/>
<path d="M70.7992,197.869h -13.6063" fill="none" stroke="black"/>
<path d="M63.9961,190.461h -6.80315" fill="none" stroke="black"/>
<path d="M63.9961,183.053h -6.80315" fill="none" stroke="black"/>
<path d="M63.9961,175.645h -6.80315" fill="none" stroke="black"/>
<path d="M63.9961,168.238h -6.80315" fill="none" stroke="black"/>
<path d="M70.7992,160.83h -13.6063" fill="none" stroke="black"/>
<path d="M63.9961,153.422h -6.80315" fill="none" stroke="black"/>
<path d="M63.9961,146.015h -6.80315" fill="none" stroke="black"/>
<path d="M63.9961,138.607h -6.80315" fill="none" stroke="black"/>
<path d="M63.9961,131.199h -6.80315" fill="none" stroke="black"/>
<path d="M70.7992,123.792h -13.6063" fill="none" stroke="black"/>
<path d="M63.9961,116.384h -6.80315" fill="none" stroke="black"/>
<path d="M63.9961,108.976h -6.80315" fill="none" stroke="black"/>
<path d="M63.9961,101.569h -6.80315" fill="none" stroke="black"/>
<path d="M63.9961,94.1609h -6.80315" fill="none" stroke="black"/>
<path d="M70.7992,86.7532h -13.6063" fill="none" stroke="black"/>
<path d="M63.9961,79.3455h -6.80315" fill="none" stroke="black"/>
<path d="M63.9961,71.9379h -6.80315" fill="none" stroke="black"/>
<path d="M63.9961,64.5302h -6.80315" fill="none" stroke="black"/>
<path d="M63.9961,57.1225h -6.80315" fill="none" stroke="black"/>
<path d="M70.7992,49.7148h -13.6063" fill="none" stroke="black"/>
<path d="M70.7992,49.7148h -13.6063" fill="none" stroke="black"/>
<path d="M63.9961,42.3071h -6.80315" fill="none" stroke="black"/>
<text xml:space="preserve" x="47.7441" y="350.258" fill="black" font-size="12.8453" font-family="Helvetica">0</text>
<text xml:space="preserve" x="41.2277" y="313.603" fill="black" font-size="12.8453" font-family="Helvetica">50</text>
<text xml:space="preserve" x="33.8967" y="276.134" fill="black" font-size="12.8453" font-family="Helvetica">100</text>
<text xml:space="preserve" x="33.8967" y="239.479" fill="black" font-size="12.8453" font-family="Helvetica">150</text>
<text xml:space="preserve" x="33.8967" y="202.009" fill="black" font-size="12.8453" font-family="Helvetica">200</text>
<text xml:space="preserve" x="33.8967" y="165.354" fill="black" font-size="12.8453" font-family="Helvetica">250</text>
<text xml:space="preserve" x="33.8967" y="127.885" fill="black" font-size="12.8453" font-family="Helvetica">300</text>
<text xml:space="preserve" x="33.8967" y="91.23" fill="black" font-size="12.8453" font-family="Helvetica">350</text>
<text xml:space="preserve" x="33.8967" y="54.5751" fill="black" font-size="12.8453" font-family="Helvetica">400</text>
<g transform="rotate(-90,20.8638,70.0516)">
<text xml:space="preserve" x="20.8638" y="70.0516" fill="black" font-size="12.8453" font-family="Helvetica">Event</text>
</g>
<rect x="351.996" y="24.9905" width="204.094" height="107.651" fill="white"/>
<path d="M351.996,132.642h 204.094" fill="none" stroke="black"/>
<path d="M556.091,132.642v -107.651" fill="none" stroke="black"/>
<path d="M556.091,24.9905h -204.094" fill="none" stroke="black"/>
<path d="M351.996,24.9905v 107.651" fill="none" stroke="black"/>
<text xml:space="preserve" x="362.162" y="39.0986" fill="black" font-size="15.6436" font-family="Helvetica">Entries </text>
<text xml:space="preserve" x="515.298" y="39.0986" fill="black" font-size="15.6436" font-family="Helvetica"> 785</text>
<text xml:space="preserve" x="376.009" y="57.0187" fill="black" font-size="15.6436" font-family="Helvetica"> / ndf </text>
<text xml:space="preserve" x="370.307" y="52.1314" fill="black" font-size="10.5957" font-family="Helvetica">2</text>
<text xml:space="preserve" x="362.162" y="57.0187" fill="black" font-size="15.6436" font-family="Times">&#0967;</text>
<text xml:space="preserve" x="481.086" y="57.0187" fill="black" font-size="15.6436" font-family="Helvetica"> 39.97 / 8</text>
<text xml:space="preserve" x="362.162" y="74.9389" fill="black" font-size="15.6436" font-family="Helvetica">Prob  </text>
<text xml:space="preserve" x="528.331" y="74.9389" fill="black" font-size="15.6436" font-family="Helvetica">06</text>
<text xml:space="preserve" x="519.37" y="74.9389" fill="black" font-size="15.6436" font-family="Times">&#8722;</text>
<text xml:space="preserve" x="468.054" y="74.9389" fill="black" font-size="15.6436" font-family="Helvetica"> 3.241e</text>
<text xml:space="preserve" x="362.162" y="93.6736" fill="black" font-size="15.6436" font-family="Helvetica">Const    </text>
<text xml:space="preserve" x="513.669" y="92.8591" fill="black" font-size="15.6436" font-family="Helvetica"> 19.1</text>
<text xml:space="preserve" x="504.709" y="92.8591" fill="black" font-size="15.6436" font-family="Times">&#0177;</text>
<text xml:space="preserve" x="456.65" y="92.8591" fill="black" font-size="15.6436" font-family="Helvetica"> 418.7 </text>
<text xml:space="preserve" x="362.162" y="110.779" fill="black" font-size="15.6436" font-family="Helvetica">Mean     </text>
<text xml:space="preserve" x="522.629" y="110.779" fill="black" font-size="15.6436" font-family="Helvetica"> 0.1</text>
<text xml:space="preserve" x="513.669" y="110.779" fill="black" font-size="15.6436" font-family="Times">&#0177;</text>
<text xml:space="preserve" x="466.425" y="110.779" fill="black" font-size="15.6436" font-family="Helvetica"> 807.3 </text>
<text xml:space="preserve" x="362.162" y="127.885" fill="black" font-size="15.6436" font-family="Helvetica">Sigma    </text>
<text xml:space="preserve" x="502.265" y="128.699" fill="black" font-size="15.6436" font-family="Helvetica"> 0.077</text>
<text xml:space="preserve" x="493.305" y="128.699" fill="black" font-size="15.6436" font-family="Times">&#0177;</text>
<text xml:space="preserve" x="446.061" y="128.699" fill="black" font-size="15.6436" font-family="Helvetica"> 2.826 </text>
<text xml:space="preserve" x="208.211" y="18.7347" fill="black" font-size="16.9898" font-family="Helvetica">140mm 20 21 22 23</text></svg>
