<?xml version="1.0" standalone="no"?>
<svg width="567.429" height="384.969" viewBox="0 0 567.429 384.969" xmlns="http://www.w3.org/2000/svg" shape-rendering="crispEdges">
<title>
img/week2/Combined420mm_ch_48_49_50_51.svg
</title>
<desc>
Creator: ROOT Version 6.22/09
CreationDate: Thu Jun 24 12:07:27 2021</desc>
<defs>
</defs>
<rect x="0.5" y="0" width="566.929" height="384.469" fill="white"/>
<rect x="57.1929" y="38.4469" width="453.543" height="307.575" fill="white"/>
<rect x="57.1929" y="38.4469" width="453.543" height="307.575" fill="none" stroke="black"/>
<rect x="57.1929" y="38.4469" width="453.543" height="307.575" fill="white"/>
<rect x="57.1929" y="38.4469" width="453.543" height="307.575" fill="none" stroke="black"/>
<path d="M57.1929,346.022h 64.7919v -1.19618h 32.396v -2.39235h 32.396v -8.37324h 32.396v -37.0815h 32.396v -217.704h 32.396v -8.37324h 32.396v 260.767h 32.396v 14.3541h 161.98" fill="none" stroke="#000099"/>
<g fill="#ff0000">
<polygon points=" 263.531, 75.0391 272.002, 75.0391 267.767, 83.5105"/>
</g>
<path d="M59.4606,346.022h 126.992l 4.53543, -0.0610828l 4.53543, -0.0818246l 4.53543, -0.177087l 4.53543, -0.365782l 4.53543, -0.720838l 4.53543, -1.35472l 4.53543, -2.42686l 4.53543, -4.14146l 4.53543, -6.72744l 4.53543, -10.3926l 4.53543,
 -15.2494l 4.53543, -21.2203l 4.53543, -27.9452l 4.53543, -34.726l 4.53543, -40.5484l 4.53543, -44.209l 4.53543, -44.5447l 4.53543, -40.7238l 1.66796, -11.959" fill="none" stroke="#ff0000" stroke-width="2"/>
<path d="M292.548,38.4469l 2.75501, 21.1887" fill="none" stroke="#ff0000" stroke-width="2"/>
<path d="M295.303,59.6356l 4.53543, 42.0494l 4.53543, 44.8208l 4.53543, 43.5899l 4.53543, 39.2957l 4.53543, 33.1361l 4.53543, 26.2867l 4.53543, 19.6928l 4.53543, 13.9696l 4.53543, 9.40186l 4.53543, 6.01223l 4.53543, 3.65716l 4.53543, 2.11799l
 4.53543, 1.16866l 4.53543, 0.61474l 4.53543, 0.308417l 4.53543, 0.14764l 4.53543, 0.0674581l 4.53543, 0.0494403h 131.528" fill="none" stroke="#ff0000" stroke-width="2"/>
<path d="M57.1929,346.022h 453.543" fill="none" stroke="black"/>
<path d="M135.06,336.795v 9.22726" fill="none" stroke="black"/>
<path d="M151.25,341.409v 4.61363" fill="none" stroke="black"/>
<path d="M167.44,341.409v 4.61363" fill="none" stroke="black"/>
<path d="M183.63,341.409v 4.61363" fill="none" stroke="black"/>
<path d="M199.82,341.409v 4.61363" fill="none" stroke="black"/>
<path d="M216.011,336.795v 9.22726" fill="none" stroke="black"/>
<path d="M232.201,341.409v 4.61363" fill="none" stroke="black"/>
<path d="M248.391,341.409v 4.61363" fill="none" stroke="black"/>
<path d="M264.581,341.409v 4.61363" fill="none" stroke="black"/>
<path d="M280.771,341.409v 4.61363" fill="none" stroke="black"/>
<path d="M296.961,336.795v 9.22726" fill="none" stroke="black"/>
<path d="M313.151,341.409v 4.61363" fill="none" stroke="black"/>
<path d="M329.341,341.409v 4.61363" fill="none" stroke="black"/>
<path d="M345.531,341.409v 4.61363" fill="none" stroke="black"/>
<path d="M361.721,341.409v 4.61363" fill="none" stroke="black"/>
<path d="M377.911,336.795v 9.22726" fill="none" stroke="black"/>
<path d="M394.101,341.409v 4.61363" fill="none" stroke="black"/>
<path d="M410.291,341.409v 4.61363" fill="none" stroke="black"/>
<path d="M426.481,341.409v 4.61363" fill="none" stroke="black"/>
<path d="M442.672,341.409v 4.61363" fill="none" stroke="black"/>
<path d="M458.862,336.795v 9.22726" fill="none" stroke="black"/>
<path d="M135.06,336.795v 9.22726" fill="none" stroke="black"/>
<path d="M118.87,341.409v 4.61363" fill="none" stroke="black"/>
<path d="M102.68,341.409v 4.61363" fill="none" stroke="black"/>
<path d="M86.49,341.409v 4.61363" fill="none" stroke="black"/>
<path d="M70.2999,341.409v 4.61363" fill="none" stroke="black"/>
<path d="M458.862,336.795v 9.22726" fill="none" stroke="black"/>
<path d="M475.052,341.409v 4.61363" fill="none" stroke="black"/>
<path d="M491.242,341.409v 4.61363" fill="none" stroke="black"/>
<path d="M507.432,341.409v 4.61363" fill="none" stroke="black"/>
<text xml:space="preserve" x="124.312" y="358.403" fill="black" font-size="12.8453" font-family="Helvetica">790</text>
<text xml:space="preserve" x="204.953" y="358.403" fill="black" font-size="12.8453" font-family="Helvetica">800</text>
<text xml:space="preserve" x="285.594" y="358.403" fill="black" font-size="12.8453" font-family="Helvetica">810</text>
<text xml:space="preserve" x="367.049" y="358.403" fill="black" font-size="12.8453" font-family="Helvetica">820</text>
<text xml:space="preserve" x="447.69" y="358.403" fill="black" font-size="12.8453" font-family="Helvetica">830</text>
<text xml:space="preserve" x="460.723" y="370.622" fill="black" font-size="12.8453" font-family="Helvetica">Time [ps]</text>
<path d="M57.1929,346.022v -307.575" fill="none" stroke="black"/>
<path d="M70.7992,346.022h -13.6063" fill="none" stroke="black"/>
<path d="M63.9961,334.06h -6.80315" fill="none" stroke="black"/>
<path d="M63.9961,322.099h -6.80315" fill="none" stroke="black"/>
<path d="M63.9961,310.137h -6.80315" fill="none" stroke="black"/>
<path d="M63.9961,298.175h -6.80315" fill="none" stroke="black"/>
<path d="M70.7992,286.213h -13.6063" fill="none" stroke="black"/>
<path d="M63.9961,274.252h -6.80315" fill="none" stroke="black"/>
<path d="M63.9961,262.29h -6.80315" fill="none" stroke="black"/>
<path d="M63.9961,250.328h -6.80315" fill="none" stroke="black"/>
<path d="M63.9961,238.366h -6.80315" fill="none" stroke="black"/>
<path d="M70.7992,226.405h -13.6063" fill="none" stroke="black"/>
<path d="M63.9961,214.443h -6.80315" fill="none" stroke="black"/>
<path d="M63.9961,202.481h -6.80315" fill="none" stroke="black"/>
<path d="M63.9961,190.519h -6.80315" fill="none" stroke="black"/>
<path d="M63.9961,178.557h -6.80315" fill="none" stroke="black"/>
<path d="M70.7992,166.596h -13.6063" fill="none" stroke="black"/>
<path d="M63.9961,154.634h -6.80315" fill="none" stroke="black"/>
<path d="M63.9961,142.672h -6.80315" fill="none" stroke="black"/>
<path d="M63.9961,130.71h -6.80315" fill="none" stroke="black"/>
<path d="M63.9961,118.749h -6.80315" fill="none" stroke="black"/>
<path d="M70.7992,106.787h -13.6063" fill="none" stroke="black"/>
<path d="M63.9961,94.8251h -6.80315" fill="none" stroke="black"/>
<path d="M63.9961,82.8634h -6.80315" fill="none" stroke="black"/>
<path d="M63.9961,70.9016h -6.80315" fill="none" stroke="black"/>
<path d="M63.9961,58.9398h -6.80315" fill="none" stroke="black"/>
<path d="M70.7992,46.9781h -13.6063" fill="none" stroke="black"/>
<path d="M70.7992,46.9781h -13.6063" fill="none" stroke="black"/>
<text xml:space="preserve" x="47.7441" y="350.258" fill="black" font-size="12.8453" font-family="Helvetica">0</text>
<text xml:space="preserve" x="41.2277" y="290.796" fill="black" font-size="12.8453" font-family="Helvetica">50</text>
<text xml:space="preserve" x="33.8967" y="230.519" fill="black" font-size="12.8453" font-family="Helvetica">100</text>
<text xml:space="preserve" x="33.8967" y="171.056" fill="black" font-size="12.8453" font-family="Helvetica">150</text>
<text xml:space="preserve" x="33.8967" y="111.594" fill="black" font-size="12.8453" font-family="Helvetica">200</text>
<text xml:space="preserve" x="33.8967" y="51.3169" fill="black" font-size="12.8453" font-family="Helvetica">250</text>
<g transform="rotate(-90,20.8638,70.0516)">
<text xml:space="preserve" x="20.8638" y="70.0516" fill="black" font-size="12.8453" font-family="Helvetica">Event</text>
</g>
<text xml:space="preserve" x="209.026" y="18.7347" fill="black" font-size="16.9898" font-family="Helvetica">420mm 48 49 50 51</text></svg>
