<?xml version="1.0" standalone="no"?>
<svg width="567.429" height="386.304" viewBox="0 0 567.429 386.304" xmlns="http://www.w3.org/2000/svg" shape-rendering="crispEdges">
<title>
img/week2/Combined420mm_ch_36_37_38_39.svg
</title>
<desc>
Creator: ROOT Version 6.22/08
CreationDate: Thu Jun 24 11:56:26 2021</desc>
<defs>
</defs>
<rect x="0.5" y="0" width="566.929" height="385.804" fill="white"/>
<rect x="57.1929" y="38.5804" width="453.543" height="308.643" fill="white"/>
<rect x="57.1929" y="38.5804" width="453.543" height="308.643" fill="none" stroke="black"/>
<rect x="57.1929" y="38.5804" width="453.543" height="308.643" fill="white"/>
<rect x="57.1929" y="38.5804" width="453.543" height="308.643" fill="none" stroke="black"/>
<path d="M57.1929,347.224h 64.7919v -0.718695h 32.396v -2.15608h 32.396v -3.59347h 32.396v -17.9674h 32.396v -174.643h 32.396v -94.8677h 32.396v 266.636h 32.396v 26.5917h 32.396v 0.718695h 129.584" fill="none" stroke="#000099"/>
<g fill="#ff0000">
<polygon points=" 295.939, 49.0542 304.386, 49.0542 300.163, 57.5013"/>
</g>
<path d="M59.4606,347.224h 136.063l 4.53543, -0.0614525l 4.53543, -0.0852704l 4.53543, -0.187686l 4.53543, -0.393172l 4.53543, -0.783565l 4.53543, -1.48494l 4.53543, -2.67445l 4.53543, -4.57457l 4.53543, -7.42467l 4.53543, -11.4218l 4.53543,
 -16.6306l 4.53543, -22.8754l 4.53543, -29.648l 4.53543, -36.074l 4.53543, -40.9829l 4.53543, -43.1007l 4.53543, -41.3449l 4.53543, -35.1473l 2.524, -13.748" fill="none" stroke="#ff0000" stroke-width="2"/>
<path d="M295.113,38.5804l 0.18995, 0.782719" fill="none" stroke="#ff0000" stroke-width="2"/>
<path d="M295.303,39.3631l 4.53543, 30.7957l 4.53543, 39.0351l 4.53543, 42.8192l 4.53543, 42.3844l 4.53543, 38.6135l 4.53543, 32.7323l 4.53543, 25.9905l 4.53543, 19.4157l 4.53543, 13.6869l 4.53543, 9.12473l 4.53543, 5.76235l 4.53543, 3.45131l
 4.53543, 1.96243l 4.53543, 1.06014l 4.53543, 0.544457l 4.53543, 0.265962l 4.53543, 0.123627l 4.53543, 0.054702l 4.53543, 0.0377804h 126.992" fill="none" stroke="#ff0000" stroke-width="2"/>
<rect x="351.996" y="25.0773" width="204.094" height="108.025" fill="white"/>
<path d="M351.996,133.102h 204.094" fill="none" stroke="black"/>
<path d="M556.091,133.102v -108.025" fill="none" stroke="black"/>
<path d="M556.091,25.0773h -204.094" fill="none" stroke="black"/>
<path d="M351.996,25.0773v 108.025" fill="none" stroke="black"/>
<text xml:space="preserve" x="361.938" y="38.9865" fill="black" font-size="15.6962" font-family="Helvetica">Entries </text>
<text xml:space="preserve" x="515.447" y="38.9865" fill="black" font-size="15.6962" font-family="Helvetica"> 776</text>
<text xml:space="preserve" x="375.745" y="57.6676" fill="black" font-size="15.6962" font-family="Helvetica"> / ndf </text>
<text xml:space="preserve" x="370.06" y="52.7943" fill="black" font-size="10.6308" font-family="Helvetica">2</text>
<text xml:space="preserve" x="361.938" y="57.6676" fill="black" font-size="15.6962" font-family="Times">&#0967;</text>
<text xml:space="preserve" x="481.334" y="57.6676" fill="black" font-size="15.6962" font-family="Helvetica"> 23.32 / 5</text>
<text xml:space="preserve" x="361.938" y="75.5364" fill="black" font-size="15.6962" font-family="Helvetica">Prob  </text>
<text xml:space="preserve" x="468.338" y="75.5364" fill="black" font-size="15.6962" font-family="Helvetica"> 0.0002929</text>
<text xml:space="preserve" x="361.938" y="94.2175" fill="black" font-size="15.6962" font-family="Helvetica">Const    </text>
<text xml:space="preserve" x="511.386" y="93.4052" fill="black" font-size="15.6962" font-family="Helvetica"> 22.6</text>
<text xml:space="preserve" x="502.452" y="93.4052" fill="black" font-size="15.6962" font-family="Times">&#0177;</text>
<text xml:space="preserve" x="454.531" y="93.4052" fill="black" font-size="15.6962" font-family="Helvetica"> 460.6 </text>
<text xml:space="preserve" x="361.938" y="111.274" fill="black" font-size="15.6962" font-family="Helvetica">Mean     </text>
<text xml:space="preserve" x="522.757" y="111.274" fill="black" font-size="15.6962" font-family="Helvetica"> 0.1</text>
<text xml:space="preserve" x="513.823" y="111.274" fill="black" font-size="15.6962" font-family="Times">&#0177;</text>
<text xml:space="preserve" x="465.902" y="111.274" fill="black" font-size="15.6962" font-family="Helvetica"> 808.8 </text>
<text xml:space="preserve" x="361.938" y="128.331" fill="black" font-size="15.6962" font-family="Helvetica">Sigma    </text>
<text xml:space="preserve" x="502.452" y="129.143" fill="black" font-size="15.6962" font-family="Helvetica"> 0.084</text>
<text xml:space="preserve" x="493.517" y="129.143" fill="black" font-size="15.6962" font-family="Times">&#0177;</text>
<text xml:space="preserve" x="445.596" y="129.143" fill="black" font-size="15.6962" font-family="Helvetica"> 2.599 </text>
<path d="M57.1929,347.224h 453.543" fill="none" stroke="black"/>
<path d="M135.06,337.964v 9.2593" fill="none" stroke="black"/>
<path d="M151.25,342.594v 4.62965" fill="none" stroke="black"/>
<path d="M167.44,342.594v 4.62965" fill="none" stroke="black"/>
<path d="M183.63,342.594v 4.62965" fill="none" stroke="black"/>
<path d="M199.82,342.594v 4.62965" fill="none" stroke="black"/>
<path d="M216.011,337.964v 9.2593" fill="none" stroke="black"/>
<path d="M232.201,342.594v 4.62965" fill="none" stroke="black"/>
<path d="M248.391,342.594v 4.62965" fill="none" stroke="black"/>
<path d="M264.581,342.594v 4.62965" fill="none" stroke="black"/>
<path d="M280.771,342.594v 4.62965" fill="none" stroke="black"/>
<path d="M296.961,337.964v 9.2593" fill="none" stroke="black"/>
<path d="M313.151,342.594v 4.62965" fill="none" stroke="black"/>
<path d="M329.341,342.594v 4.62965" fill="none" stroke="black"/>
<path d="M345.531,342.594v 4.62965" fill="none" stroke="black"/>
<path d="M361.721,342.594v 4.62965" fill="none" stroke="black"/>
<path d="M377.911,337.964v 9.2593" fill="none" stroke="black"/>
<path d="M394.101,342.594v 4.62965" fill="none" stroke="black"/>
<path d="M410.291,342.594v 4.62965" fill="none" stroke="black"/>
<path d="M426.481,342.594v 4.62965" fill="none" stroke="black"/>
<path d="M442.672,342.594v 4.62965" fill="none" stroke="black"/>
<path d="M458.862,337.964v 9.2593" fill="none" stroke="black"/>
<path d="M135.06,337.964v 9.2593" fill="none" stroke="black"/>
<path d="M118.87,342.594v 4.62965" fill="none" stroke="black"/>
<path d="M102.68,342.594v 4.62965" fill="none" stroke="black"/>
<path d="M86.49,342.594v 4.62965" fill="none" stroke="black"/>
<path d="M70.2999,342.594v 4.62965" fill="none" stroke="black"/>
<path d="M458.862,337.964v 9.2593" fill="none" stroke="black"/>
<path d="M475.052,342.594v 4.62965" fill="none" stroke="black"/>
<path d="M491.242,342.594v 4.62965" fill="none" stroke="black"/>
<path d="M507.432,342.594v 4.62965" fill="none" stroke="black"/>
<text xml:space="preserve" x="123.145" y="359.813" fill="black" font-size="12.8882" font-family="Helvetica">790</text>
<text xml:space="preserve" x="204.367" y="359.813" fill="black" font-size="12.8882" font-family="Helvetica">800</text>
<text xml:space="preserve" x="285.589" y="359.813" fill="black" font-size="12.8882" font-family="Helvetica">810</text>
<text xml:space="preserve" x="365.999" y="359.813" fill="black" font-size="12.8882" font-family="Helvetica">820</text>
<text xml:space="preserve" x="447.221" y="359.813" fill="black" font-size="12.8882" font-family="Helvetica">830</text>
<text xml:space="preserve" x="457.78" y="372.809" fill="black" font-size="12.8882" font-family="Helvetica">Time [ns]</text>
<path d="M57.1929,347.224v -308.643" fill="none" stroke="black"/>
<path d="M70.7992,347.224h -13.6063" fill="none" stroke="black"/>
<path d="M63.9961,340.037h -6.80315" fill="none" stroke="black"/>
<path d="M63.9961,332.85h -6.80315" fill="none" stroke="black"/>
<path d="M63.9961,325.663h -6.80315" fill="none" stroke="black"/>
<path d="M63.9961,318.476h -6.80315" fill="none" stroke="black"/>
<path d="M70.7992,311.289h -13.6063" fill="none" stroke="black"/>
<path d="M63.9961,304.102h -6.80315" fill="none" stroke="black"/>
<path d="M63.9961,296.915h -6.80315" fill="none" stroke="black"/>
<path d="M63.9961,289.728h -6.80315" fill="none" stroke="black"/>
<path d="M63.9961,282.541h -6.80315" fill="none" stroke="black"/>
<path d="M70.7992,275.354h -13.6063" fill="none" stroke="black"/>
<path d="M63.9961,268.167h -6.80315" fill="none" stroke="black"/>
<path d="M63.9961,260.98h -6.80315" fill="none" stroke="black"/>
<path d="M63.9961,253.794h -6.80315" fill="none" stroke="black"/>
<path d="M63.9961,246.607h -6.80315" fill="none" stroke="black"/>
<path d="M70.7992,239.42h -13.6063" fill="none" stroke="black"/>
<path d="M63.9961,232.233h -6.80315" fill="none" stroke="black"/>
<path d="M63.9961,225.046h -6.80315" fill="none" stroke="black"/>
<path d="M63.9961,217.859h -6.80315" fill="none" stroke="black"/>
<path d="M63.9961,210.672h -6.80315" fill="none" stroke="black"/>
<path d="M70.7992,203.485h -13.6063" fill="none" stroke="black"/>
<path d="M63.9961,196.298h -6.80315" fill="none" stroke="black"/>
<path d="M63.9961,189.111h -6.80315" fill="none" stroke="black"/>
<path d="M63.9961,181.924h -6.80315" fill="none" stroke="black"/>
<path d="M63.9961,174.737h -6.80315" fill="none" stroke="black"/>
<path d="M70.7992,167.55h -13.6063" fill="none" stroke="black"/>
<path d="M63.9961,160.363h -6.80315" fill="none" stroke="black"/>
<path d="M63.9961,153.176h -6.80315" fill="none" stroke="black"/>
<path d="M63.9961,145.989h -6.80315" fill="none" stroke="black"/>
<path d="M63.9961,138.802h -6.80315" fill="none" stroke="black"/>
<path d="M70.7992,131.615h -13.6063" fill="none" stroke="black"/>
<path d="M63.9961,124.428h -6.80315" fill="none" stroke="black"/>
<path d="M63.9961,117.242h -6.80315" fill="none" stroke="black"/>
<path d="M63.9961,110.055h -6.80315" fill="none" stroke="black"/>
<path d="M63.9961,102.868h -6.80315" fill="none" stroke="black"/>
<path d="M70.7992,95.6807h -13.6063" fill="none" stroke="black"/>
<path d="M63.9961,88.4938h -6.80315" fill="none" stroke="black"/>
<path d="M63.9961,81.3068h -6.80315" fill="none" stroke="black"/>
<path d="M63.9961,74.1199h -6.80315" fill="none" stroke="black"/>
<path d="M63.9961,66.9329h -6.80315" fill="none" stroke="black"/>
<path d="M70.7992,59.746h -13.6063" fill="none" stroke="black"/>
<path d="M70.7992,59.746h -13.6063" fill="none" stroke="black"/>
<path d="M63.9961,52.559h -6.80315" fill="none" stroke="black"/>
<path d="M63.9961,45.3721h -6.80315" fill="none" stroke="black"/>
<text xml:space="preserve" x="46.7965" y="351.691" fill="black" font-size="12.8882" font-family="Helvetica">0</text>
<text xml:space="preserve" x="39.4865" y="315.953" fill="black" font-size="12.8882" font-family="Helvetica">50</text>
<text xml:space="preserve" x="32.1766" y="280.216" fill="black" font-size="12.8882" font-family="Helvetica">100</text>
<text xml:space="preserve" x="32.1766" y="243.666" fill="black" font-size="12.8882" font-family="Helvetica">150</text>
<text xml:space="preserve" x="32.1766" y="207.928" fill="black" font-size="12.8882" font-family="Helvetica">200</text>
<text xml:space="preserve" x="32.1766" y="172.191" fill="black" font-size="12.8882" font-family="Helvetica">250</text>
<text xml:space="preserve" x="32.1766" y="136.453" fill="black" font-size="12.8882" font-family="Helvetica">300</text>
<text xml:space="preserve" x="32.1766" y="99.903" fill="black" font-size="12.8882" font-family="Helvetica">350</text>
<text xml:space="preserve" x="32.1766" y="64.1653" fill="black" font-size="12.8882" font-family="Helvetica">400</text>
<g transform="rotate(-90,21.6177,71.4753)">
<text xml:space="preserve" x="21.6177" y="71.4753" fill="black" font-size="12.8882" font-family="Helvetica">Event</text>
</g>
<rect x="351.996" y="25.0773" width="204.094" height="108.025" fill="white"/>
<path d="M351.996,133.102h 204.094" fill="none" stroke="black"/>
<path d="M556.091,133.102v -108.025" fill="none" stroke="black"/>
<path d="M556.091,25.0773h -204.094" fill="none" stroke="black"/>
<path d="M351.996,25.0773v 108.025" fill="none" stroke="black"/>
<text xml:space="preserve" x="361.938" y="38.9865" fill="black" font-size="15.6962" font-family="Helvetica">Entries </text>
<text xml:space="preserve" x="515.447" y="38.9865" fill="black" font-size="15.6962" font-family="Helvetica"> 776</text>
<text xml:space="preserve" x="375.745" y="57.6676" fill="black" font-size="15.6962" font-family="Helvetica"> / ndf </text>
<text xml:space="preserve" x="370.06" y="52.7943" fill="black" font-size="10.6308" font-family="Helvetica">2</text>
<text xml:space="preserve" x="361.938" y="57.6676" fill="black" font-size="15.6962" font-family="Times">&#0967;</text>
<text xml:space="preserve" x="481.334" y="57.6676" fill="black" font-size="15.6962" font-family="Helvetica"> 23.32 / 5</text>
<text xml:space="preserve" x="361.938" y="75.5364" fill="black" font-size="15.6962" font-family="Helvetica">Prob  </text>
<text xml:space="preserve" x="468.338" y="75.5364" fill="black" font-size="15.6962" font-family="Helvetica"> 0.0002929</text>
<text xml:space="preserve" x="361.938" y="94.2175" fill="black" font-size="15.6962" font-family="Helvetica">Const    </text>
<text xml:space="preserve" x="511.386" y="93.4052" fill="black" font-size="15.6962" font-family="Helvetica"> 22.6</text>
<text xml:space="preserve" x="502.452" y="93.4052" fill="black" font-size="15.6962" font-family="Times">&#0177;</text>
<text xml:space="preserve" x="454.531" y="93.4052" fill="black" font-size="15.6962" font-family="Helvetica"> 460.6 </text>
<text xml:space="preserve" x="361.938" y="111.274" fill="black" font-size="15.6962" font-family="Helvetica">Mean     </text>
<text xml:space="preserve" x="522.757" y="111.274" fill="black" font-size="15.6962" font-family="Helvetica"> 0.1</text>
<text xml:space="preserve" x="513.823" y="111.274" fill="black" font-size="15.6962" font-family="Times">&#0177;</text>
<text xml:space="preserve" x="465.902" y="111.274" fill="black" font-size="15.6962" font-family="Helvetica"> 808.8 </text>
<text xml:space="preserve" x="361.938" y="128.331" fill="black" font-size="15.6962" font-family="Helvetica">Sigma    </text>
<text xml:space="preserve" x="502.452" y="129.143" fill="black" font-size="15.6962" font-family="Helvetica"> 0.084</text>
<text xml:space="preserve" x="493.517" y="129.143" fill="black" font-size="15.6962" font-family="Times">&#0177;</text>
<text xml:space="preserve" x="445.596" y="129.143" fill="black" font-size="15.6962" font-family="Helvetica"> 2.599 </text>
<text xml:space="preserve" x="208.428" y="18.681" fill="black" font-size="17.0471" font-family="Helvetica">420mm 36 37 38 39</text></svg>
