<?xml version="1.0" standalone="no"?>
<svg width="567.429" height="384.969" viewBox="0 0 567.429 384.969" xmlns="http://www.w3.org/2000/svg" shape-rendering="crispEdges">
<title>
img/week2/Combined670mm_ch_52.svg
</title>
<desc>
Creator: ROOT Version 6.22/09
CreationDate: Thu Jun 24 12:07:47 2021</desc>
<defs>
</defs>
<rect x="0.5" y="0" width="566.929" height="384.469" fill="white"/>
<rect x="57.1929" y="38.4469" width="453.543" height="307.575" fill="white"/>
<rect x="57.1929" y="38.4469" width="453.543" height="307.575" fill="none" stroke="black"/>
<rect x="57.1929" y="38.4469" width="453.543" height="307.575" fill="white"/>
<rect x="57.1929" y="38.4469" width="453.543" height="307.575" fill="none" stroke="black"/>
<path d="M57.1929,346.022h 186.753v -82.0201h 26.679v -210.909h 26.679v 82.0201h 26.679v 210.909h 186.753" fill="none" stroke="#000099"/>
<g fill="#ff0000">
<polygon points=" 279.729, 48.8577 288.2, 48.8577 283.965, 57.329"/>
</g>
<path d="M59.4606,346.022h 140.598l 4.53543, -0.0600965l 4.53543, -0.0829283l 4.53543, -0.181968l 4.53543, -0.380083l 4.53543, -0.755412l 4.53543, -1.42793l 4.53543, -2.56568l 4.53543, -4.37888l 4.53543, -7.09276l 4.53543, -10.8913l 4.53543,
 -15.8319l 4.53543, -21.7448l 4.53543, -28.1466l 4.53543, -34.2099l 4.53543, -38.8304l 4.53543, -40.8092l 4.53543, -39.1292l 4.53543, -33.259" fill="none" stroke="#ff0000" stroke-width="2"/>
<path d="M281.697,66.2444l 4.53543, -23.3854l 1.90892, -4.4121" fill="none" stroke="#ff0000" stroke-width="2"/>
<path d="M295.88,38.4469l 3.95898, 15.3846" fill="none" stroke="#ff0000" stroke-width="2"/>
<path d="M299.839,53.8315l 4.53543, 29.0853l 4.53543, 36.9051l 4.53543, 40.5239l 4.53543, 40.1572l 4.53543, 36.6302l 4.53543, 31.0947l 4.53543, 24.7289l 4.53543, 18.5053l 4.53543, 13.07l 4.53543, 8.73154l 4.53543, 5.52646l 4.53543, 3.31805l 4.53543,
 1.89156l 4.53543, 1.0247l 4.53543, 0.527809l 4.53543, 0.258637l 4.53543, 0.12062l 4.53543, 0.0535573l 4.53543, 0.037215h 122.457" fill="none" stroke="#ff0000" stroke-width="2"/>
<path d="M57.1929,346.022h 453.543" fill="none" stroke="black"/>
<path d="M108.012,336.795v 9.22726" fill="none" stroke="black"/>
<path d="M121.345,341.409v 4.61363" fill="none" stroke="black"/>
<path d="M134.678,341.409v 4.61363" fill="none" stroke="black"/>
<path d="M148.011,341.409v 4.61363" fill="none" stroke="black"/>
<path d="M161.344,341.409v 4.61363" fill="none" stroke="black"/>
<path d="M174.677,336.795v 9.22726" fill="none" stroke="black"/>
<path d="M188.01,341.409v 4.61363" fill="none" stroke="black"/>
<path d="M201.343,341.409v 4.61363" fill="none" stroke="black"/>
<path d="M214.676,341.409v 4.61363" fill="none" stroke="black"/>
<path d="M228.009,341.409v 4.61363" fill="none" stroke="black"/>
<path d="M241.342,336.795v 9.22726" fill="none" stroke="black"/>
<path d="M254.675,341.409v 4.61363" fill="none" stroke="black"/>
<path d="M268.008,341.409v 4.61363" fill="none" stroke="black"/>
<path d="M281.341,341.409v 4.61363" fill="none" stroke="black"/>
<path d="M294.674,341.409v 4.61363" fill="none" stroke="black"/>
<path d="M308.007,336.795v 9.22726" fill="none" stroke="black"/>
<path d="M321.34,341.409v 4.61363" fill="none" stroke="black"/>
<path d="M334.673,341.409v 4.61363" fill="none" stroke="black"/>
<path d="M348.006,341.409v 4.61363" fill="none" stroke="black"/>
<path d="M361.339,341.409v 4.61363" fill="none" stroke="black"/>
<path d="M374.672,336.795v 9.22726" fill="none" stroke="black"/>
<path d="M388.005,341.409v 4.61363" fill="none" stroke="black"/>
<path d="M401.338,341.409v 4.61363" fill="none" stroke="black"/>
<path d="M414.671,341.409v 4.61363" fill="none" stroke="black"/>
<path d="M428.004,341.409v 4.61363" fill="none" stroke="black"/>
<path d="M441.337,336.795v 9.22726" fill="none" stroke="black"/>
<path d="M454.67,341.409v 4.61363" fill="none" stroke="black"/>
<path d="M468.003,341.409v 4.61363" fill="none" stroke="black"/>
<path d="M481.336,341.409v 4.61363" fill="none" stroke="black"/>
<path d="M494.669,341.409v 4.61363" fill="none" stroke="black"/>
<path d="M508.002,336.795v 9.22726" fill="none" stroke="black"/>
<path d="M108.012,336.795v 9.22726" fill="none" stroke="black"/>
<path d="M94.679,341.409v 4.61363" fill="none" stroke="black"/>
<path d="M81.346,341.409v 4.61363" fill="none" stroke="black"/>
<path d="M68.013,341.409v 4.61363" fill="none" stroke="black"/>
<path d="M508.002,336.795v 9.22726" fill="none" stroke="black"/>
<text xml:space="preserve" x="96.6173" y="358.403" fill="black" font-size="12.8453" font-family="Helvetica">780</text>
<text xml:space="preserve" x="163.411" y="358.403" fill="black" font-size="12.8453" font-family="Helvetica">790</text>
<text xml:space="preserve" x="230.204" y="358.403" fill="black" font-size="12.8453" font-family="Helvetica">800</text>
<text xml:space="preserve" x="296.997" y="358.403" fill="black" font-size="12.8453" font-family="Helvetica">810</text>
<text xml:space="preserve" x="363.791" y="358.403" fill="black" font-size="12.8453" font-family="Helvetica">820</text>
<text xml:space="preserve" x="430.584" y="358.403" fill="black" font-size="12.8453" font-family="Helvetica">830</text>
<text xml:space="preserve" x="497.378" y="358.403" fill="black" font-size="12.8453" font-family="Helvetica">840</text>
<text xml:space="preserve" x="460.723" y="370.622" fill="black" font-size="12.8453" font-family="Helvetica">Time [ps]</text>
<path d="M57.1929,346.022v -307.575" fill="none" stroke="black"/>
<path d="M70.7992,346.022h -13.6063" fill="none" stroke="black"/>
<path d="M63.9961,334.305h -6.80315" fill="none" stroke="black"/>
<path d="M63.9961,322.588h -6.80315" fill="none" stroke="black"/>
<path d="M63.9961,310.871h -6.80315" fill="none" stroke="black"/>
<path d="M63.9961,299.154h -6.80315" fill="none" stroke="black"/>
<path d="M70.7992,287.436h -13.6063" fill="none" stroke="black"/>
<path d="M63.9961,275.719h -6.80315" fill="none" stroke="black"/>
<path d="M63.9961,264.002h -6.80315" fill="none" stroke="black"/>
<path d="M63.9961,252.285h -6.80315" fill="none" stroke="black"/>
<path d="M63.9961,240.568h -6.80315" fill="none" stroke="black"/>
<path d="M70.7992,228.851h -13.6063" fill="none" stroke="black"/>
<path d="M63.9961,217.134h -6.80315" fill="none" stroke="black"/>
<path d="M63.9961,205.416h -6.80315" fill="none" stroke="black"/>
<path d="M63.9961,193.699h -6.80315" fill="none" stroke="black"/>
<path d="M63.9961,181.982h -6.80315" fill="none" stroke="black"/>
<path d="M70.7992,170.265h -13.6063" fill="none" stroke="black"/>
<path d="M63.9961,158.548h -6.80315" fill="none" stroke="black"/>
<path d="M63.9961,146.831h -6.80315" fill="none" stroke="black"/>
<path d="M63.9961,135.113h -6.80315" fill="none" stroke="black"/>
<path d="M63.9961,123.396h -6.80315" fill="none" stroke="black"/>
<path d="M70.7992,111.679h -13.6063" fill="none" stroke="black"/>
<path d="M63.9961,99.962h -6.80315" fill="none" stroke="black"/>
<path d="M63.9961,88.2448h -6.80315" fill="none" stroke="black"/>
<path d="M63.9961,76.5277h -6.80315" fill="none" stroke="black"/>
<path d="M63.9961,64.8105h -6.80315" fill="none" stroke="black"/>
<path d="M70.7992,53.0934h -13.6063" fill="none" stroke="black"/>
<path d="M70.7992,53.0934h -13.6063" fill="none" stroke="black"/>
<path d="M63.9961,41.3762h -6.80315" fill="none" stroke="black"/>
<text xml:space="preserve" x="47.7441" y="350.258" fill="black" font-size="12.8453" font-family="Helvetica">0</text>
<text xml:space="preserve" x="47.7441" y="291.61" fill="black" font-size="12.8453" font-family="Helvetica">5</text>
<text xml:space="preserve" x="41.2277" y="232.962" fill="black" font-size="12.8453" font-family="Helvetica">10</text>
<text xml:space="preserve" x="40.4131" y="175.129" fill="black" font-size="12.8453" font-family="Helvetica">15</text>
<text xml:space="preserve" x="41.2277" y="116.481" fill="black" font-size="12.8453" font-family="Helvetica">20</text>
<text xml:space="preserve" x="40.4131" y="57.8333" fill="black" font-size="12.8453" font-family="Helvetica">25</text>
<g transform="rotate(-90,28.1948,70.0516)">
<text xml:space="preserve" x="28.1948" y="70.0516" fill="black" font-size="12.8453" font-family="Helvetica">Event</text>
</g>
<text xml:space="preserve" x="243.237" y="18.7347" fill="black" font-size="16.9898" font-family="Helvetica">670mm 52</text></svg>
