<?xml version="1.0" standalone="no"?>
<svg width="567.429" height="386.304" viewBox="0 0 567.429 386.304" xmlns="http://www.w3.org/2000/svg" shape-rendering="crispEdges">
<title>
img/week2/Combined0mm_ch_2.svg
</title>
<desc>
Creator: ROOT Version 6.22/08
CreationDate: Tue Jun 22 00:47:19 2021</desc>
<defs>
</defs>
<rect x="0.5" y="0" width="566.929" height="385.804" fill="white"/>
<rect x="57.1929" y="38.5804" width="453.543" height="308.643" fill="white"/>
<rect x="57.1929" y="38.5804" width="453.543" height="308.643" fill="none" stroke="black"/>
<rect x="57.1929" y="38.5804" width="453.543" height="308.643" fill="white"/>
<rect x="57.1929" y="38.5804" width="453.543" height="308.643" fill="none" stroke="black"/>
<path d="M57.1929,347.224h 161.98v -30.9417h 32.396v -170.179h 32.396v -92.8251h 32.396v 270.74h 32.396v 23.2063h 161.98" fill="none" stroke="#000099"/>
<g fill="#ff0000">
<polygon points=" 295.939, 49.0542 304.386, 49.0542 300.163, 57.5013"/>
</g>
<path d="M59.4606,347.224h 136.063l 4.53543, -0.0628993l 4.53543, -0.0880932l 4.53543, -0.194772l 4.53543, -0.409539l 4.53543, -0.8186l 4.53543, -1.5547l 4.53543, -2.8039l 4.53543, -4.79853l 4.53543, -7.78555l 4.53543, -11.9621l 4.53543, -17.3784l
 4.53543, -23.8253l 4.53543, -30.7399l 4.53543, -37.1799l 4.53543, -41.9099l 4.53543, -43.6186l 4.53543, -41.2357l 4.53543, -34.2688l 1.57606, -8.0081" fill="none" stroke="#ff0000" stroke-width="2"/>
<path d="M294.399,38.5804l 0.904355, 4.24767" fill="none" stroke="#ff0000" stroke-width="2"/>
<path d="M295.303,42.8281l 4.53543, 33.016l 4.53543, 40.5818l 4.53543, 43.5564l 4.53543, 42.3349l 4.53543, 37.9297l 4.53543, 31.6401l 4.53543, 24.7263l 4.53543, 18.1773l 4.53543, 12.6063l 4.53543, 8.26482l 4.53543, 5.13026l 4.53543, 3.01871l 4.53543,
 1.68533l 4.53543, 0.893419l 4.53543, 0.449978l 4.53543, 0.215432l 4.53543, 0.0980826l 4.53543, 0.0707836h 131.528" fill="none" stroke="#ff0000" stroke-width="2"/>
<path d="M57.1929,347.224h 453.543" fill="none" stroke="black"/>
<path d="M135.06,337.964v 9.2593" fill="none" stroke="black"/>
<path d="M151.25,342.594v 4.62965" fill="none" stroke="black"/>
<path d="M167.44,342.594v 4.62965" fill="none" stroke="black"/>
<path d="M183.63,342.594v 4.62965" fill="none" stroke="black"/>
<path d="M199.82,342.594v 4.62965" fill="none" stroke="black"/>
<path d="M216.011,337.964v 9.2593" fill="none" stroke="black"/>
<path d="M232.201,342.594v 4.62965" fill="none" stroke="black"/>
<path d="M248.391,342.594v 4.62965" fill="none" stroke="black"/>
<path d="M264.581,342.594v 4.62965" fill="none" stroke="black"/>
<path d="M280.771,342.594v 4.62965" fill="none" stroke="black"/>
<path d="M296.961,337.964v 9.2593" fill="none" stroke="black"/>
<path d="M313.151,342.594v 4.62965" fill="none" stroke="black"/>
<path d="M329.341,342.594v 4.62965" fill="none" stroke="black"/>
<path d="M345.531,342.594v 4.62965" fill="none" stroke="black"/>
<path d="M361.721,342.594v 4.62965" fill="none" stroke="black"/>
<path d="M377.911,337.964v 9.2593" fill="none" stroke="black"/>
<path d="M394.101,342.594v 4.62965" fill="none" stroke="black"/>
<path d="M410.291,342.594v 4.62965" fill="none" stroke="black"/>
<path d="M426.481,342.594v 4.62965" fill="none" stroke="black"/>
<path d="M442.672,342.594v 4.62965" fill="none" stroke="black"/>
<path d="M458.862,337.964v 9.2593" fill="none" stroke="black"/>
<path d="M135.06,337.964v 9.2593" fill="none" stroke="black"/>
<path d="M118.87,342.594v 4.62965" fill="none" stroke="black"/>
<path d="M102.68,342.594v 4.62965" fill="none" stroke="black"/>
<path d="M86.49,342.594v 4.62965" fill="none" stroke="black"/>
<path d="M70.2999,342.594v 4.62965" fill="none" stroke="black"/>
<path d="M458.862,337.964v 9.2593" fill="none" stroke="black"/>
<path d="M475.052,342.594v 4.62965" fill="none" stroke="black"/>
<path d="M491.242,342.594v 4.62965" fill="none" stroke="black"/>
<path d="M507.432,342.594v 4.62965" fill="none" stroke="black"/>
<text xml:space="preserve" x="123.145" y="359.813" fill="black" font-size="12.8882" font-family="Helvetica">790</text>
<text xml:space="preserve" x="204.367" y="359.813" fill="black" font-size="12.8882" font-family="Helvetica">800</text>
<text xml:space="preserve" x="285.589" y="359.813" fill="black" font-size="12.8882" font-family="Helvetica">810</text>
<text xml:space="preserve" x="365.999" y="359.813" fill="black" font-size="12.8882" font-family="Helvetica">820</text>
<text xml:space="preserve" x="447.221" y="359.813" fill="black" font-size="12.8882" font-family="Helvetica">830</text>
<text xml:space="preserve" x="481.334" y="373.621" fill="black" font-size="12.8882" font-family="Helvetica">Time</text>
<path d="M57.1929,347.224v -308.643" fill="none" stroke="black"/>
<path d="M70.7992,347.224h -13.6063" fill="none" stroke="black"/>
<path d="M63.9961,339.488h -6.80315" fill="none" stroke="black"/>
<path d="M63.9961,331.753h -6.80315" fill="none" stroke="black"/>
<path d="M63.9961,324.018h -6.80315" fill="none" stroke="black"/>
<path d="M63.9961,316.282h -6.80315" fill="none" stroke="black"/>
<path d="M70.7992,308.547h -13.6063" fill="none" stroke="black"/>
<path d="M63.9961,300.811h -6.80315" fill="none" stroke="black"/>
<path d="M63.9961,293.076h -6.80315" fill="none" stroke="black"/>
<path d="M63.9961,285.34h -6.80315" fill="none" stroke="black"/>
<path d="M63.9961,277.605h -6.80315" fill="none" stroke="black"/>
<path d="M70.7992,269.87h -13.6063" fill="none" stroke="black"/>
<path d="M63.9961,262.134h -6.80315" fill="none" stroke="black"/>
<path d="M63.9961,254.399h -6.80315" fill="none" stroke="black"/>
<path d="M63.9961,246.663h -6.80315" fill="none" stroke="black"/>
<path d="M63.9961,238.928h -6.80315" fill="none" stroke="black"/>
<path d="M70.7992,231.192h -13.6063" fill="none" stroke="black"/>
<path d="M63.9961,223.457h -6.80315" fill="none" stroke="black"/>
<path d="M63.9961,215.722h -6.80315" fill="none" stroke="black"/>
<path d="M63.9961,207.986h -6.80315" fill="none" stroke="black"/>
<path d="M63.9961,200.251h -6.80315" fill="none" stroke="black"/>
<path d="M70.7992,192.515h -13.6063" fill="none" stroke="black"/>
<path d="M63.9961,184.78h -6.80315" fill="none" stroke="black"/>
<path d="M63.9961,177.044h -6.80315" fill="none" stroke="black"/>
<path d="M63.9961,169.309h -6.80315" fill="none" stroke="black"/>
<path d="M63.9961,161.574h -6.80315" fill="none" stroke="black"/>
<path d="M70.7992,153.838h -13.6063" fill="none" stroke="black"/>
<path d="M63.9961,146.103h -6.80315" fill="none" stroke="black"/>
<path d="M63.9961,138.367h -6.80315" fill="none" stroke="black"/>
<path d="M63.9961,130.632h -6.80315" fill="none" stroke="black"/>
<path d="M63.9961,122.897h -6.80315" fill="none" stroke="black"/>
<path d="M70.7992,115.161h -13.6063" fill="none" stroke="black"/>
<path d="M63.9961,107.426h -6.80315" fill="none" stroke="black"/>
<path d="M63.9961,99.6903h -6.80315" fill="none" stroke="black"/>
<path d="M63.9961,91.9548h -6.80315" fill="none" stroke="black"/>
<path d="M63.9961,84.2194h -6.80315" fill="none" stroke="black"/>
<path d="M70.7992,76.484h -13.6063" fill="none" stroke="black"/>
<path d="M70.7992,76.484h -13.6063" fill="none" stroke="black"/>
<path d="M63.9961,68.7486h -6.80315" fill="none" stroke="black"/>
<path d="M63.9961,61.0131h -6.80315" fill="none" stroke="black"/>
<path d="M63.9961,53.2777h -6.80315" fill="none" stroke="black"/>
<path d="M63.9961,45.5423h -6.80315" fill="none" stroke="black"/>
<text xml:space="preserve" x="46.7965" y="351.691" fill="black" font-size="12.8882" font-family="Helvetica">0</text>
<text xml:space="preserve" x="46.7965" y="312.704" fill="black" font-size="12.8882" font-family="Helvetica">5</text>
<text xml:space="preserve" x="39.4865" y="274.53" fill="black" font-size="12.8882" font-family="Helvetica">10</text>
<text xml:space="preserve" x="39.4865" y="235.544" fill="black" font-size="12.8882" font-family="Helvetica">15</text>
<text xml:space="preserve" x="39.4865" y="197.369" fill="black" font-size="12.8882" font-family="Helvetica">20</text>
<text xml:space="preserve" x="39.4865" y="158.383" fill="black" font-size="12.8882" font-family="Helvetica">25</text>
<text xml:space="preserve" x="39.4865" y="119.396" fill="black" font-size="12.8882" font-family="Helvetica">30</text>
<text xml:space="preserve" x="39.4865" y="81.2219" fill="black" font-size="12.8882" font-family="Helvetica">35</text>
<g transform="rotate(-90,28.9277,71.4753)">
<text xml:space="preserve" x="28.9277" y="71.4753" fill="black" font-size="12.8882" font-family="Helvetica">Event</text>
</g>
<text xml:space="preserve" x="257.974" y="18.681" fill="black" font-size="17.0471" font-family="Helvetica">0mm 2</text></svg>
