<?xml version="1.0" standalone="no"?>
<svg width="567.429" height="384.969" viewBox="0 0 567.429 384.969" xmlns="http://www.w3.org/2000/svg" shape-rendering="crispEdges">
<title>
img/week2/Combined140mm_ch_16_17_18_19.svg
</title>
<desc>
Creator: ROOT Version 6.22/09
CreationDate: Thu Jun 24 12:32:52 2021</desc>
<defs>
</defs>
<rect x="0.5" y="0" width="566.929" height="384.469" fill="white"/>
<rect x="57.1929" y="38.4469" width="453.543" height="307.575" fill="white"/>
<rect x="57.1929" y="38.4469" width="453.543" height="307.575" fill="none" stroke="black"/>
<rect x="57.1929" y="38.4469" width="453.543" height="307.575" fill="white"/>
<rect x="57.1929" y="38.4469" width="453.543" height="307.575" fill="none" stroke="black"/>
<path d="M57.1929,346.022h 64.7919v -1.57905h 64.7919v -18.9486h 32.396v -41.8448h 32.396v -212.382h 32.396v 106.586h 32.396v 165.011h 32.396v 3.1581h 161.98" fill="none" stroke="#000099"/>
<g fill="#ff0000">
<polygon points=" 263.531, 67.032 272.002, 67.032 267.767, 75.5034"/>
</g>
<path d="M59.4606,346.022h 122.457l 4.53543, -0.0582613l 4.53543, -0.0799963l 4.53543, -0.175106l 4.53543, -0.364994l 4.53543, -0.724195l 4.53543, -1.36713l 4.53543, -2.45418l 4.53543, -4.18646l 4.53543, -6.78045l 4.53543, -10.4153l 4.53543,
 -15.1525l 4.53543, -20.8395l 4.53543, -27.0264l 4.53543, -32.9339l 4.53543, -37.5116l 4.53543, -39.6068l 4.53543, -38.224l 4.53543, -32.8157l 4.53543, -23.5117l 4.53543, -11.1967l 4.53543, 2.61141l 4.53543, 16.068" fill="none" stroke="#ff0000"
 stroke-width="2"/>
<path d="M281.697,59.2768l 4.53543, 27.406l 4.53543, 35.3171l 4.53543, 39.1957l 4.53543, 39.184l 4.53543, 36.0294l 4.53543, 30.8201l 4.53543, 24.6972l 4.53543, 18.6235l 4.53543, 13.2563l 4.53543, 8.927l 4.53543, 5.69679l 4.53543, 3.44942l 4.53543,
 1.98374l 4.53543, 1.08439l 4.53543, 0.563795l 4.53543, 0.278948l 4.53543, 0.131395l 4.53543, 0.0589442l 4.53543, 0.0416812h 136.063" fill="none" stroke="#ff0000" stroke-width="2"/>
<path d="M503.933,346.022h 4.53543" fill="none" stroke="#ff0000" stroke-width="2"/>
<path d="M57.1929,346.022h 453.543" fill="none" stroke="black"/>
<path d="M135.06,336.795v 9.22726" fill="none" stroke="black"/>
<path d="M151.25,341.409v 4.61363" fill="none" stroke="black"/>
<path d="M167.44,341.409v 4.61363" fill="none" stroke="black"/>
<path d="M183.63,341.409v 4.61363" fill="none" stroke="black"/>
<path d="M199.82,341.409v 4.61363" fill="none" stroke="black"/>
<path d="M216.011,336.795v 9.22726" fill="none" stroke="black"/>
<path d="M232.201,341.409v 4.61363" fill="none" stroke="black"/>
<path d="M248.391,341.409v 4.61363" fill="none" stroke="black"/>
<path d="M264.581,341.409v 4.61363" fill="none" stroke="black"/>
<path d="M280.771,341.409v 4.61363" fill="none" stroke="black"/>
<path d="M296.961,336.795v 9.22726" fill="none" stroke="black"/>
<path d="M313.151,341.409v 4.61363" fill="none" stroke="black"/>
<path d="M329.341,341.409v 4.61363" fill="none" stroke="black"/>
<path d="M345.531,341.409v 4.61363" fill="none" stroke="black"/>
<path d="M361.721,341.409v 4.61363" fill="none" stroke="black"/>
<path d="M377.911,336.795v 9.22726" fill="none" stroke="black"/>
<path d="M394.101,341.409v 4.61363" fill="none" stroke="black"/>
<path d="M410.291,341.409v 4.61363" fill="none" stroke="black"/>
<path d="M426.481,341.409v 4.61363" fill="none" stroke="black"/>
<path d="M442.672,341.409v 4.61363" fill="none" stroke="black"/>
<path d="M458.862,336.795v 9.22726" fill="none" stroke="black"/>
<path d="M135.06,336.795v 9.22726" fill="none" stroke="black"/>
<path d="M118.87,341.409v 4.61363" fill="none" stroke="black"/>
<path d="M102.68,341.409v 4.61363" fill="none" stroke="black"/>
<path d="M86.49,341.409v 4.61363" fill="none" stroke="black"/>
<path d="M70.2999,341.409v 4.61363" fill="none" stroke="black"/>
<path d="M458.862,336.795v 9.22726" fill="none" stroke="black"/>
<path d="M475.052,341.409v 4.61363" fill="none" stroke="black"/>
<path d="M491.242,341.409v 4.61363" fill="none" stroke="black"/>
<path d="M507.432,341.409v 4.61363" fill="none" stroke="black"/>
<text xml:space="preserve" x="124.312" y="358.403" fill="black" font-size="12.8453" font-family="Helvetica">790</text>
<text xml:space="preserve" x="204.953" y="358.403" fill="black" font-size="12.8453" font-family="Helvetica">800</text>
<text xml:space="preserve" x="285.594" y="358.403" fill="black" font-size="12.8453" font-family="Helvetica">810</text>
<text xml:space="preserve" x="367.049" y="358.403" fill="black" font-size="12.8453" font-family="Helvetica">820</text>
<text xml:space="preserve" x="447.69" y="358.403" fill="black" font-size="12.8453" font-family="Helvetica">830</text>
<text xml:space="preserve" x="460.723" y="370.622" fill="black" font-size="12.8453" font-family="Helvetica">Time [ns]</text>
<path d="M57.1929,346.022v -307.575" fill="none" stroke="black"/>
<path d="M70.7992,346.022h -13.6063" fill="none" stroke="black"/>
<path d="M63.9961,338.127h -6.80315" fill="none" stroke="black"/>
<path d="M63.9961,330.232h -6.80315" fill="none" stroke="black"/>
<path d="M63.9961,322.337h -6.80315" fill="none" stroke="black"/>
<path d="M63.9961,314.441h -6.80315" fill="none" stroke="black"/>
<path d="M70.7992,306.546h -13.6063" fill="none" stroke="black"/>
<path d="M63.9961,298.651h -6.80315" fill="none" stroke="black"/>
<path d="M63.9961,290.756h -6.80315" fill="none" stroke="black"/>
<path d="M63.9961,282.86h -6.80315" fill="none" stroke="black"/>
<path d="M63.9961,274.965h -6.80315" fill="none" stroke="black"/>
<path d="M70.7992,267.07h -13.6063" fill="none" stroke="black"/>
<path d="M63.9961,259.175h -6.80315" fill="none" stroke="black"/>
<path d="M63.9961,251.279h -6.80315" fill="none" stroke="black"/>
<path d="M63.9961,243.384h -6.80315" fill="none" stroke="black"/>
<path d="M63.9961,235.489h -6.80315" fill="none" stroke="black"/>
<path d="M70.7992,227.594h -13.6063" fill="none" stroke="black"/>
<path d="M63.9961,219.698h -6.80315" fill="none" stroke="black"/>
<path d="M63.9961,211.803h -6.80315" fill="none" stroke="black"/>
<path d="M63.9961,203.908h -6.80315" fill="none" stroke="black"/>
<path d="M63.9961,196.013h -6.80315" fill="none" stroke="black"/>
<path d="M70.7992,188.117h -13.6063" fill="none" stroke="black"/>
<path d="M63.9961,180.222h -6.80315" fill="none" stroke="black"/>
<path d="M63.9961,172.327h -6.80315" fill="none" stroke="black"/>
<path d="M63.9961,164.432h -6.80315" fill="none" stroke="black"/>
<path d="M63.9961,156.536h -6.80315" fill="none" stroke="black"/>
<path d="M70.7992,148.641h -13.6063" fill="none" stroke="black"/>
<path d="M63.9961,140.746h -6.80315" fill="none" stroke="black"/>
<path d="M63.9961,132.851h -6.80315" fill="none" stroke="black"/>
<path d="M63.9961,124.955h -6.80315" fill="none" stroke="black"/>
<path d="M63.9961,117.06h -6.80315" fill="none" stroke="black"/>
<path d="M70.7992,109.165h -13.6063" fill="none" stroke="black"/>
<path d="M63.9961,101.27h -6.80315" fill="none" stroke="black"/>
<path d="M63.9961,93.3744h -6.80315" fill="none" stroke="black"/>
<path d="M63.9961,85.4791h -6.80315" fill="none" stroke="black"/>
<path d="M63.9961,77.5839h -6.80315" fill="none" stroke="black"/>
<path d="M70.7992,69.6887h -13.6063" fill="none" stroke="black"/>
<path d="M70.7992,69.6887h -13.6063" fill="none" stroke="black"/>
<path d="M63.9961,61.7934h -6.80315" fill="none" stroke="black"/>
<path d="M63.9961,53.8982h -6.80315" fill="none" stroke="black"/>
<path d="M63.9961,46.0029h -6.80315" fill="none" stroke="black"/>
<text xml:space="preserve" x="47.7441" y="350.258" fill="black" font-size="12.8453" font-family="Helvetica">0</text>
<text xml:space="preserve" x="41.2277" y="311.159" fill="black" font-size="12.8453" font-family="Helvetica">50</text>
<text xml:space="preserve" x="33.8967" y="271.246" fill="black" font-size="12.8453" font-family="Helvetica">100</text>
<text xml:space="preserve" x="33.8967" y="232.148" fill="black" font-size="12.8453" font-family="Helvetica">150</text>
<text xml:space="preserve" x="33.8967" y="192.235" fill="black" font-size="12.8453" font-family="Helvetica">200</text>
<text xml:space="preserve" x="33.8967" y="153.136" fill="black" font-size="12.8453" font-family="Helvetica">250</text>
<text xml:space="preserve" x="33.8967" y="114.037" fill="black" font-size="12.8453" font-family="Helvetica">300</text>
<text xml:space="preserve" x="33.8967" y="74.1244" fill="black" font-size="12.8453" font-family="Helvetica">350</text>
<g transform="rotate(-90,20.8638,70.0516)">
<text xml:space="preserve" x="20.8638" y="70.0516" fill="black" font-size="12.8453" font-family="Helvetica">Event</text>
</g>
<text xml:space="preserve" x="208.211" y="18.7347" fill="black" font-size="16.9898" font-family="Helvetica">140mm 16 17 18 19</text></svg>
