<?xml version="1.0" standalone="no"?>
<svg width="567.429" height="384.969" viewBox="0 0 567.429 384.969" xmlns="http://www.w3.org/2000/svg" shape-rendering="crispEdges">
<title>
img/week2/Combined560mm_ch_16_17_18_19.svg
</title>
<desc>
Creator: ROOT Version 6.22/09
CreationDate: Thu Jun 24 12:07:27 2021</desc>
<defs>
</defs>
<rect x="0.5" y="0" width="566.929" height="384.469" fill="white"/>
<rect x="57.1929" y="38.4469" width="453.543" height="307.575" fill="white"/>
<rect x="57.1929" y="38.4469" width="453.543" height="307.575" fill="none" stroke="black"/>
<rect x="57.1929" y="38.4469" width="453.543" height="307.575" fill="white"/>
<rect x="57.1929" y="38.4469" width="453.543" height="307.575" fill="none" stroke="black"/>
<path d="M57.1929,344.902h 30.2362v 1.12075h 60.4724v -1.12075h 30.2362v -1.12075h 30.2362v -7.84524h 30.2362v -117.679h 30.2362v -162.509h 30.2362v 203.976h 30.2362v 85.1769h 30.2362v 1.12075h 151.181" fill="none" stroke="#000099"/>
<g fill="#ff0000">
<polygon points=" 279.729, 51.5127 288.2, 51.5127 283.965, 59.984"/>
</g>
<path d="M59.4606,346.022h 131.528l 4.53543, -0.0712489l 4.53543, -0.0985108l 4.53543, -0.215864l 4.53543, -0.44953l 4.53543, -0.889263l 4.53543, -1.6702l 4.53543, -2.97646l 4.53543, -5.029l 4.53543, -8.04796l 4.53543, -12.1833l 4.53543, -17.4178l
 4.53543, -23.4643l 4.53543, -29.6932l 4.53543, -35.1383l 4.53543, -38.6172l 4.53543, -38.9688l 4.53543, -35.3638l 4.53543, -27.5983l 4.53543, -16.2623l 4.53543, -2.70271" fill="none" stroke="#ff0000" stroke-width="2"/>
<path d="M281.697,49.1643l 4.53543, 11.2345l 4.53543, 23.6169l 4.53543, 32.8652l 4.53543, 38.0822l 4.53543, 39.1775l 4.53543, 36.7709l 4.53543, 31.9345l 4.53543, 25.8761l 4.53543, 19.6657l 4.53543, 14.0683l 4.53543, 9.49713l 4.53543, 6.06125l
 4.53543, 3.66236l 4.53543, 2.09729l 4.53543, 1.13927l 4.53543, 0.587437l 4.53543, 0.287679l 4.53543, 0.133866l 4.53543, 0.0592122l 4.53543, 0.0407293h 131.528" fill="none" stroke="#ff0000" stroke-width="2"/>
<path d="M503.933,346.022h 4.53543" fill="none" stroke="#ff0000" stroke-width="2"/>
<path d="M57.1929,346.022h 453.543" fill="none" stroke="black"/>
<path d="M129.869,336.795v 9.22726" fill="none" stroke="black"/>
<path d="M144.98,341.409v 4.61363" fill="none" stroke="black"/>
<path d="M160.09,341.409v 4.61363" fill="none" stroke="black"/>
<path d="M175.201,341.409v 4.61363" fill="none" stroke="black"/>
<path d="M190.312,341.409v 4.61363" fill="none" stroke="black"/>
<path d="M205.423,336.795v 9.22726" fill="none" stroke="black"/>
<path d="M220.533,341.409v 4.61363" fill="none" stroke="black"/>
<path d="M235.644,341.409v 4.61363" fill="none" stroke="black"/>
<path d="M250.755,341.409v 4.61363" fill="none" stroke="black"/>
<path d="M265.866,341.409v 4.61363" fill="none" stroke="black"/>
<path d="M280.976,336.795v 9.22726" fill="none" stroke="black"/>
<path d="M296.087,341.409v 4.61363" fill="none" stroke="black"/>
<path d="M311.198,341.409v 4.61363" fill="none" stroke="black"/>
<path d="M326.309,341.409v 4.61363" fill="none" stroke="black"/>
<path d="M341.419,341.409v 4.61363" fill="none" stroke="black"/>
<path d="M356.53,336.795v 9.22726" fill="none" stroke="black"/>
<path d="M371.641,341.409v 4.61363" fill="none" stroke="black"/>
<path d="M386.751,341.409v 4.61363" fill="none" stroke="black"/>
<path d="M401.862,341.409v 4.61363" fill="none" stroke="black"/>
<path d="M416.973,341.409v 4.61363" fill="none" stroke="black"/>
<path d="M432.084,336.795v 9.22726" fill="none" stroke="black"/>
<path d="M447.194,341.409v 4.61363" fill="none" stroke="black"/>
<path d="M462.305,341.409v 4.61363" fill="none" stroke="black"/>
<path d="M477.416,341.409v 4.61363" fill="none" stroke="black"/>
<path d="M492.527,341.409v 4.61363" fill="none" stroke="black"/>
<path d="M507.637,336.795v 9.22726" fill="none" stroke="black"/>
<path d="M129.869,336.795v 9.22726" fill="none" stroke="black"/>
<path d="M114.758,341.409v 4.61363" fill="none" stroke="black"/>
<path d="M99.6476,341.409v 4.61363" fill="none" stroke="black"/>
<path d="M84.5368,341.409v 4.61363" fill="none" stroke="black"/>
<path d="M69.4261,341.409v 4.61363" fill="none" stroke="black"/>
<path d="M507.637,336.795v 9.22726" fill="none" stroke="black"/>
<text xml:space="preserve" x="118.61" y="358.403" fill="black" font-size="12.8453" font-family="Helvetica">790</text>
<text xml:space="preserve" x="194.364" y="358.403" fill="black" font-size="12.8453" font-family="Helvetica">800</text>
<text xml:space="preserve" x="270.117" y="358.403" fill="black" font-size="12.8453" font-family="Helvetica">810</text>
<text xml:space="preserve" x="345.871" y="358.403" fill="black" font-size="12.8453" font-family="Helvetica">820</text>
<text xml:space="preserve" x="420.81" y="358.403" fill="black" font-size="12.8453" font-family="Helvetica">830</text>
<text xml:space="preserve" x="496.563" y="358.403" fill="black" font-size="12.8453" font-family="Helvetica">840</text>
<text xml:space="preserve" x="460.723" y="370.622" fill="black" font-size="12.8453" font-family="Helvetica">Time [ps]</text>
<path d="M57.1929,346.022v -307.575" fill="none" stroke="black"/>
<path d="M70.7992,346.022h -13.6063" fill="none" stroke="black"/>
<path d="M63.9961,334.815h -6.80315" fill="none" stroke="black"/>
<path d="M63.9961,323.607h -6.80315" fill="none" stroke="black"/>
<path d="M63.9961,312.4h -6.80315" fill="none" stroke="black"/>
<path d="M63.9961,301.192h -6.80315" fill="none" stroke="black"/>
<path d="M70.7992,289.985h -13.6063" fill="none" stroke="black"/>
<path d="M63.9961,278.777h -6.80315" fill="none" stroke="black"/>
<path d="M63.9961,267.57h -6.80315" fill="none" stroke="black"/>
<path d="M63.9961,256.362h -6.80315" fill="none" stroke="black"/>
<path d="M63.9961,245.155h -6.80315" fill="none" stroke="black"/>
<path d="M70.7992,233.947h -13.6063" fill="none" stroke="black"/>
<path d="M63.9961,222.74h -6.80315" fill="none" stroke="black"/>
<path d="M63.9961,211.532h -6.80315" fill="none" stroke="black"/>
<path d="M63.9961,200.325h -6.80315" fill="none" stroke="black"/>
<path d="M63.9961,189.117h -6.80315" fill="none" stroke="black"/>
<path d="M70.7992,177.91h -13.6063" fill="none" stroke="black"/>
<path d="M63.9961,166.702h -6.80315" fill="none" stroke="black"/>
<path d="M63.9961,155.495h -6.80315" fill="none" stroke="black"/>
<path d="M63.9961,144.288h -6.80315" fill="none" stroke="black"/>
<path d="M63.9961,133.08h -6.80315" fill="none" stroke="black"/>
<path d="M70.7992,121.873h -13.6063" fill="none" stroke="black"/>
<path d="M63.9961,110.665h -6.80315" fill="none" stroke="black"/>
<path d="M63.9961,99.4576h -6.80315" fill="none" stroke="black"/>
<path d="M63.9961,88.2501h -6.80315" fill="none" stroke="black"/>
<path d="M63.9961,77.0426h -6.80315" fill="none" stroke="black"/>
<path d="M70.7992,65.8351h -13.6063" fill="none" stroke="black"/>
<path d="M70.7992,65.8351h -13.6063" fill="none" stroke="black"/>
<path d="M63.9961,54.6276h -6.80315" fill="none" stroke="black"/>
<path d="M63.9961,43.4201h -6.80315" fill="none" stroke="black"/>
<text xml:space="preserve" x="47.7441" y="350.258" fill="black" font-size="12.8453" font-family="Helvetica">0</text>
<text xml:space="preserve" x="41.2277" y="294.868" fill="black" font-size="12.8453" font-family="Helvetica">50</text>
<text xml:space="preserve" x="33.8967" y="238.664" fill="black" font-size="12.8453" font-family="Helvetica">100</text>
<text xml:space="preserve" x="33.8967" y="182.46" fill="black" font-size="12.8453" font-family="Helvetica">150</text>
<text xml:space="preserve" x="33.8967" y="126.256" fill="black" font-size="12.8453" font-family="Helvetica">200</text>
<text xml:space="preserve" x="33.8967" y="70.0516" fill="black" font-size="12.8453" font-family="Helvetica">250</text>
<g transform="rotate(-90,20.8638,70.0516)">
<text xml:space="preserve" x="20.8638" y="70.0516" fill="black" font-size="12.8453" font-family="Helvetica">Event</text>
</g>
<text xml:space="preserve" x="208.211" y="18.7347" fill="black" font-size="16.9898" font-family="Helvetica">560mm 16 17 18 19</text></svg>
