<?xml version="1.0" standalone="no"?>
<svg width="567.429" height="384.969" viewBox="0 0 567.429 384.969" xmlns="http://www.w3.org/2000/svg" shape-rendering="crispEdges">
<title>
img/week2/Combined560mm_ch_37.svg
</title>
<desc>
Creator: ROOT Version 6.22/09
CreationDate: Thu Jun 24 12:12:15 2021</desc>
<defs>
</defs>
<rect x="0.5" y="0" width="566.929" height="384.469" fill="white"/>
<rect x="57.1929" y="38.4469" width="453.543" height="307.575" fill="white"/>
<rect x="57.1929" y="38.4469" width="453.543" height="307.575" fill="none" stroke="black"/>
<rect x="57.1929" y="38.4469" width="453.543" height="307.575" fill="white"/>
<rect x="57.1929" y="38.4469" width="453.543" height="307.575" fill="none" stroke="black"/>
<path d="M57.1929,346.022h 82.4624v -2.61544h 41.2312v -18.3081h 41.2312v -83.694h 41.2312v -188.311h 41.2312v 277.236h 41.2312v 15.6926h 164.925" fill="none" stroke="#000099"/>
<g fill="#ff0000">
<polygon points=" 279.729, 48.8577 288.2, 48.8577 283.965, 57.329"/>
</g>
<path d="M59.4606,346.022h 122.457l 4.53543, -0.0528108l 4.53543, -0.0746033l 4.53543, -0.165925l 4.53543, -0.351094l 4.53543, -0.706529l 4.53543, -1.35154l 4.53543, -2.45625l 4.53543, -4.23806l 4.53543, -6.93646l 4.53543, -10.7576l 4.53543,
 -15.7866l 4.53543, -21.8804l 4.53543, -28.5703l 4.53543, -35.0201l 4.53543, -40.0835l 4.53543, -42.4868l 4.53543, -41.1173l 4.53543, -35.3509l 3.61722, -20.1886" fill="none" stroke="#ff0000" stroke-width="2"/>
<path d="M280.805,38.4469l 0.891376, 3.44964" fill="none" stroke="#ff0000" stroke-width="2"/>
<path d="M281.697,41.8966l 4.53543, 29.7524l 4.53543, 38.1692l 4.53543, 42.1647l 4.53543, 41.9324l 4.53543, 38.3271l 4.53543, 32.5645l 4.53543, 25.8972l 4.53543, 19.3636l 4.53543, 13.655l 4.53543, 9.10195l 4.53543, 5.74429l 4.53543, 3.43672l 4.53543,
 1.95113l 4.53543, 1.05197l 4.53543, 0.538977l 4.53543, 0.262551l 4.53543, 0.121652l 4.53543, 0.0536344l 4.53543, 0.0367916h 131.528" fill="none" stroke="#ff0000" stroke-width="2"/>
<path d="M499.398,346.022h 9.07087" fill="none" stroke="#ff0000" stroke-width="2"/>
<path d="M57.1929,346.022h 453.543" fill="none" stroke="black"/>
<path d="M73.8343,336.795v 9.22726" fill="none" stroke="black"/>
<path d="M84.1371,341.409v 4.61363" fill="none" stroke="black"/>
<path d="M94.4398,341.409v 4.61363" fill="none" stroke="black"/>
<path d="M104.743,341.409v 4.61363" fill="none" stroke="black"/>
<path d="M115.045,341.409v 4.61363" fill="none" stroke="black"/>
<path d="M125.348,336.795v 9.22726" fill="none" stroke="black"/>
<path d="M135.651,341.409v 4.61363" fill="none" stroke="black"/>
<path d="M145.954,341.409v 4.61363" fill="none" stroke="black"/>
<path d="M156.256,341.409v 4.61363" fill="none" stroke="black"/>
<path d="M166.559,341.409v 4.61363" fill="none" stroke="black"/>
<path d="M176.862,336.795v 9.22726" fill="none" stroke="black"/>
<path d="M187.165,341.409v 4.61363" fill="none" stroke="black"/>
<path d="M197.468,341.409v 4.61363" fill="none" stroke="black"/>
<path d="M207.77,341.409v 4.61363" fill="none" stroke="black"/>
<path d="M218.073,341.409v 4.61363" fill="none" stroke="black"/>
<path d="M228.376,336.795v 9.22726" fill="none" stroke="black"/>
<path d="M238.679,341.409v 4.61363" fill="none" stroke="black"/>
<path d="M248.981,341.409v 4.61363" fill="none" stroke="black"/>
<path d="M259.284,341.409v 4.61363" fill="none" stroke="black"/>
<path d="M269.587,341.409v 4.61363" fill="none" stroke="black"/>
<path d="M279.89,336.795v 9.22726" fill="none" stroke="black"/>
<path d="M290.193,341.409v 4.61363" fill="none" stroke="black"/>
<path d="M300.495,341.409v 4.61363" fill="none" stroke="black"/>
<path d="M310.798,341.409v 4.61363" fill="none" stroke="black"/>
<path d="M321.101,341.409v 4.61363" fill="none" stroke="black"/>
<path d="M331.404,336.795v 9.22726" fill="none" stroke="black"/>
<path d="M341.706,341.409v 4.61363" fill="none" stroke="black"/>
<path d="M352.009,341.409v 4.61363" fill="none" stroke="black"/>
<path d="M362.312,341.409v 4.61363" fill="none" stroke="black"/>
<path d="M372.615,341.409v 4.61363" fill="none" stroke="black"/>
<path d="M382.917,336.795v 9.22726" fill="none" stroke="black"/>
<path d="M393.22,341.409v 4.61363" fill="none" stroke="black"/>
<path d="M403.523,341.409v 4.61363" fill="none" stroke="black"/>
<path d="M413.826,341.409v 4.61363" fill="none" stroke="black"/>
<path d="M424.129,341.409v 4.61363" fill="none" stroke="black"/>
<path d="M434.431,336.795v 9.22726" fill="none" stroke="black"/>
<path d="M444.734,341.409v 4.61363" fill="none" stroke="black"/>
<path d="M455.037,341.409v 4.61363" fill="none" stroke="black"/>
<path d="M465.34,341.409v 4.61363" fill="none" stroke="black"/>
<path d="M475.642,341.409v 4.61363" fill="none" stroke="black"/>
<path d="M485.945,336.795v 9.22726" fill="none" stroke="black"/>
<path d="M73.8343,336.795v 9.22726" fill="none" stroke="black"/>
<path d="M63.5315,341.409v 4.61363" fill="none" stroke="black"/>
<path d="M485.945,336.795v 9.22726" fill="none" stroke="black"/>
<path d="M496.248,341.409v 4.61363" fill="none" stroke="black"/>
<path d="M506.551,341.409v 4.61363" fill="none" stroke="black"/>
<text xml:space="preserve" x="63.2206" y="358.403" fill="black" font-size="12.8453" font-family="Helvetica">790</text>
<text xml:space="preserve" x="114.537" y="358.403" fill="black" font-size="12.8453" font-family="Helvetica">795</text>
<text xml:space="preserve" x="165.854" y="358.403" fill="black" font-size="12.8453" font-family="Helvetica">800</text>
<text xml:space="preserve" x="217.171" y="358.403" fill="black" font-size="12.8453" font-family="Helvetica">805</text>
<text xml:space="preserve" x="268.488" y="358.403" fill="black" font-size="12.8453" font-family="Helvetica">810</text>
<text xml:space="preserve" x="320.619" y="358.403" fill="black" font-size="12.8453" font-family="Helvetica">815</text>
<text xml:space="preserve" x="371.936" y="358.403" fill="black" font-size="12.8453" font-family="Helvetica">820</text>
<text xml:space="preserve" x="423.253" y="358.403" fill="black" font-size="12.8453" font-family="Helvetica">825</text>
<text xml:space="preserve" x="474.57" y="358.403" fill="black" font-size="12.8453" font-family="Helvetica">830</text>
<text xml:space="preserve" x="460.723" y="370.622" fill="black" font-size="12.8453" font-family="Helvetica">Time [ps]</text>
<path d="M57.1929,346.022v -307.575" fill="none" stroke="black"/>
<path d="M70.7992,346.022h -13.6063" fill="none" stroke="black"/>
<path d="M63.9961,332.945h -6.80315" fill="none" stroke="black"/>
<path d="M63.9961,319.868h -6.80315" fill="none" stroke="black"/>
<path d="M63.9961,306.791h -6.80315" fill="none" stroke="black"/>
<path d="M70.7992,293.714h -13.6063" fill="none" stroke="black"/>
<path d="M63.9961,280.636h -6.80315" fill="none" stroke="black"/>
<path d="M63.9961,267.559h -6.80315" fill="none" stroke="black"/>
<path d="M63.9961,254.482h -6.80315" fill="none" stroke="black"/>
<path d="M70.7992,241.405h -13.6063" fill="none" stroke="black"/>
<path d="M63.9961,228.328h -6.80315" fill="none" stroke="black"/>
<path d="M63.9961,215.25h -6.80315" fill="none" stroke="black"/>
<path d="M63.9961,202.173h -6.80315" fill="none" stroke="black"/>
<path d="M70.7992,189.096h -13.6063" fill="none" stroke="black"/>
<path d="M63.9961,176.019h -6.80315" fill="none" stroke="black"/>
<path d="M63.9961,162.942h -6.80315" fill="none" stroke="black"/>
<path d="M63.9961,149.865h -6.80315" fill="none" stroke="black"/>
<path d="M70.7992,136.787h -13.6063" fill="none" stroke="black"/>
<path d="M63.9961,123.71h -6.80315" fill="none" stroke="black"/>
<path d="M63.9961,110.633h -6.80315" fill="none" stroke="black"/>
<path d="M63.9961,97.5558h -6.80315" fill="none" stroke="black"/>
<path d="M70.7992,84.4786h -13.6063" fill="none" stroke="black"/>
<path d="M70.7992,84.4786h -13.6063" fill="none" stroke="black"/>
<path d="M63.9961,71.4014h -6.80315" fill="none" stroke="black"/>
<path d="M63.9961,58.3242h -6.80315" fill="none" stroke="black"/>
<path d="M63.9961,45.2471h -6.80315" fill="none" stroke="black"/>
<text xml:space="preserve" x="47.7441" y="350.258" fill="black" font-size="12.8453" font-family="Helvetica">0</text>
<text xml:space="preserve" x="41.2277" y="298.127" fill="black" font-size="12.8453" font-family="Helvetica">20</text>
<text xml:space="preserve" x="41.2277" y="245.995" fill="black" font-size="12.8453" font-family="Helvetica">40</text>
<text xml:space="preserve" x="41.2277" y="193.864" fill="black" font-size="12.8453" font-family="Helvetica">60</text>
<text xml:space="preserve" x="41.2277" y="140.918" fill="black" font-size="12.8453" font-family="Helvetica">80</text>
<text xml:space="preserve" x="33.8967" y="88.7863" fill="black" font-size="12.8453" font-family="Helvetica">100</text>
<g transform="rotate(-90,20.8638,70.0516)">
<text xml:space="preserve" x="20.8638" y="70.0516" fill="black" font-size="12.8453" font-family="Helvetica">Event</text>
</g>
<text xml:space="preserve" x="243.237" y="18.7347" fill="black" font-size="16.9898" font-family="Helvetica">560mm 37</text></svg>
