<?xml version="1.0" standalone="no"?>
<svg width="567.429" height="384.969" viewBox="0 0 567.429 384.969" xmlns="http://www.w3.org/2000/svg" shape-rendering="crispEdges">
<title>
img/week2/Combined560mm_ch_0.svg
</title>
<desc>
Creator: ROOT Version 6.22/09
CreationDate: Thu Jun 24 12:33:04 2021</desc>
<defs>
</defs>
<rect x="0.5" y="0" width="566.929" height="384.469" fill="white"/>
<rect x="57.1929" y="38.4469" width="453.543" height="307.575" fill="white"/>
<rect x="57.1929" y="38.4469" width="453.543" height="307.575" fill="none" stroke="black"/>
<rect x="57.1929" y="38.4469" width="453.543" height="307.575" fill="white"/>
<rect x="57.1929" y="38.4469" width="453.543" height="307.575" fill="none" stroke="black"/>
<path d="M57.1929,346.022h 151.181v -24.3536h 30.2362v -32.4715h 30.2362v -227.3h 30.2362v 64.943h 30.2362v 202.947h 30.2362v 16.2358h 151.181" fill="none" stroke="#000099"/>
<g fill="#ff0000">
<polygon points=" 279.729, 57.661 288.2, 57.661 283.965, 66.1323"/>
</g>
<path d="M59.4606,346.022h 140.598l 4.53543, -0.0557685l 4.53543, -0.0759549l 4.53543, -0.165758l 4.53543, -0.344882l 4.53543, -0.683887l 4.53543, -1.29189l 4.53543, -2.32366l 4.53543, -3.97687l 4.53543, -6.47133l 4.53543, -10.0022l 4.53543,
 -14.6655l 4.53543, -20.3643l 4.53543, -26.72l 4.53543, -33.0244l 4.53543, -38.2727l 4.53543, -41.3009l 4.53543, -41.0239l 4.53543, -36.7221" fill="none" stroke="#ff0000" stroke-width="2"/>
<path d="M281.697,68.5363l 4.53543, -28.2977l 0.495322, -1.79168" fill="none" stroke="#ff0000" stroke-width="2"/>
<path d="M300.773,38.4469l 3.60126, 19.6087" fill="none" stroke="#ff0000" stroke-width="2"/>
<path d="M304.374,58.0556l 4.53543, 34.3762l 4.53543, 40.0663l 4.53543, 41.6207l 4.53543, 39.5773l 4.53543, 34.9326l 4.53543, 28.8545l 4.53543, 22.4212l 4.53543, 16.4474l 4.53543, 11.4188l 4.53543, 7.51662l 4.53543, 4.69795l 4.53543, 2.7909l 4.53543,
 1.57725l 4.53543, 0.848543l 4.53543, 0.434816l 4.53543, 0.212323l 4.53543, 0.0988357l 4.53543, 0.0744694h 122.457" fill="none" stroke="#ff0000" stroke-width="2"/>
<path d="M57.1929,346.022h 453.543" fill="none" stroke="black"/>
<path d="M129.869,336.795v 9.22726" fill="none" stroke="black"/>
<path d="M144.98,341.409v 4.61363" fill="none" stroke="black"/>
<path d="M160.09,341.409v 4.61363" fill="none" stroke="black"/>
<path d="M175.201,341.409v 4.61363" fill="none" stroke="black"/>
<path d="M190.312,341.409v 4.61363" fill="none" stroke="black"/>
<path d="M205.423,336.795v 9.22726" fill="none" stroke="black"/>
<path d="M220.533,341.409v 4.61363" fill="none" stroke="black"/>
<path d="M235.644,341.409v 4.61363" fill="none" stroke="black"/>
<path d="M250.755,341.409v 4.61363" fill="none" stroke="black"/>
<path d="M265.866,341.409v 4.61363" fill="none" stroke="black"/>
<path d="M280.976,336.795v 9.22726" fill="none" stroke="black"/>
<path d="M296.087,341.409v 4.61363" fill="none" stroke="black"/>
<path d="M311.198,341.409v 4.61363" fill="none" stroke="black"/>
<path d="M326.309,341.409v 4.61363" fill="none" stroke="black"/>
<path d="M341.419,341.409v 4.61363" fill="none" stroke="black"/>
<path d="M356.53,336.795v 9.22726" fill="none" stroke="black"/>
<path d="M371.641,341.409v 4.61363" fill="none" stroke="black"/>
<path d="M386.751,341.409v 4.61363" fill="none" stroke="black"/>
<path d="M401.862,341.409v 4.61363" fill="none" stroke="black"/>
<path d="M416.973,341.409v 4.61363" fill="none" stroke="black"/>
<path d="M432.084,336.795v 9.22726" fill="none" stroke="black"/>
<path d="M447.194,341.409v 4.61363" fill="none" stroke="black"/>
<path d="M462.305,341.409v 4.61363" fill="none" stroke="black"/>
<path d="M477.416,341.409v 4.61363" fill="none" stroke="black"/>
<path d="M492.527,341.409v 4.61363" fill="none" stroke="black"/>
<path d="M507.637,336.795v 9.22726" fill="none" stroke="black"/>
<path d="M129.869,336.795v 9.22726" fill="none" stroke="black"/>
<path d="M114.758,341.409v 4.61363" fill="none" stroke="black"/>
<path d="M99.6476,341.409v 4.61363" fill="none" stroke="black"/>
<path d="M84.5368,341.409v 4.61363" fill="none" stroke="black"/>
<path d="M69.4261,341.409v 4.61363" fill="none" stroke="black"/>
<path d="M507.637,336.795v 9.22726" fill="none" stroke="black"/>
<text xml:space="preserve" x="118.61" y="358.403" fill="black" font-size="12.8453" font-family="Helvetica">790</text>
<text xml:space="preserve" x="194.364" y="358.403" fill="black" font-size="12.8453" font-family="Helvetica">800</text>
<text xml:space="preserve" x="270.117" y="358.403" fill="black" font-size="12.8453" font-family="Helvetica">810</text>
<text xml:space="preserve" x="345.871" y="358.403" fill="black" font-size="12.8453" font-family="Helvetica">820</text>
<text xml:space="preserve" x="420.81" y="358.403" fill="black" font-size="12.8453" font-family="Helvetica">830</text>
<text xml:space="preserve" x="496.563" y="358.403" fill="black" font-size="12.8453" font-family="Helvetica">840</text>
<text xml:space="preserve" x="460.723" y="370.622" fill="black" font-size="12.8453" font-family="Helvetica">Time [ns]</text>
<path d="M57.1929,346.022v -307.575" fill="none" stroke="black"/>
<path d="M70.7992,346.022h -13.6063" fill="none" stroke="black"/>
<path d="M63.9961,337.904h -6.80315" fill="none" stroke="black"/>
<path d="M63.9961,329.786h -6.80315" fill="none" stroke="black"/>
<path d="M63.9961,321.669h -6.80315" fill="none" stroke="black"/>
<path d="M63.9961,313.551h -6.80315" fill="none" stroke="black"/>
<path d="M70.7992,305.433h -13.6063" fill="none" stroke="black"/>
<path d="M63.9961,297.315h -6.80315" fill="none" stroke="black"/>
<path d="M63.9961,289.197h -6.80315" fill="none" stroke="black"/>
<path d="M63.9961,281.079h -6.80315" fill="none" stroke="black"/>
<path d="M63.9961,272.961h -6.80315" fill="none" stroke="black"/>
<path d="M70.7992,264.844h -13.6063" fill="none" stroke="black"/>
<path d="M63.9961,256.726h -6.80315" fill="none" stroke="black"/>
<path d="M63.9961,248.608h -6.80315" fill="none" stroke="black"/>
<path d="M63.9961,240.49h -6.80315" fill="none" stroke="black"/>
<path d="M63.9961,232.372h -6.80315" fill="none" stroke="black"/>
<path d="M70.7992,224.254h -13.6063" fill="none" stroke="black"/>
<path d="M63.9961,216.136h -6.80315" fill="none" stroke="black"/>
<path d="M63.9961,208.018h -6.80315" fill="none" stroke="black"/>
<path d="M63.9961,199.901h -6.80315" fill="none" stroke="black"/>
<path d="M63.9961,191.783h -6.80315" fill="none" stroke="black"/>
<path d="M70.7992,183.665h -13.6063" fill="none" stroke="black"/>
<path d="M63.9961,175.547h -6.80315" fill="none" stroke="black"/>
<path d="M63.9961,167.429h -6.80315" fill="none" stroke="black"/>
<path d="M63.9961,159.311h -6.80315" fill="none" stroke="black"/>
<path d="M63.9961,151.193h -6.80315" fill="none" stroke="black"/>
<path d="M70.7992,143.075h -13.6063" fill="none" stroke="black"/>
<path d="M63.9961,134.958h -6.80315" fill="none" stroke="black"/>
<path d="M63.9961,126.84h -6.80315" fill="none" stroke="black"/>
<path d="M63.9961,118.722h -6.80315" fill="none" stroke="black"/>
<path d="M63.9961,110.604h -6.80315" fill="none" stroke="black"/>
<path d="M70.7992,102.486h -13.6063" fill="none" stroke="black"/>
<path d="M63.9961,94.3681h -6.80315" fill="none" stroke="black"/>
<path d="M63.9961,86.2503h -6.80315" fill="none" stroke="black"/>
<path d="M63.9961,78.1324h -6.80315" fill="none" stroke="black"/>
<path d="M63.9961,70.0145h -6.80315" fill="none" stroke="black"/>
<path d="M70.7992,61.8966h -13.6063" fill="none" stroke="black"/>
<path d="M70.7992,61.8966h -13.6063" fill="none" stroke="black"/>
<path d="M63.9961,53.7788h -6.80315" fill="none" stroke="black"/>
<path d="M63.9961,45.6609h -6.80315" fill="none" stroke="black"/>
<text xml:space="preserve" x="47.7441" y="350.258" fill="black" font-size="12.8453" font-family="Helvetica">0</text>
<text xml:space="preserve" x="47.7441" y="309.53" fill="black" font-size="12.8453" font-family="Helvetica">5</text>
<text xml:space="preserve" x="41.2277" y="269.617" fill="black" font-size="12.8453" font-family="Helvetica">10</text>
<text xml:space="preserve" x="40.4131" y="228.889" fill="black" font-size="12.8453" font-family="Helvetica">15</text>
<text xml:space="preserve" x="41.2277" y="188.162" fill="black" font-size="12.8453" font-family="Helvetica">20</text>
<text xml:space="preserve" x="40.4131" y="147.434" fill="black" font-size="12.8453" font-family="Helvetica">25</text>
<text xml:space="preserve" x="41.2277" y="106.706" fill="black" font-size="12.8453" font-family="Helvetica">30</text>
<text xml:space="preserve" x="40.4131" y="65.9788" fill="black" font-size="12.8453" font-family="Helvetica">35</text>
<g transform="rotate(-90,28.1948,70.0516)">
<text xml:space="preserve" x="28.1948" y="70.0516" fill="black" font-size="12.8453" font-family="Helvetica">Event</text>
</g>
<text xml:space="preserve" x="248.124" y="18.7347" fill="black" font-size="16.9898" font-family="Helvetica">560mm 0</text></svg>
