<?xml version="1.0" standalone="no"?>
<svg width="567.429" height="384.969" viewBox="0 0 567.429 384.969" xmlns="http://www.w3.org/2000/svg" shape-rendering="crispEdges">
<title>
img/week2/Combined0mm_ch_15.svg
</title>
<desc>
Creator: ROOT Version 6.22/09
CreationDate: Thu Jun 24 12:12:14 2021</desc>
<defs>
</defs>
<rect x="0.5" y="0" width="566.929" height="384.469" fill="white"/>
<rect x="57.1929" y="38.4469" width="453.543" height="307.575" fill="white"/>
<rect x="57.1929" y="38.4469" width="453.543" height="307.575" fill="none" stroke="black"/>
<rect x="57.1929" y="38.4469" width="453.543" height="307.575" fill="white"/>
<rect x="57.1929" y="38.4469" width="453.543" height="307.575" fill="none" stroke="black"/>
<path d="M57.1929,346.022h 129.584v -4.88215h 32.396v -34.175h 32.396v -151.347h 32.396v -102.525h 32.396v 273.4h 32.396v 19.5286h 161.98" fill="none" stroke="#000099"/>
<g fill="#ff0000">
<polygon points=" 295.927, 48.8577 304.398, 48.8577 300.163, 57.329"/>
</g>
<path d="M59.4606,346.022h 136.063l 4.53543, -0.0474484l 4.53543, -0.0695878l 4.53543, -0.157936l 4.53543, -0.340388l 4.53543, -0.696357l 4.53543, -1.35159l 4.53543, -2.48748l 4.53543, -4.3377l 4.53543, -7.16062l 4.53543, -11.1772l 4.53543, -16.4724l
 4.53543, -22.8747l 4.53543, -29.8495l 4.53543, -36.4589l 4.53543, -41.4387l 4.53543, -43.4179l 4.53543, -41.253l 4.53543, -34.3909l 2.66457, -13.5931" fill="none" stroke="#ff0000" stroke-width="2"/>
<path d="M293.141,38.4469l 2.16193, 10.3044" fill="none" stroke="#ff0000" stroke-width="2"/>
<path d="M295.303,48.7513l 4.53543, 33.3115l 4.53543, 40.7088l 4.53543, 43.3971l 4.53543, 41.8418l 4.53543, 37.1367l 4.53543, 30.6451l 4.53543, 23.6572l 4.53543, 17.1548l 4.53543, 11.7183l 4.53543, 7.55616l 4.53543, 4.60639l 4.53543, 2.65804l
 4.53543, 1.45314l 4.53543, 0.753218l 4.53543, 0.370393l 4.53543, 0.172882l 4.53543, 0.076623l 4.53543, 0.0527374h 131.528" fill="none" stroke="#ff0000" stroke-width="2"/>
<path d="M57.1929,346.022h 453.543" fill="none" stroke="black"/>
<path d="M86.5058,336.795v 9.22726" fill="none" stroke="black"/>
<path d="M102.696,341.409v 4.61363" fill="none" stroke="black"/>
<path d="M118.886,341.409v 4.61363" fill="none" stroke="black"/>
<path d="M135.076,341.409v 4.61363" fill="none" stroke="black"/>
<path d="M151.266,341.409v 4.61363" fill="none" stroke="black"/>
<path d="M167.456,336.795v 9.22726" fill="none" stroke="black"/>
<path d="M183.646,341.409v 4.61363" fill="none" stroke="black"/>
<path d="M199.836,341.409v 4.61363" fill="none" stroke="black"/>
<path d="M216.026,341.409v 4.61363" fill="none" stroke="black"/>
<path d="M232.216,341.409v 4.61363" fill="none" stroke="black"/>
<path d="M248.406,336.795v 9.22726" fill="none" stroke="black"/>
<path d="M264.597,341.409v 4.61363" fill="none" stroke="black"/>
<path d="M280.787,341.409v 4.61363" fill="none" stroke="black"/>
<path d="M296.977,341.409v 4.61363" fill="none" stroke="black"/>
<path d="M313.167,341.409v 4.61363" fill="none" stroke="black"/>
<path d="M329.357,336.795v 9.22726" fill="none" stroke="black"/>
<path d="M345.547,341.409v 4.61363" fill="none" stroke="black"/>
<path d="M361.737,341.409v 4.61363" fill="none" stroke="black"/>
<path d="M377.927,341.409v 4.61363" fill="none" stroke="black"/>
<path d="M394.117,341.409v 4.61363" fill="none" stroke="black"/>
<path d="M410.307,336.795v 9.22726" fill="none" stroke="black"/>
<path d="M426.497,341.409v 4.61363" fill="none" stroke="black"/>
<path d="M442.687,341.409v 4.61363" fill="none" stroke="black"/>
<path d="M458.877,341.409v 4.61363" fill="none" stroke="black"/>
<path d="M475.067,341.409v 4.61363" fill="none" stroke="black"/>
<path d="M491.258,336.795v 9.22726" fill="none" stroke="black"/>
<path d="M86.5058,336.795v 9.22726" fill="none" stroke="black"/>
<path d="M70.3157,341.409v 4.61363" fill="none" stroke="black"/>
<path d="M491.258,336.795v 9.22726" fill="none" stroke="black"/>
<path d="M507.448,341.409v 4.61363" fill="none" stroke="black"/>
<text xml:space="preserve" x="75.4389" y="358.403" fill="black" font-size="12.8453" font-family="Helvetica">780</text>
<text xml:space="preserve" x="156.08" y="358.403" fill="black" font-size="12.8453" font-family="Helvetica">790</text>
<text xml:space="preserve" x="237.535" y="358.403" fill="black" font-size="12.8453" font-family="Helvetica">800</text>
<text xml:space="preserve" x="318.176" y="358.403" fill="black" font-size="12.8453" font-family="Helvetica">810</text>
<text xml:space="preserve" x="399.631" y="358.403" fill="black" font-size="12.8453" font-family="Helvetica">820</text>
<text xml:space="preserve" x="480.272" y="358.403" fill="black" font-size="12.8453" font-family="Helvetica">830</text>
<text xml:space="preserve" x="460.723" y="370.622" fill="black" font-size="12.8453" font-family="Helvetica">Time [ps]</text>
<path d="M57.1929,346.022v -307.575" fill="none" stroke="black"/>
<path d="M70.7992,346.022h -13.6063" fill="none" stroke="black"/>
<path d="M63.9961,336.258h -6.80315" fill="none" stroke="black"/>
<path d="M63.9961,326.494h -6.80315" fill="none" stroke="black"/>
<path d="M63.9961,316.729h -6.80315" fill="none" stroke="black"/>
<path d="M63.9961,306.965h -6.80315" fill="none" stroke="black"/>
<path d="M70.7992,297.201h -13.6063" fill="none" stroke="black"/>
<path d="M63.9961,287.436h -6.80315" fill="none" stroke="black"/>
<path d="M63.9961,277.672h -6.80315" fill="none" stroke="black"/>
<path d="M63.9961,267.908h -6.80315" fill="none" stroke="black"/>
<path d="M63.9961,258.144h -6.80315" fill="none" stroke="black"/>
<path d="M70.7992,248.379h -13.6063" fill="none" stroke="black"/>
<path d="M63.9961,238.615h -6.80315" fill="none" stroke="black"/>
<path d="M63.9961,228.851h -6.80315" fill="none" stroke="black"/>
<path d="M63.9961,219.086h -6.80315" fill="none" stroke="black"/>
<path d="M63.9961,209.322h -6.80315" fill="none" stroke="black"/>
<path d="M70.7992,199.558h -13.6063" fill="none" stroke="black"/>
<path d="M63.9961,189.794h -6.80315" fill="none" stroke="black"/>
<path d="M63.9961,180.029h -6.80315" fill="none" stroke="black"/>
<path d="M63.9961,170.265h -6.80315" fill="none" stroke="black"/>
<path d="M63.9961,160.501h -6.80315" fill="none" stroke="black"/>
<path d="M70.7992,150.736h -13.6063" fill="none" stroke="black"/>
<path d="M63.9961,140.972h -6.80315" fill="none" stroke="black"/>
<path d="M63.9961,131.208h -6.80315" fill="none" stroke="black"/>
<path d="M63.9961,121.443h -6.80315" fill="none" stroke="black"/>
<path d="M63.9961,111.679h -6.80315" fill="none" stroke="black"/>
<path d="M70.7992,101.915h -13.6063" fill="none" stroke="black"/>
<path d="M63.9961,92.1506h -6.80315" fill="none" stroke="black"/>
<path d="M63.9961,82.3863h -6.80315" fill="none" stroke="black"/>
<path d="M63.9961,72.622h -6.80315" fill="none" stroke="black"/>
<path d="M63.9961,62.8577h -6.80315" fill="none" stroke="black"/>
<path d="M70.7992,53.0934h -13.6063" fill="none" stroke="black"/>
<path d="M70.7992,53.0934h -13.6063" fill="none" stroke="black"/>
<path d="M63.9961,43.3291h -6.80315" fill="none" stroke="black"/>
<text xml:space="preserve" x="47.7441" y="350.258" fill="black" font-size="12.8453" font-family="Helvetica">0</text>
<text xml:space="preserve" x="41.2277" y="301.385" fill="black" font-size="12.8453" font-family="Helvetica">10</text>
<text xml:space="preserve" x="41.2277" y="252.512" fill="black" font-size="12.8453" font-family="Helvetica">20</text>
<text xml:space="preserve" x="41.2277" y="203.638" fill="black" font-size="12.8453" font-family="Helvetica">30</text>
<text xml:space="preserve" x="41.2277" y="155.58" fill="black" font-size="12.8453" font-family="Helvetica">40</text>
<text xml:space="preserve" x="41.2277" y="106.706" fill="black" font-size="12.8453" font-family="Helvetica">50</text>
<text xml:space="preserve" x="41.2277" y="57.8333" fill="black" font-size="12.8453" font-family="Helvetica">60</text>
<g transform="rotate(-90,29.0094,70.0516)">
<text xml:space="preserve" x="29.0094" y="70.0516" fill="black" font-size="12.8453" font-family="Helvetica">Event</text>
</g>
<text xml:space="preserve" x="253.012" y="18.7347" fill="black" font-size="16.9898" font-family="Helvetica">0mm 15</text></svg>
