<?xml version="1.0" standalone="no"?>
<svg width="567.429" height="384.969" viewBox="0 0 567.429 384.969" xmlns="http://www.w3.org/2000/svg" shape-rendering="crispEdges">
<title>
img/week2/Combined670mm_ch_43.svg
</title>
<desc>
Creator: ROOT Version 6.22/09
CreationDate: Thu Jun 24 12:33:06 2021</desc>
<defs>
</defs>
<rect x="0.5" y="0" width="566.929" height="384.469" fill="white"/>
<rect x="57.1929" y="38.4469" width="453.543" height="307.575" fill="white"/>
<rect x="57.1929" y="38.4469" width="453.543" height="307.575" fill="none" stroke="black"/>
<rect x="57.1929" y="38.4469" width="453.543" height="307.575" fill="white"/>
<rect x="57.1929" y="38.4469" width="453.543" height="307.575" fill="none" stroke="black"/>
<path d="M57.1929,346.022h 129.584v -9.44932h 32.396v -33.0726h 32.396v -137.015h 32.396v -113.392h 32.396v 264.581h 32.396v 28.348h 161.98" fill="none" stroke="#000099"/>
<g fill="#ff0000">
<polygon points=" 295.927, 48.8577 304.398, 48.8577 300.163, 57.329"/>
</g>
<path d="M59.4606,346.022h 131.528l 4.53543, -0.0630803l 4.53543, -0.0800988l 4.53543, -0.168543l 4.53543, -0.339242l 4.53543, -0.652947l 4.53543, -1.20128l 4.53543, -2.11155l 4.53543, -3.54404l 4.53543, -5.67584l 4.53543, -8.66585l 4.53543,
 -12.5995l 4.53543, -17.4193l 4.53543, -22.8561l 4.53543, -28.387l 4.53543, -33.2472l 4.53543, -36.5159l 4.53543, -37.2775l 4.53543, -34.8329l 4.53543, -28.9059l 4.53543, -19.7829" fill="none" stroke="#ff0000" stroke-width="2"/>
<path d="M281.697,51.6956l 4.53543, -8.3294l 4.53543, 4.13777l 4.53543, 16.099l 4.53543, 26.1365l 4.53543, 33.2101l 4.53543, 36.8318l 4.53543, 37.097l 4.53543, 34.5826l 4.53543, 30.1556l 4.53543, 24.7561l 4.53543, 19.2158l 4.53543, 14.1442l 4.53543,
 9.8941l 4.53543, 6.58781l 4.53543, 4.18027l 4.53543, 2.53034l 4.53543, 1.46217l 4.53543, 0.807103l 4.53543, 0.425786l 4.53543, 0.214767l 4.53543, 0.103613l 4.53543, 0.0478252l 4.53543, 0.0358739h 117.921" fill="none" stroke="#ff0000"
 stroke-width="2"/>
<path d="M503.933,346.022h 4.53543" fill="none" stroke="#ff0000" stroke-width="2"/>
<path d="M57.1929,346.022h 453.543" fill="none" stroke="black"/>
<path d="M86.5058,336.795v 9.22726" fill="none" stroke="black"/>
<path d="M102.696,341.409v 4.61363" fill="none" stroke="black"/>
<path d="M118.886,341.409v 4.61363" fill="none" stroke="black"/>
<path d="M135.076,341.409v 4.61363" fill="none" stroke="black"/>
<path d="M151.266,341.409v 4.61363" fill="none" stroke="black"/>
<path d="M167.456,336.795v 9.22726" fill="none" stroke="black"/>
<path d="M183.646,341.409v 4.61363" fill="none" stroke="black"/>
<path d="M199.836,341.409v 4.61363" fill="none" stroke="black"/>
<path d="M216.026,341.409v 4.61363" fill="none" stroke="black"/>
<path d="M232.216,341.409v 4.61363" fill="none" stroke="black"/>
<path d="M248.406,336.795v 9.22726" fill="none" stroke="black"/>
<path d="M264.597,341.409v 4.61363" fill="none" stroke="black"/>
<path d="M280.787,341.409v 4.61363" fill="none" stroke="black"/>
<path d="M296.977,341.409v 4.61363" fill="none" stroke="black"/>
<path d="M313.167,341.409v 4.61363" fill="none" stroke="black"/>
<path d="M329.357,336.795v 9.22726" fill="none" stroke="black"/>
<path d="M345.547,341.409v 4.61363" fill="none" stroke="black"/>
<path d="M361.737,341.409v 4.61363" fill="none" stroke="black"/>
<path d="M377.927,341.409v 4.61363" fill="none" stroke="black"/>
<path d="M394.117,341.409v 4.61363" fill="none" stroke="black"/>
<path d="M410.307,336.795v 9.22726" fill="none" stroke="black"/>
<path d="M426.497,341.409v 4.61363" fill="none" stroke="black"/>
<path d="M442.687,341.409v 4.61363" fill="none" stroke="black"/>
<path d="M458.877,341.409v 4.61363" fill="none" stroke="black"/>
<path d="M475.067,341.409v 4.61363" fill="none" stroke="black"/>
<path d="M491.258,336.795v 9.22726" fill="none" stroke="black"/>
<path d="M86.5058,336.795v 9.22726" fill="none" stroke="black"/>
<path d="M70.3157,341.409v 4.61363" fill="none" stroke="black"/>
<path d="M491.258,336.795v 9.22726" fill="none" stroke="black"/>
<path d="M507.448,341.409v 4.61363" fill="none" stroke="black"/>
<text xml:space="preserve" x="75.4389" y="358.403" fill="black" font-size="12.8453" font-family="Helvetica">780</text>
<text xml:space="preserve" x="156.08" y="358.403" fill="black" font-size="12.8453" font-family="Helvetica">790</text>
<text xml:space="preserve" x="237.535" y="358.403" fill="black" font-size="12.8453" font-family="Helvetica">800</text>
<text xml:space="preserve" x="318.176" y="358.403" fill="black" font-size="12.8453" font-family="Helvetica">810</text>
<text xml:space="preserve" x="399.631" y="358.403" fill="black" font-size="12.8453" font-family="Helvetica">820</text>
<text xml:space="preserve" x="480.272" y="358.403" fill="black" font-size="12.8453" font-family="Helvetica">830</text>
<text xml:space="preserve" x="460.723" y="370.622" fill="black" font-size="12.8453" font-family="Helvetica">Time [ns]</text>
<path d="M57.1929,346.022v -307.575" fill="none" stroke="black"/>
<path d="M70.7992,346.022h -13.6063" fill="none" stroke="black"/>
<path d="M63.9961,336.573h -6.80315" fill="none" stroke="black"/>
<path d="M63.9961,327.124h -6.80315" fill="none" stroke="black"/>
<path d="M63.9961,317.674h -6.80315" fill="none" stroke="black"/>
<path d="M63.9961,308.225h -6.80315" fill="none" stroke="black"/>
<path d="M70.7992,298.776h -13.6063" fill="none" stroke="black"/>
<path d="M63.9961,289.326h -6.80315" fill="none" stroke="black"/>
<path d="M63.9961,279.877h -6.80315" fill="none" stroke="black"/>
<path d="M63.9961,270.428h -6.80315" fill="none" stroke="black"/>
<path d="M63.9961,260.978h -6.80315" fill="none" stroke="black"/>
<path d="M70.7992,251.529h -13.6063" fill="none" stroke="black"/>
<path d="M63.9961,242.08h -6.80315" fill="none" stroke="black"/>
<path d="M63.9961,232.63h -6.80315" fill="none" stroke="black"/>
<path d="M63.9961,223.181h -6.80315" fill="none" stroke="black"/>
<path d="M63.9961,213.732h -6.80315" fill="none" stroke="black"/>
<path d="M70.7992,204.282h -13.6063" fill="none" stroke="black"/>
<path d="M63.9961,194.833h -6.80315" fill="none" stroke="black"/>
<path d="M63.9961,185.384h -6.80315" fill="none" stroke="black"/>
<path d="M63.9961,175.935h -6.80315" fill="none" stroke="black"/>
<path d="M63.9961,166.485h -6.80315" fill="none" stroke="black"/>
<path d="M70.7992,157.036h -13.6063" fill="none" stroke="black"/>
<path d="M63.9961,147.587h -6.80315" fill="none" stroke="black"/>
<path d="M63.9961,138.137h -6.80315" fill="none" stroke="black"/>
<path d="M63.9961,128.688h -6.80315" fill="none" stroke="black"/>
<path d="M63.9961,119.239h -6.80315" fill="none" stroke="black"/>
<path d="M70.7992,109.789h -13.6063" fill="none" stroke="black"/>
<path d="M63.9961,100.34h -6.80315" fill="none" stroke="black"/>
<path d="M63.9961,90.8906h -6.80315" fill="none" stroke="black"/>
<path d="M63.9961,81.4413h -6.80315" fill="none" stroke="black"/>
<path d="M63.9961,71.992h -6.80315" fill="none" stroke="black"/>
<path d="M70.7992,62.5427h -13.6063" fill="none" stroke="black"/>
<path d="M70.7992,62.5427h -13.6063" fill="none" stroke="black"/>
<path d="M63.9961,53.0934h -6.80315" fill="none" stroke="black"/>
<path d="M63.9961,43.644h -6.80315" fill="none" stroke="black"/>
<text xml:space="preserve" x="47.7441" y="350.258" fill="black" font-size="12.8453" font-family="Helvetica">0</text>
<text xml:space="preserve" x="41.2277" y="303.014" fill="black" font-size="12.8453" font-family="Helvetica">10</text>
<text xml:space="preserve" x="41.2277" y="255.77" fill="black" font-size="12.8453" font-family="Helvetica">20</text>
<text xml:space="preserve" x="41.2277" y="208.526" fill="black" font-size="12.8453" font-family="Helvetica">30</text>
<text xml:space="preserve" x="41.2277" y="161.282" fill="black" font-size="12.8453" font-family="Helvetica">40</text>
<text xml:space="preserve" x="41.2277" y="114.037" fill="black" font-size="12.8453" font-family="Helvetica">50</text>
<text xml:space="preserve" x="41.2277" y="66.7934" fill="black" font-size="12.8453" font-family="Helvetica">60</text>
<g transform="rotate(-90,29.0094,70.0516)">
<text xml:space="preserve" x="29.0094" y="70.0516" fill="black" font-size="12.8453" font-family="Helvetica">Event</text>
</g>
<text xml:space="preserve" x="243.237" y="18.7347" fill="black" font-size="16.9898" font-family="Helvetica">670mm 43</text></svg>
