<?xml version="1.0" standalone="no"?>
<svg width="567.429" height="384.969" viewBox="0 0 567.429 384.969" xmlns="http://www.w3.org/2000/svg" shape-rendering="crispEdges">
<title>
img/week2/Combined0mm_ch_48_49_50_51.svg
</title>
<desc>
Creator: ROOT Version 6.22/09
CreationDate: Thu Jun 24 12:32:52 2021</desc>
<defs>
</defs>
<rect x="0.5" y="0" width="566.929" height="384.469" fill="white"/>
<rect x="57.1929" y="38.4469" width="453.543" height="307.575" fill="white"/>
<rect x="57.1929" y="38.4469" width="453.543" height="307.575" fill="none" stroke="black"/>
<rect x="57.1929" y="38.4469" width="453.543" height="307.575" fill="white"/>
<rect x="57.1929" y="38.4469" width="453.543" height="307.575" fill="none" stroke="black"/>
<path d="M57.1929,346.022h 60.4724v -1.22564h 30.2362v -2.45129h 30.2362v -2.45129h 30.2362v -6.12822h 30.2362v -73.5386h 30.2362v -207.134h 30.2362v 183.847h 30.2362v 105.405h 30.2362v 3.67693h 151.181" fill="none" stroke="#000099"/>
<g fill="#ff0000">
<polygon points=" 279.729, 48.8577 288.2, 48.8577 283.965, 57.329"/>
</g>
<path d="M59.4606,346.022h 136.063l 4.53543, -0.0610877l 4.53543, -0.086004l 4.53543, -0.190439l 4.53543, -0.400591l 4.53543, -0.800149l 4.53543, -1.51685l 4.53543, -2.72735l 4.53543, -4.64765l 4.53543, -7.49885l 4.53543, -11.4416l 4.53543, -16.4815l
 4.53543, -22.3654l 4.53543, -28.5039l 4.53543, -33.9678l 4.53543, -37.5965l 4.53543, -38.2261l 4.53543, -34.997l 4.53543, -27.6516l 4.53543, -16.7169" fill="none" stroke="#ff0000" stroke-width="2"/>
<path d="M281.697,60.145l 4.53543, -3.48266l 4.53543, 10.2422l 4.53543, 22.5354l 4.53543, 31.8031l 4.53543, 37.1174l 4.53543, 38.3528l 4.53543, 36.0986l 4.53543, 31.406l 4.53543, 25.4721l 4.53543, 19.3641l 4.53543, 13.8481l 4.53543, 9.34035l 4.53543,
 5.95297l 4.53543, 3.5902l 4.53543, 2.05114l 4.53543, 1.11107l 4.53543, 0.57103l 4.53543, 0.278607l 4.53543, 0.129106l 4.53543, 0.0568449l 4.53543, 0.0387705h 126.992" fill="none" stroke="#ff0000" stroke-width="2"/>
<path d="M503.933,346.022h 4.53543" fill="none" stroke="#ff0000" stroke-width="2"/>
<path d="M57.1929,346.022h 453.543" fill="none" stroke="black"/>
<path d="M129.869,336.795v 9.22726" fill="none" stroke="black"/>
<path d="M144.98,341.409v 4.61363" fill="none" stroke="black"/>
<path d="M160.09,341.409v 4.61363" fill="none" stroke="black"/>
<path d="M175.201,341.409v 4.61363" fill="none" stroke="black"/>
<path d="M190.312,341.409v 4.61363" fill="none" stroke="black"/>
<path d="M205.423,336.795v 9.22726" fill="none" stroke="black"/>
<path d="M220.533,341.409v 4.61363" fill="none" stroke="black"/>
<path d="M235.644,341.409v 4.61363" fill="none" stroke="black"/>
<path d="M250.755,341.409v 4.61363" fill="none" stroke="black"/>
<path d="M265.866,341.409v 4.61363" fill="none" stroke="black"/>
<path d="M280.976,336.795v 9.22726" fill="none" stroke="black"/>
<path d="M296.087,341.409v 4.61363" fill="none" stroke="black"/>
<path d="M311.198,341.409v 4.61363" fill="none" stroke="black"/>
<path d="M326.309,341.409v 4.61363" fill="none" stroke="black"/>
<path d="M341.419,341.409v 4.61363" fill="none" stroke="black"/>
<path d="M356.53,336.795v 9.22726" fill="none" stroke="black"/>
<path d="M371.641,341.409v 4.61363" fill="none" stroke="black"/>
<path d="M386.751,341.409v 4.61363" fill="none" stroke="black"/>
<path d="M401.862,341.409v 4.61363" fill="none" stroke="black"/>
<path d="M416.973,341.409v 4.61363" fill="none" stroke="black"/>
<path d="M432.084,336.795v 9.22726" fill="none" stroke="black"/>
<path d="M447.194,341.409v 4.61363" fill="none" stroke="black"/>
<path d="M462.305,341.409v 4.61363" fill="none" stroke="black"/>
<path d="M477.416,341.409v 4.61363" fill="none" stroke="black"/>
<path d="M492.527,341.409v 4.61363" fill="none" stroke="black"/>
<path d="M507.637,336.795v 9.22726" fill="none" stroke="black"/>
<path d="M129.869,336.795v 9.22726" fill="none" stroke="black"/>
<path d="M114.758,341.409v 4.61363" fill="none" stroke="black"/>
<path d="M99.6476,341.409v 4.61363" fill="none" stroke="black"/>
<path d="M84.5368,341.409v 4.61363" fill="none" stroke="black"/>
<path d="M69.4261,341.409v 4.61363" fill="none" stroke="black"/>
<path d="M507.637,336.795v 9.22726" fill="none" stroke="black"/>
<text xml:space="preserve" x="118.61" y="358.403" fill="black" font-size="12.8453" font-family="Helvetica">790</text>
<text xml:space="preserve" x="194.364" y="358.403" fill="black" font-size="12.8453" font-family="Helvetica">800</text>
<text xml:space="preserve" x="270.117" y="358.403" fill="black" font-size="12.8453" font-family="Helvetica">810</text>
<text xml:space="preserve" x="345.871" y="358.403" fill="black" font-size="12.8453" font-family="Helvetica">820</text>
<text xml:space="preserve" x="420.81" y="358.403" fill="black" font-size="12.8453" font-family="Helvetica">830</text>
<text xml:space="preserve" x="496.563" y="358.403" fill="black" font-size="12.8453" font-family="Helvetica">840</text>
<text xml:space="preserve" x="460.723" y="370.622" fill="black" font-size="12.8453" font-family="Helvetica">Time [ns]</text>
<path d="M57.1929,346.022v -307.575" fill="none" stroke="black"/>
<path d="M70.7992,346.022h -13.6063" fill="none" stroke="black"/>
<path d="M63.9961,333.766h -6.80315" fill="none" stroke="black"/>
<path d="M63.9961,321.509h -6.80315" fill="none" stroke="black"/>
<path d="M63.9961,309.253h -6.80315" fill="none" stroke="black"/>
<path d="M63.9961,296.996h -6.80315" fill="none" stroke="black"/>
<path d="M70.7992,284.74h -13.6063" fill="none" stroke="black"/>
<path d="M63.9961,272.484h -6.80315" fill="none" stroke="black"/>
<path d="M63.9961,260.227h -6.80315" fill="none" stroke="black"/>
<path d="M63.9961,247.971h -6.80315" fill="none" stroke="black"/>
<path d="M63.9961,235.714h -6.80315" fill="none" stroke="black"/>
<path d="M70.7992,223.458h -13.6063" fill="none" stroke="black"/>
<path d="M63.9961,211.201h -6.80315" fill="none" stroke="black"/>
<path d="M63.9961,198.945h -6.80315" fill="none" stroke="black"/>
<path d="M63.9961,186.689h -6.80315" fill="none" stroke="black"/>
<path d="M63.9961,174.432h -6.80315" fill="none" stroke="black"/>
<path d="M70.7992,162.176h -13.6063" fill="none" stroke="black"/>
<path d="M63.9961,149.919h -6.80315" fill="none" stroke="black"/>
<path d="M63.9961,137.663h -6.80315" fill="none" stroke="black"/>
<path d="M63.9961,125.406h -6.80315" fill="none" stroke="black"/>
<path d="M63.9961,113.15h -6.80315" fill="none" stroke="black"/>
<path d="M70.7992,100.893h -13.6063" fill="none" stroke="black"/>
<path d="M63.9961,88.637h -6.80315" fill="none" stroke="black"/>
<path d="M63.9961,76.3806h -6.80315" fill="none" stroke="black"/>
<path d="M63.9961,64.1242h -6.80315" fill="none" stroke="black"/>
<path d="M63.9961,51.8677h -6.80315" fill="none" stroke="black"/>
<path d="M70.7992,39.6113h -13.6063" fill="none" stroke="black"/>
<path d="M70.7992,39.6113h -13.6063" fill="none" stroke="black"/>
<text xml:space="preserve" x="47.7441" y="350.258" fill="black" font-size="12.8453" font-family="Helvetica">0</text>
<text xml:space="preserve" x="41.2277" y="289.166" fill="black" font-size="12.8453" font-family="Helvetica">50</text>
<text xml:space="preserve" x="33.8967" y="228.075" fill="black" font-size="12.8453" font-family="Helvetica">100</text>
<text xml:space="preserve" x="33.8967" y="166.983" fill="black" font-size="12.8453" font-family="Helvetica">150</text>
<text xml:space="preserve" x="33.8967" y="105.077" fill="black" font-size="12.8453" font-family="Helvetica">200</text>
<text xml:space="preserve" x="33.8967" y="43.9859" fill="black" font-size="12.8453" font-family="Helvetica">250</text>
<g transform="rotate(-90,20.8638,70.0516)">
<text xml:space="preserve" x="20.8638" y="70.0516" fill="black" font-size="12.8453" font-family="Helvetica">Event</text>
</g>
<text xml:space="preserve" x="218.8" y="18.7347" fill="black" font-size="16.9898" font-family="Helvetica">0mm 48 49 50 51</text></svg>
