<?xml version="1.0" standalone="no"?>
<svg width="567.429" height="386.304" viewBox="0 0 567.429 386.304" xmlns="http://www.w3.org/2000/svg" shape-rendering="crispEdges">
<title>
img/week2/Combined670mm_ch_3.svg
</title>
<desc>
Creator: ROOT Version 6.22/08
CreationDate: Mon Jun 21 21:10:59 2021</desc>
<defs>
</defs>
<rect x="0.5" y="0" width="566.929" height="385.804" fill="white"/>
<rect x="57.1929" y="38.5804" width="453.543" height="308.643" fill="white"/>
<rect x="57.1929" y="38.5804" width="453.543" height="308.643" fill="none" stroke="black"/>
<rect x="57.1929" y="38.5804" width="453.543" height="308.643" fill="white"/>
<rect x="57.1929" y="38.5804" width="453.543" height="308.643" fill="none" stroke="black"/>
<path d="M57.1929,347.224h 141.732v -39.1928h 28.3465v -39.1928h 28.3465v -215.56h 28.3465v 146.973h 28.3465v 146.973h 198.425" fill="none" stroke="#000099"/>
<g fill="#ff0000">
<polygon points=" 265.568, 49.0542 274.015, 49.0542 269.791, 57.5013"/>
</g>
<path d="M59.4606,347.224h 122.457l 4.53543, -0.0657914l 4.53543, -0.0874314l 4.53543, -0.187932l 4.53543, -0.385041l 4.53543, -0.751653l 4.53543, -1.39743l 4.53543, -2.47287l 4.53543, -4.1623l 4.53543, -6.65816l 4.53543, -10.1109l 4.53543, -14.5559l
 4.53543, -19.8285l 4.53543, -25.4944l 4.53543, -30.8288l 4.53543, -34.8761l 4.53543, -36.6063l 4.53543, -35.1468l 4.53543, -30.0365l 4.53543, -21.4213l 4.53543, -10.1154l 4.53543, 2.51197l 4.53543, 14.8083" fill="none" stroke="#ff0000"
 stroke-width="2"/>
<path d="M281.697,79.3546l 4.53543, 25.1924l 4.53543, 32.489l 4.53543, 36.1432l 4.53543, 36.2642l 4.53543, 33.5035l 4.53543, 28.8263l 4.53543, 23.2578l 4.53543, 17.6759l 4.53543, 12.6933l 4.53543, 8.63211l 4.53543, 5.56837l 4.53543, 3.41158l 4.53543,
 1.98714l 4.53543, 1.10125l 4.53543, 0.581038l 4.53543, 0.292018l 4.53543, 0.139858l 4.53543, 0.0638555l 4.53543, 0.0465931h 136.063" fill="none" stroke="#ff0000" stroke-width="2"/>
<path d="M503.933,347.224h 4.53543" fill="none" stroke="#ff0000" stroke-width="2"/>
<rect x="351.996" y="25.0773" width="204.094" height="108.025" fill="white"/>
<path d="M351.996,133.102h 204.094" fill="none" stroke="black"/>
<path d="M556.091,133.102v -108.025" fill="none" stroke="black"/>
<path d="M556.091,25.0773h -204.094" fill="none" stroke="black"/>
<path d="M351.996,25.0773v 108.025" fill="none" stroke="black"/>
<text xml:space="preserve" x="361.938" y="38.9865" fill="black" font-size="15.6962" font-family="Helvetica">Entries </text>
<text xml:space="preserve" x="524.382" y="38.9865" fill="black" font-size="15.6962" font-family="Helvetica"> 57</text>
<text xml:space="preserve" x="375.745" y="57.6676" fill="black" font-size="15.6962" font-family="Helvetica"> / ndf </text>
<text xml:space="preserve" x="370.06" y="52.7943" fill="black" font-size="10.6308" font-family="Helvetica">2</text>
<text xml:space="preserve" x="361.938" y="57.6676" fill="black" font-size="15.6962" font-family="Times">&#0967;</text>
<text xml:space="preserve" x="483.771" y="57.6676" fill="black" font-size="15.6962" font-family="Helvetica"> 3.296 / 1</text>
<text xml:space="preserve" x="361.938" y="75.5364" fill="black" font-size="15.6962" font-family="Helvetica">Prob  </text>
<text xml:space="preserve" x="485.395" y="75.5364" fill="black" font-size="15.6962" font-family="Helvetica"> 0.06944</text>
<text xml:space="preserve" x="361.938" y="94.2175" fill="black" font-size="15.6962" font-family="Helvetica">Const    </text>
<text xml:space="preserve" x="511.386" y="93.4052" fill="black" font-size="15.6962" font-family="Helvetica"> 6.40</text>
<text xml:space="preserve" x="502.452" y="93.4052" fill="black" font-size="15.6962" font-family="Times">&#0177;</text>
<text xml:space="preserve" x="454.531" y="93.4052" fill="black" font-size="15.6962" font-family="Helvetica"> 29.17 </text>
<text xml:space="preserve" x="361.938" y="111.274" fill="black" font-size="15.6962" font-family="Helvetica">Mean     </text>
<text xml:space="preserve" x="520.32" y="111.274" fill="black" font-size="15.6962" font-family="Helvetica"> 0.5</text>
<text xml:space="preserve" x="511.386" y="111.274" fill="black" font-size="15.6962" font-family="Times">&#0177;</text>
<text xml:space="preserve" x="470.775" y="111.274" fill="black" font-size="15.6962" font-family="Helvetica">   811 </text>
<text xml:space="preserve" x="361.938" y="128.331" fill="black" font-size="15.6962" font-family="Helvetica">Sigma    </text>
<text xml:space="preserve" x="513.823" y="129.143" fill="black" font-size="15.6962" font-family="Helvetica"> 0.61</text>
<text xml:space="preserve" x="504.888" y="129.143" fill="black" font-size="15.6962" font-family="Times">&#0177;</text>
<text xml:space="preserve" x="461.841" y="129.143" fill="black" font-size="15.6962" font-family="Helvetica">  3.02 </text>
<path d="M57.1929,347.224h 453.543" fill="none" stroke="black"/>
<path d="M125.327,337.964v 9.2593" fill="none" stroke="black"/>
<path d="M139.493,342.594v 4.62965" fill="none" stroke="black"/>
<path d="M153.659,342.594v 4.62965" fill="none" stroke="black"/>
<path d="M167.826,342.594v 4.62965" fill="none" stroke="black"/>
<path d="M181.992,342.594v 4.62965" fill="none" stroke="black"/>
<path d="M196.158,337.964v 9.2593" fill="none" stroke="black"/>
<path d="M210.325,342.594v 4.62965" fill="none" stroke="black"/>
<path d="M224.491,342.594v 4.62965" fill="none" stroke="black"/>
<path d="M238.657,342.594v 4.62965" fill="none" stroke="black"/>
<path d="M252.824,342.594v 4.62965" fill="none" stroke="black"/>
<path d="M266.99,337.964v 9.2593" fill="none" stroke="black"/>
<path d="M281.156,342.594v 4.62965" fill="none" stroke="black"/>
<path d="M295.323,342.594v 4.62965" fill="none" stroke="black"/>
<path d="M309.489,342.594v 4.62965" fill="none" stroke="black"/>
<path d="M323.655,342.594v 4.62965" fill="none" stroke="black"/>
<path d="M337.821,337.964v 9.2593" fill="none" stroke="black"/>
<path d="M351.988,342.594v 4.62965" fill="none" stroke="black"/>
<path d="M366.154,342.594v 4.62965" fill="none" stroke="black"/>
<path d="M380.32,342.594v 4.62965" fill="none" stroke="black"/>
<path d="M394.487,342.594v 4.62965" fill="none" stroke="black"/>
<path d="M408.653,337.964v 9.2593" fill="none" stroke="black"/>
<path d="M422.819,342.594v 4.62965" fill="none" stroke="black"/>
<path d="M436.986,342.594v 4.62965" fill="none" stroke="black"/>
<path d="M451.152,342.594v 4.62965" fill="none" stroke="black"/>
<path d="M465.318,342.594v 4.62965" fill="none" stroke="black"/>
<path d="M479.485,337.964v 9.2593" fill="none" stroke="black"/>
<path d="M125.327,337.964v 9.2593" fill="none" stroke="black"/>
<path d="M111.16,342.594v 4.62965" fill="none" stroke="black"/>
<path d="M96.9942,342.594v 4.62965" fill="none" stroke="black"/>
<path d="M82.8279,342.594v 4.62965" fill="none" stroke="black"/>
<path d="M68.6615,342.594v 4.62965" fill="none" stroke="black"/>
<path d="M479.485,337.964v 9.2593" fill="none" stroke="black"/>
<path d="M493.651,342.594v 4.62965" fill="none" stroke="black"/>
<path d="M507.817,342.594v 4.62965" fill="none" stroke="black"/>
<text xml:space="preserve" x="113.398" y="359.813" fill="black" font-size="12.8882" font-family="Helvetica">790</text>
<text xml:space="preserve" x="184.062" y="359.813" fill="black" font-size="12.8882" font-family="Helvetica">800</text>
<text xml:space="preserve" x="255.537" y="359.813" fill="black" font-size="12.8882" font-family="Helvetica">810</text>
<text xml:space="preserve" x="326.2" y="359.813" fill="black" font-size="12.8882" font-family="Helvetica">820</text>
<text xml:space="preserve" x="396.863" y="359.813" fill="black" font-size="12.8882" font-family="Helvetica">830</text>
<text xml:space="preserve" x="467.526" y="359.813" fill="black" font-size="12.8882" font-family="Helvetica">840</text>
<text xml:space="preserve" x="481.334" y="373.621" fill="black" font-size="12.8882" font-family="Helvetica">Time</text>
<path d="M57.1929,347.224v -308.643" fill="none" stroke="black"/>
<path d="M70.7992,347.224h -13.6063" fill="none" stroke="black"/>
<path d="M63.9961,337.426h -6.80315" fill="none" stroke="black"/>
<path d="M63.9961,327.627h -6.80315" fill="none" stroke="black"/>
<path d="M63.9961,317.829h -6.80315" fill="none" stroke="black"/>
<path d="M63.9961,308.031h -6.80315" fill="none" stroke="black"/>
<path d="M70.7992,298.233h -13.6063" fill="none" stroke="black"/>
<path d="M63.9961,288.435h -6.80315" fill="none" stroke="black"/>
<path d="M63.9961,278.636h -6.80315" fill="none" stroke="black"/>
<path d="M63.9961,268.838h -6.80315" fill="none" stroke="black"/>
<path d="M63.9961,259.04h -6.80315" fill="none" stroke="black"/>
<path d="M70.7992,249.242h -13.6063" fill="none" stroke="black"/>
<path d="M63.9961,239.444h -6.80315" fill="none" stroke="black"/>
<path d="M63.9961,229.645h -6.80315" fill="none" stroke="black"/>
<path d="M63.9961,219.847h -6.80315" fill="none" stroke="black"/>
<path d="M63.9961,210.049h -6.80315" fill="none" stroke="black"/>
<path d="M70.7992,200.251h -13.6063" fill="none" stroke="black"/>
<path d="M63.9961,190.453h -6.80315" fill="none" stroke="black"/>
<path d="M63.9961,180.654h -6.80315" fill="none" stroke="black"/>
<path d="M63.9961,170.856h -6.80315" fill="none" stroke="black"/>
<path d="M63.9961,161.058h -6.80315" fill="none" stroke="black"/>
<path d="M70.7992,151.26h -13.6063" fill="none" stroke="black"/>
<path d="M63.9961,141.462h -6.80315" fill="none" stroke="black"/>
<path d="M63.9961,131.663h -6.80315" fill="none" stroke="black"/>
<path d="M63.9961,121.865h -6.80315" fill="none" stroke="black"/>
<path d="M63.9961,112.067h -6.80315" fill="none" stroke="black"/>
<path d="M70.7992,102.269h -13.6063" fill="none" stroke="black"/>
<path d="M63.9961,92.4705h -6.80315" fill="none" stroke="black"/>
<path d="M63.9961,82.6723h -6.80315" fill="none" stroke="black"/>
<path d="M63.9961,72.8741h -6.80315" fill="none" stroke="black"/>
<path d="M63.9961,63.0759h -6.80315" fill="none" stroke="black"/>
<path d="M70.7992,53.2777h -13.6063" fill="none" stroke="black"/>
<path d="M70.7992,53.2777h -13.6063" fill="none" stroke="black"/>
<path d="M63.9961,43.4795h -6.80315" fill="none" stroke="black"/>
<text xml:space="preserve" x="46.7965" y="351.691" fill="black" font-size="12.8882" font-family="Helvetica">0</text>
<text xml:space="preserve" x="46.7965" y="302.958" fill="black" font-size="12.8882" font-family="Helvetica">5</text>
<text xml:space="preserve" x="39.4865" y="253.412" fill="black" font-size="12.8882" font-family="Helvetica">10</text>
<text xml:space="preserve" x="39.4865" y="204.679" fill="black" font-size="12.8882" font-family="Helvetica">15</text>
<text xml:space="preserve" x="39.4865" y="155.946" fill="black" font-size="12.8882" font-family="Helvetica">20</text>
<text xml:space="preserve" x="39.4865" y="106.401" fill="black" font-size="12.8882" font-family="Helvetica">25</text>
<text xml:space="preserve" x="39.4865" y="57.6676" fill="black" font-size="12.8882" font-family="Helvetica">30</text>
<g transform="rotate(-90,28.9277,71.4753)">
<text xml:space="preserve" x="28.9277" y="71.4753" fill="black" font-size="12.8882" font-family="Helvetica">Event</text>
</g>
<rect x="351.996" y="25.0773" width="204.094" height="108.025" fill="white"/>
<path d="M351.996,133.102h 204.094" fill="none" stroke="black"/>
<path d="M556.091,133.102v -108.025" fill="none" stroke="black"/>
<path d="M556.091,25.0773h -204.094" fill="none" stroke="black"/>
<path d="M351.996,25.0773v 108.025" fill="none" stroke="black"/>
<text xml:space="preserve" x="361.938" y="38.9865" fill="black" font-size="15.6962" font-family="Helvetica">Entries </text>
<text xml:space="preserve" x="524.382" y="38.9865" fill="black" font-size="15.6962" font-family="Helvetica"> 57</text>
<text xml:space="preserve" x="375.745" y="57.6676" fill="black" font-size="15.6962" font-family="Helvetica"> / ndf </text>
<text xml:space="preserve" x="370.06" y="52.7943" fill="black" font-size="10.6308" font-family="Helvetica">2</text>
<text xml:space="preserve" x="361.938" y="57.6676" fill="black" font-size="15.6962" font-family="Times">&#0967;</text>
<text xml:space="preserve" x="483.771" y="57.6676" fill="black" font-size="15.6962" font-family="Helvetica"> 3.296 / 1</text>
<text xml:space="preserve" x="361.938" y="75.5364" fill="black" font-size="15.6962" font-family="Helvetica">Prob  </text>
<text xml:space="preserve" x="485.395" y="75.5364" fill="black" font-size="15.6962" font-family="Helvetica"> 0.06944</text>
<text xml:space="preserve" x="361.938" y="94.2175" fill="black" font-size="15.6962" font-family="Helvetica">Const    </text>
<text xml:space="preserve" x="511.386" y="93.4052" fill="black" font-size="15.6962" font-family="Helvetica"> 6.40</text>
<text xml:space="preserve" x="502.452" y="93.4052" fill="black" font-size="15.6962" font-family="Times">&#0177;</text>
<text xml:space="preserve" x="454.531" y="93.4052" fill="black" font-size="15.6962" font-family="Helvetica"> 29.17 </text>
<text xml:space="preserve" x="361.938" y="111.274" fill="black" font-size="15.6962" font-family="Helvetica">Mean     </text>
<text xml:space="preserve" x="520.32" y="111.274" fill="black" font-size="15.6962" font-family="Helvetica"> 0.5</text>
<text xml:space="preserve" x="511.386" y="111.274" fill="black" font-size="15.6962" font-family="Times">&#0177;</text>
<text xml:space="preserve" x="470.775" y="111.274" fill="black" font-size="15.6962" font-family="Helvetica">   811 </text>
<text xml:space="preserve" x="361.938" y="128.331" fill="black" font-size="15.6962" font-family="Helvetica">Sigma    </text>
<text xml:space="preserve" x="513.823" y="129.143" fill="black" font-size="15.6962" font-family="Helvetica"> 0.61</text>
<text xml:space="preserve" x="504.888" y="129.143" fill="black" font-size="15.6962" font-family="Times">&#0177;</text>
<text xml:space="preserve" x="461.841" y="129.143" fill="black" font-size="15.6962" font-family="Helvetica">  3.02 </text>
<text xml:space="preserve" x="248.227" y="18.681" fill="black" font-size="17.0471" font-family="Helvetica">670mm 3</text></svg>
