<?xml version="1.0" standalone="no"?>
<svg width="567.429" height="386.304" viewBox="0 0 567.429 386.304" xmlns="http://www.w3.org/2000/svg" shape-rendering="crispEdges">
<title>
img/week2/Combined670mm_ch_39.svg
</title>
<desc>
Creator: ROOT Version 6.22/08
CreationDate: Tue Jun 22 00:49:06 2021</desc>
<defs>
</defs>
<rect x="0.5" y="0" width="566.929" height="385.804" fill="white"/>
<rect x="57.1929" y="38.5804" width="453.543" height="308.643" fill="white"/>
<rect x="57.1929" y="38.5804" width="453.543" height="308.643" fill="none" stroke="black"/>
<rect x="57.1929" y="38.5804" width="453.543" height="308.643" fill="white"/>
<rect x="57.1929" y="38.5804" width="453.543" height="308.643" fill="none" stroke="black"/>
<path d="M57.1929,347.224h 97.1879v -3.45819h 32.396v -3.45819h 32.396v -13.8328h 32.396v -127.953h 32.396v -145.244h 32.396v 255.906h 32.396v 38.0401h 161.98" fill="none" stroke="#000099"/>
<g fill="#ff0000">
<polygon points=" 295.939, 49.0542 304.386, 49.0542 300.163, 57.5013"/>
</g>
<path d="M59.4606,347.224h 140.598l 4.53543, -0.0564426l 4.53543, -0.0792283l 4.53543, -0.175409l 4.53543, -0.369319l 4.53543, -0.739184l 4.53543, -1.40571l 4.53543, -2.5385l 4.53543, -4.34995l 4.53543, -7.06683l 4.53543, -10.8718l 4.53543, -15.8151l
 4.53543, -21.7106l 4.53543, -28.0496l 4.53543, -33.9743l 4.53543, -38.3554l 4.53543, -39.9886l 4.53543, -37.8846l 4.53543, -31.5785" fill="none" stroke="#ff0000" stroke-width="2"/>
<path d="M281.697,72.2148l 4.53543, -21.3544l 4.53543, -8.29141l 4.53543, 5.91213l 4.53543, 19.3003l 4.53543, 30.1018l 4.53543, 37.1141l 4.53543, 39.9159l 4.53543, 38.8571l 4.53543, 34.8587l 4.53543, 29.111l 4.53543, 22.7728l 4.53543, 16.7566l
 4.53543, 11.6309l 4.53543, 7.63141l 4.53543, 4.74062l 4.53543, 2.79142l 4.53543, 1.55947l 4.53543, 0.827221l 4.53543, 0.416886l 4.53543, 0.199702l 4.53543, 0.09097l 4.53543, 0.0657035h 122.457" fill="none" stroke="#ff0000" stroke-width="2"/>
<path d="M503.933,347.224h 4.53543" fill="none" stroke="#ff0000" stroke-width="2"/>
<path d="M57.1929,347.224h 453.543" fill="none" stroke="black"/>
<path d="M86.5058,337.964v 9.2593" fill="none" stroke="black"/>
<path d="M102.696,342.594v 4.62965" fill="none" stroke="black"/>
<path d="M118.886,342.594v 4.62965" fill="none" stroke="black"/>
<path d="M135.076,342.594v 4.62965" fill="none" stroke="black"/>
<path d="M151.266,342.594v 4.62965" fill="none" stroke="black"/>
<path d="M167.456,337.964v 9.2593" fill="none" stroke="black"/>
<path d="M183.646,342.594v 4.62965" fill="none" stroke="black"/>
<path d="M199.836,342.594v 4.62965" fill="none" stroke="black"/>
<path d="M216.026,342.594v 4.62965" fill="none" stroke="black"/>
<path d="M232.216,342.594v 4.62965" fill="none" stroke="black"/>
<path d="M248.406,337.964v 9.2593" fill="none" stroke="black"/>
<path d="M264.597,342.594v 4.62965" fill="none" stroke="black"/>
<path d="M280.787,342.594v 4.62965" fill="none" stroke="black"/>
<path d="M296.977,342.594v 4.62965" fill="none" stroke="black"/>
<path d="M313.167,342.594v 4.62965" fill="none" stroke="black"/>
<path d="M329.357,337.964v 9.2593" fill="none" stroke="black"/>
<path d="M345.547,342.594v 4.62965" fill="none" stroke="black"/>
<path d="M361.737,342.594v 4.62965" fill="none" stroke="black"/>
<path d="M377.927,342.594v 4.62965" fill="none" stroke="black"/>
<path d="M394.117,342.594v 4.62965" fill="none" stroke="black"/>
<path d="M410.307,337.964v 9.2593" fill="none" stroke="black"/>
<path d="M426.497,342.594v 4.62965" fill="none" stroke="black"/>
<path d="M442.687,342.594v 4.62965" fill="none" stroke="black"/>
<path d="M458.877,342.594v 4.62965" fill="none" stroke="black"/>
<path d="M475.067,342.594v 4.62965" fill="none" stroke="black"/>
<path d="M491.258,337.964v 9.2593" fill="none" stroke="black"/>
<path d="M86.5058,337.964v 9.2593" fill="none" stroke="black"/>
<path d="M70.3157,342.594v 4.62965" fill="none" stroke="black"/>
<path d="M491.258,337.964v 9.2593" fill="none" stroke="black"/>
<path d="M507.448,342.594v 4.62965" fill="none" stroke="black"/>
<text xml:space="preserve" x="74.412" y="359.813" fill="black" font-size="12.8882" font-family="Helvetica">780</text>
<text xml:space="preserve" x="155.634" y="359.813" fill="black" font-size="12.8882" font-family="Helvetica">790</text>
<text xml:space="preserve" x="236.856" y="359.813" fill="black" font-size="12.8882" font-family="Helvetica">800</text>
<text xml:space="preserve" x="317.266" y="359.813" fill="black" font-size="12.8882" font-family="Helvetica">810</text>
<text xml:space="preserve" x="398.487" y="359.813" fill="black" font-size="12.8882" font-family="Helvetica">820</text>
<text xml:space="preserve" x="479.709" y="359.813" fill="black" font-size="12.8882" font-family="Helvetica">830</text>
<text xml:space="preserve" x="481.334" y="373.621" fill="black" font-size="12.8882" font-family="Helvetica">Time</text>
<path d="M57.1929,347.224v -308.643" fill="none" stroke="black"/>
<path d="M70.7992,347.224h -13.6063" fill="none" stroke="black"/>
<path d="M63.9961,340.307h -6.80315" fill="none" stroke="black"/>
<path d="M63.9961,333.391h -6.80315" fill="none" stroke="black"/>
<path d="M63.9961,326.475h -6.80315" fill="none" stroke="black"/>
<path d="M63.9961,319.558h -6.80315" fill="none" stroke="black"/>
<path d="M70.7992,312.642h -13.6063" fill="none" stroke="black"/>
<path d="M63.9961,305.726h -6.80315" fill="none" stroke="black"/>
<path d="M63.9961,298.809h -6.80315" fill="none" stroke="black"/>
<path d="M63.9961,291.893h -6.80315" fill="none" stroke="black"/>
<path d="M63.9961,284.976h -6.80315" fill="none" stroke="black"/>
<path d="M70.7992,278.06h -13.6063" fill="none" stroke="black"/>
<path d="M63.9961,271.144h -6.80315" fill="none" stroke="black"/>
<path d="M63.9961,264.227h -6.80315" fill="none" stroke="black"/>
<path d="M63.9961,257.311h -6.80315" fill="none" stroke="black"/>
<path d="M63.9961,250.395h -6.80315" fill="none" stroke="black"/>
<path d="M70.7992,243.478h -13.6063" fill="none" stroke="black"/>
<path d="M63.9961,236.562h -6.80315" fill="none" stroke="black"/>
<path d="M63.9961,229.645h -6.80315" fill="none" stroke="black"/>
<path d="M63.9961,222.729h -6.80315" fill="none" stroke="black"/>
<path d="M63.9961,215.813h -6.80315" fill="none" stroke="black"/>
<path d="M70.7992,208.896h -13.6063" fill="none" stroke="black"/>
<path d="M63.9961,201.98h -6.80315" fill="none" stroke="black"/>
<path d="M63.9961,195.063h -6.80315" fill="none" stroke="black"/>
<path d="M63.9961,188.147h -6.80315" fill="none" stroke="black"/>
<path d="M63.9961,181.231h -6.80315" fill="none" stroke="black"/>
<path d="M70.7992,174.314h -13.6063" fill="none" stroke="black"/>
<path d="M63.9961,167.398h -6.80315" fill="none" stroke="black"/>
<path d="M63.9961,160.482h -6.80315" fill="none" stroke="black"/>
<path d="M63.9961,153.565h -6.80315" fill="none" stroke="black"/>
<path d="M63.9961,146.649h -6.80315" fill="none" stroke="black"/>
<path d="M70.7992,139.732h -13.6063" fill="none" stroke="black"/>
<path d="M63.9961,132.816h -6.80315" fill="none" stroke="black"/>
<path d="M63.9961,125.9h -6.80315" fill="none" stroke="black"/>
<path d="M63.9961,118.983h -6.80315" fill="none" stroke="black"/>
<path d="M63.9961,112.067h -6.80315" fill="none" stroke="black"/>
<path d="M70.7992,105.151h -13.6063" fill="none" stroke="black"/>
<path d="M63.9961,98.2342h -6.80315" fill="none" stroke="black"/>
<path d="M63.9961,91.3178h -6.80315" fill="none" stroke="black"/>
<path d="M63.9961,84.4014h -6.80315" fill="none" stroke="black"/>
<path d="M63.9961,77.485h -6.80315" fill="none" stroke="black"/>
<path d="M70.7992,70.5687h -13.6063" fill="none" stroke="black"/>
<path d="M70.7992,70.5687h -13.6063" fill="none" stroke="black"/>
<path d="M63.9961,63.6523h -6.80315" fill="none" stroke="black"/>
<path d="M63.9961,56.7359h -6.80315" fill="none" stroke="black"/>
<path d="M63.9961,49.8195h -6.80315" fill="none" stroke="black"/>
<path d="M63.9961,42.9032h -6.80315" fill="none" stroke="black"/>
<text xml:space="preserve" x="46.7965" y="351.691" fill="black" font-size="12.8882" font-family="Helvetica">0</text>
<text xml:space="preserve" x="39.4865" y="316.766" fill="black" font-size="12.8882" font-family="Helvetica">10</text>
<text xml:space="preserve" x="39.4865" y="282.652" fill="black" font-size="12.8882" font-family="Helvetica">20</text>
<text xml:space="preserve" x="39.4865" y="247.727" fill="black" font-size="12.8882" font-family="Helvetica">30</text>
<text xml:space="preserve" x="39.4865" y="213.614" fill="black" font-size="12.8882" font-family="Helvetica">40</text>
<text xml:space="preserve" x="39.4865" y="178.688" fill="black" font-size="12.8882" font-family="Helvetica">50</text>
<text xml:space="preserve" x="39.4865" y="144.575" fill="black" font-size="12.8882" font-family="Helvetica">60</text>
<text xml:space="preserve" x="39.4865" y="109.65" fill="black" font-size="12.8882" font-family="Helvetica">70</text>
<text xml:space="preserve" x="39.4865" y="74.7242" fill="black" font-size="12.8882" font-family="Helvetica">80</text>
<g transform="rotate(-90,28.9277,71.4753)">
<text xml:space="preserve" x="28.9277" y="71.4753" fill="black" font-size="12.8882" font-family="Helvetica">Event</text>
</g>
<text xml:space="preserve" x="243.354" y="18.681" fill="black" font-size="17.0471" font-family="Helvetica">670mm 39</text></svg>
