<?xml version="1.0" standalone="no"?>
<svg width="567.429" height="384.68" viewBox="0 0 567.429 384.68" xmlns="http://www.w3.org/2000/svg" shape-rendering="crispEdges">
<title>
img/week2/Combined280mm_ch_24_25_26_27.svg
</title>
<desc>
Creator: ROOT Version 6.22/09
CreationDate: Tue Jun 22 18:03:10 2021</desc>
<defs>
</defs>
<rect x="0.5" y="0" width="566.929" height="384.18" fill="white"/>
<rect x="57.1929" y="38.418" width="453.543" height="307.344" fill="white"/>
<rect x="57.1929" y="38.418" width="453.543" height="307.344" fill="none" stroke="black"/>
<rect x="57.1929" y="38.418" width="453.543" height="307.344" fill="white"/>
<rect x="57.1929" y="38.418" width="453.543" height="307.344" fill="none" stroke="black"/>
<path d="M57.1929,344.989h 64.7919v 0.772928h 32.396v -1.54586h 32.396v -10.821h 32.396v -34.7818h 32.396v -226.468h 32.396v -9.27514h 32.396v 260.477h 32.396v 22.4149h 161.98" fill="none" stroke="#000099"/>
<g fill="#ff0000">
<polygon points=" 263.543, 67.9216 271.99, 67.9216 267.767, 76.3687"/>
</g>
<path d="M59.4606,345.762h 122.457l 4.53543, -0.0395887l 4.53543, -0.0524714l 4.53543, -0.113418l 4.53543, -0.234728l 4.53543, -0.464986l 4.53543, -0.881381l 4.53543, -1.59794l 4.53543, -2.7696l 4.53543, -4.58653l 4.53543, -7.2518l 4.53543, -10.9373l
 4.53543, -15.7175l 4.53543, -21.489l 4.53543, -27.8965l 4.53543, -34.293l 4.53543, -39.7649l 4.53543, -43.2428l 4.53543, -43.6946l 4.53543, -40.3666l 1.64162, -11.949" fill="none" stroke="#ff0000" stroke-width="2"/>
<path d="M294.469,38.418l 0.834232, 5.77535" fill="none" stroke="#ff0000" stroke-width="2"/>
<path d="M295.303,44.1933l 4.53543, 39.409l 4.53543, 43.4134l 4.53543, 43.5558l 4.53543, 40.5191l 4.53543, 35.306l 4.53543, 28.995l 4.53543, 22.536l 4.53543, 16.625l 4.53543, 11.6648l 4.53543, 7.79659l 4.53543, 4.97004l 4.53543, 3.02448l 4.53543,
 1.75834l 4.53543, 0.977184l 4.53543, 0.519386l 4.53543, 0.264134l 4.53543, 0.128567l 4.53543, 0.0599151l 4.53543, 0.0457565h 126.992" fill="none" stroke="#ff0000" stroke-width="2"/>
<rect x="351.996" y="24.9717" width="204.094" height="107.57" fill="white"/>
<path d="M351.996,132.542h 204.094" fill="none" stroke="black"/>
<path d="M556.091,132.542v -107.57" fill="none" stroke="black"/>
<path d="M556.091,24.9717h -204.094" fill="none" stroke="black"/>
<path d="M351.996,24.9717v 107.57" fill="none" stroke="black"/>
<text xml:space="preserve" x="361.938" y="38.9865" fill="black" font-size="15.6322" font-family="Helvetica">Entries </text>
<text xml:space="preserve" x="515.447" y="38.9865" fill="black" font-size="15.6322" font-family="Helvetica"> 835</text>
<text xml:space="preserve" x="375.745" y="56.8554" fill="black" font-size="15.6322" font-family="Helvetica"> / ndf </text>
<text xml:space="preserve" x="370.06" y="51.982" fill="black" font-size="10.5881" font-family="Helvetica">2</text>
<text xml:space="preserve" x="361.938" y="56.8554" fill="black" font-size="15.6322" font-family="Times">&#0967;</text>
<text xml:space="preserve" x="481.334" y="56.8554" fill="black" font-size="15.6322" font-family="Helvetica"> 27.65 / 7</text>
<text xml:space="preserve" x="361.938" y="74.7242" fill="black" font-size="15.6322" font-family="Helvetica">Prob  </text>
<text xml:space="preserve" x="468.338" y="74.7242" fill="black" font-size="15.6322" font-family="Helvetica"> 0.0002546</text>
<text xml:space="preserve" x="361.938" y="94.2175" fill="black" font-size="15.6322" font-family="Helvetica">Const    </text>
<text xml:space="preserve" x="511.386" y="93.4052" fill="black" font-size="15.6322" font-family="Helvetica"> 20.9</text>
<text xml:space="preserve" x="502.452" y="93.4052" fill="black" font-size="15.6322" font-family="Times">&#0177;</text>
<text xml:space="preserve" x="455.343" y="93.4052" fill="black" font-size="15.6322" font-family="Helvetica"> 464.5 </text>
<text xml:space="preserve" x="361.938" y="111.274" fill="black" font-size="15.6322" font-family="Helvetica">Mean     </text>
<text xml:space="preserve" x="522.757" y="111.274" fill="black" font-size="15.6322" font-family="Helvetica"> 0.1</text>
<text xml:space="preserve" x="513.823" y="111.274" fill="black" font-size="15.6322" font-family="Times">&#0177;</text>
<text xml:space="preserve" x="466.714" y="111.274" fill="black" font-size="15.6322" font-family="Helvetica"> 808.2 </text>
<text xml:space="preserve" x="361.938" y="128.331" fill="black" font-size="15.6322" font-family="Helvetica">Sigma    </text>
<text xml:space="preserve" x="502.452" y="129.143" fill="black" font-size="15.6322" font-family="Helvetica"> 0.077</text>
<text xml:space="preserve" x="493.517" y="129.143" fill="black" font-size="15.6322" font-family="Times">&#0177;</text>
<text xml:space="preserve" x="445.596" y="129.143" fill="black" font-size="15.6322" font-family="Helvetica"> 2.767 </text>
<path d="M57.1929,345.762h 453.543" fill="none" stroke="black"/>
<path d="M135.06,336.541v 9.22031" fill="none" stroke="black"/>
<path d="M151.25,341.152v 4.61016" fill="none" stroke="black"/>
<path d="M167.44,341.152v 4.61016" fill="none" stroke="black"/>
<path d="M183.63,341.152v 4.61016" fill="none" stroke="black"/>
<path d="M199.82,341.152v 4.61016" fill="none" stroke="black"/>
<path d="M216.011,336.541v 9.22031" fill="none" stroke="black"/>
<path d="M232.201,341.152v 4.61016" fill="none" stroke="black"/>
<path d="M248.391,341.152v 4.61016" fill="none" stroke="black"/>
<path d="M264.581,341.152v 4.61016" fill="none" stroke="black"/>
<path d="M280.771,341.152v 4.61016" fill="none" stroke="black"/>
<path d="M296.961,336.541v 9.22031" fill="none" stroke="black"/>
<path d="M313.151,341.152v 4.61016" fill="none" stroke="black"/>
<path d="M329.341,341.152v 4.61016" fill="none" stroke="black"/>
<path d="M345.531,341.152v 4.61016" fill="none" stroke="black"/>
<path d="M361.721,341.152v 4.61016" fill="none" stroke="black"/>
<path d="M377.911,336.541v 9.22031" fill="none" stroke="black"/>
<path d="M394.101,341.152v 4.61016" fill="none" stroke="black"/>
<path d="M410.291,341.152v 4.61016" fill="none" stroke="black"/>
<path d="M426.481,341.152v 4.61016" fill="none" stroke="black"/>
<path d="M442.672,341.152v 4.61016" fill="none" stroke="black"/>
<path d="M458.862,336.541v 9.22031" fill="none" stroke="black"/>
<path d="M135.06,336.541v 9.22031" fill="none" stroke="black"/>
<path d="M118.87,341.152v 4.61016" fill="none" stroke="black"/>
<path d="M102.68,341.152v 4.61016" fill="none" stroke="black"/>
<path d="M86.49,341.152v 4.61016" fill="none" stroke="black"/>
<path d="M70.2999,341.152v 4.61016" fill="none" stroke="black"/>
<path d="M458.862,336.541v 9.22031" fill="none" stroke="black"/>
<path d="M475.052,341.152v 4.61016" fill="none" stroke="black"/>
<path d="M491.242,341.152v 4.61016" fill="none" stroke="black"/>
<path d="M507.432,341.152v 4.61016" fill="none" stroke="black"/>
<text xml:space="preserve" x="123.957" y="358.189" fill="black" font-size="12.836" font-family="Helvetica">790</text>
<text xml:space="preserve" x="205.179" y="358.189" fill="black" font-size="12.836" font-family="Helvetica">800</text>
<text xml:space="preserve" x="286.401" y="358.189" fill="black" font-size="12.836" font-family="Helvetica">810</text>
<text xml:space="preserve" x="366.811" y="358.189" fill="black" font-size="12.836" font-family="Helvetica">820</text>
<text xml:space="preserve" x="448.033" y="358.189" fill="black" font-size="12.836" font-family="Helvetica">830</text>
<text xml:space="preserve" x="461.028" y="370.372" fill="black" font-size="12.836" font-family="Helvetica">Time [ps]</text>
<path d="M57.1929,345.762v -307.344" fill="none" stroke="black"/>
<path d="M70.7992,345.762h -13.6063" fill="none" stroke="black"/>
<path d="M63.9961,338.033h -6.80315" fill="none" stroke="black"/>
<path d="M63.9961,330.303h -6.80315" fill="none" stroke="black"/>
<path d="M63.9961,322.574h -6.80315" fill="none" stroke="black"/>
<path d="M63.9961,314.845h -6.80315" fill="none" stroke="black"/>
<path d="M70.7992,307.115h -13.6063" fill="none" stroke="black"/>
<path d="M63.9961,299.386h -6.80315" fill="none" stroke="black"/>
<path d="M63.9961,291.657h -6.80315" fill="none" stroke="black"/>
<path d="M63.9961,283.928h -6.80315" fill="none" stroke="black"/>
<path d="M63.9961,276.198h -6.80315" fill="none" stroke="black"/>
<path d="M70.7992,268.469h -13.6063" fill="none" stroke="black"/>
<path d="M63.9961,260.74h -6.80315" fill="none" stroke="black"/>
<path d="M63.9961,253.01h -6.80315" fill="none" stroke="black"/>
<path d="M63.9961,245.281h -6.80315" fill="none" stroke="black"/>
<path d="M63.9961,237.552h -6.80315" fill="none" stroke="black"/>
<path d="M70.7992,229.823h -13.6063" fill="none" stroke="black"/>
<path d="M63.9961,222.093h -6.80315" fill="none" stroke="black"/>
<path d="M63.9961,214.364h -6.80315" fill="none" stroke="black"/>
<path d="M63.9961,206.635h -6.80315" fill="none" stroke="black"/>
<path d="M63.9961,198.905h -6.80315" fill="none" stroke="black"/>
<path d="M70.7992,191.176h -13.6063" fill="none" stroke="black"/>
<path d="M63.9961,183.447h -6.80315" fill="none" stroke="black"/>
<path d="M63.9961,175.718h -6.80315" fill="none" stroke="black"/>
<path d="M63.9961,167.988h -6.80315" fill="none" stroke="black"/>
<path d="M63.9961,160.259h -6.80315" fill="none" stroke="black"/>
<path d="M70.7992,152.53h -13.6063" fill="none" stroke="black"/>
<path d="M63.9961,144.8h -6.80315" fill="none" stroke="black"/>
<path d="M63.9961,137.071h -6.80315" fill="none" stroke="black"/>
<path d="M63.9961,129.342h -6.80315" fill="none" stroke="black"/>
<path d="M63.9961,121.613h -6.80315" fill="none" stroke="black"/>
<path d="M70.7992,113.883h -13.6063" fill="none" stroke="black"/>
<path d="M63.9961,106.154h -6.80315" fill="none" stroke="black"/>
<path d="M63.9961,98.4247h -6.80315" fill="none" stroke="black"/>
<path d="M63.9961,90.6954h -6.80315" fill="none" stroke="black"/>
<path d="M63.9961,82.9661h -6.80315" fill="none" stroke="black"/>
<path d="M70.7992,75.2369h -13.6063" fill="none" stroke="black"/>
<path d="M70.7992,75.2369h -13.6063" fill="none" stroke="black"/>
<path d="M63.9961,67.5076h -6.80315" fill="none" stroke="black"/>
<path d="M63.9961,59.7783h -6.80315" fill="none" stroke="black"/>
<path d="M63.9961,52.049h -6.80315" fill="none" stroke="black"/>
<path d="M63.9961,44.3197h -6.80315" fill="none" stroke="black"/>
<text xml:space="preserve" x="47.6087" y="350.067" fill="black" font-size="12.836" font-family="Helvetica">0</text>
<text xml:space="preserve" x="41.111" y="311.892" fill="black" font-size="12.836" font-family="Helvetica">50</text>
<text xml:space="preserve" x="33.801" y="272.906" fill="black" font-size="12.836" font-family="Helvetica">100</text>
<text xml:space="preserve" x="33.801" y="233.919" fill="black" font-size="12.836" font-family="Helvetica">150</text>
<text xml:space="preserve" x="33.801" y="195.745" fill="black" font-size="12.836" font-family="Helvetica">200</text>
<text xml:space="preserve" x="33.801" y="156.758" fill="black" font-size="12.836" font-family="Helvetica">250</text>
<text xml:space="preserve" x="33.801" y="118.584" fill="black" font-size="12.836" font-family="Helvetica">300</text>
<text xml:space="preserve" x="33.801" y="79.5975" fill="black" font-size="12.836" font-family="Helvetica">350</text>
<g transform="rotate(-90,20.8055,69.8509)">
<text xml:space="preserve" x="20.8055" y="69.8509" fill="black" font-size="12.836" font-family="Helvetica">Event</text>
</g>
<rect x="351.996" y="24.9717" width="204.094" height="107.57" fill="white"/>
<path d="M351.996,132.542h 204.094" fill="none" stroke="black"/>
<path d="M556.091,132.542v -107.57" fill="none" stroke="black"/>
<path d="M556.091,24.9717h -204.094" fill="none" stroke="black"/>
<path d="M351.996,24.9717v 107.57" fill="none" stroke="black"/>
<text xml:space="preserve" x="361.938" y="38.9865" fill="black" font-size="15.6322" font-family="Helvetica">Entries </text>
<text xml:space="preserve" x="515.447" y="38.9865" fill="black" font-size="15.6322" font-family="Helvetica"> 835</text>
<text xml:space="preserve" x="375.745" y="56.8554" fill="black" font-size="15.6322" font-family="Helvetica"> / ndf </text>
<text xml:space="preserve" x="370.06" y="51.982" fill="black" font-size="10.5881" font-family="Helvetica">2</text>
<text xml:space="preserve" x="361.938" y="56.8554" fill="black" font-size="15.6322" font-family="Times">&#0967;</text>
<text xml:space="preserve" x="481.334" y="56.8554" fill="black" font-size="15.6322" font-family="Helvetica"> 27.65 / 7</text>
<text xml:space="preserve" x="361.938" y="74.7242" fill="black" font-size="15.6322" font-family="Helvetica">Prob  </text>
<text xml:space="preserve" x="468.338" y="74.7242" fill="black" font-size="15.6322" font-family="Helvetica"> 0.0002546</text>
<text xml:space="preserve" x="361.938" y="94.2175" fill="black" font-size="15.6322" font-family="Helvetica">Const    </text>
<text xml:space="preserve" x="511.386" y="93.4052" fill="black" font-size="15.6322" font-family="Helvetica"> 20.9</text>
<text xml:space="preserve" x="502.452" y="93.4052" fill="black" font-size="15.6322" font-family="Times">&#0177;</text>
<text xml:space="preserve" x="455.343" y="93.4052" fill="black" font-size="15.6322" font-family="Helvetica"> 464.5 </text>
<text xml:space="preserve" x="361.938" y="111.274" fill="black" font-size="15.6322" font-family="Helvetica">Mean     </text>
<text xml:space="preserve" x="522.757" y="111.274" fill="black" font-size="15.6322" font-family="Helvetica"> 0.1</text>
<text xml:space="preserve" x="513.823" y="111.274" fill="black" font-size="15.6322" font-family="Times">&#0177;</text>
<text xml:space="preserve" x="466.714" y="111.274" fill="black" font-size="15.6322" font-family="Helvetica"> 808.2 </text>
<text xml:space="preserve" x="361.938" y="128.331" fill="black" font-size="15.6322" font-family="Helvetica">Sigma    </text>
<text xml:space="preserve" x="502.452" y="129.143" fill="black" font-size="15.6322" font-family="Helvetica"> 0.077</text>
<text xml:space="preserve" x="493.517" y="129.143" fill="black" font-size="15.6322" font-family="Times">&#0177;</text>
<text xml:space="preserve" x="445.596" y="129.143" fill="black" font-size="15.6322" font-family="Helvetica"> 2.767 </text>
<text xml:space="preserve" x="208.428" y="18.681" fill="black" font-size="16.9774" font-family="Helvetica">280mm 24 25 26 27</text></svg>
