<?xml version="1.0" standalone="no"?>
<svg width="567.429" height="384.969" viewBox="0 0 567.429 384.969" xmlns="http://www.w3.org/2000/svg" shape-rendering="crispEdges">
<title>
img/week2/Combined140mm_ch_59.svg
</title>
<desc>
Creator: ROOT Version 6.22/09
CreationDate: Thu Jun 24 12:07:47 2021</desc>
<defs>
</defs>
<rect x="0.5" y="0" width="566.929" height="384.469" fill="white"/>
<rect x="57.1929" y="38.4469" width="453.543" height="307.575" fill="white"/>
<rect x="57.1929" y="38.4469" width="453.543" height="307.575" fill="none" stroke="black"/>
<rect x="57.1929" y="38.4469" width="453.543" height="307.575" fill="white"/>
<rect x="57.1929" y="38.4469" width="453.543" height="307.575" fill="none" stroke="black"/>
<path d="M57.1929,346.022h 129.584v -9.29933h 32.396v -18.5987h 32.396v -125.541h 32.396v -139.49h 32.396v 255.732h 32.396v 37.1973h 161.98" fill="none" stroke="#000099"/>
<g fill="#ff0000">
<polygon points=" 295.927, 48.8577 304.398, 48.8577 300.163, 57.329"/>
</g>
<path d="M59.4606,346.022h 136.063l 4.53543, -0.0404739l 4.53543, -0.0563641l 4.53543, -0.124679l 4.53543, -0.262941l 4.53543, -0.52851l 4.53543, -1.01203l 4.53543, -1.84529l 4.53543, -3.20185l 4.53543, -5.28302l 4.53543, -8.2813l 4.53543, -12.3178l
 4.53543, -17.3584l 4.53543, -23.1274l 4.53543, -29.0491l 4.53543, -34.2562l 4.53543, -37.6908l 4.53543, -38.3043l 4.53543, -35.3175l 4.53543, -28.4742" fill="none" stroke="#ff0000" stroke-width="2"/>
<path d="M281.697,69.4901l 4.53543, -18.2001l 4.53543, -5.5981l 4.53543, 7.7398l 4.53543, 20.0627l 4.53543, 29.8384l 4.53543, 36.0656l 4.53543, 38.4341l 4.53543, 37.2993l 4.53543, 33.5023l 4.53543, 28.1104l 4.53543, 22.1615l 4.53543, 16.4799l
 4.53543, 11.5908l 4.53543, 7.72575l 4.53543, 4.8874l 4.53543, 2.93781l 4.53543, 1.67946l 4.53543, 0.913755l 4.53543, 0.473433l 4.53543, 0.233703l 4.53543, 0.109957l 4.53543, 0.0493268l 4.53543, 0.0349806h 117.921" fill="none" stroke="#ff0000"
 stroke-width="2"/>
<path d="M503.933,346.022h 4.53543" fill="none" stroke="#ff0000" stroke-width="2"/>
<path d="M57.1929,346.022h 453.543" fill="none" stroke="black"/>
<path d="M135.06,336.795v 9.22726" fill="none" stroke="black"/>
<path d="M151.25,341.409v 4.61363" fill="none" stroke="black"/>
<path d="M167.44,341.409v 4.61363" fill="none" stroke="black"/>
<path d="M183.63,341.409v 4.61363" fill="none" stroke="black"/>
<path d="M199.82,341.409v 4.61363" fill="none" stroke="black"/>
<path d="M216.011,336.795v 9.22726" fill="none" stroke="black"/>
<path d="M232.201,341.409v 4.61363" fill="none" stroke="black"/>
<path d="M248.391,341.409v 4.61363" fill="none" stroke="black"/>
<path d="M264.581,341.409v 4.61363" fill="none" stroke="black"/>
<path d="M280.771,341.409v 4.61363" fill="none" stroke="black"/>
<path d="M296.961,336.795v 9.22726" fill="none" stroke="black"/>
<path d="M313.151,341.409v 4.61363" fill="none" stroke="black"/>
<path d="M329.341,341.409v 4.61363" fill="none" stroke="black"/>
<path d="M345.531,341.409v 4.61363" fill="none" stroke="black"/>
<path d="M361.721,341.409v 4.61363" fill="none" stroke="black"/>
<path d="M377.911,336.795v 9.22726" fill="none" stroke="black"/>
<path d="M394.101,341.409v 4.61363" fill="none" stroke="black"/>
<path d="M410.291,341.409v 4.61363" fill="none" stroke="black"/>
<path d="M426.481,341.409v 4.61363" fill="none" stroke="black"/>
<path d="M442.672,341.409v 4.61363" fill="none" stroke="black"/>
<path d="M458.862,336.795v 9.22726" fill="none" stroke="black"/>
<path d="M135.06,336.795v 9.22726" fill="none" stroke="black"/>
<path d="M118.87,341.409v 4.61363" fill="none" stroke="black"/>
<path d="M102.68,341.409v 4.61363" fill="none" stroke="black"/>
<path d="M86.49,341.409v 4.61363" fill="none" stroke="black"/>
<path d="M70.2999,341.409v 4.61363" fill="none" stroke="black"/>
<path d="M458.862,336.795v 9.22726" fill="none" stroke="black"/>
<path d="M475.052,341.409v 4.61363" fill="none" stroke="black"/>
<path d="M491.242,341.409v 4.61363" fill="none" stroke="black"/>
<path d="M507.432,341.409v 4.61363" fill="none" stroke="black"/>
<text xml:space="preserve" x="124.312" y="358.403" fill="black" font-size="12.8453" font-family="Helvetica">790</text>
<text xml:space="preserve" x="204.953" y="358.403" fill="black" font-size="12.8453" font-family="Helvetica">800</text>
<text xml:space="preserve" x="285.594" y="358.403" fill="black" font-size="12.8453" font-family="Helvetica">810</text>
<text xml:space="preserve" x="367.049" y="358.403" fill="black" font-size="12.8453" font-family="Helvetica">820</text>
<text xml:space="preserve" x="447.69" y="358.403" fill="black" font-size="12.8453" font-family="Helvetica">830</text>
<text xml:space="preserve" x="460.723" y="370.622" fill="black" font-size="12.8453" font-family="Helvetica">Time [ps]</text>
<path d="M57.1929,346.022v -307.575" fill="none" stroke="black"/>
<path d="M70.7992,346.022h -13.6063" fill="none" stroke="black"/>
<path d="M63.9961,336.723h -6.80315" fill="none" stroke="black"/>
<path d="M63.9961,327.424h -6.80315" fill="none" stroke="black"/>
<path d="M63.9961,318.124h -6.80315" fill="none" stroke="black"/>
<path d="M63.9961,308.825h -6.80315" fill="none" stroke="black"/>
<path d="M70.7992,299.526h -13.6063" fill="none" stroke="black"/>
<path d="M63.9961,290.226h -6.80315" fill="none" stroke="black"/>
<path d="M63.9961,280.927h -6.80315" fill="none" stroke="black"/>
<path d="M63.9961,271.628h -6.80315" fill="none" stroke="black"/>
<path d="M63.9961,262.328h -6.80315" fill="none" stroke="black"/>
<path d="M70.7992,253.029h -13.6063" fill="none" stroke="black"/>
<path d="M63.9961,243.73h -6.80315" fill="none" stroke="black"/>
<path d="M63.9961,234.43h -6.80315" fill="none" stroke="black"/>
<path d="M63.9961,225.131h -6.80315" fill="none" stroke="black"/>
<path d="M63.9961,215.832h -6.80315" fill="none" stroke="black"/>
<path d="M70.7992,206.532h -13.6063" fill="none" stroke="black"/>
<path d="M63.9961,197.233h -6.80315" fill="none" stroke="black"/>
<path d="M63.9961,187.934h -6.80315" fill="none" stroke="black"/>
<path d="M63.9961,178.634h -6.80315" fill="none" stroke="black"/>
<path d="M63.9961,169.335h -6.80315" fill="none" stroke="black"/>
<path d="M70.7992,160.036h -13.6063" fill="none" stroke="black"/>
<path d="M63.9961,150.736h -6.80315" fill="none" stroke="black"/>
<path d="M63.9961,141.437h -6.80315" fill="none" stroke="black"/>
<path d="M63.9961,132.138h -6.80315" fill="none" stroke="black"/>
<path d="M63.9961,122.838h -6.80315" fill="none" stroke="black"/>
<path d="M70.7992,113.539h -13.6063" fill="none" stroke="black"/>
<path d="M63.9961,104.24h -6.80315" fill="none" stroke="black"/>
<path d="M63.9961,94.9403h -6.80315" fill="none" stroke="black"/>
<path d="M63.9961,85.641h -6.80315" fill="none" stroke="black"/>
<path d="M63.9961,76.3417h -6.80315" fill="none" stroke="black"/>
<path d="M70.7992,67.0424h -13.6063" fill="none" stroke="black"/>
<path d="M70.7992,67.0424h -13.6063" fill="none" stroke="black"/>
<path d="M63.9961,57.743h -6.80315" fill="none" stroke="black"/>
<path d="M63.9961,48.4437h -6.80315" fill="none" stroke="black"/>
<path d="M63.9961,39.1444h -6.80315" fill="none" stroke="black"/>
<text xml:space="preserve" x="47.7441" y="350.258" fill="black" font-size="12.8453" font-family="Helvetica">0</text>
<text xml:space="preserve" x="41.2277" y="303.828" fill="black" font-size="12.8453" font-family="Helvetica">10</text>
<text xml:space="preserve" x="41.2277" y="257.399" fill="black" font-size="12.8453" font-family="Helvetica">20</text>
<text xml:space="preserve" x="41.2277" y="210.969" fill="black" font-size="12.8453" font-family="Helvetica">30</text>
<text xml:space="preserve" x="41.2277" y="164.54" fill="black" font-size="12.8453" font-family="Helvetica">40</text>
<text xml:space="preserve" x="41.2277" y="118.11" fill="black" font-size="12.8453" font-family="Helvetica">50</text>
<text xml:space="preserve" x="41.2277" y="71.6807" fill="black" font-size="12.8453" font-family="Helvetica">60</text>
<g transform="rotate(-90,29.0094,70.0516)">
<text xml:space="preserve" x="29.0094" y="70.0516" fill="black" font-size="12.8453" font-family="Helvetica">Event</text>
</g>
<text xml:space="preserve" x="243.237" y="18.7347" fill="black" font-size="16.9898" font-family="Helvetica">140mm 59</text></svg>
