<?xml version="1.0" standalone="no"?>
<svg width="567.429" height="384.68" viewBox="0 0 567.429 384.68" xmlns="http://www.w3.org/2000/svg" shape-rendering="crispEdges">
<title>
img/week2/Combined560mm_ch_28_29_30_31.svg
</title>
<desc>
Creator: ROOT Version 6.22/09
CreationDate: Tue Jun 22 18:03:25 2021</desc>
<defs>
</defs>
<rect x="0.5" y="0" width="566.929" height="384.18" fill="white"/>
<rect x="57.1929" y="38.418" width="453.543" height="307.344" fill="white"/>
<rect x="57.1929" y="38.418" width="453.543" height="307.344" fill="none" stroke="black"/>
<rect x="57.1929" y="38.418" width="453.543" height="307.344" fill="white"/>
<rect x="57.1929" y="38.418" width="453.543" height="307.344" fill="none" stroke="black"/>
<path d="M57.1929,345.762h 30.2362v -0.743845h 60.4724v 0.743845h 30.2362v -2.97538h 30.2362v -10.4138h 30.2362v -66.946h 30.2362v -197.863h 30.2362v 122.734h 30.2362v 151.744h 30.2362v 3.71922h 151.181" fill="none" stroke="#000099"/>
<g fill="#ff0000">
<polygon points=" 279.741, 63.3404 288.188, 63.3404 283.965, 71.7875"/>
</g>
<path d="M59.4606,345.762h 136.063l 4.53543, -0.0451442l 4.53543, -0.0644612l 4.53543, -0.144249l 4.53543, -0.30701l 4.53543, -0.621233l 4.53543, -1.19458l 4.53543, -2.18169l 4.53543, -3.7817l 4.53543, -6.21626l 4.53543, -9.67937l 4.53543, -14.2572l
 4.53543, -19.8285l 4.53543, -25.9726l 4.53543, -31.9277l 4.53543, -36.6403l 4.53543, -38.9313l 4.53543, -37.7629l 4.53543, -32.5433l 4.53543, -23.3735" fill="none" stroke="#ff0000" stroke-width="2"/>
<path d="M281.697,60.2887l 4.53543, -11.1369l 4.53543, 2.62308l 4.53543, 16.0208l 4.53543, 27.2528l 4.53543, 34.9962l 4.53543, 38.6599l 4.53543, 38.425l 4.53543, 35.0855l 4.53543, 29.7681l 4.53543, 23.6315l 4.53543, 17.6322l 4.53543, 12.4036l
 4.53543, 8.24489l 4.53543, 5.18729l 4.53543, 3.09289l 4.53543, 1.74938l 4.53543, 0.939382l 4.53543, 0.479196l 4.53543, 0.23234l 4.53543, 0.107118l 4.53543, 0.0469768l 4.53543, 0.0319263h 122.457" fill="none" stroke="#ff0000" stroke-width="2"/>
<path d="M503.933,345.762h 4.53543" fill="none" stroke="#ff0000" stroke-width="2"/>
<rect x="351.996" y="24.9717" width="204.094" height="107.57" fill="white"/>
<path d="M351.996,132.542h 204.094" fill="none" stroke="black"/>
<path d="M556.091,132.542v -107.57" fill="none" stroke="black"/>
<path d="M556.091,24.9717h -204.094" fill="none" stroke="black"/>
<path d="M351.996,24.9717v 107.57" fill="none" stroke="black"/>
<text xml:space="preserve" x="361.938" y="38.9865" fill="black" font-size="15.6322" font-family="Helvetica">Entries </text>
<text xml:space="preserve" x="515.447" y="39.7988" fill="black" font-size="15.6322" font-family="Helvetica"> 722</text>
<text xml:space="preserve" x="375.745" y="56.8554" fill="black" font-size="15.6322" font-family="Helvetica"> / ndf </text>
<text xml:space="preserve" x="370.06" y="51.982" fill="black" font-size="10.5881" font-family="Helvetica">2</text>
<text xml:space="preserve" x="361.938" y="56.8554" fill="black" font-size="15.6322" font-family="Times">&#0967;</text>
<text xml:space="preserve" x="481.334" y="56.8554" fill="black" font-size="15.6322" font-family="Helvetica"> 27.96 / 5</text>
<text xml:space="preserve" x="361.938" y="74.7242" fill="black" font-size="15.6322" font-family="Helvetica">Prob  </text>
<text xml:space="preserve" x="528.443" y="74.7242" fill="black" font-size="15.6322" font-family="Helvetica">05</text>
<text xml:space="preserve" x="519.508" y="74.7242" fill="black" font-size="15.6322" font-family="Times">&#8722;</text>
<text xml:space="preserve" x="468.338" y="74.7242" fill="black" font-size="15.6322" font-family="Helvetica"> 3.709e</text>
<text xml:space="preserve" x="361.938" y="94.2175" fill="black" font-size="15.6322" font-family="Helvetica">Const    </text>
<text xml:space="preserve" x="511.386" y="93.4052" fill="black" font-size="15.6322" font-family="Helvetica"> 18.4</text>
<text xml:space="preserve" x="502.452" y="93.4052" fill="black" font-size="15.6322" font-family="Times">&#0177;</text>
<text xml:space="preserve" x="454.531" y="93.4052" fill="black" font-size="15.6322" font-family="Helvetica"> 399.7 </text>
<text xml:space="preserve" x="361.938" y="111.274" fill="black" font-size="15.6322" font-family="Helvetica">Mean     </text>
<text xml:space="preserve" x="522.757" y="111.274" fill="black" font-size="15.6322" font-family="Helvetica"> 0.1</text>
<text xml:space="preserve" x="513.823" y="111.274" fill="black" font-size="15.6322" font-family="Times">&#0177;</text>
<text xml:space="preserve" x="466.714" y="111.274" fill="black" font-size="15.6322" font-family="Helvetica"> 810.9 </text>
<text xml:space="preserve" x="361.938" y="128.331" fill="black" font-size="15.6322" font-family="Helvetica">Sigma    </text>
<text xml:space="preserve" x="503.264" y="129.143" fill="black" font-size="15.6322" font-family="Helvetica"> 0.072</text>
<text xml:space="preserve" x="494.329" y="129.143" fill="black" font-size="15.6322" font-family="Times">&#0177;</text>
<text xml:space="preserve" x="446.408" y="129.143" fill="black" font-size="15.6322" font-family="Helvetica"> 2.764 </text>
<path d="M57.1929,345.762h 453.543" fill="none" stroke="black"/>
<path d="M129.869,336.541v 9.22031" fill="none" stroke="black"/>
<path d="M144.98,341.152v 4.61016" fill="none" stroke="black"/>
<path d="M160.09,341.152v 4.61016" fill="none" stroke="black"/>
<path d="M175.201,341.152v 4.61016" fill="none" stroke="black"/>
<path d="M190.312,341.152v 4.61016" fill="none" stroke="black"/>
<path d="M205.423,336.541v 9.22031" fill="none" stroke="black"/>
<path d="M220.533,341.152v 4.61016" fill="none" stroke="black"/>
<path d="M235.644,341.152v 4.61016" fill="none" stroke="black"/>
<path d="M250.755,341.152v 4.61016" fill="none" stroke="black"/>
<path d="M265.866,341.152v 4.61016" fill="none" stroke="black"/>
<path d="M280.976,336.541v 9.22031" fill="none" stroke="black"/>
<path d="M296.087,341.152v 4.61016" fill="none" stroke="black"/>
<path d="M311.198,341.152v 4.61016" fill="none" stroke="black"/>
<path d="M326.309,341.152v 4.61016" fill="none" stroke="black"/>
<path d="M341.419,341.152v 4.61016" fill="none" stroke="black"/>
<path d="M356.53,336.541v 9.22031" fill="none" stroke="black"/>
<path d="M371.641,341.152v 4.61016" fill="none" stroke="black"/>
<path d="M386.751,341.152v 4.61016" fill="none" stroke="black"/>
<path d="M401.862,341.152v 4.61016" fill="none" stroke="black"/>
<path d="M416.973,341.152v 4.61016" fill="none" stroke="black"/>
<path d="M432.084,336.541v 9.22031" fill="none" stroke="black"/>
<path d="M447.194,341.152v 4.61016" fill="none" stroke="black"/>
<path d="M462.305,341.152v 4.61016" fill="none" stroke="black"/>
<path d="M477.416,341.152v 4.61016" fill="none" stroke="black"/>
<path d="M492.527,341.152v 4.61016" fill="none" stroke="black"/>
<path d="M507.637,336.541v 9.22031" fill="none" stroke="black"/>
<path d="M129.869,336.541v 9.22031" fill="none" stroke="black"/>
<path d="M114.758,341.152v 4.61016" fill="none" stroke="black"/>
<path d="M99.6476,341.152v 4.61016" fill="none" stroke="black"/>
<path d="M84.5368,341.152v 4.61016" fill="none" stroke="black"/>
<path d="M69.4261,341.152v 4.61016" fill="none" stroke="black"/>
<path d="M507.637,336.541v 9.22031" fill="none" stroke="black"/>
<text xml:space="preserve" x="119.084" y="358.189" fill="black" font-size="12.836" font-family="Helvetica">790</text>
<text xml:space="preserve" x="194.62" y="358.189" fill="black" font-size="12.836" font-family="Helvetica">800</text>
<text xml:space="preserve" x="270.157" y="358.189" fill="black" font-size="12.836" font-family="Helvetica">810</text>
<text xml:space="preserve" x="345.693" y="358.189" fill="black" font-size="12.836" font-family="Helvetica">820</text>
<text xml:space="preserve" x="421.23" y="358.189" fill="black" font-size="12.836" font-family="Helvetica">830</text>
<text xml:space="preserve" x="496.766" y="358.189" fill="black" font-size="12.836" font-family="Helvetica">840</text>
<text xml:space="preserve" x="461.028" y="370.372" fill="black" font-size="12.836" font-family="Helvetica">Time [ps]</text>
<path d="M57.1929,345.762v -307.344" fill="none" stroke="black"/>
<path d="M70.7992,345.762h -13.6063" fill="none" stroke="black"/>
<path d="M63.9961,338.323h -6.80315" fill="none" stroke="black"/>
<path d="M63.9961,330.885h -6.80315" fill="none" stroke="black"/>
<path d="M63.9961,323.446h -6.80315" fill="none" stroke="black"/>
<path d="M63.9961,316.008h -6.80315" fill="none" stroke="black"/>
<path d="M70.7992,308.57h -13.6063" fill="none" stroke="black"/>
<path d="M63.9961,301.131h -6.80315" fill="none" stroke="black"/>
<path d="M63.9961,293.693h -6.80315" fill="none" stroke="black"/>
<path d="M63.9961,286.254h -6.80315" fill="none" stroke="black"/>
<path d="M63.9961,278.816h -6.80315" fill="none" stroke="black"/>
<path d="M70.7992,271.377h -13.6063" fill="none" stroke="black"/>
<path d="M63.9961,263.939h -6.80315" fill="none" stroke="black"/>
<path d="M63.9961,256.5h -6.80315" fill="none" stroke="black"/>
<path d="M63.9961,249.062h -6.80315" fill="none" stroke="black"/>
<path d="M63.9961,241.624h -6.80315" fill="none" stroke="black"/>
<path d="M70.7992,234.185h -13.6063" fill="none" stroke="black"/>
<path d="M63.9961,226.747h -6.80315" fill="none" stroke="black"/>
<path d="M63.9961,219.308h -6.80315" fill="none" stroke="black"/>
<path d="M63.9961,211.87h -6.80315" fill="none" stroke="black"/>
<path d="M63.9961,204.431h -6.80315" fill="none" stroke="black"/>
<path d="M70.7992,196.993h -13.6063" fill="none" stroke="black"/>
<path d="M63.9961,189.554h -6.80315" fill="none" stroke="black"/>
<path d="M63.9961,182.116h -6.80315" fill="none" stroke="black"/>
<path d="M63.9961,174.678h -6.80315" fill="none" stroke="black"/>
<path d="M63.9961,167.239h -6.80315" fill="none" stroke="black"/>
<path d="M70.7992,159.801h -13.6063" fill="none" stroke="black"/>
<path d="M63.9961,152.362h -6.80315" fill="none" stroke="black"/>
<path d="M63.9961,144.924h -6.80315" fill="none" stroke="black"/>
<path d="M63.9961,137.485h -6.80315" fill="none" stroke="black"/>
<path d="M63.9961,130.047h -6.80315" fill="none" stroke="black"/>
<path d="M70.7992,122.608h -13.6063" fill="none" stroke="black"/>
<path d="M63.9961,115.17h -6.80315" fill="none" stroke="black"/>
<path d="M63.9961,107.732h -6.80315" fill="none" stroke="black"/>
<path d="M63.9961,100.293h -6.80315" fill="none" stroke="black"/>
<path d="M63.9961,92.8547h -6.80315" fill="none" stroke="black"/>
<path d="M70.7992,85.4162h -13.6063" fill="none" stroke="black"/>
<path d="M63.9961,77.9778h -6.80315" fill="none" stroke="black"/>
<path d="M63.9961,70.5393h -6.80315" fill="none" stroke="black"/>
<path d="M63.9961,63.1009h -6.80315" fill="none" stroke="black"/>
<path d="M63.9961,55.6624h -6.80315" fill="none" stroke="black"/>
<path d="M70.7992,48.224h -13.6063" fill="none" stroke="black"/>
<path d="M70.7992,48.224h -13.6063" fill="none" stroke="black"/>
<path d="M63.9961,40.7855h -6.80315" fill="none" stroke="black"/>
<text xml:space="preserve" x="47.6087" y="350.067" fill="black" font-size="12.836" font-family="Helvetica">0</text>
<text xml:space="preserve" x="41.111" y="312.704" fill="black" font-size="12.836" font-family="Helvetica">50</text>
<text xml:space="preserve" x="33.801" y="276.155" fill="black" font-size="12.836" font-family="Helvetica">100</text>
<text xml:space="preserve" x="33.801" y="238.793" fill="black" font-size="12.836" font-family="Helvetica">150</text>
<text xml:space="preserve" x="33.801" y="201.43" fill="black" font-size="12.836" font-family="Helvetica">200</text>
<text xml:space="preserve" x="33.801" y="164.068" fill="black" font-size="12.836" font-family="Helvetica">250</text>
<text xml:space="preserve" x="33.801" y="126.706" fill="black" font-size="12.836" font-family="Helvetica">300</text>
<text xml:space="preserve" x="33.801" y="90.1564" fill="black" font-size="12.836" font-family="Helvetica">350</text>
<text xml:space="preserve" x="33.801" y="52.7943" fill="black" font-size="12.836" font-family="Helvetica">400</text>
<g transform="rotate(-90,20.8055,69.8509)">
<text xml:space="preserve" x="20.8055" y="69.8509" fill="black" font-size="12.836" font-family="Helvetica">Event</text>
</g>
<rect x="351.996" y="24.9717" width="204.094" height="107.57" fill="white"/>
<path d="M351.996,132.542h 204.094" fill="none" stroke="black"/>
<path d="M556.091,132.542v -107.57" fill="none" stroke="black"/>
<path d="M556.091,24.9717h -204.094" fill="none" stroke="black"/>
<path d="M351.996,24.9717v 107.57" fill="none" stroke="black"/>
<text xml:space="preserve" x="361.938" y="38.9865" fill="black" font-size="15.6322" font-family="Helvetica">Entries </text>
<text xml:space="preserve" x="515.447" y="39.7988" fill="black" font-size="15.6322" font-family="Helvetica"> 722</text>
<text xml:space="preserve" x="375.745" y="56.8554" fill="black" font-size="15.6322" font-family="Helvetica"> / ndf </text>
<text xml:space="preserve" x="370.06" y="51.982" fill="black" font-size="10.5881" font-family="Helvetica">2</text>
<text xml:space="preserve" x="361.938" y="56.8554" fill="black" font-size="15.6322" font-family="Times">&#0967;</text>
<text xml:space="preserve" x="481.334" y="56.8554" fill="black" font-size="15.6322" font-family="Helvetica"> 27.96 / 5</text>
<text xml:space="preserve" x="361.938" y="74.7242" fill="black" font-size="15.6322" font-family="Helvetica">Prob  </text>
<text xml:space="preserve" x="528.443" y="74.7242" fill="black" font-size="15.6322" font-family="Helvetica">05</text>
<text xml:space="preserve" x="519.508" y="74.7242" fill="black" font-size="15.6322" font-family="Times">&#8722;</text>
<text xml:space="preserve" x="468.338" y="74.7242" fill="black" font-size="15.6322" font-family="Helvetica"> 3.709e</text>
<text xml:space="preserve" x="361.938" y="94.2175" fill="black" font-size="15.6322" font-family="Helvetica">Const    </text>
<text xml:space="preserve" x="511.386" y="93.4052" fill="black" font-size="15.6322" font-family="Helvetica"> 18.4</text>
<text xml:space="preserve" x="502.452" y="93.4052" fill="black" font-size="15.6322" font-family="Times">&#0177;</text>
<text xml:space="preserve" x="454.531" y="93.4052" fill="black" font-size="15.6322" font-family="Helvetica"> 399.7 </text>
<text xml:space="preserve" x="361.938" y="111.274" fill="black" font-size="15.6322" font-family="Helvetica">Mean     </text>
<text xml:space="preserve" x="522.757" y="111.274" fill="black" font-size="15.6322" font-family="Helvetica"> 0.1</text>
<text xml:space="preserve" x="513.823" y="111.274" fill="black" font-size="15.6322" font-family="Times">&#0177;</text>
<text xml:space="preserve" x="466.714" y="111.274" fill="black" font-size="15.6322" font-family="Helvetica"> 810.9 </text>
<text xml:space="preserve" x="361.938" y="128.331" fill="black" font-size="15.6322" font-family="Helvetica">Sigma    </text>
<text xml:space="preserve" x="503.264" y="129.143" fill="black" font-size="15.6322" font-family="Helvetica"> 0.072</text>
<text xml:space="preserve" x="494.329" y="129.143" fill="black" font-size="15.6322" font-family="Times">&#0177;</text>
<text xml:space="preserve" x="446.408" y="129.143" fill="black" font-size="15.6322" font-family="Helvetica"> 2.764 </text>
<text xml:space="preserve" x="209.24" y="18.681" fill="black" font-size="16.9774" font-family="Helvetica">560mm 28 29 30 31</text></svg>
