<?xml version="1.0" standalone="no"?>
<svg width="567.429" height="386.304" viewBox="0 0 567.429 386.304" xmlns="http://www.w3.org/2000/svg" shape-rendering="crispEdges">
<title>
img/week2/Combined140mm_ch_47.svg
</title>
<desc>
Creator: ROOT Version 6.22/08
CreationDate: Mon Jun 21 21:12:02 2021</desc>
<defs>
</defs>
<rect x="0.5" y="0" width="566.929" height="385.804" fill="white"/>
<rect x="57.1929" y="38.5804" width="453.543" height="308.643" fill="white"/>
<rect x="57.1929" y="38.5804" width="453.543" height="308.643" fill="none" stroke="black"/>
<rect x="57.1929" y="38.5804" width="453.543" height="308.643" fill="white"/>
<rect x="57.1929" y="38.5804" width="453.543" height="308.643" fill="none" stroke="black"/>
<path d="M57.1929,347.224h 97.1879v -3.27922h 32.396v -16.3961h 32.396v -22.9545h 32.396v -236.104h 32.396v 49.1883h 32.396v 219.708h 32.396v 9.83766h 161.98" fill="none" stroke="#000099"/>
<g fill="#ff0000">
<polygon points=" 263.543, 64.2664 271.99, 64.2664 267.767, 72.7135"/>
</g>
<path d="M59.4606,347.224h 126.992l 4.53543, -0.0463231l 4.53543, -0.0664887l 4.53543, -0.149356l 4.53543, -0.319225l 4.53543, -0.648954l 4.53543, -1.25423l 4.53543, -2.30331l 4.53543, -4.01657l 4.53543, -6.64553l 4.53543, -10.4214l 4.53543,
 -15.4694l 4.53543, -21.6976l 4.53543, -28.6888l 4.53543, -35.6402l 4.53543, -41.3986l 4.53543, -44.6262l 4.53543, -44.0852l 4.53543, -38.9829l 1.88764, -12.1829" fill="none" stroke="#ff0000" stroke-width="2"/>
<path d="M288.985,38.5804l 1.78307, 11.4036" fill="none" stroke="#ff0000" stroke-width="2"/>
<path d="M290.768,49.984l 4.53543, 38.8141l 4.53543, 44.0225l 4.53543, 44.6595l 4.53543, 41.5039l 4.53543, 35.7872l 4.53543, 28.8489l 4.53543, 21.8483l 4.53543, 15.5971l 4.53543, 10.5206l 4.53543, 6.71691l 4.53543, 4.06455l 4.53543, 2.33355l 4.53543,
 1.27216l 4.53543, 0.658983l 4.53543, 0.324525l 4.53543, 0.152005l 4.53543, 0.0677435l 4.53543, 0.0472815h 136.063" fill="none" stroke="#ff0000" stroke-width="2"/>
<rect x="351.996" y="25.0773" width="204.094" height="108.025" fill="white"/>
<path d="M351.996,133.102h 204.094" fill="none" stroke="black"/>
<path d="M556.091,133.102v -108.025" fill="none" stroke="black"/>
<path d="M556.091,25.0773h -204.094" fill="none" stroke="black"/>
<path d="M351.996,25.0773v 108.025" fill="none" stroke="black"/>
<text xml:space="preserve" x="361.938" y="38.9865" fill="black" font-size="15.6962" font-family="Helvetica">Entries </text>
<text xml:space="preserve" x="515.447" y="38.9865" fill="black" font-size="15.6962" font-family="Helvetica"> 178</text>
<text xml:space="preserve" x="375.745" y="57.6676" fill="black" font-size="15.6962" font-family="Helvetica"> / ndf </text>
<text xml:space="preserve" x="370.06" y="52.7943" fill="black" font-size="10.6308" font-family="Helvetica">2</text>
<text xml:space="preserve" x="361.938" y="57.6676" fill="black" font-size="15.6962" font-family="Times">&#0967;</text>
<text xml:space="preserve" x="481.334" y="57.6676" fill="black" font-size="15.6962" font-family="Helvetica"> 8.138 / 3</text>
<text xml:space="preserve" x="361.938" y="75.5364" fill="black" font-size="15.6962" font-family="Helvetica">Prob  </text>
<text xml:space="preserve" x="485.395" y="75.5364" fill="black" font-size="15.6962" font-family="Helvetica"> 0.04325</text>
<text xml:space="preserve" x="361.938" y="94.2175" fill="black" font-size="15.6962" font-family="Helvetica">Const    </text>
<text xml:space="preserve" x="511.386" y="93.4052" fill="black" font-size="15.6962" font-family="Helvetica"> 10.0</text>
<text xml:space="preserve" x="502.452" y="93.4052" fill="black" font-size="15.6962" font-family="Times">&#0177;</text>
<text xml:space="preserve" x="454.531" y="93.4052" fill="black" font-size="15.6962" font-family="Helvetica"> 104.8 </text>
<text xml:space="preserve" x="361.938" y="111.274" fill="black" font-size="15.6962" font-family="Helvetica">Mean     </text>
<text xml:space="preserve" x="520.32" y="111.274" fill="black" font-size="15.6962" font-family="Helvetica"> 0.2</text>
<text xml:space="preserve" x="511.386" y="111.274" fill="black" font-size="15.6962" font-family="Times">&#0177;</text>
<text xml:space="preserve" x="463.465" y="111.274" fill="black" font-size="15.6962" font-family="Helvetica"> 807.8 </text>
<text xml:space="preserve" x="361.938" y="128.331" fill="black" font-size="15.6962" font-family="Helvetica">Sigma    </text>
<text xml:space="preserve" x="502.452" y="129.143" fill="black" font-size="15.6962" font-family="Helvetica"> 0.146</text>
<text xml:space="preserve" x="493.517" y="129.143" fill="black" font-size="15.6962" font-family="Times">&#0177;</text>
<text xml:space="preserve" x="445.596" y="129.143" fill="black" font-size="15.6962" font-family="Helvetica"> 2.589 </text>
<path d="M57.1929,347.224h 453.543" fill="none" stroke="black"/>
<path d="M135.06,337.964v 9.2593" fill="none" stroke="black"/>
<path d="M151.25,342.594v 4.62965" fill="none" stroke="black"/>
<path d="M167.44,342.594v 4.62965" fill="none" stroke="black"/>
<path d="M183.63,342.594v 4.62965" fill="none" stroke="black"/>
<path d="M199.82,342.594v 4.62965" fill="none" stroke="black"/>
<path d="M216.011,337.964v 9.2593" fill="none" stroke="black"/>
<path d="M232.201,342.594v 4.62965" fill="none" stroke="black"/>
<path d="M248.391,342.594v 4.62965" fill="none" stroke="black"/>
<path d="M264.581,342.594v 4.62965" fill="none" stroke="black"/>
<path d="M280.771,342.594v 4.62965" fill="none" stroke="black"/>
<path d="M296.961,337.964v 9.2593" fill="none" stroke="black"/>
<path d="M313.151,342.594v 4.62965" fill="none" stroke="black"/>
<path d="M329.341,342.594v 4.62965" fill="none" stroke="black"/>
<path d="M345.531,342.594v 4.62965" fill="none" stroke="black"/>
<path d="M361.721,342.594v 4.62965" fill="none" stroke="black"/>
<path d="M377.911,337.964v 9.2593" fill="none" stroke="black"/>
<path d="M394.101,342.594v 4.62965" fill="none" stroke="black"/>
<path d="M410.291,342.594v 4.62965" fill="none" stroke="black"/>
<path d="M426.481,342.594v 4.62965" fill="none" stroke="black"/>
<path d="M442.672,342.594v 4.62965" fill="none" stroke="black"/>
<path d="M458.862,337.964v 9.2593" fill="none" stroke="black"/>
<path d="M135.06,337.964v 9.2593" fill="none" stroke="black"/>
<path d="M118.87,342.594v 4.62965" fill="none" stroke="black"/>
<path d="M102.68,342.594v 4.62965" fill="none" stroke="black"/>
<path d="M86.49,342.594v 4.62965" fill="none" stroke="black"/>
<path d="M70.2999,342.594v 4.62965" fill="none" stroke="black"/>
<path d="M458.862,337.964v 9.2593" fill="none" stroke="black"/>
<path d="M475.052,342.594v 4.62965" fill="none" stroke="black"/>
<path d="M491.242,342.594v 4.62965" fill="none" stroke="black"/>
<path d="M507.432,342.594v 4.62965" fill="none" stroke="black"/>
<text xml:space="preserve" x="123.145" y="359.813" fill="black" font-size="12.8882" font-family="Helvetica">790</text>
<text xml:space="preserve" x="204.367" y="359.813" fill="black" font-size="12.8882" font-family="Helvetica">800</text>
<text xml:space="preserve" x="285.589" y="359.813" fill="black" font-size="12.8882" font-family="Helvetica">810</text>
<text xml:space="preserve" x="365.999" y="359.813" fill="black" font-size="12.8882" font-family="Helvetica">820</text>
<text xml:space="preserve" x="447.221" y="359.813" fill="black" font-size="12.8882" font-family="Helvetica">830</text>
<text xml:space="preserve" x="481.334" y="373.621" fill="black" font-size="12.8882" font-family="Helvetica">Time</text>
<path d="M57.1929,347.224v -308.643" fill="none" stroke="black"/>
<path d="M70.7992,347.224h -13.6063" fill="none" stroke="black"/>
<path d="M63.9961,340.665h -6.80315" fill="none" stroke="black"/>
<path d="M63.9961,334.107h -6.80315" fill="none" stroke="black"/>
<path d="M63.9961,327.548h -6.80315" fill="none" stroke="black"/>
<path d="M63.9961,320.99h -6.80315" fill="none" stroke="black"/>
<path d="M70.7992,314.432h -13.6063" fill="none" stroke="black"/>
<path d="M63.9961,307.873h -6.80315" fill="none" stroke="black"/>
<path d="M63.9961,301.315h -6.80315" fill="none" stroke="black"/>
<path d="M63.9961,294.756h -6.80315" fill="none" stroke="black"/>
<path d="M63.9961,288.198h -6.80315" fill="none" stroke="black"/>
<path d="M70.7992,281.639h -13.6063" fill="none" stroke="black"/>
<path d="M63.9961,275.081h -6.80315" fill="none" stroke="black"/>
<path d="M63.9961,268.522h -6.80315" fill="none" stroke="black"/>
<path d="M63.9961,261.964h -6.80315" fill="none" stroke="black"/>
<path d="M63.9961,255.406h -6.80315" fill="none" stroke="black"/>
<path d="M70.7992,248.847h -13.6063" fill="none" stroke="black"/>
<path d="M63.9961,242.289h -6.80315" fill="none" stroke="black"/>
<path d="M63.9961,235.73h -6.80315" fill="none" stroke="black"/>
<path d="M63.9961,229.172h -6.80315" fill="none" stroke="black"/>
<path d="M63.9961,222.613h -6.80315" fill="none" stroke="black"/>
<path d="M70.7992,216.055h -13.6063" fill="none" stroke="black"/>
<path d="M63.9961,209.496h -6.80315" fill="none" stroke="black"/>
<path d="M63.9961,202.938h -6.80315" fill="none" stroke="black"/>
<path d="M63.9961,196.38h -6.80315" fill="none" stroke="black"/>
<path d="M63.9961,189.821h -6.80315" fill="none" stroke="black"/>
<path d="M70.7992,183.263h -13.6063" fill="none" stroke="black"/>
<path d="M63.9961,176.704h -6.80315" fill="none" stroke="black"/>
<path d="M63.9961,170.146h -6.80315" fill="none" stroke="black"/>
<path d="M63.9961,163.587h -6.80315" fill="none" stroke="black"/>
<path d="M63.9961,157.029h -6.80315" fill="none" stroke="black"/>
<path d="M70.7992,150.471h -13.6063" fill="none" stroke="black"/>
<path d="M63.9961,143.912h -6.80315" fill="none" stroke="black"/>
<path d="M63.9961,137.354h -6.80315" fill="none" stroke="black"/>
<path d="M63.9961,130.795h -6.80315" fill="none" stroke="black"/>
<path d="M63.9961,124.237h -6.80315" fill="none" stroke="black"/>
<path d="M70.7992,117.678h -13.6063" fill="none" stroke="black"/>
<path d="M63.9961,111.12h -6.80315" fill="none" stroke="black"/>
<path d="M63.9961,104.561h -6.80315" fill="none" stroke="black"/>
<path d="M63.9961,98.003h -6.80315" fill="none" stroke="black"/>
<path d="M63.9961,91.4445h -6.80315" fill="none" stroke="black"/>
<path d="M70.7992,84.8861h -13.6063" fill="none" stroke="black"/>
<path d="M63.9961,78.3276h -6.80315" fill="none" stroke="black"/>
<path d="M63.9961,71.7692h -6.80315" fill="none" stroke="black"/>
<path d="M63.9961,65.2107h -6.80315" fill="none" stroke="black"/>
<path d="M63.9961,58.6523h -6.80315" fill="none" stroke="black"/>
<path d="M70.7992,52.0939h -13.6063" fill="none" stroke="black"/>
<path d="M70.7992,52.0939h -13.6063" fill="none" stroke="black"/>
<path d="M63.9961,45.5354h -6.80315" fill="none" stroke="black"/>
<path d="M63.9961,38.977h -6.80315" fill="none" stroke="black"/>
<text xml:space="preserve" x="46.7965" y="351.691" fill="black" font-size="12.8882" font-family="Helvetica">0</text>
<text xml:space="preserve" x="39.4865" y="319.202" fill="black" font-size="12.8882" font-family="Helvetica">10</text>
<text xml:space="preserve" x="39.4865" y="285.901" fill="black" font-size="12.8882" font-family="Helvetica">20</text>
<text xml:space="preserve" x="39.4865" y="253.412" fill="black" font-size="12.8882" font-family="Helvetica">30</text>
<text xml:space="preserve" x="39.4865" y="220.924" fill="black" font-size="12.8882" font-family="Helvetica">40</text>
<text xml:space="preserve" x="39.4865" y="187.623" fill="black" font-size="12.8882" font-family="Helvetica">50</text>
<text xml:space="preserve" x="39.4865" y="155.134" fill="black" font-size="12.8882" font-family="Helvetica">60</text>
<text xml:space="preserve" x="39.4865" y="121.833" fill="black" font-size="12.8882" font-family="Helvetica">70</text>
<text xml:space="preserve" x="39.4865" y="89.3441" fill="black" font-size="12.8882" font-family="Helvetica">80</text>
<text xml:space="preserve" x="39.4865" y="56.8554" fill="black" font-size="12.8882" font-family="Helvetica">90</text>
<g transform="rotate(-90,28.9277,71.4753)">
<text xml:space="preserve" x="28.9277" y="71.4753" fill="black" font-size="12.8882" font-family="Helvetica">Event</text>
</g>
<rect x="351.996" y="25.0773" width="204.094" height="108.025" fill="white"/>
<path d="M351.996,133.102h 204.094" fill="none" stroke="black"/>
<path d="M556.091,133.102v -108.025" fill="none" stroke="black"/>
<path d="M556.091,25.0773h -204.094" fill="none" stroke="black"/>
<path d="M351.996,25.0773v 108.025" fill="none" stroke="black"/>
<text xml:space="preserve" x="361.938" y="38.9865" fill="black" font-size="15.6962" font-family="Helvetica">Entries </text>
<text xml:space="preserve" x="515.447" y="38.9865" fill="black" font-size="15.6962" font-family="Helvetica"> 178</text>
<text xml:space="preserve" x="375.745" y="57.6676" fill="black" font-size="15.6962" font-family="Helvetica"> / ndf </text>
<text xml:space="preserve" x="370.06" y="52.7943" fill="black" font-size="10.6308" font-family="Helvetica">2</text>
<text xml:space="preserve" x="361.938" y="57.6676" fill="black" font-size="15.6962" font-family="Times">&#0967;</text>
<text xml:space="preserve" x="481.334" y="57.6676" fill="black" font-size="15.6962" font-family="Helvetica"> 8.138 / 3</text>
<text xml:space="preserve" x="361.938" y="75.5364" fill="black" font-size="15.6962" font-family="Helvetica">Prob  </text>
<text xml:space="preserve" x="485.395" y="75.5364" fill="black" font-size="15.6962" font-family="Helvetica"> 0.04325</text>
<text xml:space="preserve" x="361.938" y="94.2175" fill="black" font-size="15.6962" font-family="Helvetica">Const    </text>
<text xml:space="preserve" x="511.386" y="93.4052" fill="black" font-size="15.6962" font-family="Helvetica"> 10.0</text>
<text xml:space="preserve" x="502.452" y="93.4052" fill="black" font-size="15.6962" font-family="Times">&#0177;</text>
<text xml:space="preserve" x="454.531" y="93.4052" fill="black" font-size="15.6962" font-family="Helvetica"> 104.8 </text>
<text xml:space="preserve" x="361.938" y="111.274" fill="black" font-size="15.6962" font-family="Helvetica">Mean     </text>
<text xml:space="preserve" x="520.32" y="111.274" fill="black" font-size="15.6962" font-family="Helvetica"> 0.2</text>
<text xml:space="preserve" x="511.386" y="111.274" fill="black" font-size="15.6962" font-family="Times">&#0177;</text>
<text xml:space="preserve" x="463.465" y="111.274" fill="black" font-size="15.6962" font-family="Helvetica"> 807.8 </text>
<text xml:space="preserve" x="361.938" y="128.331" fill="black" font-size="15.6962" font-family="Helvetica">Sigma    </text>
<text xml:space="preserve" x="502.452" y="129.143" fill="black" font-size="15.6962" font-family="Helvetica"> 0.146</text>
<text xml:space="preserve" x="493.517" y="129.143" fill="black" font-size="15.6962" font-family="Times">&#0177;</text>
<text xml:space="preserve" x="445.596" y="129.143" fill="black" font-size="15.6962" font-family="Helvetica"> 2.589 </text>
<text xml:space="preserve" x="243.354" y="18.681" fill="black" font-size="17.0471" font-family="Helvetica">140mm 47</text></svg>
