<?xml version="1.0" standalone="no"?>
<svg width="567.429" height="384.969" viewBox="0 0 567.429 384.969" xmlns="http://www.w3.org/2000/svg" shape-rendering="crispEdges">
<title>
img/week2/Combined0mm_ch_37.svg
</title>
<desc>
Creator: ROOT Version 6.22/09
CreationDate: Thu Jun 24 12:07:48 2021</desc>
<defs>
</defs>
<rect x="0.5" y="0" width="566.929" height="384.469" fill="white"/>
<rect x="57.1929" y="38.4469" width="453.543" height="307.575" fill="white"/>
<rect x="57.1929" y="38.4469" width="453.543" height="307.575" fill="none" stroke="black"/>
<rect x="57.1929" y="38.4469" width="453.543" height="307.575" fill="white"/>
<rect x="57.1929" y="38.4469" width="453.543" height="307.575" fill="none" stroke="black"/>
<path d="M57.1929,346.022h 34.8879v -2.81662h 69.7759v -2.81662h 34.8879v -14.0831h 34.8879v -157.731h 34.8879v -115.482h 34.8879v 270.396h 34.8879v 22.533h 174.44" fill="none" stroke="#000099"/>
<g fill="#ff0000">
<polygon points=" 279.729, 48.8577 288.2, 48.8577 283.965, 57.329"/>
</g>
<path d="M59.4606,346.022h 117.921l 4.53543, -0.0451025l 4.53543, -0.0636854l 4.53543, -0.141854l 4.53543, -0.300955l 4.53543, -0.607936l 4.53543, -1.16876l 4.53543, -2.13738l 4.53543, -3.71577l 4.53543, -6.13605l 4.53543, -9.61554l 4.53543,
 -14.2809l 4.53543, -20.0688l 4.53543, -26.626l 4.53543, -33.248l 4.53543, -38.9006l 4.53543, -42.3549l 4.53543, -42.434l 4.53543, -38.3231l 4.16337, -27.4058" fill="none" stroke="#ff0000" stroke-width="2"/>
<path d="M279.235,38.4469l 2.46233, 13.6514" fill="none" stroke="#ff0000" stroke-width="2"/>
<path d="M281.697,52.0983l 4.53543, 35.2937l 4.53543, 41.2513l 4.53543, 42.8572l 4.53543, 40.685l 4.53543, 35.7986l 4.53543, 29.4406l 4.53543, 22.75l 4.53543, 16.5779l 4.53543, 11.4207l 4.53543, 7.45209l 4.53543, 4.61209l 4.53543, 2.71034l 4.53543,
 1.51366l 4.53543, 0.803916l 4.53543, 0.406271l 4.53543, 0.195455l 4.53543, 0.0895507l 4.53543, 0.0655466h 136.063" fill="none" stroke="#ff0000" stroke-width="2"/>
<path d="M499.398,346.022h 9.07087" fill="none" stroke="#ff0000" stroke-width="2"/>
<path d="M57.1929,346.022h 453.543" fill="none" stroke="black"/>
<path d="M71.2741,336.795v 9.22726" fill="none" stroke="black"/>
<path d="M88.7096,341.409v 4.61363" fill="none" stroke="black"/>
<path d="M106.145,341.409v 4.61363" fill="none" stroke="black"/>
<path d="M123.58,341.409v 4.61363" fill="none" stroke="black"/>
<path d="M141.016,341.409v 4.61363" fill="none" stroke="black"/>
<path d="M158.451,336.795v 9.22726" fill="none" stroke="black"/>
<path d="M175.887,341.409v 4.61363" fill="none" stroke="black"/>
<path d="M193.322,341.409v 4.61363" fill="none" stroke="black"/>
<path d="M210.758,341.409v 4.61363" fill="none" stroke="black"/>
<path d="M228.193,341.409v 4.61363" fill="none" stroke="black"/>
<path d="M245.629,336.795v 9.22726" fill="none" stroke="black"/>
<path d="M263.064,341.409v 4.61363" fill="none" stroke="black"/>
<path d="M280.5,341.409v 4.61363" fill="none" stroke="black"/>
<path d="M297.935,341.409v 4.61363" fill="none" stroke="black"/>
<path d="M315.371,341.409v 4.61363" fill="none" stroke="black"/>
<path d="M332.806,336.795v 9.22726" fill="none" stroke="black"/>
<path d="M350.241,341.409v 4.61363" fill="none" stroke="black"/>
<path d="M367.677,341.409v 4.61363" fill="none" stroke="black"/>
<path d="M385.112,341.409v 4.61363" fill="none" stroke="black"/>
<path d="M402.548,341.409v 4.61363" fill="none" stroke="black"/>
<path d="M419.983,336.795v 9.22726" fill="none" stroke="black"/>
<path d="M437.419,341.409v 4.61363" fill="none" stroke="black"/>
<path d="M454.854,341.409v 4.61363" fill="none" stroke="black"/>
<path d="M472.29,341.409v 4.61363" fill="none" stroke="black"/>
<path d="M489.725,341.409v 4.61363" fill="none" stroke="black"/>
<path d="M507.161,336.795v 9.22726" fill="none" stroke="black"/>
<path d="M71.2741,336.795v 9.22726" fill="none" stroke="black"/>
<path d="M507.161,336.795v 9.22726" fill="none" stroke="black"/>
<text xml:space="preserve" x="59.9624" y="358.403" fill="black" font-size="12.8453" font-family="Helvetica">790</text>
<text xml:space="preserve" x="147.12" y="358.403" fill="black" font-size="12.8453" font-family="Helvetica">800</text>
<text xml:space="preserve" x="234.277" y="358.403" fill="black" font-size="12.8453" font-family="Helvetica">810</text>
<text xml:space="preserve" x="321.434" y="358.403" fill="black" font-size="12.8453" font-family="Helvetica">820</text>
<text xml:space="preserve" x="408.591" y="358.403" fill="black" font-size="12.8453" font-family="Helvetica">830</text>
<text xml:space="preserve" x="496.563" y="358.403" fill="black" font-size="12.8453" font-family="Helvetica">840</text>
<text xml:space="preserve" x="460.723" y="370.622" fill="black" font-size="12.8453" font-family="Helvetica">Time [ps]</text>
<path d="M57.1929,346.022v -307.575" fill="none" stroke="black"/>
<path d="M70.7992,346.022h -13.6063" fill="none" stroke="black"/>
<path d="M63.9961,331.939h -6.80315" fill="none" stroke="black"/>
<path d="M63.9961,317.856h -6.80315" fill="none" stroke="black"/>
<path d="M63.9961,303.773h -6.80315" fill="none" stroke="black"/>
<path d="M70.7992,289.69h -13.6063" fill="none" stroke="black"/>
<path d="M63.9961,275.607h -6.80315" fill="none" stroke="black"/>
<path d="M63.9961,261.524h -6.80315" fill="none" stroke="black"/>
<path d="M63.9961,247.44h -6.80315" fill="none" stroke="black"/>
<path d="M70.7992,233.357h -13.6063" fill="none" stroke="black"/>
<path d="M63.9961,219.274h -6.80315" fill="none" stroke="black"/>
<path d="M63.9961,205.191h -6.80315" fill="none" stroke="black"/>
<path d="M63.9961,191.108h -6.80315" fill="none" stroke="black"/>
<path d="M70.7992,177.025h -13.6063" fill="none" stroke="black"/>
<path d="M63.9961,162.942h -6.80315" fill="none" stroke="black"/>
<path d="M63.9961,148.859h -6.80315" fill="none" stroke="black"/>
<path d="M63.9961,134.775h -6.80315" fill="none" stroke="black"/>
<path d="M70.7992,120.692h -13.6063" fill="none" stroke="black"/>
<path d="M63.9961,106.609h -6.80315" fill="none" stroke="black"/>
<path d="M63.9961,92.5261h -6.80315" fill="none" stroke="black"/>
<path d="M63.9961,78.443h -6.80315" fill="none" stroke="black"/>
<path d="M70.7992,64.3599h -13.6063" fill="none" stroke="black"/>
<path d="M70.7992,64.3599h -13.6063" fill="none" stroke="black"/>
<path d="M63.9961,50.2767h -6.80315" fill="none" stroke="black"/>
<text xml:space="preserve" x="47.7441" y="350.258" fill="black" font-size="12.8453" font-family="Helvetica">0</text>
<text xml:space="preserve" x="41.2277" y="294.054" fill="black" font-size="12.8453" font-family="Helvetica">20</text>
<text xml:space="preserve" x="41.2277" y="237.85" fill="black" font-size="12.8453" font-family="Helvetica">40</text>
<text xml:space="preserve" x="41.2277" y="181.645" fill="black" font-size="12.8453" font-family="Helvetica">60</text>
<text xml:space="preserve" x="41.2277" y="125.441" fill="black" font-size="12.8453" font-family="Helvetica">80</text>
<text xml:space="preserve" x="33.8967" y="69.237" fill="black" font-size="12.8453" font-family="Helvetica">100</text>
<g transform="rotate(-90,20.8638,70.0516)">
<text xml:space="preserve" x="20.8638" y="70.0516" fill="black" font-size="12.8453" font-family="Helvetica">Event</text>
</g>
<text xml:space="preserve" x="253.012" y="18.7347" fill="black" font-size="16.9898" font-family="Helvetica">0mm 37</text></svg>
