<?xml version="1.0" standalone="no"?>
<svg width="567.429" height="384.969" viewBox="0 0 567.429 384.969" xmlns="http://www.w3.org/2000/svg" shape-rendering="crispEdges">
<title>
img/week2/Combined420mm_ch_55.svg
</title>
<desc>
Creator: ROOT Version 6.22/09
CreationDate: Thu Jun 24 12:07:48 2021</desc>
<defs>
</defs>
<rect x="0.5" y="0" width="566.929" height="384.469" fill="white"/>
<rect x="57.1929" y="38.4469" width="453.543" height="307.575" fill="white"/>
<rect x="57.1929" y="38.4469" width="453.543" height="307.575" fill="none" stroke="black"/>
<rect x="57.1929" y="38.4469" width="453.543" height="307.575" fill="white"/>
<rect x="57.1929" y="38.4469" width="453.543" height="307.575" fill="none" stroke="black"/>
<path d="M57.1929,346.022h 129.584v -5.97814h 32.396v -11.9563h 32.396v -274.994h 32.396v 35.8688h 32.396v 215.213h 32.396v 41.847h 161.98" fill="none" stroke="#000099"/>
<g fill="#ff0000">
<polygon points=" 263.531, 48.8577 272.002, 48.8577 267.767, 57.329"/>
</g>
<path d="M59.4606,346.022h 131.528l 4.53543, -0.056567l 4.53543, -0.0781418l 4.53543, -0.171909l 4.53543, -0.360448l 4.53543, -0.720038l 4.53543, -1.36978l 4.53543, -2.48029l 4.53543, -4.27203l 4.53543, -6.99371l 4.53543, -10.8716l 4.53543, -16.0266l
 4.53543, -22.3684l 4.53543, -29.4921l 4.53543, -36.6188l 4.53543, -42.6261l 4.53543, -46.1984l 4.53543, -46.0924l 4.46032, -40.778" fill="none" stroke="#ff0000" stroke-width="2"/>
<path d="M297.034,38.4469l 2.8041, 23.7158" fill="none" stroke="#ff0000" stroke-width="2"/>
<path d="M299.839,62.1627l 4.53543, 44.8441l 4.53543, 46.6542l 4.53543, 44.3897l 4.53543, 39.1768l 4.53543, 32.3396l 4.53543, 25.1011l 4.53543, 18.3846l 4.53543, 12.7384l 4.53543, 8.36534l 4.53543, 5.21393l 4.53543, 3.08767l 4.53543, 1.73882l
 4.53543, 0.931819l 4.53543, 0.475454l 4.53543, 0.231092l 4.53543, 0.107036l 4.53543, 0.0472592l 4.53543, 0.0326426h 126.992" fill="none" stroke="#ff0000" stroke-width="2"/>
<path d="M57.1929,346.022h 453.543" fill="none" stroke="black"/>
<path d="M135.06,336.795v 9.22726" fill="none" stroke="black"/>
<path d="M151.25,341.409v 4.61363" fill="none" stroke="black"/>
<path d="M167.44,341.409v 4.61363" fill="none" stroke="black"/>
<path d="M183.63,341.409v 4.61363" fill="none" stroke="black"/>
<path d="M199.82,341.409v 4.61363" fill="none" stroke="black"/>
<path d="M216.011,336.795v 9.22726" fill="none" stroke="black"/>
<path d="M232.201,341.409v 4.61363" fill="none" stroke="black"/>
<path d="M248.391,341.409v 4.61363" fill="none" stroke="black"/>
<path d="M264.581,341.409v 4.61363" fill="none" stroke="black"/>
<path d="M280.771,341.409v 4.61363" fill="none" stroke="black"/>
<path d="M296.961,336.795v 9.22726" fill="none" stroke="black"/>
<path d="M313.151,341.409v 4.61363" fill="none" stroke="black"/>
<path d="M329.341,341.409v 4.61363" fill="none" stroke="black"/>
<path d="M345.531,341.409v 4.61363" fill="none" stroke="black"/>
<path d="M361.721,341.409v 4.61363" fill="none" stroke="black"/>
<path d="M377.911,336.795v 9.22726" fill="none" stroke="black"/>
<path d="M394.101,341.409v 4.61363" fill="none" stroke="black"/>
<path d="M410.291,341.409v 4.61363" fill="none" stroke="black"/>
<path d="M426.481,341.409v 4.61363" fill="none" stroke="black"/>
<path d="M442.672,341.409v 4.61363" fill="none" stroke="black"/>
<path d="M458.862,336.795v 9.22726" fill="none" stroke="black"/>
<path d="M135.06,336.795v 9.22726" fill="none" stroke="black"/>
<path d="M118.87,341.409v 4.61363" fill="none" stroke="black"/>
<path d="M102.68,341.409v 4.61363" fill="none" stroke="black"/>
<path d="M86.49,341.409v 4.61363" fill="none" stroke="black"/>
<path d="M70.2999,341.409v 4.61363" fill="none" stroke="black"/>
<path d="M458.862,336.795v 9.22726" fill="none" stroke="black"/>
<path d="M475.052,341.409v 4.61363" fill="none" stroke="black"/>
<path d="M491.242,341.409v 4.61363" fill="none" stroke="black"/>
<path d="M507.432,341.409v 4.61363" fill="none" stroke="black"/>
<text xml:space="preserve" x="124.312" y="358.403" fill="black" font-size="12.8453" font-family="Helvetica">790</text>
<text xml:space="preserve" x="204.953" y="358.403" fill="black" font-size="12.8453" font-family="Helvetica">800</text>
<text xml:space="preserve" x="285.594" y="358.403" fill="black" font-size="12.8453" font-family="Helvetica">810</text>
<text xml:space="preserve" x="367.049" y="358.403" fill="black" font-size="12.8453" font-family="Helvetica">820</text>
<text xml:space="preserve" x="447.69" y="358.403" fill="black" font-size="12.8453" font-family="Helvetica">830</text>
<text xml:space="preserve" x="460.723" y="370.622" fill="black" font-size="12.8453" font-family="Helvetica">Time [ps]</text>
<path d="M57.1929,346.022v -307.575" fill="none" stroke="black"/>
<path d="M70.7992,346.022h -13.6063" fill="none" stroke="black"/>
<path d="M63.9961,334.066h -6.80315" fill="none" stroke="black"/>
<path d="M63.9961,322.11h -6.80315" fill="none" stroke="black"/>
<path d="M63.9961,310.153h -6.80315" fill="none" stroke="black"/>
<path d="M63.9961,298.197h -6.80315" fill="none" stroke="black"/>
<path d="M70.7992,286.241h -13.6063" fill="none" stroke="black"/>
<path d="M63.9961,274.285h -6.80315" fill="none" stroke="black"/>
<path d="M63.9961,262.328h -6.80315" fill="none" stroke="black"/>
<path d="M63.9961,250.372h -6.80315" fill="none" stroke="black"/>
<path d="M63.9961,238.416h -6.80315" fill="none" stroke="black"/>
<path d="M70.7992,226.459h -13.6063" fill="none" stroke="black"/>
<path d="M63.9961,214.503h -6.80315" fill="none" stroke="black"/>
<path d="M63.9961,202.547h -6.80315" fill="none" stroke="black"/>
<path d="M63.9961,190.591h -6.80315" fill="none" stroke="black"/>
<path d="M63.9961,178.634h -6.80315" fill="none" stroke="black"/>
<path d="M70.7992,166.678h -13.6063" fill="none" stroke="black"/>
<path d="M63.9961,154.722h -6.80315" fill="none" stroke="black"/>
<path d="M63.9961,142.765h -6.80315" fill="none" stroke="black"/>
<path d="M63.9961,130.809h -6.80315" fill="none" stroke="black"/>
<path d="M63.9961,118.853h -6.80315" fill="none" stroke="black"/>
<path d="M70.7992,106.897h -13.6063" fill="none" stroke="black"/>
<path d="M63.9961,94.9403h -6.80315" fill="none" stroke="black"/>
<path d="M63.9961,82.9841h -6.80315" fill="none" stroke="black"/>
<path d="M63.9961,71.0278h -6.80315" fill="none" stroke="black"/>
<path d="M63.9961,59.0715h -6.80315" fill="none" stroke="black"/>
<path d="M70.7992,47.1152h -13.6063" fill="none" stroke="black"/>
<path d="M70.7992,47.1152h -13.6063" fill="none" stroke="black"/>
<text xml:space="preserve" x="47.7441" y="350.258" fill="black" font-size="12.8453" font-family="Helvetica">0</text>
<text xml:space="preserve" x="41.2277" y="290.796" fill="black" font-size="12.8453" font-family="Helvetica">10</text>
<text xml:space="preserve" x="41.2277" y="231.333" fill="black" font-size="12.8453" font-family="Helvetica">20</text>
<text xml:space="preserve" x="41.2277" y="171.056" fill="black" font-size="12.8453" font-family="Helvetica">30</text>
<text xml:space="preserve" x="41.2277" y="111.594" fill="black" font-size="12.8453" font-family="Helvetica">40</text>
<text xml:space="preserve" x="41.2277" y="51.3169" fill="black" font-size="12.8453" font-family="Helvetica">50</text>
<g transform="rotate(-90,29.0094,70.0516)">
<text xml:space="preserve" x="29.0094" y="70.0516" fill="black" font-size="12.8453" font-family="Helvetica">Event</text>
</g>
<text xml:space="preserve" x="243.237" y="18.7347" fill="black" font-size="16.9898" font-family="Helvetica">420mm 55</text></svg>
