<?xml version="1.0" standalone="no"?>
<svg width="567.429" height="384.68" viewBox="0 0 567.429 384.68" xmlns="http://www.w3.org/2000/svg" shape-rendering="crispEdges">
<title>
img/week2/Combined670mm_ch_36_37_38_39.svg
</title>
<desc>
Creator: ROOT Version 6.22/09
CreationDate: Tue Jun 22 18:03:16 2021</desc>
<defs>
</defs>
<rect x="0.5" y="0" width="566.929" height="384.18" fill="white"/>
<rect x="57.1929" y="38.418" width="453.543" height="307.344" fill="white"/>
<rect x="57.1929" y="38.418" width="453.543" height="307.344" fill="none" stroke="black"/>
<rect x="57.1929" y="38.418" width="453.543" height="307.344" fill="white"/>
<rect x="57.1929" y="38.418" width="453.543" height="307.344" fill="none" stroke="black"/>
<path d="M57.1929,344.812h 30.2362v 0.950153h 60.4724v -0.950153h 30.2362v -2.85046h 30.2362v -4.75077h 30.2362v -58.9095h 30.2362v -211.884h 30.2362v 107.367h 30.2362v 166.277h 30.2362v 5.70092h 151.181" fill="none" stroke="#000099"/>
<g fill="#ff0000">
<polygon points=" 279.741, 62.1932 288.188, 62.1932 283.965, 70.6403"/>
</g>
<path d="M59.4606,345.762h 140.598l 4.53543, -0.0592608l 4.53543, -0.0842068l 4.53543, -0.187496l 4.53543, -0.396559l 4.53543, -0.796364l 4.53543, -1.51769l 4.53543, -2.74318l 4.53543, -4.69887l 4.53543, -7.62053l 4.53543, -11.6868l 4.53543,
 -16.9214l 4.53543, -23.0817l 4.53543, -29.5737l 4.53543, -35.4393l 4.53543, -39.4618l 4.53543, -40.399l 4.53543, -37.3053l 4.53543, -29.8532" fill="none" stroke="#ff0000" stroke-width="2"/>
<path d="M281.697,63.9355l 4.53543, -18.5384l 4.53543, -4.675l 4.53543, 9.84815l 4.53543, 22.9894l 4.53543, 33.0252l 4.53543, 38.9202l 4.53543, 40.4868l 4.53543, 38.3072l 4.53543, 33.4732l 4.53543, 27.2517l 4.53543, 20.7868l 4.53543, 14.9109l
 4.53543, 10.0852l 4.53543, 6.44407l 4.53543, 3.89553l 4.53543, 2.23041l 4.53543, 1.2106l 4.53543, 0.623329l 4.53543, 0.304639l 4.53543, 0.141388l 4.53543, 0.0623404l 4.53543, 0.0426004h 122.457" fill="none" stroke="#ff0000" stroke-width="2"/>
<path d="M503.933,345.762h 4.53543" fill="none" stroke="#ff0000" stroke-width="2"/>
<rect x="351.996" y="24.9717" width="204.094" height="107.57" fill="white"/>
<path d="M351.996,132.542h 204.094" fill="none" stroke="black"/>
<path d="M556.091,132.542v -107.57" fill="none" stroke="black"/>
<path d="M556.091,24.9717h -204.094" fill="none" stroke="black"/>
<path d="M351.996,24.9717v 107.57" fill="none" stroke="black"/>
<text xml:space="preserve" x="361.938" y="38.9865" fill="black" font-size="15.6322" font-family="Helvetica">Entries </text>
<text xml:space="preserve" x="515.447" y="38.9865" fill="black" font-size="15.6322" font-family="Helvetica"> 568</text>
<text xml:space="preserve" x="375.745" y="56.8554" fill="black" font-size="15.6322" font-family="Helvetica"> / ndf </text>
<text xml:space="preserve" x="370.06" y="51.982" fill="black" font-size="10.5881" font-family="Helvetica">2</text>
<text xml:space="preserve" x="361.938" y="56.8554" fill="black" font-size="15.6322" font-family="Times">&#0967;</text>
<text xml:space="preserve" x="481.334" y="56.8554" fill="black" font-size="15.6322" font-family="Helvetica"> 18.14 / 6</text>
<text xml:space="preserve" x="361.938" y="74.7242" fill="black" font-size="15.6322" font-family="Helvetica">Prob  </text>
<text xml:space="preserve" x="477.273" y="74.7242" fill="black" font-size="15.6322" font-family="Helvetica"> 0.005885</text>
<text xml:space="preserve" x="361.938" y="94.2175" fill="black" font-size="15.6322" font-family="Helvetica">Const    </text>
<text xml:space="preserve" x="511.386" y="93.4052" fill="black" font-size="15.6322" font-family="Helvetica"> 16.7</text>
<text xml:space="preserve" x="502.452" y="93.4052" fill="black" font-size="15.6322" font-family="Times">&#0177;</text>
<text xml:space="preserve" x="455.343" y="93.4052" fill="black" font-size="15.6322" font-family="Helvetica"> 321.3 </text>
<text xml:space="preserve" x="361.938" y="111.274" fill="black" font-size="15.6322" font-family="Helvetica">Mean     </text>
<text xml:space="preserve" x="522.757" y="111.274" fill="black" font-size="15.6322" font-family="Helvetica"> 0.1</text>
<text xml:space="preserve" x="513.823" y="111.274" fill="black" font-size="15.6322" font-family="Times">&#0177;</text>
<text xml:space="preserve" x="466.714" y="111.274" fill="black" font-size="15.6322" font-family="Helvetica"> 807.2 </text>
<text xml:space="preserve" x="361.938" y="128.331" fill="black" font-size="15.6322" font-family="Helvetica">Sigma    </text>
<text xml:space="preserve" x="505.7" y="129.143" fill="black" font-size="15.6322" font-family="Helvetica"> 0.081</text>
<text xml:space="preserve" x="496.766" y="129.143" fill="black" font-size="15.6322" font-family="Times">&#0177;</text>
<text xml:space="preserve" x="449.657" y="129.143" fill="black" font-size="15.6322" font-family="Helvetica"> 2.733 </text>
<path d="M57.1929,345.762h 453.543" fill="none" stroke="black"/>
<path d="M84.5516,336.541v 9.22031" fill="none" stroke="black"/>
<path d="M99.6623,341.152v 4.61016" fill="none" stroke="black"/>
<path d="M114.773,341.152v 4.61016" fill="none" stroke="black"/>
<path d="M129.884,341.152v 4.61016" fill="none" stroke="black"/>
<path d="M144.995,341.152v 4.61016" fill="none" stroke="black"/>
<path d="M160.105,336.541v 9.22031" fill="none" stroke="black"/>
<path d="M175.216,341.152v 4.61016" fill="none" stroke="black"/>
<path d="M190.327,341.152v 4.61016" fill="none" stroke="black"/>
<path d="M205.437,341.152v 4.61016" fill="none" stroke="black"/>
<path d="M220.548,341.152v 4.61016" fill="none" stroke="black"/>
<path d="M235.659,336.541v 9.22031" fill="none" stroke="black"/>
<path d="M250.77,341.152v 4.61016" fill="none" stroke="black"/>
<path d="M265.88,341.152v 4.61016" fill="none" stroke="black"/>
<path d="M280.991,341.152v 4.61016" fill="none" stroke="black"/>
<path d="M296.102,341.152v 4.61016" fill="none" stroke="black"/>
<path d="M311.213,336.541v 9.22031" fill="none" stroke="black"/>
<path d="M326.323,341.152v 4.61016" fill="none" stroke="black"/>
<path d="M341.434,341.152v 4.61016" fill="none" stroke="black"/>
<path d="M356.545,341.152v 4.61016" fill="none" stroke="black"/>
<path d="M371.656,341.152v 4.61016" fill="none" stroke="black"/>
<path d="M386.766,336.541v 9.22031" fill="none" stroke="black"/>
<path d="M401.877,341.152v 4.61016" fill="none" stroke="black"/>
<path d="M416.988,341.152v 4.61016" fill="none" stroke="black"/>
<path d="M432.098,341.152v 4.61016" fill="none" stroke="black"/>
<path d="M447.209,341.152v 4.61016" fill="none" stroke="black"/>
<path d="M462.32,336.541v 9.22031" fill="none" stroke="black"/>
<path d="M84.5516,336.541v 9.22031" fill="none" stroke="black"/>
<path d="M69.4409,341.152v 4.61016" fill="none" stroke="black"/>
<path d="M462.32,336.541v 9.22031" fill="none" stroke="black"/>
<path d="M477.431,341.152v 4.61016" fill="none" stroke="black"/>
<path d="M492.541,341.152v 4.61016" fill="none" stroke="black"/>
<path d="M507.652,341.152v 4.61016" fill="none" stroke="black"/>
<text xml:space="preserve" x="73.5997" y="358.189" fill="black" font-size="12.836" font-family="Helvetica">780</text>
<text xml:space="preserve" x="149.136" y="358.189" fill="black" font-size="12.836" font-family="Helvetica">790</text>
<text xml:space="preserve" x="224.673" y="358.189" fill="black" font-size="12.836" font-family="Helvetica">800</text>
<text xml:space="preserve" x="300.209" y="358.189" fill="black" font-size="12.836" font-family="Helvetica">810</text>
<text xml:space="preserve" x="375.745" y="358.189" fill="black" font-size="12.836" font-family="Helvetica">820</text>
<text xml:space="preserve" x="451.282" y="358.189" fill="black" font-size="12.836" font-family="Helvetica">830</text>
<text xml:space="preserve" x="461.028" y="370.372" fill="black" font-size="12.836" font-family="Helvetica">Time [ps]</text>
<path d="M57.1929,345.762v -307.344" fill="none" stroke="black"/>
<path d="M70.7992,345.762h -13.6063" fill="none" stroke="black"/>
<path d="M63.9961,336.26h -6.80315" fill="none" stroke="black"/>
<path d="M63.9961,326.759h -6.80315" fill="none" stroke="black"/>
<path d="M63.9961,317.257h -6.80315" fill="none" stroke="black"/>
<path d="M63.9961,307.756h -6.80315" fill="none" stroke="black"/>
<path d="M70.7992,298.254h -13.6063" fill="none" stroke="black"/>
<path d="M63.9961,288.753h -6.80315" fill="none" stroke="black"/>
<path d="M63.9961,279.251h -6.80315" fill="none" stroke="black"/>
<path d="M63.9961,269.75h -6.80315" fill="none" stroke="black"/>
<path d="M63.9961,260.248h -6.80315" fill="none" stroke="black"/>
<path d="M70.7992,250.746h -13.6063" fill="none" stroke="black"/>
<path d="M63.9961,241.245h -6.80315" fill="none" stroke="black"/>
<path d="M63.9961,231.743h -6.80315" fill="none" stroke="black"/>
<path d="M63.9961,222.242h -6.80315" fill="none" stroke="black"/>
<path d="M63.9961,212.74h -6.80315" fill="none" stroke="black"/>
<path d="M70.7992,203.239h -13.6063" fill="none" stroke="black"/>
<path d="M63.9961,193.737h -6.80315" fill="none" stroke="black"/>
<path d="M63.9961,184.236h -6.80315" fill="none" stroke="black"/>
<path d="M63.9961,174.734h -6.80315" fill="none" stroke="black"/>
<path d="M63.9961,165.233h -6.80315" fill="none" stroke="black"/>
<path d="M70.7992,155.731h -13.6063" fill="none" stroke="black"/>
<path d="M63.9961,146.23h -6.80315" fill="none" stroke="black"/>
<path d="M63.9961,136.728h -6.80315" fill="none" stroke="black"/>
<path d="M63.9961,127.227h -6.80315" fill="none" stroke="black"/>
<path d="M63.9961,117.725h -6.80315" fill="none" stroke="black"/>
<path d="M70.7992,108.223h -13.6063" fill="none" stroke="black"/>
<path d="M63.9961,98.7219h -6.80315" fill="none" stroke="black"/>
<path d="M63.9961,89.2204h -6.80315" fill="none" stroke="black"/>
<path d="M63.9961,79.7189h -6.80315" fill="none" stroke="black"/>
<path d="M63.9961,70.2173h -6.80315" fill="none" stroke="black"/>
<path d="M70.7992,60.7158h -13.6063" fill="none" stroke="black"/>
<path d="M70.7992,60.7158h -13.6063" fill="none" stroke="black"/>
<path d="M63.9961,51.2143h -6.80315" fill="none" stroke="black"/>
<path d="M63.9961,41.7127h -6.80315" fill="none" stroke="black"/>
<text xml:space="preserve" x="47.6087" y="350.067" fill="black" font-size="12.836" font-family="Helvetica">0</text>
<text xml:space="preserve" x="41.111" y="302.958" fill="black" font-size="12.836" font-family="Helvetica">50</text>
<text xml:space="preserve" x="33.801" y="255.037" fill="black" font-size="12.836" font-family="Helvetica">100</text>
<text xml:space="preserve" x="33.801" y="207.928" fill="black" font-size="12.836" font-family="Helvetica">150</text>
<text xml:space="preserve" x="33.801" y="160.007" fill="black" font-size="12.836" font-family="Helvetica">200</text>
<text xml:space="preserve" x="33.801" y="112.898" fill="black" font-size="12.836" font-family="Helvetica">250</text>
<text xml:space="preserve" x="33.801" y="64.9776" fill="black" font-size="12.836" font-family="Helvetica">300</text>
<g transform="rotate(-90,20.8055,69.8509)">
<text xml:space="preserve" x="20.8055" y="69.8509" fill="black" font-size="12.836" font-family="Helvetica">Event</text>
</g>
<rect x="351.996" y="24.9717" width="204.094" height="107.57" fill="white"/>
<path d="M351.996,132.542h 204.094" fill="none" stroke="black"/>
<path d="M556.091,132.542v -107.57" fill="none" stroke="black"/>
<path d="M556.091,24.9717h -204.094" fill="none" stroke="black"/>
<path d="M351.996,24.9717v 107.57" fill="none" stroke="black"/>
<text xml:space="preserve" x="361.938" y="38.9865" fill="black" font-size="15.6322" font-family="Helvetica">Entries </text>
<text xml:space="preserve" x="515.447" y="38.9865" fill="black" font-size="15.6322" font-family="Helvetica"> 568</text>
<text xml:space="preserve" x="375.745" y="56.8554" fill="black" font-size="15.6322" font-family="Helvetica"> / ndf </text>
<text xml:space="preserve" x="370.06" y="51.982" fill="black" font-size="10.5881" font-family="Helvetica">2</text>
<text xml:space="preserve" x="361.938" y="56.8554" fill="black" font-size="15.6322" font-family="Times">&#0967;</text>
<text xml:space="preserve" x="481.334" y="56.8554" fill="black" font-size="15.6322" font-family="Helvetica"> 18.14 / 6</text>
<text xml:space="preserve" x="361.938" y="74.7242" fill="black" font-size="15.6322" font-family="Helvetica">Prob  </text>
<text xml:space="preserve" x="477.273" y="74.7242" fill="black" font-size="15.6322" font-family="Helvetica"> 0.005885</text>
<text xml:space="preserve" x="361.938" y="94.2175" fill="black" font-size="15.6322" font-family="Helvetica">Const    </text>
<text xml:space="preserve" x="511.386" y="93.4052" fill="black" font-size="15.6322" font-family="Helvetica"> 16.7</text>
<text xml:space="preserve" x="502.452" y="93.4052" fill="black" font-size="15.6322" font-family="Times">&#0177;</text>
<text xml:space="preserve" x="455.343" y="93.4052" fill="black" font-size="15.6322" font-family="Helvetica"> 321.3 </text>
<text xml:space="preserve" x="361.938" y="111.274" fill="black" font-size="15.6322" font-family="Helvetica">Mean     </text>
<text xml:space="preserve" x="522.757" y="111.274" fill="black" font-size="15.6322" font-family="Helvetica"> 0.1</text>
<text xml:space="preserve" x="513.823" y="111.274" fill="black" font-size="15.6322" font-family="Times">&#0177;</text>
<text xml:space="preserve" x="466.714" y="111.274" fill="black" font-size="15.6322" font-family="Helvetica"> 807.2 </text>
<text xml:space="preserve" x="361.938" y="128.331" fill="black" font-size="15.6322" font-family="Helvetica">Sigma    </text>
<text xml:space="preserve" x="505.7" y="129.143" fill="black" font-size="15.6322" font-family="Helvetica"> 0.081</text>
<text xml:space="preserve" x="496.766" y="129.143" fill="black" font-size="15.6322" font-family="Times">&#0177;</text>
<text xml:space="preserve" x="449.657" y="129.143" fill="black" font-size="15.6322" font-family="Helvetica"> 2.733 </text>
<text xml:space="preserve" x="208.428" y="18.681" fill="black" font-size="16.9774" font-family="Helvetica">670mm 36 37 38 39</text></svg>
