<?xml version="1.0" standalone="no"?>
<svg width="567.429" height="386.304" viewBox="0 0 567.429 386.304" xmlns="http://www.w3.org/2000/svg" shape-rendering="crispEdges">
<title>
img/week2/Combined420mm_ch_8.svg
</title>
<desc>
Creator: ROOT Version 6.22/08
CreationDate: Tue Jun 22 00:47:42 2021</desc>
<defs>
</defs>
<rect x="0.5" y="0" width="566.929" height="385.804" fill="white"/>
<rect x="57.1929" y="38.5804" width="453.543" height="308.643" fill="white"/>
<rect x="57.1929" y="38.5804" width="453.543" height="308.643" fill="none" stroke="black"/>
<rect x="57.1929" y="38.5804" width="453.543" height="308.643" fill="white"/>
<rect x="57.1929" y="38.5804" width="453.543" height="308.643" fill="none" stroke="black"/>
<path d="M57.1929,347.224h 90.7087v -5.06804h 60.4724v -5.06804h 30.2362v -45.6123h 30.2362v -238.198h 30.2362v 106.429h 30.2362v 172.313h 30.2362v 15.2041h 151.181" fill="none" stroke="#000099"/>
<g fill="#ff0000">
<polygon points=" 279.741, 49.0542 288.188, 49.0542 283.965, 57.5013"/>
</g>
<path d="M59.4606,347.224h 140.598l 4.53543, -0.0570711l 4.53543, -0.078644l 4.53543, -0.172549l 4.53543, -0.360541l 4.53543, -0.717181l 4.53543, -1.35749l 4.53543, -2.44363l 4.53543, -4.18056l 4.53543, -6.79155l 4.53543, -10.4659l 4.53543, -15.2779l
 4.53543, -21.0884l 4.53543, -27.4568l 4.53543, -33.603l 4.53543, -38.4604l 4.53543, -40.8412l 4.53543, -39.6987l 4.53543, -34.4267" fill="none" stroke="#ff0000" stroke-width="2"/>
<path d="M281.697,69.7456l 4.53543, -25.1029l 2.18503, -6.06225" fill="none" stroke="#ff0000" stroke-width="2"/>
<path d="M296.733,38.5804l 3.10575, 10.6716" fill="none" stroke="#ff0000" stroke-width="2"/>
<path d="M299.839,49.2521l 4.53543, 27.5027l 4.53543, 35.9692l 4.53543, 40.2995l 4.53543, 40.5832l 4.53543, 37.5493l 4.53543, 32.3021l 4.53543, 26.0222l 4.53543, 19.7226l 4.53543, 14.1085l 4.53543, 9.54737l 4.53543, 6.12229l 4.53543, 3.72504l
 4.53543, 2.15264l 4.53543, 1.18245l 4.53543, 0.617793l 4.53543, 0.307174l 4.53543, 0.145411l 4.53543, 0.0655601l 4.53543, 0.0467464h 122.457" fill="none" stroke="#ff0000" stroke-width="2"/>
<path d="M57.1929,347.224h 453.543" fill="none" stroke="black"/>
<path d="M84.5516,337.964v 9.2593" fill="none" stroke="black"/>
<path d="M99.6623,342.594v 4.62965" fill="none" stroke="black"/>
<path d="M114.773,342.594v 4.62965" fill="none" stroke="black"/>
<path d="M129.884,342.594v 4.62965" fill="none" stroke="black"/>
<path d="M144.995,342.594v 4.62965" fill="none" stroke="black"/>
<path d="M160.105,337.964v 9.2593" fill="none" stroke="black"/>
<path d="M175.216,342.594v 4.62965" fill="none" stroke="black"/>
<path d="M190.327,342.594v 4.62965" fill="none" stroke="black"/>
<path d="M205.437,342.594v 4.62965" fill="none" stroke="black"/>
<path d="M220.548,342.594v 4.62965" fill="none" stroke="black"/>
<path d="M235.659,337.964v 9.2593" fill="none" stroke="black"/>
<path d="M250.77,342.594v 4.62965" fill="none" stroke="black"/>
<path d="M265.88,342.594v 4.62965" fill="none" stroke="black"/>
<path d="M280.991,342.594v 4.62965" fill="none" stroke="black"/>
<path d="M296.102,342.594v 4.62965" fill="none" stroke="black"/>
<path d="M311.213,337.964v 9.2593" fill="none" stroke="black"/>
<path d="M326.323,342.594v 4.62965" fill="none" stroke="black"/>
<path d="M341.434,342.594v 4.62965" fill="none" stroke="black"/>
<path d="M356.545,342.594v 4.62965" fill="none" stroke="black"/>
<path d="M371.656,342.594v 4.62965" fill="none" stroke="black"/>
<path d="M386.766,337.964v 9.2593" fill="none" stroke="black"/>
<path d="M401.877,342.594v 4.62965" fill="none" stroke="black"/>
<path d="M416.988,342.594v 4.62965" fill="none" stroke="black"/>
<path d="M432.098,342.594v 4.62965" fill="none" stroke="black"/>
<path d="M447.209,342.594v 4.62965" fill="none" stroke="black"/>
<path d="M462.32,337.964v 9.2593" fill="none" stroke="black"/>
<path d="M84.5516,337.964v 9.2593" fill="none" stroke="black"/>
<path d="M69.4409,342.594v 4.62965" fill="none" stroke="black"/>
<path d="M462.32,337.964v 9.2593" fill="none" stroke="black"/>
<path d="M477.431,342.594v 4.62965" fill="none" stroke="black"/>
<path d="M492.541,342.594v 4.62965" fill="none" stroke="black"/>
<path d="M507.652,342.594v 4.62965" fill="none" stroke="black"/>
<text xml:space="preserve" x="72.7875" y="359.813" fill="black" font-size="12.8882" font-family="Helvetica">780</text>
<text xml:space="preserve" x="148.324" y="359.813" fill="black" font-size="12.8882" font-family="Helvetica">790</text>
<text xml:space="preserve" x="223.86" y="359.813" fill="black" font-size="12.8882" font-family="Helvetica">800</text>
<text xml:space="preserve" x="299.397" y="359.813" fill="black" font-size="12.8882" font-family="Helvetica">810</text>
<text xml:space="preserve" x="374.933" y="359.813" fill="black" font-size="12.8882" font-family="Helvetica">820</text>
<text xml:space="preserve" x="450.47" y="359.813" fill="black" font-size="12.8882" font-family="Helvetica">830</text>
<text xml:space="preserve" x="481.334" y="373.621" fill="black" font-size="12.8882" font-family="Helvetica">Time</text>
<path d="M57.1929,347.224v -308.643" fill="none" stroke="black"/>
<path d="M70.7992,347.224h -13.6063" fill="none" stroke="black"/>
<path d="M63.9961,337.088h -6.80315" fill="none" stroke="black"/>
<path d="M63.9961,326.952h -6.80315" fill="none" stroke="black"/>
<path d="M63.9961,316.816h -6.80315" fill="none" stroke="black"/>
<path d="M63.9961,306.68h -6.80315" fill="none" stroke="black"/>
<path d="M70.7992,296.543h -13.6063" fill="none" stroke="black"/>
<path d="M63.9961,286.407h -6.80315" fill="none" stroke="black"/>
<path d="M63.9961,276.271h -6.80315" fill="none" stroke="black"/>
<path d="M63.9961,266.135h -6.80315" fill="none" stroke="black"/>
<path d="M63.9961,255.999h -6.80315" fill="none" stroke="black"/>
<path d="M70.7992,245.863h -13.6063" fill="none" stroke="black"/>
<path d="M63.9961,235.727h -6.80315" fill="none" stroke="black"/>
<path d="M63.9961,225.591h -6.80315" fill="none" stroke="black"/>
<path d="M63.9961,215.455h -6.80315" fill="none" stroke="black"/>
<path d="M63.9961,205.319h -6.80315" fill="none" stroke="black"/>
<path d="M70.7992,195.183h -13.6063" fill="none" stroke="black"/>
<path d="M63.9961,185.047h -6.80315" fill="none" stroke="black"/>
<path d="M63.9961,174.911h -6.80315" fill="none" stroke="black"/>
<path d="M63.9961,164.775h -6.80315" fill="none" stroke="black"/>
<path d="M63.9961,154.638h -6.80315" fill="none" stroke="black"/>
<path d="M70.7992,144.502h -13.6063" fill="none" stroke="black"/>
<path d="M63.9961,134.366h -6.80315" fill="none" stroke="black"/>
<path d="M63.9961,124.23h -6.80315" fill="none" stroke="black"/>
<path d="M63.9961,114.094h -6.80315" fill="none" stroke="black"/>
<path d="M63.9961,103.958h -6.80315" fill="none" stroke="black"/>
<path d="M70.7992,93.822h -13.6063" fill="none" stroke="black"/>
<path d="M63.9961,83.6859h -6.80315" fill="none" stroke="black"/>
<path d="M63.9961,73.5499h -6.80315" fill="none" stroke="black"/>
<path d="M63.9961,63.4138h -6.80315" fill="none" stroke="black"/>
<path d="M63.9961,53.2777h -6.80315" fill="none" stroke="black"/>
<path d="M70.7992,43.1417h -13.6063" fill="none" stroke="black"/>
<path d="M70.7992,43.1417h -13.6063" fill="none" stroke="black"/>
<text xml:space="preserve" x="46.7965" y="351.691" fill="black" font-size="12.8882" font-family="Helvetica">0</text>
<text xml:space="preserve" x="39.4865" y="301.333" fill="black" font-size="12.8882" font-family="Helvetica">10</text>
<text xml:space="preserve" x="39.4865" y="250.164" fill="black" font-size="12.8882" font-family="Helvetica">20</text>
<text xml:space="preserve" x="39.4865" y="199.806" fill="black" font-size="12.8882" font-family="Helvetica">30</text>
<text xml:space="preserve" x="39.4865" y="148.636" fill="black" font-size="12.8882" font-family="Helvetica">40</text>
<text xml:space="preserve" x="39.4865" y="98.2785" fill="black" font-size="12.8882" font-family="Helvetica">50</text>
<text xml:space="preserve" x="39.4865" y="47.9209" fill="black" font-size="12.8882" font-family="Helvetica">60</text>
<g transform="rotate(-90,28.9277,71.4753)">
<text xml:space="preserve" x="28.9277" y="71.4753" fill="black" font-size="12.8882" font-family="Helvetica">Event</text>
</g>
<text xml:space="preserve" x="248.227" y="18.681" fill="black" font-size="17.0471" font-family="Helvetica">420mm 8</text></svg>
