<?xml version="1.0" standalone="no"?>
<svg width="567.429" height="386.304" viewBox="0 0 567.429 386.304" xmlns="http://www.w3.org/2000/svg" shape-rendering="crispEdges">
<title>
img/week2/Combined420mm_ch_32_33_34_35.svg
</title>
<desc>
Creator: ROOT Version 6.22/08
CreationDate: Thu Jun 24 11:56:30 2021</desc>
<defs>
</defs>
<rect x="0.5" y="0" width="566.929" height="385.804" fill="white"/>
<rect x="57.1929" y="38.5804" width="453.543" height="308.643" fill="white"/>
<rect x="57.1929" y="38.5804" width="453.543" height="308.643" fill="none" stroke="black"/>
<rect x="57.1929" y="38.5804" width="453.543" height="308.643" fill="white"/>
<rect x="57.1929" y="38.5804" width="453.543" height="308.643" fill="none" stroke="black"/>
<path d="M57.1929,346.496h 32.396v 0.727941h 64.7919v -2.18382h 32.396v -12.375h 32.396v -39.3088h 32.396v -214.015h 32.396v 3.63971h 32.396v 250.412h 32.396v 13.1029h 32.396v 0.727941h 97.1879v -0.727941h 32.396" fill="none" stroke="#000099"/>
<g fill="#ff0000">
<polygon points=" 263.543, 75.1179 271.99, 75.1179 267.767, 83.565"/>
</g>
<path d="M59.4606,347.224h 122.457l 4.53543, -0.0429965l 4.53543, -0.0574567l 4.53543, -0.124569l 4.53543, -0.258279l 4.53543, -0.511969l 4.53543, -0.969876l 4.53543, -1.75517l 4.53543, -3.03266l 4.53543, -4.99983l 4.53543, -7.85905l 4.53543,
 -11.7663l 4.53543, -16.7574l 4.53543, -22.6648l 4.53543, -29.0469l 4.53543, -35.1632l 4.53543, -40.0265l 4.53543, -42.545l 4.53543, -41.7445l 4.53543, -37.0213l 1.96667, -12.2958" fill="none" stroke="#ff0000" stroke-width="2"/>
<path d="M290.516,38.5804l 0.251336, 1.36089" fill="none" stroke="#ff0000" stroke-width="2"/>
<path d="M290.768,39.9413l 4.53543, 34.4616l 4.53543, 40.5749l 4.53543, 42.6847l 4.53543, 41.2132l 4.53543, 37.0353l 4.53543, 31.23l 4.53543, 24.8415l 4.53543, 18.7054l 4.53543, 13.3669l 4.53543, 9.08178l 4.53543, 5.87473l 4.53543, 3.62203l 4.53543,
 2.13026l 4.53543, 1.19599l 4.53543, 0.641323l 4.53543, 0.328612l 4.53543, 0.160959l 4.53543, 0.07539l 4.53543, 0.0578725h 131.528" fill="none" stroke="#ff0000" stroke-width="2"/>
<rect x="351.996" y="25.0773" width="204.094" height="108.025" fill="white"/>
<path d="M351.996,133.102h 204.094" fill="none" stroke="black"/>
<path d="M556.091,133.102v -108.025" fill="none" stroke="black"/>
<path d="M556.091,25.0773h -204.094" fill="none" stroke="black"/>
<path d="M351.996,25.0773v 108.025" fill="none" stroke="black"/>
<text xml:space="preserve" x="361.938" y="38.9865" fill="black" font-size="15.6962" font-family="Helvetica">Entries </text>
<text xml:space="preserve" x="515.447" y="38.9865" fill="black" font-size="15.6962" font-family="Helvetica"> 859</text>
<text xml:space="preserve" x="375.745" y="57.6676" fill="black" font-size="15.6962" font-family="Helvetica"> / ndf </text>
<text xml:space="preserve" x="370.06" y="52.7943" fill="black" font-size="10.6308" font-family="Helvetica">2</text>
<text xml:space="preserve" x="361.938" y="57.6676" fill="black" font-size="15.6962" font-family="Times">&#0967;</text>
<text xml:space="preserve" x="481.334" y="57.6676" fill="black" font-size="15.6962" font-family="Helvetica"> 42.68 / 8</text>
<text xml:space="preserve" x="361.938" y="75.5364" fill="black" font-size="15.6962" font-family="Helvetica">Prob  </text>
<text xml:space="preserve" x="528.443" y="75.5364" fill="black" font-size="15.6962" font-family="Helvetica">06</text>
<text xml:space="preserve" x="519.508" y="75.5364" fill="black" font-size="15.6962" font-family="Times">&#8722;</text>
<text xml:space="preserve" x="468.338" y="75.5364" fill="black" font-size="15.6962" font-family="Helvetica"> 1.009e</text>
<text xml:space="preserve" x="361.938" y="94.2175" fill="black" font-size="15.6962" font-family="Helvetica">Const    </text>
<text xml:space="preserve" x="511.386" y="93.4052" fill="black" font-size="15.6962" font-family="Helvetica"> 21.2</text>
<text xml:space="preserve" x="502.452" y="93.4052" fill="black" font-size="15.6962" font-family="Times">&#0177;</text>
<text xml:space="preserve" x="457.78" y="93.4052" fill="black" font-size="15.6962" font-family="Helvetica"> 473.1 </text>
<text xml:space="preserve" x="361.938" y="111.274" fill="black" font-size="15.6962" font-family="Helvetica">Mean     </text>
<text xml:space="preserve" x="522.757" y="111.274" fill="black" font-size="15.6962" font-family="Helvetica"> 0.1</text>
<text xml:space="preserve" x="513.823" y="111.274" fill="black" font-size="15.6962" font-family="Times">&#0177;</text>
<text xml:space="preserve" x="465.902" y="111.274" fill="black" font-size="15.6962" font-family="Helvetica"> 807.9 </text>
<text xml:space="preserve" x="361.938" y="128.331" fill="black" font-size="15.6962" font-family="Helvetica">Sigma    </text>
<text xml:space="preserve" x="502.452" y="129.143" fill="black" font-size="15.6962" font-family="Helvetica"> 0.076</text>
<text xml:space="preserve" x="493.517" y="129.143" fill="black" font-size="15.6962" font-family="Times">&#0177;</text>
<text xml:space="preserve" x="445.596" y="129.143" fill="black" font-size="15.6962" font-family="Helvetica"> 2.732 </text>
<path d="M57.1929,347.224h 453.543" fill="none" stroke="black"/>
<path d="M135.06,337.964v 9.2593" fill="none" stroke="black"/>
<path d="M151.25,342.594v 4.62965" fill="none" stroke="black"/>
<path d="M167.44,342.594v 4.62965" fill="none" stroke="black"/>
<path d="M183.63,342.594v 4.62965" fill="none" stroke="black"/>
<path d="M199.82,342.594v 4.62965" fill="none" stroke="black"/>
<path d="M216.011,337.964v 9.2593" fill="none" stroke="black"/>
<path d="M232.201,342.594v 4.62965" fill="none" stroke="black"/>
<path d="M248.391,342.594v 4.62965" fill="none" stroke="black"/>
<path d="M264.581,342.594v 4.62965" fill="none" stroke="black"/>
<path d="M280.771,342.594v 4.62965" fill="none" stroke="black"/>
<path d="M296.961,337.964v 9.2593" fill="none" stroke="black"/>
<path d="M313.151,342.594v 4.62965" fill="none" stroke="black"/>
<path d="M329.341,342.594v 4.62965" fill="none" stroke="black"/>
<path d="M345.531,342.594v 4.62965" fill="none" stroke="black"/>
<path d="M361.721,342.594v 4.62965" fill="none" stroke="black"/>
<path d="M377.911,337.964v 9.2593" fill="none" stroke="black"/>
<path d="M394.101,342.594v 4.62965" fill="none" stroke="black"/>
<path d="M410.291,342.594v 4.62965" fill="none" stroke="black"/>
<path d="M426.481,342.594v 4.62965" fill="none" stroke="black"/>
<path d="M442.672,342.594v 4.62965" fill="none" stroke="black"/>
<path d="M458.862,337.964v 9.2593" fill="none" stroke="black"/>
<path d="M135.06,337.964v 9.2593" fill="none" stroke="black"/>
<path d="M118.87,342.594v 4.62965" fill="none" stroke="black"/>
<path d="M102.68,342.594v 4.62965" fill="none" stroke="black"/>
<path d="M86.49,342.594v 4.62965" fill="none" stroke="black"/>
<path d="M70.2999,342.594v 4.62965" fill="none" stroke="black"/>
<path d="M458.862,337.964v 9.2593" fill="none" stroke="black"/>
<path d="M475.052,342.594v 4.62965" fill="none" stroke="black"/>
<path d="M491.242,342.594v 4.62965" fill="none" stroke="black"/>
<path d="M507.432,342.594v 4.62965" fill="none" stroke="black"/>
<text xml:space="preserve" x="123.145" y="359.813" fill="black" font-size="12.8882" font-family="Helvetica">790</text>
<text xml:space="preserve" x="204.367" y="359.813" fill="black" font-size="12.8882" font-family="Helvetica">800</text>
<text xml:space="preserve" x="285.589" y="359.813" fill="black" font-size="12.8882" font-family="Helvetica">810</text>
<text xml:space="preserve" x="365.999" y="359.813" fill="black" font-size="12.8882" font-family="Helvetica">820</text>
<text xml:space="preserve" x="447.221" y="359.813" fill="black" font-size="12.8882" font-family="Helvetica">830</text>
<text xml:space="preserve" x="457.78" y="372.809" fill="black" font-size="12.8882" font-family="Helvetica">Time [ns]</text>
<path d="M57.1929,347.224v -308.643" fill="none" stroke="black"/>
<path d="M70.7992,347.224h -13.6063" fill="none" stroke="black"/>
<path d="M63.9961,339.944h -6.80315" fill="none" stroke="black"/>
<path d="M63.9961,332.665h -6.80315" fill="none" stroke="black"/>
<path d="M63.9961,325.386h -6.80315" fill="none" stroke="black"/>
<path d="M63.9961,318.106h -6.80315" fill="none" stroke="black"/>
<path d="M70.7992,310.827h -13.6063" fill="none" stroke="black"/>
<path d="M63.9961,303.547h -6.80315" fill="none" stroke="black"/>
<path d="M63.9961,296.268h -6.80315" fill="none" stroke="black"/>
<path d="M63.9961,288.988h -6.80315" fill="none" stroke="black"/>
<path d="M63.9961,281.709h -6.80315" fill="none" stroke="black"/>
<path d="M70.7992,274.43h -13.6063" fill="none" stroke="black"/>
<path d="M63.9961,267.15h -6.80315" fill="none" stroke="black"/>
<path d="M63.9961,259.871h -6.80315" fill="none" stroke="black"/>
<path d="M63.9961,252.591h -6.80315" fill="none" stroke="black"/>
<path d="M63.9961,245.312h -6.80315" fill="none" stroke="black"/>
<path d="M70.7992,238.033h -13.6063" fill="none" stroke="black"/>
<path d="M63.9961,230.753h -6.80315" fill="none" stroke="black"/>
<path d="M63.9961,223.474h -6.80315" fill="none" stroke="black"/>
<path d="M63.9961,216.194h -6.80315" fill="none" stroke="black"/>
<path d="M63.9961,208.915h -6.80315" fill="none" stroke="black"/>
<path d="M70.7992,201.636h -13.6063" fill="none" stroke="black"/>
<path d="M63.9961,194.356h -6.80315" fill="none" stroke="black"/>
<path d="M63.9961,187.077h -6.80315" fill="none" stroke="black"/>
<path d="M63.9961,179.797h -6.80315" fill="none" stroke="black"/>
<path d="M63.9961,172.518h -6.80315" fill="none" stroke="black"/>
<path d="M70.7992,165.239h -13.6063" fill="none" stroke="black"/>
<path d="M63.9961,157.959h -6.80315" fill="none" stroke="black"/>
<path d="M63.9961,150.68h -6.80315" fill="none" stroke="black"/>
<path d="M63.9961,143.4h -6.80315" fill="none" stroke="black"/>
<path d="M63.9961,136.121h -6.80315" fill="none" stroke="black"/>
<path d="M70.7992,128.841h -13.6063" fill="none" stroke="black"/>
<path d="M63.9961,121.562h -6.80315" fill="none" stroke="black"/>
<path d="M63.9961,114.283h -6.80315" fill="none" stroke="black"/>
<path d="M63.9961,107.003h -6.80315" fill="none" stroke="black"/>
<path d="M63.9961,99.7238h -6.80315" fill="none" stroke="black"/>
<path d="M70.7992,92.4444h -13.6063" fill="none" stroke="black"/>
<path d="M63.9961,85.165h -6.80315" fill="none" stroke="black"/>
<path d="M63.9961,77.8856h -6.80315" fill="none" stroke="black"/>
<path d="M63.9961,70.6062h -6.80315" fill="none" stroke="black"/>
<path d="M63.9961,63.3267h -6.80315" fill="none" stroke="black"/>
<path d="M70.7992,56.0473h -13.6063" fill="none" stroke="black"/>
<path d="M70.7992,56.0473h -13.6063" fill="none" stroke="black"/>
<path d="M63.9961,48.7679h -6.80315" fill="none" stroke="black"/>
<path d="M63.9961,41.4885h -6.80315" fill="none" stroke="black"/>
<text xml:space="preserve" x="46.7965" y="351.691" fill="black" font-size="12.8882" font-family="Helvetica">0</text>
<text xml:space="preserve" x="39.4865" y="315.141" fill="black" font-size="12.8882" font-family="Helvetica">50</text>
<text xml:space="preserve" x="32.1766" y="278.591" fill="black" font-size="12.8882" font-family="Helvetica">100</text>
<text xml:space="preserve" x="32.1766" y="242.854" fill="black" font-size="12.8882" font-family="Helvetica">150</text>
<text xml:space="preserve" x="32.1766" y="206.304" fill="black" font-size="12.8882" font-family="Helvetica">200</text>
<text xml:space="preserve" x="32.1766" y="169.754" fill="black" font-size="12.8882" font-family="Helvetica">250</text>
<text xml:space="preserve" x="32.1766" y="133.204" fill="black" font-size="12.8882" font-family="Helvetica">300</text>
<text xml:space="preserve" x="32.1766" y="96.6541" fill="black" font-size="12.8882" font-family="Helvetica">350</text>
<text xml:space="preserve" x="32.1766" y="60.9165" fill="black" font-size="12.8882" font-family="Helvetica">400</text>
<g transform="rotate(-90,21.6177,71.4753)">
<text xml:space="preserve" x="21.6177" y="71.4753" fill="black" font-size="12.8882" font-family="Helvetica">Event</text>
</g>
<rect x="351.996" y="25.0773" width="204.094" height="108.025" fill="white"/>
<path d="M351.996,133.102h 204.094" fill="none" stroke="black"/>
<path d="M556.091,133.102v -108.025" fill="none" stroke="black"/>
<path d="M556.091,25.0773h -204.094" fill="none" stroke="black"/>
<path d="M351.996,25.0773v 108.025" fill="none" stroke="black"/>
<text xml:space="preserve" x="361.938" y="38.9865" fill="black" font-size="15.6962" font-family="Helvetica">Entries </text>
<text xml:space="preserve" x="515.447" y="38.9865" fill="black" font-size="15.6962" font-family="Helvetica"> 859</text>
<text xml:space="preserve" x="375.745" y="57.6676" fill="black" font-size="15.6962" font-family="Helvetica"> / ndf </text>
<text xml:space="preserve" x="370.06" y="52.7943" fill="black" font-size="10.6308" font-family="Helvetica">2</text>
<text xml:space="preserve" x="361.938" y="57.6676" fill="black" font-size="15.6962" font-family="Times">&#0967;</text>
<text xml:space="preserve" x="481.334" y="57.6676" fill="black" font-size="15.6962" font-family="Helvetica"> 42.68 / 8</text>
<text xml:space="preserve" x="361.938" y="75.5364" fill="black" font-size="15.6962" font-family="Helvetica">Prob  </text>
<text xml:space="preserve" x="528.443" y="75.5364" fill="black" font-size="15.6962" font-family="Helvetica">06</text>
<text xml:space="preserve" x="519.508" y="75.5364" fill="black" font-size="15.6962" font-family="Times">&#8722;</text>
<text xml:space="preserve" x="468.338" y="75.5364" fill="black" font-size="15.6962" font-family="Helvetica"> 1.009e</text>
<text xml:space="preserve" x="361.938" y="94.2175" fill="black" font-size="15.6962" font-family="Helvetica">Const    </text>
<text xml:space="preserve" x="511.386" y="93.4052" fill="black" font-size="15.6962" font-family="Helvetica"> 21.2</text>
<text xml:space="preserve" x="502.452" y="93.4052" fill="black" font-size="15.6962" font-family="Times">&#0177;</text>
<text xml:space="preserve" x="457.78" y="93.4052" fill="black" font-size="15.6962" font-family="Helvetica"> 473.1 </text>
<text xml:space="preserve" x="361.938" y="111.274" fill="black" font-size="15.6962" font-family="Helvetica">Mean     </text>
<text xml:space="preserve" x="522.757" y="111.274" fill="black" font-size="15.6962" font-family="Helvetica"> 0.1</text>
<text xml:space="preserve" x="513.823" y="111.274" fill="black" font-size="15.6962" font-family="Times">&#0177;</text>
<text xml:space="preserve" x="465.902" y="111.274" fill="black" font-size="15.6962" font-family="Helvetica"> 807.9 </text>
<text xml:space="preserve" x="361.938" y="128.331" fill="black" font-size="15.6962" font-family="Helvetica">Sigma    </text>
<text xml:space="preserve" x="502.452" y="129.143" fill="black" font-size="15.6962" font-family="Helvetica"> 0.076</text>
<text xml:space="preserve" x="493.517" y="129.143" fill="black" font-size="15.6962" font-family="Times">&#0177;</text>
<text xml:space="preserve" x="445.596" y="129.143" fill="black" font-size="15.6962" font-family="Helvetica"> 2.732 </text>
<text xml:space="preserve" x="208.428" y="18.681" fill="black" font-size="17.0471" font-family="Helvetica">420mm 32 33 34 35</text></svg>
