<?xml version="1.0" standalone="no"?>
<svg width="567.429" height="384.969" viewBox="0 0 567.429 384.969" xmlns="http://www.w3.org/2000/svg" shape-rendering="crispEdges">
<title>
img/week2/Combined670mm_ch_8_9_10_11.svg
</title>
<desc>
Creator: ROOT Version 6.22/09
CreationDate: Thu Jun 24 12:07:27 2021</desc>
<defs>
</defs>
<rect x="0.5" y="0" width="566.929" height="384.469" fill="white"/>
<rect x="57.1929" y="38.4469" width="453.543" height="307.575" fill="white"/>
<rect x="57.1929" y="38.4469" width="453.543" height="307.575" fill="none" stroke="black"/>
<rect x="57.1929" y="38.4469" width="453.543" height="307.575" fill="white"/>
<rect x="57.1929" y="38.4469" width="453.543" height="307.575" fill="none" stroke="black"/>
<path d="M57.1929,346.022h 25.1968v -2.44107h 25.1968v 2.44107h 25.1968v -2.44107h 50.3937v -2.44107h 25.1968v -12.2054h 25.1968v -48.8215h 25.1968v -165.993h 25.1968v -61.0269h 25.1968v 241.666h 25.1968v 51.2626h 176.378" fill="none"
 stroke="#000099"/>
<g fill="#ff0000">
<polygon points=" 292.327, 48.8577 300.799, 48.8577 296.563, 57.329"/>
</g>
<path d="M59.4606,346.022h 131.528l 4.53543, -0.0509543l 4.53543, -0.0707126l 4.53543, -0.155819l 4.53543, -0.327l 4.53543, -0.653304l 4.53543, -1.24202l 4.53543, -2.24569l 4.53543, -3.85917l 4.53543, -6.29798l 4.53543, -9.75034l 4.53543, -14.301l
 4.53543, -19.8371l 4.53543, -25.9605l 4.53543, -31.9458l 4.53543, -36.7824l 4.53543, -39.3251l 4.53543, -38.5409l 4.53543, -33.7984l 4.53543, -25.1106l 4.53543, -13.2415" fill="none" stroke="#ff0000" stroke-width="2"/>
<path d="M281.697,42.5259l 4.53543, 0.383541l 4.53543, 13.957l 4.53543, 25.6827l 4.53543, 34.166l 4.53543, 38.684l 4.53543, 39.2634l 4.53543, 36.565l 4.53543, 31.6355l 4.53543, 25.6185l 4.53543, 19.5115l 4.53543, 14.0223l 4.53543, 9.53148l 4.53543,
 6.13856l 4.53543, 3.75069l 4.53543, 2.17642l 4.53543, 1.20036l 4.53543, 0.629657l 4.53543, 0.314307l 4.53543, 0.149367l 4.53543, 0.0676031l 4.53543, 0.0485023h 126.992" fill="none" stroke="#ff0000" stroke-width="2"/>
<path d="M503.933,346.022h 4.53543" fill="none" stroke="#ff0000" stroke-width="2"/>
<path d="M57.1929,346.022h 453.543" fill="none" stroke="black"/>
<path d="M105.189,336.795v 9.22726" fill="none" stroke="black"/>
<path d="M117.781,341.409v 4.61363" fill="none" stroke="black"/>
<path d="M130.373,341.409v 4.61363" fill="none" stroke="black"/>
<path d="M142.965,341.409v 4.61363" fill="none" stroke="black"/>
<path d="M155.558,341.409v 4.61363" fill="none" stroke="black"/>
<path d="M168.15,336.795v 9.22726" fill="none" stroke="black"/>
<path d="M180.742,341.409v 4.61363" fill="none" stroke="black"/>
<path d="M193.335,341.409v 4.61363" fill="none" stroke="black"/>
<path d="M205.927,341.409v 4.61363" fill="none" stroke="black"/>
<path d="M218.519,341.409v 4.61363" fill="none" stroke="black"/>
<path d="M231.111,336.795v 9.22726" fill="none" stroke="black"/>
<path d="M243.704,341.409v 4.61363" fill="none" stroke="black"/>
<path d="M256.296,341.409v 4.61363" fill="none" stroke="black"/>
<path d="M268.888,341.409v 4.61363" fill="none" stroke="black"/>
<path d="M281.481,341.409v 4.61363" fill="none" stroke="black"/>
<path d="M294.073,336.795v 9.22726" fill="none" stroke="black"/>
<path d="M306.665,341.409v 4.61363" fill="none" stroke="black"/>
<path d="M319.257,341.409v 4.61363" fill="none" stroke="black"/>
<path d="M331.85,341.409v 4.61363" fill="none" stroke="black"/>
<path d="M344.442,341.409v 4.61363" fill="none" stroke="black"/>
<path d="M357.034,336.795v 9.22726" fill="none" stroke="black"/>
<path d="M369.626,341.409v 4.61363" fill="none" stroke="black"/>
<path d="M382.219,341.409v 4.61363" fill="none" stroke="black"/>
<path d="M394.811,341.409v 4.61363" fill="none" stroke="black"/>
<path d="M407.403,341.409v 4.61363" fill="none" stroke="black"/>
<path d="M419.996,336.795v 9.22726" fill="none" stroke="black"/>
<path d="M432.588,341.409v 4.61363" fill="none" stroke="black"/>
<path d="M445.18,341.409v 4.61363" fill="none" stroke="black"/>
<path d="M457.772,341.409v 4.61363" fill="none" stroke="black"/>
<path d="M470.365,341.409v 4.61363" fill="none" stroke="black"/>
<path d="M482.957,336.795v 9.22726" fill="none" stroke="black"/>
<path d="M105.189,336.795v 9.22726" fill="none" stroke="black"/>
<path d="M92.5964,341.409v 4.61363" fill="none" stroke="black"/>
<path d="M80.0041,341.409v 4.61363" fill="none" stroke="black"/>
<path d="M67.4118,341.409v 4.61363" fill="none" stroke="black"/>
<path d="M482.957,336.795v 9.22726" fill="none" stroke="black"/>
<path d="M495.549,341.409v 4.61363" fill="none" stroke="black"/>
<path d="M508.142,341.409v 4.61363" fill="none" stroke="black"/>
<text xml:space="preserve" x="94.1736" y="358.403" fill="black" font-size="12.8453" font-family="Helvetica">780</text>
<text xml:space="preserve" x="156.894" y="358.403" fill="black" font-size="12.8453" font-family="Helvetica">790</text>
<text xml:space="preserve" x="220.429" y="358.403" fill="black" font-size="12.8453" font-family="Helvetica">800</text>
<text xml:space="preserve" x="283.15" y="358.403" fill="black" font-size="12.8453" font-family="Helvetica">810</text>
<text xml:space="preserve" x="345.871" y="358.403" fill="black" font-size="12.8453" font-family="Helvetica">820</text>
<text xml:space="preserve" x="409.406" y="358.403" fill="black" font-size="12.8453" font-family="Helvetica">830</text>
<text xml:space="preserve" x="472.126" y="358.403" fill="black" font-size="12.8453" font-family="Helvetica">840</text>
<text xml:space="preserve" x="460.723" y="370.622" fill="black" font-size="12.8453" font-family="Helvetica">Time [ps]</text>
<path d="M57.1929,346.022v -307.575" fill="none" stroke="black"/>
<path d="M70.7992,346.022h -13.6063" fill="none" stroke="black"/>
<path d="M63.9961,333.817h -6.80315" fill="none" stroke="black"/>
<path d="M63.9961,321.612h -6.80315" fill="none" stroke="black"/>
<path d="M63.9961,309.406h -6.80315" fill="none" stroke="black"/>
<path d="M70.7992,297.201h -13.6063" fill="none" stroke="black"/>
<path d="M63.9961,284.995h -6.80315" fill="none" stroke="black"/>
<path d="M63.9961,272.79h -6.80315" fill="none" stroke="black"/>
<path d="M63.9961,260.585h -6.80315" fill="none" stroke="black"/>
<path d="M70.7992,248.379h -13.6063" fill="none" stroke="black"/>
<path d="M63.9961,236.174h -6.80315" fill="none" stroke="black"/>
<path d="M63.9961,223.969h -6.80315" fill="none" stroke="black"/>
<path d="M63.9961,211.763h -6.80315" fill="none" stroke="black"/>
<path d="M70.7992,199.558h -13.6063" fill="none" stroke="black"/>
<path d="M63.9961,187.352h -6.80315" fill="none" stroke="black"/>
<path d="M63.9961,175.147h -6.80315" fill="none" stroke="black"/>
<path d="M63.9961,162.942h -6.80315" fill="none" stroke="black"/>
<path d="M70.7992,150.736h -13.6063" fill="none" stroke="black"/>
<path d="M63.9961,138.531h -6.80315" fill="none" stroke="black"/>
<path d="M63.9961,126.326h -6.80315" fill="none" stroke="black"/>
<path d="M63.9961,114.12h -6.80315" fill="none" stroke="black"/>
<path d="M70.7992,101.915h -13.6063" fill="none" stroke="black"/>
<path d="M63.9961,89.7095h -6.80315" fill="none" stroke="black"/>
<path d="M63.9961,77.5041h -6.80315" fill="none" stroke="black"/>
<path d="M63.9961,65.2987h -6.80315" fill="none" stroke="black"/>
<path d="M70.7992,53.0934h -13.6063" fill="none" stroke="black"/>
<path d="M70.7992,53.0934h -13.6063" fill="none" stroke="black"/>
<path d="M63.9961,40.888h -6.80315" fill="none" stroke="black"/>
<text xml:space="preserve" x="47.7441" y="350.258" fill="black" font-size="12.8453" font-family="Helvetica">0</text>
<text xml:space="preserve" x="41.2277" y="301.385" fill="black" font-size="12.8453" font-family="Helvetica">20</text>
<text xml:space="preserve" x="41.2277" y="252.512" fill="black" font-size="12.8453" font-family="Helvetica">40</text>
<text xml:space="preserve" x="41.2277" y="203.638" fill="black" font-size="12.8453" font-family="Helvetica">60</text>
<text xml:space="preserve" x="41.2277" y="155.58" fill="black" font-size="12.8453" font-family="Helvetica">80</text>
<text xml:space="preserve" x="33.8967" y="106.706" fill="black" font-size="12.8453" font-family="Helvetica">100</text>
<text xml:space="preserve" x="33.8967" y="57.8333" fill="black" font-size="12.8453" font-family="Helvetica">120</text>
<g transform="rotate(-90,20.8638,70.0516)">
<text xml:space="preserve" x="20.8638" y="70.0516" fill="black" font-size="12.8453" font-family="Helvetica">Event</text>
</g>
<text xml:space="preserve" x="218.8" y="18.7347" fill="black" font-size="16.9898" font-family="Helvetica">670mm 8 9 10 11</text></svg>
