<?xml version="1.0" standalone="no"?>
<svg width="567.429" height="384.969" viewBox="0 0 567.429 384.969" xmlns="http://www.w3.org/2000/svg" shape-rendering="crispEdges">
<title>
img/week2/Combined0mm_ch_26.svg
</title>
<desc>
Creator: ROOT Version 6.22/09
CreationDate: Thu Jun 24 12:07:49 2021</desc>
<defs>
</defs>
<rect x="0.5" y="0" width="566.929" height="384.469" fill="white"/>
<rect x="57.1929" y="38.4469" width="453.543" height="307.575" fill="white"/>
<rect x="57.1929" y="38.4469" width="453.543" height="307.575" fill="none" stroke="black"/>
<rect x="57.1929" y="38.4469" width="453.543" height="307.575" fill="white"/>
<rect x="57.1929" y="38.4469" width="453.543" height="307.575" fill="none" stroke="black"/>
<path d="M57.1929,346.022h 151.181v -29.029h 30.2362v -50.141h 30.2362v -213.759h 30.2362v 208.481h 30.2362v 79.17h 30.2362v 5.278h 151.181" fill="none" stroke="#000099"/>
<g fill="#ff0000">
<polygon points=" 279.729, 48.8577 288.2, 48.8577 283.965, 57.329"/>
</g>
<path d="M59.4606,346.022h 136.063l 4.53543, -0.0367673l 4.53543, -0.0571594l 4.53543, -0.133875l 4.53543, -0.29672l 4.53543, -0.622074l 4.53543, -1.23297l 4.53543, -2.30883l 4.53543, -4.08143l 4.53543, -6.80408l 4.53543, -10.683l 4.53543, -15.7703l
 4.53543, -21.8369l 4.53543, -28.2706l 4.53543, -34.0567l 4.53543, -37.8964l 4.53543, -38.4764l 4.53543, -34.8404l 4.53543, -26.7484l 4.53543, -14.884" fill="none" stroke="#ff0000" stroke-width="2"/>
<path d="M281.697,66.985l 4.53543, -0.801875l 4.53543, 13.4021l 4.53543, 25.6014l 4.53543, 34.1611l 4.53543, 38.2935l 4.53543, 38.1426l 4.53543, 34.6016l 4.53543, 28.9636l 4.53543, 22.5449l 4.53543, 16.4l 4.53543, 11.187l 4.53543, 7.1731l 4.53543,
 4.33107l 4.53543, 2.46584l 4.53543, 1.32516l 4.53543, 0.672776l 4.53543, 0.322892l 4.53543, 0.146577l 4.53543, 0.0629645l 4.53543, 0.0408859h 131.528" fill="none" stroke="#ff0000" stroke-width="2"/>
<path d="M503.933,346.022h 4.53543" fill="none" stroke="#ff0000" stroke-width="2"/>
<path d="M57.1929,346.022h 453.543" fill="none" stroke="black"/>
<path d="M84.5516,336.795v 9.22726" fill="none" stroke="black"/>
<path d="M99.6623,341.409v 4.61363" fill="none" stroke="black"/>
<path d="M114.773,341.409v 4.61363" fill="none" stroke="black"/>
<path d="M129.884,341.409v 4.61363" fill="none" stroke="black"/>
<path d="M144.995,341.409v 4.61363" fill="none" stroke="black"/>
<path d="M160.105,336.795v 9.22726" fill="none" stroke="black"/>
<path d="M175.216,341.409v 4.61363" fill="none" stroke="black"/>
<path d="M190.327,341.409v 4.61363" fill="none" stroke="black"/>
<path d="M205.437,341.409v 4.61363" fill="none" stroke="black"/>
<path d="M220.548,341.409v 4.61363" fill="none" stroke="black"/>
<path d="M235.659,336.795v 9.22726" fill="none" stroke="black"/>
<path d="M250.77,341.409v 4.61363" fill="none" stroke="black"/>
<path d="M265.88,341.409v 4.61363" fill="none" stroke="black"/>
<path d="M280.991,341.409v 4.61363" fill="none" stroke="black"/>
<path d="M296.102,341.409v 4.61363" fill="none" stroke="black"/>
<path d="M311.213,336.795v 9.22726" fill="none" stroke="black"/>
<path d="M326.323,341.409v 4.61363" fill="none" stroke="black"/>
<path d="M341.434,341.409v 4.61363" fill="none" stroke="black"/>
<path d="M356.545,341.409v 4.61363" fill="none" stroke="black"/>
<path d="M371.656,341.409v 4.61363" fill="none" stroke="black"/>
<path d="M386.766,336.795v 9.22726" fill="none" stroke="black"/>
<path d="M401.877,341.409v 4.61363" fill="none" stroke="black"/>
<path d="M416.988,341.409v 4.61363" fill="none" stroke="black"/>
<path d="M432.098,341.409v 4.61363" fill="none" stroke="black"/>
<path d="M447.209,341.409v 4.61363" fill="none" stroke="black"/>
<path d="M462.32,336.795v 9.22726" fill="none" stroke="black"/>
<path d="M84.5516,336.795v 9.22726" fill="none" stroke="black"/>
<path d="M69.4409,341.409v 4.61363" fill="none" stroke="black"/>
<path d="M462.32,336.795v 9.22726" fill="none" stroke="black"/>
<path d="M477.431,341.409v 4.61363" fill="none" stroke="black"/>
<path d="M492.541,341.409v 4.61363" fill="none" stroke="black"/>
<path d="M507.652,341.409v 4.61363" fill="none" stroke="black"/>
<text xml:space="preserve" x="73.8098" y="358.403" fill="black" font-size="12.8453" font-family="Helvetica">780</text>
<text xml:space="preserve" x="148.749" y="358.403" fill="black" font-size="12.8453" font-family="Helvetica">790</text>
<text xml:space="preserve" x="224.502" y="358.403" fill="black" font-size="12.8453" font-family="Helvetica">800</text>
<text xml:space="preserve" x="300.256" y="358.403" fill="black" font-size="12.8453" font-family="Helvetica">810</text>
<text xml:space="preserve" x="376.009" y="358.403" fill="black" font-size="12.8453" font-family="Helvetica">820</text>
<text xml:space="preserve" x="450.948" y="358.403" fill="black" font-size="12.8453" font-family="Helvetica">830</text>
<text xml:space="preserve" x="460.723" y="370.622" fill="black" font-size="12.8453" font-family="Helvetica">Time [ps]</text>
<path d="M57.1929,346.022v -307.575" fill="none" stroke="black"/>
<path d="M70.7992,346.022h -13.6063" fill="none" stroke="black"/>
<path d="M63.9961,332.827h -6.80315" fill="none" stroke="black"/>
<path d="M63.9961,319.632h -6.80315" fill="none" stroke="black"/>
<path d="M63.9961,306.437h -6.80315" fill="none" stroke="black"/>
<path d="M70.7992,293.242h -13.6063" fill="none" stroke="black"/>
<path d="M63.9961,280.047h -6.80315" fill="none" stroke="black"/>
<path d="M63.9961,266.852h -6.80315" fill="none" stroke="black"/>
<path d="M63.9961,253.657h -6.80315" fill="none" stroke="black"/>
<path d="M70.7992,240.462h -13.6063" fill="none" stroke="black"/>
<path d="M63.9961,227.267h -6.80315" fill="none" stroke="black"/>
<path d="M63.9961,214.072h -6.80315" fill="none" stroke="black"/>
<path d="M63.9961,200.877h -6.80315" fill="none" stroke="black"/>
<path d="M70.7992,187.682h -13.6063" fill="none" stroke="black"/>
<path d="M63.9961,174.487h -6.80315" fill="none" stroke="black"/>
<path d="M63.9961,161.292h -6.80315" fill="none" stroke="black"/>
<path d="M63.9961,148.097h -6.80315" fill="none" stroke="black"/>
<path d="M70.7992,134.902h -13.6063" fill="none" stroke="black"/>
<path d="M63.9961,121.707h -6.80315" fill="none" stroke="black"/>
<path d="M63.9961,108.512h -6.80315" fill="none" stroke="black"/>
<path d="M63.9961,95.3174h -6.80315" fill="none" stroke="black"/>
<path d="M70.7992,82.1224h -13.6063" fill="none" stroke="black"/>
<path d="M70.7992,82.1224h -13.6063" fill="none" stroke="black"/>
<path d="M63.9961,68.9274h -6.80315" fill="none" stroke="black"/>
<path d="M63.9961,55.7324h -6.80315" fill="none" stroke="black"/>
<path d="M63.9961,42.5374h -6.80315" fill="none" stroke="black"/>
<text xml:space="preserve" x="47.7441" y="350.258" fill="black" font-size="12.8453" font-family="Helvetica">0</text>
<text xml:space="preserve" x="41.2277" y="298.127" fill="black" font-size="12.8453" font-family="Helvetica">20</text>
<text xml:space="preserve" x="41.2277" y="245.181" fill="black" font-size="12.8453" font-family="Helvetica">40</text>
<text xml:space="preserve" x="41.2277" y="192.235" fill="black" font-size="12.8453" font-family="Helvetica">60</text>
<text xml:space="preserve" x="41.2277" y="139.289" fill="black" font-size="12.8453" font-family="Helvetica">80</text>
<text xml:space="preserve" x="33.8967" y="86.3427" fill="black" font-size="12.8453" font-family="Helvetica">100</text>
<g transform="rotate(-90,20.8638,70.0516)">
<text xml:space="preserve" x="20.8638" y="70.0516" fill="black" font-size="12.8453" font-family="Helvetica">Event</text>
</g>
<text xml:space="preserve" x="253.012" y="18.7347" fill="black" font-size="16.9898" font-family="Helvetica">0mm 26</text></svg>
