<?xml version="1.0" standalone="no"?>
<svg width="567.429" height="384.969" viewBox="0 0 567.429 384.969" xmlns="http://www.w3.org/2000/svg" shape-rendering="crispEdges">
<title>
img/week2/Combined420mm_ch_31.svg
</title>
<desc>
Creator: ROOT Version 6.22/09
CreationDate: Thu Jun 24 12:33:06 2021</desc>
<defs>
</defs>
<rect x="0.5" y="0" width="566.929" height="384.469" fill="white"/>
<rect x="57.1929" y="38.4469" width="453.543" height="307.575" fill="white"/>
<rect x="57.1929" y="38.4469" width="453.543" height="307.575" fill="none" stroke="black"/>
<rect x="57.1929" y="38.4469" width="453.543" height="307.575" fill="white"/>
<rect x="57.1929" y="38.4469" width="453.543" height="307.575" fill="none" stroke="black"/>
<path d="M57.1929,346.022h 104.664v -2.16701h 34.8879v -6.50103h 34.8879v -47.6742h 34.8879v -221.035h 34.8879v 123.52h 34.8879v 151.691h 34.8879v 2.16701h 139.552" fill="none" stroke="#000099"/>
<g fill="#ff0000">
<polygon points=" 279.729, 64.4093 288.2, 64.4093 283.965, 72.8807"/>
</g>
<path d="M59.4606,346.022h 136.063l 4.53543, -0.0646924l 4.53543, -0.0832839l 4.53543, -0.176399l 4.53543, -0.357056l 4.53543, -0.69044l 4.53543, -1.27494l 4.53543, -2.24702l 4.53543, -3.77763l 4.53543, -6.05347l 4.53543, -9.23756l 4.53543, -13.4079l
 4.53543, -18.4819l 4.53543, -24.1444l 4.53543, -29.8079l 4.53543, -34.6351l 4.53543, -37.6436l 4.53543, -37.8905l 4.53543, -34.703l 4.53543, -27.8926" fill="none" stroke="#ff0000" stroke-width="2"/>
<path d="M281.697,63.4528l 4.53543, -17.8849l 4.53543, -5.70618l 4.53543, 7.18382l 4.53543, 19.1798l 4.53543, 28.8592l 4.53543, 35.2594l 4.53543, 38.0286l 4.53543, 37.42l 4.53543, 34.1498l 4.53543, 29.1769l 4.53543, 23.4747l 4.53543, 17.8556l
 4.53543, 12.8751l 4.53543, 8.81853l 4.53543, 5.74592l 4.53543, 3.56569l 4.53543, 2.10931l 4.53543, 1.19032l 4.53543, 0.641166l 4.53543, 0.329817l 4.53543, 0.162086l 4.53543, 0.0761264l 4.53543, 0.0586179h 117.921" fill="none" stroke="#ff0000"
 stroke-width="2"/>
<path d="M503.933,346.022h 4.53543" fill="none" stroke="#ff0000" stroke-width="2"/>
<path d="M57.1929,346.022h 453.543" fill="none" stroke="black"/>
<path d="M141.05,336.795v 9.22726" fill="none" stroke="black"/>
<path d="M158.485,341.409v 4.61363" fill="none" stroke="black"/>
<path d="M175.921,341.409v 4.61363" fill="none" stroke="black"/>
<path d="M193.356,341.409v 4.61363" fill="none" stroke="black"/>
<path d="M210.792,341.409v 4.61363" fill="none" stroke="black"/>
<path d="M228.227,336.795v 9.22726" fill="none" stroke="black"/>
<path d="M245.663,341.409v 4.61363" fill="none" stroke="black"/>
<path d="M263.098,341.409v 4.61363" fill="none" stroke="black"/>
<path d="M280.534,341.409v 4.61363" fill="none" stroke="black"/>
<path d="M297.969,341.409v 4.61363" fill="none" stroke="black"/>
<path d="M315.405,336.795v 9.22726" fill="none" stroke="black"/>
<path d="M332.84,341.409v 4.61363" fill="none" stroke="black"/>
<path d="M350.276,341.409v 4.61363" fill="none" stroke="black"/>
<path d="M367.711,341.409v 4.61363" fill="none" stroke="black"/>
<path d="M385.146,341.409v 4.61363" fill="none" stroke="black"/>
<path d="M402.582,336.795v 9.22726" fill="none" stroke="black"/>
<path d="M420.017,341.409v 4.61363" fill="none" stroke="black"/>
<path d="M437.453,341.409v 4.61363" fill="none" stroke="black"/>
<path d="M454.888,341.409v 4.61363" fill="none" stroke="black"/>
<path d="M472.324,341.409v 4.61363" fill="none" stroke="black"/>
<path d="M489.759,336.795v 9.22726" fill="none" stroke="black"/>
<path d="M141.05,336.795v 9.22726" fill="none" stroke="black"/>
<path d="M123.615,341.409v 4.61363" fill="none" stroke="black"/>
<path d="M106.179,341.409v 4.61363" fill="none" stroke="black"/>
<path d="M88.7436,341.409v 4.61363" fill="none" stroke="black"/>
<path d="M71.3081,341.409v 4.61363" fill="none" stroke="black"/>
<path d="M489.759,336.795v 9.22726" fill="none" stroke="black"/>
<path d="M507.195,341.409v 4.61363" fill="none" stroke="black"/>
<text xml:space="preserve" x="130.014" y="358.403" fill="black" font-size="12.8453" font-family="Helvetica">790</text>
<text xml:space="preserve" x="217.171" y="358.403" fill="black" font-size="12.8453" font-family="Helvetica">800</text>
<text xml:space="preserve" x="304.328" y="358.403" fill="black" font-size="12.8453" font-family="Helvetica">810</text>
<text xml:space="preserve" x="391.486" y="358.403" fill="black" font-size="12.8453" font-family="Helvetica">820</text>
<text xml:space="preserve" x="478.643" y="358.403" fill="black" font-size="12.8453" font-family="Helvetica">830</text>
<text xml:space="preserve" x="460.723" y="370.622" fill="black" font-size="12.8453" font-family="Helvetica">Time [ns]</text>
<path d="M57.1929,346.022v -307.575" fill="none" stroke="black"/>
<path d="M70.7992,346.022h -13.6063" fill="none" stroke="black"/>
<path d="M63.9961,335.187h -6.80315" fill="none" stroke="black"/>
<path d="M63.9961,324.352h -6.80315" fill="none" stroke="black"/>
<path d="M63.9961,313.517h -6.80315" fill="none" stroke="black"/>
<path d="M70.7992,302.682h -13.6063" fill="none" stroke="black"/>
<path d="M63.9961,291.847h -6.80315" fill="none" stroke="black"/>
<path d="M63.9961,281.012h -6.80315" fill="none" stroke="black"/>
<path d="M63.9961,270.177h -6.80315" fill="none" stroke="black"/>
<path d="M70.7992,259.342h -13.6063" fill="none" stroke="black"/>
<path d="M63.9961,248.507h -6.80315" fill="none" stroke="black"/>
<path d="M63.9961,237.672h -6.80315" fill="none" stroke="black"/>
<path d="M63.9961,226.837h -6.80315" fill="none" stroke="black"/>
<path d="M70.7992,216.002h -13.6063" fill="none" stroke="black"/>
<path d="M63.9961,205.167h -6.80315" fill="none" stroke="black"/>
<path d="M63.9961,194.332h -6.80315" fill="none" stroke="black"/>
<path d="M63.9961,183.497h -6.80315" fill="none" stroke="black"/>
<path d="M70.7992,172.661h -13.6063" fill="none" stroke="black"/>
<path d="M63.9961,161.826h -6.80315" fill="none" stroke="black"/>
<path d="M63.9961,150.991h -6.80315" fill="none" stroke="black"/>
<path d="M63.9961,140.156h -6.80315" fill="none" stroke="black"/>
<path d="M70.7992,129.321h -13.6063" fill="none" stroke="black"/>
<path d="M63.9961,118.486h -6.80315" fill="none" stroke="black"/>
<path d="M63.9961,107.651h -6.80315" fill="none" stroke="black"/>
<path d="M63.9961,96.8161h -6.80315" fill="none" stroke="black"/>
<path d="M70.7992,85.9811h -13.6063" fill="none" stroke="black"/>
<path d="M63.9961,75.146h -6.80315" fill="none" stroke="black"/>
<path d="M63.9961,64.311h -6.80315" fill="none" stroke="black"/>
<path d="M63.9961,53.4759h -6.80315" fill="none" stroke="black"/>
<path d="M70.7992,42.6409h -13.6063" fill="none" stroke="black"/>
<path d="M70.7992,42.6409h -13.6063" fill="none" stroke="black"/>
<text xml:space="preserve" x="47.7441" y="350.258" fill="black" font-size="12.8453" font-family="Helvetica">0</text>
<text xml:space="preserve" x="41.2277" y="307.087" fill="black" font-size="12.8453" font-family="Helvetica">20</text>
<text xml:space="preserve" x="41.2277" y="263.915" fill="black" font-size="12.8453" font-family="Helvetica">40</text>
<text xml:space="preserve" x="41.2277" y="220.744" fill="black" font-size="12.8453" font-family="Helvetica">60</text>
<text xml:space="preserve" x="41.2277" y="176.758" fill="black" font-size="12.8453" font-family="Helvetica">80</text>
<text xml:space="preserve" x="33.8967" y="133.587" fill="black" font-size="12.8453" font-family="Helvetica">100</text>
<text xml:space="preserve" x="33.8967" y="90.4154" fill="black" font-size="12.8453" font-family="Helvetica">120</text>
<text xml:space="preserve" x="33.8967" y="47.2441" fill="black" font-size="12.8453" font-family="Helvetica">140</text>
<g transform="rotate(-90,20.8638,70.0516)">
<text xml:space="preserve" x="20.8638" y="70.0516" fill="black" font-size="12.8453" font-family="Helvetica">Event</text>
</g>
<text xml:space="preserve" x="244.866" y="18.7347" fill="black" font-size="16.9898" font-family="Helvetica">420mm 31</text></svg>
