<?xml version="1.0" standalone="no"?>
<svg width="567.429" height="386.304" viewBox="0 0 567.429 386.304" xmlns="http://www.w3.org/2000/svg" shape-rendering="crispEdges">
<title>
img/week2/Combined0mm_ch_26.svg
</title>
<desc>
Creator: ROOT Version 6.22/08
CreationDate: Mon Jun 21 21:33:49 2021</desc>
<defs>
</defs>
<rect x="0.5" y="0" width="566.929" height="385.804" fill="white"/>
<rect x="57.1929" y="38.5804" width="453.543" height="308.643" fill="white"/>
<rect x="57.1929" y="38.5804" width="453.543" height="308.643" fill="none" stroke="black"/>
<rect x="57.1929" y="38.5804" width="453.543" height="308.643" fill="white"/>
<rect x="57.1929" y="38.5804" width="453.543" height="308.643" fill="none" stroke="black"/>
<path d="M57.1929,347.224h 151.181v -29.1298h 30.2362v -50.3151h 30.2362v -214.501h 30.2362v 209.205h 30.2362v 79.4449h 30.2362v 5.29633h 151.181" fill="none" stroke="#000099"/>
<g fill="#ff0000">
<polygon points=" 279.741, 49.0542 288.188, 49.0542 283.965, 57.5013"/>
</g>
<path d="M59.4606,347.224h 136.063l 4.53543, -0.036895l 4.53543, -0.0573579l 4.53543, -0.134339l 4.53543, -0.29775l 4.53543, -0.624234l 4.53543, -1.23725l 4.53543, -2.31685l 4.53543, -4.0956l 4.53543, -6.8277l 4.53543, -10.7201l 4.53543, -15.825l
 4.53543, -21.9128l 4.53543, -28.3688l 4.53543, -34.175l 4.53543, -38.028l 4.53543, -38.6101l 4.53543, -34.9614l 4.53543, -26.8413l 4.53543, -14.9357" fill="none" stroke="#ff0000" stroke-width="2"/>
<path d="M281.697,67.2177l 4.53543, -0.804659l 4.53543, 13.4486l 4.53543, 25.6903l 4.53543, 34.2798l 4.53543, 38.4265l 4.53543, 38.275l 4.53543, 34.7217l 4.53543, 29.0642l 4.53543, 22.6232l 4.53543, 16.4569l 4.53543, 11.2259l 4.53543, 7.19801l
 4.53543, 4.34611l 4.53543, 2.4744l 4.53543, 1.32976l 4.53543, 0.675112l 4.53543, 0.324013l 4.53543, 0.147086l 4.53543, 0.0631831l 4.53543, 0.0410279h 131.528" fill="none" stroke="#ff0000" stroke-width="2"/>
<path d="M503.933,347.224h 4.53543" fill="none" stroke="#ff0000" stroke-width="2"/>
<path d="M57.1929,347.224h 453.543" fill="none" stroke="black"/>
<path d="M84.5516,337.964v 9.2593" fill="none" stroke="black"/>
<path d="M99.6623,342.594v 4.62965" fill="none" stroke="black"/>
<path d="M114.773,342.594v 4.62965" fill="none" stroke="black"/>
<path d="M129.884,342.594v 4.62965" fill="none" stroke="black"/>
<path d="M144.995,342.594v 4.62965" fill="none" stroke="black"/>
<path d="M160.105,337.964v 9.2593" fill="none" stroke="black"/>
<path d="M175.216,342.594v 4.62965" fill="none" stroke="black"/>
<path d="M190.327,342.594v 4.62965" fill="none" stroke="black"/>
<path d="M205.437,342.594v 4.62965" fill="none" stroke="black"/>
<path d="M220.548,342.594v 4.62965" fill="none" stroke="black"/>
<path d="M235.659,337.964v 9.2593" fill="none" stroke="black"/>
<path d="M250.77,342.594v 4.62965" fill="none" stroke="black"/>
<path d="M265.88,342.594v 4.62965" fill="none" stroke="black"/>
<path d="M280.991,342.594v 4.62965" fill="none" stroke="black"/>
<path d="M296.102,342.594v 4.62965" fill="none" stroke="black"/>
<path d="M311.213,337.964v 9.2593" fill="none" stroke="black"/>
<path d="M326.323,342.594v 4.62965" fill="none" stroke="black"/>
<path d="M341.434,342.594v 4.62965" fill="none" stroke="black"/>
<path d="M356.545,342.594v 4.62965" fill="none" stroke="black"/>
<path d="M371.656,342.594v 4.62965" fill="none" stroke="black"/>
<path d="M386.766,337.964v 9.2593" fill="none" stroke="black"/>
<path d="M401.877,342.594v 4.62965" fill="none" stroke="black"/>
<path d="M416.988,342.594v 4.62965" fill="none" stroke="black"/>
<path d="M432.098,342.594v 4.62965" fill="none" stroke="black"/>
<path d="M447.209,342.594v 4.62965" fill="none" stroke="black"/>
<path d="M462.32,337.964v 9.2593" fill="none" stroke="black"/>
<path d="M84.5516,337.964v 9.2593" fill="none" stroke="black"/>
<path d="M69.4409,342.594v 4.62965" fill="none" stroke="black"/>
<path d="M462.32,337.964v 9.2593" fill="none" stroke="black"/>
<path d="M477.431,342.594v 4.62965" fill="none" stroke="black"/>
<path d="M492.541,342.594v 4.62965" fill="none" stroke="black"/>
<path d="M507.652,342.594v 4.62965" fill="none" stroke="black"/>
<text xml:space="preserve" x="72.7875" y="359.813" fill="black" font-size="12.8882" font-family="Helvetica">780</text>
<text xml:space="preserve" x="148.324" y="359.813" fill="black" font-size="12.8882" font-family="Helvetica">790</text>
<text xml:space="preserve" x="223.86" y="359.813" fill="black" font-size="12.8882" font-family="Helvetica">800</text>
<text xml:space="preserve" x="299.397" y="359.813" fill="black" font-size="12.8882" font-family="Helvetica">810</text>
<text xml:space="preserve" x="374.933" y="359.813" fill="black" font-size="12.8882" font-family="Helvetica">820</text>
<text xml:space="preserve" x="450.47" y="359.813" fill="black" font-size="12.8882" font-family="Helvetica">830</text>
<text xml:space="preserve" x="481.334" y="373.621" fill="black" font-size="12.8882" font-family="Helvetica">Time</text>
<path d="M57.1929,347.224v -308.643" fill="none" stroke="black"/>
<path d="M70.7992,347.224h -13.6063" fill="none" stroke="black"/>
<path d="M63.9961,333.983h -6.80315" fill="none" stroke="black"/>
<path d="M63.9961,320.742h -6.80315" fill="none" stroke="black"/>
<path d="M63.9961,307.501h -6.80315" fill="none" stroke="black"/>
<path d="M70.7992,294.261h -13.6063" fill="none" stroke="black"/>
<path d="M63.9961,281.02h -6.80315" fill="none" stroke="black"/>
<path d="M63.9961,267.779h -6.80315" fill="none" stroke="black"/>
<path d="M63.9961,254.538h -6.80315" fill="none" stroke="black"/>
<path d="M70.7992,241.297h -13.6063" fill="none" stroke="black"/>
<path d="M63.9961,228.056h -6.80315" fill="none" stroke="black"/>
<path d="M63.9961,214.816h -6.80315" fill="none" stroke="black"/>
<path d="M63.9961,201.575h -6.80315" fill="none" stroke="black"/>
<path d="M70.7992,188.334h -13.6063" fill="none" stroke="black"/>
<path d="M63.9961,175.093h -6.80315" fill="none" stroke="black"/>
<path d="M63.9961,161.852h -6.80315" fill="none" stroke="black"/>
<path d="M63.9961,148.612h -6.80315" fill="none" stroke="black"/>
<path d="M70.7992,135.371h -13.6063" fill="none" stroke="black"/>
<path d="M63.9961,122.13h -6.80315" fill="none" stroke="black"/>
<path d="M63.9961,108.889h -6.80315" fill="none" stroke="black"/>
<path d="M63.9961,95.6483h -6.80315" fill="none" stroke="black"/>
<path d="M70.7992,82.4075h -13.6063" fill="none" stroke="black"/>
<path d="M70.7992,82.4075h -13.6063" fill="none" stroke="black"/>
<path d="M63.9961,69.1667h -6.80315" fill="none" stroke="black"/>
<path d="M63.9961,55.9259h -6.80315" fill="none" stroke="black"/>
<path d="M63.9961,42.6851h -6.80315" fill="none" stroke="black"/>
<text xml:space="preserve" x="46.7965" y="351.691" fill="black" font-size="12.8882" font-family="Helvetica">0</text>
<text xml:space="preserve" x="39.4865" y="298.897" fill="black" font-size="12.8882" font-family="Helvetica">20</text>
<text xml:space="preserve" x="39.4865" y="246.102" fill="black" font-size="12.8882" font-family="Helvetica">40</text>
<text xml:space="preserve" x="39.4865" y="192.496" fill="black" font-size="12.8882" font-family="Helvetica">60</text>
<text xml:space="preserve" x="39.4865" y="139.702" fill="black" font-size="12.8882" font-family="Helvetica">80</text>
<text xml:space="preserve" x="32.1766" y="86.9075" fill="black" font-size="12.8882" font-family="Helvetica">100</text>
<g transform="rotate(-90,21.6177,71.4753)">
<text xml:space="preserve" x="21.6177" y="71.4753" fill="black" font-size="12.8882" font-family="Helvetica">Event</text>
</g>
<text xml:space="preserve" x="253.1" y="18.681" fill="black" font-size="17.0471" font-family="Helvetica">0mm 26</text></svg>
