<?xml version="1.0" standalone="no"?>
<svg width="567.429" height="386.304" viewBox="0 0 567.429 386.304" xmlns="http://www.w3.org/2000/svg" shape-rendering="crispEdges">
<title>
img/week2/Combined560mm_ch_31.svg
</title>
<desc>
Creator: ROOT Version 6.22/08
CreationDate: Mon Jun 21 16:55:05 2021</desc>
<defs>
</defs>
<rect x="0.5" y="0" width="566.929" height="385.804" fill="white"/>
<rect x="57.1929" y="38.5804" width="453.543" height="308.643" fill="white"/>
<rect x="57.1929" y="38.5804" width="453.543" height="308.643" fill="none" stroke="black"/>
<rect x="57.1929" y="38.5804" width="453.543" height="308.643" fill="white"/>
<rect x="57.1929" y="38.5804" width="453.543" height="308.643" fill="none" stroke="black"/>
<path d="M57.1929,343.994h 75.5906v 3.23018h 37.7953v -6.46035h 37.7953v -19.3811h 37.7953v -197.041h 37.7953v -71.0639h 37.7953v 284.256h 37.7953v 9.69053h 151.181" fill="none" stroke="#000099"/>
<g fill="#ff0000">
<polygon points=" 298.639, 49.0542 307.086, 49.0542 302.862, 57.5013"/>
</g>
<path d="M59.4606,347.224h 131.528l 4.53543, -0.0528772l 4.53543, -0.0735261l 4.53543, -0.162469l 4.53543, -0.342245l 4.53543, -0.687054l 4.53543, -1.31386l 4.53543, -2.39217l 4.53543, -4.14434l 4.53543, -6.8267l 4.53543, -10.6818l 4.53543, -15.8576l
 4.53543, -22.2997l 4.53543, -29.6423l 4.53543, -37.137l 4.53543, -43.6672l 4.53543, -47.8837l 4.53543, -48.4626l 3.77784, -37.0162" fill="none" stroke="#ff0000" stroke-width="2"/>
<path d="M299.4,38.5804l 0.438296, 3.70642" fill="none" stroke="#ff0000" stroke-width="2"/>
<path d="M299.839,42.2868l 4.53543, 45.9872l 4.53543, 48.7278l 4.53543, 47.0679l 4.53543, 42.1013l 4.53543, 35.1892l 4.53543, 27.6398l 4.53543, 20.4797l 4.53543, 14.3528l 4.53543, 9.53277l 4.53543, 6.00912l 4.53543, 3.59917l 4.53543, 2.05012l
 4.53543, 1.11135l 4.53543, 0.573684l 4.53543, 0.28213l 4.53543, 0.132238l 4.53543, 0.059093l 4.53543, 0.041637h 126.992" fill="none" stroke="#ff0000" stroke-width="2"/>
<path d="M57.1929,347.224h 453.543" fill="none" stroke="black"/>
<path d="M63.0218,337.964v 9.2593" fill="none" stroke="black"/>
<path d="M72.466,342.594v 4.62965" fill="none" stroke="black"/>
<path d="M81.9102,342.594v 4.62965" fill="none" stroke="black"/>
<path d="M91.3544,342.594v 4.62965" fill="none" stroke="black"/>
<path d="M100.799,342.594v 4.62965" fill="none" stroke="black"/>
<path d="M110.243,337.964v 9.2593" fill="none" stroke="black"/>
<path d="M119.687,342.594v 4.62965" fill="none" stroke="black"/>
<path d="M129.131,342.594v 4.62965" fill="none" stroke="black"/>
<path d="M138.575,342.594v 4.62965" fill="none" stroke="black"/>
<path d="M148.02,342.594v 4.62965" fill="none" stroke="black"/>
<path d="M157.464,337.964v 9.2593" fill="none" stroke="black"/>
<path d="M166.908,342.594v 4.62965" fill="none" stroke="black"/>
<path d="M176.352,342.594v 4.62965" fill="none" stroke="black"/>
<path d="M185.796,342.594v 4.62965" fill="none" stroke="black"/>
<path d="M195.241,342.594v 4.62965" fill="none" stroke="black"/>
<path d="M204.685,337.964v 9.2593" fill="none" stroke="black"/>
<path d="M214.129,342.594v 4.62965" fill="none" stroke="black"/>
<path d="M223.573,342.594v 4.62965" fill="none" stroke="black"/>
<path d="M233.018,342.594v 4.62965" fill="none" stroke="black"/>
<path d="M242.462,342.594v 4.62965" fill="none" stroke="black"/>
<path d="M251.906,337.964v 9.2593" fill="none" stroke="black"/>
<path d="M261.35,342.594v 4.62965" fill="none" stroke="black"/>
<path d="M270.794,342.594v 4.62965" fill="none" stroke="black"/>
<path d="M280.239,342.594v 4.62965" fill="none" stroke="black"/>
<path d="M289.683,342.594v 4.62965" fill="none" stroke="black"/>
<path d="M299.127,337.964v 9.2593" fill="none" stroke="black"/>
<path d="M308.571,342.594v 4.62965" fill="none" stroke="black"/>
<path d="M318.015,342.594v 4.62965" fill="none" stroke="black"/>
<path d="M327.46,342.594v 4.62965" fill="none" stroke="black"/>
<path d="M336.904,342.594v 4.62965" fill="none" stroke="black"/>
<path d="M346.348,337.964v 9.2593" fill="none" stroke="black"/>
<path d="M355.792,342.594v 4.62965" fill="none" stroke="black"/>
<path d="M365.236,342.594v 4.62965" fill="none" stroke="black"/>
<path d="M374.681,342.594v 4.62965" fill="none" stroke="black"/>
<path d="M384.125,342.594v 4.62965" fill="none" stroke="black"/>
<path d="M393.569,337.964v 9.2593" fill="none" stroke="black"/>
<path d="M403.013,342.594v 4.62965" fill="none" stroke="black"/>
<path d="M412.457,342.594v 4.62965" fill="none" stroke="black"/>
<path d="M421.902,342.594v 4.62965" fill="none" stroke="black"/>
<path d="M431.346,342.594v 4.62965" fill="none" stroke="black"/>
<path d="M440.79,337.964v 9.2593" fill="none" stroke="black"/>
<path d="M450.234,342.594v 4.62965" fill="none" stroke="black"/>
<path d="M459.678,342.594v 4.62965" fill="none" stroke="black"/>
<path d="M469.123,342.594v 4.62965" fill="none" stroke="black"/>
<path d="M478.567,342.594v 4.62965" fill="none" stroke="black"/>
<path d="M488.011,337.964v 9.2593" fill="none" stroke="black"/>
<path d="M63.0218,337.964v 9.2593" fill="none" stroke="black"/>
<path d="M488.011,337.964v 9.2593" fill="none" stroke="black"/>
<path d="M497.455,342.594v 4.62965" fill="none" stroke="black"/>
<path d="M506.9,342.594v 4.62965" fill="none" stroke="black"/>
<text xml:space="preserve" x="50.8576" y="359.813" fill="black" font-size="12.8882" font-family="Helvetica">785</text>
<text xml:space="preserve" x="98.7785" y="359.813" fill="black" font-size="12.8882" font-family="Helvetica">790</text>
<text xml:space="preserve" x="145.887" y="359.813" fill="black" font-size="12.8882" font-family="Helvetica">795</text>
<text xml:space="preserve" x="192.996" y="359.813" fill="black" font-size="12.8882" font-family="Helvetica">800</text>
<text xml:space="preserve" x="240.105" y="359.813" fill="black" font-size="12.8882" font-family="Helvetica">805</text>
<text xml:space="preserve" x="287.213" y="359.813" fill="black" font-size="12.8882" font-family="Helvetica">810</text>
<text xml:space="preserve" x="334.322" y="359.813" fill="black" font-size="12.8882" font-family="Helvetica">815</text>
<text xml:space="preserve" x="381.431" y="359.813" fill="black" font-size="12.8882" font-family="Helvetica">820</text>
<text xml:space="preserve" x="429.352" y="359.813" fill="black" font-size="12.8882" font-family="Helvetica">825</text>
<text xml:space="preserve" x="476.461" y="359.813" fill="black" font-size="12.8882" font-family="Helvetica">830</text>
<text xml:space="preserve" x="481.334" y="373.621" fill="black" font-size="12.8882" font-family="Helvetica">Time</text>
<path d="M57.1929,347.224v -308.643" fill="none" stroke="black"/>
<path d="M70.7992,347.224h -13.6063" fill="none" stroke="black"/>
<path d="M63.9961,340.763h -6.80315" fill="none" stroke="black"/>
<path d="M63.9961,334.303h -6.80315" fill="none" stroke="black"/>
<path d="M63.9961,327.843h -6.80315" fill="none" stroke="black"/>
<path d="M63.9961,321.382h -6.80315" fill="none" stroke="black"/>
<path d="M70.7992,314.922h -13.6063" fill="none" stroke="black"/>
<path d="M63.9961,308.462h -6.80315" fill="none" stroke="black"/>
<path d="M63.9961,302.001h -6.80315" fill="none" stroke="black"/>
<path d="M63.9961,295.541h -6.80315" fill="none" stroke="black"/>
<path d="M63.9961,289.081h -6.80315" fill="none" stroke="black"/>
<path d="M70.7992,282.62h -13.6063" fill="none" stroke="black"/>
<path d="M63.9961,276.16h -6.80315" fill="none" stroke="black"/>
<path d="M63.9961,269.7h -6.80315" fill="none" stroke="black"/>
<path d="M63.9961,263.239h -6.80315" fill="none" stroke="black"/>
<path d="M63.9961,256.779h -6.80315" fill="none" stroke="black"/>
<path d="M70.7992,250.318h -13.6063" fill="none" stroke="black"/>
<path d="M63.9961,243.858h -6.80315" fill="none" stroke="black"/>
<path d="M63.9961,237.398h -6.80315" fill="none" stroke="black"/>
<path d="M63.9961,230.937h -6.80315" fill="none" stroke="black"/>
<path d="M63.9961,224.477h -6.80315" fill="none" stroke="black"/>
<path d="M70.7992,218.017h -13.6063" fill="none" stroke="black"/>
<path d="M63.9961,211.556h -6.80315" fill="none" stroke="black"/>
<path d="M63.9961,205.096h -6.80315" fill="none" stroke="black"/>
<path d="M63.9961,198.636h -6.80315" fill="none" stroke="black"/>
<path d="M63.9961,192.175h -6.80315" fill="none" stroke="black"/>
<path d="M70.7992,185.715h -13.6063" fill="none" stroke="black"/>
<path d="M63.9961,179.255h -6.80315" fill="none" stroke="black"/>
<path d="M63.9961,172.794h -6.80315" fill="none" stroke="black"/>
<path d="M63.9961,166.334h -6.80315" fill="none" stroke="black"/>
<path d="M63.9961,159.874h -6.80315" fill="none" stroke="black"/>
<path d="M70.7992,153.413h -13.6063" fill="none" stroke="black"/>
<path d="M63.9961,146.953h -6.80315" fill="none" stroke="black"/>
<path d="M63.9961,140.492h -6.80315" fill="none" stroke="black"/>
<path d="M63.9961,134.032h -6.80315" fill="none" stroke="black"/>
<path d="M63.9961,127.572h -6.80315" fill="none" stroke="black"/>
<path d="M70.7992,121.111h -13.6063" fill="none" stroke="black"/>
<path d="M63.9961,114.651h -6.80315" fill="none" stroke="black"/>
<path d="M63.9961,108.191h -6.80315" fill="none" stroke="black"/>
<path d="M63.9961,101.73h -6.80315" fill="none" stroke="black"/>
<path d="M63.9961,95.27h -6.80315" fill="none" stroke="black"/>
<path d="M70.7992,88.8097h -13.6063" fill="none" stroke="black"/>
<path d="M63.9961,82.3493h -6.80315" fill="none" stroke="black"/>
<path d="M63.9961,75.889h -6.80315" fill="none" stroke="black"/>
<path d="M63.9961,69.4286h -6.80315" fill="none" stroke="black"/>
<path d="M63.9961,62.9683h -6.80315" fill="none" stroke="black"/>
<path d="M70.7992,56.5079h -13.6063" fill="none" stroke="black"/>
<path d="M70.7992,56.5079h -13.6063" fill="none" stroke="black"/>
<path d="M63.9961,50.0476h -6.80315" fill="none" stroke="black"/>
<path d="M63.9961,43.5872h -6.80315" fill="none" stroke="black"/>
<text xml:space="preserve" x="46.7965" y="351.691" fill="black" font-size="12.8882" font-family="Helvetica">0</text>
<text xml:space="preserve" x="39.4865" y="319.202" fill="black" font-size="12.8882" font-family="Helvetica">10</text>
<text xml:space="preserve" x="39.4865" y="286.713" fill="black" font-size="12.8882" font-family="Helvetica">20</text>
<text xml:space="preserve" x="39.4865" y="255.037" fill="black" font-size="12.8882" font-family="Helvetica">30</text>
<text xml:space="preserve" x="39.4865" y="222.548" fill="black" font-size="12.8882" font-family="Helvetica">40</text>
<text xml:space="preserve" x="39.4865" y="190.059" fill="black" font-size="12.8882" font-family="Helvetica">50</text>
<text xml:space="preserve" x="39.4865" y="157.571" fill="black" font-size="12.8882" font-family="Helvetica">60</text>
<text xml:space="preserve" x="39.4865" y="125.894" fill="black" font-size="12.8882" font-family="Helvetica">70</text>
<text xml:space="preserve" x="39.4865" y="93.4052" fill="black" font-size="12.8882" font-family="Helvetica">80</text>
<text xml:space="preserve" x="39.4865" y="60.9165" fill="black" font-size="12.8882" font-family="Helvetica">90</text>
<g transform="rotate(-90,28.9277,71.4753)">
<text xml:space="preserve" x="28.9277" y="71.4753" fill="black" font-size="12.8882" font-family="Helvetica">Event</text>
</g>
<text xml:space="preserve" x="244.978" y="18.681" fill="black" font-size="17.0471" font-family="Helvetica">560mm 31</text></svg>
