<?xml version="1.0" standalone="no"?>
<svg width="567.429" height="384.68" viewBox="0 0 567.429 384.68" xmlns="http://www.w3.org/2000/svg" shape-rendering="crispEdges">
<title>
img/week2/Combined420mm_ch_48_49_50_51.svg
</title>
<desc>
Creator: ROOT Version 6.22/09
CreationDate: Tue Jun 22 18:02:44 2021</desc>
<defs>
</defs>
<rect x="0.5" y="0" width="566.929" height="384.18" fill="white"/>
<rect x="57.1929" y="38.418" width="453.543" height="307.344" fill="white"/>
<rect x="57.1929" y="38.418" width="453.543" height="307.344" fill="none" stroke="black"/>
<rect x="57.1929" y="38.418" width="453.543" height="307.344" fill="white"/>
<rect x="57.1929" y="38.418" width="453.543" height="307.344" fill="none" stroke="black"/>
<path d="M57.1929,345.762h 64.7919v -1.19528h 32.396v -2.39055h 32.396v -8.36693h 32.396v -37.0536h 32.396v -217.54h 32.396v -8.36693h 32.396v 260.57h 32.396v 14.3433h 161.98" fill="none" stroke="#000099"/>
<g fill="#ff0000">
<polygon points=" 263.543, 74.9916 271.99, 74.9916 267.767, 83.4387"/>
</g>
<path d="M59.4606,345.762h 126.992l 4.53543, -0.0610368l 4.53543, -0.081763l 4.53543, -0.176954l 4.53543, -0.365507l 4.53543, -0.720295l 4.53543, -1.3537l 4.53543, -2.42503l 4.53543, -4.13834l 4.53543, -6.72237l 4.53543, -10.3848l 4.53543, -15.2379l
 4.53543, -21.2043l 4.53543, -27.9241l 4.53543, -34.6998l 4.53543, -40.5179l 4.53543, -44.1757l 4.53543, -44.5112l 4.53543, -40.6931l 1.66796, -11.95" fill="none" stroke="#ff0000" stroke-width="2"/>
<path d="M292.548,38.418l 2.75501, 21.1727" fill="none" stroke="#ff0000" stroke-width="2"/>
<path d="M295.303,59.5907l 4.53543, 42.0178l 4.53543, 44.787l 4.53543, 43.5571l 4.53543, 39.2661l 4.53543, 33.1112l 4.53543, 26.2669l 4.53543, 19.678l 4.53543, 13.9591l 4.53543, 9.39478l 4.53543, 6.00771l 4.53543, 3.6544l 4.53543, 2.1164l 4.53543,
 1.16778l 4.53543, 0.614277l 4.53543, 0.308185l 4.53543, 0.147529l 4.53543, 0.0674074l 4.53543, 0.0494031h 131.528" fill="none" stroke="#ff0000" stroke-width="2"/>
<rect x="351.996" y="24.9717" width="204.094" height="107.57" fill="white"/>
<path d="M351.996,132.542h 204.094" fill="none" stroke="black"/>
<path d="M556.091,132.542v -107.57" fill="none" stroke="black"/>
<path d="M556.091,24.9717h -204.094" fill="none" stroke="black"/>
<path d="M351.996,24.9717v 107.57" fill="none" stroke="black"/>
<text xml:space="preserve" x="361.938" y="38.9865" fill="black" font-size="15.6322" font-family="Helvetica">Entries </text>
<text xml:space="preserve" x="515.447" y="38.9865" fill="black" font-size="15.6322" font-family="Helvetica"> 526</text>
<text xml:space="preserve" x="375.745" y="56.8554" fill="black" font-size="15.6322" font-family="Helvetica"> / ndf </text>
<text xml:space="preserve" x="370.06" y="51.982" fill="black" font-size="10.5881" font-family="Helvetica">2</text>
<text xml:space="preserve" x="361.938" y="56.8554" fill="black" font-size="15.6322" font-family="Times">&#0967;</text>
<text xml:space="preserve" x="485.395" y="56.8554" fill="black" font-size="15.6322" font-family="Helvetica">  24.6 / 5</text>
<text xml:space="preserve" x="361.938" y="74.7242" fill="black" font-size="15.6322" font-family="Helvetica">Prob  </text>
<text xml:space="preserve" x="468.338" y="74.7242" fill="black" font-size="15.6322" font-family="Helvetica"> 0.0001663</text>
<text xml:space="preserve" x="361.938" y="94.2175" fill="black" font-size="15.6322" font-family="Helvetica">Const    </text>
<text xml:space="preserve" x="513.823" y="93.4052" fill="black" font-size="15.6322" font-family="Helvetica"> 17.1</text>
<text xml:space="preserve" x="504.888" y="93.4052" fill="black" font-size="15.6322" font-family="Times">&#0177;</text>
<text xml:space="preserve" x="456.967" y="93.4052" fill="black" font-size="15.6322" font-family="Helvetica"> 296.4 </text>
<text xml:space="preserve" x="361.938" y="111.274" fill="black" font-size="15.6322" font-family="Helvetica">Mean     </text>
<text xml:space="preserve" x="522.757" y="111.274" fill="black" font-size="15.6322" font-family="Helvetica"> 0.1</text>
<text xml:space="preserve" x="513.823" y="111.274" fill="black" font-size="15.6322" font-family="Times">&#0177;</text>
<text xml:space="preserve" x="470.775" y="111.274" fill="black" font-size="15.6322" font-family="Helvetica">   808 </text>
<text xml:space="preserve" x="361.938" y="128.331" fill="black" font-size="15.6322" font-family="Helvetica">Sigma    </text>
<text xml:space="preserve" x="502.452" y="129.143" fill="black" font-size="15.6322" font-family="Helvetica"> 0.097</text>
<text xml:space="preserve" x="493.517" y="129.143" fill="black" font-size="15.6322" font-family="Times">&#0177;</text>
<text xml:space="preserve" x="446.408" y="129.143" fill="black" font-size="15.6322" font-family="Helvetica"> 2.675 </text>
<path d="M57.1929,345.762h 453.543" fill="none" stroke="black"/>
<path d="M135.06,336.541v 9.22031" fill="none" stroke="black"/>
<path d="M151.25,341.152v 4.61016" fill="none" stroke="black"/>
<path d="M167.44,341.152v 4.61016" fill="none" stroke="black"/>
<path d="M183.63,341.152v 4.61016" fill="none" stroke="black"/>
<path d="M199.82,341.152v 4.61016" fill="none" stroke="black"/>
<path d="M216.011,336.541v 9.22031" fill="none" stroke="black"/>
<path d="M232.201,341.152v 4.61016" fill="none" stroke="black"/>
<path d="M248.391,341.152v 4.61016" fill="none" stroke="black"/>
<path d="M264.581,341.152v 4.61016" fill="none" stroke="black"/>
<path d="M280.771,341.152v 4.61016" fill="none" stroke="black"/>
<path d="M296.961,336.541v 9.22031" fill="none" stroke="black"/>
<path d="M313.151,341.152v 4.61016" fill="none" stroke="black"/>
<path d="M329.341,341.152v 4.61016" fill="none" stroke="black"/>
<path d="M345.531,341.152v 4.61016" fill="none" stroke="black"/>
<path d="M361.721,341.152v 4.61016" fill="none" stroke="black"/>
<path d="M377.911,336.541v 9.22031" fill="none" stroke="black"/>
<path d="M394.101,341.152v 4.61016" fill="none" stroke="black"/>
<path d="M410.291,341.152v 4.61016" fill="none" stroke="black"/>
<path d="M426.481,341.152v 4.61016" fill="none" stroke="black"/>
<path d="M442.672,341.152v 4.61016" fill="none" stroke="black"/>
<path d="M458.862,336.541v 9.22031" fill="none" stroke="black"/>
<path d="M135.06,336.541v 9.22031" fill="none" stroke="black"/>
<path d="M118.87,341.152v 4.61016" fill="none" stroke="black"/>
<path d="M102.68,341.152v 4.61016" fill="none" stroke="black"/>
<path d="M86.49,341.152v 4.61016" fill="none" stroke="black"/>
<path d="M70.2999,341.152v 4.61016" fill="none" stroke="black"/>
<path d="M458.862,336.541v 9.22031" fill="none" stroke="black"/>
<path d="M475.052,341.152v 4.61016" fill="none" stroke="black"/>
<path d="M491.242,341.152v 4.61016" fill="none" stroke="black"/>
<path d="M507.432,341.152v 4.61016" fill="none" stroke="black"/>
<text xml:space="preserve" x="123.957" y="358.189" fill="black" font-size="12.836" font-family="Helvetica">790</text>
<text xml:space="preserve" x="205.179" y="358.189" fill="black" font-size="12.836" font-family="Helvetica">800</text>
<text xml:space="preserve" x="286.401" y="358.189" fill="black" font-size="12.836" font-family="Helvetica">810</text>
<text xml:space="preserve" x="366.811" y="358.189" fill="black" font-size="12.836" font-family="Helvetica">820</text>
<text xml:space="preserve" x="448.033" y="358.189" fill="black" font-size="12.836" font-family="Helvetica">830</text>
<text xml:space="preserve" x="461.028" y="370.372" fill="black" font-size="12.836" font-family="Helvetica">Time [ps]</text>
<path d="M57.1929,345.762v -307.344" fill="none" stroke="black"/>
<path d="M70.7992,345.762h -13.6063" fill="none" stroke="black"/>
<path d="M63.9961,333.809h -6.80315" fill="none" stroke="black"/>
<path d="M63.9961,321.856h -6.80315" fill="none" stroke="black"/>
<path d="M63.9961,309.904h -6.80315" fill="none" stroke="black"/>
<path d="M63.9961,297.951h -6.80315" fill="none" stroke="black"/>
<path d="M70.7992,285.998h -13.6063" fill="none" stroke="black"/>
<path d="M63.9961,274.045h -6.80315" fill="none" stroke="black"/>
<path d="M63.9961,262.092h -6.80315" fill="none" stroke="black"/>
<path d="M63.9961,250.14h -6.80315" fill="none" stroke="black"/>
<path d="M63.9961,238.187h -6.80315" fill="none" stroke="black"/>
<path d="M70.7992,226.234h -13.6063" fill="none" stroke="black"/>
<path d="M63.9961,214.281h -6.80315" fill="none" stroke="black"/>
<path d="M63.9961,202.329h -6.80315" fill="none" stroke="black"/>
<path d="M63.9961,190.376h -6.80315" fill="none" stroke="black"/>
<path d="M63.9961,178.423h -6.80315" fill="none" stroke="black"/>
<path d="M70.7992,166.47h -13.6063" fill="none" stroke="black"/>
<path d="M63.9961,154.518h -6.80315" fill="none" stroke="black"/>
<path d="M63.9961,142.565h -6.80315" fill="none" stroke="black"/>
<path d="M63.9961,130.612h -6.80315" fill="none" stroke="black"/>
<path d="M63.9961,118.659h -6.80315" fill="none" stroke="black"/>
<path d="M70.7992,106.707h -13.6063" fill="none" stroke="black"/>
<path d="M63.9961,94.7537h -6.80315" fill="none" stroke="black"/>
<path d="M63.9961,82.801h -6.80315" fill="none" stroke="black"/>
<path d="M63.9961,70.8482h -6.80315" fill="none" stroke="black"/>
<path d="M63.9961,58.8955h -6.80315" fill="none" stroke="black"/>
<path d="M70.7992,46.9427h -13.6063" fill="none" stroke="black"/>
<path d="M70.7992,46.9427h -13.6063" fill="none" stroke="black"/>
<text xml:space="preserve" x="47.6087" y="350.067" fill="black" font-size="12.836" font-family="Helvetica">0</text>
<text xml:space="preserve" x="41.111" y="290.775" fill="black" font-size="12.836" font-family="Helvetica">50</text>
<text xml:space="preserve" x="33.801" y="230.67" fill="black" font-size="12.836" font-family="Helvetica">100</text>
<text xml:space="preserve" x="33.801" y="170.566" fill="black" font-size="12.836" font-family="Helvetica">150</text>
<text xml:space="preserve" x="33.801" y="111.274" fill="black" font-size="12.836" font-family="Helvetica">200</text>
<text xml:space="preserve" x="33.801" y="51.1698" fill="black" font-size="12.836" font-family="Helvetica">250</text>
<g transform="rotate(-90,20.8055,69.8509)">
<text xml:space="preserve" x="20.8055" y="69.8509" fill="black" font-size="12.836" font-family="Helvetica">Event</text>
</g>
<rect x="351.996" y="24.9717" width="204.094" height="107.57" fill="white"/>
<path d="M351.996,132.542h 204.094" fill="none" stroke="black"/>
<path d="M556.091,132.542v -107.57" fill="none" stroke="black"/>
<path d="M556.091,24.9717h -204.094" fill="none" stroke="black"/>
<path d="M351.996,24.9717v 107.57" fill="none" stroke="black"/>
<text xml:space="preserve" x="361.938" y="38.9865" fill="black" font-size="15.6322" font-family="Helvetica">Entries </text>
<text xml:space="preserve" x="515.447" y="38.9865" fill="black" font-size="15.6322" font-family="Helvetica"> 526</text>
<text xml:space="preserve" x="375.745" y="56.8554" fill="black" font-size="15.6322" font-family="Helvetica"> / ndf </text>
<text xml:space="preserve" x="370.06" y="51.982" fill="black" font-size="10.5881" font-family="Helvetica">2</text>
<text xml:space="preserve" x="361.938" y="56.8554" fill="black" font-size="15.6322" font-family="Times">&#0967;</text>
<text xml:space="preserve" x="485.395" y="56.8554" fill="black" font-size="15.6322" font-family="Helvetica">  24.6 / 5</text>
<text xml:space="preserve" x="361.938" y="74.7242" fill="black" font-size="15.6322" font-family="Helvetica">Prob  </text>
<text xml:space="preserve" x="468.338" y="74.7242" fill="black" font-size="15.6322" font-family="Helvetica"> 0.0001663</text>
<text xml:space="preserve" x="361.938" y="94.2175" fill="black" font-size="15.6322" font-family="Helvetica">Const    </text>
<text xml:space="preserve" x="513.823" y="93.4052" fill="black" font-size="15.6322" font-family="Helvetica"> 17.1</text>
<text xml:space="preserve" x="504.888" y="93.4052" fill="black" font-size="15.6322" font-family="Times">&#0177;</text>
<text xml:space="preserve" x="456.967" y="93.4052" fill="black" font-size="15.6322" font-family="Helvetica"> 296.4 </text>
<text xml:space="preserve" x="361.938" y="111.274" fill="black" font-size="15.6322" font-family="Helvetica">Mean     </text>
<text xml:space="preserve" x="522.757" y="111.274" fill="black" font-size="15.6322" font-family="Helvetica"> 0.1</text>
<text xml:space="preserve" x="513.823" y="111.274" fill="black" font-size="15.6322" font-family="Times">&#0177;</text>
<text xml:space="preserve" x="470.775" y="111.274" fill="black" font-size="15.6322" font-family="Helvetica">   808 </text>
<text xml:space="preserve" x="361.938" y="128.331" fill="black" font-size="15.6322" font-family="Helvetica">Sigma    </text>
<text xml:space="preserve" x="502.452" y="129.143" fill="black" font-size="15.6322" font-family="Helvetica"> 0.097</text>
<text xml:space="preserve" x="493.517" y="129.143" fill="black" font-size="15.6322" font-family="Times">&#0177;</text>
<text xml:space="preserve" x="446.408" y="129.143" fill="black" font-size="15.6322" font-family="Helvetica"> 2.675 </text>
<text xml:space="preserve" x="209.24" y="18.681" fill="black" font-size="16.9774" font-family="Helvetica">420mm 48 49 50 51</text></svg>
