<?xml version="1.0" standalone="no"?>
<svg width="567.429" height="386.304" viewBox="0 0 567.429 386.304" xmlns="http://www.w3.org/2000/svg" shape-rendering="crispEdges">
<title>
img/week2/Combined560mm_ch_11.svg
</title>
<desc>
Creator: ROOT Version 6.22/08
CreationDate: Tue Jun 22 00:47:54 2021</desc>
<defs>
</defs>
<rect x="0.5" y="0" width="566.929" height="385.804" fill="white"/>
<rect x="57.1929" y="38.5804" width="453.543" height="308.643" fill="white"/>
<rect x="57.1929" y="38.5804" width="453.543" height="308.643" fill="none" stroke="black"/>
<rect x="57.1929" y="38.5804" width="453.543" height="308.643" fill="white"/>
<rect x="57.1929" y="38.5804" width="453.543" height="308.643" fill="none" stroke="black"/>
<path d="M57.1929,347.224h 161.98v -39.1928h 32.396v -254.753h 32.396v 91.4499h 32.396v 182.9h 32.396v 19.5964h 161.98" fill="none" stroke="#000099"/>
<g fill="#ff0000">
<polygon points=" 263.543, 49.0542 271.99, 49.0542 267.767, 57.5013"/>
</g>
<path d="M59.4606,347.224h 122.457l 4.53543, -0.0328637l 4.53543, -0.0461099l 4.53543, -0.102671l 4.53543, -0.218243l 4.53543, -0.442727l 4.53543, -0.856783l 4.53543, -1.58107l 4.53543, -2.78065l 4.53543, -4.65764l 4.53543, -7.42433l 4.53543,
 -11.2505l 4.53543, -16.186l 4.53543, -22.0697l 4.53543, -28.4524l 4.53543, -34.5677l 4.53543, -39.3866l 4.53543, -41.7729l 4.53543, -40.7248l 4.53543, -35.6486l 3.48735, -20.4411" fill="none" stroke="#ff0000" stroke-width="2"/>
<path d="M287.394,38.5804l 3.37383, 19.5459" fill="none" stroke="#ff0000" stroke-width="2"/>
<path d="M290.768,58.1263l 4.53543, 35.4449l 4.53543, 40.6379l 4.53543, 41.7945l 4.53543, 39.4929l 4.53543, 34.7273l 4.53543, 28.6336l 4.53543, 22.2464l 4.53543, 16.3409l 4.53543, 11.3752l 4.53543, 7.51751l 4.53543, 4.72278l 4.53543, 2.82346l
 4.53543, 1.60762l 4.53543, 0.87235l 4.53543, 0.451375l 4.53543, 0.222802l 4.53543, 0.104954l 4.53543, 0.0471971l 4.53543, 0.0337102h 131.528" fill="none" stroke="#ff0000" stroke-width="2"/>
<path d="M57.1929,347.224h 453.543" fill="none" stroke="black"/>
<path d="M135.06,337.964v 9.2593" fill="none" stroke="black"/>
<path d="M151.25,342.594v 4.62965" fill="none" stroke="black"/>
<path d="M167.44,342.594v 4.62965" fill="none" stroke="black"/>
<path d="M183.63,342.594v 4.62965" fill="none" stroke="black"/>
<path d="M199.82,342.594v 4.62965" fill="none" stroke="black"/>
<path d="M216.011,337.964v 9.2593" fill="none" stroke="black"/>
<path d="M232.201,342.594v 4.62965" fill="none" stroke="black"/>
<path d="M248.391,342.594v 4.62965" fill="none" stroke="black"/>
<path d="M264.581,342.594v 4.62965" fill="none" stroke="black"/>
<path d="M280.771,342.594v 4.62965" fill="none" stroke="black"/>
<path d="M296.961,337.964v 9.2593" fill="none" stroke="black"/>
<path d="M313.151,342.594v 4.62965" fill="none" stroke="black"/>
<path d="M329.341,342.594v 4.62965" fill="none" stroke="black"/>
<path d="M345.531,342.594v 4.62965" fill="none" stroke="black"/>
<path d="M361.721,342.594v 4.62965" fill="none" stroke="black"/>
<path d="M377.911,337.964v 9.2593" fill="none" stroke="black"/>
<path d="M394.101,342.594v 4.62965" fill="none" stroke="black"/>
<path d="M410.291,342.594v 4.62965" fill="none" stroke="black"/>
<path d="M426.481,342.594v 4.62965" fill="none" stroke="black"/>
<path d="M442.672,342.594v 4.62965" fill="none" stroke="black"/>
<path d="M458.862,337.964v 9.2593" fill="none" stroke="black"/>
<path d="M135.06,337.964v 9.2593" fill="none" stroke="black"/>
<path d="M118.87,342.594v 4.62965" fill="none" stroke="black"/>
<path d="M102.68,342.594v 4.62965" fill="none" stroke="black"/>
<path d="M86.49,342.594v 4.62965" fill="none" stroke="black"/>
<path d="M70.2999,342.594v 4.62965" fill="none" stroke="black"/>
<path d="M458.862,337.964v 9.2593" fill="none" stroke="black"/>
<path d="M475.052,342.594v 4.62965" fill="none" stroke="black"/>
<path d="M491.242,342.594v 4.62965" fill="none" stroke="black"/>
<path d="M507.432,342.594v 4.62965" fill="none" stroke="black"/>
<text xml:space="preserve" x="123.145" y="359.813" fill="black" font-size="12.8882" font-family="Helvetica">790</text>
<text xml:space="preserve" x="204.367" y="359.813" fill="black" font-size="12.8882" font-family="Helvetica">800</text>
<text xml:space="preserve" x="285.589" y="359.813" fill="black" font-size="12.8882" font-family="Helvetica">810</text>
<text xml:space="preserve" x="365.999" y="359.813" fill="black" font-size="12.8882" font-family="Helvetica">820</text>
<text xml:space="preserve" x="447.221" y="359.813" fill="black" font-size="12.8882" font-family="Helvetica">830</text>
<text xml:space="preserve" x="481.334" y="373.621" fill="black" font-size="12.8882" font-family="Helvetica">Time</text>
<path d="M57.1929,347.224v -308.643" fill="none" stroke="black"/>
<path d="M70.7992,347.224h -13.6063" fill="none" stroke="black"/>
<path d="M63.9961,340.692h -6.80315" fill="none" stroke="black"/>
<path d="M63.9961,334.16h -6.80315" fill="none" stroke="black"/>
<path d="M63.9961,327.627h -6.80315" fill="none" stroke="black"/>
<path d="M63.9961,321.095h -6.80315" fill="none" stroke="black"/>
<path d="M70.7992,314.563h -13.6063" fill="none" stroke="black"/>
<path d="M63.9961,308.031h -6.80315" fill="none" stroke="black"/>
<path d="M63.9961,301.499h -6.80315" fill="none" stroke="black"/>
<path d="M63.9961,294.967h -6.80315" fill="none" stroke="black"/>
<path d="M63.9961,288.435h -6.80315" fill="none" stroke="black"/>
<path d="M70.7992,281.902h -13.6063" fill="none" stroke="black"/>
<path d="M63.9961,275.37h -6.80315" fill="none" stroke="black"/>
<path d="M63.9961,268.838h -6.80315" fill="none" stroke="black"/>
<path d="M63.9961,262.306h -6.80315" fill="none" stroke="black"/>
<path d="M63.9961,255.774h -6.80315" fill="none" stroke="black"/>
<path d="M70.7992,249.242h -13.6063" fill="none" stroke="black"/>
<path d="M63.9961,242.71h -6.80315" fill="none" stroke="black"/>
<path d="M63.9961,236.178h -6.80315" fill="none" stroke="black"/>
<path d="M63.9961,229.645h -6.80315" fill="none" stroke="black"/>
<path d="M63.9961,223.113h -6.80315" fill="none" stroke="black"/>
<path d="M70.7992,216.581h -13.6063" fill="none" stroke="black"/>
<path d="M63.9961,210.049h -6.80315" fill="none" stroke="black"/>
<path d="M63.9961,203.517h -6.80315" fill="none" stroke="black"/>
<path d="M63.9961,196.985h -6.80315" fill="none" stroke="black"/>
<path d="M63.9961,190.453h -6.80315" fill="none" stroke="black"/>
<path d="M70.7992,183.92h -13.6063" fill="none" stroke="black"/>
<path d="M63.9961,177.388h -6.80315" fill="none" stroke="black"/>
<path d="M63.9961,170.856h -6.80315" fill="none" stroke="black"/>
<path d="M63.9961,164.324h -6.80315" fill="none" stroke="black"/>
<path d="M63.9961,157.792h -6.80315" fill="none" stroke="black"/>
<path d="M70.7992,151.26h -13.6063" fill="none" stroke="black"/>
<path d="M63.9961,144.728h -6.80315" fill="none" stroke="black"/>
<path d="M63.9961,138.195h -6.80315" fill="none" stroke="black"/>
<path d="M63.9961,131.663h -6.80315" fill="none" stroke="black"/>
<path d="M63.9961,125.131h -6.80315" fill="none" stroke="black"/>
<path d="M70.7992,118.599h -13.6063" fill="none" stroke="black"/>
<path d="M63.9961,112.067h -6.80315" fill="none" stroke="black"/>
<path d="M63.9961,105.535h -6.80315" fill="none" stroke="black"/>
<path d="M63.9961,99.0027h -6.80315" fill="none" stroke="black"/>
<path d="M63.9961,92.4705h -6.80315" fill="none" stroke="black"/>
<path d="M70.7992,85.9384h -13.6063" fill="none" stroke="black"/>
<path d="M63.9961,79.4063h -6.80315" fill="none" stroke="black"/>
<path d="M63.9961,72.8741h -6.80315" fill="none" stroke="black"/>
<path d="M63.9961,66.342h -6.80315" fill="none" stroke="black"/>
<path d="M63.9961,59.8099h -6.80315" fill="none" stroke="black"/>
<path d="M70.7992,53.2777h -13.6063" fill="none" stroke="black"/>
<path d="M70.7992,53.2777h -13.6063" fill="none" stroke="black"/>
<path d="M63.9961,46.7456h -6.80315" fill="none" stroke="black"/>
<path d="M63.9961,40.2135h -6.80315" fill="none" stroke="black"/>
<text xml:space="preserve" x="46.7965" y="351.691" fill="black" font-size="12.8882" font-family="Helvetica">0</text>
<text xml:space="preserve" x="46.7965" y="319.202" fill="black" font-size="12.8882" font-family="Helvetica">5</text>
<text xml:space="preserve" x="39.4865" y="286.713" fill="black" font-size="12.8882" font-family="Helvetica">10</text>
<text xml:space="preserve" x="39.4865" y="253.412" fill="black" font-size="12.8882" font-family="Helvetica">15</text>
<text xml:space="preserve" x="39.4865" y="220.924" fill="black" font-size="12.8882" font-family="Helvetica">20</text>
<text xml:space="preserve" x="39.4865" y="188.435" fill="black" font-size="12.8882" font-family="Helvetica">25</text>
<text xml:space="preserve" x="39.4865" y="155.946" fill="black" font-size="12.8882" font-family="Helvetica">30</text>
<text xml:space="preserve" x="39.4865" y="123.457" fill="black" font-size="12.8882" font-family="Helvetica">35</text>
<text xml:space="preserve" x="39.4865" y="90.1564" fill="black" font-size="12.8882" font-family="Helvetica">40</text>
<text xml:space="preserve" x="39.4865" y="57.6676" fill="black" font-size="12.8882" font-family="Helvetica">45</text>
<g transform="rotate(-90,28.9277,71.4753)">
<text xml:space="preserve" x="28.9277" y="71.4753" fill="black" font-size="12.8882" font-family="Helvetica">Event</text>
</g>
<text xml:space="preserve" x="244.978" y="18.681" fill="black" font-size="17.0471" font-family="Helvetica">560mm 11</text></svg>
