<?xml version="1.0" standalone="no"?>
<svg width="567.429" height="384.68" viewBox="0 0 567.429 384.68" xmlns="http://www.w3.org/2000/svg" shape-rendering="crispEdges">
<title>
img/week2/Combined140mm_ch_20_21_22_23.svg
</title>
<desc>
Creator: ROOT Version 6.22/09
CreationDate: Tue Jun 22 18:02:58 2021</desc>
<defs>
</defs>
<rect x="0.5" y="0" width="566.929" height="384.18" fill="white"/>
<rect x="57.1929" y="38.418" width="453.543" height="307.344" fill="white"/>
<rect x="57.1929" y="38.418" width="453.543" height="307.344" fill="none" stroke="black"/>
<rect x="57.1929" y="38.418" width="453.543" height="307.344" fill="white"/>
<rect x="57.1929" y="38.418" width="453.543" height="307.344" fill="none" stroke="black"/>
<path d="M57.1929,345.022h 60.4724v -0.740211h 30.2362v -0.740211h 60.4724v -16.2846h 30.2362v -50.3344h 30.2362v -207.259h 30.2362v 78.4624h 30.2362v 188.754h 30.2362v 8.88253h 151.181" fill="none" stroke="#000099"/>
<g fill="#ff0000">
<polygon points=" 279.741, 65.4395 288.188, 65.4395 283.965, 73.8866"/>
</g>
<path d="M59.4606,345.762h 136.063l 4.53543, -0.0344228l 4.53543, -0.048884l 4.53543, -0.109412l 4.53543, -0.233444l 4.53543, -0.474653l 4.53543, -0.919326l 4.53543, -1.69532l 4.53543, -2.9749l 4.53543, -4.96382l 4.53543, -7.86853l 4.53543, -11.8361l
 4.53543, -16.87l 4.53543, -22.7383l 4.53543, -28.9041l 4.53543, -34.5177l 4.53543, -38.5031l 4.53543, -39.7481l 4.53543, -37.3697l 4.53543, -30.9863" fill="none" stroke="#ff0000" stroke-width="2"/>
<path d="M281.697,64.9656l 4.53543, -20.9081l 3.13215, -5.63961" fill="none" stroke="#ff0000" stroke-width="2"/>
<path d="M292.796,38.418l 2.50737, 3.12384" fill="none" stroke="#ff0000" stroke-width="2"/>
<path d="M295.303,41.5418l 4.53543, 18.7214l 4.53543, 29.3873l 4.53543, 36.4962l 4.53543, 39.6019l 4.53543, 38.969l 4.53543, 35.4075l 4.53543, 30.0086l 4.53543, 23.8722l 4.53543, 17.8991l 4.53543, 12.6858l 4.53543, 8.51647l 4.53543, 5.42415l 4.53543,
 3.28137l 4.53543, 1.88728l 4.53543, 1.03277l 4.53543, 0.53804l 4.53543, 0.266988l 4.53543, 0.126244l 4.53543, 0.0569023l 4.53543, 0.0406418h 122.457" fill="none" stroke="#ff0000" stroke-width="2"/>
<rect x="351.996" y="24.9717" width="204.094" height="107.57" fill="white"/>
<path d="M351.996,132.542h 204.094" fill="none" stroke="black"/>
<path d="M556.091,132.542v -107.57" fill="none" stroke="black"/>
<path d="M556.091,24.9717h -204.094" fill="none" stroke="black"/>
<path d="M351.996,24.9717v 107.57" fill="none" stroke="black"/>
<text xml:space="preserve" x="361.938" y="38.9865" fill="black" font-size="15.6322" font-family="Helvetica">Entries </text>
<text xml:space="preserve" x="515.447" y="38.9865" fill="black" font-size="15.6322" font-family="Helvetica"> 785</text>
<text xml:space="preserve" x="375.745" y="56.8554" fill="black" font-size="15.6322" font-family="Helvetica"> / ndf </text>
<text xml:space="preserve" x="370.06" y="51.982" fill="black" font-size="10.5881" font-family="Helvetica">2</text>
<text xml:space="preserve" x="361.938" y="56.8554" fill="black" font-size="15.6322" font-family="Times">&#0967;</text>
<text xml:space="preserve" x="481.334" y="56.8554" fill="black" font-size="15.6322" font-family="Helvetica"> 39.97 / 8</text>
<text xml:space="preserve" x="361.938" y="74.7242" fill="black" font-size="15.6322" font-family="Helvetica">Prob  </text>
<text xml:space="preserve" x="528.443" y="74.7242" fill="black" font-size="15.6322" font-family="Helvetica">06</text>
<text xml:space="preserve" x="519.508" y="74.7242" fill="black" font-size="15.6322" font-family="Times">&#8722;</text>
<text xml:space="preserve" x="468.338" y="74.7242" fill="black" font-size="15.6322" font-family="Helvetica"> 3.241e</text>
<text xml:space="preserve" x="361.938" y="94.2175" fill="black" font-size="15.6322" font-family="Helvetica">Const    </text>
<text xml:space="preserve" x="513.823" y="93.4052" fill="black" font-size="15.6322" font-family="Helvetica"> 19.1</text>
<text xml:space="preserve" x="504.888" y="93.4052" fill="black" font-size="15.6322" font-family="Times">&#0177;</text>
<text xml:space="preserve" x="456.967" y="93.4052" fill="black" font-size="15.6322" font-family="Helvetica"> 418.7 </text>
<text xml:space="preserve" x="361.938" y="111.274" fill="black" font-size="15.6322" font-family="Helvetica">Mean     </text>
<text xml:space="preserve" x="522.757" y="111.274" fill="black" font-size="15.6322" font-family="Helvetica"> 0.1</text>
<text xml:space="preserve" x="513.823" y="111.274" fill="black" font-size="15.6322" font-family="Times">&#0177;</text>
<text xml:space="preserve" x="466.714" y="111.274" fill="black" font-size="15.6322" font-family="Helvetica"> 807.3 </text>
<text xml:space="preserve" x="361.938" y="128.331" fill="black" font-size="15.6322" font-family="Helvetica">Sigma    </text>
<text xml:space="preserve" x="502.452" y="129.143" fill="black" font-size="15.6322" font-family="Helvetica"> 0.077</text>
<text xml:space="preserve" x="493.517" y="129.143" fill="black" font-size="15.6322" font-family="Times">&#0177;</text>
<text xml:space="preserve" x="446.408" y="129.143" fill="black" font-size="15.6322" font-family="Helvetica"> 2.826 </text>
<path d="M57.1929,345.762h 453.543" fill="none" stroke="black"/>
<path d="M84.5516,336.541v 9.22031" fill="none" stroke="black"/>
<path d="M99.6623,341.152v 4.61016" fill="none" stroke="black"/>
<path d="M114.773,341.152v 4.61016" fill="none" stroke="black"/>
<path d="M129.884,341.152v 4.61016" fill="none" stroke="black"/>
<path d="M144.995,341.152v 4.61016" fill="none" stroke="black"/>
<path d="M160.105,336.541v 9.22031" fill="none" stroke="black"/>
<path d="M175.216,341.152v 4.61016" fill="none" stroke="black"/>
<path d="M190.327,341.152v 4.61016" fill="none" stroke="black"/>
<path d="M205.437,341.152v 4.61016" fill="none" stroke="black"/>
<path d="M220.548,341.152v 4.61016" fill="none" stroke="black"/>
<path d="M235.659,336.541v 9.22031" fill="none" stroke="black"/>
<path d="M250.77,341.152v 4.61016" fill="none" stroke="black"/>
<path d="M265.88,341.152v 4.61016" fill="none" stroke="black"/>
<path d="M280.991,341.152v 4.61016" fill="none" stroke="black"/>
<path d="M296.102,341.152v 4.61016" fill="none" stroke="black"/>
<path d="M311.213,336.541v 9.22031" fill="none" stroke="black"/>
<path d="M326.323,341.152v 4.61016" fill="none" stroke="black"/>
<path d="M341.434,341.152v 4.61016" fill="none" stroke="black"/>
<path d="M356.545,341.152v 4.61016" fill="none" stroke="black"/>
<path d="M371.656,341.152v 4.61016" fill="none" stroke="black"/>
<path d="M386.766,336.541v 9.22031" fill="none" stroke="black"/>
<path d="M401.877,341.152v 4.61016" fill="none" stroke="black"/>
<path d="M416.988,341.152v 4.61016" fill="none" stroke="black"/>
<path d="M432.098,341.152v 4.61016" fill="none" stroke="black"/>
<path d="M447.209,341.152v 4.61016" fill="none" stroke="black"/>
<path d="M462.32,336.541v 9.22031" fill="none" stroke="black"/>
<path d="M84.5516,336.541v 9.22031" fill="none" stroke="black"/>
<path d="M69.4409,341.152v 4.61016" fill="none" stroke="black"/>
<path d="M462.32,336.541v 9.22031" fill="none" stroke="black"/>
<path d="M477.431,341.152v 4.61016" fill="none" stroke="black"/>
<path d="M492.541,341.152v 4.61016" fill="none" stroke="black"/>
<path d="M507.652,341.152v 4.61016" fill="none" stroke="black"/>
<text xml:space="preserve" x="73.5997" y="358.189" fill="black" font-size="12.836" font-family="Helvetica">780</text>
<text xml:space="preserve" x="149.136" y="358.189" fill="black" font-size="12.836" font-family="Helvetica">790</text>
<text xml:space="preserve" x="224.673" y="358.189" fill="black" font-size="12.836" font-family="Helvetica">800</text>
<text xml:space="preserve" x="300.209" y="358.189" fill="black" font-size="12.836" font-family="Helvetica">810</text>
<text xml:space="preserve" x="375.745" y="358.189" fill="black" font-size="12.836" font-family="Helvetica">820</text>
<text xml:space="preserve" x="451.282" y="358.189" fill="black" font-size="12.836" font-family="Helvetica">830</text>
<text xml:space="preserve" x="461.028" y="370.372" fill="black" font-size="12.836" font-family="Helvetica">Time [ps]</text>
<path d="M57.1929,345.762v -307.344" fill="none" stroke="black"/>
<path d="M70.7992,345.762h -13.6063" fill="none" stroke="black"/>
<path d="M63.9961,338.36h -6.80315" fill="none" stroke="black"/>
<path d="M63.9961,330.958h -6.80315" fill="none" stroke="black"/>
<path d="M63.9961,323.555h -6.80315" fill="none" stroke="black"/>
<path d="M63.9961,316.153h -6.80315" fill="none" stroke="black"/>
<path d="M70.7992,308.751h -13.6063" fill="none" stroke="black"/>
<path d="M63.9961,301.349h -6.80315" fill="none" stroke="black"/>
<path d="M63.9961,293.947h -6.80315" fill="none" stroke="black"/>
<path d="M63.9961,286.545h -6.80315" fill="none" stroke="black"/>
<path d="M63.9961,279.143h -6.80315" fill="none" stroke="black"/>
<path d="M70.7992,271.741h -13.6063" fill="none" stroke="black"/>
<path d="M63.9961,264.339h -6.80315" fill="none" stroke="black"/>
<path d="M63.9961,256.936h -6.80315" fill="none" stroke="black"/>
<path d="M63.9961,249.534h -6.80315" fill="none" stroke="black"/>
<path d="M63.9961,242.132h -6.80315" fill="none" stroke="black"/>
<path d="M70.7992,234.73h -13.6063" fill="none" stroke="black"/>
<path d="M63.9961,227.328h -6.80315" fill="none" stroke="black"/>
<path d="M63.9961,219.926h -6.80315" fill="none" stroke="black"/>
<path d="M63.9961,212.524h -6.80315" fill="none" stroke="black"/>
<path d="M63.9961,205.122h -6.80315" fill="none" stroke="black"/>
<path d="M70.7992,197.72h -13.6063" fill="none" stroke="black"/>
<path d="M63.9961,190.317h -6.80315" fill="none" stroke="black"/>
<path d="M63.9961,182.915h -6.80315" fill="none" stroke="black"/>
<path d="M63.9961,175.513h -6.80315" fill="none" stroke="black"/>
<path d="M63.9961,168.111h -6.80315" fill="none" stroke="black"/>
<path d="M70.7992,160.709h -13.6063" fill="none" stroke="black"/>
<path d="M63.9961,153.307h -6.80315" fill="none" stroke="black"/>
<path d="M63.9961,145.905h -6.80315" fill="none" stroke="black"/>
<path d="M63.9961,138.503h -6.80315" fill="none" stroke="black"/>
<path d="M63.9961,131.101h -6.80315" fill="none" stroke="black"/>
<path d="M70.7992,123.698h -13.6063" fill="none" stroke="black"/>
<path d="M63.9961,116.296h -6.80315" fill="none" stroke="black"/>
<path d="M63.9961,108.894h -6.80315" fill="none" stroke="black"/>
<path d="M63.9961,101.492h -6.80315" fill="none" stroke="black"/>
<path d="M63.9961,94.09h -6.80315" fill="none" stroke="black"/>
<path d="M70.7992,86.6879h -13.6063" fill="none" stroke="black"/>
<path d="M63.9961,79.2858h -6.80315" fill="none" stroke="black"/>
<path d="M63.9961,71.8837h -6.80315" fill="none" stroke="black"/>
<path d="M63.9961,64.4816h -6.80315" fill="none" stroke="black"/>
<path d="M63.9961,57.0795h -6.80315" fill="none" stroke="black"/>
<path d="M70.7992,49.6774h -13.6063" fill="none" stroke="black"/>
<path d="M70.7992,49.6774h -13.6063" fill="none" stroke="black"/>
<path d="M63.9961,42.2753h -6.80315" fill="none" stroke="black"/>
<text xml:space="preserve" x="47.6087" y="350.067" fill="black" font-size="12.836" font-family="Helvetica">0</text>
<text xml:space="preserve" x="41.111" y="313.517" fill="black" font-size="12.836" font-family="Helvetica">50</text>
<text xml:space="preserve" x="33.801" y="276.155" fill="black" font-size="12.836" font-family="Helvetica">100</text>
<text xml:space="preserve" x="33.801" y="238.793" fill="black" font-size="12.836" font-family="Helvetica">150</text>
<text xml:space="preserve" x="33.801" y="202.243" fill="black" font-size="12.836" font-family="Helvetica">200</text>
<text xml:space="preserve" x="33.801" y="164.881" fill="black" font-size="12.836" font-family="Helvetica">250</text>
<text xml:space="preserve" x="33.801" y="128.331" fill="black" font-size="12.836" font-family="Helvetica">300</text>
<text xml:space="preserve" x="33.801" y="90.9686" fill="black" font-size="12.836" font-family="Helvetica">350</text>
<text xml:space="preserve" x="33.801" y="54.4187" fill="black" font-size="12.836" font-family="Helvetica">400</text>
<g transform="rotate(-90,20.8055,69.8509)">
<text xml:space="preserve" x="20.8055" y="69.8509" fill="black" font-size="12.836" font-family="Helvetica">Event</text>
</g>
<rect x="351.996" y="24.9717" width="204.094" height="107.57" fill="white"/>
<path d="M351.996,132.542h 204.094" fill="none" stroke="black"/>
<path d="M556.091,132.542v -107.57" fill="none" stroke="black"/>
<path d="M556.091,24.9717h -204.094" fill="none" stroke="black"/>
<path d="M351.996,24.9717v 107.57" fill="none" stroke="black"/>
<text xml:space="preserve" x="361.938" y="38.9865" fill="black" font-size="15.6322" font-family="Helvetica">Entries </text>
<text xml:space="preserve" x="515.447" y="38.9865" fill="black" font-size="15.6322" font-family="Helvetica"> 785</text>
<text xml:space="preserve" x="375.745" y="56.8554" fill="black" font-size="15.6322" font-family="Helvetica"> / ndf </text>
<text xml:space="preserve" x="370.06" y="51.982" fill="black" font-size="10.5881" font-family="Helvetica">2</text>
<text xml:space="preserve" x="361.938" y="56.8554" fill="black" font-size="15.6322" font-family="Times">&#0967;</text>
<text xml:space="preserve" x="481.334" y="56.8554" fill="black" font-size="15.6322" font-family="Helvetica"> 39.97 / 8</text>
<text xml:space="preserve" x="361.938" y="74.7242" fill="black" font-size="15.6322" font-family="Helvetica">Prob  </text>
<text xml:space="preserve" x="528.443" y="74.7242" fill="black" font-size="15.6322" font-family="Helvetica">06</text>
<text xml:space="preserve" x="519.508" y="74.7242" fill="black" font-size="15.6322" font-family="Times">&#8722;</text>
<text xml:space="preserve" x="468.338" y="74.7242" fill="black" font-size="15.6322" font-family="Helvetica"> 3.241e</text>
<text xml:space="preserve" x="361.938" y="94.2175" fill="black" font-size="15.6322" font-family="Helvetica">Const    </text>
<text xml:space="preserve" x="513.823" y="93.4052" fill="black" font-size="15.6322" font-family="Helvetica"> 19.1</text>
<text xml:space="preserve" x="504.888" y="93.4052" fill="black" font-size="15.6322" font-family="Times">&#0177;</text>
<text xml:space="preserve" x="456.967" y="93.4052" fill="black" font-size="15.6322" font-family="Helvetica"> 418.7 </text>
<text xml:space="preserve" x="361.938" y="111.274" fill="black" font-size="15.6322" font-family="Helvetica">Mean     </text>
<text xml:space="preserve" x="522.757" y="111.274" fill="black" font-size="15.6322" font-family="Helvetica"> 0.1</text>
<text xml:space="preserve" x="513.823" y="111.274" fill="black" font-size="15.6322" font-family="Times">&#0177;</text>
<text xml:space="preserve" x="466.714" y="111.274" fill="black" font-size="15.6322" font-family="Helvetica"> 807.3 </text>
<text xml:space="preserve" x="361.938" y="128.331" fill="black" font-size="15.6322" font-family="Helvetica">Sigma    </text>
<text xml:space="preserve" x="502.452" y="129.143" fill="black" font-size="15.6322" font-family="Helvetica"> 0.077</text>
<text xml:space="preserve" x="493.517" y="129.143" fill="black" font-size="15.6322" font-family="Times">&#0177;</text>
<text xml:space="preserve" x="446.408" y="129.143" fill="black" font-size="15.6322" font-family="Helvetica"> 2.826 </text>
<text xml:space="preserve" x="208.428" y="18.681" fill="black" font-size="16.9774" font-family="Helvetica">140mm 20 21 22 23</text></svg>
