<?xml version="1.0" standalone="no"?>
<svg width="567.429" height="384.68" viewBox="0 0 567.429 384.68" xmlns="http://www.w3.org/2000/svg" shape-rendering="crispEdges">
<title>
img/week2/Combined140mm_ch_28_29_30_31.svg
</title>
<desc>
Creator: ROOT Version 6.22/09
CreationDate: Tue Jun 22 18:03:20 2021</desc>
<defs>
</defs>
<rect x="0.5" y="0" width="566.929" height="384.18" fill="white"/>
<rect x="57.1929" y="38.418" width="453.543" height="307.344" fill="white"/>
<rect x="57.1929" y="38.418" width="453.543" height="307.344" fill="none" stroke="black"/>
<rect x="57.1929" y="38.418" width="453.543" height="307.344" fill="white"/>
<rect x="57.1929" y="38.418" width="453.543" height="307.344" fill="none" stroke="black"/>
<path d="M57.1929,345.15h 32.396v 0.611814h 64.7919v -4.2827h 32.396v -9.78903h 32.396v -44.6624h 32.396v -200.675h 32.396v -8.5654h 32.396v 256.962h 32.396v 11.0127h 161.98" fill="none" stroke="#000099"/>
<g fill="#ff0000">
<polygon points=" 263.543, 82.1291 271.99, 82.1291 267.767, 90.5761"/>
</g>
<path d="M59.4606,345.762h 122.457l 4.53543, -0.0399658l 4.53543, -0.0543122l 4.53543, -0.118813l 4.53543, -0.248389l 4.53543, -0.496096l 4.53543, -0.946246l 4.53543, -1.72288l 4.53543, -2.99288l 4.53543, -4.95704l 4.53543, -7.82179l 4.53543,
 -11.7462l 4.53543, -16.7661l 4.53543, -22.7072l 4.53543, -29.113l 4.53543, -35.2206l 4.53543, -40.0164l 4.53543, -42.3881l 4.53543, -41.3567l 4.53543, -36.3379l 2.0379, -12.2932" fill="none" stroke="#ff0000" stroke-width="2"/>
<path d="M289.432,38.418l 1.33607, 7.57839" fill="none" stroke="#ff0000" stroke-width="2"/>
<path d="M290.768,45.9964l 4.53543, 35.2465l 4.53543, 40.8711l 4.53543, 42.4699l 4.53543, 40.5477l 4.53543, 36.0415l 4.53543, 30.06l 4.53543, 23.6431l 4.53543, 17.5967l 4.53543, 12.423l 4.53543, 8.33429l 4.53543, 5.32038l 4.53543, 3.23525l 4.53543,
 1.87554l 4.53543, 1.03726l 4.53543, 0.547557l 4.53543, 0.276027l 4.53543, 0.132928l 4.53543, 0.0611735l 4.53543, 0.0455141h 131.528" fill="none" stroke="#ff0000" stroke-width="2"/>
<rect x="351.996" y="24.9717" width="204.094" height="107.57" fill="white"/>
<path d="M351.996,132.542h 204.094" fill="none" stroke="black"/>
<path d="M556.091,132.542v -107.57" fill="none" stroke="black"/>
<path d="M556.091,24.9717h -204.094" fill="none" stroke="black"/>
<path d="M351.996,24.9717v 107.57" fill="none" stroke="black"/>
<text xml:space="preserve" x="361.938" y="38.9865" fill="black" font-size="15.6322" font-family="Helvetica">Entries </text>
<text xml:space="preserve" x="507.325" y="38.9865" fill="black" font-size="15.6322" font-family="Helvetica"> 1014</text>
<text xml:space="preserve" x="375.745" y="56.8554" fill="black" font-size="15.6322" font-family="Helvetica"> / ndf </text>
<text xml:space="preserve" x="370.06" y="51.982" fill="black" font-size="10.5881" font-family="Helvetica">2</text>
<text xml:space="preserve" x="361.938" y="56.8554" fill="black" font-size="15.6322" font-family="Times">&#0967;</text>
<text xml:space="preserve" x="481.334" y="56.8554" fill="black" font-size="15.6322" font-family="Helvetica"> 67.41 / 7</text>
<text xml:space="preserve" x="361.938" y="74.7242" fill="black" font-size="15.6322" font-family="Helvetica">Prob  </text>
<text xml:space="preserve" x="528.443" y="74.7242" fill="black" font-size="15.6322" font-family="Helvetica">12</text>
<text xml:space="preserve" x="519.508" y="74.7242" fill="black" font-size="15.6322" font-family="Times">&#8722;</text>
<text xml:space="preserve" x="468.338" y="74.7242" fill="black" font-size="15.6322" font-family="Helvetica"> 4.926e</text>
<text xml:space="preserve" x="361.938" y="94.2175" fill="black" font-size="15.6322" font-family="Helvetica">Const    </text>
<text xml:space="preserve" x="511.386" y="93.4052" fill="black" font-size="15.6322" font-family="Helvetica"> 23.5</text>
<text xml:space="preserve" x="502.452" y="93.4052" fill="black" font-size="15.6322" font-family="Times">&#0177;</text>
<text xml:space="preserve" x="455.343" y="93.4052" fill="black" font-size="15.6322" font-family="Helvetica"> 555.6 </text>
<text xml:space="preserve" x="361.938" y="111.274" fill="black" font-size="15.6322" font-family="Helvetica">Mean     </text>
<text xml:space="preserve" x="522.757" y="111.274" fill="black" font-size="15.6322" font-family="Helvetica"> 0.1</text>
<text xml:space="preserve" x="513.823" y="111.274" fill="black" font-size="15.6322" font-family="Times">&#0177;</text>
<text xml:space="preserve" x="466.714" y="111.274" fill="black" font-size="15.6322" font-family="Helvetica"> 807.9 </text>
<text xml:space="preserve" x="361.938" y="128.331" fill="black" font-size="15.6322" font-family="Helvetica">Sigma    </text>
<text xml:space="preserve" x="511.386" y="129.143" fill="black" font-size="15.6322" font-family="Helvetica"> 0.07</text>
<text xml:space="preserve" x="502.452" y="129.143" fill="black" font-size="15.6322" font-family="Times">&#0177;</text>
<text xml:space="preserve" x="461.841" y="129.143" fill="black" font-size="15.6322" font-family="Helvetica">  2.71 </text>
<path d="M57.1929,345.762h 453.543" fill="none" stroke="black"/>
<path d="M135.06,336.541v 9.22031" fill="none" stroke="black"/>
<path d="M151.25,341.152v 4.61016" fill="none" stroke="black"/>
<path d="M167.44,341.152v 4.61016" fill="none" stroke="black"/>
<path d="M183.63,341.152v 4.61016" fill="none" stroke="black"/>
<path d="M199.82,341.152v 4.61016" fill="none" stroke="black"/>
<path d="M216.011,336.541v 9.22031" fill="none" stroke="black"/>
<path d="M232.201,341.152v 4.61016" fill="none" stroke="black"/>
<path d="M248.391,341.152v 4.61016" fill="none" stroke="black"/>
<path d="M264.581,341.152v 4.61016" fill="none" stroke="black"/>
<path d="M280.771,341.152v 4.61016" fill="none" stroke="black"/>
<path d="M296.961,336.541v 9.22031" fill="none" stroke="black"/>
<path d="M313.151,341.152v 4.61016" fill="none" stroke="black"/>
<path d="M329.341,341.152v 4.61016" fill="none" stroke="black"/>
<path d="M345.531,341.152v 4.61016" fill="none" stroke="black"/>
<path d="M361.721,341.152v 4.61016" fill="none" stroke="black"/>
<path d="M377.911,336.541v 9.22031" fill="none" stroke="black"/>
<path d="M394.101,341.152v 4.61016" fill="none" stroke="black"/>
<path d="M410.291,341.152v 4.61016" fill="none" stroke="black"/>
<path d="M426.481,341.152v 4.61016" fill="none" stroke="black"/>
<path d="M442.672,341.152v 4.61016" fill="none" stroke="black"/>
<path d="M458.862,336.541v 9.22031" fill="none" stroke="black"/>
<path d="M135.06,336.541v 9.22031" fill="none" stroke="black"/>
<path d="M118.87,341.152v 4.61016" fill="none" stroke="black"/>
<path d="M102.68,341.152v 4.61016" fill="none" stroke="black"/>
<path d="M86.49,341.152v 4.61016" fill="none" stroke="black"/>
<path d="M70.2999,341.152v 4.61016" fill="none" stroke="black"/>
<path d="M458.862,336.541v 9.22031" fill="none" stroke="black"/>
<path d="M475.052,341.152v 4.61016" fill="none" stroke="black"/>
<path d="M491.242,341.152v 4.61016" fill="none" stroke="black"/>
<path d="M507.432,341.152v 4.61016" fill="none" stroke="black"/>
<text xml:space="preserve" x="123.957" y="358.189" fill="black" font-size="12.836" font-family="Helvetica">790</text>
<text xml:space="preserve" x="205.179" y="358.189" fill="black" font-size="12.836" font-family="Helvetica">800</text>
<text xml:space="preserve" x="286.401" y="358.189" fill="black" font-size="12.836" font-family="Helvetica">810</text>
<text xml:space="preserve" x="366.811" y="358.189" fill="black" font-size="12.836" font-family="Helvetica">820</text>
<text xml:space="preserve" x="448.033" y="358.189" fill="black" font-size="12.836" font-family="Helvetica">830</text>
<text xml:space="preserve" x="461.028" y="370.372" fill="black" font-size="12.836" font-family="Helvetica">Time [ps]</text>
<path d="M57.1929,345.762v -307.344" fill="none" stroke="black"/>
<path d="M70.7992,345.762h -13.6063" fill="none" stroke="black"/>
<path d="M63.9961,333.526h -6.80315" fill="none" stroke="black"/>
<path d="M63.9961,321.289h -6.80315" fill="none" stroke="black"/>
<path d="M63.9961,309.053h -6.80315" fill="none" stroke="black"/>
<path d="M63.9961,296.817h -6.80315" fill="none" stroke="black"/>
<path d="M70.7992,284.58h -13.6063" fill="none" stroke="black"/>
<path d="M63.9961,272.344h -6.80315" fill="none" stroke="black"/>
<path d="M63.9961,260.108h -6.80315" fill="none" stroke="black"/>
<path d="M63.9961,247.872h -6.80315" fill="none" stroke="black"/>
<path d="M63.9961,235.635h -6.80315" fill="none" stroke="black"/>
<path d="M70.7992,223.399h -13.6063" fill="none" stroke="black"/>
<path d="M63.9961,211.163h -6.80315" fill="none" stroke="black"/>
<path d="M63.9961,198.926h -6.80315" fill="none" stroke="black"/>
<path d="M63.9961,186.69h -6.80315" fill="none" stroke="black"/>
<path d="M63.9961,174.454h -6.80315" fill="none" stroke="black"/>
<path d="M70.7992,162.218h -13.6063" fill="none" stroke="black"/>
<path d="M63.9961,149.981h -6.80315" fill="none" stroke="black"/>
<path d="M63.9961,137.745h -6.80315" fill="none" stroke="black"/>
<path d="M63.9961,125.509h -6.80315" fill="none" stroke="black"/>
<path d="M63.9961,113.272h -6.80315" fill="none" stroke="black"/>
<path d="M70.7992,101.036h -13.6063" fill="none" stroke="black"/>
<path d="M63.9961,88.7999h -6.80315" fill="none" stroke="black"/>
<path d="M63.9961,76.5636h -6.80315" fill="none" stroke="black"/>
<path d="M63.9961,64.3273h -6.80315" fill="none" stroke="black"/>
<path d="M63.9961,52.091h -6.80315" fill="none" stroke="black"/>
<path d="M70.7992,39.8547h -13.6063" fill="none" stroke="black"/>
<path d="M70.7992,39.8547h -13.6063" fill="none" stroke="black"/>
<text xml:space="preserve" x="47.6087" y="350.067" fill="black" font-size="12.836" font-family="Helvetica">0</text>
<text xml:space="preserve" x="33.801" y="289.15" fill="black" font-size="12.836" font-family="Helvetica">100</text>
<text xml:space="preserve" x="33.801" y="228.234" fill="black" font-size="12.836" font-family="Helvetica">200</text>
<text xml:space="preserve" x="33.801" y="166.505" fill="black" font-size="12.836" font-family="Helvetica">300</text>
<text xml:space="preserve" x="33.801" y="105.589" fill="black" font-size="12.836" font-family="Helvetica">400</text>
<text xml:space="preserve" x="33.801" y="44.6721" fill="black" font-size="12.836" font-family="Helvetica">500</text>
<g transform="rotate(-90,20.8055,69.8509)">
<text xml:space="preserve" x="20.8055" y="69.8509" fill="black" font-size="12.836" font-family="Helvetica">Event</text>
</g>
<rect x="351.996" y="24.9717" width="204.094" height="107.57" fill="white"/>
<path d="M351.996,132.542h 204.094" fill="none" stroke="black"/>
<path d="M556.091,132.542v -107.57" fill="none" stroke="black"/>
<path d="M556.091,24.9717h -204.094" fill="none" stroke="black"/>
<path d="M351.996,24.9717v 107.57" fill="none" stroke="black"/>
<text xml:space="preserve" x="361.938" y="38.9865" fill="black" font-size="15.6322" font-family="Helvetica">Entries </text>
<text xml:space="preserve" x="507.325" y="38.9865" fill="black" font-size="15.6322" font-family="Helvetica"> 1014</text>
<text xml:space="preserve" x="375.745" y="56.8554" fill="black" font-size="15.6322" font-family="Helvetica"> / ndf </text>
<text xml:space="preserve" x="370.06" y="51.982" fill="black" font-size="10.5881" font-family="Helvetica">2</text>
<text xml:space="preserve" x="361.938" y="56.8554" fill="black" font-size="15.6322" font-family="Times">&#0967;</text>
<text xml:space="preserve" x="481.334" y="56.8554" fill="black" font-size="15.6322" font-family="Helvetica"> 67.41 / 7</text>
<text xml:space="preserve" x="361.938" y="74.7242" fill="black" font-size="15.6322" font-family="Helvetica">Prob  </text>
<text xml:space="preserve" x="528.443" y="74.7242" fill="black" font-size="15.6322" font-family="Helvetica">12</text>
<text xml:space="preserve" x="519.508" y="74.7242" fill="black" font-size="15.6322" font-family="Times">&#8722;</text>
<text xml:space="preserve" x="468.338" y="74.7242" fill="black" font-size="15.6322" font-family="Helvetica"> 4.926e</text>
<text xml:space="preserve" x="361.938" y="94.2175" fill="black" font-size="15.6322" font-family="Helvetica">Const    </text>
<text xml:space="preserve" x="511.386" y="93.4052" fill="black" font-size="15.6322" font-family="Helvetica"> 23.5</text>
<text xml:space="preserve" x="502.452" y="93.4052" fill="black" font-size="15.6322" font-family="Times">&#0177;</text>
<text xml:space="preserve" x="455.343" y="93.4052" fill="black" font-size="15.6322" font-family="Helvetica"> 555.6 </text>
<text xml:space="preserve" x="361.938" y="111.274" fill="black" font-size="15.6322" font-family="Helvetica">Mean     </text>
<text xml:space="preserve" x="522.757" y="111.274" fill="black" font-size="15.6322" font-family="Helvetica"> 0.1</text>
<text xml:space="preserve" x="513.823" y="111.274" fill="black" font-size="15.6322" font-family="Times">&#0177;</text>
<text xml:space="preserve" x="466.714" y="111.274" fill="black" font-size="15.6322" font-family="Helvetica"> 807.9 </text>
<text xml:space="preserve" x="361.938" y="128.331" fill="black" font-size="15.6322" font-family="Helvetica">Sigma    </text>
<text xml:space="preserve" x="511.386" y="129.143" fill="black" font-size="15.6322" font-family="Helvetica"> 0.07</text>
<text xml:space="preserve" x="502.452" y="129.143" fill="black" font-size="15.6322" font-family="Times">&#0177;</text>
<text xml:space="preserve" x="461.841" y="129.143" fill="black" font-size="15.6322" font-family="Helvetica">  2.71 </text>
<text xml:space="preserve" x="209.24" y="18.681" fill="black" font-size="16.9774" font-family="Helvetica">140mm 28 29 30 31</text></svg>
