<?xml version="1.0" standalone="no"?>
<svg width="567.429" height="386.304" viewBox="0 0 567.429 386.304" xmlns="http://www.w3.org/2000/svg" shape-rendering="crispEdges">
<title>
img/week2/Combined670mm_ch_43.svg
</title>
<desc>
Creator: ROOT Version 6.22/08
CreationDate: Mon Jun 21 21:33:40 2021</desc>
<defs>
</defs>
<rect x="0.5" y="0" width="566.929" height="385.804" fill="white"/>
<rect x="57.1929" y="38.5804" width="453.543" height="308.643" fill="white"/>
<rect x="57.1929" y="38.5804" width="453.543" height="308.643" fill="none" stroke="black"/>
<rect x="57.1929" y="38.5804" width="453.543" height="308.643" fill="white"/>
<rect x="57.1929" y="38.5804" width="453.543" height="308.643" fill="none" stroke="black"/>
<path d="M57.1929,347.224h 129.584v -9.48213h 32.396v -33.1875h 32.396v -137.491h 32.396v -113.786h 32.396v 265.5h 32.396v 28.4464h 161.98" fill="none" stroke="#000099"/>
<g fill="#ff0000">
<polygon points=" 295.939, 49.0542 304.386, 49.0542 300.163, 57.5013"/>
</g>
<path d="M59.4606,347.224h 131.528l 4.53543, -0.0632994l 4.53543, -0.0803769l 4.53543, -0.169128l 4.53543, -0.34042l 4.53543, -0.655214l 4.53543, -1.20545l 4.53543, -2.11888l 4.53543, -3.55635l 4.53543, -5.69555l 4.53543, -8.69594l 4.53543, -12.6433l
 4.53543, -17.4798l 4.53543, -22.9354l 4.53543, -28.4856l 4.53543, -33.3627l 4.53543, -36.6427l 4.53543, -37.407l 4.53543, -34.9538l 4.53543, -29.0062l 4.53543, -19.8516" fill="none" stroke="#ff0000" stroke-width="2"/>
<path d="M281.697,51.8751l 4.53543, -8.35833l 4.53543, 4.15214l 4.53543, 16.1549l 4.53543, 26.2272l 4.53543, 33.3254l 4.53543, 36.9597l 4.53543, 37.2258l 4.53543, 34.7027l 4.53543, 30.2603l 4.53543, 24.8421l 4.53543, 19.2825l 4.53543, 14.1933l
 4.53543, 9.92846l 4.53543, 6.61069l 4.53543, 4.19478l 4.53543, 2.53913l 4.53543, 1.46725l 4.53543, 0.809906l 4.53543, 0.427264l 4.53543, 0.215513l 4.53543, 0.103973l 4.53543, 0.0479913l 4.53543, 0.0359984h 117.921" fill="none" stroke="#ff0000"
 stroke-width="2"/>
<path d="M503.933,347.224h 4.53543" fill="none" stroke="#ff0000" stroke-width="2"/>
<path d="M57.1929,347.224h 453.543" fill="none" stroke="black"/>
<path d="M86.5058,337.964v 9.2593" fill="none" stroke="black"/>
<path d="M102.696,342.594v 4.62965" fill="none" stroke="black"/>
<path d="M118.886,342.594v 4.62965" fill="none" stroke="black"/>
<path d="M135.076,342.594v 4.62965" fill="none" stroke="black"/>
<path d="M151.266,342.594v 4.62965" fill="none" stroke="black"/>
<path d="M167.456,337.964v 9.2593" fill="none" stroke="black"/>
<path d="M183.646,342.594v 4.62965" fill="none" stroke="black"/>
<path d="M199.836,342.594v 4.62965" fill="none" stroke="black"/>
<path d="M216.026,342.594v 4.62965" fill="none" stroke="black"/>
<path d="M232.216,342.594v 4.62965" fill="none" stroke="black"/>
<path d="M248.406,337.964v 9.2593" fill="none" stroke="black"/>
<path d="M264.597,342.594v 4.62965" fill="none" stroke="black"/>
<path d="M280.787,342.594v 4.62965" fill="none" stroke="black"/>
<path d="M296.977,342.594v 4.62965" fill="none" stroke="black"/>
<path d="M313.167,342.594v 4.62965" fill="none" stroke="black"/>
<path d="M329.357,337.964v 9.2593" fill="none" stroke="black"/>
<path d="M345.547,342.594v 4.62965" fill="none" stroke="black"/>
<path d="M361.737,342.594v 4.62965" fill="none" stroke="black"/>
<path d="M377.927,342.594v 4.62965" fill="none" stroke="black"/>
<path d="M394.117,342.594v 4.62965" fill="none" stroke="black"/>
<path d="M410.307,337.964v 9.2593" fill="none" stroke="black"/>
<path d="M426.497,342.594v 4.62965" fill="none" stroke="black"/>
<path d="M442.687,342.594v 4.62965" fill="none" stroke="black"/>
<path d="M458.877,342.594v 4.62965" fill="none" stroke="black"/>
<path d="M475.067,342.594v 4.62965" fill="none" stroke="black"/>
<path d="M491.258,337.964v 9.2593" fill="none" stroke="black"/>
<path d="M86.5058,337.964v 9.2593" fill="none" stroke="black"/>
<path d="M70.3157,342.594v 4.62965" fill="none" stroke="black"/>
<path d="M491.258,337.964v 9.2593" fill="none" stroke="black"/>
<path d="M507.448,342.594v 4.62965" fill="none" stroke="black"/>
<text xml:space="preserve" x="74.412" y="359.813" fill="black" font-size="12.8882" font-family="Helvetica">780</text>
<text xml:space="preserve" x="155.634" y="359.813" fill="black" font-size="12.8882" font-family="Helvetica">790</text>
<text xml:space="preserve" x="236.856" y="359.813" fill="black" font-size="12.8882" font-family="Helvetica">800</text>
<text xml:space="preserve" x="317.266" y="359.813" fill="black" font-size="12.8882" font-family="Helvetica">810</text>
<text xml:space="preserve" x="398.487" y="359.813" fill="black" font-size="12.8882" font-family="Helvetica">820</text>
<text xml:space="preserve" x="479.709" y="359.813" fill="black" font-size="12.8882" font-family="Helvetica">830</text>
<text xml:space="preserve" x="481.334" y="373.621" fill="black" font-size="12.8882" font-family="Helvetica">Time</text>
<path d="M57.1929,347.224v -308.643" fill="none" stroke="black"/>
<path d="M70.7992,347.224h -13.6063" fill="none" stroke="black"/>
<path d="M63.9961,337.742h -6.80315" fill="none" stroke="black"/>
<path d="M63.9961,328.26h -6.80315" fill="none" stroke="black"/>
<path d="M63.9961,318.777h -6.80315" fill="none" stroke="black"/>
<path d="M63.9961,309.295h -6.80315" fill="none" stroke="black"/>
<path d="M70.7992,299.813h -13.6063" fill="none" stroke="black"/>
<path d="M63.9961,290.331h -6.80315" fill="none" stroke="black"/>
<path d="M63.9961,280.849h -6.80315" fill="none" stroke="black"/>
<path d="M63.9961,271.367h -6.80315" fill="none" stroke="black"/>
<path d="M63.9961,261.885h -6.80315" fill="none" stroke="black"/>
<path d="M70.7992,252.402h -13.6063" fill="none" stroke="black"/>
<path d="M63.9961,242.92h -6.80315" fill="none" stroke="black"/>
<path d="M63.9961,233.438h -6.80315" fill="none" stroke="black"/>
<path d="M63.9961,223.956h -6.80315" fill="none" stroke="black"/>
<path d="M63.9961,214.474h -6.80315" fill="none" stroke="black"/>
<path d="M70.7992,204.992h -13.6063" fill="none" stroke="black"/>
<path d="M63.9961,195.51h -6.80315" fill="none" stroke="black"/>
<path d="M63.9961,186.028h -6.80315" fill="none" stroke="black"/>
<path d="M63.9961,176.545h -6.80315" fill="none" stroke="black"/>
<path d="M63.9961,167.063h -6.80315" fill="none" stroke="black"/>
<path d="M70.7992,157.581h -13.6063" fill="none" stroke="black"/>
<path d="M63.9961,148.099h -6.80315" fill="none" stroke="black"/>
<path d="M63.9961,138.617h -6.80315" fill="none" stroke="black"/>
<path d="M63.9961,129.135h -6.80315" fill="none" stroke="black"/>
<path d="M63.9961,119.653h -6.80315" fill="none" stroke="black"/>
<path d="M70.7992,110.171h -13.6063" fill="none" stroke="black"/>
<path d="M63.9961,100.688h -6.80315" fill="none" stroke="black"/>
<path d="M63.9961,91.2063h -6.80315" fill="none" stroke="black"/>
<path d="M63.9961,81.7241h -6.80315" fill="none" stroke="black"/>
<path d="M63.9961,72.242h -6.80315" fill="none" stroke="black"/>
<path d="M70.7992,62.7599h -13.6063" fill="none" stroke="black"/>
<path d="M70.7992,62.7599h -13.6063" fill="none" stroke="black"/>
<path d="M63.9961,53.2777h -6.80315" fill="none" stroke="black"/>
<path d="M63.9961,43.7956h -6.80315" fill="none" stroke="black"/>
<text xml:space="preserve" x="46.7965" y="351.691" fill="black" font-size="12.8882" font-family="Helvetica">0</text>
<text xml:space="preserve" x="39.4865" y="304.582" fill="black" font-size="12.8882" font-family="Helvetica">10</text>
<text xml:space="preserve" x="39.4865" y="256.661" fill="black" font-size="12.8882" font-family="Helvetica">20</text>
<text xml:space="preserve" x="39.4865" y="209.553" fill="black" font-size="12.8882" font-family="Helvetica">30</text>
<text xml:space="preserve" x="39.4865" y="162.444" fill="black" font-size="12.8882" font-family="Helvetica">40</text>
<text xml:space="preserve" x="39.4865" y="114.523" fill="black" font-size="12.8882" font-family="Helvetica">50</text>
<text xml:space="preserve" x="39.4865" y="67.4142" fill="black" font-size="12.8882" font-family="Helvetica">60</text>
<g transform="rotate(-90,28.9277,71.4753)">
<text xml:space="preserve" x="28.9277" y="71.4753" fill="black" font-size="12.8882" font-family="Helvetica">Event</text>
</g>
<text xml:space="preserve" x="243.354" y="18.681" fill="black" font-size="17.0471" font-family="Helvetica">670mm 43</text></svg>
