<?xml version="1.0" standalone="no"?>
<svg width="567.429" height="384.969" viewBox="0 0 567.429 384.969" xmlns="http://www.w3.org/2000/svg" shape-rendering="crispEdges">
<title>
img/week2/Combined560mm_ch_15.svg
</title>
<desc>
Creator: ROOT Version 6.22/09
CreationDate: Thu Jun 24 12:07:48 2021</desc>
<defs>
</defs>
<rect x="0.5" y="0" width="566.929" height="384.469" fill="white"/>
<rect x="57.1929" y="38.4469" width="453.543" height="307.575" fill="white"/>
<rect x="57.1929" y="38.4469" width="453.543" height="307.575" fill="none" stroke="black"/>
<rect x="57.1929" y="38.4469" width="453.543" height="307.575" fill="white"/>
<rect x="57.1929" y="38.4469" width="453.543" height="307.575" fill="none" stroke="black"/>
<path d="M57.1929,346.022h 170.079v -41.8468h 28.3465v -224.927h 28.3465v -26.1543h 28.3465v 292.928h 198.425" fill="none" stroke="#000099"/>
<g fill="#ff0000">
<polygon points=" 265.556, 75.0131 274.027, 75.0131 269.791, 83.4845"/>
</g>
<path d="M59.4606,346.022h 131.528l 4.53543, -0.0497956l 4.53543, -0.0691226l 4.53543, -0.152569l 4.53543, -0.321023l 4.53543, -0.643682l 4.53543, -1.22939l 4.53543, -2.23551l 4.53543, -3.86774l 4.53543, -6.36216l 4.53543, -9.9404l 4.53543, -14.7341l
 4.53543, -20.6859l 4.53543, -27.449l 4.53543, -34.3237l 4.53543, -40.2741l 4.53543, -44.0561l 4.53543, -44.4585l 4.53543, -40.6109l 2.26409, -16.1116" fill="none" stroke="#ff0000" stroke-width="2"/>
<path d="M296.136,38.4469l 3.70235, 29.0228" fill="none" stroke="#ff0000" stroke-width="2"/>
<path d="M299.839,67.4697l 4.53543, 42.4055l 4.53543, 44.7646l 4.53543, 43.1081l 4.53543, 38.4562l 4.53543, 32.0635l 4.53543, 25.1259l 4.53543, 18.5751l 4.53543, 12.9893l 4.53543, 8.60841l 4.53543, 5.41471l 4.53543, 3.23616l 4.53543, 1.83937l
 4.53543, 0.99495l 4.53543, 0.512479l 4.53543, 0.251479l 4.53543, 0.117611l 4.53543, 0.0524398l 4.53543, 0.0368136h 126.992" fill="none" stroke="#ff0000" stroke-width="2"/>
<path d="M57.1929,346.022h 453.543" fill="none" stroke="black"/>
<path d="M82.8417,336.795v 9.22726" fill="none" stroke="black"/>
<path d="M97.008,341.409v 4.61363" fill="none" stroke="black"/>
<path d="M111.174,341.409v 4.61363" fill="none" stroke="black"/>
<path d="M125.341,341.409v 4.61363" fill="none" stroke="black"/>
<path d="M139.507,341.409v 4.61363" fill="none" stroke="black"/>
<path d="M153.673,336.795v 9.22726" fill="none" stroke="black"/>
<path d="M167.84,341.409v 4.61363" fill="none" stroke="black"/>
<path d="M182.006,341.409v 4.61363" fill="none" stroke="black"/>
<path d="M196.172,341.409v 4.61363" fill="none" stroke="black"/>
<path d="M210.338,341.409v 4.61363" fill="none" stroke="black"/>
<path d="M224.505,336.795v 9.22726" fill="none" stroke="black"/>
<path d="M238.671,341.409v 4.61363" fill="none" stroke="black"/>
<path d="M252.837,341.409v 4.61363" fill="none" stroke="black"/>
<path d="M267.004,341.409v 4.61363" fill="none" stroke="black"/>
<path d="M281.17,341.409v 4.61363" fill="none" stroke="black"/>
<path d="M295.336,336.795v 9.22726" fill="none" stroke="black"/>
<path d="M309.503,341.409v 4.61363" fill="none" stroke="black"/>
<path d="M323.669,341.409v 4.61363" fill="none" stroke="black"/>
<path d="M337.835,341.409v 4.61363" fill="none" stroke="black"/>
<path d="M352.002,341.409v 4.61363" fill="none" stroke="black"/>
<path d="M366.168,336.795v 9.22726" fill="none" stroke="black"/>
<path d="M380.334,341.409v 4.61363" fill="none" stroke="black"/>
<path d="M394.501,341.409v 4.61363" fill="none" stroke="black"/>
<path d="M408.667,341.409v 4.61363" fill="none" stroke="black"/>
<path d="M422.833,341.409v 4.61363" fill="none" stroke="black"/>
<path d="M436.999,336.795v 9.22726" fill="none" stroke="black"/>
<path d="M451.166,341.409v 4.61363" fill="none" stroke="black"/>
<path d="M465.332,341.409v 4.61363" fill="none" stroke="black"/>
<path d="M479.498,341.409v 4.61363" fill="none" stroke="black"/>
<path d="M493.665,341.409v 4.61363" fill="none" stroke="black"/>
<path d="M507.831,336.795v 9.22726" fill="none" stroke="black"/>
<path d="M82.8417,336.795v 9.22726" fill="none" stroke="black"/>
<path d="M68.6754,341.409v 4.61363" fill="none" stroke="black"/>
<path d="M507.831,336.795v 9.22726" fill="none" stroke="black"/>
<text xml:space="preserve" x="72.1807" y="358.403" fill="black" font-size="12.8453" font-family="Helvetica">780</text>
<text xml:space="preserve" x="143.047" y="358.403" fill="black" font-size="12.8453" font-family="Helvetica">790</text>
<text xml:space="preserve" x="213.913" y="358.403" fill="black" font-size="12.8453" font-family="Helvetica">800</text>
<text xml:space="preserve" x="283.965" y="358.403" fill="black" font-size="12.8453" font-family="Helvetica">810</text>
<text xml:space="preserve" x="354.831" y="358.403" fill="black" font-size="12.8453" font-family="Helvetica">820</text>
<text xml:space="preserve" x="425.697" y="358.403" fill="black" font-size="12.8453" font-family="Helvetica">830</text>
<text xml:space="preserve" x="496.563" y="358.403" fill="black" font-size="12.8453" font-family="Helvetica">840</text>
<text xml:space="preserve" x="460.723" y="370.622" fill="black" font-size="12.8453" font-family="Helvetica">Time [ps]</text>
<path d="M57.1929,346.022v -307.575" fill="none" stroke="black"/>
<path d="M70.7992,346.022h -13.6063" fill="none" stroke="black"/>
<path d="M63.9961,335.561h -6.80315" fill="none" stroke="black"/>
<path d="M63.9961,325.099h -6.80315" fill="none" stroke="black"/>
<path d="M63.9961,314.637h -6.80315" fill="none" stroke="black"/>
<path d="M63.9961,304.175h -6.80315" fill="none" stroke="black"/>
<path d="M70.7992,293.714h -13.6063" fill="none" stroke="black"/>
<path d="M63.9961,283.252h -6.80315" fill="none" stroke="black"/>
<path d="M63.9961,272.79h -6.80315" fill="none" stroke="black"/>
<path d="M63.9961,262.329h -6.80315" fill="none" stroke="black"/>
<path d="M63.9961,251.867h -6.80315" fill="none" stroke="black"/>
<path d="M70.7992,241.405h -13.6063" fill="none" stroke="black"/>
<path d="M63.9961,230.944h -6.80315" fill="none" stroke="black"/>
<path d="M63.9961,220.482h -6.80315" fill="none" stroke="black"/>
<path d="M63.9961,210.02h -6.80315" fill="none" stroke="black"/>
<path d="M63.9961,199.558h -6.80315" fill="none" stroke="black"/>
<path d="M70.7992,189.097h -13.6063" fill="none" stroke="black"/>
<path d="M63.9961,178.635h -6.80315" fill="none" stroke="black"/>
<path d="M63.9961,168.173h -6.80315" fill="none" stroke="black"/>
<path d="M63.9961,157.712h -6.80315" fill="none" stroke="black"/>
<path d="M63.9961,147.25h -6.80315" fill="none" stroke="black"/>
<path d="M70.7992,136.788h -13.6063" fill="none" stroke="black"/>
<path d="M63.9961,126.326h -6.80315" fill="none" stroke="black"/>
<path d="M63.9961,115.865h -6.80315" fill="none" stroke="black"/>
<path d="M63.9961,105.403h -6.80315" fill="none" stroke="black"/>
<path d="M63.9961,94.9414h -6.80315" fill="none" stroke="black"/>
<path d="M70.7992,84.4796h -13.6063" fill="none" stroke="black"/>
<path d="M70.7992,84.4796h -13.6063" fill="none" stroke="black"/>
<path d="M63.9961,74.0179h -6.80315" fill="none" stroke="black"/>
<path d="M63.9961,63.5562h -6.80315" fill="none" stroke="black"/>
<path d="M63.9961,53.0945h -6.80315" fill="none" stroke="black"/>
<path d="M63.9961,42.6328h -6.80315" fill="none" stroke="black"/>
<text xml:space="preserve" x="47.7441" y="350.258" fill="black" font-size="12.8453" font-family="Helvetica">0</text>
<text xml:space="preserve" x="41.2277" y="298.127" fill="black" font-size="12.8453" font-family="Helvetica">10</text>
<text xml:space="preserve" x="41.2277" y="245.995" fill="black" font-size="12.8453" font-family="Helvetica">20</text>
<text xml:space="preserve" x="41.2277" y="193.864" fill="black" font-size="12.8453" font-family="Helvetica">30</text>
<text xml:space="preserve" x="41.2277" y="140.918" fill="black" font-size="12.8453" font-family="Helvetica">40</text>
<text xml:space="preserve" x="41.2277" y="88.7863" fill="black" font-size="12.8453" font-family="Helvetica">50</text>
<g transform="rotate(-90,29.0094,70.0516)">
<text xml:space="preserve" x="29.0094" y="70.0516" fill="black" font-size="12.8453" font-family="Helvetica">Event</text>
</g>
<text xml:space="preserve" x="243.237" y="18.7347" fill="black" font-size="16.9898" font-family="Helvetica">560mm 15</text></svg>
