<?xml version="1.0" standalone="no"?>
<svg width="567.429" height="384.969" viewBox="0 0 567.429 384.969" xmlns="http://www.w3.org/2000/svg" shape-rendering="crispEdges">
<title>
img/week2/Combined140mm_ch_4.svg
</title>
<desc>
Creator: ROOT Version 6.22/09
CreationDate: Thu Jun 24 12:07:47 2021</desc>
<defs>
</defs>
<rect x="0.5" y="0" width="566.929" height="384.469" fill="white"/>
<rect x="57.1929" y="38.4469" width="453.543" height="307.575" fill="white"/>
<rect x="57.1929" y="38.4469" width="453.543" height="307.575" fill="none" stroke="black"/>
<rect x="57.1929" y="38.4469" width="453.543" height="307.575" fill="white"/>
<rect x="57.1929" y="38.4469" width="453.543" height="307.575" fill="none" stroke="black"/>
<path d="M57.1929,346.022h 151.181v -7.14461h 25.1968v -64.3015h 25.1968v -185.76h 25.1968v -35.723h 25.1968v 250.061h 25.1968v 42.8676h 176.378" fill="none" stroke="#000099"/>
<g fill="#ff0000">
<polygon points=" 267.13, 84.5807 275.602, 84.5807 271.366, 93.0521"/>
</g>
<path d="M59.4606,346.022h 131.528l 4.53543, -0.0343961l 4.53543, -0.052715l 4.53543, -0.122814l 4.53543, -0.271446l 4.53543, -0.568951l 4.53543, -1.13035l 4.53543, -2.12743l 4.53543, -3.79045l 4.53543, -6.38765l 4.53543, -10.1701l 4.53543, -15.2763l
 4.53543, -21.6068l 4.53543, -28.7018l 4.53543, -35.6753l 4.53543, -41.2644l 4.53543, -44.0303l 4.53543, -42.695l 4.53543, -36.5334l 3.02528, -17.1357" fill="none" stroke="#ff0000" stroke-width="2"/>
<path d="M289.641,38.4469l 1.12681, 4.99033" fill="none" stroke="#ff0000" stroke-width="2"/>
<path d="M290.768,43.4373l 4.53543, 32.5869l 4.53543, 40.753l 4.53543, 44.0346l 4.53543, 42.8278l 4.53543, 38.2289l 4.53543, 31.657l 4.53543, 24.4805l 4.53543, 17.7552l 4.53543, 12.114l 4.53543, 7.79198l 4.53543, 4.73263l 4.53543, 2.71762l 4.53543,
 1.4768l 4.53543, 0.760047l 4.53543, 0.370689l 4.53543, 0.171417l 4.53543, 0.0751889l 4.53543, 0.0507609h 136.063" fill="none" stroke="#ff0000" stroke-width="2"/>
<path d="M57.1929,346.022h 453.543" fill="none" stroke="black"/>
<path d="M105.189,336.795v 9.22726" fill="none" stroke="black"/>
<path d="M117.781,341.409v 4.61363" fill="none" stroke="black"/>
<path d="M130.373,341.409v 4.61363" fill="none" stroke="black"/>
<path d="M142.965,341.409v 4.61363" fill="none" stroke="black"/>
<path d="M155.558,341.409v 4.61363" fill="none" stroke="black"/>
<path d="M168.15,336.795v 9.22726" fill="none" stroke="black"/>
<path d="M180.742,341.409v 4.61363" fill="none" stroke="black"/>
<path d="M193.335,341.409v 4.61363" fill="none" stroke="black"/>
<path d="M205.927,341.409v 4.61363" fill="none" stroke="black"/>
<path d="M218.519,341.409v 4.61363" fill="none" stroke="black"/>
<path d="M231.111,336.795v 9.22726" fill="none" stroke="black"/>
<path d="M243.704,341.409v 4.61363" fill="none" stroke="black"/>
<path d="M256.296,341.409v 4.61363" fill="none" stroke="black"/>
<path d="M268.888,341.409v 4.61363" fill="none" stroke="black"/>
<path d="M281.481,341.409v 4.61363" fill="none" stroke="black"/>
<path d="M294.073,336.795v 9.22726" fill="none" stroke="black"/>
<path d="M306.665,341.409v 4.61363" fill="none" stroke="black"/>
<path d="M319.257,341.409v 4.61363" fill="none" stroke="black"/>
<path d="M331.85,341.409v 4.61363" fill="none" stroke="black"/>
<path d="M344.442,341.409v 4.61363" fill="none" stroke="black"/>
<path d="M357.034,336.795v 9.22726" fill="none" stroke="black"/>
<path d="M369.626,341.409v 4.61363" fill="none" stroke="black"/>
<path d="M382.219,341.409v 4.61363" fill="none" stroke="black"/>
<path d="M394.811,341.409v 4.61363" fill="none" stroke="black"/>
<path d="M407.403,341.409v 4.61363" fill="none" stroke="black"/>
<path d="M419.996,336.795v 9.22726" fill="none" stroke="black"/>
<path d="M432.588,341.409v 4.61363" fill="none" stroke="black"/>
<path d="M445.18,341.409v 4.61363" fill="none" stroke="black"/>
<path d="M457.772,341.409v 4.61363" fill="none" stroke="black"/>
<path d="M470.365,341.409v 4.61363" fill="none" stroke="black"/>
<path d="M482.957,336.795v 9.22726" fill="none" stroke="black"/>
<path d="M105.189,336.795v 9.22726" fill="none" stroke="black"/>
<path d="M92.5964,341.409v 4.61363" fill="none" stroke="black"/>
<path d="M80.0041,341.409v 4.61363" fill="none" stroke="black"/>
<path d="M67.4118,341.409v 4.61363" fill="none" stroke="black"/>
<path d="M482.957,336.795v 9.22726" fill="none" stroke="black"/>
<path d="M495.549,341.409v 4.61363" fill="none" stroke="black"/>
<path d="M508.142,341.409v 4.61363" fill="none" stroke="black"/>
<text xml:space="preserve" x="94.1736" y="358.403" fill="black" font-size="12.8453" font-family="Helvetica">780</text>
<text xml:space="preserve" x="156.894" y="358.403" fill="black" font-size="12.8453" font-family="Helvetica">790</text>
<text xml:space="preserve" x="220.429" y="358.403" fill="black" font-size="12.8453" font-family="Helvetica">800</text>
<text xml:space="preserve" x="283.15" y="358.403" fill="black" font-size="12.8453" font-family="Helvetica">810</text>
<text xml:space="preserve" x="345.871" y="358.403" fill="black" font-size="12.8453" font-family="Helvetica">820</text>
<text xml:space="preserve" x="409.406" y="358.403" fill="black" font-size="12.8453" font-family="Helvetica">830</text>
<text xml:space="preserve" x="472.126" y="358.403" fill="black" font-size="12.8453" font-family="Helvetica">840</text>
<text xml:space="preserve" x="460.723" y="370.622" fill="black" font-size="12.8453" font-family="Helvetica">Time [ps]</text>
<path d="M57.1929,346.022v -307.575" fill="none" stroke="black"/>
<path d="M70.7992,346.022h -13.6063" fill="none" stroke="black"/>
<path d="M63.9961,338.878h -6.80315" fill="none" stroke="black"/>
<path d="M63.9961,331.733h -6.80315" fill="none" stroke="black"/>
<path d="M63.9961,324.588h -6.80315" fill="none" stroke="black"/>
<path d="M63.9961,317.444h -6.80315" fill="none" stroke="black"/>
<path d="M70.7992,310.299h -13.6063" fill="none" stroke="black"/>
<path d="M63.9961,303.155h -6.80315" fill="none" stroke="black"/>
<path d="M63.9961,296.01h -6.80315" fill="none" stroke="black"/>
<path d="M63.9961,288.865h -6.80315" fill="none" stroke="black"/>
<path d="M63.9961,281.721h -6.80315" fill="none" stroke="black"/>
<path d="M70.7992,274.576h -13.6063" fill="none" stroke="black"/>
<path d="M63.9961,267.432h -6.80315" fill="none" stroke="black"/>
<path d="M63.9961,260.287h -6.80315" fill="none" stroke="black"/>
<path d="M63.9961,253.142h -6.80315" fill="none" stroke="black"/>
<path d="M63.9961,245.998h -6.80315" fill="none" stroke="black"/>
<path d="M70.7992,238.853h -13.6063" fill="none" stroke="black"/>
<path d="M63.9961,231.709h -6.80315" fill="none" stroke="black"/>
<path d="M63.9961,224.564h -6.80315" fill="none" stroke="black"/>
<path d="M63.9961,217.419h -6.80315" fill="none" stroke="black"/>
<path d="M63.9961,210.275h -6.80315" fill="none" stroke="black"/>
<path d="M70.7992,203.13h -13.6063" fill="none" stroke="black"/>
<path d="M63.9961,195.986h -6.80315" fill="none" stroke="black"/>
<path d="M63.9961,188.841h -6.80315" fill="none" stroke="black"/>
<path d="M63.9961,181.696h -6.80315" fill="none" stroke="black"/>
<path d="M63.9961,174.552h -6.80315" fill="none" stroke="black"/>
<path d="M70.7992,167.407h -13.6063" fill="none" stroke="black"/>
<path d="M63.9961,160.262h -6.80315" fill="none" stroke="black"/>
<path d="M63.9961,153.118h -6.80315" fill="none" stroke="black"/>
<path d="M63.9961,145.973h -6.80315" fill="none" stroke="black"/>
<path d="M63.9961,138.829h -6.80315" fill="none" stroke="black"/>
<path d="M70.7992,131.684h -13.6063" fill="none" stroke="black"/>
<path d="M63.9961,124.539h -6.80315" fill="none" stroke="black"/>
<path d="M63.9961,117.395h -6.80315" fill="none" stroke="black"/>
<path d="M63.9961,110.25h -6.80315" fill="none" stroke="black"/>
<path d="M63.9961,103.106h -6.80315" fill="none" stroke="black"/>
<path d="M70.7992,95.961h -13.6063" fill="none" stroke="black"/>
<path d="M63.9961,88.8164h -6.80315" fill="none" stroke="black"/>
<path d="M63.9961,81.6718h -6.80315" fill="none" stroke="black"/>
<path d="M63.9961,74.5272h -6.80315" fill="none" stroke="black"/>
<path d="M63.9961,67.3826h -6.80315" fill="none" stroke="black"/>
<path d="M70.7992,60.238h -13.6063" fill="none" stroke="black"/>
<path d="M70.7992,60.238h -13.6063" fill="none" stroke="black"/>
<path d="M63.9961,53.0934h -6.80315" fill="none" stroke="black"/>
<path d="M63.9961,45.9488h -6.80315" fill="none" stroke="black"/>
<path d="M63.9961,38.8041h -6.80315" fill="none" stroke="black"/>
<text xml:space="preserve" x="47.7441" y="350.258" fill="black" font-size="12.8453" font-family="Helvetica">0</text>
<text xml:space="preserve" x="47.7441" y="314.418" fill="black" font-size="12.8453" font-family="Helvetica">5</text>
<text xml:space="preserve" x="41.2277" y="279.392" fill="black" font-size="12.8453" font-family="Helvetica">10</text>
<text xml:space="preserve" x="40.4131" y="243.551" fill="black" font-size="12.8453" font-family="Helvetica">15</text>
<text xml:space="preserve" x="41.2277" y="207.711" fill="black" font-size="12.8453" font-family="Helvetica">20</text>
<text xml:space="preserve" x="40.4131" y="171.871" fill="black" font-size="12.8453" font-family="Helvetica">25</text>
<text xml:space="preserve" x="41.2277" y="136.03" fill="black" font-size="12.8453" font-family="Helvetica">30</text>
<text xml:space="preserve" x="40.4131" y="100.19" fill="black" font-size="12.8453" font-family="Helvetica">35</text>
<text xml:space="preserve" x="41.2277" y="64.3497" fill="black" font-size="12.8453" font-family="Helvetica">40</text>
<g transform="rotate(-90,28.1948,70.0516)">
<text xml:space="preserve" x="28.1948" y="70.0516" fill="black" font-size="12.8453" font-family="Helvetica">Event</text>
</g>
<text xml:space="preserve" x="248.124" y="18.7347" fill="black" font-size="16.9898" font-family="Helvetica">140mm 4</text></svg>
