<?xml version="1.0" standalone="no"?>
<svg width="567.429" height="386.304" viewBox="0 0 567.429 386.304" xmlns="http://www.w3.org/2000/svg" shape-rendering="crispEdges">
<title>
img/week2/Combined670mm_ch_9.svg
</title>
<desc>
Creator: ROOT Version 6.22/08
CreationDate: Mon Jun 21 21:11:23 2021</desc>
<defs>
</defs>
<rect x="0.5" y="0" width="566.929" height="385.804" fill="white"/>
<rect x="57.1929" y="38.5804" width="453.543" height="308.643" fill="white"/>
<rect x="57.1929" y="38.5804" width="453.543" height="308.643" fill="none" stroke="black"/>
<rect x="57.1929" y="38.5804" width="453.543" height="308.643" fill="white"/>
<rect x="57.1929" y="38.5804" width="453.543" height="308.643" fill="none" stroke="black"/>
<path d="M57.1929,347.224h 26.679v -9.18581h 26.679v 9.18581h 53.358v -9.18581h 26.679v 9.18581h 26.679v -45.9291h 26.679v -27.5574h 26.679v -220.46h 26.679v 119.416h 26.679v 146.973h 26.679v 27.5574h 160.074" fill="none" stroke="#000099"/>
<g fill="#ff0000">
<polygon points=" 279.741, 49.0542 288.188, 49.0542 283.965, 57.5013"/>
</g>
<path d="M59.4606,347.224h 136.063l 4.53543, -0.0428579l 4.53543, -0.0586562l 4.53543, -0.128484l 4.53543, -0.268456l 4.53543, -0.534851l 4.53543, -1.01566l 4.53543, -1.8374l 4.53543, -3.16471l 4.53543, -5.18578l 4.53543, -8.07675l 4.53543, -11.9421l
 4.53543, -16.7368l 4.53543, -22.187l 4.53543, -27.7403l 4.53543, -32.5766l 4.53543, -35.7079l 4.53543, -36.1642l 4.53543, -33.2358l 4.53543, -26.7039" fill="none" stroke="#ff0000" stroke-width="2"/>
<path d="M281.697,83.9156l 4.53543, -16.9826l 4.53543, -5.11055l 4.53543, 7.42622l 4.53543, 18.9997l 4.53543, 28.187l 4.53543, 34.0577l 4.53543, 36.3201l 4.53543, 35.2993l 4.53543, 31.7724l 4.53543, 26.7301l 4.53543, 21.1411l 4.53543, 15.78l 4.53543,
 11.1459l 4.53543, 7.46461l 4.53543, 4.74713l 4.53543, 2.86999l 4.53543, 1.651l 4.53543, 0.904359l 4.53543, 0.471974l 4.53543, 0.234794l 4.53543, 0.111384l 4.53543, 0.0504049l 4.53543, 0.0363056h 117.921" fill="none" stroke="#ff0000"
 stroke-width="2"/>
<path d="M503.933,347.224h 4.53543" fill="none" stroke="#ff0000" stroke-width="2"/>
<rect x="351.996" y="25.0773" width="204.094" height="108.025" fill="white"/>
<path d="M351.996,133.102h 204.094" fill="none" stroke="black"/>
<path d="M556.091,133.102v -108.025" fill="none" stroke="black"/>
<path d="M556.091,25.0773h -204.094" fill="none" stroke="black"/>
<path d="M351.996,25.0773v 108.025" fill="none" stroke="black"/>
<text xml:space="preserve" x="361.938" y="38.9865" fill="black" font-size="15.6962" font-family="Helvetica">Entries </text>
<text xml:space="preserve" x="524.382" y="38.9865" fill="black" font-size="15.6962" font-family="Helvetica"> 70</text>
<text xml:space="preserve" x="375.745" y="57.6676" fill="black" font-size="15.6962" font-family="Helvetica"> / ndf </text>
<text xml:space="preserve" x="370.06" y="52.7943" fill="black" font-size="10.6308" font-family="Helvetica">2</text>
<text xml:space="preserve" x="361.938" y="57.6676" fill="black" font-size="15.6962" font-family="Times">&#0967;</text>
<text xml:space="preserve" x="481.334" y="57.6676" fill="black" font-size="15.6962" font-family="Helvetica"> 7.278 / 5</text>
<text xml:space="preserve" x="361.938" y="75.5364" fill="black" font-size="15.6962" font-family="Helvetica">Prob  </text>
<text xml:space="preserve" x="494.329" y="75.5364" fill="black" font-size="15.6962" font-family="Helvetica"> 0.2008</text>
<text xml:space="preserve" x="361.938" y="94.2175" fill="black" font-size="15.6962" font-family="Helvetica">Const    </text>
<text xml:space="preserve" x="511.386" y="93.4052" fill="black" font-size="15.6962" font-family="Helvetica"> 5.55</text>
<text xml:space="preserve" x="502.452" y="93.4052" fill="black" font-size="15.6962" font-family="Times">&#0177;</text>
<text xml:space="preserve" x="454.531" y="93.4052" fill="black" font-size="15.6962" font-family="Helvetica"> 31.08 </text>
<text xml:space="preserve" x="361.938" y="111.274" fill="black" font-size="15.6962" font-family="Helvetica">Mean     </text>
<text xml:space="preserve" x="519.508" y="111.274" fill="black" font-size="15.6962" font-family="Helvetica"> 0.4</text>
<text xml:space="preserve" x="510.574" y="111.274" fill="black" font-size="15.6962" font-family="Times">&#0177;</text>
<text xml:space="preserve" x="462.653" y="111.274" fill="black" font-size="15.6962" font-family="Helvetica"> 807.4 </text>
<text xml:space="preserve" x="361.938" y="128.331" fill="black" font-size="15.6962" font-family="Helvetica">Sigma    </text>
<text xml:space="preserve" x="502.452" y="129.143" fill="black" font-size="15.6962" font-family="Helvetica"> 0.415</text>
<text xml:space="preserve" x="493.517" y="129.143" fill="black" font-size="15.6962" font-family="Times">&#0177;</text>
<text xml:space="preserve" x="445.596" y="129.143" fill="black" font-size="15.6962" font-family="Helvetica"> 3.227 </text>
<path d="M57.1929,347.224h 453.543" fill="none" stroke="black"/>
<path d="M108.012,337.964v 9.2593" fill="none" stroke="black"/>
<path d="M121.345,342.594v 4.62965" fill="none" stroke="black"/>
<path d="M134.678,342.594v 4.62965" fill="none" stroke="black"/>
<path d="M148.011,342.594v 4.62965" fill="none" stroke="black"/>
<path d="M161.344,342.594v 4.62965" fill="none" stroke="black"/>
<path d="M174.677,337.964v 9.2593" fill="none" stroke="black"/>
<path d="M188.01,342.594v 4.62965" fill="none" stroke="black"/>
<path d="M201.343,342.594v 4.62965" fill="none" stroke="black"/>
<path d="M214.676,342.594v 4.62965" fill="none" stroke="black"/>
<path d="M228.009,342.594v 4.62965" fill="none" stroke="black"/>
<path d="M241.342,337.964v 9.2593" fill="none" stroke="black"/>
<path d="M254.675,342.594v 4.62965" fill="none" stroke="black"/>
<path d="M268.008,342.594v 4.62965" fill="none" stroke="black"/>
<path d="M281.341,342.594v 4.62965" fill="none" stroke="black"/>
<path d="M294.674,342.594v 4.62965" fill="none" stroke="black"/>
<path d="M308.007,337.964v 9.2593" fill="none" stroke="black"/>
<path d="M321.34,342.594v 4.62965" fill="none" stroke="black"/>
<path d="M334.673,342.594v 4.62965" fill="none" stroke="black"/>
<path d="M348.006,342.594v 4.62965" fill="none" stroke="black"/>
<path d="M361.339,342.594v 4.62965" fill="none" stroke="black"/>
<path d="M374.672,337.964v 9.2593" fill="none" stroke="black"/>
<path d="M388.005,342.594v 4.62965" fill="none" stroke="black"/>
<path d="M401.338,342.594v 4.62965" fill="none" stroke="black"/>
<path d="M414.671,342.594v 4.62965" fill="none" stroke="black"/>
<path d="M428.004,342.594v 4.62965" fill="none" stroke="black"/>
<path d="M441.337,337.964v 9.2593" fill="none" stroke="black"/>
<path d="M454.67,342.594v 4.62965" fill="none" stroke="black"/>
<path d="M468.003,342.594v 4.62965" fill="none" stroke="black"/>
<path d="M481.336,342.594v 4.62965" fill="none" stroke="black"/>
<path d="M494.669,342.594v 4.62965" fill="none" stroke="black"/>
<path d="M508.002,337.964v 9.2593" fill="none" stroke="black"/>
<path d="M108.012,337.964v 9.2593" fill="none" stroke="black"/>
<path d="M94.679,342.594v 4.62965" fill="none" stroke="black"/>
<path d="M81.346,342.594v 4.62965" fill="none" stroke="black"/>
<path d="M68.013,342.594v 4.62965" fill="none" stroke="black"/>
<path d="M508.002,337.964v 9.2593" fill="none" stroke="black"/>
<text xml:space="preserve" x="96.3419" y="359.813" fill="black" font-size="12.8882" font-family="Helvetica">780</text>
<text xml:space="preserve" x="162.944" y="359.813" fill="black" font-size="12.8882" font-family="Helvetica">790</text>
<text xml:space="preserve" x="229.546" y="359.813" fill="black" font-size="12.8882" font-family="Helvetica">800</text>
<text xml:space="preserve" x="296.148" y="359.813" fill="black" font-size="12.8882" font-family="Helvetica">810</text>
<text xml:space="preserve" x="362.75" y="359.813" fill="black" font-size="12.8882" font-family="Helvetica">820</text>
<text xml:space="preserve" x="429.352" y="359.813" fill="black" font-size="12.8882" font-family="Helvetica">830</text>
<text xml:space="preserve" x="495.954" y="359.813" fill="black" font-size="12.8882" font-family="Helvetica">840</text>
<text xml:space="preserve" x="481.334" y="373.621" fill="black" font-size="12.8882" font-family="Helvetica">Time</text>
<path d="M57.1929,347.224v -308.643" fill="none" stroke="black"/>
<path d="M70.7992,347.224h -13.6063" fill="none" stroke="black"/>
<path d="M63.9961,338.038h -6.80315" fill="none" stroke="black"/>
<path d="M63.9961,328.852h -6.80315" fill="none" stroke="black"/>
<path d="M63.9961,319.666h -6.80315" fill="none" stroke="black"/>
<path d="M63.9961,310.481h -6.80315" fill="none" stroke="black"/>
<path d="M70.7992,301.295h -13.6063" fill="none" stroke="black"/>
<path d="M63.9961,292.109h -6.80315" fill="none" stroke="black"/>
<path d="M63.9961,282.923h -6.80315" fill="none" stroke="black"/>
<path d="M63.9961,273.737h -6.80315" fill="none" stroke="black"/>
<path d="M63.9961,264.551h -6.80315" fill="none" stroke="black"/>
<path d="M70.7992,255.366h -13.6063" fill="none" stroke="black"/>
<path d="M63.9961,246.18h -6.80315" fill="none" stroke="black"/>
<path d="M63.9961,236.994h -6.80315" fill="none" stroke="black"/>
<path d="M63.9961,227.808h -6.80315" fill="none" stroke="black"/>
<path d="M63.9961,218.622h -6.80315" fill="none" stroke="black"/>
<path d="M70.7992,209.437h -13.6063" fill="none" stroke="black"/>
<path d="M63.9961,200.251h -6.80315" fill="none" stroke="black"/>
<path d="M63.9961,191.065h -6.80315" fill="none" stroke="black"/>
<path d="M63.9961,181.879h -6.80315" fill="none" stroke="black"/>
<path d="M63.9961,172.693h -6.80315" fill="none" stroke="black"/>
<path d="M70.7992,163.508h -13.6063" fill="none" stroke="black"/>
<path d="M63.9961,154.322h -6.80315" fill="none" stroke="black"/>
<path d="M63.9961,145.136h -6.80315" fill="none" stroke="black"/>
<path d="M63.9961,135.95h -6.80315" fill="none" stroke="black"/>
<path d="M63.9961,126.764h -6.80315" fill="none" stroke="black"/>
<path d="M70.7992,117.578h -13.6063" fill="none" stroke="black"/>
<path d="M63.9961,108.393h -6.80315" fill="none" stroke="black"/>
<path d="M63.9961,99.2068h -6.80315" fill="none" stroke="black"/>
<path d="M63.9961,90.021h -6.80315" fill="none" stroke="black"/>
<path d="M63.9961,80.8352h -6.80315" fill="none" stroke="black"/>
<path d="M70.7992,71.6494h -13.6063" fill="none" stroke="black"/>
<path d="M70.7992,71.6494h -13.6063" fill="none" stroke="black"/>
<path d="M63.9961,62.4635h -6.80315" fill="none" stroke="black"/>
<path d="M63.9961,53.2777h -6.80315" fill="none" stroke="black"/>
<path d="M63.9961,44.0919h -6.80315" fill="none" stroke="black"/>
<text xml:space="preserve" x="46.7965" y="351.691" fill="black" font-size="12.8882" font-family="Helvetica">0</text>
<text xml:space="preserve" x="46.7965" y="305.395" fill="black" font-size="12.8882" font-family="Helvetica">5</text>
<text xml:space="preserve" x="39.4865" y="259.91" fill="black" font-size="12.8882" font-family="Helvetica">10</text>
<text xml:space="preserve" x="39.4865" y="213.614" fill="black" font-size="12.8882" font-family="Helvetica">15</text>
<text xml:space="preserve" x="39.4865" y="168.129" fill="black" font-size="12.8882" font-family="Helvetica">20</text>
<text xml:space="preserve" x="39.4865" y="121.833" fill="black" font-size="12.8882" font-family="Helvetica">25</text>
<text xml:space="preserve" x="39.4865" y="76.3486" fill="black" font-size="12.8882" font-family="Helvetica">30</text>
<g transform="rotate(-90,28.9277,71.4753)">
<text xml:space="preserve" x="28.9277" y="71.4753" fill="black" font-size="12.8882" font-family="Helvetica">Event</text>
</g>
<rect x="351.996" y="25.0773" width="204.094" height="108.025" fill="white"/>
<path d="M351.996,133.102h 204.094" fill="none" stroke="black"/>
<path d="M556.091,133.102v -108.025" fill="none" stroke="black"/>
<path d="M556.091,25.0773h -204.094" fill="none" stroke="black"/>
<path d="M351.996,25.0773v 108.025" fill="none" stroke="black"/>
<text xml:space="preserve" x="361.938" y="38.9865" fill="black" font-size="15.6962" font-family="Helvetica">Entries </text>
<text xml:space="preserve" x="524.382" y="38.9865" fill="black" font-size="15.6962" font-family="Helvetica"> 70</text>
<text xml:space="preserve" x="375.745" y="57.6676" fill="black" font-size="15.6962" font-family="Helvetica"> / ndf </text>
<text xml:space="preserve" x="370.06" y="52.7943" fill="black" font-size="10.6308" font-family="Helvetica">2</text>
<text xml:space="preserve" x="361.938" y="57.6676" fill="black" font-size="15.6962" font-family="Times">&#0967;</text>
<text xml:space="preserve" x="481.334" y="57.6676" fill="black" font-size="15.6962" font-family="Helvetica"> 7.278 / 5</text>
<text xml:space="preserve" x="361.938" y="75.5364" fill="black" font-size="15.6962" font-family="Helvetica">Prob  </text>
<text xml:space="preserve" x="494.329" y="75.5364" fill="black" font-size="15.6962" font-family="Helvetica"> 0.2008</text>
<text xml:space="preserve" x="361.938" y="94.2175" fill="black" font-size="15.6962" font-family="Helvetica">Const    </text>
<text xml:space="preserve" x="511.386" y="93.4052" fill="black" font-size="15.6962" font-family="Helvetica"> 5.55</text>
<text xml:space="preserve" x="502.452" y="93.4052" fill="black" font-size="15.6962" font-family="Times">&#0177;</text>
<text xml:space="preserve" x="454.531" y="93.4052" fill="black" font-size="15.6962" font-family="Helvetica"> 31.08 </text>
<text xml:space="preserve" x="361.938" y="111.274" fill="black" font-size="15.6962" font-family="Helvetica">Mean     </text>
<text xml:space="preserve" x="519.508" y="111.274" fill="black" font-size="15.6962" font-family="Helvetica"> 0.4</text>
<text xml:space="preserve" x="510.574" y="111.274" fill="black" font-size="15.6962" font-family="Times">&#0177;</text>
<text xml:space="preserve" x="462.653" y="111.274" fill="black" font-size="15.6962" font-family="Helvetica"> 807.4 </text>
<text xml:space="preserve" x="361.938" y="128.331" fill="black" font-size="15.6962" font-family="Helvetica">Sigma    </text>
<text xml:space="preserve" x="502.452" y="129.143" fill="black" font-size="15.6962" font-family="Helvetica"> 0.415</text>
<text xml:space="preserve" x="493.517" y="129.143" fill="black" font-size="15.6962" font-family="Times">&#0177;</text>
<text xml:space="preserve" x="445.596" y="129.143" fill="black" font-size="15.6962" font-family="Helvetica"> 3.227 </text>
<text xml:space="preserve" x="248.227" y="18.681" fill="black" font-size="17.0471" font-family="Helvetica">670mm 9</text></svg>
