<?xml version="1.0" standalone="no"?>
<svg width="567.429" height="384.969" viewBox="0 0 567.429 384.969" xmlns="http://www.w3.org/2000/svg" shape-rendering="crispEdges">
<title>
img/week2/Combined280mm_ch_52.svg
</title>
<desc>
Creator: ROOT Version 6.22/09
CreationDate: Thu Jun 24 12:33:05 2021</desc>
<defs>
</defs>
<rect x="0.5" y="0" width="566.929" height="384.469" fill="white"/>
<rect x="57.1929" y="38.4469" width="453.543" height="307.575" fill="white"/>
<rect x="57.1929" y="38.4469" width="453.543" height="307.575" fill="none" stroke="black"/>
<rect x="57.1929" y="38.4469" width="453.543" height="307.575" fill="white"/>
<rect x="57.1929" y="38.4469" width="453.543" height="307.575" fill="none" stroke="black"/>
<path d="M57.1929,346.022h 139.552v -14.4656h 34.8879v -72.3281h 34.8879v -206.135h 34.8879v 249.532h 34.8879v 43.3969h 174.44" fill="none" stroke="#000099"/>
<g fill="#ff0000">
<polygon points=" 279.729, 48.8577 288.2, 48.8577 283.965, 57.329"/>
</g>
<path d="M59.4606,346.022h 131.528l 4.53543, -0.0414549l 4.53543, -0.0634006l 4.53543, -0.147113l 4.53543, -0.323261l 4.53543, -0.672372l 4.53543, -1.32309l 4.53543, -2.46158l 4.53543, -4.32649l 4.53543, -7.17654l 4.53543, -11.22l 4.53543, -16.5055l
 4.53543, -22.7943l 4.53543, -29.4576l 4.53543, -35.4577l 4.53543, -39.4682l 4.53543, -40.1442l 4.53543, -36.4973l 4.53543, -28.2595l 4.53543, -16.0986l 4.53543, -1.57366" fill="none" stroke="#ff0000" stroke-width="2"/>
<path d="M281.697,52.0104l 4.53543, 13.1871l 4.53543, 25.9977l 4.53543, 35.1445l 4.53543, 39.7601l 4.53543, 39.9267l 4.53543, 36.5092l 4.53543, 30.8102l 4.53543, 24.1875l 4.53543, 17.754l 4.53543, 12.2268l 4.53543, 7.91964l 4.53543, 4.83345l 4.53543,
 2.78331l 4.53543, 1.51383l 4.53543, 0.778347l 4.53543, 0.378563l 4.53543, 0.174266l 4.53543, 0.0759616l 4.53543, 0.0505607h 136.063" fill="none" stroke="#ff0000" stroke-width="2"/>
<path d="M503.933,346.022h 4.53543" fill="none" stroke="#ff0000" stroke-width="2"/>
<path d="M57.1929,346.022h 453.543" fill="none" stroke="black"/>
<path d="M106.162,336.795v 9.22726" fill="none" stroke="black"/>
<path d="M123.597,341.409v 4.61363" fill="none" stroke="black"/>
<path d="M141.033,341.409v 4.61363" fill="none" stroke="black"/>
<path d="M158.468,341.409v 4.61363" fill="none" stroke="black"/>
<path d="M175.904,341.409v 4.61363" fill="none" stroke="black"/>
<path d="M193.339,336.795v 9.22726" fill="none" stroke="black"/>
<path d="M210.775,341.409v 4.61363" fill="none" stroke="black"/>
<path d="M228.21,341.409v 4.61363" fill="none" stroke="black"/>
<path d="M245.646,341.409v 4.61363" fill="none" stroke="black"/>
<path d="M263.081,341.409v 4.61363" fill="none" stroke="black"/>
<path d="M280.517,336.795v 9.22726" fill="none" stroke="black"/>
<path d="M297.952,341.409v 4.61363" fill="none" stroke="black"/>
<path d="M315.388,341.409v 4.61363" fill="none" stroke="black"/>
<path d="M332.823,341.409v 4.61363" fill="none" stroke="black"/>
<path d="M350.258,341.409v 4.61363" fill="none" stroke="black"/>
<path d="M367.694,336.795v 9.22726" fill="none" stroke="black"/>
<path d="M385.129,341.409v 4.61363" fill="none" stroke="black"/>
<path d="M402.565,341.409v 4.61363" fill="none" stroke="black"/>
<path d="M420,341.409v 4.61363" fill="none" stroke="black"/>
<path d="M437.436,341.409v 4.61363" fill="none" stroke="black"/>
<path d="M454.871,336.795v 9.22726" fill="none" stroke="black"/>
<path d="M106.162,336.795v 9.22726" fill="none" stroke="black"/>
<path d="M88.7266,341.409v 4.61363" fill="none" stroke="black"/>
<path d="M71.2911,341.409v 4.61363" fill="none" stroke="black"/>
<path d="M454.871,336.795v 9.22726" fill="none" stroke="black"/>
<path d="M472.307,341.409v 4.61363" fill="none" stroke="black"/>
<path d="M489.742,341.409v 4.61363" fill="none" stroke="black"/>
<path d="M507.178,341.409v 4.61363" fill="none" stroke="black"/>
<text xml:space="preserve" x="94.9882" y="358.403" fill="black" font-size="12.8453" font-family="Helvetica">790</text>
<text xml:space="preserve" x="182.145" y="358.403" fill="black" font-size="12.8453" font-family="Helvetica">800</text>
<text xml:space="preserve" x="269.303" y="358.403" fill="black" font-size="12.8453" font-family="Helvetica">810</text>
<text xml:space="preserve" x="356.46" y="358.403" fill="black" font-size="12.8453" font-family="Helvetica">820</text>
<text xml:space="preserve" x="443.617" y="358.403" fill="black" font-size="12.8453" font-family="Helvetica">830</text>
<text xml:space="preserve" x="460.723" y="370.622" fill="black" font-size="12.8453" font-family="Helvetica">Time [ns]</text>
<path d="M57.1929,346.022v -307.575" fill="none" stroke="black"/>
<path d="M70.7992,346.022h -13.6063" fill="none" stroke="black"/>
<path d="M63.9961,338.789h -6.80315" fill="none" stroke="black"/>
<path d="M63.9961,331.557h -6.80315" fill="none" stroke="black"/>
<path d="M63.9961,324.324h -6.80315" fill="none" stroke="black"/>
<path d="M63.9961,317.091h -6.80315" fill="none" stroke="black"/>
<path d="M70.7992,309.858h -13.6063" fill="none" stroke="black"/>
<path d="M63.9961,302.625h -6.80315" fill="none" stroke="black"/>
<path d="M63.9961,295.393h -6.80315" fill="none" stroke="black"/>
<path d="M63.9961,288.16h -6.80315" fill="none" stroke="black"/>
<path d="M63.9961,280.927h -6.80315" fill="none" stroke="black"/>
<path d="M70.7992,273.694h -13.6063" fill="none" stroke="black"/>
<path d="M63.9961,266.461h -6.80315" fill="none" stroke="black"/>
<path d="M63.9961,259.229h -6.80315" fill="none" stroke="black"/>
<path d="M63.9961,251.996h -6.80315" fill="none" stroke="black"/>
<path d="M63.9961,244.763h -6.80315" fill="none" stroke="black"/>
<path d="M70.7992,237.53h -13.6063" fill="none" stroke="black"/>
<path d="M63.9961,230.297h -6.80315" fill="none" stroke="black"/>
<path d="M63.9961,223.064h -6.80315" fill="none" stroke="black"/>
<path d="M63.9961,215.832h -6.80315" fill="none" stroke="black"/>
<path d="M63.9961,208.599h -6.80315" fill="none" stroke="black"/>
<path d="M70.7992,201.366h -13.6063" fill="none" stroke="black"/>
<path d="M63.9961,194.133h -6.80315" fill="none" stroke="black"/>
<path d="M63.9961,186.9h -6.80315" fill="none" stroke="black"/>
<path d="M63.9961,179.668h -6.80315" fill="none" stroke="black"/>
<path d="M63.9961,172.435h -6.80315" fill="none" stroke="black"/>
<path d="M70.7992,165.202h -13.6063" fill="none" stroke="black"/>
<path d="M63.9961,157.969h -6.80315" fill="none" stroke="black"/>
<path d="M63.9961,150.736h -6.80315" fill="none" stroke="black"/>
<path d="M63.9961,143.504h -6.80315" fill="none" stroke="black"/>
<path d="M63.9961,136.271h -6.80315" fill="none" stroke="black"/>
<path d="M70.7992,129.038h -13.6063" fill="none" stroke="black"/>
<path d="M63.9961,121.805h -6.80315" fill="none" stroke="black"/>
<path d="M63.9961,114.572h -6.80315" fill="none" stroke="black"/>
<path d="M63.9961,107.339h -6.80315" fill="none" stroke="black"/>
<path d="M63.9961,100.107h -6.80315" fill="none" stroke="black"/>
<path d="M70.7992,92.8738h -13.6063" fill="none" stroke="black"/>
<path d="M63.9961,85.641h -6.80315" fill="none" stroke="black"/>
<path d="M63.9961,78.4082h -6.80315" fill="none" stroke="black"/>
<path d="M63.9961,71.1754h -6.80315" fill="none" stroke="black"/>
<path d="M63.9961,63.9426h -6.80315" fill="none" stroke="black"/>
<path d="M70.7992,56.7098h -13.6063" fill="none" stroke="black"/>
<path d="M70.7992,56.7098h -13.6063" fill="none" stroke="black"/>
<path d="M63.9961,49.477h -6.80315" fill="none" stroke="black"/>
<path d="M63.9961,42.2441h -6.80315" fill="none" stroke="black"/>
<text xml:space="preserve" x="47.7441" y="350.258" fill="black" font-size="12.8453" font-family="Helvetica">0</text>
<text xml:space="preserve" x="41.2277" y="314.418" fill="black" font-size="12.8453" font-family="Helvetica">10</text>
<text xml:space="preserve" x="41.2277" y="278.577" fill="black" font-size="12.8453" font-family="Helvetica">20</text>
<text xml:space="preserve" x="41.2277" y="241.922" fill="black" font-size="12.8453" font-family="Helvetica">30</text>
<text xml:space="preserve" x="41.2277" y="206.082" fill="black" font-size="12.8453" font-family="Helvetica">40</text>
<text xml:space="preserve" x="41.2277" y="169.427" fill="black" font-size="12.8453" font-family="Helvetica">50</text>
<text xml:space="preserve" x="41.2277" y="133.587" fill="black" font-size="12.8453" font-family="Helvetica">60</text>
<text xml:space="preserve" x="41.2277" y="97.7464" fill="black" font-size="12.8453" font-family="Helvetica">70</text>
<text xml:space="preserve" x="41.2277" y="61.0915" fill="black" font-size="12.8453" font-family="Helvetica">80</text>
<g transform="rotate(-90,29.0094,70.0516)">
<text xml:space="preserve" x="29.0094" y="70.0516" fill="black" font-size="12.8453" font-family="Helvetica">Event</text>
</g>
<text xml:space="preserve" x="243.237" y="18.7347" fill="black" font-size="16.9898" font-family="Helvetica">280mm 52</text></svg>
