<?xml version="1.0" standalone="no"?>
<svg width="567.429" height="384.969" viewBox="0 0 567.429 384.969" xmlns="http://www.w3.org/2000/svg" shape-rendering="crispEdges">
<title>
img/week2/Combined140mm_ch_34.svg
</title>
<desc>
Creator: ROOT Version 6.22/09
CreationDate: Thu Jun 24 12:33:06 2021</desc>
<defs>
</defs>
<rect x="0.5" y="0" width="566.929" height="384.469" fill="white"/>
<rect x="57.1929" y="38.4469" width="453.543" height="307.575" fill="white"/>
<rect x="57.1929" y="38.4469" width="453.543" height="307.575" fill="none" stroke="black"/>
<rect x="57.1929" y="38.4469" width="453.543" height="307.575" fill="white"/>
<rect x="57.1929" y="38.4469" width="453.543" height="307.575" fill="none" stroke="black"/>
<path d="M57.1929,346.022h 69.7759v -1.6835h 34.8879v -5.0505h 34.8879v 6.734h 34.8879v -65.6565h 34.8879v -227.272h 34.8879v 225.589h 34.8879v 67.34h 174.44" fill="none" stroke="#000099"/>
<g fill="#ff0000">
<polygon points=" 279.729, 48.8577 288.2, 48.8577 283.965, 57.329"/>
</g>
<path d="M59.4606,346.022h 136.063l 4.53543, -0.0535622l 4.53543, -0.0786758l 4.53543, -0.178281l 4.53543, -0.382995l 4.53543, -0.779667l 4.53543, -1.50322l 4.53543, -2.74313l 4.53543, -4.73403l 4.53543, -7.71842l 4.53543, -11.8732l 4.53543,
 -17.2026l 4.53543, -23.4202l 4.53543, -29.8626l 4.53543, -35.491l 4.53543, -39.0243l 4.53543, -39.2088l 4.53543, -35.172l 4.53543, -26.7518l 4.53543, -14.6729" fill="none" stroke="#ff0000" stroke-width="2"/>
<path d="M281.697,55.1709l 4.53543, -0.479678l 4.53543, 13.7839l 4.53543, 26.0569l 4.53543, 34.7499l 4.53543, 39.0791l 4.53543, 39.1516l 4.53543, 35.8023l 4.53543, 30.2709l 4.53543, 23.8464l 4.53543, 17.5893l 4.53543, 12.1889l 4.53543, 7.95447l
 4.53543, 4.89729l 4.53543, 2.84826l 4.53543, 1.56653l 4.53543, 0.815428l 4.53543, 0.401989l 4.53543, 0.187784l 4.53543, 0.0831596l 4.53543, 0.0569296h 131.528" fill="none" stroke="#ff0000" stroke-width="2"/>
<path d="M503.933,346.022h 4.53543" fill="none" stroke="#ff0000" stroke-width="2"/>
<path d="M57.1929,346.022h 453.543" fill="none" stroke="black"/>
<path d="M106.162,336.795v 9.22726" fill="none" stroke="black"/>
<path d="M123.597,341.409v 4.61363" fill="none" stroke="black"/>
<path d="M141.033,341.409v 4.61363" fill="none" stroke="black"/>
<path d="M158.468,341.409v 4.61363" fill="none" stroke="black"/>
<path d="M175.904,341.409v 4.61363" fill="none" stroke="black"/>
<path d="M193.339,336.795v 9.22726" fill="none" stroke="black"/>
<path d="M210.775,341.409v 4.61363" fill="none" stroke="black"/>
<path d="M228.21,341.409v 4.61363" fill="none" stroke="black"/>
<path d="M245.646,341.409v 4.61363" fill="none" stroke="black"/>
<path d="M263.081,341.409v 4.61363" fill="none" stroke="black"/>
<path d="M280.517,336.795v 9.22726" fill="none" stroke="black"/>
<path d="M297.952,341.409v 4.61363" fill="none" stroke="black"/>
<path d="M315.388,341.409v 4.61363" fill="none" stroke="black"/>
<path d="M332.823,341.409v 4.61363" fill="none" stroke="black"/>
<path d="M350.258,341.409v 4.61363" fill="none" stroke="black"/>
<path d="M367.694,336.795v 9.22726" fill="none" stroke="black"/>
<path d="M385.129,341.409v 4.61363" fill="none" stroke="black"/>
<path d="M402.565,341.409v 4.61363" fill="none" stroke="black"/>
<path d="M420,341.409v 4.61363" fill="none" stroke="black"/>
<path d="M437.436,341.409v 4.61363" fill="none" stroke="black"/>
<path d="M454.871,336.795v 9.22726" fill="none" stroke="black"/>
<path d="M106.162,336.795v 9.22726" fill="none" stroke="black"/>
<path d="M88.7266,341.409v 4.61363" fill="none" stroke="black"/>
<path d="M71.2911,341.409v 4.61363" fill="none" stroke="black"/>
<path d="M454.871,336.795v 9.22726" fill="none" stroke="black"/>
<path d="M472.307,341.409v 4.61363" fill="none" stroke="black"/>
<path d="M489.742,341.409v 4.61363" fill="none" stroke="black"/>
<path d="M507.178,341.409v 4.61363" fill="none" stroke="black"/>
<text xml:space="preserve" x="94.9882" y="358.403" fill="black" font-size="12.8453" font-family="Helvetica">790</text>
<text xml:space="preserve" x="182.145" y="358.403" fill="black" font-size="12.8453" font-family="Helvetica">800</text>
<text xml:space="preserve" x="269.303" y="358.403" fill="black" font-size="12.8453" font-family="Helvetica">810</text>
<text xml:space="preserve" x="356.46" y="358.403" fill="black" font-size="12.8453" font-family="Helvetica">820</text>
<text xml:space="preserve" x="443.617" y="358.403" fill="black" font-size="12.8453" font-family="Helvetica">830</text>
<text xml:space="preserve" x="460.723" y="370.622" fill="black" font-size="12.8453" font-family="Helvetica">Time [ns]</text>
<path d="M57.1929,346.022v -307.575" fill="none" stroke="black"/>
<path d="M70.7992,346.022h -13.6063" fill="none" stroke="black"/>
<path d="M63.9961,337.605h -6.80315" fill="none" stroke="black"/>
<path d="M63.9961,329.187h -6.80315" fill="none" stroke="black"/>
<path d="M63.9961,320.77h -6.80315" fill="none" stroke="black"/>
<path d="M70.7992,312.352h -13.6063" fill="none" stroke="black"/>
<path d="M63.9961,303.935h -6.80315" fill="none" stroke="black"/>
<path d="M63.9961,295.517h -6.80315" fill="none" stroke="black"/>
<path d="M63.9961,287.1h -6.80315" fill="none" stroke="black"/>
<path d="M70.7992,278.682h -13.6063" fill="none" stroke="black"/>
<path d="M63.9961,270.265h -6.80315" fill="none" stroke="black"/>
<path d="M63.9961,261.847h -6.80315" fill="none" stroke="black"/>
<path d="M63.9961,253.43h -6.80315" fill="none" stroke="black"/>
<path d="M70.7992,245.012h -13.6063" fill="none" stroke="black"/>
<path d="M63.9961,236.595h -6.80315" fill="none" stroke="black"/>
<path d="M63.9961,228.177h -6.80315" fill="none" stroke="black"/>
<path d="M63.9961,219.76h -6.80315" fill="none" stroke="black"/>
<path d="M70.7992,211.342h -13.6063" fill="none" stroke="black"/>
<path d="M63.9961,202.925h -6.80315" fill="none" stroke="black"/>
<path d="M63.9961,194.507h -6.80315" fill="none" stroke="black"/>
<path d="M63.9961,186.09h -6.80315" fill="none" stroke="black"/>
<path d="M70.7992,177.672h -13.6063" fill="none" stroke="black"/>
<path d="M63.9961,169.255h -6.80315" fill="none" stroke="black"/>
<path d="M63.9961,160.837h -6.80315" fill="none" stroke="black"/>
<path d="M63.9961,152.42h -6.80315" fill="none" stroke="black"/>
<path d="M70.7992,144.002h -13.6063" fill="none" stroke="black"/>
<path d="M63.9961,135.585h -6.80315" fill="none" stroke="black"/>
<path d="M63.9961,127.167h -6.80315" fill="none" stroke="black"/>
<path d="M63.9961,118.75h -6.80315" fill="none" stroke="black"/>
<path d="M70.7992,110.332h -13.6063" fill="none" stroke="black"/>
<path d="M63.9961,101.915h -6.80315" fill="none" stroke="black"/>
<path d="M63.9961,93.4974h -6.80315" fill="none" stroke="black"/>
<path d="M63.9961,85.0798h -6.80315" fill="none" stroke="black"/>
<path d="M70.7992,76.6624h -13.6063" fill="none" stroke="black"/>
<path d="M63.9961,68.2449h -6.80315" fill="none" stroke="black"/>
<path d="M63.9961,59.8274h -6.80315" fill="none" stroke="black"/>
<path d="M63.9961,51.4099h -6.80315" fill="none" stroke="black"/>
<path d="M70.7992,42.9924h -13.6063" fill="none" stroke="black"/>
<path d="M70.7992,42.9924h -13.6063" fill="none" stroke="black"/>
<text xml:space="preserve" x="47.7441" y="350.258" fill="black" font-size="12.8453" font-family="Helvetica">0</text>
<text xml:space="preserve" x="41.2277" y="316.861" fill="black" font-size="12.8453" font-family="Helvetica">20</text>
<text xml:space="preserve" x="41.2277" y="283.465" fill="black" font-size="12.8453" font-family="Helvetica">40</text>
<text xml:space="preserve" x="41.2277" y="249.253" fill="black" font-size="12.8453" font-family="Helvetica">60</text>
<text xml:space="preserve" x="41.2277" y="215.857" fill="black" font-size="12.8453" font-family="Helvetica">80</text>
<text xml:space="preserve" x="33.8967" y="182.46" fill="black" font-size="12.8453" font-family="Helvetica">100</text>
<text xml:space="preserve" x="33.8967" y="148.249" fill="black" font-size="12.8453" font-family="Helvetica">120</text>
<text xml:space="preserve" x="33.8967" y="114.852" fill="black" font-size="12.8453" font-family="Helvetica">140</text>
<text xml:space="preserve" x="33.8967" y="81.4553" fill="black" font-size="12.8453" font-family="Helvetica">160</text>
<text xml:space="preserve" x="33.8967" y="47.2441" fill="black" font-size="12.8453" font-family="Helvetica">180</text>
<g transform="rotate(-90,20.8638,70.0516)">
<text xml:space="preserve" x="20.8638" y="70.0516" fill="black" font-size="12.8453" font-family="Helvetica">Event</text>
</g>
<text xml:space="preserve" x="243.237" y="18.7347" fill="black" font-size="16.9898" font-family="Helvetica">140mm 34</text></svg>
