<?xml version="1.0" standalone="no"?>
<svg width="567.429" height="384.969" viewBox="0 0 567.429 384.969" xmlns="http://www.w3.org/2000/svg" shape-rendering="crispEdges">
<title>
img/week2/Combined280mm_ch_51.svg
</title>
<desc>
Creator: ROOT Version 6.22/09
CreationDate: Thu Jun 24 12:07:48 2021</desc>
<defs>
</defs>
<rect x="0.5" y="0" width="566.929" height="384.469" fill="white"/>
<rect x="57.1929" y="38.4469" width="453.543" height="307.575" fill="white"/>
<rect x="57.1929" y="38.4469" width="453.543" height="307.575" fill="none" stroke="black"/>
<rect x="57.1929" y="38.4469" width="453.543" height="307.575" fill="white"/>
<rect x="57.1929" y="38.4469" width="453.543" height="307.575" fill="none" stroke="black"/>
<path d="M57.1929,346.022h 151.181v -22.2478h 30.2362v -189.106h 30.2362v -81.5751h 30.2362v 248.433h 30.2362v 44.4955h 181.417" fill="none" stroke="#000099"/>
<g fill="#ff0000">
<polygon points=" 279.729, 48.8577 288.2, 48.8577 283.965, 57.329"/>
</g>
<path d="M59.4606,346.022h 122.457l 4.53543, -0.0620089l 4.53543, -0.0870718l 4.53543, -0.192783l 4.53543, -0.405875l 4.53543, -0.812214l 4.53543, -1.54416l 4.53543, -2.78742l 4.53543, -4.77402l 4.53543, -7.75079l 4.53543, -11.9147l 4.53543,
 -17.3161l 4.53543, -23.7451l 4.53543, -30.6382l 4.53543, -37.0523l 4.53543, -41.7517l 4.53543, -43.4266l 4.53543, -41.0108l 4.53543, -34.0188l 1.64897, -8.28459" fill="none" stroke="#ff0000" stroke-width="2"/>
<path d="M280.567,38.4469l 1.1302, 5.3381" fill="none" stroke="#ff0000" stroke-width="2"/>
<path d="M281.697,43.785l 4.53543, 33.0383l 4.53543, 40.5004l 4.53543, 43.3803l 4.53543, 42.0871l 4.53543, 37.6415l 4.53543, 31.3442l 4.53543, 24.4508l 4.53543, 17.9409l 4.53543, 12.4179l 4.53543, 8.1246l 4.53543, 5.03237l 4.53543, 2.95445l 4.53543,
 1.64557l 4.53543, 0.870187l 4.53543, 0.437149l 4.53543, 0.208729l 4.53543, 0.0947651l 4.53543, 0.0680571h 136.063" fill="none" stroke="#ff0000" stroke-width="2"/>
<path d="M499.398,346.022h 9.07087" fill="none" stroke="#ff0000" stroke-width="2"/>
<path d="M57.1929,346.022h 453.543" fill="none" stroke="black"/>
<path d="M129.869,336.795v 9.22726" fill="none" stroke="black"/>
<path d="M144.98,341.409v 4.61363" fill="none" stroke="black"/>
<path d="M160.09,341.409v 4.61363" fill="none" stroke="black"/>
<path d="M175.201,341.409v 4.61363" fill="none" stroke="black"/>
<path d="M190.312,341.409v 4.61363" fill="none" stroke="black"/>
<path d="M205.423,336.795v 9.22726" fill="none" stroke="black"/>
<path d="M220.533,341.409v 4.61363" fill="none" stroke="black"/>
<path d="M235.644,341.409v 4.61363" fill="none" stroke="black"/>
<path d="M250.755,341.409v 4.61363" fill="none" stroke="black"/>
<path d="M265.866,341.409v 4.61363" fill="none" stroke="black"/>
<path d="M280.976,336.795v 9.22726" fill="none" stroke="black"/>
<path d="M296.087,341.409v 4.61363" fill="none" stroke="black"/>
<path d="M311.198,341.409v 4.61363" fill="none" stroke="black"/>
<path d="M326.309,341.409v 4.61363" fill="none" stroke="black"/>
<path d="M341.419,341.409v 4.61363" fill="none" stroke="black"/>
<path d="M356.53,336.795v 9.22726" fill="none" stroke="black"/>
<path d="M371.641,341.409v 4.61363" fill="none" stroke="black"/>
<path d="M386.751,341.409v 4.61363" fill="none" stroke="black"/>
<path d="M401.862,341.409v 4.61363" fill="none" stroke="black"/>
<path d="M416.973,341.409v 4.61363" fill="none" stroke="black"/>
<path d="M432.084,336.795v 9.22726" fill="none" stroke="black"/>
<path d="M447.194,341.409v 4.61363" fill="none" stroke="black"/>
<path d="M462.305,341.409v 4.61363" fill="none" stroke="black"/>
<path d="M477.416,341.409v 4.61363" fill="none" stroke="black"/>
<path d="M492.527,341.409v 4.61363" fill="none" stroke="black"/>
<path d="M507.637,336.795v 9.22726" fill="none" stroke="black"/>
<path d="M129.869,336.795v 9.22726" fill="none" stroke="black"/>
<path d="M114.758,341.409v 4.61363" fill="none" stroke="black"/>
<path d="M99.6476,341.409v 4.61363" fill="none" stroke="black"/>
<path d="M84.5368,341.409v 4.61363" fill="none" stroke="black"/>
<path d="M69.4261,341.409v 4.61363" fill="none" stroke="black"/>
<path d="M507.637,336.795v 9.22726" fill="none" stroke="black"/>
<text xml:space="preserve" x="118.61" y="358.403" fill="black" font-size="12.8453" font-family="Helvetica">790</text>
<text xml:space="preserve" x="194.364" y="358.403" fill="black" font-size="12.8453" font-family="Helvetica">800</text>
<text xml:space="preserve" x="270.117" y="358.403" fill="black" font-size="12.8453" font-family="Helvetica">810</text>
<text xml:space="preserve" x="345.871" y="358.403" fill="black" font-size="12.8453" font-family="Helvetica">820</text>
<text xml:space="preserve" x="420.81" y="358.403" fill="black" font-size="12.8453" font-family="Helvetica">830</text>
<text xml:space="preserve" x="496.563" y="358.403" fill="black" font-size="12.8453" font-family="Helvetica">840</text>
<text xml:space="preserve" x="460.723" y="370.622" fill="black" font-size="12.8453" font-family="Helvetica">Time [ps]</text>
<path d="M57.1929,346.022v -307.575" fill="none" stroke="black"/>
<path d="M70.7992,346.022h -13.6063" fill="none" stroke="black"/>
<path d="M63.9961,338.606h -6.80315" fill="none" stroke="black"/>
<path d="M63.9961,331.19h -6.80315" fill="none" stroke="black"/>
<path d="M63.9961,323.775h -6.80315" fill="none" stroke="black"/>
<path d="M63.9961,316.359h -6.80315" fill="none" stroke="black"/>
<path d="M70.7992,308.943h -13.6063" fill="none" stroke="black"/>
<path d="M63.9961,301.527h -6.80315" fill="none" stroke="black"/>
<path d="M63.9961,294.111h -6.80315" fill="none" stroke="black"/>
<path d="M63.9961,286.695h -6.80315" fill="none" stroke="black"/>
<path d="M63.9961,279.279h -6.80315" fill="none" stroke="black"/>
<path d="M70.7992,271.863h -13.6063" fill="none" stroke="black"/>
<path d="M63.9961,264.447h -6.80315" fill="none" stroke="black"/>
<path d="M63.9961,257.031h -6.80315" fill="none" stroke="black"/>
<path d="M63.9961,249.615h -6.80315" fill="none" stroke="black"/>
<path d="M63.9961,242.199h -6.80315" fill="none" stroke="black"/>
<path d="M70.7992,234.783h -13.6063" fill="none" stroke="black"/>
<path d="M63.9961,227.368h -6.80315" fill="none" stroke="black"/>
<path d="M63.9961,219.952h -6.80315" fill="none" stroke="black"/>
<path d="M63.9961,212.536h -6.80315" fill="none" stroke="black"/>
<path d="M63.9961,205.12h -6.80315" fill="none" stroke="black"/>
<path d="M70.7992,197.704h -13.6063" fill="none" stroke="black"/>
<path d="M63.9961,190.288h -6.80315" fill="none" stroke="black"/>
<path d="M63.9961,182.872h -6.80315" fill="none" stroke="black"/>
<path d="M63.9961,175.456h -6.80315" fill="none" stroke="black"/>
<path d="M63.9961,168.04h -6.80315" fill="none" stroke="black"/>
<path d="M70.7992,160.624h -13.6063" fill="none" stroke="black"/>
<path d="M63.9961,153.208h -6.80315" fill="none" stroke="black"/>
<path d="M63.9961,145.792h -6.80315" fill="none" stroke="black"/>
<path d="M63.9961,138.376h -6.80315" fill="none" stroke="black"/>
<path d="M63.9961,130.961h -6.80315" fill="none" stroke="black"/>
<path d="M70.7992,123.545h -13.6063" fill="none" stroke="black"/>
<path d="M63.9961,116.129h -6.80315" fill="none" stroke="black"/>
<path d="M63.9961,108.713h -6.80315" fill="none" stroke="black"/>
<path d="M63.9961,101.297h -6.80315" fill="none" stroke="black"/>
<path d="M63.9961,93.8809h -6.80315" fill="none" stroke="black"/>
<path d="M70.7992,86.465h -13.6063" fill="none" stroke="black"/>
<path d="M63.9961,79.0491h -6.80315" fill="none" stroke="black"/>
<path d="M63.9961,71.6332h -6.80315" fill="none" stroke="black"/>
<path d="M63.9961,64.2172h -6.80315" fill="none" stroke="black"/>
<path d="M63.9961,56.8013h -6.80315" fill="none" stroke="black"/>
<path d="M70.7992,49.3854h -13.6063" fill="none" stroke="black"/>
<path d="M70.7992,49.3854h -13.6063" fill="none" stroke="black"/>
<path d="M63.9961,41.9695h -6.80315" fill="none" stroke="black"/>
<text xml:space="preserve" x="47.7441" y="350.258" fill="black" font-size="12.8453" font-family="Helvetica">0</text>
<text xml:space="preserve" x="41.2277" y="313.603" fill="black" font-size="12.8453" font-family="Helvetica">10</text>
<text xml:space="preserve" x="41.2277" y="276.134" fill="black" font-size="12.8453" font-family="Helvetica">20</text>
<text xml:space="preserve" x="41.2277" y="239.479" fill="black" font-size="12.8453" font-family="Helvetica">30</text>
<text xml:space="preserve" x="41.2277" y="202.009" fill="black" font-size="12.8453" font-family="Helvetica">40</text>
<text xml:space="preserve" x="41.2277" y="165.354" fill="black" font-size="12.8453" font-family="Helvetica">50</text>
<text xml:space="preserve" x="41.2277" y="127.885" fill="black" font-size="12.8453" font-family="Helvetica">60</text>
<text xml:space="preserve" x="41.2277" y="91.23" fill="black" font-size="12.8453" font-family="Helvetica">70</text>
<text xml:space="preserve" x="41.2277" y="53.7605" fill="black" font-size="12.8453" font-family="Helvetica">80</text>
<g transform="rotate(-90,29.0094,70.0516)">
<text xml:space="preserve" x="29.0094" y="70.0516" fill="black" font-size="12.8453" font-family="Helvetica">Event</text>
</g>
<text xml:space="preserve" x="244.866" y="18.7347" fill="black" font-size="16.9898" font-family="Helvetica">280mm 51</text></svg>
