<?xml version="1.0" standalone="no"?>
<svg width="567.429" height="386.304" viewBox="0 0 567.429 386.304" xmlns="http://www.w3.org/2000/svg" shape-rendering="crispEdges">
<title>
img/week2/Combined560mm_ch_32_33_34_35.svg
</title>
<desc>
Creator: ROOT Version 6.22/08
CreationDate: Mon Jun 21 15:32:32 2021</desc>
<defs>
</defs>
<rect x="0.5" y="0" width="566.929" height="385.804" fill="white"/>
<rect x="57.1929" y="38.5804" width="453.543" height="308.643" fill="white"/>
<rect x="57.1929" y="38.5804" width="453.543" height="308.643" fill="none" stroke="black"/>
<rect x="57.1929" y="38.5804" width="453.543" height="308.643" fill="white"/>
<rect x="57.1929" y="38.5804" width="453.543" height="308.643" fill="none" stroke="black"/>
<path d="M57.1929,347.224h 120.945v -3.71961h 30.2362v -10.4149h 30.2362v -61.7455h 30.2362v -205.322h 30.2362v 134.65h 30.2362v 143.577h 30.2362v 2.97569h 151.181" fill="none" stroke="#000099"/>
<g fill="#ff0000">
<polygon points=" 279.741, 61.7978 288.188, 61.7978 283.965, 70.2449"/>
</g>
<path d="M59.4606,347.224h 140.598l 4.53543, -0.0740983l 4.53543, -0.105027l 4.53543, -0.232937l 4.53543, -0.489979l 4.53543, -0.977051l 4.53543, -1.84592l 4.53543, -3.30192l 4.53543, -5.58732l 4.53543, -8.93416l 4.53543, -13.4805l 4.53543, -19.1583l
 4.53543, -25.58l 4.53543, -31.9732l 4.53543, -37.2142l 4.53543, -39.9992l 4.53543, -39.1409l 4.53543, -33.9243l 4.53543, -24.4043" fill="none" stroke="#ff0000" stroke-width="2"/>
<path d="M281.697,60.8006l 4.53543, -11.5256l 4.53543, 3.00917l 4.53543, 17.1074l 4.53543, 28.7802l 4.53543, 36.6026l 4.53543, 39.9932l 4.53543, 39.239l 4.53543, 35.2908l 4.53543, 29.4254l 4.53543, 22.9023l 4.53543, 16.7141l 4.53543, 11.473l 4.53543,
 7.42381l 4.53543, 4.53574l 4.53543, 2.61993l 4.53543, 1.43212l 4.53543, 0.741404l 4.53543, 0.363741l 4.53543, 0.169207l 4.53543, 0.0746649l 4.53543, 0.0508971h 126.992" fill="none" stroke="#ff0000" stroke-width="2"/>
<path d="M503.933,347.224h 4.53543" fill="none" stroke="#ff0000" stroke-width="2"/>
<rect x="351.996" y="25.0773" width="204.094" height="108.025" fill="white"/>
<path d="M351.996,133.102h 204.094" fill="none" stroke="black"/>
<path d="M556.091,133.102v -108.025" fill="none" stroke="black"/>
<path d="M556.091,25.0773h -204.094" fill="none" stroke="black"/>
<path d="M351.996,25.0773v 108.025" fill="none" stroke="black"/>
<text xml:space="preserve" x="361.938" y="38.9865" fill="black" font-size="15.6962" font-family="Helvetica">Entries </text>
<text xml:space="preserve" x="515.447" y="39.7988" fill="black" font-size="15.6962" font-family="Helvetica"> 712</text>
<text xml:space="preserve" x="375.745" y="57.6676" fill="black" font-size="15.6962" font-family="Helvetica"> / ndf </text>
<text xml:space="preserve" x="370.06" y="52.7943" fill="black" font-size="10.6308" font-family="Helvetica">2</text>
<text xml:space="preserve" x="361.938" y="57.6676" fill="black" font-size="15.6962" font-family="Times">&#0967;</text>
<text xml:space="preserve" x="485.395" y="57.6676" fill="black" font-size="15.6962" font-family="Helvetica">  30.3 / 6</text>
<text xml:space="preserve" x="361.938" y="75.5364" fill="black" font-size="15.6962" font-family="Helvetica">Prob  </text>
<text xml:space="preserve" x="528.443" y="75.5364" fill="black" font-size="15.6962" font-family="Helvetica">05</text>
<text xml:space="preserve" x="519.508" y="75.5364" fill="black" font-size="15.6962" font-family="Times">&#8722;</text>
<text xml:space="preserve" x="468.338" y="75.5364" fill="black" font-size="15.6962" font-family="Helvetica"> 3.451e</text>
<text xml:space="preserve" x="361.938" y="94.2175" fill="black" font-size="15.6962" font-family="Helvetica">Const    </text>
<text xml:space="preserve" x="511.386" y="93.4052" fill="black" font-size="15.6962" font-family="Helvetica"> 18.6</text>
<text xml:space="preserve" x="502.452" y="93.4052" fill="black" font-size="15.6962" font-family="Times">&#0177;</text>
<text xml:space="preserve" x="454.531" y="93.4052" fill="black" font-size="15.6962" font-family="Helvetica"> 401.4 </text>
<text xml:space="preserve" x="361.938" y="111.274" fill="black" font-size="15.6962" font-family="Helvetica">Mean     </text>
<text xml:space="preserve" x="522.757" y="111.274" fill="black" font-size="15.6962" font-family="Helvetica"> 0.1</text>
<text xml:space="preserve" x="513.823" y="111.274" fill="black" font-size="15.6962" font-family="Times">&#0177;</text>
<text xml:space="preserve" x="465.902" y="111.274" fill="black" font-size="15.6962" font-family="Helvetica"> 806.9 </text>
<text xml:space="preserve" x="361.938" y="128.331" fill="black" font-size="15.6962" font-family="Helvetica">Sigma    </text>
<text xml:space="preserve" x="503.264" y="129.143" fill="black" font-size="15.6962" font-family="Helvetica"> 0.070</text>
<text xml:space="preserve" x="494.329" y="129.143" fill="black" font-size="15.6962" font-family="Times">&#0177;</text>
<text xml:space="preserve" x="446.408" y="129.143" fill="black" font-size="15.6962" font-family="Helvetica"> 2.695 </text>
<path d="M57.1929,347.224h 453.543" fill="none" stroke="black"/>
<path d="M84.5516,337.964v 9.2593" fill="none" stroke="black"/>
<path d="M99.6623,342.594v 4.62965" fill="none" stroke="black"/>
<path d="M114.773,342.594v 4.62965" fill="none" stroke="black"/>
<path d="M129.884,342.594v 4.62965" fill="none" stroke="black"/>
<path d="M144.995,342.594v 4.62965" fill="none" stroke="black"/>
<path d="M160.105,337.964v 9.2593" fill="none" stroke="black"/>
<path d="M175.216,342.594v 4.62965" fill="none" stroke="black"/>
<path d="M190.327,342.594v 4.62965" fill="none" stroke="black"/>
<path d="M205.437,342.594v 4.62965" fill="none" stroke="black"/>
<path d="M220.548,342.594v 4.62965" fill="none" stroke="black"/>
<path d="M235.659,337.964v 9.2593" fill="none" stroke="black"/>
<path d="M250.77,342.594v 4.62965" fill="none" stroke="black"/>
<path d="M265.88,342.594v 4.62965" fill="none" stroke="black"/>
<path d="M280.991,342.594v 4.62965" fill="none" stroke="black"/>
<path d="M296.102,342.594v 4.62965" fill="none" stroke="black"/>
<path d="M311.213,337.964v 9.2593" fill="none" stroke="black"/>
<path d="M326.323,342.594v 4.62965" fill="none" stroke="black"/>
<path d="M341.434,342.594v 4.62965" fill="none" stroke="black"/>
<path d="M356.545,342.594v 4.62965" fill="none" stroke="black"/>
<path d="M371.656,342.594v 4.62965" fill="none" stroke="black"/>
<path d="M386.766,337.964v 9.2593" fill="none" stroke="black"/>
<path d="M401.877,342.594v 4.62965" fill="none" stroke="black"/>
<path d="M416.988,342.594v 4.62965" fill="none" stroke="black"/>
<path d="M432.098,342.594v 4.62965" fill="none" stroke="black"/>
<path d="M447.209,342.594v 4.62965" fill="none" stroke="black"/>
<path d="M462.32,337.964v 9.2593" fill="none" stroke="black"/>
<path d="M84.5516,337.964v 9.2593" fill="none" stroke="black"/>
<path d="M69.4409,342.594v 4.62965" fill="none" stroke="black"/>
<path d="M462.32,337.964v 9.2593" fill="none" stroke="black"/>
<path d="M477.431,342.594v 4.62965" fill="none" stroke="black"/>
<path d="M492.541,342.594v 4.62965" fill="none" stroke="black"/>
<path d="M507.652,342.594v 4.62965" fill="none" stroke="black"/>
<text xml:space="preserve" x="72.7875" y="359.813" fill="black" font-size="12.8882" font-family="Helvetica">780</text>
<text xml:space="preserve" x="148.324" y="359.813" fill="black" font-size="12.8882" font-family="Helvetica">790</text>
<text xml:space="preserve" x="223.86" y="359.813" fill="black" font-size="12.8882" font-family="Helvetica">800</text>
<text xml:space="preserve" x="299.397" y="359.813" fill="black" font-size="12.8882" font-family="Helvetica">810</text>
<text xml:space="preserve" x="374.933" y="359.813" fill="black" font-size="12.8882" font-family="Helvetica">820</text>
<text xml:space="preserve" x="450.47" y="359.813" fill="black" font-size="12.8882" font-family="Helvetica">830</text>
<text xml:space="preserve" x="481.334" y="373.621" fill="black" font-size="12.8882" font-family="Helvetica">Time</text>
<path d="M57.1929,347.224v -308.643" fill="none" stroke="black"/>
<path d="M70.7992,347.224h -13.6063" fill="none" stroke="black"/>
<path d="M63.9961,339.785h -6.80315" fill="none" stroke="black"/>
<path d="M63.9961,332.345h -6.80315" fill="none" stroke="black"/>
<path d="M63.9961,324.906h -6.80315" fill="none" stroke="black"/>
<path d="M63.9961,317.467h -6.80315" fill="none" stroke="black"/>
<path d="M70.7992,310.028h -13.6063" fill="none" stroke="black"/>
<path d="M63.9961,302.588h -6.80315" fill="none" stroke="black"/>
<path d="M63.9961,295.149h -6.80315" fill="none" stroke="black"/>
<path d="M63.9961,287.71h -6.80315" fill="none" stroke="black"/>
<path d="M63.9961,280.271h -6.80315" fill="none" stroke="black"/>
<path d="M70.7992,272.832h -13.6063" fill="none" stroke="black"/>
<path d="M63.9961,265.392h -6.80315" fill="none" stroke="black"/>
<path d="M63.9961,257.953h -6.80315" fill="none" stroke="black"/>
<path d="M63.9961,250.514h -6.80315" fill="none" stroke="black"/>
<path d="M63.9961,243.075h -6.80315" fill="none" stroke="black"/>
<path d="M70.7992,235.636h -13.6063" fill="none" stroke="black"/>
<path d="M63.9961,228.196h -6.80315" fill="none" stroke="black"/>
<path d="M63.9961,220.757h -6.80315" fill="none" stroke="black"/>
<path d="M63.9961,213.318h -6.80315" fill="none" stroke="black"/>
<path d="M63.9961,205.879h -6.80315" fill="none" stroke="black"/>
<path d="M70.7992,198.439h -13.6063" fill="none" stroke="black"/>
<path d="M63.9961,191h -6.80315" fill="none" stroke="black"/>
<path d="M63.9961,183.561h -6.80315" fill="none" stroke="black"/>
<path d="M63.9961,176.122h -6.80315" fill="none" stroke="black"/>
<path d="M63.9961,168.683h -6.80315" fill="none" stroke="black"/>
<path d="M70.7992,161.243h -13.6063" fill="none" stroke="black"/>
<path d="M63.9961,153.804h -6.80315" fill="none" stroke="black"/>
<path d="M63.9961,146.365h -6.80315" fill="none" stroke="black"/>
<path d="M63.9961,138.926h -6.80315" fill="none" stroke="black"/>
<path d="M63.9961,131.486h -6.80315" fill="none" stroke="black"/>
<path d="M70.7992,124.047h -13.6063" fill="none" stroke="black"/>
<path d="M63.9961,116.608h -6.80315" fill="none" stroke="black"/>
<path d="M63.9961,109.169h -6.80315" fill="none" stroke="black"/>
<path d="M63.9961,101.73h -6.80315" fill="none" stroke="black"/>
<path d="M63.9961,94.2904h -6.80315" fill="none" stroke="black"/>
<path d="M70.7992,86.8512h -13.6063" fill="none" stroke="black"/>
<path d="M63.9961,79.412h -6.80315" fill="none" stroke="black"/>
<path d="M63.9961,71.9727h -6.80315" fill="none" stroke="black"/>
<path d="M63.9961,64.5335h -6.80315" fill="none" stroke="black"/>
<path d="M63.9961,57.0943h -6.80315" fill="none" stroke="black"/>
<path d="M70.7992,49.6551h -13.6063" fill="none" stroke="black"/>
<path d="M70.7992,49.6551h -13.6063" fill="none" stroke="black"/>
<path d="M63.9961,42.2159h -6.80315" fill="none" stroke="black"/>
<text xml:space="preserve" x="46.7965" y="351.691" fill="black" font-size="12.8882" font-family="Helvetica">0</text>
<text xml:space="preserve" x="39.4865" y="314.329" fill="black" font-size="12.8882" font-family="Helvetica">50</text>
<text xml:space="preserve" x="32.1766" y="276.967" fill="black" font-size="12.8882" font-family="Helvetica">100</text>
<text xml:space="preserve" x="32.1766" y="240.417" fill="black" font-size="12.8882" font-family="Helvetica">150</text>
<text xml:space="preserve" x="32.1766" y="203.055" fill="black" font-size="12.8882" font-family="Helvetica">200</text>
<text xml:space="preserve" x="32.1766" y="165.693" fill="black" font-size="12.8882" font-family="Helvetica">250</text>
<text xml:space="preserve" x="32.1766" y="128.331" fill="black" font-size="12.8882" font-family="Helvetica">300</text>
<text xml:space="preserve" x="32.1766" y="90.9686" fill="black" font-size="12.8882" font-family="Helvetica">350</text>
<text xml:space="preserve" x="32.1766" y="54.4187" fill="black" font-size="12.8882" font-family="Helvetica">400</text>
<g transform="rotate(-90,21.6177,71.4753)">
<text xml:space="preserve" x="21.6177" y="71.4753" fill="black" font-size="12.8882" font-family="Helvetica">Event</text>
</g>
<rect x="351.996" y="25.0773" width="204.094" height="108.025" fill="white"/>
<path d="M351.996,133.102h 204.094" fill="none" stroke="black"/>
<path d="M556.091,133.102v -108.025" fill="none" stroke="black"/>
<path d="M556.091,25.0773h -204.094" fill="none" stroke="black"/>
<path d="M351.996,25.0773v 108.025" fill="none" stroke="black"/>
<text xml:space="preserve" x="361.938" y="38.9865" fill="black" font-size="15.6962" font-family="Helvetica">Entries </text>
<text xml:space="preserve" x="515.447" y="39.7988" fill="black" font-size="15.6962" font-family="Helvetica"> 712</text>
<text xml:space="preserve" x="375.745" y="57.6676" fill="black" font-size="15.6962" font-family="Helvetica"> / ndf </text>
<text xml:space="preserve" x="370.06" y="52.7943" fill="black" font-size="10.6308" font-family="Helvetica">2</text>
<text xml:space="preserve" x="361.938" y="57.6676" fill="black" font-size="15.6962" font-family="Times">&#0967;</text>
<text xml:space="preserve" x="485.395" y="57.6676" fill="black" font-size="15.6962" font-family="Helvetica">  30.3 / 6</text>
<text xml:space="preserve" x="361.938" y="75.5364" fill="black" font-size="15.6962" font-family="Helvetica">Prob  </text>
<text xml:space="preserve" x="528.443" y="75.5364" fill="black" font-size="15.6962" font-family="Helvetica">05</text>
<text xml:space="preserve" x="519.508" y="75.5364" fill="black" font-size="15.6962" font-family="Times">&#8722;</text>
<text xml:space="preserve" x="468.338" y="75.5364" fill="black" font-size="15.6962" font-family="Helvetica"> 3.451e</text>
<text xml:space="preserve" x="361.938" y="94.2175" fill="black" font-size="15.6962" font-family="Helvetica">Const    </text>
<text xml:space="preserve" x="511.386" y="93.4052" fill="black" font-size="15.6962" font-family="Helvetica"> 18.6</text>
<text xml:space="preserve" x="502.452" y="93.4052" fill="black" font-size="15.6962" font-family="Times">&#0177;</text>
<text xml:space="preserve" x="454.531" y="93.4052" fill="black" font-size="15.6962" font-family="Helvetica"> 401.4 </text>
<text xml:space="preserve" x="361.938" y="111.274" fill="black" font-size="15.6962" font-family="Helvetica">Mean     </text>
<text xml:space="preserve" x="522.757" y="111.274" fill="black" font-size="15.6962" font-family="Helvetica"> 0.1</text>
<text xml:space="preserve" x="513.823" y="111.274" fill="black" font-size="15.6962" font-family="Times">&#0177;</text>
<text xml:space="preserve" x="465.902" y="111.274" fill="black" font-size="15.6962" font-family="Helvetica"> 806.9 </text>
<text xml:space="preserve" x="361.938" y="128.331" fill="black" font-size="15.6962" font-family="Helvetica">Sigma    </text>
<text xml:space="preserve" x="503.264" y="129.143" fill="black" font-size="15.6962" font-family="Helvetica"> 0.070</text>
<text xml:space="preserve" x="494.329" y="129.143" fill="black" font-size="15.6962" font-family="Times">&#0177;</text>
<text xml:space="preserve" x="446.408" y="129.143" fill="black" font-size="15.6962" font-family="Helvetica"> 2.695 </text>
<text xml:space="preserve" x="208.428" y="18.681" fill="black" font-size="17.0471" font-family="Helvetica">560mm 32 33 34 35</text></svg>
