<?xml version="1.0" standalone="no"?>
<svg width="567.429" height="384.969" viewBox="0 0 567.429 384.969" xmlns="http://www.w3.org/2000/svg" shape-rendering="crispEdges">
<title>
img/week2/Combined280mm_ch_15.svg
</title>
<desc>
Creator: ROOT Version 6.22/09
CreationDate: Thu Jun 24 12:33:05 2021</desc>
<defs>
</defs>
<rect x="0.5" y="0" width="566.929" height="384.469" fill="white"/>
<rect x="57.1929" y="38.4469" width="453.543" height="307.575" fill="white"/>
<rect x="57.1929" y="38.4469" width="453.543" height="307.575" fill="none" stroke="black"/>
<rect x="57.1929" y="38.4469" width="453.543" height="307.575" fill="white"/>
<rect x="57.1929" y="38.4469" width="453.543" height="307.575" fill="none" stroke="black"/>
<path d="M57.1929,346.022h 120.945v -3.219h 30.2362v -3.219h 30.2362v -83.694h 30.2362v -202.797h 30.2362v 193.14h 30.2362v 96.57h 30.2362v 3.219h 151.181" fill="none" stroke="#000099"/>
<g fill="#ff0000">
<polygon points=" 279.729, 48.8577 288.2, 48.8577 283.965, 57.329"/>
</g>
<path d="M59.4606,346.022h 136.063l 4.53543, -0.0573115l 4.53543, -0.082712l 4.53543, -0.185592l 4.53543, -0.395083l 4.53543, -0.797563l 4.53543, -1.52602l 4.53543, -2.7656l 4.53543, -4.74358l 4.53543, -7.69252l 4.53543, -11.7791l 4.53543, -17.0018l
 4.53543, -23.0787l 4.53543, -29.3671l 4.53543, -34.8656l 4.53543, -38.3411l 4.53543, -38.5848l 4.53543, -34.7477l 4.53543, -26.6542l 4.53543, -14.975" fill="none" stroke="#ff0000" stroke-width="2"/>
<path d="M281.697,58.3813l 4.53543, -1.17103l 4.53543, 12.8022l 4.53543, 24.9492l 4.53543, 33.7018l 4.53543, 38.2484l 4.53543, 38.6322l 4.53543, 35.6105l 4.53543, 30.3569l 4.53543, 24.1211l 4.53543, 17.9551l 4.53543, 12.5636l 4.53543, 8.28388l
 4.53543, 5.15617l 4.53543, 3.03378l 4.53543, 1.68912l 4.53543, 0.89068l 4.53543, 0.445099l 4.53543, 0.210914l 4.53543, 0.094812l 4.53543, 0.0666082h 131.528" fill="none" stroke="#ff0000" stroke-width="2"/>
<path d="M503.933,346.022h 4.53543" fill="none" stroke="#ff0000" stroke-width="2"/>
<path d="M57.1929,346.022h 453.543" fill="none" stroke="black"/>
<path d="M84.5516,336.795v 9.22726" fill="none" stroke="black"/>
<path d="M99.6623,341.409v 4.61363" fill="none" stroke="black"/>
<path d="M114.773,341.409v 4.61363" fill="none" stroke="black"/>
<path d="M129.884,341.409v 4.61363" fill="none" stroke="black"/>
<path d="M144.995,341.409v 4.61363" fill="none" stroke="black"/>
<path d="M160.105,336.795v 9.22726" fill="none" stroke="black"/>
<path d="M175.216,341.409v 4.61363" fill="none" stroke="black"/>
<path d="M190.327,341.409v 4.61363" fill="none" stroke="black"/>
<path d="M205.437,341.409v 4.61363" fill="none" stroke="black"/>
<path d="M220.548,341.409v 4.61363" fill="none" stroke="black"/>
<path d="M235.659,336.795v 9.22726" fill="none" stroke="black"/>
<path d="M250.77,341.409v 4.61363" fill="none" stroke="black"/>
<path d="M265.88,341.409v 4.61363" fill="none" stroke="black"/>
<path d="M280.991,341.409v 4.61363" fill="none" stroke="black"/>
<path d="M296.102,341.409v 4.61363" fill="none" stroke="black"/>
<path d="M311.213,336.795v 9.22726" fill="none" stroke="black"/>
<path d="M326.323,341.409v 4.61363" fill="none" stroke="black"/>
<path d="M341.434,341.409v 4.61363" fill="none" stroke="black"/>
<path d="M356.545,341.409v 4.61363" fill="none" stroke="black"/>
<path d="M371.656,341.409v 4.61363" fill="none" stroke="black"/>
<path d="M386.766,336.795v 9.22726" fill="none" stroke="black"/>
<path d="M401.877,341.409v 4.61363" fill="none" stroke="black"/>
<path d="M416.988,341.409v 4.61363" fill="none" stroke="black"/>
<path d="M432.098,341.409v 4.61363" fill="none" stroke="black"/>
<path d="M447.209,341.409v 4.61363" fill="none" stroke="black"/>
<path d="M462.32,336.795v 9.22726" fill="none" stroke="black"/>
<path d="M84.5516,336.795v 9.22726" fill="none" stroke="black"/>
<path d="M69.4409,341.409v 4.61363" fill="none" stroke="black"/>
<path d="M462.32,336.795v 9.22726" fill="none" stroke="black"/>
<path d="M477.431,341.409v 4.61363" fill="none" stroke="black"/>
<path d="M492.541,341.409v 4.61363" fill="none" stroke="black"/>
<path d="M507.652,341.409v 4.61363" fill="none" stroke="black"/>
<text xml:space="preserve" x="73.8098" y="358.403" fill="black" font-size="12.8453" font-family="Helvetica">780</text>
<text xml:space="preserve" x="148.749" y="358.403" fill="black" font-size="12.8453" font-family="Helvetica">790</text>
<text xml:space="preserve" x="224.502" y="358.403" fill="black" font-size="12.8453" font-family="Helvetica">800</text>
<text xml:space="preserve" x="300.256" y="358.403" fill="black" font-size="12.8453" font-family="Helvetica">810</text>
<text xml:space="preserve" x="376.009" y="358.403" fill="black" font-size="12.8453" font-family="Helvetica">820</text>
<text xml:space="preserve" x="450.948" y="358.403" fill="black" font-size="12.8453" font-family="Helvetica">830</text>
<text xml:space="preserve" x="460.723" y="370.622" fill="black" font-size="12.8453" font-family="Helvetica">Time [ns]</text>
<path d="M57.1929,346.022v -307.575" fill="none" stroke="black"/>
<path d="M70.7992,346.022h -13.6063" fill="none" stroke="black"/>
<path d="M63.9961,339.584h -6.80315" fill="none" stroke="black"/>
<path d="M63.9961,333.146h -6.80315" fill="none" stroke="black"/>
<path d="M63.9961,326.708h -6.80315" fill="none" stroke="black"/>
<path d="M63.9961,320.27h -6.80315" fill="none" stroke="black"/>
<path d="M70.7992,313.832h -13.6063" fill="none" stroke="black"/>
<path d="M63.9961,307.394h -6.80315" fill="none" stroke="black"/>
<path d="M63.9961,300.956h -6.80315" fill="none" stroke="black"/>
<path d="M63.9961,294.518h -6.80315" fill="none" stroke="black"/>
<path d="M63.9961,288.08h -6.80315" fill="none" stroke="black"/>
<path d="M70.7992,281.642h -13.6063" fill="none" stroke="black"/>
<path d="M63.9961,275.204h -6.80315" fill="none" stroke="black"/>
<path d="M63.9961,268.766h -6.80315" fill="none" stroke="black"/>
<path d="M63.9961,262.328h -6.80315" fill="none" stroke="black"/>
<path d="M63.9961,255.89h -6.80315" fill="none" stroke="black"/>
<path d="M70.7992,249.452h -13.6063" fill="none" stroke="black"/>
<path d="M63.9961,243.014h -6.80315" fill="none" stroke="black"/>
<path d="M63.9961,236.576h -6.80315" fill="none" stroke="black"/>
<path d="M63.9961,230.138h -6.80315" fill="none" stroke="black"/>
<path d="M63.9961,223.7h -6.80315" fill="none" stroke="black"/>
<path d="M70.7992,217.262h -13.6063" fill="none" stroke="black"/>
<path d="M63.9961,210.824h -6.80315" fill="none" stroke="black"/>
<path d="M63.9961,204.386h -6.80315" fill="none" stroke="black"/>
<path d="M63.9961,197.948h -6.80315" fill="none" stroke="black"/>
<path d="M63.9961,191.51h -6.80315" fill="none" stroke="black"/>
<path d="M70.7992,185.072h -13.6063" fill="none" stroke="black"/>
<path d="M63.9961,178.634h -6.80315" fill="none" stroke="black"/>
<path d="M63.9961,172.196h -6.80315" fill="none" stroke="black"/>
<path d="M63.9961,165.758h -6.80315" fill="none" stroke="black"/>
<path d="M63.9961,159.32h -6.80315" fill="none" stroke="black"/>
<path d="M70.7992,152.882h -13.6063" fill="none" stroke="black"/>
<path d="M63.9961,146.444h -6.80315" fill="none" stroke="black"/>
<path d="M63.9961,140.006h -6.80315" fill="none" stroke="black"/>
<path d="M63.9961,133.568h -6.80315" fill="none" stroke="black"/>
<path d="M63.9961,127.13h -6.80315" fill="none" stroke="black"/>
<path d="M70.7992,120.692h -13.6063" fill="none" stroke="black"/>
<path d="M63.9961,114.254h -6.80315" fill="none" stroke="black"/>
<path d="M63.9961,107.816h -6.80315" fill="none" stroke="black"/>
<path d="M63.9961,101.378h -6.80315" fill="none" stroke="black"/>
<path d="M63.9961,94.9403h -6.80315" fill="none" stroke="black"/>
<path d="M70.7992,88.5023h -13.6063" fill="none" stroke="black"/>
<path d="M63.9961,82.0644h -6.80315" fill="none" stroke="black"/>
<path d="M63.9961,75.6264h -6.80315" fill="none" stroke="black"/>
<path d="M63.9961,69.1884h -6.80315" fill="none" stroke="black"/>
<path d="M63.9961,62.7504h -6.80315" fill="none" stroke="black"/>
<path d="M70.7992,56.3124h -13.6063" fill="none" stroke="black"/>
<path d="M70.7992,56.3124h -13.6063" fill="none" stroke="black"/>
<path d="M63.9961,49.8744h -6.80315" fill="none" stroke="black"/>
<path d="M63.9961,43.4364h -6.80315" fill="none" stroke="black"/>
<text xml:space="preserve" x="47.7441" y="350.258" fill="black" font-size="12.8453" font-family="Helvetica">0</text>
<text xml:space="preserve" x="41.2277" y="318.49" fill="black" font-size="12.8453" font-family="Helvetica">10</text>
<text xml:space="preserve" x="41.2277" y="285.908" fill="black" font-size="12.8453" font-family="Helvetica">20</text>
<text xml:space="preserve" x="41.2277" y="254.141" fill="black" font-size="12.8453" font-family="Helvetica">30</text>
<text xml:space="preserve" x="41.2277" y="221.559" fill="black" font-size="12.8453" font-family="Helvetica">40</text>
<text xml:space="preserve" x="41.2277" y="189.791" fill="black" font-size="12.8453" font-family="Helvetica">50</text>
<text xml:space="preserve" x="41.2277" y="157.209" fill="black" font-size="12.8453" font-family="Helvetica">60</text>
<text xml:space="preserve" x="41.2277" y="125.441" fill="black" font-size="12.8453" font-family="Helvetica">70</text>
<text xml:space="preserve" x="41.2277" y="92.8591" fill="black" font-size="12.8453" font-family="Helvetica">80</text>
<text xml:space="preserve" x="41.2277" y="61.0915" fill="black" font-size="12.8453" font-family="Helvetica">90</text>
<g transform="rotate(-90,29.0094,70.0516)">
<text xml:space="preserve" x="29.0094" y="70.0516" fill="black" font-size="12.8453" font-family="Helvetica">Event</text>
</g>
<text xml:space="preserve" x="243.237" y="18.7347" fill="black" font-size="16.9898" font-family="Helvetica">280mm 15</text></svg>
