<?xml version="1.0" standalone="no"?>
<svg width="567.429" height="384.969" viewBox="0 0 567.429 384.969" xmlns="http://www.w3.org/2000/svg" shape-rendering="crispEdges">
<title>
img/week2/Combined0mm_ch_44_45_46_47.svg
</title>
<desc>
Creator: ROOT Version 6.22/09
CreationDate: Thu Jun 24 12:07:27 2021</desc>
<defs>
</defs>
<rect x="0.5" y="0" width="566.929" height="384.469" fill="white"/>
<rect x="57.1929" y="38.4469" width="453.543" height="307.575" fill="white"/>
<rect x="57.1929" y="38.4469" width="453.543" height="307.575" fill="none" stroke="black"/>
<rect x="57.1929" y="38.4469" width="453.543" height="307.575" fill="white"/>
<rect x="57.1929" y="38.4469" width="453.543" height="307.575" fill="none" stroke="black"/>
<path d="M57.1929,346.022h 64.7919v -0.992979h 64.7919v -2.97894h 32.396v -17.8736h 32.396v -124.122h 32.396v -146.961h 32.396v 254.203h 32.396v 38.7262h 161.98" fill="none" stroke="#000099"/>
<g fill="#ff0000">
<polygon points=" 295.927, 48.8577 304.398, 48.8577 300.163, 57.329"/>
</g>
<path d="M59.4606,346.022h 140.598l 4.53543, -0.057294l 4.53543, -0.0798516l 4.53543, -0.17611l 4.53543, -0.369489l 4.53543, -0.737166l 4.53543, -1.39787l 4.53543, -2.51798l 4.53543, -4.3054l 4.53543, -6.9817l 4.53543, -10.7251l 4.53543, -15.5847l
 4.53543, -21.3797l 4.53543, -27.6149l 4.53543, -33.4554l 4.53543, -37.7999l 4.53543, -39.4707l 4.53543, -37.4935l 4.53543, -31.3991" fill="none" stroke="#ff0000" stroke-width="2"/>
<path d="M281.697,74.4764l 4.53543, -21.4442l 4.53543, -8.6618l 4.53543, 5.30354l 4.53543, 18.5419l 4.53543, 29.307l 4.53543, 36.394l 4.53543, 39.354l 4.53543, 38.4951l 4.53543, 34.6949l 4.53543, 29.1098l 4.53543, 22.8815l 4.53543, 16.9208l 4.53543,
 11.8063l 4.53543, 7.78892l 4.53543, 4.86626l 4.53543, 2.88264l 4.53543, 1.6206l 4.53543, 0.865314l 4.53543, 0.43909l 4.53543, 0.211852l 4.53543, 0.0972277l 4.53543, 0.0711461h 122.457" fill="none" stroke="#ff0000" stroke-width="2"/>
<path d="M503.933,346.022h 4.53543" fill="none" stroke="#ff0000" stroke-width="2"/>
<path d="M57.1929,346.022h 453.543" fill="none" stroke="black"/>
<path d="M135.06,336.795v 9.22726" fill="none" stroke="black"/>
<path d="M151.25,341.409v 4.61363" fill="none" stroke="black"/>
<path d="M167.44,341.409v 4.61363" fill="none" stroke="black"/>
<path d="M183.63,341.409v 4.61363" fill="none" stroke="black"/>
<path d="M199.82,341.409v 4.61363" fill="none" stroke="black"/>
<path d="M216.011,336.795v 9.22726" fill="none" stroke="black"/>
<path d="M232.201,341.409v 4.61363" fill="none" stroke="black"/>
<path d="M248.391,341.409v 4.61363" fill="none" stroke="black"/>
<path d="M264.581,341.409v 4.61363" fill="none" stroke="black"/>
<path d="M280.771,341.409v 4.61363" fill="none" stroke="black"/>
<path d="M296.961,336.795v 9.22726" fill="none" stroke="black"/>
<path d="M313.151,341.409v 4.61363" fill="none" stroke="black"/>
<path d="M329.341,341.409v 4.61363" fill="none" stroke="black"/>
<path d="M345.531,341.409v 4.61363" fill="none" stroke="black"/>
<path d="M361.721,341.409v 4.61363" fill="none" stroke="black"/>
<path d="M377.911,336.795v 9.22726" fill="none" stroke="black"/>
<path d="M394.101,341.409v 4.61363" fill="none" stroke="black"/>
<path d="M410.291,341.409v 4.61363" fill="none" stroke="black"/>
<path d="M426.481,341.409v 4.61363" fill="none" stroke="black"/>
<path d="M442.672,341.409v 4.61363" fill="none" stroke="black"/>
<path d="M458.862,336.795v 9.22726" fill="none" stroke="black"/>
<path d="M135.06,336.795v 9.22726" fill="none" stroke="black"/>
<path d="M118.87,341.409v 4.61363" fill="none" stroke="black"/>
<path d="M102.68,341.409v 4.61363" fill="none" stroke="black"/>
<path d="M86.49,341.409v 4.61363" fill="none" stroke="black"/>
<path d="M70.2999,341.409v 4.61363" fill="none" stroke="black"/>
<path d="M458.862,336.795v 9.22726" fill="none" stroke="black"/>
<path d="M475.052,341.409v 4.61363" fill="none" stroke="black"/>
<path d="M491.242,341.409v 4.61363" fill="none" stroke="black"/>
<path d="M507.432,341.409v 4.61363" fill="none" stroke="black"/>
<text xml:space="preserve" x="124.312" y="358.403" fill="black" font-size="12.8453" font-family="Helvetica">790</text>
<text xml:space="preserve" x="204.953" y="358.403" fill="black" font-size="12.8453" font-family="Helvetica">800</text>
<text xml:space="preserve" x="285.594" y="358.403" fill="black" font-size="12.8453" font-family="Helvetica">810</text>
<text xml:space="preserve" x="367.049" y="358.403" fill="black" font-size="12.8453" font-family="Helvetica">820</text>
<text xml:space="preserve" x="447.69" y="358.403" fill="black" font-size="12.8453" font-family="Helvetica">830</text>
<text xml:space="preserve" x="460.723" y="370.622" fill="black" font-size="12.8453" font-family="Helvetica">Time [ps]</text>
<path d="M57.1929,346.022v -307.575" fill="none" stroke="black"/>
<path d="M70.7992,346.022h -13.6063" fill="none" stroke="black"/>
<path d="M63.9961,336.092h -6.80315" fill="none" stroke="black"/>
<path d="M63.9961,326.163h -6.80315" fill="none" stroke="black"/>
<path d="M63.9961,316.233h -6.80315" fill="none" stroke="black"/>
<path d="M63.9961,306.303h -6.80315" fill="none" stroke="black"/>
<path d="M70.7992,296.373h -13.6063" fill="none" stroke="black"/>
<path d="M63.9961,286.444h -6.80315" fill="none" stroke="black"/>
<path d="M63.9961,276.514h -6.80315" fill="none" stroke="black"/>
<path d="M63.9961,266.584h -6.80315" fill="none" stroke="black"/>
<path d="M63.9961,256.654h -6.80315" fill="none" stroke="black"/>
<path d="M70.7992,246.724h -13.6063" fill="none" stroke="black"/>
<path d="M63.9961,236.795h -6.80315" fill="none" stroke="black"/>
<path d="M63.9961,226.865h -6.80315" fill="none" stroke="black"/>
<path d="M63.9961,216.935h -6.80315" fill="none" stroke="black"/>
<path d="M63.9961,207.005h -6.80315" fill="none" stroke="black"/>
<path d="M70.7992,197.075h -13.6063" fill="none" stroke="black"/>
<path d="M63.9961,187.146h -6.80315" fill="none" stroke="black"/>
<path d="M63.9961,177.216h -6.80315" fill="none" stroke="black"/>
<path d="M63.9961,167.286h -6.80315" fill="none" stroke="black"/>
<path d="M63.9961,157.356h -6.80315" fill="none" stroke="black"/>
<path d="M70.7992,147.426h -13.6063" fill="none" stroke="black"/>
<path d="M63.9961,137.497h -6.80315" fill="none" stroke="black"/>
<path d="M63.9961,127.567h -6.80315" fill="none" stroke="black"/>
<path d="M63.9961,117.637h -6.80315" fill="none" stroke="black"/>
<path d="M63.9961,107.707h -6.80315" fill="none" stroke="black"/>
<path d="M70.7992,97.7774h -13.6063" fill="none" stroke="black"/>
<path d="M63.9961,87.8476h -6.80315" fill="none" stroke="black"/>
<path d="M63.9961,77.9178h -6.80315" fill="none" stroke="black"/>
<path d="M63.9961,67.9881h -6.80315" fill="none" stroke="black"/>
<path d="M63.9961,58.0583h -6.80315" fill="none" stroke="black"/>
<path d="M70.7992,48.1285h -13.6063" fill="none" stroke="black"/>
<path d="M70.7992,48.1285h -13.6063" fill="none" stroke="black"/>
<text xml:space="preserve" x="47.7441" y="350.258" fill="black" font-size="12.8453" font-family="Helvetica">0</text>
<text xml:space="preserve" x="41.2277" y="300.57" fill="black" font-size="12.8453" font-family="Helvetica">50</text>
<text xml:space="preserve" x="33.8967" y="250.882" fill="black" font-size="12.8453" font-family="Helvetica">100</text>
<text xml:space="preserve" x="33.8967" y="201.195" fill="black" font-size="12.8453" font-family="Helvetica">150</text>
<text xml:space="preserve" x="33.8967" y="151.507" fill="black" font-size="12.8453" font-family="Helvetica">200</text>
<text xml:space="preserve" x="33.8967" y="102.634" fill="black" font-size="12.8453" font-family="Helvetica">250</text>
<text xml:space="preserve" x="33.8967" y="52.946" fill="black" font-size="12.8453" font-family="Helvetica">300</text>
<g transform="rotate(-90,20.8638,70.0516)">
<text xml:space="preserve" x="20.8638" y="70.0516" fill="black" font-size="12.8453" font-family="Helvetica">Event</text>
</g>
<text xml:space="preserve" x="217.171" y="18.7347" fill="black" font-size="16.9898" font-family="Helvetica">0mm 44 45 46 47</text></svg>
