<?xml version="1.0" standalone="no"?>
<svg width="567.429" height="384.969" viewBox="0 0 567.429 384.969" xmlns="http://www.w3.org/2000/svg" shape-rendering="crispEdges">
<title>
img/week2/Combined0mm_ch_12.svg
</title>
<desc>
Creator: ROOT Version 6.22/09
CreationDate: Thu Jun 24 12:33:05 2021</desc>
<defs>
</defs>
<rect x="0.5" y="0" width="566.929" height="384.469" fill="white"/>
<rect x="57.1929" y="38.4469" width="453.543" height="307.575" fill="white"/>
<rect x="57.1929" y="38.4469" width="453.543" height="307.575" fill="none" stroke="black"/>
<rect x="57.1929" y="38.4469" width="453.543" height="307.575" fill="white"/>
<rect x="57.1929" y="38.4469" width="453.543" height="307.575" fill="none" stroke="black"/>
<path d="M57.1929,346.022h 120.945v -11.9563h 30.2362v -17.9344h 30.2362v -71.7377h 30.2362v -191.301h 30.2362v 185.322h 30.2362v 101.628h 30.2362v 5.97814h 151.181" fill="none" stroke="#000099"/>
<g fill="#ff0000">
<polygon points=" 279.729, 48.8577 288.2, 48.8577 283.965, 57.329"/>
</g>
<path d="M59.4606,346.022h 126.992l 4.53543, -0.0607996l 4.53543, -0.0753793l 4.53543, -0.156716l 4.53543, -0.312037l 4.53543, -0.594827l 4.53543, -1.08518l 4.53543, -1.89382l 4.53543, -3.15985l 4.53543, -5.03717l 4.53543, -7.66544l 4.53543,
 -11.1239l 4.53543, -15.3727l 4.53543, -20.1945l 4.53543, -25.1557l 4.53543, -29.6115l 4.53543, -32.7711l 4.53543, -33.8276l 4.53543, -32.133l 4.53543, -27.3775l 4.53543, -19.7201l 4.53543, -9.82347" fill="none" stroke="#ff0000" stroke-width="2"/>
<path d="M281.697,68.87l 4.53543, 1.23178l 4.53543, 12.1402l 4.53543, 21.6253l 4.53543, 28.6847l 4.53543, 32.7636l 4.53543, 33.8128l 4.53543, 32.2301l 4.53543, 28.7146l 4.53543, 24.0835l 4.53543, 19.1044l 4.53543, 14.3792l 4.53543, 10.2924l 4.53543,
 7.01808l 4.53543, 4.56457l 4.53543, 2.83465l 4.53543, 1.68214l 4.53543, 0.954487l 4.53543, 0.518147l 4.53543, 0.269215l 4.53543, 0.133928l 4.53543, 0.0638121l 4.53543, 0.0506509h 122.457" fill="none" stroke="#ff0000" stroke-width="2"/>
<path d="M503.933,346.022h 4.53543" fill="none" stroke="#ff0000" stroke-width="2"/>
<path d="M57.1929,346.022h 453.543" fill="none" stroke="black"/>
<path d="M84.5516,336.795v 9.22726" fill="none" stroke="black"/>
<path d="M99.6623,341.409v 4.61363" fill="none" stroke="black"/>
<path d="M114.773,341.409v 4.61363" fill="none" stroke="black"/>
<path d="M129.884,341.409v 4.61363" fill="none" stroke="black"/>
<path d="M144.995,341.409v 4.61363" fill="none" stroke="black"/>
<path d="M160.105,336.795v 9.22726" fill="none" stroke="black"/>
<path d="M175.216,341.409v 4.61363" fill="none" stroke="black"/>
<path d="M190.327,341.409v 4.61363" fill="none" stroke="black"/>
<path d="M205.437,341.409v 4.61363" fill="none" stroke="black"/>
<path d="M220.548,341.409v 4.61363" fill="none" stroke="black"/>
<path d="M235.659,336.795v 9.22726" fill="none" stroke="black"/>
<path d="M250.77,341.409v 4.61363" fill="none" stroke="black"/>
<path d="M265.88,341.409v 4.61363" fill="none" stroke="black"/>
<path d="M280.991,341.409v 4.61363" fill="none" stroke="black"/>
<path d="M296.102,341.409v 4.61363" fill="none" stroke="black"/>
<path d="M311.213,336.795v 9.22726" fill="none" stroke="black"/>
<path d="M326.323,341.409v 4.61363" fill="none" stroke="black"/>
<path d="M341.434,341.409v 4.61363" fill="none" stroke="black"/>
<path d="M356.545,341.409v 4.61363" fill="none" stroke="black"/>
<path d="M371.656,341.409v 4.61363" fill="none" stroke="black"/>
<path d="M386.766,336.795v 9.22726" fill="none" stroke="black"/>
<path d="M401.877,341.409v 4.61363" fill="none" stroke="black"/>
<path d="M416.988,341.409v 4.61363" fill="none" stroke="black"/>
<path d="M432.098,341.409v 4.61363" fill="none" stroke="black"/>
<path d="M447.209,341.409v 4.61363" fill="none" stroke="black"/>
<path d="M462.32,336.795v 9.22726" fill="none" stroke="black"/>
<path d="M84.5516,336.795v 9.22726" fill="none" stroke="black"/>
<path d="M69.4409,341.409v 4.61363" fill="none" stroke="black"/>
<path d="M462.32,336.795v 9.22726" fill="none" stroke="black"/>
<path d="M477.431,341.409v 4.61363" fill="none" stroke="black"/>
<path d="M492.541,341.409v 4.61363" fill="none" stroke="black"/>
<path d="M507.652,341.409v 4.61363" fill="none" stroke="black"/>
<text xml:space="preserve" x="73.8098" y="358.403" fill="black" font-size="12.8453" font-family="Helvetica">780</text>
<text xml:space="preserve" x="148.749" y="358.403" fill="black" font-size="12.8453" font-family="Helvetica">790</text>
<text xml:space="preserve" x="224.502" y="358.403" fill="black" font-size="12.8453" font-family="Helvetica">800</text>
<text xml:space="preserve" x="300.256" y="358.403" fill="black" font-size="12.8453" font-family="Helvetica">810</text>
<text xml:space="preserve" x="376.009" y="358.403" fill="black" font-size="12.8453" font-family="Helvetica">820</text>
<text xml:space="preserve" x="450.948" y="358.403" fill="black" font-size="12.8453" font-family="Helvetica">830</text>
<text xml:space="preserve" x="460.723" y="370.622" fill="black" font-size="12.8453" font-family="Helvetica">Time [ns]</text>
<path d="M57.1929,346.022v -307.575" fill="none" stroke="black"/>
<path d="M70.7992,346.022h -13.6063" fill="none" stroke="black"/>
<path d="M63.9961,334.066h -6.80315" fill="none" stroke="black"/>
<path d="M63.9961,322.11h -6.80315" fill="none" stroke="black"/>
<path d="M63.9961,310.153h -6.80315" fill="none" stroke="black"/>
<path d="M63.9961,298.197h -6.80315" fill="none" stroke="black"/>
<path d="M70.7992,286.241h -13.6063" fill="none" stroke="black"/>
<path d="M63.9961,274.285h -6.80315" fill="none" stroke="black"/>
<path d="M63.9961,262.328h -6.80315" fill="none" stroke="black"/>
<path d="M63.9961,250.372h -6.80315" fill="none" stroke="black"/>
<path d="M63.9961,238.416h -6.80315" fill="none" stroke="black"/>
<path d="M70.7992,226.459h -13.6063" fill="none" stroke="black"/>
<path d="M63.9961,214.503h -6.80315" fill="none" stroke="black"/>
<path d="M63.9961,202.547h -6.80315" fill="none" stroke="black"/>
<path d="M63.9961,190.591h -6.80315" fill="none" stroke="black"/>
<path d="M63.9961,178.634h -6.80315" fill="none" stroke="black"/>
<path d="M70.7992,166.678h -13.6063" fill="none" stroke="black"/>
<path d="M63.9961,154.722h -6.80315" fill="none" stroke="black"/>
<path d="M63.9961,142.765h -6.80315" fill="none" stroke="black"/>
<path d="M63.9961,130.809h -6.80315" fill="none" stroke="black"/>
<path d="M63.9961,118.853h -6.80315" fill="none" stroke="black"/>
<path d="M70.7992,106.897h -13.6063" fill="none" stroke="black"/>
<path d="M63.9961,94.9403h -6.80315" fill="none" stroke="black"/>
<path d="M63.9961,82.9841h -6.80315" fill="none" stroke="black"/>
<path d="M63.9961,71.0278h -6.80315" fill="none" stroke="black"/>
<path d="M63.9961,59.0715h -6.80315" fill="none" stroke="black"/>
<path d="M70.7992,47.1152h -13.6063" fill="none" stroke="black"/>
<path d="M70.7992,47.1152h -13.6063" fill="none" stroke="black"/>
<text xml:space="preserve" x="47.7441" y="350.258" fill="black" font-size="12.8453" font-family="Helvetica">0</text>
<text xml:space="preserve" x="41.2277" y="290.796" fill="black" font-size="12.8453" font-family="Helvetica">10</text>
<text xml:space="preserve" x="41.2277" y="231.333" fill="black" font-size="12.8453" font-family="Helvetica">20</text>
<text xml:space="preserve" x="41.2277" y="171.056" fill="black" font-size="12.8453" font-family="Helvetica">30</text>
<text xml:space="preserve" x="41.2277" y="111.594" fill="black" font-size="12.8453" font-family="Helvetica">40</text>
<text xml:space="preserve" x="41.2277" y="51.3169" fill="black" font-size="12.8453" font-family="Helvetica">50</text>
<g transform="rotate(-90,29.0094,70.0516)">
<text xml:space="preserve" x="29.0094" y="70.0516" fill="black" font-size="12.8453" font-family="Helvetica">Event</text>
</g>
<text xml:space="preserve" x="253.012" y="18.7347" fill="black" font-size="16.9898" font-family="Helvetica">0mm 12</text></svg>
