<?xml version="1.0" standalone="no"?>
<svg width="567.429" height="384.969" viewBox="0 0 567.429 384.969" xmlns="http://www.w3.org/2000/svg" shape-rendering="crispEdges">
<title>
img/week2/Combined560mm_ch_58.svg
</title>
<desc>
Creator: ROOT Version 6.22/09
CreationDate: Thu Jun 24 12:07:47 2021</desc>
<defs>
</defs>
<rect x="0.5" y="0" width="566.929" height="384.469" fill="white"/>
<rect x="57.1929" y="38.4469" width="453.543" height="307.575" fill="white"/>
<rect x="57.1929" y="38.4469" width="453.543" height="307.575" fill="none" stroke="black"/>
<rect x="57.1929" y="38.4469" width="453.543" height="307.575" fill="white"/>
<rect x="57.1929" y="38.4469" width="453.543" height="307.575" fill="none" stroke="black"/>
<path d="M57.1929,346.022h 151.181v -7.917h 30.2362v -31.668h 30.2362v -253.344h 30.2362v 118.755h 30.2362v 150.423h 30.2362v 23.751h 151.181" fill="none" stroke="#000099"/>
<g fill="#ff0000">
<polygon points=" 279.729, 48.8577 288.2, 48.8577 283.965, 57.329"/>
</g>
<path d="M59.4606,346.022h 145.134l 4.53543, -0.0680727l 4.53543, -0.0953506l 4.53543, -0.210477l 4.53543, -0.441365l 4.53543, -0.878851l 4.53543, -1.66085l 4.53543, -2.97694l 4.53543, -5.05699l 4.53543, -8.13335l 4.53543, -12.3696l 4.53543,
 -17.7594l 4.53543, -24.0171l 4.53543, -30.4994l 4.53543, -36.2062l 4.53543, -39.9033l 4.53543, -40.3689l 4.53543, -36.7208" fill="none" stroke="#ff0000" stroke-width="2"/>
<path d="M281.697,88.6554l 4.53543, -28.7281l 4.53543, -16.993l 4.53543, -2.91685l 4.53543, 11.5702l 4.53543, 24.4429l 4.53543, 34.0455l 4.53543, 39.4398l 4.53543, 40.5363l 4.53543, 37.9905l 4.53543, 32.9298l 4.53543, 26.6191l 4.53543, 20.1738l
 4.53543, 14.3854l 4.53543, 9.67602l 4.53543, 6.15058l 4.53543, 3.69989l 4.53543, 2.10856l 4.53543, 1.13941l 4.53543, 0.584211l 4.53543, 0.28438l 4.53543, 0.131483l 4.53543, 0.057763l 4.53543, 0.0392605h 117.921" fill="none" stroke="#ff0000"
 stroke-width="2"/>
<path d="M503.933,346.022h 4.53543" fill="none" stroke="#ff0000" stroke-width="2"/>
<path d="M57.1929,346.022h 453.543" fill="none" stroke="black"/>
<path d="M84.5516,336.795v 9.22726" fill="none" stroke="black"/>
<path d="M99.6623,341.409v 4.61363" fill="none" stroke="black"/>
<path d="M114.773,341.409v 4.61363" fill="none" stroke="black"/>
<path d="M129.884,341.409v 4.61363" fill="none" stroke="black"/>
<path d="M144.995,341.409v 4.61363" fill="none" stroke="black"/>
<path d="M160.105,336.795v 9.22726" fill="none" stroke="black"/>
<path d="M175.216,341.409v 4.61363" fill="none" stroke="black"/>
<path d="M190.327,341.409v 4.61363" fill="none" stroke="black"/>
<path d="M205.437,341.409v 4.61363" fill="none" stroke="black"/>
<path d="M220.548,341.409v 4.61363" fill="none" stroke="black"/>
<path d="M235.659,336.795v 9.22726" fill="none" stroke="black"/>
<path d="M250.77,341.409v 4.61363" fill="none" stroke="black"/>
<path d="M265.88,341.409v 4.61363" fill="none" stroke="black"/>
<path d="M280.991,341.409v 4.61363" fill="none" stroke="black"/>
<path d="M296.102,341.409v 4.61363" fill="none" stroke="black"/>
<path d="M311.213,336.795v 9.22726" fill="none" stroke="black"/>
<path d="M326.323,341.409v 4.61363" fill="none" stroke="black"/>
<path d="M341.434,341.409v 4.61363" fill="none" stroke="black"/>
<path d="M356.545,341.409v 4.61363" fill="none" stroke="black"/>
<path d="M371.656,341.409v 4.61363" fill="none" stroke="black"/>
<path d="M386.766,336.795v 9.22726" fill="none" stroke="black"/>
<path d="M401.877,341.409v 4.61363" fill="none" stroke="black"/>
<path d="M416.988,341.409v 4.61363" fill="none" stroke="black"/>
<path d="M432.098,341.409v 4.61363" fill="none" stroke="black"/>
<path d="M447.209,341.409v 4.61363" fill="none" stroke="black"/>
<path d="M462.32,336.795v 9.22726" fill="none" stroke="black"/>
<path d="M84.5516,336.795v 9.22726" fill="none" stroke="black"/>
<path d="M69.4409,341.409v 4.61363" fill="none" stroke="black"/>
<path d="M462.32,336.795v 9.22726" fill="none" stroke="black"/>
<path d="M477.431,341.409v 4.61363" fill="none" stroke="black"/>
<path d="M492.541,341.409v 4.61363" fill="none" stroke="black"/>
<path d="M507.652,341.409v 4.61363" fill="none" stroke="black"/>
<text xml:space="preserve" x="73.8098" y="358.403" fill="black" font-size="12.8453" font-family="Helvetica">780</text>
<text xml:space="preserve" x="148.749" y="358.403" fill="black" font-size="12.8453" font-family="Helvetica">790</text>
<text xml:space="preserve" x="224.502" y="358.403" fill="black" font-size="12.8453" font-family="Helvetica">800</text>
<text xml:space="preserve" x="300.256" y="358.403" fill="black" font-size="12.8453" font-family="Helvetica">810</text>
<text xml:space="preserve" x="376.009" y="358.403" fill="black" font-size="12.8453" font-family="Helvetica">820</text>
<text xml:space="preserve" x="450.948" y="358.403" fill="black" font-size="12.8453" font-family="Helvetica">830</text>
<text xml:space="preserve" x="460.723" y="370.622" fill="black" font-size="12.8453" font-family="Helvetica">Time [ps]</text>
<path d="M57.1929,346.022v -307.575" fill="none" stroke="black"/>
<path d="M70.7992,346.022h -13.6063" fill="none" stroke="black"/>
<path d="M63.9961,338.105h -6.80315" fill="none" stroke="black"/>
<path d="M63.9961,330.188h -6.80315" fill="none" stroke="black"/>
<path d="M63.9961,322.271h -6.80315" fill="none" stroke="black"/>
<path d="M63.9961,314.354h -6.80315" fill="none" stroke="black"/>
<path d="M70.7992,306.437h -13.6063" fill="none" stroke="black"/>
<path d="M63.9961,298.52h -6.80315" fill="none" stroke="black"/>
<path d="M63.9961,290.603h -6.80315" fill="none" stroke="black"/>
<path d="M63.9961,282.686h -6.80315" fill="none" stroke="black"/>
<path d="M63.9961,274.769h -6.80315" fill="none" stroke="black"/>
<path d="M70.7992,266.852h -13.6063" fill="none" stroke="black"/>
<path d="M63.9961,258.935h -6.80315" fill="none" stroke="black"/>
<path d="M63.9961,251.018h -6.80315" fill="none" stroke="black"/>
<path d="M63.9961,243.101h -6.80315" fill="none" stroke="black"/>
<path d="M63.9961,235.184h -6.80315" fill="none" stroke="black"/>
<path d="M70.7992,227.267h -13.6063" fill="none" stroke="black"/>
<path d="M63.9961,219.35h -6.80315" fill="none" stroke="black"/>
<path d="M63.9961,211.433h -6.80315" fill="none" stroke="black"/>
<path d="M63.9961,203.516h -6.80315" fill="none" stroke="black"/>
<path d="M63.9961,195.599h -6.80315" fill="none" stroke="black"/>
<path d="M70.7992,187.682h -13.6063" fill="none" stroke="black"/>
<path d="M63.9961,179.765h -6.80315" fill="none" stroke="black"/>
<path d="M63.9961,171.848h -6.80315" fill="none" stroke="black"/>
<path d="M63.9961,163.931h -6.80315" fill="none" stroke="black"/>
<path d="M63.9961,156.014h -6.80315" fill="none" stroke="black"/>
<path d="M70.7992,148.097h -13.6063" fill="none" stroke="black"/>
<path d="M63.9961,140.18h -6.80315" fill="none" stroke="black"/>
<path d="M63.9961,132.263h -6.80315" fill="none" stroke="black"/>
<path d="M63.9961,124.346h -6.80315" fill="none" stroke="black"/>
<path d="M63.9961,116.429h -6.80315" fill="none" stroke="black"/>
<path d="M70.7992,108.512h -13.6063" fill="none" stroke="black"/>
<path d="M63.9961,100.595h -6.80315" fill="none" stroke="black"/>
<path d="M63.9961,92.6784h -6.80315" fill="none" stroke="black"/>
<path d="M63.9961,84.7614h -6.80315" fill="none" stroke="black"/>
<path d="M63.9961,76.8444h -6.80315" fill="none" stroke="black"/>
<path d="M70.7992,68.9274h -13.6063" fill="none" stroke="black"/>
<path d="M70.7992,68.9274h -13.6063" fill="none" stroke="black"/>
<path d="M63.9961,61.0104h -6.80315" fill="none" stroke="black"/>
<path d="M63.9961,53.0934h -6.80315" fill="none" stroke="black"/>
<path d="M63.9961,45.1764h -6.80315" fill="none" stroke="black"/>
<text xml:space="preserve" x="47.7441" y="350.258" fill="black" font-size="12.8453" font-family="Helvetica">0</text>
<text xml:space="preserve" x="47.7441" y="311.159" fill="black" font-size="12.8453" font-family="Helvetica">5</text>
<text xml:space="preserve" x="41.2277" y="271.246" fill="black" font-size="12.8453" font-family="Helvetica">10</text>
<text xml:space="preserve" x="40.4131" y="232.148" fill="black" font-size="12.8453" font-family="Helvetica">15</text>
<text xml:space="preserve" x="41.2277" y="192.235" fill="black" font-size="12.8453" font-family="Helvetica">20</text>
<text xml:space="preserve" x="40.4131" y="152.321" fill="black" font-size="12.8453" font-family="Helvetica">25</text>
<text xml:space="preserve" x="41.2277" y="113.223" fill="black" font-size="12.8453" font-family="Helvetica">30</text>
<text xml:space="preserve" x="40.4131" y="73.3098" fill="black" font-size="12.8453" font-family="Helvetica">35</text>
<g transform="rotate(-90,28.1948,70.0516)">
<text xml:space="preserve" x="28.1948" y="70.0516" fill="black" font-size="12.8453" font-family="Helvetica">Event</text>
</g>
<text xml:space="preserve" x="243.237" y="18.7347" fill="black" font-size="16.9898" font-family="Helvetica">560mm 58</text></svg>
