<?xml version="1.0" standalone="no"?>
<svg width="567.429" height="384.68" viewBox="0 0 567.429 384.68" xmlns="http://www.w3.org/2000/svg" shape-rendering="crispEdges">
<title>
img/week2/Combined0mm_ch_48_49_50_51.svg
</title>
<desc>
Creator: ROOT Version 6.22/09
CreationDate: Tue Jun 22 18:02:41 2021</desc>
<defs>
</defs>
<rect x="0.5" y="0" width="566.929" height="384.18" fill="white"/>
<rect x="57.1929" y="38.418" width="453.543" height="307.344" fill="white"/>
<rect x="57.1929" y="38.418" width="453.543" height="307.344" fill="none" stroke="black"/>
<rect x="57.1929" y="38.418" width="453.543" height="307.344" fill="white"/>
<rect x="57.1929" y="38.418" width="453.543" height="307.344" fill="none" stroke="black"/>
<path d="M57.1929,345.762h 60.4724v -1.22472h 30.2362v -2.44944h 30.2362v -2.44944h 30.2362v -6.12361h 30.2362v -73.4833h 30.2362v -206.978h 30.2362v 183.708h 30.2362v 105.326h 30.2362v 3.67416h 151.181" fill="none" stroke="#000099"/>
<g fill="#ff0000">
<polygon points=" 279.741, 48.8299 288.188, 48.8299 283.965, 57.2769"/>
</g>
<path d="M59.4606,345.762h 136.063l 4.53543, -0.0610417l 4.53543, -0.0859392l 4.53543, -0.190295l 4.53543, -0.400289l 4.53543, -0.799547l 4.53543, -1.51571l 4.53543, -2.7253l 4.53543, -4.64415l 4.53543, -7.49321l 4.53543, -11.4329l 4.53543, -16.4691l
 4.53543, -22.3486l 4.53543, -28.4825l 4.53543, -33.9423l 4.53543, -37.5682l 4.53543, -38.1974l 4.53543, -34.9706l 4.53543, -27.6308l 4.53543, -16.7043" fill="none" stroke="#ff0000" stroke-width="2"/>
<path d="M281.697,60.0997l 4.53543, -3.48004l 4.53543, 10.2345l 4.53543, 22.5185l 4.53543, 31.7791l 4.53543, 37.0895l 4.53543, 38.324l 4.53543, 36.0714l 4.53543, 31.3823l 4.53543, 25.4529l 4.53543, 19.3495l 4.53543, 13.8377l 4.53543, 9.33332l
 4.53543, 5.94849l 4.53543, 3.5875l 4.53543, 2.0496l 4.53543, 1.11023l 4.53543, 0.5706l 4.53543, 0.278398l 4.53543, 0.129009l 4.53543, 0.0568021l 4.53543, 0.0387413h 126.992" fill="none" stroke="#ff0000" stroke-width="2"/>
<path d="M503.933,345.762h 4.53543" fill="none" stroke="#ff0000" stroke-width="2"/>
<rect x="351.996" y="24.9717" width="204.094" height="107.57" fill="white"/>
<path d="M351.996,132.542h 204.094" fill="none" stroke="black"/>
<path d="M556.091,132.542v -107.57" fill="none" stroke="black"/>
<path d="M556.091,24.9717h -204.094" fill="none" stroke="black"/>
<path d="M351.996,24.9717v 107.57" fill="none" stroke="black"/>
<text xml:space="preserve" x="361.938" y="38.9865" fill="black" font-size="15.6322" font-family="Helvetica">Entries </text>
<text xml:space="preserve" x="515.447" y="38.9865" fill="black" font-size="15.6322" font-family="Helvetica"> 420</text>
<text xml:space="preserve" x="375.745" y="56.8554" fill="black" font-size="15.6322" font-family="Helvetica"> / ndf </text>
<text xml:space="preserve" x="370.06" y="51.982" fill="black" font-size="10.5881" font-family="Helvetica">2</text>
<text xml:space="preserve" x="361.938" y="56.8554" fill="black" font-size="15.6322" font-family="Times">&#0967;</text>
<text xml:space="preserve" x="481.334" y="56.8554" fill="black" font-size="15.6322" font-family="Helvetica"> 14.79 / 5</text>
<text xml:space="preserve" x="361.938" y="74.7242" fill="black" font-size="15.6322" font-family="Helvetica">Prob  </text>
<text xml:space="preserve" x="494.329" y="74.7242" fill="black" font-size="15.6322" font-family="Helvetica"> 0.0113</text>
<text xml:space="preserve" x="361.938" y="94.2175" fill="black" font-size="15.6322" font-family="Helvetica">Const    </text>
<text xml:space="preserve" x="511.386" y="93.4052" fill="black" font-size="15.6322" font-family="Helvetica"> 14.9</text>
<text xml:space="preserve" x="502.452" y="93.4052" fill="black" font-size="15.6322" font-family="Times">&#0177;</text>
<text xml:space="preserve" x="454.531" y="93.4052" fill="black" font-size="15.6322" font-family="Helvetica"> 236.4 </text>
<text xml:space="preserve" x="361.938" y="111.274" fill="black" font-size="15.6322" font-family="Helvetica">Mean     </text>
<text xml:space="preserve" x="522.757" y="111.274" fill="black" font-size="15.6322" font-family="Helvetica"> 0.1</text>
<text xml:space="preserve" x="513.823" y="111.274" fill="black" font-size="15.6322" font-family="Times">&#0177;</text>
<text xml:space="preserve" x="466.714" y="111.274" fill="black" font-size="15.6322" font-family="Helvetica"> 810.5 </text>
<text xml:space="preserve" x="361.938" y="128.331" fill="black" font-size="15.6322" font-family="Helvetica">Sigma    </text>
<text xml:space="preserve" x="502.452" y="129.143" fill="black" font-size="15.6322" font-family="Helvetica"> 0.107</text>
<text xml:space="preserve" x="493.517" y="129.143" fill="black" font-size="15.6322" font-family="Times">&#0177;</text>
<text xml:space="preserve" x="446.408" y="129.143" fill="black" font-size="15.6322" font-family="Helvetica"> 2.736 </text>
<path d="M57.1929,345.762h 453.543" fill="none" stroke="black"/>
<path d="M129.869,336.541v 9.22031" fill="none" stroke="black"/>
<path d="M144.98,341.152v 4.61016" fill="none" stroke="black"/>
<path d="M160.09,341.152v 4.61016" fill="none" stroke="black"/>
<path d="M175.201,341.152v 4.61016" fill="none" stroke="black"/>
<path d="M190.312,341.152v 4.61016" fill="none" stroke="black"/>
<path d="M205.423,336.541v 9.22031" fill="none" stroke="black"/>
<path d="M220.533,341.152v 4.61016" fill="none" stroke="black"/>
<path d="M235.644,341.152v 4.61016" fill="none" stroke="black"/>
<path d="M250.755,341.152v 4.61016" fill="none" stroke="black"/>
<path d="M265.866,341.152v 4.61016" fill="none" stroke="black"/>
<path d="M280.976,336.541v 9.22031" fill="none" stroke="black"/>
<path d="M296.087,341.152v 4.61016" fill="none" stroke="black"/>
<path d="M311.198,341.152v 4.61016" fill="none" stroke="black"/>
<path d="M326.309,341.152v 4.61016" fill="none" stroke="black"/>
<path d="M341.419,341.152v 4.61016" fill="none" stroke="black"/>
<path d="M356.53,336.541v 9.22031" fill="none" stroke="black"/>
<path d="M371.641,341.152v 4.61016" fill="none" stroke="black"/>
<path d="M386.751,341.152v 4.61016" fill="none" stroke="black"/>
<path d="M401.862,341.152v 4.61016" fill="none" stroke="black"/>
<path d="M416.973,341.152v 4.61016" fill="none" stroke="black"/>
<path d="M432.084,336.541v 9.22031" fill="none" stroke="black"/>
<path d="M447.194,341.152v 4.61016" fill="none" stroke="black"/>
<path d="M462.305,341.152v 4.61016" fill="none" stroke="black"/>
<path d="M477.416,341.152v 4.61016" fill="none" stroke="black"/>
<path d="M492.527,341.152v 4.61016" fill="none" stroke="black"/>
<path d="M507.637,336.541v 9.22031" fill="none" stroke="black"/>
<path d="M129.869,336.541v 9.22031" fill="none" stroke="black"/>
<path d="M114.758,341.152v 4.61016" fill="none" stroke="black"/>
<path d="M99.6476,341.152v 4.61016" fill="none" stroke="black"/>
<path d="M84.5368,341.152v 4.61016" fill="none" stroke="black"/>
<path d="M69.4261,341.152v 4.61016" fill="none" stroke="black"/>
<path d="M507.637,336.541v 9.22031" fill="none" stroke="black"/>
<text xml:space="preserve" x="119.084" y="358.189" fill="black" font-size="12.836" font-family="Helvetica">790</text>
<text xml:space="preserve" x="194.62" y="358.189" fill="black" font-size="12.836" font-family="Helvetica">800</text>
<text xml:space="preserve" x="270.157" y="358.189" fill="black" font-size="12.836" font-family="Helvetica">810</text>
<text xml:space="preserve" x="345.693" y="358.189" fill="black" font-size="12.836" font-family="Helvetica">820</text>
<text xml:space="preserve" x="421.23" y="358.189" fill="black" font-size="12.836" font-family="Helvetica">830</text>
<text xml:space="preserve" x="496.766" y="358.189" fill="black" font-size="12.836" font-family="Helvetica">840</text>
<text xml:space="preserve" x="461.028" y="370.372" fill="black" font-size="12.836" font-family="Helvetica">Time [ps]</text>
<path d="M57.1929,345.762v -307.344" fill="none" stroke="black"/>
<path d="M70.7992,345.762h -13.6063" fill="none" stroke="black"/>
<path d="M63.9961,333.515h -6.80315" fill="none" stroke="black"/>
<path d="M63.9961,321.267h -6.80315" fill="none" stroke="black"/>
<path d="M63.9961,309.02h -6.80315" fill="none" stroke="black"/>
<path d="M63.9961,296.773h -6.80315" fill="none" stroke="black"/>
<path d="M70.7992,284.526h -13.6063" fill="none" stroke="black"/>
<path d="M63.9961,272.279h -6.80315" fill="none" stroke="black"/>
<path d="M63.9961,260.031h -6.80315" fill="none" stroke="black"/>
<path d="M63.9961,247.784h -6.80315" fill="none" stroke="black"/>
<path d="M63.9961,235.537h -6.80315" fill="none" stroke="black"/>
<path d="M70.7992,223.29h -13.6063" fill="none" stroke="black"/>
<path d="M63.9961,211.042h -6.80315" fill="none" stroke="black"/>
<path d="M63.9961,198.795h -6.80315" fill="none" stroke="black"/>
<path d="M63.9961,186.548h -6.80315" fill="none" stroke="black"/>
<path d="M63.9961,174.301h -6.80315" fill="none" stroke="black"/>
<path d="M70.7992,162.054h -13.6063" fill="none" stroke="black"/>
<path d="M63.9961,149.806h -6.80315" fill="none" stroke="black"/>
<path d="M63.9961,137.559h -6.80315" fill="none" stroke="black"/>
<path d="M63.9961,125.312h -6.80315" fill="none" stroke="black"/>
<path d="M63.9961,113.065h -6.80315" fill="none" stroke="black"/>
<path d="M70.7992,100.818h -13.6063" fill="none" stroke="black"/>
<path d="M63.9961,88.5703h -6.80315" fill="none" stroke="black"/>
<path d="M63.9961,76.3231h -6.80315" fill="none" stroke="black"/>
<path d="M63.9961,64.0759h -6.80315" fill="none" stroke="black"/>
<path d="M63.9961,51.8287h -6.80315" fill="none" stroke="black"/>
<path d="M70.7992,39.5815h -13.6063" fill="none" stroke="black"/>
<path d="M70.7992,39.5815h -13.6063" fill="none" stroke="black"/>
<text xml:space="preserve" x="47.6087" y="350.067" fill="black" font-size="12.836" font-family="Helvetica">0</text>
<text xml:space="preserve" x="41.111" y="289.15" fill="black" font-size="12.836" font-family="Helvetica">50</text>
<text xml:space="preserve" x="33.801" y="227.421" fill="black" font-size="12.836" font-family="Helvetica">100</text>
<text xml:space="preserve" x="33.801" y="166.505" fill="black" font-size="12.836" font-family="Helvetica">150</text>
<text xml:space="preserve" x="33.801" y="105.589" fill="black" font-size="12.836" font-family="Helvetica">200</text>
<text xml:space="preserve" x="33.801" y="43.8598" fill="black" font-size="12.836" font-family="Helvetica">250</text>
<g transform="rotate(-90,20.8055,69.8509)">
<text xml:space="preserve" x="20.8055" y="69.8509" fill="black" font-size="12.836" font-family="Helvetica">Event</text>
</g>
<rect x="351.996" y="24.9717" width="204.094" height="107.57" fill="white"/>
<path d="M351.996,132.542h 204.094" fill="none" stroke="black"/>
<path d="M556.091,132.542v -107.57" fill="none" stroke="black"/>
<path d="M556.091,24.9717h -204.094" fill="none" stroke="black"/>
<path d="M351.996,24.9717v 107.57" fill="none" stroke="black"/>
<text xml:space="preserve" x="361.938" y="38.9865" fill="black" font-size="15.6322" font-family="Helvetica">Entries </text>
<text xml:space="preserve" x="515.447" y="38.9865" fill="black" font-size="15.6322" font-family="Helvetica"> 420</text>
<text xml:space="preserve" x="375.745" y="56.8554" fill="black" font-size="15.6322" font-family="Helvetica"> / ndf </text>
<text xml:space="preserve" x="370.06" y="51.982" fill="black" font-size="10.5881" font-family="Helvetica">2</text>
<text xml:space="preserve" x="361.938" y="56.8554" fill="black" font-size="15.6322" font-family="Times">&#0967;</text>
<text xml:space="preserve" x="481.334" y="56.8554" fill="black" font-size="15.6322" font-family="Helvetica"> 14.79 / 5</text>
<text xml:space="preserve" x="361.938" y="74.7242" fill="black" font-size="15.6322" font-family="Helvetica">Prob  </text>
<text xml:space="preserve" x="494.329" y="74.7242" fill="black" font-size="15.6322" font-family="Helvetica"> 0.0113</text>
<text xml:space="preserve" x="361.938" y="94.2175" fill="black" font-size="15.6322" font-family="Helvetica">Const    </text>
<text xml:space="preserve" x="511.386" y="93.4052" fill="black" font-size="15.6322" font-family="Helvetica"> 14.9</text>
<text xml:space="preserve" x="502.452" y="93.4052" fill="black" font-size="15.6322" font-family="Times">&#0177;</text>
<text xml:space="preserve" x="454.531" y="93.4052" fill="black" font-size="15.6322" font-family="Helvetica"> 236.4 </text>
<text xml:space="preserve" x="361.938" y="111.274" fill="black" font-size="15.6322" font-family="Helvetica">Mean     </text>
<text xml:space="preserve" x="522.757" y="111.274" fill="black" font-size="15.6322" font-family="Helvetica"> 0.1</text>
<text xml:space="preserve" x="513.823" y="111.274" fill="black" font-size="15.6322" font-family="Times">&#0177;</text>
<text xml:space="preserve" x="466.714" y="111.274" fill="black" font-size="15.6322" font-family="Helvetica"> 810.5 </text>
<text xml:space="preserve" x="361.938" y="128.331" fill="black" font-size="15.6322" font-family="Helvetica">Sigma    </text>
<text xml:space="preserve" x="502.452" y="129.143" fill="black" font-size="15.6322" font-family="Helvetica"> 0.107</text>
<text xml:space="preserve" x="493.517" y="129.143" fill="black" font-size="15.6322" font-family="Times">&#0177;</text>
<text xml:space="preserve" x="446.408" y="129.143" fill="black" font-size="15.6322" font-family="Helvetica"> 2.736 </text>
<text xml:space="preserve" x="218.987" y="18.681" fill="black" font-size="16.9774" font-family="Helvetica">0mm 48 49 50 51</text></svg>
