<?xml version="1.0" standalone="no"?>
<svg width="567.429" height="384.969" viewBox="0 0 567.429 384.969" xmlns="http://www.w3.org/2000/svg" shape-rendering="crispEdges">
<title>
img/week2/Combined560mm_ch_56_57_58_59.svg
</title>
<desc>
Creator: ROOT Version 6.22/09
CreationDate: Thu Jun 24 11:05:57 2021</desc>
<defs>
</defs>
<rect x="0.5" y="0" width="566.929" height="384.469" fill="white"/>
<rect x="57.1929" y="38.4469" width="453.543" height="307.575" fill="white"/>
<rect x="57.1929" y="38.4469" width="453.543" height="307.575" fill="none" stroke="black"/>
<rect x="57.1929" y="38.4469" width="453.543" height="307.575" fill="white"/>
<rect x="57.1929" y="38.4469" width="453.543" height="307.575" fill="none" stroke="black"/>
<path d="M57.1929,346.022h 56.6929v -2.0202h 28.3465v 2.0202h 28.3465v -2.0202h 28.3465v -16.1616h 28.3465v -50.505h 28.3465v -224.242h 28.3465v 111.111h 28.3465v 165.656h 28.3465v 16.1616h 170.079" fill="none" stroke="#000099"/>
<g fill="#ff0000">
<polygon points=" 265.556, 48.8577 274.027, 48.8577 269.791, 57.329"/>
</g>
<path d="M59.4606,346.022h 126.992l 4.53543, -0.0691183l 4.53543, -0.09521l 4.53543, -0.208372l 4.53543, -0.433672l 4.53543, -0.857959l 4.53543, -1.61264l 4.53543, -2.8781l 4.53543, -4.87357l 4.53543, -7.82258l 4.53543, -11.8875l 4.53543, -17.0758l
 4.53543, -23.137l 4.53543, -29.4851l 4.53543, -35.1919l 4.53543, -39.0897l 4.53543, -39.9925l 4.53543, -36.9976l 4.53543, -29.7861l 4.53543, -18.8159l 4.53543, -5.32186l 4.53543, 8.90578" fill="none" stroke="#ff0000" stroke-width="2"/>
<path d="M281.697,49.2957l 4.53543, 21.9107l 4.53543, 32.012l 4.53543, 38.1605l 4.53543, 40.1047l 4.53543, 38.3366l 4.53543, 33.8613l 4.53543, 27.8869l 4.53543, 21.5366l 4.53543, 15.6562l 4.53543, 10.7421l 4.53543, 6.97014l 4.53543, 4.28327l 4.53543,
 2.49566l 4.53543, 1.37993l 4.53543, 0.724602l 4.53543, 0.36155l 4.53543, 0.171502l 4.53543, 0.0773705l 4.53543, 0.0550207h 136.063" fill="none" stroke="#ff0000" stroke-width="2"/>
<path d="M503.933,346.022h 4.53543" fill="none" stroke="#ff0000" stroke-width="2"/>
<rect x="351.996" y="24.9905" width="204.094" height="107.651" fill="white"/>
<path d="M351.996,132.642h 204.094" fill="none" stroke="black"/>
<path d="M556.091,132.642v -107.651" fill="none" stroke="black"/>
<path d="M556.091,24.9905h -204.094" fill="none" stroke="black"/>
<path d="M351.996,24.9905v 107.651" fill="none" stroke="black"/>
<text xml:space="preserve" x="362.162" y="39.0986" fill="black" font-size="15.6436" font-family="Helvetica">Entries </text>
<text xml:space="preserve" x="515.298" y="39.0986" fill="black" font-size="15.6436" font-family="Helvetica"> 289</text>
<text xml:space="preserve" x="376.009" y="57.0187" fill="black" font-size="15.6436" font-family="Helvetica"> / ndf </text>
<text xml:space="preserve" x="370.307" y="52.1314" fill="black" font-size="10.5957" font-family="Helvetica">2</text>
<text xml:space="preserve" x="362.162" y="57.0187" fill="black" font-size="15.6436" font-family="Times">&#0967;</text>
<text xml:space="preserve" x="481.086" y="57.0187" fill="black" font-size="15.6436" font-family="Helvetica"> 9.562 / 5</text>
<text xml:space="preserve" x="362.162" y="74.9389" fill="black" font-size="15.6436" font-family="Helvetica">Prob  </text>
<text xml:space="preserve" x="485.159" y="74.9389" fill="black" font-size="15.6436" font-family="Helvetica"> 0.08865</text>
<text xml:space="preserve" x="362.162" y="93.6736" fill="black" font-size="15.6436" font-family="Helvetica">Const    </text>
<text xml:space="preserve" x="511.225" y="92.8591" fill="black" font-size="15.6436" font-family="Helvetica"> 11.8</text>
<text xml:space="preserve" x="502.265" y="92.8591" fill="black" font-size="15.6436" font-family="Times">&#0177;</text>
<text xml:space="preserve" x="455.021" y="92.8591" fill="black" font-size="15.6436" font-family="Helvetica"> 151.3 </text>
<text xml:space="preserve" x="362.162" y="110.779" fill="black" font-size="15.6436" font-family="Helvetica">Mean     </text>
<text xml:space="preserve" x="520.185" y="110.779" fill="black" font-size="15.6436" font-family="Helvetica"> 0.2</text>
<text xml:space="preserve" x="511.225" y="110.779" fill="black" font-size="15.6436" font-family="Times">&#0177;</text>
<text xml:space="preserve" x="463.166" y="110.779" fill="black" font-size="15.6436" font-family="Helvetica"> 807.4 </text>
<text xml:space="preserve" x="362.162" y="127.885" fill="black" font-size="15.6436" font-family="Helvetica">Sigma    </text>
<text xml:space="preserve" x="502.265" y="128.699" fill="black" font-size="15.6436" font-family="Helvetica"> 0.147</text>
<text xml:space="preserve" x="493.305" y="128.699" fill="black" font-size="15.6436" font-family="Times">&#0177;</text>
<text xml:space="preserve" x="446.061" y="128.699" fill="black" font-size="15.6436" font-family="Helvetica"> 2.949 </text>
<path d="M57.1929,346.022h 453.543" fill="none" stroke="black"/>
<path d="M82.8417,336.795v 9.22726" fill="none" stroke="black"/>
<path d="M97.008,341.409v 4.61363" fill="none" stroke="black"/>
<path d="M111.174,341.409v 4.61363" fill="none" stroke="black"/>
<path d="M125.341,341.409v 4.61363" fill="none" stroke="black"/>
<path d="M139.507,341.409v 4.61363" fill="none" stroke="black"/>
<path d="M153.673,336.795v 9.22726" fill="none" stroke="black"/>
<path d="M167.84,341.409v 4.61363" fill="none" stroke="black"/>
<path d="M182.006,341.409v 4.61363" fill="none" stroke="black"/>
<path d="M196.172,341.409v 4.61363" fill="none" stroke="black"/>
<path d="M210.338,341.409v 4.61363" fill="none" stroke="black"/>
<path d="M224.505,336.795v 9.22726" fill="none" stroke="black"/>
<path d="M238.671,341.409v 4.61363" fill="none" stroke="black"/>
<path d="M252.837,341.409v 4.61363" fill="none" stroke="black"/>
<path d="M267.004,341.409v 4.61363" fill="none" stroke="black"/>
<path d="M281.17,341.409v 4.61363" fill="none" stroke="black"/>
<path d="M295.336,336.795v 9.22726" fill="none" stroke="black"/>
<path d="M309.503,341.409v 4.61363" fill="none" stroke="black"/>
<path d="M323.669,341.409v 4.61363" fill="none" stroke="black"/>
<path d="M337.835,341.409v 4.61363" fill="none" stroke="black"/>
<path d="M352.002,341.409v 4.61363" fill="none" stroke="black"/>
<path d="M366.168,336.795v 9.22726" fill="none" stroke="black"/>
<path d="M380.334,341.409v 4.61363" fill="none" stroke="black"/>
<path d="M394.501,341.409v 4.61363" fill="none" stroke="black"/>
<path d="M408.667,341.409v 4.61363" fill="none" stroke="black"/>
<path d="M422.833,341.409v 4.61363" fill="none" stroke="black"/>
<path d="M436.999,336.795v 9.22726" fill="none" stroke="black"/>
<path d="M451.166,341.409v 4.61363" fill="none" stroke="black"/>
<path d="M465.332,341.409v 4.61363" fill="none" stroke="black"/>
<path d="M479.498,341.409v 4.61363" fill="none" stroke="black"/>
<path d="M493.665,341.409v 4.61363" fill="none" stroke="black"/>
<path d="M507.831,336.795v 9.22726" fill="none" stroke="black"/>
<path d="M82.8417,336.795v 9.22726" fill="none" stroke="black"/>
<path d="M68.6754,341.409v 4.61363" fill="none" stroke="black"/>
<path d="M507.831,336.795v 9.22726" fill="none" stroke="black"/>
<text xml:space="preserve" x="72.1807" y="358.403" fill="black" font-size="12.8453" font-family="Helvetica">780</text>
<text xml:space="preserve" x="143.047" y="358.403" fill="black" font-size="12.8453" font-family="Helvetica">790</text>
<text xml:space="preserve" x="213.913" y="358.403" fill="black" font-size="12.8453" font-family="Helvetica">800</text>
<text xml:space="preserve" x="283.965" y="358.403" fill="black" font-size="12.8453" font-family="Helvetica">810</text>
<text xml:space="preserve" x="354.831" y="358.403" fill="black" font-size="12.8453" font-family="Helvetica">820</text>
<text xml:space="preserve" x="425.697" y="358.403" fill="black" font-size="12.8453" font-family="Helvetica">830</text>
<text xml:space="preserve" x="496.563" y="358.403" fill="black" font-size="12.8453" font-family="Helvetica">840</text>
<text xml:space="preserve" x="460.723" y="370.622" fill="black" font-size="12.8453" font-family="Helvetica">Time [ps]</text>
<path d="M57.1929,346.022v -307.575" fill="none" stroke="black"/>
<path d="M70.7992,346.022h -13.6063" fill="none" stroke="black"/>
<path d="M63.9961,335.921h -6.80315" fill="none" stroke="black"/>
<path d="M63.9961,325.82h -6.80315" fill="none" stroke="black"/>
<path d="M63.9961,315.719h -6.80315" fill="none" stroke="black"/>
<path d="M70.7992,305.618h -13.6063" fill="none" stroke="black"/>
<path d="M63.9961,295.517h -6.80315" fill="none" stroke="black"/>
<path d="M63.9961,285.416h -6.80315" fill="none" stroke="black"/>
<path d="M63.9961,275.315h -6.80315" fill="none" stroke="black"/>
<path d="M70.7992,265.214h -13.6063" fill="none" stroke="black"/>
<path d="M63.9961,255.113h -6.80315" fill="none" stroke="black"/>
<path d="M63.9961,245.012h -6.80315" fill="none" stroke="black"/>
<path d="M63.9961,234.911h -6.80315" fill="none" stroke="black"/>
<path d="M70.7992,224.81h -13.6063" fill="none" stroke="black"/>
<path d="M63.9961,214.709h -6.80315" fill="none" stroke="black"/>
<path d="M63.9961,204.608h -6.80315" fill="none" stroke="black"/>
<path d="M63.9961,194.507h -6.80315" fill="none" stroke="black"/>
<path d="M70.7992,184.406h -13.6063" fill="none" stroke="black"/>
<path d="M63.9961,174.305h -6.80315" fill="none" stroke="black"/>
<path d="M63.9961,164.204h -6.80315" fill="none" stroke="black"/>
<path d="M63.9961,154.103h -6.80315" fill="none" stroke="black"/>
<path d="M70.7992,144.002h -13.6063" fill="none" stroke="black"/>
<path d="M63.9961,133.901h -6.80315" fill="none" stroke="black"/>
<path d="M63.9961,123.8h -6.80315" fill="none" stroke="black"/>
<path d="M63.9961,113.699h -6.80315" fill="none" stroke="black"/>
<path d="M70.7992,103.598h -13.6063" fill="none" stroke="black"/>
<path d="M63.9961,93.4974h -6.80315" fill="none" stroke="black"/>
<path d="M63.9961,83.3964h -6.80315" fill="none" stroke="black"/>
<path d="M63.9961,73.2954h -6.80315" fill="none" stroke="black"/>
<path d="M70.7992,63.1944h -13.6063" fill="none" stroke="black"/>
<path d="M70.7992,63.1944h -13.6063" fill="none" stroke="black"/>
<path d="M63.9961,53.0934h -6.80315" fill="none" stroke="black"/>
<path d="M63.9961,42.9924h -6.80315" fill="none" stroke="black"/>
<text xml:space="preserve" x="47.7441" y="350.258" fill="black" font-size="12.8453" font-family="Helvetica">0</text>
<text xml:space="preserve" x="41.2277" y="310.345" fill="black" font-size="12.8453" font-family="Helvetica">20</text>
<text xml:space="preserve" x="41.2277" y="269.617" fill="black" font-size="12.8453" font-family="Helvetica">40</text>
<text xml:space="preserve" x="41.2277" y="228.889" fill="black" font-size="12.8453" font-family="Helvetica">60</text>
<text xml:space="preserve" x="41.2277" y="188.976" fill="black" font-size="12.8453" font-family="Helvetica">80</text>
<text xml:space="preserve" x="33.8967" y="148.249" fill="black" font-size="12.8453" font-family="Helvetica">100</text>
<text xml:space="preserve" x="33.8967" y="108.336" fill="black" font-size="12.8453" font-family="Helvetica">120</text>
<text xml:space="preserve" x="33.8967" y="67.6079" fill="black" font-size="12.8453" font-family="Helvetica">140</text>
<g transform="rotate(-90,20.8638,70.0516)">
<text xml:space="preserve" x="20.8638" y="70.0516" fill="black" font-size="12.8453" font-family="Helvetica">Event</text>
</g>
<rect x="351.996" y="24.9905" width="204.094" height="107.651" fill="white"/>
<path d="M351.996,132.642h 204.094" fill="none" stroke="black"/>
<path d="M556.091,132.642v -107.651" fill="none" stroke="black"/>
<path d="M556.091,24.9905h -204.094" fill="none" stroke="black"/>
<path d="M351.996,24.9905v 107.651" fill="none" stroke="black"/>
<text xml:space="preserve" x="362.162" y="39.0986" fill="black" font-size="15.6436" font-family="Helvetica">Entries </text>
<text xml:space="preserve" x="515.298" y="39.0986" fill="black" font-size="15.6436" font-family="Helvetica"> 289</text>
<text xml:space="preserve" x="376.009" y="57.0187" fill="black" font-size="15.6436" font-family="Helvetica"> / ndf </text>
<text xml:space="preserve" x="370.307" y="52.1314" fill="black" font-size="10.5957" font-family="Helvetica">2</text>
<text xml:space="preserve" x="362.162" y="57.0187" fill="black" font-size="15.6436" font-family="Times">&#0967;</text>
<text xml:space="preserve" x="481.086" y="57.0187" fill="black" font-size="15.6436" font-family="Helvetica"> 9.562 / 5</text>
<text xml:space="preserve" x="362.162" y="74.9389" fill="black" font-size="15.6436" font-family="Helvetica">Prob  </text>
<text xml:space="preserve" x="485.159" y="74.9389" fill="black" font-size="15.6436" font-family="Helvetica"> 0.08865</text>
<text xml:space="preserve" x="362.162" y="93.6736" fill="black" font-size="15.6436" font-family="Helvetica">Const    </text>
<text xml:space="preserve" x="511.225" y="92.8591" fill="black" font-size="15.6436" font-family="Helvetica"> 11.8</text>
<text xml:space="preserve" x="502.265" y="92.8591" fill="black" font-size="15.6436" font-family="Times">&#0177;</text>
<text xml:space="preserve" x="455.021" y="92.8591" fill="black" font-size="15.6436" font-family="Helvetica"> 151.3 </text>
<text xml:space="preserve" x="362.162" y="110.779" fill="black" font-size="15.6436" font-family="Helvetica">Mean     </text>
<text xml:space="preserve" x="520.185" y="110.779" fill="black" font-size="15.6436" font-family="Helvetica"> 0.2</text>
<text xml:space="preserve" x="511.225" y="110.779" fill="black" font-size="15.6436" font-family="Times">&#0177;</text>
<text xml:space="preserve" x="463.166" y="110.779" fill="black" font-size="15.6436" font-family="Helvetica"> 807.4 </text>
<text xml:space="preserve" x="362.162" y="127.885" fill="black" font-size="15.6436" font-family="Helvetica">Sigma    </text>
<text xml:space="preserve" x="502.265" y="128.699" fill="black" font-size="15.6436" font-family="Helvetica"> 0.147</text>
<text xml:space="preserve" x="493.305" y="128.699" fill="black" font-size="15.6436" font-family="Times">&#0177;</text>
<text xml:space="preserve" x="446.061" y="128.699" fill="black" font-size="15.6436" font-family="Helvetica"> 2.949 </text>
<text xml:space="preserve" x="208.211" y="18.7347" fill="black" font-size="16.9898" font-family="Helvetica">560mm 56 57 58 59</text></svg>
