<?xml version="1.0" standalone="no"?>
<svg width="567.429" height="384.969" viewBox="0 0 567.429 384.969" xmlns="http://www.w3.org/2000/svg" shape-rendering="crispEdges">
<title>
img/week2/Combined670mm_ch_37.svg
</title>
<desc>
Creator: ROOT Version 6.22/09
CreationDate: Thu Jun 24 12:07:49 2021</desc>
<defs>
</defs>
<rect x="0.5" y="0" width="566.929" height="384.469" fill="white"/>
<rect x="57.1929" y="38.4469" width="453.543" height="307.575" fill="white"/>
<rect x="57.1929" y="38.4469" width="453.543" height="307.575" fill="none" stroke="black"/>
<rect x="57.1929" y="38.4469" width="453.543" height="307.575" fill="white"/>
<rect x="57.1929" y="38.4469" width="453.543" height="307.575" fill="none" stroke="black"/>
<path d="M57.1929,346.022h 75.5906v -3.61641h 75.5906v -7.23281h 37.7953v -173.587h 37.7953v -108.492h 37.7953v 274.847h 37.7953v 18.082h 151.181" fill="none" stroke="#000099"/>
<g fill="#ff0000">
<polygon points=" 298.627, 48.8577 307.098, 48.8577 302.862, 57.329"/>
</g>
<path d="M59.4606,346.022h 131.528l 4.53543, -0.0342487l 4.53543, -0.0479373l 4.53543, -0.106623l 4.53543, -0.226449l 4.53543, -0.45909l 4.53543, -0.888119l 4.53543, -1.6387l 4.53543, -2.8824l 4.53543, -4.83005l 4.53543, -7.70445l 4.53543, -11.6865l
 4.53543, -16.8352l 4.53543, -22.993l 4.53543, -29.7041l 4.53543, -36.1807l 4.53543, -41.3554l 4.53543, -44.038l 4.53543, -43.1636l 4.53543, -38.0786l 0.744141, -4.72209" fill="none" stroke="#ff0000" stroke-width="2"/>
<path d="M299.936,38.4469l 4.43761, 36.0244" fill="none" stroke="#ff0000" stroke-width="2"/>
<path d="M304.374,74.4714l 4.53543, 42.6214l 4.53543, 44.1631l 4.53543, 42.0036l 4.53543, 37.1594l 4.53543, 30.8189l 4.53543, 24.0836l 4.53543, 17.7937l 4.53543, 12.4598l 4.53543, 8.28397l 4.53543, 5.23641l 4.53543, 3.15033l 4.53543, 1.80538l
 4.53543, 0.986199l 4.53543, 0.513783l 4.53543, 0.255395l 4.53543, 0.121179l 4.53543, 0.054899l 4.53543, 0.0397122h 122.457" fill="none" stroke="#ff0000" stroke-width="2"/>
<path d="M57.1929,346.022h 453.543" fill="none" stroke="black"/>
<path d="M63.0218,336.795v 9.22726" fill="none" stroke="black"/>
<path d="M72.466,341.409v 4.61363" fill="none" stroke="black"/>
<path d="M81.9102,341.409v 4.61363" fill="none" stroke="black"/>
<path d="M91.3544,341.409v 4.61363" fill="none" stroke="black"/>
<path d="M100.799,341.409v 4.61363" fill="none" stroke="black"/>
<path d="M110.243,336.795v 9.22726" fill="none" stroke="black"/>
<path d="M119.687,341.409v 4.61363" fill="none" stroke="black"/>
<path d="M129.131,341.409v 4.61363" fill="none" stroke="black"/>
<path d="M138.575,341.409v 4.61363" fill="none" stroke="black"/>
<path d="M148.02,341.409v 4.61363" fill="none" stroke="black"/>
<path d="M157.464,336.795v 9.22726" fill="none" stroke="black"/>
<path d="M166.908,341.409v 4.61363" fill="none" stroke="black"/>
<path d="M176.352,341.409v 4.61363" fill="none" stroke="black"/>
<path d="M185.796,341.409v 4.61363" fill="none" stroke="black"/>
<path d="M195.241,341.409v 4.61363" fill="none" stroke="black"/>
<path d="M204.685,336.795v 9.22726" fill="none" stroke="black"/>
<path d="M214.129,341.409v 4.61363" fill="none" stroke="black"/>
<path d="M223.573,341.409v 4.61363" fill="none" stroke="black"/>
<path d="M233.018,341.409v 4.61363" fill="none" stroke="black"/>
<path d="M242.462,341.409v 4.61363" fill="none" stroke="black"/>
<path d="M251.906,336.795v 9.22726" fill="none" stroke="black"/>
<path d="M261.35,341.409v 4.61363" fill="none" stroke="black"/>
<path d="M270.794,341.409v 4.61363" fill="none" stroke="black"/>
<path d="M280.239,341.409v 4.61363" fill="none" stroke="black"/>
<path d="M289.683,341.409v 4.61363" fill="none" stroke="black"/>
<path d="M299.127,336.795v 9.22726" fill="none" stroke="black"/>
<path d="M308.571,341.409v 4.61363" fill="none" stroke="black"/>
<path d="M318.015,341.409v 4.61363" fill="none" stroke="black"/>
<path d="M327.46,341.409v 4.61363" fill="none" stroke="black"/>
<path d="M336.904,341.409v 4.61363" fill="none" stroke="black"/>
<path d="M346.348,336.795v 9.22726" fill="none" stroke="black"/>
<path d="M355.792,341.409v 4.61363" fill="none" stroke="black"/>
<path d="M365.236,341.409v 4.61363" fill="none" stroke="black"/>
<path d="M374.681,341.409v 4.61363" fill="none" stroke="black"/>
<path d="M384.125,341.409v 4.61363" fill="none" stroke="black"/>
<path d="M393.569,336.795v 9.22726" fill="none" stroke="black"/>
<path d="M403.013,341.409v 4.61363" fill="none" stroke="black"/>
<path d="M412.457,341.409v 4.61363" fill="none" stroke="black"/>
<path d="M421.902,341.409v 4.61363" fill="none" stroke="black"/>
<path d="M431.346,341.409v 4.61363" fill="none" stroke="black"/>
<path d="M440.79,336.795v 9.22726" fill="none" stroke="black"/>
<path d="M450.234,341.409v 4.61363" fill="none" stroke="black"/>
<path d="M459.678,341.409v 4.61363" fill="none" stroke="black"/>
<path d="M469.123,341.409v 4.61363" fill="none" stroke="black"/>
<path d="M478.567,341.409v 4.61363" fill="none" stroke="black"/>
<path d="M488.011,336.795v 9.22726" fill="none" stroke="black"/>
<path d="M63.0218,336.795v 9.22726" fill="none" stroke="black"/>
<path d="M488.011,336.795v 9.22726" fill="none" stroke="black"/>
<path d="M497.455,341.409v 4.61363" fill="none" stroke="black"/>
<path d="M506.9,341.409v 4.61363" fill="none" stroke="black"/>
<text xml:space="preserve" x="51.8169" y="358.403" fill="black" font-size="12.8453" font-family="Helvetica">785</text>
<text xml:space="preserve" x="99.061" y="358.403" fill="black" font-size="12.8453" font-family="Helvetica">790</text>
<text xml:space="preserve" x="146.305" y="358.403" fill="black" font-size="12.8453" font-family="Helvetica">795</text>
<text xml:space="preserve" x="193.549" y="358.403" fill="black" font-size="12.8453" font-family="Helvetica">800</text>
<text xml:space="preserve" x="240.793" y="358.403" fill="black" font-size="12.8453" font-family="Helvetica">805</text>
<text xml:space="preserve" x="288.037" y="358.403" fill="black" font-size="12.8453" font-family="Helvetica">810</text>
<text xml:space="preserve" x="335.281" y="358.403" fill="black" font-size="12.8453" font-family="Helvetica">815</text>
<text xml:space="preserve" x="382.526" y="358.403" fill="black" font-size="12.8453" font-family="Helvetica">820</text>
<text xml:space="preserve" x="429.77" y="358.403" fill="black" font-size="12.8453" font-family="Helvetica">825</text>
<text xml:space="preserve" x="477.014" y="358.403" fill="black" font-size="12.8453" font-family="Helvetica">830</text>
<text xml:space="preserve" x="460.723" y="370.622" fill="black" font-size="12.8453" font-family="Helvetica">Time [ps]</text>
<path d="M57.1929,346.022v -307.575" fill="none" stroke="black"/>
<path d="M70.7992,346.022h -13.6063" fill="none" stroke="black"/>
<path d="M63.9961,338.789h -6.80315" fill="none" stroke="black"/>
<path d="M63.9961,331.557h -6.80315" fill="none" stroke="black"/>
<path d="M63.9961,324.324h -6.80315" fill="none" stroke="black"/>
<path d="M63.9961,317.091h -6.80315" fill="none" stroke="black"/>
<path d="M70.7992,309.858h -13.6063" fill="none" stroke="black"/>
<path d="M63.9961,302.625h -6.80315" fill="none" stroke="black"/>
<path d="M63.9961,295.393h -6.80315" fill="none" stroke="black"/>
<path d="M63.9961,288.16h -6.80315" fill="none" stroke="black"/>
<path d="M63.9961,280.927h -6.80315" fill="none" stroke="black"/>
<path d="M70.7992,273.694h -13.6063" fill="none" stroke="black"/>
<path d="M63.9961,266.461h -6.80315" fill="none" stroke="black"/>
<path d="M63.9961,259.229h -6.80315" fill="none" stroke="black"/>
<path d="M63.9961,251.996h -6.80315" fill="none" stroke="black"/>
<path d="M63.9961,244.763h -6.80315" fill="none" stroke="black"/>
<path d="M70.7992,237.53h -13.6063" fill="none" stroke="black"/>
<path d="M63.9961,230.297h -6.80315" fill="none" stroke="black"/>
<path d="M63.9961,223.064h -6.80315" fill="none" stroke="black"/>
<path d="M63.9961,215.832h -6.80315" fill="none" stroke="black"/>
<path d="M63.9961,208.599h -6.80315" fill="none" stroke="black"/>
<path d="M70.7992,201.366h -13.6063" fill="none" stroke="black"/>
<path d="M63.9961,194.133h -6.80315" fill="none" stroke="black"/>
<path d="M63.9961,186.9h -6.80315" fill="none" stroke="black"/>
<path d="M63.9961,179.668h -6.80315" fill="none" stroke="black"/>
<path d="M63.9961,172.435h -6.80315" fill="none" stroke="black"/>
<path d="M70.7992,165.202h -13.6063" fill="none" stroke="black"/>
<path d="M63.9961,157.969h -6.80315" fill="none" stroke="black"/>
<path d="M63.9961,150.736h -6.80315" fill="none" stroke="black"/>
<path d="M63.9961,143.504h -6.80315" fill="none" stroke="black"/>
<path d="M63.9961,136.271h -6.80315" fill="none" stroke="black"/>
<path d="M70.7992,129.038h -13.6063" fill="none" stroke="black"/>
<path d="M63.9961,121.805h -6.80315" fill="none" stroke="black"/>
<path d="M63.9961,114.572h -6.80315" fill="none" stroke="black"/>
<path d="M63.9961,107.339h -6.80315" fill="none" stroke="black"/>
<path d="M63.9961,100.107h -6.80315" fill="none" stroke="black"/>
<path d="M70.7992,92.8738h -13.6063" fill="none" stroke="black"/>
<path d="M63.9961,85.641h -6.80315" fill="none" stroke="black"/>
<path d="M63.9961,78.4082h -6.80315" fill="none" stroke="black"/>
<path d="M63.9961,71.1754h -6.80315" fill="none" stroke="black"/>
<path d="M63.9961,63.9426h -6.80315" fill="none" stroke="black"/>
<path d="M70.7992,56.7098h -13.6063" fill="none" stroke="black"/>
<path d="M70.7992,56.7098h -13.6063" fill="none" stroke="black"/>
<path d="M63.9961,49.477h -6.80315" fill="none" stroke="black"/>
<path d="M63.9961,42.2441h -6.80315" fill="none" stroke="black"/>
<text xml:space="preserve" x="47.7441" y="350.258" fill="black" font-size="12.8453" font-family="Helvetica">0</text>
<text xml:space="preserve" x="41.2277" y="314.418" fill="black" font-size="12.8453" font-family="Helvetica">10</text>
<text xml:space="preserve" x="41.2277" y="278.577" fill="black" font-size="12.8453" font-family="Helvetica">20</text>
<text xml:space="preserve" x="41.2277" y="241.922" fill="black" font-size="12.8453" font-family="Helvetica">30</text>
<text xml:space="preserve" x="41.2277" y="206.082" fill="black" font-size="12.8453" font-family="Helvetica">40</text>
<text xml:space="preserve" x="41.2277" y="169.427" fill="black" font-size="12.8453" font-family="Helvetica">50</text>
<text xml:space="preserve" x="41.2277" y="133.587" fill="black" font-size="12.8453" font-family="Helvetica">60</text>
<text xml:space="preserve" x="41.2277" y="97.7464" fill="black" font-size="12.8453" font-family="Helvetica">70</text>
<text xml:space="preserve" x="41.2277" y="61.0915" fill="black" font-size="12.8453" font-family="Helvetica">80</text>
<g transform="rotate(-90,29.0094,70.0516)">
<text xml:space="preserve" x="29.0094" y="70.0516" fill="black" font-size="12.8453" font-family="Helvetica">Event</text>
</g>
<text xml:space="preserve" x="243.237" y="18.7347" fill="black" font-size="16.9898" font-family="Helvetica">670mm 37</text></svg>
