<?xml version="1.0" standalone="no"?>
<svg width="567.429" height="386.304" viewBox="0 0 567.429 386.304" xmlns="http://www.w3.org/2000/svg" shape-rendering="crispEdges">
<title>
img/week2/Combined560mm_ch_35.svg
</title>
<desc>
Creator: ROOT Version 6.22/08
CreationDate: Mon Jun 21 21:16:02 2021</desc>
<defs>
</defs>
<rect x="0.5" y="0" width="566.929" height="385.804" fill="white"/>
<rect x="57.1929" y="38.5804" width="453.543" height="308.643" fill="white"/>
<rect x="57.1929" y="38.5804" width="453.543" height="308.643" fill="none" stroke="black"/>
<rect x="57.1929" y="38.5804" width="453.543" height="308.643" fill="white"/>
<rect x="57.1929" y="38.5804" width="453.543" height="308.643" fill="none" stroke="black"/>
<path d="M57.1929,347.224h 129.584v -9.38126h 32.396v -9.38126h 32.396v -137.592h 32.396v -137.592h 32.396v 256.421h 32.396v 34.3979h 32.396v 3.12709h 129.584" fill="none" stroke="#000099"/>
<g fill="#ff0000">
<polygon points=" 295.939, 49.0542 304.386, 49.0542 300.163, 57.5013"/>
</g>
<path d="M59.4606,347.224h 136.063l 4.53543, -0.0311293l 4.53543, -0.0452151l 4.53543, -0.102464l 4.53543, -0.22114l 4.53543, -0.454376l 4.53543, -0.888467l 4.53543, -1.65246l 4.53543, -2.92161l 4.53543, -4.9068l 4.53543, -7.82092l 4.53543, -11.8165l
 4.53543, -16.8979l 4.53543, -22.8245l 4.53543, -29.0383l 4.53543, -34.6576l 4.53543, -38.57l 4.53543, -39.6364l 4.53543, -36.9712l 4.53543, -30.2253" fill="none" stroke="#ff0000" stroke-width="2"/>
<path d="M281.697,67.5414l 4.53543, -19.7771l 4.53543, -6.74714l 4.53543, 7.19044l 4.53543, 20.1612l 4.53543, 30.5041l 4.53543, 37.1204l 4.53543, 39.6566l 4.53543, 38.4827l 4.53543, 34.4971l 4.53543, 28.8422l 4.53543, 22.6254l 4.53543, 16.7192l
 4.53543, 11.6706l 4.53543, 7.71085l 4.53543, 4.82953l 4.53543, 2.87081l 4.53543, 1.62106l 4.53543, 0.870178l 4.53543, 0.444311l 4.53543, 0.215898l 4.53543, 0.0998783l 4.53543, 0.0742255h 122.457" fill="none" stroke="#ff0000" stroke-width="2"/>
<path d="M503.933,347.224h 4.53543" fill="none" stroke="#ff0000" stroke-width="2"/>
<rect x="351.996" y="25.0773" width="204.094" height="108.025" fill="white"/>
<path d="M351.996,133.102h 204.094" fill="none" stroke="black"/>
<path d="M556.091,133.102v -108.025" fill="none" stroke="black"/>
<path d="M556.091,25.0773h -204.094" fill="none" stroke="black"/>
<path d="M351.996,25.0773v 108.025" fill="none" stroke="black"/>
<text xml:space="preserve" x="361.938" y="38.9865" fill="black" font-size="15.6962" font-family="Helvetica">Entries </text>
<text xml:space="preserve" x="515.447" y="38.9865" fill="black" font-size="15.6962" font-family="Helvetica"> 166</text>
<text xml:space="preserve" x="375.745" y="57.6676" fill="black" font-size="15.6962" font-family="Helvetica"> / ndf </text>
<text xml:space="preserve" x="370.06" y="52.7943" fill="black" font-size="10.6308" font-family="Helvetica">2</text>
<text xml:space="preserve" x="361.938" y="57.6676" fill="black" font-size="15.6962" font-family="Times">&#0967;</text>
<text xml:space="preserve" x="481.334" y="57.6676" fill="black" font-size="15.6962" font-family="Helvetica"> 5.875 / 3</text>
<text xml:space="preserve" x="361.938" y="75.5364" fill="black" font-size="15.6962" font-family="Helvetica">Prob  </text>
<text xml:space="preserve" x="494.329" y="75.5364" fill="black" font-size="15.6962" font-family="Helvetica"> 0.1179</text>
<text xml:space="preserve" x="361.938" y="94.2175" fill="black" font-size="15.6962" font-family="Helvetica">Const    </text>
<text xml:space="preserve" x="502.452" y="93.4052" fill="black" font-size="15.6962" font-family="Helvetica"> 10.77</text>
<text xml:space="preserve" x="493.517" y="93.4052" fill="black" font-size="15.6962" font-family="Times">&#0177;</text>
<text xml:space="preserve" x="445.596" y="93.4052" fill="black" font-size="15.6962" font-family="Helvetica"> 97.92 </text>
<text xml:space="preserve" x="361.938" y="111.274" fill="black" font-size="15.6962" font-family="Helvetica">Mean     </text>
<text xml:space="preserve" x="520.32" y="111.274" fill="black" font-size="15.6962" font-family="Helvetica"> 0.2</text>
<text xml:space="preserve" x="511.386" y="111.274" fill="black" font-size="15.6962" font-family="Times">&#0177;</text>
<text xml:space="preserve" x="463.465" y="111.274" fill="black" font-size="15.6962" font-family="Helvetica"> 805.2 </text>
<text xml:space="preserve" x="361.938" y="128.331" fill="black" font-size="15.6962" font-family="Helvetica">Sigma    </text>
<text xml:space="preserve" x="503.264" y="129.143" fill="black" font-size="15.6962" font-family="Helvetica"> 0.200</text>
<text xml:space="preserve" x="494.329" y="129.143" fill="black" font-size="15.6962" font-family="Times">&#0177;</text>
<text xml:space="preserve" x="449.657" y="129.143" fill="black" font-size="15.6962" font-family="Helvetica"> 2.611 </text>
<path d="M57.1929,347.224h 453.543" fill="none" stroke="black"/>
<path d="M86.5058,337.964v 9.2593" fill="none" stroke="black"/>
<path d="M102.696,342.594v 4.62965" fill="none" stroke="black"/>
<path d="M118.886,342.594v 4.62965" fill="none" stroke="black"/>
<path d="M135.076,342.594v 4.62965" fill="none" stroke="black"/>
<path d="M151.266,342.594v 4.62965" fill="none" stroke="black"/>
<path d="M167.456,337.964v 9.2593" fill="none" stroke="black"/>
<path d="M183.646,342.594v 4.62965" fill="none" stroke="black"/>
<path d="M199.836,342.594v 4.62965" fill="none" stroke="black"/>
<path d="M216.026,342.594v 4.62965" fill="none" stroke="black"/>
<path d="M232.216,342.594v 4.62965" fill="none" stroke="black"/>
<path d="M248.406,337.964v 9.2593" fill="none" stroke="black"/>
<path d="M264.597,342.594v 4.62965" fill="none" stroke="black"/>
<path d="M280.787,342.594v 4.62965" fill="none" stroke="black"/>
<path d="M296.977,342.594v 4.62965" fill="none" stroke="black"/>
<path d="M313.167,342.594v 4.62965" fill="none" stroke="black"/>
<path d="M329.357,337.964v 9.2593" fill="none" stroke="black"/>
<path d="M345.547,342.594v 4.62965" fill="none" stroke="black"/>
<path d="M361.737,342.594v 4.62965" fill="none" stroke="black"/>
<path d="M377.927,342.594v 4.62965" fill="none" stroke="black"/>
<path d="M394.117,342.594v 4.62965" fill="none" stroke="black"/>
<path d="M410.307,337.964v 9.2593" fill="none" stroke="black"/>
<path d="M426.497,342.594v 4.62965" fill="none" stroke="black"/>
<path d="M442.687,342.594v 4.62965" fill="none" stroke="black"/>
<path d="M458.877,342.594v 4.62965" fill="none" stroke="black"/>
<path d="M475.067,342.594v 4.62965" fill="none" stroke="black"/>
<path d="M491.258,337.964v 9.2593" fill="none" stroke="black"/>
<path d="M86.5058,337.964v 9.2593" fill="none" stroke="black"/>
<path d="M70.3157,342.594v 4.62965" fill="none" stroke="black"/>
<path d="M491.258,337.964v 9.2593" fill="none" stroke="black"/>
<path d="M507.448,342.594v 4.62965" fill="none" stroke="black"/>
<text xml:space="preserve" x="74.412" y="359.813" fill="black" font-size="12.8882" font-family="Helvetica">780</text>
<text xml:space="preserve" x="155.634" y="359.813" fill="black" font-size="12.8882" font-family="Helvetica">790</text>
<text xml:space="preserve" x="236.856" y="359.813" fill="black" font-size="12.8882" font-family="Helvetica">800</text>
<text xml:space="preserve" x="317.266" y="359.813" fill="black" font-size="12.8882" font-family="Helvetica">810</text>
<text xml:space="preserve" x="398.487" y="359.813" fill="black" font-size="12.8882" font-family="Helvetica">820</text>
<text xml:space="preserve" x="479.709" y="359.813" fill="black" font-size="12.8882" font-family="Helvetica">830</text>
<text xml:space="preserve" x="481.334" y="373.621" fill="black" font-size="12.8882" font-family="Helvetica">Time</text>
<path d="M57.1929,347.224v -308.643" fill="none" stroke="black"/>
<path d="M70.7992,347.224h -13.6063" fill="none" stroke="black"/>
<path d="M63.9961,340.97h -6.80315" fill="none" stroke="black"/>
<path d="M63.9961,334.715h -6.80315" fill="none" stroke="black"/>
<path d="M63.9961,328.461h -6.80315" fill="none" stroke="black"/>
<path d="M63.9961,322.207h -6.80315" fill="none" stroke="black"/>
<path d="M70.7992,315.953h -13.6063" fill="none" stroke="black"/>
<path d="M63.9961,309.699h -6.80315" fill="none" stroke="black"/>
<path d="M63.9961,303.445h -6.80315" fill="none" stroke="black"/>
<path d="M63.9961,297.19h -6.80315" fill="none" stroke="black"/>
<path d="M63.9961,290.936h -6.80315" fill="none" stroke="black"/>
<path d="M70.7992,284.682h -13.6063" fill="none" stroke="black"/>
<path d="M63.9961,278.428h -6.80315" fill="none" stroke="black"/>
<path d="M63.9961,272.174h -6.80315" fill="none" stroke="black"/>
<path d="M63.9961,265.92h -6.80315" fill="none" stroke="black"/>
<path d="M63.9961,259.665h -6.80315" fill="none" stroke="black"/>
<path d="M70.7992,253.411h -13.6063" fill="none" stroke="black"/>
<path d="M63.9961,247.157h -6.80315" fill="none" stroke="black"/>
<path d="M63.9961,240.903h -6.80315" fill="none" stroke="black"/>
<path d="M63.9961,234.649h -6.80315" fill="none" stroke="black"/>
<path d="M63.9961,228.395h -6.80315" fill="none" stroke="black"/>
<path d="M70.7992,222.14h -13.6063" fill="none" stroke="black"/>
<path d="M63.9961,215.886h -6.80315" fill="none" stroke="black"/>
<path d="M63.9961,209.632h -6.80315" fill="none" stroke="black"/>
<path d="M63.9961,203.378h -6.80315" fill="none" stroke="black"/>
<path d="M63.9961,197.124h -6.80315" fill="none" stroke="black"/>
<path d="M70.7992,190.87h -13.6063" fill="none" stroke="black"/>
<path d="M63.9961,184.615h -6.80315" fill="none" stroke="black"/>
<path d="M63.9961,178.361h -6.80315" fill="none" stroke="black"/>
<path d="M63.9961,172.107h -6.80315" fill="none" stroke="black"/>
<path d="M63.9961,165.853h -6.80315" fill="none" stroke="black"/>
<path d="M70.7992,159.599h -13.6063" fill="none" stroke="black"/>
<path d="M63.9961,153.344h -6.80315" fill="none" stroke="black"/>
<path d="M63.9961,147.09h -6.80315" fill="none" stroke="black"/>
<path d="M63.9961,140.836h -6.80315" fill="none" stroke="black"/>
<path d="M63.9961,134.582h -6.80315" fill="none" stroke="black"/>
<path d="M70.7992,128.328h -13.6063" fill="none" stroke="black"/>
<path d="M63.9961,122.074h -6.80315" fill="none" stroke="black"/>
<path d="M63.9961,115.819h -6.80315" fill="none" stroke="black"/>
<path d="M63.9961,109.565h -6.80315" fill="none" stroke="black"/>
<path d="M63.9961,103.311h -6.80315" fill="none" stroke="black"/>
<path d="M70.7992,97.0569h -13.6063" fill="none" stroke="black"/>
<path d="M63.9961,90.8028h -6.80315" fill="none" stroke="black"/>
<path d="M63.9961,84.5486h -6.80315" fill="none" stroke="black"/>
<path d="M63.9961,78.2944h -6.80315" fill="none" stroke="black"/>
<path d="M63.9961,72.0402h -6.80315" fill="none" stroke="black"/>
<path d="M70.7992,65.7861h -13.6063" fill="none" stroke="black"/>
<path d="M70.7992,65.7861h -13.6063" fill="none" stroke="black"/>
<path d="M63.9961,59.5319h -6.80315" fill="none" stroke="black"/>
<path d="M63.9961,53.2777h -6.80315" fill="none" stroke="black"/>
<path d="M63.9961,47.0236h -6.80315" fill="none" stroke="black"/>
<path d="M63.9961,40.7694h -6.80315" fill="none" stroke="black"/>
<text xml:space="preserve" x="46.7965" y="351.691" fill="black" font-size="12.8882" font-family="Helvetica">0</text>
<text xml:space="preserve" x="39.4865" y="320.014" fill="black" font-size="12.8882" font-family="Helvetica">10</text>
<text xml:space="preserve" x="39.4865" y="289.15" fill="black" font-size="12.8882" font-family="Helvetica">20</text>
<text xml:space="preserve" x="39.4865" y="257.474" fill="black" font-size="12.8882" font-family="Helvetica">30</text>
<text xml:space="preserve" x="39.4865" y="226.609" fill="black" font-size="12.8882" font-family="Helvetica">40</text>
<text xml:space="preserve" x="39.4865" y="194.933" fill="black" font-size="12.8882" font-family="Helvetica">50</text>
<text xml:space="preserve" x="39.4865" y="164.068" fill="black" font-size="12.8882" font-family="Helvetica">60</text>
<text xml:space="preserve" x="39.4865" y="132.392" fill="black" font-size="12.8882" font-family="Helvetica">70</text>
<text xml:space="preserve" x="39.4865" y="101.527" fill="black" font-size="12.8882" font-family="Helvetica">80</text>
<text xml:space="preserve" x="39.4865" y="69.8509" fill="black" font-size="12.8882" font-family="Helvetica">90</text>
<g transform="rotate(-90,28.9277,71.4753)">
<text xml:space="preserve" x="28.9277" y="71.4753" fill="black" font-size="12.8882" font-family="Helvetica">Event</text>
</g>
<rect x="351.996" y="25.0773" width="204.094" height="108.025" fill="white"/>
<path d="M351.996,133.102h 204.094" fill="none" stroke="black"/>
<path d="M556.091,133.102v -108.025" fill="none" stroke="black"/>
<path d="M556.091,25.0773h -204.094" fill="none" stroke="black"/>
<path d="M351.996,25.0773v 108.025" fill="none" stroke="black"/>
<text xml:space="preserve" x="361.938" y="38.9865" fill="black" font-size="15.6962" font-family="Helvetica">Entries </text>
<text xml:space="preserve" x="515.447" y="38.9865" fill="black" font-size="15.6962" font-family="Helvetica"> 166</text>
<text xml:space="preserve" x="375.745" y="57.6676" fill="black" font-size="15.6962" font-family="Helvetica"> / ndf </text>
<text xml:space="preserve" x="370.06" y="52.7943" fill="black" font-size="10.6308" font-family="Helvetica">2</text>
<text xml:space="preserve" x="361.938" y="57.6676" fill="black" font-size="15.6962" font-family="Times">&#0967;</text>
<text xml:space="preserve" x="481.334" y="57.6676" fill="black" font-size="15.6962" font-family="Helvetica"> 5.875 / 3</text>
<text xml:space="preserve" x="361.938" y="75.5364" fill="black" font-size="15.6962" font-family="Helvetica">Prob  </text>
<text xml:space="preserve" x="494.329" y="75.5364" fill="black" font-size="15.6962" font-family="Helvetica"> 0.1179</text>
<text xml:space="preserve" x="361.938" y="94.2175" fill="black" font-size="15.6962" font-family="Helvetica">Const    </text>
<text xml:space="preserve" x="502.452" y="93.4052" fill="black" font-size="15.6962" font-family="Helvetica"> 10.77</text>
<text xml:space="preserve" x="493.517" y="93.4052" fill="black" font-size="15.6962" font-family="Times">&#0177;</text>
<text xml:space="preserve" x="445.596" y="93.4052" fill="black" font-size="15.6962" font-family="Helvetica"> 97.92 </text>
<text xml:space="preserve" x="361.938" y="111.274" fill="black" font-size="15.6962" font-family="Helvetica">Mean     </text>
<text xml:space="preserve" x="520.32" y="111.274" fill="black" font-size="15.6962" font-family="Helvetica"> 0.2</text>
<text xml:space="preserve" x="511.386" y="111.274" fill="black" font-size="15.6962" font-family="Times">&#0177;</text>
<text xml:space="preserve" x="463.465" y="111.274" fill="black" font-size="15.6962" font-family="Helvetica"> 805.2 </text>
<text xml:space="preserve" x="361.938" y="128.331" fill="black" font-size="15.6962" font-family="Helvetica">Sigma    </text>
<text xml:space="preserve" x="503.264" y="129.143" fill="black" font-size="15.6962" font-family="Helvetica"> 0.200</text>
<text xml:space="preserve" x="494.329" y="129.143" fill="black" font-size="15.6962" font-family="Times">&#0177;</text>
<text xml:space="preserve" x="449.657" y="129.143" fill="black" font-size="15.6962" font-family="Helvetica"> 2.611 </text>
<text xml:space="preserve" x="243.354" y="18.681" fill="black" font-size="17.0471" font-family="Helvetica">560mm 35</text></svg>
