<?xml version="1.0" standalone="no"?>
<svg width="567.429" height="386.304" viewBox="0 0 567.429 386.304" xmlns="http://www.w3.org/2000/svg" shape-rendering="crispEdges">
<title>
img/week2/Combined0mm_ch_31.svg
</title>
<desc>
Creator: ROOT Version 6.22/08
CreationDate: Thu Jun 24 12:00:34 2021</desc>
<defs>
</defs>
<rect x="0.5" y="0" width="566.929" height="385.804" fill="white"/>
<rect x="57.1929" y="38.5804" width="453.543" height="308.643" fill="white"/>
<rect x="57.1929" y="38.5804" width="453.543" height="308.643" fill="none" stroke="black"/>
<rect x="57.1929" y="38.5804" width="453.543" height="308.643" fill="white"/>
<rect x="57.1929" y="38.5804" width="453.543" height="308.643" fill="none" stroke="black"/>
<path d="M57.1929,347.224h 75.5906v -5.20259h 37.7953v -2.60129h 37.7953v -54.6271h 37.7953v -163.881h 37.7953v -67.6336h 37.7953v 286.142h 37.7953v 5.20259h 37.7953v 2.60129h 113.386" fill="none" stroke="#000099"/>
<g fill="#ff0000">
<polygon points=" 260.843, 116.688 269.29, 116.688 265.067, 125.135"/>
</g>
<path d="M59.4606,347.224h 126.992l 4.53543, -0.0507424l 4.53543, -0.0674127l 4.53543, -0.145603l 4.53543, -0.3007l 4.53543, -0.5936l 4.53543, -1.11967l 4.53543, -2.01709l 4.53543, -3.46873l 4.53543, -5.69035l 4.53543, -8.8977l 4.53543, -13.2477l
 4.53543, -18.7566l 4.53543, -25.2095l 4.53543, -32.0885l 4.53543, -38.5551l 4.53543, -43.5181l 4.53543, -45.8014l 4.53543, -44.3917l 2.89653, -24.7233" fill="none" stroke="#ff0000" stroke-width="2"/>
<path d="M297.195,38.5804l 2.6433, 22.2938" fill="none" stroke="#ff0000" stroke-width="2"/>
<path d="M299.839,60.8742l 4.53543, 44.1828l 4.53543, 45.8285l 4.53543, 43.7336l 4.53543, 38.8935l 4.53543, 32.4822l 4.53543, 25.6013l 4.53543, 19.1066l 4.53543, 13.5348l 4.53543, 9.11659l 4.53543, 5.84667l 4.53543, 3.57381l 4.53543, 2.08381l
 4.53543, 1.15979l 4.53543, 0.616497l 4.53543, 0.313117l 4.53543, 0.152009l 4.53543, 0.0705603l 4.53543, 0.0533389h 126.992" fill="none" stroke="#ff0000" stroke-width="2"/>
<rect x="351.996" y="25.0773" width="204.094" height="108.025" fill="white"/>
<path d="M351.996,133.102h 204.094" fill="none" stroke="black"/>
<path d="M556.091,133.102v -108.025" fill="none" stroke="black"/>
<path d="M556.091,25.0773h -204.094" fill="none" stroke="black"/>
<path d="M351.996,25.0773v 108.025" fill="none" stroke="black"/>
<text xml:space="preserve" x="361.938" y="38.9865" fill="black" font-size="15.6962" font-family="Helvetica">Entries </text>
<text xml:space="preserve" x="515.447" y="38.9865" fill="black" font-size="15.6962" font-family="Helvetica"> 233</text>
<text xml:space="preserve" x="375.745" y="57.6676" fill="black" font-size="15.6962" font-family="Helvetica"> / ndf </text>
<text xml:space="preserve" x="370.06" y="52.7943" fill="black" font-size="10.6308" font-family="Helvetica">2</text>
<text xml:space="preserve" x="361.938" y="57.6676" fill="black" font-size="15.6962" font-family="Times">&#0967;</text>
<text xml:space="preserve" x="481.334" y="57.6676" fill="black" font-size="15.6962" font-family="Helvetica"> 25.65 / 4</text>
<text xml:space="preserve" x="361.938" y="75.5364" fill="black" font-size="15.6962" font-family="Helvetica">Prob  </text>
<text xml:space="preserve" x="528.443" y="75.5364" fill="black" font-size="15.6962" font-family="Helvetica">05</text>
<text xml:space="preserve" x="519.508" y="75.5364" fill="black" font-size="15.6962" font-family="Times">&#8722;</text>
<text xml:space="preserve" x="468.338" y="75.5364" fill="black" font-size="15.6962" font-family="Helvetica"> 3.724e</text>
<text xml:space="preserve" x="361.938" y="94.2175" fill="black" font-size="15.6962" font-family="Helvetica">Const    </text>
<text xml:space="preserve" x="513.823" y="93.4052" fill="black" font-size="15.6962" font-family="Helvetica"> 23.1</text>
<text xml:space="preserve" x="504.888" y="93.4052" fill="black" font-size="15.6962" font-family="Times">&#0177;</text>
<text xml:space="preserve" x="456.967" y="93.4052" fill="black" font-size="15.6962" font-family="Helvetica"> 141.9 </text>
<text xml:space="preserve" x="361.938" y="111.274" fill="black" font-size="15.6962" font-family="Helvetica">Mean     </text>
<text xml:space="preserve" x="519.508" y="111.274" fill="black" font-size="15.6962" font-family="Helvetica"> 0.4</text>
<text xml:space="preserve" x="510.574" y="111.274" fill="black" font-size="15.6962" font-family="Times">&#0177;</text>
<text xml:space="preserve" x="462.653" y="111.274" fill="black" font-size="15.6962" font-family="Helvetica"> 804.4 </text>
<text xml:space="preserve" x="361.938" y="128.331" fill="black" font-size="15.6962" font-family="Helvetica">Sigma    </text>
<text xml:space="preserve" x="503.264" y="129.143" fill="black" font-size="15.6962" font-family="Helvetica"> 0.333</text>
<text xml:space="preserve" x="494.329" y="129.143" fill="black" font-size="15.6962" font-family="Times">&#0177;</text>
<text xml:space="preserve" x="446.408" y="129.143" fill="black" font-size="15.6962" font-family="Helvetica"> 2.338 </text>
<path d="M57.1929,347.224h 453.543" fill="none" stroke="black"/>
<path d="M100.817,337.964v 9.2593" fill="none" stroke="black"/>
<path d="M110.261,342.594v 4.62965" fill="none" stroke="black"/>
<path d="M119.705,342.594v 4.62965" fill="none" stroke="black"/>
<path d="M129.15,342.594v 4.62965" fill="none" stroke="black"/>
<path d="M138.594,342.594v 4.62965" fill="none" stroke="black"/>
<path d="M148.038,337.964v 9.2593" fill="none" stroke="black"/>
<path d="M157.482,342.594v 4.62965" fill="none" stroke="black"/>
<path d="M166.926,342.594v 4.62965" fill="none" stroke="black"/>
<path d="M176.371,342.594v 4.62965" fill="none" stroke="black"/>
<path d="M185.815,342.594v 4.62965" fill="none" stroke="black"/>
<path d="M195.259,337.964v 9.2593" fill="none" stroke="black"/>
<path d="M204.703,342.594v 4.62965" fill="none" stroke="black"/>
<path d="M214.148,342.594v 4.62965" fill="none" stroke="black"/>
<path d="M223.592,342.594v 4.62965" fill="none" stroke="black"/>
<path d="M233.036,342.594v 4.62965" fill="none" stroke="black"/>
<path d="M242.48,337.964v 9.2593" fill="none" stroke="black"/>
<path d="M251.924,342.594v 4.62965" fill="none" stroke="black"/>
<path d="M261.369,342.594v 4.62965" fill="none" stroke="black"/>
<path d="M270.813,342.594v 4.62965" fill="none" stroke="black"/>
<path d="M280.257,342.594v 4.62965" fill="none" stroke="black"/>
<path d="M289.701,337.964v 9.2593" fill="none" stroke="black"/>
<path d="M299.145,342.594v 4.62965" fill="none" stroke="black"/>
<path d="M308.59,342.594v 4.62965" fill="none" stroke="black"/>
<path d="M318.034,342.594v 4.62965" fill="none" stroke="black"/>
<path d="M327.478,342.594v 4.62965" fill="none" stroke="black"/>
<path d="M336.922,337.964v 9.2593" fill="none" stroke="black"/>
<path d="M346.366,342.594v 4.62965" fill="none" stroke="black"/>
<path d="M355.811,342.594v 4.62965" fill="none" stroke="black"/>
<path d="M365.255,342.594v 4.62965" fill="none" stroke="black"/>
<path d="M374.699,342.594v 4.62965" fill="none" stroke="black"/>
<path d="M384.143,337.964v 9.2593" fill="none" stroke="black"/>
<path d="M393.587,342.594v 4.62965" fill="none" stroke="black"/>
<path d="M403.032,342.594v 4.62965" fill="none" stroke="black"/>
<path d="M412.476,342.594v 4.62965" fill="none" stroke="black"/>
<path d="M421.92,342.594v 4.62965" fill="none" stroke="black"/>
<path d="M431.364,337.964v 9.2593" fill="none" stroke="black"/>
<path d="M440.809,342.594v 4.62965" fill="none" stroke="black"/>
<path d="M450.253,342.594v 4.62965" fill="none" stroke="black"/>
<path d="M459.697,342.594v 4.62965" fill="none" stroke="black"/>
<path d="M469.141,342.594v 4.62965" fill="none" stroke="black"/>
<path d="M478.585,337.964v 9.2593" fill="none" stroke="black"/>
<path d="M100.817,337.964v 9.2593" fill="none" stroke="black"/>
<path d="M91.3728,342.594v 4.62965" fill="none" stroke="black"/>
<path d="M81.9286,342.594v 4.62965" fill="none" stroke="black"/>
<path d="M72.4844,342.594v 4.62965" fill="none" stroke="black"/>
<path d="M63.0402,342.594v 4.62965" fill="none" stroke="black"/>
<path d="M478.585,337.964v 9.2593" fill="none" stroke="black"/>
<path d="M488.03,342.594v 4.62965" fill="none" stroke="black"/>
<path d="M497.474,342.594v 4.62965" fill="none" stroke="black"/>
<path d="M506.918,342.594v 4.62965" fill="none" stroke="black"/>
<text xml:space="preserve" x="89.0319" y="359.813" fill="black" font-size="12.8882" font-family="Helvetica">785</text>
<text xml:space="preserve" x="136.141" y="359.813" fill="black" font-size="12.8882" font-family="Helvetica">790</text>
<text xml:space="preserve" x="183.249" y="359.813" fill="black" font-size="12.8882" font-family="Helvetica">795</text>
<text xml:space="preserve" x="230.358" y="359.813" fill="black" font-size="12.8882" font-family="Helvetica">800</text>
<text xml:space="preserve" x="278.279" y="359.813" fill="black" font-size="12.8882" font-family="Helvetica">805</text>
<text xml:space="preserve" x="325.388" y="359.813" fill="black" font-size="12.8882" font-family="Helvetica">810</text>
<text xml:space="preserve" x="372.496" y="359.813" fill="black" font-size="12.8882" font-family="Helvetica">815</text>
<text xml:space="preserve" x="419.605" y="359.813" fill="black" font-size="12.8882" font-family="Helvetica">820</text>
<text xml:space="preserve" x="466.714" y="359.813" fill="black" font-size="12.8882" font-family="Helvetica">825</text>
<text xml:space="preserve" x="457.78" y="372.809" fill="black" font-size="12.8882" font-family="Helvetica">Time [ns]</text>
<path d="M57.1929,347.224v -308.643" fill="none" stroke="black"/>
<path d="M70.7992,347.224h -13.6063" fill="none" stroke="black"/>
<path d="M63.9961,334.217h -6.80315" fill="none" stroke="black"/>
<path d="M63.9961,321.211h -6.80315" fill="none" stroke="black"/>
<path d="M63.9961,308.204h -6.80315" fill="none" stroke="black"/>
<path d="M70.7992,295.198h -13.6063" fill="none" stroke="black"/>
<path d="M63.9961,282.191h -6.80315" fill="none" stroke="black"/>
<path d="M63.9961,269.185h -6.80315" fill="none" stroke="black"/>
<path d="M63.9961,256.179h -6.80315" fill="none" stroke="black"/>
<path d="M70.7992,243.172h -13.6063" fill="none" stroke="black"/>
<path d="M63.9961,230.166h -6.80315" fill="none" stroke="black"/>
<path d="M63.9961,217.159h -6.80315" fill="none" stroke="black"/>
<path d="M63.9961,204.153h -6.80315" fill="none" stroke="black"/>
<path d="M70.7992,191.146h -13.6063" fill="none" stroke="black"/>
<path d="M63.9961,178.14h -6.80315" fill="none" stroke="black"/>
<path d="M63.9961,165.133h -6.80315" fill="none" stroke="black"/>
<path d="M63.9961,152.127h -6.80315" fill="none" stroke="black"/>
<path d="M70.7992,139.12h -13.6063" fill="none" stroke="black"/>
<path d="M63.9961,126.114h -6.80315" fill="none" stroke="black"/>
<path d="M63.9961,113.107h -6.80315" fill="none" stroke="black"/>
<path d="M63.9961,100.101h -6.80315" fill="none" stroke="black"/>
<path d="M70.7992,87.0945h -13.6063" fill="none" stroke="black"/>
<path d="M70.7992,87.0945h -13.6063" fill="none" stroke="black"/>
<path d="M63.9961,74.0881h -6.80315" fill="none" stroke="black"/>
<path d="M63.9961,61.0816h -6.80315" fill="none" stroke="black"/>
<path d="M63.9961,48.0751h -6.80315" fill="none" stroke="black"/>
<text xml:space="preserve" x="46.7965" y="351.691" fill="black" font-size="12.8882" font-family="Helvetica">0</text>
<text xml:space="preserve" x="39.4865" y="299.709" fill="black" font-size="12.8882" font-family="Helvetica">20</text>
<text xml:space="preserve" x="39.4865" y="247.727" fill="black" font-size="12.8882" font-family="Helvetica">40</text>
<text xml:space="preserve" x="39.4865" y="195.745" fill="black" font-size="12.8882" font-family="Helvetica">60</text>
<text xml:space="preserve" x="39.4865" y="143.763" fill="black" font-size="12.8882" font-family="Helvetica">80</text>
<text xml:space="preserve" x="32.1766" y="91.7808" fill="black" font-size="12.8882" font-family="Helvetica">100</text>
<g transform="rotate(-90,21.6177,71.4753)">
<text xml:space="preserve" x="21.6177" y="71.4753" fill="black" font-size="12.8882" font-family="Helvetica">Event</text>
</g>
<rect x="351.996" y="25.0773" width="204.094" height="108.025" fill="white"/>
<path d="M351.996,133.102h 204.094" fill="none" stroke="black"/>
<path d="M556.091,133.102v -108.025" fill="none" stroke="black"/>
<path d="M556.091,25.0773h -204.094" fill="none" stroke="black"/>
<path d="M351.996,25.0773v 108.025" fill="none" stroke="black"/>
<text xml:space="preserve" x="361.938" y="38.9865" fill="black" font-size="15.6962" font-family="Helvetica">Entries </text>
<text xml:space="preserve" x="515.447" y="38.9865" fill="black" font-size="15.6962" font-family="Helvetica"> 233</text>
<text xml:space="preserve" x="375.745" y="57.6676" fill="black" font-size="15.6962" font-family="Helvetica"> / ndf </text>
<text xml:space="preserve" x="370.06" y="52.7943" fill="black" font-size="10.6308" font-family="Helvetica">2</text>
<text xml:space="preserve" x="361.938" y="57.6676" fill="black" font-size="15.6962" font-family="Times">&#0967;</text>
<text xml:space="preserve" x="481.334" y="57.6676" fill="black" font-size="15.6962" font-family="Helvetica"> 25.65 / 4</text>
<text xml:space="preserve" x="361.938" y="75.5364" fill="black" font-size="15.6962" font-family="Helvetica">Prob  </text>
<text xml:space="preserve" x="528.443" y="75.5364" fill="black" font-size="15.6962" font-family="Helvetica">05</text>
<text xml:space="preserve" x="519.508" y="75.5364" fill="black" font-size="15.6962" font-family="Times">&#8722;</text>
<text xml:space="preserve" x="468.338" y="75.5364" fill="black" font-size="15.6962" font-family="Helvetica"> 3.724e</text>
<text xml:space="preserve" x="361.938" y="94.2175" fill="black" font-size="15.6962" font-family="Helvetica">Const    </text>
<text xml:space="preserve" x="513.823" y="93.4052" fill="black" font-size="15.6962" font-family="Helvetica"> 23.1</text>
<text xml:space="preserve" x="504.888" y="93.4052" fill="black" font-size="15.6962" font-family="Times">&#0177;</text>
<text xml:space="preserve" x="456.967" y="93.4052" fill="black" font-size="15.6962" font-family="Helvetica"> 141.9 </text>
<text xml:space="preserve" x="361.938" y="111.274" fill="black" font-size="15.6962" font-family="Helvetica">Mean     </text>
<text xml:space="preserve" x="519.508" y="111.274" fill="black" font-size="15.6962" font-family="Helvetica"> 0.4</text>
<text xml:space="preserve" x="510.574" y="111.274" fill="black" font-size="15.6962" font-family="Times">&#0177;</text>
<text xml:space="preserve" x="462.653" y="111.274" fill="black" font-size="15.6962" font-family="Helvetica"> 804.4 </text>
<text xml:space="preserve" x="361.938" y="128.331" fill="black" font-size="15.6962" font-family="Helvetica">Sigma    </text>
<text xml:space="preserve" x="503.264" y="129.143" fill="black" font-size="15.6962" font-family="Helvetica"> 0.333</text>
<text xml:space="preserve" x="494.329" y="129.143" fill="black" font-size="15.6962" font-family="Times">&#0177;</text>
<text xml:space="preserve" x="446.408" y="129.143" fill="black" font-size="15.6962" font-family="Helvetica"> 2.338 </text>
<text xml:space="preserve" x="254.725" y="18.681" fill="black" font-size="17.0471" font-family="Helvetica">0mm 31</text></svg>
