<?xml version="1.0" standalone="no"?>
<svg width="567.429" height="386.304" viewBox="0 0 567.429 386.304" xmlns="http://www.w3.org/2000/svg" shape-rendering="crispEdges">
<title>
img/week2/Combined280mm_ch_6.svg
</title>
<desc>
Creator: ROOT Version 6.22/08
CreationDate: Mon Jun 21 21:32:33 2021</desc>
<defs>
</defs>
<rect x="0.5" y="0" width="566.929" height="385.804" fill="white"/>
<rect x="57.1929" y="38.5804" width="453.543" height="308.643" fill="white"/>
<rect x="57.1929" y="38.5804" width="453.543" height="308.643" fill="none" stroke="black"/>
<rect x="57.1929" y="38.5804" width="453.543" height="308.643" fill="white"/>
<rect x="57.1929" y="38.5804" width="453.543" height="308.643" fill="none" stroke="black"/>
<path d="M57.1929,347.224h 97.1879v -5.34447h 32.396v 5.34447h 32.396v -21.3779h 32.396v -149.645h 32.396v -122.923h 32.396v 261.879h 32.396v 32.0668h 161.98" fill="none" stroke="#000099"/>
<g fill="#ff0000">
<polygon points=" 295.939, 49.0542 304.386, 49.0542 300.163, 57.5013"/>
</g>
<path d="M59.4606,347.224h 136.063l 4.53543, -0.032596l 4.53543, -0.0483493l 4.53543, -0.110755l 4.53543, -0.241268l 4.53543, -0.499627l 4.53543, -0.983129l 4.53543, -1.83725l 4.53543, -3.2587l 4.53543, -5.48144l 4.53543, -8.73555l 4.53543, -13.1729l
 4.53543, -18.7647l 4.53543, -25.1942l 4.53543, -31.7836l 4.53543, -37.5041l 4.53543, -41.1067l 4.53543, -41.3741l 4.53543, -37.4472l 4.53543, -29.13" fill="none" stroke="#ff0000" stroke-width="2"/>
<path d="M293.694,38.5804l 1.6089, 4.28726" fill="none" stroke="#ff0000" stroke-width="2"/>
<path d="M295.303,42.8677l 4.53543, 25.1832l 4.53543, 34.9606l 4.53543, 40.4777l 4.53543, 41.6413l 4.53543, 39.1037l 4.53543, 33.9927l 4.53543, 27.5805l 4.53543, 20.9964l 4.53543, 15.0505l 4.53543, 10.184l 4.53543, 6.51689l 4.53543, 3.94937l 4.53543,
 2.26907l 4.53543, 1.23701l 4.53543, 0.64032l 4.53543, 0.314895l 4.53543, 0.14719l 4.53543, 0.0654188l 4.53543, 0.0453823h 126.992" fill="none" stroke="#ff0000" stroke-width="2"/>
<path d="M57.1929,347.224h 453.543" fill="none" stroke="black"/>
<path d="M135.06,337.964v 9.2593" fill="none" stroke="black"/>
<path d="M151.25,342.594v 4.62965" fill="none" stroke="black"/>
<path d="M167.44,342.594v 4.62965" fill="none" stroke="black"/>
<path d="M183.63,342.594v 4.62965" fill="none" stroke="black"/>
<path d="M199.82,342.594v 4.62965" fill="none" stroke="black"/>
<path d="M216.011,337.964v 9.2593" fill="none" stroke="black"/>
<path d="M232.201,342.594v 4.62965" fill="none" stroke="black"/>
<path d="M248.391,342.594v 4.62965" fill="none" stroke="black"/>
<path d="M264.581,342.594v 4.62965" fill="none" stroke="black"/>
<path d="M280.771,342.594v 4.62965" fill="none" stroke="black"/>
<path d="M296.961,337.964v 9.2593" fill="none" stroke="black"/>
<path d="M313.151,342.594v 4.62965" fill="none" stroke="black"/>
<path d="M329.341,342.594v 4.62965" fill="none" stroke="black"/>
<path d="M345.531,342.594v 4.62965" fill="none" stroke="black"/>
<path d="M361.721,342.594v 4.62965" fill="none" stroke="black"/>
<path d="M377.911,337.964v 9.2593" fill="none" stroke="black"/>
<path d="M394.101,342.594v 4.62965" fill="none" stroke="black"/>
<path d="M410.291,342.594v 4.62965" fill="none" stroke="black"/>
<path d="M426.481,342.594v 4.62965" fill="none" stroke="black"/>
<path d="M442.672,342.594v 4.62965" fill="none" stroke="black"/>
<path d="M458.862,337.964v 9.2593" fill="none" stroke="black"/>
<path d="M135.06,337.964v 9.2593" fill="none" stroke="black"/>
<path d="M118.87,342.594v 4.62965" fill="none" stroke="black"/>
<path d="M102.68,342.594v 4.62965" fill="none" stroke="black"/>
<path d="M86.49,342.594v 4.62965" fill="none" stroke="black"/>
<path d="M70.2999,342.594v 4.62965" fill="none" stroke="black"/>
<path d="M458.862,337.964v 9.2593" fill="none" stroke="black"/>
<path d="M475.052,342.594v 4.62965" fill="none" stroke="black"/>
<path d="M491.242,342.594v 4.62965" fill="none" stroke="black"/>
<path d="M507.432,342.594v 4.62965" fill="none" stroke="black"/>
<text xml:space="preserve" x="123.145" y="359.813" fill="black" font-size="12.8882" font-family="Helvetica">790</text>
<text xml:space="preserve" x="204.367" y="359.813" fill="black" font-size="12.8882" font-family="Helvetica">800</text>
<text xml:space="preserve" x="285.589" y="359.813" fill="black" font-size="12.8882" font-family="Helvetica">810</text>
<text xml:space="preserve" x="365.999" y="359.813" fill="black" font-size="12.8882" font-family="Helvetica">820</text>
<text xml:space="preserve" x="447.221" y="359.813" fill="black" font-size="12.8882" font-family="Helvetica">830</text>
<text xml:space="preserve" x="481.334" y="373.621" fill="black" font-size="12.8882" font-family="Helvetica">Time</text>
<path d="M57.1929,347.224v -308.643" fill="none" stroke="black"/>
<path d="M70.7992,347.224h -13.6063" fill="none" stroke="black"/>
<path d="M63.9961,336.535h -6.80315" fill="none" stroke="black"/>
<path d="M63.9961,325.846h -6.80315" fill="none" stroke="black"/>
<path d="M63.9961,315.157h -6.80315" fill="none" stroke="black"/>
<path d="M63.9961,304.468h -6.80315" fill="none" stroke="black"/>
<path d="M70.7992,293.779h -13.6063" fill="none" stroke="black"/>
<path d="M63.9961,283.09h -6.80315" fill="none" stroke="black"/>
<path d="M63.9961,272.401h -6.80315" fill="none" stroke="black"/>
<path d="M63.9961,261.712h -6.80315" fill="none" stroke="black"/>
<path d="M63.9961,251.023h -6.80315" fill="none" stroke="black"/>
<path d="M70.7992,240.334h -13.6063" fill="none" stroke="black"/>
<path d="M63.9961,229.645h -6.80315" fill="none" stroke="black"/>
<path d="M63.9961,218.956h -6.80315" fill="none" stroke="black"/>
<path d="M63.9961,208.267h -6.80315" fill="none" stroke="black"/>
<path d="M63.9961,197.579h -6.80315" fill="none" stroke="black"/>
<path d="M70.7992,186.89h -13.6063" fill="none" stroke="black"/>
<path d="M63.9961,176.201h -6.80315" fill="none" stroke="black"/>
<path d="M63.9961,165.512h -6.80315" fill="none" stroke="black"/>
<path d="M63.9961,154.823h -6.80315" fill="none" stroke="black"/>
<path d="M63.9961,144.134h -6.80315" fill="none" stroke="black"/>
<path d="M70.7992,133.445h -13.6063" fill="none" stroke="black"/>
<path d="M63.9961,122.756h -6.80315" fill="none" stroke="black"/>
<path d="M63.9961,112.067h -6.80315" fill="none" stroke="black"/>
<path d="M63.9961,101.378h -6.80315" fill="none" stroke="black"/>
<path d="M63.9961,90.689h -6.80315" fill="none" stroke="black"/>
<path d="M70.7992,80.0001h -13.6063" fill="none" stroke="black"/>
<path d="M70.7992,80.0001h -13.6063" fill="none" stroke="black"/>
<path d="M63.9961,69.3111h -6.80315" fill="none" stroke="black"/>
<path d="M63.9961,58.6222h -6.80315" fill="none" stroke="black"/>
<path d="M63.9961,47.9333h -6.80315" fill="none" stroke="black"/>
<text xml:space="preserve" x="46.7965" y="351.691" fill="black" font-size="12.8882" font-family="Helvetica">0</text>
<text xml:space="preserve" x="39.4865" y="298.085" fill="black" font-size="12.8882" font-family="Helvetica">10</text>
<text xml:space="preserve" x="39.4865" y="244.478" fill="black" font-size="12.8882" font-family="Helvetica">20</text>
<text xml:space="preserve" x="39.4865" y="191.684" fill="black" font-size="12.8882" font-family="Helvetica">30</text>
<text xml:space="preserve" x="39.4865" y="138.077" fill="black" font-size="12.8882" font-family="Helvetica">40</text>
<text xml:space="preserve" x="39.4865" y="84.4708" fill="black" font-size="12.8882" font-family="Helvetica">50</text>
<g transform="rotate(-90,28.9277,71.4753)">
<text xml:space="preserve" x="28.9277" y="71.4753" fill="black" font-size="12.8882" font-family="Helvetica">Event</text>
</g>
<text xml:space="preserve" x="248.227" y="18.681" fill="black" font-size="17.0471" font-family="Helvetica">280mm 6</text></svg>
