<?xml version="1.0" standalone="no"?>
<svg width="567.429" height="384.68" viewBox="0 0 567.429 384.68" xmlns="http://www.w3.org/2000/svg" shape-rendering="crispEdges">
<title>
img/week2/Combined560mm_ch_36_37_38_39.svg
</title>
<desc>
Creator: ROOT Version 6.22/09
CreationDate: Tue Jun 22 18:03:14 2021</desc>
<defs>
</defs>
<rect x="0.5" y="0" width="566.929" height="384.18" fill="white"/>
<rect x="57.1929" y="38.418" width="453.543" height="307.344" fill="white"/>
<rect x="57.1929" y="38.418" width="453.543" height="307.344" fill="none" stroke="black"/>
<rect x="57.1929" y="38.418" width="453.543" height="307.344" fill="white"/>
<rect x="57.1929" y="38.418" width="453.543" height="307.344" fill="none" stroke="black"/>
<path d="M57.1929,345.762h 64.7919v -0.891334h 32.396v -2.674h 32.396v -9.80468h 32.396v -34.762h 32.396v -228.182h 32.396v 53.4801h 32.396v 213.029h 32.396v 9.80468h 161.98" fill="none" stroke="#000099"/>
<g fill="#ff0000">
<polygon points=" 263.543, 65.2246 271.99, 65.2246 267.767, 73.6716"/>
</g>
<path d="M59.4606,345.762h 122.457l 4.53543, -0.0312449l 4.53543, -0.0447941l 4.53543, -0.100903l 4.53543, -0.216758l 4.53543, -0.443901l 4.53543, -0.866311l 4.53543, -1.61041l 4.53543, -2.84994l 4.53543, -4.79814l 4.53543, -7.67856l 4.53543,
 -11.6679l 4.53543, -16.8115l 4.53543, -22.926l 4.53543, -29.5172l 4.53543, -35.7538l 4.53543, -40.5336l 4.53543, -42.6605l 4.53543, -41.1107l 4.53543, -35.3272l 2.20885, -12.3946" fill="none" stroke="#ff0000" stroke-width="2"/>
<path d="M287.258,38.418l 3.50995, 22.3418" fill="none" stroke="#ff0000" stroke-width="2"/>
<path d="M290.768,60.7597l 4.53543, 37.5549l 4.53543, 42.0213l 4.53543, 42.3589l 4.53543, 39.2971l 4.53543, 33.9439l 4.53543, 27.4917l 4.53543, 20.9734l 4.53543, 15.1193l 4.53543, 10.3221l 4.53543, 6.68517l 4.53543, 4.11258l 4.53543, 2.40552l
 4.53543, 1.33887l 4.53543, 0.709551l 4.53543, 0.358236l 4.53543, 0.172379l 4.53543, 0.079084l 4.53543, 0.0581864h 136.063" fill="none" stroke="#ff0000" stroke-width="2"/>
<rect x="351.996" y="24.9717" width="204.094" height="107.57" fill="white"/>
<path d="M351.996,132.542h 204.094" fill="none" stroke="black"/>
<path d="M556.091,132.542v -107.57" fill="none" stroke="black"/>
<path d="M556.091,24.9717h -204.094" fill="none" stroke="black"/>
<path d="M351.996,24.9717v 107.57" fill="none" stroke="black"/>
<text xml:space="preserve" x="361.938" y="38.9865" fill="black" font-size="15.6322" font-family="Helvetica">Entries </text>
<text xml:space="preserve" x="515.447" y="38.9865" fill="black" font-size="15.6322" font-family="Helvetica"> 650</text>
<text xml:space="preserve" x="375.745" y="56.8554" fill="black" font-size="15.6322" font-family="Helvetica"> / ndf </text>
<text xml:space="preserve" x="370.06" y="51.982" fill="black" font-size="10.5881" font-family="Helvetica">2</text>
<text xml:space="preserve" x="361.938" y="56.8554" fill="black" font-size="15.6322" font-family="Times">&#0967;</text>
<text xml:space="preserve" x="481.334" y="56.8554" fill="black" font-size="15.6322" font-family="Helvetica"> 24.63 / 4</text>
<text xml:space="preserve" x="361.938" y="74.7242" fill="black" font-size="15.6322" font-family="Helvetica">Prob  </text>
<text xml:space="preserve" x="528.443" y="74.7242" fill="black" font-size="15.6322" font-family="Helvetica">05</text>
<text xml:space="preserve" x="519.508" y="74.7242" fill="black" font-size="15.6322" font-family="Times">&#8722;</text>
<text xml:space="preserve" x="468.338" y="74.7242" fill="black" font-size="15.6322" font-family="Helvetica"> 5.978e</text>
<text xml:space="preserve" x="361.938" y="94.2175" fill="black" font-size="15.6322" font-family="Helvetica">Const    </text>
<text xml:space="preserve" x="511.386" y="93.4052" fill="black" font-size="15.6322" font-family="Helvetica"> 18.6</text>
<text xml:space="preserve" x="502.452" y="93.4052" fill="black" font-size="15.6322" font-family="Times">&#0177;</text>
<text xml:space="preserve" x="454.531" y="93.4052" fill="black" font-size="15.6322" font-family="Helvetica"> 374.4 </text>
<text xml:space="preserve" x="361.938" y="111.274" fill="black" font-size="15.6322" font-family="Helvetica">Mean     </text>
<text xml:space="preserve" x="522.757" y="111.274" fill="black" font-size="15.6322" font-family="Helvetica"> 0.1</text>
<text xml:space="preserve" x="513.823" y="111.274" fill="black" font-size="15.6322" font-family="Times">&#0177;</text>
<text xml:space="preserve" x="465.902" y="111.274" fill="black" font-size="15.6322" font-family="Helvetica"> 807.7 </text>
<text xml:space="preserve" x="361.938" y="128.331" fill="black" font-size="15.6322" font-family="Helvetica">Sigma    </text>
<text xml:space="preserve" x="503.264" y="129.143" fill="black" font-size="15.6322" font-family="Helvetica"> 0.078</text>
<text xml:space="preserve" x="494.329" y="129.143" fill="black" font-size="15.6322" font-family="Times">&#0177;</text>
<text xml:space="preserve" x="446.408" y="129.143" fill="black" font-size="15.6322" font-family="Helvetica"> 2.647 </text>
<path d="M57.1929,345.762h 453.543" fill="none" stroke="black"/>
<path d="M135.06,336.541v 9.22031" fill="none" stroke="black"/>
<path d="M151.25,341.152v 4.61016" fill="none" stroke="black"/>
<path d="M167.44,341.152v 4.61016" fill="none" stroke="black"/>
<path d="M183.63,341.152v 4.61016" fill="none" stroke="black"/>
<path d="M199.82,341.152v 4.61016" fill="none" stroke="black"/>
<path d="M216.011,336.541v 9.22031" fill="none" stroke="black"/>
<path d="M232.201,341.152v 4.61016" fill="none" stroke="black"/>
<path d="M248.391,341.152v 4.61016" fill="none" stroke="black"/>
<path d="M264.581,341.152v 4.61016" fill="none" stroke="black"/>
<path d="M280.771,341.152v 4.61016" fill="none" stroke="black"/>
<path d="M296.961,336.541v 9.22031" fill="none" stroke="black"/>
<path d="M313.151,341.152v 4.61016" fill="none" stroke="black"/>
<path d="M329.341,341.152v 4.61016" fill="none" stroke="black"/>
<path d="M345.531,341.152v 4.61016" fill="none" stroke="black"/>
<path d="M361.721,341.152v 4.61016" fill="none" stroke="black"/>
<path d="M377.911,336.541v 9.22031" fill="none" stroke="black"/>
<path d="M394.101,341.152v 4.61016" fill="none" stroke="black"/>
<path d="M410.291,341.152v 4.61016" fill="none" stroke="black"/>
<path d="M426.481,341.152v 4.61016" fill="none" stroke="black"/>
<path d="M442.672,341.152v 4.61016" fill="none" stroke="black"/>
<path d="M458.862,336.541v 9.22031" fill="none" stroke="black"/>
<path d="M135.06,336.541v 9.22031" fill="none" stroke="black"/>
<path d="M118.87,341.152v 4.61016" fill="none" stroke="black"/>
<path d="M102.68,341.152v 4.61016" fill="none" stroke="black"/>
<path d="M86.49,341.152v 4.61016" fill="none" stroke="black"/>
<path d="M70.2999,341.152v 4.61016" fill="none" stroke="black"/>
<path d="M458.862,336.541v 9.22031" fill="none" stroke="black"/>
<path d="M475.052,341.152v 4.61016" fill="none" stroke="black"/>
<path d="M491.242,341.152v 4.61016" fill="none" stroke="black"/>
<path d="M507.432,341.152v 4.61016" fill="none" stroke="black"/>
<text xml:space="preserve" x="123.957" y="358.189" fill="black" font-size="12.836" font-family="Helvetica">790</text>
<text xml:space="preserve" x="205.179" y="358.189" fill="black" font-size="12.836" font-family="Helvetica">800</text>
<text xml:space="preserve" x="286.401" y="358.189" fill="black" font-size="12.836" font-family="Helvetica">810</text>
<text xml:space="preserve" x="366.811" y="358.189" fill="black" font-size="12.836" font-family="Helvetica">820</text>
<text xml:space="preserve" x="448.033" y="358.189" fill="black" font-size="12.836" font-family="Helvetica">830</text>
<text xml:space="preserve" x="461.028" y="370.372" fill="black" font-size="12.836" font-family="Helvetica">Time [ps]</text>
<path d="M57.1929,345.762v -307.344" fill="none" stroke="black"/>
<path d="M70.7992,345.762h -13.6063" fill="none" stroke="black"/>
<path d="M63.9961,336.848h -6.80315" fill="none" stroke="black"/>
<path d="M63.9961,327.935h -6.80315" fill="none" stroke="black"/>
<path d="M63.9961,319.022h -6.80315" fill="none" stroke="black"/>
<path d="M63.9961,310.108h -6.80315" fill="none" stroke="black"/>
<path d="M70.7992,301.195h -13.6063" fill="none" stroke="black"/>
<path d="M63.9961,292.282h -6.80315" fill="none" stroke="black"/>
<path d="M63.9961,283.368h -6.80315" fill="none" stroke="black"/>
<path d="M63.9961,274.455h -6.80315" fill="none" stroke="black"/>
<path d="M63.9961,265.542h -6.80315" fill="none" stroke="black"/>
<path d="M70.7992,256.628h -13.6063" fill="none" stroke="black"/>
<path d="M63.9961,247.715h -6.80315" fill="none" stroke="black"/>
<path d="M63.9961,238.802h -6.80315" fill="none" stroke="black"/>
<path d="M63.9961,229.888h -6.80315" fill="none" stroke="black"/>
<path d="M63.9961,220.975h -6.80315" fill="none" stroke="black"/>
<path d="M70.7992,212.062h -13.6063" fill="none" stroke="black"/>
<path d="M63.9961,203.148h -6.80315" fill="none" stroke="black"/>
<path d="M63.9961,194.235h -6.80315" fill="none" stroke="black"/>
<path d="M63.9961,185.322h -6.80315" fill="none" stroke="black"/>
<path d="M63.9961,176.408h -6.80315" fill="none" stroke="black"/>
<path d="M70.7992,167.495h -13.6063" fill="none" stroke="black"/>
<path d="M63.9961,158.582h -6.80315" fill="none" stroke="black"/>
<path d="M63.9961,149.668h -6.80315" fill="none" stroke="black"/>
<path d="M63.9961,140.755h -6.80315" fill="none" stroke="black"/>
<path d="M63.9961,131.842h -6.80315" fill="none" stroke="black"/>
<path d="M70.7992,122.928h -13.6063" fill="none" stroke="black"/>
<path d="M63.9961,114.015h -6.80315" fill="none" stroke="black"/>
<path d="M63.9961,105.101h -6.80315" fill="none" stroke="black"/>
<path d="M63.9961,96.1881h -6.80315" fill="none" stroke="black"/>
<path d="M63.9961,87.2748h -6.80315" fill="none" stroke="black"/>
<path d="M70.7992,78.3615h -13.6063" fill="none" stroke="black"/>
<path d="M70.7992,78.3615h -13.6063" fill="none" stroke="black"/>
<path d="M63.9961,69.4481h -6.80315" fill="none" stroke="black"/>
<path d="M63.9961,60.5348h -6.80315" fill="none" stroke="black"/>
<path d="M63.9961,51.6214h -6.80315" fill="none" stroke="black"/>
<path d="M63.9961,42.7081h -6.80315" fill="none" stroke="black"/>
<text xml:space="preserve" x="47.6087" y="350.067" fill="black" font-size="12.836" font-family="Helvetica">0</text>
<text xml:space="preserve" x="41.111" y="305.395" fill="black" font-size="12.836" font-family="Helvetica">50</text>
<text xml:space="preserve" x="33.801" y="260.722" fill="black" font-size="12.836" font-family="Helvetica">100</text>
<text xml:space="preserve" x="33.801" y="216.863" fill="black" font-size="12.836" font-family="Helvetica">150</text>
<text xml:space="preserve" x="33.801" y="172.191" fill="black" font-size="12.836" font-family="Helvetica">200</text>
<text xml:space="preserve" x="33.801" y="127.518" fill="black" font-size="12.836" font-family="Helvetica">250</text>
<text xml:space="preserve" x="33.801" y="82.8464" fill="black" font-size="12.836" font-family="Helvetica">300</text>
<g transform="rotate(-90,20.8055,69.8509)">
<text xml:space="preserve" x="20.8055" y="69.8509" fill="black" font-size="12.836" font-family="Helvetica">Event</text>
</g>
<rect x="351.996" y="24.9717" width="204.094" height="107.57" fill="white"/>
<path d="M351.996,132.542h 204.094" fill="none" stroke="black"/>
<path d="M556.091,132.542v -107.57" fill="none" stroke="black"/>
<path d="M556.091,24.9717h -204.094" fill="none" stroke="black"/>
<path d="M351.996,24.9717v 107.57" fill="none" stroke="black"/>
<text xml:space="preserve" x="361.938" y="38.9865" fill="black" font-size="15.6322" font-family="Helvetica">Entries </text>
<text xml:space="preserve" x="515.447" y="38.9865" fill="black" font-size="15.6322" font-family="Helvetica"> 650</text>
<text xml:space="preserve" x="375.745" y="56.8554" fill="black" font-size="15.6322" font-family="Helvetica"> / ndf </text>
<text xml:space="preserve" x="370.06" y="51.982" fill="black" font-size="10.5881" font-family="Helvetica">2</text>
<text xml:space="preserve" x="361.938" y="56.8554" fill="black" font-size="15.6322" font-family="Times">&#0967;</text>
<text xml:space="preserve" x="481.334" y="56.8554" fill="black" font-size="15.6322" font-family="Helvetica"> 24.63 / 4</text>
<text xml:space="preserve" x="361.938" y="74.7242" fill="black" font-size="15.6322" font-family="Helvetica">Prob  </text>
<text xml:space="preserve" x="528.443" y="74.7242" fill="black" font-size="15.6322" font-family="Helvetica">05</text>
<text xml:space="preserve" x="519.508" y="74.7242" fill="black" font-size="15.6322" font-family="Times">&#8722;</text>
<text xml:space="preserve" x="468.338" y="74.7242" fill="black" font-size="15.6322" font-family="Helvetica"> 5.978e</text>
<text xml:space="preserve" x="361.938" y="94.2175" fill="black" font-size="15.6322" font-family="Helvetica">Const    </text>
<text xml:space="preserve" x="511.386" y="93.4052" fill="black" font-size="15.6322" font-family="Helvetica"> 18.6</text>
<text xml:space="preserve" x="502.452" y="93.4052" fill="black" font-size="15.6322" font-family="Times">&#0177;</text>
<text xml:space="preserve" x="454.531" y="93.4052" fill="black" font-size="15.6322" font-family="Helvetica"> 374.4 </text>
<text xml:space="preserve" x="361.938" y="111.274" fill="black" font-size="15.6322" font-family="Helvetica">Mean     </text>
<text xml:space="preserve" x="522.757" y="111.274" fill="black" font-size="15.6322" font-family="Helvetica"> 0.1</text>
<text xml:space="preserve" x="513.823" y="111.274" fill="black" font-size="15.6322" font-family="Times">&#0177;</text>
<text xml:space="preserve" x="465.902" y="111.274" fill="black" font-size="15.6322" font-family="Helvetica"> 807.7 </text>
<text xml:space="preserve" x="361.938" y="128.331" fill="black" font-size="15.6322" font-family="Helvetica">Sigma    </text>
<text xml:space="preserve" x="503.264" y="129.143" fill="black" font-size="15.6322" font-family="Helvetica"> 0.078</text>
<text xml:space="preserve" x="494.329" y="129.143" fill="black" font-size="15.6322" font-family="Times">&#0177;</text>
<text xml:space="preserve" x="446.408" y="129.143" fill="black" font-size="15.6322" font-family="Helvetica"> 2.647 </text>
<text xml:space="preserve" x="208.428" y="18.681" fill="black" font-size="16.9774" font-family="Helvetica">560mm 36 37 38 39</text></svg>
