<?xml version="1.0" standalone="no"?>
<svg width="567.429" height="386.304" viewBox="0 0 567.429 386.304" xmlns="http://www.w3.org/2000/svg" shape-rendering="crispEdges">
<title>
img/week2/Combined420mm_ch_60_61_62_63.svg
</title>
<desc>
Creator: ROOT Version 6.22/08
CreationDate: Thu Jun 24 11:56:02 2021</desc>
<defs>
</defs>
<rect x="0.5" y="0" width="566.929" height="385.804" fill="white"/>
<rect x="57.1929" y="38.5804" width="453.543" height="308.643" fill="white"/>
<rect x="57.1929" y="38.5804" width="453.543" height="308.643" fill="none" stroke="black"/>
<rect x="57.1929" y="38.5804" width="453.543" height="308.643" fill="white"/>
<rect x="57.1929" y="38.5804" width="453.543" height="308.643" fill="none" stroke="black"/>
<path d="M57.1929,347.224h 133.395v -1.80622h 26.679v -9.03109h 26.679v -72.2487h 26.679v -193.265h 26.679v 37.9306h 26.679v 214.94h 26.679v 23.4808h 160.074" fill="none" stroke="#000099"/>
<g fill="#ff0000">
<polygon points=" 279.741, 66.6488 288.188, 66.6488 283.965, 75.0959"/>
</g>
<path d="M59.4606,347.224h 140.598l 4.53543, -0.059803l 4.53543, -0.0826917l 4.53543, -0.181649l 4.53543, -0.379802l 4.53543, -0.755553l 4.53543, -1.42939l 4.53543, -2.57022l 4.53543, -4.38952l 4.53543, -7.11397l 4.53543, -10.9289l 4.53543, -15.8924l
 4.53543, -21.8337l 4.53543, -28.2658l 4.53543, -34.3557l 4.53543, -38.9913l 4.53543, -40.9658l 4.53543, -39.2572l 4.53543, -33.3336" fill="none" stroke="#ff0000" stroke-width="2"/>
<path d="M281.697,66.4367l 4.53543, -23.3881l 1.94734, -4.46814" fill="none" stroke="#ff0000" stroke-width="2"/>
<path d="M295.802,38.5804l 4.03669, 15.8632" fill="none" stroke="#ff0000" stroke-width="2"/>
<path d="M299.839,54.4436l 4.53543, 29.3047l 4.53543, 37.1144l 4.53543, 40.6977l 4.53543, 40.2803l 4.53543, 36.6994l 4.53543, 31.1165l 4.53543, 24.716l 4.53543, 18.4721l 4.53543, 13.0291l 4.53543, 8.69203l 4.53543, 5.49334l 4.53543, 3.29306l 4.53543,
 1.87426l 4.53543, 1.01359l 4.53543, 0.521157l 4.53543, 0.254901l 4.53543, 0.118646l 4.53543, 0.0525741l 4.53543, 0.0364045h 122.457" fill="none" stroke="#ff0000" stroke-width="2"/>
<rect x="351.996" y="25.0773" width="204.094" height="108.025" fill="white"/>
<path d="M351.996,133.102h 204.094" fill="none" stroke="black"/>
<path d="M556.091,133.102v -108.025" fill="none" stroke="black"/>
<path d="M556.091,25.0773h -204.094" fill="none" stroke="black"/>
<path d="M351.996,25.0773v 108.025" fill="none" stroke="black"/>
<text xml:space="preserve" x="361.938" y="38.9865" fill="black" font-size="15.6962" font-family="Helvetica">Entries </text>
<text xml:space="preserve" x="515.447" y="38.9865" fill="black" font-size="15.6962" font-family="Helvetica"> 353</text>
<text xml:space="preserve" x="375.745" y="57.6676" fill="black" font-size="15.6962" font-family="Helvetica"> / ndf </text>
<text xml:space="preserve" x="370.06" y="52.7943" fill="black" font-size="10.6308" font-family="Helvetica">2</text>
<text xml:space="preserve" x="361.938" y="57.6676" fill="black" font-size="15.6962" font-family="Times">&#0967;</text>
<text xml:space="preserve" x="481.334" y="57.6676" fill="black" font-size="15.6962" font-family="Helvetica"> 6.423 / 3</text>
<text xml:space="preserve" x="361.938" y="75.5364" fill="black" font-size="15.6962" font-family="Helvetica">Prob  </text>
<text xml:space="preserve" x="485.395" y="75.5364" fill="black" font-size="15.6962" font-family="Helvetica"> 0.09276</text>
<text xml:space="preserve" x="361.938" y="94.2175" fill="black" font-size="15.6962" font-family="Helvetica">Const    </text>
<text xml:space="preserve" x="511.386" y="93.4052" fill="black" font-size="15.6962" font-family="Helvetica"> 12.0</text>
<text xml:space="preserve" x="502.452" y="93.4052" fill="black" font-size="15.6962" font-family="Times">&#0177;</text>
<text xml:space="preserve" x="454.531" y="93.4052" fill="black" font-size="15.6962" font-family="Helvetica"> 174.4 </text>
<text xml:space="preserve" x="361.938" y="111.274" fill="black" font-size="15.6962" font-family="Helvetica">Mean     </text>
<text xml:space="preserve" x="520.32" y="111.274" fill="black" font-size="15.6962" font-family="Helvetica"> 0.2</text>
<text xml:space="preserve" x="511.386" y="111.274" fill="black" font-size="15.6962" font-family="Times">&#0177;</text>
<text xml:space="preserve" x="463.465" y="111.274" fill="black" font-size="15.6962" font-family="Helvetica"> 807.6 </text>
<text xml:space="preserve" x="361.938" y="128.331" fill="black" font-size="15.6962" font-family="Helvetica">Sigma    </text>
<text xml:space="preserve" x="502.452" y="129.143" fill="black" font-size="15.6962" font-family="Helvetica"> 0.136</text>
<text xml:space="preserve" x="493.517" y="129.143" fill="black" font-size="15.6962" font-family="Times">&#0177;</text>
<text xml:space="preserve" x="445.596" y="129.143" fill="black" font-size="15.6962" font-family="Helvetica"> 3.159 </text>
<path d="M57.1929,347.224h 453.543" fill="none" stroke="black"/>
<path d="M108.012,337.964v 9.2593" fill="none" stroke="black"/>
<path d="M121.345,342.594v 4.62965" fill="none" stroke="black"/>
<path d="M134.678,342.594v 4.62965" fill="none" stroke="black"/>
<path d="M148.011,342.594v 4.62965" fill="none" stroke="black"/>
<path d="M161.344,342.594v 4.62965" fill="none" stroke="black"/>
<path d="M174.677,337.964v 9.2593" fill="none" stroke="black"/>
<path d="M188.01,342.594v 4.62965" fill="none" stroke="black"/>
<path d="M201.343,342.594v 4.62965" fill="none" stroke="black"/>
<path d="M214.676,342.594v 4.62965" fill="none" stroke="black"/>
<path d="M228.009,342.594v 4.62965" fill="none" stroke="black"/>
<path d="M241.342,337.964v 9.2593" fill="none" stroke="black"/>
<path d="M254.675,342.594v 4.62965" fill="none" stroke="black"/>
<path d="M268.008,342.594v 4.62965" fill="none" stroke="black"/>
<path d="M281.341,342.594v 4.62965" fill="none" stroke="black"/>
<path d="M294.674,342.594v 4.62965" fill="none" stroke="black"/>
<path d="M308.007,337.964v 9.2593" fill="none" stroke="black"/>
<path d="M321.34,342.594v 4.62965" fill="none" stroke="black"/>
<path d="M334.673,342.594v 4.62965" fill="none" stroke="black"/>
<path d="M348.006,342.594v 4.62965" fill="none" stroke="black"/>
<path d="M361.339,342.594v 4.62965" fill="none" stroke="black"/>
<path d="M374.672,337.964v 9.2593" fill="none" stroke="black"/>
<path d="M388.005,342.594v 4.62965" fill="none" stroke="black"/>
<path d="M401.338,342.594v 4.62965" fill="none" stroke="black"/>
<path d="M414.671,342.594v 4.62965" fill="none" stroke="black"/>
<path d="M428.004,342.594v 4.62965" fill="none" stroke="black"/>
<path d="M441.337,337.964v 9.2593" fill="none" stroke="black"/>
<path d="M454.67,342.594v 4.62965" fill="none" stroke="black"/>
<path d="M468.003,342.594v 4.62965" fill="none" stroke="black"/>
<path d="M481.336,342.594v 4.62965" fill="none" stroke="black"/>
<path d="M494.669,342.594v 4.62965" fill="none" stroke="black"/>
<path d="M508.002,337.964v 9.2593" fill="none" stroke="black"/>
<path d="M108.012,337.964v 9.2593" fill="none" stroke="black"/>
<path d="M94.679,342.594v 4.62965" fill="none" stroke="black"/>
<path d="M81.346,342.594v 4.62965" fill="none" stroke="black"/>
<path d="M68.013,342.594v 4.62965" fill="none" stroke="black"/>
<path d="M508.002,337.964v 9.2593" fill="none" stroke="black"/>
<text xml:space="preserve" x="96.3419" y="359.813" fill="black" font-size="12.8882" font-family="Helvetica">780</text>
<text xml:space="preserve" x="162.944" y="359.813" fill="black" font-size="12.8882" font-family="Helvetica">790</text>
<text xml:space="preserve" x="229.546" y="359.813" fill="black" font-size="12.8882" font-family="Helvetica">800</text>
<text xml:space="preserve" x="296.148" y="359.813" fill="black" font-size="12.8882" font-family="Helvetica">810</text>
<text xml:space="preserve" x="362.75" y="359.813" fill="black" font-size="12.8882" font-family="Helvetica">820</text>
<text xml:space="preserve" x="429.352" y="359.813" fill="black" font-size="12.8882" font-family="Helvetica">830</text>
<text xml:space="preserve" x="495.954" y="359.813" fill="black" font-size="12.8882" font-family="Helvetica">840</text>
<text xml:space="preserve" x="457.78" y="372.809" fill="black" font-size="12.8882" font-family="Helvetica">Time [ns]</text>
<path d="M57.1929,347.224v -308.643" fill="none" stroke="black"/>
<path d="M70.7992,347.224h -13.6063" fill="none" stroke="black"/>
<path d="M63.9961,338.193h -6.80315" fill="none" stroke="black"/>
<path d="M63.9961,329.162h -6.80315" fill="none" stroke="black"/>
<path d="M63.9961,320.131h -6.80315" fill="none" stroke="black"/>
<path d="M70.7992,311.099h -13.6063" fill="none" stroke="black"/>
<path d="M63.9961,302.068h -6.80315" fill="none" stroke="black"/>
<path d="M63.9961,293.037h -6.80315" fill="none" stroke="black"/>
<path d="M63.9961,284.006h -6.80315" fill="none" stroke="black"/>
<path d="M70.7992,274.975h -13.6063" fill="none" stroke="black"/>
<path d="M63.9961,265.944h -6.80315" fill="none" stroke="black"/>
<path d="M63.9961,256.913h -6.80315" fill="none" stroke="black"/>
<path d="M63.9961,247.882h -6.80315" fill="none" stroke="black"/>
<path d="M70.7992,238.851h -13.6063" fill="none" stroke="black"/>
<path d="M63.9961,229.82h -6.80315" fill="none" stroke="black"/>
<path d="M63.9961,220.788h -6.80315" fill="none" stroke="black"/>
<path d="M63.9961,211.757h -6.80315" fill="none" stroke="black"/>
<path d="M70.7992,202.726h -13.6063" fill="none" stroke="black"/>
<path d="M63.9961,193.695h -6.80315" fill="none" stroke="black"/>
<path d="M63.9961,184.664h -6.80315" fill="none" stroke="black"/>
<path d="M63.9961,175.633h -6.80315" fill="none" stroke="black"/>
<path d="M70.7992,166.602h -13.6063" fill="none" stroke="black"/>
<path d="M63.9961,157.571h -6.80315" fill="none" stroke="black"/>
<path d="M63.9961,148.54h -6.80315" fill="none" stroke="black"/>
<path d="M63.9961,139.509h -6.80315" fill="none" stroke="black"/>
<path d="M70.7992,130.478h -13.6063" fill="none" stroke="black"/>
<path d="M63.9961,121.446h -6.80315" fill="none" stroke="black"/>
<path d="M63.9961,112.415h -6.80315" fill="none" stroke="black"/>
<path d="M63.9961,103.384h -6.80315" fill="none" stroke="black"/>
<path d="M70.7992,94.3532h -13.6063" fill="none" stroke="black"/>
<path d="M63.9961,85.3221h -6.80315" fill="none" stroke="black"/>
<path d="M63.9961,76.291h -6.80315" fill="none" stroke="black"/>
<path d="M63.9961,67.2599h -6.80315" fill="none" stroke="black"/>
<path d="M70.7992,58.2289h -13.6063" fill="none" stroke="black"/>
<path d="M70.7992,58.2289h -13.6063" fill="none" stroke="black"/>
<path d="M63.9961,49.1978h -6.80315" fill="none" stroke="black"/>
<path d="M63.9961,40.1667h -6.80315" fill="none" stroke="black"/>
<text xml:space="preserve" x="46.7965" y="351.691" fill="black" font-size="12.8882" font-family="Helvetica">0</text>
<text xml:space="preserve" x="39.4865" y="315.953" fill="black" font-size="12.8882" font-family="Helvetica">20</text>
<text xml:space="preserve" x="39.4865" y="279.403" fill="black" font-size="12.8882" font-family="Helvetica">40</text>
<text xml:space="preserve" x="39.4865" y="243.666" fill="black" font-size="12.8882" font-family="Helvetica">60</text>
<text xml:space="preserve" x="39.4865" y="207.116" fill="black" font-size="12.8882" font-family="Helvetica">80</text>
<text xml:space="preserve" x="32.1766" y="171.378" fill="black" font-size="12.8882" font-family="Helvetica">100</text>
<text xml:space="preserve" x="32.1766" y="134.828" fill="black" font-size="12.8882" font-family="Helvetica">120</text>
<text xml:space="preserve" x="32.1766" y="99.0908" fill="black" font-size="12.8882" font-family="Helvetica">140</text>
<text xml:space="preserve" x="32.1766" y="62.5409" fill="black" font-size="12.8882" font-family="Helvetica">160</text>
<g transform="rotate(-90,21.6177,71.4753)">
<text xml:space="preserve" x="21.6177" y="71.4753" fill="black" font-size="12.8882" font-family="Helvetica">Event</text>
</g>
<rect x="351.996" y="25.0773" width="204.094" height="108.025" fill="white"/>
<path d="M351.996,133.102h 204.094" fill="none" stroke="black"/>
<path d="M556.091,133.102v -108.025" fill="none" stroke="black"/>
<path d="M556.091,25.0773h -204.094" fill="none" stroke="black"/>
<path d="M351.996,25.0773v 108.025" fill="none" stroke="black"/>
<text xml:space="preserve" x="361.938" y="38.9865" fill="black" font-size="15.6962" font-family="Helvetica">Entries </text>
<text xml:space="preserve" x="515.447" y="38.9865" fill="black" font-size="15.6962" font-family="Helvetica"> 353</text>
<text xml:space="preserve" x="375.745" y="57.6676" fill="black" font-size="15.6962" font-family="Helvetica"> / ndf </text>
<text xml:space="preserve" x="370.06" y="52.7943" fill="black" font-size="10.6308" font-family="Helvetica">2</text>
<text xml:space="preserve" x="361.938" y="57.6676" fill="black" font-size="15.6962" font-family="Times">&#0967;</text>
<text xml:space="preserve" x="481.334" y="57.6676" fill="black" font-size="15.6962" font-family="Helvetica"> 6.423 / 3</text>
<text xml:space="preserve" x="361.938" y="75.5364" fill="black" font-size="15.6962" font-family="Helvetica">Prob  </text>
<text xml:space="preserve" x="485.395" y="75.5364" fill="black" font-size="15.6962" font-family="Helvetica"> 0.09276</text>
<text xml:space="preserve" x="361.938" y="94.2175" fill="black" font-size="15.6962" font-family="Helvetica">Const    </text>
<text xml:space="preserve" x="511.386" y="93.4052" fill="black" font-size="15.6962" font-family="Helvetica"> 12.0</text>
<text xml:space="preserve" x="502.452" y="93.4052" fill="black" font-size="15.6962" font-family="Times">&#0177;</text>
<text xml:space="preserve" x="454.531" y="93.4052" fill="black" font-size="15.6962" font-family="Helvetica"> 174.4 </text>
<text xml:space="preserve" x="361.938" y="111.274" fill="black" font-size="15.6962" font-family="Helvetica">Mean     </text>
<text xml:space="preserve" x="520.32" y="111.274" fill="black" font-size="15.6962" font-family="Helvetica"> 0.2</text>
<text xml:space="preserve" x="511.386" y="111.274" fill="black" font-size="15.6962" font-family="Times">&#0177;</text>
<text xml:space="preserve" x="463.465" y="111.274" fill="black" font-size="15.6962" font-family="Helvetica"> 807.6 </text>
<text xml:space="preserve" x="361.938" y="128.331" fill="black" font-size="15.6962" font-family="Helvetica">Sigma    </text>
<text xml:space="preserve" x="502.452" y="129.143" fill="black" font-size="15.6962" font-family="Helvetica"> 0.136</text>
<text xml:space="preserve" x="493.517" y="129.143" fill="black" font-size="15.6962" font-family="Times">&#0177;</text>
<text xml:space="preserve" x="445.596" y="129.143" fill="black" font-size="15.6962" font-family="Helvetica"> 3.159 </text>
<text xml:space="preserve" x="208.428" y="18.681" fill="black" font-size="17.0471" font-family="Helvetica">420mm 60 61 62 63</text></svg>
