<?xml version="1.0" standalone="no"?>
<svg width="567.429" height="386.304" viewBox="0 0 567.429 386.304" xmlns="http://www.w3.org/2000/svg" shape-rendering="crispEdges">
<title>
img/week2/Combined420mm_ch_12_13_14_15.svg
</title>
<desc>
Creator: ROOT Version 6.22/08
CreationDate: Mon Jun 21 21:39:58 2021</desc>
<defs>
</defs>
<rect x="0.5" y="0" width="566.929" height="385.804" fill="white"/>
<rect x="57.1929" y="38.5804" width="453.543" height="308.643" fill="white"/>
<rect x="57.1929" y="38.5804" width="453.543" height="308.643" fill="none" stroke="black"/>
<rect x="57.1929" y="38.5804" width="453.543" height="308.643" fill="white"/>
<rect x="57.1929" y="38.5804" width="453.543" height="308.643" fill="none" stroke="black"/>
<path d="M57.1929,347.224h 120.945v -4.10837h 30.2362v -2.05418h 30.2362v -64.7068h 30.2362v -213.635h 30.2362v 109.899h 30.2362v 166.389h 30.2362v 8.21674h 151.181" fill="none" stroke="#000099"/>
<g fill="#ff0000">
<polygon points=" 279.741, 58.4957 288.188, 58.4957 283.965, 66.9428"/>
</g>
<path d="M59.4606,347.224h 136.063l 4.53543, -0.0376058l 4.53543, -0.0534519l 4.53543, -0.11958l 4.53543, -0.254853l 4.53543, -0.51726l 4.53543, -0.999379l 4.53543, -1.83712l 4.53543, -3.21115l 4.53543, -5.33303l 4.53543, -8.40743l 4.53543, -12.5662l
 4.53543, -17.7789l 4.53543, -23.7599l 4.53543, -29.9055l 4.53543, -35.3009l 4.53543, -38.8295l 4.53543, -39.387l 4.53543, -36.1617l 4.53543, -28.9045" fill="none" stroke="#ff0000" stroke-width="2"/>
<path d="M281.697,63.8589l 4.53543, -18.0943l 4.53543, -4.92596l 4.53543, 8.90116l 4.53543, 21.543l 4.53543, 31.4147l 4.53543, 37.5162l 4.53543, 39.5874l 4.53543, 38.0646l 4.53543, 33.8743l 4.53543, 28.1516l 4.53543, 21.9722l 4.53543, 16.1669l
 4.53543, 11.2439l 4.53543, 7.40611l 4.53543, 4.62679l 4.53543, 2.74458l 4.53543, 1.54726l 4.53543, 0.829568l 4.53543, 0.423246l 4.53543, 0.205586l 4.53543, 0.0951104l 4.53543, 0.0707592h 122.457" fill="none" stroke="#ff0000" stroke-width="2"/>
<path d="M503.933,347.224h 4.53543" fill="none" stroke="#ff0000" stroke-width="2"/>
<path d="M57.1929,347.224h 453.543" fill="none" stroke="black"/>
<path d="M84.5516,337.964v 9.2593" fill="none" stroke="black"/>
<path d="M99.6623,342.594v 4.62965" fill="none" stroke="black"/>
<path d="M114.773,342.594v 4.62965" fill="none" stroke="black"/>
<path d="M129.884,342.594v 4.62965" fill="none" stroke="black"/>
<path d="M144.995,342.594v 4.62965" fill="none" stroke="black"/>
<path d="M160.105,337.964v 9.2593" fill="none" stroke="black"/>
<path d="M175.216,342.594v 4.62965" fill="none" stroke="black"/>
<path d="M190.327,342.594v 4.62965" fill="none" stroke="black"/>
<path d="M205.437,342.594v 4.62965" fill="none" stroke="black"/>
<path d="M220.548,342.594v 4.62965" fill="none" stroke="black"/>
<path d="M235.659,337.964v 9.2593" fill="none" stroke="black"/>
<path d="M250.77,342.594v 4.62965" fill="none" stroke="black"/>
<path d="M265.88,342.594v 4.62965" fill="none" stroke="black"/>
<path d="M280.991,342.594v 4.62965" fill="none" stroke="black"/>
<path d="M296.102,342.594v 4.62965" fill="none" stroke="black"/>
<path d="M311.213,337.964v 9.2593" fill="none" stroke="black"/>
<path d="M326.323,342.594v 4.62965" fill="none" stroke="black"/>
<path d="M341.434,342.594v 4.62965" fill="none" stroke="black"/>
<path d="M356.545,342.594v 4.62965" fill="none" stroke="black"/>
<path d="M371.656,342.594v 4.62965" fill="none" stroke="black"/>
<path d="M386.766,337.964v 9.2593" fill="none" stroke="black"/>
<path d="M401.877,342.594v 4.62965" fill="none" stroke="black"/>
<path d="M416.988,342.594v 4.62965" fill="none" stroke="black"/>
<path d="M432.098,342.594v 4.62965" fill="none" stroke="black"/>
<path d="M447.209,342.594v 4.62965" fill="none" stroke="black"/>
<path d="M462.32,337.964v 9.2593" fill="none" stroke="black"/>
<path d="M84.5516,337.964v 9.2593" fill="none" stroke="black"/>
<path d="M69.4409,342.594v 4.62965" fill="none" stroke="black"/>
<path d="M462.32,337.964v 9.2593" fill="none" stroke="black"/>
<path d="M477.431,342.594v 4.62965" fill="none" stroke="black"/>
<path d="M492.541,342.594v 4.62965" fill="none" stroke="black"/>
<path d="M507.652,342.594v 4.62965" fill="none" stroke="black"/>
<text xml:space="preserve" x="72.7875" y="359.813" fill="black" font-size="12.8882" font-family="Helvetica">780</text>
<text xml:space="preserve" x="148.324" y="359.813" fill="black" font-size="12.8882" font-family="Helvetica">790</text>
<text xml:space="preserve" x="223.86" y="359.813" fill="black" font-size="12.8882" font-family="Helvetica">800</text>
<text xml:space="preserve" x="299.397" y="359.813" fill="black" font-size="12.8882" font-family="Helvetica">810</text>
<text xml:space="preserve" x="374.933" y="359.813" fill="black" font-size="12.8882" font-family="Helvetica">820</text>
<text xml:space="preserve" x="450.47" y="359.813" fill="black" font-size="12.8882" font-family="Helvetica">830</text>
<text xml:space="preserve" x="481.334" y="373.621" fill="black" font-size="12.8882" font-family="Helvetica">Time</text>
<path d="M57.1929,347.224v -308.643" fill="none" stroke="black"/>
<path d="M70.7992,347.224h -13.6063" fill="none" stroke="black"/>
<path d="M63.9961,336.953h -6.80315" fill="none" stroke="black"/>
<path d="M63.9961,326.682h -6.80315" fill="none" stroke="black"/>
<path d="M63.9961,316.411h -6.80315" fill="none" stroke="black"/>
<path d="M63.9961,306.14h -6.80315" fill="none" stroke="black"/>
<path d="M70.7992,295.869h -13.6063" fill="none" stroke="black"/>
<path d="M63.9961,285.598h -6.80315" fill="none" stroke="black"/>
<path d="M63.9961,275.327h -6.80315" fill="none" stroke="black"/>
<path d="M63.9961,265.056h -6.80315" fill="none" stroke="black"/>
<path d="M63.9961,254.785h -6.80315" fill="none" stroke="black"/>
<path d="M70.7992,244.515h -13.6063" fill="none" stroke="black"/>
<path d="M63.9961,234.244h -6.80315" fill="none" stroke="black"/>
<path d="M63.9961,223.973h -6.80315" fill="none" stroke="black"/>
<path d="M63.9961,213.702h -6.80315" fill="none" stroke="black"/>
<path d="M63.9961,203.431h -6.80315" fill="none" stroke="black"/>
<path d="M70.7992,193.16h -13.6063" fill="none" stroke="black"/>
<path d="M63.9961,182.889h -6.80315" fill="none" stroke="black"/>
<path d="M63.9961,172.618h -6.80315" fill="none" stroke="black"/>
<path d="M63.9961,162.347h -6.80315" fill="none" stroke="black"/>
<path d="M63.9961,152.076h -6.80315" fill="none" stroke="black"/>
<path d="M70.7992,141.805h -13.6063" fill="none" stroke="black"/>
<path d="M63.9961,131.534h -6.80315" fill="none" stroke="black"/>
<path d="M63.9961,121.263h -6.80315" fill="none" stroke="black"/>
<path d="M63.9961,110.993h -6.80315" fill="none" stroke="black"/>
<path d="M63.9961,100.722h -6.80315" fill="none" stroke="black"/>
<path d="M70.7992,90.4507h -13.6063" fill="none" stroke="black"/>
<path d="M63.9961,80.1798h -6.80315" fill="none" stroke="black"/>
<path d="M63.9961,69.9089h -6.80315" fill="none" stroke="black"/>
<path d="M63.9961,59.6379h -6.80315" fill="none" stroke="black"/>
<path d="M63.9961,49.367h -6.80315" fill="none" stroke="black"/>
<path d="M70.7992,39.0961h -13.6063" fill="none" stroke="black"/>
<path d="M70.7992,39.0961h -13.6063" fill="none" stroke="black"/>
<text xml:space="preserve" x="46.7965" y="351.691" fill="black" font-size="12.8882" font-family="Helvetica">0</text>
<text xml:space="preserve" x="39.4865" y="300.521" fill="black" font-size="12.8882" font-family="Helvetica">50</text>
<text xml:space="preserve" x="32.1766" y="249.351" fill="black" font-size="12.8882" font-family="Helvetica">100</text>
<text xml:space="preserve" x="32.1766" y="197.369" fill="black" font-size="12.8882" font-family="Helvetica">150</text>
<text xml:space="preserve" x="32.1766" y="146.199" fill="black" font-size="12.8882" font-family="Helvetica">200</text>
<text xml:space="preserve" x="32.1766" y="95.0297" fill="black" font-size="12.8882" font-family="Helvetica">250</text>
<text xml:space="preserve" x="32.1766" y="43.8598" fill="black" font-size="12.8882" font-family="Helvetica">300</text>
<g transform="rotate(-90,21.6177,71.4753)">
<text xml:space="preserve" x="21.6177" y="71.4753" fill="black" font-size="12.8882" font-family="Helvetica">Event</text>
</g>
<text xml:space="preserve" x="208.428" y="18.681" fill="black" font-size="17.0471" font-family="Helvetica">420mm 12 13 14 15</text></svg>
