<?xml version="1.0" standalone="no"?>
<svg width="567.429" height="384.969" viewBox="0 0 567.429 384.969" xmlns="http://www.w3.org/2000/svg" shape-rendering="crispEdges">
<title>
img/week2/Combined0mm_ch_58.svg
</title>
<desc>
Creator: ROOT Version 6.22/09
CreationDate: Thu Jun 24 12:33:04 2021</desc>
<defs>
</defs>
<rect x="0.5" y="0" width="566.929" height="384.469" fill="white"/>
<rect x="57.1929" y="38.4469" width="453.543" height="307.575" fill="white"/>
<rect x="57.1929" y="38.4469" width="453.543" height="307.575" fill="none" stroke="black"/>
<rect x="57.1929" y="38.4469" width="453.543" height="307.575" fill="white"/>
<rect x="57.1929" y="38.4469" width="453.543" height="307.575" fill="none" stroke="black"/>
<path d="M57.1929,346.022h 129.584v -12.2054h 32.396v -42.7188h 32.396v -238.005h 32.396v 152.567h 32.396v 140.362h 194.376" fill="none" stroke="#000099"/>
<g fill="#ff0000">
<polygon points=" 263.531, 48.8577 272.002, 48.8577 267.767, 57.329"/>
</g>
<path d="M59.4606,346.022h 122.457l 4.53543, -0.0613436l 4.53543, -0.0833906l 4.53543, -0.181509l 4.53543, -0.376314l 4.53543, -0.742851l 4.53543, -1.39557l 4.53543, -2.49378l 4.53543, -4.23565l 4.53543, -6.83228l 4.53543, -10.455l 4.53543, -15.156l
 4.53543, -20.7751l 4.53543, -26.8596l 4.53543, -32.6362l 4.53543, -37.072l 4.53543, -39.0414l 4.53543, -37.581l 4.53543, -32.1714l 4.53543, -22.9565l 4.53543, -10.8156l 4.53543, 2.75983l 4.53543, 15.9659" fill="none" stroke="#ff0000"
 stroke-width="2"/>
<path d="M281.697,62.8254l 4.53543, 27.08l 4.53543, 34.8293l 4.53543, 38.627l 4.53543, 38.6145l 4.53543, 35.5218l 4.53543, 30.4116l 4.53543, 24.399l 4.53543, 18.4265l 4.53543, 13.14l 4.53543, 8.86747l 4.53543, 5.67247l 4.53543, 3.44397l 4.53543,
 1.98651l 4.53543, 1.08945l 4.53543, 0.568437l 4.53543, 0.28232l 4.53543, 0.133528l 4.53543, 0.0601636l 4.53543, 0.042878h 136.063" fill="none" stroke="#ff0000" stroke-width="2"/>
<path d="M503.933,346.022h 4.53543" fill="none" stroke="#ff0000" stroke-width="2"/>
<path d="M57.1929,346.022h 453.543" fill="none" stroke="black"/>
<path d="M102.664,336.795v 9.22726" fill="none" stroke="black"/>
<path d="M118.854,341.409v 4.61363" fill="none" stroke="black"/>
<path d="M135.044,341.409v 4.61363" fill="none" stroke="black"/>
<path d="M151.234,341.409v 4.61363" fill="none" stroke="black"/>
<path d="M167.425,341.409v 4.61363" fill="none" stroke="black"/>
<path d="M183.615,336.795v 9.22726" fill="none" stroke="black"/>
<path d="M199.805,341.409v 4.61363" fill="none" stroke="black"/>
<path d="M215.995,341.409v 4.61363" fill="none" stroke="black"/>
<path d="M232.185,341.409v 4.61363" fill="none" stroke="black"/>
<path d="M248.375,341.409v 4.61363" fill="none" stroke="black"/>
<path d="M264.565,336.795v 9.22726" fill="none" stroke="black"/>
<path d="M280.755,341.409v 4.61363" fill="none" stroke="black"/>
<path d="M296.945,341.409v 4.61363" fill="none" stroke="black"/>
<path d="M313.135,341.409v 4.61363" fill="none" stroke="black"/>
<path d="M329.325,341.409v 4.61363" fill="none" stroke="black"/>
<path d="M345.515,336.795v 9.22726" fill="none" stroke="black"/>
<path d="M361.705,341.409v 4.61363" fill="none" stroke="black"/>
<path d="M377.895,341.409v 4.61363" fill="none" stroke="black"/>
<path d="M394.086,341.409v 4.61363" fill="none" stroke="black"/>
<path d="M410.276,341.409v 4.61363" fill="none" stroke="black"/>
<path d="M426.466,336.795v 9.22726" fill="none" stroke="black"/>
<path d="M442.656,341.409v 4.61363" fill="none" stroke="black"/>
<path d="M458.846,341.409v 4.61363" fill="none" stroke="black"/>
<path d="M475.036,341.409v 4.61363" fill="none" stroke="black"/>
<path d="M491.226,341.409v 4.61363" fill="none" stroke="black"/>
<path d="M507.416,336.795v 9.22726" fill="none" stroke="black"/>
<path d="M102.664,336.795v 9.22726" fill="none" stroke="black"/>
<path d="M86.4742,341.409v 4.61363" fill="none" stroke="black"/>
<path d="M70.2841,341.409v 4.61363" fill="none" stroke="black"/>
<path d="M507.416,336.795v 9.22726" fill="none" stroke="black"/>
<text xml:space="preserve" x="91.73" y="358.403" fill="black" font-size="12.8453" font-family="Helvetica">790</text>
<text xml:space="preserve" x="172.371" y="358.403" fill="black" font-size="12.8453" font-family="Helvetica">800</text>
<text xml:space="preserve" x="253.826" y="358.403" fill="black" font-size="12.8453" font-family="Helvetica">810</text>
<text xml:space="preserve" x="334.467" y="358.403" fill="black" font-size="12.8453" font-family="Helvetica">820</text>
<text xml:space="preserve" x="415.108" y="358.403" fill="black" font-size="12.8453" font-family="Helvetica">830</text>
<text xml:space="preserve" x="496.563" y="358.403" fill="black" font-size="12.8453" font-family="Helvetica">840</text>
<text xml:space="preserve" x="460.723" y="370.622" fill="black" font-size="12.8453" font-family="Helvetica">Time [ns]</text>
<path d="M57.1929,346.022v -307.575" fill="none" stroke="black"/>
<path d="M70.7992,346.022h -13.6063" fill="none" stroke="black"/>
<path d="M63.9961,333.817h -6.80315" fill="none" stroke="black"/>
<path d="M63.9961,321.612h -6.80315" fill="none" stroke="black"/>
<path d="M63.9961,309.406h -6.80315" fill="none" stroke="black"/>
<path d="M63.9961,297.201h -6.80315" fill="none" stroke="black"/>
<path d="M70.7992,284.995h -13.6063" fill="none" stroke="black"/>
<path d="M63.9961,272.79h -6.80315" fill="none" stroke="black"/>
<path d="M63.9961,260.585h -6.80315" fill="none" stroke="black"/>
<path d="M63.9961,248.379h -6.80315" fill="none" stroke="black"/>
<path d="M63.9961,236.174h -6.80315" fill="none" stroke="black"/>
<path d="M70.7992,223.969h -13.6063" fill="none" stroke="black"/>
<path d="M63.9961,211.763h -6.80315" fill="none" stroke="black"/>
<path d="M63.9961,199.558h -6.80315" fill="none" stroke="black"/>
<path d="M63.9961,187.352h -6.80315" fill="none" stroke="black"/>
<path d="M63.9961,175.147h -6.80315" fill="none" stroke="black"/>
<path d="M70.7992,162.942h -13.6063" fill="none" stroke="black"/>
<path d="M63.9961,150.736h -6.80315" fill="none" stroke="black"/>
<path d="M63.9961,138.531h -6.80315" fill="none" stroke="black"/>
<path d="M63.9961,126.326h -6.80315" fill="none" stroke="black"/>
<path d="M63.9961,114.12h -6.80315" fill="none" stroke="black"/>
<path d="M70.7992,101.915h -13.6063" fill="none" stroke="black"/>
<path d="M63.9961,89.7095h -6.80315" fill="none" stroke="black"/>
<path d="M63.9961,77.5041h -6.80315" fill="none" stroke="black"/>
<path d="M63.9961,65.2987h -6.80315" fill="none" stroke="black"/>
<path d="M63.9961,53.0934h -6.80315" fill="none" stroke="black"/>
<path d="M70.7992,40.888h -13.6063" fill="none" stroke="black"/>
<path d="M70.7992,40.888h -13.6063" fill="none" stroke="black"/>
<text xml:space="preserve" x="47.7441" y="350.258" fill="black" font-size="12.8453" font-family="Helvetica">0</text>
<text xml:space="preserve" x="41.2277" y="289.166" fill="black" font-size="12.8453" font-family="Helvetica">10</text>
<text xml:space="preserve" x="41.2277" y="228.075" fill="black" font-size="12.8453" font-family="Helvetica">20</text>
<text xml:space="preserve" x="41.2277" y="167.798" fill="black" font-size="12.8453" font-family="Helvetica">30</text>
<text xml:space="preserve" x="41.2277" y="106.706" fill="black" font-size="12.8453" font-family="Helvetica">40</text>
<text xml:space="preserve" x="41.2277" y="45.615" fill="black" font-size="12.8453" font-family="Helvetica">50</text>
<g transform="rotate(-90,29.0094,70.0516)">
<text xml:space="preserve" x="29.0094" y="70.0516" fill="black" font-size="12.8453" font-family="Helvetica">Event</text>
</g>
<text xml:space="preserve" x="253.012" y="18.7347" fill="black" font-size="16.9898" font-family="Helvetica">0mm 58</text></svg>
