<?xml version="1.0" standalone="no"?>
<svg width="567.429" height="384.969" viewBox="0 0 567.429 384.969" xmlns="http://www.w3.org/2000/svg" shape-rendering="crispEdges">
<title>
img/week2/Combined0mm_ch_55.svg
</title>
<desc>
Creator: ROOT Version 6.22/09
CreationDate: Thu Jun 24 12:12:14 2021</desc>
<defs>
</defs>
<rect x="0.5" y="0" width="566.929" height="384.469" fill="white"/>
<rect x="57.1929" y="38.4469" width="453.543" height="307.575" fill="white"/>
<rect x="57.1929" y="38.4469" width="453.543" height="307.575" fill="none" stroke="black"/>
<rect x="57.1929" y="38.4469" width="453.543" height="307.575" fill="white"/>
<rect x="57.1929" y="38.4469" width="453.543" height="307.575" fill="none" stroke="black"/>
<path d="M57.1929,346.022h 69.7759v -4.72466h 34.8879v 4.72466h 34.8879v -4.72466h 34.8879v -66.1452h 34.8879v -222.059h 34.8879v 212.61h 34.8879v 80.3192h 174.44" fill="none" stroke="#000099"/>
<g fill="#ff0000">
<polygon points=" 279.729, 48.8577 288.2, 48.8577 283.965, 57.329"/>
</g>
<path d="M59.4606,346.022h 131.528l 4.53543, -0.0524351l 4.53543, -0.0708801l 4.53543, -0.154023l 4.53543, -0.319152l 4.53543, -0.630374l 4.53543, -1.18631l 4.53543, -2.12604l 4.53543, -3.62609l 4.53543, -5.88104l 4.53543, -9.06119l 4.53543,
 -13.2457l 4.53543, -18.3399l 4.53543, -23.9973l 4.53543, -29.5801l 4.53543, -34.1912l 4.53543, -36.7993l 4.53543, -36.4503l 4.53543, -32.5217l 4.53543, -24.945l 4.53543, -14.3177" fill="none" stroke="#ff0000" stroke-width="2"/>
<path d="M281.697,58.5265l 4.53543, -1.84965l 4.53543, 10.8608l 4.53543, 22.1629l 4.53543, 30.7061l 4.53543, 35.7036l 4.53543, 37.0375l 4.53543, 35.1905l 4.53543, 31.0478l 4.53543, 25.6431l 4.53543, 19.9291l 4.53543, 14.6252l 4.53543, 10.16l 4.53543,
 6.69357l 4.53543, 4.18785l 4.53543, 2.49092l 4.53543, 1.40971l 4.53543, 0.759627l 4.53543, 0.38995l 4.53543, 0.19079l 4.53543, 0.0890036l 4.53543, 0.0673354h 126.992" fill="none" stroke="#ff0000" stroke-width="2"/>
<path d="M503.933,346.022h 4.53543" fill="none" stroke="#ff0000" stroke-width="2"/>
<path d="M57.1929,346.022h 453.543" fill="none" stroke="black"/>
<path d="M106.162,336.795v 9.22726" fill="none" stroke="black"/>
<path d="M123.597,341.409v 4.61363" fill="none" stroke="black"/>
<path d="M141.033,341.409v 4.61363" fill="none" stroke="black"/>
<path d="M158.468,341.409v 4.61363" fill="none" stroke="black"/>
<path d="M175.904,341.409v 4.61363" fill="none" stroke="black"/>
<path d="M193.339,336.795v 9.22726" fill="none" stroke="black"/>
<path d="M210.775,341.409v 4.61363" fill="none" stroke="black"/>
<path d="M228.21,341.409v 4.61363" fill="none" stroke="black"/>
<path d="M245.646,341.409v 4.61363" fill="none" stroke="black"/>
<path d="M263.081,341.409v 4.61363" fill="none" stroke="black"/>
<path d="M280.517,336.795v 9.22726" fill="none" stroke="black"/>
<path d="M297.952,341.409v 4.61363" fill="none" stroke="black"/>
<path d="M315.388,341.409v 4.61363" fill="none" stroke="black"/>
<path d="M332.823,341.409v 4.61363" fill="none" stroke="black"/>
<path d="M350.258,341.409v 4.61363" fill="none" stroke="black"/>
<path d="M367.694,336.795v 9.22726" fill="none" stroke="black"/>
<path d="M385.129,341.409v 4.61363" fill="none" stroke="black"/>
<path d="M402.565,341.409v 4.61363" fill="none" stroke="black"/>
<path d="M420,341.409v 4.61363" fill="none" stroke="black"/>
<path d="M437.436,341.409v 4.61363" fill="none" stroke="black"/>
<path d="M454.871,336.795v 9.22726" fill="none" stroke="black"/>
<path d="M106.162,336.795v 9.22726" fill="none" stroke="black"/>
<path d="M88.7266,341.409v 4.61363" fill="none" stroke="black"/>
<path d="M71.2911,341.409v 4.61363" fill="none" stroke="black"/>
<path d="M454.871,336.795v 9.22726" fill="none" stroke="black"/>
<path d="M472.307,341.409v 4.61363" fill="none" stroke="black"/>
<path d="M489.742,341.409v 4.61363" fill="none" stroke="black"/>
<path d="M507.178,341.409v 4.61363" fill="none" stroke="black"/>
<text xml:space="preserve" x="94.9882" y="358.403" fill="black" font-size="12.8453" font-family="Helvetica">790</text>
<text xml:space="preserve" x="182.145" y="358.403" fill="black" font-size="12.8453" font-family="Helvetica">800</text>
<text xml:space="preserve" x="269.303" y="358.403" fill="black" font-size="12.8453" font-family="Helvetica">810</text>
<text xml:space="preserve" x="356.46" y="358.403" fill="black" font-size="12.8453" font-family="Helvetica">820</text>
<text xml:space="preserve" x="443.617" y="358.403" fill="black" font-size="12.8453" font-family="Helvetica">830</text>
<text xml:space="preserve" x="460.723" y="370.622" fill="black" font-size="12.8453" font-family="Helvetica">Time [ps]</text>
<path d="M57.1929,346.022v -307.575" fill="none" stroke="black"/>
<path d="M70.7992,346.022h -13.6063" fill="none" stroke="black"/>
<path d="M63.9961,336.573h -6.80315" fill="none" stroke="black"/>
<path d="M63.9961,327.124h -6.80315" fill="none" stroke="black"/>
<path d="M63.9961,317.674h -6.80315" fill="none" stroke="black"/>
<path d="M63.9961,308.225h -6.80315" fill="none" stroke="black"/>
<path d="M70.7992,298.776h -13.6063" fill="none" stroke="black"/>
<path d="M63.9961,289.326h -6.80315" fill="none" stroke="black"/>
<path d="M63.9961,279.877h -6.80315" fill="none" stroke="black"/>
<path d="M63.9961,270.428h -6.80315" fill="none" stroke="black"/>
<path d="M63.9961,260.978h -6.80315" fill="none" stroke="black"/>
<path d="M70.7992,251.529h -13.6063" fill="none" stroke="black"/>
<path d="M63.9961,242.08h -6.80315" fill="none" stroke="black"/>
<path d="M63.9961,232.63h -6.80315" fill="none" stroke="black"/>
<path d="M63.9961,223.181h -6.80315" fill="none" stroke="black"/>
<path d="M63.9961,213.732h -6.80315" fill="none" stroke="black"/>
<path d="M70.7992,204.282h -13.6063" fill="none" stroke="black"/>
<path d="M63.9961,194.833h -6.80315" fill="none" stroke="black"/>
<path d="M63.9961,185.384h -6.80315" fill="none" stroke="black"/>
<path d="M63.9961,175.935h -6.80315" fill="none" stroke="black"/>
<path d="M63.9961,166.485h -6.80315" fill="none" stroke="black"/>
<path d="M70.7992,157.036h -13.6063" fill="none" stroke="black"/>
<path d="M63.9961,147.587h -6.80315" fill="none" stroke="black"/>
<path d="M63.9961,138.137h -6.80315" fill="none" stroke="black"/>
<path d="M63.9961,128.688h -6.80315" fill="none" stroke="black"/>
<path d="M63.9961,119.239h -6.80315" fill="none" stroke="black"/>
<path d="M70.7992,109.789h -13.6063" fill="none" stroke="black"/>
<path d="M63.9961,100.34h -6.80315" fill="none" stroke="black"/>
<path d="M63.9961,90.8906h -6.80315" fill="none" stroke="black"/>
<path d="M63.9961,81.4413h -6.80315" fill="none" stroke="black"/>
<path d="M63.9961,71.992h -6.80315" fill="none" stroke="black"/>
<path d="M70.7992,62.5427h -13.6063" fill="none" stroke="black"/>
<path d="M70.7992,62.5427h -13.6063" fill="none" stroke="black"/>
<path d="M63.9961,53.0934h -6.80315" fill="none" stroke="black"/>
<path d="M63.9961,43.644h -6.80315" fill="none" stroke="black"/>
<text xml:space="preserve" x="47.7441" y="350.258" fill="black" font-size="12.8453" font-family="Helvetica">0</text>
<text xml:space="preserve" x="41.2277" y="303.014" fill="black" font-size="12.8453" font-family="Helvetica">10</text>
<text xml:space="preserve" x="41.2277" y="255.77" fill="black" font-size="12.8453" font-family="Helvetica">20</text>
<text xml:space="preserve" x="41.2277" y="208.526" fill="black" font-size="12.8453" font-family="Helvetica">30</text>
<text xml:space="preserve" x="41.2277" y="161.282" fill="black" font-size="12.8453" font-family="Helvetica">40</text>
<text xml:space="preserve" x="41.2277" y="114.037" fill="black" font-size="12.8453" font-family="Helvetica">50</text>
<text xml:space="preserve" x="41.2277" y="66.7934" fill="black" font-size="12.8453" font-family="Helvetica">60</text>
<g transform="rotate(-90,29.0094,70.0516)">
<text xml:space="preserve" x="29.0094" y="70.0516" fill="black" font-size="12.8453" font-family="Helvetica">Event</text>
</g>
<text xml:space="preserve" x="253.012" y="18.7347" fill="black" font-size="16.9898" font-family="Helvetica">0mm 55</text></svg>
