<?xml version="1.0" standalone="no"?>
<svg width="567.429" height="384.68" viewBox="0 0 567.429 384.68" xmlns="http://www.w3.org/2000/svg" shape-rendering="crispEdges">
<title>
img/week2/Combined420mm_ch_28_29_30_31.svg
</title>
<desc>
Creator: ROOT Version 6.22/09
CreationDate: Tue Jun 22 18:03:23 2021</desc>
<defs>
</defs>
<rect x="0.5" y="0" width="566.929" height="384.18" fill="white"/>
<rect x="57.1929" y="38.418" width="453.543" height="307.344" fill="white"/>
<rect x="57.1929" y="38.418" width="453.543" height="307.344" fill="none" stroke="black"/>
<rect x="57.1929" y="38.418" width="453.543" height="307.344" fill="white"/>
<rect x="57.1929" y="38.418" width="453.543" height="307.344" fill="none" stroke="black"/>
<path d="M57.1929,345.762h 90.7087v -1.87634h 30.2362v -1.87634h 30.2362v -22.516h 30.2362v -108.827h 30.2362v -157.612h 30.2362v 210.775h 30.2362v 81.3079h 30.2362v 0.625445h 151.181" fill="none" stroke="#000099"/>
<g fill="#ff0000">
<polygon points=" 279.741, 48.8299 288.188, 48.8299 283.965, 57.2769"/>
</g>
<path d="M59.4606,345.762h 126.992l 4.53543, -0.0464439l 4.53543, -0.0659666l 4.53543, -0.147187l 4.53543, -0.312423l 4.53543, -0.630627l 4.53543, -1.20993l 4.53543, -2.20527l 4.53543, -3.81578l 4.53543, -6.26259l 4.53543, -9.7388l 4.53543, -14.3296l
 4.53543, -19.9133l 4.53543, -26.0702l 4.53543, -32.0408l 4.53543, -36.775l 4.53543, -39.0967l 4.53543, -37.9678l 4.53543, -32.7916l 4.53543, -23.6586l 4.53543, -11.4383l 4.53543, 2.33865" fill="none" stroke="#ff0000" stroke-width="2"/>
<path d="M281.697,49.5834l 4.53543, 15.7941l 4.53543, 27.1222l 4.53543, 34.9877l 4.53543, 38.7798l 4.53543, 38.6578l 4.53543, 35.3988l 4.53543, 30.1208l 4.53543, 23.9829l 4.53543, 17.9504l 4.53543, 12.669l 4.53543, 8.45053l 4.53543, 5.33611l 4.53543,
 3.19386l 4.53543, 1.8138l 4.53543, 0.978111l 4.53543, 0.501174l 4.53543, 0.244128l 4.53543, 0.113101l 4.53543, 0.0498525l 4.53543, 0.0341754h 131.528" fill="none" stroke="#ff0000" stroke-width="2"/>
<path d="M503.933,345.762h 4.53543" fill="none" stroke="#ff0000" stroke-width="2"/>
<rect x="351.996" y="24.9717" width="204.094" height="107.57" fill="white"/>
<path d="M351.996,132.542h 204.094" fill="none" stroke="black"/>
<path d="M556.091,132.542v -107.57" fill="none" stroke="black"/>
<path d="M556.091,24.9717h -204.094" fill="none" stroke="black"/>
<path d="M351.996,24.9717v 107.57" fill="none" stroke="black"/>
<text xml:space="preserve" x="361.938" y="38.9865" fill="black" font-size="15.6322" font-family="Helvetica">Entries </text>
<text xml:space="preserve" x="515.447" y="38.9865" fill="black" font-size="15.6322" font-family="Helvetica"> 878</text>
<text xml:space="preserve" x="375.745" y="56.8554" fill="black" font-size="15.6322" font-family="Helvetica"> / ndf </text>
<text xml:space="preserve" x="370.06" y="51.982" fill="black" font-size="10.5881" font-family="Helvetica">2</text>
<text xml:space="preserve" x="361.938" y="56.8554" fill="black" font-size="15.6322" font-family="Times">&#0967;</text>
<text xml:space="preserve" x="481.334" y="56.8554" fill="black" font-size="15.6322" font-family="Helvetica"> 40.45 / 7</text>
<text xml:space="preserve" x="361.938" y="74.7242" fill="black" font-size="15.6322" font-family="Helvetica">Prob  </text>
<text xml:space="preserve" x="528.443" y="74.7242" fill="black" font-size="15.6322" font-family="Helvetica">06</text>
<text xml:space="preserve" x="519.508" y="74.7242" fill="black" font-size="15.6322" font-family="Times">&#8722;</text>
<text xml:space="preserve" x="468.338" y="74.7242" fill="black" font-size="15.6322" font-family="Helvetica"> 1.031e</text>
<text xml:space="preserve" x="361.938" y="94.2175" fill="black" font-size="15.6322" font-family="Helvetica">Const    </text>
<text xml:space="preserve" x="511.386" y="93.4052" fill="black" font-size="15.6322" font-family="Helvetica"> 20.4</text>
<text xml:space="preserve" x="502.452" y="93.4052" fill="black" font-size="15.6322" font-family="Times">&#0177;</text>
<text xml:space="preserve" x="455.343" y="93.4052" fill="black" font-size="15.6322" font-family="Helvetica"> 478.5 </text>
<text xml:space="preserve" x="361.938" y="111.274" fill="black" font-size="15.6322" font-family="Helvetica">Mean     </text>
<text xml:space="preserve" x="522.757" y="111.274" fill="black" font-size="15.6322" font-family="Helvetica"> 0.1</text>
<text xml:space="preserve" x="513.823" y="111.274" fill="black" font-size="15.6322" font-family="Times">&#0177;</text>
<text xml:space="preserve" x="465.902" y="111.274" fill="black" font-size="15.6322" font-family="Helvetica"> 809.7 </text>
<text xml:space="preserve" x="361.938" y="128.331" fill="black" font-size="15.6322" font-family="Helvetica">Sigma    </text>
<text xml:space="preserve" x="503.264" y="129.143" fill="black" font-size="15.6322" font-family="Helvetica"> 0.069</text>
<text xml:space="preserve" x="494.329" y="129.143" fill="black" font-size="15.6322" font-family="Times">&#0177;</text>
<text xml:space="preserve" x="449.657" y="129.143" fill="black" font-size="15.6322" font-family="Helvetica"> 2.771 </text>
<path d="M57.1929,345.762h 453.543" fill="none" stroke="black"/>
<path d="M129.869,336.541v 9.22031" fill="none" stroke="black"/>
<path d="M144.98,341.152v 4.61016" fill="none" stroke="black"/>
<path d="M160.09,341.152v 4.61016" fill="none" stroke="black"/>
<path d="M175.201,341.152v 4.61016" fill="none" stroke="black"/>
<path d="M190.312,341.152v 4.61016" fill="none" stroke="black"/>
<path d="M205.423,336.541v 9.22031" fill="none" stroke="black"/>
<path d="M220.533,341.152v 4.61016" fill="none" stroke="black"/>
<path d="M235.644,341.152v 4.61016" fill="none" stroke="black"/>
<path d="M250.755,341.152v 4.61016" fill="none" stroke="black"/>
<path d="M265.866,341.152v 4.61016" fill="none" stroke="black"/>
<path d="M280.976,336.541v 9.22031" fill="none" stroke="black"/>
<path d="M296.087,341.152v 4.61016" fill="none" stroke="black"/>
<path d="M311.198,341.152v 4.61016" fill="none" stroke="black"/>
<path d="M326.309,341.152v 4.61016" fill="none" stroke="black"/>
<path d="M341.419,341.152v 4.61016" fill="none" stroke="black"/>
<path d="M356.53,336.541v 9.22031" fill="none" stroke="black"/>
<path d="M371.641,341.152v 4.61016" fill="none" stroke="black"/>
<path d="M386.751,341.152v 4.61016" fill="none" stroke="black"/>
<path d="M401.862,341.152v 4.61016" fill="none" stroke="black"/>
<path d="M416.973,341.152v 4.61016" fill="none" stroke="black"/>
<path d="M432.084,336.541v 9.22031" fill="none" stroke="black"/>
<path d="M447.194,341.152v 4.61016" fill="none" stroke="black"/>
<path d="M462.305,341.152v 4.61016" fill="none" stroke="black"/>
<path d="M477.416,341.152v 4.61016" fill="none" stroke="black"/>
<path d="M492.527,341.152v 4.61016" fill="none" stroke="black"/>
<path d="M507.637,336.541v 9.22031" fill="none" stroke="black"/>
<path d="M129.869,336.541v 9.22031" fill="none" stroke="black"/>
<path d="M114.758,341.152v 4.61016" fill="none" stroke="black"/>
<path d="M99.6476,341.152v 4.61016" fill="none" stroke="black"/>
<path d="M84.5368,341.152v 4.61016" fill="none" stroke="black"/>
<path d="M69.4261,341.152v 4.61016" fill="none" stroke="black"/>
<path d="M507.637,336.541v 9.22031" fill="none" stroke="black"/>
<text xml:space="preserve" x="119.084" y="358.189" fill="black" font-size="12.836" font-family="Helvetica">790</text>
<text xml:space="preserve" x="194.62" y="358.189" fill="black" font-size="12.836" font-family="Helvetica">800</text>
<text xml:space="preserve" x="270.157" y="358.189" fill="black" font-size="12.836" font-family="Helvetica">810</text>
<text xml:space="preserve" x="345.693" y="358.189" fill="black" font-size="12.836" font-family="Helvetica">820</text>
<text xml:space="preserve" x="421.23" y="358.189" fill="black" font-size="12.836" font-family="Helvetica">830</text>
<text xml:space="preserve" x="496.766" y="358.189" fill="black" font-size="12.836" font-family="Helvetica">840</text>
<text xml:space="preserve" x="461.028" y="370.372" fill="black" font-size="12.836" font-family="Helvetica">Time [ps]</text>
<path d="M57.1929,345.762v -307.344" fill="none" stroke="black"/>
<path d="M70.7992,345.762h -13.6063" fill="none" stroke="black"/>
<path d="M63.9961,339.507h -6.80315" fill="none" stroke="black"/>
<path d="M63.9961,333.253h -6.80315" fill="none" stroke="black"/>
<path d="M63.9961,326.998h -6.80315" fill="none" stroke="black"/>
<path d="M63.9961,320.744h -6.80315" fill="none" stroke="black"/>
<path d="M70.7992,314.49h -13.6063" fill="none" stroke="black"/>
<path d="M63.9961,308.235h -6.80315" fill="none" stroke="black"/>
<path d="M63.9961,301.981h -6.80315" fill="none" stroke="black"/>
<path d="M63.9961,295.726h -6.80315" fill="none" stroke="black"/>
<path d="M63.9961,289.472h -6.80315" fill="none" stroke="black"/>
<path d="M70.7992,283.217h -13.6063" fill="none" stroke="black"/>
<path d="M63.9961,276.963h -6.80315" fill="none" stroke="black"/>
<path d="M63.9961,270.708h -6.80315" fill="none" stroke="black"/>
<path d="M63.9961,264.454h -6.80315" fill="none" stroke="black"/>
<path d="M63.9961,258.199h -6.80315" fill="none" stroke="black"/>
<path d="M70.7992,251.945h -13.6063" fill="none" stroke="black"/>
<path d="M63.9961,245.691h -6.80315" fill="none" stroke="black"/>
<path d="M63.9961,239.436h -6.80315" fill="none" stroke="black"/>
<path d="M63.9961,233.182h -6.80315" fill="none" stroke="black"/>
<path d="M63.9961,226.927h -6.80315" fill="none" stroke="black"/>
<path d="M70.7992,220.673h -13.6063" fill="none" stroke="black"/>
<path d="M63.9961,214.418h -6.80315" fill="none" stroke="black"/>
<path d="M63.9961,208.164h -6.80315" fill="none" stroke="black"/>
<path d="M63.9961,201.909h -6.80315" fill="none" stroke="black"/>
<path d="M63.9961,195.655h -6.80315" fill="none" stroke="black"/>
<path d="M70.7992,189.4h -13.6063" fill="none" stroke="black"/>
<path d="M63.9961,183.146h -6.80315" fill="none" stroke="black"/>
<path d="M63.9961,176.892h -6.80315" fill="none" stroke="black"/>
<path d="M63.9961,170.637h -6.80315" fill="none" stroke="black"/>
<path d="M63.9961,164.383h -6.80315" fill="none" stroke="black"/>
<path d="M70.7992,158.128h -13.6063" fill="none" stroke="black"/>
<path d="M63.9961,151.874h -6.80315" fill="none" stroke="black"/>
<path d="M63.9961,145.619h -6.80315" fill="none" stroke="black"/>
<path d="M63.9961,139.365h -6.80315" fill="none" stroke="black"/>
<path d="M63.9961,133.11h -6.80315" fill="none" stroke="black"/>
<path d="M70.7992,126.856h -13.6063" fill="none" stroke="black"/>
<path d="M63.9961,120.601h -6.80315" fill="none" stroke="black"/>
<path d="M63.9961,114.347h -6.80315" fill="none" stroke="black"/>
<path d="M63.9961,108.093h -6.80315" fill="none" stroke="black"/>
<path d="M63.9961,101.838h -6.80315" fill="none" stroke="black"/>
<path d="M70.7992,95.5837h -13.6063" fill="none" stroke="black"/>
<path d="M63.9961,89.3292h -6.80315" fill="none" stroke="black"/>
<path d="M63.9961,83.0748h -6.80315" fill="none" stroke="black"/>
<path d="M63.9961,76.8203h -6.80315" fill="none" stroke="black"/>
<path d="M63.9961,70.5659h -6.80315" fill="none" stroke="black"/>
<path d="M70.7992,64.3114h -13.6063" fill="none" stroke="black"/>
<path d="M70.7992,64.3114h -13.6063" fill="none" stroke="black"/>
<path d="M63.9961,58.057h -6.80315" fill="none" stroke="black"/>
<path d="M63.9961,51.8025h -6.80315" fill="none" stroke="black"/>
<path d="M63.9961,45.5481h -6.80315" fill="none" stroke="black"/>
<path d="M63.9961,39.2936h -6.80315" fill="none" stroke="black"/>
<text xml:space="preserve" x="47.6087" y="350.067" fill="black" font-size="12.836" font-family="Helvetica">0</text>
<text xml:space="preserve" x="41.111" y="319.202" fill="black" font-size="12.836" font-family="Helvetica">50</text>
<text xml:space="preserve" x="33.801" y="287.526" fill="black" font-size="12.836" font-family="Helvetica">100</text>
<text xml:space="preserve" x="33.801" y="256.661" fill="black" font-size="12.836" font-family="Helvetica">150</text>
<text xml:space="preserve" x="33.801" y="224.985" fill="black" font-size="12.836" font-family="Helvetica">200</text>
<text xml:space="preserve" x="33.801" y="194.12" fill="black" font-size="12.836" font-family="Helvetica">250</text>
<text xml:space="preserve" x="33.801" y="162.444" fill="black" font-size="12.836" font-family="Helvetica">300</text>
<text xml:space="preserve" x="33.801" y="131.58" fill="black" font-size="12.836" font-family="Helvetica">350</text>
<text xml:space="preserve" x="33.801" y="99.903" fill="black" font-size="12.836" font-family="Helvetica">400</text>
<text xml:space="preserve" x="33.801" y="69.0387" fill="black" font-size="12.836" font-family="Helvetica">450</text>
<g transform="rotate(-90,20.8055,69.8509)">
<text xml:space="preserve" x="20.8055" y="69.8509" fill="black" font-size="12.836" font-family="Helvetica">Event</text>
</g>
<rect x="351.996" y="24.9717" width="204.094" height="107.57" fill="white"/>
<path d="M351.996,132.542h 204.094" fill="none" stroke="black"/>
<path d="M556.091,132.542v -107.57" fill="none" stroke="black"/>
<path d="M556.091,24.9717h -204.094" fill="none" stroke="black"/>
<path d="M351.996,24.9717v 107.57" fill="none" stroke="black"/>
<text xml:space="preserve" x="361.938" y="38.9865" fill="black" font-size="15.6322" font-family="Helvetica">Entries </text>
<text xml:space="preserve" x="515.447" y="38.9865" fill="black" font-size="15.6322" font-family="Helvetica"> 878</text>
<text xml:space="preserve" x="375.745" y="56.8554" fill="black" font-size="15.6322" font-family="Helvetica"> / ndf </text>
<text xml:space="preserve" x="370.06" y="51.982" fill="black" font-size="10.5881" font-family="Helvetica">2</text>
<text xml:space="preserve" x="361.938" y="56.8554" fill="black" font-size="15.6322" font-family="Times">&#0967;</text>
<text xml:space="preserve" x="481.334" y="56.8554" fill="black" font-size="15.6322" font-family="Helvetica"> 40.45 / 7</text>
<text xml:space="preserve" x="361.938" y="74.7242" fill="black" font-size="15.6322" font-family="Helvetica">Prob  </text>
<text xml:space="preserve" x="528.443" y="74.7242" fill="black" font-size="15.6322" font-family="Helvetica">06</text>
<text xml:space="preserve" x="519.508" y="74.7242" fill="black" font-size="15.6322" font-family="Times">&#8722;</text>
<text xml:space="preserve" x="468.338" y="74.7242" fill="black" font-size="15.6322" font-family="Helvetica"> 1.031e</text>
<text xml:space="preserve" x="361.938" y="94.2175" fill="black" font-size="15.6322" font-family="Helvetica">Const    </text>
<text xml:space="preserve" x="511.386" y="93.4052" fill="black" font-size="15.6322" font-family="Helvetica"> 20.4</text>
<text xml:space="preserve" x="502.452" y="93.4052" fill="black" font-size="15.6322" font-family="Times">&#0177;</text>
<text xml:space="preserve" x="455.343" y="93.4052" fill="black" font-size="15.6322" font-family="Helvetica"> 478.5 </text>
<text xml:space="preserve" x="361.938" y="111.274" fill="black" font-size="15.6322" font-family="Helvetica">Mean     </text>
<text xml:space="preserve" x="522.757" y="111.274" fill="black" font-size="15.6322" font-family="Helvetica"> 0.1</text>
<text xml:space="preserve" x="513.823" y="111.274" fill="black" font-size="15.6322" font-family="Times">&#0177;</text>
<text xml:space="preserve" x="465.902" y="111.274" fill="black" font-size="15.6322" font-family="Helvetica"> 809.7 </text>
<text xml:space="preserve" x="361.938" y="128.331" fill="black" font-size="15.6322" font-family="Helvetica">Sigma    </text>
<text xml:space="preserve" x="503.264" y="129.143" fill="black" font-size="15.6322" font-family="Helvetica"> 0.069</text>
<text xml:space="preserve" x="494.329" y="129.143" fill="black" font-size="15.6322" font-family="Times">&#0177;</text>
<text xml:space="preserve" x="449.657" y="129.143" fill="black" font-size="15.6322" font-family="Helvetica"> 2.771 </text>
<text xml:space="preserve" x="209.24" y="18.681" fill="black" font-size="16.9774" font-family="Helvetica">420mm 28 29 30 31</text></svg>
