<?xml version="1.0" standalone="no"?>
<svg width="567.429" height="384.68" viewBox="0 0 567.429 384.68" xmlns="http://www.w3.org/2000/svg" shape-rendering="crispEdges">
<title>
img/week2/Combined420mm_ch_4_5_6_7.svg
</title>
<desc>
Creator: ROOT Version 6.22/09
CreationDate: Tue Jun 22 18:02:30 2021</desc>
<defs>
</defs>
<rect x="0.5" y="0" width="566.929" height="384.18" fill="white"/>
<rect x="57.1929" y="38.418" width="453.543" height="307.344" fill="white"/>
<rect x="57.1929" y="38.418" width="453.543" height="307.344" fill="none" stroke="black"/>
<rect x="57.1929" y="38.418" width="453.543" height="307.344" fill="white"/>
<rect x="57.1929" y="38.418" width="453.543" height="307.344" fill="none" stroke="black"/>
<path d="M57.1929,345.762h 28.3465v -1.2782h 28.3465v 1.2782h 28.3465v -1.2782h 28.3465v -2.55641h 28.3465v 1.2782h 28.3465v -16.6166h 28.3465v -120.151h 28.3465v -153.384h 28.3465v 195.565h 28.3465v 94.587h 28.3465v 2.55641h 141.732" fill="none"
 stroke="#000099"/>
<g fill="#ff0000">
<polygon points=" 293.914, 48.8299 302.361, 48.8299 298.138, 57.2769"/>
</g>
<path d="M59.4606,345.762h 140.598l 4.53543, -0.0321075l 4.53543, -0.0468223l 4.53543, -0.106255l 4.53543, -0.229484l 4.53543, -0.471521l 4.53543, -0.921329l 4.53543, -1.71107l 4.53543, -3.01851l 4.53543, -5.0542l 4.53543, -8.02466l 4.53543,
 -12.0664l 4.53543, -17.1554l 4.53543, -23.0118l 4.53543, -29.0345l 4.53543, -34.308l 4.53543, -37.7141l 4.53543, -38.151l 4.53543, -34.821" fill="none" stroke="#ff0000" stroke-width="2"/>
<path d="M281.697,99.8838l 4.53543, -27.504l 4.53543, -16.7198l 4.53543, -3.70464l 4.53543, 9.81678l 4.53543, 22.0061l 4.53543, 31.3216l 4.53543, 36.8377l 4.53543, 38.3814l 4.53543, 36.4657l 4.53543, 32.0638l 4.53543, 26.3179l 4.53543, 20.2752l
 4.53543, 14.7145l 4.53543, 10.0861l 4.53543, 6.54214l 4.53543, 4.02119l 4.53543, 2.34481l 4.53543, 1.29825l 4.53543, 0.682982l 4.53543, 0.341593l 4.53543, 0.162502l 4.53543, 0.0735585l 4.53543, 0.0526661h 117.921" fill="none" stroke="#ff0000"
 stroke-width="2"/>
<path d="M503.933,345.762h 4.53543" fill="none" stroke="#ff0000" stroke-width="2"/>
<rect x="351.996" y="24.9717" width="204.094" height="107.57" fill="white"/>
<path d="M351.996,132.542h 204.094" fill="none" stroke="black"/>
<path d="M556.091,132.542v -107.57" fill="none" stroke="black"/>
<path d="M556.091,24.9717h -204.094" fill="none" stroke="black"/>
<path d="M351.996,24.9717v 107.57" fill="none" stroke="black"/>
<text xml:space="preserve" x="361.938" y="38.9865" fill="black" font-size="15.6322" font-family="Helvetica">Entries </text>
<text xml:space="preserve" x="515.447" y="38.9865" fill="black" font-size="15.6322" font-family="Helvetica"> 439</text>
<text xml:space="preserve" x="375.745" y="56.8554" fill="black" font-size="15.6322" font-family="Helvetica"> / ndf </text>
<text xml:space="preserve" x="370.06" y="51.982" fill="black" font-size="10.5881" font-family="Helvetica">2</text>
<text xml:space="preserve" x="361.938" y="56.8554" fill="black" font-size="15.6322" font-family="Times">&#0967;</text>
<text xml:space="preserve" x="481.334" y="56.8554" fill="black" font-size="15.6322" font-family="Helvetica"> 10.78 / 6</text>
<text xml:space="preserve" x="361.938" y="74.7242" fill="black" font-size="15.6322" font-family="Helvetica">Prob  </text>
<text xml:space="preserve" x="486.207" y="74.7242" fill="black" font-size="15.6322" font-family="Helvetica"> 0.09533</text>
<text xml:space="preserve" x="361.938" y="94.2175" fill="black" font-size="15.6322" font-family="Helvetica">Const    </text>
<text xml:space="preserve" x="511.386" y="93.4052" fill="black" font-size="15.6322" font-family="Helvetica"> 13.8</text>
<text xml:space="preserve" x="502.452" y="93.4052" fill="black" font-size="15.6322" font-family="Times">&#0177;</text>
<text xml:space="preserve" x="457.78" y="93.4052" fill="black" font-size="15.6322" font-family="Helvetica"> 230.1 </text>
<text xml:space="preserve" x="361.938" y="111.274" fill="black" font-size="15.6322" font-family="Helvetica">Mean     </text>
<text xml:space="preserve" x="520.32" y="111.274" fill="black" font-size="15.6322" font-family="Helvetica"> 0.2</text>
<text xml:space="preserve" x="511.386" y="111.274" fill="black" font-size="15.6322" font-family="Times">&#0177;</text>
<text xml:space="preserve" x="464.277" y="111.274" fill="black" font-size="15.6322" font-family="Helvetica"> 809.8 </text>
<text xml:space="preserve" x="361.938" y="128.331" fill="black" font-size="15.6322" font-family="Helvetica">Sigma    </text>
<text xml:space="preserve" x="503.264" y="129.143" fill="black" font-size="15.6322" font-family="Helvetica"> 0.105</text>
<text xml:space="preserve" x="494.329" y="129.143" fill="black" font-size="15.6322" font-family="Times">&#0177;</text>
<text xml:space="preserve" x="446.408" y="129.143" fill="black" font-size="15.6322" font-family="Helvetica"> 2.964 </text>
<path d="M57.1929,345.762h 453.543" fill="none" stroke="black"/>
<path d="M82.8417,336.541v 9.22031" fill="none" stroke="black"/>
<path d="M97.008,341.152v 4.61016" fill="none" stroke="black"/>
<path d="M111.174,341.152v 4.61016" fill="none" stroke="black"/>
<path d="M125.341,341.152v 4.61016" fill="none" stroke="black"/>
<path d="M139.507,341.152v 4.61016" fill="none" stroke="black"/>
<path d="M153.673,336.541v 9.22031" fill="none" stroke="black"/>
<path d="M167.84,341.152v 4.61016" fill="none" stroke="black"/>
<path d="M182.006,341.152v 4.61016" fill="none" stroke="black"/>
<path d="M196.172,341.152v 4.61016" fill="none" stroke="black"/>
<path d="M210.338,341.152v 4.61016" fill="none" stroke="black"/>
<path d="M224.505,336.541v 9.22031" fill="none" stroke="black"/>
<path d="M238.671,341.152v 4.61016" fill="none" stroke="black"/>
<path d="M252.837,341.152v 4.61016" fill="none" stroke="black"/>
<path d="M267.004,341.152v 4.61016" fill="none" stroke="black"/>
<path d="M281.17,341.152v 4.61016" fill="none" stroke="black"/>
<path d="M295.336,336.541v 9.22031" fill="none" stroke="black"/>
<path d="M309.503,341.152v 4.61016" fill="none" stroke="black"/>
<path d="M323.669,341.152v 4.61016" fill="none" stroke="black"/>
<path d="M337.835,341.152v 4.61016" fill="none" stroke="black"/>
<path d="M352.002,341.152v 4.61016" fill="none" stroke="black"/>
<path d="M366.168,336.541v 9.22031" fill="none" stroke="black"/>
<path d="M380.334,341.152v 4.61016" fill="none" stroke="black"/>
<path d="M394.501,341.152v 4.61016" fill="none" stroke="black"/>
<path d="M408.667,341.152v 4.61016" fill="none" stroke="black"/>
<path d="M422.833,341.152v 4.61016" fill="none" stroke="black"/>
<path d="M436.999,336.541v 9.22031" fill="none" stroke="black"/>
<path d="M451.166,341.152v 4.61016" fill="none" stroke="black"/>
<path d="M465.332,341.152v 4.61016" fill="none" stroke="black"/>
<path d="M479.498,341.152v 4.61016" fill="none" stroke="black"/>
<path d="M493.665,341.152v 4.61016" fill="none" stroke="black"/>
<path d="M507.831,336.541v 9.22031" fill="none" stroke="black"/>
<path d="M82.8417,336.541v 9.22031" fill="none" stroke="black"/>
<path d="M68.6754,341.152v 4.61016" fill="none" stroke="black"/>
<path d="M507.831,336.541v 9.22031" fill="none" stroke="black"/>
<text xml:space="preserve" x="71.9753" y="358.189" fill="black" font-size="12.836" font-family="Helvetica">780</text>
<text xml:space="preserve" x="142.638" y="358.189" fill="black" font-size="12.836" font-family="Helvetica">790</text>
<text xml:space="preserve" x="213.301" y="358.189" fill="black" font-size="12.836" font-family="Helvetica">800</text>
<text xml:space="preserve" x="284.777" y="358.189" fill="black" font-size="12.836" font-family="Helvetica">810</text>
<text xml:space="preserve" x="355.44" y="358.189" fill="black" font-size="12.836" font-family="Helvetica">820</text>
<text xml:space="preserve" x="426.103" y="358.189" fill="black" font-size="12.836" font-family="Helvetica">830</text>
<text xml:space="preserve" x="496.766" y="358.189" fill="black" font-size="12.836" font-family="Helvetica">840</text>
<text xml:space="preserve" x="461.028" y="370.372" fill="black" font-size="12.836" font-family="Helvetica">Time [ps]</text>
<path d="M57.1929,345.762v -307.344" fill="none" stroke="black"/>
<path d="M70.7992,345.762h -13.6063" fill="none" stroke="black"/>
<path d="M63.9961,339.371h -6.80315" fill="none" stroke="black"/>
<path d="M63.9961,332.98h -6.80315" fill="none" stroke="black"/>
<path d="M63.9961,326.589h -6.80315" fill="none" stroke="black"/>
<path d="M70.7992,320.198h -13.6063" fill="none" stroke="black"/>
<path d="M63.9961,313.807h -6.80315" fill="none" stroke="black"/>
<path d="M63.9961,307.416h -6.80315" fill="none" stroke="black"/>
<path d="M63.9961,301.025h -6.80315" fill="none" stroke="black"/>
<path d="M70.7992,294.634h -13.6063" fill="none" stroke="black"/>
<path d="M63.9961,288.243h -6.80315" fill="none" stroke="black"/>
<path d="M63.9961,281.852h -6.80315" fill="none" stroke="black"/>
<path d="M63.9961,275.461h -6.80315" fill="none" stroke="black"/>
<path d="M70.7992,269.07h -13.6063" fill="none" stroke="black"/>
<path d="M63.9961,262.679h -6.80315" fill="none" stroke="black"/>
<path d="M63.9961,256.288h -6.80315" fill="none" stroke="black"/>
<path d="M63.9961,249.897h -6.80315" fill="none" stroke="black"/>
<path d="M70.7992,243.506h -13.6063" fill="none" stroke="black"/>
<path d="M63.9961,237.115h -6.80315" fill="none" stroke="black"/>
<path d="M63.9961,230.724h -6.80315" fill="none" stroke="black"/>
<path d="M63.9961,224.333h -6.80315" fill="none" stroke="black"/>
<path d="M70.7992,217.942h -13.6063" fill="none" stroke="black"/>
<path d="M63.9961,211.551h -6.80315" fill="none" stroke="black"/>
<path d="M63.9961,205.16h -6.80315" fill="none" stroke="black"/>
<path d="M63.9961,198.768h -6.80315" fill="none" stroke="black"/>
<path d="M70.7992,192.377h -13.6063" fill="none" stroke="black"/>
<path d="M63.9961,185.986h -6.80315" fill="none" stroke="black"/>
<path d="M63.9961,179.595h -6.80315" fill="none" stroke="black"/>
<path d="M63.9961,173.204h -6.80315" fill="none" stroke="black"/>
<path d="M70.7992,166.813h -13.6063" fill="none" stroke="black"/>
<path d="M63.9961,160.422h -6.80315" fill="none" stroke="black"/>
<path d="M63.9961,154.031h -6.80315" fill="none" stroke="black"/>
<path d="M63.9961,147.64h -6.80315" fill="none" stroke="black"/>
<path d="M70.7992,141.249h -13.6063" fill="none" stroke="black"/>
<path d="M63.9961,134.858h -6.80315" fill="none" stroke="black"/>
<path d="M63.9961,128.467h -6.80315" fill="none" stroke="black"/>
<path d="M63.9961,122.076h -6.80315" fill="none" stroke="black"/>
<path d="M70.7992,115.685h -13.6063" fill="none" stroke="black"/>
<path d="M63.9961,109.294h -6.80315" fill="none" stroke="black"/>
<path d="M63.9961,102.903h -6.80315" fill="none" stroke="black"/>
<path d="M63.9961,96.5123h -6.80315" fill="none" stroke="black"/>
<path d="M70.7992,90.1213h -13.6063" fill="none" stroke="black"/>
<path d="M63.9961,83.7303h -6.80315" fill="none" stroke="black"/>
<path d="M63.9961,77.3392h -6.80315" fill="none" stroke="black"/>
<path d="M63.9961,70.9482h -6.80315" fill="none" stroke="black"/>
<path d="M70.7992,64.5572h -13.6063" fill="none" stroke="black"/>
<path d="M63.9961,58.1662h -6.80315" fill="none" stroke="black"/>
<path d="M63.9961,51.7752h -6.80315" fill="none" stroke="black"/>
<path d="M63.9961,45.3842h -6.80315" fill="none" stroke="black"/>
<path d="M70.7992,38.9932h -13.6063" fill="none" stroke="black"/>
<path d="M70.7992,38.9932h -13.6063" fill="none" stroke="black"/>
<text xml:space="preserve" x="47.6087" y="350.067" fill="black" font-size="12.836" font-family="Helvetica">0</text>
<text xml:space="preserve" x="41.111" y="324.888" fill="black" font-size="12.836" font-family="Helvetica">20</text>
<text xml:space="preserve" x="41.111" y="298.897" fill="black" font-size="12.836" font-family="Helvetica">40</text>
<text xml:space="preserve" x="41.111" y="273.718" fill="black" font-size="12.836" font-family="Helvetica">60</text>
<text xml:space="preserve" x="41.111" y="247.727" fill="black" font-size="12.836" font-family="Helvetica">80</text>
<text xml:space="preserve" x="33.801" y="222.548" fill="black" font-size="12.836" font-family="Helvetica">100</text>
<text xml:space="preserve" x="33.801" y="196.557" fill="black" font-size="12.836" font-family="Helvetica">120</text>
<text xml:space="preserve" x="33.801" y="171.378" fill="black" font-size="12.836" font-family="Helvetica">140</text>
<text xml:space="preserve" x="33.801" y="145.387" fill="black" font-size="12.836" font-family="Helvetica">160</text>
<text xml:space="preserve" x="33.801" y="120.208" fill="black" font-size="12.836" font-family="Helvetica">180</text>
<text xml:space="preserve" x="33.801" y="94.2175" fill="black" font-size="12.836" font-family="Helvetica">200</text>
<text xml:space="preserve" x="33.801" y="69.0387" fill="black" font-size="12.836" font-family="Helvetica">220</text>
<text xml:space="preserve" x="33.801" y="43.8598" fill="black" font-size="12.836" font-family="Helvetica">240</text>
<g transform="rotate(-90,20.8055,69.8509)">
<text xml:space="preserve" x="20.8055" y="69.8509" fill="black" font-size="12.836" font-family="Helvetica">Event</text>
</g>
<rect x="351.996" y="24.9717" width="204.094" height="107.57" fill="white"/>
<path d="M351.996,132.542h 204.094" fill="none" stroke="black"/>
<path d="M556.091,132.542v -107.57" fill="none" stroke="black"/>
<path d="M556.091,24.9717h -204.094" fill="none" stroke="black"/>
<path d="M351.996,24.9717v 107.57" fill="none" stroke="black"/>
<text xml:space="preserve" x="361.938" y="38.9865" fill="black" font-size="15.6322" font-family="Helvetica">Entries </text>
<text xml:space="preserve" x="515.447" y="38.9865" fill="black" font-size="15.6322" font-family="Helvetica"> 439</text>
<text xml:space="preserve" x="375.745" y="56.8554" fill="black" font-size="15.6322" font-family="Helvetica"> / ndf </text>
<text xml:space="preserve" x="370.06" y="51.982" fill="black" font-size="10.5881" font-family="Helvetica">2</text>
<text xml:space="preserve" x="361.938" y="56.8554" fill="black" font-size="15.6322" font-family="Times">&#0967;</text>
<text xml:space="preserve" x="481.334" y="56.8554" fill="black" font-size="15.6322" font-family="Helvetica"> 10.78 / 6</text>
<text xml:space="preserve" x="361.938" y="74.7242" fill="black" font-size="15.6322" font-family="Helvetica">Prob  </text>
<text xml:space="preserve" x="486.207" y="74.7242" fill="black" font-size="15.6322" font-family="Helvetica"> 0.09533</text>
<text xml:space="preserve" x="361.938" y="94.2175" fill="black" font-size="15.6322" font-family="Helvetica">Const    </text>
<text xml:space="preserve" x="511.386" y="93.4052" fill="black" font-size="15.6322" font-family="Helvetica"> 13.8</text>
<text xml:space="preserve" x="502.452" y="93.4052" fill="black" font-size="15.6322" font-family="Times">&#0177;</text>
<text xml:space="preserve" x="457.78" y="93.4052" fill="black" font-size="15.6322" font-family="Helvetica"> 230.1 </text>
<text xml:space="preserve" x="361.938" y="111.274" fill="black" font-size="15.6322" font-family="Helvetica">Mean     </text>
<text xml:space="preserve" x="520.32" y="111.274" fill="black" font-size="15.6322" font-family="Helvetica"> 0.2</text>
<text xml:space="preserve" x="511.386" y="111.274" fill="black" font-size="15.6322" font-family="Times">&#0177;</text>
<text xml:space="preserve" x="464.277" y="111.274" fill="black" font-size="15.6322" font-family="Helvetica"> 809.8 </text>
<text xml:space="preserve" x="361.938" y="128.331" fill="black" font-size="15.6322" font-family="Helvetica">Sigma    </text>
<text xml:space="preserve" x="503.264" y="129.143" fill="black" font-size="15.6322" font-family="Helvetica"> 0.105</text>
<text xml:space="preserve" x="494.329" y="129.143" fill="black" font-size="15.6322" font-family="Times">&#0177;</text>
<text xml:space="preserve" x="446.408" y="129.143" fill="black" font-size="15.6322" font-family="Helvetica"> 2.964 </text>
<text xml:space="preserve" x="227.109" y="18.681" fill="black" font-size="16.9774" font-family="Helvetica">420mm 4 5 6 7</text></svg>
