<?xml version="1.0" standalone="no"?>
<svg width="567.429" height="386.304" viewBox="0 0 567.429 386.304" xmlns="http://www.w3.org/2000/svg" shape-rendering="crispEdges">
<title>
img/week2/Combined280mm_ch_40_41_42_43.svg
</title>
<desc>
Creator: ROOT Version 6.22/08
CreationDate: Mon Jun 21 21:40:05 2021</desc>
<defs>
</defs>
<rect x="0.5" y="0" width="566.929" height="385.804" fill="white"/>
<rect x="57.1929" y="38.5804" width="453.543" height="308.643" fill="white"/>
<rect x="57.1929" y="38.5804" width="453.543" height="308.643" fill="none" stroke="black"/>
<rect x="57.1929" y="38.5804" width="453.543" height="308.643" fill="white"/>
<rect x="57.1929" y="38.5804" width="453.543" height="308.643" fill="none" stroke="black"/>
<path d="M57.1929,347.224h 64.7919v -1.38699h 32.396v 1.38699h 32.396v -6.93496h 32.396v -45.0772h 32.396v -223.999h 32.396v 83.913h 32.396v 187.244h 32.396v 3.46748h 32.396v 1.38699h 129.584" fill="none" stroke="#000099"/>
<g fill="#ff0000">
<polygon points=" 263.543, 66.9889 271.99, 66.9889 267.767, 75.436"/>
</g>
<path d="M59.4606,347.224h 126.992l 4.53543, -0.073825l 4.53543, -0.101512l 4.53543, -0.221924l 4.53543, -0.461379l 4.53543, -0.91179l 4.53543, -1.71197l 4.53543, -3.0521l 4.53543, -5.1626l 4.53543, -8.27743l 4.53543, -12.5647l 4.53543, -18.0282l
 4.53543, -24.3991l 4.53543, -31.0556l 4.53543, -37.0181l 4.53543, -41.0592l 4.53543, -41.9375l 4.53543, -38.7149l 4.53543, -31.0706l 2.98184, -12.8209" fill="none" stroke="#ff0000" stroke-width="2"/>
<path d="M282.163,38.5804l 4.06882, 20.8198" fill="none" stroke="#ff0000" stroke-width="2"/>
<path d="M286.232,59.4002l 4.53543, 33.737l 4.53543, 40.1083l 4.53543, 42.0726l 4.53543, 40.1579l 4.53543, 35.425l 4.53543, 29.1417l 4.53543, 22.4821l 4.53543, 16.3276l 4.53543, 11.1925l 4.53543, 7.25595l 4.53543, 4.45511l 4.53543, 2.59364l 4.53543,
 1.43296l 4.53543, 0.751867l 4.53543, 0.374869l 4.53543, 0.177689l 4.53543, 0.0801036l 4.53543, 0.0568994h 136.063" fill="none" stroke="#ff0000" stroke-width="2"/>
<path d="M503.933,347.224h 4.53543" fill="none" stroke="#ff0000" stroke-width="2"/>
<path d="M57.1929,347.224h 453.543" fill="none" stroke="black"/>
<path d="M135.06,337.964v 9.2593" fill="none" stroke="black"/>
<path d="M151.25,342.594v 4.62965" fill="none" stroke="black"/>
<path d="M167.44,342.594v 4.62965" fill="none" stroke="black"/>
<path d="M183.63,342.594v 4.62965" fill="none" stroke="black"/>
<path d="M199.82,342.594v 4.62965" fill="none" stroke="black"/>
<path d="M216.011,337.964v 9.2593" fill="none" stroke="black"/>
<path d="M232.201,342.594v 4.62965" fill="none" stroke="black"/>
<path d="M248.391,342.594v 4.62965" fill="none" stroke="black"/>
<path d="M264.581,342.594v 4.62965" fill="none" stroke="black"/>
<path d="M280.771,342.594v 4.62965" fill="none" stroke="black"/>
<path d="M296.961,337.964v 9.2593" fill="none" stroke="black"/>
<path d="M313.151,342.594v 4.62965" fill="none" stroke="black"/>
<path d="M329.341,342.594v 4.62965" fill="none" stroke="black"/>
<path d="M345.531,342.594v 4.62965" fill="none" stroke="black"/>
<path d="M361.721,342.594v 4.62965" fill="none" stroke="black"/>
<path d="M377.911,337.964v 9.2593" fill="none" stroke="black"/>
<path d="M394.101,342.594v 4.62965" fill="none" stroke="black"/>
<path d="M410.291,342.594v 4.62965" fill="none" stroke="black"/>
<path d="M426.481,342.594v 4.62965" fill="none" stroke="black"/>
<path d="M442.672,342.594v 4.62965" fill="none" stroke="black"/>
<path d="M458.862,337.964v 9.2593" fill="none" stroke="black"/>
<path d="M135.06,337.964v 9.2593" fill="none" stroke="black"/>
<path d="M118.87,342.594v 4.62965" fill="none" stroke="black"/>
<path d="M102.68,342.594v 4.62965" fill="none" stroke="black"/>
<path d="M86.49,342.594v 4.62965" fill="none" stroke="black"/>
<path d="M70.2999,342.594v 4.62965" fill="none" stroke="black"/>
<path d="M458.862,337.964v 9.2593" fill="none" stroke="black"/>
<path d="M475.052,342.594v 4.62965" fill="none" stroke="black"/>
<path d="M491.242,342.594v 4.62965" fill="none" stroke="black"/>
<path d="M507.432,342.594v 4.62965" fill="none" stroke="black"/>
<text xml:space="preserve" x="123.145" y="359.813" fill="black" font-size="12.8882" font-family="Helvetica">790</text>
<text xml:space="preserve" x="204.367" y="359.813" fill="black" font-size="12.8882" font-family="Helvetica">800</text>
<text xml:space="preserve" x="285.589" y="359.813" fill="black" font-size="12.8882" font-family="Helvetica">810</text>
<text xml:space="preserve" x="365.999" y="359.813" fill="black" font-size="12.8882" font-family="Helvetica">820</text>
<text xml:space="preserve" x="447.221" y="359.813" fill="black" font-size="12.8882" font-family="Helvetica">830</text>
<text xml:space="preserve" x="481.334" y="373.621" fill="black" font-size="12.8882" font-family="Helvetica">Time</text>
<path d="M57.1929,347.224v -308.643" fill="none" stroke="black"/>
<path d="M70.7992,347.224h -13.6063" fill="none" stroke="black"/>
<path d="M63.9961,340.289h -6.80315" fill="none" stroke="black"/>
<path d="M63.9961,333.354h -6.80315" fill="none" stroke="black"/>
<path d="M63.9961,326.419h -6.80315" fill="none" stroke="black"/>
<path d="M63.9961,319.484h -6.80315" fill="none" stroke="black"/>
<path d="M70.7992,312.549h -13.6063" fill="none" stroke="black"/>
<path d="M63.9961,305.614h -6.80315" fill="none" stroke="black"/>
<path d="M63.9961,298.679h -6.80315" fill="none" stroke="black"/>
<path d="M63.9961,291.744h -6.80315" fill="none" stroke="black"/>
<path d="M63.9961,284.809h -6.80315" fill="none" stroke="black"/>
<path d="M70.7992,277.874h -13.6063" fill="none" stroke="black"/>
<path d="M63.9961,270.939h -6.80315" fill="none" stroke="black"/>
<path d="M63.9961,264.004h -6.80315" fill="none" stroke="black"/>
<path d="M63.9961,257.069h -6.80315" fill="none" stroke="black"/>
<path d="M63.9961,250.134h -6.80315" fill="none" stroke="black"/>
<path d="M70.7992,243.199h -13.6063" fill="none" stroke="black"/>
<path d="M63.9961,236.264h -6.80315" fill="none" stroke="black"/>
<path d="M63.9961,229.33h -6.80315" fill="none" stroke="black"/>
<path d="M63.9961,222.395h -6.80315" fill="none" stroke="black"/>
<path d="M63.9961,215.46h -6.80315" fill="none" stroke="black"/>
<path d="M70.7992,208.525h -13.6063" fill="none" stroke="black"/>
<path d="M63.9961,201.59h -6.80315" fill="none" stroke="black"/>
<path d="M63.9961,194.655h -6.80315" fill="none" stroke="black"/>
<path d="M63.9961,187.72h -6.80315" fill="none" stroke="black"/>
<path d="M63.9961,180.785h -6.80315" fill="none" stroke="black"/>
<path d="M70.7992,173.85h -13.6063" fill="none" stroke="black"/>
<path d="M63.9961,166.915h -6.80315" fill="none" stroke="black"/>
<path d="M63.9961,159.98h -6.80315" fill="none" stroke="black"/>
<path d="M63.9961,153.045h -6.80315" fill="none" stroke="black"/>
<path d="M63.9961,146.11h -6.80315" fill="none" stroke="black"/>
<path d="M70.7992,139.175h -13.6063" fill="none" stroke="black"/>
<path d="M63.9961,132.24h -6.80315" fill="none" stroke="black"/>
<path d="M63.9961,125.305h -6.80315" fill="none" stroke="black"/>
<path d="M63.9961,118.37h -6.80315" fill="none" stroke="black"/>
<path d="M63.9961,111.435h -6.80315" fill="none" stroke="black"/>
<path d="M70.7992,104.5h -13.6063" fill="none" stroke="black"/>
<path d="M63.9961,97.5653h -6.80315" fill="none" stroke="black"/>
<path d="M63.9961,90.6303h -6.80315" fill="none" stroke="black"/>
<path d="M63.9961,83.6954h -6.80315" fill="none" stroke="black"/>
<path d="M63.9961,76.7604h -6.80315" fill="none" stroke="black"/>
<path d="M70.7992,69.8255h -13.6063" fill="none" stroke="black"/>
<path d="M70.7992,69.8255h -13.6063" fill="none" stroke="black"/>
<path d="M63.9961,62.8905h -6.80315" fill="none" stroke="black"/>
<path d="M63.9961,55.9556h -6.80315" fill="none" stroke="black"/>
<path d="M63.9961,49.0206h -6.80315" fill="none" stroke="black"/>
<path d="M63.9961,42.0856h -6.80315" fill="none" stroke="black"/>
<text xml:space="preserve" x="46.7965" y="351.691" fill="black" font-size="12.8882" font-family="Helvetica">0</text>
<text xml:space="preserve" x="39.4865" y="316.766" fill="black" font-size="12.8882" font-family="Helvetica">50</text>
<text xml:space="preserve" x="32.1766" y="282.652" fill="black" font-size="12.8882" font-family="Helvetica">100</text>
<text xml:space="preserve" x="32.1766" y="247.727" fill="black" font-size="12.8882" font-family="Helvetica">150</text>
<text xml:space="preserve" x="32.1766" y="212.801" fill="black" font-size="12.8882" font-family="Helvetica">200</text>
<text xml:space="preserve" x="32.1766" y="178.688" fill="black" font-size="12.8882" font-family="Helvetica">250</text>
<text xml:space="preserve" x="32.1766" y="143.763" fill="black" font-size="12.8882" font-family="Helvetica">300</text>
<text xml:space="preserve" x="32.1766" y="108.837" fill="black" font-size="12.8882" font-family="Helvetica">350</text>
<text xml:space="preserve" x="32.1766" y="73.912" fill="black" font-size="12.8882" font-family="Helvetica">400</text>
<g transform="rotate(-90,21.6177,71.4753)">
<text xml:space="preserve" x="21.6177" y="71.4753" fill="black" font-size="12.8882" font-family="Helvetica">Event</text>
</g>
<text xml:space="preserve" x="208.428" y="18.681" fill="black" font-size="17.0471" font-family="Helvetica">280mm 40 41 42 43</text></svg>
