<?xml version="1.0" standalone="no"?>
<svg width="567.429" height="386.304" viewBox="0 0 567.429 386.304" xmlns="http://www.w3.org/2000/svg" shape-rendering="crispEdges">
<title>
img/week2/Combined140mm_ch_57.svg
</title>
<desc>
Creator: ROOT Version 6.22/08
CreationDate: Tue Jun 22 00:47:30 2021</desc>
<defs>
</defs>
<rect x="0.5" y="0" width="566.929" height="385.804" fill="white"/>
<rect x="57.1929" y="38.5804" width="453.543" height="308.643" fill="white"/>
<rect x="57.1929" y="38.5804" width="453.543" height="308.643" fill="none" stroke="black"/>
<rect x="57.1929" y="38.5804" width="453.543" height="308.643" fill="white"/>
<rect x="57.1929" y="38.5804" width="453.543" height="308.643" fill="none" stroke="black"/>
<path d="M57.1929,347.224h 141.732v -5.06804h 28.3465v -10.1361h 28.3465v -136.837h 28.3465v -141.905h 28.3465v 197.653h 28.3465v 96.2927h 170.079" fill="none" stroke="#000099"/>
<g fill="#ff0000">
<polygon points=" 293.914, 49.0542 302.361, 49.0542 298.138, 57.5013"/>
</g>
<path d="M59.4606,347.224h 140.598l 4.53543, -0.0526851l 4.53543, -0.0706299l 4.53543, -0.152866l 4.53543, -0.315681l 4.53543, -0.621798l 4.53543, -1.16769l 4.53543, -2.08959l 4.53543, -3.56106l 4.53543, -5.77495l 4.53543, -8.90326l 4.53543, -13.033l
 4.53543, -18.0858l 4.53543, -23.74l 4.53543, -29.388l 4.53543, -34.1602l 4.53543, -37.0386l 4.53543, -37.0576l 4.53543, -33.5509" fill="none" stroke="#ff0000" stroke-width="2"/>
<path d="M281.697,98.4594l 4.53543, -26.3773l 4.53543, -16.0467l 4.53543, -3.68874l 4.53543, 9.14602l 4.53543, 20.8058l 4.53543, 29.887l 4.53543, 35.5106l 4.53543, 37.4522l 4.53543, 36.1015l 4.53543, 32.2839l 4.53543, 27.0162l 4.53543, 21.2727l
 4.53543, 15.8191l 4.53543, 11.1388l 4.53543, 7.44063l 4.53543, 4.72199l 4.53543, 2.85013l 4.53543, 1.6376l 4.53543, 0.896309l 4.53543, 0.467589l 4.53543, 0.232612l 4.53543, 0.11039l 4.53543, 0.0499924l 4.53543, 0.0360875h 113.386" fill="none"
 stroke="#ff0000" stroke-width="2"/>
<path d="M503.933,347.224h 4.53543" fill="none" stroke="#ff0000" stroke-width="2"/>
<path d="M57.1929,347.224h 453.543" fill="none" stroke="black"/>
<path d="M82.8417,337.964v 9.2593" fill="none" stroke="black"/>
<path d="M97.008,342.594v 4.62965" fill="none" stroke="black"/>
<path d="M111.174,342.594v 4.62965" fill="none" stroke="black"/>
<path d="M125.341,342.594v 4.62965" fill="none" stroke="black"/>
<path d="M139.507,342.594v 4.62965" fill="none" stroke="black"/>
<path d="M153.673,337.964v 9.2593" fill="none" stroke="black"/>
<path d="M167.84,342.594v 4.62965" fill="none" stroke="black"/>
<path d="M182.006,342.594v 4.62965" fill="none" stroke="black"/>
<path d="M196.172,342.594v 4.62965" fill="none" stroke="black"/>
<path d="M210.338,342.594v 4.62965" fill="none" stroke="black"/>
<path d="M224.505,337.964v 9.2593" fill="none" stroke="black"/>
<path d="M238.671,342.594v 4.62965" fill="none" stroke="black"/>
<path d="M252.837,342.594v 4.62965" fill="none" stroke="black"/>
<path d="M267.004,342.594v 4.62965" fill="none" stroke="black"/>
<path d="M281.17,342.594v 4.62965" fill="none" stroke="black"/>
<path d="M295.336,337.964v 9.2593" fill="none" stroke="black"/>
<path d="M309.503,342.594v 4.62965" fill="none" stroke="black"/>
<path d="M323.669,342.594v 4.62965" fill="none" stroke="black"/>
<path d="M337.835,342.594v 4.62965" fill="none" stroke="black"/>
<path d="M352.002,342.594v 4.62965" fill="none" stroke="black"/>
<path d="M366.168,337.964v 9.2593" fill="none" stroke="black"/>
<path d="M380.334,342.594v 4.62965" fill="none" stroke="black"/>
<path d="M394.501,342.594v 4.62965" fill="none" stroke="black"/>
<path d="M408.667,342.594v 4.62965" fill="none" stroke="black"/>
<path d="M422.833,342.594v 4.62965" fill="none" stroke="black"/>
<path d="M436.999,337.964v 9.2593" fill="none" stroke="black"/>
<path d="M451.166,342.594v 4.62965" fill="none" stroke="black"/>
<path d="M465.332,342.594v 4.62965" fill="none" stroke="black"/>
<path d="M479.498,342.594v 4.62965" fill="none" stroke="black"/>
<path d="M493.665,342.594v 4.62965" fill="none" stroke="black"/>
<path d="M507.831,337.964v 9.2593" fill="none" stroke="black"/>
<path d="M82.8417,337.964v 9.2593" fill="none" stroke="black"/>
<path d="M68.6754,342.594v 4.62965" fill="none" stroke="black"/>
<path d="M507.831,337.964v 9.2593" fill="none" stroke="black"/>
<text xml:space="preserve" x="71.1631" y="359.813" fill="black" font-size="12.8882" font-family="Helvetica">780</text>
<text xml:space="preserve" x="141.826" y="359.813" fill="black" font-size="12.8882" font-family="Helvetica">790</text>
<text xml:space="preserve" x="212.489" y="359.813" fill="black" font-size="12.8882" font-family="Helvetica">800</text>
<text xml:space="preserve" x="283.965" y="359.813" fill="black" font-size="12.8882" font-family="Helvetica">810</text>
<text xml:space="preserve" x="354.628" y="359.813" fill="black" font-size="12.8882" font-family="Helvetica">820</text>
<text xml:space="preserve" x="425.291" y="359.813" fill="black" font-size="12.8882" font-family="Helvetica">830</text>
<text xml:space="preserve" x="495.954" y="359.813" fill="black" font-size="12.8882" font-family="Helvetica">840</text>
<text xml:space="preserve" x="481.334" y="373.621" fill="black" font-size="12.8882" font-family="Helvetica">Time</text>
<path d="M57.1929,347.224v -308.643" fill="none" stroke="black"/>
<path d="M70.7992,347.224h -13.6063" fill="none" stroke="black"/>
<path d="M63.9961,337.088h -6.80315" fill="none" stroke="black"/>
<path d="M63.9961,326.952h -6.80315" fill="none" stroke="black"/>
<path d="M63.9961,316.816h -6.80315" fill="none" stroke="black"/>
<path d="M63.9961,306.68h -6.80315" fill="none" stroke="black"/>
<path d="M70.7992,296.543h -13.6063" fill="none" stroke="black"/>
<path d="M63.9961,286.407h -6.80315" fill="none" stroke="black"/>
<path d="M63.9961,276.271h -6.80315" fill="none" stroke="black"/>
<path d="M63.9961,266.135h -6.80315" fill="none" stroke="black"/>
<path d="M63.9961,255.999h -6.80315" fill="none" stroke="black"/>
<path d="M70.7992,245.863h -13.6063" fill="none" stroke="black"/>
<path d="M63.9961,235.727h -6.80315" fill="none" stroke="black"/>
<path d="M63.9961,225.591h -6.80315" fill="none" stroke="black"/>
<path d="M63.9961,215.455h -6.80315" fill="none" stroke="black"/>
<path d="M63.9961,205.319h -6.80315" fill="none" stroke="black"/>
<path d="M70.7992,195.183h -13.6063" fill="none" stroke="black"/>
<path d="M63.9961,185.047h -6.80315" fill="none" stroke="black"/>
<path d="M63.9961,174.911h -6.80315" fill="none" stroke="black"/>
<path d="M63.9961,164.775h -6.80315" fill="none" stroke="black"/>
<path d="M63.9961,154.638h -6.80315" fill="none" stroke="black"/>
<path d="M70.7992,144.502h -13.6063" fill="none" stroke="black"/>
<path d="M63.9961,134.366h -6.80315" fill="none" stroke="black"/>
<path d="M63.9961,124.23h -6.80315" fill="none" stroke="black"/>
<path d="M63.9961,114.094h -6.80315" fill="none" stroke="black"/>
<path d="M63.9961,103.958h -6.80315" fill="none" stroke="black"/>
<path d="M70.7992,93.822h -13.6063" fill="none" stroke="black"/>
<path d="M63.9961,83.6859h -6.80315" fill="none" stroke="black"/>
<path d="M63.9961,73.5499h -6.80315" fill="none" stroke="black"/>
<path d="M63.9961,63.4138h -6.80315" fill="none" stroke="black"/>
<path d="M63.9961,53.2777h -6.80315" fill="none" stroke="black"/>
<path d="M70.7992,43.1417h -13.6063" fill="none" stroke="black"/>
<path d="M70.7992,43.1417h -13.6063" fill="none" stroke="black"/>
<text xml:space="preserve" x="46.7965" y="351.691" fill="black" font-size="12.8882" font-family="Helvetica">0</text>
<text xml:space="preserve" x="39.4865" y="301.333" fill="black" font-size="12.8882" font-family="Helvetica">10</text>
<text xml:space="preserve" x="39.4865" y="250.164" fill="black" font-size="12.8882" font-family="Helvetica">20</text>
<text xml:space="preserve" x="39.4865" y="199.806" fill="black" font-size="12.8882" font-family="Helvetica">30</text>
<text xml:space="preserve" x="39.4865" y="148.636" fill="black" font-size="12.8882" font-family="Helvetica">40</text>
<text xml:space="preserve" x="39.4865" y="98.2785" fill="black" font-size="12.8882" font-family="Helvetica">50</text>
<text xml:space="preserve" x="39.4865" y="47.9209" fill="black" font-size="12.8882" font-family="Helvetica">60</text>
<g transform="rotate(-90,28.9277,71.4753)">
<text xml:space="preserve" x="28.9277" y="71.4753" fill="black" font-size="12.8882" font-family="Helvetica">Event</text>
</g>
<text xml:space="preserve" x="243.354" y="18.681" fill="black" font-size="17.0471" font-family="Helvetica">140mm 57</text></svg>
