<?xml version="1.0" standalone="no"?>
<svg width="567.429" height="384.969" viewBox="0 0 567.429 384.969" xmlns="http://www.w3.org/2000/svg" shape-rendering="crispEdges">
<title>
img/week2/Combined140mm_ch_47.svg
</title>
<desc>
Creator: ROOT Version 6.22/09
CreationDate: Thu Jun 24 12:33:05 2021</desc>
<defs>
</defs>
<rect x="0.5" y="0" width="566.929" height="384.469" fill="white"/>
<rect x="57.1929" y="38.4469" width="453.543" height="307.575" fill="white"/>
<rect x="57.1929" y="38.4469" width="453.543" height="307.575" fill="none" stroke="black"/>
<rect x="57.1929" y="38.4469" width="453.543" height="307.575" fill="white"/>
<rect x="57.1929" y="38.4469" width="453.543" height="307.575" fill="none" stroke="black"/>
<path d="M57.1929,346.022h 97.1879v -3.26787h 32.396v -16.3394h 32.396v -22.8751h 32.396v -235.287h 32.396v 49.0181h 32.396v 218.948h 32.396v 9.80362h 161.98" fill="none" stroke="#000099"/>
<g fill="#ff0000">
<polygon points=" 263.531, 64.0173 272.002, 64.0173 267.767, 72.4886"/>
</g>
<path d="M59.4606,346.022h 126.992l 4.53543, -0.0461628l 4.53543, -0.0662587l 4.53543, -0.148839l 4.53543, -0.318121l 4.53543, -0.646708l 4.53543, -1.24989l 4.53543, -2.29534l 4.53543, -4.00267l 4.53543, -6.62253l 4.53543, -10.3854l 4.53543,
 -15.4159l 4.53543, -21.6225l 4.53543, -28.5896l 4.53543, -35.5168l 4.53543, -41.2554l 4.53543, -44.4718l 4.53543, -43.9326l 4.53543, -38.848l 1.88764, -12.1408" fill="none" stroke="#ff0000" stroke-width="2"/>
<path d="M288.985,38.4469l 1.78307, 11.3641" fill="none" stroke="#ff0000" stroke-width="2"/>
<path d="M290.768,49.811l 4.53543, 38.6798l 4.53543, 43.8701l 4.53543, 44.5049l 4.53543, 41.3602l 4.53543, 35.6634l 4.53543, 28.7491l 4.53543, 21.7727l 4.53543, 15.5431l 4.53543, 10.4842l 4.53543, 6.69367l 4.53543, 4.05048l 4.53543, 2.32548l 4.53543,
 1.26776l 4.53543, 0.656703l 4.53543, 0.323402l 4.53543, 0.151479l 4.53543, 0.0675091l 4.53543, 0.0471179h 136.063" fill="none" stroke="#ff0000" stroke-width="2"/>
<path d="M57.1929,346.022h 453.543" fill="none" stroke="black"/>
<path d="M135.06,336.795v 9.22726" fill="none" stroke="black"/>
<path d="M151.25,341.409v 4.61363" fill="none" stroke="black"/>
<path d="M167.44,341.409v 4.61363" fill="none" stroke="black"/>
<path d="M183.63,341.409v 4.61363" fill="none" stroke="black"/>
<path d="M199.82,341.409v 4.61363" fill="none" stroke="black"/>
<path d="M216.011,336.795v 9.22726" fill="none" stroke="black"/>
<path d="M232.201,341.409v 4.61363" fill="none" stroke="black"/>
<path d="M248.391,341.409v 4.61363" fill="none" stroke="black"/>
<path d="M264.581,341.409v 4.61363" fill="none" stroke="black"/>
<path d="M280.771,341.409v 4.61363" fill="none" stroke="black"/>
<path d="M296.961,336.795v 9.22726" fill="none" stroke="black"/>
<path d="M313.151,341.409v 4.61363" fill="none" stroke="black"/>
<path d="M329.341,341.409v 4.61363" fill="none" stroke="black"/>
<path d="M345.531,341.409v 4.61363" fill="none" stroke="black"/>
<path d="M361.721,341.409v 4.61363" fill="none" stroke="black"/>
<path d="M377.911,336.795v 9.22726" fill="none" stroke="black"/>
<path d="M394.101,341.409v 4.61363" fill="none" stroke="black"/>
<path d="M410.291,341.409v 4.61363" fill="none" stroke="black"/>
<path d="M426.481,341.409v 4.61363" fill="none" stroke="black"/>
<path d="M442.672,341.409v 4.61363" fill="none" stroke="black"/>
<path d="M458.862,336.795v 9.22726" fill="none" stroke="black"/>
<path d="M135.06,336.795v 9.22726" fill="none" stroke="black"/>
<path d="M118.87,341.409v 4.61363" fill="none" stroke="black"/>
<path d="M102.68,341.409v 4.61363" fill="none" stroke="black"/>
<path d="M86.49,341.409v 4.61363" fill="none" stroke="black"/>
<path d="M70.2999,341.409v 4.61363" fill="none" stroke="black"/>
<path d="M458.862,336.795v 9.22726" fill="none" stroke="black"/>
<path d="M475.052,341.409v 4.61363" fill="none" stroke="black"/>
<path d="M491.242,341.409v 4.61363" fill="none" stroke="black"/>
<path d="M507.432,341.409v 4.61363" fill="none" stroke="black"/>
<text xml:space="preserve" x="124.312" y="358.403" fill="black" font-size="12.8453" font-family="Helvetica">790</text>
<text xml:space="preserve" x="204.953" y="358.403" fill="black" font-size="12.8453" font-family="Helvetica">800</text>
<text xml:space="preserve" x="285.594" y="358.403" fill="black" font-size="12.8453" font-family="Helvetica">810</text>
<text xml:space="preserve" x="367.049" y="358.403" fill="black" font-size="12.8453" font-family="Helvetica">820</text>
<text xml:space="preserve" x="447.69" y="358.403" fill="black" font-size="12.8453" font-family="Helvetica">830</text>
<text xml:space="preserve" x="460.723" y="370.622" fill="black" font-size="12.8453" font-family="Helvetica">Time [ns]</text>
<path d="M57.1929,346.022v -307.575" fill="none" stroke="black"/>
<path d="M70.7992,346.022h -13.6063" fill="none" stroke="black"/>
<path d="M63.9961,339.487h -6.80315" fill="none" stroke="black"/>
<path d="M63.9961,332.951h -6.80315" fill="none" stroke="black"/>
<path d="M63.9961,326.415h -6.80315" fill="none" stroke="black"/>
<path d="M63.9961,319.879h -6.80315" fill="none" stroke="black"/>
<path d="M70.7992,313.344h -13.6063" fill="none" stroke="black"/>
<path d="M63.9961,306.808h -6.80315" fill="none" stroke="black"/>
<path d="M63.9961,300.272h -6.80315" fill="none" stroke="black"/>
<path d="M63.9961,293.736h -6.80315" fill="none" stroke="black"/>
<path d="M63.9961,287.201h -6.80315" fill="none" stroke="black"/>
<path d="M70.7992,280.665h -13.6063" fill="none" stroke="black"/>
<path d="M63.9961,274.129h -6.80315" fill="none" stroke="black"/>
<path d="M63.9961,267.593h -6.80315" fill="none" stroke="black"/>
<path d="M63.9961,261.058h -6.80315" fill="none" stroke="black"/>
<path d="M63.9961,254.522h -6.80315" fill="none" stroke="black"/>
<path d="M70.7992,247.986h -13.6063" fill="none" stroke="black"/>
<path d="M63.9961,241.45h -6.80315" fill="none" stroke="black"/>
<path d="M63.9961,234.915h -6.80315" fill="none" stroke="black"/>
<path d="M63.9961,228.379h -6.80315" fill="none" stroke="black"/>
<path d="M63.9961,221.843h -6.80315" fill="none" stroke="black"/>
<path d="M70.7992,215.307h -13.6063" fill="none" stroke="black"/>
<path d="M63.9961,208.772h -6.80315" fill="none" stroke="black"/>
<path d="M63.9961,202.236h -6.80315" fill="none" stroke="black"/>
<path d="M63.9961,195.7h -6.80315" fill="none" stroke="black"/>
<path d="M63.9961,189.164h -6.80315" fill="none" stroke="black"/>
<path d="M70.7992,182.629h -13.6063" fill="none" stroke="black"/>
<path d="M63.9961,176.093h -6.80315" fill="none" stroke="black"/>
<path d="M63.9961,169.557h -6.80315" fill="none" stroke="black"/>
<path d="M63.9961,163.021h -6.80315" fill="none" stroke="black"/>
<path d="M63.9961,156.486h -6.80315" fill="none" stroke="black"/>
<path d="M70.7992,149.95h -13.6063" fill="none" stroke="black"/>
<path d="M63.9961,143.414h -6.80315" fill="none" stroke="black"/>
<path d="M63.9961,136.878h -6.80315" fill="none" stroke="black"/>
<path d="M63.9961,130.343h -6.80315" fill="none" stroke="black"/>
<path d="M63.9961,123.807h -6.80315" fill="none" stroke="black"/>
<path d="M70.7992,117.271h -13.6063" fill="none" stroke="black"/>
<path d="M63.9961,110.735h -6.80315" fill="none" stroke="black"/>
<path d="M63.9961,104.2h -6.80315" fill="none" stroke="black"/>
<path d="M63.9961,97.6638h -6.80315" fill="none" stroke="black"/>
<path d="M63.9961,91.1281h -6.80315" fill="none" stroke="black"/>
<path d="M70.7992,84.5923h -13.6063" fill="none" stroke="black"/>
<path d="M63.9961,78.0566h -6.80315" fill="none" stroke="black"/>
<path d="M63.9961,71.5208h -6.80315" fill="none" stroke="black"/>
<path d="M63.9961,64.9851h -6.80315" fill="none" stroke="black"/>
<path d="M63.9961,58.4493h -6.80315" fill="none" stroke="black"/>
<path d="M70.7992,51.9136h -13.6063" fill="none" stroke="black"/>
<path d="M70.7992,51.9136h -13.6063" fill="none" stroke="black"/>
<path d="M63.9961,45.3778h -6.80315" fill="none" stroke="black"/>
<path d="M63.9961,38.8421h -6.80315" fill="none" stroke="black"/>
<text xml:space="preserve" x="47.7441" y="350.258" fill="black" font-size="12.8453" font-family="Helvetica">0</text>
<text xml:space="preserve" x="41.2277" y="317.676" fill="black" font-size="12.8453" font-family="Helvetica">10</text>
<text xml:space="preserve" x="41.2277" y="285.094" fill="black" font-size="12.8453" font-family="Helvetica">20</text>
<text xml:space="preserve" x="41.2277" y="252.512" fill="black" font-size="12.8453" font-family="Helvetica">30</text>
<text xml:space="preserve" x="41.2277" y="219.929" fill="black" font-size="12.8453" font-family="Helvetica">40</text>
<text xml:space="preserve" x="41.2277" y="187.347" fill="black" font-size="12.8453" font-family="Helvetica">50</text>
<text xml:space="preserve" x="41.2277" y="154.765" fill="black" font-size="12.8453" font-family="Helvetica">60</text>
<text xml:space="preserve" x="41.2277" y="121.368" fill="black" font-size="12.8453" font-family="Helvetica">70</text>
<text xml:space="preserve" x="41.2277" y="88.7863" fill="black" font-size="12.8453" font-family="Helvetica">80</text>
<text xml:space="preserve" x="41.2277" y="56.2042" fill="black" font-size="12.8453" font-family="Helvetica">90</text>
<g transform="rotate(-90,29.0094,70.0516)">
<text xml:space="preserve" x="29.0094" y="70.0516" fill="black" font-size="12.8453" font-family="Helvetica">Event</text>
</g>
<text xml:space="preserve" x="243.237" y="18.7347" fill="black" font-size="16.9898" font-family="Helvetica">140mm 47</text></svg>
