<?xml version="1.0" standalone="no"?>
<svg width="567.429" height="384.969" viewBox="0 0 567.429 384.969" xmlns="http://www.w3.org/2000/svg" shape-rendering="crispEdges">
<title>
img/week2/Combined420mm_ch_28.svg
</title>
<desc>
Creator: ROOT Version 6.22/09
CreationDate: Thu Jun 24 12:33:06 2021</desc>
<defs>
</defs>
<rect x="0.5" y="0" width="566.929" height="384.469" fill="white"/>
<rect x="57.1929" y="38.4469" width="453.543" height="307.575" fill="white"/>
<rect x="57.1929" y="38.4469" width="453.543" height="307.575" fill="none" stroke="black"/>
<rect x="57.1929" y="38.4469" width="453.543" height="307.575" fill="white"/>
<rect x="57.1929" y="38.4469" width="453.543" height="307.575" fill="none" stroke="black"/>
<path d="M57.1929,346.022h 69.7759v -2.27702h 34.8879v 2.27702h 34.8879v -11.3851h 34.8879v -47.8175h 34.8879v -232.256h 34.8879v 177.608h 34.8879v 111.574h 34.8879v 2.27702h 139.552" fill="none" stroke="#000099"/>
<g fill="#ff0000">
<polygon points=" 279.729, 50.3277 288.2, 50.3277 283.965, 58.799"/>
</g>
<path d="M59.4606,346.022h 131.528l 4.53543, -0.0373673l 4.53543, -0.0508417l 4.53543, -0.111224l 4.53543, -0.232429l 4.53543, -0.463824l 4.53543, -0.883536l 4.53543, -1.60585l 4.53543, -2.78327l 4.53543, -4.59711l 4.53543, -7.22986l 4.53543,
 -10.8151l 4.53543, -15.3673l 4.53543, -20.7037l 4.53543, -26.3828l 4.53543, -31.6901l 4.53543, -35.6994l 4.53543, -37.4203l 4.53543, -36.0142l 4.53543, -31.0291l 4.53543, -22.5818" fill="none" stroke="#ff0000" stroke-width="2"/>
<path d="M281.697,60.3232l 4.53543, -11.4207l 4.53543, 1.17031l 4.53543, 13.6131l 4.53543, 24.3604l 4.53543, 32.2118l 4.53543, 36.5324l 4.53543, 37.3183l 4.53543, 35.1084l 4.53543, 30.7869l 4.53543, 25.347l 4.53543, 19.685l 4.53543, 14.4673l 4.53543,
 10.0851l 4.53543, 6.67979l 4.53543, 4.20913l 4.53543, 2.52587l 4.53543, 1.44466l 4.53543, 0.788021l 4.53543, 0.410166l 4.53543, 0.203808l 4.53543, 0.0967121l 4.53543, 0.0438406l 4.53543, 0.0317847h 117.921" fill="none" stroke="#ff0000"
 stroke-width="2"/>
<path d="M503.933,346.022h 4.53543" fill="none" stroke="#ff0000" stroke-width="2"/>
<path d="M57.1929,346.022h 453.543" fill="none" stroke="black"/>
<path d="M106.162,336.795v 9.22726" fill="none" stroke="black"/>
<path d="M123.597,341.409v 4.61363" fill="none" stroke="black"/>
<path d="M141.033,341.409v 4.61363" fill="none" stroke="black"/>
<path d="M158.468,341.409v 4.61363" fill="none" stroke="black"/>
<path d="M175.904,341.409v 4.61363" fill="none" stroke="black"/>
<path d="M193.339,336.795v 9.22726" fill="none" stroke="black"/>
<path d="M210.775,341.409v 4.61363" fill="none" stroke="black"/>
<path d="M228.21,341.409v 4.61363" fill="none" stroke="black"/>
<path d="M245.646,341.409v 4.61363" fill="none" stroke="black"/>
<path d="M263.081,341.409v 4.61363" fill="none" stroke="black"/>
<path d="M280.517,336.795v 9.22726" fill="none" stroke="black"/>
<path d="M297.952,341.409v 4.61363" fill="none" stroke="black"/>
<path d="M315.388,341.409v 4.61363" fill="none" stroke="black"/>
<path d="M332.823,341.409v 4.61363" fill="none" stroke="black"/>
<path d="M350.258,341.409v 4.61363" fill="none" stroke="black"/>
<path d="M367.694,336.795v 9.22726" fill="none" stroke="black"/>
<path d="M385.129,341.409v 4.61363" fill="none" stroke="black"/>
<path d="M402.565,341.409v 4.61363" fill="none" stroke="black"/>
<path d="M420,341.409v 4.61363" fill="none" stroke="black"/>
<path d="M437.436,341.409v 4.61363" fill="none" stroke="black"/>
<path d="M454.871,336.795v 9.22726" fill="none" stroke="black"/>
<path d="M106.162,336.795v 9.22726" fill="none" stroke="black"/>
<path d="M88.7266,341.409v 4.61363" fill="none" stroke="black"/>
<path d="M71.2911,341.409v 4.61363" fill="none" stroke="black"/>
<path d="M454.871,336.795v 9.22726" fill="none" stroke="black"/>
<path d="M472.307,341.409v 4.61363" fill="none" stroke="black"/>
<path d="M489.742,341.409v 4.61363" fill="none" stroke="black"/>
<path d="M507.178,341.409v 4.61363" fill="none" stroke="black"/>
<text xml:space="preserve" x="94.9882" y="358.403" fill="black" font-size="12.8453" font-family="Helvetica">790</text>
<text xml:space="preserve" x="182.145" y="358.403" fill="black" font-size="12.8453" font-family="Helvetica">800</text>
<text xml:space="preserve" x="269.303" y="358.403" fill="black" font-size="12.8453" font-family="Helvetica">810</text>
<text xml:space="preserve" x="356.46" y="358.403" fill="black" font-size="12.8453" font-family="Helvetica">820</text>
<text xml:space="preserve" x="443.617" y="358.403" fill="black" font-size="12.8453" font-family="Helvetica">830</text>
<text xml:space="preserve" x="460.723" y="370.622" fill="black" font-size="12.8453" font-family="Helvetica">Time [ns]</text>
<path d="M57.1929,346.022v -307.575" fill="none" stroke="black"/>
<path d="M70.7992,346.022h -13.6063" fill="none" stroke="black"/>
<path d="M63.9961,334.637h -6.80315" fill="none" stroke="black"/>
<path d="M63.9961,323.252h -6.80315" fill="none" stroke="black"/>
<path d="M63.9961,311.867h -6.80315" fill="none" stroke="black"/>
<path d="M70.7992,300.482h -13.6063" fill="none" stroke="black"/>
<path d="M63.9961,289.097h -6.80315" fill="none" stroke="black"/>
<path d="M63.9961,277.712h -6.80315" fill="none" stroke="black"/>
<path d="M63.9961,266.326h -6.80315" fill="none" stroke="black"/>
<path d="M70.7992,254.941h -13.6063" fill="none" stroke="black"/>
<path d="M63.9961,243.556h -6.80315" fill="none" stroke="black"/>
<path d="M63.9961,232.171h -6.80315" fill="none" stroke="black"/>
<path d="M63.9961,220.786h -6.80315" fill="none" stroke="black"/>
<path d="M70.7992,209.401h -13.6063" fill="none" stroke="black"/>
<path d="M63.9961,198.016h -6.80315" fill="none" stroke="black"/>
<path d="M63.9961,186.631h -6.80315" fill="none" stroke="black"/>
<path d="M63.9961,175.246h -6.80315" fill="none" stroke="black"/>
<path d="M70.7992,163.86h -13.6063" fill="none" stroke="black"/>
<path d="M63.9961,152.475h -6.80315" fill="none" stroke="black"/>
<path d="M63.9961,141.09h -6.80315" fill="none" stroke="black"/>
<path d="M63.9961,129.705h -6.80315" fill="none" stroke="black"/>
<path d="M70.7992,118.32h -13.6063" fill="none" stroke="black"/>
<path d="M63.9961,106.935h -6.80315" fill="none" stroke="black"/>
<path d="M63.9961,95.5498h -6.80315" fill="none" stroke="black"/>
<path d="M63.9961,84.1646h -6.80315" fill="none" stroke="black"/>
<path d="M70.7992,72.7795h -13.6063" fill="none" stroke="black"/>
<path d="M70.7992,72.7795h -13.6063" fill="none" stroke="black"/>
<path d="M63.9961,61.3944h -6.80315" fill="none" stroke="black"/>
<path d="M63.9961,50.0093h -6.80315" fill="none" stroke="black"/>
<path d="M63.9961,38.6242h -6.80315" fill="none" stroke="black"/>
<text xml:space="preserve" x="47.7441" y="350.258" fill="black" font-size="12.8453" font-family="Helvetica">0</text>
<text xml:space="preserve" x="41.2277" y="304.643" fill="black" font-size="12.8453" font-family="Helvetica">20</text>
<text xml:space="preserve" x="41.2277" y="259.028" fill="black" font-size="12.8453" font-family="Helvetica">40</text>
<text xml:space="preserve" x="41.2277" y="214.228" fill="black" font-size="12.8453" font-family="Helvetica">60</text>
<text xml:space="preserve" x="41.2277" y="168.613" fill="black" font-size="12.8453" font-family="Helvetica">80</text>
<text xml:space="preserve" x="33.8967" y="122.998" fill="black" font-size="12.8453" font-family="Helvetica">100</text>
<text xml:space="preserve" x="33.8967" y="77.3826" fill="black" font-size="12.8453" font-family="Helvetica">120</text>
<g transform="rotate(-90,20.8638,70.0516)">
<text xml:space="preserve" x="20.8638" y="70.0516" fill="black" font-size="12.8453" font-family="Helvetica">Event</text>
</g>
<text xml:space="preserve" x="243.237" y="18.7347" fill="black" font-size="16.9898" font-family="Helvetica">420mm 28</text></svg>
