<?xml version="1.0" standalone="no"?>
<svg width="567.429" height="386.304" viewBox="0 0 567.429 386.304" xmlns="http://www.w3.org/2000/svg" shape-rendering="crispEdges">
<title>
img/week2/Combined670mm_ch_44.svg
</title>
<desc>
Creator: ROOT Version 6.22/08
CreationDate: Mon Jun 21 21:11:52 2021</desc>
<defs>
</defs>
<rect x="0.5" y="0" width="566.929" height="385.804" fill="white"/>
<rect x="57.1929" y="38.5804" width="453.543" height="308.643" fill="white"/>
<rect x="57.1929" y="38.5804" width="453.543" height="308.643" fill="none" stroke="black"/>
<rect x="57.1929" y="38.5804" width="453.543" height="308.643" fill="white"/>
<rect x="57.1929" y="38.5804" width="453.543" height="308.643" fill="none" stroke="black"/>
<path d="M57.1929,347.224h 123.694v -9.96427h 41.2312v -44.8392h 41.2312v -239.143h 41.2312v 259.071h 41.2312v 34.875h 164.925" fill="none" stroke="#000099"/>
<g fill="#ff0000">
<polygon points=" 279.741, 49.0542 288.188, 49.0542 283.965, 57.5013"/>
</g>
<path d="M59.4606,347.224h 126.992l 4.53543, -0.0323113l 4.53543, -0.0464795l 4.53543, -0.104733l 4.53543, -0.224803l 4.53543, -0.459473l 4.53543, -0.893887l 4.53543, -1.65445l 4.53543, -2.91145l 4.53543, -4.86778l 4.53543, -7.72527l 4.53543,
 -11.6237l 4.53543, -16.5558l 4.53543, -22.2761l 4.53543, -28.2342l 4.53543, -33.573l 4.53543, -37.2231l 4.53543, -38.101l 4.53543, -35.3781l 4.53543, -28.7477l 4.53543, -18.6008l 4.53543, -6.03291" fill="none" stroke="#ff0000" stroke-width="2"/>
<path d="M281.697,51.9568l 4.53543, 7.34329l 4.53543, 19.7371l 4.53543, 29.5738l 4.53543, 35.8223l 4.53543, 38.1645l 4.53543, 36.9685l 4.53543, 33.101l 4.53543, 27.6554l 4.53543, 21.6872l 4.53543, 16.0257l 4.53543, 11.1896l 4.53543, 7.39712l 4.53543,
 4.63678l 4.53543, 2.75915l 4.53543, 1.56003l 4.53543, 0.838702l 4.53543, 0.428995l 4.53543, 0.208872l 4.53543, 0.0968424l 4.53543, 0.072278h 131.528" fill="none" stroke="#ff0000" stroke-width="2"/>
<path d="M503.933,347.224h 4.53543" fill="none" stroke="#ff0000" stroke-width="2"/>
<rect x="351.996" y="25.0773" width="204.094" height="108.025" fill="white"/>
<path d="M351.996,133.102h 204.094" fill="none" stroke="black"/>
<path d="M556.091,133.102v -108.025" fill="none" stroke="black"/>
<path d="M556.091,25.0773h -204.094" fill="none" stroke="black"/>
<path d="M351.996,25.0773v 108.025" fill="none" stroke="black"/>
<text xml:space="preserve" x="361.938" y="38.9865" fill="black" font-size="15.6962" font-family="Helvetica">Entries </text>
<text xml:space="preserve" x="524.382" y="38.9865" fill="black" font-size="15.6962" font-family="Helvetica"> 79</text>
<text xml:space="preserve" x="375.745" y="57.6676" fill="black" font-size="15.6962" font-family="Helvetica"> / ndf </text>
<text xml:space="preserve" x="370.06" y="52.7943" fill="black" font-size="10.6308" font-family="Helvetica">2</text>
<text xml:space="preserve" x="361.938" y="57.6676" fill="black" font-size="15.6962" font-family="Times">&#0967;</text>
<text xml:space="preserve" x="483.771" y="57.6676" fill="black" font-size="15.6962" font-family="Helvetica"> 1.908 / 1</text>
<text xml:space="preserve" x="361.938" y="75.5364" fill="black" font-size="15.6962" font-family="Helvetica">Prob  </text>
<text xml:space="preserve" x="494.329" y="75.5364" fill="black" font-size="15.6962" font-family="Helvetica"> 0.1672</text>
<text xml:space="preserve" x="361.938" y="94.2175" fill="black" font-size="15.6962" font-family="Helvetica">Const    </text>
<text xml:space="preserve" x="511.386" y="93.4052" fill="black" font-size="15.6962" font-family="Helvetica"> 7.79</text>
<text xml:space="preserve" x="502.452" y="93.4052" fill="black" font-size="15.6962" font-family="Times">&#0177;</text>
<text xml:space="preserve" x="454.531" y="93.4052" fill="black" font-size="15.6962" font-family="Helvetica"> 59.27 </text>
<text xml:space="preserve" x="361.938" y="111.274" fill="black" font-size="15.6962" font-family="Helvetica">Mean     </text>
<text xml:space="preserve" x="520.32" y="111.274" fill="black" font-size="15.6962" font-family="Helvetica"> 0.2</text>
<text xml:space="preserve" x="511.386" y="111.274" fill="black" font-size="15.6962" font-family="Times">&#0177;</text>
<text xml:space="preserve" x="463.465" y="111.274" fill="black" font-size="15.6962" font-family="Helvetica"> 806.2 </text>
<text xml:space="preserve" x="361.938" y="128.331" fill="black" font-size="15.6962" font-family="Helvetica">Sigma    </text>
<text xml:space="preserve" x="505.7" y="129.143" fill="black" font-size="15.6962" font-family="Helvetica"> 0.151</text>
<text xml:space="preserve" x="496.766" y="129.143" fill="black" font-size="15.6962" font-family="Times">&#0177;</text>
<text xml:space="preserve" x="448.845" y="129.143" fill="black" font-size="15.6962" font-family="Helvetica"> 2.056 </text>
<path d="M57.1929,347.224h 453.543" fill="none" stroke="black"/>
<path d="M63.5517,337.964v 9.2593" fill="none" stroke="black"/>
<path d="M73.8544,342.594v 4.62965" fill="none" stroke="black"/>
<path d="M84.1572,342.594v 4.62965" fill="none" stroke="black"/>
<path d="M94.46,342.594v 4.62965" fill="none" stroke="black"/>
<path d="M104.763,342.594v 4.62965" fill="none" stroke="black"/>
<path d="M115.066,337.964v 9.2593" fill="none" stroke="black"/>
<path d="M125.368,342.594v 4.62965" fill="none" stroke="black"/>
<path d="M135.671,342.594v 4.62965" fill="none" stroke="black"/>
<path d="M145.974,342.594v 4.62965" fill="none" stroke="black"/>
<path d="M156.277,342.594v 4.62965" fill="none" stroke="black"/>
<path d="M166.579,337.964v 9.2593" fill="none" stroke="black"/>
<path d="M176.882,342.594v 4.62965" fill="none" stroke="black"/>
<path d="M187.185,342.594v 4.62965" fill="none" stroke="black"/>
<path d="M197.488,342.594v 4.62965" fill="none" stroke="black"/>
<path d="M207.79,342.594v 4.62965" fill="none" stroke="black"/>
<path d="M218.093,337.964v 9.2593" fill="none" stroke="black"/>
<path d="M228.396,342.594v 4.62965" fill="none" stroke="black"/>
<path d="M238.699,342.594v 4.62965" fill="none" stroke="black"/>
<path d="M249.002,342.594v 4.62965" fill="none" stroke="black"/>
<path d="M259.304,342.594v 4.62965" fill="none" stroke="black"/>
<path d="M269.607,337.964v 9.2593" fill="none" stroke="black"/>
<path d="M279.91,342.594v 4.62965" fill="none" stroke="black"/>
<path d="M290.213,342.594v 4.62965" fill="none" stroke="black"/>
<path d="M300.515,342.594v 4.62965" fill="none" stroke="black"/>
<path d="M310.818,342.594v 4.62965" fill="none" stroke="black"/>
<path d="M321.121,337.964v 9.2593" fill="none" stroke="black"/>
<path d="M331.424,342.594v 4.62965" fill="none" stroke="black"/>
<path d="M341.727,342.594v 4.62965" fill="none" stroke="black"/>
<path d="M352.029,342.594v 4.62965" fill="none" stroke="black"/>
<path d="M362.332,342.594v 4.62965" fill="none" stroke="black"/>
<path d="M372.635,337.964v 9.2593" fill="none" stroke="black"/>
<path d="M382.938,342.594v 4.62965" fill="none" stroke="black"/>
<path d="M393.24,342.594v 4.62965" fill="none" stroke="black"/>
<path d="M403.543,342.594v 4.62965" fill="none" stroke="black"/>
<path d="M413.846,342.594v 4.62965" fill="none" stroke="black"/>
<path d="M424.149,337.964v 9.2593" fill="none" stroke="black"/>
<path d="M434.451,342.594v 4.62965" fill="none" stroke="black"/>
<path d="M444.754,342.594v 4.62965" fill="none" stroke="black"/>
<path d="M455.057,342.594v 4.62965" fill="none" stroke="black"/>
<path d="M465.36,342.594v 4.62965" fill="none" stroke="black"/>
<path d="M475.663,337.964v 9.2593" fill="none" stroke="black"/>
<path d="M63.5517,337.964v 9.2593" fill="none" stroke="black"/>
<path d="M475.663,337.964v 9.2593" fill="none" stroke="black"/>
<path d="M485.965,342.594v 4.62965" fill="none" stroke="black"/>
<path d="M496.268,342.594v 4.62965" fill="none" stroke="black"/>
<path d="M506.571,342.594v 4.62965" fill="none" stroke="black"/>
<text xml:space="preserve" x="51.6698" y="359.813" fill="black" font-size="12.8882" font-family="Helvetica">785</text>
<text xml:space="preserve" x="103.652" y="359.813" fill="black" font-size="12.8882" font-family="Helvetica">790</text>
<text xml:space="preserve" x="154.822" y="359.813" fill="black" font-size="12.8882" font-family="Helvetica">795</text>
<text xml:space="preserve" x="205.992" y="359.813" fill="black" font-size="12.8882" font-family="Helvetica">800</text>
<text xml:space="preserve" x="257.974" y="359.813" fill="black" font-size="12.8882" font-family="Helvetica">805</text>
<text xml:space="preserve" x="309.143" y="359.813" fill="black" font-size="12.8882" font-family="Helvetica">810</text>
<text xml:space="preserve" x="361.125" y="359.813" fill="black" font-size="12.8882" font-family="Helvetica">815</text>
<text xml:space="preserve" x="412.295" y="359.813" fill="black" font-size="12.8882" font-family="Helvetica">820</text>
<text xml:space="preserve" x="464.277" y="359.813" fill="black" font-size="12.8882" font-family="Helvetica">825</text>
<text xml:space="preserve" x="481.334" y="373.621" fill="black" font-size="12.8882" font-family="Helvetica">Time</text>
<path d="M57.1929,347.224v -308.643" fill="none" stroke="black"/>
<path d="M70.7992,347.224h -13.6063" fill="none" stroke="black"/>
<path d="M63.9961,337.26h -6.80315" fill="none" stroke="black"/>
<path d="M63.9961,327.295h -6.80315" fill="none" stroke="black"/>
<path d="M63.9961,317.331h -6.80315" fill="none" stroke="black"/>
<path d="M63.9961,307.367h -6.80315" fill="none" stroke="black"/>
<path d="M70.7992,297.402h -13.6063" fill="none" stroke="black"/>
<path d="M63.9961,287.438h -6.80315" fill="none" stroke="black"/>
<path d="M63.9961,277.474h -6.80315" fill="none" stroke="black"/>
<path d="M63.9961,267.51h -6.80315" fill="none" stroke="black"/>
<path d="M63.9961,257.545h -6.80315" fill="none" stroke="black"/>
<path d="M70.7992,247.581h -13.6063" fill="none" stroke="black"/>
<path d="M63.9961,237.617h -6.80315" fill="none" stroke="black"/>
<path d="M63.9961,227.653h -6.80315" fill="none" stroke="black"/>
<path d="M63.9961,217.688h -6.80315" fill="none" stroke="black"/>
<path d="M63.9961,207.724h -6.80315" fill="none" stroke="black"/>
<path d="M70.7992,197.76h -13.6063" fill="none" stroke="black"/>
<path d="M63.9961,187.795h -6.80315" fill="none" stroke="black"/>
<path d="M63.9961,177.831h -6.80315" fill="none" stroke="black"/>
<path d="M63.9961,167.867h -6.80315" fill="none" stroke="black"/>
<path d="M63.9961,157.903h -6.80315" fill="none" stroke="black"/>
<path d="M70.7992,147.938h -13.6063" fill="none" stroke="black"/>
<path d="M63.9961,137.974h -6.80315" fill="none" stroke="black"/>
<path d="M63.9961,128.01h -6.80315" fill="none" stroke="black"/>
<path d="M63.9961,118.046h -6.80315" fill="none" stroke="black"/>
<path d="M63.9961,108.081h -6.80315" fill="none" stroke="black"/>
<path d="M70.7992,98.117h -13.6063" fill="none" stroke="black"/>
<path d="M63.9961,88.1527h -6.80315" fill="none" stroke="black"/>
<path d="M63.9961,78.1884h -6.80315" fill="none" stroke="black"/>
<path d="M63.9961,68.2241h -6.80315" fill="none" stroke="black"/>
<path d="M63.9961,58.2599h -6.80315" fill="none" stroke="black"/>
<path d="M70.7992,48.2956h -13.6063" fill="none" stroke="black"/>
<path d="M70.7992,48.2956h -13.6063" fill="none" stroke="black"/>
<text xml:space="preserve" x="46.7965" y="351.691" fill="black" font-size="12.8882" font-family="Helvetica">0</text>
<text xml:space="preserve" x="39.4865" y="302.146" fill="black" font-size="12.8882" font-family="Helvetica">10</text>
<text xml:space="preserve" x="39.4865" y="251.788" fill="black" font-size="12.8882" font-family="Helvetica">20</text>
<text xml:space="preserve" x="39.4865" y="202.243" fill="black" font-size="12.8882" font-family="Helvetica">30</text>
<text xml:space="preserve" x="39.4865" y="152.697" fill="black" font-size="12.8882" font-family="Helvetica">40</text>
<text xml:space="preserve" x="39.4865" y="102.34" fill="black" font-size="12.8882" font-family="Helvetica">50</text>
<text xml:space="preserve" x="39.4865" y="52.7943" fill="black" font-size="12.8882" font-family="Helvetica">60</text>
<g transform="rotate(-90,28.9277,71.4753)">
<text xml:space="preserve" x="28.9277" y="71.4753" fill="black" font-size="12.8882" font-family="Helvetica">Event</text>
</g>
<rect x="351.996" y="25.0773" width="204.094" height="108.025" fill="white"/>
<path d="M351.996,133.102h 204.094" fill="none" stroke="black"/>
<path d="M556.091,133.102v -108.025" fill="none" stroke="black"/>
<path d="M556.091,25.0773h -204.094" fill="none" stroke="black"/>
<path d="M351.996,25.0773v 108.025" fill="none" stroke="black"/>
<text xml:space="preserve" x="361.938" y="38.9865" fill="black" font-size="15.6962" font-family="Helvetica">Entries </text>
<text xml:space="preserve" x="524.382" y="38.9865" fill="black" font-size="15.6962" font-family="Helvetica"> 79</text>
<text xml:space="preserve" x="375.745" y="57.6676" fill="black" font-size="15.6962" font-family="Helvetica"> / ndf </text>
<text xml:space="preserve" x="370.06" y="52.7943" fill="black" font-size="10.6308" font-family="Helvetica">2</text>
<text xml:space="preserve" x="361.938" y="57.6676" fill="black" font-size="15.6962" font-family="Times">&#0967;</text>
<text xml:space="preserve" x="483.771" y="57.6676" fill="black" font-size="15.6962" font-family="Helvetica"> 1.908 / 1</text>
<text xml:space="preserve" x="361.938" y="75.5364" fill="black" font-size="15.6962" font-family="Helvetica">Prob  </text>
<text xml:space="preserve" x="494.329" y="75.5364" fill="black" font-size="15.6962" font-family="Helvetica"> 0.1672</text>
<text xml:space="preserve" x="361.938" y="94.2175" fill="black" font-size="15.6962" font-family="Helvetica">Const    </text>
<text xml:space="preserve" x="511.386" y="93.4052" fill="black" font-size="15.6962" font-family="Helvetica"> 7.79</text>
<text xml:space="preserve" x="502.452" y="93.4052" fill="black" font-size="15.6962" font-family="Times">&#0177;</text>
<text xml:space="preserve" x="454.531" y="93.4052" fill="black" font-size="15.6962" font-family="Helvetica"> 59.27 </text>
<text xml:space="preserve" x="361.938" y="111.274" fill="black" font-size="15.6962" font-family="Helvetica">Mean     </text>
<text xml:space="preserve" x="520.32" y="111.274" fill="black" font-size="15.6962" font-family="Helvetica"> 0.2</text>
<text xml:space="preserve" x="511.386" y="111.274" fill="black" font-size="15.6962" font-family="Times">&#0177;</text>
<text xml:space="preserve" x="463.465" y="111.274" fill="black" font-size="15.6962" font-family="Helvetica"> 806.2 </text>
<text xml:space="preserve" x="361.938" y="128.331" fill="black" font-size="15.6962" font-family="Helvetica">Sigma    </text>
<text xml:space="preserve" x="505.7" y="129.143" fill="black" font-size="15.6962" font-family="Helvetica"> 0.151</text>
<text xml:space="preserve" x="496.766" y="129.143" fill="black" font-size="15.6962" font-family="Times">&#0177;</text>
<text xml:space="preserve" x="448.845" y="129.143" fill="black" font-size="15.6962" font-family="Helvetica"> 2.056 </text>
<text xml:space="preserve" x="243.354" y="18.681" fill="black" font-size="17.0471" font-family="Helvetica">670mm 44</text></svg>
