<?xml version="1.0" standalone="no"?>
<svg width="567.429" height="386.304" viewBox="0 0 567.429 386.304" xmlns="http://www.w3.org/2000/svg" shape-rendering="crispEdges">
<title>
img/week2/Combined140mm_ch_36_37_38_39.svg
</title>
<desc>
Creator: ROOT Version 6.22/08
CreationDate: Mon Jun 21 21:40:08 2021</desc>
<defs>
</defs>
<rect x="0.5" y="0" width="566.929" height="385.804" fill="white"/>
<rect x="57.1929" y="38.5804" width="453.543" height="308.643" fill="white"/>
<rect x="57.1929" y="38.5804" width="453.543" height="308.643" fill="none" stroke="black"/>
<rect x="57.1929" y="38.5804" width="453.543" height="308.643" fill="white"/>
<rect x="57.1929" y="38.5804" width="453.543" height="308.643" fill="none" stroke="black"/>
<path d="M57.1929,347.224h 69.7759v -1.04297h 34.8879v -1.56446h 34.8879v -8.86527h 34.8879v -56.842h 34.8879v -214.852h 34.8879v 178.87h 34.8879v 103.776h 34.8879v 0.521486h 139.552" fill="none" stroke="#000099"/>
<g fill="#ff0000">
<polygon points=" 279.741, 59.8332 288.188, 59.8332 283.965, 68.2803"/>
</g>
<path d="M59.4606,347.224h 131.528l 4.53543, -0.0366228l 4.53543, -0.0517066l 4.53543, -0.115267l 4.53543, -0.244887l 4.53543, -0.495651l 4.53543, -0.955335l 4.53543, -1.75262l 4.53543, -3.05852l 4.53543, -5.07342l 4.53543, -7.99189l 4.53543,
 -11.941l 4.53543, -16.8965l 4.53543, -22.5951l 4.53543, -28.474l 4.53543, -33.6749l 4.53543, -37.1434l 4.53543, -37.8268l 4.53543, -34.9366l 4.53543, -28.2051l 4.53543, -18.0479" fill="none" stroke="#ff0000" stroke-width="2"/>
<path d="M281.697,57.7067l 4.53543, -5.56234l 4.53543, 7.66091l 4.53543, 19.8706l 4.53543, 29.5355l 4.53543, 35.6599l 4.53543, 37.9423l 4.53543, 36.7487l 4.53543, 32.9283l 4.53543, 27.5508l 4.53543, 21.6501l 4.53543, 16.0409l 4.53543, 11.2364l
 4.53543, 7.45611l 4.53543, 4.69387l 4.53543, 2.80661l 4.53543, 1.59534l 4.53543, 0.862708l 4.53543, 0.444083l 4.53543, 0.217703l 4.53543, 0.101681l 4.53543, 0.0452627l 4.53543, 0.0316637h 122.457" fill="none" stroke="#ff0000" stroke-width="2"/>
<path d="M503.933,347.224h 4.53543" fill="none" stroke="#ff0000" stroke-width="2"/>
<path d="M57.1929,347.224h 453.543" fill="none" stroke="black"/>
<path d="M106.162,337.964v 9.2593" fill="none" stroke="black"/>
<path d="M123.597,342.594v 4.62965" fill="none" stroke="black"/>
<path d="M141.033,342.594v 4.62965" fill="none" stroke="black"/>
<path d="M158.468,342.594v 4.62965" fill="none" stroke="black"/>
<path d="M175.904,342.594v 4.62965" fill="none" stroke="black"/>
<path d="M193.339,337.964v 9.2593" fill="none" stroke="black"/>
<path d="M210.775,342.594v 4.62965" fill="none" stroke="black"/>
<path d="M228.21,342.594v 4.62965" fill="none" stroke="black"/>
<path d="M245.646,342.594v 4.62965" fill="none" stroke="black"/>
<path d="M263.081,342.594v 4.62965" fill="none" stroke="black"/>
<path d="M280.517,337.964v 9.2593" fill="none" stroke="black"/>
<path d="M297.952,342.594v 4.62965" fill="none" stroke="black"/>
<path d="M315.388,342.594v 4.62965" fill="none" stroke="black"/>
<path d="M332.823,342.594v 4.62965" fill="none" stroke="black"/>
<path d="M350.258,342.594v 4.62965" fill="none" stroke="black"/>
<path d="M367.694,337.964v 9.2593" fill="none" stroke="black"/>
<path d="M385.129,342.594v 4.62965" fill="none" stroke="black"/>
<path d="M402.565,342.594v 4.62965" fill="none" stroke="black"/>
<path d="M420,342.594v 4.62965" fill="none" stroke="black"/>
<path d="M437.436,342.594v 4.62965" fill="none" stroke="black"/>
<path d="M454.871,337.964v 9.2593" fill="none" stroke="black"/>
<path d="M106.162,337.964v 9.2593" fill="none" stroke="black"/>
<path d="M88.7266,342.594v 4.62965" fill="none" stroke="black"/>
<path d="M71.2911,342.594v 4.62965" fill="none" stroke="black"/>
<path d="M454.871,337.964v 9.2593" fill="none" stroke="black"/>
<path d="M472.307,342.594v 4.62965" fill="none" stroke="black"/>
<path d="M489.742,342.594v 4.62965" fill="none" stroke="black"/>
<path d="M507.178,342.594v 4.62965" fill="none" stroke="black"/>
<text xml:space="preserve" x="94.7174" y="359.813" fill="black" font-size="12.8882" font-family="Helvetica">790</text>
<text xml:space="preserve" x="181.625" y="359.813" fill="black" font-size="12.8882" font-family="Helvetica">800</text>
<text xml:space="preserve" x="268.532" y="359.813" fill="black" font-size="12.8882" font-family="Helvetica">810</text>
<text xml:space="preserve" x="356.252" y="359.813" fill="black" font-size="12.8882" font-family="Helvetica">820</text>
<text xml:space="preserve" x="443.16" y="359.813" fill="black" font-size="12.8882" font-family="Helvetica">830</text>
<text xml:space="preserve" x="481.334" y="373.621" fill="black" font-size="12.8882" font-family="Helvetica">Time</text>
<path d="M57.1929,347.224v -308.643" fill="none" stroke="black"/>
<path d="M70.7992,347.224h -13.6063" fill="none" stroke="black"/>
<path d="M63.9961,336.794h -6.80315" fill="none" stroke="black"/>
<path d="M63.9961,326.364h -6.80315" fill="none" stroke="black"/>
<path d="M63.9961,315.935h -6.80315" fill="none" stroke="black"/>
<path d="M63.9961,305.505h -6.80315" fill="none" stroke="black"/>
<path d="M70.7992,295.075h -13.6063" fill="none" stroke="black"/>
<path d="M63.9961,284.645h -6.80315" fill="none" stroke="black"/>
<path d="M63.9961,274.216h -6.80315" fill="none" stroke="black"/>
<path d="M63.9961,263.786h -6.80315" fill="none" stroke="black"/>
<path d="M63.9961,253.356h -6.80315" fill="none" stroke="black"/>
<path d="M70.7992,242.927h -13.6063" fill="none" stroke="black"/>
<path d="M63.9961,232.497h -6.80315" fill="none" stroke="black"/>
<path d="M63.9961,222.067h -6.80315" fill="none" stroke="black"/>
<path d="M63.9961,211.637h -6.80315" fill="none" stroke="black"/>
<path d="M63.9961,201.208h -6.80315" fill="none" stroke="black"/>
<path d="M70.7992,190.778h -13.6063" fill="none" stroke="black"/>
<path d="M63.9961,180.348h -6.80315" fill="none" stroke="black"/>
<path d="M63.9961,169.918h -6.80315" fill="none" stroke="black"/>
<path d="M63.9961,159.489h -6.80315" fill="none" stroke="black"/>
<path d="M63.9961,149.059h -6.80315" fill="none" stroke="black"/>
<path d="M70.7992,138.629h -13.6063" fill="none" stroke="black"/>
<path d="M63.9961,128.2h -6.80315" fill="none" stroke="black"/>
<path d="M63.9961,117.77h -6.80315" fill="none" stroke="black"/>
<path d="M63.9961,107.34h -6.80315" fill="none" stroke="black"/>
<path d="M63.9961,96.9104h -6.80315" fill="none" stroke="black"/>
<path d="M70.7992,86.4807h -13.6063" fill="none" stroke="black"/>
<path d="M70.7992,86.4807h -13.6063" fill="none" stroke="black"/>
<path d="M63.9961,76.0509h -6.80315" fill="none" stroke="black"/>
<path d="M63.9961,65.6212h -6.80315" fill="none" stroke="black"/>
<path d="M63.9961,55.1915h -6.80315" fill="none" stroke="black"/>
<path d="M63.9961,44.7618h -6.80315" fill="none" stroke="black"/>
<text xml:space="preserve" x="46.7965" y="351.691" fill="black" font-size="12.8882" font-family="Helvetica">0</text>
<text xml:space="preserve" x="32.1766" y="299.709" fill="black" font-size="12.8882" font-family="Helvetica">100</text>
<text xml:space="preserve" x="32.1766" y="247.727" fill="black" font-size="12.8882" font-family="Helvetica">200</text>
<text xml:space="preserve" x="32.1766" y="194.933" fill="black" font-size="12.8882" font-family="Helvetica">300</text>
<text xml:space="preserve" x="32.1766" y="142.951" fill="black" font-size="12.8882" font-family="Helvetica">400</text>
<text xml:space="preserve" x="32.1766" y="90.9686" fill="black" font-size="12.8882" font-family="Helvetica">500</text>
<g transform="rotate(-90,21.6177,71.4753)">
<text xml:space="preserve" x="21.6177" y="71.4753" fill="black" font-size="12.8882" font-family="Helvetica">Event</text>
</g>
<text xml:space="preserve" x="208.428" y="18.681" fill="black" font-size="17.0471" font-family="Helvetica">140mm 36 37 38 39</text></svg>
