<?xml version="1.0" standalone="no"?>
<svg width="567.429" height="384.969" viewBox="0 0 567.429 384.969" xmlns="http://www.w3.org/2000/svg" shape-rendering="crispEdges">
<title>
img/week2/Combined670mm_ch_40_41_42_43.svg
</title>
<desc>
Creator: ROOT Version 6.22/09
CreationDate: Thu Jun 24 12:32:52 2021</desc>
<defs>
</defs>
<rect x="0.5" y="0" width="566.929" height="384.469" fill="white"/>
<rect x="57.1929" y="38.4469" width="453.543" height="307.575" fill="white"/>
<rect x="57.1929" y="38.4469" width="453.543" height="307.575" fill="none" stroke="black"/>
<rect x="57.1929" y="38.4469" width="453.543" height="307.575" fill="white"/>
<rect x="57.1929" y="38.4469" width="453.543" height="307.575" fill="none" stroke="black"/>
<path d="M57.1929,346.022h 90.7087v -1.14425h 30.2362v -5.72127h 30.2362v -21.7408h 30.2362v -115.57h 30.2362v -148.753h 30.2362v 248.303h 30.2362v 44.6259h 181.417" fill="none" stroke="#000099"/>
<g fill="#ff0000">
<polygon points=" 279.729, 48.8577 288.2, 48.8577 283.965, 57.329"/>
</g>
<path d="M59.4606,346.022h 126.992l 4.53543, -0.0546646l 4.53543, -0.0787921l 4.53543, -0.176783l 4.53543, -0.376478l 4.53543, -0.76066l 4.53543, -1.45737l 4.53543, -2.64609l 4.53543, -4.5494l 4.53543, -7.39936l 4.53543, -11.3705l 4.53543, -16.4813l
 4.53543, -22.484l 4.53543, -28.7798l 4.53543, -34.4108l 4.53543, -38.1711l 4.53543, -38.8451l 4.53543, -35.533l 4.53543, -27.9674l 4.53543, -16.7052l 4.53543, -3.1037l 4.53543, 10.9427" fill="none" stroke="#ff0000" stroke-width="2"/>
<path d="M281.697,65.6134l 4.53543, 23.4348l 4.53543, 32.7356l 4.53543, 37.9208l 4.53543, 38.9096l 4.53543, 36.3598l 4.53543, 31.391l 4.53543, 25.2493l 4.53543, 19.0227l 4.53543, 13.472l 4.53543, 8.9917l 4.53543, 5.66639l 4.53543, 3.37629l 4.53543,
 1.90421l 4.53543, 1.01743l 4.53543, 0.515359l 4.53543, 0.247614l 4.53543, 0.112902l 4.53543, 0.0488723l 4.53543, 0.0323738h 136.063" fill="none" stroke="#ff0000" stroke-width="2"/>
<path d="M503.933,346.022h 4.53543" fill="none" stroke="#ff0000" stroke-width="2"/>
<path d="M57.1929,346.022h 453.543" fill="none" stroke="black"/>
<path d="M84.5516,336.795v 9.22726" fill="none" stroke="black"/>
<path d="M99.6623,341.409v 4.61363" fill="none" stroke="black"/>
<path d="M114.773,341.409v 4.61363" fill="none" stroke="black"/>
<path d="M129.884,341.409v 4.61363" fill="none" stroke="black"/>
<path d="M144.995,341.409v 4.61363" fill="none" stroke="black"/>
<path d="M160.105,336.795v 9.22726" fill="none" stroke="black"/>
<path d="M175.216,341.409v 4.61363" fill="none" stroke="black"/>
<path d="M190.327,341.409v 4.61363" fill="none" stroke="black"/>
<path d="M205.437,341.409v 4.61363" fill="none" stroke="black"/>
<path d="M220.548,341.409v 4.61363" fill="none" stroke="black"/>
<path d="M235.659,336.795v 9.22726" fill="none" stroke="black"/>
<path d="M250.77,341.409v 4.61363" fill="none" stroke="black"/>
<path d="M265.88,341.409v 4.61363" fill="none" stroke="black"/>
<path d="M280.991,341.409v 4.61363" fill="none" stroke="black"/>
<path d="M296.102,341.409v 4.61363" fill="none" stroke="black"/>
<path d="M311.213,336.795v 9.22726" fill="none" stroke="black"/>
<path d="M326.323,341.409v 4.61363" fill="none" stroke="black"/>
<path d="M341.434,341.409v 4.61363" fill="none" stroke="black"/>
<path d="M356.545,341.409v 4.61363" fill="none" stroke="black"/>
<path d="M371.656,341.409v 4.61363" fill="none" stroke="black"/>
<path d="M386.766,336.795v 9.22726" fill="none" stroke="black"/>
<path d="M401.877,341.409v 4.61363" fill="none" stroke="black"/>
<path d="M416.988,341.409v 4.61363" fill="none" stroke="black"/>
<path d="M432.098,341.409v 4.61363" fill="none" stroke="black"/>
<path d="M447.209,341.409v 4.61363" fill="none" stroke="black"/>
<path d="M462.32,336.795v 9.22726" fill="none" stroke="black"/>
<path d="M84.5516,336.795v 9.22726" fill="none" stroke="black"/>
<path d="M69.4409,341.409v 4.61363" fill="none" stroke="black"/>
<path d="M462.32,336.795v 9.22726" fill="none" stroke="black"/>
<path d="M477.431,341.409v 4.61363" fill="none" stroke="black"/>
<path d="M492.541,341.409v 4.61363" fill="none" stroke="black"/>
<path d="M507.652,341.409v 4.61363" fill="none" stroke="black"/>
<text xml:space="preserve" x="73.8098" y="358.403" fill="black" font-size="12.8453" font-family="Helvetica">780</text>
<text xml:space="preserve" x="148.749" y="358.403" fill="black" font-size="12.8453" font-family="Helvetica">790</text>
<text xml:space="preserve" x="224.502" y="358.403" fill="black" font-size="12.8453" font-family="Helvetica">800</text>
<text xml:space="preserve" x="300.256" y="358.403" fill="black" font-size="12.8453" font-family="Helvetica">810</text>
<text xml:space="preserve" x="376.009" y="358.403" fill="black" font-size="12.8453" font-family="Helvetica">820</text>
<text xml:space="preserve" x="450.948" y="358.403" fill="black" font-size="12.8453" font-family="Helvetica">830</text>
<text xml:space="preserve" x="460.723" y="370.622" fill="black" font-size="12.8453" font-family="Helvetica">Time [ns]</text>
<path d="M57.1929,346.022v -307.575" fill="none" stroke="black"/>
<path d="M70.7992,346.022h -13.6063" fill="none" stroke="black"/>
<path d="M63.9961,334.58h -6.80315" fill="none" stroke="black"/>
<path d="M63.9961,323.137h -6.80315" fill="none" stroke="black"/>
<path d="M63.9961,311.695h -6.80315" fill="none" stroke="black"/>
<path d="M63.9961,300.252h -6.80315" fill="none" stroke="black"/>
<path d="M70.7992,288.81h -13.6063" fill="none" stroke="black"/>
<path d="M63.9961,277.367h -6.80315" fill="none" stroke="black"/>
<path d="M63.9961,265.924h -6.80315" fill="none" stroke="black"/>
<path d="M63.9961,254.482h -6.80315" fill="none" stroke="black"/>
<path d="M63.9961,243.039h -6.80315" fill="none" stroke="black"/>
<path d="M70.7992,231.597h -13.6063" fill="none" stroke="black"/>
<path d="M63.9961,220.154h -6.80315" fill="none" stroke="black"/>
<path d="M63.9961,208.712h -6.80315" fill="none" stroke="black"/>
<path d="M63.9961,197.269h -6.80315" fill="none" stroke="black"/>
<path d="M63.9961,185.827h -6.80315" fill="none" stroke="black"/>
<path d="M70.7992,174.384h -13.6063" fill="none" stroke="black"/>
<path d="M63.9961,162.942h -6.80315" fill="none" stroke="black"/>
<path d="M63.9961,151.499h -6.80315" fill="none" stroke="black"/>
<path d="M63.9961,140.057h -6.80315" fill="none" stroke="black"/>
<path d="M63.9961,128.614h -6.80315" fill="none" stroke="black"/>
<path d="M70.7992,117.172h -13.6063" fill="none" stroke="black"/>
<path d="M63.9961,105.729h -6.80315" fill="none" stroke="black"/>
<path d="M63.9961,94.2865h -6.80315" fill="none" stroke="black"/>
<path d="M63.9961,82.844h -6.80315" fill="none" stroke="black"/>
<path d="M63.9961,71.4014h -6.80315" fill="none" stroke="black"/>
<path d="M70.7992,59.9589h -13.6063" fill="none" stroke="black"/>
<path d="M70.7992,59.9589h -13.6063" fill="none" stroke="black"/>
<path d="M63.9961,48.5163h -6.80315" fill="none" stroke="black"/>
<text xml:space="preserve" x="47.7441" y="350.258" fill="black" font-size="12.8453" font-family="Helvetica">0</text>
<text xml:space="preserve" x="41.2277" y="293.239" fill="black" font-size="12.8453" font-family="Helvetica">50</text>
<text xml:space="preserve" x="33.8967" y="236.22" fill="black" font-size="12.8453" font-family="Helvetica">100</text>
<text xml:space="preserve" x="33.8967" y="179.202" fill="black" font-size="12.8453" font-family="Helvetica">150</text>
<text xml:space="preserve" x="33.8967" y="121.368" fill="black" font-size="12.8453" font-family="Helvetica">200</text>
<text xml:space="preserve" x="33.8967" y="64.3497" fill="black" font-size="12.8453" font-family="Helvetica">250</text>
<g transform="rotate(-90,20.8638,70.0516)">
<text xml:space="preserve" x="20.8638" y="70.0516" fill="black" font-size="12.8453" font-family="Helvetica">Event</text>
</g>
<text xml:space="preserve" x="208.211" y="18.7347" fill="black" font-size="16.9898" font-family="Helvetica">670mm 40 41 42 43</text></svg>
