<?xml version="1.0" standalone="no"?>
<svg width="567.429" height="384.68" viewBox="0 0 567.429 384.68" xmlns="http://www.w3.org/2000/svg" shape-rendering="crispEdges">
<title>
img/week2/Combined140mm_ch_48_49_50_51.svg
</title>
<desc>
Creator: ROOT Version 6.22/09
CreationDate: Tue Jun 22 18:02:42 2021</desc>
<defs>
</defs>
<rect x="0.5" y="0" width="566.929" height="384.18" fill="white"/>
<rect x="57.1929" y="38.418" width="453.543" height="307.344" fill="white"/>
<rect x="57.1929" y="38.418" width="453.543" height="307.344" fill="none" stroke="black"/>
<rect x="57.1929" y="38.418" width="453.543" height="307.344" fill="white"/>
<rect x="57.1929" y="38.418" width="453.543" height="307.344" fill="none" stroke="black"/>
<path d="M57.1929,345.762h 90.7087v -2.598h 30.2362v -0.866001h 30.2362v -12.99h 30.2362v -98.7241h 30.2362v -177.53h 30.2362v 219.098h 30.2362v 73.6101h 181.417" fill="none" stroke="#000099"/>
<g fill="#ff0000">
<polygon points=" 279.741, 48.8299 288.188, 48.8299 283.965, 57.2769"/>
</g>
<path d="M59.4606,345.762h 126.992l 4.53543, -0.0325877l 4.53543, -0.0473202l 4.53543, -0.107097l 4.53543, -0.230675l 4.53543, -0.47267l 4.53543, -0.921011l 4.53543, -1.70567l 4.53543, -3.00037l 4.53543, -5.00917l 4.53543, -7.92939l 4.53543,
 -11.8864l 4.53543, -16.8456l 4.53543, -22.5207l 4.53543, -28.3137l 4.53543, -33.3267l 4.53543, -36.4755l 4.53543, -36.7065l 4.53543, -33.2755l 4.53543, -26.0081l 4.53543, -15.4478l 4.53543, -2.8212" fill="none" stroke="#ff0000" stroke-width="2"/>
<path d="M281.697,62.6782l 4.53543, 10.1911l 4.53543, 21.8221l 4.53543, 30.6121l 4.53543, 35.7083l 4.53543, 36.9857l 4.53543, 34.9715l 4.53543, 30.6215l 4.53543, 25.0384l 4.53543, 19.2207l 4.53543, 13.9018l 4.53543, 9.49777l 4.53543, 6.14082l
 4.53543, 3.76268l 4.53543, 2.1873l 4.53543, 1.20735l 4.53543, 0.633241l 4.53543, 0.315764l 4.53543, 0.149767l 4.53543, 0.0675924l 4.53543, 0.0481614h 131.528" fill="none" stroke="#ff0000" stroke-width="2"/>
<path d="M503.933,345.762h 4.53543" fill="none" stroke="#ff0000" stroke-width="2"/>
<rect x="351.996" y="24.9717" width="204.094" height="107.57" fill="white"/>
<path d="M351.996,132.542h 204.094" fill="none" stroke="black"/>
<path d="M556.091,132.542v -107.57" fill="none" stroke="black"/>
<path d="M556.091,24.9717h -204.094" fill="none" stroke="black"/>
<path d="M351.996,24.9717v 107.57" fill="none" stroke="black"/>
<text xml:space="preserve" x="361.938" y="38.9865" fill="black" font-size="15.6322" font-family="Helvetica">Entries </text>
<text xml:space="preserve" x="515.447" y="38.9865" fill="black" font-size="15.6322" font-family="Helvetica"> 585</text>
<text xml:space="preserve" x="375.745" y="56.8554" fill="black" font-size="15.6322" font-family="Helvetica"> / ndf </text>
<text xml:space="preserve" x="370.06" y="51.982" fill="black" font-size="10.5881" font-family="Helvetica">2</text>
<text xml:space="preserve" x="361.938" y="56.8554" fill="black" font-size="15.6322" font-family="Times">&#0967;</text>
<text xml:space="preserve" x="481.334" y="56.8554" fill="black" font-size="15.6322" font-family="Helvetica"> 16.12 / 4</text>
<text xml:space="preserve" x="361.938" y="74.7242" fill="black" font-size="15.6322" font-family="Helvetica">Prob  </text>
<text xml:space="preserve" x="477.273" y="74.7242" fill="black" font-size="15.6322" font-family="Helvetica"> 0.002859</text>
<text xml:space="preserve" x="361.938" y="94.2175" fill="black" font-size="15.6322" font-family="Helvetica">Const    </text>
<text xml:space="preserve" x="511.386" y="93.4052" fill="black" font-size="15.6322" font-family="Helvetica"> 19.4</text>
<text xml:space="preserve" x="502.452" y="93.4052" fill="black" font-size="15.6322" font-family="Times">&#0177;</text>
<text xml:space="preserve" x="455.343" y="93.4052" fill="black" font-size="15.6322" font-family="Helvetica"> 327.5 </text>
<text xml:space="preserve" x="361.938" y="111.274" fill="black" font-size="15.6322" font-family="Helvetica">Mean     </text>
<text xml:space="preserve" x="522.757" y="111.274" fill="black" font-size="15.6322" font-family="Helvetica"> 0.1</text>
<text xml:space="preserve" x="513.823" y="111.274" fill="black" font-size="15.6322" font-family="Times">&#0177;</text>
<text xml:space="preserve" x="466.714" y="111.274" fill="black" font-size="15.6322" font-family="Helvetica"> 809.9 </text>
<text xml:space="preserve" x="361.938" y="128.331" fill="black" font-size="15.6322" font-family="Helvetica">Sigma    </text>
<text xml:space="preserve" x="503.264" y="129.143" fill="black" font-size="15.6322" font-family="Helvetica"> 0.122</text>
<text xml:space="preserve" x="494.329" y="129.143" fill="black" font-size="15.6322" font-family="Times">&#0177;</text>
<text xml:space="preserve" x="447.221" y="129.143" fill="black" font-size="15.6322" font-family="Helvetica"> 2.778 </text>
<path d="M57.1929,345.762h 453.543" fill="none" stroke="black"/>
<path d="M129.869,336.541v 9.22031" fill="none" stroke="black"/>
<path d="M144.98,341.152v 4.61016" fill="none" stroke="black"/>
<path d="M160.09,341.152v 4.61016" fill="none" stroke="black"/>
<path d="M175.201,341.152v 4.61016" fill="none" stroke="black"/>
<path d="M190.312,341.152v 4.61016" fill="none" stroke="black"/>
<path d="M205.423,336.541v 9.22031" fill="none" stroke="black"/>
<path d="M220.533,341.152v 4.61016" fill="none" stroke="black"/>
<path d="M235.644,341.152v 4.61016" fill="none" stroke="black"/>
<path d="M250.755,341.152v 4.61016" fill="none" stroke="black"/>
<path d="M265.866,341.152v 4.61016" fill="none" stroke="black"/>
<path d="M280.976,336.541v 9.22031" fill="none" stroke="black"/>
<path d="M296.087,341.152v 4.61016" fill="none" stroke="black"/>
<path d="M311.198,341.152v 4.61016" fill="none" stroke="black"/>
<path d="M326.309,341.152v 4.61016" fill="none" stroke="black"/>
<path d="M341.419,341.152v 4.61016" fill="none" stroke="black"/>
<path d="M356.53,336.541v 9.22031" fill="none" stroke="black"/>
<path d="M371.641,341.152v 4.61016" fill="none" stroke="black"/>
<path d="M386.751,341.152v 4.61016" fill="none" stroke="black"/>
<path d="M401.862,341.152v 4.61016" fill="none" stroke="black"/>
<path d="M416.973,341.152v 4.61016" fill="none" stroke="black"/>
<path d="M432.084,336.541v 9.22031" fill="none" stroke="black"/>
<path d="M447.194,341.152v 4.61016" fill="none" stroke="black"/>
<path d="M462.305,341.152v 4.61016" fill="none" stroke="black"/>
<path d="M477.416,341.152v 4.61016" fill="none" stroke="black"/>
<path d="M492.527,341.152v 4.61016" fill="none" stroke="black"/>
<path d="M507.637,336.541v 9.22031" fill="none" stroke="black"/>
<path d="M129.869,336.541v 9.22031" fill="none" stroke="black"/>
<path d="M114.758,341.152v 4.61016" fill="none" stroke="black"/>
<path d="M99.6476,341.152v 4.61016" fill="none" stroke="black"/>
<path d="M84.5368,341.152v 4.61016" fill="none" stroke="black"/>
<path d="M69.4261,341.152v 4.61016" fill="none" stroke="black"/>
<path d="M507.637,336.541v 9.22031" fill="none" stroke="black"/>
<text xml:space="preserve" x="119.084" y="358.189" fill="black" font-size="12.836" font-family="Helvetica">790</text>
<text xml:space="preserve" x="194.62" y="358.189" fill="black" font-size="12.836" font-family="Helvetica">800</text>
<text xml:space="preserve" x="270.157" y="358.189" fill="black" font-size="12.836" font-family="Helvetica">810</text>
<text xml:space="preserve" x="345.693" y="358.189" fill="black" font-size="12.836" font-family="Helvetica">820</text>
<text xml:space="preserve" x="421.23" y="358.189" fill="black" font-size="12.836" font-family="Helvetica">830</text>
<text xml:space="preserve" x="496.766" y="358.189" fill="black" font-size="12.836" font-family="Helvetica">840</text>
<text xml:space="preserve" x="461.028" y="370.372" fill="black" font-size="12.836" font-family="Helvetica">Time [ps]</text>
<path d="M57.1929,345.762v -307.344" fill="none" stroke="black"/>
<path d="M70.7992,345.762h -13.6063" fill="none" stroke="black"/>
<path d="M63.9961,337.102h -6.80315" fill="none" stroke="black"/>
<path d="M63.9961,328.442h -6.80315" fill="none" stroke="black"/>
<path d="M63.9961,319.782h -6.80315" fill="none" stroke="black"/>
<path d="M63.9961,311.122h -6.80315" fill="none" stroke="black"/>
<path d="M70.7992,302.462h -13.6063" fill="none" stroke="black"/>
<path d="M63.9961,293.802h -6.80315" fill="none" stroke="black"/>
<path d="M63.9961,285.142h -6.80315" fill="none" stroke="black"/>
<path d="M63.9961,276.482h -6.80315" fill="none" stroke="black"/>
<path d="M63.9961,267.822h -6.80315" fill="none" stroke="black"/>
<path d="M70.7992,259.162h -13.6063" fill="none" stroke="black"/>
<path d="M63.9961,250.502h -6.80315" fill="none" stroke="black"/>
<path d="M63.9961,241.842h -6.80315" fill="none" stroke="black"/>
<path d="M63.9961,233.182h -6.80315" fill="none" stroke="black"/>
<path d="M63.9961,224.522h -6.80315" fill="none" stroke="black"/>
<path d="M70.7992,215.862h -13.6063" fill="none" stroke="black"/>
<path d="M63.9961,207.202h -6.80315" fill="none" stroke="black"/>
<path d="M63.9961,198.542h -6.80315" fill="none" stroke="black"/>
<path d="M63.9961,189.882h -6.80315" fill="none" stroke="black"/>
<path d="M63.9961,181.222h -6.80315" fill="none" stroke="black"/>
<path d="M70.7992,172.562h -13.6063" fill="none" stroke="black"/>
<path d="M63.9961,163.902h -6.80315" fill="none" stroke="black"/>
<path d="M63.9961,155.242h -6.80315" fill="none" stroke="black"/>
<path d="M63.9961,146.582h -6.80315" fill="none" stroke="black"/>
<path d="M63.9961,137.922h -6.80315" fill="none" stroke="black"/>
<path d="M70.7992,129.262h -13.6063" fill="none" stroke="black"/>
<path d="M63.9961,120.601h -6.80315" fill="none" stroke="black"/>
<path d="M63.9961,111.941h -6.80315" fill="none" stroke="black"/>
<path d="M63.9961,103.281h -6.80315" fill="none" stroke="black"/>
<path d="M63.9961,94.6215h -6.80315" fill="none" stroke="black"/>
<path d="M70.7992,85.9614h -13.6063" fill="none" stroke="black"/>
<path d="M63.9961,77.3014h -6.80315" fill="none" stroke="black"/>
<path d="M63.9961,68.6414h -6.80315" fill="none" stroke="black"/>
<path d="M63.9961,59.9814h -6.80315" fill="none" stroke="black"/>
<path d="M63.9961,51.3214h -6.80315" fill="none" stroke="black"/>
<path d="M70.7992,42.6614h -13.6063" fill="none" stroke="black"/>
<path d="M70.7992,42.6614h -13.6063" fill="none" stroke="black"/>
<text xml:space="preserve" x="47.6087" y="350.067" fill="black" font-size="12.836" font-family="Helvetica">0</text>
<text xml:space="preserve" x="41.111" y="307.019" fill="black" font-size="12.836" font-family="Helvetica">50</text>
<text xml:space="preserve" x="33.801" y="263.971" fill="black" font-size="12.836" font-family="Helvetica">100</text>
<text xml:space="preserve" x="33.801" y="220.111" fill="black" font-size="12.836" font-family="Helvetica">150</text>
<text xml:space="preserve" x="33.801" y="177.064" fill="black" font-size="12.836" font-family="Helvetica">200</text>
<text xml:space="preserve" x="33.801" y="134.016" fill="black" font-size="12.836" font-family="Helvetica">250</text>
<text xml:space="preserve" x="33.801" y="90.1564" fill="black" font-size="12.836" font-family="Helvetica">300</text>
<text xml:space="preserve" x="33.801" y="47.1087" fill="black" font-size="12.836" font-family="Helvetica">350</text>
<g transform="rotate(-90,20.8055,69.8509)">
<text xml:space="preserve" x="20.8055" y="69.8509" fill="black" font-size="12.836" font-family="Helvetica">Event</text>
</g>
<rect x="351.996" y="24.9717" width="204.094" height="107.57" fill="white"/>
<path d="M351.996,132.542h 204.094" fill="none" stroke="black"/>
<path d="M556.091,132.542v -107.57" fill="none" stroke="black"/>
<path d="M556.091,24.9717h -204.094" fill="none" stroke="black"/>
<path d="M351.996,24.9717v 107.57" fill="none" stroke="black"/>
<text xml:space="preserve" x="361.938" y="38.9865" fill="black" font-size="15.6322" font-family="Helvetica">Entries </text>
<text xml:space="preserve" x="515.447" y="38.9865" fill="black" font-size="15.6322" font-family="Helvetica"> 585</text>
<text xml:space="preserve" x="375.745" y="56.8554" fill="black" font-size="15.6322" font-family="Helvetica"> / ndf </text>
<text xml:space="preserve" x="370.06" y="51.982" fill="black" font-size="10.5881" font-family="Helvetica">2</text>
<text xml:space="preserve" x="361.938" y="56.8554" fill="black" font-size="15.6322" font-family="Times">&#0967;</text>
<text xml:space="preserve" x="481.334" y="56.8554" fill="black" font-size="15.6322" font-family="Helvetica"> 16.12 / 4</text>
<text xml:space="preserve" x="361.938" y="74.7242" fill="black" font-size="15.6322" font-family="Helvetica">Prob  </text>
<text xml:space="preserve" x="477.273" y="74.7242" fill="black" font-size="15.6322" font-family="Helvetica"> 0.002859</text>
<text xml:space="preserve" x="361.938" y="94.2175" fill="black" font-size="15.6322" font-family="Helvetica">Const    </text>
<text xml:space="preserve" x="511.386" y="93.4052" fill="black" font-size="15.6322" font-family="Helvetica"> 19.4</text>
<text xml:space="preserve" x="502.452" y="93.4052" fill="black" font-size="15.6322" font-family="Times">&#0177;</text>
<text xml:space="preserve" x="455.343" y="93.4052" fill="black" font-size="15.6322" font-family="Helvetica"> 327.5 </text>
<text xml:space="preserve" x="361.938" y="111.274" fill="black" font-size="15.6322" font-family="Helvetica">Mean     </text>
<text xml:space="preserve" x="522.757" y="111.274" fill="black" font-size="15.6322" font-family="Helvetica"> 0.1</text>
<text xml:space="preserve" x="513.823" y="111.274" fill="black" font-size="15.6322" font-family="Times">&#0177;</text>
<text xml:space="preserve" x="466.714" y="111.274" fill="black" font-size="15.6322" font-family="Helvetica"> 809.9 </text>
<text xml:space="preserve" x="361.938" y="128.331" fill="black" font-size="15.6322" font-family="Helvetica">Sigma    </text>
<text xml:space="preserve" x="503.264" y="129.143" fill="black" font-size="15.6322" font-family="Helvetica"> 0.122</text>
<text xml:space="preserve" x="494.329" y="129.143" fill="black" font-size="15.6322" font-family="Times">&#0177;</text>
<text xml:space="preserve" x="447.221" y="129.143" fill="black" font-size="15.6322" font-family="Helvetica"> 2.778 </text>
<text xml:space="preserve" x="209.24" y="18.681" fill="black" font-size="16.9774" font-family="Helvetica">140mm 48 49 50 51</text></svg>
