<?xml version="1.0" standalone="no"?>
<svg width="567.429" height="384.969" viewBox="0 0 567.429 384.969" xmlns="http://www.w3.org/2000/svg" shape-rendering="crispEdges">
<title>
img/week2/Combined560mm_ch_40_41_42_43.svg
</title>
<desc>
Creator: ROOT Version 6.22/09
CreationDate: Thu Jun 24 12:32:52 2021</desc>
<defs>
</defs>
<rect x="0.5" y="0" width="566.929" height="384.469" fill="white"/>
<rect x="57.1929" y="38.4469" width="453.543" height="307.575" fill="white"/>
<rect x="57.1929" y="38.4469" width="453.543" height="307.575" fill="none" stroke="black"/>
<rect x="57.1929" y="38.4469" width="453.543" height="307.575" fill="white"/>
<rect x="57.1929" y="38.4469" width="453.543" height="307.575" fill="none" stroke="black"/>
<path d="M57.1929,346.022h 32.396v -1.80264h 32.396v 1.80264h 32.396v -0.90132h 32.396v -1.80264h 32.396v -17.1251h 32.396v -99.1452h 32.396v -173.955h 32.396v 239.751h 32.396v 51.3752h 32.396v 1.80264h 129.584" fill="none" stroke="#000099"/>
<g fill="#ff0000">
<polygon points=" 295.927, 48.8577 304.398, 48.8577 300.163, 57.329"/>
</g>
<path d="M59.4606,346.022h 140.598l 4.53543, -0.0384768l 4.53543, -0.0540514l 4.53543, -0.120102l 4.53543, -0.254302l 4.53543, -0.512918l 4.53543, -0.985059l 4.53543, -1.80041l 4.53543, -3.12975l 4.53543, -5.17061l 4.53543, -8.11064l 4.53543,
 -12.0647l 4.53543, -16.9916l 4.53543, -22.6087l 4.53543, -28.3367l 4.53543, -33.3115l 4.53543, -36.4909l 4.53543, -36.8563l 4.53543, -33.6734" fill="none" stroke="#ff0000" stroke-width="2"/>
<path d="M281.697,105.512l 4.53543, -26.7388l 4.53543, -16.5269l 4.53543, -4.17068l 4.53543, 8.74024l 4.53543, 20.4949l 4.53543, 29.6337l 4.53543, 35.245l 4.53543, 37.1041l 4.53543, 35.628l 4.53543, 31.6833l 4.53543, 26.3254l 4.53543, 20.5514l
 4.53543, 15.1305l 4.53543, 10.5331l 4.53543, 6.94678l 4.53543, 4.34676l 4.53543, 2.58338l 4.53543, 1.4596l 4.53543, 0.78453l 4.53543, 0.401388l 4.53543, 0.195571l 4.53543, 0.0907825l 4.53543, 0.0679704h 117.921" fill="none" stroke="#ff0000"
 stroke-width="2"/>
<path d="M503.933,346.022h 4.53543" fill="none" stroke="#ff0000" stroke-width="2"/>
<path d="M57.1929,346.022h 453.543" fill="none" stroke="black"/>
<path d="M86.5058,336.795v 9.22726" fill="none" stroke="black"/>
<path d="M102.696,341.409v 4.61363" fill="none" stroke="black"/>
<path d="M118.886,341.409v 4.61363" fill="none" stroke="black"/>
<path d="M135.076,341.409v 4.61363" fill="none" stroke="black"/>
<path d="M151.266,341.409v 4.61363" fill="none" stroke="black"/>
<path d="M167.456,336.795v 9.22726" fill="none" stroke="black"/>
<path d="M183.646,341.409v 4.61363" fill="none" stroke="black"/>
<path d="M199.836,341.409v 4.61363" fill="none" stroke="black"/>
<path d="M216.026,341.409v 4.61363" fill="none" stroke="black"/>
<path d="M232.216,341.409v 4.61363" fill="none" stroke="black"/>
<path d="M248.406,336.795v 9.22726" fill="none" stroke="black"/>
<path d="M264.597,341.409v 4.61363" fill="none" stroke="black"/>
<path d="M280.787,341.409v 4.61363" fill="none" stroke="black"/>
<path d="M296.977,341.409v 4.61363" fill="none" stroke="black"/>
<path d="M313.167,341.409v 4.61363" fill="none" stroke="black"/>
<path d="M329.357,336.795v 9.22726" fill="none" stroke="black"/>
<path d="M345.547,341.409v 4.61363" fill="none" stroke="black"/>
<path d="M361.737,341.409v 4.61363" fill="none" stroke="black"/>
<path d="M377.927,341.409v 4.61363" fill="none" stroke="black"/>
<path d="M394.117,341.409v 4.61363" fill="none" stroke="black"/>
<path d="M410.307,336.795v 9.22726" fill="none" stroke="black"/>
<path d="M426.497,341.409v 4.61363" fill="none" stroke="black"/>
<path d="M442.687,341.409v 4.61363" fill="none" stroke="black"/>
<path d="M458.877,341.409v 4.61363" fill="none" stroke="black"/>
<path d="M475.067,341.409v 4.61363" fill="none" stroke="black"/>
<path d="M491.258,336.795v 9.22726" fill="none" stroke="black"/>
<path d="M86.5058,336.795v 9.22726" fill="none" stroke="black"/>
<path d="M70.3157,341.409v 4.61363" fill="none" stroke="black"/>
<path d="M491.258,336.795v 9.22726" fill="none" stroke="black"/>
<path d="M507.448,341.409v 4.61363" fill="none" stroke="black"/>
<text xml:space="preserve" x="75.4389" y="358.403" fill="black" font-size="12.8453" font-family="Helvetica">780</text>
<text xml:space="preserve" x="156.08" y="358.403" fill="black" font-size="12.8453" font-family="Helvetica">790</text>
<text xml:space="preserve" x="237.535" y="358.403" fill="black" font-size="12.8453" font-family="Helvetica">800</text>
<text xml:space="preserve" x="318.176" y="358.403" fill="black" font-size="12.8453" font-family="Helvetica">810</text>
<text xml:space="preserve" x="399.631" y="358.403" fill="black" font-size="12.8453" font-family="Helvetica">820</text>
<text xml:space="preserve" x="480.272" y="358.403" fill="black" font-size="12.8453" font-family="Helvetica">830</text>
<text xml:space="preserve" x="460.723" y="370.622" fill="black" font-size="12.8453" font-family="Helvetica">Time [ns]</text>
<path d="M57.1929,346.022v -307.575" fill="none" stroke="black"/>
<path d="M70.7992,346.022h -13.6063" fill="none" stroke="black"/>
<path d="M63.9961,337.009h -6.80315" fill="none" stroke="black"/>
<path d="M63.9961,327.996h -6.80315" fill="none" stroke="black"/>
<path d="M63.9961,318.983h -6.80315" fill="none" stroke="black"/>
<path d="M63.9961,309.969h -6.80315" fill="none" stroke="black"/>
<path d="M70.7992,300.956h -13.6063" fill="none" stroke="black"/>
<path d="M63.9961,291.943h -6.80315" fill="none" stroke="black"/>
<path d="M63.9961,282.93h -6.80315" fill="none" stroke="black"/>
<path d="M63.9961,273.917h -6.80315" fill="none" stroke="black"/>
<path d="M63.9961,264.903h -6.80315" fill="none" stroke="black"/>
<path d="M70.7992,255.89h -13.6063" fill="none" stroke="black"/>
<path d="M63.9961,246.877h -6.80315" fill="none" stroke="black"/>
<path d="M63.9961,237.864h -6.80315" fill="none" stroke="black"/>
<path d="M63.9961,228.851h -6.80315" fill="none" stroke="black"/>
<path d="M63.9961,219.838h -6.80315" fill="none" stroke="black"/>
<path d="M70.7992,210.824h -13.6063" fill="none" stroke="black"/>
<path d="M63.9961,201.811h -6.80315" fill="none" stroke="black"/>
<path d="M63.9961,192.798h -6.80315" fill="none" stroke="black"/>
<path d="M63.9961,183.785h -6.80315" fill="none" stroke="black"/>
<path d="M63.9961,174.772h -6.80315" fill="none" stroke="black"/>
<path d="M70.7992,165.758h -13.6063" fill="none" stroke="black"/>
<path d="M63.9961,156.745h -6.80315" fill="none" stroke="black"/>
<path d="M63.9961,147.732h -6.80315" fill="none" stroke="black"/>
<path d="M63.9961,138.719h -6.80315" fill="none" stroke="black"/>
<path d="M63.9961,129.706h -6.80315" fill="none" stroke="black"/>
<path d="M70.7992,120.692h -13.6063" fill="none" stroke="black"/>
<path d="M63.9961,111.679h -6.80315" fill="none" stroke="black"/>
<path d="M63.9961,102.666h -6.80315" fill="none" stroke="black"/>
<path d="M63.9961,93.6527h -6.80315" fill="none" stroke="black"/>
<path d="M63.9961,84.6395h -6.80315" fill="none" stroke="black"/>
<path d="M70.7992,75.6264h -13.6063" fill="none" stroke="black"/>
<path d="M70.7992,75.6264h -13.6063" fill="none" stroke="black"/>
<path d="M63.9961,66.6132h -6.80315" fill="none" stroke="black"/>
<path d="M63.9961,57.6h -6.80315" fill="none" stroke="black"/>
<path d="M63.9961,48.5868h -6.80315" fill="none" stroke="black"/>
<path d="M63.9961,39.5736h -6.80315" fill="none" stroke="black"/>
<text xml:space="preserve" x="47.7441" y="350.258" fill="black" font-size="12.8453" font-family="Helvetica">0</text>
<text xml:space="preserve" x="41.2277" y="305.457" fill="black" font-size="12.8453" font-family="Helvetica">50</text>
<text xml:space="preserve" x="33.8967" y="260.657" fill="black" font-size="12.8453" font-family="Helvetica">100</text>
<text xml:space="preserve" x="33.8967" y="215.042" fill="black" font-size="12.8453" font-family="Helvetica">150</text>
<text xml:space="preserve" x="33.8967" y="170.242" fill="black" font-size="12.8453" font-family="Helvetica">200</text>
<text xml:space="preserve" x="33.8967" y="125.441" fill="black" font-size="12.8453" font-family="Helvetica">250</text>
<text xml:space="preserve" x="33.8967" y="79.8262" fill="black" font-size="12.8453" font-family="Helvetica">300</text>
<g transform="rotate(-90,20.8638,70.0516)">
<text xml:space="preserve" x="20.8638" y="70.0516" fill="black" font-size="12.8453" font-family="Helvetica">Event</text>
</g>
<text xml:space="preserve" x="208.211" y="18.7347" fill="black" font-size="16.9898" font-family="Helvetica">560mm 40 41 42 43</text></svg>
