<?xml version="1.0" standalone="no"?>
<svg width="567.429" height="384.969" viewBox="0 0 567.429 384.969" xmlns="http://www.w3.org/2000/svg" shape-rendering="crispEdges">
<title>
img/week2/Combined560mm_ch_4.svg
</title>
<desc>
Creator: ROOT Version 6.22/09
CreationDate: Thu Jun 24 12:07:47 2021</desc>
<defs>
</defs>
<rect x="0.5" y="0" width="566.929" height="384.469" fill="white"/>
<rect x="57.1929" y="38.4469" width="453.543" height="307.575" fill="white"/>
<rect x="57.1929" y="38.4469" width="453.543" height="307.575" fill="none" stroke="black"/>
<rect x="57.1929" y="38.4469" width="453.543" height="307.575" fill="white"/>
<rect x="57.1929" y="38.4469" width="453.543" height="307.575" fill="none" stroke="black"/>
<path d="M57.1929,346.022h 113.386v -6.8123h 56.6929v -95.3722h 28.3465v -190.744h 28.3465v 156.683h 28.3465v 136.246h 198.425" fill="none" stroke="#000099"/>
<g fill="#ff0000">
<polygon points=" 265.556, 48.8577 274.027, 48.8577 269.791, 57.329"/>
</g>
<path d="M59.4606,346.022h 117.921l 4.53543, -0.0363759l 4.53543, -0.0515765l 4.53543, -0.115224l 4.53543, -0.245248l 4.53543, -0.497153l 4.53543, -0.959428l 4.53543, -1.76179l 4.53543, -3.07644l 4.53543, -5.10467l 4.53543, -8.04078l 4.53543,
 -12.0092l 4.53543, -16.9796l 4.53543, -22.6787l 4.53543, -28.5307l 4.53543, -33.6645l 4.53543, -37.0182l 4.53543, -37.5424l 4.53543, -34.466l 4.53543, -27.5528l 4.53543, -17.2588l 4.53543, -4.71933l 4.53543, 8.45017l 4.53543, 20.4963" fill="none"
 stroke="#ff0000" stroke-width="2"/>
<path d="M281.697,82.6599l 4.53543, 29.9109l 4.53543, 35.7405l 4.53543, 37.7344l 4.53543, 36.304l 4.53543, 32.3282l 4.53543, 26.8857l 4.53543, 21.0004l 4.53543, 15.4649l 4.53543, 10.7656l 4.53543, 7.0981l 4.53543, 4.43912l 4.53543, 2.63628l 4.53543,
 1.48803l 4.53543, 0.798853l 4.53543, 0.408139l 4.53543, 0.198538l 4.53543, 0.0919911l 4.53543, 0.0686279h 140.598" fill="none" stroke="#ff0000" stroke-width="2"/>
<path d="M503.933,346.022h 4.53543" fill="none" stroke="#ff0000" stroke-width="2"/>
<path d="M57.1929,346.022h 453.543" fill="none" stroke="black"/>
<path d="M125.327,336.795v 9.22726" fill="none" stroke="black"/>
<path d="M139.493,341.409v 4.61363" fill="none" stroke="black"/>
<path d="M153.659,341.409v 4.61363" fill="none" stroke="black"/>
<path d="M167.826,341.409v 4.61363" fill="none" stroke="black"/>
<path d="M181.992,341.409v 4.61363" fill="none" stroke="black"/>
<path d="M196.158,336.795v 9.22726" fill="none" stroke="black"/>
<path d="M210.325,341.409v 4.61363" fill="none" stroke="black"/>
<path d="M224.491,341.409v 4.61363" fill="none" stroke="black"/>
<path d="M238.657,341.409v 4.61363" fill="none" stroke="black"/>
<path d="M252.824,341.409v 4.61363" fill="none" stroke="black"/>
<path d="M266.99,336.795v 9.22726" fill="none" stroke="black"/>
<path d="M281.156,341.409v 4.61363" fill="none" stroke="black"/>
<path d="M295.323,341.409v 4.61363" fill="none" stroke="black"/>
<path d="M309.489,341.409v 4.61363" fill="none" stroke="black"/>
<path d="M323.655,341.409v 4.61363" fill="none" stroke="black"/>
<path d="M337.821,336.795v 9.22726" fill="none" stroke="black"/>
<path d="M351.988,341.409v 4.61363" fill="none" stroke="black"/>
<path d="M366.154,341.409v 4.61363" fill="none" stroke="black"/>
<path d="M380.32,341.409v 4.61363" fill="none" stroke="black"/>
<path d="M394.487,341.409v 4.61363" fill="none" stroke="black"/>
<path d="M408.653,336.795v 9.22726" fill="none" stroke="black"/>
<path d="M422.819,341.409v 4.61363" fill="none" stroke="black"/>
<path d="M436.986,341.409v 4.61363" fill="none" stroke="black"/>
<path d="M451.152,341.409v 4.61363" fill="none" stroke="black"/>
<path d="M465.318,341.409v 4.61363" fill="none" stroke="black"/>
<path d="M479.485,336.795v 9.22726" fill="none" stroke="black"/>
<path d="M125.327,336.795v 9.22726" fill="none" stroke="black"/>
<path d="M111.16,341.409v 4.61363" fill="none" stroke="black"/>
<path d="M96.9942,341.409v 4.61363" fill="none" stroke="black"/>
<path d="M82.8279,341.409v 4.61363" fill="none" stroke="black"/>
<path d="M68.6615,341.409v 4.61363" fill="none" stroke="black"/>
<path d="M479.485,336.795v 9.22726" fill="none" stroke="black"/>
<path d="M493.651,341.409v 4.61363" fill="none" stroke="black"/>
<path d="M507.817,341.409v 4.61363" fill="none" stroke="black"/>
<text xml:space="preserve" x="114.537" y="358.403" fill="black" font-size="12.8453" font-family="Helvetica">790</text>
<text xml:space="preserve" x="185.404" y="358.403" fill="black" font-size="12.8453" font-family="Helvetica">800</text>
<text xml:space="preserve" x="256.27" y="358.403" fill="black" font-size="12.8453" font-family="Helvetica">810</text>
<text xml:space="preserve" x="327.136" y="358.403" fill="black" font-size="12.8453" font-family="Helvetica">820</text>
<text xml:space="preserve" x="398.002" y="358.403" fill="black" font-size="12.8453" font-family="Helvetica">830</text>
<text xml:space="preserve" x="468.868" y="358.403" fill="black" font-size="12.8453" font-family="Helvetica">840</text>
<text xml:space="preserve" x="460.723" y="370.622" fill="black" font-size="12.8453" font-family="Helvetica">Time [ps]</text>
<path d="M57.1929,346.022v -307.575" fill="none" stroke="black"/>
<path d="M70.7992,346.022h -13.6063" fill="none" stroke="black"/>
<path d="M63.9961,339.21h -6.80315" fill="none" stroke="black"/>
<path d="M63.9961,332.398h -6.80315" fill="none" stroke="black"/>
<path d="M63.9961,325.585h -6.80315" fill="none" stroke="black"/>
<path d="M63.9961,318.773h -6.80315" fill="none" stroke="black"/>
<path d="M70.7992,311.961h -13.6063" fill="none" stroke="black"/>
<path d="M63.9961,305.148h -6.80315" fill="none" stroke="black"/>
<path d="M63.9961,298.336h -6.80315" fill="none" stroke="black"/>
<path d="M63.9961,291.524h -6.80315" fill="none" stroke="black"/>
<path d="M63.9961,284.712h -6.80315" fill="none" stroke="black"/>
<path d="M70.7992,277.899h -13.6063" fill="none" stroke="black"/>
<path d="M63.9961,271.087h -6.80315" fill="none" stroke="black"/>
<path d="M63.9961,264.275h -6.80315" fill="none" stroke="black"/>
<path d="M63.9961,257.462h -6.80315" fill="none" stroke="black"/>
<path d="M63.9961,250.65h -6.80315" fill="none" stroke="black"/>
<path d="M70.7992,243.838h -13.6063" fill="none" stroke="black"/>
<path d="M63.9961,237.025h -6.80315" fill="none" stroke="black"/>
<path d="M63.9961,230.213h -6.80315" fill="none" stroke="black"/>
<path d="M63.9961,223.401h -6.80315" fill="none" stroke="black"/>
<path d="M63.9961,216.589h -6.80315" fill="none" stroke="black"/>
<path d="M70.7992,209.776h -13.6063" fill="none" stroke="black"/>
<path d="M63.9961,202.964h -6.80315" fill="none" stroke="black"/>
<path d="M63.9961,196.152h -6.80315" fill="none" stroke="black"/>
<path d="M63.9961,189.339h -6.80315" fill="none" stroke="black"/>
<path d="M63.9961,182.527h -6.80315" fill="none" stroke="black"/>
<path d="M70.7992,175.715h -13.6063" fill="none" stroke="black"/>
<path d="M63.9961,168.902h -6.80315" fill="none" stroke="black"/>
<path d="M63.9961,162.09h -6.80315" fill="none" stroke="black"/>
<path d="M63.9961,155.278h -6.80315" fill="none" stroke="black"/>
<path d="M63.9961,148.466h -6.80315" fill="none" stroke="black"/>
<path d="M70.7992,141.653h -13.6063" fill="none" stroke="black"/>
<path d="M63.9961,134.841h -6.80315" fill="none" stroke="black"/>
<path d="M63.9961,128.029h -6.80315" fill="none" stroke="black"/>
<path d="M63.9961,121.216h -6.80315" fill="none" stroke="black"/>
<path d="M63.9961,114.404h -6.80315" fill="none" stroke="black"/>
<path d="M70.7992,107.592h -13.6063" fill="none" stroke="black"/>
<path d="M63.9961,100.779h -6.80315" fill="none" stroke="black"/>
<path d="M63.9961,93.9672h -6.80315" fill="none" stroke="black"/>
<path d="M63.9961,87.1549h -6.80315" fill="none" stroke="black"/>
<path d="M63.9961,80.3426h -6.80315" fill="none" stroke="black"/>
<path d="M70.7992,73.5303h -13.6063" fill="none" stroke="black"/>
<path d="M63.9961,66.718h -6.80315" fill="none" stroke="black"/>
<path d="M63.9961,59.9057h -6.80315" fill="none" stroke="black"/>
<path d="M63.9961,53.0934h -6.80315" fill="none" stroke="black"/>
<path d="M63.9961,46.2811h -6.80315" fill="none" stroke="black"/>
<path d="M70.7992,39.4688h -13.6063" fill="none" stroke="black"/>
<path d="M70.7992,39.4688h -13.6063" fill="none" stroke="black"/>
<text xml:space="preserve" x="47.7441" y="350.258" fill="black" font-size="12.8453" font-family="Helvetica">0</text>
<text xml:space="preserve" x="47.7441" y="316.047" fill="black" font-size="12.8453" font-family="Helvetica">5</text>
<text xml:space="preserve" x="41.2277" y="282.65" fill="black" font-size="12.8453" font-family="Helvetica">10</text>
<text xml:space="preserve" x="40.4131" y="248.439" fill="black" font-size="12.8453" font-family="Helvetica">15</text>
<text xml:space="preserve" x="41.2277" y="214.228" fill="black" font-size="12.8453" font-family="Helvetica">20</text>
<text xml:space="preserve" x="40.4131" y="180.016" fill="black" font-size="12.8453" font-family="Helvetica">25</text>
<text xml:space="preserve" x="41.2277" y="145.805" fill="black" font-size="12.8453" font-family="Helvetica">30</text>
<text xml:space="preserve" x="40.4131" y="112.408" fill="black" font-size="12.8453" font-family="Helvetica">35</text>
<text xml:space="preserve" x="41.2277" y="78.1971" fill="black" font-size="12.8453" font-family="Helvetica">40</text>
<text xml:space="preserve" x="40.4131" y="43.9859" fill="black" font-size="12.8453" font-family="Helvetica">45</text>
<g transform="rotate(-90,28.1948,70.0516)">
<text xml:space="preserve" x="28.1948" y="70.0516" fill="black" font-size="12.8453" font-family="Helvetica">Event</text>
</g>
<text xml:space="preserve" x="248.124" y="18.7347" fill="black" font-size="16.9898" font-family="Helvetica">560mm 4</text></svg>
