<?xml version="1.0" standalone="no"?>
<svg width="567.429" height="386.304" viewBox="0 0 567.429 386.304" xmlns="http://www.w3.org/2000/svg" shape-rendering="crispEdges">
<title>
img/week2/Combined560mm_ch_39.svg
</title>
<desc>
Creator: ROOT Version 6.22/08
CreationDate: Tue Jun 22 00:36:59 2021</desc>
<defs>
</defs>
<rect x="0.5" y="0" width="566.929" height="385.804" fill="white"/>
<rect x="57.1929" y="38.5804" width="453.543" height="308.643" fill="white"/>
<rect x="57.1929" y="38.5804" width="453.543" height="308.643" fill="none" stroke="black"/>
<rect x="57.1929" y="38.5804" width="453.543" height="308.643" fill="white"/>
<rect x="57.1929" y="38.5804" width="453.543" height="308.643" fill="none" stroke="black"/>
<path d="M57.1929,347.224h 120.945v -3.19507h 30.2362v -19.1704h 30.2362v -70.2915h 30.2362v -201.289h 30.2362v 214.069h 30.2362v 79.8766h 181.417" fill="none" stroke="#000099"/>
<g fill="#ff0000">
<polygon points=" 279.741, 49.0542 288.188, 49.0542 283.965, 57.5013"/>
</g>
<path d="M59.4606,347.224h 136.063l 4.53543, -0.0617428l 4.53543, -0.0903269l 4.53543, -0.203881l 4.53543, -0.435869l 4.53543, -0.882172l 4.53543, -1.68935l 4.53543, -3.05878l 4.53543, -5.23191l 4.53543, -8.44449l 4.53543, -12.8429l 4.53543,
 -18.3696l 4.53543, -24.6463l 4.53543, -30.9036l 4.53543, -36.0147l 4.53543, -38.6708l 4.53543, -37.6874l 4.53543, -32.3702l 4.53543, -22.8173l 4.53543, -10.0303" fill="none" stroke="#ff0000" stroke-width="2"/>
<path d="M281.697,62.7721l 4.53543, 4.23799l 4.53543, 17.8761l 4.53543, 28.9263l 4.53543, 36.0448l 4.53543, 38.7621l 4.53543, 37.4756l 4.53543, 33.2124l 4.53543, 27.2731l 4.53543, 20.8888l 4.53543, 14.9871l 4.53543, 10.103l 4.53543, 6.41277l 4.53543,
 3.8389l 4.53543, 2.17004l 4.53543, 1.15944l 4.53543, 0.585971l 4.53543, 0.280303l 4.53543, 0.126976l 4.53543, 0.0544928l 4.53543, 0.0354305h 131.528" fill="none" stroke="#ff0000" stroke-width="2"/>
<path d="M503.933,347.224h 4.53543" fill="none" stroke="#ff0000" stroke-width="2"/>
<rect x="351.996" y="25.0773" width="204.094" height="108.025" fill="white"/>
<path d="M351.996,133.102h 204.094" fill="none" stroke="black"/>
<path d="M556.091,133.102v -108.025" fill="none" stroke="black"/>
<path d="M556.091,25.0773h -204.094" fill="none" stroke="black"/>
<path d="M351.996,25.0773v 108.025" fill="none" stroke="black"/>
<text xml:space="preserve" x="361.938" y="38.9865" fill="black" font-size="15.6962" font-family="Helvetica">Entries </text>
<text xml:space="preserve" x="515.447" y="38.9865" fill="black" font-size="15.6962" font-family="Helvetica"> 154</text>
<text xml:space="preserve" x="375.745" y="57.6676" fill="black" font-size="15.6962" font-family="Helvetica"> / ndf </text>
<text xml:space="preserve" x="370.06" y="52.7943" fill="black" font-size="10.6308" font-family="Helvetica">2</text>
<text xml:space="preserve" x="361.938" y="57.6676" fill="black" font-size="15.6962" font-family="Times">&#0967;</text>
<text xml:space="preserve" x="481.334" y="57.6676" fill="black" font-size="15.6962" font-family="Helvetica"> 6.228 / 2</text>
<text xml:space="preserve" x="361.938" y="75.5364" fill="black" font-size="15.6962" font-family="Helvetica">Prob  </text>
<text xml:space="preserve" x="485.395" y="75.5364" fill="black" font-size="15.6962" font-family="Helvetica"> 0.04443</text>
<text xml:space="preserve" x="361.938" y="94.2175" fill="black" font-size="15.6962" font-family="Helvetica">Const    </text>
<text xml:space="preserve" x="502.452" y="93.4052" fill="black" font-size="15.6962" font-family="Helvetica"> 10.35</text>
<text xml:space="preserve" x="493.517" y="93.4052" fill="black" font-size="15.6962" font-family="Times">&#0177;</text>
<text xml:space="preserve" x="445.596" y="93.4052" fill="black" font-size="15.6962" font-family="Helvetica"> 89.12 </text>
<text xml:space="preserve" x="361.938" y="111.274" fill="black" font-size="15.6962" font-family="Helvetica">Mean     </text>
<text xml:space="preserve" x="520.32" y="111.274" fill="black" font-size="15.6962" font-family="Helvetica"> 0.2</text>
<text xml:space="preserve" x="511.386" y="111.274" fill="black" font-size="15.6962" font-family="Times">&#0177;</text>
<text xml:space="preserve" x="463.465" y="111.274" fill="black" font-size="15.6962" font-family="Helvetica"> 806.2 </text>
<text xml:space="preserve" x="361.938" y="128.331" fill="black" font-size="15.6962" font-family="Helvetica">Sigma    </text>
<text xml:space="preserve" x="502.452" y="129.143" fill="black" font-size="15.6962" font-family="Helvetica"> 0.229</text>
<text xml:space="preserve" x="493.517" y="129.143" fill="black" font-size="15.6962" font-family="Times">&#0177;</text>
<text xml:space="preserve" x="448.845" y="129.143" fill="black" font-size="15.6962" font-family="Helvetica"> 2.661 </text>
<path d="M57.1929,347.224h 453.543" fill="none" stroke="black"/>
<path d="M84.5516,337.964v 9.2593" fill="none" stroke="black"/>
<path d="M99.6623,342.594v 4.62965" fill="none" stroke="black"/>
<path d="M114.773,342.594v 4.62965" fill="none" stroke="black"/>
<path d="M129.884,342.594v 4.62965" fill="none" stroke="black"/>
<path d="M144.995,342.594v 4.62965" fill="none" stroke="black"/>
<path d="M160.105,337.964v 9.2593" fill="none" stroke="black"/>
<path d="M175.216,342.594v 4.62965" fill="none" stroke="black"/>
<path d="M190.327,342.594v 4.62965" fill="none" stroke="black"/>
<path d="M205.437,342.594v 4.62965" fill="none" stroke="black"/>
<path d="M220.548,342.594v 4.62965" fill="none" stroke="black"/>
<path d="M235.659,337.964v 9.2593" fill="none" stroke="black"/>
<path d="M250.77,342.594v 4.62965" fill="none" stroke="black"/>
<path d="M265.88,342.594v 4.62965" fill="none" stroke="black"/>
<path d="M280.991,342.594v 4.62965" fill="none" stroke="black"/>
<path d="M296.102,342.594v 4.62965" fill="none" stroke="black"/>
<path d="M311.213,337.964v 9.2593" fill="none" stroke="black"/>
<path d="M326.323,342.594v 4.62965" fill="none" stroke="black"/>
<path d="M341.434,342.594v 4.62965" fill="none" stroke="black"/>
<path d="M356.545,342.594v 4.62965" fill="none" stroke="black"/>
<path d="M371.656,342.594v 4.62965" fill="none" stroke="black"/>
<path d="M386.766,337.964v 9.2593" fill="none" stroke="black"/>
<path d="M401.877,342.594v 4.62965" fill="none" stroke="black"/>
<path d="M416.988,342.594v 4.62965" fill="none" stroke="black"/>
<path d="M432.098,342.594v 4.62965" fill="none" stroke="black"/>
<path d="M447.209,342.594v 4.62965" fill="none" stroke="black"/>
<path d="M462.32,337.964v 9.2593" fill="none" stroke="black"/>
<path d="M84.5516,337.964v 9.2593" fill="none" stroke="black"/>
<path d="M69.4409,342.594v 4.62965" fill="none" stroke="black"/>
<path d="M462.32,337.964v 9.2593" fill="none" stroke="black"/>
<path d="M477.431,342.594v 4.62965" fill="none" stroke="black"/>
<path d="M492.541,342.594v 4.62965" fill="none" stroke="black"/>
<path d="M507.652,342.594v 4.62965" fill="none" stroke="black"/>
<text xml:space="preserve" x="72.7875" y="359.813" fill="black" font-size="12.8882" font-family="Helvetica">780</text>
<text xml:space="preserve" x="148.324" y="359.813" fill="black" font-size="12.8882" font-family="Helvetica">790</text>
<text xml:space="preserve" x="223.86" y="359.813" fill="black" font-size="12.8882" font-family="Helvetica">800</text>
<text xml:space="preserve" x="299.397" y="359.813" fill="black" font-size="12.8882" font-family="Helvetica">810</text>
<text xml:space="preserve" x="374.933" y="359.813" fill="black" font-size="12.8882" font-family="Helvetica">820</text>
<text xml:space="preserve" x="450.47" y="359.813" fill="black" font-size="12.8882" font-family="Helvetica">830</text>
<text xml:space="preserve" x="481.334" y="373.621" fill="black" font-size="12.8882" font-family="Helvetica">Time</text>
<path d="M57.1929,347.224v -308.643" fill="none" stroke="black"/>
<path d="M70.7992,347.224h -13.6063" fill="none" stroke="black"/>
<path d="M63.9961,340.834h -6.80315" fill="none" stroke="black"/>
<path d="M63.9961,334.444h -6.80315" fill="none" stroke="black"/>
<path d="M63.9961,328.053h -6.80315" fill="none" stroke="black"/>
<path d="M63.9961,321.663h -6.80315" fill="none" stroke="black"/>
<path d="M70.7992,315.273h -13.6063" fill="none" stroke="black"/>
<path d="M63.9961,308.883h -6.80315" fill="none" stroke="black"/>
<path d="M63.9961,302.493h -6.80315" fill="none" stroke="black"/>
<path d="M63.9961,296.103h -6.80315" fill="none" stroke="black"/>
<path d="M63.9961,289.713h -6.80315" fill="none" stroke="black"/>
<path d="M70.7992,283.322h -13.6063" fill="none" stroke="black"/>
<path d="M63.9961,276.932h -6.80315" fill="none" stroke="black"/>
<path d="M63.9961,270.542h -6.80315" fill="none" stroke="black"/>
<path d="M63.9961,264.152h -6.80315" fill="none" stroke="black"/>
<path d="M63.9961,257.762h -6.80315" fill="none" stroke="black"/>
<path d="M70.7992,251.372h -13.6063" fill="none" stroke="black"/>
<path d="M63.9961,244.982h -6.80315" fill="none" stroke="black"/>
<path d="M63.9961,238.592h -6.80315" fill="none" stroke="black"/>
<path d="M63.9961,232.201h -6.80315" fill="none" stroke="black"/>
<path d="M63.9961,225.811h -6.80315" fill="none" stroke="black"/>
<path d="M70.7992,219.421h -13.6063" fill="none" stroke="black"/>
<path d="M63.9961,213.031h -6.80315" fill="none" stroke="black"/>
<path d="M63.9961,206.641h -6.80315" fill="none" stroke="black"/>
<path d="M63.9961,200.251h -6.80315" fill="none" stroke="black"/>
<path d="M63.9961,193.861h -6.80315" fill="none" stroke="black"/>
<path d="M70.7992,187.47h -13.6063" fill="none" stroke="black"/>
<path d="M63.9961,181.08h -6.80315" fill="none" stroke="black"/>
<path d="M63.9961,174.69h -6.80315" fill="none" stroke="black"/>
<path d="M63.9961,168.3h -6.80315" fill="none" stroke="black"/>
<path d="M63.9961,161.91h -6.80315" fill="none" stroke="black"/>
<path d="M70.7992,155.52h -13.6063" fill="none" stroke="black"/>
<path d="M63.9961,149.13h -6.80315" fill="none" stroke="black"/>
<path d="M63.9961,142.74h -6.80315" fill="none" stroke="black"/>
<path d="M63.9961,136.349h -6.80315" fill="none" stroke="black"/>
<path d="M63.9961,129.959h -6.80315" fill="none" stroke="black"/>
<path d="M70.7992,123.569h -13.6063" fill="none" stroke="black"/>
<path d="M63.9961,117.179h -6.80315" fill="none" stroke="black"/>
<path d="M63.9961,110.789h -6.80315" fill="none" stroke="black"/>
<path d="M63.9961,104.399h -6.80315" fill="none" stroke="black"/>
<path d="M63.9961,98.0087h -6.80315" fill="none" stroke="black"/>
<path d="M70.7992,91.6185h -13.6063" fill="none" stroke="black"/>
<path d="M63.9961,85.2284h -6.80315" fill="none" stroke="black"/>
<path d="M63.9961,78.8383h -6.80315" fill="none" stroke="black"/>
<path d="M63.9961,72.4481h -6.80315" fill="none" stroke="black"/>
<path d="M63.9961,66.058h -6.80315" fill="none" stroke="black"/>
<path d="M70.7992,59.6679h -13.6063" fill="none" stroke="black"/>
<path d="M70.7992,59.6679h -13.6063" fill="none" stroke="black"/>
<path d="M63.9961,53.2777h -6.80315" fill="none" stroke="black"/>
<path d="M63.9961,46.8876h -6.80315" fill="none" stroke="black"/>
<path d="M63.9961,40.4975h -6.80315" fill="none" stroke="black"/>
<text xml:space="preserve" x="46.7965" y="351.691" fill="black" font-size="12.8882" font-family="Helvetica">0</text>
<text xml:space="preserve" x="39.4865" y="320.014" fill="black" font-size="12.8882" font-family="Helvetica">10</text>
<text xml:space="preserve" x="39.4865" y="287.526" fill="black" font-size="12.8882" font-family="Helvetica">20</text>
<text xml:space="preserve" x="39.4865" y="255.849" fill="black" font-size="12.8882" font-family="Helvetica">30</text>
<text xml:space="preserve" x="39.4865" y="224.173" fill="black" font-size="12.8882" font-family="Helvetica">40</text>
<text xml:space="preserve" x="39.4865" y="191.684" fill="black" font-size="12.8882" font-family="Helvetica">50</text>
<text xml:space="preserve" x="39.4865" y="160.007" fill="black" font-size="12.8882" font-family="Helvetica">60</text>
<text xml:space="preserve" x="39.4865" y="128.331" fill="black" font-size="12.8882" font-family="Helvetica">70</text>
<text xml:space="preserve" x="39.4865" y="95.8419" fill="black" font-size="12.8882" font-family="Helvetica">80</text>
<text xml:space="preserve" x="39.4865" y="64.1653" fill="black" font-size="12.8882" font-family="Helvetica">90</text>
<g transform="rotate(-90,28.9277,71.4753)">
<text xml:space="preserve" x="28.9277" y="71.4753" fill="black" font-size="12.8882" font-family="Helvetica">Event</text>
</g>
<rect x="351.996" y="25.0773" width="204.094" height="108.025" fill="white"/>
<path d="M351.996,133.102h 204.094" fill="none" stroke="black"/>
<path d="M556.091,133.102v -108.025" fill="none" stroke="black"/>
<path d="M556.091,25.0773h -204.094" fill="none" stroke="black"/>
<path d="M351.996,25.0773v 108.025" fill="none" stroke="black"/>
<text xml:space="preserve" x="361.938" y="38.9865" fill="black" font-size="15.6962" font-family="Helvetica">Entries </text>
<text xml:space="preserve" x="515.447" y="38.9865" fill="black" font-size="15.6962" font-family="Helvetica"> 154</text>
<text xml:space="preserve" x="375.745" y="57.6676" fill="black" font-size="15.6962" font-family="Helvetica"> / ndf </text>
<text xml:space="preserve" x="370.06" y="52.7943" fill="black" font-size="10.6308" font-family="Helvetica">2</text>
<text xml:space="preserve" x="361.938" y="57.6676" fill="black" font-size="15.6962" font-family="Times">&#0967;</text>
<text xml:space="preserve" x="481.334" y="57.6676" fill="black" font-size="15.6962" font-family="Helvetica"> 6.228 / 2</text>
<text xml:space="preserve" x="361.938" y="75.5364" fill="black" font-size="15.6962" font-family="Helvetica">Prob  </text>
<text xml:space="preserve" x="485.395" y="75.5364" fill="black" font-size="15.6962" font-family="Helvetica"> 0.04443</text>
<text xml:space="preserve" x="361.938" y="94.2175" fill="black" font-size="15.6962" font-family="Helvetica">Const    </text>
<text xml:space="preserve" x="502.452" y="93.4052" fill="black" font-size="15.6962" font-family="Helvetica"> 10.35</text>
<text xml:space="preserve" x="493.517" y="93.4052" fill="black" font-size="15.6962" font-family="Times">&#0177;</text>
<text xml:space="preserve" x="445.596" y="93.4052" fill="black" font-size="15.6962" font-family="Helvetica"> 89.12 </text>
<text xml:space="preserve" x="361.938" y="111.274" fill="black" font-size="15.6962" font-family="Helvetica">Mean     </text>
<text xml:space="preserve" x="520.32" y="111.274" fill="black" font-size="15.6962" font-family="Helvetica"> 0.2</text>
<text xml:space="preserve" x="511.386" y="111.274" fill="black" font-size="15.6962" font-family="Times">&#0177;</text>
<text xml:space="preserve" x="463.465" y="111.274" fill="black" font-size="15.6962" font-family="Helvetica"> 806.2 </text>
<text xml:space="preserve" x="361.938" y="128.331" fill="black" font-size="15.6962" font-family="Helvetica">Sigma    </text>
<text xml:space="preserve" x="502.452" y="129.143" fill="black" font-size="15.6962" font-family="Helvetica"> 0.229</text>
<text xml:space="preserve" x="493.517" y="129.143" fill="black" font-size="15.6962" font-family="Times">&#0177;</text>
<text xml:space="preserve" x="448.845" y="129.143" fill="black" font-size="15.6962" font-family="Helvetica"> 2.661 </text>
<text xml:space="preserve" x="243.354" y="18.681" fill="black" font-size="17.0471" font-family="Helvetica">560mm 39</text></svg>
