<?xml version="1.0" standalone="no"?>
<svg width="567.429" height="384.969" viewBox="0 0 567.429 384.969" xmlns="http://www.w3.org/2000/svg" shape-rendering="crispEdges">
<title>
img/week2/Combined560mm_ch_36.svg
</title>
<desc>
Creator: ROOT Version 6.22/09
CreationDate: Thu Jun 24 12:12:15 2021</desc>
<defs>
</defs>
<rect x="0.5" y="0" width="566.929" height="384.469" fill="white"/>
<rect x="57.1929" y="38.4469" width="453.543" height="307.575" fill="white"/>
<rect x="57.1929" y="38.4469" width="453.543" height="307.575" fill="none" stroke="black"/>
<rect x="57.1929" y="38.4469" width="453.543" height="307.575" fill="white"/>
<rect x="57.1929" y="38.4469" width="453.543" height="307.575" fill="none" stroke="black"/>
<path d="M57.1929,346.022h 69.7759v -3.70796h 34.8879v 3.70796h 34.8879v -11.1239h 34.8879v -14.8318h 34.8879v -266.973h 34.8879v 74.1592h 34.8879v 207.646h 34.8879v 11.1239h 139.552" fill="none" stroke="#000099"/>
<g fill="#ff0000">
<polygon points=" 279.729, 48.8577 288.2, 48.8577 283.965, 57.329"/>
</g>
<path d="M59.4606,346.022h 145.134l 4.53543, -0.0618656l 4.53543, -0.0851248l 4.53543, -0.186719l 4.53543, -0.390206l 4.53543, -0.776624l 4.53543, -1.47145l 4.53543, -2.65254l 4.53543, -4.5465l 4.53543, -7.40349l 4.53543, -11.4418l 4.53543, -16.7599l
 4.53543, -23.2284l 4.53543, -30.3884l 4.53543, -37.403l 4.53543, -43.1039l 4.53543, -46.1624l 4.53543, -45.3723" fill="none" stroke="#ff0000" stroke-width="2"/>
<path d="M309.512,38.4469l 3.93333, 34.401" fill="none" stroke="#ff0000" stroke-width="2"/>
<path d="M313.445,72.8479l 4.53543, 45.2475l 4.53543, 46.2118l 4.53543, 43.2864l 4.53543, 37.6657l 4.53543, 30.6795l 4.53543, 23.5066l 4.53543, 16.9992l 4.53543, 11.6304l 4.53543, 7.54156l 4.53543, 4.64091l 4.53543, 2.71315l 4.53543, 1.5081l 4.53543,
 0.79755l 4.53543, 0.401509l 4.53543, 0.192503l 4.53543, 0.0879315l 4.53543, 0.0641072h 117.921" fill="none" stroke="#ff0000" stroke-width="2"/>
<path d="M57.1929,346.022h 453.543" fill="none" stroke="black"/>
<path d="M141.05,336.795v 9.22726" fill="none" stroke="black"/>
<path d="M158.485,341.409v 4.61363" fill="none" stroke="black"/>
<path d="M175.921,341.409v 4.61363" fill="none" stroke="black"/>
<path d="M193.356,341.409v 4.61363" fill="none" stroke="black"/>
<path d="M210.792,341.409v 4.61363" fill="none" stroke="black"/>
<path d="M228.227,336.795v 9.22726" fill="none" stroke="black"/>
<path d="M245.663,341.409v 4.61363" fill="none" stroke="black"/>
<path d="M263.098,341.409v 4.61363" fill="none" stroke="black"/>
<path d="M280.534,341.409v 4.61363" fill="none" stroke="black"/>
<path d="M297.969,341.409v 4.61363" fill="none" stroke="black"/>
<path d="M315.405,336.795v 9.22726" fill="none" stroke="black"/>
<path d="M332.84,341.409v 4.61363" fill="none" stroke="black"/>
<path d="M350.276,341.409v 4.61363" fill="none" stroke="black"/>
<path d="M367.711,341.409v 4.61363" fill="none" stroke="black"/>
<path d="M385.146,341.409v 4.61363" fill="none" stroke="black"/>
<path d="M402.582,336.795v 9.22726" fill="none" stroke="black"/>
<path d="M420.017,341.409v 4.61363" fill="none" stroke="black"/>
<path d="M437.453,341.409v 4.61363" fill="none" stroke="black"/>
<path d="M454.888,341.409v 4.61363" fill="none" stroke="black"/>
<path d="M472.324,341.409v 4.61363" fill="none" stroke="black"/>
<path d="M489.759,336.795v 9.22726" fill="none" stroke="black"/>
<path d="M141.05,336.795v 9.22726" fill="none" stroke="black"/>
<path d="M123.615,341.409v 4.61363" fill="none" stroke="black"/>
<path d="M106.179,341.409v 4.61363" fill="none" stroke="black"/>
<path d="M88.7436,341.409v 4.61363" fill="none" stroke="black"/>
<path d="M71.3081,341.409v 4.61363" fill="none" stroke="black"/>
<path d="M489.759,336.795v 9.22726" fill="none" stroke="black"/>
<path d="M507.195,341.409v 4.61363" fill="none" stroke="black"/>
<text xml:space="preserve" x="130.014" y="358.403" fill="black" font-size="12.8453" font-family="Helvetica">790</text>
<text xml:space="preserve" x="217.171" y="358.403" fill="black" font-size="12.8453" font-family="Helvetica">800</text>
<text xml:space="preserve" x="304.328" y="358.403" fill="black" font-size="12.8453" font-family="Helvetica">810</text>
<text xml:space="preserve" x="391.486" y="358.403" fill="black" font-size="12.8453" font-family="Helvetica">820</text>
<text xml:space="preserve" x="478.643" y="358.403" fill="black" font-size="12.8453" font-family="Helvetica">830</text>
<text xml:space="preserve" x="460.723" y="370.622" fill="black" font-size="12.8453" font-family="Helvetica">Time [ps]</text>
<path d="M57.1929,346.022v -307.575" fill="none" stroke="black"/>
<path d="M70.7992,346.022h -13.6063" fill="none" stroke="black"/>
<path d="M63.9961,338.606h -6.80315" fill="none" stroke="black"/>
<path d="M63.9961,331.19h -6.80315" fill="none" stroke="black"/>
<path d="M63.9961,323.775h -6.80315" fill="none" stroke="black"/>
<path d="M63.9961,316.359h -6.80315" fill="none" stroke="black"/>
<path d="M70.7992,308.943h -13.6063" fill="none" stroke="black"/>
<path d="M63.9961,301.527h -6.80315" fill="none" stroke="black"/>
<path d="M63.9961,294.111h -6.80315" fill="none" stroke="black"/>
<path d="M63.9961,286.695h -6.80315" fill="none" stroke="black"/>
<path d="M63.9961,279.279h -6.80315" fill="none" stroke="black"/>
<path d="M70.7992,271.863h -13.6063" fill="none" stroke="black"/>
<path d="M63.9961,264.447h -6.80315" fill="none" stroke="black"/>
<path d="M63.9961,257.031h -6.80315" fill="none" stroke="black"/>
<path d="M63.9961,249.615h -6.80315" fill="none" stroke="black"/>
<path d="M63.9961,242.199h -6.80315" fill="none" stroke="black"/>
<path d="M70.7992,234.783h -13.6063" fill="none" stroke="black"/>
<path d="M63.9961,227.368h -6.80315" fill="none" stroke="black"/>
<path d="M63.9961,219.952h -6.80315" fill="none" stroke="black"/>
<path d="M63.9961,212.536h -6.80315" fill="none" stroke="black"/>
<path d="M63.9961,205.12h -6.80315" fill="none" stroke="black"/>
<path d="M70.7992,197.704h -13.6063" fill="none" stroke="black"/>
<path d="M63.9961,190.288h -6.80315" fill="none" stroke="black"/>
<path d="M63.9961,182.872h -6.80315" fill="none" stroke="black"/>
<path d="M63.9961,175.456h -6.80315" fill="none" stroke="black"/>
<path d="M63.9961,168.04h -6.80315" fill="none" stroke="black"/>
<path d="M70.7992,160.624h -13.6063" fill="none" stroke="black"/>
<path d="M63.9961,153.208h -6.80315" fill="none" stroke="black"/>
<path d="M63.9961,145.792h -6.80315" fill="none" stroke="black"/>
<path d="M63.9961,138.376h -6.80315" fill="none" stroke="black"/>
<path d="M63.9961,130.961h -6.80315" fill="none" stroke="black"/>
<path d="M70.7992,123.545h -13.6063" fill="none" stroke="black"/>
<path d="M63.9961,116.129h -6.80315" fill="none" stroke="black"/>
<path d="M63.9961,108.713h -6.80315" fill="none" stroke="black"/>
<path d="M63.9961,101.297h -6.80315" fill="none" stroke="black"/>
<path d="M63.9961,93.8809h -6.80315" fill="none" stroke="black"/>
<path d="M70.7992,86.465h -13.6063" fill="none" stroke="black"/>
<path d="M63.9961,79.0491h -6.80315" fill="none" stroke="black"/>
<path d="M63.9961,71.6332h -6.80315" fill="none" stroke="black"/>
<path d="M63.9961,64.2172h -6.80315" fill="none" stroke="black"/>
<path d="M63.9961,56.8013h -6.80315" fill="none" stroke="black"/>
<path d="M70.7992,49.3854h -13.6063" fill="none" stroke="black"/>
<path d="M70.7992,49.3854h -13.6063" fill="none" stroke="black"/>
<path d="M63.9961,41.9695h -6.80315" fill="none" stroke="black"/>
<text xml:space="preserve" x="47.7441" y="350.258" fill="black" font-size="12.8453" font-family="Helvetica">0</text>
<text xml:space="preserve" x="41.2277" y="313.603" fill="black" font-size="12.8453" font-family="Helvetica">10</text>
<text xml:space="preserve" x="41.2277" y="276.134" fill="black" font-size="12.8453" font-family="Helvetica">20</text>
<text xml:space="preserve" x="41.2277" y="239.479" fill="black" font-size="12.8453" font-family="Helvetica">30</text>
<text xml:space="preserve" x="41.2277" y="202.009" fill="black" font-size="12.8453" font-family="Helvetica">40</text>
<text xml:space="preserve" x="41.2277" y="165.354" fill="black" font-size="12.8453" font-family="Helvetica">50</text>
<text xml:space="preserve" x="41.2277" y="127.885" fill="black" font-size="12.8453" font-family="Helvetica">60</text>
<text xml:space="preserve" x="41.2277" y="91.23" fill="black" font-size="12.8453" font-family="Helvetica">70</text>
<text xml:space="preserve" x="41.2277" y="53.7605" fill="black" font-size="12.8453" font-family="Helvetica">80</text>
<g transform="rotate(-90,29.0094,70.0516)">
<text xml:space="preserve" x="29.0094" y="70.0516" fill="black" font-size="12.8453" font-family="Helvetica">Event</text>
</g>
<text xml:space="preserve" x="243.237" y="18.7347" fill="black" font-size="16.9898" font-family="Helvetica">560mm 36</text></svg>
