<?xml version="1.0" standalone="no"?>
<svg width="567.429" height="386.304" viewBox="0 0 567.429 386.304" xmlns="http://www.w3.org/2000/svg" shape-rendering="crispEdges">
<title>
img/week2/Combined140mm_ch_0.svg
</title>
<desc>
Creator: ROOT Version 6.22/08
CreationDate: Thu Jun 24 11:58:24 2021</desc>
<defs>
</defs>
<rect x="0.5" y="0" width="566.929" height="385.804" fill="white"/>
<rect x="57.1929" y="38.5804" width="453.543" height="308.643" fill="white"/>
<rect x="57.1929" y="38.5804" width="453.543" height="308.643" fill="none" stroke="black"/>
<rect x="57.1929" y="38.5804" width="453.543" height="308.643" fill="white"/>
<rect x="57.1929" y="38.5804" width="453.543" height="308.643" fill="none" stroke="black"/>
<path d="M57.1929,347.224h 113.386v -6.99872h 28.3465v -13.9974h 28.3465v -6.99872h 28.3465v -125.977h 28.3465v -139.974h 28.3465v 230.958h 28.3465v 62.9884h 170.079" fill="none" stroke="#000099"/>
<g fill="#ff0000">
<polygon points=" 293.914, 49.0542 302.361, 49.0542 298.138, 57.5013"/>
</g>
<path d="M59.4606,347.224h 140.598l 4.53543, -0.0651418l 4.53543, -0.0884081l 4.53543, -0.192044l 4.53543, -0.397102l 4.53543, -0.781297l 4.53543, -1.46195l 4.53543, -2.60015l 4.53543, -4.39234l 4.53543, -7.04095l 4.53543, -10.698l 4.53543, -15.3837l
 4.53543, -20.8948l 4.53543, -26.7324l 4.53543, -32.0894l 4.53543, -35.9297l 4.53543, -37.1729l 4.53543, -34.9562l 4.53543, -28.9045" fill="none" stroke="#ff0000" stroke-width="2"/>
<path d="M281.697,87.4428l 4.53543, -19.3206l 4.53543, -7.21375l 4.53543, 5.86609l 4.53543, 18.1535l 4.53543, 28.0587l 4.53543, 34.5052l 4.53543, 37.1147l 4.53543, 36.198l 4.53543, 32.5794l 4.53543, 27.3296l 4.53543, 21.4994l 4.53543, 15.9256l
 4.53543, 11.1397l 4.53543, 7.37328l 4.53543, 4.62514l 4.53543, 2.75283l 4.53543, 1.55607l 4.53543, 0.835983l 4.53543, 0.427114l 4.53543, 0.207628l 4.53543, 0.0960726l 4.53543, 0.071385h 122.457" fill="none" stroke="#ff0000" stroke-width="2"/>
<path d="M503.933,347.224h 4.53543" fill="none" stroke="#ff0000" stroke-width="2"/>
<rect x="351.996" y="25.0773" width="204.094" height="108.025" fill="white"/>
<path d="M351.996,133.102h 204.094" fill="none" stroke="black"/>
<path d="M556.091,133.102v -108.025" fill="none" stroke="black"/>
<path d="M556.091,25.0773h -204.094" fill="none" stroke="black"/>
<path d="M351.996,25.0773v 108.025" fill="none" stroke="black"/>
<text xml:space="preserve" x="361.938" y="38.9865" fill="black" font-size="15.6962" font-family="Helvetica">Entries </text>
<text xml:space="preserve" x="526.818" y="38.9865" fill="black" font-size="15.6962" font-family="Helvetica"> 81</text>
<text xml:space="preserve" x="375.745" y="57.6676" fill="black" font-size="15.6962" font-family="Helvetica"> / ndf </text>
<text xml:space="preserve" x="370.06" y="52.7943" fill="black" font-size="10.6308" font-family="Helvetica">2</text>
<text xml:space="preserve" x="361.938" y="57.6676" fill="black" font-size="15.6962" font-family="Times">&#0967;</text>
<text xml:space="preserve" x="481.334" y="57.6676" fill="black" font-size="15.6962" font-family="Helvetica"> 5.102 / 3</text>
<text xml:space="preserve" x="361.938" y="75.5364" fill="black" font-size="15.6962" font-family="Helvetica">Prob  </text>
<text xml:space="preserve" x="494.329" y="75.5364" fill="black" font-size="15.6962" font-family="Helvetica"> 0.1645</text>
<text xml:space="preserve" x="361.938" y="94.2175" fill="black" font-size="15.6962" font-family="Helvetica">Const    </text>
<text xml:space="preserve" x="511.386" y="93.4052" fill="black" font-size="15.6962" font-family="Helvetica"> 6.68</text>
<text xml:space="preserve" x="502.452" y="93.4052" fill="black" font-size="15.6962" font-family="Times">&#0177;</text>
<text xml:space="preserve" x="457.78" y="93.4052" fill="black" font-size="15.6962" font-family="Helvetica"> 40.91 </text>
<text xml:space="preserve" x="361.938" y="111.274" fill="black" font-size="15.6962" font-family="Helvetica">Mean     </text>
<text xml:space="preserve" x="519.508" y="111.274" fill="black" font-size="15.6962" font-family="Helvetica"> 0.4</text>
<text xml:space="preserve" x="510.574" y="111.274" fill="black" font-size="15.6962" font-family="Times">&#0177;</text>
<text xml:space="preserve" x="462.653" y="111.274" fill="black" font-size="15.6962" font-family="Helvetica"> 809.4 </text>
<text xml:space="preserve" x="361.938" y="128.331" fill="black" font-size="15.6962" font-family="Helvetica">Sigma    </text>
<text xml:space="preserve" x="505.7" y="129.143" fill="black" font-size="15.6962" font-family="Helvetica"> 0.361</text>
<text xml:space="preserve" x="496.766" y="129.143" fill="black" font-size="15.6962" font-family="Times">&#0177;</text>
<text xml:space="preserve" x="448.845" y="129.143" fill="black" font-size="15.6962" font-family="Helvetica"> 2.978 </text>
<path d="M57.1929,347.224h 453.543" fill="none" stroke="black"/>
<path d="M82.8417,337.964v 9.2593" fill="none" stroke="black"/>
<path d="M97.008,342.594v 4.62965" fill="none" stroke="black"/>
<path d="M111.174,342.594v 4.62965" fill="none" stroke="black"/>
<path d="M125.341,342.594v 4.62965" fill="none" stroke="black"/>
<path d="M139.507,342.594v 4.62965" fill="none" stroke="black"/>
<path d="M153.673,337.964v 9.2593" fill="none" stroke="black"/>
<path d="M167.84,342.594v 4.62965" fill="none" stroke="black"/>
<path d="M182.006,342.594v 4.62965" fill="none" stroke="black"/>
<path d="M196.172,342.594v 4.62965" fill="none" stroke="black"/>
<path d="M210.338,342.594v 4.62965" fill="none" stroke="black"/>
<path d="M224.505,337.964v 9.2593" fill="none" stroke="black"/>
<path d="M238.671,342.594v 4.62965" fill="none" stroke="black"/>
<path d="M252.837,342.594v 4.62965" fill="none" stroke="black"/>
<path d="M267.004,342.594v 4.62965" fill="none" stroke="black"/>
<path d="M281.17,342.594v 4.62965" fill="none" stroke="black"/>
<path d="M295.336,337.964v 9.2593" fill="none" stroke="black"/>
<path d="M309.503,342.594v 4.62965" fill="none" stroke="black"/>
<path d="M323.669,342.594v 4.62965" fill="none" stroke="black"/>
<path d="M337.835,342.594v 4.62965" fill="none" stroke="black"/>
<path d="M352.002,342.594v 4.62965" fill="none" stroke="black"/>
<path d="M366.168,337.964v 9.2593" fill="none" stroke="black"/>
<path d="M380.334,342.594v 4.62965" fill="none" stroke="black"/>
<path d="M394.501,342.594v 4.62965" fill="none" stroke="black"/>
<path d="M408.667,342.594v 4.62965" fill="none" stroke="black"/>
<path d="M422.833,342.594v 4.62965" fill="none" stroke="black"/>
<path d="M436.999,337.964v 9.2593" fill="none" stroke="black"/>
<path d="M451.166,342.594v 4.62965" fill="none" stroke="black"/>
<path d="M465.332,342.594v 4.62965" fill="none" stroke="black"/>
<path d="M479.498,342.594v 4.62965" fill="none" stroke="black"/>
<path d="M493.665,342.594v 4.62965" fill="none" stroke="black"/>
<path d="M507.831,337.964v 9.2593" fill="none" stroke="black"/>
<path d="M82.8417,337.964v 9.2593" fill="none" stroke="black"/>
<path d="M68.6754,342.594v 4.62965" fill="none" stroke="black"/>
<path d="M507.831,337.964v 9.2593" fill="none" stroke="black"/>
<text xml:space="preserve" x="71.1631" y="359.813" fill="black" font-size="12.8882" font-family="Helvetica">780</text>
<text xml:space="preserve" x="141.826" y="359.813" fill="black" font-size="12.8882" font-family="Helvetica">790</text>
<text xml:space="preserve" x="212.489" y="359.813" fill="black" font-size="12.8882" font-family="Helvetica">800</text>
<text xml:space="preserve" x="283.965" y="359.813" fill="black" font-size="12.8882" font-family="Helvetica">810</text>
<text xml:space="preserve" x="354.628" y="359.813" fill="black" font-size="12.8882" font-family="Helvetica">820</text>
<text xml:space="preserve" x="425.291" y="359.813" fill="black" font-size="12.8882" font-family="Helvetica">830</text>
<text xml:space="preserve" x="495.954" y="359.813" fill="black" font-size="12.8882" font-family="Helvetica">840</text>
<text xml:space="preserve" x="457.78" y="372.809" fill="black" font-size="12.8882" font-family="Helvetica">Time [ns]</text>
<path d="M57.1929,347.224v -308.643" fill="none" stroke="black"/>
<path d="M70.7992,347.224h -13.6063" fill="none" stroke="black"/>
<path d="M63.9961,340.225h -6.80315" fill="none" stroke="black"/>
<path d="M63.9961,333.226h -6.80315" fill="none" stroke="black"/>
<path d="M63.9961,326.228h -6.80315" fill="none" stroke="black"/>
<path d="M63.9961,319.229h -6.80315" fill="none" stroke="black"/>
<path d="M70.7992,312.23h -13.6063" fill="none" stroke="black"/>
<path d="M63.9961,305.232h -6.80315" fill="none" stroke="black"/>
<path d="M63.9961,298.233h -6.80315" fill="none" stroke="black"/>
<path d="M63.9961,291.234h -6.80315" fill="none" stroke="black"/>
<path d="M63.9961,284.235h -6.80315" fill="none" stroke="black"/>
<path d="M70.7992,277.237h -13.6063" fill="none" stroke="black"/>
<path d="M63.9961,270.238h -6.80315" fill="none" stroke="black"/>
<path d="M63.9961,263.239h -6.80315" fill="none" stroke="black"/>
<path d="M63.9961,256.24h -6.80315" fill="none" stroke="black"/>
<path d="M63.9961,249.242h -6.80315" fill="none" stroke="black"/>
<path d="M70.7992,242.243h -13.6063" fill="none" stroke="black"/>
<path d="M63.9961,235.244h -6.80315" fill="none" stroke="black"/>
<path d="M63.9961,228.246h -6.80315" fill="none" stroke="black"/>
<path d="M63.9961,221.247h -6.80315" fill="none" stroke="black"/>
<path d="M63.9961,214.248h -6.80315" fill="none" stroke="black"/>
<path d="M70.7992,207.249h -13.6063" fill="none" stroke="black"/>
<path d="M63.9961,200.251h -6.80315" fill="none" stroke="black"/>
<path d="M63.9961,193.252h -6.80315" fill="none" stroke="black"/>
<path d="M63.9961,186.253h -6.80315" fill="none" stroke="black"/>
<path d="M63.9961,179.255h -6.80315" fill="none" stroke="black"/>
<path d="M70.7992,172.256h -13.6063" fill="none" stroke="black"/>
<path d="M63.9961,165.257h -6.80315" fill="none" stroke="black"/>
<path d="M63.9961,158.258h -6.80315" fill="none" stroke="black"/>
<path d="M63.9961,151.26h -6.80315" fill="none" stroke="black"/>
<path d="M63.9961,144.261h -6.80315" fill="none" stroke="black"/>
<path d="M70.7992,137.262h -13.6063" fill="none" stroke="black"/>
<path d="M63.9961,130.264h -6.80315" fill="none" stroke="black"/>
<path d="M63.9961,123.265h -6.80315" fill="none" stroke="black"/>
<path d="M63.9961,116.266h -6.80315" fill="none" stroke="black"/>
<path d="M63.9961,109.267h -6.80315" fill="none" stroke="black"/>
<path d="M70.7992,102.269h -13.6063" fill="none" stroke="black"/>
<path d="M63.9961,95.27h -6.80315" fill="none" stroke="black"/>
<path d="M63.9961,88.2713h -6.80315" fill="none" stroke="black"/>
<path d="M63.9961,81.2726h -6.80315" fill="none" stroke="black"/>
<path d="M63.9961,74.2739h -6.80315" fill="none" stroke="black"/>
<path d="M70.7992,67.2752h -13.6063" fill="none" stroke="black"/>
<path d="M70.7992,67.2752h -13.6063" fill="none" stroke="black"/>
<path d="M63.9961,60.2764h -6.80315" fill="none" stroke="black"/>
<path d="M63.9961,53.2777h -6.80315" fill="none" stroke="black"/>
<path d="M63.9961,46.279h -6.80315" fill="none" stroke="black"/>
<path d="M63.9961,39.2803h -6.80315" fill="none" stroke="black"/>
<text xml:space="preserve" x="46.7965" y="351.691" fill="black" font-size="12.8882" font-family="Helvetica">0</text>
<text xml:space="preserve" x="46.7965" y="316.766" fill="black" font-size="12.8882" font-family="Helvetica">5</text>
<text xml:space="preserve" x="39.4865" y="281.84" fill="black" font-size="12.8882" font-family="Helvetica">10</text>
<text xml:space="preserve" x="39.4865" y="246.915" fill="black" font-size="12.8882" font-family="Helvetica">15</text>
<text xml:space="preserve" x="39.4865" y="211.989" fill="black" font-size="12.8882" font-family="Helvetica">20</text>
<text xml:space="preserve" x="39.4865" y="177.064" fill="black" font-size="12.8882" font-family="Helvetica">25</text>
<text xml:space="preserve" x="39.4865" y="141.326" fill="black" font-size="12.8882" font-family="Helvetica">30</text>
<text xml:space="preserve" x="39.4865" y="106.401" fill="black" font-size="12.8882" font-family="Helvetica">35</text>
<text xml:space="preserve" x="39.4865" y="71.4753" fill="black" font-size="12.8882" font-family="Helvetica">40</text>
<g transform="rotate(-90,28.9277,71.4753)">
<text xml:space="preserve" x="28.9277" y="71.4753" fill="black" font-size="12.8882" font-family="Helvetica">Event</text>
</g>
<rect x="351.996" y="25.0773" width="204.094" height="108.025" fill="white"/>
<path d="M351.996,133.102h 204.094" fill="none" stroke="black"/>
<path d="M556.091,133.102v -108.025" fill="none" stroke="black"/>
<path d="M556.091,25.0773h -204.094" fill="none" stroke="black"/>
<path d="M351.996,25.0773v 108.025" fill="none" stroke="black"/>
<text xml:space="preserve" x="361.938" y="38.9865" fill="black" font-size="15.6962" font-family="Helvetica">Entries </text>
<text xml:space="preserve" x="526.818" y="38.9865" fill="black" font-size="15.6962" font-family="Helvetica"> 81</text>
<text xml:space="preserve" x="375.745" y="57.6676" fill="black" font-size="15.6962" font-family="Helvetica"> / ndf </text>
<text xml:space="preserve" x="370.06" y="52.7943" fill="black" font-size="10.6308" font-family="Helvetica">2</text>
<text xml:space="preserve" x="361.938" y="57.6676" fill="black" font-size="15.6962" font-family="Times">&#0967;</text>
<text xml:space="preserve" x="481.334" y="57.6676" fill="black" font-size="15.6962" font-family="Helvetica"> 5.102 / 3</text>
<text xml:space="preserve" x="361.938" y="75.5364" fill="black" font-size="15.6962" font-family="Helvetica">Prob  </text>
<text xml:space="preserve" x="494.329" y="75.5364" fill="black" font-size="15.6962" font-family="Helvetica"> 0.1645</text>
<text xml:space="preserve" x="361.938" y="94.2175" fill="black" font-size="15.6962" font-family="Helvetica">Const    </text>
<text xml:space="preserve" x="511.386" y="93.4052" fill="black" font-size="15.6962" font-family="Helvetica"> 6.68</text>
<text xml:space="preserve" x="502.452" y="93.4052" fill="black" font-size="15.6962" font-family="Times">&#0177;</text>
<text xml:space="preserve" x="457.78" y="93.4052" fill="black" font-size="15.6962" font-family="Helvetica"> 40.91 </text>
<text xml:space="preserve" x="361.938" y="111.274" fill="black" font-size="15.6962" font-family="Helvetica">Mean     </text>
<text xml:space="preserve" x="519.508" y="111.274" fill="black" font-size="15.6962" font-family="Helvetica"> 0.4</text>
<text xml:space="preserve" x="510.574" y="111.274" fill="black" font-size="15.6962" font-family="Times">&#0177;</text>
<text xml:space="preserve" x="462.653" y="111.274" fill="black" font-size="15.6962" font-family="Helvetica"> 809.4 </text>
<text xml:space="preserve" x="361.938" y="128.331" fill="black" font-size="15.6962" font-family="Helvetica">Sigma    </text>
<text xml:space="preserve" x="505.7" y="129.143" fill="black" font-size="15.6962" font-family="Helvetica"> 0.361</text>
<text xml:space="preserve" x="496.766" y="129.143" fill="black" font-size="15.6962" font-family="Times">&#0177;</text>
<text xml:space="preserve" x="448.845" y="129.143" fill="black" font-size="15.6962" font-family="Helvetica"> 2.978 </text>
<text xml:space="preserve" x="248.227" y="18.681" fill="black" font-size="17.0471" font-family="Helvetica">140mm 0</text></svg>
