<?xml version="1.0" standalone="no"?>
<svg width="567.429" height="386.304" viewBox="0 0 567.429 386.304" xmlns="http://www.w3.org/2000/svg" shape-rendering="crispEdges">
<title>
img/week2/Combined140mm_ch_17.svg
</title>
<desc>
Creator: ROOT Version 6.22/08
CreationDate: Thu Jun 24 12:19:37 2021</desc>
<defs>
</defs>
<rect x="0.5" y="0" width="566.929" height="385.804" fill="white"/>
<rect x="57.1929" y="38.5804" width="453.543" height="308.643" fill="white"/>
<rect x="57.1929" y="38.5804" width="453.543" height="308.643" fill="none" stroke="black"/>
<rect x="57.1929" y="38.5804" width="453.543" height="308.643" fill="white"/>
<rect x="57.1929" y="38.5804" width="453.543" height="308.643" fill="none" stroke="black"/>
<path d="M57.1929,347.224h 37.7953v -7.41957h 37.7953v 7.41957h 37.7953v -7.41957h 37.7953v -18.5489h 37.7953v -252.265h 37.7953v 11.1293h 37.7953v 259.685h 37.7953v 7.41957h 151.181" fill="none" stroke="#000099"/>
<g fill="#ff0000">
<polygon points=" 260.843, 64.7665 269.29, 64.7665 265.067, 73.2136"/>
</g>
<path d="M59.4606,347.224h 122.457l 4.53543, -0.0334193l 4.53543, -0.0463499l 4.53543, -0.102734l 4.53543, -0.217722l 4.53543, -0.441047l 4.53543, -0.853714l 4.53543, -1.57837l 4.53543, -2.78589l 4.53543, -4.69158l 4.53543, -7.53283l 4.53543,
 -11.5209l 4.53543, -16.7647l 4.53543, -23.1759l 4.53543, -30.3762l 4.53543, -37.6431l 4.53543, -43.9316l 4.53543, -47.999l 4.53543, -48.6322l 3.05977, -30.3162" fill="none" stroke="#ff0000" stroke-width="2"/>
<path d="M297.064,38.5804l 2.775, 27.2507" fill="none" stroke="#ff0000" stroke-width="2"/>
<path d="M299.839,65.8311l 4.53543, 48.5311l 4.53543, 48.1557l 4.53543, 44.2753l 4.53543, 38.0918l 4.53543, 30.8535l 4.53543, 23.6233l 4.53543, 17.1461l 4.53543, 11.8215l 4.53543, 7.75401l 4.53543, 4.84439l 4.53543, 2.88545l 4.53543, 1.63971l
 4.53543, 0.889541l 4.53543, 0.460915l 4.53543, 0.228197l 4.53543, 0.107991l 4.53543, 0.0488625l 4.53543, 0.0353975h 126.992" fill="none" stroke="#ff0000" stroke-width="2"/>
<rect x="351.996" y="25.0773" width="204.094" height="108.025" fill="white"/>
<path d="M351.996,133.102h 204.094" fill="none" stroke="black"/>
<path d="M556.091,133.102v -108.025" fill="none" stroke="black"/>
<path d="M556.091,25.0773h -204.094" fill="none" stroke="black"/>
<path d="M351.996,25.0773v 108.025" fill="none" stroke="black"/>
<text xml:space="preserve" x="361.938" y="38.9865" fill="black" font-size="15.6962" font-family="Helvetica">Entries </text>
<text xml:space="preserve" x="515.447" y="38.9865" fill="black" font-size="15.6962" font-family="Helvetica"> 160</text>
<text xml:space="preserve" x="375.745" y="57.6676" fill="black" font-size="15.6962" font-family="Helvetica"> / ndf </text>
<text xml:space="preserve" x="370.06" y="52.7943" fill="black" font-size="10.6308" font-family="Helvetica">2</text>
<text xml:space="preserve" x="361.938" y="57.6676" fill="black" font-size="15.6962" font-family="Times">&#0967;</text>
<text xml:space="preserve" x="481.334" y="57.6676" fill="black" font-size="15.6962" font-family="Helvetica"> 5.647 / 3</text>
<text xml:space="preserve" x="361.938" y="75.5364" fill="black" font-size="15.6962" font-family="Helvetica">Prob  </text>
<text xml:space="preserve" x="496.766" y="75.5364" fill="black" font-size="15.6962" font-family="Helvetica"> 0.1301</text>
<text xml:space="preserve" x="361.938" y="94.2175" fill="black" font-size="15.6962" font-family="Helvetica">Const    </text>
<text xml:space="preserve" x="511.386" y="93.4052" fill="black" font-size="15.6962" font-family="Helvetica"> 11.2</text>
<text xml:space="preserve" x="502.452" y="93.4052" fill="black" font-size="15.6962" font-family="Times">&#0177;</text>
<text xml:space="preserve" x="454.531" y="93.4052" fill="black" font-size="15.6962" font-family="Helvetica"> 105.9 </text>
<text xml:space="preserve" x="361.938" y="111.274" fill="black" font-size="15.6962" font-family="Helvetica">Mean     </text>
<text xml:space="preserve" x="520.32" y="111.274" fill="black" font-size="15.6962" font-family="Helvetica"> 0.2</text>
<text xml:space="preserve" x="511.386" y="111.274" fill="black" font-size="15.6962" font-family="Times">&#0177;</text>
<text xml:space="preserve" x="463.465" y="111.274" fill="black" font-size="15.6962" font-family="Helvetica"> 808.2 </text>
<text xml:space="preserve" x="361.938" y="128.331" fill="black" font-size="15.6962" font-family="Helvetica">Sigma    </text>
<text xml:space="preserve" x="502.452" y="129.143" fill="black" font-size="15.6962" font-family="Helvetica"> 0.154</text>
<text xml:space="preserve" x="493.517" y="129.143" fill="black" font-size="15.6962" font-family="Times">&#0177;</text>
<text xml:space="preserve" x="446.408" y="129.143" fill="black" font-size="15.6962" font-family="Helvetica"> 2.333 </text>
<path d="M57.1929,347.224h 453.543" fill="none" stroke="black"/>
<path d="M63.0218,337.964v 9.2593" fill="none" stroke="black"/>
<path d="M72.466,342.594v 4.62965" fill="none" stroke="black"/>
<path d="M81.9102,342.594v 4.62965" fill="none" stroke="black"/>
<path d="M91.3544,342.594v 4.62965" fill="none" stroke="black"/>
<path d="M100.799,342.594v 4.62965" fill="none" stroke="black"/>
<path d="M110.243,337.964v 9.2593" fill="none" stroke="black"/>
<path d="M119.687,342.594v 4.62965" fill="none" stroke="black"/>
<path d="M129.131,342.594v 4.62965" fill="none" stroke="black"/>
<path d="M138.575,342.594v 4.62965" fill="none" stroke="black"/>
<path d="M148.02,342.594v 4.62965" fill="none" stroke="black"/>
<path d="M157.464,337.964v 9.2593" fill="none" stroke="black"/>
<path d="M166.908,342.594v 4.62965" fill="none" stroke="black"/>
<path d="M176.352,342.594v 4.62965" fill="none" stroke="black"/>
<path d="M185.796,342.594v 4.62965" fill="none" stroke="black"/>
<path d="M195.241,342.594v 4.62965" fill="none" stroke="black"/>
<path d="M204.685,337.964v 9.2593" fill="none" stroke="black"/>
<path d="M214.129,342.594v 4.62965" fill="none" stroke="black"/>
<path d="M223.573,342.594v 4.62965" fill="none" stroke="black"/>
<path d="M233.018,342.594v 4.62965" fill="none" stroke="black"/>
<path d="M242.462,342.594v 4.62965" fill="none" stroke="black"/>
<path d="M251.906,337.964v 9.2593" fill="none" stroke="black"/>
<path d="M261.35,342.594v 4.62965" fill="none" stroke="black"/>
<path d="M270.794,342.594v 4.62965" fill="none" stroke="black"/>
<path d="M280.239,342.594v 4.62965" fill="none" stroke="black"/>
<path d="M289.683,342.594v 4.62965" fill="none" stroke="black"/>
<path d="M299.127,337.964v 9.2593" fill="none" stroke="black"/>
<path d="M308.571,342.594v 4.62965" fill="none" stroke="black"/>
<path d="M318.015,342.594v 4.62965" fill="none" stroke="black"/>
<path d="M327.46,342.594v 4.62965" fill="none" stroke="black"/>
<path d="M336.904,342.594v 4.62965" fill="none" stroke="black"/>
<path d="M346.348,337.964v 9.2593" fill="none" stroke="black"/>
<path d="M355.792,342.594v 4.62965" fill="none" stroke="black"/>
<path d="M365.236,342.594v 4.62965" fill="none" stroke="black"/>
<path d="M374.681,342.594v 4.62965" fill="none" stroke="black"/>
<path d="M384.125,342.594v 4.62965" fill="none" stroke="black"/>
<path d="M393.569,337.964v 9.2593" fill="none" stroke="black"/>
<path d="M403.013,342.594v 4.62965" fill="none" stroke="black"/>
<path d="M412.457,342.594v 4.62965" fill="none" stroke="black"/>
<path d="M421.902,342.594v 4.62965" fill="none" stroke="black"/>
<path d="M431.346,342.594v 4.62965" fill="none" stroke="black"/>
<path d="M440.79,337.964v 9.2593" fill="none" stroke="black"/>
<path d="M450.234,342.594v 4.62965" fill="none" stroke="black"/>
<path d="M459.678,342.594v 4.62965" fill="none" stroke="black"/>
<path d="M469.123,342.594v 4.62965" fill="none" stroke="black"/>
<path d="M478.567,342.594v 4.62965" fill="none" stroke="black"/>
<path d="M488.011,337.964v 9.2593" fill="none" stroke="black"/>
<path d="M63.0218,337.964v 9.2593" fill="none" stroke="black"/>
<path d="M488.011,337.964v 9.2593" fill="none" stroke="black"/>
<path d="M497.455,342.594v 4.62965" fill="none" stroke="black"/>
<path d="M506.9,342.594v 4.62965" fill="none" stroke="black"/>
<text xml:space="preserve" x="50.8576" y="359.813" fill="black" font-size="12.8882" font-family="Helvetica">785</text>
<text xml:space="preserve" x="98.7785" y="359.813" fill="black" font-size="12.8882" font-family="Helvetica">790</text>
<text xml:space="preserve" x="145.887" y="359.813" fill="black" font-size="12.8882" font-family="Helvetica">795</text>
<text xml:space="preserve" x="192.996" y="359.813" fill="black" font-size="12.8882" font-family="Helvetica">800</text>
<text xml:space="preserve" x="240.105" y="359.813" fill="black" font-size="12.8882" font-family="Helvetica">805</text>
<text xml:space="preserve" x="287.213" y="359.813" fill="black" font-size="12.8882" font-family="Helvetica">810</text>
<text xml:space="preserve" x="334.322" y="359.813" fill="black" font-size="12.8882" font-family="Helvetica">815</text>
<text xml:space="preserve" x="381.431" y="359.813" fill="black" font-size="12.8882" font-family="Helvetica">820</text>
<text xml:space="preserve" x="429.352" y="359.813" fill="black" font-size="12.8882" font-family="Helvetica">825</text>
<text xml:space="preserve" x="476.461" y="359.813" fill="black" font-size="12.8882" font-family="Helvetica">830</text>
<text xml:space="preserve" x="457.78" y="372.809" fill="black" font-size="12.8882" font-family="Helvetica">Time [ns]</text>
<path d="M57.1929,347.224v -308.643" fill="none" stroke="black"/>
<path d="M70.7992,347.224h -13.6063" fill="none" stroke="black"/>
<path d="M63.9961,339.804h -6.80315" fill="none" stroke="black"/>
<path d="M63.9961,332.385h -6.80315" fill="none" stroke="black"/>
<path d="M63.9961,324.965h -6.80315" fill="none" stroke="black"/>
<path d="M63.9961,317.546h -6.80315" fill="none" stroke="black"/>
<path d="M70.7992,310.126h -13.6063" fill="none" stroke="black"/>
<path d="M63.9961,302.706h -6.80315" fill="none" stroke="black"/>
<path d="M63.9961,295.287h -6.80315" fill="none" stroke="black"/>
<path d="M63.9961,287.867h -6.80315" fill="none" stroke="black"/>
<path d="M63.9961,280.448h -6.80315" fill="none" stroke="black"/>
<path d="M70.7992,273.028h -13.6063" fill="none" stroke="black"/>
<path d="M63.9961,265.609h -6.80315" fill="none" stroke="black"/>
<path d="M63.9961,258.189h -6.80315" fill="none" stroke="black"/>
<path d="M63.9961,250.769h -6.80315" fill="none" stroke="black"/>
<path d="M63.9961,243.35h -6.80315" fill="none" stroke="black"/>
<path d="M70.7992,235.93h -13.6063" fill="none" stroke="black"/>
<path d="M63.9961,228.511h -6.80315" fill="none" stroke="black"/>
<path d="M63.9961,221.091h -6.80315" fill="none" stroke="black"/>
<path d="M63.9961,213.672h -6.80315" fill="none" stroke="black"/>
<path d="M63.9961,206.252h -6.80315" fill="none" stroke="black"/>
<path d="M70.7992,198.832h -13.6063" fill="none" stroke="black"/>
<path d="M63.9961,191.413h -6.80315" fill="none" stroke="black"/>
<path d="M63.9961,183.993h -6.80315" fill="none" stroke="black"/>
<path d="M63.9961,176.574h -6.80315" fill="none" stroke="black"/>
<path d="M63.9961,169.154h -6.80315" fill="none" stroke="black"/>
<path d="M70.7992,161.735h -13.6063" fill="none" stroke="black"/>
<path d="M63.9961,154.315h -6.80315" fill="none" stroke="black"/>
<path d="M63.9961,146.896h -6.80315" fill="none" stroke="black"/>
<path d="M63.9961,139.476h -6.80315" fill="none" stroke="black"/>
<path d="M63.9961,132.056h -6.80315" fill="none" stroke="black"/>
<path d="M70.7992,124.637h -13.6063" fill="none" stroke="black"/>
<path d="M63.9961,117.217h -6.80315" fill="none" stroke="black"/>
<path d="M63.9961,109.798h -6.80315" fill="none" stroke="black"/>
<path d="M63.9961,102.378h -6.80315" fill="none" stroke="black"/>
<path d="M63.9961,94.9585h -6.80315" fill="none" stroke="black"/>
<path d="M70.7992,87.539h -13.6063" fill="none" stroke="black"/>
<path d="M63.9961,80.1194h -6.80315" fill="none" stroke="black"/>
<path d="M63.9961,72.6999h -6.80315" fill="none" stroke="black"/>
<path d="M63.9961,65.2803h -6.80315" fill="none" stroke="black"/>
<path d="M63.9961,57.8607h -6.80315" fill="none" stroke="black"/>
<path d="M70.7992,50.4412h -13.6063" fill="none" stroke="black"/>
<path d="M70.7992,50.4412h -13.6063" fill="none" stroke="black"/>
<path d="M63.9961,43.0216h -6.80315" fill="none" stroke="black"/>
<text xml:space="preserve" x="46.7965" y="351.691" fill="black" font-size="12.8882" font-family="Helvetica">0</text>
<text xml:space="preserve" x="39.4865" y="314.329" fill="black" font-size="12.8882" font-family="Helvetica">10</text>
<text xml:space="preserve" x="39.4865" y="277.779" fill="black" font-size="12.8882" font-family="Helvetica">20</text>
<text xml:space="preserve" x="39.4865" y="240.417" fill="black" font-size="12.8882" font-family="Helvetica">30</text>
<text xml:space="preserve" x="39.4865" y="203.055" fill="black" font-size="12.8882" font-family="Helvetica">40</text>
<text xml:space="preserve" x="39.4865" y="166.505" fill="black" font-size="12.8882" font-family="Helvetica">50</text>
<text xml:space="preserve" x="39.4865" y="129.143" fill="black" font-size="12.8882" font-family="Helvetica">60</text>
<text xml:space="preserve" x="39.4865" y="91.7808" fill="black" font-size="12.8882" font-family="Helvetica">70</text>
<text xml:space="preserve" x="39.4865" y="55.2309" fill="black" font-size="12.8882" font-family="Helvetica">80</text>
<g transform="rotate(-90,28.9277,71.4753)">
<text xml:space="preserve" x="28.9277" y="71.4753" fill="black" font-size="12.8882" font-family="Helvetica">Event</text>
</g>
<rect x="351.996" y="25.0773" width="204.094" height="108.025" fill="white"/>
<path d="M351.996,133.102h 204.094" fill="none" stroke="black"/>
<path d="M556.091,133.102v -108.025" fill="none" stroke="black"/>
<path d="M556.091,25.0773h -204.094" fill="none" stroke="black"/>
<path d="M351.996,25.0773v 108.025" fill="none" stroke="black"/>
<text xml:space="preserve" x="361.938" y="38.9865" fill="black" font-size="15.6962" font-family="Helvetica">Entries </text>
<text xml:space="preserve" x="515.447" y="38.9865" fill="black" font-size="15.6962" font-family="Helvetica"> 160</text>
<text xml:space="preserve" x="375.745" y="57.6676" fill="black" font-size="15.6962" font-family="Helvetica"> / ndf </text>
<text xml:space="preserve" x="370.06" y="52.7943" fill="black" font-size="10.6308" font-family="Helvetica">2</text>
<text xml:space="preserve" x="361.938" y="57.6676" fill="black" font-size="15.6962" font-family="Times">&#0967;</text>
<text xml:space="preserve" x="481.334" y="57.6676" fill="black" font-size="15.6962" font-family="Helvetica"> 5.647 / 3</text>
<text xml:space="preserve" x="361.938" y="75.5364" fill="black" font-size="15.6962" font-family="Helvetica">Prob  </text>
<text xml:space="preserve" x="496.766" y="75.5364" fill="black" font-size="15.6962" font-family="Helvetica"> 0.1301</text>
<text xml:space="preserve" x="361.938" y="94.2175" fill="black" font-size="15.6962" font-family="Helvetica">Const    </text>
<text xml:space="preserve" x="511.386" y="93.4052" fill="black" font-size="15.6962" font-family="Helvetica"> 11.2</text>
<text xml:space="preserve" x="502.452" y="93.4052" fill="black" font-size="15.6962" font-family="Times">&#0177;</text>
<text xml:space="preserve" x="454.531" y="93.4052" fill="black" font-size="15.6962" font-family="Helvetica"> 105.9 </text>
<text xml:space="preserve" x="361.938" y="111.274" fill="black" font-size="15.6962" font-family="Helvetica">Mean     </text>
<text xml:space="preserve" x="520.32" y="111.274" fill="black" font-size="15.6962" font-family="Helvetica"> 0.2</text>
<text xml:space="preserve" x="511.386" y="111.274" fill="black" font-size="15.6962" font-family="Times">&#0177;</text>
<text xml:space="preserve" x="463.465" y="111.274" fill="black" font-size="15.6962" font-family="Helvetica"> 808.2 </text>
<text xml:space="preserve" x="361.938" y="128.331" fill="black" font-size="15.6962" font-family="Helvetica">Sigma    </text>
<text xml:space="preserve" x="502.452" y="129.143" fill="black" font-size="15.6962" font-family="Helvetica"> 0.154</text>
<text xml:space="preserve" x="493.517" y="129.143" fill="black" font-size="15.6962" font-family="Times">&#0177;</text>
<text xml:space="preserve" x="446.408" y="129.143" fill="black" font-size="15.6962" font-family="Helvetica"> 2.333 </text>
<text xml:space="preserve" x="243.354" y="18.681" fill="black" font-size="17.0471" font-family="Helvetica">140mm 17</text></svg>
