<?xml version="1.0" standalone="no"?>
<svg width="567.429" height="384.969" viewBox="0 0 567.429 384.969" xmlns="http://www.w3.org/2000/svg" shape-rendering="crispEdges">
<title>
img/week2/Combined670mm_ch_32.svg
</title>
<desc>
Creator: ROOT Version 6.22/09
CreationDate: Thu Jun 24 12:07:49 2021</desc>
<defs>
</defs>
<rect x="0.5" y="0" width="566.929" height="384.469" fill="white"/>
<rect x="57.1929" y="38.4469" width="453.543" height="307.575" fill="white"/>
<rect x="57.1929" y="38.4469" width="453.543" height="307.575" fill="none" stroke="black"/>
<rect x="57.1929" y="38.4469" width="453.543" height="307.575" fill="white"/>
<rect x="57.1929" y="38.4469" width="453.543" height="307.575" fill="none" stroke="black"/>
<path d="M57.1929,346.022h 69.7759v -5.278h 69.7759v -5.278h 34.8879v -52.78h 34.8879v -229.593h 34.8879v 200.564h 34.8879v 92.365h 174.44" fill="none" stroke="#000099"/>
<g fill="#ff0000">
<polygon points=" 279.729, 48.8577 288.2, 48.8577 283.965, 57.329"/>
</g>
<path d="M59.4606,346.022h 131.528l 4.53543, -0.0427439l 4.53543, -0.0583103l 4.53543, -0.127547l 4.53543, -0.266217l 4.53543, -0.530021l 4.53543, -1.00616l 4.53543, -1.82029l 4.53543, -3.1366l 4.53543, -5.14403l 4.53543, -8.02185l 4.53543, -11.8814l
 4.53543, -16.6885l 4.53543, -22.1846l 4.53543, -27.8326l 4.53543, -32.8241l 4.53543, -36.1713l 4.53543, -36.8879l 4.53543, -34.2286l 4.53543, -27.9233l 4.53543, -18.3303" fill="none" stroke="#ff0000" stroke-width="2"/>
<path d="M281.697,60.9159l 4.53543, -6.44174l 4.53543, 6.27762l 4.53543, 18.1872l 4.53543, 27.8178l 4.53543, 34.1697l 4.53543, 36.8762l 4.53543, 36.1996l 4.53543, 32.8806l 4.53543, 27.9039l 4.53543, 22.2588l 4.53543, 16.7567l 4.53543, 11.9383l
 4.53543, 8.06576l 4.53543, 5.17562l 4.53543, 3.15792l 4.53543, 1.83384l 4.53543, 1.01428l 4.53543, 0.534636l 4.53543, 0.268701l 4.53543, 0.128816l 4.53543, 0.0589265l 4.53543, 0.0432387h 122.457" fill="none" stroke="#ff0000" stroke-width="2"/>
<path d="M503.933,346.022h 4.53543" fill="none" stroke="#ff0000" stroke-width="2"/>
<path d="M57.1929,346.022h 453.543" fill="none" stroke="black"/>
<path d="M141.05,336.795v 9.22726" fill="none" stroke="black"/>
<path d="M158.485,341.409v 4.61363" fill="none" stroke="black"/>
<path d="M175.921,341.409v 4.61363" fill="none" stroke="black"/>
<path d="M193.356,341.409v 4.61363" fill="none" stroke="black"/>
<path d="M210.792,341.409v 4.61363" fill="none" stroke="black"/>
<path d="M228.227,336.795v 9.22726" fill="none" stroke="black"/>
<path d="M245.663,341.409v 4.61363" fill="none" stroke="black"/>
<path d="M263.098,341.409v 4.61363" fill="none" stroke="black"/>
<path d="M280.534,341.409v 4.61363" fill="none" stroke="black"/>
<path d="M297.969,341.409v 4.61363" fill="none" stroke="black"/>
<path d="M315.405,336.795v 9.22726" fill="none" stroke="black"/>
<path d="M332.84,341.409v 4.61363" fill="none" stroke="black"/>
<path d="M350.276,341.409v 4.61363" fill="none" stroke="black"/>
<path d="M367.711,341.409v 4.61363" fill="none" stroke="black"/>
<path d="M385.146,341.409v 4.61363" fill="none" stroke="black"/>
<path d="M402.582,336.795v 9.22726" fill="none" stroke="black"/>
<path d="M420.017,341.409v 4.61363" fill="none" stroke="black"/>
<path d="M437.453,341.409v 4.61363" fill="none" stroke="black"/>
<path d="M454.888,341.409v 4.61363" fill="none" stroke="black"/>
<path d="M472.324,341.409v 4.61363" fill="none" stroke="black"/>
<path d="M489.759,336.795v 9.22726" fill="none" stroke="black"/>
<path d="M141.05,336.795v 9.22726" fill="none" stroke="black"/>
<path d="M123.615,341.409v 4.61363" fill="none" stroke="black"/>
<path d="M106.179,341.409v 4.61363" fill="none" stroke="black"/>
<path d="M88.7436,341.409v 4.61363" fill="none" stroke="black"/>
<path d="M71.3081,341.409v 4.61363" fill="none" stroke="black"/>
<path d="M489.759,336.795v 9.22726" fill="none" stroke="black"/>
<path d="M507.195,341.409v 4.61363" fill="none" stroke="black"/>
<text xml:space="preserve" x="130.014" y="358.403" fill="black" font-size="12.8453" font-family="Helvetica">790</text>
<text xml:space="preserve" x="217.171" y="358.403" fill="black" font-size="12.8453" font-family="Helvetica">800</text>
<text xml:space="preserve" x="304.328" y="358.403" fill="black" font-size="12.8453" font-family="Helvetica">810</text>
<text xml:space="preserve" x="391.486" y="358.403" fill="black" font-size="12.8453" font-family="Helvetica">820</text>
<text xml:space="preserve" x="478.643" y="358.403" fill="black" font-size="12.8453" font-family="Helvetica">830</text>
<text xml:space="preserve" x="460.723" y="370.622" fill="black" font-size="12.8453" font-family="Helvetica">Time [ps]</text>
<path d="M57.1929,346.022v -307.575" fill="none" stroke="black"/>
<path d="M70.7992,346.022h -13.6063" fill="none" stroke="black"/>
<path d="M63.9961,332.827h -6.80315" fill="none" stroke="black"/>
<path d="M63.9961,319.632h -6.80315" fill="none" stroke="black"/>
<path d="M63.9961,306.437h -6.80315" fill="none" stroke="black"/>
<path d="M70.7992,293.242h -13.6063" fill="none" stroke="black"/>
<path d="M63.9961,280.047h -6.80315" fill="none" stroke="black"/>
<path d="M63.9961,266.852h -6.80315" fill="none" stroke="black"/>
<path d="M63.9961,253.657h -6.80315" fill="none" stroke="black"/>
<path d="M70.7992,240.462h -13.6063" fill="none" stroke="black"/>
<path d="M63.9961,227.267h -6.80315" fill="none" stroke="black"/>
<path d="M63.9961,214.072h -6.80315" fill="none" stroke="black"/>
<path d="M63.9961,200.877h -6.80315" fill="none" stroke="black"/>
<path d="M70.7992,187.682h -13.6063" fill="none" stroke="black"/>
<path d="M63.9961,174.487h -6.80315" fill="none" stroke="black"/>
<path d="M63.9961,161.292h -6.80315" fill="none" stroke="black"/>
<path d="M63.9961,148.097h -6.80315" fill="none" stroke="black"/>
<path d="M70.7992,134.902h -13.6063" fill="none" stroke="black"/>
<path d="M63.9961,121.707h -6.80315" fill="none" stroke="black"/>
<path d="M63.9961,108.512h -6.80315" fill="none" stroke="black"/>
<path d="M63.9961,95.3174h -6.80315" fill="none" stroke="black"/>
<path d="M70.7992,82.1224h -13.6063" fill="none" stroke="black"/>
<path d="M70.7992,82.1224h -13.6063" fill="none" stroke="black"/>
<path d="M63.9961,68.9274h -6.80315" fill="none" stroke="black"/>
<path d="M63.9961,55.7324h -6.80315" fill="none" stroke="black"/>
<path d="M63.9961,42.5374h -6.80315" fill="none" stroke="black"/>
<text xml:space="preserve" x="47.7441" y="350.258" fill="black" font-size="12.8453" font-family="Helvetica">0</text>
<text xml:space="preserve" x="41.2277" y="298.127" fill="black" font-size="12.8453" font-family="Helvetica">20</text>
<text xml:space="preserve" x="41.2277" y="245.181" fill="black" font-size="12.8453" font-family="Helvetica">40</text>
<text xml:space="preserve" x="41.2277" y="192.235" fill="black" font-size="12.8453" font-family="Helvetica">60</text>
<text xml:space="preserve" x="41.2277" y="139.289" fill="black" font-size="12.8453" font-family="Helvetica">80</text>
<text xml:space="preserve" x="33.8967" y="86.3427" fill="black" font-size="12.8453" font-family="Helvetica">100</text>
<g transform="rotate(-90,20.8638,70.0516)">
<text xml:space="preserve" x="20.8638" y="70.0516" fill="black" font-size="12.8453" font-family="Helvetica">Event</text>
</g>
<text xml:space="preserve" x="243.237" y="18.7347" fill="black" font-size="16.9898" font-family="Helvetica">670mm 32</text></svg>
