<?xml version="1.0" standalone="no"?>
<svg width="567.429" height="386.304" viewBox="0 0 567.429 386.304" xmlns="http://www.w3.org/2000/svg" shape-rendering="crispEdges">
<title>
img/week2/Combined280mm_ch_29.svg
</title>
<desc>
Creator: ROOT Version 6.22/08
CreationDate: Tue Jun 22 00:49:13 2021</desc>
<defs>
</defs>
<rect x="0.5" y="0" width="566.929" height="385.804" fill="white"/>
<rect x="57.1929" y="38.5804" width="453.543" height="308.643" fill="white"/>
<rect x="57.1929" y="38.5804" width="453.543" height="308.643" fill="none" stroke="black"/>
<rect x="57.1929" y="38.5804" width="453.543" height="308.643" fill="white"/>
<rect x="57.1929" y="38.5804" width="453.543" height="308.643" fill="none" stroke="black"/>
<path d="M57.1929,347.224h 37.7953v -2.01333h 37.7953v 2.01333h 37.7953v -8.05332h 37.7953v -4.02666h 37.7953v -124.826h 37.7953v -157.04h 37.7953v 271.799h 37.7953v 20.1333h 37.7953v 2.01333h 113.386" fill="none" stroke="#000099"/>
<g fill="#ff0000">
<polygon points=" 298.639, 49.0542 307.086, 49.0542 302.862, 57.5013"/>
</g>
<path d="M59.4606,347.224h 140.598l 4.53543, -0.0674477l 4.53543, -0.0910948l 4.53543, -0.197588l 4.53543, -0.408336l 4.53543, -0.803704l 4.53543, -1.5059l 4.53543, -2.68456l 4.53543, -4.55021l 4.53543, -7.32659l 4.53543, -11.1948l 4.53543, -16.2094l
 4.53543, -22.2003l 4.53543, -28.688l 4.53543, -34.8542l 4.53543, -39.6052l 4.53543, -41.7473l 4.53543, -40.2548l 4.53543, -34.5672" fill="none" stroke="#ff0000" stroke-width="2"/>
<path d="M298.722,38.5804l 1.1167, 4.09879" fill="none" stroke="#ff0000" stroke-width="2"/>
<path d="M299.839,42.6792l 4.53543, 28.5993l 4.53543, 37.0099l 4.53543, 41.2278l 4.53543, 41.3742l 4.53543, 38.202l 4.53543, 32.8284l 4.53543, 26.4391l 4.53543, 20.0472l 4.53543, 14.3557l 4.53543, 9.7306l 4.53543, 6.25345l 4.53543, 3.8152l 4.53543,
 2.21189l 4.53543, 1.21955l 4.53543, 0.639889l 4.53543, 0.319671l 4.53543, 0.152119l 4.53543, 0.0689774l 4.53543, 0.049707h 122.457" fill="none" stroke="#ff0000" stroke-width="2"/>
<path d="M57.1929,347.224h 453.543" fill="none" stroke="black"/>
<path d="M63.0218,337.964v 9.2593" fill="none" stroke="black"/>
<path d="M72.466,342.594v 4.62965" fill="none" stroke="black"/>
<path d="M81.9102,342.594v 4.62965" fill="none" stroke="black"/>
<path d="M91.3544,342.594v 4.62965" fill="none" stroke="black"/>
<path d="M100.799,342.594v 4.62965" fill="none" stroke="black"/>
<path d="M110.243,337.964v 9.2593" fill="none" stroke="black"/>
<path d="M119.687,342.594v 4.62965" fill="none" stroke="black"/>
<path d="M129.131,342.594v 4.62965" fill="none" stroke="black"/>
<path d="M138.575,342.594v 4.62965" fill="none" stroke="black"/>
<path d="M148.02,342.594v 4.62965" fill="none" stroke="black"/>
<path d="M157.464,337.964v 9.2593" fill="none" stroke="black"/>
<path d="M166.908,342.594v 4.62965" fill="none" stroke="black"/>
<path d="M176.352,342.594v 4.62965" fill="none" stroke="black"/>
<path d="M185.796,342.594v 4.62965" fill="none" stroke="black"/>
<path d="M195.241,342.594v 4.62965" fill="none" stroke="black"/>
<path d="M204.685,337.964v 9.2593" fill="none" stroke="black"/>
<path d="M214.129,342.594v 4.62965" fill="none" stroke="black"/>
<path d="M223.573,342.594v 4.62965" fill="none" stroke="black"/>
<path d="M233.018,342.594v 4.62965" fill="none" stroke="black"/>
<path d="M242.462,342.594v 4.62965" fill="none" stroke="black"/>
<path d="M251.906,337.964v 9.2593" fill="none" stroke="black"/>
<path d="M261.35,342.594v 4.62965" fill="none" stroke="black"/>
<path d="M270.794,342.594v 4.62965" fill="none" stroke="black"/>
<path d="M280.239,342.594v 4.62965" fill="none" stroke="black"/>
<path d="M289.683,342.594v 4.62965" fill="none" stroke="black"/>
<path d="M299.127,337.964v 9.2593" fill="none" stroke="black"/>
<path d="M308.571,342.594v 4.62965" fill="none" stroke="black"/>
<path d="M318.015,342.594v 4.62965" fill="none" stroke="black"/>
<path d="M327.46,342.594v 4.62965" fill="none" stroke="black"/>
<path d="M336.904,342.594v 4.62965" fill="none" stroke="black"/>
<path d="M346.348,337.964v 9.2593" fill="none" stroke="black"/>
<path d="M355.792,342.594v 4.62965" fill="none" stroke="black"/>
<path d="M365.236,342.594v 4.62965" fill="none" stroke="black"/>
<path d="M374.681,342.594v 4.62965" fill="none" stroke="black"/>
<path d="M384.125,342.594v 4.62965" fill="none" stroke="black"/>
<path d="M393.569,337.964v 9.2593" fill="none" stroke="black"/>
<path d="M403.013,342.594v 4.62965" fill="none" stroke="black"/>
<path d="M412.457,342.594v 4.62965" fill="none" stroke="black"/>
<path d="M421.902,342.594v 4.62965" fill="none" stroke="black"/>
<path d="M431.346,342.594v 4.62965" fill="none" stroke="black"/>
<path d="M440.79,337.964v 9.2593" fill="none" stroke="black"/>
<path d="M450.234,342.594v 4.62965" fill="none" stroke="black"/>
<path d="M459.678,342.594v 4.62965" fill="none" stroke="black"/>
<path d="M469.123,342.594v 4.62965" fill="none" stroke="black"/>
<path d="M478.567,342.594v 4.62965" fill="none" stroke="black"/>
<path d="M488.011,337.964v 9.2593" fill="none" stroke="black"/>
<path d="M63.0218,337.964v 9.2593" fill="none" stroke="black"/>
<path d="M488.011,337.964v 9.2593" fill="none" stroke="black"/>
<path d="M497.455,342.594v 4.62965" fill="none" stroke="black"/>
<path d="M506.9,342.594v 4.62965" fill="none" stroke="black"/>
<text xml:space="preserve" x="50.8576" y="359.813" fill="black" font-size="12.8882" font-family="Helvetica">785</text>
<text xml:space="preserve" x="98.7785" y="359.813" fill="black" font-size="12.8882" font-family="Helvetica">790</text>
<text xml:space="preserve" x="145.887" y="359.813" fill="black" font-size="12.8882" font-family="Helvetica">795</text>
<text xml:space="preserve" x="192.996" y="359.813" fill="black" font-size="12.8882" font-family="Helvetica">800</text>
<text xml:space="preserve" x="240.105" y="359.813" fill="black" font-size="12.8882" font-family="Helvetica">805</text>
<text xml:space="preserve" x="287.213" y="359.813" fill="black" font-size="12.8882" font-family="Helvetica">810</text>
<text xml:space="preserve" x="334.322" y="359.813" fill="black" font-size="12.8882" font-family="Helvetica">815</text>
<text xml:space="preserve" x="381.431" y="359.813" fill="black" font-size="12.8882" font-family="Helvetica">820</text>
<text xml:space="preserve" x="429.352" y="359.813" fill="black" font-size="12.8882" font-family="Helvetica">825</text>
<text xml:space="preserve" x="476.461" y="359.813" fill="black" font-size="12.8882" font-family="Helvetica">830</text>
<text xml:space="preserve" x="481.334" y="373.621" fill="black" font-size="12.8882" font-family="Helvetica">Time</text>
<path d="M57.1929,347.224v -308.643" fill="none" stroke="black"/>
<path d="M70.7992,347.224h -13.6063" fill="none" stroke="black"/>
<path d="M63.9961,337.157h -6.80315" fill="none" stroke="black"/>
<path d="M63.9961,327.09h -6.80315" fill="none" stroke="black"/>
<path d="M63.9961,317.024h -6.80315" fill="none" stroke="black"/>
<path d="M70.7992,306.957h -13.6063" fill="none" stroke="black"/>
<path d="M63.9961,296.891h -6.80315" fill="none" stroke="black"/>
<path d="M63.9961,286.824h -6.80315" fill="none" stroke="black"/>
<path d="M63.9961,276.757h -6.80315" fill="none" stroke="black"/>
<path d="M70.7992,266.691h -13.6063" fill="none" stroke="black"/>
<path d="M63.9961,256.624h -6.80315" fill="none" stroke="black"/>
<path d="M63.9961,246.557h -6.80315" fill="none" stroke="black"/>
<path d="M63.9961,236.491h -6.80315" fill="none" stroke="black"/>
<path d="M70.7992,226.424h -13.6063" fill="none" stroke="black"/>
<path d="M63.9961,216.357h -6.80315" fill="none" stroke="black"/>
<path d="M63.9961,206.291h -6.80315" fill="none" stroke="black"/>
<path d="M63.9961,196.224h -6.80315" fill="none" stroke="black"/>
<path d="M70.7992,186.157h -13.6063" fill="none" stroke="black"/>
<path d="M63.9961,176.091h -6.80315" fill="none" stroke="black"/>
<path d="M63.9961,166.024h -6.80315" fill="none" stroke="black"/>
<path d="M63.9961,155.958h -6.80315" fill="none" stroke="black"/>
<path d="M70.7992,145.891h -13.6063" fill="none" stroke="black"/>
<path d="M63.9961,135.824h -6.80315" fill="none" stroke="black"/>
<path d="M63.9961,125.758h -6.80315" fill="none" stroke="black"/>
<path d="M63.9961,115.691h -6.80315" fill="none" stroke="black"/>
<path d="M70.7992,105.624h -13.6063" fill="none" stroke="black"/>
<path d="M63.9961,95.5576h -6.80315" fill="none" stroke="black"/>
<path d="M63.9961,85.491h -6.80315" fill="none" stroke="black"/>
<path d="M63.9961,75.4243h -6.80315" fill="none" stroke="black"/>
<path d="M70.7992,65.3577h -13.6063" fill="none" stroke="black"/>
<path d="M70.7992,65.3577h -13.6063" fill="none" stroke="black"/>
<path d="M63.9961,55.2911h -6.80315" fill="none" stroke="black"/>
<path d="M63.9961,45.2244h -6.80315" fill="none" stroke="black"/>
<text xml:space="preserve" x="46.7965" y="351.691" fill="black" font-size="12.8882" font-family="Helvetica">0</text>
<text xml:space="preserve" x="39.4865" y="311.08" fill="black" font-size="12.8882" font-family="Helvetica">20</text>
<text xml:space="preserve" x="39.4865" y="271.281" fill="black" font-size="12.8882" font-family="Helvetica">40</text>
<text xml:space="preserve" x="39.4865" y="230.67" fill="black" font-size="12.8882" font-family="Helvetica">60</text>
<text xml:space="preserve" x="39.4865" y="190.872" fill="black" font-size="12.8882" font-family="Helvetica">80</text>
<text xml:space="preserve" x="32.1766" y="150.261" fill="black" font-size="12.8882" font-family="Helvetica">100</text>
<text xml:space="preserve" x="32.1766" y="110.462" fill="black" font-size="12.8882" font-family="Helvetica">120</text>
<text xml:space="preserve" x="32.1766" y="69.8509" fill="black" font-size="12.8882" font-family="Helvetica">140</text>
<g transform="rotate(-90,21.6177,71.4753)">
<text xml:space="preserve" x="21.6177" y="71.4753" fill="black" font-size="12.8882" font-family="Helvetica">Event</text>
</g>
<text xml:space="preserve" x="243.354" y="18.681" fill="black" font-size="17.0471" font-family="Helvetica">280mm 29</text></svg>
