<?xml version="1.0" standalone="no"?>
<svg width="567.429" height="384.969" viewBox="0 0 567.429 384.969" xmlns="http://www.w3.org/2000/svg" shape-rendering="crispEdges">
<title>
img/week2/Combined670mm_ch_16.svg
</title>
<desc>
Creator: ROOT Version 6.22/09
CreationDate: Thu Jun 24 12:33:05 2021</desc>
<defs>
</defs>
<rect x="0.5" y="0" width="566.929" height="384.469" fill="white"/>
<rect x="57.1929" y="38.4469" width="453.543" height="307.575" fill="white"/>
<rect x="57.1929" y="38.4469" width="453.543" height="307.575" fill="none" stroke="black"/>
<rect x="57.1929" y="38.4469" width="453.543" height="307.575" fill="white"/>
<rect x="57.1929" y="38.4469" width="453.543" height="307.575" fill="none" stroke="black"/>
<path d="M57.1929,346.022h 161.98v -52.7272h 32.396v -240.202h 32.396v 158.182h 32.396v 134.747h 194.376" fill="none" stroke="#000099"/>
<g fill="#ff0000">
<polygon points=" 263.531, 48.8577 272.002, 48.8577 267.767, 57.329"/>
</g>
<path d="M59.4606,346.022h 122.457l 4.53543, -0.0352371l 4.53543, -0.0528949l 4.53543, -0.121791l 4.53543, -0.266266l 4.53543, -0.552517l 4.53543, -1.08769l 4.53543, -2.03023l 4.53543, -3.59061l 4.53543, -6.01172l 4.53543, -9.51837l 4.53543,
 -14.2314l 4.53543, -20.0558l 4.53543, -26.5724l 4.53543, -32.9803l 4.53543, -38.1406l 4.53543, -40.7541l 4.53543, -39.6593l 4.53543, -34.1803l 4.53543, -24.4125l 4.53543, -11.3289l 4.53543, 3.3591l 4.53543, 17.5672" fill="none" stroke="#ff0000"
 stroke-width="2"/>
<path d="M281.697,61.3655l 4.53543, 29.3237l 4.53543, 37.218l 4.53543, 40.6728l 4.53543, 39.968l 4.53543, 36.0414l 4.53543, 30.1592l 4.53543, 23.5787l 4.53543, 17.2995l 4.53543, 11.9479l 4.53543, 7.785l 4.53543, 4.79338l 4.53543, 2.79247l 4.53543,
 1.54071l 4.53543, 0.805715l 4.53543, 0.399615l 4.53543, 0.188072l 4.53543, 0.084027l 4.53543, 0.058549h 140.598" fill="none" stroke="#ff0000" stroke-width="2"/>
<path d="M503.933,346.022h 4.53543" fill="none" stroke="#ff0000" stroke-width="2"/>
<path d="M57.1929,346.022h 453.543" fill="none" stroke="black"/>
<path d="M102.664,336.795v 9.22726" fill="none" stroke="black"/>
<path d="M118.854,341.409v 4.61363" fill="none" stroke="black"/>
<path d="M135.044,341.409v 4.61363" fill="none" stroke="black"/>
<path d="M151.234,341.409v 4.61363" fill="none" stroke="black"/>
<path d="M167.425,341.409v 4.61363" fill="none" stroke="black"/>
<path d="M183.615,336.795v 9.22726" fill="none" stroke="black"/>
<path d="M199.805,341.409v 4.61363" fill="none" stroke="black"/>
<path d="M215.995,341.409v 4.61363" fill="none" stroke="black"/>
<path d="M232.185,341.409v 4.61363" fill="none" stroke="black"/>
<path d="M248.375,341.409v 4.61363" fill="none" stroke="black"/>
<path d="M264.565,336.795v 9.22726" fill="none" stroke="black"/>
<path d="M280.755,341.409v 4.61363" fill="none" stroke="black"/>
<path d="M296.945,341.409v 4.61363" fill="none" stroke="black"/>
<path d="M313.135,341.409v 4.61363" fill="none" stroke="black"/>
<path d="M329.325,341.409v 4.61363" fill="none" stroke="black"/>
<path d="M345.515,336.795v 9.22726" fill="none" stroke="black"/>
<path d="M361.705,341.409v 4.61363" fill="none" stroke="black"/>
<path d="M377.895,341.409v 4.61363" fill="none" stroke="black"/>
<path d="M394.086,341.409v 4.61363" fill="none" stroke="black"/>
<path d="M410.276,341.409v 4.61363" fill="none" stroke="black"/>
<path d="M426.466,336.795v 9.22726" fill="none" stroke="black"/>
<path d="M442.656,341.409v 4.61363" fill="none" stroke="black"/>
<path d="M458.846,341.409v 4.61363" fill="none" stroke="black"/>
<path d="M475.036,341.409v 4.61363" fill="none" stroke="black"/>
<path d="M491.226,341.409v 4.61363" fill="none" stroke="black"/>
<path d="M507.416,336.795v 9.22726" fill="none" stroke="black"/>
<path d="M102.664,336.795v 9.22726" fill="none" stroke="black"/>
<path d="M86.4742,341.409v 4.61363" fill="none" stroke="black"/>
<path d="M70.2841,341.409v 4.61363" fill="none" stroke="black"/>
<path d="M507.416,336.795v 9.22726" fill="none" stroke="black"/>
<text xml:space="preserve" x="91.73" y="358.403" fill="black" font-size="12.8453" font-family="Helvetica">790</text>
<text xml:space="preserve" x="172.371" y="358.403" fill="black" font-size="12.8453" font-family="Helvetica">800</text>
<text xml:space="preserve" x="253.826" y="358.403" fill="black" font-size="12.8453" font-family="Helvetica">810</text>
<text xml:space="preserve" x="334.467" y="358.403" fill="black" font-size="12.8453" font-family="Helvetica">820</text>
<text xml:space="preserve" x="415.108" y="358.403" fill="black" font-size="12.8453" font-family="Helvetica">830</text>
<text xml:space="preserve" x="496.563" y="358.403" fill="black" font-size="12.8453" font-family="Helvetica">840</text>
<text xml:space="preserve" x="460.723" y="370.622" fill="black" font-size="12.8453" font-family="Helvetica">Time [ns]</text>
<path d="M57.1929,346.022v -307.575" fill="none" stroke="black"/>
<path d="M70.7992,346.022h -13.6063" fill="none" stroke="black"/>
<path d="M63.9961,334.305h -6.80315" fill="none" stroke="black"/>
<path d="M63.9961,322.588h -6.80315" fill="none" stroke="black"/>
<path d="M63.9961,310.871h -6.80315" fill="none" stroke="black"/>
<path d="M63.9961,299.154h -6.80315" fill="none" stroke="black"/>
<path d="M70.7992,287.436h -13.6063" fill="none" stroke="black"/>
<path d="M63.9961,275.719h -6.80315" fill="none" stroke="black"/>
<path d="M63.9961,264.002h -6.80315" fill="none" stroke="black"/>
<path d="M63.9961,252.285h -6.80315" fill="none" stroke="black"/>
<path d="M63.9961,240.568h -6.80315" fill="none" stroke="black"/>
<path d="M70.7992,228.851h -13.6063" fill="none" stroke="black"/>
<path d="M63.9961,217.134h -6.80315" fill="none" stroke="black"/>
<path d="M63.9961,205.416h -6.80315" fill="none" stroke="black"/>
<path d="M63.9961,193.699h -6.80315" fill="none" stroke="black"/>
<path d="M63.9961,181.982h -6.80315" fill="none" stroke="black"/>
<path d="M70.7992,170.265h -13.6063" fill="none" stroke="black"/>
<path d="M63.9961,158.548h -6.80315" fill="none" stroke="black"/>
<path d="M63.9961,146.831h -6.80315" fill="none" stroke="black"/>
<path d="M63.9961,135.113h -6.80315" fill="none" stroke="black"/>
<path d="M63.9961,123.396h -6.80315" fill="none" stroke="black"/>
<path d="M70.7992,111.679h -13.6063" fill="none" stroke="black"/>
<path d="M63.9961,99.962h -6.80315" fill="none" stroke="black"/>
<path d="M63.9961,88.2448h -6.80315" fill="none" stroke="black"/>
<path d="M63.9961,76.5277h -6.80315" fill="none" stroke="black"/>
<path d="M63.9961,64.8105h -6.80315" fill="none" stroke="black"/>
<path d="M70.7992,53.0934h -13.6063" fill="none" stroke="black"/>
<path d="M70.7992,53.0934h -13.6063" fill="none" stroke="black"/>
<path d="M63.9961,41.3762h -6.80315" fill="none" stroke="black"/>
<text xml:space="preserve" x="47.7441" y="350.258" fill="black" font-size="12.8453" font-family="Helvetica">0</text>
<text xml:space="preserve" x="41.2277" y="291.61" fill="black" font-size="12.8453" font-family="Helvetica">10</text>
<text xml:space="preserve" x="41.2277" y="232.962" fill="black" font-size="12.8453" font-family="Helvetica">20</text>
<text xml:space="preserve" x="41.2277" y="175.129" fill="black" font-size="12.8453" font-family="Helvetica">30</text>
<text xml:space="preserve" x="41.2277" y="116.481" fill="black" font-size="12.8453" font-family="Helvetica">40</text>
<text xml:space="preserve" x="41.2277" y="57.8333" fill="black" font-size="12.8453" font-family="Helvetica">50</text>
<g transform="rotate(-90,29.0094,70.0516)">
<text xml:space="preserve" x="29.0094" y="70.0516" fill="black" font-size="12.8453" font-family="Helvetica">Event</text>
</g>
<text xml:space="preserve" x="243.237" y="18.7347" fill="black" font-size="16.9898" font-family="Helvetica">670mm 16</text></svg>
