<?xml version="1.0" standalone="no"?>
<svg width="567.429" height="384.969" viewBox="0 0 567.429 384.969" xmlns="http://www.w3.org/2000/svg" shape-rendering="crispEdges">
<title>
img/week2/Combined280mm_ch_37.svg
</title>
<desc>
Creator: ROOT Version 6.22/09
CreationDate: Thu Jun 24 12:12:15 2021</desc>
<defs>
</defs>
<rect x="0.5" y="0" width="566.929" height="384.469" fill="white"/>
<rect x="57.1929" y="38.4469" width="453.543" height="307.575" fill="white"/>
<rect x="57.1929" y="38.4469" width="453.543" height="307.575" fill="none" stroke="black"/>
<rect x="57.1929" y="38.4469" width="453.543" height="307.575" fill="white"/>
<rect x="57.1929" y="38.4469" width="453.543" height="307.575" fill="none" stroke="black"/>
<path d="M57.1929,346.022h 69.7759v -1.99271h 34.8879v 1.99271h 34.8879v -1.99271h 34.8879v -41.847h 34.8879v -249.089h 34.8879v 189.308h 34.8879v 99.6357h 34.8879v 3.98543h 139.552" fill="none" stroke="#000099"/>
<g fill="#ff0000">
<polygon points=" 279.729, 48.8577 288.2, 48.8577 283.965, 57.329"/>
</g>
<path d="M59.4606,346.022h 140.598l 4.53543, -0.0709784l 4.53543, -0.0985758l 4.53543, -0.216504l 4.53543, -0.451779l 4.53543, -0.895281l 4.53543, -1.68399l 4.53543, -3.00461l 4.53543, -5.08115l 4.53543, -8.13629l 4.53543, -12.3205l 4.53543,
 -17.6131l 4.53543, -23.7174l 4.53543, -29.9885l 4.53543, -35.4408l 4.53543, -38.8737l 4.53543, -39.1159l 4.53543, -35.3429l 4.53543, -27.3729" fill="none" stroke="#ff0000" stroke-width="2"/>
<path d="M281.697,66.5975l 4.53543, -15.8334l 4.53543, -2.11449l 4.53543, 11.9015l 4.53543, 24.2638l 4.53543, 33.3985l 4.53543, 38.436l 4.53543, 39.326l 4.53543, 36.7291l 4.53543, 31.7476l 4.53543, 25.6039l 4.53543, 19.3661l 4.53543, 13.7862l
 4.53543, 9.25958l 4.53543, 5.87867l 4.53543, 3.53271l 4.53543, 2.01161l 4.53543, 1.08631l 4.53543, 0.556712l 4.53543, 0.270907l 4.53543, 0.125234l 4.53543, 0.0550172l 4.53543, 0.0374086h 122.457" fill="none" stroke="#ff0000" stroke-width="2"/>
<path d="M503.933,346.022h 4.53543" fill="none" stroke="#ff0000" stroke-width="2"/>
<path d="M57.1929,346.022h 453.543" fill="none" stroke="black"/>
<path d="M106.162,336.795v 9.22726" fill="none" stroke="black"/>
<path d="M123.597,341.409v 4.61363" fill="none" stroke="black"/>
<path d="M141.033,341.409v 4.61363" fill="none" stroke="black"/>
<path d="M158.468,341.409v 4.61363" fill="none" stroke="black"/>
<path d="M175.904,341.409v 4.61363" fill="none" stroke="black"/>
<path d="M193.339,336.795v 9.22726" fill="none" stroke="black"/>
<path d="M210.775,341.409v 4.61363" fill="none" stroke="black"/>
<path d="M228.21,341.409v 4.61363" fill="none" stroke="black"/>
<path d="M245.646,341.409v 4.61363" fill="none" stroke="black"/>
<path d="M263.081,341.409v 4.61363" fill="none" stroke="black"/>
<path d="M280.517,336.795v 9.22726" fill="none" stroke="black"/>
<path d="M297.952,341.409v 4.61363" fill="none" stroke="black"/>
<path d="M315.388,341.409v 4.61363" fill="none" stroke="black"/>
<path d="M332.823,341.409v 4.61363" fill="none" stroke="black"/>
<path d="M350.258,341.409v 4.61363" fill="none" stroke="black"/>
<path d="M367.694,336.795v 9.22726" fill="none" stroke="black"/>
<path d="M385.129,341.409v 4.61363" fill="none" stroke="black"/>
<path d="M402.565,341.409v 4.61363" fill="none" stroke="black"/>
<path d="M420,341.409v 4.61363" fill="none" stroke="black"/>
<path d="M437.436,341.409v 4.61363" fill="none" stroke="black"/>
<path d="M454.871,336.795v 9.22726" fill="none" stroke="black"/>
<path d="M106.162,336.795v 9.22726" fill="none" stroke="black"/>
<path d="M88.7266,341.409v 4.61363" fill="none" stroke="black"/>
<path d="M71.2911,341.409v 4.61363" fill="none" stroke="black"/>
<path d="M454.871,336.795v 9.22726" fill="none" stroke="black"/>
<path d="M472.307,341.409v 4.61363" fill="none" stroke="black"/>
<path d="M489.742,341.409v 4.61363" fill="none" stroke="black"/>
<path d="M507.178,341.409v 4.61363" fill="none" stroke="black"/>
<text xml:space="preserve" x="94.9882" y="358.403" fill="black" font-size="12.8453" font-family="Helvetica">790</text>
<text xml:space="preserve" x="182.145" y="358.403" fill="black" font-size="12.8453" font-family="Helvetica">800</text>
<text xml:space="preserve" x="269.303" y="358.403" fill="black" font-size="12.8453" font-family="Helvetica">810</text>
<text xml:space="preserve" x="356.46" y="358.403" fill="black" font-size="12.8453" font-family="Helvetica">820</text>
<text xml:space="preserve" x="443.617" y="358.403" fill="black" font-size="12.8453" font-family="Helvetica">830</text>
<text xml:space="preserve" x="460.723" y="370.622" fill="black" font-size="12.8453" font-family="Helvetica">Time [ps]</text>
<path d="M57.1929,346.022v -307.575" fill="none" stroke="black"/>
<path d="M70.7992,346.022h -13.6063" fill="none" stroke="black"/>
<path d="M63.9961,336.059h -6.80315" fill="none" stroke="black"/>
<path d="M63.9961,326.095h -6.80315" fill="none" stroke="black"/>
<path d="M63.9961,316.132h -6.80315" fill="none" stroke="black"/>
<path d="M70.7992,306.168h -13.6063" fill="none" stroke="black"/>
<path d="M63.9961,296.204h -6.80315" fill="none" stroke="black"/>
<path d="M63.9961,286.241h -6.80315" fill="none" stroke="black"/>
<path d="M63.9961,276.277h -6.80315" fill="none" stroke="black"/>
<path d="M70.7992,266.314h -13.6063" fill="none" stroke="black"/>
<path d="M63.9961,256.35h -6.80315" fill="none" stroke="black"/>
<path d="M63.9961,246.387h -6.80315" fill="none" stroke="black"/>
<path d="M63.9961,236.423h -6.80315" fill="none" stroke="black"/>
<path d="M70.7992,226.459h -13.6063" fill="none" stroke="black"/>
<path d="M63.9961,216.496h -6.80315" fill="none" stroke="black"/>
<path d="M63.9961,206.532h -6.80315" fill="none" stroke="black"/>
<path d="M63.9961,196.569h -6.80315" fill="none" stroke="black"/>
<path d="M70.7992,186.605h -13.6063" fill="none" stroke="black"/>
<path d="M63.9961,176.642h -6.80315" fill="none" stroke="black"/>
<path d="M63.9961,166.678h -6.80315" fill="none" stroke="black"/>
<path d="M63.9961,156.714h -6.80315" fill="none" stroke="black"/>
<path d="M70.7992,146.751h -13.6063" fill="none" stroke="black"/>
<path d="M63.9961,136.787h -6.80315" fill="none" stroke="black"/>
<path d="M63.9961,126.824h -6.80315" fill="none" stroke="black"/>
<path d="M63.9961,116.86h -6.80315" fill="none" stroke="black"/>
<path d="M70.7992,106.897h -13.6063" fill="none" stroke="black"/>
<path d="M63.9961,96.9331h -6.80315" fill="none" stroke="black"/>
<path d="M63.9961,86.9695h -6.80315" fill="none" stroke="black"/>
<path d="M63.9961,77.0059h -6.80315" fill="none" stroke="black"/>
<path d="M70.7992,67.0424h -13.6063" fill="none" stroke="black"/>
<path d="M70.7992,67.0424h -13.6063" fill="none" stroke="black"/>
<path d="M63.9961,57.0788h -6.80315" fill="none" stroke="black"/>
<path d="M63.9961,47.1152h -6.80315" fill="none" stroke="black"/>
<text xml:space="preserve" x="47.7441" y="350.258" fill="black" font-size="12.8453" font-family="Helvetica">0</text>
<text xml:space="preserve" x="41.2277" y="310.345" fill="black" font-size="12.8453" font-family="Helvetica">20</text>
<text xml:space="preserve" x="41.2277" y="270.432" fill="black" font-size="12.8453" font-family="Helvetica">40</text>
<text xml:space="preserve" x="41.2277" y="231.333" fill="black" font-size="12.8453" font-family="Helvetica">60</text>
<text xml:space="preserve" x="41.2277" y="191.42" fill="black" font-size="12.8453" font-family="Helvetica">80</text>
<text xml:space="preserve" x="33.8967" y="151.507" fill="black" font-size="12.8453" font-family="Helvetica">100</text>
<text xml:space="preserve" x="33.8967" y="111.594" fill="black" font-size="12.8453" font-family="Helvetica">120</text>
<text xml:space="preserve" x="33.8967" y="71.6807" fill="black" font-size="12.8453" font-family="Helvetica">140</text>
<g transform="rotate(-90,20.8638,70.0516)">
<text xml:space="preserve" x="20.8638" y="70.0516" fill="black" font-size="12.8453" font-family="Helvetica">Event</text>
</g>
<text xml:space="preserve" x="243.237" y="18.7347" fill="black" font-size="16.9898" font-family="Helvetica">280mm 37</text></svg>
