<?xml version="1.0" standalone="no"?>
<svg width="567.429" height="384.969" viewBox="0 0 567.429 384.969" xmlns="http://www.w3.org/2000/svg" shape-rendering="crispEdges">
<title>
img/week2/Combined280mm_ch_61.svg
</title>
<desc>
Creator: ROOT Version 6.22/09
CreationDate: Thu Jun 24 12:33:04 2021</desc>
<defs>
</defs>
<rect x="0.5" y="0" width="566.929" height="384.469" fill="white"/>
<rect x="57.1929" y="38.4469" width="453.543" height="307.575" fill="white"/>
<rect x="57.1929" y="38.4469" width="453.543" height="307.575" fill="none" stroke="black"/>
<rect x="57.1929" y="38.4469" width="453.543" height="307.575" fill="white"/>
<rect x="57.1929" y="38.4469" width="453.543" height="307.575" fill="none" stroke="black"/>
<path d="M57.1929,346.022h 56.6929v -5.85858h 28.3465v 5.85858h 28.3465v -5.85858h 56.6929v -29.2929h 28.3465v -187.474h 28.3465v -70.3029h 28.3465v 240.202h 28.3465v 52.7272h 170.079" fill="none" stroke="#000099"/>
<g fill="#ff0000">
<polygon points=" 293.902, 48.8577 302.373, 48.8577 298.138, 57.329"/>
</g>
<path d="M59.4606,346.022h 131.528l 4.53543, -0.0310165l 4.53543, -0.0449208l 4.53543, -0.101696l 4.53543, -0.219373l 4.53543, -0.450762l 4.53543, -0.881899l 4.53543, -1.64207l 4.53543, -2.90813l 4.53543, -4.89528l 4.53543, -7.82522l 4.53543,
 -11.8654l 4.53543, -17.041l 4.53543, -23.1365l 4.53543, -29.6162l 4.53543, -35.608l 4.53543, -39.9851l 4.53543, -41.5608l 4.53543, -39.368l 4.53543, -32.9537l 3.50107, -17.4403" fill="none" stroke="#ff0000" stroke-width="2"/>
<path d="M292.996,38.4469l 2.3076, 9.65457" fill="none" stroke="#ff0000" stroke-width="2"/>
<path d="M295.303,48.1015l 4.53543, 30.3181l 4.53543, 37.9424l 4.53543, 41.3443l 4.53543, 40.7813l 4.53543, 37.0996l 4.53543, 31.4535l 4.53543, 25.0118l 4.53543, 18.7342l 4.53543, 13.2561l 4.53543, 8.87981l 4.53543, 5.64016l 4.53543, 3.40098l
 4.53543, 1.94875l 4.53543, 1.06187l 4.53543, 0.550584l 4.53543, 0.271785l 4.53543, 0.12778l 4.53543, 0.0572385l 4.53543, 0.0404202h 126.992" fill="none" stroke="#ff0000" stroke-width="2"/>
<path d="M57.1929,346.022h 453.543" fill="none" stroke="black"/>
<path d="M82.8417,336.795v 9.22726" fill="none" stroke="black"/>
<path d="M97.008,341.409v 4.61363" fill="none" stroke="black"/>
<path d="M111.174,341.409v 4.61363" fill="none" stroke="black"/>
<path d="M125.341,341.409v 4.61363" fill="none" stroke="black"/>
<path d="M139.507,341.409v 4.61363" fill="none" stroke="black"/>
<path d="M153.673,336.795v 9.22726" fill="none" stroke="black"/>
<path d="M167.84,341.409v 4.61363" fill="none" stroke="black"/>
<path d="M182.006,341.409v 4.61363" fill="none" stroke="black"/>
<path d="M196.172,341.409v 4.61363" fill="none" stroke="black"/>
<path d="M210.338,341.409v 4.61363" fill="none" stroke="black"/>
<path d="M224.505,336.795v 9.22726" fill="none" stroke="black"/>
<path d="M238.671,341.409v 4.61363" fill="none" stroke="black"/>
<path d="M252.837,341.409v 4.61363" fill="none" stroke="black"/>
<path d="M267.004,341.409v 4.61363" fill="none" stroke="black"/>
<path d="M281.17,341.409v 4.61363" fill="none" stroke="black"/>
<path d="M295.336,336.795v 9.22726" fill="none" stroke="black"/>
<path d="M309.503,341.409v 4.61363" fill="none" stroke="black"/>
<path d="M323.669,341.409v 4.61363" fill="none" stroke="black"/>
<path d="M337.835,341.409v 4.61363" fill="none" stroke="black"/>
<path d="M352.002,341.409v 4.61363" fill="none" stroke="black"/>
<path d="M366.168,336.795v 9.22726" fill="none" stroke="black"/>
<path d="M380.334,341.409v 4.61363" fill="none" stroke="black"/>
<path d="M394.501,341.409v 4.61363" fill="none" stroke="black"/>
<path d="M408.667,341.409v 4.61363" fill="none" stroke="black"/>
<path d="M422.833,341.409v 4.61363" fill="none" stroke="black"/>
<path d="M436.999,336.795v 9.22726" fill="none" stroke="black"/>
<path d="M451.166,341.409v 4.61363" fill="none" stroke="black"/>
<path d="M465.332,341.409v 4.61363" fill="none" stroke="black"/>
<path d="M479.498,341.409v 4.61363" fill="none" stroke="black"/>
<path d="M493.665,341.409v 4.61363" fill="none" stroke="black"/>
<path d="M507.831,336.795v 9.22726" fill="none" stroke="black"/>
<path d="M82.8417,336.795v 9.22726" fill="none" stroke="black"/>
<path d="M68.6754,341.409v 4.61363" fill="none" stroke="black"/>
<path d="M507.831,336.795v 9.22726" fill="none" stroke="black"/>
<text xml:space="preserve" x="72.1807" y="358.403" fill="black" font-size="12.8453" font-family="Helvetica">780</text>
<text xml:space="preserve" x="143.047" y="358.403" fill="black" font-size="12.8453" font-family="Helvetica">790</text>
<text xml:space="preserve" x="213.913" y="358.403" fill="black" font-size="12.8453" font-family="Helvetica">800</text>
<text xml:space="preserve" x="283.965" y="358.403" fill="black" font-size="12.8453" font-family="Helvetica">810</text>
<text xml:space="preserve" x="354.831" y="358.403" fill="black" font-size="12.8453" font-family="Helvetica">820</text>
<text xml:space="preserve" x="425.697" y="358.403" fill="black" font-size="12.8453" font-family="Helvetica">830</text>
<text xml:space="preserve" x="496.563" y="358.403" fill="black" font-size="12.8453" font-family="Helvetica">840</text>
<text xml:space="preserve" x="460.723" y="370.622" fill="black" font-size="12.8453" font-family="Helvetica">Time [ns]</text>
<path d="M57.1929,346.022v -307.575" fill="none" stroke="black"/>
<path d="M70.7992,346.022h -13.6063" fill="none" stroke="black"/>
<path d="M63.9961,334.305h -6.80315" fill="none" stroke="black"/>
<path d="M63.9961,322.588h -6.80315" fill="none" stroke="black"/>
<path d="M63.9961,310.871h -6.80315" fill="none" stroke="black"/>
<path d="M63.9961,299.154h -6.80315" fill="none" stroke="black"/>
<path d="M70.7992,287.436h -13.6063" fill="none" stroke="black"/>
<path d="M63.9961,275.719h -6.80315" fill="none" stroke="black"/>
<path d="M63.9961,264.002h -6.80315" fill="none" stroke="black"/>
<path d="M63.9961,252.285h -6.80315" fill="none" stroke="black"/>
<path d="M63.9961,240.568h -6.80315" fill="none" stroke="black"/>
<path d="M70.7992,228.851h -13.6063" fill="none" stroke="black"/>
<path d="M63.9961,217.134h -6.80315" fill="none" stroke="black"/>
<path d="M63.9961,205.416h -6.80315" fill="none" stroke="black"/>
<path d="M63.9961,193.699h -6.80315" fill="none" stroke="black"/>
<path d="M63.9961,181.982h -6.80315" fill="none" stroke="black"/>
<path d="M70.7992,170.265h -13.6063" fill="none" stroke="black"/>
<path d="M63.9961,158.548h -6.80315" fill="none" stroke="black"/>
<path d="M63.9961,146.831h -6.80315" fill="none" stroke="black"/>
<path d="M63.9961,135.113h -6.80315" fill="none" stroke="black"/>
<path d="M63.9961,123.396h -6.80315" fill="none" stroke="black"/>
<path d="M70.7992,111.679h -13.6063" fill="none" stroke="black"/>
<path d="M63.9961,99.962h -6.80315" fill="none" stroke="black"/>
<path d="M63.9961,88.2448h -6.80315" fill="none" stroke="black"/>
<path d="M63.9961,76.5277h -6.80315" fill="none" stroke="black"/>
<path d="M63.9961,64.8105h -6.80315" fill="none" stroke="black"/>
<path d="M70.7992,53.0934h -13.6063" fill="none" stroke="black"/>
<path d="M70.7992,53.0934h -13.6063" fill="none" stroke="black"/>
<path d="M63.9961,41.3762h -6.80315" fill="none" stroke="black"/>
<text xml:space="preserve" x="47.7441" y="350.258" fill="black" font-size="12.8453" font-family="Helvetica">0</text>
<text xml:space="preserve" x="41.2277" y="291.61" fill="black" font-size="12.8453" font-family="Helvetica">10</text>
<text xml:space="preserve" x="41.2277" y="232.962" fill="black" font-size="12.8453" font-family="Helvetica">20</text>
<text xml:space="preserve" x="41.2277" y="175.129" fill="black" font-size="12.8453" font-family="Helvetica">30</text>
<text xml:space="preserve" x="41.2277" y="116.481" fill="black" font-size="12.8453" font-family="Helvetica">40</text>
<text xml:space="preserve" x="41.2277" y="57.8333" fill="black" font-size="12.8453" font-family="Helvetica">50</text>
<g transform="rotate(-90,29.0094,70.0516)">
<text xml:space="preserve" x="29.0094" y="70.0516" fill="black" font-size="12.8453" font-family="Helvetica">Event</text>
</g>
<text xml:space="preserve" x="244.866" y="18.7347" fill="black" font-size="16.9898" font-family="Helvetica">280mm 61</text></svg>
