<?xml version="1.0" standalone="no"?>
<svg width="567.429" height="386.304" viewBox="0 0 567.429 386.304" xmlns="http://www.w3.org/2000/svg" shape-rendering="crispEdges">
<title>
img/week2/Combined0mm_ch_13.svg
</title>
<desc>
Creator: ROOT Version 6.22/08
CreationDate: Thu Jun 24 12:19:19 2021</desc>
<defs>
</defs>
<rect x="0.5" y="0" width="566.929" height="385.804" fill="white"/>
<rect x="57.1929" y="38.5804" width="453.543" height="308.643" fill="white"/>
<rect x="57.1929" y="38.5804" width="453.543" height="308.643" fill="none" stroke="black"/>
<rect x="57.1929" y="38.5804" width="453.543" height="308.643" fill="white"/>
<rect x="57.1929" y="38.5804" width="453.543" height="308.643" fill="none" stroke="black"/>
<path d="M57.1929,347.224h 97.1879v -12.8349h 32.396v -12.8349h 32.396v -25.6699h 32.396v -218.194h 32.396v -12.8349h 32.396v 263.116h 32.396v 19.2524h 161.98" fill="none" stroke="#000099"/>
<g fill="#ff0000">
<polygon points=" 263.543, 73.4665 271.99, 73.4665 267.767, 81.9136"/>
</g>
<path d="M59.4606,347.224h 122.457l 4.53543, -0.0427697l 4.53543, -0.0563586l 4.53543, -0.121375l 4.53543, -0.250244l 4.53543, -0.493785l 4.53543, -0.932181l 4.53543, -1.68295l 4.53543, -2.90427l 4.53543, -4.7878l 4.53543, -7.53437l 4.53543,
 -11.3075l 4.53543, -16.1652l 4.53543, -21.9799l 4.53543, -28.3663l 4.53543, -34.6484l 4.53543, -39.8935l 4.53543, -43.0327l 4.53543, -43.061l 4.53543, -39.2797l 1.74166, -12.103" fill="none" stroke="#ff0000" stroke-width="2"/>
<path d="M293.178,38.5804l 2.12469, 15.1358" fill="none" stroke="#ff0000" stroke-width="2"/>
<path d="M295.303,53.7162l 4.53543, 39.7491l 4.53543, 43.1976l 4.53543, 42.8773l 4.53543, 39.5216l 4.53543, 34.1499l 4.53543, 27.8264l 4.53543, 21.4659l 4.53543, 15.7202l 4.53543, 10.9512l 4.53543, 7.26785l 4.53543, 4.60042l 4.53543, 2.77991l
 4.53543, 1.6048l 4.53543, 0.885572l 4.53543, 0.467362l 4.53543, 0.235985l 4.53543, 0.114042l 4.53543, 0.0527622l 4.53543, 0.0398001h 126.992" fill="none" stroke="#ff0000" stroke-width="2"/>
<rect x="351.996" y="25.0773" width="204.094" height="108.025" fill="white"/>
<path d="M351.996,133.102h 204.094" fill="none" stroke="black"/>
<path d="M556.091,133.102v -108.025" fill="none" stroke="black"/>
<path d="M556.091,25.0773h -204.094" fill="none" stroke="black"/>
<path d="M351.996,25.0773v 108.025" fill="none" stroke="black"/>
<text xml:space="preserve" x="361.938" y="38.9865" fill="black" font-size="15.6962" font-family="Helvetica">Entries </text>
<text xml:space="preserve" x="515.447" y="38.9865" fill="black" font-size="15.6962" font-family="Helvetica"> 103</text>
<text xml:space="preserve" x="375.745" y="57.6676" fill="black" font-size="15.6962" font-family="Helvetica"> / ndf </text>
<text xml:space="preserve" x="370.06" y="52.7943" fill="black" font-size="10.6308" font-family="Helvetica">2</text>
<text xml:space="preserve" x="361.938" y="57.6676" fill="black" font-size="15.6962" font-family="Times">&#0967;</text>
<text xml:space="preserve" x="481.334" y="57.6676" fill="black" font-size="15.6962" font-family="Helvetica"> 7.311 / 3</text>
<text xml:space="preserve" x="361.938" y="75.5364" fill="black" font-size="15.6962" font-family="Helvetica">Prob  </text>
<text xml:space="preserve" x="487.832" y="75.5364" fill="black" font-size="15.6962" font-family="Helvetica"> 0.06261</text>
<text xml:space="preserve" x="361.938" y="94.2175" fill="black" font-size="15.6962" font-family="Helvetica">Const    </text>
<text xml:space="preserve" x="511.386" y="93.4052" fill="black" font-size="15.6962" font-family="Helvetica"> 7.26</text>
<text xml:space="preserve" x="502.452" y="93.4052" fill="black" font-size="15.6962" font-family="Times">&#0177;</text>
<text xml:space="preserve" x="457.78" y="93.4052" fill="black" font-size="15.6962" font-family="Helvetica"> 55.31 </text>
<text xml:space="preserve" x="361.938" y="111.274" fill="black" font-size="15.6962" font-family="Helvetica">Mean     </text>
<text xml:space="preserve" x="520.32" y="111.274" fill="black" font-size="15.6962" font-family="Helvetica"> 0.3</text>
<text xml:space="preserve" x="511.386" y="111.274" fill="black" font-size="15.6962" font-family="Times">&#0177;</text>
<text xml:space="preserve" x="466.714" y="111.274" fill="black" font-size="15.6962" font-family="Helvetica"> 804.1 </text>
<text xml:space="preserve" x="361.938" y="128.331" fill="black" font-size="15.6962" font-family="Helvetica">Sigma    </text>
<text xml:space="preserve" x="502.452" y="129.143" fill="black" font-size="15.6962" font-family="Helvetica"> 0.228</text>
<text xml:space="preserve" x="493.517" y="129.143" fill="black" font-size="15.6962" font-family="Times">&#0177;</text>
<text xml:space="preserve" x="445.596" y="129.143" fill="black" font-size="15.6962" font-family="Helvetica"> 2.764 </text>
<path d="M57.1929,347.224h 453.543" fill="none" stroke="black"/>
<path d="M86.5058,337.964v 9.2593" fill="none" stroke="black"/>
<path d="M102.696,342.594v 4.62965" fill="none" stroke="black"/>
<path d="M118.886,342.594v 4.62965" fill="none" stroke="black"/>
<path d="M135.076,342.594v 4.62965" fill="none" stroke="black"/>
<path d="M151.266,342.594v 4.62965" fill="none" stroke="black"/>
<path d="M167.456,337.964v 9.2593" fill="none" stroke="black"/>
<path d="M183.646,342.594v 4.62965" fill="none" stroke="black"/>
<path d="M199.836,342.594v 4.62965" fill="none" stroke="black"/>
<path d="M216.026,342.594v 4.62965" fill="none" stroke="black"/>
<path d="M232.216,342.594v 4.62965" fill="none" stroke="black"/>
<path d="M248.406,337.964v 9.2593" fill="none" stroke="black"/>
<path d="M264.597,342.594v 4.62965" fill="none" stroke="black"/>
<path d="M280.787,342.594v 4.62965" fill="none" stroke="black"/>
<path d="M296.977,342.594v 4.62965" fill="none" stroke="black"/>
<path d="M313.167,342.594v 4.62965" fill="none" stroke="black"/>
<path d="M329.357,337.964v 9.2593" fill="none" stroke="black"/>
<path d="M345.547,342.594v 4.62965" fill="none" stroke="black"/>
<path d="M361.737,342.594v 4.62965" fill="none" stroke="black"/>
<path d="M377.927,342.594v 4.62965" fill="none" stroke="black"/>
<path d="M394.117,342.594v 4.62965" fill="none" stroke="black"/>
<path d="M410.307,337.964v 9.2593" fill="none" stroke="black"/>
<path d="M426.497,342.594v 4.62965" fill="none" stroke="black"/>
<path d="M442.687,342.594v 4.62965" fill="none" stroke="black"/>
<path d="M458.877,342.594v 4.62965" fill="none" stroke="black"/>
<path d="M475.067,342.594v 4.62965" fill="none" stroke="black"/>
<path d="M491.258,337.964v 9.2593" fill="none" stroke="black"/>
<path d="M86.5058,337.964v 9.2593" fill="none" stroke="black"/>
<path d="M70.3157,342.594v 4.62965" fill="none" stroke="black"/>
<path d="M491.258,337.964v 9.2593" fill="none" stroke="black"/>
<path d="M507.448,342.594v 4.62965" fill="none" stroke="black"/>
<text xml:space="preserve" x="74.412" y="359.813" fill="black" font-size="12.8882" font-family="Helvetica">780</text>
<text xml:space="preserve" x="155.634" y="359.813" fill="black" font-size="12.8882" font-family="Helvetica">790</text>
<text xml:space="preserve" x="236.856" y="359.813" fill="black" font-size="12.8882" font-family="Helvetica">800</text>
<text xml:space="preserve" x="317.266" y="359.813" fill="black" font-size="12.8882" font-family="Helvetica">810</text>
<text xml:space="preserve" x="398.487" y="359.813" fill="black" font-size="12.8882" font-family="Helvetica">820</text>
<text xml:space="preserve" x="479.709" y="359.813" fill="black" font-size="12.8882" font-family="Helvetica">830</text>
<text xml:space="preserve" x="457.78" y="372.809" fill="black" font-size="12.8882" font-family="Helvetica">Time [ns]</text>
<path d="M57.1929,347.224v -308.643" fill="none" stroke="black"/>
<path d="M70.7992,347.224h -13.6063" fill="none" stroke="black"/>
<path d="M63.9961,340.806h -6.80315" fill="none" stroke="black"/>
<path d="M63.9961,334.389h -6.80315" fill="none" stroke="black"/>
<path d="M63.9961,327.971h -6.80315" fill="none" stroke="black"/>
<path d="M63.9961,321.554h -6.80315" fill="none" stroke="black"/>
<path d="M70.7992,315.136h -13.6063" fill="none" stroke="black"/>
<path d="M63.9961,308.719h -6.80315" fill="none" stroke="black"/>
<path d="M63.9961,302.302h -6.80315" fill="none" stroke="black"/>
<path d="M63.9961,295.884h -6.80315" fill="none" stroke="black"/>
<path d="M63.9961,289.467h -6.80315" fill="none" stroke="black"/>
<path d="M70.7992,283.049h -13.6063" fill="none" stroke="black"/>
<path d="M63.9961,276.632h -6.80315" fill="none" stroke="black"/>
<path d="M63.9961,270.214h -6.80315" fill="none" stroke="black"/>
<path d="M63.9961,263.797h -6.80315" fill="none" stroke="black"/>
<path d="M63.9961,257.379h -6.80315" fill="none" stroke="black"/>
<path d="M70.7992,250.962h -13.6063" fill="none" stroke="black"/>
<path d="M63.9961,244.544h -6.80315" fill="none" stroke="black"/>
<path d="M63.9961,238.127h -6.80315" fill="none" stroke="black"/>
<path d="M63.9961,231.709h -6.80315" fill="none" stroke="black"/>
<path d="M63.9961,225.292h -6.80315" fill="none" stroke="black"/>
<path d="M70.7992,218.874h -13.6063" fill="none" stroke="black"/>
<path d="M63.9961,212.457h -6.80315" fill="none" stroke="black"/>
<path d="M63.9961,206.039h -6.80315" fill="none" stroke="black"/>
<path d="M63.9961,199.622h -6.80315" fill="none" stroke="black"/>
<path d="M63.9961,193.205h -6.80315" fill="none" stroke="black"/>
<path d="M70.7992,186.787h -13.6063" fill="none" stroke="black"/>
<path d="M63.9961,180.37h -6.80315" fill="none" stroke="black"/>
<path d="M63.9961,173.952h -6.80315" fill="none" stroke="black"/>
<path d="M63.9961,167.535h -6.80315" fill="none" stroke="black"/>
<path d="M63.9961,161.117h -6.80315" fill="none" stroke="black"/>
<path d="M70.7992,154.7h -13.6063" fill="none" stroke="black"/>
<path d="M63.9961,148.282h -6.80315" fill="none" stroke="black"/>
<path d="M63.9961,141.865h -6.80315" fill="none" stroke="black"/>
<path d="M63.9961,135.447h -6.80315" fill="none" stroke="black"/>
<path d="M63.9961,129.03h -6.80315" fill="none" stroke="black"/>
<path d="M70.7992,122.612h -13.6063" fill="none" stroke="black"/>
<path d="M63.9961,116.195h -6.80315" fill="none" stroke="black"/>
<path d="M63.9961,109.777h -6.80315" fill="none" stroke="black"/>
<path d="M63.9961,103.36h -6.80315" fill="none" stroke="black"/>
<path d="M63.9961,96.9425h -6.80315" fill="none" stroke="black"/>
<path d="M70.7992,90.525h -13.6063" fill="none" stroke="black"/>
<path d="M63.9961,84.1075h -6.80315" fill="none" stroke="black"/>
<path d="M63.9961,77.6901h -6.80315" fill="none" stroke="black"/>
<path d="M63.9961,71.2726h -6.80315" fill="none" stroke="black"/>
<path d="M63.9961,64.8551h -6.80315" fill="none" stroke="black"/>
<path d="M70.7992,58.4377h -13.6063" fill="none" stroke="black"/>
<path d="M70.7992,58.4377h -13.6063" fill="none" stroke="black"/>
<path d="M63.9961,52.0202h -6.80315" fill="none" stroke="black"/>
<path d="M63.9961,45.6027h -6.80315" fill="none" stroke="black"/>
<path d="M63.9961,39.1852h -6.80315" fill="none" stroke="black"/>
<text xml:space="preserve" x="46.7965" y="351.691" fill="black" font-size="12.8882" font-family="Helvetica">0</text>
<text xml:space="preserve" x="46.7965" y="319.202" fill="black" font-size="12.8882" font-family="Helvetica">5</text>
<text xml:space="preserve" x="39.4865" y="287.526" fill="black" font-size="12.8882" font-family="Helvetica">10</text>
<text xml:space="preserve" x="39.4865" y="255.037" fill="black" font-size="12.8882" font-family="Helvetica">15</text>
<text xml:space="preserve" x="39.4865" y="223.36" fill="black" font-size="12.8882" font-family="Helvetica">20</text>
<text xml:space="preserve" x="39.4865" y="190.872" fill="black" font-size="12.8882" font-family="Helvetica">25</text>
<text xml:space="preserve" x="39.4865" y="159.195" fill="black" font-size="12.8882" font-family="Helvetica">30</text>
<text xml:space="preserve" x="39.4865" y="126.706" fill="black" font-size="12.8882" font-family="Helvetica">35</text>
<text xml:space="preserve" x="39.4865" y="95.0297" fill="black" font-size="12.8882" font-family="Helvetica">40</text>
<text xml:space="preserve" x="39.4865" y="62.5409" fill="black" font-size="12.8882" font-family="Helvetica">45</text>
<g transform="rotate(-90,28.9277,71.4753)">
<text xml:space="preserve" x="28.9277" y="71.4753" fill="black" font-size="12.8882" font-family="Helvetica">Event</text>
</g>
<rect x="351.996" y="25.0773" width="204.094" height="108.025" fill="white"/>
<path d="M351.996,133.102h 204.094" fill="none" stroke="black"/>
<path d="M556.091,133.102v -108.025" fill="none" stroke="black"/>
<path d="M556.091,25.0773h -204.094" fill="none" stroke="black"/>
<path d="M351.996,25.0773v 108.025" fill="none" stroke="black"/>
<text xml:space="preserve" x="361.938" y="38.9865" fill="black" font-size="15.6962" font-family="Helvetica">Entries </text>
<text xml:space="preserve" x="515.447" y="38.9865" fill="black" font-size="15.6962" font-family="Helvetica"> 103</text>
<text xml:space="preserve" x="375.745" y="57.6676" fill="black" font-size="15.6962" font-family="Helvetica"> / ndf </text>
<text xml:space="preserve" x="370.06" y="52.7943" fill="black" font-size="10.6308" font-family="Helvetica">2</text>
<text xml:space="preserve" x="361.938" y="57.6676" fill="black" font-size="15.6962" font-family="Times">&#0967;</text>
<text xml:space="preserve" x="481.334" y="57.6676" fill="black" font-size="15.6962" font-family="Helvetica"> 7.311 / 3</text>
<text xml:space="preserve" x="361.938" y="75.5364" fill="black" font-size="15.6962" font-family="Helvetica">Prob  </text>
<text xml:space="preserve" x="487.832" y="75.5364" fill="black" font-size="15.6962" font-family="Helvetica"> 0.06261</text>
<text xml:space="preserve" x="361.938" y="94.2175" fill="black" font-size="15.6962" font-family="Helvetica">Const    </text>
<text xml:space="preserve" x="511.386" y="93.4052" fill="black" font-size="15.6962" font-family="Helvetica"> 7.26</text>
<text xml:space="preserve" x="502.452" y="93.4052" fill="black" font-size="15.6962" font-family="Times">&#0177;</text>
<text xml:space="preserve" x="457.78" y="93.4052" fill="black" font-size="15.6962" font-family="Helvetica"> 55.31 </text>
<text xml:space="preserve" x="361.938" y="111.274" fill="black" font-size="15.6962" font-family="Helvetica">Mean     </text>
<text xml:space="preserve" x="520.32" y="111.274" fill="black" font-size="15.6962" font-family="Helvetica"> 0.3</text>
<text xml:space="preserve" x="511.386" y="111.274" fill="black" font-size="15.6962" font-family="Times">&#0177;</text>
<text xml:space="preserve" x="466.714" y="111.274" fill="black" font-size="15.6962" font-family="Helvetica"> 804.1 </text>
<text xml:space="preserve" x="361.938" y="128.331" fill="black" font-size="15.6962" font-family="Helvetica">Sigma    </text>
<text xml:space="preserve" x="502.452" y="129.143" fill="black" font-size="15.6962" font-family="Helvetica"> 0.228</text>
<text xml:space="preserve" x="493.517" y="129.143" fill="black" font-size="15.6962" font-family="Times">&#0177;</text>
<text xml:space="preserve" x="445.596" y="129.143" fill="black" font-size="15.6962" font-family="Helvetica"> 2.764 </text>
<text xml:space="preserve" x="253.1" y="18.681" fill="black" font-size="17.0471" font-family="Helvetica">0mm 13</text></svg>
