<?xml version="1.0" standalone="no"?>
<svg width="567.429" height="384.969" viewBox="0 0 567.429 384.969" xmlns="http://www.w3.org/2000/svg" shape-rendering="crispEdges">
<title>
img/week2/Combined560mm_ch_42.svg
</title>
<desc>
Creator: ROOT Version 6.22/09
CreationDate: Thu Jun 24 12:33:06 2021</desc>
<defs>
</defs>
<rect x="0.5" y="0" width="566.929" height="384.469" fill="white"/>
<rect x="57.1929" y="38.4469" width="453.543" height="307.575" fill="white"/>
<rect x="57.1929" y="38.4469" width="453.543" height="307.575" fill="none" stroke="black"/>
<rect x="57.1929" y="38.4469" width="453.543" height="307.575" fill="white"/>
<rect x="57.1929" y="38.4469" width="453.543" height="307.575" fill="none" stroke="black"/>
<path d="M57.1929,346.022h 141.732v -3.5723h 28.3465v -25.0061h 28.3465v -150.037h 28.3465v -114.314h 28.3465v 242.917h 28.3465v 50.0122h 170.079" fill="none" stroke="#000099"/>
<g fill="#ff0000">
<polygon points=" 293.902, 48.8577 302.373, 48.8577 298.138, 57.329"/>
</g>
<path d="M59.4606,346.022h 140.598l 4.53543, -0.0646828l 4.53543, -0.0920373l 4.53543, -0.204855l 4.53543, -0.432773l 4.53543, -0.867386l 4.53543, -1.64844l 4.53543, -2.96865l 4.53543, -5.06198l 4.53543, -8.16427l 4.53543, -12.439l 4.53543, -17.8721l
 4.53543, -24.1595l 4.53543, -30.6278l 4.53543, -36.2415l 4.53543, -39.7372l 4.53543, -39.8865l 4.53543, -35.8364l 4.53543, -27.4252" fill="none" stroke="#ff0000" stroke-width="2"/>
<path d="M281.697,62.292l 4.53543, -15.3533l 4.53543, -1.12127l 4.53543, 13.2714l 4.53543, 25.7877l 4.53543, 34.8257l 4.53543, 39.5525l 4.53543, 40.004l 4.53543, 36.9456l 4.53543, 31.5711l 4.53543, 25.1585l 4.53543, 18.7903l 4.53543, 13.1982l
 4.53543, 8.73956l 4.53543, 5.46553l 4.53543, 3.23246l 4.53543, 1.80988l 4.53543, 0.96016l 4.53543, 0.482954l 4.53543, 0.230448l 4.53543, 0.104363l 4.53543, 0.074288h 126.992" fill="none" stroke="#ff0000" stroke-width="2"/>
<path d="M503.933,346.022h 4.53543" fill="none" stroke="#ff0000" stroke-width="2"/>
<path d="M57.1929,346.022h 453.543" fill="none" stroke="black"/>
<path d="M111.188,336.795v 9.22726" fill="none" stroke="black"/>
<path d="M125.354,341.409v 4.61363" fill="none" stroke="black"/>
<path d="M139.521,341.409v 4.61363" fill="none" stroke="black"/>
<path d="M153.687,341.409v 4.61363" fill="none" stroke="black"/>
<path d="M167.853,341.409v 4.61363" fill="none" stroke="black"/>
<path d="M182.02,336.795v 9.22726" fill="none" stroke="black"/>
<path d="M196.186,341.409v 4.61363" fill="none" stroke="black"/>
<path d="M210.352,341.409v 4.61363" fill="none" stroke="black"/>
<path d="M224.519,341.409v 4.61363" fill="none" stroke="black"/>
<path d="M238.685,341.409v 4.61363" fill="none" stroke="black"/>
<path d="M252.851,336.795v 9.22726" fill="none" stroke="black"/>
<path d="M267.018,341.409v 4.61363" fill="none" stroke="black"/>
<path d="M281.184,341.409v 4.61363" fill="none" stroke="black"/>
<path d="M295.35,341.409v 4.61363" fill="none" stroke="black"/>
<path d="M309.517,341.409v 4.61363" fill="none" stroke="black"/>
<path d="M323.683,336.795v 9.22726" fill="none" stroke="black"/>
<path d="M337.849,341.409v 4.61363" fill="none" stroke="black"/>
<path d="M352.015,341.409v 4.61363" fill="none" stroke="black"/>
<path d="M366.182,341.409v 4.61363" fill="none" stroke="black"/>
<path d="M380.348,341.409v 4.61363" fill="none" stroke="black"/>
<path d="M394.514,336.795v 9.22726" fill="none" stroke="black"/>
<path d="M408.681,341.409v 4.61363" fill="none" stroke="black"/>
<path d="M422.847,341.409v 4.61363" fill="none" stroke="black"/>
<path d="M437.013,341.409v 4.61363" fill="none" stroke="black"/>
<path d="M451.18,341.409v 4.61363" fill="none" stroke="black"/>
<path d="M465.346,336.795v 9.22726" fill="none" stroke="black"/>
<path d="M111.188,336.795v 9.22726" fill="none" stroke="black"/>
<path d="M97.0218,341.409v 4.61363" fill="none" stroke="black"/>
<path d="M82.8555,341.409v 4.61363" fill="none" stroke="black"/>
<path d="M68.6892,341.409v 4.61363" fill="none" stroke="black"/>
<path d="M465.346,336.795v 9.22726" fill="none" stroke="black"/>
<path d="M479.512,341.409v 4.61363" fill="none" stroke="black"/>
<path d="M493.679,341.409v 4.61363" fill="none" stroke="black"/>
<path d="M507.845,341.409v 4.61363" fill="none" stroke="black"/>
<text xml:space="preserve" x="99.8755" y="358.403" fill="black" font-size="12.8453" font-family="Helvetica">780</text>
<text xml:space="preserve" x="170.742" y="358.403" fill="black" font-size="12.8453" font-family="Helvetica">790</text>
<text xml:space="preserve" x="241.608" y="358.403" fill="black" font-size="12.8453" font-family="Helvetica">800</text>
<text xml:space="preserve" x="312.474" y="358.403" fill="black" font-size="12.8453" font-family="Helvetica">810</text>
<text xml:space="preserve" x="383.34" y="358.403" fill="black" font-size="12.8453" font-family="Helvetica">820</text>
<text xml:space="preserve" x="454.206" y="358.403" fill="black" font-size="12.8453" font-family="Helvetica">830</text>
<text xml:space="preserve" x="460.723" y="370.622" fill="black" font-size="12.8453" font-family="Helvetica">Time [ns]</text>
<path d="M57.1929,346.022v -307.575" fill="none" stroke="black"/>
<path d="M70.7992,346.022h -13.6063" fill="none" stroke="black"/>
<path d="M63.9961,338.878h -6.80315" fill="none" stroke="black"/>
<path d="M63.9961,331.733h -6.80315" fill="none" stroke="black"/>
<path d="M63.9961,324.588h -6.80315" fill="none" stroke="black"/>
<path d="M63.9961,317.444h -6.80315" fill="none" stroke="black"/>
<path d="M70.7992,310.299h -13.6063" fill="none" stroke="black"/>
<path d="M63.9961,303.155h -6.80315" fill="none" stroke="black"/>
<path d="M63.9961,296.01h -6.80315" fill="none" stroke="black"/>
<path d="M63.9961,288.865h -6.80315" fill="none" stroke="black"/>
<path d="M63.9961,281.721h -6.80315" fill="none" stroke="black"/>
<path d="M70.7992,274.576h -13.6063" fill="none" stroke="black"/>
<path d="M63.9961,267.432h -6.80315" fill="none" stroke="black"/>
<path d="M63.9961,260.287h -6.80315" fill="none" stroke="black"/>
<path d="M63.9961,253.142h -6.80315" fill="none" stroke="black"/>
<path d="M63.9961,245.998h -6.80315" fill="none" stroke="black"/>
<path d="M70.7992,238.853h -13.6063" fill="none" stroke="black"/>
<path d="M63.9961,231.709h -6.80315" fill="none" stroke="black"/>
<path d="M63.9961,224.564h -6.80315" fill="none" stroke="black"/>
<path d="M63.9961,217.419h -6.80315" fill="none" stroke="black"/>
<path d="M63.9961,210.275h -6.80315" fill="none" stroke="black"/>
<path d="M70.7992,203.13h -13.6063" fill="none" stroke="black"/>
<path d="M63.9961,195.986h -6.80315" fill="none" stroke="black"/>
<path d="M63.9961,188.841h -6.80315" fill="none" stroke="black"/>
<path d="M63.9961,181.696h -6.80315" fill="none" stroke="black"/>
<path d="M63.9961,174.552h -6.80315" fill="none" stroke="black"/>
<path d="M70.7992,167.407h -13.6063" fill="none" stroke="black"/>
<path d="M63.9961,160.262h -6.80315" fill="none" stroke="black"/>
<path d="M63.9961,153.118h -6.80315" fill="none" stroke="black"/>
<path d="M63.9961,145.973h -6.80315" fill="none" stroke="black"/>
<path d="M63.9961,138.829h -6.80315" fill="none" stroke="black"/>
<path d="M70.7992,131.684h -13.6063" fill="none" stroke="black"/>
<path d="M63.9961,124.539h -6.80315" fill="none" stroke="black"/>
<path d="M63.9961,117.395h -6.80315" fill="none" stroke="black"/>
<path d="M63.9961,110.25h -6.80315" fill="none" stroke="black"/>
<path d="M63.9961,103.106h -6.80315" fill="none" stroke="black"/>
<path d="M70.7992,95.961h -13.6063" fill="none" stroke="black"/>
<path d="M63.9961,88.8164h -6.80315" fill="none" stroke="black"/>
<path d="M63.9961,81.6718h -6.80315" fill="none" stroke="black"/>
<path d="M63.9961,74.5272h -6.80315" fill="none" stroke="black"/>
<path d="M63.9961,67.3826h -6.80315" fill="none" stroke="black"/>
<path d="M70.7992,60.238h -13.6063" fill="none" stroke="black"/>
<path d="M70.7992,60.238h -13.6063" fill="none" stroke="black"/>
<path d="M63.9961,53.0934h -6.80315" fill="none" stroke="black"/>
<path d="M63.9961,45.9488h -6.80315" fill="none" stroke="black"/>
<path d="M63.9961,38.8041h -6.80315" fill="none" stroke="black"/>
<text xml:space="preserve" x="47.7441" y="350.258" fill="black" font-size="12.8453" font-family="Helvetica">0</text>
<text xml:space="preserve" x="41.2277" y="314.418" fill="black" font-size="12.8453" font-family="Helvetica">10</text>
<text xml:space="preserve" x="41.2277" y="279.392" fill="black" font-size="12.8453" font-family="Helvetica">20</text>
<text xml:space="preserve" x="41.2277" y="243.551" fill="black" font-size="12.8453" font-family="Helvetica">30</text>
<text xml:space="preserve" x="41.2277" y="207.711" fill="black" font-size="12.8453" font-family="Helvetica">40</text>
<text xml:space="preserve" x="41.2277" y="171.871" fill="black" font-size="12.8453" font-family="Helvetica">50</text>
<text xml:space="preserve" x="41.2277" y="136.03" fill="black" font-size="12.8453" font-family="Helvetica">60</text>
<text xml:space="preserve" x="41.2277" y="100.19" fill="black" font-size="12.8453" font-family="Helvetica">70</text>
<text xml:space="preserve" x="41.2277" y="64.3497" fill="black" font-size="12.8453" font-family="Helvetica">80</text>
<g transform="rotate(-90,29.0094,70.0516)">
<text xml:space="preserve" x="29.0094" y="70.0516" fill="black" font-size="12.8453" font-family="Helvetica">Event</text>
</g>
<text xml:space="preserve" x="243.237" y="18.7347" fill="black" font-size="16.9898" font-family="Helvetica">560mm 42</text></svg>
