<?xml version="1.0" standalone="no"?>
<svg width="567.429" height="384.969" viewBox="0 0 567.429 384.969" xmlns="http://www.w3.org/2000/svg" shape-rendering="crispEdges">
<title>
img/week2/Combined140mm_ch_39.svg
</title>
<desc>
Creator: ROOT Version 6.22/09
CreationDate: Thu Jun 24 12:07:49 2021</desc>
<defs>
</defs>
<rect x="0.5" y="0" width="566.929" height="384.469" fill="white"/>
<rect x="57.1929" y="38.4469" width="453.543" height="307.575" fill="white"/>
<rect x="57.1929" y="38.4469" width="453.543" height="307.575" fill="none" stroke="black"/>
<rect x="57.1929" y="38.4469" width="453.543" height="307.575" fill="white"/>
<rect x="57.1929" y="38.4469" width="453.543" height="307.575" fill="none" stroke="black"/>
<path d="M57.1929,346.022h 75.5906v -2.1074h 37.7953v -6.32221h 37.7953v -12.6444h 37.7953v -124.337h 37.7953v -147.518h 37.7953v 276.07h 37.7953v 16.8592h 151.181" fill="none" stroke="#000099"/>
<g fill="#ff0000">
<polygon points=" 298.627, 48.8577 307.098, 48.8577 302.862, 57.329"/>
</g>
<path d="M59.4606,346.022h 140.598l 4.53543, -0.0552552l 4.53543, -0.079282l 4.53543, -0.177707l 4.53543, -0.378518l 4.53543, -0.765854l 4.53543, -1.4712l 4.53543, -2.6817l 4.53543, -4.63496l 4.53543, -7.58902l 4.53543, -11.7579l 4.53543, -17.212l
 4.53543, -23.7587l 4.53543, -30.8403l 4.53543, -37.4992l 4.53543, -42.4614l 4.53543, -44.3583l 4.53543, -42.0592l 4.53543, -35.0278" fill="none" stroke="#ff0000" stroke-width="2"/>
<path d="M299.632,38.4469l 0.206111, 0.992364" fill="none" stroke="#ff0000" stroke-width="2"/>
<path d="M299.839,39.4393l 4.53543, 33.7799l 4.53543, 41.4193l 4.53543, 44.316l 4.53543, 42.9068l 4.53543, 38.2652l 4.53543, 31.749l 4.53543, 24.6601l 4.53543, 18.0044l 4.53543, 12.3914l 4.53543, 8.05599l 4.53543, 4.95507l 4.53543, 2.88686l 4.53543,
 1.59461l 4.53543, 0.835713l 4.53543, 0.415812l 4.53543, 0.196512l 4.53543, 0.0882494l 4.53543, 0.0621563h 126.992" fill="none" stroke="#ff0000" stroke-width="2"/>
<path d="M57.1929,346.022h 453.543" fill="none" stroke="black"/>
<path d="M63.0218,336.795v 9.22726" fill="none" stroke="black"/>
<path d="M72.466,341.409v 4.61363" fill="none" stroke="black"/>
<path d="M81.9102,341.409v 4.61363" fill="none" stroke="black"/>
<path d="M91.3544,341.409v 4.61363" fill="none" stroke="black"/>
<path d="M100.799,341.409v 4.61363" fill="none" stroke="black"/>
<path d="M110.243,336.795v 9.22726" fill="none" stroke="black"/>
<path d="M119.687,341.409v 4.61363" fill="none" stroke="black"/>
<path d="M129.131,341.409v 4.61363" fill="none" stroke="black"/>
<path d="M138.575,341.409v 4.61363" fill="none" stroke="black"/>
<path d="M148.02,341.409v 4.61363" fill="none" stroke="black"/>
<path d="M157.464,336.795v 9.22726" fill="none" stroke="black"/>
<path d="M166.908,341.409v 4.61363" fill="none" stroke="black"/>
<path d="M176.352,341.409v 4.61363" fill="none" stroke="black"/>
<path d="M185.796,341.409v 4.61363" fill="none" stroke="black"/>
<path d="M195.241,341.409v 4.61363" fill="none" stroke="black"/>
<path d="M204.685,336.795v 9.22726" fill="none" stroke="black"/>
<path d="M214.129,341.409v 4.61363" fill="none" stroke="black"/>
<path d="M223.573,341.409v 4.61363" fill="none" stroke="black"/>
<path d="M233.018,341.409v 4.61363" fill="none" stroke="black"/>
<path d="M242.462,341.409v 4.61363" fill="none" stroke="black"/>
<path d="M251.906,336.795v 9.22726" fill="none" stroke="black"/>
<path d="M261.35,341.409v 4.61363" fill="none" stroke="black"/>
<path d="M270.794,341.409v 4.61363" fill="none" stroke="black"/>
<path d="M280.239,341.409v 4.61363" fill="none" stroke="black"/>
<path d="M289.683,341.409v 4.61363" fill="none" stroke="black"/>
<path d="M299.127,336.795v 9.22726" fill="none" stroke="black"/>
<path d="M308.571,341.409v 4.61363" fill="none" stroke="black"/>
<path d="M318.015,341.409v 4.61363" fill="none" stroke="black"/>
<path d="M327.46,341.409v 4.61363" fill="none" stroke="black"/>
<path d="M336.904,341.409v 4.61363" fill="none" stroke="black"/>
<path d="M346.348,336.795v 9.22726" fill="none" stroke="black"/>
<path d="M355.792,341.409v 4.61363" fill="none" stroke="black"/>
<path d="M365.236,341.409v 4.61363" fill="none" stroke="black"/>
<path d="M374.681,341.409v 4.61363" fill="none" stroke="black"/>
<path d="M384.125,341.409v 4.61363" fill="none" stroke="black"/>
<path d="M393.569,336.795v 9.22726" fill="none" stroke="black"/>
<path d="M403.013,341.409v 4.61363" fill="none" stroke="black"/>
<path d="M412.457,341.409v 4.61363" fill="none" stroke="black"/>
<path d="M421.902,341.409v 4.61363" fill="none" stroke="black"/>
<path d="M431.346,341.409v 4.61363" fill="none" stroke="black"/>
<path d="M440.79,336.795v 9.22726" fill="none" stroke="black"/>
<path d="M450.234,341.409v 4.61363" fill="none" stroke="black"/>
<path d="M459.678,341.409v 4.61363" fill="none" stroke="black"/>
<path d="M469.123,341.409v 4.61363" fill="none" stroke="black"/>
<path d="M478.567,341.409v 4.61363" fill="none" stroke="black"/>
<path d="M488.011,336.795v 9.22726" fill="none" stroke="black"/>
<path d="M63.0218,336.795v 9.22726" fill="none" stroke="black"/>
<path d="M488.011,336.795v 9.22726" fill="none" stroke="black"/>
<path d="M497.455,341.409v 4.61363" fill="none" stroke="black"/>
<path d="M506.9,341.409v 4.61363" fill="none" stroke="black"/>
<text xml:space="preserve" x="51.8169" y="358.403" fill="black" font-size="12.8453" font-family="Helvetica">785</text>
<text xml:space="preserve" x="99.061" y="358.403" fill="black" font-size="12.8453" font-family="Helvetica">790</text>
<text xml:space="preserve" x="146.305" y="358.403" fill="black" font-size="12.8453" font-family="Helvetica">795</text>
<text xml:space="preserve" x="193.549" y="358.403" fill="black" font-size="12.8453" font-family="Helvetica">800</text>
<text xml:space="preserve" x="240.793" y="358.403" fill="black" font-size="12.8453" font-family="Helvetica">805</text>
<text xml:space="preserve" x="288.037" y="358.403" fill="black" font-size="12.8453" font-family="Helvetica">810</text>
<text xml:space="preserve" x="335.281" y="358.403" fill="black" font-size="12.8453" font-family="Helvetica">815</text>
<text xml:space="preserve" x="382.526" y="358.403" fill="black" font-size="12.8453" font-family="Helvetica">820</text>
<text xml:space="preserve" x="429.77" y="358.403" fill="black" font-size="12.8453" font-family="Helvetica">825</text>
<text xml:space="preserve" x="477.014" y="358.403" fill="black" font-size="12.8453" font-family="Helvetica">830</text>
<text xml:space="preserve" x="460.723" y="370.622" fill="black" font-size="12.8453" font-family="Helvetica">Time [ps]</text>
<path d="M57.1929,346.022v -307.575" fill="none" stroke="black"/>
<path d="M70.7992,346.022h -13.6063" fill="none" stroke="black"/>
<path d="M63.9961,335.485h -6.80315" fill="none" stroke="black"/>
<path d="M63.9961,324.948h -6.80315" fill="none" stroke="black"/>
<path d="M63.9961,314.411h -6.80315" fill="none" stroke="black"/>
<path d="M70.7992,303.874h -13.6063" fill="none" stroke="black"/>
<path d="M63.9961,293.337h -6.80315" fill="none" stroke="black"/>
<path d="M63.9961,282.8h -6.80315" fill="none" stroke="black"/>
<path d="M63.9961,272.263h -6.80315" fill="none" stroke="black"/>
<path d="M70.7992,261.726h -13.6063" fill="none" stroke="black"/>
<path d="M63.9961,251.189h -6.80315" fill="none" stroke="black"/>
<path d="M63.9961,240.652h -6.80315" fill="none" stroke="black"/>
<path d="M63.9961,230.115h -6.80315" fill="none" stroke="black"/>
<path d="M70.7992,219.578h -13.6063" fill="none" stroke="black"/>
<path d="M63.9961,209.041h -6.80315" fill="none" stroke="black"/>
<path d="M63.9961,198.504h -6.80315" fill="none" stroke="black"/>
<path d="M63.9961,187.967h -6.80315" fill="none" stroke="black"/>
<path d="M70.7992,177.43h -13.6063" fill="none" stroke="black"/>
<path d="M63.9961,166.893h -6.80315" fill="none" stroke="black"/>
<path d="M63.9961,156.356h -6.80315" fill="none" stroke="black"/>
<path d="M63.9961,145.819h -6.80315" fill="none" stroke="black"/>
<path d="M70.7992,135.282h -13.6063" fill="none" stroke="black"/>
<path d="M63.9961,124.745h -6.80315" fill="none" stroke="black"/>
<path d="M63.9961,114.208h -6.80315" fill="none" stroke="black"/>
<path d="M63.9961,103.671h -6.80315" fill="none" stroke="black"/>
<path d="M70.7992,93.134h -13.6063" fill="none" stroke="black"/>
<path d="M63.9961,82.597h -6.80315" fill="none" stroke="black"/>
<path d="M63.9961,72.06h -6.80315" fill="none" stroke="black"/>
<path d="M63.9961,61.523h -6.80315" fill="none" stroke="black"/>
<path d="M70.7992,50.986h -13.6063" fill="none" stroke="black"/>
<path d="M70.7992,50.986h -13.6063" fill="none" stroke="black"/>
<path d="M63.9961,40.449h -6.80315" fill="none" stroke="black"/>
<text xml:space="preserve" x="47.7441" y="350.258" fill="black" font-size="12.8453" font-family="Helvetica">0</text>
<text xml:space="preserve" x="41.2277" y="308.716" fill="black" font-size="12.8453" font-family="Helvetica">20</text>
<text xml:space="preserve" x="41.2277" y="266.359" fill="black" font-size="12.8453" font-family="Helvetica">40</text>
<text xml:space="preserve" x="41.2277" y="224.002" fill="black" font-size="12.8453" font-family="Helvetica">60</text>
<text xml:space="preserve" x="41.2277" y="181.645" fill="black" font-size="12.8453" font-family="Helvetica">80</text>
<text xml:space="preserve" x="33.8967" y="140.103" fill="black" font-size="12.8453" font-family="Helvetica">100</text>
<text xml:space="preserve" x="33.8967" y="97.7464" fill="black" font-size="12.8453" font-family="Helvetica">120</text>
<text xml:space="preserve" x="33.8967" y="55.3896" fill="black" font-size="12.8453" font-family="Helvetica">140</text>
<g transform="rotate(-90,20.8638,70.0516)">
<text xml:space="preserve" x="20.8638" y="70.0516" fill="black" font-size="12.8453" font-family="Helvetica">Event</text>
</g>
<text xml:space="preserve" x="243.237" y="18.7347" fill="black" font-size="16.9898" font-family="Helvetica">140mm 39</text></svg>
