<?xml version="1.0" standalone="no"?>
<svg width="567.429" height="386.304" viewBox="0 0 567.429 386.304" xmlns="http://www.w3.org/2000/svg" shape-rendering="crispEdges">
<title>
img/week2/Combined420mm_ch_35.svg
</title>
<desc>
Creator: ROOT Version 6.22/08
CreationDate: Thu Jun 24 12:00:37 2021</desc>
<defs>
</defs>
<rect x="0.5" y="0" width="566.929" height="385.804" fill="white"/>
<rect x="57.1929" y="38.5804" width="453.543" height="308.643" fill="white"/>
<rect x="57.1929" y="38.5804" width="453.543" height="308.643" fill="none" stroke="black"/>
<rect x="57.1929" y="38.5804" width="453.543" height="308.643" fill="white"/>
<rect x="57.1929" y="38.5804" width="453.543" height="308.643" fill="none" stroke="black"/>
<path d="M57.1929,347.224h 26.679v -2.57847h 26.679v 2.57847h 80.0371v -5.15695h 26.679v -23.2063h 26.679v -87.6681h 26.679v -177.915h 26.679v 175.336h 26.679v 118.61h 186.753" fill="none" stroke="#000099"/>
<g fill="#ff0000">
<polygon points=" 279.741, 49.0542 288.188, 49.0542 283.965, 57.5013"/>
</g>
<path d="M59.4606,347.224h 126.992l 4.53543, -0.0525927l 4.53543, -0.0666021l 4.53543, -0.140037l 4.53543, -0.281792l 4.53543, -0.54251l 4.53543, -0.99888l 4.53543, -1.7581l 4.53543, -2.95638l 4.53543, -4.74639l 4.53543, -7.26922l 4.53543, -10.6088l
 4.53543, -14.7332l 4.53543, -19.4352l 4.53543, -24.2916l 4.53543, -28.6665l 4.53543, -31.7757l 4.53543, -32.8163l 4.53543, -31.1436l 4.53543, -26.4517l 4.53543, -18.9057l 4.53543, -9.17473" fill="none" stroke="#ff0000" stroke-width="2"/>
<path d="M281.697,80.4083l 4.53543, 1.65694l 4.53543, 12.2879l 4.53543, 21.4568l 4.53543, 28.1883l 4.53543, 31.9618l 4.53543, 32.7635l 4.53543, 31.0187l 4.53543, 27.44l 4.53543, 22.8417l 4.53543, 17.974l 4.53543, 13.4123l 4.53543, 9.51228l 4.53543,
 6.42272l 4.53543, 4.13391l 4.53543, 2.53889l 4.53543, 1.48905l 4.53543, 0.834526l 4.53543, 0.447156l 4.53543, 0.22917l 4.53543, 0.112381l 4.53543, 0.0527476l 4.53543, 0.0407383h 122.457" fill="none" stroke="#ff0000" stroke-width="2"/>
<path d="M503.933,347.224h 4.53543" fill="none" stroke="#ff0000" stroke-width="2"/>
<rect x="351.996" y="25.0773" width="204.094" height="108.025" fill="white"/>
<path d="M351.996,133.102h 204.094" fill="none" stroke="black"/>
<path d="M556.091,133.102v -108.025" fill="none" stroke="black"/>
<path d="M556.091,25.0773h -204.094" fill="none" stroke="black"/>
<path d="M351.996,25.0773v 108.025" fill="none" stroke="black"/>
<text xml:space="preserve" x="361.938" y="38.9865" fill="black" font-size="15.6962" font-family="Helvetica">Entries </text>
<text xml:space="preserve" x="517.884" y="39.7988" fill="black" font-size="15.6962" font-family="Helvetica"> 221</text>
<text xml:space="preserve" x="375.745" y="57.6676" fill="black" font-size="15.6962" font-family="Helvetica"> / ndf </text>
<text xml:space="preserve" x="370.06" y="52.7943" fill="black" font-size="10.6308" font-family="Helvetica">2</text>
<text xml:space="preserve" x="361.938" y="57.6676" fill="black" font-size="15.6962" font-family="Times">&#0967;</text>
<text xml:space="preserve" x="481.334" y="57.6676" fill="black" font-size="15.6962" font-family="Helvetica"> 6.982 / 3</text>
<text xml:space="preserve" x="361.938" y="75.5364" fill="black" font-size="15.6962" font-family="Helvetica">Prob  </text>
<text xml:space="preserve" x="485.395" y="75.5364" fill="black" font-size="15.6962" font-family="Helvetica"> 0.07246</text>
<text xml:space="preserve" x="361.938" y="94.2175" fill="black" font-size="15.6962" font-family="Helvetica">Const    </text>
<text xml:space="preserve" x="511.386" y="93.4052" fill="black" font-size="15.6962" font-family="Helvetica"> 11.3</text>
<text xml:space="preserve" x="502.452" y="93.4052" fill="black" font-size="15.6962" font-family="Times">&#0177;</text>
<text xml:space="preserve" x="454.531" y="93.4052" fill="black" font-size="15.6962" font-family="Helvetica"> 103.7 </text>
<text xml:space="preserve" x="361.938" y="111.274" fill="black" font-size="15.6962" font-family="Helvetica">Mean     </text>
<text xml:space="preserve" x="520.32" y="111.274" fill="black" font-size="15.6962" font-family="Helvetica"> 0.2</text>
<text xml:space="preserve" x="511.386" y="111.274" fill="black" font-size="15.6962" font-family="Times">&#0177;</text>
<text xml:space="preserve" x="464.277" y="111.274" fill="black" font-size="15.6962" font-family="Helvetica"> 806.3 </text>
<text xml:space="preserve" x="361.938" y="128.331" fill="black" font-size="15.6962" font-family="Helvetica">Sigma    </text>
<text xml:space="preserve" x="502.452" y="129.143" fill="black" font-size="15.6962" font-family="Helvetica"> 0.326</text>
<text xml:space="preserve" x="493.517" y="129.143" fill="black" font-size="15.6962" font-family="Times">&#0177;</text>
<text xml:space="preserve" x="448.845" y="129.143" fill="black" font-size="15.6962" font-family="Helvetica"> 3.351 </text>
<path d="M57.1929,347.224h 453.543" fill="none" stroke="black"/>
<path d="M108.012,337.964v 9.2593" fill="none" stroke="black"/>
<path d="M121.345,342.594v 4.62965" fill="none" stroke="black"/>
<path d="M134.678,342.594v 4.62965" fill="none" stroke="black"/>
<path d="M148.011,342.594v 4.62965" fill="none" stroke="black"/>
<path d="M161.344,342.594v 4.62965" fill="none" stroke="black"/>
<path d="M174.677,337.964v 9.2593" fill="none" stroke="black"/>
<path d="M188.01,342.594v 4.62965" fill="none" stroke="black"/>
<path d="M201.343,342.594v 4.62965" fill="none" stroke="black"/>
<path d="M214.676,342.594v 4.62965" fill="none" stroke="black"/>
<path d="M228.009,342.594v 4.62965" fill="none" stroke="black"/>
<path d="M241.342,337.964v 9.2593" fill="none" stroke="black"/>
<path d="M254.675,342.594v 4.62965" fill="none" stroke="black"/>
<path d="M268.008,342.594v 4.62965" fill="none" stroke="black"/>
<path d="M281.341,342.594v 4.62965" fill="none" stroke="black"/>
<path d="M294.674,342.594v 4.62965" fill="none" stroke="black"/>
<path d="M308.007,337.964v 9.2593" fill="none" stroke="black"/>
<path d="M321.34,342.594v 4.62965" fill="none" stroke="black"/>
<path d="M334.673,342.594v 4.62965" fill="none" stroke="black"/>
<path d="M348.006,342.594v 4.62965" fill="none" stroke="black"/>
<path d="M361.339,342.594v 4.62965" fill="none" stroke="black"/>
<path d="M374.672,337.964v 9.2593" fill="none" stroke="black"/>
<path d="M388.005,342.594v 4.62965" fill="none" stroke="black"/>
<path d="M401.338,342.594v 4.62965" fill="none" stroke="black"/>
<path d="M414.671,342.594v 4.62965" fill="none" stroke="black"/>
<path d="M428.004,342.594v 4.62965" fill="none" stroke="black"/>
<path d="M441.337,337.964v 9.2593" fill="none" stroke="black"/>
<path d="M454.67,342.594v 4.62965" fill="none" stroke="black"/>
<path d="M468.003,342.594v 4.62965" fill="none" stroke="black"/>
<path d="M481.336,342.594v 4.62965" fill="none" stroke="black"/>
<path d="M494.669,342.594v 4.62965" fill="none" stroke="black"/>
<path d="M508.002,337.964v 9.2593" fill="none" stroke="black"/>
<path d="M108.012,337.964v 9.2593" fill="none" stroke="black"/>
<path d="M94.679,342.594v 4.62965" fill="none" stroke="black"/>
<path d="M81.346,342.594v 4.62965" fill="none" stroke="black"/>
<path d="M68.013,342.594v 4.62965" fill="none" stroke="black"/>
<path d="M508.002,337.964v 9.2593" fill="none" stroke="black"/>
<text xml:space="preserve" x="96.3419" y="359.813" fill="black" font-size="12.8882" font-family="Helvetica">780</text>
<text xml:space="preserve" x="162.944" y="359.813" fill="black" font-size="12.8882" font-family="Helvetica">790</text>
<text xml:space="preserve" x="229.546" y="359.813" fill="black" font-size="12.8882" font-family="Helvetica">800</text>
<text xml:space="preserve" x="296.148" y="359.813" fill="black" font-size="12.8882" font-family="Helvetica">810</text>
<text xml:space="preserve" x="362.75" y="359.813" fill="black" font-size="12.8882" font-family="Helvetica">820</text>
<text xml:space="preserve" x="429.352" y="359.813" fill="black" font-size="12.8882" font-family="Helvetica">830</text>
<text xml:space="preserve" x="495.954" y="359.813" fill="black" font-size="12.8882" font-family="Helvetica">840</text>
<text xml:space="preserve" x="457.78" y="372.809" fill="black" font-size="12.8882" font-family="Helvetica">Time [ns]</text>
<path d="M57.1929,347.224v -308.643" fill="none" stroke="black"/>
<path d="M70.7992,347.224h -13.6063" fill="none" stroke="black"/>
<path d="M63.9961,334.331h -6.80315" fill="none" stroke="black"/>
<path d="M63.9961,321.439h -6.80315" fill="none" stroke="black"/>
<path d="M63.9961,308.547h -6.80315" fill="none" stroke="black"/>
<path d="M70.7992,295.654h -13.6063" fill="none" stroke="black"/>
<path d="M63.9961,282.762h -6.80315" fill="none" stroke="black"/>
<path d="M63.9961,269.87h -6.80315" fill="none" stroke="black"/>
<path d="M63.9961,256.977h -6.80315" fill="none" stroke="black"/>
<path d="M70.7992,244.085h -13.6063" fill="none" stroke="black"/>
<path d="M63.9961,231.192h -6.80315" fill="none" stroke="black"/>
<path d="M63.9961,218.3h -6.80315" fill="none" stroke="black"/>
<path d="M63.9961,205.408h -6.80315" fill="none" stroke="black"/>
<path d="M70.7992,192.515h -13.6063" fill="none" stroke="black"/>
<path d="M63.9961,179.623h -6.80315" fill="none" stroke="black"/>
<path d="M63.9961,166.731h -6.80315" fill="none" stroke="black"/>
<path d="M63.9961,153.838h -6.80315" fill="none" stroke="black"/>
<path d="M70.7992,140.946h -13.6063" fill="none" stroke="black"/>
<path d="M63.9961,128.053h -6.80315" fill="none" stroke="black"/>
<path d="M63.9961,115.161h -6.80315" fill="none" stroke="black"/>
<path d="M63.9961,102.269h -6.80315" fill="none" stroke="black"/>
<path d="M70.7992,89.3764h -13.6063" fill="none" stroke="black"/>
<path d="M70.7992,89.3764h -13.6063" fill="none" stroke="black"/>
<path d="M63.9961,76.484h -6.80315" fill="none" stroke="black"/>
<path d="M63.9961,63.5916h -6.80315" fill="none" stroke="black"/>
<path d="M63.9961,50.6993h -6.80315" fill="none" stroke="black"/>
<text xml:space="preserve" x="46.7965" y="351.691" fill="black" font-size="12.8882" font-family="Helvetica">0</text>
<text xml:space="preserve" x="39.4865" y="300.521" fill="black" font-size="12.8882" font-family="Helvetica">20</text>
<text xml:space="preserve" x="39.4865" y="248.539" fill="black" font-size="12.8882" font-family="Helvetica">40</text>
<text xml:space="preserve" x="39.4865" y="197.369" fill="black" font-size="12.8882" font-family="Helvetica">60</text>
<text xml:space="preserve" x="39.4865" y="145.387" fill="black" font-size="12.8882" font-family="Helvetica">80</text>
<text xml:space="preserve" x="32.1766" y="94.2175" fill="black" font-size="12.8882" font-family="Helvetica">100</text>
<g transform="rotate(-90,21.6177,71.4753)">
<text xml:space="preserve" x="21.6177" y="71.4753" fill="black" font-size="12.8882" font-family="Helvetica">Event</text>
</g>
<rect x="351.996" y="25.0773" width="204.094" height="108.025" fill="white"/>
<path d="M351.996,133.102h 204.094" fill="none" stroke="black"/>
<path d="M556.091,133.102v -108.025" fill="none" stroke="black"/>
<path d="M556.091,25.0773h -204.094" fill="none" stroke="black"/>
<path d="M351.996,25.0773v 108.025" fill="none" stroke="black"/>
<text xml:space="preserve" x="361.938" y="38.9865" fill="black" font-size="15.6962" font-family="Helvetica">Entries </text>
<text xml:space="preserve" x="517.884" y="39.7988" fill="black" font-size="15.6962" font-family="Helvetica"> 221</text>
<text xml:space="preserve" x="375.745" y="57.6676" fill="black" font-size="15.6962" font-family="Helvetica"> / ndf </text>
<text xml:space="preserve" x="370.06" y="52.7943" fill="black" font-size="10.6308" font-family="Helvetica">2</text>
<text xml:space="preserve" x="361.938" y="57.6676" fill="black" font-size="15.6962" font-family="Times">&#0967;</text>
<text xml:space="preserve" x="481.334" y="57.6676" fill="black" font-size="15.6962" font-family="Helvetica"> 6.982 / 3</text>
<text xml:space="preserve" x="361.938" y="75.5364" fill="black" font-size="15.6962" font-family="Helvetica">Prob  </text>
<text xml:space="preserve" x="485.395" y="75.5364" fill="black" font-size="15.6962" font-family="Helvetica"> 0.07246</text>
<text xml:space="preserve" x="361.938" y="94.2175" fill="black" font-size="15.6962" font-family="Helvetica">Const    </text>
<text xml:space="preserve" x="511.386" y="93.4052" fill="black" font-size="15.6962" font-family="Helvetica"> 11.3</text>
<text xml:space="preserve" x="502.452" y="93.4052" fill="black" font-size="15.6962" font-family="Times">&#0177;</text>
<text xml:space="preserve" x="454.531" y="93.4052" fill="black" font-size="15.6962" font-family="Helvetica"> 103.7 </text>
<text xml:space="preserve" x="361.938" y="111.274" fill="black" font-size="15.6962" font-family="Helvetica">Mean     </text>
<text xml:space="preserve" x="520.32" y="111.274" fill="black" font-size="15.6962" font-family="Helvetica"> 0.2</text>
<text xml:space="preserve" x="511.386" y="111.274" fill="black" font-size="15.6962" font-family="Times">&#0177;</text>
<text xml:space="preserve" x="464.277" y="111.274" fill="black" font-size="15.6962" font-family="Helvetica"> 806.3 </text>
<text xml:space="preserve" x="361.938" y="128.331" fill="black" font-size="15.6962" font-family="Helvetica">Sigma    </text>
<text xml:space="preserve" x="502.452" y="129.143" fill="black" font-size="15.6962" font-family="Helvetica"> 0.326</text>
<text xml:space="preserve" x="493.517" y="129.143" fill="black" font-size="15.6962" font-family="Times">&#0177;</text>
<text xml:space="preserve" x="448.845" y="129.143" fill="black" font-size="15.6962" font-family="Helvetica"> 3.351 </text>
<text xml:space="preserve" x="243.354" y="18.681" fill="black" font-size="17.0471" font-family="Helvetica">420mm 35</text></svg>
