<?xml version="1.0" standalone="no"?>
<svg width="567.429" height="386.304" viewBox="0 0 567.429 386.304" xmlns="http://www.w3.org/2000/svg" shape-rendering="crispEdges">
<title>
img/week2/Combined140mm_ch_28_29_30_31.svg
</title>
<desc>
Creator: ROOT Version 6.22/08
CreationDate: Thu Jun 24 11:56:28 2021</desc>
<defs>
</defs>
<rect x="0.5" y="0" width="566.929" height="385.804" fill="white"/>
<rect x="57.1929" y="38.5804" width="453.543" height="308.643" fill="white"/>
<rect x="57.1929" y="38.5804" width="453.543" height="308.643" fill="none" stroke="black"/>
<rect x="57.1929" y="38.5804" width="453.543" height="308.643" fill="white"/>
<rect x="57.1929" y="38.5804" width="453.543" height="308.643" fill="none" stroke="black"/>
<path d="M57.1929,346.609h 32.396v 0.614401h 64.7919v -4.30081h 32.396v -9.83042h 32.396v -44.8513h 32.396v -201.524h 32.396v -8.60161h 32.396v 258.048h 32.396v 11.0592h 161.98" fill="none" stroke="#000099"/>
<g fill="#ff0000">
<polygon points=" 263.543, 82.4942 271.99, 82.4942 267.767, 90.9413"/>
</g>
<path d="M59.4606,347.224h 122.457l 4.53543, -0.0401348l 4.53543, -0.0545419l 4.53543, -0.119315l 4.53543, -0.249439l 4.53543, -0.498194l 4.53543, -0.950247l 4.53543, -1.73017l 4.53543, -3.00554l 4.53543, -4.978l 4.53543, -7.85486l 4.53543, -11.7959l
 4.53543, -16.837l 4.53543, -22.8032l 4.53543, -29.2361l 4.53543, -35.3695l 4.53543, -40.1856l 4.53543, -42.5673l 4.53543, -41.5315l 4.53543, -36.4916l 2.0379, -12.3452" fill="none" stroke="#ff0000" stroke-width="2"/>
<path d="M289.432,38.5804l 1.33607, 7.61044" fill="none" stroke="#ff0000" stroke-width="2"/>
<path d="M290.768,46.1909l 4.53543, 35.3955l 4.53543, 41.0439l 4.53543, 42.6494l 4.53543, 40.7191l 4.53543, 36.1939l 4.53543, 30.1871l 4.53543, 23.7431l 4.53543, 17.6712l 4.53543, 12.4756l 4.53543, 8.36953l 4.53543, 5.34288l 4.53543, 3.24893l
 4.53543, 1.88347l 4.53543, 1.04164l 4.53543, 0.549872l 4.53543, 0.277194l 4.53543, 0.13349l 4.53543, 0.0614322l 4.53543, 0.0457065h 131.528" fill="none" stroke="#ff0000" stroke-width="2"/>
<rect x="351.996" y="25.0773" width="204.094" height="108.025" fill="white"/>
<path d="M351.996,133.102h 204.094" fill="none" stroke="black"/>
<path d="M556.091,133.102v -108.025" fill="none" stroke="black"/>
<path d="M556.091,25.0773h -204.094" fill="none" stroke="black"/>
<path d="M351.996,25.0773v 108.025" fill="none" stroke="black"/>
<text xml:space="preserve" x="361.938" y="38.9865" fill="black" font-size="15.6962" font-family="Helvetica">Entries </text>
<text xml:space="preserve" x="507.325" y="38.9865" fill="black" font-size="15.6962" font-family="Helvetica"> 1014</text>
<text xml:space="preserve" x="375.745" y="57.6676" fill="black" font-size="15.6962" font-family="Helvetica"> / ndf </text>
<text xml:space="preserve" x="370.06" y="52.7943" fill="black" font-size="10.6308" font-family="Helvetica">2</text>
<text xml:space="preserve" x="361.938" y="57.6676" fill="black" font-size="15.6962" font-family="Times">&#0967;</text>
<text xml:space="preserve" x="481.334" y="57.6676" fill="black" font-size="15.6962" font-family="Helvetica"> 67.41 / 7</text>
<text xml:space="preserve" x="361.938" y="75.5364" fill="black" font-size="15.6962" font-family="Helvetica">Prob  </text>
<text xml:space="preserve" x="528.443" y="75.5364" fill="black" font-size="15.6962" font-family="Helvetica">12</text>
<text xml:space="preserve" x="519.508" y="75.5364" fill="black" font-size="15.6962" font-family="Times">&#8722;</text>
<text xml:space="preserve" x="468.338" y="75.5364" fill="black" font-size="15.6962" font-family="Helvetica"> 4.926e</text>
<text xml:space="preserve" x="361.938" y="94.2175" fill="black" font-size="15.6962" font-family="Helvetica">Const    </text>
<text xml:space="preserve" x="511.386" y="93.4052" fill="black" font-size="15.6962" font-family="Helvetica"> 23.5</text>
<text xml:space="preserve" x="502.452" y="93.4052" fill="black" font-size="15.6962" font-family="Times">&#0177;</text>
<text xml:space="preserve" x="454.531" y="93.4052" fill="black" font-size="15.6962" font-family="Helvetica"> 555.6 </text>
<text xml:space="preserve" x="361.938" y="111.274" fill="black" font-size="15.6962" font-family="Helvetica">Mean     </text>
<text xml:space="preserve" x="522.757" y="111.274" fill="black" font-size="15.6962" font-family="Helvetica"> 0.1</text>
<text xml:space="preserve" x="513.823" y="111.274" fill="black" font-size="15.6962" font-family="Times">&#0177;</text>
<text xml:space="preserve" x="465.902" y="111.274" fill="black" font-size="15.6962" font-family="Helvetica"> 807.9 </text>
<text xml:space="preserve" x="361.938" y="128.331" fill="black" font-size="15.6962" font-family="Helvetica">Sigma    </text>
<text xml:space="preserve" x="511.386" y="129.143" fill="black" font-size="15.6962" font-family="Helvetica"> 0.07</text>
<text xml:space="preserve" x="502.452" y="129.143" fill="black" font-size="15.6962" font-family="Times">&#0177;</text>
<text xml:space="preserve" x="461.841" y="129.143" fill="black" font-size="15.6962" font-family="Helvetica">  2.71 </text>
<path d="M57.1929,347.224h 453.543" fill="none" stroke="black"/>
<path d="M135.06,337.964v 9.2593" fill="none" stroke="black"/>
<path d="M151.25,342.594v 4.62965" fill="none" stroke="black"/>
<path d="M167.44,342.594v 4.62965" fill="none" stroke="black"/>
<path d="M183.63,342.594v 4.62965" fill="none" stroke="black"/>
<path d="M199.82,342.594v 4.62965" fill="none" stroke="black"/>
<path d="M216.011,337.964v 9.2593" fill="none" stroke="black"/>
<path d="M232.201,342.594v 4.62965" fill="none" stroke="black"/>
<path d="M248.391,342.594v 4.62965" fill="none" stroke="black"/>
<path d="M264.581,342.594v 4.62965" fill="none" stroke="black"/>
<path d="M280.771,342.594v 4.62965" fill="none" stroke="black"/>
<path d="M296.961,337.964v 9.2593" fill="none" stroke="black"/>
<path d="M313.151,342.594v 4.62965" fill="none" stroke="black"/>
<path d="M329.341,342.594v 4.62965" fill="none" stroke="black"/>
<path d="M345.531,342.594v 4.62965" fill="none" stroke="black"/>
<path d="M361.721,342.594v 4.62965" fill="none" stroke="black"/>
<path d="M377.911,337.964v 9.2593" fill="none" stroke="black"/>
<path d="M394.101,342.594v 4.62965" fill="none" stroke="black"/>
<path d="M410.291,342.594v 4.62965" fill="none" stroke="black"/>
<path d="M426.481,342.594v 4.62965" fill="none" stroke="black"/>
<path d="M442.672,342.594v 4.62965" fill="none" stroke="black"/>
<path d="M458.862,337.964v 9.2593" fill="none" stroke="black"/>
<path d="M135.06,337.964v 9.2593" fill="none" stroke="black"/>
<path d="M118.87,342.594v 4.62965" fill="none" stroke="black"/>
<path d="M102.68,342.594v 4.62965" fill="none" stroke="black"/>
<path d="M86.49,342.594v 4.62965" fill="none" stroke="black"/>
<path d="M70.2999,342.594v 4.62965" fill="none" stroke="black"/>
<path d="M458.862,337.964v 9.2593" fill="none" stroke="black"/>
<path d="M475.052,342.594v 4.62965" fill="none" stroke="black"/>
<path d="M491.242,342.594v 4.62965" fill="none" stroke="black"/>
<path d="M507.432,342.594v 4.62965" fill="none" stroke="black"/>
<text xml:space="preserve" x="123.145" y="359.813" fill="black" font-size="12.8882" font-family="Helvetica">790</text>
<text xml:space="preserve" x="204.367" y="359.813" fill="black" font-size="12.8882" font-family="Helvetica">800</text>
<text xml:space="preserve" x="285.589" y="359.813" fill="black" font-size="12.8882" font-family="Helvetica">810</text>
<text xml:space="preserve" x="365.999" y="359.813" fill="black" font-size="12.8882" font-family="Helvetica">820</text>
<text xml:space="preserve" x="447.221" y="359.813" fill="black" font-size="12.8882" font-family="Helvetica">830</text>
<text xml:space="preserve" x="457.78" y="372.809" fill="black" font-size="12.8882" font-family="Helvetica">Time [ns]</text>
<path d="M57.1929,347.224v -308.643" fill="none" stroke="black"/>
<path d="M70.7992,347.224h -13.6063" fill="none" stroke="black"/>
<path d="M63.9961,334.936h -6.80315" fill="none" stroke="black"/>
<path d="M63.9961,322.648h -6.80315" fill="none" stroke="black"/>
<path d="M63.9961,310.36h -6.80315" fill="none" stroke="black"/>
<path d="M63.9961,298.072h -6.80315" fill="none" stroke="black"/>
<path d="M70.7992,285.784h -13.6063" fill="none" stroke="black"/>
<path d="M63.9961,273.496h -6.80315" fill="none" stroke="black"/>
<path d="M63.9961,261.208h -6.80315" fill="none" stroke="black"/>
<path d="M63.9961,248.92h -6.80315" fill="none" stroke="black"/>
<path d="M63.9961,236.632h -6.80315" fill="none" stroke="black"/>
<path d="M70.7992,224.344h -13.6063" fill="none" stroke="black"/>
<path d="M63.9961,212.056h -6.80315" fill="none" stroke="black"/>
<path d="M63.9961,199.768h -6.80315" fill="none" stroke="black"/>
<path d="M63.9961,187.48h -6.80315" fill="none" stroke="black"/>
<path d="M63.9961,175.191h -6.80315" fill="none" stroke="black"/>
<path d="M70.7992,162.903h -13.6063" fill="none" stroke="black"/>
<path d="M63.9961,150.615h -6.80315" fill="none" stroke="black"/>
<path d="M63.9961,138.327h -6.80315" fill="none" stroke="black"/>
<path d="M63.9961,126.039h -6.80315" fill="none" stroke="black"/>
<path d="M63.9961,113.751h -6.80315" fill="none" stroke="black"/>
<path d="M70.7992,101.463h -13.6063" fill="none" stroke="black"/>
<path d="M63.9961,89.1753h -6.80315" fill="none" stroke="black"/>
<path d="M63.9961,76.8873h -6.80315" fill="none" stroke="black"/>
<path d="M63.9961,64.5993h -6.80315" fill="none" stroke="black"/>
<path d="M63.9961,52.3113h -6.80315" fill="none" stroke="black"/>
<path d="M70.7992,40.0233h -13.6063" fill="none" stroke="black"/>
<path d="M70.7992,40.0233h -13.6063" fill="none" stroke="black"/>
<text xml:space="preserve" x="46.7965" y="351.691" fill="black" font-size="12.8882" font-family="Helvetica">0</text>
<text xml:space="preserve" x="32.1766" y="289.962" fill="black" font-size="12.8882" font-family="Helvetica">100</text>
<text xml:space="preserve" x="32.1766" y="229.046" fill="black" font-size="12.8882" font-family="Helvetica">200</text>
<text xml:space="preserve" x="32.1766" y="167.317" fill="black" font-size="12.8882" font-family="Helvetica">300</text>
<text xml:space="preserve" x="32.1766" y="105.589" fill="black" font-size="12.8882" font-family="Helvetica">400</text>
<text xml:space="preserve" x="32.1766" y="44.6721" fill="black" font-size="12.8882" font-family="Helvetica">500</text>
<g transform="rotate(-90,21.6177,71.4753)">
<text xml:space="preserve" x="21.6177" y="71.4753" fill="black" font-size="12.8882" font-family="Helvetica">Event</text>
</g>
<rect x="351.996" y="25.0773" width="204.094" height="108.025" fill="white"/>
<path d="M351.996,133.102h 204.094" fill="none" stroke="black"/>
<path d="M556.091,133.102v -108.025" fill="none" stroke="black"/>
<path d="M556.091,25.0773h -204.094" fill="none" stroke="black"/>
<path d="M351.996,25.0773v 108.025" fill="none" stroke="black"/>
<text xml:space="preserve" x="361.938" y="38.9865" fill="black" font-size="15.6962" font-family="Helvetica">Entries </text>
<text xml:space="preserve" x="507.325" y="38.9865" fill="black" font-size="15.6962" font-family="Helvetica"> 1014</text>
<text xml:space="preserve" x="375.745" y="57.6676" fill="black" font-size="15.6962" font-family="Helvetica"> / ndf </text>
<text xml:space="preserve" x="370.06" y="52.7943" fill="black" font-size="10.6308" font-family="Helvetica">2</text>
<text xml:space="preserve" x="361.938" y="57.6676" fill="black" font-size="15.6962" font-family="Times">&#0967;</text>
<text xml:space="preserve" x="481.334" y="57.6676" fill="black" font-size="15.6962" font-family="Helvetica"> 67.41 / 7</text>
<text xml:space="preserve" x="361.938" y="75.5364" fill="black" font-size="15.6962" font-family="Helvetica">Prob  </text>
<text xml:space="preserve" x="528.443" y="75.5364" fill="black" font-size="15.6962" font-family="Helvetica">12</text>
<text xml:space="preserve" x="519.508" y="75.5364" fill="black" font-size="15.6962" font-family="Times">&#8722;</text>
<text xml:space="preserve" x="468.338" y="75.5364" fill="black" font-size="15.6962" font-family="Helvetica"> 4.926e</text>
<text xml:space="preserve" x="361.938" y="94.2175" fill="black" font-size="15.6962" font-family="Helvetica">Const    </text>
<text xml:space="preserve" x="511.386" y="93.4052" fill="black" font-size="15.6962" font-family="Helvetica"> 23.5</text>
<text xml:space="preserve" x="502.452" y="93.4052" fill="black" font-size="15.6962" font-family="Times">&#0177;</text>
<text xml:space="preserve" x="454.531" y="93.4052" fill="black" font-size="15.6962" font-family="Helvetica"> 555.6 </text>
<text xml:space="preserve" x="361.938" y="111.274" fill="black" font-size="15.6962" font-family="Helvetica">Mean     </text>
<text xml:space="preserve" x="522.757" y="111.274" fill="black" font-size="15.6962" font-family="Helvetica"> 0.1</text>
<text xml:space="preserve" x="513.823" y="111.274" fill="black" font-size="15.6962" font-family="Times">&#0177;</text>
<text xml:space="preserve" x="465.902" y="111.274" fill="black" font-size="15.6962" font-family="Helvetica"> 807.9 </text>
<text xml:space="preserve" x="361.938" y="128.331" fill="black" font-size="15.6962" font-family="Helvetica">Sigma    </text>
<text xml:space="preserve" x="511.386" y="129.143" fill="black" font-size="15.6962" font-family="Helvetica"> 0.07</text>
<text xml:space="preserve" x="502.452" y="129.143" fill="black" font-size="15.6962" font-family="Times">&#0177;</text>
<text xml:space="preserve" x="461.841" y="129.143" fill="black" font-size="15.6962" font-family="Helvetica">  2.71 </text>
<text xml:space="preserve" x="209.24" y="18.681" fill="black" font-size="17.0471" font-family="Helvetica">140mm 28 29 30 31</text></svg>
