<?xml version="1.0" standalone="no"?>
<svg width="567.429" height="386.304" viewBox="0 0 567.429 386.304" xmlns="http://www.w3.org/2000/svg" shape-rendering="crispEdges">
<title>
img/week2/Combined420mm_ch_5.svg
</title>
<desc>
Creator: ROOT Version 6.22/08
CreationDate: Tue Jun 22 00:47:31 2021</desc>
<defs>
</defs>
<rect x="0.5" y="0" width="566.929" height="385.804" fill="white"/>
<rect x="57.1929" y="38.5804" width="453.543" height="308.643" fill="white"/>
<rect x="57.1929" y="38.5804" width="453.543" height="308.643" fill="none" stroke="black"/>
<rect x="57.1929" y="38.5804" width="453.543" height="308.643" fill="white"/>
<rect x="57.1929" y="38.5804" width="453.543" height="308.643" fill="none" stroke="black"/>
<path d="M57.1929,347.224h 50.3937v -5.34447h 25.1968v 5.34447h 100.787v -37.4113h 25.1968v -112.234h 25.1968v -144.301h 25.1968v 197.746h 25.1968v 96.2005h 176.378" fill="none" stroke="#000099"/>
<g fill="#ff0000">
<polygon points=" 292.339, 49.0542 300.787, 49.0542 296.563, 57.5013"/>
</g>
<path d="M59.4606,347.224h 140.598l 4.53543, -0.0558301l 4.53543, -0.075863l 4.53543, -0.165083l 4.53543, -0.342175l 4.53543, -0.675298l 4.53543, -1.26837l 4.53543, -2.26595l 4.53543, -3.84782l 4.53543, -6.20532l 4.53543, -9.49353l 4.53543, -13.7593l
 4.53543, -18.8565l 4.53543, -24.3738l 4.53543, -29.6092l 4.53543, -33.6257l 4.53543, -35.403l 4.53543, -34.0685l 4.53543, -29.1528" fill="none" stroke="#ff0000" stroke-width="2"/>
<path d="M281.697,103.98l 4.53543, -20.7884l 4.53543, -9.77434l 4.53543, 2.53607l 4.53543, 14.5071l 4.53543, 24.5777l 4.53543, 31.5956l 4.53543, 35.0301l 4.53543, 35.0111l 4.53543, 32.2015l 4.53543, 27.5652l 4.53543, 22.1127l 4.53543, 16.6981l
 4.53543, 11.9064l 4.53543, 8.03437l 4.53543, 5.13919l 4.53543, 3.12002l 4.53543, 1.79957l 4.53543, 0.986884l 4.53543, 0.514905l 4.53543, 0.255726l 4.53543, 0.120948l 4.53543, 0.0544949l 4.53543, 0.0388381h 117.921" fill="none" stroke="#ff0000"
 stroke-width="2"/>
<path d="M503.933,347.224h 4.53543" fill="none" stroke="#ff0000" stroke-width="2"/>
<path d="M57.1929,347.224h 453.543" fill="none" stroke="black"/>
<path d="M105.189,337.964v 9.2593" fill="none" stroke="black"/>
<path d="M117.781,342.594v 4.62965" fill="none" stroke="black"/>
<path d="M130.373,342.594v 4.62965" fill="none" stroke="black"/>
<path d="M142.965,342.594v 4.62965" fill="none" stroke="black"/>
<path d="M155.558,342.594v 4.62965" fill="none" stroke="black"/>
<path d="M168.15,337.964v 9.2593" fill="none" stroke="black"/>
<path d="M180.742,342.594v 4.62965" fill="none" stroke="black"/>
<path d="M193.335,342.594v 4.62965" fill="none" stroke="black"/>
<path d="M205.927,342.594v 4.62965" fill="none" stroke="black"/>
<path d="M218.519,342.594v 4.62965" fill="none" stroke="black"/>
<path d="M231.111,337.964v 9.2593" fill="none" stroke="black"/>
<path d="M243.704,342.594v 4.62965" fill="none" stroke="black"/>
<path d="M256.296,342.594v 4.62965" fill="none" stroke="black"/>
<path d="M268.888,342.594v 4.62965" fill="none" stroke="black"/>
<path d="M281.481,342.594v 4.62965" fill="none" stroke="black"/>
<path d="M294.073,337.964v 9.2593" fill="none" stroke="black"/>
<path d="M306.665,342.594v 4.62965" fill="none" stroke="black"/>
<path d="M319.257,342.594v 4.62965" fill="none" stroke="black"/>
<path d="M331.85,342.594v 4.62965" fill="none" stroke="black"/>
<path d="M344.442,342.594v 4.62965" fill="none" stroke="black"/>
<path d="M357.034,337.964v 9.2593" fill="none" stroke="black"/>
<path d="M369.626,342.594v 4.62965" fill="none" stroke="black"/>
<path d="M382.219,342.594v 4.62965" fill="none" stroke="black"/>
<path d="M394.811,342.594v 4.62965" fill="none" stroke="black"/>
<path d="M407.403,342.594v 4.62965" fill="none" stroke="black"/>
<path d="M419.996,337.964v 9.2593" fill="none" stroke="black"/>
<path d="M432.588,342.594v 4.62965" fill="none" stroke="black"/>
<path d="M445.18,342.594v 4.62965" fill="none" stroke="black"/>
<path d="M457.772,342.594v 4.62965" fill="none" stroke="black"/>
<path d="M470.365,342.594v 4.62965" fill="none" stroke="black"/>
<path d="M482.957,337.964v 9.2593" fill="none" stroke="black"/>
<path d="M105.189,337.964v 9.2593" fill="none" stroke="black"/>
<path d="M92.5964,342.594v 4.62965" fill="none" stroke="black"/>
<path d="M80.0041,342.594v 4.62965" fill="none" stroke="black"/>
<path d="M67.4118,342.594v 4.62965" fill="none" stroke="black"/>
<path d="M482.957,337.964v 9.2593" fill="none" stroke="black"/>
<path d="M495.549,342.594v 4.62965" fill="none" stroke="black"/>
<path d="M508.142,342.594v 4.62965" fill="none" stroke="black"/>
<text xml:space="preserve" x="93.093" y="359.813" fill="black" font-size="12.8882" font-family="Helvetica">780</text>
<text xml:space="preserve" x="156.446" y="359.813" fill="black" font-size="12.8882" font-family="Helvetica">790</text>
<text xml:space="preserve" x="218.987" y="359.813" fill="black" font-size="12.8882" font-family="Helvetica">800</text>
<text xml:space="preserve" x="282.34" y="359.813" fill="black" font-size="12.8882" font-family="Helvetica">810</text>
<text xml:space="preserve" x="344.881" y="359.813" fill="black" font-size="12.8882" font-family="Helvetica">820</text>
<text xml:space="preserve" x="408.234" y="359.813" fill="black" font-size="12.8882" font-family="Helvetica">830</text>
<text xml:space="preserve" x="470.775" y="359.813" fill="black" font-size="12.8882" font-family="Helvetica">840</text>
<text xml:space="preserve" x="481.334" y="373.621" fill="black" font-size="12.8882" font-family="Helvetica">Time</text>
<path d="M57.1929,347.224v -308.643" fill="none" stroke="black"/>
<path d="M70.7992,347.224h -13.6063" fill="none" stroke="black"/>
<path d="M63.9961,336.535h -6.80315" fill="none" stroke="black"/>
<path d="M63.9961,325.846h -6.80315" fill="none" stroke="black"/>
<path d="M63.9961,315.157h -6.80315" fill="none" stroke="black"/>
<path d="M63.9961,304.468h -6.80315" fill="none" stroke="black"/>
<path d="M70.7992,293.779h -13.6063" fill="none" stroke="black"/>
<path d="M63.9961,283.09h -6.80315" fill="none" stroke="black"/>
<path d="M63.9961,272.401h -6.80315" fill="none" stroke="black"/>
<path d="M63.9961,261.712h -6.80315" fill="none" stroke="black"/>
<path d="M63.9961,251.023h -6.80315" fill="none" stroke="black"/>
<path d="M70.7992,240.334h -13.6063" fill="none" stroke="black"/>
<path d="M63.9961,229.645h -6.80315" fill="none" stroke="black"/>
<path d="M63.9961,218.956h -6.80315" fill="none" stroke="black"/>
<path d="M63.9961,208.267h -6.80315" fill="none" stroke="black"/>
<path d="M63.9961,197.579h -6.80315" fill="none" stroke="black"/>
<path d="M70.7992,186.89h -13.6063" fill="none" stroke="black"/>
<path d="M63.9961,176.201h -6.80315" fill="none" stroke="black"/>
<path d="M63.9961,165.512h -6.80315" fill="none" stroke="black"/>
<path d="M63.9961,154.823h -6.80315" fill="none" stroke="black"/>
<path d="M63.9961,144.134h -6.80315" fill="none" stroke="black"/>
<path d="M70.7992,133.445h -13.6063" fill="none" stroke="black"/>
<path d="M63.9961,122.756h -6.80315" fill="none" stroke="black"/>
<path d="M63.9961,112.067h -6.80315" fill="none" stroke="black"/>
<path d="M63.9961,101.378h -6.80315" fill="none" stroke="black"/>
<path d="M63.9961,90.689h -6.80315" fill="none" stroke="black"/>
<path d="M70.7992,80.0001h -13.6063" fill="none" stroke="black"/>
<path d="M70.7992,80.0001h -13.6063" fill="none" stroke="black"/>
<path d="M63.9961,69.3111h -6.80315" fill="none" stroke="black"/>
<path d="M63.9961,58.6222h -6.80315" fill="none" stroke="black"/>
<path d="M63.9961,47.9333h -6.80315" fill="none" stroke="black"/>
<text xml:space="preserve" x="46.7965" y="351.691" fill="black" font-size="12.8882" font-family="Helvetica">0</text>
<text xml:space="preserve" x="39.4865" y="298.085" fill="black" font-size="12.8882" font-family="Helvetica">10</text>
<text xml:space="preserve" x="39.4865" y="244.478" fill="black" font-size="12.8882" font-family="Helvetica">20</text>
<text xml:space="preserve" x="39.4865" y="191.684" fill="black" font-size="12.8882" font-family="Helvetica">30</text>
<text xml:space="preserve" x="39.4865" y="138.077" fill="black" font-size="12.8882" font-family="Helvetica">40</text>
<text xml:space="preserve" x="39.4865" y="84.4708" fill="black" font-size="12.8882" font-family="Helvetica">50</text>
<g transform="rotate(-90,28.9277,71.4753)">
<text xml:space="preserve" x="28.9277" y="71.4753" fill="black" font-size="12.8882" font-family="Helvetica">Event</text>
</g>
<text xml:space="preserve" x="248.227" y="18.681" fill="black" font-size="17.0471" font-family="Helvetica">420mm 5</text></svg>
