<?xml version="1.0" standalone="no"?>
<svg width="567.429" height="384.969" viewBox="0 0 567.429 384.969" xmlns="http://www.w3.org/2000/svg" shape-rendering="crispEdges">
<title>
img/week2/Combined140mm_ch_0_1_2_3.svg
</title>
<desc>
Creator: ROOT Version 6.22/09
CreationDate: Thu Jun 24 12:07:27 2021</desc>
<defs>
</defs>
<rect x="0.5" y="0" width="566.929" height="384.469" fill="white"/>
<rect x="57.1929" y="38.4469" width="453.543" height="307.575" fill="white"/>
<rect x="57.1929" y="38.4469" width="453.543" height="307.575" fill="none" stroke="black"/>
<rect x="57.1929" y="38.4469" width="453.543" height="307.575" fill="white"/>
<rect x="57.1929" y="38.4469" width="453.543" height="307.575" fill="none" stroke="black"/>
<path d="M57.1929,346.022h 90.7087v -1.5834h 30.2362v -7.917h 30.2362v -25.3344h 30.2362v -194.758h 30.2362v -63.336h 30.2362v 259.677h 30.2362v 33.2514h 181.417" fill="none" stroke="#000099"/>
<g fill="#ff0000">
<polygon points=" 279.729, 48.8577 288.2, 48.8577 283.965, 57.329"/>
</g>
<path d="M59.4606,346.022h 117.921l 4.53543, -0.0514202l 4.53543, -0.0722987l 4.53543, -0.160509l 4.53543, -0.33926l 4.53543, -0.682436l 4.53543, -1.30586l 4.53543, -2.37575l 4.53543, -4.10665l 4.53543, -6.73909l 4.53543, -10.488l 4.53543, -15.4591l
 4.53543, -21.5434l 4.53543, -28.3174l 4.53543, -34.991l 4.53543, -40.4486l 4.53543, -43.4125l 4.53543, -42.7158l 4.53543, -37.6278l 2.69851, -16.7384" fill="none" stroke="#ff0000" stroke-width="2"/>
<path d="M278.98,38.4469l 2.71655, 16.8791" fill="none" stroke="#ff0000" stroke-width="2"/>
<path d="M281.697,55.326l 4.53543, 37.6586l 4.53543, 42.7276l 4.53543, 43.407l 4.53543, 40.4301l 4.53543, 34.9647l 4.53543, 28.2886l 4.53543, 21.5161l 4.53543, 15.4358l 4.53543, 10.4698l 4.53543, 6.72586l 4.53543, 4.09769l 4.53543, 2.37005l 4.53543,
 1.30245l 4.53543, 0.680513l 4.53543, 0.338233l 4.53543, 0.159991l 4.53543, 0.0720502l 4.53543, 0.0512265h 136.063" fill="none" stroke="#ff0000" stroke-width="2"/>
<path d="M499.398,346.022h 9.07087" fill="none" stroke="#ff0000" stroke-width="2"/>
<path d="M57.1929,346.022h 453.543" fill="none" stroke="black"/>
<path d="M129.869,336.795v 9.22726" fill="none" stroke="black"/>
<path d="M144.98,341.409v 4.61363" fill="none" stroke="black"/>
<path d="M160.09,341.409v 4.61363" fill="none" stroke="black"/>
<path d="M175.201,341.409v 4.61363" fill="none" stroke="black"/>
<path d="M190.312,341.409v 4.61363" fill="none" stroke="black"/>
<path d="M205.423,336.795v 9.22726" fill="none" stroke="black"/>
<path d="M220.533,341.409v 4.61363" fill="none" stroke="black"/>
<path d="M235.644,341.409v 4.61363" fill="none" stroke="black"/>
<path d="M250.755,341.409v 4.61363" fill="none" stroke="black"/>
<path d="M265.866,341.409v 4.61363" fill="none" stroke="black"/>
<path d="M280.976,336.795v 9.22726" fill="none" stroke="black"/>
<path d="M296.087,341.409v 4.61363" fill="none" stroke="black"/>
<path d="M311.198,341.409v 4.61363" fill="none" stroke="black"/>
<path d="M326.309,341.409v 4.61363" fill="none" stroke="black"/>
<path d="M341.419,341.409v 4.61363" fill="none" stroke="black"/>
<path d="M356.53,336.795v 9.22726" fill="none" stroke="black"/>
<path d="M371.641,341.409v 4.61363" fill="none" stroke="black"/>
<path d="M386.751,341.409v 4.61363" fill="none" stroke="black"/>
<path d="M401.862,341.409v 4.61363" fill="none" stroke="black"/>
<path d="M416.973,341.409v 4.61363" fill="none" stroke="black"/>
<path d="M432.084,336.795v 9.22726" fill="none" stroke="black"/>
<path d="M447.194,341.409v 4.61363" fill="none" stroke="black"/>
<path d="M462.305,341.409v 4.61363" fill="none" stroke="black"/>
<path d="M477.416,341.409v 4.61363" fill="none" stroke="black"/>
<path d="M492.527,341.409v 4.61363" fill="none" stroke="black"/>
<path d="M507.637,336.795v 9.22726" fill="none" stroke="black"/>
<path d="M129.869,336.795v 9.22726" fill="none" stroke="black"/>
<path d="M114.758,341.409v 4.61363" fill="none" stroke="black"/>
<path d="M99.6476,341.409v 4.61363" fill="none" stroke="black"/>
<path d="M84.5368,341.409v 4.61363" fill="none" stroke="black"/>
<path d="M69.4261,341.409v 4.61363" fill="none" stroke="black"/>
<path d="M507.637,336.795v 9.22726" fill="none" stroke="black"/>
<text xml:space="preserve" x="118.61" y="358.403" fill="black" font-size="12.8453" font-family="Helvetica">790</text>
<text xml:space="preserve" x="194.364" y="358.403" fill="black" font-size="12.8453" font-family="Helvetica">800</text>
<text xml:space="preserve" x="270.117" y="358.403" fill="black" font-size="12.8453" font-family="Helvetica">810</text>
<text xml:space="preserve" x="345.871" y="358.403" fill="black" font-size="12.8453" font-family="Helvetica">820</text>
<text xml:space="preserve" x="420.81" y="358.403" fill="black" font-size="12.8453" font-family="Helvetica">830</text>
<text xml:space="preserve" x="496.563" y="358.403" fill="black" font-size="12.8453" font-family="Helvetica">840</text>
<text xml:space="preserve" x="460.723" y="370.622" fill="black" font-size="12.8453" font-family="Helvetica">Time [ps]</text>
<path d="M57.1929,346.022v -307.575" fill="none" stroke="black"/>
<path d="M70.7992,346.022h -13.6063" fill="none" stroke="black"/>
<path d="M63.9961,338.105h -6.80315" fill="none" stroke="black"/>
<path d="M63.9961,330.188h -6.80315" fill="none" stroke="black"/>
<path d="M63.9961,322.271h -6.80315" fill="none" stroke="black"/>
<path d="M70.7992,314.354h -13.6063" fill="none" stroke="black"/>
<path d="M63.9961,306.437h -6.80315" fill="none" stroke="black"/>
<path d="M63.9961,298.52h -6.80315" fill="none" stroke="black"/>
<path d="M63.9961,290.603h -6.80315" fill="none" stroke="black"/>
<path d="M70.7992,282.686h -13.6063" fill="none" stroke="black"/>
<path d="M63.9961,274.769h -6.80315" fill="none" stroke="black"/>
<path d="M63.9961,266.852h -6.80315" fill="none" stroke="black"/>
<path d="M63.9961,258.935h -6.80315" fill="none" stroke="black"/>
<path d="M70.7992,251.018h -13.6063" fill="none" stroke="black"/>
<path d="M63.9961,243.101h -6.80315" fill="none" stroke="black"/>
<path d="M63.9961,235.184h -6.80315" fill="none" stroke="black"/>
<path d="M63.9961,227.267h -6.80315" fill="none" stroke="black"/>
<path d="M70.7992,219.35h -13.6063" fill="none" stroke="black"/>
<path d="M63.9961,211.433h -6.80315" fill="none" stroke="black"/>
<path d="M63.9961,203.516h -6.80315" fill="none" stroke="black"/>
<path d="M63.9961,195.599h -6.80315" fill="none" stroke="black"/>
<path d="M70.7992,187.682h -13.6063" fill="none" stroke="black"/>
<path d="M63.9961,179.765h -6.80315" fill="none" stroke="black"/>
<path d="M63.9961,171.848h -6.80315" fill="none" stroke="black"/>
<path d="M63.9961,163.931h -6.80315" fill="none" stroke="black"/>
<path d="M70.7992,156.014h -13.6063" fill="none" stroke="black"/>
<path d="M63.9961,148.097h -6.80315" fill="none" stroke="black"/>
<path d="M63.9961,140.18h -6.80315" fill="none" stroke="black"/>
<path d="M63.9961,132.263h -6.80315" fill="none" stroke="black"/>
<path d="M70.7992,124.346h -13.6063" fill="none" stroke="black"/>
<path d="M63.9961,116.429h -6.80315" fill="none" stroke="black"/>
<path d="M63.9961,108.512h -6.80315" fill="none" stroke="black"/>
<path d="M63.9961,100.595h -6.80315" fill="none" stroke="black"/>
<path d="M70.7992,92.6784h -13.6063" fill="none" stroke="black"/>
<path d="M63.9961,84.7614h -6.80315" fill="none" stroke="black"/>
<path d="M63.9961,76.8444h -6.80315" fill="none" stroke="black"/>
<path d="M63.9961,68.9274h -6.80315" fill="none" stroke="black"/>
<path d="M70.7992,61.0104h -13.6063" fill="none" stroke="black"/>
<path d="M70.7992,61.0104h -13.6063" fill="none" stroke="black"/>
<path d="M63.9961,53.0934h -6.80315" fill="none" stroke="black"/>
<path d="M63.9961,45.1764h -6.80315" fill="none" stroke="black"/>
<text xml:space="preserve" x="47.7441" y="350.258" fill="black" font-size="12.8453" font-family="Helvetica">0</text>
<text xml:space="preserve" x="41.2277" y="318.49" fill="black" font-size="12.8453" font-family="Helvetica">20</text>
<text xml:space="preserve" x="41.2277" y="287.537" fill="black" font-size="12.8453" font-family="Helvetica">40</text>
<text xml:space="preserve" x="41.2277" y="255.77" fill="black" font-size="12.8453" font-family="Helvetica">60</text>
<text xml:space="preserve" x="41.2277" y="224.002" fill="black" font-size="12.8453" font-family="Helvetica">80</text>
<text xml:space="preserve" x="33.8967" y="192.235" fill="black" font-size="12.8453" font-family="Helvetica">100</text>
<text xml:space="preserve" x="33.8967" y="160.467" fill="black" font-size="12.8453" font-family="Helvetica">120</text>
<text xml:space="preserve" x="33.8967" y="128.699" fill="black" font-size="12.8453" font-family="Helvetica">140</text>
<text xml:space="preserve" x="33.8967" y="96.9318" fill="black" font-size="12.8453" font-family="Helvetica">160</text>
<text xml:space="preserve" x="33.8967" y="65.1643" fill="black" font-size="12.8453" font-family="Helvetica">180</text>
<g transform="rotate(-90,20.8638,70.0516)">
<text xml:space="preserve" x="20.8638" y="70.0516" fill="black" font-size="12.8453" font-family="Helvetica">Event</text>
</g>
<text xml:space="preserve" x="226.946" y="18.7347" fill="black" font-size="16.9898" font-family="Helvetica">140mm 0 1 2 3</text></svg>
