<?xml version="1.0" standalone="no"?>
<svg width="567.429" height="386.304" viewBox="0 0 567.429 386.304" xmlns="http://www.w3.org/2000/svg" shape-rendering="crispEdges">
<title>
img/week2/Combined0mm_ch_39_38_37_36.svg
</title>
<desc>
Creator: ROOT Version 6.22/08
CreationDate: Mon Jun 21 18:18:42 2021</desc>
<defs>
</defs>
<rect x="0.5" y="0" width="566.929" height="385.804" fill="white"/>
<rect x="57.1929" y="38.5804" width="453.543" height="308.643" fill="white"/>
<rect x="57.1929" y="38.5804" width="453.543" height="308.643" fill="none" stroke="black"/>
<rect x="57.1929" y="38.5804" width="453.543" height="308.643" fill="white"/>
<rect x="57.1929" y="38.5804" width="453.543" height="308.643" fill="none" stroke="black"/>
<path d="M57.1929,346.481h 30.2362v 0.743268h 30.2362v -0.743268h 60.4724v -2.97307h 30.2362v -5.20288h 30.2362v -50.5422h 30.2362v -226.697h 30.2362v 111.49h 30.2362v 167.235h 30.2362v 7.43268h 151.181" fill="none" stroke="#000099"/>
<g fill="#ff0000">
<polygon points=" 279.741, 56.842 288.188, 56.842 283.965, 65.2891"/>
</g>
<path d="M59.4606,347.224h 140.598l 4.53543, -0.0407706l 4.53543, -0.0609357l 4.53543, -0.139811l 4.53543, -0.304429l 4.53543, -0.62882l 4.53543, -1.23155l 4.53543, -2.28565l 4.53543, -4.01681l 4.53543, -6.67842l 4.53543, -10.4927l 4.53543, -15.5549l
 4.53543, -21.7144l 4.53543, -28.4667l 4.53543, -34.9085l 4.53543, -39.8084l 4.53543, -41.8198l 4.53543, -39.8099l 4.53543, -33.2213" fill="none" stroke="#ff0000" stroke-width="2"/>
<path d="M281.697,66.0399l 4.53543, -22.3415l 2.77549, -5.11804" fill="none" stroke="#ff0000" stroke-width="2"/>
<path d="M292.927,38.5804l 2.37565, 3.56974" fill="none" stroke="#ff0000" stroke-width="2"/>
<path d="M295.303,42.1502l 4.53543, 21.0138l 4.53543, 32.2833l 4.53543, 39.3441l 4.53543, 41.8137l 4.53543, 40.1721l 4.53543, 35.5088l 4.53543, 29.1651l 4.53543, 22.3964l 4.53543, 16.1456l 4.53543, 10.9578l 4.53543, 7.01588l 4.53543, 4.24426l
 4.53543, 2.42883l 4.53543, 1.31605l 4.53543, 0.675685l 4.53543, 0.328912l 4.53543, 0.151877l 4.53543, 0.0665522l 4.53543, 0.0449088h 126.992" fill="none" stroke="#ff0000" stroke-width="2"/>
<rect x="351.996" y="25.0773" width="204.094" height="108.025" fill="white"/>
<path d="M351.996,133.102h 204.094" fill="none" stroke="black"/>
<path d="M556.091,133.102v -108.025" fill="none" stroke="black"/>
<path d="M556.091,25.0773h -204.094" fill="none" stroke="black"/>
<path d="M351.996,25.0773v 108.025" fill="none" stroke="black"/>
<text xml:space="preserve" x="361.938" y="38.9865" fill="black" font-size="15.6962" font-family="Helvetica">Entries </text>
<text xml:space="preserve" x="515.447" y="38.9865" fill="black" font-size="15.6962" font-family="Helvetica"> 737</text>
<text xml:space="preserve" x="375.745" y="57.6676" fill="black" font-size="15.6962" font-family="Helvetica"> / ndf </text>
<text xml:space="preserve" x="370.06" y="52.7943" fill="black" font-size="10.6308" font-family="Helvetica">2</text>
<text xml:space="preserve" x="361.938" y="57.6676" fill="black" font-size="15.6962" font-family="Times">&#0967;</text>
<text xml:space="preserve" x="481.334" y="57.6676" fill="black" font-size="15.6962" font-family="Helvetica"> 19.29 / 6</text>
<text xml:space="preserve" x="361.938" y="75.5364" fill="black" font-size="15.6962" font-family="Helvetica">Prob  </text>
<text xml:space="preserve" x="477.273" y="75.5364" fill="black" font-size="15.6962" font-family="Helvetica"> 0.003706</text>
<text xml:space="preserve" x="361.938" y="94.2175" fill="black" font-size="15.6962" font-family="Helvetica">Const    </text>
<text xml:space="preserve" x="511.386" y="93.4052" fill="black" font-size="15.6962" font-family="Helvetica"> 19.4</text>
<text xml:space="preserve" x="502.452" y="93.4052" fill="black" font-size="15.6962" font-family="Times">&#0177;</text>
<text xml:space="preserve" x="454.531" y="93.4052" fill="black" font-size="15.6962" font-family="Helvetica"> 419.6 </text>
<text xml:space="preserve" x="361.938" y="111.274" fill="black" font-size="15.6962" font-family="Helvetica">Mean     </text>
<text xml:space="preserve" x="522.757" y="111.274" fill="black" font-size="15.6962" font-family="Helvetica"> 0.1</text>
<text xml:space="preserve" x="513.823" y="111.274" fill="black" font-size="15.6962" font-family="Times">&#0177;</text>
<text xml:space="preserve" x="466.714" y="111.274" fill="black" font-size="15.6962" font-family="Helvetica"> 811.3 </text>
<text xml:space="preserve" x="361.938" y="128.331" fill="black" font-size="15.6962" font-family="Helvetica">Sigma    </text>
<text xml:space="preserve" x="503.264" y="129.143" fill="black" font-size="15.6962" font-family="Helvetica"> 0.073</text>
<text xml:space="preserve" x="494.329" y="129.143" fill="black" font-size="15.6962" font-family="Times">&#0177;</text>
<text xml:space="preserve" x="446.408" y="129.143" fill="black" font-size="15.6962" font-family="Helvetica"> 2.704 </text>
<path d="M57.1929,347.224h 453.543" fill="none" stroke="black"/>
<path d="M129.869,337.964v 9.2593" fill="none" stroke="black"/>
<path d="M144.98,342.594v 4.62965" fill="none" stroke="black"/>
<path d="M160.09,342.594v 4.62965" fill="none" stroke="black"/>
<path d="M175.201,342.594v 4.62965" fill="none" stroke="black"/>
<path d="M190.312,342.594v 4.62965" fill="none" stroke="black"/>
<path d="M205.423,337.964v 9.2593" fill="none" stroke="black"/>
<path d="M220.533,342.594v 4.62965" fill="none" stroke="black"/>
<path d="M235.644,342.594v 4.62965" fill="none" stroke="black"/>
<path d="M250.755,342.594v 4.62965" fill="none" stroke="black"/>
<path d="M265.866,342.594v 4.62965" fill="none" stroke="black"/>
<path d="M280.976,337.964v 9.2593" fill="none" stroke="black"/>
<path d="M296.087,342.594v 4.62965" fill="none" stroke="black"/>
<path d="M311.198,342.594v 4.62965" fill="none" stroke="black"/>
<path d="M326.309,342.594v 4.62965" fill="none" stroke="black"/>
<path d="M341.419,342.594v 4.62965" fill="none" stroke="black"/>
<path d="M356.53,337.964v 9.2593" fill="none" stroke="black"/>
<path d="M371.641,342.594v 4.62965" fill="none" stroke="black"/>
<path d="M386.751,342.594v 4.62965" fill="none" stroke="black"/>
<path d="M401.862,342.594v 4.62965" fill="none" stroke="black"/>
<path d="M416.973,342.594v 4.62965" fill="none" stroke="black"/>
<path d="M432.084,337.964v 9.2593" fill="none" stroke="black"/>
<path d="M447.194,342.594v 4.62965" fill="none" stroke="black"/>
<path d="M462.305,342.594v 4.62965" fill="none" stroke="black"/>
<path d="M477.416,342.594v 4.62965" fill="none" stroke="black"/>
<path d="M492.527,342.594v 4.62965" fill="none" stroke="black"/>
<path d="M507.637,337.964v 9.2593" fill="none" stroke="black"/>
<path d="M129.869,337.964v 9.2593" fill="none" stroke="black"/>
<path d="M114.758,342.594v 4.62965" fill="none" stroke="black"/>
<path d="M99.6476,342.594v 4.62965" fill="none" stroke="black"/>
<path d="M84.5368,342.594v 4.62965" fill="none" stroke="black"/>
<path d="M69.4261,342.594v 4.62965" fill="none" stroke="black"/>
<path d="M507.637,337.964v 9.2593" fill="none" stroke="black"/>
<text xml:space="preserve" x="118.272" y="359.813" fill="black" font-size="12.8882" font-family="Helvetica">790</text>
<text xml:space="preserve" x="193.808" y="359.813" fill="black" font-size="12.8882" font-family="Helvetica">800</text>
<text xml:space="preserve" x="269.345" y="359.813" fill="black" font-size="12.8882" font-family="Helvetica">810</text>
<text xml:space="preserve" x="344.881" y="359.813" fill="black" font-size="12.8882" font-family="Helvetica">820</text>
<text xml:space="preserve" x="420.417" y="359.813" fill="black" font-size="12.8882" font-family="Helvetica">830</text>
<text xml:space="preserve" x="495.954" y="359.813" fill="black" font-size="12.8882" font-family="Helvetica">840</text>
<text xml:space="preserve" x="481.334" y="373.621" fill="black" font-size="12.8882" font-family="Helvetica">Time</text>
<path d="M57.1929,347.224v -308.643" fill="none" stroke="black"/>
<path d="M70.7992,347.224h -13.6063" fill="none" stroke="black"/>
<path d="M63.9961,339.791h -6.80315" fill="none" stroke="black"/>
<path d="M63.9961,332.358h -6.80315" fill="none" stroke="black"/>
<path d="M63.9961,324.926h -6.80315" fill="none" stroke="black"/>
<path d="M63.9961,317.493h -6.80315" fill="none" stroke="black"/>
<path d="M70.7992,310.06h -13.6063" fill="none" stroke="black"/>
<path d="M63.9961,302.628h -6.80315" fill="none" stroke="black"/>
<path d="M63.9961,295.195h -6.80315" fill="none" stroke="black"/>
<path d="M63.9961,287.762h -6.80315" fill="none" stroke="black"/>
<path d="M63.9961,280.33h -6.80315" fill="none" stroke="black"/>
<path d="M70.7992,272.897h -13.6063" fill="none" stroke="black"/>
<path d="M63.9961,265.464h -6.80315" fill="none" stroke="black"/>
<path d="M63.9961,258.032h -6.80315" fill="none" stroke="black"/>
<path d="M63.9961,250.599h -6.80315" fill="none" stroke="black"/>
<path d="M63.9961,243.166h -6.80315" fill="none" stroke="black"/>
<path d="M70.7992,235.734h -13.6063" fill="none" stroke="black"/>
<path d="M63.9961,228.301h -6.80315" fill="none" stroke="black"/>
<path d="M63.9961,220.868h -6.80315" fill="none" stroke="black"/>
<path d="M63.9961,213.436h -6.80315" fill="none" stroke="black"/>
<path d="M63.9961,206.003h -6.80315" fill="none" stroke="black"/>
<path d="M70.7992,198.57h -13.6063" fill="none" stroke="black"/>
<path d="M63.9961,191.137h -6.80315" fill="none" stroke="black"/>
<path d="M63.9961,183.705h -6.80315" fill="none" stroke="black"/>
<path d="M63.9961,176.272h -6.80315" fill="none" stroke="black"/>
<path d="M63.9961,168.839h -6.80315" fill="none" stroke="black"/>
<path d="M70.7992,161.407h -13.6063" fill="none" stroke="black"/>
<path d="M63.9961,153.974h -6.80315" fill="none" stroke="black"/>
<path d="M63.9961,146.541h -6.80315" fill="none" stroke="black"/>
<path d="M63.9961,139.109h -6.80315" fill="none" stroke="black"/>
<path d="M63.9961,131.676h -6.80315" fill="none" stroke="black"/>
<path d="M70.7992,124.243h -13.6063" fill="none" stroke="black"/>
<path d="M63.9961,116.811h -6.80315" fill="none" stroke="black"/>
<path d="M63.9961,109.378h -6.80315" fill="none" stroke="black"/>
<path d="M63.9961,101.945h -6.80315" fill="none" stroke="black"/>
<path d="M63.9961,94.5126h -6.80315" fill="none" stroke="black"/>
<path d="M70.7992,87.0799h -13.6063" fill="none" stroke="black"/>
<path d="M63.9961,79.6472h -6.80315" fill="none" stroke="black"/>
<path d="M63.9961,72.2145h -6.80315" fill="none" stroke="black"/>
<path d="M63.9961,64.7819h -6.80315" fill="none" stroke="black"/>
<path d="M63.9961,57.3492h -6.80315" fill="none" stroke="black"/>
<path d="M70.7992,49.9165h -13.6063" fill="none" stroke="black"/>
<path d="M70.7992,49.9165h -13.6063" fill="none" stroke="black"/>
<path d="M63.9961,42.4838h -6.80315" fill="none" stroke="black"/>
<text xml:space="preserve" x="46.7965" y="351.691" fill="black" font-size="12.8882" font-family="Helvetica">0</text>
<text xml:space="preserve" x="39.4865" y="314.329" fill="black" font-size="12.8882" font-family="Helvetica">50</text>
<text xml:space="preserve" x="32.1766" y="276.967" fill="black" font-size="12.8882" font-family="Helvetica">100</text>
<text xml:space="preserve" x="32.1766" y="240.417" fill="black" font-size="12.8882" font-family="Helvetica">150</text>
<text xml:space="preserve" x="32.1766" y="203.055" fill="black" font-size="12.8882" font-family="Helvetica">200</text>
<text xml:space="preserve" x="32.1766" y="165.693" fill="black" font-size="12.8882" font-family="Helvetica">250</text>
<text xml:space="preserve" x="32.1766" y="128.331" fill="black" font-size="12.8882" font-family="Helvetica">300</text>
<text xml:space="preserve" x="32.1766" y="91.7808" fill="black" font-size="12.8882" font-family="Helvetica">350</text>
<text xml:space="preserve" x="32.1766" y="54.4187" fill="black" font-size="12.8882" font-family="Helvetica">400</text>
<g transform="rotate(-90,21.6177,71.4753)">
<text xml:space="preserve" x="21.6177" y="71.4753" fill="black" font-size="12.8882" font-family="Helvetica">Event</text>
</g>
<rect x="351.996" y="25.0773" width="204.094" height="108.025" fill="white"/>
<path d="M351.996,133.102h 204.094" fill="none" stroke="black"/>
<path d="M556.091,133.102v -108.025" fill="none" stroke="black"/>
<path d="M556.091,25.0773h -204.094" fill="none" stroke="black"/>
<path d="M351.996,25.0773v 108.025" fill="none" stroke="black"/>
<text xml:space="preserve" x="361.938" y="38.9865" fill="black" font-size="15.6962" font-family="Helvetica">Entries </text>
<text xml:space="preserve" x="515.447" y="38.9865" fill="black" font-size="15.6962" font-family="Helvetica"> 737</text>
<text xml:space="preserve" x="375.745" y="57.6676" fill="black" font-size="15.6962" font-family="Helvetica"> / ndf </text>
<text xml:space="preserve" x="370.06" y="52.7943" fill="black" font-size="10.6308" font-family="Helvetica">2</text>
<text xml:space="preserve" x="361.938" y="57.6676" fill="black" font-size="15.6962" font-family="Times">&#0967;</text>
<text xml:space="preserve" x="481.334" y="57.6676" fill="black" font-size="15.6962" font-family="Helvetica"> 19.29 / 6</text>
<text xml:space="preserve" x="361.938" y="75.5364" fill="black" font-size="15.6962" font-family="Helvetica">Prob  </text>
<text xml:space="preserve" x="477.273" y="75.5364" fill="black" font-size="15.6962" font-family="Helvetica"> 0.003706</text>
<text xml:space="preserve" x="361.938" y="94.2175" fill="black" font-size="15.6962" font-family="Helvetica">Const    </text>
<text xml:space="preserve" x="511.386" y="93.4052" fill="black" font-size="15.6962" font-family="Helvetica"> 19.4</text>
<text xml:space="preserve" x="502.452" y="93.4052" fill="black" font-size="15.6962" font-family="Times">&#0177;</text>
<text xml:space="preserve" x="454.531" y="93.4052" fill="black" font-size="15.6962" font-family="Helvetica"> 419.6 </text>
<text xml:space="preserve" x="361.938" y="111.274" fill="black" font-size="15.6962" font-family="Helvetica">Mean     </text>
<text xml:space="preserve" x="522.757" y="111.274" fill="black" font-size="15.6962" font-family="Helvetica"> 0.1</text>
<text xml:space="preserve" x="513.823" y="111.274" fill="black" font-size="15.6962" font-family="Times">&#0177;</text>
<text xml:space="preserve" x="466.714" y="111.274" fill="black" font-size="15.6962" font-family="Helvetica"> 811.3 </text>
<text xml:space="preserve" x="361.938" y="128.331" fill="black" font-size="15.6962" font-family="Helvetica">Sigma    </text>
<text xml:space="preserve" x="503.264" y="129.143" fill="black" font-size="15.6962" font-family="Helvetica"> 0.073</text>
<text xml:space="preserve" x="494.329" y="129.143" fill="black" font-size="15.6962" font-family="Times">&#0177;</text>
<text xml:space="preserve" x="446.408" y="129.143" fill="black" font-size="15.6962" font-family="Helvetica"> 2.704 </text>
<text xml:space="preserve" x="217.363" y="18.681" fill="black" font-size="17.0471" font-family="Helvetica">0mm 39 38 37 36</text></svg>
