<?xml version="1.0" standalone="no"?>
<svg width="567.429" height="386.304" viewBox="0 0 567.429 386.304" xmlns="http://www.w3.org/2000/svg" shape-rendering="crispEdges">
<title>
img/week2/Combined420mm_ch_13.svg
</title>
<desc>
Creator: ROOT Version 6.22/08
CreationDate: Mon Jun 21 21:32:59 2021</desc>
<defs>
</defs>
<rect x="0.5" y="0" width="566.929" height="385.804" fill="white"/>
<rect x="57.1929" y="38.5804" width="453.543" height="308.643" fill="white"/>
<rect x="57.1929" y="38.5804" width="453.543" height="308.643" fill="none" stroke="black"/>
<rect x="57.1929" y="38.5804" width="453.543" height="308.643" fill="white"/>
<rect x="57.1929" y="38.5804" width="453.543" height="308.643" fill="none" stroke="black"/>
<path d="M57.1929,347.224h 113.386v -15.6252h 28.3465v 11.7189h 28.3465v -109.376h 28.3465v -171.877h 28.3465v 140.627h 28.3465v 132.814h 28.3465v 11.7189h 170.079" fill="none" stroke="#000099"/>
<g fill="#ff0000">
<polygon points=" 265.568, 57.8409 274.015, 57.8409 269.791, 66.288"/>
</g>
<path d="M59.4606,347.224h 117.921l 4.53543, -0.0345231l 4.53543, -0.0491772l 4.53543, -0.110192l 4.53543, -0.235257l 4.53543, -0.478403l 4.53543, -0.926242l 4.53543, -1.70655l 4.53543, -2.99029l 4.53543, -4.97951l 4.53543, -7.87289l 4.53543,
 -11.8043l 4.53543, -16.7584l 4.53543, -22.481l 4.53543, -28.415l 4.53543, -33.7018l 4.53543, -37.2779l 4.53543, -38.0725l 4.53543, -35.2742l 4.53543, -28.5927l 4.53543, -18.4292l 4.53543, -5.87947l 4.53543, 7.45356l 4.53543, 19.7954" fill="none"
 stroke="#ff0000" stroke-width="2"/>
<path d="M281.697,78.4033l 4.53543, 29.5881l 4.53543, 35.8127l 4.53543, 38.1545l 4.53543, 36.9774l 4.53543, 33.1387l 4.53543, 27.7212l 4.53543, 21.7727l 4.53543, 16.1189l 4.53543, 11.279l 4.53543, 7.47447l 4.53543, 4.69807l 4.53543, 2.80405l 4.53543,
 1.59064l 4.53543, 0.858211l 4.53543, 0.440663l 4.53543, 0.215438l 4.53543, 0.100326l 4.53543, 0.0445177l 4.53543, 0.0309646h 136.063" fill="none" stroke="#ff0000" stroke-width="2"/>
<path d="M503.933,347.224h 4.53543" fill="none" stroke="#ff0000" stroke-width="2"/>
<path d="M57.1929,347.224h 453.543" fill="none" stroke="black"/>
<path d="M82.8417,337.964v 9.2593" fill="none" stroke="black"/>
<path d="M97.008,342.594v 4.62965" fill="none" stroke="black"/>
<path d="M111.174,342.594v 4.62965" fill="none" stroke="black"/>
<path d="M125.341,342.594v 4.62965" fill="none" stroke="black"/>
<path d="M139.507,342.594v 4.62965" fill="none" stroke="black"/>
<path d="M153.673,337.964v 9.2593" fill="none" stroke="black"/>
<path d="M167.84,342.594v 4.62965" fill="none" stroke="black"/>
<path d="M182.006,342.594v 4.62965" fill="none" stroke="black"/>
<path d="M196.172,342.594v 4.62965" fill="none" stroke="black"/>
<path d="M210.338,342.594v 4.62965" fill="none" stroke="black"/>
<path d="M224.505,337.964v 9.2593" fill="none" stroke="black"/>
<path d="M238.671,342.594v 4.62965" fill="none" stroke="black"/>
<path d="M252.837,342.594v 4.62965" fill="none" stroke="black"/>
<path d="M267.004,342.594v 4.62965" fill="none" stroke="black"/>
<path d="M281.17,342.594v 4.62965" fill="none" stroke="black"/>
<path d="M295.336,337.964v 9.2593" fill="none" stroke="black"/>
<path d="M309.503,342.594v 4.62965" fill="none" stroke="black"/>
<path d="M323.669,342.594v 4.62965" fill="none" stroke="black"/>
<path d="M337.835,342.594v 4.62965" fill="none" stroke="black"/>
<path d="M352.002,342.594v 4.62965" fill="none" stroke="black"/>
<path d="M366.168,337.964v 9.2593" fill="none" stroke="black"/>
<path d="M380.334,342.594v 4.62965" fill="none" stroke="black"/>
<path d="M394.501,342.594v 4.62965" fill="none" stroke="black"/>
<path d="M408.667,342.594v 4.62965" fill="none" stroke="black"/>
<path d="M422.833,342.594v 4.62965" fill="none" stroke="black"/>
<path d="M436.999,337.964v 9.2593" fill="none" stroke="black"/>
<path d="M451.166,342.594v 4.62965" fill="none" stroke="black"/>
<path d="M465.332,342.594v 4.62965" fill="none" stroke="black"/>
<path d="M479.498,342.594v 4.62965" fill="none" stroke="black"/>
<path d="M493.665,342.594v 4.62965" fill="none" stroke="black"/>
<path d="M507.831,337.964v 9.2593" fill="none" stroke="black"/>
<path d="M82.8417,337.964v 9.2593" fill="none" stroke="black"/>
<path d="M68.6754,342.594v 4.62965" fill="none" stroke="black"/>
<path d="M507.831,337.964v 9.2593" fill="none" stroke="black"/>
<text xml:space="preserve" x="71.1631" y="359.813" fill="black" font-size="12.8882" font-family="Helvetica">780</text>
<text xml:space="preserve" x="141.826" y="359.813" fill="black" font-size="12.8882" font-family="Helvetica">790</text>
<text xml:space="preserve" x="212.489" y="359.813" fill="black" font-size="12.8882" font-family="Helvetica">800</text>
<text xml:space="preserve" x="283.965" y="359.813" fill="black" font-size="12.8882" font-family="Helvetica">810</text>
<text xml:space="preserve" x="354.628" y="359.813" fill="black" font-size="12.8882" font-family="Helvetica">820</text>
<text xml:space="preserve" x="425.291" y="359.813" fill="black" font-size="12.8882" font-family="Helvetica">830</text>
<text xml:space="preserve" x="495.954" y="359.813" fill="black" font-size="12.8882" font-family="Helvetica">840</text>
<text xml:space="preserve" x="481.334" y="373.621" fill="black" font-size="12.8882" font-family="Helvetica">Time</text>
<path d="M57.1929,347.224v -308.643" fill="none" stroke="black"/>
<path d="M70.7992,347.224h -13.6063" fill="none" stroke="black"/>
<path d="M63.9961,339.411h -6.80315" fill="none" stroke="black"/>
<path d="M63.9961,331.599h -6.80315" fill="none" stroke="black"/>
<path d="M63.9961,323.786h -6.80315" fill="none" stroke="black"/>
<path d="M63.9961,315.973h -6.80315" fill="none" stroke="black"/>
<path d="M70.7992,308.161h -13.6063" fill="none" stroke="black"/>
<path d="M63.9961,300.348h -6.80315" fill="none" stroke="black"/>
<path d="M63.9961,292.536h -6.80315" fill="none" stroke="black"/>
<path d="M63.9961,284.723h -6.80315" fill="none" stroke="black"/>
<path d="M63.9961,276.911h -6.80315" fill="none" stroke="black"/>
<path d="M70.7992,269.098h -13.6063" fill="none" stroke="black"/>
<path d="M63.9961,261.285h -6.80315" fill="none" stroke="black"/>
<path d="M63.9961,253.473h -6.80315" fill="none" stroke="black"/>
<path d="M63.9961,245.66h -6.80315" fill="none" stroke="black"/>
<path d="M63.9961,237.848h -6.80315" fill="none" stroke="black"/>
<path d="M70.7992,230.035h -13.6063" fill="none" stroke="black"/>
<path d="M63.9961,222.222h -6.80315" fill="none" stroke="black"/>
<path d="M63.9961,214.41h -6.80315" fill="none" stroke="black"/>
<path d="M63.9961,206.597h -6.80315" fill="none" stroke="black"/>
<path d="M63.9961,198.785h -6.80315" fill="none" stroke="black"/>
<path d="M70.7992,190.972h -13.6063" fill="none" stroke="black"/>
<path d="M63.9961,183.16h -6.80315" fill="none" stroke="black"/>
<path d="M63.9961,175.347h -6.80315" fill="none" stroke="black"/>
<path d="M63.9961,167.534h -6.80315" fill="none" stroke="black"/>
<path d="M63.9961,159.722h -6.80315" fill="none" stroke="black"/>
<path d="M70.7992,151.909h -13.6063" fill="none" stroke="black"/>
<path d="M63.9961,144.097h -6.80315" fill="none" stroke="black"/>
<path d="M63.9961,136.284h -6.80315" fill="none" stroke="black"/>
<path d="M63.9961,128.471h -6.80315" fill="none" stroke="black"/>
<path d="M63.9961,120.659h -6.80315" fill="none" stroke="black"/>
<path d="M70.7992,112.846h -13.6063" fill="none" stroke="black"/>
<path d="M63.9961,105.034h -6.80315" fill="none" stroke="black"/>
<path d="M63.9961,97.2211h -6.80315" fill="none" stroke="black"/>
<path d="M63.9961,89.4085h -6.80315" fill="none" stroke="black"/>
<path d="M63.9961,81.5959h -6.80315" fill="none" stroke="black"/>
<path d="M70.7992,73.7833h -13.6063" fill="none" stroke="black"/>
<path d="M70.7992,73.7833h -13.6063" fill="none" stroke="black"/>
<path d="M63.9961,65.9707h -6.80315" fill="none" stroke="black"/>
<path d="M63.9961,58.1581h -6.80315" fill="none" stroke="black"/>
<path d="M63.9961,50.3456h -6.80315" fill="none" stroke="black"/>
<path d="M63.9961,42.533h -6.80315" fill="none" stroke="black"/>
<text xml:space="preserve" x="46.7965" y="351.691" fill="black" font-size="12.8882" font-family="Helvetica">0</text>
<text xml:space="preserve" x="39.4865" y="312.704" fill="black" font-size="12.8882" font-family="Helvetica">10</text>
<text xml:space="preserve" x="39.4865" y="273.718" fill="black" font-size="12.8882" font-family="Helvetica">20</text>
<text xml:space="preserve" x="39.4865" y="234.731" fill="black" font-size="12.8882" font-family="Helvetica">30</text>
<text xml:space="preserve" x="39.4865" y="195.745" fill="black" font-size="12.8882" font-family="Helvetica">40</text>
<text xml:space="preserve" x="39.4865" y="156.758" fill="black" font-size="12.8882" font-family="Helvetica">50</text>
<text xml:space="preserve" x="39.4865" y="116.96" fill="black" font-size="12.8882" font-family="Helvetica">60</text>
<text xml:space="preserve" x="39.4865" y="77.9731" fill="black" font-size="12.8882" font-family="Helvetica">70</text>
<g transform="rotate(-90,28.9277,71.4753)">
<text xml:space="preserve" x="28.9277" y="71.4753" fill="black" font-size="12.8882" font-family="Helvetica">Event</text>
</g>
<text xml:space="preserve" x="243.354" y="18.681" fill="black" font-size="17.0471" font-family="Helvetica">420mm 13</text></svg>
