<?xml version="1.0" standalone="no"?>
<svg width="567.429" height="386.304" viewBox="0 0 567.429 386.304" xmlns="http://www.w3.org/2000/svg" shape-rendering="crispEdges">
<title>
img/week2/Combined0mm_ch_44_45_46_47.svg
</title>
<desc>
Creator: ROOT Version 6.22/08
CreationDate: Mon Jun 21 21:40:00 2021</desc>
<defs>
</defs>
<rect x="0.5" y="0" width="566.929" height="385.804" fill="white"/>
<rect x="57.1929" y="38.5804" width="453.543" height="308.643" fill="white"/>
<rect x="57.1929" y="38.5804" width="453.543" height="308.643" fill="none" stroke="black"/>
<rect x="57.1929" y="38.5804" width="453.543" height="308.643" fill="white"/>
<rect x="57.1929" y="38.5804" width="453.543" height="308.643" fill="none" stroke="black"/>
<path d="M57.1929,347.224h 64.7919v -0.996427h 64.7919v -2.98928h 32.396v -17.9357h 32.396v -124.553h 32.396v -147.471h 32.396v 255.085h 32.396v 38.8607h 161.98" fill="none" stroke="#000099"/>
<g fill="#ff0000">
<polygon points=" 295.939, 49.0542 304.386, 49.0542 300.163, 57.5013"/>
</g>
<path d="M59.4606,347.224h 140.598l 4.53543, -0.057493l 4.53543, -0.0801289l 4.53543, -0.176721l 4.53543, -0.370772l 4.53543, -0.739726l 4.53543, -1.40272l 4.53543, -2.52673l 4.53543, -4.32035l 4.53543, -7.00594l 4.53543, -10.7624l 4.53543, -15.6389l
 4.53543, -21.4539l 4.53543, -27.7108l 4.53543, -33.5715l 4.53543, -37.9312l 4.53543, -39.6077l 4.53543, -37.6237l 4.53543, -31.5081" fill="none" stroke="#ff0000" stroke-width="2"/>
<path d="M281.697,74.735l 4.53543, -21.5187l 4.53543, -8.69187l 4.53543, 5.32196l 4.53543, 18.6063l 4.53543, 29.4087l 4.53543, 36.5203l 4.53543, 39.4907l 4.53543, 38.6288l 4.53543, 34.8154l 4.53543, 29.2109l 4.53543, 22.961l 4.53543, 16.9796l
 4.53543, 11.8473l 4.53543, 7.81597l 4.53543, 4.88316l 4.53543, 2.89265l 4.53543, 1.62622l 4.53543, 0.868319l 4.53543, 0.440615l 4.53543, 0.212587l 4.53543, 0.0975653l 4.53543, 0.0713932h 122.457" fill="none" stroke="#ff0000" stroke-width="2"/>
<path d="M503.933,347.224h 4.53543" fill="none" stroke="#ff0000" stroke-width="2"/>
<path d="M57.1929,347.224h 453.543" fill="none" stroke="black"/>
<path d="M135.06,337.964v 9.2593" fill="none" stroke="black"/>
<path d="M151.25,342.594v 4.62965" fill="none" stroke="black"/>
<path d="M167.44,342.594v 4.62965" fill="none" stroke="black"/>
<path d="M183.63,342.594v 4.62965" fill="none" stroke="black"/>
<path d="M199.82,342.594v 4.62965" fill="none" stroke="black"/>
<path d="M216.011,337.964v 9.2593" fill="none" stroke="black"/>
<path d="M232.201,342.594v 4.62965" fill="none" stroke="black"/>
<path d="M248.391,342.594v 4.62965" fill="none" stroke="black"/>
<path d="M264.581,342.594v 4.62965" fill="none" stroke="black"/>
<path d="M280.771,342.594v 4.62965" fill="none" stroke="black"/>
<path d="M296.961,337.964v 9.2593" fill="none" stroke="black"/>
<path d="M313.151,342.594v 4.62965" fill="none" stroke="black"/>
<path d="M329.341,342.594v 4.62965" fill="none" stroke="black"/>
<path d="M345.531,342.594v 4.62965" fill="none" stroke="black"/>
<path d="M361.721,342.594v 4.62965" fill="none" stroke="black"/>
<path d="M377.911,337.964v 9.2593" fill="none" stroke="black"/>
<path d="M394.101,342.594v 4.62965" fill="none" stroke="black"/>
<path d="M410.291,342.594v 4.62965" fill="none" stroke="black"/>
<path d="M426.481,342.594v 4.62965" fill="none" stroke="black"/>
<path d="M442.672,342.594v 4.62965" fill="none" stroke="black"/>
<path d="M458.862,337.964v 9.2593" fill="none" stroke="black"/>
<path d="M135.06,337.964v 9.2593" fill="none" stroke="black"/>
<path d="M118.87,342.594v 4.62965" fill="none" stroke="black"/>
<path d="M102.68,342.594v 4.62965" fill="none" stroke="black"/>
<path d="M86.49,342.594v 4.62965" fill="none" stroke="black"/>
<path d="M70.2999,342.594v 4.62965" fill="none" stroke="black"/>
<path d="M458.862,337.964v 9.2593" fill="none" stroke="black"/>
<path d="M475.052,342.594v 4.62965" fill="none" stroke="black"/>
<path d="M491.242,342.594v 4.62965" fill="none" stroke="black"/>
<path d="M507.432,342.594v 4.62965" fill="none" stroke="black"/>
<text xml:space="preserve" x="123.145" y="359.813" fill="black" font-size="12.8882" font-family="Helvetica">790</text>
<text xml:space="preserve" x="204.367" y="359.813" fill="black" font-size="12.8882" font-family="Helvetica">800</text>
<text xml:space="preserve" x="285.589" y="359.813" fill="black" font-size="12.8882" font-family="Helvetica">810</text>
<text xml:space="preserve" x="365.999" y="359.813" fill="black" font-size="12.8882" font-family="Helvetica">820</text>
<text xml:space="preserve" x="447.221" y="359.813" fill="black" font-size="12.8882" font-family="Helvetica">830</text>
<text xml:space="preserve" x="481.334" y="373.621" fill="black" font-size="12.8882" font-family="Helvetica">Time</text>
<path d="M57.1929,347.224v -308.643" fill="none" stroke="black"/>
<path d="M70.7992,347.224h -13.6063" fill="none" stroke="black"/>
<path d="M63.9961,337.26h -6.80315" fill="none" stroke="black"/>
<path d="M63.9961,327.295h -6.80315" fill="none" stroke="black"/>
<path d="M63.9961,317.331h -6.80315" fill="none" stroke="black"/>
<path d="M63.9961,307.367h -6.80315" fill="none" stroke="black"/>
<path d="M70.7992,297.402h -13.6063" fill="none" stroke="black"/>
<path d="M63.9961,287.438h -6.80315" fill="none" stroke="black"/>
<path d="M63.9961,277.474h -6.80315" fill="none" stroke="black"/>
<path d="M63.9961,267.51h -6.80315" fill="none" stroke="black"/>
<path d="M63.9961,257.545h -6.80315" fill="none" stroke="black"/>
<path d="M70.7992,247.581h -13.6063" fill="none" stroke="black"/>
<path d="M63.9961,237.617h -6.80315" fill="none" stroke="black"/>
<path d="M63.9961,227.653h -6.80315" fill="none" stroke="black"/>
<path d="M63.9961,217.688h -6.80315" fill="none" stroke="black"/>
<path d="M63.9961,207.724h -6.80315" fill="none" stroke="black"/>
<path d="M70.7992,197.76h -13.6063" fill="none" stroke="black"/>
<path d="M63.9961,187.795h -6.80315" fill="none" stroke="black"/>
<path d="M63.9961,177.831h -6.80315" fill="none" stroke="black"/>
<path d="M63.9961,167.867h -6.80315" fill="none" stroke="black"/>
<path d="M63.9961,157.903h -6.80315" fill="none" stroke="black"/>
<path d="M70.7992,147.938h -13.6063" fill="none" stroke="black"/>
<path d="M63.9961,137.974h -6.80315" fill="none" stroke="black"/>
<path d="M63.9961,128.01h -6.80315" fill="none" stroke="black"/>
<path d="M63.9961,118.046h -6.80315" fill="none" stroke="black"/>
<path d="M63.9961,108.081h -6.80315" fill="none" stroke="black"/>
<path d="M70.7992,98.117h -13.6063" fill="none" stroke="black"/>
<path d="M63.9961,88.1527h -6.80315" fill="none" stroke="black"/>
<path d="M63.9961,78.1884h -6.80315" fill="none" stroke="black"/>
<path d="M63.9961,68.2241h -6.80315" fill="none" stroke="black"/>
<path d="M63.9961,58.2599h -6.80315" fill="none" stroke="black"/>
<path d="M70.7992,48.2956h -13.6063" fill="none" stroke="black"/>
<path d="M70.7992,48.2956h -13.6063" fill="none" stroke="black"/>
<text xml:space="preserve" x="46.7965" y="351.691" fill="black" font-size="12.8882" font-family="Helvetica">0</text>
<text xml:space="preserve" x="39.4865" y="302.146" fill="black" font-size="12.8882" font-family="Helvetica">50</text>
<text xml:space="preserve" x="32.1766" y="251.788" fill="black" font-size="12.8882" font-family="Helvetica">100</text>
<text xml:space="preserve" x="32.1766" y="202.243" fill="black" font-size="12.8882" font-family="Helvetica">150</text>
<text xml:space="preserve" x="32.1766" y="152.697" fill="black" font-size="12.8882" font-family="Helvetica">200</text>
<text xml:space="preserve" x="32.1766" y="102.34" fill="black" font-size="12.8882" font-family="Helvetica">250</text>
<text xml:space="preserve" x="32.1766" y="52.7943" fill="black" font-size="12.8882" font-family="Helvetica">300</text>
<g transform="rotate(-90,21.6177,71.4753)">
<text xml:space="preserve" x="21.6177" y="71.4753" fill="black" font-size="12.8882" font-family="Helvetica">Event</text>
</g>
<text xml:space="preserve" x="217.363" y="18.681" fill="black" font-size="17.0471" font-family="Helvetica">0mm 44 45 46 47</text></svg>
