<?xml version="1.0" standalone="no"?>
<svg width="567.429" height="386.304" viewBox="0 0 567.429 386.304" xmlns="http://www.w3.org/2000/svg" shape-rendering="crispEdges">
<title>
img/week2/Combined670mm_ch_5.svg
</title>
<desc>
Creator: ROOT Version 6.22/08
CreationDate: Mon Jun 21 21:32:31 2021</desc>
<defs>
</defs>
<rect x="0.5" y="0" width="566.929" height="385.804" fill="white"/>
<rect x="57.1929" y="38.5804" width="453.543" height="308.643" fill="white"/>
<rect x="57.1929" y="38.5804" width="453.543" height="308.643" fill="none" stroke="black"/>
<rect x="57.1929" y="38.5804" width="453.543" height="308.643" fill="white"/>
<rect x="57.1929" y="38.5804" width="453.543" height="308.643" fill="none" stroke="black"/>
<path d="M57.1929,347.224h 85.0394v -9.05733h 28.3465v 9.05733h 28.3465v -18.1147h 28.3465v -72.4586h 28.3465v -172.089h 28.3465v 36.2293h 28.3465v 217.376h 28.3465v 9.05733h 170.079" fill="none" stroke="#000099"/>
<g fill="#ff0000">
<polygon points=" 265.568, 80.3377 274.015, 80.3377 269.791, 88.7848"/>
</g>
<path d="M59.4606,347.224h 122.457l 4.53543, -0.0480179l 4.53543, -0.0665891l 4.53543, -0.146761l 4.53543, -0.308176l 4.53543, -0.616323l 4.53543, -1.17341l 4.53543, -2.12564l 4.53543, -3.66146l 4.53543, -5.99227l 4.53543, -9.30823l 4.53543,
 -13.7063l 4.53543, -19.0992l 4.53543, -25.1279l 4.53543, -31.1142l 4.53543, -36.0911l 4.53543, -38.938l 4.53543, -38.612l 4.53543, -34.4291l 4.53543, -26.3125l 4.53543, -14.9165l 4.53543, -1.56607l 4.53543, 11.9933" fill="none" stroke="#ff0000"
 stroke-width="2"/>
<path d="M281.697,55.8574l 4.53543, 23.9705l 4.53543, 32.9171l 4.53543, 38.0134l 4.53543, 39.175l 4.53543, 36.9664l 4.53543, 32.374l 4.53543, 26.5239l 4.53543, 20.4337l 4.53543, 14.8535l 4.53543, 10.213l 4.53543, 6.65433l 4.53543, 4.11413l 4.53543,
 2.41622l 4.53543, 1.3491l 4.53543, 0.71663l 4.53543, 0.362349l 4.53543, 0.174478l 4.53543, 0.0800389l 4.53543, 0.0587582h 136.063" fill="none" stroke="#ff0000" stroke-width="2"/>
<path d="M503.933,347.224h 4.53543" fill="none" stroke="#ff0000" stroke-width="2"/>
<path d="M57.1929,347.224h 453.543" fill="none" stroke="black"/>
<path d="M125.327,337.964v 9.2593" fill="none" stroke="black"/>
<path d="M139.493,342.594v 4.62965" fill="none" stroke="black"/>
<path d="M153.659,342.594v 4.62965" fill="none" stroke="black"/>
<path d="M167.826,342.594v 4.62965" fill="none" stroke="black"/>
<path d="M181.992,342.594v 4.62965" fill="none" stroke="black"/>
<path d="M196.158,337.964v 9.2593" fill="none" stroke="black"/>
<path d="M210.325,342.594v 4.62965" fill="none" stroke="black"/>
<path d="M224.491,342.594v 4.62965" fill="none" stroke="black"/>
<path d="M238.657,342.594v 4.62965" fill="none" stroke="black"/>
<path d="M252.824,342.594v 4.62965" fill="none" stroke="black"/>
<path d="M266.99,337.964v 9.2593" fill="none" stroke="black"/>
<path d="M281.156,342.594v 4.62965" fill="none" stroke="black"/>
<path d="M295.323,342.594v 4.62965" fill="none" stroke="black"/>
<path d="M309.489,342.594v 4.62965" fill="none" stroke="black"/>
<path d="M323.655,342.594v 4.62965" fill="none" stroke="black"/>
<path d="M337.821,337.964v 9.2593" fill="none" stroke="black"/>
<path d="M351.988,342.594v 4.62965" fill="none" stroke="black"/>
<path d="M366.154,342.594v 4.62965" fill="none" stroke="black"/>
<path d="M380.32,342.594v 4.62965" fill="none" stroke="black"/>
<path d="M394.487,342.594v 4.62965" fill="none" stroke="black"/>
<path d="M408.653,337.964v 9.2593" fill="none" stroke="black"/>
<path d="M422.819,342.594v 4.62965" fill="none" stroke="black"/>
<path d="M436.986,342.594v 4.62965" fill="none" stroke="black"/>
<path d="M451.152,342.594v 4.62965" fill="none" stroke="black"/>
<path d="M465.318,342.594v 4.62965" fill="none" stroke="black"/>
<path d="M479.485,337.964v 9.2593" fill="none" stroke="black"/>
<path d="M125.327,337.964v 9.2593" fill="none" stroke="black"/>
<path d="M111.16,342.594v 4.62965" fill="none" stroke="black"/>
<path d="M96.9942,342.594v 4.62965" fill="none" stroke="black"/>
<path d="M82.8279,342.594v 4.62965" fill="none" stroke="black"/>
<path d="M68.6615,342.594v 4.62965" fill="none" stroke="black"/>
<path d="M479.485,337.964v 9.2593" fill="none" stroke="black"/>
<path d="M493.651,342.594v 4.62965" fill="none" stroke="black"/>
<path d="M507.817,342.594v 4.62965" fill="none" stroke="black"/>
<text xml:space="preserve" x="113.398" y="359.813" fill="black" font-size="12.8882" font-family="Helvetica">790</text>
<text xml:space="preserve" x="184.062" y="359.813" fill="black" font-size="12.8882" font-family="Helvetica">800</text>
<text xml:space="preserve" x="255.537" y="359.813" fill="black" font-size="12.8882" font-family="Helvetica">810</text>
<text xml:space="preserve" x="326.2" y="359.813" fill="black" font-size="12.8882" font-family="Helvetica">820</text>
<text xml:space="preserve" x="396.863" y="359.813" fill="black" font-size="12.8882" font-family="Helvetica">830</text>
<text xml:space="preserve" x="467.526" y="359.813" fill="black" font-size="12.8882" font-family="Helvetica">840</text>
<text xml:space="preserve" x="481.334" y="373.621" fill="black" font-size="12.8882" font-family="Helvetica">Time</text>
<path d="M57.1929,347.224v -308.643" fill="none" stroke="black"/>
<path d="M70.7992,347.224h -13.6063" fill="none" stroke="black"/>
<path d="M63.9961,338.166h -6.80315" fill="none" stroke="black"/>
<path d="M63.9961,329.109h -6.80315" fill="none" stroke="black"/>
<path d="M63.9961,320.052h -6.80315" fill="none" stroke="black"/>
<path d="M63.9961,310.994h -6.80315" fill="none" stroke="black"/>
<path d="M70.7992,301.937h -13.6063" fill="none" stroke="black"/>
<path d="M63.9961,292.88h -6.80315" fill="none" stroke="black"/>
<path d="M63.9961,283.822h -6.80315" fill="none" stroke="black"/>
<path d="M63.9961,274.765h -6.80315" fill="none" stroke="black"/>
<path d="M63.9961,265.708h -6.80315" fill="none" stroke="black"/>
<path d="M70.7992,256.651h -13.6063" fill="none" stroke="black"/>
<path d="M63.9961,247.593h -6.80315" fill="none" stroke="black"/>
<path d="M63.9961,238.536h -6.80315" fill="none" stroke="black"/>
<path d="M63.9961,229.479h -6.80315" fill="none" stroke="black"/>
<path d="M63.9961,220.421h -6.80315" fill="none" stroke="black"/>
<path d="M70.7992,211.364h -13.6063" fill="none" stroke="black"/>
<path d="M63.9961,202.307h -6.80315" fill="none" stroke="black"/>
<path d="M63.9961,193.249h -6.80315" fill="none" stroke="black"/>
<path d="M63.9961,184.192h -6.80315" fill="none" stroke="black"/>
<path d="M63.9961,175.135h -6.80315" fill="none" stroke="black"/>
<path d="M70.7992,166.077h -13.6063" fill="none" stroke="black"/>
<path d="M63.9961,157.02h -6.80315" fill="none" stroke="black"/>
<path d="M63.9961,147.963h -6.80315" fill="none" stroke="black"/>
<path d="M63.9961,138.905h -6.80315" fill="none" stroke="black"/>
<path d="M63.9961,129.848h -6.80315" fill="none" stroke="black"/>
<path d="M70.7992,120.791h -13.6063" fill="none" stroke="black"/>
<path d="M63.9961,111.733h -6.80315" fill="none" stroke="black"/>
<path d="M63.9961,102.676h -6.80315" fill="none" stroke="black"/>
<path d="M63.9961,93.6186h -6.80315" fill="none" stroke="black"/>
<path d="M63.9961,84.5613h -6.80315" fill="none" stroke="black"/>
<path d="M70.7992,75.5039h -13.6063" fill="none" stroke="black"/>
<path d="M70.7992,75.5039h -13.6063" fill="none" stroke="black"/>
<path d="M63.9961,66.4466h -6.80315" fill="none" stroke="black"/>
<path d="M63.9961,57.3893h -6.80315" fill="none" stroke="black"/>
<path d="M63.9961,48.3319h -6.80315" fill="none" stroke="black"/>
<path d="M63.9961,39.2746h -6.80315" fill="none" stroke="black"/>
<text xml:space="preserve" x="46.7965" y="351.691" fill="black" font-size="12.8882" font-family="Helvetica">0</text>
<text xml:space="preserve" x="46.7965" y="306.207" fill="black" font-size="12.8882" font-family="Helvetica">5</text>
<text xml:space="preserve" x="39.4865" y="260.722" fill="black" font-size="12.8882" font-family="Helvetica">10</text>
<text xml:space="preserve" x="39.4865" y="216.05" fill="black" font-size="12.8882" font-family="Helvetica">15</text>
<text xml:space="preserve" x="39.4865" y="170.566" fill="black" font-size="12.8882" font-family="Helvetica">20</text>
<text xml:space="preserve" x="39.4865" y="125.082" fill="black" font-size="12.8882" font-family="Helvetica">25</text>
<text xml:space="preserve" x="39.4865" y="79.5975" fill="black" font-size="12.8882" font-family="Helvetica">30</text>
<g transform="rotate(-90,28.9277,71.4753)">
<text xml:space="preserve" x="28.9277" y="71.4753" fill="black" font-size="12.8882" font-family="Helvetica">Event</text>
</g>
<text xml:space="preserve" x="248.227" y="18.681" fill="black" font-size="17.0471" font-family="Helvetica">670mm 5</text></svg>
