<?xml version="1.0" standalone="no"?>
<svg width="567.429" height="384.68" viewBox="0 0 567.429 384.68" xmlns="http://www.w3.org/2000/svg" shape-rendering="crispEdges">
<title>
img/week2/Combined0mm_ch_0_1_2_3.svg
</title>
<desc>
Creator: ROOT Version 6.22/09
CreationDate: Tue Jun 22 18:02:23 2021</desc>
<defs>
</defs>
<rect x="0.5" y="0" width="566.929" height="384.18" fill="white"/>
<rect x="57.1929" y="38.418" width="453.543" height="307.344" fill="white"/>
<rect x="57.1929" y="38.418" width="453.543" height="307.344" fill="none" stroke="black"/>
<rect x="57.1929" y="38.418" width="453.543" height="307.344" fill="white"/>
<rect x="57.1929" y="38.418" width="453.543" height="307.344" fill="none" stroke="black"/>
<path d="M57.1929,343.605h 32.396v 2.15697h 32.396v -2.15697h 97.1879v -43.1395h 32.396v -226.482h 32.396v -19.4128h 32.396v 269.622h 32.396v 21.5697h 161.98" fill="none" stroke="#000099"/>
<g fill="#ff0000">
<polygon points=" 263.543, 69.7595 271.99, 69.7595 267.767, 78.2065"/>
</g>
<path d="M59.4606,345.762h 126.992l 4.53543, -0.0655334l 4.53543, -0.0853555l 4.53543, -0.182113l 4.53543, -0.371417l 4.53543, -0.723849l 4.53543, -1.3475l 4.53543, -2.39496l 4.53543, -4.06168l 4.53543, -6.56818l 4.53543, -10.1189l 4.53543, -14.8349l
 4.53543, -20.6666l 4.53543, -27.3056l 4.53543, -34.1264l 4.53543, -40.1939l 4.53543, -44.3652l 4.53543, -45.4888l 4.53543, -42.6699l 1.50262, -11.7732" fill="none" stroke="#ff0000" stroke-width="2"/>
<path d="M295.525,38.418l 4.31391, 38.6281" fill="none" stroke="#ff0000" stroke-width="2"/>
<path d="M299.839,77.0461l 4.53543, 44.966l 4.53543, 45.1722l 4.53543, 41.9665l 4.53543, 36.4406l 4.53543, 29.7679l 4.53543, 22.9749l 4.53543, 16.8031l 4.53543, 11.6705l 4.53543, 7.70982l 4.53543, 4.85053l 4.53543, 2.90896l 4.53543, 1.66427l 4.53543,
 0.908894l 4.53543, 0.474054l 4.53543, 0.236238l 4.53543, 0.112521l 4.53543, 0.0512404l 4.53543, 0.0375113h 126.992" fill="none" stroke="#ff0000" stroke-width="2"/>
<rect x="351.996" y="24.9717" width="204.094" height="107.57" fill="white"/>
<path d="M351.996,132.542h 204.094" fill="none" stroke="black"/>
<path d="M556.091,132.542v -107.57" fill="none" stroke="black"/>
<path d="M556.091,24.9717h -204.094" fill="none" stroke="black"/>
<path d="M351.996,24.9717v 107.57" fill="none" stroke="black"/>
<text xml:space="preserve" x="361.938" y="38.9865" fill="black" font-size="15.6322" font-family="Helvetica">Entries </text>
<text xml:space="preserve" x="515.447" y="38.9865" fill="black" font-size="15.6322" font-family="Helvetica"> 296</text>
<text xml:space="preserve" x="375.745" y="56.8554" fill="black" font-size="15.6322" font-family="Helvetica"> / ndf </text>
<text xml:space="preserve" x="370.06" y="51.982" fill="black" font-size="10.5881" font-family="Helvetica">2</text>
<text xml:space="preserve" x="361.938" y="56.8554" fill="black" font-size="15.6322" font-family="Times">&#0967;</text>
<text xml:space="preserve" x="485.395" y="56.8554" fill="black" font-size="15.6322" font-family="Helvetica">  6.85 / 5</text>
<text xml:space="preserve" x="361.938" y="74.7242" fill="black" font-size="15.6322" font-family="Helvetica">Prob  </text>
<text xml:space="preserve" x="503.264" y="74.7242" fill="black" font-size="15.6322" font-family="Helvetica"> 0.232</text>
<text xml:space="preserve" x="361.938" y="94.2175" fill="black" font-size="15.6322" font-family="Helvetica">Const    </text>
<text xml:space="preserve" x="511.386" y="93.4052" fill="black" font-size="15.6322" font-family="Helvetica"> 12.7</text>
<text xml:space="preserve" x="502.452" y="93.4052" fill="black" font-size="15.6322" font-family="Times">&#0177;</text>
<text xml:space="preserve" x="455.343" y="93.4052" fill="black" font-size="15.6322" font-family="Helvetica"> 169.8 </text>
<text xml:space="preserve" x="361.938" y="111.274" fill="black" font-size="15.6322" font-family="Helvetica">Mean     </text>
<text xml:space="preserve" x="520.32" y="111.274" fill="black" font-size="15.6322" font-family="Helvetica"> 0.2</text>
<text xml:space="preserve" x="511.386" y="111.274" fill="black" font-size="15.6322" font-family="Times">&#0177;</text>
<text xml:space="preserve" x="464.277" y="111.274" fill="black" font-size="15.6322" font-family="Helvetica"> 808.2 </text>
<text xml:space="preserve" x="361.938" y="128.331" fill="black" font-size="15.6322" font-family="Helvetica">Sigma    </text>
<text xml:space="preserve" x="503.264" y="129.143" fill="black" font-size="15.6322" font-family="Helvetica"> 0.126</text>
<text xml:space="preserve" x="494.329" y="129.143" fill="black" font-size="15.6322" font-family="Times">&#0177;</text>
<text xml:space="preserve" x="447.221" y="129.143" fill="black" font-size="15.6322" font-family="Helvetica"> 2.722 </text>
<path d="M57.1929,345.762h 453.543" fill="none" stroke="black"/>
<path d="M135.06,336.541v 9.22031" fill="none" stroke="black"/>
<path d="M151.25,341.152v 4.61016" fill="none" stroke="black"/>
<path d="M167.44,341.152v 4.61016" fill="none" stroke="black"/>
<path d="M183.63,341.152v 4.61016" fill="none" stroke="black"/>
<path d="M199.82,341.152v 4.61016" fill="none" stroke="black"/>
<path d="M216.011,336.541v 9.22031" fill="none" stroke="black"/>
<path d="M232.201,341.152v 4.61016" fill="none" stroke="black"/>
<path d="M248.391,341.152v 4.61016" fill="none" stroke="black"/>
<path d="M264.581,341.152v 4.61016" fill="none" stroke="black"/>
<path d="M280.771,341.152v 4.61016" fill="none" stroke="black"/>
<path d="M296.961,336.541v 9.22031" fill="none" stroke="black"/>
<path d="M313.151,341.152v 4.61016" fill="none" stroke="black"/>
<path d="M329.341,341.152v 4.61016" fill="none" stroke="black"/>
<path d="M345.531,341.152v 4.61016" fill="none" stroke="black"/>
<path d="M361.721,341.152v 4.61016" fill="none" stroke="black"/>
<path d="M377.911,336.541v 9.22031" fill="none" stroke="black"/>
<path d="M394.101,341.152v 4.61016" fill="none" stroke="black"/>
<path d="M410.291,341.152v 4.61016" fill="none" stroke="black"/>
<path d="M426.481,341.152v 4.61016" fill="none" stroke="black"/>
<path d="M442.672,341.152v 4.61016" fill="none" stroke="black"/>
<path d="M458.862,336.541v 9.22031" fill="none" stroke="black"/>
<path d="M135.06,336.541v 9.22031" fill="none" stroke="black"/>
<path d="M118.87,341.152v 4.61016" fill="none" stroke="black"/>
<path d="M102.68,341.152v 4.61016" fill="none" stroke="black"/>
<path d="M86.49,341.152v 4.61016" fill="none" stroke="black"/>
<path d="M70.2999,341.152v 4.61016" fill="none" stroke="black"/>
<path d="M458.862,336.541v 9.22031" fill="none" stroke="black"/>
<path d="M475.052,341.152v 4.61016" fill="none" stroke="black"/>
<path d="M491.242,341.152v 4.61016" fill="none" stroke="black"/>
<path d="M507.432,341.152v 4.61016" fill="none" stroke="black"/>
<text xml:space="preserve" x="123.957" y="358.189" fill="black" font-size="12.836" font-family="Helvetica">790</text>
<text xml:space="preserve" x="205.179" y="358.189" fill="black" font-size="12.836" font-family="Helvetica">800</text>
<text xml:space="preserve" x="286.401" y="358.189" fill="black" font-size="12.836" font-family="Helvetica">810</text>
<text xml:space="preserve" x="366.811" y="358.189" fill="black" font-size="12.836" font-family="Helvetica">820</text>
<text xml:space="preserve" x="448.033" y="358.189" fill="black" font-size="12.836" font-family="Helvetica">830</text>
<text xml:space="preserve" x="461.028" y="370.372" fill="black" font-size="12.836" font-family="Helvetica">Time [ps]</text>
<path d="M57.1929,345.762v -307.344" fill="none" stroke="black"/>
<path d="M70.7992,345.762h -13.6063" fill="none" stroke="black"/>
<path d="M63.9961,334.977h -6.80315" fill="none" stroke="black"/>
<path d="M63.9961,324.192h -6.80315" fill="none" stroke="black"/>
<path d="M63.9961,313.407h -6.80315" fill="none" stroke="black"/>
<path d="M70.7992,302.622h -13.6063" fill="none" stroke="black"/>
<path d="M63.9961,291.837h -6.80315" fill="none" stroke="black"/>
<path d="M63.9961,281.053h -6.80315" fill="none" stroke="black"/>
<path d="M63.9961,270.268h -6.80315" fill="none" stroke="black"/>
<path d="M70.7992,259.483h -13.6063" fill="none" stroke="black"/>
<path d="M63.9961,248.698h -6.80315" fill="none" stroke="black"/>
<path d="M63.9961,237.913h -6.80315" fill="none" stroke="black"/>
<path d="M63.9961,227.128h -6.80315" fill="none" stroke="black"/>
<path d="M70.7992,216.343h -13.6063" fill="none" stroke="black"/>
<path d="M63.9961,205.558h -6.80315" fill="none" stroke="black"/>
<path d="M63.9961,194.774h -6.80315" fill="none" stroke="black"/>
<path d="M63.9961,183.989h -6.80315" fill="none" stroke="black"/>
<path d="M70.7992,173.204h -13.6063" fill="none" stroke="black"/>
<path d="M63.9961,162.419h -6.80315" fill="none" stroke="black"/>
<path d="M63.9961,151.634h -6.80315" fill="none" stroke="black"/>
<path d="M63.9961,140.849h -6.80315" fill="none" stroke="black"/>
<path d="M70.7992,130.064h -13.6063" fill="none" stroke="black"/>
<path d="M63.9961,119.279h -6.80315" fill="none" stroke="black"/>
<path d="M63.9961,108.495h -6.80315" fill="none" stroke="black"/>
<path d="M63.9961,97.7097h -6.80315" fill="none" stroke="black"/>
<path d="M70.7992,86.9249h -13.6063" fill="none" stroke="black"/>
<path d="M63.9961,76.14h -6.80315" fill="none" stroke="black"/>
<path d="M63.9961,65.3551h -6.80315" fill="none" stroke="black"/>
<path d="M63.9961,54.5702h -6.80315" fill="none" stroke="black"/>
<path d="M70.7992,43.7854h -13.6063" fill="none" stroke="black"/>
<path d="M70.7992,43.7854h -13.6063" fill="none" stroke="black"/>
<text xml:space="preserve" x="47.6087" y="350.067" fill="black" font-size="12.836" font-family="Helvetica">0</text>
<text xml:space="preserve" x="41.111" y="307.019" fill="black" font-size="12.836" font-family="Helvetica">20</text>
<text xml:space="preserve" x="41.111" y="263.971" fill="black" font-size="12.836" font-family="Helvetica">40</text>
<text xml:space="preserve" x="41.111" y="220.924" fill="black" font-size="12.836" font-family="Helvetica">60</text>
<text xml:space="preserve" x="41.111" y="177.876" fill="black" font-size="12.836" font-family="Helvetica">80</text>
<text xml:space="preserve" x="33.801" y="134.828" fill="black" font-size="12.836" font-family="Helvetica">100</text>
<text xml:space="preserve" x="33.801" y="91.7808" fill="black" font-size="12.836" font-family="Helvetica">120</text>
<text xml:space="preserve" x="33.801" y="47.9209" fill="black" font-size="12.836" font-family="Helvetica">140</text>
<g transform="rotate(-90,20.8055,69.8509)">
<text xml:space="preserve" x="20.8055" y="69.8509" fill="black" font-size="12.836" font-family="Helvetica">Event</text>
</g>
<rect x="351.996" y="24.9717" width="204.094" height="107.57" fill="white"/>
<path d="M351.996,132.542h 204.094" fill="none" stroke="black"/>
<path d="M556.091,132.542v -107.57" fill="none" stroke="black"/>
<path d="M556.091,24.9717h -204.094" fill="none" stroke="black"/>
<path d="M351.996,24.9717v 107.57" fill="none" stroke="black"/>
<text xml:space="preserve" x="361.938" y="38.9865" fill="black" font-size="15.6322" font-family="Helvetica">Entries </text>
<text xml:space="preserve" x="515.447" y="38.9865" fill="black" font-size="15.6322" font-family="Helvetica"> 296</text>
<text xml:space="preserve" x="375.745" y="56.8554" fill="black" font-size="15.6322" font-family="Helvetica"> / ndf </text>
<text xml:space="preserve" x="370.06" y="51.982" fill="black" font-size="10.5881" font-family="Helvetica">2</text>
<text xml:space="preserve" x="361.938" y="56.8554" fill="black" font-size="15.6322" font-family="Times">&#0967;</text>
<text xml:space="preserve" x="485.395" y="56.8554" fill="black" font-size="15.6322" font-family="Helvetica">  6.85 / 5</text>
<text xml:space="preserve" x="361.938" y="74.7242" fill="black" font-size="15.6322" font-family="Helvetica">Prob  </text>
<text xml:space="preserve" x="503.264" y="74.7242" fill="black" font-size="15.6322" font-family="Helvetica"> 0.232</text>
<text xml:space="preserve" x="361.938" y="94.2175" fill="black" font-size="15.6322" font-family="Helvetica">Const    </text>
<text xml:space="preserve" x="511.386" y="93.4052" fill="black" font-size="15.6322" font-family="Helvetica"> 12.7</text>
<text xml:space="preserve" x="502.452" y="93.4052" fill="black" font-size="15.6322" font-family="Times">&#0177;</text>
<text xml:space="preserve" x="455.343" y="93.4052" fill="black" font-size="15.6322" font-family="Helvetica"> 169.8 </text>
<text xml:space="preserve" x="361.938" y="111.274" fill="black" font-size="15.6322" font-family="Helvetica">Mean     </text>
<text xml:space="preserve" x="520.32" y="111.274" fill="black" font-size="15.6322" font-family="Helvetica"> 0.2</text>
<text xml:space="preserve" x="511.386" y="111.274" fill="black" font-size="15.6322" font-family="Times">&#0177;</text>
<text xml:space="preserve" x="464.277" y="111.274" fill="black" font-size="15.6322" font-family="Helvetica"> 808.2 </text>
<text xml:space="preserve" x="361.938" y="128.331" fill="black" font-size="15.6322" font-family="Helvetica">Sigma    </text>
<text xml:space="preserve" x="503.264" y="129.143" fill="black" font-size="15.6322" font-family="Helvetica"> 0.126</text>
<text xml:space="preserve" x="494.329" y="129.143" fill="black" font-size="15.6322" font-family="Times">&#0177;</text>
<text xml:space="preserve" x="447.221" y="129.143" fill="black" font-size="15.6322" font-family="Helvetica"> 2.722 </text>
<text xml:space="preserve" x="236.856" y="18.681" fill="black" font-size="16.9774" font-family="Helvetica">0mm 0 1 2 3</text></svg>
