<?xml version="1.0" standalone="no"?>
<svg width="567.429" height="384.969" viewBox="0 0 567.429 384.969" xmlns="http://www.w3.org/2000/svg" shape-rendering="crispEdges">
<title>
img/week2/Combined140mm_ch_43.svg
</title>
<desc>
Creator: ROOT Version 6.22/09
CreationDate: Thu Jun 24 12:33:06 2021</desc>
<defs>
</defs>
<rect x="0.5" y="0" width="566.929" height="384.469" fill="white"/>
<rect x="57.1929" y="38.4469" width="453.543" height="307.575" fill="white"/>
<rect x="57.1929" y="38.4469" width="453.543" height="307.575" fill="none" stroke="black"/>
<rect x="57.1929" y="38.4469" width="453.543" height="307.575" fill="white"/>
<rect x="57.1929" y="38.4469" width="453.543" height="307.575" fill="none" stroke="black"/>
<path d="M57.1929,343.453h 32.396v 2.56937h 64.7919v -2.56937h 32.396v -12.8469h 32.396v -28.2631h 32.396v -226.105h 32.396v 46.2487h 32.396v 218.396h 32.396v 5.13874h 161.98" fill="none" stroke="#000099"/>
<g fill="#ff0000">
<polygon points=" 263.531, 72.0027 272.002, 72.0027 267.767, 80.4741"/>
</g>
<path d="M59.4606,346.022h 131.528l 4.53543, -0.067545l 4.53543, -0.0991476l 4.53543, -0.224392l 4.53543, -0.481196l 4.53543, -0.9773l 4.53543, -1.87881l 4.53543, -3.41659l 4.53543, -5.87205l 4.53543, -9.52818l 4.53543, -14.5765l 4.53543, -20.9859l
 4.53543, -28.3631l 4.53543, -35.8602l 4.53543, -42.1952l 4.53543, -45.8347l 4.53543, -45.3365l 4.53543, -39.7764l 1.8847, -12.1016" fill="none" stroke="#ff0000" stroke-width="2"/>
<path d="M287.639,38.4469l 3.12919, 22.5054" fill="none" stroke="#ff0000" stroke-width="2"/>
<path d="M290.768,60.9523l 4.53543, 41.8877l 4.53543, 45.9656l 4.53543, 45.1666l 4.53543, 40.605l 4.53543, 33.7906l 4.53543, 26.2142l 4.53543, 19.0458l 4.53543, 13.0004l 4.53543, 8.35588l 4.53543, 5.06569l 4.53543, 2.90035l 4.53543, 1.56987l 4.53543,
 0.803935l 4.53543, 0.389763l 4.53543, 0.178991l 4.53543, 0.0778937l 4.53543, 0.0518078h 140.598" fill="none" stroke="#ff0000" stroke-width="2"/>
<path d="M57.1929,346.022h 453.543" fill="none" stroke="black"/>
<path d="M135.06,336.795v 9.22726" fill="none" stroke="black"/>
<path d="M151.25,341.409v 4.61363" fill="none" stroke="black"/>
<path d="M167.44,341.409v 4.61363" fill="none" stroke="black"/>
<path d="M183.63,341.409v 4.61363" fill="none" stroke="black"/>
<path d="M199.82,341.409v 4.61363" fill="none" stroke="black"/>
<path d="M216.011,336.795v 9.22726" fill="none" stroke="black"/>
<path d="M232.201,341.409v 4.61363" fill="none" stroke="black"/>
<path d="M248.391,341.409v 4.61363" fill="none" stroke="black"/>
<path d="M264.581,341.409v 4.61363" fill="none" stroke="black"/>
<path d="M280.771,341.409v 4.61363" fill="none" stroke="black"/>
<path d="M296.961,336.795v 9.22726" fill="none" stroke="black"/>
<path d="M313.151,341.409v 4.61363" fill="none" stroke="black"/>
<path d="M329.341,341.409v 4.61363" fill="none" stroke="black"/>
<path d="M345.531,341.409v 4.61363" fill="none" stroke="black"/>
<path d="M361.721,341.409v 4.61363" fill="none" stroke="black"/>
<path d="M377.911,336.795v 9.22726" fill="none" stroke="black"/>
<path d="M394.101,341.409v 4.61363" fill="none" stroke="black"/>
<path d="M410.291,341.409v 4.61363" fill="none" stroke="black"/>
<path d="M426.481,341.409v 4.61363" fill="none" stroke="black"/>
<path d="M442.672,341.409v 4.61363" fill="none" stroke="black"/>
<path d="M458.862,336.795v 9.22726" fill="none" stroke="black"/>
<path d="M135.06,336.795v 9.22726" fill="none" stroke="black"/>
<path d="M118.87,341.409v 4.61363" fill="none" stroke="black"/>
<path d="M102.68,341.409v 4.61363" fill="none" stroke="black"/>
<path d="M86.49,341.409v 4.61363" fill="none" stroke="black"/>
<path d="M70.2999,341.409v 4.61363" fill="none" stroke="black"/>
<path d="M458.862,336.795v 9.22726" fill="none" stroke="black"/>
<path d="M475.052,341.409v 4.61363" fill="none" stroke="black"/>
<path d="M491.242,341.409v 4.61363" fill="none" stroke="black"/>
<path d="M507.432,341.409v 4.61363" fill="none" stroke="black"/>
<text xml:space="preserve" x="124.312" y="358.403" fill="black" font-size="12.8453" font-family="Helvetica">790</text>
<text xml:space="preserve" x="204.953" y="358.403" fill="black" font-size="12.8453" font-family="Helvetica">800</text>
<text xml:space="preserve" x="285.594" y="358.403" fill="black" font-size="12.8453" font-family="Helvetica">810</text>
<text xml:space="preserve" x="367.049" y="358.403" fill="black" font-size="12.8453" font-family="Helvetica">820</text>
<text xml:space="preserve" x="447.69" y="358.403" fill="black" font-size="12.8453" font-family="Helvetica">830</text>
<text xml:space="preserve" x="460.723" y="370.622" fill="black" font-size="12.8453" font-family="Helvetica">Time [ns]</text>
<path d="M57.1929,346.022v -307.575" fill="none" stroke="black"/>
<path d="M70.7992,346.022h -13.6063" fill="none" stroke="black"/>
<path d="M63.9961,333.175h -6.80315" fill="none" stroke="black"/>
<path d="M63.9961,320.329h -6.80315" fill="none" stroke="black"/>
<path d="M63.9961,307.482h -6.80315" fill="none" stroke="black"/>
<path d="M70.7992,294.635h -13.6063" fill="none" stroke="black"/>
<path d="M63.9961,281.788h -6.80315" fill="none" stroke="black"/>
<path d="M63.9961,268.941h -6.80315" fill="none" stroke="black"/>
<path d="M63.9961,256.094h -6.80315" fill="none" stroke="black"/>
<path d="M70.7992,243.247h -13.6063" fill="none" stroke="black"/>
<path d="M63.9961,230.401h -6.80315" fill="none" stroke="black"/>
<path d="M63.9961,217.554h -6.80315" fill="none" stroke="black"/>
<path d="M63.9961,204.707h -6.80315" fill="none" stroke="black"/>
<path d="M70.7992,191.86h -13.6063" fill="none" stroke="black"/>
<path d="M63.9961,179.013h -6.80315" fill="none" stroke="black"/>
<path d="M63.9961,166.166h -6.80315" fill="none" stroke="black"/>
<path d="M63.9961,153.319h -6.80315" fill="none" stroke="black"/>
<path d="M70.7992,140.473h -13.6063" fill="none" stroke="black"/>
<path d="M63.9961,127.626h -6.80315" fill="none" stroke="black"/>
<path d="M63.9961,114.779h -6.80315" fill="none" stroke="black"/>
<path d="M63.9961,101.932h -6.80315" fill="none" stroke="black"/>
<path d="M70.7992,89.0852h -13.6063" fill="none" stroke="black"/>
<path d="M70.7992,89.0852h -13.6063" fill="none" stroke="black"/>
<path d="M63.9961,76.2384h -6.80315" fill="none" stroke="black"/>
<path d="M63.9961,63.3915h -6.80315" fill="none" stroke="black"/>
<path d="M63.9961,50.5447h -6.80315" fill="none" stroke="black"/>
<text xml:space="preserve" x="47.7441" y="350.258" fill="black" font-size="12.8453" font-family="Helvetica">0</text>
<text xml:space="preserve" x="41.2277" y="298.941" fill="black" font-size="12.8453" font-family="Helvetica">20</text>
<text xml:space="preserve" x="41.2277" y="247.624" fill="black" font-size="12.8453" font-family="Helvetica">40</text>
<text xml:space="preserve" x="41.2277" y="196.307" fill="black" font-size="12.8453" font-family="Helvetica">60</text>
<text xml:space="preserve" x="41.2277" y="144.99" fill="black" font-size="12.8453" font-family="Helvetica">80</text>
<text xml:space="preserve" x="33.8967" y="93.6736" fill="black" font-size="12.8453" font-family="Helvetica">100</text>
<g transform="rotate(-90,20.8638,70.0516)">
<text xml:space="preserve" x="20.8638" y="70.0516" fill="black" font-size="12.8453" font-family="Helvetica">Event</text>
</g>
<text xml:space="preserve" x="243.237" y="18.7347" fill="black" font-size="16.9898" font-family="Helvetica">140mm 43</text></svg>
