<?xml version="1.0" standalone="no"?>
<svg width="567.429" height="386.304" viewBox="0 0 567.429 386.304" xmlns="http://www.w3.org/2000/svg" shape-rendering="crispEdges">
<title>
img/week2/Combined670mm_ch_44_45_46_47.svg
</title>
<desc>
Creator: ROOT Version 6.22/08
CreationDate: Mon Jun 21 21:40:03 2021</desc>
<defs>
</defs>
<rect x="0.5" y="0" width="566.929" height="385.804" fill="white"/>
<rect x="57.1929" y="38.5804" width="453.543" height="308.643" fill="white"/>
<rect x="57.1929" y="38.5804" width="453.543" height="308.643" fill="none" stroke="black"/>
<rect x="57.1929" y="38.5804" width="453.543" height="308.643" fill="white"/>
<rect x="57.1929" y="38.5804" width="453.543" height="308.643" fill="none" stroke="black"/>
<path d="M57.1929,347.224h 97.1879v -5.36888h 32.396v -4.02666h 32.396v -18.7911h 32.396v -103.351h 32.396v -162.409h 32.396v 248.311h 32.396v 45.6355h 161.98" fill="none" stroke="#000099"/>
<g fill="#ff0000">
<polygon points=" 295.939, 49.0542 304.386, 49.0542 300.163, 57.5013"/>
</g>
<path d="M59.4606,347.224h 140.598l 4.53543, -0.053584l 4.53543, -0.073387l 4.53543, -0.160498l 4.53543, -0.334397l 4.53543, -0.66348l 4.53543, -1.25306l 4.53543, -2.25143l 4.53543, -3.84587l 4.53543, -6.24052l 4.53543, -9.60909l 4.53543, -14.0214l
 4.53543, -19.3542l 4.53543, -25.2106l 4.53543, -30.8844l 4.53543, -35.4059l 4.53543, -37.6893l 4.53543, -36.7689l 4.53543, -32.0713" fill="none" stroke="#ff0000" stroke-width="2"/>
<path d="M281.697,91.3323l 4.53543, -23.6398l 4.53543, -12.2268l 4.53543, 0.798054l 4.53543, 13.7163l 4.53543, 24.8329l 4.53543, 32.8412l 4.53543, 37.0732l 4.53543, 37.5677l 4.53543, 34.9592l 4.53543, 30.242l 4.53543, 24.4992l 4.53543, 18.6745l
 4.53543, 13.4374l 4.53543, 9.1487l 4.53543, 5.9038l 4.53543, 3.61576l 4.53543, 2.10381l 4.53543, 1.16386l 4.53543, 0.61259l 4.53543, 0.306931l 4.53543, 0.146457l 4.53543, 0.0665785l 4.53543, 0.048155h 117.921" fill="none" stroke="#ff0000"
 stroke-width="2"/>
<path d="M503.933,347.224h 4.53543" fill="none" stroke="#ff0000" stroke-width="2"/>
<path d="M57.1929,347.224h 453.543" fill="none" stroke="black"/>
<path d="M86.5058,337.964v 9.2593" fill="none" stroke="black"/>
<path d="M102.696,342.594v 4.62965" fill="none" stroke="black"/>
<path d="M118.886,342.594v 4.62965" fill="none" stroke="black"/>
<path d="M135.076,342.594v 4.62965" fill="none" stroke="black"/>
<path d="M151.266,342.594v 4.62965" fill="none" stroke="black"/>
<path d="M167.456,337.964v 9.2593" fill="none" stroke="black"/>
<path d="M183.646,342.594v 4.62965" fill="none" stroke="black"/>
<path d="M199.836,342.594v 4.62965" fill="none" stroke="black"/>
<path d="M216.026,342.594v 4.62965" fill="none" stroke="black"/>
<path d="M232.216,342.594v 4.62965" fill="none" stroke="black"/>
<path d="M248.406,337.964v 9.2593" fill="none" stroke="black"/>
<path d="M264.597,342.594v 4.62965" fill="none" stroke="black"/>
<path d="M280.787,342.594v 4.62965" fill="none" stroke="black"/>
<path d="M296.977,342.594v 4.62965" fill="none" stroke="black"/>
<path d="M313.167,342.594v 4.62965" fill="none" stroke="black"/>
<path d="M329.357,337.964v 9.2593" fill="none" stroke="black"/>
<path d="M345.547,342.594v 4.62965" fill="none" stroke="black"/>
<path d="M361.737,342.594v 4.62965" fill="none" stroke="black"/>
<path d="M377.927,342.594v 4.62965" fill="none" stroke="black"/>
<path d="M394.117,342.594v 4.62965" fill="none" stroke="black"/>
<path d="M410.307,337.964v 9.2593" fill="none" stroke="black"/>
<path d="M426.497,342.594v 4.62965" fill="none" stroke="black"/>
<path d="M442.687,342.594v 4.62965" fill="none" stroke="black"/>
<path d="M458.877,342.594v 4.62965" fill="none" stroke="black"/>
<path d="M475.067,342.594v 4.62965" fill="none" stroke="black"/>
<path d="M491.258,337.964v 9.2593" fill="none" stroke="black"/>
<path d="M86.5058,337.964v 9.2593" fill="none" stroke="black"/>
<path d="M70.3157,342.594v 4.62965" fill="none" stroke="black"/>
<path d="M491.258,337.964v 9.2593" fill="none" stroke="black"/>
<path d="M507.448,342.594v 4.62965" fill="none" stroke="black"/>
<text xml:space="preserve" x="74.412" y="359.813" fill="black" font-size="12.8882" font-family="Helvetica">780</text>
<text xml:space="preserve" x="155.634" y="359.813" fill="black" font-size="12.8882" font-family="Helvetica">790</text>
<text xml:space="preserve" x="236.856" y="359.813" fill="black" font-size="12.8882" font-family="Helvetica">800</text>
<text xml:space="preserve" x="317.266" y="359.813" fill="black" font-size="12.8882" font-family="Helvetica">810</text>
<text xml:space="preserve" x="398.487" y="359.813" fill="black" font-size="12.8882" font-family="Helvetica">820</text>
<text xml:space="preserve" x="479.709" y="359.813" fill="black" font-size="12.8882" font-family="Helvetica">830</text>
<text xml:space="preserve" x="481.334" y="373.621" fill="black" font-size="12.8882" font-family="Helvetica">Time</text>
<path d="M57.1929,347.224v -308.643" fill="none" stroke="black"/>
<path d="M70.7992,347.224h -13.6063" fill="none" stroke="black"/>
<path d="M63.9961,340.513h -6.80315" fill="none" stroke="black"/>
<path d="M63.9961,333.802h -6.80315" fill="none" stroke="black"/>
<path d="M63.9961,327.09h -6.80315" fill="none" stroke="black"/>
<path d="M70.7992,320.379h -13.6063" fill="none" stroke="black"/>
<path d="M63.9961,313.668h -6.80315" fill="none" stroke="black"/>
<path d="M63.9961,306.957h -6.80315" fill="none" stroke="black"/>
<path d="M63.9961,300.246h -6.80315" fill="none" stroke="black"/>
<path d="M70.7992,293.535h -13.6063" fill="none" stroke="black"/>
<path d="M63.9961,286.824h -6.80315" fill="none" stroke="black"/>
<path d="M63.9961,280.113h -6.80315" fill="none" stroke="black"/>
<path d="M63.9961,273.402h -6.80315" fill="none" stroke="black"/>
<path d="M70.7992,266.691h -13.6063" fill="none" stroke="black"/>
<path d="M63.9961,259.98h -6.80315" fill="none" stroke="black"/>
<path d="M63.9961,253.268h -6.80315" fill="none" stroke="black"/>
<path d="M63.9961,246.557h -6.80315" fill="none" stroke="black"/>
<path d="M70.7992,239.846h -13.6063" fill="none" stroke="black"/>
<path d="M63.9961,233.135h -6.80315" fill="none" stroke="black"/>
<path d="M63.9961,226.424h -6.80315" fill="none" stroke="black"/>
<path d="M63.9961,219.713h -6.80315" fill="none" stroke="black"/>
<path d="M70.7992,213.002h -13.6063" fill="none" stroke="black"/>
<path d="M63.9961,206.291h -6.80315" fill="none" stroke="black"/>
<path d="M63.9961,199.58h -6.80315" fill="none" stroke="black"/>
<path d="M63.9961,192.869h -6.80315" fill="none" stroke="black"/>
<path d="M70.7992,186.157h -13.6063" fill="none" stroke="black"/>
<path d="M63.9961,179.446h -6.80315" fill="none" stroke="black"/>
<path d="M63.9961,172.735h -6.80315" fill="none" stroke="black"/>
<path d="M63.9961,166.024h -6.80315" fill="none" stroke="black"/>
<path d="M70.7992,159.313h -13.6063" fill="none" stroke="black"/>
<path d="M63.9961,152.602h -6.80315" fill="none" stroke="black"/>
<path d="M63.9961,145.891h -6.80315" fill="none" stroke="black"/>
<path d="M63.9961,139.18h -6.80315" fill="none" stroke="black"/>
<path d="M70.7992,132.469h -13.6063" fill="none" stroke="black"/>
<path d="M63.9961,125.758h -6.80315" fill="none" stroke="black"/>
<path d="M63.9961,119.046h -6.80315" fill="none" stroke="black"/>
<path d="M63.9961,112.335h -6.80315" fill="none" stroke="black"/>
<path d="M70.7992,105.624h -13.6063" fill="none" stroke="black"/>
<path d="M63.9961,98.9132h -6.80315" fill="none" stroke="black"/>
<path d="M63.9961,92.2021h -6.80315" fill="none" stroke="black"/>
<path d="M63.9961,85.491h -6.80315" fill="none" stroke="black"/>
<path d="M70.7992,78.7799h -13.6063" fill="none" stroke="black"/>
<path d="M63.9961,72.0688h -6.80315" fill="none" stroke="black"/>
<path d="M63.9961,65.3577h -6.80315" fill="none" stroke="black"/>
<path d="M63.9961,58.6466h -6.80315" fill="none" stroke="black"/>
<path d="M70.7992,51.9355h -13.6063" fill="none" stroke="black"/>
<path d="M70.7992,51.9355h -13.6063" fill="none" stroke="black"/>
<path d="M63.9961,45.2244h -6.80315" fill="none" stroke="black"/>
<text xml:space="preserve" x="46.7965" y="351.691" fill="black" font-size="12.8882" font-family="Helvetica">0</text>
<text xml:space="preserve" x="39.4865" y="324.888" fill="black" font-size="12.8882" font-family="Helvetica">20</text>
<text xml:space="preserve" x="39.4865" y="298.085" fill="black" font-size="12.8882" font-family="Helvetica">40</text>
<text xml:space="preserve" x="39.4865" y="271.281" fill="black" font-size="12.8882" font-family="Helvetica">60</text>
<text xml:space="preserve" x="39.4865" y="244.478" fill="black" font-size="12.8882" font-family="Helvetica">80</text>
<text xml:space="preserve" x="32.1766" y="217.675" fill="black" font-size="12.8882" font-family="Helvetica">100</text>
<text xml:space="preserve" x="32.1766" y="190.872" fill="black" font-size="12.8882" font-family="Helvetica">120</text>
<text xml:space="preserve" x="32.1766" y="164.068" fill="black" font-size="12.8882" font-family="Helvetica">140</text>
<text xml:space="preserve" x="32.1766" y="137.265" fill="black" font-size="12.8882" font-family="Helvetica">160</text>
<text xml:space="preserve" x="32.1766" y="110.462" fill="black" font-size="12.8882" font-family="Helvetica">180</text>
<text xml:space="preserve" x="32.1766" y="82.8464" fill="black" font-size="12.8882" font-family="Helvetica">200</text>
<text xml:space="preserve" x="32.1766" y="56.0431" fill="black" font-size="12.8882" font-family="Helvetica">220</text>
<g transform="rotate(-90,21.6177,71.4753)">
<text xml:space="preserve" x="21.6177" y="71.4753" fill="black" font-size="12.8882" font-family="Helvetica">Event</text>
</g>
<text xml:space="preserve" x="207.616" y="18.681" fill="black" font-size="17.0471" font-family="Helvetica">670mm 44 45 46 47</text></svg>
