<?xml version="1.0" standalone="no"?>
<svg width="567.429" height="386.304" viewBox="0 0 567.429 386.304" xmlns="http://www.w3.org/2000/svg" shape-rendering="crispEdges">
<title>
img/week2/Combined560mm_ch_2.svg
</title>
<desc>
Creator: ROOT Version 6.22/08
CreationDate: Tue Jun 22 00:47:21 2021</desc>
<defs>
</defs>
<rect x="0.5" y="0" width="566.929" height="385.804" fill="white"/>
<rect x="57.1929" y="38.5804" width="453.543" height="308.643" fill="white"/>
<rect x="57.1929" y="38.5804" width="453.543" height="308.643" fill="none" stroke="black"/>
<rect x="57.1929" y="38.5804" width="453.543" height="308.643" fill="white"/>
<rect x="57.1929" y="38.5804" width="453.543" height="308.643" fill="none" stroke="black"/>
<path d="M57.1929,347.224h 181.417v -115.476h 30.2362v -178.463h 30.2362v 178.463h 30.2362v 115.476h 181.417" fill="none" stroke="#000099"/>
<g fill="#ff0000">
<polygon points=" 279.741, 49.0617 288.188, 49.0617 283.965, 57.5088"/>
</g>
<path d="M59.4606,347.224h 126.992l 4.53543, -0.0427885l 4.53543, -0.0564163l 4.53543, -0.12133l 4.53543, -0.249535l 4.53543, -0.490629l 4.53543, -0.921874l 4.53543, -1.6546l 4.53543, -2.83518l 4.53543, -4.63502l 4.53543, -7.22348l 4.53543, -10.7206l
 4.53543, -15.1317l 4.53543, -20.2767l 4.53543, -25.7344l 4.53543, -30.8316l 4.53543, -34.6997l 4.53543, -36.4103l 4.53543, -35.172l 4.53543, -30.5454l 4.53543, -22.6123l 4.53543, -12.0395" fill="none" stroke="#ff0000" stroke-width="2"/>
<path d="M281.697,54.8186h 4.53543l 4.53543, 12.0395l 4.53543, 22.6123l 4.53543, 30.5454l 4.53543, 35.172l 4.53543, 36.4103l 4.53543, 34.6997l 4.53543, 30.8316l 4.53543, 25.7344l 4.53543, 20.2767l 4.53543, 15.1317l 4.53543, 10.7206l 4.53543, 7.22348l
 4.53543, 4.63502l 4.53543, 2.83518l 4.53543, 1.6546l 4.53543, 0.921874l 4.53543, 0.490629l 4.53543, 0.249535l 4.53543, 0.12133l 4.53543, 0.0564163l 4.53543, 0.0427885h 122.457" fill="none" stroke="#ff0000" stroke-width="2"/>
<path d="M503.933,347.224h 4.53543" fill="none" stroke="#ff0000" stroke-width="2"/>
<path d="M57.1929,347.224h 453.543" fill="none" stroke="black"/>
<path d="M129.869,337.964v 9.2593" fill="none" stroke="black"/>
<path d="M144.98,342.594v 4.62965" fill="none" stroke="black"/>
<path d="M160.09,342.594v 4.62965" fill="none" stroke="black"/>
<path d="M175.201,342.594v 4.62965" fill="none" stroke="black"/>
<path d="M190.312,342.594v 4.62965" fill="none" stroke="black"/>
<path d="M205.423,337.964v 9.2593" fill="none" stroke="black"/>
<path d="M220.533,342.594v 4.62965" fill="none" stroke="black"/>
<path d="M235.644,342.594v 4.62965" fill="none" stroke="black"/>
<path d="M250.755,342.594v 4.62965" fill="none" stroke="black"/>
<path d="M265.866,342.594v 4.62965" fill="none" stroke="black"/>
<path d="M280.976,337.964v 9.2593" fill="none" stroke="black"/>
<path d="M296.087,342.594v 4.62965" fill="none" stroke="black"/>
<path d="M311.198,342.594v 4.62965" fill="none" stroke="black"/>
<path d="M326.309,342.594v 4.62965" fill="none" stroke="black"/>
<path d="M341.419,342.594v 4.62965" fill="none" stroke="black"/>
<path d="M356.53,337.964v 9.2593" fill="none" stroke="black"/>
<path d="M371.641,342.594v 4.62965" fill="none" stroke="black"/>
<path d="M386.751,342.594v 4.62965" fill="none" stroke="black"/>
<path d="M401.862,342.594v 4.62965" fill="none" stroke="black"/>
<path d="M416.973,342.594v 4.62965" fill="none" stroke="black"/>
<path d="M432.084,337.964v 9.2593" fill="none" stroke="black"/>
<path d="M447.194,342.594v 4.62965" fill="none" stroke="black"/>
<path d="M462.305,342.594v 4.62965" fill="none" stroke="black"/>
<path d="M477.416,342.594v 4.62965" fill="none" stroke="black"/>
<path d="M492.527,342.594v 4.62965" fill="none" stroke="black"/>
<path d="M507.637,337.964v 9.2593" fill="none" stroke="black"/>
<path d="M129.869,337.964v 9.2593" fill="none" stroke="black"/>
<path d="M114.758,342.594v 4.62965" fill="none" stroke="black"/>
<path d="M99.6476,342.594v 4.62965" fill="none" stroke="black"/>
<path d="M84.5368,342.594v 4.62965" fill="none" stroke="black"/>
<path d="M69.4261,342.594v 4.62965" fill="none" stroke="black"/>
<path d="M507.637,337.964v 9.2593" fill="none" stroke="black"/>
<text xml:space="preserve" x="118.272" y="359.813" fill="black" font-size="12.8882" font-family="Helvetica">790</text>
<text xml:space="preserve" x="193.808" y="359.813" fill="black" font-size="12.8882" font-family="Helvetica">800</text>
<text xml:space="preserve" x="269.345" y="359.813" fill="black" font-size="12.8882" font-family="Helvetica">810</text>
<text xml:space="preserve" x="344.881" y="359.813" fill="black" font-size="12.8882" font-family="Helvetica">820</text>
<text xml:space="preserve" x="420.417" y="359.813" fill="black" font-size="12.8882" font-family="Helvetica">830</text>
<text xml:space="preserve" x="495.954" y="359.813" fill="black" font-size="12.8882" font-family="Helvetica">840</text>
<text xml:space="preserve" x="481.334" y="373.621" fill="black" font-size="12.8882" font-family="Helvetica">Time</text>
<path d="M57.1929,347.224v -308.643" fill="none" stroke="black"/>
<path d="M70.7992,347.224h -13.6063" fill="none" stroke="black"/>
<path d="M63.9961,336.726h -6.80315" fill="none" stroke="black"/>
<path d="M63.9961,326.228h -6.80315" fill="none" stroke="black"/>
<path d="M63.9961,315.73h -6.80315" fill="none" stroke="black"/>
<path d="M63.9961,305.233h -6.80315" fill="none" stroke="black"/>
<path d="M70.7992,294.735h -13.6063" fill="none" stroke="black"/>
<path d="M63.9961,284.237h -6.80315" fill="none" stroke="black"/>
<path d="M63.9961,273.739h -6.80315" fill="none" stroke="black"/>
<path d="M63.9961,263.241h -6.80315" fill="none" stroke="black"/>
<path d="M63.9961,252.744h -6.80315" fill="none" stroke="black"/>
<path d="M70.7992,242.246h -13.6063" fill="none" stroke="black"/>
<path d="M63.9961,231.748h -6.80315" fill="none" stroke="black"/>
<path d="M63.9961,221.25h -6.80315" fill="none" stroke="black"/>
<path d="M63.9961,210.752h -6.80315" fill="none" stroke="black"/>
<path d="M63.9961,200.255h -6.80315" fill="none" stroke="black"/>
<path d="M70.7992,189.757h -13.6063" fill="none" stroke="black"/>
<path d="M63.9961,179.259h -6.80315" fill="none" stroke="black"/>
<path d="M63.9961,168.761h -6.80315" fill="none" stroke="black"/>
<path d="M63.9961,158.263h -6.80315" fill="none" stroke="black"/>
<path d="M63.9961,147.765h -6.80315" fill="none" stroke="black"/>
<path d="M70.7992,137.268h -13.6063" fill="none" stroke="black"/>
<path d="M63.9961,126.77h -6.80315" fill="none" stroke="black"/>
<path d="M63.9961,116.272h -6.80315" fill="none" stroke="black"/>
<path d="M63.9961,105.774h -6.80315" fill="none" stroke="black"/>
<path d="M63.9961,95.2765h -6.80315" fill="none" stroke="black"/>
<path d="M70.7992,84.7787h -13.6063" fill="none" stroke="black"/>
<path d="M70.7992,84.7787h -13.6063" fill="none" stroke="black"/>
<path d="M63.9961,74.2809h -6.80315" fill="none" stroke="black"/>
<path d="M63.9961,63.783h -6.80315" fill="none" stroke="black"/>
<path d="M63.9961,53.2852h -6.80315" fill="none" stroke="black"/>
<path d="M63.9961,42.7874h -6.80315" fill="none" stroke="black"/>
<text xml:space="preserve" x="46.7965" y="351.691" fill="black" font-size="12.8882" font-family="Helvetica">0</text>
<text xml:space="preserve" x="46.7965" y="298.897" fill="black" font-size="12.8882" font-family="Helvetica">5</text>
<text xml:space="preserve" x="39.4865" y="246.915" fill="black" font-size="12.8882" font-family="Helvetica">10</text>
<text xml:space="preserve" x="39.4865" y="194.12" fill="black" font-size="12.8882" font-family="Helvetica">15</text>
<text xml:space="preserve" x="39.4865" y="142.138" fill="black" font-size="12.8882" font-family="Helvetica">20</text>
<text xml:space="preserve" x="39.4865" y="89.3441" fill="black" font-size="12.8882" font-family="Helvetica">25</text>
<g transform="rotate(-90,28.9277,71.4753)">
<text xml:space="preserve" x="28.9277" y="71.4753" fill="black" font-size="12.8882" font-family="Helvetica">Event</text>
</g>
<text xml:space="preserve" x="248.227" y="18.681" fill="black" font-size="17.0471" font-family="Helvetica">560mm 2</text></svg>
