<?xml version="1.0" standalone="no"?>
<svg width="567.429" height="386.304" viewBox="0 0 567.429 386.304" xmlns="http://www.w3.org/2000/svg" shape-rendering="crispEdges">
<title>
img/week2/Combined420mm_ch_54.svg
</title>
<desc>
Creator: ROOT Version 6.22/08
CreationDate: Mon Jun 21 21:32:48 2021</desc>
<defs>
</defs>
<rect x="0.5" y="0" width="566.929" height="385.804" fill="white"/>
<rect x="57.1929" y="38.5804" width="453.543" height="308.643" fill="white"/>
<rect x="57.1929" y="38.5804" width="453.543" height="308.643" fill="none" stroke="black"/>
<rect x="57.1929" y="38.5804" width="453.543" height="308.643" fill="white"/>
<rect x="57.1929" y="38.5804" width="453.543" height="308.643" fill="none" stroke="black"/>
<path d="M57.1929,347.224h 151.181v -24.5662h 30.2362v -44.2192h 30.2362v -201.443h 30.2362v 49.1325h 30.2362v 211.27h 30.2362v 9.8265h 151.181" fill="none" stroke="#000099"/>
<g fill="#ff0000">
<polygon points=" 279.741, 72.7716 288.188, 72.7716 283.965, 81.2187"/>
</g>
<path d="M59.4606,347.224h 140.598l 4.53543, -0.0738824l 4.53543, -0.0978809l 4.53543, -0.210042l 4.53543, -0.429672l 4.53543, -0.837569l 4.53543, -1.55509l 4.53543, -2.74854l 4.53543, -4.62124l 4.53543, -7.38506l 4.53543, -11.2052l 4.53543,
 -16.1193l 4.53543, -21.9449l 4.53543, -28.2023l 4.53543, -34.0919l 4.53543, -38.561l 4.53543, -40.4747l 4.53543, -38.8714l 4.53543, -33.242" fill="none" stroke="#ff0000" stroke-width="2"/>
<path d="M281.697,66.5522l 4.53543, -23.7445l 1.70084, -4.22736" fill="none" stroke="#ff0000" stroke-width="2"/>
<path d="M296.524,38.5804l 3.31439, 11.881" fill="none" stroke="#ff0000" stroke-width="2"/>
<path d="M299.839,50.4615l 4.53543, 27.7531l 4.53543, 35.8525l 4.53543, 39.9372l 4.53543, 40.1191l 4.53543, 37.1095l 4.53543, 31.9687l 4.53543, 25.8271l 4.53543, 19.656l 4.53543, 14.1364l 4.53543, 9.62874l 4.53543, 6.22176l 4.53543, 3.81872l 4.53543,
 2.2285l 4.53543, 1.23748l 4.53543, 0.654293l 4.53543, 0.329563l 4.53543, 0.158207l 4.53543, 0.0724086l 4.53543, 0.0530613h 122.457" fill="none" stroke="#ff0000" stroke-width="2"/>
<path d="M57.1929,347.224h 453.543" fill="none" stroke="black"/>
<path d="M84.5516,337.964v 9.2593" fill="none" stroke="black"/>
<path d="M99.6623,342.594v 4.62965" fill="none" stroke="black"/>
<path d="M114.773,342.594v 4.62965" fill="none" stroke="black"/>
<path d="M129.884,342.594v 4.62965" fill="none" stroke="black"/>
<path d="M144.995,342.594v 4.62965" fill="none" stroke="black"/>
<path d="M160.105,337.964v 9.2593" fill="none" stroke="black"/>
<path d="M175.216,342.594v 4.62965" fill="none" stroke="black"/>
<path d="M190.327,342.594v 4.62965" fill="none" stroke="black"/>
<path d="M205.437,342.594v 4.62965" fill="none" stroke="black"/>
<path d="M220.548,342.594v 4.62965" fill="none" stroke="black"/>
<path d="M235.659,337.964v 9.2593" fill="none" stroke="black"/>
<path d="M250.77,342.594v 4.62965" fill="none" stroke="black"/>
<path d="M265.88,342.594v 4.62965" fill="none" stroke="black"/>
<path d="M280.991,342.594v 4.62965" fill="none" stroke="black"/>
<path d="M296.102,342.594v 4.62965" fill="none" stroke="black"/>
<path d="M311.213,337.964v 9.2593" fill="none" stroke="black"/>
<path d="M326.323,342.594v 4.62965" fill="none" stroke="black"/>
<path d="M341.434,342.594v 4.62965" fill="none" stroke="black"/>
<path d="M356.545,342.594v 4.62965" fill="none" stroke="black"/>
<path d="M371.656,342.594v 4.62965" fill="none" stroke="black"/>
<path d="M386.766,337.964v 9.2593" fill="none" stroke="black"/>
<path d="M401.877,342.594v 4.62965" fill="none" stroke="black"/>
<path d="M416.988,342.594v 4.62965" fill="none" stroke="black"/>
<path d="M432.098,342.594v 4.62965" fill="none" stroke="black"/>
<path d="M447.209,342.594v 4.62965" fill="none" stroke="black"/>
<path d="M462.32,337.964v 9.2593" fill="none" stroke="black"/>
<path d="M84.5516,337.964v 9.2593" fill="none" stroke="black"/>
<path d="M69.4409,342.594v 4.62965" fill="none" stroke="black"/>
<path d="M462.32,337.964v 9.2593" fill="none" stroke="black"/>
<path d="M477.431,342.594v 4.62965" fill="none" stroke="black"/>
<path d="M492.541,342.594v 4.62965" fill="none" stroke="black"/>
<path d="M507.652,342.594v 4.62965" fill="none" stroke="black"/>
<text xml:space="preserve" x="72.7875" y="359.813" fill="black" font-size="12.8882" font-family="Helvetica">780</text>
<text xml:space="preserve" x="148.324" y="359.813" fill="black" font-size="12.8882" font-family="Helvetica">790</text>
<text xml:space="preserve" x="223.86" y="359.813" fill="black" font-size="12.8882" font-family="Helvetica">800</text>
<text xml:space="preserve" x="299.397" y="359.813" fill="black" font-size="12.8882" font-family="Helvetica">810</text>
<text xml:space="preserve" x="374.933" y="359.813" fill="black" font-size="12.8882" font-family="Helvetica">820</text>
<text xml:space="preserve" x="450.47" y="359.813" fill="black" font-size="12.8882" font-family="Helvetica">830</text>
<text xml:space="preserve" x="481.334" y="373.621" fill="black" font-size="12.8882" font-family="Helvetica">Time</text>
<path d="M57.1929,347.224v -308.643" fill="none" stroke="black"/>
<path d="M70.7992,347.224h -13.6063" fill="none" stroke="black"/>
<path d="M63.9961,337.397h -6.80315" fill="none" stroke="black"/>
<path d="M63.9961,327.571h -6.80315" fill="none" stroke="black"/>
<path d="M63.9961,317.744h -6.80315" fill="none" stroke="black"/>
<path d="M63.9961,307.918h -6.80315" fill="none" stroke="black"/>
<path d="M70.7992,298.091h -13.6063" fill="none" stroke="black"/>
<path d="M63.9961,288.265h -6.80315" fill="none" stroke="black"/>
<path d="M63.9961,278.438h -6.80315" fill="none" stroke="black"/>
<path d="M63.9961,268.612h -6.80315" fill="none" stroke="black"/>
<path d="M63.9961,258.785h -6.80315" fill="none" stroke="black"/>
<path d="M70.7992,248.959h -13.6063" fill="none" stroke="black"/>
<path d="M63.9961,239.132h -6.80315" fill="none" stroke="black"/>
<path d="M63.9961,229.306h -6.80315" fill="none" stroke="black"/>
<path d="M63.9961,219.479h -6.80315" fill="none" stroke="black"/>
<path d="M63.9961,209.653h -6.80315" fill="none" stroke="black"/>
<path d="M70.7992,199.826h -13.6063" fill="none" stroke="black"/>
<path d="M63.9961,190h -6.80315" fill="none" stroke="black"/>
<path d="M63.9961,180.173h -6.80315" fill="none" stroke="black"/>
<path d="M63.9961,170.347h -6.80315" fill="none" stroke="black"/>
<path d="M63.9961,160.52h -6.80315" fill="none" stroke="black"/>
<path d="M70.7992,150.694h -13.6063" fill="none" stroke="black"/>
<path d="M63.9961,140.867h -6.80315" fill="none" stroke="black"/>
<path d="M63.9961,131.041h -6.80315" fill="none" stroke="black"/>
<path d="M63.9961,121.214h -6.80315" fill="none" stroke="black"/>
<path d="M63.9961,111.388h -6.80315" fill="none" stroke="black"/>
<path d="M70.7992,101.561h -13.6063" fill="none" stroke="black"/>
<path d="M63.9961,91.7349h -6.80315" fill="none" stroke="black"/>
<path d="M63.9961,81.9084h -6.80315" fill="none" stroke="black"/>
<path d="M63.9961,72.0819h -6.80315" fill="none" stroke="black"/>
<path d="M63.9961,62.2554h -6.80315" fill="none" stroke="black"/>
<path d="M70.7992,52.4289h -13.6063" fill="none" stroke="black"/>
<path d="M70.7992,52.4289h -13.6063" fill="none" stroke="black"/>
<path d="M63.9961,42.6024h -6.80315" fill="none" stroke="black"/>
<text xml:space="preserve" x="46.7965" y="351.691" fill="black" font-size="12.8882" font-family="Helvetica">0</text>
<text xml:space="preserve" x="39.4865" y="302.958" fill="black" font-size="12.8882" font-family="Helvetica">10</text>
<text xml:space="preserve" x="39.4865" y="253.412" fill="black" font-size="12.8882" font-family="Helvetica">20</text>
<text xml:space="preserve" x="39.4865" y="204.679" fill="black" font-size="12.8882" font-family="Helvetica">30</text>
<text xml:space="preserve" x="39.4865" y="155.134" fill="black" font-size="12.8882" font-family="Helvetica">40</text>
<text xml:space="preserve" x="39.4865" y="106.401" fill="black" font-size="12.8882" font-family="Helvetica">50</text>
<text xml:space="preserve" x="39.4865" y="56.8554" fill="black" font-size="12.8882" font-family="Helvetica">60</text>
<g transform="rotate(-90,28.9277,71.4753)">
<text xml:space="preserve" x="28.9277" y="71.4753" fill="black" font-size="12.8882" font-family="Helvetica">Event</text>
</g>
<text xml:space="preserve" x="243.354" y="18.681" fill="black" font-size="17.0471" font-family="Helvetica">420mm 54</text></svg>
