<?xml version="1.0" standalone="no"?>
<svg width="567.429" height="384.969" viewBox="0 0 567.429 384.969" xmlns="http://www.w3.org/2000/svg" shape-rendering="crispEdges">
<title>
img/week2/Combined0mm_ch_32.svg
</title>
<desc>
Creator: ROOT Version 6.22/09
CreationDate: Thu Jun 24 12:12:15 2021</desc>
<defs>
</defs>
<rect x="0.5" y="0" width="566.929" height="384.469" fill="white"/>
<rect x="57.1929" y="38.4469" width="453.543" height="307.575" fill="white"/>
<rect x="57.1929" y="38.4469" width="453.543" height="307.575" fill="none" stroke="black"/>
<rect x="57.1929" y="38.4469" width="453.543" height="307.575" fill="white"/>
<rect x="57.1929" y="38.4469" width="453.543" height="307.575" fill="none" stroke="black"/>
<path d="M57.1929,346.022h 97.1879v -4.31383h 32.396v -2.15691h 32.396v -56.0797h 32.396v -220.005h 32.396v 146.67h 32.396v 133.729h 32.396v 2.15691h 161.98" fill="none" stroke="#000099"/>
<g fill="#ff0000">
<polygon points=" 263.531, 59.2309 272.002, 59.2309 267.767, 67.7023"/>
</g>
<path d="M59.4606,346.022h 122.457l 4.53543, -0.054279l 4.53543, -0.0773521l 4.53543, -0.172615l 4.53543, -0.365998l 4.53543, -0.73704l 4.53543, -1.40896l 4.53543, -2.55531l 4.53543, -4.3934l 4.53543, -7.1543l 4.53543, -11.0211l 4.53543, -16.0365l
 4.53543, -21.9947l 4.53543, -28.3541l 4.53543, -34.2159l 4.53543, -38.4129l 4.53543, -39.723l 4.53543, -37.1758l 4.53543, -30.3703l 4.53543, -19.6912l 4.53543, -6.33225l 4.53543, 7.91487l 4.53543, 21.0539" fill="none" stroke="#ff0000"
 stroke-width="2"/>
<path d="M281.697,74.7438l 4.53543, 31.343l 4.53543, 37.6735l 4.53543, 39.754l 4.53543, 38.0635l 4.53543, 33.617l 4.53543, 27.6446l 4.53543, 21.2917l 4.53543, 15.4192l 4.53543, 10.5282l 4.53543, 6.79132l 4.53543, 4.14489l 4.53543, 2.39624l 4.53543,
 1.31341l 4.53543, 0.68303l 4.53543, 0.337211l 4.53543, 0.158124l 4.53543, 0.0704536l 4.53543, 0.0489869h 140.598" fill="none" stroke="#ff0000" stroke-width="2"/>
<path d="M503.933,346.022h 4.53543" fill="none" stroke="#ff0000" stroke-width="2"/>
<path d="M57.1929,346.022h 453.543" fill="none" stroke="black"/>
<path d="M102.664,336.795v 9.22726" fill="none" stroke="black"/>
<path d="M118.854,341.409v 4.61363" fill="none" stroke="black"/>
<path d="M135.044,341.409v 4.61363" fill="none" stroke="black"/>
<path d="M151.234,341.409v 4.61363" fill="none" stroke="black"/>
<path d="M167.425,341.409v 4.61363" fill="none" stroke="black"/>
<path d="M183.615,336.795v 9.22726" fill="none" stroke="black"/>
<path d="M199.805,341.409v 4.61363" fill="none" stroke="black"/>
<path d="M215.995,341.409v 4.61363" fill="none" stroke="black"/>
<path d="M232.185,341.409v 4.61363" fill="none" stroke="black"/>
<path d="M248.375,341.409v 4.61363" fill="none" stroke="black"/>
<path d="M264.565,336.795v 9.22726" fill="none" stroke="black"/>
<path d="M280.755,341.409v 4.61363" fill="none" stroke="black"/>
<path d="M296.945,341.409v 4.61363" fill="none" stroke="black"/>
<path d="M313.135,341.409v 4.61363" fill="none" stroke="black"/>
<path d="M329.325,341.409v 4.61363" fill="none" stroke="black"/>
<path d="M345.515,336.795v 9.22726" fill="none" stroke="black"/>
<path d="M361.705,341.409v 4.61363" fill="none" stroke="black"/>
<path d="M377.895,341.409v 4.61363" fill="none" stroke="black"/>
<path d="M394.086,341.409v 4.61363" fill="none" stroke="black"/>
<path d="M410.276,341.409v 4.61363" fill="none" stroke="black"/>
<path d="M426.466,336.795v 9.22726" fill="none" stroke="black"/>
<path d="M442.656,341.409v 4.61363" fill="none" stroke="black"/>
<path d="M458.846,341.409v 4.61363" fill="none" stroke="black"/>
<path d="M475.036,341.409v 4.61363" fill="none" stroke="black"/>
<path d="M491.226,341.409v 4.61363" fill="none" stroke="black"/>
<path d="M507.416,336.795v 9.22726" fill="none" stroke="black"/>
<path d="M102.664,336.795v 9.22726" fill="none" stroke="black"/>
<path d="M86.4742,341.409v 4.61363" fill="none" stroke="black"/>
<path d="M70.2841,341.409v 4.61363" fill="none" stroke="black"/>
<path d="M507.416,336.795v 9.22726" fill="none" stroke="black"/>
<text xml:space="preserve" x="91.73" y="358.403" fill="black" font-size="12.8453" font-family="Helvetica">790</text>
<text xml:space="preserve" x="172.371" y="358.403" fill="black" font-size="12.8453" font-family="Helvetica">800</text>
<text xml:space="preserve" x="253.826" y="358.403" fill="black" font-size="12.8453" font-family="Helvetica">810</text>
<text xml:space="preserve" x="334.467" y="358.403" fill="black" font-size="12.8453" font-family="Helvetica">820</text>
<text xml:space="preserve" x="415.108" y="358.403" fill="black" font-size="12.8453" font-family="Helvetica">830</text>
<text xml:space="preserve" x="496.563" y="358.403" fill="black" font-size="12.8453" font-family="Helvetica">840</text>
<text xml:space="preserve" x="460.723" y="370.622" fill="black" font-size="12.8453" font-family="Helvetica">Time [ps]</text>
<path d="M57.1929,346.022v -307.575" fill="none" stroke="black"/>
<path d="M70.7992,346.022h -13.6063" fill="none" stroke="black"/>
<path d="M63.9961,335.238h -6.80315" fill="none" stroke="black"/>
<path d="M63.9961,324.453h -6.80315" fill="none" stroke="black"/>
<path d="M63.9961,313.669h -6.80315" fill="none" stroke="black"/>
<path d="M70.7992,302.884h -13.6063" fill="none" stroke="black"/>
<path d="M63.9961,292.099h -6.80315" fill="none" stroke="black"/>
<path d="M63.9961,281.315h -6.80315" fill="none" stroke="black"/>
<path d="M63.9961,270.53h -6.80315" fill="none" stroke="black"/>
<path d="M70.7992,259.746h -13.6063" fill="none" stroke="black"/>
<path d="M63.9961,248.961h -6.80315" fill="none" stroke="black"/>
<path d="M63.9961,238.177h -6.80315" fill="none" stroke="black"/>
<path d="M63.9961,227.392h -6.80315" fill="none" stroke="black"/>
<path d="M70.7992,216.607h -13.6063" fill="none" stroke="black"/>
<path d="M63.9961,205.823h -6.80315" fill="none" stroke="black"/>
<path d="M63.9961,195.038h -6.80315" fill="none" stroke="black"/>
<path d="M63.9961,184.254h -6.80315" fill="none" stroke="black"/>
<path d="M70.7992,173.469h -13.6063" fill="none" stroke="black"/>
<path d="M63.9961,162.685h -6.80315" fill="none" stroke="black"/>
<path d="M63.9961,151.9h -6.80315" fill="none" stroke="black"/>
<path d="M63.9961,141.115h -6.80315" fill="none" stroke="black"/>
<path d="M70.7992,130.331h -13.6063" fill="none" stroke="black"/>
<path d="M63.9961,119.546h -6.80315" fill="none" stroke="black"/>
<path d="M63.9961,108.762h -6.80315" fill="none" stroke="black"/>
<path d="M63.9961,97.9772h -6.80315" fill="none" stroke="black"/>
<path d="M70.7992,87.1927h -13.6063" fill="none" stroke="black"/>
<path d="M63.9961,76.4081h -6.80315" fill="none" stroke="black"/>
<path d="M63.9961,65.6235h -6.80315" fill="none" stroke="black"/>
<path d="M63.9961,54.839h -6.80315" fill="none" stroke="black"/>
<path d="M70.7992,44.0544h -13.6063" fill="none" stroke="black"/>
<path d="M70.7992,44.0544h -13.6063" fill="none" stroke="black"/>
<text xml:space="preserve" x="47.7441" y="350.258" fill="black" font-size="12.8453" font-family="Helvetica">0</text>
<text xml:space="preserve" x="41.2277" y="307.087" fill="black" font-size="12.8453" font-family="Helvetica">20</text>
<text xml:space="preserve" x="41.2277" y="263.915" fill="black" font-size="12.8453" font-family="Helvetica">40</text>
<text xml:space="preserve" x="41.2277" y="220.744" fill="black" font-size="12.8453" font-family="Helvetica">60</text>
<text xml:space="preserve" x="41.2277" y="177.573" fill="black" font-size="12.8453" font-family="Helvetica">80</text>
<text xml:space="preserve" x="33.8967" y="135.216" fill="black" font-size="12.8453" font-family="Helvetica">100</text>
<text xml:space="preserve" x="33.8967" y="92.0445" fill="black" font-size="12.8453" font-family="Helvetica">120</text>
<text xml:space="preserve" x="33.8967" y="48.8732" fill="black" font-size="12.8453" font-family="Helvetica">140</text>
<g transform="rotate(-90,20.8638,70.0516)">
<text xml:space="preserve" x="20.8638" y="70.0516" fill="black" font-size="12.8453" font-family="Helvetica">Event</text>
</g>
<text xml:space="preserve" x="253.012" y="18.7347" fill="black" font-size="16.9898" font-family="Helvetica">0mm 32</text></svg>
