<?xml version="1.0" standalone="no"?>
<svg width="567.429" height="384.969" viewBox="0 0 567.429 384.969" xmlns="http://www.w3.org/2000/svg" shape-rendering="crispEdges">
<title>
img/week2/Combined280mm_ch_42.svg
</title>
<desc>
Creator: ROOT Version 6.22/09
CreationDate: Thu Jun 24 12:12:15 2021</desc>
<defs>
</defs>
<rect x="0.5" y="0" width="566.929" height="384.469" fill="white"/>
<rect x="57.1929" y="38.4469" width="453.543" height="307.575" fill="white"/>
<rect x="57.1929" y="38.4469" width="453.543" height="307.575" fill="none" stroke="black"/>
<rect x="57.1929" y="38.4469" width="453.543" height="307.575" fill="white"/>
<rect x="57.1929" y="38.4469" width="453.543" height="307.575" fill="none" stroke="black"/>
<path d="M57.1929,346.022h 90.7087v -2.41266h 30.2362v 2.41266h 30.2362v -12.0633h 30.2362v -55.4913h 30.2362v -224.378h 30.2362v 156.823h 30.2362v 130.284h 30.2362v 4.82533h 151.181" fill="none" stroke="#000099"/>
<g fill="#ff0000">
<polygon points=" 279.729, 49.8543 288.2, 49.8543 283.965, 58.3256"/>
</g>
<path d="M59.4606,346.022h 140.598l 4.53543, -0.0586446l 4.53543, -0.0857971l 4.53543, -0.193876l 4.53543, -0.415252l 4.53543, -0.84264l 4.53543, -1.61911l 4.53543, -2.94389l 4.53543, -5.0608l 4.53543, -8.21697l 4.53543, -12.5838l 4.53543, -18.1444l
 4.53543, -24.5725l 4.53543, -31.1498l 4.53543, -36.7773l 4.53543, -40.1268l 4.53543, -39.9304l 4.53543, -35.3479l 4.53543, -26.2969" fill="none" stroke="#ff0000" stroke-width="2"/>
<path d="M281.697,61.6556l 4.53543, -13.6136l 4.53543, 1.04374l 4.53543, 15.5476l 4.53543, 27.8073l 4.53543, 36.2636l 4.53543, 40.2088l 4.53543, 39.8461l 4.53543, 36.0973l 4.53543, 30.2601l 4.53543, 23.6455l 4.53543, 17.3046l 4.53543, 11.8994l
 4.53543, 7.70615l 4.53543, 4.70815l 4.53543, 2.71725l 4.53543, 1.48291l 4.53543, 0.765873l 4.53543, 0.374575l 4.53543, 0.173577l 4.53543, 0.0762443l 4.53543, 0.0515044h 126.992" fill="none" stroke="#ff0000" stroke-width="2"/>
<path d="M503.933,346.022h 4.53543" fill="none" stroke="#ff0000" stroke-width="2"/>
<path d="M57.1929,346.022h 453.543" fill="none" stroke="black"/>
<path d="M84.5516,336.795v 9.22726" fill="none" stroke="black"/>
<path d="M99.6623,341.409v 4.61363" fill="none" stroke="black"/>
<path d="M114.773,341.409v 4.61363" fill="none" stroke="black"/>
<path d="M129.884,341.409v 4.61363" fill="none" stroke="black"/>
<path d="M144.995,341.409v 4.61363" fill="none" stroke="black"/>
<path d="M160.105,336.795v 9.22726" fill="none" stroke="black"/>
<path d="M175.216,341.409v 4.61363" fill="none" stroke="black"/>
<path d="M190.327,341.409v 4.61363" fill="none" stroke="black"/>
<path d="M205.437,341.409v 4.61363" fill="none" stroke="black"/>
<path d="M220.548,341.409v 4.61363" fill="none" stroke="black"/>
<path d="M235.659,336.795v 9.22726" fill="none" stroke="black"/>
<path d="M250.77,341.409v 4.61363" fill="none" stroke="black"/>
<path d="M265.88,341.409v 4.61363" fill="none" stroke="black"/>
<path d="M280.991,341.409v 4.61363" fill="none" stroke="black"/>
<path d="M296.102,341.409v 4.61363" fill="none" stroke="black"/>
<path d="M311.213,336.795v 9.22726" fill="none" stroke="black"/>
<path d="M326.323,341.409v 4.61363" fill="none" stroke="black"/>
<path d="M341.434,341.409v 4.61363" fill="none" stroke="black"/>
<path d="M356.545,341.409v 4.61363" fill="none" stroke="black"/>
<path d="M371.656,341.409v 4.61363" fill="none" stroke="black"/>
<path d="M386.766,336.795v 9.22726" fill="none" stroke="black"/>
<path d="M401.877,341.409v 4.61363" fill="none" stroke="black"/>
<path d="M416.988,341.409v 4.61363" fill="none" stroke="black"/>
<path d="M432.098,341.409v 4.61363" fill="none" stroke="black"/>
<path d="M447.209,341.409v 4.61363" fill="none" stroke="black"/>
<path d="M462.32,336.795v 9.22726" fill="none" stroke="black"/>
<path d="M84.5516,336.795v 9.22726" fill="none" stroke="black"/>
<path d="M69.4409,341.409v 4.61363" fill="none" stroke="black"/>
<path d="M462.32,336.795v 9.22726" fill="none" stroke="black"/>
<path d="M477.431,341.409v 4.61363" fill="none" stroke="black"/>
<path d="M492.541,341.409v 4.61363" fill="none" stroke="black"/>
<path d="M507.652,341.409v 4.61363" fill="none" stroke="black"/>
<text xml:space="preserve" x="73.8098" y="358.403" fill="black" font-size="12.8453" font-family="Helvetica">780</text>
<text xml:space="preserve" x="148.749" y="358.403" fill="black" font-size="12.8453" font-family="Helvetica">790</text>
<text xml:space="preserve" x="224.502" y="358.403" fill="black" font-size="12.8453" font-family="Helvetica">800</text>
<text xml:space="preserve" x="300.256" y="358.403" fill="black" font-size="12.8453" font-family="Helvetica">810</text>
<text xml:space="preserve" x="376.009" y="358.403" fill="black" font-size="12.8453" font-family="Helvetica">820</text>
<text xml:space="preserve" x="450.948" y="358.403" fill="black" font-size="12.8453" font-family="Helvetica">830</text>
<text xml:space="preserve" x="460.723" y="370.622" fill="black" font-size="12.8453" font-family="Helvetica">Time [ps]</text>
<path d="M57.1929,346.022v -307.575" fill="none" stroke="black"/>
<path d="M70.7992,346.022h -13.6063" fill="none" stroke="black"/>
<path d="M63.9961,333.959h -6.80315" fill="none" stroke="black"/>
<path d="M63.9961,321.896h -6.80315" fill="none" stroke="black"/>
<path d="M63.9961,309.832h -6.80315" fill="none" stroke="black"/>
<path d="M70.7992,297.769h -13.6063" fill="none" stroke="black"/>
<path d="M63.9961,285.706h -6.80315" fill="none" stroke="black"/>
<path d="M63.9961,273.642h -6.80315" fill="none" stroke="black"/>
<path d="M63.9961,261.579h -6.80315" fill="none" stroke="black"/>
<path d="M70.7992,249.516h -13.6063" fill="none" stroke="black"/>
<path d="M63.9961,237.452h -6.80315" fill="none" stroke="black"/>
<path d="M63.9961,225.389h -6.80315" fill="none" stroke="black"/>
<path d="M63.9961,213.326h -6.80315" fill="none" stroke="black"/>
<path d="M70.7992,201.262h -13.6063" fill="none" stroke="black"/>
<path d="M63.9961,189.199h -6.80315" fill="none" stroke="black"/>
<path d="M63.9961,177.136h -6.80315" fill="none" stroke="black"/>
<path d="M63.9961,165.072h -6.80315" fill="none" stroke="black"/>
<path d="M70.7992,153.009h -13.6063" fill="none" stroke="black"/>
<path d="M63.9961,140.946h -6.80315" fill="none" stroke="black"/>
<path d="M63.9961,128.883h -6.80315" fill="none" stroke="black"/>
<path d="M63.9961,116.819h -6.80315" fill="none" stroke="black"/>
<path d="M70.7992,104.756h -13.6063" fill="none" stroke="black"/>
<path d="M63.9961,92.6926h -6.80315" fill="none" stroke="black"/>
<path d="M63.9961,80.6292h -6.80315" fill="none" stroke="black"/>
<path d="M63.9961,68.5659h -6.80315" fill="none" stroke="black"/>
<path d="M70.7992,56.5026h -13.6063" fill="none" stroke="black"/>
<path d="M70.7992,56.5026h -13.6063" fill="none" stroke="black"/>
<path d="M63.9961,44.4393h -6.80315" fill="none" stroke="black"/>
<text xml:space="preserve" x="47.7441" y="350.258" fill="black" font-size="12.8453" font-family="Helvetica">0</text>
<text xml:space="preserve" x="41.2277" y="302.199" fill="black" font-size="12.8453" font-family="Helvetica">20</text>
<text xml:space="preserve" x="41.2277" y="254.141" fill="black" font-size="12.8453" font-family="Helvetica">40</text>
<text xml:space="preserve" x="41.2277" y="206.082" fill="black" font-size="12.8453" font-family="Helvetica">60</text>
<text xml:space="preserve" x="41.2277" y="157.209" fill="black" font-size="12.8453" font-family="Helvetica">80</text>
<text xml:space="preserve" x="33.8967" y="109.15" fill="black" font-size="12.8453" font-family="Helvetica">100</text>
<text xml:space="preserve" x="33.8967" y="61.0915" fill="black" font-size="12.8453" font-family="Helvetica">120</text>
<g transform="rotate(-90,20.8638,70.0516)">
<text xml:space="preserve" x="20.8638" y="70.0516" fill="black" font-size="12.8453" font-family="Helvetica">Event</text>
</g>
<text xml:space="preserve" x="243.237" y="18.7347" fill="black" font-size="16.9898" font-family="Helvetica">280mm 42</text></svg>
