<?xml version="1.0" standalone="no"?>
<svg width="567.429" height="386.304" viewBox="0 0 567.429 386.304" xmlns="http://www.w3.org/2000/svg" shape-rendering="crispEdges">
<title>
img/week2/Combined420mm_ch_32.svg
</title>
<desc>
Creator: ROOT Version 6.22/08
CreationDate: Mon Jun 21 21:12:47 2021</desc>
<defs>
</defs>
<rect x="0.5" y="0" width="566.929" height="385.804" fill="white"/>
<rect x="57.1929" y="38.5804" width="453.543" height="308.643" fill="white"/>
<rect x="57.1929" y="38.5804" width="453.543" height="308.643" fill="none" stroke="black"/>
<rect x="57.1929" y="38.5804" width="453.543" height="308.643" fill="white"/>
<rect x="57.1929" y="38.5804" width="453.543" height="308.643" fill="none" stroke="black"/>
<path d="M57.1929,347.224h 129.584v -8.39846h 32.396v -19.5964h 32.396v -201.563h 32.396v -64.3882h 32.396v 277.149h 32.396v 16.7969h 161.98" fill="none" stroke="#000099"/>
<g fill="#ff0000">
<polygon points=" 295.939, 49.0542 304.386, 49.0542 300.163, 57.5013"/>
</g>
<path d="M59.4606,347.224h 136.063l 4.53543, -0.0470796l 4.53543, -0.0720918l 4.53543, -0.167511l 4.53543, -0.368739l 4.53543, -0.768646l 4.53543, -1.5165l 4.53543, -2.83004l 4.53543, -4.99161l 4.53543, -8.31313l 4.53543, -13.0563l 4.53543, -19.3064l
 4.53543, -26.8195l 4.53543, -34.8934l 4.53543, -42.3311l 4.53543, -47.5631l 4.53543, -48.9517l 4.53543, -45.2299l 1.44044, -11.4167" fill="none" stroke="#ff0000" stroke-width="2"/>
<path d="M296.126,38.5804l 3.71226, 33.8922" fill="none" stroke="#ff0000" stroke-width="2"/>
<path d="M299.839,72.4726l 4.53543, 47.8357l 4.53543, 48.8093l 4.53543, 45.2493l 4.53543, 38.6724l 4.53543, 30.7296l 4.53543, 22.8254l 4.53543, 15.9061l 4.53543, 10.4257l 4.53543, 6.43963l 4.53543, 3.75358l 4.53543, 2.06698l 4.53543, 1.07623l
 4.53543, 0.530226l 4.53543, 0.247311l 4.53543, 0.109259l 4.53543, 0.0743503h 136.063" fill="none" stroke="#ff0000" stroke-width="2"/>
<rect x="351.996" y="25.0773" width="204.094" height="108.025" fill="white"/>
<path d="M351.996,133.102h 204.094" fill="none" stroke="black"/>
<path d="M556.091,133.102v -108.025" fill="none" stroke="black"/>
<path d="M556.091,25.0773h -204.094" fill="none" stroke="black"/>
<path d="M351.996,25.0773v 108.025" fill="none" stroke="black"/>
<text xml:space="preserve" x="361.938" y="38.9865" fill="black" font-size="15.6962" font-family="Helvetica">Entries </text>
<text xml:space="preserve" x="515.447" y="38.9865" fill="black" font-size="15.6962" font-family="Helvetica"> 207</text>
<text xml:space="preserve" x="375.745" y="57.6676" fill="black" font-size="15.6962" font-family="Helvetica"> / ndf </text>
<text xml:space="preserve" x="370.06" y="52.7943" fill="black" font-size="10.6308" font-family="Helvetica">2</text>
<text xml:space="preserve" x="361.938" y="57.6676" fill="black" font-size="15.6962" font-family="Times">&#0967;</text>
<text xml:space="preserve" x="481.334" y="57.6676" fill="black" font-size="15.6962" font-family="Helvetica"> 6.265 / 2</text>
<text xml:space="preserve" x="361.938" y="75.5364" fill="black" font-size="15.6962" font-family="Helvetica">Prob  </text>
<text xml:space="preserve" x="494.329" y="75.5364" fill="black" font-size="15.6962" font-family="Helvetica"> 0.0436</text>
<text xml:space="preserve" x="361.938" y="94.2175" fill="black" font-size="15.6962" font-family="Helvetica">Const    </text>
<text xml:space="preserve" x="511.386" y="93.4052" fill="black" font-size="15.6962" font-family="Helvetica"> 12.3</text>
<text xml:space="preserve" x="502.452" y="93.4052" fill="black" font-size="15.6962" font-family="Times">&#0177;</text>
<text xml:space="preserve" x="454.531" y="93.4052" fill="black" font-size="15.6962" font-family="Helvetica"> 128.6 </text>
<text xml:space="preserve" x="361.938" y="111.274" fill="black" font-size="15.6962" font-family="Helvetica">Mean     </text>
<text xml:space="preserve" x="520.32" y="111.274" fill="black" font-size="15.6962" font-family="Helvetica"> 0.2</text>
<text xml:space="preserve" x="511.386" y="111.274" fill="black" font-size="15.6962" font-family="Times">&#0177;</text>
<text xml:space="preserve" x="463.465" y="111.274" fill="black" font-size="15.6962" font-family="Helvetica"> 808.5 </text>
<text xml:space="preserve" x="361.938" y="128.331" fill="black" font-size="15.6962" font-family="Helvetica">Sigma    </text>
<text xml:space="preserve" x="502.452" y="129.143" fill="black" font-size="15.6962" font-family="Helvetica"> 0.158</text>
<text xml:space="preserve" x="493.517" y="129.143" fill="black" font-size="15.6962" font-family="Times">&#0177;</text>
<text xml:space="preserve" x="446.408" y="129.143" fill="black" font-size="15.6962" font-family="Helvetica"> 2.483 </text>
<path d="M57.1929,347.224h 453.543" fill="none" stroke="black"/>
<path d="M135.06,337.964v 9.2593" fill="none" stroke="black"/>
<path d="M151.25,342.594v 4.62965" fill="none" stroke="black"/>
<path d="M167.44,342.594v 4.62965" fill="none" stroke="black"/>
<path d="M183.63,342.594v 4.62965" fill="none" stroke="black"/>
<path d="M199.82,342.594v 4.62965" fill="none" stroke="black"/>
<path d="M216.011,337.964v 9.2593" fill="none" stroke="black"/>
<path d="M232.201,342.594v 4.62965" fill="none" stroke="black"/>
<path d="M248.391,342.594v 4.62965" fill="none" stroke="black"/>
<path d="M264.581,342.594v 4.62965" fill="none" stroke="black"/>
<path d="M280.771,342.594v 4.62965" fill="none" stroke="black"/>
<path d="M296.961,337.964v 9.2593" fill="none" stroke="black"/>
<path d="M313.151,342.594v 4.62965" fill="none" stroke="black"/>
<path d="M329.341,342.594v 4.62965" fill="none" stroke="black"/>
<path d="M345.531,342.594v 4.62965" fill="none" stroke="black"/>
<path d="M361.721,342.594v 4.62965" fill="none" stroke="black"/>
<path d="M377.911,337.964v 9.2593" fill="none" stroke="black"/>
<path d="M394.101,342.594v 4.62965" fill="none" stroke="black"/>
<path d="M410.291,342.594v 4.62965" fill="none" stroke="black"/>
<path d="M426.481,342.594v 4.62965" fill="none" stroke="black"/>
<path d="M442.672,342.594v 4.62965" fill="none" stroke="black"/>
<path d="M458.862,337.964v 9.2593" fill="none" stroke="black"/>
<path d="M135.06,337.964v 9.2593" fill="none" stroke="black"/>
<path d="M118.87,342.594v 4.62965" fill="none" stroke="black"/>
<path d="M102.68,342.594v 4.62965" fill="none" stroke="black"/>
<path d="M86.49,342.594v 4.62965" fill="none" stroke="black"/>
<path d="M70.2999,342.594v 4.62965" fill="none" stroke="black"/>
<path d="M458.862,337.964v 9.2593" fill="none" stroke="black"/>
<path d="M475.052,342.594v 4.62965" fill="none" stroke="black"/>
<path d="M491.242,342.594v 4.62965" fill="none" stroke="black"/>
<path d="M507.432,342.594v 4.62965" fill="none" stroke="black"/>
<text xml:space="preserve" x="123.145" y="359.813" fill="black" font-size="12.8882" font-family="Helvetica">790</text>
<text xml:space="preserve" x="204.367" y="359.813" fill="black" font-size="12.8882" font-family="Helvetica">800</text>
<text xml:space="preserve" x="285.589" y="359.813" fill="black" font-size="12.8882" font-family="Helvetica">810</text>
<text xml:space="preserve" x="365.999" y="359.813" fill="black" font-size="12.8882" font-family="Helvetica">820</text>
<text xml:space="preserve" x="447.221" y="359.813" fill="black" font-size="12.8882" font-family="Helvetica">830</text>
<text xml:space="preserve" x="481.334" y="373.621" fill="black" font-size="12.8882" font-family="Helvetica">Time</text>
<path d="M57.1929,347.224v -308.643" fill="none" stroke="black"/>
<path d="M70.7992,347.224h -13.6063" fill="none" stroke="black"/>
<path d="M63.9961,333.226h -6.80315" fill="none" stroke="black"/>
<path d="M63.9961,319.229h -6.80315" fill="none" stroke="black"/>
<path d="M63.9961,305.232h -6.80315" fill="none" stroke="black"/>
<path d="M70.7992,291.234h -13.6063" fill="none" stroke="black"/>
<path d="M63.9961,277.237h -6.80315" fill="none" stroke="black"/>
<path d="M63.9961,263.239h -6.80315" fill="none" stroke="black"/>
<path d="M63.9961,249.242h -6.80315" fill="none" stroke="black"/>
<path d="M70.7992,235.244h -13.6063" fill="none" stroke="black"/>
<path d="M63.9961,221.247h -6.80315" fill="none" stroke="black"/>
<path d="M63.9961,207.249h -6.80315" fill="none" stroke="black"/>
<path d="M63.9961,193.252h -6.80315" fill="none" stroke="black"/>
<path d="M70.7992,179.255h -13.6063" fill="none" stroke="black"/>
<path d="M63.9961,165.257h -6.80315" fill="none" stroke="black"/>
<path d="M63.9961,151.26h -6.80315" fill="none" stroke="black"/>
<path d="M63.9961,137.262h -6.80315" fill="none" stroke="black"/>
<path d="M70.7992,123.265h -13.6063" fill="none" stroke="black"/>
<path d="M63.9961,109.267h -6.80315" fill="none" stroke="black"/>
<path d="M63.9961,95.27h -6.80315" fill="none" stroke="black"/>
<path d="M63.9961,81.2726h -6.80315" fill="none" stroke="black"/>
<path d="M70.7992,67.2752h -13.6063" fill="none" stroke="black"/>
<path d="M70.7992,67.2752h -13.6063" fill="none" stroke="black"/>
<path d="M63.9961,53.2777h -6.80315" fill="none" stroke="black"/>
<path d="M63.9961,39.2803h -6.80315" fill="none" stroke="black"/>
<text xml:space="preserve" x="46.7965" y="351.691" fill="black" font-size="12.8882" font-family="Helvetica">0</text>
<text xml:space="preserve" x="39.4865" y="295.648" fill="black" font-size="12.8882" font-family="Helvetica">20</text>
<text xml:space="preserve" x="39.4865" y="239.605" fill="black" font-size="12.8882" font-family="Helvetica">40</text>
<text xml:space="preserve" x="39.4865" y="183.562" fill="black" font-size="12.8882" font-family="Helvetica">60</text>
<text xml:space="preserve" x="39.4865" y="127.518" fill="black" font-size="12.8882" font-family="Helvetica">80</text>
<text xml:space="preserve" x="32.1766" y="71.4753" fill="black" font-size="12.8882" font-family="Helvetica">100</text>
<g transform="rotate(-90,21.6177,71.4753)">
<text xml:space="preserve" x="21.6177" y="71.4753" fill="black" font-size="12.8882" font-family="Helvetica">Event</text>
</g>
<rect x="351.996" y="25.0773" width="204.094" height="108.025" fill="white"/>
<path d="M351.996,133.102h 204.094" fill="none" stroke="black"/>
<path d="M556.091,133.102v -108.025" fill="none" stroke="black"/>
<path d="M556.091,25.0773h -204.094" fill="none" stroke="black"/>
<path d="M351.996,25.0773v 108.025" fill="none" stroke="black"/>
<text xml:space="preserve" x="361.938" y="38.9865" fill="black" font-size="15.6962" font-family="Helvetica">Entries </text>
<text xml:space="preserve" x="515.447" y="38.9865" fill="black" font-size="15.6962" font-family="Helvetica"> 207</text>
<text xml:space="preserve" x="375.745" y="57.6676" fill="black" font-size="15.6962" font-family="Helvetica"> / ndf </text>
<text xml:space="preserve" x="370.06" y="52.7943" fill="black" font-size="10.6308" font-family="Helvetica">2</text>
<text xml:space="preserve" x="361.938" y="57.6676" fill="black" font-size="15.6962" font-family="Times">&#0967;</text>
<text xml:space="preserve" x="481.334" y="57.6676" fill="black" font-size="15.6962" font-family="Helvetica"> 6.265 / 2</text>
<text xml:space="preserve" x="361.938" y="75.5364" fill="black" font-size="15.6962" font-family="Helvetica">Prob  </text>
<text xml:space="preserve" x="494.329" y="75.5364" fill="black" font-size="15.6962" font-family="Helvetica"> 0.0436</text>
<text xml:space="preserve" x="361.938" y="94.2175" fill="black" font-size="15.6962" font-family="Helvetica">Const    </text>
<text xml:space="preserve" x="511.386" y="93.4052" fill="black" font-size="15.6962" font-family="Helvetica"> 12.3</text>
<text xml:space="preserve" x="502.452" y="93.4052" fill="black" font-size="15.6962" font-family="Times">&#0177;</text>
<text xml:space="preserve" x="454.531" y="93.4052" fill="black" font-size="15.6962" font-family="Helvetica"> 128.6 </text>
<text xml:space="preserve" x="361.938" y="111.274" fill="black" font-size="15.6962" font-family="Helvetica">Mean     </text>
<text xml:space="preserve" x="520.32" y="111.274" fill="black" font-size="15.6962" font-family="Helvetica"> 0.2</text>
<text xml:space="preserve" x="511.386" y="111.274" fill="black" font-size="15.6962" font-family="Times">&#0177;</text>
<text xml:space="preserve" x="463.465" y="111.274" fill="black" font-size="15.6962" font-family="Helvetica"> 808.5 </text>
<text xml:space="preserve" x="361.938" y="128.331" fill="black" font-size="15.6962" font-family="Helvetica">Sigma    </text>
<text xml:space="preserve" x="502.452" y="129.143" fill="black" font-size="15.6962" font-family="Helvetica"> 0.158</text>
<text xml:space="preserve" x="493.517" y="129.143" fill="black" font-size="15.6962" font-family="Times">&#0177;</text>
<text xml:space="preserve" x="446.408" y="129.143" fill="black" font-size="15.6962" font-family="Helvetica"> 2.483 </text>
<text xml:space="preserve" x="243.354" y="18.681" fill="black" font-size="17.0471" font-family="Helvetica">420mm 32</text></svg>
