<?xml version="1.0" standalone="no"?>
<svg width="567.429" height="384.969" viewBox="0 0 567.429 384.969" xmlns="http://www.w3.org/2000/svg" shape-rendering="crispEdges">
<title>
img/week2/Combined0mm_ch_50.svg
</title>
<desc>
Creator: ROOT Version 6.22/09
CreationDate: Thu Jun 24 12:33:05 2021</desc>
<defs>
</defs>
<rect x="0.5" y="0" width="566.929" height="384.469" fill="white"/>
<rect x="57.1929" y="38.4469" width="453.543" height="307.575" fill="white"/>
<rect x="57.1929" y="38.4469" width="453.543" height="307.575" fill="none" stroke="black"/>
<rect x="57.1929" y="38.4469" width="453.543" height="307.575" fill="white"/>
<rect x="57.1929" y="38.4469" width="453.543" height="307.575" fill="none" stroke="black"/>
<path d="M57.1929,346.022h 120.945v -4.37207h 30.2362v -13.1162h 30.2362v -100.558h 30.2362v -174.883h 30.2362v 222.976h 30.2362v 69.9532h 181.417" fill="none" stroke="#000099"/>
<g fill="#ff0000">
<polygon points=" 279.729, 48.8577 288.2, 48.8577 283.965, 57.329"/>
</g>
<path d="M59.4606,346.022h 126.992l 4.53543, -0.0340211l 4.53543, -0.0494758l 4.53543, -0.112019l 4.53543, -0.241284l 4.53543, -0.49425l 4.53543, -0.962396l 4.53543, -1.78041l 4.53543, -3.12727l 4.53543, -5.21125l 4.53543, -8.23023l 4.53543,
 -12.3031l 4.53543, -17.3784l 4.53543, -23.142l 4.53543, -28.9599l 4.53543, -33.8978l 4.53543, -36.8466l 4.53543, -36.7531l 4.53543, -32.906l 4.53543, -25.1961l 4.53543, -14.2512l 4.53543, -1.38003" fill="none" stroke="#ff0000" stroke-width="2"/>
<path d="M281.697,62.7655l 4.53543, 11.6812l 4.53543, 23.1533l 4.53543, 31.612l 4.53543, 36.2765l 4.53543, 37.1082l 4.53543, 34.7119l 4.53543, 30.094l 4.53543, 24.3737l 4.53543, 18.5357l 4.53543, 13.2814l 4.53543, 8.98851l 4.53543, 5.75608l 4.53543,
 3.49265l 4.53543, 2.01016l 4.53543, 1.0983l 4.53543, 0.570054l 4.53543, 0.281226l 4.53543, 0.131929l 4.53543, 0.058875l 4.53543, 0.0411594h 131.528" fill="none" stroke="#ff0000" stroke-width="2"/>
<path d="M503.933,346.022h 4.53543" fill="none" stroke="#ff0000" stroke-width="2"/>
<path d="M57.1929,346.022h 453.543" fill="none" stroke="black"/>
<path d="M129.869,336.795v 9.22726" fill="none" stroke="black"/>
<path d="M144.98,341.409v 4.61363" fill="none" stroke="black"/>
<path d="M160.09,341.409v 4.61363" fill="none" stroke="black"/>
<path d="M175.201,341.409v 4.61363" fill="none" stroke="black"/>
<path d="M190.312,341.409v 4.61363" fill="none" stroke="black"/>
<path d="M205.423,336.795v 9.22726" fill="none" stroke="black"/>
<path d="M220.533,341.409v 4.61363" fill="none" stroke="black"/>
<path d="M235.644,341.409v 4.61363" fill="none" stroke="black"/>
<path d="M250.755,341.409v 4.61363" fill="none" stroke="black"/>
<path d="M265.866,341.409v 4.61363" fill="none" stroke="black"/>
<path d="M280.976,336.795v 9.22726" fill="none" stroke="black"/>
<path d="M296.087,341.409v 4.61363" fill="none" stroke="black"/>
<path d="M311.198,341.409v 4.61363" fill="none" stroke="black"/>
<path d="M326.309,341.409v 4.61363" fill="none" stroke="black"/>
<path d="M341.419,341.409v 4.61363" fill="none" stroke="black"/>
<path d="M356.53,336.795v 9.22726" fill="none" stroke="black"/>
<path d="M371.641,341.409v 4.61363" fill="none" stroke="black"/>
<path d="M386.751,341.409v 4.61363" fill="none" stroke="black"/>
<path d="M401.862,341.409v 4.61363" fill="none" stroke="black"/>
<path d="M416.973,341.409v 4.61363" fill="none" stroke="black"/>
<path d="M432.084,336.795v 9.22726" fill="none" stroke="black"/>
<path d="M447.194,341.409v 4.61363" fill="none" stroke="black"/>
<path d="M462.305,341.409v 4.61363" fill="none" stroke="black"/>
<path d="M477.416,341.409v 4.61363" fill="none" stroke="black"/>
<path d="M492.527,341.409v 4.61363" fill="none" stroke="black"/>
<path d="M507.637,336.795v 9.22726" fill="none" stroke="black"/>
<path d="M129.869,336.795v 9.22726" fill="none" stroke="black"/>
<path d="M114.758,341.409v 4.61363" fill="none" stroke="black"/>
<path d="M99.6476,341.409v 4.61363" fill="none" stroke="black"/>
<path d="M84.5368,341.409v 4.61363" fill="none" stroke="black"/>
<path d="M69.4261,341.409v 4.61363" fill="none" stroke="black"/>
<path d="M507.637,336.795v 9.22726" fill="none" stroke="black"/>
<text xml:space="preserve" x="118.61" y="358.403" fill="black" font-size="12.8453" font-family="Helvetica">790</text>
<text xml:space="preserve" x="194.364" y="358.403" fill="black" font-size="12.8453" font-family="Helvetica">800</text>
<text xml:space="preserve" x="270.117" y="358.403" fill="black" font-size="12.8453" font-family="Helvetica">810</text>
<text xml:space="preserve" x="345.871" y="358.403" fill="black" font-size="12.8453" font-family="Helvetica">820</text>
<text xml:space="preserve" x="420.81" y="358.403" fill="black" font-size="12.8453" font-family="Helvetica">830</text>
<text xml:space="preserve" x="496.563" y="358.403" fill="black" font-size="12.8453" font-family="Helvetica">840</text>
<text xml:space="preserve" x="460.723" y="370.622" fill="black" font-size="12.8453" font-family="Helvetica">Time [ns]</text>
<path d="M57.1929,346.022v -307.575" fill="none" stroke="black"/>
<path d="M70.7992,346.022h -13.6063" fill="none" stroke="black"/>
<path d="M63.9961,337.278h -6.80315" fill="none" stroke="black"/>
<path d="M63.9961,328.534h -6.80315" fill="none" stroke="black"/>
<path d="M63.9961,319.79h -6.80315" fill="none" stroke="black"/>
<path d="M63.9961,311.046h -6.80315" fill="none" stroke="black"/>
<path d="M70.7992,302.302h -13.6063" fill="none" stroke="black"/>
<path d="M63.9961,293.557h -6.80315" fill="none" stroke="black"/>
<path d="M63.9961,284.813h -6.80315" fill="none" stroke="black"/>
<path d="M63.9961,276.069h -6.80315" fill="none" stroke="black"/>
<path d="M63.9961,267.325h -6.80315" fill="none" stroke="black"/>
<path d="M70.7992,258.581h -13.6063" fill="none" stroke="black"/>
<path d="M63.9961,249.837h -6.80315" fill="none" stroke="black"/>
<path d="M63.9961,241.092h -6.80315" fill="none" stroke="black"/>
<path d="M63.9961,232.348h -6.80315" fill="none" stroke="black"/>
<path d="M63.9961,223.604h -6.80315" fill="none" stroke="black"/>
<path d="M70.7992,214.86h -13.6063" fill="none" stroke="black"/>
<path d="M63.9961,206.116h -6.80315" fill="none" stroke="black"/>
<path d="M63.9961,197.372h -6.80315" fill="none" stroke="black"/>
<path d="M63.9961,188.628h -6.80315" fill="none" stroke="black"/>
<path d="M63.9961,179.883h -6.80315" fill="none" stroke="black"/>
<path d="M70.7992,171.139h -13.6063" fill="none" stroke="black"/>
<path d="M63.9961,162.395h -6.80315" fill="none" stroke="black"/>
<path d="M63.9961,153.651h -6.80315" fill="none" stroke="black"/>
<path d="M63.9961,144.907h -6.80315" fill="none" stroke="black"/>
<path d="M63.9961,136.163h -6.80315" fill="none" stroke="black"/>
<path d="M70.7992,127.419h -13.6063" fill="none" stroke="black"/>
<path d="M63.9961,118.674h -6.80315" fill="none" stroke="black"/>
<path d="M63.9961,109.93h -6.80315" fill="none" stroke="black"/>
<path d="M63.9961,101.186h -6.80315" fill="none" stroke="black"/>
<path d="M63.9961,92.442h -6.80315" fill="none" stroke="black"/>
<path d="M70.7992,83.6979h -13.6063" fill="none" stroke="black"/>
<path d="M63.9961,74.9537h -6.80315" fill="none" stroke="black"/>
<path d="M63.9961,66.2096h -6.80315" fill="none" stroke="black"/>
<path d="M63.9961,57.4654h -6.80315" fill="none" stroke="black"/>
<path d="M63.9961,48.7213h -6.80315" fill="none" stroke="black"/>
<path d="M70.7992,39.9771h -13.6063" fill="none" stroke="black"/>
<path d="M70.7992,39.9771h -13.6063" fill="none" stroke="black"/>
<text xml:space="preserve" x="47.7441" y="350.258" fill="black" font-size="12.8453" font-family="Helvetica">0</text>
<text xml:space="preserve" x="41.2277" y="307.087" fill="black" font-size="12.8453" font-family="Helvetica">10</text>
<text xml:space="preserve" x="41.2277" y="263.101" fill="black" font-size="12.8453" font-family="Helvetica">20</text>
<text xml:space="preserve" x="41.2277" y="219.115" fill="black" font-size="12.8453" font-family="Helvetica">30</text>
<text xml:space="preserve" x="41.2277" y="175.944" fill="black" font-size="12.8453" font-family="Helvetica">40</text>
<text xml:space="preserve" x="41.2277" y="131.958" fill="black" font-size="12.8453" font-family="Helvetica">50</text>
<text xml:space="preserve" x="41.2277" y="87.9718" fill="black" font-size="12.8453" font-family="Helvetica">60</text>
<text xml:space="preserve" x="41.2277" y="44.8004" fill="black" font-size="12.8453" font-family="Helvetica">70</text>
<g transform="rotate(-90,29.0094,70.0516)">
<text xml:space="preserve" x="29.0094" y="70.0516" fill="black" font-size="12.8453" font-family="Helvetica">Event</text>
</g>
<text xml:space="preserve" x="253.012" y="18.7347" fill="black" font-size="16.9898" font-family="Helvetica">0mm 50</text></svg>
