<?xml version="1.0" standalone="no"?>
<svg width="567.429" height="384.969" viewBox="0 0 567.429 384.969" xmlns="http://www.w3.org/2000/svg" shape-rendering="crispEdges">
<title>
img/week2/Combined0mm_ch_10.svg
</title>
<desc>
Creator: ROOT Version 6.22/09
CreationDate: Thu Jun 24 12:07:48 2021</desc>
<defs>
</defs>
<rect x="0.5" y="0" width="566.929" height="384.469" fill="white"/>
<rect x="57.1929" y="38.4469" width="453.543" height="307.575" fill="white"/>
<rect x="57.1929" y="38.4469" width="453.543" height="307.575" fill="none" stroke="black"/>
<rect x="57.1929" y="38.4469" width="453.543" height="307.575" fill="white"/>
<rect x="57.1929" y="38.4469" width="453.543" height="307.575" fill="none" stroke="black"/>
<path d="M57.1929,346.022h 113.386v -4.64966h 37.7953v -23.2483h 37.7953v -60.4456h 37.7953v -204.585h 37.7953v 260.381h 37.7953v 32.5477h 151.181" fill="none" stroke="#000099"/>
<g fill="#ff0000">
<polygon points=" 298.627, 48.8577 307.098, 48.8577 302.862, 57.329"/>
</g>
<path d="M59.4606,346.022h 145.134l 4.53543, -0.0377742l 4.53543, -0.0553158l 4.53543, -0.125632l 4.53543, -0.271244l 4.53543, -0.556491l 4.53543, -1.08442l 4.53543, -2.00606l 4.53543, -3.52046l 4.53543, -5.85604l 4.53543, -9.22354l 4.53543,
 -13.7369l 4.53543, -19.3106l 4.53543, -25.5599l 4.53543, -31.7456l 4.53543, -36.8105l 4.53543, -39.5363l 4.53543, -38.8117" fill="none" stroke="#ff0000" stroke-width="2"/>
<path d="M281.697,117.774l 4.53543, -33.9523l 4.53543, -24.9714l 4.53543, -12.6979l 4.53543, 1.3275l 4.53543, 15.1674l 4.53543, 26.927l 4.53543, 35.1795l 4.53543, 39.2472l 4.53543, 39.2611l 4.53543, 36.0086l 4.53543, 30.6447l 4.53543, 24.3753l
 4.53543, 18.2065l 4.53543, 12.811l 4.53543, 8.51175l 4.53543, 5.34902l 4.53543, 3.18356l 4.53543, 1.79628l 4.53543, 0.961627l 4.53543, 0.488754l 4.53543, 0.23597l 4.53543, 0.108267l 4.53543, 0.0472246l 4.53543, 0.0317723h 113.386" fill="none"
 stroke="#ff0000" stroke-width="2"/>
<path d="M503.933,346.022h 4.53543" fill="none" stroke="#ff0000" stroke-width="2"/>
<path d="M57.1929,346.022h 453.543" fill="none" stroke="black"/>
<path d="M100.817,336.795v 9.22726" fill="none" stroke="black"/>
<path d="M110.261,341.409v 4.61363" fill="none" stroke="black"/>
<path d="M119.705,341.409v 4.61363" fill="none" stroke="black"/>
<path d="M129.15,341.409v 4.61363" fill="none" stroke="black"/>
<path d="M138.594,341.409v 4.61363" fill="none" stroke="black"/>
<path d="M148.038,336.795v 9.22726" fill="none" stroke="black"/>
<path d="M157.482,341.409v 4.61363" fill="none" stroke="black"/>
<path d="M166.926,341.409v 4.61363" fill="none" stroke="black"/>
<path d="M176.371,341.409v 4.61363" fill="none" stroke="black"/>
<path d="M185.815,341.409v 4.61363" fill="none" stroke="black"/>
<path d="M195.259,336.795v 9.22726" fill="none" stroke="black"/>
<path d="M204.703,341.409v 4.61363" fill="none" stroke="black"/>
<path d="M214.148,341.409v 4.61363" fill="none" stroke="black"/>
<path d="M223.592,341.409v 4.61363" fill="none" stroke="black"/>
<path d="M233.036,341.409v 4.61363" fill="none" stroke="black"/>
<path d="M242.48,336.795v 9.22726" fill="none" stroke="black"/>
<path d="M251.924,341.409v 4.61363" fill="none" stroke="black"/>
<path d="M261.369,341.409v 4.61363" fill="none" stroke="black"/>
<path d="M270.813,341.409v 4.61363" fill="none" stroke="black"/>
<path d="M280.257,341.409v 4.61363" fill="none" stroke="black"/>
<path d="M289.701,336.795v 9.22726" fill="none" stroke="black"/>
<path d="M299.145,341.409v 4.61363" fill="none" stroke="black"/>
<path d="M308.59,341.409v 4.61363" fill="none" stroke="black"/>
<path d="M318.034,341.409v 4.61363" fill="none" stroke="black"/>
<path d="M327.478,341.409v 4.61363" fill="none" stroke="black"/>
<path d="M336.922,336.795v 9.22726" fill="none" stroke="black"/>
<path d="M346.366,341.409v 4.61363" fill="none" stroke="black"/>
<path d="M355.811,341.409v 4.61363" fill="none" stroke="black"/>
<path d="M365.255,341.409v 4.61363" fill="none" stroke="black"/>
<path d="M374.699,341.409v 4.61363" fill="none" stroke="black"/>
<path d="M384.143,336.795v 9.22726" fill="none" stroke="black"/>
<path d="M393.587,341.409v 4.61363" fill="none" stroke="black"/>
<path d="M403.032,341.409v 4.61363" fill="none" stroke="black"/>
<path d="M412.476,341.409v 4.61363" fill="none" stroke="black"/>
<path d="M421.92,341.409v 4.61363" fill="none" stroke="black"/>
<path d="M431.364,336.795v 9.22726" fill="none" stroke="black"/>
<path d="M440.809,341.409v 4.61363" fill="none" stroke="black"/>
<path d="M450.253,341.409v 4.61363" fill="none" stroke="black"/>
<path d="M459.697,341.409v 4.61363" fill="none" stroke="black"/>
<path d="M469.141,341.409v 4.61363" fill="none" stroke="black"/>
<path d="M478.585,336.795v 9.22726" fill="none" stroke="black"/>
<path d="M100.817,336.795v 9.22726" fill="none" stroke="black"/>
<path d="M91.3728,341.409v 4.61363" fill="none" stroke="black"/>
<path d="M81.9286,341.409v 4.61363" fill="none" stroke="black"/>
<path d="M72.4844,341.409v 4.61363" fill="none" stroke="black"/>
<path d="M63.0402,341.409v 4.61363" fill="none" stroke="black"/>
<path d="M478.585,336.795v 9.22726" fill="none" stroke="black"/>
<path d="M488.03,341.409v 4.61363" fill="none" stroke="black"/>
<path d="M497.474,341.409v 4.61363" fill="none" stroke="black"/>
<path d="M506.918,341.409v 4.61363" fill="none" stroke="black"/>
<text xml:space="preserve" x="90.1009" y="358.403" fill="black" font-size="12.8453" font-family="Helvetica">785</text>
<text xml:space="preserve" x="137.345" y="358.403" fill="black" font-size="12.8453" font-family="Helvetica">790</text>
<text xml:space="preserve" x="184.589" y="358.403" fill="black" font-size="12.8453" font-family="Helvetica">795</text>
<text xml:space="preserve" x="231.833" y="358.403" fill="black" font-size="12.8453" font-family="Helvetica">800</text>
<text xml:space="preserve" x="279.077" y="358.403" fill="black" font-size="12.8453" font-family="Helvetica">805</text>
<text xml:space="preserve" x="326.321" y="358.403" fill="black" font-size="12.8453" font-family="Helvetica">810</text>
<text xml:space="preserve" x="372.751" y="358.403" fill="black" font-size="12.8453" font-family="Helvetica">815</text>
<text xml:space="preserve" x="419.995" y="358.403" fill="black" font-size="12.8453" font-family="Helvetica">820</text>
<text xml:space="preserve" x="467.239" y="358.403" fill="black" font-size="12.8453" font-family="Helvetica">825</text>
<text xml:space="preserve" x="460.723" y="370.622" fill="black" font-size="12.8453" font-family="Helvetica">Time [ps]</text>
<path d="M57.1929,346.022v -307.575" fill="none" stroke="black"/>
<path d="M70.7992,346.022h -13.6063" fill="none" stroke="black"/>
<path d="M63.9961,336.723h -6.80315" fill="none" stroke="black"/>
<path d="M63.9961,327.424h -6.80315" fill="none" stroke="black"/>
<path d="M63.9961,318.124h -6.80315" fill="none" stroke="black"/>
<path d="M63.9961,308.825h -6.80315" fill="none" stroke="black"/>
<path d="M70.7992,299.526h -13.6063" fill="none" stroke="black"/>
<path d="M63.9961,290.226h -6.80315" fill="none" stroke="black"/>
<path d="M63.9961,280.927h -6.80315" fill="none" stroke="black"/>
<path d="M63.9961,271.628h -6.80315" fill="none" stroke="black"/>
<path d="M63.9961,262.328h -6.80315" fill="none" stroke="black"/>
<path d="M70.7992,253.029h -13.6063" fill="none" stroke="black"/>
<path d="M63.9961,243.73h -6.80315" fill="none" stroke="black"/>
<path d="M63.9961,234.43h -6.80315" fill="none" stroke="black"/>
<path d="M63.9961,225.131h -6.80315" fill="none" stroke="black"/>
<path d="M63.9961,215.832h -6.80315" fill="none" stroke="black"/>
<path d="M70.7992,206.532h -13.6063" fill="none" stroke="black"/>
<path d="M63.9961,197.233h -6.80315" fill="none" stroke="black"/>
<path d="M63.9961,187.934h -6.80315" fill="none" stroke="black"/>
<path d="M63.9961,178.634h -6.80315" fill="none" stroke="black"/>
<path d="M63.9961,169.335h -6.80315" fill="none" stroke="black"/>
<path d="M70.7992,160.036h -13.6063" fill="none" stroke="black"/>
<path d="M63.9961,150.736h -6.80315" fill="none" stroke="black"/>
<path d="M63.9961,141.437h -6.80315" fill="none" stroke="black"/>
<path d="M63.9961,132.138h -6.80315" fill="none" stroke="black"/>
<path d="M63.9961,122.838h -6.80315" fill="none" stroke="black"/>
<path d="M70.7992,113.539h -13.6063" fill="none" stroke="black"/>
<path d="M63.9961,104.24h -6.80315" fill="none" stroke="black"/>
<path d="M63.9961,94.9403h -6.80315" fill="none" stroke="black"/>
<path d="M63.9961,85.641h -6.80315" fill="none" stroke="black"/>
<path d="M63.9961,76.3417h -6.80315" fill="none" stroke="black"/>
<path d="M70.7992,67.0424h -13.6063" fill="none" stroke="black"/>
<path d="M70.7992,67.0424h -13.6063" fill="none" stroke="black"/>
<path d="M63.9961,57.743h -6.80315" fill="none" stroke="black"/>
<path d="M63.9961,48.4437h -6.80315" fill="none" stroke="black"/>
<path d="M63.9961,39.1444h -6.80315" fill="none" stroke="black"/>
<text xml:space="preserve" x="47.7441" y="350.258" fill="black" font-size="12.8453" font-family="Helvetica">0</text>
<text xml:space="preserve" x="41.2277" y="303.828" fill="black" font-size="12.8453" font-family="Helvetica">10</text>
<text xml:space="preserve" x="41.2277" y="257.399" fill="black" font-size="12.8453" font-family="Helvetica">20</text>
<text xml:space="preserve" x="41.2277" y="210.969" fill="black" font-size="12.8453" font-family="Helvetica">30</text>
<text xml:space="preserve" x="41.2277" y="164.54" fill="black" font-size="12.8453" font-family="Helvetica">40</text>
<text xml:space="preserve" x="41.2277" y="118.11" fill="black" font-size="12.8453" font-family="Helvetica">50</text>
<text xml:space="preserve" x="41.2277" y="71.6807" fill="black" font-size="12.8453" font-family="Helvetica">60</text>
<g transform="rotate(-90,29.0094,70.0516)">
<text xml:space="preserve" x="29.0094" y="70.0516" fill="black" font-size="12.8453" font-family="Helvetica">Event</text>
</g>
<text xml:space="preserve" x="253.012" y="18.7347" fill="black" font-size="16.9898" font-family="Helvetica">0mm 10</text></svg>
