<?xml version="1.0" standalone="no"?>
<svg width="567.429" height="384.969" viewBox="0 0 567.429 384.969" xmlns="http://www.w3.org/2000/svg" shape-rendering="crispEdges">
<title>
img/week2/Combined280mm_ch_1.svg
</title>
<desc>
Creator: ROOT Version 6.22/09
CreationDate: Thu Jun 24 12:33:04 2021</desc>
<defs>
</defs>
<rect x="0.5" y="0" width="566.929" height="384.469" fill="white"/>
<rect x="57.1929" y="38.4469" width="453.543" height="307.575" fill="white"/>
<rect x="57.1929" y="38.4469" width="453.543" height="307.575" fill="none" stroke="black"/>
<rect x="57.1929" y="38.4469" width="453.543" height="307.575" fill="white"/>
<rect x="57.1929" y="38.4469" width="453.543" height="307.575" fill="none" stroke="black"/>
<path d="M57.1929,346.022h 104.664v -9.29933h 34.8879v -18.5987h 34.8879v -102.293h 34.8879v -162.738h 34.8879v 260.381h 34.8879v 32.5477h 174.44" fill="none" stroke="#000099"/>
<g fill="#ff0000">
<polygon points=" 279.729, 48.8577 288.2, 48.8577 283.965, 57.329"/>
</g>
<path d="M59.4606,346.022h 122.457l 4.53543, -0.0415149l 4.53543, -0.059165l 4.53543, -0.132412l 4.53543, -0.282087l 4.53543, -0.571836l 4.53543, -1.10255l 4.53543, -2.02087l 4.53543, -3.51891l 4.53543, -5.81644l 4.53543, -9.11692l 4.53543, -13.5337l
 4.53543, -18.9942l 4.53543, -25.1455l 4.53543, -31.2995l 4.53543, -36.4595l 4.53543, -39.4583l 4.53543, -39.2007l 4.53543, -34.9626l 4.53543, -26.6558l 4.53543, -14.9624l 4.53543, -1.27008l 4.53543, 12.595" fill="none" stroke="#ff0000"
 stroke-width="2"/>
<path d="M281.697,54.0121l 4.53543, 24.7681l 4.53543, 33.7577l 4.53543, 38.7436l 4.53543, 39.68l 4.53543, 37.1935l 4.53543, 32.3349l 4.53543, 26.2789l 4.53543, 20.0664l 4.53543, 14.446l 4.53543, 9.82893l 4.53543, 6.33175l 4.53543, 3.86715l 4.53543,
 2.24165l 4.53543, 1.23429l 4.53543, 0.645994l 4.53543, 0.321547l 4.53543, 0.152286l 4.53543, 0.0686501l 4.53543, 0.0488624h 136.063" fill="none" stroke="#ff0000" stroke-width="2"/>
<path d="M503.933,346.022h 4.53543" fill="none" stroke="#ff0000" stroke-width="2"/>
<path d="M57.1929,346.022h 453.543" fill="none" stroke="black"/>
<path d="M106.162,336.795v 9.22726" fill="none" stroke="black"/>
<path d="M123.597,341.409v 4.61363" fill="none" stroke="black"/>
<path d="M141.033,341.409v 4.61363" fill="none" stroke="black"/>
<path d="M158.468,341.409v 4.61363" fill="none" stroke="black"/>
<path d="M175.904,341.409v 4.61363" fill="none" stroke="black"/>
<path d="M193.339,336.795v 9.22726" fill="none" stroke="black"/>
<path d="M210.775,341.409v 4.61363" fill="none" stroke="black"/>
<path d="M228.21,341.409v 4.61363" fill="none" stroke="black"/>
<path d="M245.646,341.409v 4.61363" fill="none" stroke="black"/>
<path d="M263.081,341.409v 4.61363" fill="none" stroke="black"/>
<path d="M280.517,336.795v 9.22726" fill="none" stroke="black"/>
<path d="M297.952,341.409v 4.61363" fill="none" stroke="black"/>
<path d="M315.388,341.409v 4.61363" fill="none" stroke="black"/>
<path d="M332.823,341.409v 4.61363" fill="none" stroke="black"/>
<path d="M350.258,341.409v 4.61363" fill="none" stroke="black"/>
<path d="M367.694,336.795v 9.22726" fill="none" stroke="black"/>
<path d="M385.129,341.409v 4.61363" fill="none" stroke="black"/>
<path d="M402.565,341.409v 4.61363" fill="none" stroke="black"/>
<path d="M420,341.409v 4.61363" fill="none" stroke="black"/>
<path d="M437.436,341.409v 4.61363" fill="none" stroke="black"/>
<path d="M454.871,336.795v 9.22726" fill="none" stroke="black"/>
<path d="M106.162,336.795v 9.22726" fill="none" stroke="black"/>
<path d="M88.7266,341.409v 4.61363" fill="none" stroke="black"/>
<path d="M71.2911,341.409v 4.61363" fill="none" stroke="black"/>
<path d="M454.871,336.795v 9.22726" fill="none" stroke="black"/>
<path d="M472.307,341.409v 4.61363" fill="none" stroke="black"/>
<path d="M489.742,341.409v 4.61363" fill="none" stroke="black"/>
<path d="M507.178,341.409v 4.61363" fill="none" stroke="black"/>
<text xml:space="preserve" x="94.9882" y="358.403" fill="black" font-size="12.8453" font-family="Helvetica">790</text>
<text xml:space="preserve" x="182.145" y="358.403" fill="black" font-size="12.8453" font-family="Helvetica">800</text>
<text xml:space="preserve" x="269.303" y="358.403" fill="black" font-size="12.8453" font-family="Helvetica">810</text>
<text xml:space="preserve" x="356.46" y="358.403" fill="black" font-size="12.8453" font-family="Helvetica">820</text>
<text xml:space="preserve" x="443.617" y="358.403" fill="black" font-size="12.8453" font-family="Helvetica">830</text>
<text xml:space="preserve" x="460.723" y="370.622" fill="black" font-size="12.8453" font-family="Helvetica">Time [ns]</text>
<path d="M57.1929,346.022v -307.575" fill="none" stroke="black"/>
<path d="M70.7992,346.022h -13.6063" fill="none" stroke="black"/>
<path d="M63.9961,336.723h -6.80315" fill="none" stroke="black"/>
<path d="M63.9961,327.424h -6.80315" fill="none" stroke="black"/>
<path d="M63.9961,318.124h -6.80315" fill="none" stroke="black"/>
<path d="M63.9961,308.825h -6.80315" fill="none" stroke="black"/>
<path d="M70.7992,299.526h -13.6063" fill="none" stroke="black"/>
<path d="M63.9961,290.226h -6.80315" fill="none" stroke="black"/>
<path d="M63.9961,280.927h -6.80315" fill="none" stroke="black"/>
<path d="M63.9961,271.628h -6.80315" fill="none" stroke="black"/>
<path d="M63.9961,262.328h -6.80315" fill="none" stroke="black"/>
<path d="M70.7992,253.029h -13.6063" fill="none" stroke="black"/>
<path d="M63.9961,243.73h -6.80315" fill="none" stroke="black"/>
<path d="M63.9961,234.43h -6.80315" fill="none" stroke="black"/>
<path d="M63.9961,225.131h -6.80315" fill="none" stroke="black"/>
<path d="M63.9961,215.832h -6.80315" fill="none" stroke="black"/>
<path d="M70.7992,206.532h -13.6063" fill="none" stroke="black"/>
<path d="M63.9961,197.233h -6.80315" fill="none" stroke="black"/>
<path d="M63.9961,187.934h -6.80315" fill="none" stroke="black"/>
<path d="M63.9961,178.634h -6.80315" fill="none" stroke="black"/>
<path d="M63.9961,169.335h -6.80315" fill="none" stroke="black"/>
<path d="M70.7992,160.036h -13.6063" fill="none" stroke="black"/>
<path d="M63.9961,150.736h -6.80315" fill="none" stroke="black"/>
<path d="M63.9961,141.437h -6.80315" fill="none" stroke="black"/>
<path d="M63.9961,132.138h -6.80315" fill="none" stroke="black"/>
<path d="M63.9961,122.838h -6.80315" fill="none" stroke="black"/>
<path d="M70.7992,113.539h -13.6063" fill="none" stroke="black"/>
<path d="M63.9961,104.24h -6.80315" fill="none" stroke="black"/>
<path d="M63.9961,94.9403h -6.80315" fill="none" stroke="black"/>
<path d="M63.9961,85.641h -6.80315" fill="none" stroke="black"/>
<path d="M63.9961,76.3417h -6.80315" fill="none" stroke="black"/>
<path d="M70.7992,67.0424h -13.6063" fill="none" stroke="black"/>
<path d="M70.7992,67.0424h -13.6063" fill="none" stroke="black"/>
<path d="M63.9961,57.743h -6.80315" fill="none" stroke="black"/>
<path d="M63.9961,48.4437h -6.80315" fill="none" stroke="black"/>
<path d="M63.9961,39.1444h -6.80315" fill="none" stroke="black"/>
<text xml:space="preserve" x="47.7441" y="350.258" fill="black" font-size="12.8453" font-family="Helvetica">0</text>
<text xml:space="preserve" x="41.2277" y="303.828" fill="black" font-size="12.8453" font-family="Helvetica">10</text>
<text xml:space="preserve" x="41.2277" y="257.399" fill="black" font-size="12.8453" font-family="Helvetica">20</text>
<text xml:space="preserve" x="41.2277" y="210.969" fill="black" font-size="12.8453" font-family="Helvetica">30</text>
<text xml:space="preserve" x="41.2277" y="164.54" fill="black" font-size="12.8453" font-family="Helvetica">40</text>
<text xml:space="preserve" x="41.2277" y="118.11" fill="black" font-size="12.8453" font-family="Helvetica">50</text>
<text xml:space="preserve" x="41.2277" y="71.6807" fill="black" font-size="12.8453" font-family="Helvetica">60</text>
<g transform="rotate(-90,29.0094,70.0516)">
<text xml:space="preserve" x="29.0094" y="70.0516" fill="black" font-size="12.8453" font-family="Helvetica">Event</text>
</g>
<text xml:space="preserve" x="249.753" y="18.7347" fill="black" font-size="16.9898" font-family="Helvetica">280mm 1</text></svg>
