<?xml version="1.0" standalone="no"?>
<svg width="567.429" height="386.304" viewBox="0 0 567.429 386.304" xmlns="http://www.w3.org/2000/svg" shape-rendering="crispEdges">
<title>
img/week2/Combined670mm_ch_56_57_58_59.svg
</title>
<desc>
Creator: ROOT Version 6.22/08
CreationDate: Mon Jun 21 21:39:52 2021</desc>
<defs>
</defs>
<rect x="0.5" y="0" width="566.929" height="385.804" fill="white"/>
<rect x="57.1929" y="38.5804" width="453.543" height="308.643" fill="white"/>
<rect x="57.1929" y="38.5804" width="453.543" height="308.643" fill="none" stroke="black"/>
<rect x="57.1929" y="38.5804" width="453.543" height="308.643" fill="white"/>
<rect x="57.1929" y="38.5804" width="453.543" height="308.643" fill="none" stroke="black"/>
<path d="M57.1929,347.224h 151.181v -15.341h 30.2362v -59.1723h 30.2362v -201.624h 30.2362v 124.919h 30.2362v 149.027h 30.2362v 2.19157h 151.181" fill="none" stroke="#000099"/>
<g fill="#ff0000">
<polygon points=" 279.741, 66.8628 288.188, 66.8628 283.965, 75.3099"/>
</g>
<path d="M59.4606,347.224h 140.598l 4.53543, -0.055069l 4.53543, -0.0822l 4.53543, -0.187799l 4.53543, -0.40626l 4.53543, -0.831773l 4.53543, -1.61084l 4.53543, -2.94881l 4.53543, -5.09824l 4.53543, -8.31577l 4.53543, -12.7787l 4.53543, -18.466l
 4.53543, -25.0302l 4.53543, -31.7119l 4.53543, -37.3563l 4.53543, -40.5796l 4.53543, -40.082l 4.53543, -35.0382l 4.53543, -25.4369" fill="none" stroke="#ff0000" stroke-width="2"/>
<path d="M281.697,61.2073l 4.53543, -12.2321l 4.53543, 2.78614l 4.53543, 17.3869l 4.53543, 29.4419l 4.53543, 37.4338l 4.53543, 40.7628l 4.53543, 39.7685l 4.53543, 35.4953l 4.53543, 29.3173l 4.53543, 22.5635l 4.53543, 16.255l 4.53543, 10.9955l
 4.53543, 6.99951l 4.53543, 4.20013l 4.53543, 2.37877l 4.53543, 1.27281l 4.53543, 0.643934l 4.53543, 0.308219l 4.53543, 0.139651l 4.53543, 0.0599219l 4.53543, 0.0389127h 126.992" fill="none" stroke="#ff0000" stroke-width="2"/>
<path d="M503.933,347.224h 4.53543" fill="none" stroke="#ff0000" stroke-width="2"/>
<path d="M57.1929,347.224h 453.543" fill="none" stroke="black"/>
<path d="M84.5516,337.964v 9.2593" fill="none" stroke="black"/>
<path d="M99.6623,342.594v 4.62965" fill="none" stroke="black"/>
<path d="M114.773,342.594v 4.62965" fill="none" stroke="black"/>
<path d="M129.884,342.594v 4.62965" fill="none" stroke="black"/>
<path d="M144.995,342.594v 4.62965" fill="none" stroke="black"/>
<path d="M160.105,337.964v 9.2593" fill="none" stroke="black"/>
<path d="M175.216,342.594v 4.62965" fill="none" stroke="black"/>
<path d="M190.327,342.594v 4.62965" fill="none" stroke="black"/>
<path d="M205.437,342.594v 4.62965" fill="none" stroke="black"/>
<path d="M220.548,342.594v 4.62965" fill="none" stroke="black"/>
<path d="M235.659,337.964v 9.2593" fill="none" stroke="black"/>
<path d="M250.77,342.594v 4.62965" fill="none" stroke="black"/>
<path d="M265.88,342.594v 4.62965" fill="none" stroke="black"/>
<path d="M280.991,342.594v 4.62965" fill="none" stroke="black"/>
<path d="M296.102,342.594v 4.62965" fill="none" stroke="black"/>
<path d="M311.213,337.964v 9.2593" fill="none" stroke="black"/>
<path d="M326.323,342.594v 4.62965" fill="none" stroke="black"/>
<path d="M341.434,342.594v 4.62965" fill="none" stroke="black"/>
<path d="M356.545,342.594v 4.62965" fill="none" stroke="black"/>
<path d="M371.656,342.594v 4.62965" fill="none" stroke="black"/>
<path d="M386.766,337.964v 9.2593" fill="none" stroke="black"/>
<path d="M401.877,342.594v 4.62965" fill="none" stroke="black"/>
<path d="M416.988,342.594v 4.62965" fill="none" stroke="black"/>
<path d="M432.098,342.594v 4.62965" fill="none" stroke="black"/>
<path d="M447.209,342.594v 4.62965" fill="none" stroke="black"/>
<path d="M462.32,337.964v 9.2593" fill="none" stroke="black"/>
<path d="M84.5516,337.964v 9.2593" fill="none" stroke="black"/>
<path d="M69.4409,342.594v 4.62965" fill="none" stroke="black"/>
<path d="M462.32,337.964v 9.2593" fill="none" stroke="black"/>
<path d="M477.431,342.594v 4.62965" fill="none" stroke="black"/>
<path d="M492.541,342.594v 4.62965" fill="none" stroke="black"/>
<path d="M507.652,342.594v 4.62965" fill="none" stroke="black"/>
<text xml:space="preserve" x="72.7875" y="359.813" fill="black" font-size="12.8882" font-family="Helvetica">780</text>
<text xml:space="preserve" x="148.324" y="359.813" fill="black" font-size="12.8882" font-family="Helvetica">790</text>
<text xml:space="preserve" x="223.86" y="359.813" fill="black" font-size="12.8882" font-family="Helvetica">800</text>
<text xml:space="preserve" x="299.397" y="359.813" fill="black" font-size="12.8882" font-family="Helvetica">810</text>
<text xml:space="preserve" x="374.933" y="359.813" fill="black" font-size="12.8882" font-family="Helvetica">820</text>
<text xml:space="preserve" x="450.47" y="359.813" fill="black" font-size="12.8882" font-family="Helvetica">830</text>
<text xml:space="preserve" x="481.334" y="373.621" fill="black" font-size="12.8882" font-family="Helvetica">Time</text>
<path d="M57.1929,347.224v -308.643" fill="none" stroke="black"/>
<path d="M70.7992,347.224h -13.6063" fill="none" stroke="black"/>
<path d="M63.9961,336.266h -6.80315" fill="none" stroke="black"/>
<path d="M63.9961,325.308h -6.80315" fill="none" stroke="black"/>
<path d="M63.9961,314.35h -6.80315" fill="none" stroke="black"/>
<path d="M70.7992,303.392h -13.6063" fill="none" stroke="black"/>
<path d="M63.9961,292.435h -6.80315" fill="none" stroke="black"/>
<path d="M63.9961,281.477h -6.80315" fill="none" stroke="black"/>
<path d="M63.9961,270.519h -6.80315" fill="none" stroke="black"/>
<path d="M70.7992,259.561h -13.6063" fill="none" stroke="black"/>
<path d="M63.9961,248.603h -6.80315" fill="none" stroke="black"/>
<path d="M63.9961,237.645h -6.80315" fill="none" stroke="black"/>
<path d="M63.9961,226.688h -6.80315" fill="none" stroke="black"/>
<path d="M70.7992,215.73h -13.6063" fill="none" stroke="black"/>
<path d="M63.9961,204.772h -6.80315" fill="none" stroke="black"/>
<path d="M63.9961,193.814h -6.80315" fill="none" stroke="black"/>
<path d="M63.9961,182.856h -6.80315" fill="none" stroke="black"/>
<path d="M70.7992,171.898h -13.6063" fill="none" stroke="black"/>
<path d="M63.9961,160.941h -6.80315" fill="none" stroke="black"/>
<path d="M63.9961,149.983h -6.80315" fill="none" stroke="black"/>
<path d="M63.9961,139.025h -6.80315" fill="none" stroke="black"/>
<path d="M70.7992,128.067h -13.6063" fill="none" stroke="black"/>
<path d="M63.9961,117.109h -6.80315" fill="none" stroke="black"/>
<path d="M63.9961,106.151h -6.80315" fill="none" stroke="black"/>
<path d="M63.9961,95.1936h -6.80315" fill="none" stroke="black"/>
<path d="M70.7992,84.2358h -13.6063" fill="none" stroke="black"/>
<path d="M63.9961,73.278h -6.80315" fill="none" stroke="black"/>
<path d="M63.9961,62.3201h -6.80315" fill="none" stroke="black"/>
<path d="M63.9961,51.3623h -6.80315" fill="none" stroke="black"/>
<path d="M70.7992,40.4045h -13.6063" fill="none" stroke="black"/>
<path d="M70.7992,40.4045h -13.6063" fill="none" stroke="black"/>
<text xml:space="preserve" x="46.7965" y="351.691" fill="black" font-size="12.8882" font-family="Helvetica">0</text>
<text xml:space="preserve" x="39.4865" y="307.831" fill="black" font-size="12.8882" font-family="Helvetica">20</text>
<text xml:space="preserve" x="39.4865" y="263.971" fill="black" font-size="12.8882" font-family="Helvetica">40</text>
<text xml:space="preserve" x="39.4865" y="220.111" fill="black" font-size="12.8882" font-family="Helvetica">60</text>
<text xml:space="preserve" x="39.4865" y="176.252" fill="black" font-size="12.8882" font-family="Helvetica">80</text>
<text xml:space="preserve" x="32.1766" y="132.392" fill="black" font-size="12.8882" font-family="Helvetica">100</text>
<text xml:space="preserve" x="32.1766" y="88.5319" fill="black" font-size="12.8882" font-family="Helvetica">120</text>
<text xml:space="preserve" x="32.1766" y="44.6721" fill="black" font-size="12.8882" font-family="Helvetica">140</text>
<g transform="rotate(-90,21.6177,71.4753)">
<text xml:space="preserve" x="21.6177" y="71.4753" fill="black" font-size="12.8882" font-family="Helvetica">Event</text>
</g>
<text xml:space="preserve" x="208.428" y="18.681" fill="black" font-size="17.0471" font-family="Helvetica">670mm 56 57 58 59</text></svg>
