<?xml version="1.0" standalone="no"?>
<svg width="567.429" height="386.304" viewBox="0 0 567.429 386.304" xmlns="http://www.w3.org/2000/svg" shape-rendering="crispEdges">
<title>
img/week2/Combined0mm_ch_27.svg
</title>
<desc>
Creator: ROOT Version 6.22/08
CreationDate: Tue Jun 22 00:49:02 2021</desc>
<defs>
</defs>
<rect x="0.5" y="0" width="566.929" height="385.804" fill="white"/>
<rect x="57.1929" y="38.5804" width="453.543" height="308.643" fill="white"/>
<rect x="57.1929" y="38.5804" width="453.543" height="308.643" fill="none" stroke="black"/>
<rect x="57.1929" y="38.5804" width="453.543" height="308.643" fill="white"/>
<rect x="57.1929" y="38.5804" width="453.543" height="308.643" fill="none" stroke="black"/>
<path d="M57.1929,347.224h 30.2362v -2.84616h 30.2362v 2.84616h 90.7087v -11.3846h 30.2362v -76.8463h 30.2362v -187.846h 30.2362v 122.385h 30.2362v 150.846h 30.2362v 2.84616h 151.181" fill="none" stroke="#000099"/>
<g fill="#ff0000">
<polygon points=" 279.741, 66.9229 288.188, 66.9229 283.965, 75.37"/>
</g>
<path d="M59.4606,347.224h 136.063l 4.53543, -0.0582695l 4.53543, -0.080937l 4.53543, -0.178135l 4.53543, -0.37297l 4.53543, -0.742577l 4.53543, -1.40522l 4.53543, -2.52598l 4.53543, -4.31005l 4.53543, -6.97448l 4.53543, -10.6911l 4.53543, -15.5012l
 4.53543, -21.2171l 4.53543, -27.3403l 4.53543, -33.0395l 4.53543, -37.2272l 4.53543, -38.7497l 4.53543, -36.6641l 4.53543, -30.5331l 4.53543, -20.6371" fill="none" stroke="#ff0000" stroke-width="2"/>
<path d="M281.697,58.9748l 4.53543, -8.0157l 4.53543, 5.7008l 4.53543, 18.6364l 4.53543, 29.0909l 4.53543, 35.9059l 4.53543, 38.669l 4.53543, 37.7062l 4.53543, 33.8937l 4.53543, 28.3707l 4.53543, 22.2524l 4.53543, 16.4223l 4.53543, 11.4365l 4.53543,
 7.53111l 4.53543, 4.69684l 4.53543, 2.77749l 4.53543, 1.55886l 4.53543, 0.830988l 4.53543, 0.420995l 4.53543, 0.202802l 4.53543, 0.0929305l 4.53543, 0.0678336h 126.992" fill="none" stroke="#ff0000" stroke-width="2"/>
<path d="M503.933,347.224h 4.53543" fill="none" stroke="#ff0000" stroke-width="2"/>
<path d="M57.1929,347.224h 453.543" fill="none" stroke="black"/>
<path d="M84.5516,337.964v 9.2593" fill="none" stroke="black"/>
<path d="M99.6623,342.594v 4.62965" fill="none" stroke="black"/>
<path d="M114.773,342.594v 4.62965" fill="none" stroke="black"/>
<path d="M129.884,342.594v 4.62965" fill="none" stroke="black"/>
<path d="M144.995,342.594v 4.62965" fill="none" stroke="black"/>
<path d="M160.105,337.964v 9.2593" fill="none" stroke="black"/>
<path d="M175.216,342.594v 4.62965" fill="none" stroke="black"/>
<path d="M190.327,342.594v 4.62965" fill="none" stroke="black"/>
<path d="M205.437,342.594v 4.62965" fill="none" stroke="black"/>
<path d="M220.548,342.594v 4.62965" fill="none" stroke="black"/>
<path d="M235.659,337.964v 9.2593" fill="none" stroke="black"/>
<path d="M250.77,342.594v 4.62965" fill="none" stroke="black"/>
<path d="M265.88,342.594v 4.62965" fill="none" stroke="black"/>
<path d="M280.991,342.594v 4.62965" fill="none" stroke="black"/>
<path d="M296.102,342.594v 4.62965" fill="none" stroke="black"/>
<path d="M311.213,337.964v 9.2593" fill="none" stroke="black"/>
<path d="M326.323,342.594v 4.62965" fill="none" stroke="black"/>
<path d="M341.434,342.594v 4.62965" fill="none" stroke="black"/>
<path d="M356.545,342.594v 4.62965" fill="none" stroke="black"/>
<path d="M371.656,342.594v 4.62965" fill="none" stroke="black"/>
<path d="M386.766,337.964v 9.2593" fill="none" stroke="black"/>
<path d="M401.877,342.594v 4.62965" fill="none" stroke="black"/>
<path d="M416.988,342.594v 4.62965" fill="none" stroke="black"/>
<path d="M432.098,342.594v 4.62965" fill="none" stroke="black"/>
<path d="M447.209,342.594v 4.62965" fill="none" stroke="black"/>
<path d="M462.32,337.964v 9.2593" fill="none" stroke="black"/>
<path d="M84.5516,337.964v 9.2593" fill="none" stroke="black"/>
<path d="M69.4409,342.594v 4.62965" fill="none" stroke="black"/>
<path d="M462.32,337.964v 9.2593" fill="none" stroke="black"/>
<path d="M477.431,342.594v 4.62965" fill="none" stroke="black"/>
<path d="M492.541,342.594v 4.62965" fill="none" stroke="black"/>
<path d="M507.652,342.594v 4.62965" fill="none" stroke="black"/>
<text xml:space="preserve" x="72.7875" y="359.813" fill="black" font-size="12.8882" font-family="Helvetica">780</text>
<text xml:space="preserve" x="148.324" y="359.813" fill="black" font-size="12.8882" font-family="Helvetica">790</text>
<text xml:space="preserve" x="223.86" y="359.813" fill="black" font-size="12.8882" font-family="Helvetica">800</text>
<text xml:space="preserve" x="299.397" y="359.813" fill="black" font-size="12.8882" font-family="Helvetica">810</text>
<text xml:space="preserve" x="374.933" y="359.813" fill="black" font-size="12.8882" font-family="Helvetica">820</text>
<text xml:space="preserve" x="450.47" y="359.813" fill="black" font-size="12.8882" font-family="Helvetica">830</text>
<text xml:space="preserve" x="481.334" y="373.621" fill="black" font-size="12.8882" font-family="Helvetica">Time</text>
<path d="M57.1929,347.224v -308.643" fill="none" stroke="black"/>
<path d="M70.7992,347.224h -13.6063" fill="none" stroke="black"/>
<path d="M63.9961,332.993h -6.80315" fill="none" stroke="black"/>
<path d="M63.9961,318.762h -6.80315" fill="none" stroke="black"/>
<path d="M63.9961,304.531h -6.80315" fill="none" stroke="black"/>
<path d="M70.7992,290.301h -13.6063" fill="none" stroke="black"/>
<path d="M63.9961,276.07h -6.80315" fill="none" stroke="black"/>
<path d="M63.9961,261.839h -6.80315" fill="none" stroke="black"/>
<path d="M63.9961,247.608h -6.80315" fill="none" stroke="black"/>
<path d="M70.7992,233.377h -13.6063" fill="none" stroke="black"/>
<path d="M63.9961,219.147h -6.80315" fill="none" stroke="black"/>
<path d="M63.9961,204.916h -6.80315" fill="none" stroke="black"/>
<path d="M63.9961,190.685h -6.80315" fill="none" stroke="black"/>
<path d="M70.7992,176.454h -13.6063" fill="none" stroke="black"/>
<path d="M63.9961,162.224h -6.80315" fill="none" stroke="black"/>
<path d="M63.9961,147.993h -6.80315" fill="none" stroke="black"/>
<path d="M63.9961,133.762h -6.80315" fill="none" stroke="black"/>
<path d="M70.7992,119.531h -13.6063" fill="none" stroke="black"/>
<path d="M63.9961,105.3h -6.80315" fill="none" stroke="black"/>
<path d="M63.9961,91.0696h -6.80315" fill="none" stroke="black"/>
<path d="M63.9961,76.8388h -6.80315" fill="none" stroke="black"/>
<path d="M70.7992,62.608h -13.6063" fill="none" stroke="black"/>
<path d="M70.7992,62.608h -13.6063" fill="none" stroke="black"/>
<path d="M63.9961,48.3772h -6.80315" fill="none" stroke="black"/>
<text xml:space="preserve" x="46.7965" y="351.691" fill="black" font-size="12.8882" font-family="Helvetica">0</text>
<text xml:space="preserve" x="39.4865" y="294.836" fill="black" font-size="12.8882" font-family="Helvetica">20</text>
<text xml:space="preserve" x="39.4865" y="237.98" fill="black" font-size="12.8882" font-family="Helvetica">40</text>
<text xml:space="preserve" x="39.4865" y="181.125" fill="black" font-size="12.8882" font-family="Helvetica">60</text>
<text xml:space="preserve" x="39.4865" y="124.27" fill="black" font-size="12.8882" font-family="Helvetica">80</text>
<text xml:space="preserve" x="32.1766" y="67.4142" fill="black" font-size="12.8882" font-family="Helvetica">100</text>
<g transform="rotate(-90,21.6177,71.4753)">
<text xml:space="preserve" x="21.6177" y="71.4753" fill="black" font-size="12.8882" font-family="Helvetica">Event</text>
</g>
<text xml:space="preserve" x="253.1" y="18.681" fill="black" font-size="17.0471" font-family="Helvetica">0mm 27</text></svg>
