<?xml version="1.0" standalone="no"?>
<svg width="567.429" height="384.969" viewBox="0 0 567.429 384.969" xmlns="http://www.w3.org/2000/svg" shape-rendering="crispEdges">
<title>
img/week2/Combined670mm_ch_44.svg
</title>
<desc>
Creator: ROOT Version 6.22/09
CreationDate: Thu Jun 24 12:07:48 2021</desc>
<defs>
</defs>
<rect x="0.5" y="0" width="566.929" height="384.469" fill="white"/>
<rect x="57.1929" y="38.4469" width="453.543" height="307.575" fill="white"/>
<rect x="57.1929" y="38.4469" width="453.543" height="307.575" fill="none" stroke="black"/>
<rect x="57.1929" y="38.4469" width="453.543" height="307.575" fill="white"/>
<rect x="57.1929" y="38.4469" width="453.543" height="307.575" fill="none" stroke="black"/>
<path d="M57.1929,346.022h 123.694v -9.92979h 41.2312v -44.6841h 41.2312v -238.315h 41.2312v 258.175h 41.2312v 34.7543h 164.925" fill="none" stroke="#000099"/>
<g fill="#ff0000">
<polygon points=" 279.729, 48.8577 288.2, 48.8577 283.965, 57.329"/>
</g>
<path d="M59.4606,346.022h 126.992l 4.53543, -0.0321995l 4.53543, -0.0463186l 4.53543, -0.104371l 4.53543, -0.224025l 4.53543, -0.457883l 4.53543, -0.890794l 4.53543, -1.64872l 4.53543, -2.90138l 4.53543, -4.85094l 4.53543, -7.69853l 4.53543,
 -11.5834l 4.53543, -16.4985l 4.53543, -22.199l 4.53543, -28.1365l 4.53543, -33.4568l 4.53543, -37.0943l 4.53543, -37.9692l 4.53543, -35.2556l 4.53543, -28.6482l 4.53543, -18.5365l 4.53543, -6.01203" fill="none" stroke="#ff0000" stroke-width="2"/>
<path d="M281.697,51.777l 4.53543, 7.31788l 4.53543, 19.6688l 4.53543, 29.4714l 4.53543, 35.6984l 4.53543, 38.0324l 4.53543, 36.8406l 4.53543, 32.9865l 4.53543, 27.5597l 4.53543, 21.6121l 4.53543, 15.9702l 4.53543, 11.1509l 4.53543, 7.37153l 4.53543,
 4.62073l 4.53543, 2.7496l 4.53543, 1.55464l 4.53543, 0.8358l 4.53543, 0.427511l 4.53543, 0.208149l 4.53543, 0.0965073l 4.53543, 0.0720279h 131.528" fill="none" stroke="#ff0000" stroke-width="2"/>
<path d="M503.933,346.022h 4.53543" fill="none" stroke="#ff0000" stroke-width="2"/>
<path d="M57.1929,346.022h 453.543" fill="none" stroke="black"/>
<path d="M63.5517,336.795v 9.22726" fill="none" stroke="black"/>
<path d="M73.8544,341.409v 4.61363" fill="none" stroke="black"/>
<path d="M84.1572,341.409v 4.61363" fill="none" stroke="black"/>
<path d="M94.46,341.409v 4.61363" fill="none" stroke="black"/>
<path d="M104.763,341.409v 4.61363" fill="none" stroke="black"/>
<path d="M115.066,336.795v 9.22726" fill="none" stroke="black"/>
<path d="M125.368,341.409v 4.61363" fill="none" stroke="black"/>
<path d="M135.671,341.409v 4.61363" fill="none" stroke="black"/>
<path d="M145.974,341.409v 4.61363" fill="none" stroke="black"/>
<path d="M156.277,341.409v 4.61363" fill="none" stroke="black"/>
<path d="M166.579,336.795v 9.22726" fill="none" stroke="black"/>
<path d="M176.882,341.409v 4.61363" fill="none" stroke="black"/>
<path d="M187.185,341.409v 4.61363" fill="none" stroke="black"/>
<path d="M197.488,341.409v 4.61363" fill="none" stroke="black"/>
<path d="M207.79,341.409v 4.61363" fill="none" stroke="black"/>
<path d="M218.093,336.795v 9.22726" fill="none" stroke="black"/>
<path d="M228.396,341.409v 4.61363" fill="none" stroke="black"/>
<path d="M238.699,341.409v 4.61363" fill="none" stroke="black"/>
<path d="M249.002,341.409v 4.61363" fill="none" stroke="black"/>
<path d="M259.304,341.409v 4.61363" fill="none" stroke="black"/>
<path d="M269.607,336.795v 9.22726" fill="none" stroke="black"/>
<path d="M279.91,341.409v 4.61363" fill="none" stroke="black"/>
<path d="M290.213,341.409v 4.61363" fill="none" stroke="black"/>
<path d="M300.515,341.409v 4.61363" fill="none" stroke="black"/>
<path d="M310.818,341.409v 4.61363" fill="none" stroke="black"/>
<path d="M321.121,336.795v 9.22726" fill="none" stroke="black"/>
<path d="M331.424,341.409v 4.61363" fill="none" stroke="black"/>
<path d="M341.727,341.409v 4.61363" fill="none" stroke="black"/>
<path d="M352.029,341.409v 4.61363" fill="none" stroke="black"/>
<path d="M362.332,341.409v 4.61363" fill="none" stroke="black"/>
<path d="M372.635,336.795v 9.22726" fill="none" stroke="black"/>
<path d="M382.938,341.409v 4.61363" fill="none" stroke="black"/>
<path d="M393.24,341.409v 4.61363" fill="none" stroke="black"/>
<path d="M403.543,341.409v 4.61363" fill="none" stroke="black"/>
<path d="M413.846,341.409v 4.61363" fill="none" stroke="black"/>
<path d="M424.149,336.795v 9.22726" fill="none" stroke="black"/>
<path d="M434.451,341.409v 4.61363" fill="none" stroke="black"/>
<path d="M444.754,341.409v 4.61363" fill="none" stroke="black"/>
<path d="M455.057,341.409v 4.61363" fill="none" stroke="black"/>
<path d="M465.36,341.409v 4.61363" fill="none" stroke="black"/>
<path d="M475.663,336.795v 9.22726" fill="none" stroke="black"/>
<path d="M63.5517,336.795v 9.22726" fill="none" stroke="black"/>
<path d="M475.663,336.795v 9.22726" fill="none" stroke="black"/>
<path d="M485.965,341.409v 4.61363" fill="none" stroke="black"/>
<path d="M496.268,341.409v 4.61363" fill="none" stroke="black"/>
<path d="M506.571,341.409v 4.61363" fill="none" stroke="black"/>
<text xml:space="preserve" x="52.6314" y="358.403" fill="black" font-size="12.8453" font-family="Helvetica">785</text>
<text xml:space="preserve" x="103.948" y="358.403" fill="black" font-size="12.8453" font-family="Helvetica">790</text>
<text xml:space="preserve" x="155.265" y="358.403" fill="black" font-size="12.8453" font-family="Helvetica">795</text>
<text xml:space="preserve" x="207.397" y="358.403" fill="black" font-size="12.8453" font-family="Helvetica">800</text>
<text xml:space="preserve" x="258.713" y="358.403" fill="black" font-size="12.8453" font-family="Helvetica">805</text>
<text xml:space="preserve" x="310.03" y="358.403" fill="black" font-size="12.8453" font-family="Helvetica">810</text>
<text xml:space="preserve" x="361.347" y="358.403" fill="black" font-size="12.8453" font-family="Helvetica">815</text>
<text xml:space="preserve" x="413.479" y="358.403" fill="black" font-size="12.8453" font-family="Helvetica">820</text>
<text xml:space="preserve" x="464.795" y="358.403" fill="black" font-size="12.8453" font-family="Helvetica">825</text>
<text xml:space="preserve" x="460.723" y="370.622" fill="black" font-size="12.8453" font-family="Helvetica">Time [ps]</text>
<path d="M57.1929,346.022v -307.575" fill="none" stroke="black"/>
<path d="M70.7992,346.022h -13.6063" fill="none" stroke="black"/>
<path d="M63.9961,336.092h -6.80315" fill="none" stroke="black"/>
<path d="M63.9961,326.163h -6.80315" fill="none" stroke="black"/>
<path d="M63.9961,316.233h -6.80315" fill="none" stroke="black"/>
<path d="M63.9961,306.303h -6.80315" fill="none" stroke="black"/>
<path d="M70.7992,296.373h -13.6063" fill="none" stroke="black"/>
<path d="M63.9961,286.444h -6.80315" fill="none" stroke="black"/>
<path d="M63.9961,276.514h -6.80315" fill="none" stroke="black"/>
<path d="M63.9961,266.584h -6.80315" fill="none" stroke="black"/>
<path d="M63.9961,256.654h -6.80315" fill="none" stroke="black"/>
<path d="M70.7992,246.724h -13.6063" fill="none" stroke="black"/>
<path d="M63.9961,236.795h -6.80315" fill="none" stroke="black"/>
<path d="M63.9961,226.865h -6.80315" fill="none" stroke="black"/>
<path d="M63.9961,216.935h -6.80315" fill="none" stroke="black"/>
<path d="M63.9961,207.005h -6.80315" fill="none" stroke="black"/>
<path d="M70.7992,197.075h -13.6063" fill="none" stroke="black"/>
<path d="M63.9961,187.146h -6.80315" fill="none" stroke="black"/>
<path d="M63.9961,177.216h -6.80315" fill="none" stroke="black"/>
<path d="M63.9961,167.286h -6.80315" fill="none" stroke="black"/>
<path d="M63.9961,157.356h -6.80315" fill="none" stroke="black"/>
<path d="M70.7992,147.426h -13.6063" fill="none" stroke="black"/>
<path d="M63.9961,137.497h -6.80315" fill="none" stroke="black"/>
<path d="M63.9961,127.567h -6.80315" fill="none" stroke="black"/>
<path d="M63.9961,117.637h -6.80315" fill="none" stroke="black"/>
<path d="M63.9961,107.707h -6.80315" fill="none" stroke="black"/>
<path d="M70.7992,97.7774h -13.6063" fill="none" stroke="black"/>
<path d="M63.9961,87.8476h -6.80315" fill="none" stroke="black"/>
<path d="M63.9961,77.9178h -6.80315" fill="none" stroke="black"/>
<path d="M63.9961,67.9881h -6.80315" fill="none" stroke="black"/>
<path d="M63.9961,58.0583h -6.80315" fill="none" stroke="black"/>
<path d="M70.7992,48.1285h -13.6063" fill="none" stroke="black"/>
<path d="M70.7992,48.1285h -13.6063" fill="none" stroke="black"/>
<text xml:space="preserve" x="47.7441" y="350.258" fill="black" font-size="12.8453" font-family="Helvetica">0</text>
<text xml:space="preserve" x="41.2277" y="300.57" fill="black" font-size="12.8453" font-family="Helvetica">10</text>
<text xml:space="preserve" x="41.2277" y="250.882" fill="black" font-size="12.8453" font-family="Helvetica">20</text>
<text xml:space="preserve" x="41.2277" y="201.195" fill="black" font-size="12.8453" font-family="Helvetica">30</text>
<text xml:space="preserve" x="41.2277" y="151.507" fill="black" font-size="12.8453" font-family="Helvetica">40</text>
<text xml:space="preserve" x="41.2277" y="102.634" fill="black" font-size="12.8453" font-family="Helvetica">50</text>
<text xml:space="preserve" x="41.2277" y="52.946" fill="black" font-size="12.8453" font-family="Helvetica">60</text>
<g transform="rotate(-90,29.0094,70.0516)">
<text xml:space="preserve" x="29.0094" y="70.0516" fill="black" font-size="12.8453" font-family="Helvetica">Event</text>
</g>
<text xml:space="preserve" x="243.237" y="18.7347" fill="black" font-size="16.9898" font-family="Helvetica">670mm 44</text></svg>
