<?xml version="1.0" standalone="no"?>
<svg width="567.429" height="384.68" viewBox="0 0 567.429 384.68" xmlns="http://www.w3.org/2000/svg" shape-rendering="crispEdges">
<title>
img/week2/Combined140mm_ch_36_37_38_39.svg
</title>
<desc>
Creator: ROOT Version 6.22/09
CreationDate: Tue Jun 22 18:03:09 2021</desc>
<defs>
</defs>
<rect x="0.5" y="0" width="566.929" height="384.18" fill="white"/>
<rect x="57.1929" y="38.418" width="453.543" height="307.344" fill="white"/>
<rect x="57.1929" y="38.418" width="453.543" height="307.344" fill="none" stroke="black"/>
<rect x="57.1929" y="38.418" width="453.543" height="307.344" fill="white"/>
<rect x="57.1929" y="38.418" width="453.543" height="307.344" fill="none" stroke="black"/>
<path d="M57.1929,345.762h 69.7759v -1.03858h 34.8879v -1.55787h 34.8879v -8.82794h 34.8879v -56.6027h 34.8879v -213.948h 34.8879v 178.117h 34.8879v 103.339h 34.8879v 0.519291h 139.552" fill="none" stroke="#000099"/>
<g fill="#ff0000">
<polygon points=" 279.741, 59.5635 288.188, 59.5635 283.965, 68.0106"/>
</g>
<path d="M59.4606,345.762h 131.528l 4.53543, -0.0364686l 4.53543, -0.0514889l 4.53543, -0.114782l 4.53543, -0.243856l 4.53543, -0.493564l 4.53543, -0.951312l 4.53543, -1.74524l 4.53543, -3.04565l 4.53543, -5.05206l 4.53543, -7.95824l 4.53543,
 -11.8907l 4.53543, -16.8253l 4.53543, -22.5l 4.53543, -28.3541l 4.53543, -33.5331l 4.53543, -36.987l 4.53543, -37.6675l 4.53543, -34.7895l 4.53543, -28.0863l 4.53543, -17.9719" fill="none" stroke="#ff0000" stroke-width="2"/>
<path d="M281.697,57.4637l 4.53543, -5.53892l 4.53543, 7.62865l 4.53543, 19.7869l 4.53543, 29.4112l 4.53543, 35.5097l 4.53543, 37.7826l 4.53543, 36.594l 4.53543, 32.7896l 4.53543, 27.4348l 4.53543, 21.5589l 4.53543, 15.9734l 4.53543, 11.1891l
 4.53543, 7.42472l 4.53543, 4.67411l 4.53543, 2.79479l 4.53543, 1.58863l 4.53543, 0.859075l 4.53543, 0.442213l 4.53543, 0.216786l 4.53543, 0.101253l 4.53543, 0.0450721l 4.53543, 0.0315304h 122.457" fill="none" stroke="#ff0000" stroke-width="2"/>
<path d="M503.933,345.762h 4.53543" fill="none" stroke="#ff0000" stroke-width="2"/>
<rect x="351.996" y="24.9717" width="204.094" height="107.57" fill="white"/>
<path d="M351.996,132.542h 204.094" fill="none" stroke="black"/>
<path d="M556.091,132.542v -107.57" fill="none" stroke="black"/>
<path d="M556.091,24.9717h -204.094" fill="none" stroke="black"/>
<path d="M351.996,24.9717v 107.57" fill="none" stroke="black"/>
<text xml:space="preserve" x="361.938" y="38.9865" fill="black" font-size="15.6322" font-family="Helvetica">Entries </text>
<text xml:space="preserve" x="515.447" y="38.9865" fill="black" font-size="15.6322" font-family="Helvetica"> 910</text>
<text xml:space="preserve" x="375.745" y="56.8554" fill="black" font-size="15.6322" font-family="Helvetica"> / ndf </text>
<text xml:space="preserve" x="370.06" y="51.982" fill="black" font-size="10.5881" font-family="Helvetica">2</text>
<text xml:space="preserve" x="361.938" y="56.8554" fill="black" font-size="15.6322" font-family="Times">&#0967;</text>
<text xml:space="preserve" x="481.334" y="56.8554" fill="black" font-size="15.6322" font-family="Helvetica"> 37.85 / 5</text>
<text xml:space="preserve" x="361.938" y="74.7242" fill="black" font-size="15.6322" font-family="Helvetica">Prob  </text>
<text xml:space="preserve" x="528.443" y="74.7242" fill="black" font-size="15.6322" font-family="Helvetica">07</text>
<text xml:space="preserve" x="519.508" y="74.7242" fill="black" font-size="15.6322" font-family="Times">&#8722;</text>
<text xml:space="preserve" x="468.338" y="74.7242" fill="black" font-size="15.6322" font-family="Helvetica"> 4.041e</text>
<text xml:space="preserve" x="361.938" y="94.2175" fill="black" font-size="15.6322" font-family="Helvetica">Const    </text>
<text xml:space="preserve" x="511.386" y="93.4052" fill="black" font-size="15.6322" font-family="Helvetica"> 22.2</text>
<text xml:space="preserve" x="502.452" y="93.4052" fill="black" font-size="15.6322" font-family="Times">&#0177;</text>
<text xml:space="preserve" x="455.343" y="93.4052" fill="black" font-size="15.6322" font-family="Helvetica"> 565.9 </text>
<text xml:space="preserve" x="361.938" y="111.274" fill="black" font-size="15.6322" font-family="Helvetica">Mean     </text>
<text xml:space="preserve" x="522.757" y="111.274" fill="black" font-size="15.6322" font-family="Helvetica"> 0.1</text>
<text xml:space="preserve" x="513.823" y="111.274" fill="black" font-size="15.6322" font-family="Times">&#0177;</text>
<text xml:space="preserve" x="466.714" y="111.274" fill="black" font-size="15.6322" font-family="Helvetica"> 810.6 </text>
<text xml:space="preserve" x="361.938" y="128.331" fill="black" font-size="15.6322" font-family="Helvetica">Sigma    </text>
<text xml:space="preserve" x="503.264" y="129.143" fill="black" font-size="15.6322" font-family="Helvetica"> 0.049</text>
<text xml:space="preserve" x="494.329" y="129.143" fill="black" font-size="15.6322" font-family="Times">&#0177;</text>
<text xml:space="preserve" x="447.221" y="129.143" fill="black" font-size="15.6322" font-family="Helvetica"> 2.443 </text>
<path d="M57.1929,345.762h 453.543" fill="none" stroke="black"/>
<path d="M106.162,336.541v 9.22031" fill="none" stroke="black"/>
<path d="M123.597,341.152v 4.61016" fill="none" stroke="black"/>
<path d="M141.033,341.152v 4.61016" fill="none" stroke="black"/>
<path d="M158.468,341.152v 4.61016" fill="none" stroke="black"/>
<path d="M175.904,341.152v 4.61016" fill="none" stroke="black"/>
<path d="M193.339,336.541v 9.22031" fill="none" stroke="black"/>
<path d="M210.775,341.152v 4.61016" fill="none" stroke="black"/>
<path d="M228.21,341.152v 4.61016" fill="none" stroke="black"/>
<path d="M245.646,341.152v 4.61016" fill="none" stroke="black"/>
<path d="M263.081,341.152v 4.61016" fill="none" stroke="black"/>
<path d="M280.517,336.541v 9.22031" fill="none" stroke="black"/>
<path d="M297.952,341.152v 4.61016" fill="none" stroke="black"/>
<path d="M315.388,341.152v 4.61016" fill="none" stroke="black"/>
<path d="M332.823,341.152v 4.61016" fill="none" stroke="black"/>
<path d="M350.258,341.152v 4.61016" fill="none" stroke="black"/>
<path d="M367.694,336.541v 9.22031" fill="none" stroke="black"/>
<path d="M385.129,341.152v 4.61016" fill="none" stroke="black"/>
<path d="M402.565,341.152v 4.61016" fill="none" stroke="black"/>
<path d="M420,341.152v 4.61016" fill="none" stroke="black"/>
<path d="M437.436,341.152v 4.61016" fill="none" stroke="black"/>
<path d="M454.871,336.541v 9.22031" fill="none" stroke="black"/>
<path d="M106.162,336.541v 9.22031" fill="none" stroke="black"/>
<path d="M88.7266,341.152v 4.61016" fill="none" stroke="black"/>
<path d="M71.2911,341.152v 4.61016" fill="none" stroke="black"/>
<path d="M454.871,336.541v 9.22031" fill="none" stroke="black"/>
<path d="M472.307,341.152v 4.61016" fill="none" stroke="black"/>
<path d="M489.742,341.152v 4.61016" fill="none" stroke="black"/>
<path d="M507.178,341.152v 4.61016" fill="none" stroke="black"/>
<text xml:space="preserve" x="95.5297" y="358.189" fill="black" font-size="12.836" font-family="Helvetica">790</text>
<text xml:space="preserve" x="182.437" y="358.189" fill="black" font-size="12.836" font-family="Helvetica">800</text>
<text xml:space="preserve" x="269.345" y="358.189" fill="black" font-size="12.836" font-family="Helvetica">810</text>
<text xml:space="preserve" x="357.064" y="358.189" fill="black" font-size="12.836" font-family="Helvetica">820</text>
<text xml:space="preserve" x="443.972" y="358.189" fill="black" font-size="12.836" font-family="Helvetica">830</text>
<text xml:space="preserve" x="461.028" y="370.372" fill="black" font-size="12.836" font-family="Helvetica">Time [ps]</text>
<path d="M57.1929,345.762v -307.344" fill="none" stroke="black"/>
<path d="M70.7992,345.762h -13.6063" fill="none" stroke="black"/>
<path d="M63.9961,335.376h -6.80315" fill="none" stroke="black"/>
<path d="M63.9961,324.99h -6.80315" fill="none" stroke="black"/>
<path d="M63.9961,314.604h -6.80315" fill="none" stroke="black"/>
<path d="M63.9961,304.219h -6.80315" fill="none" stroke="black"/>
<path d="M70.7992,293.833h -13.6063" fill="none" stroke="black"/>
<path d="M63.9961,283.447h -6.80315" fill="none" stroke="black"/>
<path d="M63.9961,273.061h -6.80315" fill="none" stroke="black"/>
<path d="M63.9961,262.675h -6.80315" fill="none" stroke="black"/>
<path d="M63.9961,252.29h -6.80315" fill="none" stroke="black"/>
<path d="M70.7992,241.904h -13.6063" fill="none" stroke="black"/>
<path d="M63.9961,231.518h -6.80315" fill="none" stroke="black"/>
<path d="M63.9961,221.132h -6.80315" fill="none" stroke="black"/>
<path d="M63.9961,210.746h -6.80315" fill="none" stroke="black"/>
<path d="M63.9961,200.36h -6.80315" fill="none" stroke="black"/>
<path d="M70.7992,189.975h -13.6063" fill="none" stroke="black"/>
<path d="M63.9961,179.589h -6.80315" fill="none" stroke="black"/>
<path d="M63.9961,169.203h -6.80315" fill="none" stroke="black"/>
<path d="M63.9961,158.817h -6.80315" fill="none" stroke="black"/>
<path d="M63.9961,148.431h -6.80315" fill="none" stroke="black"/>
<path d="M70.7992,138.046h -13.6063" fill="none" stroke="black"/>
<path d="M63.9961,127.66h -6.80315" fill="none" stroke="black"/>
<path d="M63.9961,117.274h -6.80315" fill="none" stroke="black"/>
<path d="M63.9961,106.888h -6.80315" fill="none" stroke="black"/>
<path d="M63.9961,96.5023h -6.80315" fill="none" stroke="black"/>
<path d="M70.7992,86.1165h -13.6063" fill="none" stroke="black"/>
<path d="M70.7992,86.1165h -13.6063" fill="none" stroke="black"/>
<path d="M63.9961,75.7307h -6.80315" fill="none" stroke="black"/>
<path d="M63.9961,65.3449h -6.80315" fill="none" stroke="black"/>
<path d="M63.9961,54.9591h -6.80315" fill="none" stroke="black"/>
<path d="M63.9961,44.5733h -6.80315" fill="none" stroke="black"/>
<text xml:space="preserve" x="47.6087" y="350.067" fill="black" font-size="12.836" font-family="Helvetica">0</text>
<text xml:space="preserve" x="33.801" y="298.085" fill="black" font-size="12.836" font-family="Helvetica">100</text>
<text xml:space="preserve" x="33.801" y="246.102" fill="black" font-size="12.836" font-family="Helvetica">200</text>
<text xml:space="preserve" x="33.801" y="194.12" fill="black" font-size="12.836" font-family="Helvetica">300</text>
<text xml:space="preserve" x="33.801" y="142.138" fill="black" font-size="12.836" font-family="Helvetica">400</text>
<text xml:space="preserve" x="33.801" y="90.9686" fill="black" font-size="12.836" font-family="Helvetica">500</text>
<g transform="rotate(-90,20.8055,69.8509)">
<text xml:space="preserve" x="20.8055" y="69.8509" fill="black" font-size="12.836" font-family="Helvetica">Event</text>
</g>
<rect x="351.996" y="24.9717" width="204.094" height="107.57" fill="white"/>
<path d="M351.996,132.542h 204.094" fill="none" stroke="black"/>
<path d="M556.091,132.542v -107.57" fill="none" stroke="black"/>
<path d="M556.091,24.9717h -204.094" fill="none" stroke="black"/>
<path d="M351.996,24.9717v 107.57" fill="none" stroke="black"/>
<text xml:space="preserve" x="361.938" y="38.9865" fill="black" font-size="15.6322" font-family="Helvetica">Entries </text>
<text xml:space="preserve" x="515.447" y="38.9865" fill="black" font-size="15.6322" font-family="Helvetica"> 910</text>
<text xml:space="preserve" x="375.745" y="56.8554" fill="black" font-size="15.6322" font-family="Helvetica"> / ndf </text>
<text xml:space="preserve" x="370.06" y="51.982" fill="black" font-size="10.5881" font-family="Helvetica">2</text>
<text xml:space="preserve" x="361.938" y="56.8554" fill="black" font-size="15.6322" font-family="Times">&#0967;</text>
<text xml:space="preserve" x="481.334" y="56.8554" fill="black" font-size="15.6322" font-family="Helvetica"> 37.85 / 5</text>
<text xml:space="preserve" x="361.938" y="74.7242" fill="black" font-size="15.6322" font-family="Helvetica">Prob  </text>
<text xml:space="preserve" x="528.443" y="74.7242" fill="black" font-size="15.6322" font-family="Helvetica">07</text>
<text xml:space="preserve" x="519.508" y="74.7242" fill="black" font-size="15.6322" font-family="Times">&#8722;</text>
<text xml:space="preserve" x="468.338" y="74.7242" fill="black" font-size="15.6322" font-family="Helvetica"> 4.041e</text>
<text xml:space="preserve" x="361.938" y="94.2175" fill="black" font-size="15.6322" font-family="Helvetica">Const    </text>
<text xml:space="preserve" x="511.386" y="93.4052" fill="black" font-size="15.6322" font-family="Helvetica"> 22.2</text>
<text xml:space="preserve" x="502.452" y="93.4052" fill="black" font-size="15.6322" font-family="Times">&#0177;</text>
<text xml:space="preserve" x="455.343" y="93.4052" fill="black" font-size="15.6322" font-family="Helvetica"> 565.9 </text>
<text xml:space="preserve" x="361.938" y="111.274" fill="black" font-size="15.6322" font-family="Helvetica">Mean     </text>
<text xml:space="preserve" x="522.757" y="111.274" fill="black" font-size="15.6322" font-family="Helvetica"> 0.1</text>
<text xml:space="preserve" x="513.823" y="111.274" fill="black" font-size="15.6322" font-family="Times">&#0177;</text>
<text xml:space="preserve" x="466.714" y="111.274" fill="black" font-size="15.6322" font-family="Helvetica"> 810.6 </text>
<text xml:space="preserve" x="361.938" y="128.331" fill="black" font-size="15.6322" font-family="Helvetica">Sigma    </text>
<text xml:space="preserve" x="503.264" y="129.143" fill="black" font-size="15.6322" font-family="Helvetica"> 0.049</text>
<text xml:space="preserve" x="494.329" y="129.143" fill="black" font-size="15.6322" font-family="Times">&#0177;</text>
<text xml:space="preserve" x="447.221" y="129.143" fill="black" font-size="15.6322" font-family="Helvetica"> 2.443 </text>
<text xml:space="preserve" x="208.428" y="18.681" fill="black" font-size="16.9774" font-family="Helvetica">140mm 36 37 38 39</text></svg>
