<?xml version="1.0" standalone="no"?>
<svg width="567.429" height="384.969" viewBox="0 0 567.429 384.969" xmlns="http://www.w3.org/2000/svg" shape-rendering="crispEdges">
<title>
img/week2/Combined280mm_ch_29.svg
</title>
<desc>
Creator: ROOT Version 6.22/09
CreationDate: Thu Jun 24 12:12:15 2021</desc>
<defs>
</defs>
<rect x="0.5" y="0" width="566.929" height="384.469" fill="white"/>
<rect x="57.1929" y="38.4469" width="453.543" height="307.575" fill="white"/>
<rect x="57.1929" y="38.4469" width="453.543" height="307.575" fill="none" stroke="black"/>
<rect x="57.1929" y="38.4469" width="453.543" height="307.575" fill="white"/>
<rect x="57.1929" y="38.4469" width="453.543" height="307.575" fill="none" stroke="black"/>
<path d="M57.1929,346.022h 37.7953v -2.00636h 37.7953v 2.00636h 37.7953v -8.02545h 37.7953v -4.01272h 37.7953v -124.394h 37.7953v -156.496h 37.7953v 270.859h 37.7953v 20.0636h 37.7953v 2.00636h 113.386" fill="none" stroke="#000099"/>
<g fill="#ff0000">
<polygon points=" 298.627, 48.8577 307.098, 48.8577 302.862, 57.329"/>
</g>
<path d="M59.4606,346.022h 140.598l 4.53543, -0.0672143l 4.53543, -0.0907796l 4.53543, -0.196905l 4.53543, -0.406923l 4.53543, -0.800923l 4.53543, -1.50069l 4.53543, -2.67527l 4.53543, -4.53447l 4.53543, -7.30124l 4.53543, -11.156l 4.53543, -16.1533l
 4.53543, -22.1235l 4.53543, -28.5888l 4.53543, -34.7336l 4.53543, -39.4682l 4.53543, -41.6028l 4.53543, -40.1156l 4.53543, -34.4476" fill="none" stroke="#ff0000" stroke-width="2"/>
<path d="M298.722,38.4469l 1.1167, 4.0846" fill="none" stroke="#ff0000" stroke-width="2"/>
<path d="M299.839,42.5315l 4.53543, 28.5003l 4.53543, 36.8818l 4.53543, 41.0851l 4.53543, 41.2311l 4.53543, 38.0698l 4.53543, 32.7148l 4.53543, 26.3477l 4.53543, 19.9778l 4.53543, 14.3061l 4.53543, 9.69693l 4.53543, 6.23181l 4.53543, 3.80199l
 4.53543, 2.20423l 4.53543, 1.21533l 4.53543, 0.637674l 4.53543, 0.318565l 4.53543, 0.151593l 4.53543, 0.0687387l 4.53543, 0.049535h 122.457" fill="none" stroke="#ff0000" stroke-width="2"/>
<path d="M57.1929,346.022h 453.543" fill="none" stroke="black"/>
<path d="M63.0218,336.795v 9.22726" fill="none" stroke="black"/>
<path d="M72.466,341.409v 4.61363" fill="none" stroke="black"/>
<path d="M81.9102,341.409v 4.61363" fill="none" stroke="black"/>
<path d="M91.3544,341.409v 4.61363" fill="none" stroke="black"/>
<path d="M100.799,341.409v 4.61363" fill="none" stroke="black"/>
<path d="M110.243,336.795v 9.22726" fill="none" stroke="black"/>
<path d="M119.687,341.409v 4.61363" fill="none" stroke="black"/>
<path d="M129.131,341.409v 4.61363" fill="none" stroke="black"/>
<path d="M138.575,341.409v 4.61363" fill="none" stroke="black"/>
<path d="M148.02,341.409v 4.61363" fill="none" stroke="black"/>
<path d="M157.464,336.795v 9.22726" fill="none" stroke="black"/>
<path d="M166.908,341.409v 4.61363" fill="none" stroke="black"/>
<path d="M176.352,341.409v 4.61363" fill="none" stroke="black"/>
<path d="M185.796,341.409v 4.61363" fill="none" stroke="black"/>
<path d="M195.241,341.409v 4.61363" fill="none" stroke="black"/>
<path d="M204.685,336.795v 9.22726" fill="none" stroke="black"/>
<path d="M214.129,341.409v 4.61363" fill="none" stroke="black"/>
<path d="M223.573,341.409v 4.61363" fill="none" stroke="black"/>
<path d="M233.018,341.409v 4.61363" fill="none" stroke="black"/>
<path d="M242.462,341.409v 4.61363" fill="none" stroke="black"/>
<path d="M251.906,336.795v 9.22726" fill="none" stroke="black"/>
<path d="M261.35,341.409v 4.61363" fill="none" stroke="black"/>
<path d="M270.794,341.409v 4.61363" fill="none" stroke="black"/>
<path d="M280.239,341.409v 4.61363" fill="none" stroke="black"/>
<path d="M289.683,341.409v 4.61363" fill="none" stroke="black"/>
<path d="M299.127,336.795v 9.22726" fill="none" stroke="black"/>
<path d="M308.571,341.409v 4.61363" fill="none" stroke="black"/>
<path d="M318.015,341.409v 4.61363" fill="none" stroke="black"/>
<path d="M327.46,341.409v 4.61363" fill="none" stroke="black"/>
<path d="M336.904,341.409v 4.61363" fill="none" stroke="black"/>
<path d="M346.348,336.795v 9.22726" fill="none" stroke="black"/>
<path d="M355.792,341.409v 4.61363" fill="none" stroke="black"/>
<path d="M365.236,341.409v 4.61363" fill="none" stroke="black"/>
<path d="M374.681,341.409v 4.61363" fill="none" stroke="black"/>
<path d="M384.125,341.409v 4.61363" fill="none" stroke="black"/>
<path d="M393.569,336.795v 9.22726" fill="none" stroke="black"/>
<path d="M403.013,341.409v 4.61363" fill="none" stroke="black"/>
<path d="M412.457,341.409v 4.61363" fill="none" stroke="black"/>
<path d="M421.902,341.409v 4.61363" fill="none" stroke="black"/>
<path d="M431.346,341.409v 4.61363" fill="none" stroke="black"/>
<path d="M440.79,336.795v 9.22726" fill="none" stroke="black"/>
<path d="M450.234,341.409v 4.61363" fill="none" stroke="black"/>
<path d="M459.678,341.409v 4.61363" fill="none" stroke="black"/>
<path d="M469.123,341.409v 4.61363" fill="none" stroke="black"/>
<path d="M478.567,341.409v 4.61363" fill="none" stroke="black"/>
<path d="M488.011,336.795v 9.22726" fill="none" stroke="black"/>
<path d="M63.0218,336.795v 9.22726" fill="none" stroke="black"/>
<path d="M488.011,336.795v 9.22726" fill="none" stroke="black"/>
<path d="M497.455,341.409v 4.61363" fill="none" stroke="black"/>
<path d="M506.9,341.409v 4.61363" fill="none" stroke="black"/>
<text xml:space="preserve" x="51.8169" y="358.403" fill="black" font-size="12.8453" font-family="Helvetica">785</text>
<text xml:space="preserve" x="99.061" y="358.403" fill="black" font-size="12.8453" font-family="Helvetica">790</text>
<text xml:space="preserve" x="146.305" y="358.403" fill="black" font-size="12.8453" font-family="Helvetica">795</text>
<text xml:space="preserve" x="193.549" y="358.403" fill="black" font-size="12.8453" font-family="Helvetica">800</text>
<text xml:space="preserve" x="240.793" y="358.403" fill="black" font-size="12.8453" font-family="Helvetica">805</text>
<text xml:space="preserve" x="288.037" y="358.403" fill="black" font-size="12.8453" font-family="Helvetica">810</text>
<text xml:space="preserve" x="335.281" y="358.403" fill="black" font-size="12.8453" font-family="Helvetica">815</text>
<text xml:space="preserve" x="382.526" y="358.403" fill="black" font-size="12.8453" font-family="Helvetica">820</text>
<text xml:space="preserve" x="429.77" y="358.403" fill="black" font-size="12.8453" font-family="Helvetica">825</text>
<text xml:space="preserve" x="477.014" y="358.403" fill="black" font-size="12.8453" font-family="Helvetica">830</text>
<text xml:space="preserve" x="460.723" y="370.622" fill="black" font-size="12.8453" font-family="Helvetica">Time [ps]</text>
<path d="M57.1929,346.022v -307.575" fill="none" stroke="black"/>
<path d="M70.7992,346.022h -13.6063" fill="none" stroke="black"/>
<path d="M63.9961,335.99h -6.80315" fill="none" stroke="black"/>
<path d="M63.9961,325.959h -6.80315" fill="none" stroke="black"/>
<path d="M63.9961,315.927h -6.80315" fill="none" stroke="black"/>
<path d="M70.7992,305.895h -13.6063" fill="none" stroke="black"/>
<path d="M63.9961,295.863h -6.80315" fill="none" stroke="black"/>
<path d="M63.9961,285.831h -6.80315" fill="none" stroke="black"/>
<path d="M63.9961,275.8h -6.80315" fill="none" stroke="black"/>
<path d="M70.7992,265.768h -13.6063" fill="none" stroke="black"/>
<path d="M63.9961,255.736h -6.80315" fill="none" stroke="black"/>
<path d="M63.9961,245.704h -6.80315" fill="none" stroke="black"/>
<path d="M63.9961,235.672h -6.80315" fill="none" stroke="black"/>
<path d="M70.7992,225.641h -13.6063" fill="none" stroke="black"/>
<path d="M63.9961,215.609h -6.80315" fill="none" stroke="black"/>
<path d="M63.9961,205.577h -6.80315" fill="none" stroke="black"/>
<path d="M63.9961,195.545h -6.80315" fill="none" stroke="black"/>
<path d="M70.7992,185.513h -13.6063" fill="none" stroke="black"/>
<path d="M63.9961,175.481h -6.80315" fill="none" stroke="black"/>
<path d="M63.9961,165.45h -6.80315" fill="none" stroke="black"/>
<path d="M63.9961,155.418h -6.80315" fill="none" stroke="black"/>
<path d="M70.7992,145.386h -13.6063" fill="none" stroke="black"/>
<path d="M63.9961,135.354h -6.80315" fill="none" stroke="black"/>
<path d="M63.9961,125.322h -6.80315" fill="none" stroke="black"/>
<path d="M63.9961,115.291h -6.80315" fill="none" stroke="black"/>
<path d="M70.7992,105.259h -13.6063" fill="none" stroke="black"/>
<path d="M63.9961,95.227h -6.80315" fill="none" stroke="black"/>
<path d="M63.9961,85.1952h -6.80315" fill="none" stroke="black"/>
<path d="M63.9961,75.1634h -6.80315" fill="none" stroke="black"/>
<path d="M70.7992,65.1315h -13.6063" fill="none" stroke="black"/>
<path d="M70.7992,65.1315h -13.6063" fill="none" stroke="black"/>
<path d="M63.9961,55.0997h -6.80315" fill="none" stroke="black"/>
<path d="M63.9961,45.0679h -6.80315" fill="none" stroke="black"/>
<text xml:space="preserve" x="47.7441" y="350.258" fill="black" font-size="12.8453" font-family="Helvetica">0</text>
<text xml:space="preserve" x="41.2277" y="310.345" fill="black" font-size="12.8453" font-family="Helvetica">20</text>
<text xml:space="preserve" x="41.2277" y="270.432" fill="black" font-size="12.8453" font-family="Helvetica">40</text>
<text xml:space="preserve" x="41.2277" y="230.519" fill="black" font-size="12.8453" font-family="Helvetica">60</text>
<text xml:space="preserve" x="41.2277" y="189.791" fill="black" font-size="12.8453" font-family="Helvetica">80</text>
<text xml:space="preserve" x="33.8967" y="149.878" fill="black" font-size="12.8453" font-family="Helvetica">100</text>
<text xml:space="preserve" x="33.8967" y="109.965" fill="black" font-size="12.8453" font-family="Helvetica">120</text>
<text xml:space="preserve" x="33.8967" y="69.237" fill="black" font-size="12.8453" font-family="Helvetica">140</text>
<g transform="rotate(-90,20.8638,70.0516)">
<text xml:space="preserve" x="20.8638" y="70.0516" fill="black" font-size="12.8453" font-family="Helvetica">Event</text>
</g>
<text xml:space="preserve" x="243.237" y="18.7347" fill="black" font-size="16.9898" font-family="Helvetica">280mm 29</text></svg>
