<?xml version="1.0" standalone="no"?>
<svg width="567.429" height="384.969" viewBox="0 0 567.429 384.969" xmlns="http://www.w3.org/2000/svg" shape-rendering="crispEdges">
<title>
img/week2/Combined420mm_ch_10.svg
</title>
<desc>
Creator: ROOT Version 6.22/09
CreationDate: Thu Jun 24 12:33:05 2021</desc>
<defs>
</defs>
<rect x="0.5" y="0" width="566.929" height="384.469" fill="white"/>
<rect x="57.1929" y="38.4469" width="453.543" height="307.575" fill="white"/>
<rect x="57.1929" y="38.4469" width="453.543" height="307.575" fill="none" stroke="black"/>
<rect x="57.1929" y="38.4469" width="453.543" height="307.575" fill="white"/>
<rect x="57.1929" y="38.4469" width="453.543" height="307.575" fill="none" stroke="black"/>
<path d="M57.1929,346.022h 85.0394v -5.18357h 28.3465v -5.18357h 28.3465v -10.3671h 28.3465v -41.4686h 28.3465v -217.71h 28.3465v 41.4686h 28.3465v 217.71h 28.3465v 20.7343h 170.079" fill="none" stroke="#000099"/>
<g fill="#ff0000">
<polygon points=" 265.556, 61.8736 274.027, 61.8736 269.791, 70.3449"/>
</g>
<path d="M59.4606,346.022h 126.992l 4.53543, -0.0388315l 4.53543, -0.0568666l 4.53543, -0.129226l 4.53543, -0.279252l 4.53543, -0.573636l 4.53543, -1.11963l 4.53543, -2.07529l 4.53543, -3.6506l 4.53543, -6.08943l 4.53543, -9.62213l 4.53543, -14.3838l
 4.53543, -20.3063l 4.53543, -27.0098l 4.53543, -33.7377l 4.53543, -39.3842l 4.53543, -42.6487l 4.53543, -42.3115l 4.53543, -37.5736l 4.25201, -26.5848" fill="none" stroke="#ff0000" stroke-width="2"/>
<path d="M286.726,38.4469l 4.04132, 24.6942" fill="none" stroke="#ff0000" stroke-width="2"/>
<path d="M290.768,63.1411l 4.53543, 37.1682l 4.53543, 42.1653l 4.53543, 42.7358l 4.53543, 39.645l 4.53543, 34.0979l 4.53543, 27.3988l 4.53543, 20.6701l 4.53543, 14.6899l 4.53543, 9.85827l 4.53543, 6.25825l 4.53543, 3.76321l 4.53543, 2.1457l 4.53543,
 1.16102l 4.53543, 0.596576l 4.53543, 0.291258l 4.53543, 0.135167l 4.53543, 0.05965l 4.53543, 0.0409167h 136.063" fill="none" stroke="#ff0000" stroke-width="2"/>
<path d="M57.1929,346.022h 453.543" fill="none" stroke="black"/>
<path d="M82.8417,336.795v 9.22726" fill="none" stroke="black"/>
<path d="M97.008,341.409v 4.61363" fill="none" stroke="black"/>
<path d="M111.174,341.409v 4.61363" fill="none" stroke="black"/>
<path d="M125.341,341.409v 4.61363" fill="none" stroke="black"/>
<path d="M139.507,341.409v 4.61363" fill="none" stroke="black"/>
<path d="M153.673,336.795v 9.22726" fill="none" stroke="black"/>
<path d="M167.84,341.409v 4.61363" fill="none" stroke="black"/>
<path d="M182.006,341.409v 4.61363" fill="none" stroke="black"/>
<path d="M196.172,341.409v 4.61363" fill="none" stroke="black"/>
<path d="M210.338,341.409v 4.61363" fill="none" stroke="black"/>
<path d="M224.505,336.795v 9.22726" fill="none" stroke="black"/>
<path d="M238.671,341.409v 4.61363" fill="none" stroke="black"/>
<path d="M252.837,341.409v 4.61363" fill="none" stroke="black"/>
<path d="M267.004,341.409v 4.61363" fill="none" stroke="black"/>
<path d="M281.17,341.409v 4.61363" fill="none" stroke="black"/>
<path d="M295.336,336.795v 9.22726" fill="none" stroke="black"/>
<path d="M309.503,341.409v 4.61363" fill="none" stroke="black"/>
<path d="M323.669,341.409v 4.61363" fill="none" stroke="black"/>
<path d="M337.835,341.409v 4.61363" fill="none" stroke="black"/>
<path d="M352.002,341.409v 4.61363" fill="none" stroke="black"/>
<path d="M366.168,336.795v 9.22726" fill="none" stroke="black"/>
<path d="M380.334,341.409v 4.61363" fill="none" stroke="black"/>
<path d="M394.501,341.409v 4.61363" fill="none" stroke="black"/>
<path d="M408.667,341.409v 4.61363" fill="none" stroke="black"/>
<path d="M422.833,341.409v 4.61363" fill="none" stroke="black"/>
<path d="M436.999,336.795v 9.22726" fill="none" stroke="black"/>
<path d="M451.166,341.409v 4.61363" fill="none" stroke="black"/>
<path d="M465.332,341.409v 4.61363" fill="none" stroke="black"/>
<path d="M479.498,341.409v 4.61363" fill="none" stroke="black"/>
<path d="M493.665,341.409v 4.61363" fill="none" stroke="black"/>
<path d="M507.831,336.795v 9.22726" fill="none" stroke="black"/>
<path d="M82.8417,336.795v 9.22726" fill="none" stroke="black"/>
<path d="M68.6754,341.409v 4.61363" fill="none" stroke="black"/>
<path d="M507.831,336.795v 9.22726" fill="none" stroke="black"/>
<text xml:space="preserve" x="72.1807" y="358.403" fill="black" font-size="12.8453" font-family="Helvetica">780</text>
<text xml:space="preserve" x="143.047" y="358.403" fill="black" font-size="12.8453" font-family="Helvetica">790</text>
<text xml:space="preserve" x="213.913" y="358.403" fill="black" font-size="12.8453" font-family="Helvetica">800</text>
<text xml:space="preserve" x="283.965" y="358.403" fill="black" font-size="12.8453" font-family="Helvetica">810</text>
<text xml:space="preserve" x="354.831" y="358.403" fill="black" font-size="12.8453" font-family="Helvetica">820</text>
<text xml:space="preserve" x="425.697" y="358.403" fill="black" font-size="12.8453" font-family="Helvetica">830</text>
<text xml:space="preserve" x="496.563" y="358.403" fill="black" font-size="12.8453" font-family="Helvetica">840</text>
<text xml:space="preserve" x="460.723" y="370.622" fill="black" font-size="12.8453" font-family="Helvetica">Time [ns]</text>
<path d="M57.1929,346.022v -307.575" fill="none" stroke="black"/>
<path d="M70.7992,346.022h -13.6063" fill="none" stroke="black"/>
<path d="M63.9961,335.655h -6.80315" fill="none" stroke="black"/>
<path d="M63.9961,325.288h -6.80315" fill="none" stroke="black"/>
<path d="M63.9961,314.921h -6.80315" fill="none" stroke="black"/>
<path d="M63.9961,304.554h -6.80315" fill="none" stroke="black"/>
<path d="M70.7992,294.187h -13.6063" fill="none" stroke="black"/>
<path d="M63.9961,283.819h -6.80315" fill="none" stroke="black"/>
<path d="M63.9961,273.452h -6.80315" fill="none" stroke="black"/>
<path d="M63.9961,263.085h -6.80315" fill="none" stroke="black"/>
<path d="M63.9961,252.718h -6.80315" fill="none" stroke="black"/>
<path d="M70.7992,242.351h -13.6063" fill="none" stroke="black"/>
<path d="M63.9961,231.984h -6.80315" fill="none" stroke="black"/>
<path d="M63.9961,221.616h -6.80315" fill="none" stroke="black"/>
<path d="M63.9961,211.249h -6.80315" fill="none" stroke="black"/>
<path d="M63.9961,200.882h -6.80315" fill="none" stroke="black"/>
<path d="M70.7992,190.515h -13.6063" fill="none" stroke="black"/>
<path d="M63.9961,180.148h -6.80315" fill="none" stroke="black"/>
<path d="M63.9961,169.781h -6.80315" fill="none" stroke="black"/>
<path d="M63.9961,159.414h -6.80315" fill="none" stroke="black"/>
<path d="M63.9961,149.046h -6.80315" fill="none" stroke="black"/>
<path d="M70.7992,138.679h -13.6063" fill="none" stroke="black"/>
<path d="M63.9961,128.312h -6.80315" fill="none" stroke="black"/>
<path d="M63.9961,117.945h -6.80315" fill="none" stroke="black"/>
<path d="M63.9961,107.578h -6.80315" fill="none" stroke="black"/>
<path d="M63.9961,97.2107h -6.80315" fill="none" stroke="black"/>
<path d="M70.7992,86.8435h -13.6063" fill="none" stroke="black"/>
<path d="M70.7992,86.8435h -13.6063" fill="none" stroke="black"/>
<path d="M63.9961,76.4764h -6.80315" fill="none" stroke="black"/>
<path d="M63.9961,66.1092h -6.80315" fill="none" stroke="black"/>
<path d="M63.9961,55.7421h -6.80315" fill="none" stroke="black"/>
<path d="M63.9961,45.3749h -6.80315" fill="none" stroke="black"/>
<text xml:space="preserve" x="47.7441" y="350.258" fill="black" font-size="12.8453" font-family="Helvetica">0</text>
<text xml:space="preserve" x="41.2277" y="298.941" fill="black" font-size="12.8453" font-family="Helvetica">10</text>
<text xml:space="preserve" x="41.2277" y="246.81" fill="black" font-size="12.8453" font-family="Helvetica">20</text>
<text xml:space="preserve" x="41.2277" y="194.678" fill="black" font-size="12.8453" font-family="Helvetica">30</text>
<text xml:space="preserve" x="41.2277" y="143.361" fill="black" font-size="12.8453" font-family="Helvetica">40</text>
<text xml:space="preserve" x="41.2277" y="91.23" fill="black" font-size="12.8453" font-family="Helvetica">50</text>
<g transform="rotate(-90,29.0094,70.0516)">
<text xml:space="preserve" x="29.0094" y="70.0516" fill="black" font-size="12.8453" font-family="Helvetica">Event</text>
</g>
<text xml:space="preserve" x="243.237" y="18.7347" fill="black" font-size="16.9898" font-family="Helvetica">420mm 10</text></svg>
