<?xml version="1.0" standalone="no"?>
<svg width="567.429" height="384.969" viewBox="0 0 567.429 384.969" xmlns="http://www.w3.org/2000/svg" shape-rendering="crispEdges">
<title>
img/week2/Combined420mm_ch_45.svg
</title>
<desc>
Creator: ROOT Version 6.22/09
CreationDate: Thu Jun 24 12:12:14 2021</desc>
<defs>
</defs>
<rect x="0.5" y="0" width="566.929" height="384.469" fill="white"/>
<rect x="57.1929" y="38.4469" width="453.543" height="307.575" fill="white"/>
<rect x="57.1929" y="38.4469" width="453.543" height="307.575" fill="none" stroke="black"/>
<rect x="57.1929" y="38.4469" width="453.543" height="307.575" fill="white"/>
<rect x="57.1929" y="38.4469" width="453.543" height="307.575" fill="none" stroke="black"/>
<path d="M57.1929,346.022h 139.552v -11.0652h 34.8879v -19.3641h 34.8879v -260.032h 34.8879v 143.847h 34.8879v 143.847h 34.8879v 2.7663h 139.552" fill="none" stroke="#000099"/>
<g fill="#ff0000">
<polygon points=" 279.729, 51.3254 288.2, 51.3254 283.965, 59.7968"/>
</g>
<path d="M59.4606,346.022h 145.134l 4.53543, -0.0554328l 4.53543, -0.0825144l 4.53543, -0.188403l 4.53543, -0.40762l 4.53543, -0.8353l 4.53543, -1.62037l 4.53543, -2.97362l 4.53543, -5.15823l 4.53543, -8.44917l 4.53543, -13.0512l 4.53543, -18.9782l
 4.53543, -25.9179l 4.53543, -33.1324l 4.53543, -39.4561l 4.53543, -43.4439l 4.53543, -43.6777l 4.53543, -39.168" fill="none" stroke="#ff0000" stroke-width="2"/>
<path d="M281.697,69.4262l 4.53543, -29.7304l 0.349915, -1.24884" fill="none" stroke="#ff0000" stroke-width="2"/>
<path d="M299.715,38.4469l 0.123841, 0.427422" fill="none" stroke="#ff0000" stroke-width="2"/>
<path d="M299.839,38.8743l 4.53543, 29.3146l 4.53543, 38.9171l 4.53543, 43.6031l 4.53543, 43.5236l 4.53543, 39.6454l 4.53543, 33.3787l 4.53543, 26.1735l 4.53543, 19.2088l 4.53543, 13.2385l 4.53543, 8.58843l 4.53543, 5.25398l 4.53543, 3.03489l
 4.53543, 1.65703l 4.53543, 0.85586l 4.53543, 0.418458l 4.53543, 0.193781l 4.53543, 0.0850308l 4.53543, 0.0572942h 126.992" fill="none" stroke="#ff0000" stroke-width="2"/>
<path d="M57.1929,346.022h 453.543" fill="none" stroke="black"/>
<path d="M141.05,336.795v 9.22726" fill="none" stroke="black"/>
<path d="M158.485,341.409v 4.61363" fill="none" stroke="black"/>
<path d="M175.921,341.409v 4.61363" fill="none" stroke="black"/>
<path d="M193.356,341.409v 4.61363" fill="none" stroke="black"/>
<path d="M210.792,341.409v 4.61363" fill="none" stroke="black"/>
<path d="M228.227,336.795v 9.22726" fill="none" stroke="black"/>
<path d="M245.663,341.409v 4.61363" fill="none" stroke="black"/>
<path d="M263.098,341.409v 4.61363" fill="none" stroke="black"/>
<path d="M280.534,341.409v 4.61363" fill="none" stroke="black"/>
<path d="M297.969,341.409v 4.61363" fill="none" stroke="black"/>
<path d="M315.405,336.795v 9.22726" fill="none" stroke="black"/>
<path d="M332.84,341.409v 4.61363" fill="none" stroke="black"/>
<path d="M350.276,341.409v 4.61363" fill="none" stroke="black"/>
<path d="M367.711,341.409v 4.61363" fill="none" stroke="black"/>
<path d="M385.146,341.409v 4.61363" fill="none" stroke="black"/>
<path d="M402.582,336.795v 9.22726" fill="none" stroke="black"/>
<path d="M420.017,341.409v 4.61363" fill="none" stroke="black"/>
<path d="M437.453,341.409v 4.61363" fill="none" stroke="black"/>
<path d="M454.888,341.409v 4.61363" fill="none" stroke="black"/>
<path d="M472.324,341.409v 4.61363" fill="none" stroke="black"/>
<path d="M489.759,336.795v 9.22726" fill="none" stroke="black"/>
<path d="M141.05,336.795v 9.22726" fill="none" stroke="black"/>
<path d="M123.615,341.409v 4.61363" fill="none" stroke="black"/>
<path d="M106.179,341.409v 4.61363" fill="none" stroke="black"/>
<path d="M88.7436,341.409v 4.61363" fill="none" stroke="black"/>
<path d="M71.3081,341.409v 4.61363" fill="none" stroke="black"/>
<path d="M489.759,336.795v 9.22726" fill="none" stroke="black"/>
<path d="M507.195,341.409v 4.61363" fill="none" stroke="black"/>
<text xml:space="preserve" x="130.014" y="358.403" fill="black" font-size="12.8453" font-family="Helvetica">790</text>
<text xml:space="preserve" x="217.171" y="358.403" fill="black" font-size="12.8453" font-family="Helvetica">800</text>
<text xml:space="preserve" x="304.328" y="358.403" fill="black" font-size="12.8453" font-family="Helvetica">810</text>
<text xml:space="preserve" x="391.486" y="358.403" fill="black" font-size="12.8453" font-family="Helvetica">820</text>
<text xml:space="preserve" x="478.643" y="358.403" fill="black" font-size="12.8453" font-family="Helvetica">830</text>
<text xml:space="preserve" x="460.723" y="370.622" fill="black" font-size="12.8453" font-family="Helvetica">Time [ps]</text>
<path d="M57.1929,346.022v -307.575" fill="none" stroke="black"/>
<path d="M70.7992,346.022h -13.6063" fill="none" stroke="black"/>
<path d="M63.9961,332.191h -6.80315" fill="none" stroke="black"/>
<path d="M63.9961,318.359h -6.80315" fill="none" stroke="black"/>
<path d="M63.9961,304.528h -6.80315" fill="none" stroke="black"/>
<path d="M70.7992,290.696h -13.6063" fill="none" stroke="black"/>
<path d="M63.9961,276.865h -6.80315" fill="none" stroke="black"/>
<path d="M63.9961,263.033h -6.80315" fill="none" stroke="black"/>
<path d="M63.9961,249.202h -6.80315" fill="none" stroke="black"/>
<path d="M70.7992,235.37h -13.6063" fill="none" stroke="black"/>
<path d="M63.9961,221.539h -6.80315" fill="none" stroke="black"/>
<path d="M63.9961,207.707h -6.80315" fill="none" stroke="black"/>
<path d="M63.9961,193.876h -6.80315" fill="none" stroke="black"/>
<path d="M70.7992,180.044h -13.6063" fill="none" stroke="black"/>
<path d="M63.9961,166.213h -6.80315" fill="none" stroke="black"/>
<path d="M63.9961,152.381h -6.80315" fill="none" stroke="black"/>
<path d="M63.9961,138.55h -6.80315" fill="none" stroke="black"/>
<path d="M70.7992,124.718h -13.6063" fill="none" stroke="black"/>
<path d="M63.9961,110.887h -6.80315" fill="none" stroke="black"/>
<path d="M63.9961,97.0555h -6.80315" fill="none" stroke="black"/>
<path d="M63.9961,83.224h -6.80315" fill="none" stroke="black"/>
<path d="M70.7992,69.3926h -13.6063" fill="none" stroke="black"/>
<path d="M70.7992,69.3926h -13.6063" fill="none" stroke="black"/>
<path d="M63.9961,55.5611h -6.80315" fill="none" stroke="black"/>
<path d="M63.9961,41.7296h -6.80315" fill="none" stroke="black"/>
<text xml:space="preserve" x="47.7441" y="350.258" fill="black" font-size="12.8453" font-family="Helvetica">0</text>
<text xml:space="preserve" x="41.2277" y="294.868" fill="black" font-size="12.8453" font-family="Helvetica">20</text>
<text xml:space="preserve" x="41.2277" y="239.479" fill="black" font-size="12.8453" font-family="Helvetica">40</text>
<text xml:space="preserve" x="41.2277" y="184.904" fill="black" font-size="12.8453" font-family="Helvetica">60</text>
<text xml:space="preserve" x="41.2277" y="129.514" fill="black" font-size="12.8453" font-family="Helvetica">80</text>
<text xml:space="preserve" x="33.8967" y="74.1244" fill="black" font-size="12.8453" font-family="Helvetica">100</text>
<g transform="rotate(-90,20.8638,70.0516)">
<text xml:space="preserve" x="20.8638" y="70.0516" fill="black" font-size="12.8453" font-family="Helvetica">Event</text>
</g>
<text xml:space="preserve" x="243.237" y="18.7347" fill="black" font-size="16.9898" font-family="Helvetica">420mm 45</text></svg>
