<?xml version="1.0" standalone="no"?>
<svg width="567.429" height="386.304" viewBox="0 0 567.429 386.304" xmlns="http://www.w3.org/2000/svg" shape-rendering="crispEdges">
<title>
img/week2/Combined0mm_ch_37.svg
</title>
<desc>
Creator: ROOT Version 6.22/08
CreationDate: Tue Jun 22 00:36:47 2021</desc>
<defs>
</defs>
<rect x="0.5" y="0" width="566.929" height="385.804" fill="white"/>
<rect x="57.1929" y="38.5804" width="453.543" height="308.643" fill="white"/>
<rect x="57.1929" y="38.5804" width="453.543" height="308.643" fill="none" stroke="black"/>
<rect x="57.1929" y="38.5804" width="453.543" height="308.643" fill="white"/>
<rect x="57.1929" y="38.5804" width="453.543" height="308.643" fill="none" stroke="black"/>
<path d="M57.1929,347.224h 34.8879v -2.8264h 69.7759v -2.8264h 34.8879v -14.132h 34.8879v -158.279h 34.8879v -115.883h 34.8879v 271.335h 34.8879v 22.6112h 174.44" fill="none" stroke="#000099"/>
<g fill="#ff0000">
<polygon points=" 279.741, 49.0542 288.188, 49.0542 283.965, 57.5013"/>
</g>
<path d="M59.4606,347.224h 117.921l 4.53543, -0.0452591l 4.53543, -0.0639065l 4.53543, -0.142347l 4.53543, -0.302l 4.53543, -0.610047l 4.53543, -1.17282l 4.53543, -2.1448l 4.53543, -3.72868l 4.53543, -6.15736l 4.53543, -9.64893l 4.53543, -14.3305l
 4.53543, -20.1385l 4.53543, -26.7184l 4.53543, -33.3634l 4.53543, -39.0357l 4.53543, -42.502l 4.53543, -42.5813l 4.53543, -38.4562l 4.16337, -27.501" fill="none" stroke="#ff0000" stroke-width="2"/>
<path d="M279.235,38.5804l 2.46233, 13.6988" fill="none" stroke="#ff0000" stroke-width="2"/>
<path d="M281.697,52.2793l 4.53543, 35.4163l 4.53543, 41.3945l 4.53543, 43.006l 4.53543, 40.8263l 4.53543, 35.9229l 4.53543, 29.5428l 4.53543, 22.829l 4.53543, 16.6355l 4.53543, 11.4603l 4.53543, 7.47797l 4.53543, 4.62811l 4.53543, 2.71975l 4.53543,
 1.51891l 4.53543, 0.806707l 4.53543, 0.407682l 4.53543, 0.196133l 4.53543, 0.0898617l 4.53543, 0.0657742h 136.063" fill="none" stroke="#ff0000" stroke-width="2"/>
<path d="M499.398,347.224h 9.07087" fill="none" stroke="#ff0000" stroke-width="2"/>
<rect x="351.996" y="25.0773" width="204.094" height="108.025" fill="white"/>
<path d="M351.996,133.102h 204.094" fill="none" stroke="black"/>
<path d="M556.091,133.102v -108.025" fill="none" stroke="black"/>
<path d="M556.091,25.0773h -204.094" fill="none" stroke="black"/>
<path d="M351.996,25.0773v 108.025" fill="none" stroke="black"/>
<text xml:space="preserve" x="361.938" y="38.9865" fill="black" font-size="15.6962" font-family="Helvetica">Entries </text>
<text xml:space="preserve" x="515.447" y="38.9865" fill="black" font-size="15.6962" font-family="Helvetica"> 190</text>
<text xml:space="preserve" x="375.745" y="57.6676" fill="black" font-size="15.6962" font-family="Helvetica"> / ndf </text>
<text xml:space="preserve" x="370.06" y="52.7943" fill="black" font-size="10.6308" font-family="Helvetica">2</text>
<text xml:space="preserve" x="361.938" y="57.6676" fill="black" font-size="15.6962" font-family="Times">&#0967;</text>
<text xml:space="preserve" x="481.334" y="57.6676" fill="black" font-size="15.6962" font-family="Helvetica"> 7.094 / 4</text>
<text xml:space="preserve" x="361.938" y="75.5364" fill="black" font-size="15.6962" font-family="Helvetica">Prob  </text>
<text xml:space="preserve" x="505.7" y="75.5364" fill="black" font-size="15.6962" font-family="Helvetica"> 0.131</text>
<text xml:space="preserve" x="361.938" y="94.2175" fill="black" font-size="15.6962" font-family="Helvetica">Const    </text>
<text xml:space="preserve" x="511.386" y="94.2175" fill="black" font-size="15.6962" font-family="Helvetica"> 12.2</text>
<text xml:space="preserve" x="502.452" y="94.2175" fill="black" font-size="15.6962" font-family="Times">&#0177;</text>
<text xml:space="preserve" x="454.531" y="94.2175" fill="black" font-size="15.6962" font-family="Helvetica"> 117.7 </text>
<text xml:space="preserve" x="361.938" y="111.274" fill="black" font-size="15.6962" font-family="Helvetica">Mean     </text>
<text xml:space="preserve" x="520.32" y="111.274" fill="black" font-size="15.6962" font-family="Helvetica"> 0.2</text>
<text xml:space="preserve" x="511.386" y="111.274" fill="black" font-size="15.6962" font-family="Times">&#0177;</text>
<text xml:space="preserve" x="463.465" y="111.274" fill="black" font-size="15.6962" font-family="Helvetica"> 812.9 </text>
<text xml:space="preserve" x="361.938" y="128.331" fill="black" font-size="15.6962" font-family="Helvetica">Sigma    </text>
<text xml:space="preserve" x="511.386" y="129.143" fill="black" font-size="15.6962" font-family="Helvetica"> 0.17</text>
<text xml:space="preserve" x="502.452" y="129.143" fill="black" font-size="15.6962" font-family="Times">&#0177;</text>
<text xml:space="preserve" x="459.404" y="129.143" fill="black" font-size="15.6962" font-family="Helvetica">  2.43 </text>
<path d="M57.1929,347.224h 453.543" fill="none" stroke="black"/>
<path d="M71.2741,337.964v 9.2593" fill="none" stroke="black"/>
<path d="M88.7096,342.594v 4.62965" fill="none" stroke="black"/>
<path d="M106.145,342.594v 4.62965" fill="none" stroke="black"/>
<path d="M123.58,342.594v 4.62965" fill="none" stroke="black"/>
<path d="M141.016,342.594v 4.62965" fill="none" stroke="black"/>
<path d="M158.451,337.964v 9.2593" fill="none" stroke="black"/>
<path d="M175.887,342.594v 4.62965" fill="none" stroke="black"/>
<path d="M193.322,342.594v 4.62965" fill="none" stroke="black"/>
<path d="M210.758,342.594v 4.62965" fill="none" stroke="black"/>
<path d="M228.193,342.594v 4.62965" fill="none" stroke="black"/>
<path d="M245.629,337.964v 9.2593" fill="none" stroke="black"/>
<path d="M263.064,342.594v 4.62965" fill="none" stroke="black"/>
<path d="M280.5,342.594v 4.62965" fill="none" stroke="black"/>
<path d="M297.935,342.594v 4.62965" fill="none" stroke="black"/>
<path d="M315.371,342.594v 4.62965" fill="none" stroke="black"/>
<path d="M332.806,337.964v 9.2593" fill="none" stroke="black"/>
<path d="M350.241,342.594v 4.62965" fill="none" stroke="black"/>
<path d="M367.677,342.594v 4.62965" fill="none" stroke="black"/>
<path d="M385.112,342.594v 4.62965" fill="none" stroke="black"/>
<path d="M402.548,342.594v 4.62965" fill="none" stroke="black"/>
<path d="M419.983,337.964v 9.2593" fill="none" stroke="black"/>
<path d="M437.419,342.594v 4.62965" fill="none" stroke="black"/>
<path d="M454.854,342.594v 4.62965" fill="none" stroke="black"/>
<path d="M472.29,342.594v 4.62965" fill="none" stroke="black"/>
<path d="M489.725,342.594v 4.62965" fill="none" stroke="black"/>
<path d="M507.161,337.964v 9.2593" fill="none" stroke="black"/>
<path d="M71.2741,337.964v 9.2593" fill="none" stroke="black"/>
<path d="M507.161,337.964v 9.2593" fill="none" stroke="black"/>
<text xml:space="preserve" x="59.792" y="359.813" fill="black" font-size="12.8882" font-family="Helvetica">790</text>
<text xml:space="preserve" x="146.699" y="359.813" fill="black" font-size="12.8882" font-family="Helvetica">800</text>
<text xml:space="preserve" x="233.607" y="359.813" fill="black" font-size="12.8882" font-family="Helvetica">810</text>
<text xml:space="preserve" x="321.327" y="359.813" fill="black" font-size="12.8882" font-family="Helvetica">820</text>
<text xml:space="preserve" x="408.234" y="359.813" fill="black" font-size="12.8882" font-family="Helvetica">830</text>
<text xml:space="preserve" x="495.142" y="359.813" fill="black" font-size="12.8882" font-family="Helvetica">840</text>
<text xml:space="preserve" x="481.334" y="373.621" fill="black" font-size="12.8882" font-family="Helvetica">Time</text>
<path d="M57.1929,347.224v -308.643" fill="none" stroke="black"/>
<path d="M70.7992,347.224h -13.6063" fill="none" stroke="black"/>
<path d="M63.9961,333.092h -6.80315" fill="none" stroke="black"/>
<path d="M63.9961,318.96h -6.80315" fill="none" stroke="black"/>
<path d="M63.9961,304.828h -6.80315" fill="none" stroke="black"/>
<path d="M70.7992,290.696h -13.6063" fill="none" stroke="black"/>
<path d="M63.9961,276.564h -6.80315" fill="none" stroke="black"/>
<path d="M63.9961,262.432h -6.80315" fill="none" stroke="black"/>
<path d="M63.9961,248.3h -6.80315" fill="none" stroke="black"/>
<path d="M70.7992,234.168h -13.6063" fill="none" stroke="black"/>
<path d="M63.9961,220.036h -6.80315" fill="none" stroke="black"/>
<path d="M63.9961,205.904h -6.80315" fill="none" stroke="black"/>
<path d="M63.9961,191.772h -6.80315" fill="none" stroke="black"/>
<path d="M70.7992,177.64h -13.6063" fill="none" stroke="black"/>
<path d="M63.9961,163.508h -6.80315" fill="none" stroke="black"/>
<path d="M63.9961,149.375h -6.80315" fill="none" stroke="black"/>
<path d="M63.9961,135.243h -6.80315" fill="none" stroke="black"/>
<path d="M70.7992,121.111h -13.6063" fill="none" stroke="black"/>
<path d="M63.9961,106.979h -6.80315" fill="none" stroke="black"/>
<path d="M63.9961,92.8474h -6.80315" fill="none" stroke="black"/>
<path d="M63.9961,78.7154h -6.80315" fill="none" stroke="black"/>
<path d="M70.7992,64.5833h -13.6063" fill="none" stroke="black"/>
<path d="M70.7992,64.5833h -13.6063" fill="none" stroke="black"/>
<path d="M63.9961,50.4513h -6.80315" fill="none" stroke="black"/>
<text xml:space="preserve" x="46.7965" y="351.691" fill="black" font-size="12.8882" font-family="Helvetica">0</text>
<text xml:space="preserve" x="39.4865" y="294.836" fill="black" font-size="12.8882" font-family="Helvetica">20</text>
<text xml:space="preserve" x="39.4865" y="238.792" fill="black" font-size="12.8882" font-family="Helvetica">40</text>
<text xml:space="preserve" x="39.4865" y="181.937" fill="black" font-size="12.8882" font-family="Helvetica">60</text>
<text xml:space="preserve" x="39.4865" y="125.894" fill="black" font-size="12.8882" font-family="Helvetica">80</text>
<text xml:space="preserve" x="32.1766" y="69.0387" fill="black" font-size="12.8882" font-family="Helvetica">100</text>
<g transform="rotate(-90,21.6177,71.4753)">
<text xml:space="preserve" x="21.6177" y="71.4753" fill="black" font-size="12.8882" font-family="Helvetica">Event</text>
</g>
<rect x="351.996" y="25.0773" width="204.094" height="108.025" fill="white"/>
<path d="M351.996,133.102h 204.094" fill="none" stroke="black"/>
<path d="M556.091,133.102v -108.025" fill="none" stroke="black"/>
<path d="M556.091,25.0773h -204.094" fill="none" stroke="black"/>
<path d="M351.996,25.0773v 108.025" fill="none" stroke="black"/>
<text xml:space="preserve" x="361.938" y="38.9865" fill="black" font-size="15.6962" font-family="Helvetica">Entries </text>
<text xml:space="preserve" x="515.447" y="38.9865" fill="black" font-size="15.6962" font-family="Helvetica"> 190</text>
<text xml:space="preserve" x="375.745" y="57.6676" fill="black" font-size="15.6962" font-family="Helvetica"> / ndf </text>
<text xml:space="preserve" x="370.06" y="52.7943" fill="black" font-size="10.6308" font-family="Helvetica">2</text>
<text xml:space="preserve" x="361.938" y="57.6676" fill="black" font-size="15.6962" font-family="Times">&#0967;</text>
<text xml:space="preserve" x="481.334" y="57.6676" fill="black" font-size="15.6962" font-family="Helvetica"> 7.094 / 4</text>
<text xml:space="preserve" x="361.938" y="75.5364" fill="black" font-size="15.6962" font-family="Helvetica">Prob  </text>
<text xml:space="preserve" x="505.7" y="75.5364" fill="black" font-size="15.6962" font-family="Helvetica"> 0.131</text>
<text xml:space="preserve" x="361.938" y="94.2175" fill="black" font-size="15.6962" font-family="Helvetica">Const    </text>
<text xml:space="preserve" x="511.386" y="94.2175" fill="black" font-size="15.6962" font-family="Helvetica"> 12.2</text>
<text xml:space="preserve" x="502.452" y="94.2175" fill="black" font-size="15.6962" font-family="Times">&#0177;</text>
<text xml:space="preserve" x="454.531" y="94.2175" fill="black" font-size="15.6962" font-family="Helvetica"> 117.7 </text>
<text xml:space="preserve" x="361.938" y="111.274" fill="black" font-size="15.6962" font-family="Helvetica">Mean     </text>
<text xml:space="preserve" x="520.32" y="111.274" fill="black" font-size="15.6962" font-family="Helvetica"> 0.2</text>
<text xml:space="preserve" x="511.386" y="111.274" fill="black" font-size="15.6962" font-family="Times">&#0177;</text>
<text xml:space="preserve" x="463.465" y="111.274" fill="black" font-size="15.6962" font-family="Helvetica"> 812.9 </text>
<text xml:space="preserve" x="361.938" y="128.331" fill="black" font-size="15.6962" font-family="Helvetica">Sigma    </text>
<text xml:space="preserve" x="511.386" y="129.143" fill="black" font-size="15.6962" font-family="Helvetica"> 0.17</text>
<text xml:space="preserve" x="502.452" y="129.143" fill="black" font-size="15.6962" font-family="Times">&#0177;</text>
<text xml:space="preserve" x="459.404" y="129.143" fill="black" font-size="15.6962" font-family="Helvetica">  2.43 </text>
<text xml:space="preserve" x="253.1" y="18.681" fill="black" font-size="17.0471" font-family="Helvetica">0mm 37</text></svg>
