<?xml version="1.0" standalone="no"?>
<svg width="567.429" height="386.304" viewBox="0 0 567.429 386.304" xmlns="http://www.w3.org/2000/svg" shape-rendering="crispEdges">
<title>
img/week2/Combined140mm_ch_58.svg
</title>
<desc>
Creator: ROOT Version 6.22/08
CreationDate: Tue Jun 22 00:35:30 2021</desc>
<defs>
</defs>
<rect x="0.5" y="0" width="566.929" height="385.804" fill="white"/>
<rect x="57.1929" y="38.5804" width="453.543" height="308.643" fill="white"/>
<rect x="57.1929" y="38.5804" width="453.543" height="308.643" fill="none" stroke="black"/>
<rect x="57.1929" y="38.5804" width="453.543" height="308.643" fill="white"/>
<rect x="57.1929" y="38.5804" width="453.543" height="308.643" fill="none" stroke="black"/>
<path d="M57.1929,347.224h 160.074v -15.5619h 26.679v -140.057h 26.679v -129.683h 26.679v 134.87h 26.679v 150.432h 186.753" fill="none" stroke="#000099"/>
<g fill="#ff0000">
<polygon points=" 279.741, 57.6985 288.188, 57.6985 283.965, 66.1456"/>
</g>
<path d="M59.4606,347.224h 126.992l 4.53543, -0.0628486l 4.53543, -0.0775317l 4.53543, -0.160839l 4.53543, -0.319684l 4.53543, -0.608602l 4.53543, -1.10935l 4.53543, -1.9352l 4.53543, -3.22908l 4.53543, -5.15038l 4.53543, -7.84606l 4.53543, -11.4043l
 4.53543, -15.795l 4.53543, -20.8086l 4.53543, -26.0146l 4.53543, -30.7614l 4.53543, -34.2382l 4.53543, -35.6024l 4.53543, -34.1566l 4.53543, -29.5343l 4.53543, -21.8426l 4.53543, -11.7102" fill="none" stroke="#ff0000" stroke-width="2"/>
<path d="M281.697,54.8562l 4.53543, -0.214231l 4.53543, 11.307l 4.53543, 21.5104l 4.53543, 29.3053l 4.53543, 34.0446l 4.53543, 35.6025l 4.53543, 34.33l 4.53543, 30.9158l 4.53543, 26.2004l 4.53543, 20.9985l 4.53543, 15.9689l 4.53543, 11.5506l 4.53543,
 7.96049l 4.53543, 5.23436l 4.53543, 3.28719l 4.53543, 1.97325l 4.53543, 1.13298l 4.53543, 0.62256l 4.53543, 0.327532l 4.53543, 0.165046l 4.53543, 0.0796837l 4.53543, 0.0647647h 122.457" fill="none" stroke="#ff0000" stroke-width="2"/>
<path d="M503.933,347.224h 4.53543" fill="none" stroke="#ff0000" stroke-width="2"/>
<rect x="351.996" y="25.0773" width="204.094" height="108.025" fill="white"/>
<path d="M351.996,133.102h 204.094" fill="none" stroke="black"/>
<path d="M556.091,133.102v -108.025" fill="none" stroke="black"/>
<path d="M556.091,25.0773h -204.094" fill="none" stroke="black"/>
<path d="M351.996,25.0773v 108.025" fill="none" stroke="black"/>
<text xml:space="preserve" x="361.938" y="38.9865" fill="black" font-size="15.6962" font-family="Helvetica">Entries </text>
<text xml:space="preserve" x="515.447" y="38.9865" fill="black" font-size="15.6962" font-family="Helvetica"> 120</text>
<text xml:space="preserve" x="375.745" y="57.6676" fill="black" font-size="15.6962" font-family="Helvetica"> / ndf </text>
<text xml:space="preserve" x="370.06" y="52.7943" fill="black" font-size="10.6308" font-family="Helvetica">2</text>
<text xml:space="preserve" x="361.938" y="57.6676" fill="black" font-size="15.6962" font-family="Times">&#0967;</text>
<text xml:space="preserve" x="475.648" y="57.6676" fill="black" font-size="15.6962" font-family="Helvetica"> 0.2542 / 1</text>
<text xml:space="preserve" x="361.938" y="75.5364" fill="black" font-size="15.6962" font-family="Helvetica">Prob  </text>
<text xml:space="preserve" x="496.766" y="75.5364" fill="black" font-size="15.6962" font-family="Helvetica"> 0.6141</text>
<text xml:space="preserve" x="361.938" y="94.2175" fill="black" font-size="15.6962" font-family="Helvetica">Const    </text>
<text xml:space="preserve" x="511.386" y="93.4052" fill="black" font-size="15.6962" font-family="Helvetica"> 6.55</text>
<text xml:space="preserve" x="502.452" y="93.4052" fill="black" font-size="15.6962" font-family="Times">&#0177;</text>
<text xml:space="preserve" x="454.531" y="93.4052" fill="black" font-size="15.6962" font-family="Helvetica"> 56.67 </text>
<text xml:space="preserve" x="361.938" y="111.274" fill="black" font-size="15.6962" font-family="Helvetica">Mean     </text>
<text xml:space="preserve" x="519.508" y="111.274" fill="black" font-size="15.6962" font-family="Helvetica"> 0.4</text>
<text xml:space="preserve" x="510.574" y="111.274" fill="black" font-size="15.6962" font-family="Times">&#0177;</text>
<text xml:space="preserve" x="462.653" y="111.274" fill="black" font-size="15.6962" font-family="Helvetica"> 810.4 </text>
<text xml:space="preserve" x="361.938" y="128.331" fill="black" font-size="15.6962" font-family="Helvetica">Sigma    </text>
<text xml:space="preserve" x="502.452" y="129.143" fill="black" font-size="15.6962" font-family="Helvetica"> 0.292</text>
<text xml:space="preserve" x="493.517" y="129.143" fill="black" font-size="15.6962" font-family="Times">&#0177;</text>
<text xml:space="preserve" x="445.596" y="129.143" fill="black" font-size="15.6962" font-family="Helvetica"> 3.396 </text>
<path d="M57.1929,347.224h 453.543" fill="none" stroke="black"/>
<path d="M81.3329,337.964v 9.2593" fill="none" stroke="black"/>
<path d="M94.6659,342.594v 4.62965" fill="none" stroke="black"/>
<path d="M107.999,342.594v 4.62965" fill="none" stroke="black"/>
<path d="M121.332,342.594v 4.62965" fill="none" stroke="black"/>
<path d="M134.665,342.594v 4.62965" fill="none" stroke="black"/>
<path d="M147.998,337.964v 9.2593" fill="none" stroke="black"/>
<path d="M161.331,342.594v 4.62965" fill="none" stroke="black"/>
<path d="M174.664,342.594v 4.62965" fill="none" stroke="black"/>
<path d="M187.997,342.594v 4.62965" fill="none" stroke="black"/>
<path d="M201.33,342.594v 4.62965" fill="none" stroke="black"/>
<path d="M214.663,337.964v 9.2593" fill="none" stroke="black"/>
<path d="M227.996,342.594v 4.62965" fill="none" stroke="black"/>
<path d="M241.329,342.594v 4.62965" fill="none" stroke="black"/>
<path d="M254.662,342.594v 4.62965" fill="none" stroke="black"/>
<path d="M267.995,342.594v 4.62965" fill="none" stroke="black"/>
<path d="M281.328,337.964v 9.2593" fill="none" stroke="black"/>
<path d="M294.661,342.594v 4.62965" fill="none" stroke="black"/>
<path d="M307.994,342.594v 4.62965" fill="none" stroke="black"/>
<path d="M321.327,342.594v 4.62965" fill="none" stroke="black"/>
<path d="M334.66,342.594v 4.62965" fill="none" stroke="black"/>
<path d="M347.993,337.964v 9.2593" fill="none" stroke="black"/>
<path d="M361.326,342.594v 4.62965" fill="none" stroke="black"/>
<path d="M374.659,342.594v 4.62965" fill="none" stroke="black"/>
<path d="M387.992,342.594v 4.62965" fill="none" stroke="black"/>
<path d="M401.325,342.594v 4.62965" fill="none" stroke="black"/>
<path d="M414.658,337.964v 9.2593" fill="none" stroke="black"/>
<path d="M427.991,342.594v 4.62965" fill="none" stroke="black"/>
<path d="M441.324,342.594v 4.62965" fill="none" stroke="black"/>
<path d="M454.657,342.594v 4.62965" fill="none" stroke="black"/>
<path d="M467.99,342.594v 4.62965" fill="none" stroke="black"/>
<path d="M481.323,337.964v 9.2593" fill="none" stroke="black"/>
<path d="M81.3329,337.964v 9.2593" fill="none" stroke="black"/>
<path d="M67.9999,342.594v 4.62965" fill="none" stroke="black"/>
<path d="M481.323,337.964v 9.2593" fill="none" stroke="black"/>
<path d="M494.656,342.594v 4.62965" fill="none" stroke="black"/>
<path d="M507.989,342.594v 4.62965" fill="none" stroke="black"/>
<text xml:space="preserve" x="69.5387" y="359.813" fill="black" font-size="12.8882" font-family="Helvetica">780</text>
<text xml:space="preserve" x="136.141" y="359.813" fill="black" font-size="12.8882" font-family="Helvetica">790</text>
<text xml:space="preserve" x="202.743" y="359.813" fill="black" font-size="12.8882" font-family="Helvetica">800</text>
<text xml:space="preserve" x="269.345" y="359.813" fill="black" font-size="12.8882" font-family="Helvetica">810</text>
<text xml:space="preserve" x="335.947" y="359.813" fill="black" font-size="12.8882" font-family="Helvetica">820</text>
<text xml:space="preserve" x="402.549" y="359.813" fill="black" font-size="12.8882" font-family="Helvetica">830</text>
<text xml:space="preserve" x="469.151" y="359.813" fill="black" font-size="12.8882" font-family="Helvetica">840</text>
<text xml:space="preserve" x="481.334" y="373.621" fill="black" font-size="12.8882" font-family="Helvetica">Time</text>
<path d="M57.1929,347.224v -308.643" fill="none" stroke="black"/>
<path d="M70.7992,347.224h -13.6063" fill="none" stroke="black"/>
<path d="M63.9961,336.849h -6.80315" fill="none" stroke="black"/>
<path d="M63.9961,326.475h -6.80315" fill="none" stroke="black"/>
<path d="M63.9961,316.1h -6.80315" fill="none" stroke="black"/>
<path d="M63.9961,305.725h -6.80315" fill="none" stroke="black"/>
<path d="M70.7992,295.351h -13.6063" fill="none" stroke="black"/>
<path d="M63.9961,284.976h -6.80315" fill="none" stroke="black"/>
<path d="M63.9961,274.602h -6.80315" fill="none" stroke="black"/>
<path d="M63.9961,264.227h -6.80315" fill="none" stroke="black"/>
<path d="M63.9961,253.852h -6.80315" fill="none" stroke="black"/>
<path d="M70.7992,243.478h -13.6063" fill="none" stroke="black"/>
<path d="M63.9961,233.103h -6.80315" fill="none" stroke="black"/>
<path d="M63.9961,222.728h -6.80315" fill="none" stroke="black"/>
<path d="M63.9961,212.354h -6.80315" fill="none" stroke="black"/>
<path d="M63.9961,201.979h -6.80315" fill="none" stroke="black"/>
<path d="M70.7992,191.605h -13.6063" fill="none" stroke="black"/>
<path d="M63.9961,181.23h -6.80315" fill="none" stroke="black"/>
<path d="M63.9961,170.855h -6.80315" fill="none" stroke="black"/>
<path d="M63.9961,160.481h -6.80315" fill="none" stroke="black"/>
<path d="M63.9961,150.106h -6.80315" fill="none" stroke="black"/>
<path d="M70.7992,139.732h -13.6063" fill="none" stroke="black"/>
<path d="M63.9961,129.357h -6.80315" fill="none" stroke="black"/>
<path d="M63.9961,118.982h -6.80315" fill="none" stroke="black"/>
<path d="M63.9961,108.608h -6.80315" fill="none" stroke="black"/>
<path d="M63.9961,98.2332h -6.80315" fill="none" stroke="black"/>
<path d="M70.7992,87.8586h -13.6063" fill="none" stroke="black"/>
<path d="M70.7992,87.8586h -13.6063" fill="none" stroke="black"/>
<path d="M63.9961,77.4839h -6.80315" fill="none" stroke="black"/>
<path d="M63.9961,67.1093h -6.80315" fill="none" stroke="black"/>
<path d="M63.9961,56.7347h -6.80315" fill="none" stroke="black"/>
<path d="M63.9961,46.3601h -6.80315" fill="none" stroke="black"/>
<text xml:space="preserve" x="46.7965" y="351.691" fill="black" font-size="12.8882" font-family="Helvetica">0</text>
<text xml:space="preserve" x="39.4865" y="299.709" fill="black" font-size="12.8882" font-family="Helvetica">10</text>
<text xml:space="preserve" x="39.4865" y="247.727" fill="black" font-size="12.8882" font-family="Helvetica">20</text>
<text xml:space="preserve" x="39.4865" y="195.745" fill="black" font-size="12.8882" font-family="Helvetica">30</text>
<text xml:space="preserve" x="39.4865" y="144.575" fill="black" font-size="12.8882" font-family="Helvetica">40</text>
<text xml:space="preserve" x="39.4865" y="92.593" fill="black" font-size="12.8882" font-family="Helvetica">50</text>
<g transform="rotate(-90,28.9277,71.4753)">
<text xml:space="preserve" x="28.9277" y="71.4753" fill="black" font-size="12.8882" font-family="Helvetica">Event</text>
</g>
<rect x="351.996" y="25.0773" width="204.094" height="108.025" fill="white"/>
<path d="M351.996,133.102h 204.094" fill="none" stroke="black"/>
<path d="M556.091,133.102v -108.025" fill="none" stroke="black"/>
<path d="M556.091,25.0773h -204.094" fill="none" stroke="black"/>
<path d="M351.996,25.0773v 108.025" fill="none" stroke="black"/>
<text xml:space="preserve" x="361.938" y="38.9865" fill="black" font-size="15.6962" font-family="Helvetica">Entries </text>
<text xml:space="preserve" x="515.447" y="38.9865" fill="black" font-size="15.6962" font-family="Helvetica"> 120</text>
<text xml:space="preserve" x="375.745" y="57.6676" fill="black" font-size="15.6962" font-family="Helvetica"> / ndf </text>
<text xml:space="preserve" x="370.06" y="52.7943" fill="black" font-size="10.6308" font-family="Helvetica">2</text>
<text xml:space="preserve" x="361.938" y="57.6676" fill="black" font-size="15.6962" font-family="Times">&#0967;</text>
<text xml:space="preserve" x="475.648" y="57.6676" fill="black" font-size="15.6962" font-family="Helvetica"> 0.2542 / 1</text>
<text xml:space="preserve" x="361.938" y="75.5364" fill="black" font-size="15.6962" font-family="Helvetica">Prob  </text>
<text xml:space="preserve" x="496.766" y="75.5364" fill="black" font-size="15.6962" font-family="Helvetica"> 0.6141</text>
<text xml:space="preserve" x="361.938" y="94.2175" fill="black" font-size="15.6962" font-family="Helvetica">Const    </text>
<text xml:space="preserve" x="511.386" y="93.4052" fill="black" font-size="15.6962" font-family="Helvetica"> 6.55</text>
<text xml:space="preserve" x="502.452" y="93.4052" fill="black" font-size="15.6962" font-family="Times">&#0177;</text>
<text xml:space="preserve" x="454.531" y="93.4052" fill="black" font-size="15.6962" font-family="Helvetica"> 56.67 </text>
<text xml:space="preserve" x="361.938" y="111.274" fill="black" font-size="15.6962" font-family="Helvetica">Mean     </text>
<text xml:space="preserve" x="519.508" y="111.274" fill="black" font-size="15.6962" font-family="Helvetica"> 0.4</text>
<text xml:space="preserve" x="510.574" y="111.274" fill="black" font-size="15.6962" font-family="Times">&#0177;</text>
<text xml:space="preserve" x="462.653" y="111.274" fill="black" font-size="15.6962" font-family="Helvetica"> 810.4 </text>
<text xml:space="preserve" x="361.938" y="128.331" fill="black" font-size="15.6962" font-family="Helvetica">Sigma    </text>
<text xml:space="preserve" x="502.452" y="129.143" fill="black" font-size="15.6962" font-family="Helvetica"> 0.292</text>
<text xml:space="preserve" x="493.517" y="129.143" fill="black" font-size="15.6962" font-family="Times">&#0177;</text>
<text xml:space="preserve" x="445.596" y="129.143" fill="black" font-size="15.6962" font-family="Helvetica"> 3.396 </text>
<text xml:space="preserve" x="243.354" y="18.681" fill="black" font-size="17.0471" font-family="Helvetica">140mm 58</text></svg>
