<?xml version="1.0" standalone="no"?>
<svg width="567.429" height="386.304" viewBox="0 0 567.429 386.304" xmlns="http://www.w3.org/2000/svg" shape-rendering="crispEdges">
<title>
img/week2/Combined280mm_ch_8_9_10_11.svg
</title>
<desc>
Creator: ROOT Version 6.22/08
CreationDate: Mon Jun 21 21:39:53 2021</desc>
<defs>
</defs>
<rect x="0.5" y="0" width="566.929" height="385.804" fill="white"/>
<rect x="57.1929" y="38.5804" width="453.543" height="308.643" fill="white"/>
<rect x="57.1929" y="38.5804" width="453.543" height="308.643" fill="none" stroke="black"/>
<rect x="57.1929" y="38.5804" width="453.543" height="308.643" fill="white"/>
<rect x="57.1929" y="38.5804" width="453.543" height="308.643" fill="none" stroke="black"/>
<path d="M57.1929,346.166h 30.2362v 1.05736h 60.4724v -2.11472h 60.4724v -20.0898h 30.2362v -82.4741h 30.2362v -189.267h 30.2362v 182.923h 30.2362v 107.851h 30.2362v 3.17208h 151.181" fill="none" stroke="#000099"/>
<g fill="#ff0000">
<polygon points=" 279.741, 49.0542 288.188, 49.0542 283.965, 57.5013"/>
</g>
<path d="M59.4606,347.224h 126.992l 4.53543, -0.0317953l 4.53543, -0.0444281l 4.53543, -0.0986346l 4.53543, -0.208986l 4.53543, -0.422453l 4.53543, -0.814418l 4.53543, -1.49667l 4.53543, -2.62041l 4.53543, -4.36802l 4.53543, -6.92633l 4.53543,
 -10.4366l 4.53543, -14.9229l 4.53543, -20.211l 4.53543, -25.8635l 4.53543, -31.1619l 4.53543, -35.1681l 4.53543, -36.876l 4.53543, -35.4343l 4.53543, -30.3901l 4.53543, -21.8767l 4.53543, -10.6747" fill="none" stroke="#ff0000" stroke-width="2"/>
<path d="M281.697,57.1759l 4.53543, 1.89282l 4.53543, 14.2158l 4.53543, 24.7359l 4.53543, 32.2706l 4.53543, 36.2287l 4.53543, 36.6644l 4.53543, 34.1725l 4.53543, 29.6762l 4.53543, 24.1824l 4.53543, 18.5755l 4.53543, 13.4929l 4.53543, 9.28904l
 4.53543, 6.07114l 4.53543, 3.77188l 4.53543, 2.2298l 4.53543, 1.25528l 4.53543, 0.673377l 4.53543, 0.344388l 4.53543, 0.167995l 4.53543, 0.0781927l 4.53543, 0.0590465h 126.992" fill="none" stroke="#ff0000" stroke-width="2"/>
<path d="M503.933,347.224h 4.53543" fill="none" stroke="#ff0000" stroke-width="2"/>
<path d="M57.1929,347.224h 453.543" fill="none" stroke="black"/>
<path d="M84.5516,337.964v 9.2593" fill="none" stroke="black"/>
<path d="M99.6623,342.594v 4.62965" fill="none" stroke="black"/>
<path d="M114.773,342.594v 4.62965" fill="none" stroke="black"/>
<path d="M129.884,342.594v 4.62965" fill="none" stroke="black"/>
<path d="M144.995,342.594v 4.62965" fill="none" stroke="black"/>
<path d="M160.105,337.964v 9.2593" fill="none" stroke="black"/>
<path d="M175.216,342.594v 4.62965" fill="none" stroke="black"/>
<path d="M190.327,342.594v 4.62965" fill="none" stroke="black"/>
<path d="M205.437,342.594v 4.62965" fill="none" stroke="black"/>
<path d="M220.548,342.594v 4.62965" fill="none" stroke="black"/>
<path d="M235.659,337.964v 9.2593" fill="none" stroke="black"/>
<path d="M250.77,342.594v 4.62965" fill="none" stroke="black"/>
<path d="M265.88,342.594v 4.62965" fill="none" stroke="black"/>
<path d="M280.991,342.594v 4.62965" fill="none" stroke="black"/>
<path d="M296.102,342.594v 4.62965" fill="none" stroke="black"/>
<path d="M311.213,337.964v 9.2593" fill="none" stroke="black"/>
<path d="M326.323,342.594v 4.62965" fill="none" stroke="black"/>
<path d="M341.434,342.594v 4.62965" fill="none" stroke="black"/>
<path d="M356.545,342.594v 4.62965" fill="none" stroke="black"/>
<path d="M371.656,342.594v 4.62965" fill="none" stroke="black"/>
<path d="M386.766,337.964v 9.2593" fill="none" stroke="black"/>
<path d="M401.877,342.594v 4.62965" fill="none" stroke="black"/>
<path d="M416.988,342.594v 4.62965" fill="none" stroke="black"/>
<path d="M432.098,342.594v 4.62965" fill="none" stroke="black"/>
<path d="M447.209,342.594v 4.62965" fill="none" stroke="black"/>
<path d="M462.32,337.964v 9.2593" fill="none" stroke="black"/>
<path d="M84.5516,337.964v 9.2593" fill="none" stroke="black"/>
<path d="M69.4409,342.594v 4.62965" fill="none" stroke="black"/>
<path d="M462.32,337.964v 9.2593" fill="none" stroke="black"/>
<path d="M477.431,342.594v 4.62965" fill="none" stroke="black"/>
<path d="M492.541,342.594v 4.62965" fill="none" stroke="black"/>
<path d="M507.652,342.594v 4.62965" fill="none" stroke="black"/>
<text xml:space="preserve" x="72.7875" y="359.813" fill="black" font-size="12.8882" font-family="Helvetica">780</text>
<text xml:space="preserve" x="148.324" y="359.813" fill="black" font-size="12.8882" font-family="Helvetica">790</text>
<text xml:space="preserve" x="223.86" y="359.813" fill="black" font-size="12.8882" font-family="Helvetica">800</text>
<text xml:space="preserve" x="299.397" y="359.813" fill="black" font-size="12.8882" font-family="Helvetica">810</text>
<text xml:space="preserve" x="374.933" y="359.813" fill="black" font-size="12.8882" font-family="Helvetica">820</text>
<text xml:space="preserve" x="450.47" y="359.813" fill="black" font-size="12.8882" font-family="Helvetica">830</text>
<text xml:space="preserve" x="481.334" y="373.621" fill="black" font-size="12.8882" font-family="Helvetica">Time</text>
<path d="M57.1929,347.224v -308.643" fill="none" stroke="black"/>
<path d="M70.7992,347.224h -13.6063" fill="none" stroke="black"/>
<path d="M63.9961,336.65h -6.80315" fill="none" stroke="black"/>
<path d="M63.9961,326.077h -6.80315" fill="none" stroke="black"/>
<path d="M63.9961,315.503h -6.80315" fill="none" stroke="black"/>
<path d="M63.9961,304.929h -6.80315" fill="none" stroke="black"/>
<path d="M70.7992,294.356h -13.6063" fill="none" stroke="black"/>
<path d="M63.9961,283.782h -6.80315" fill="none" stroke="black"/>
<path d="M63.9961,273.209h -6.80315" fill="none" stroke="black"/>
<path d="M63.9961,262.635h -6.80315" fill="none" stroke="black"/>
<path d="M63.9961,252.061h -6.80315" fill="none" stroke="black"/>
<path d="M70.7992,241.488h -13.6063" fill="none" stroke="black"/>
<path d="M63.9961,230.914h -6.80315" fill="none" stroke="black"/>
<path d="M63.9961,220.341h -6.80315" fill="none" stroke="black"/>
<path d="M63.9961,209.767h -6.80315" fill="none" stroke="black"/>
<path d="M63.9961,199.193h -6.80315" fill="none" stroke="black"/>
<path d="M70.7992,188.62h -13.6063" fill="none" stroke="black"/>
<path d="M63.9961,178.046h -6.80315" fill="none" stroke="black"/>
<path d="M63.9961,167.473h -6.80315" fill="none" stroke="black"/>
<path d="M63.9961,156.899h -6.80315" fill="none" stroke="black"/>
<path d="M63.9961,146.325h -6.80315" fill="none" stroke="black"/>
<path d="M70.7992,135.752h -13.6063" fill="none" stroke="black"/>
<path d="M63.9961,125.178h -6.80315" fill="none" stroke="black"/>
<path d="M63.9961,114.605h -6.80315" fill="none" stroke="black"/>
<path d="M63.9961,104.031h -6.80315" fill="none" stroke="black"/>
<path d="M63.9961,93.4574h -6.80315" fill="none" stroke="black"/>
<path d="M70.7992,82.8838h -13.6063" fill="none" stroke="black"/>
<path d="M70.7992,82.8838h -13.6063" fill="none" stroke="black"/>
<path d="M63.9961,72.3102h -6.80315" fill="none" stroke="black"/>
<path d="M63.9961,61.7366h -6.80315" fill="none" stroke="black"/>
<path d="M63.9961,51.163h -6.80315" fill="none" stroke="black"/>
<path d="M63.9961,40.5894h -6.80315" fill="none" stroke="black"/>
<text xml:space="preserve" x="46.7965" y="351.691" fill="black" font-size="12.8882" font-family="Helvetica">0</text>
<text xml:space="preserve" x="39.4865" y="298.897" fill="black" font-size="12.8882" font-family="Helvetica">50</text>
<text xml:space="preserve" x="32.1766" y="246.102" fill="black" font-size="12.8882" font-family="Helvetica">100</text>
<text xml:space="preserve" x="32.1766" y="193.308" fill="black" font-size="12.8882" font-family="Helvetica">150</text>
<text xml:space="preserve" x="32.1766" y="140.514" fill="black" font-size="12.8882" font-family="Helvetica">200</text>
<text xml:space="preserve" x="32.1766" y="87.7197" fill="black" font-size="12.8882" font-family="Helvetica">250</text>
<g transform="rotate(-90,21.6177,71.4753)">
<text xml:space="preserve" x="21.6177" y="71.4753" fill="black" font-size="12.8882" font-family="Helvetica">Event</text>
</g>
<text xml:space="preserve" x="218.987" y="18.681" fill="black" font-size="17.0471" font-family="Helvetica">280mm 8 9 10 11</text></svg>
