<?xml version="1.0" standalone="no"?>
<svg width="567.429" height="386.304" viewBox="0 0 567.429 386.304" xmlns="http://www.w3.org/2000/svg" shape-rendering="crispEdges">
<title>
img/week2/Combined0mm_ch_56.svg
</title>
<desc>
Creator: ROOT Version 6.22/08
CreationDate: Mon Jun 21 21:32:26 2021</desc>
<defs>
</defs>
<rect x="0.5" y="0" width="566.929" height="385.804" fill="white"/>
<rect x="57.1929" y="38.5804" width="453.543" height="308.643" fill="white"/>
<rect x="57.1929" y="38.5804" width="453.543" height="308.643" fill="none" stroke="black"/>
<rect x="57.1929" y="38.5804" width="453.543" height="308.643" fill="white"/>
<rect x="57.1929" y="38.5804" width="453.543" height="308.643" fill="none" stroke="black"/>
<path d="M57.1929,347.224h 90.7087v -6.96421h 30.2362v 6.96421h 60.4724v -90.5348h 30.2362v -174.105h 30.2362v 62.6779h 30.2362v 194.998h 30.2362v 6.96421h 151.181" fill="none" stroke="#000099"/>
<g fill="#ff0000">
<polygon points=" 279.741, 78.3601 288.188, 78.3601 283.965, 86.8072"/>
</g>
<path d="M59.4606,347.224h 136.063l 4.53543, -0.0639135l 4.53543, -0.0834757l 4.53543, -0.178068l 4.53543, -0.362685l 4.53543, -0.70507l 4.53543, -1.30771l 4.53543, -2.31282l 4.53543, -3.89809l 4.53543, -6.25614l 4.53543, -9.55175l 4.53543, -13.8561l
 4.53543, -19.0665l 4.53543, -24.8329l 4.53543, -30.5202l 4.53543, -35.2405l 4.53543, -37.9734l 4.53543, -37.7684l 4.53543, -33.9889l 4.53543, -26.5303" fill="none" stroke="#ff0000" stroke-width="2"/>
<path d="M281.697,62.727l 4.53543, -15.9356l 4.53543, -3.35619l 4.53543, 9.65035l 4.53543, 21.4372l 4.53543, 30.6107l 4.53543, 36.3007l 4.53543, 38.2858l 4.53543, 36.9525l 4.53543, 33.1212l 4.53543, 27.8059l 4.53543, 21.983l 4.53543, 16.4264l
 4.53543, 11.6312l 4.53543, 7.81894l 4.53543, 4.99729l 4.53543, 3.03991l 4.53543, 1.76159l 4.53543, 0.973125l 4.53543, 0.512742l 4.53543, 0.257809l 4.53543, 0.123748l 4.53543, 0.0567232l 4.53543, 0.0418492h 117.921" fill="none" stroke="#ff0000"
 stroke-width="2"/>
<path d="M503.933,347.224h 4.53543" fill="none" stroke="#ff0000" stroke-width="2"/>
<path d="M57.1929,347.224h 453.543" fill="none" stroke="black"/>
<path d="M129.869,337.964v 9.2593" fill="none" stroke="black"/>
<path d="M144.98,342.594v 4.62965" fill="none" stroke="black"/>
<path d="M160.09,342.594v 4.62965" fill="none" stroke="black"/>
<path d="M175.201,342.594v 4.62965" fill="none" stroke="black"/>
<path d="M190.312,342.594v 4.62965" fill="none" stroke="black"/>
<path d="M205.423,337.964v 9.2593" fill="none" stroke="black"/>
<path d="M220.533,342.594v 4.62965" fill="none" stroke="black"/>
<path d="M235.644,342.594v 4.62965" fill="none" stroke="black"/>
<path d="M250.755,342.594v 4.62965" fill="none" stroke="black"/>
<path d="M265.866,342.594v 4.62965" fill="none" stroke="black"/>
<path d="M280.976,337.964v 9.2593" fill="none" stroke="black"/>
<path d="M296.087,342.594v 4.62965" fill="none" stroke="black"/>
<path d="M311.198,342.594v 4.62965" fill="none" stroke="black"/>
<path d="M326.309,342.594v 4.62965" fill="none" stroke="black"/>
<path d="M341.419,342.594v 4.62965" fill="none" stroke="black"/>
<path d="M356.53,337.964v 9.2593" fill="none" stroke="black"/>
<path d="M371.641,342.594v 4.62965" fill="none" stroke="black"/>
<path d="M386.751,342.594v 4.62965" fill="none" stroke="black"/>
<path d="M401.862,342.594v 4.62965" fill="none" stroke="black"/>
<path d="M416.973,342.594v 4.62965" fill="none" stroke="black"/>
<path d="M432.084,337.964v 9.2593" fill="none" stroke="black"/>
<path d="M447.194,342.594v 4.62965" fill="none" stroke="black"/>
<path d="M462.305,342.594v 4.62965" fill="none" stroke="black"/>
<path d="M477.416,342.594v 4.62965" fill="none" stroke="black"/>
<path d="M492.527,342.594v 4.62965" fill="none" stroke="black"/>
<path d="M507.637,337.964v 9.2593" fill="none" stroke="black"/>
<path d="M129.869,337.964v 9.2593" fill="none" stroke="black"/>
<path d="M114.758,342.594v 4.62965" fill="none" stroke="black"/>
<path d="M99.6476,342.594v 4.62965" fill="none" stroke="black"/>
<path d="M84.5368,342.594v 4.62965" fill="none" stroke="black"/>
<path d="M69.4261,342.594v 4.62965" fill="none" stroke="black"/>
<path d="M507.637,337.964v 9.2593" fill="none" stroke="black"/>
<text xml:space="preserve" x="118.272" y="359.813" fill="black" font-size="12.8882" font-family="Helvetica">790</text>
<text xml:space="preserve" x="193.808" y="359.813" fill="black" font-size="12.8882" font-family="Helvetica">800</text>
<text xml:space="preserve" x="269.345" y="359.813" fill="black" font-size="12.8882" font-family="Helvetica">810</text>
<text xml:space="preserve" x="344.881" y="359.813" fill="black" font-size="12.8882" font-family="Helvetica">820</text>
<text xml:space="preserve" x="420.417" y="359.813" fill="black" font-size="12.8882" font-family="Helvetica">830</text>
<text xml:space="preserve" x="495.954" y="359.813" fill="black" font-size="12.8882" font-family="Helvetica">840</text>
<text xml:space="preserve" x="481.334" y="373.621" fill="black" font-size="12.8882" font-family="Helvetica">Time</text>
<path d="M57.1929,347.224v -308.643" fill="none" stroke="black"/>
<path d="M70.7992,347.224h -13.6063" fill="none" stroke="black"/>
<path d="M63.9961,340.26h -6.80315" fill="none" stroke="black"/>
<path d="M63.9961,333.295h -6.80315" fill="none" stroke="black"/>
<path d="M63.9961,326.331h -6.80315" fill="none" stroke="black"/>
<path d="M63.9961,319.367h -6.80315" fill="none" stroke="black"/>
<path d="M70.7992,312.403h -13.6063" fill="none" stroke="black"/>
<path d="M63.9961,305.439h -6.80315" fill="none" stroke="black"/>
<path d="M63.9961,298.474h -6.80315" fill="none" stroke="black"/>
<path d="M63.9961,291.51h -6.80315" fill="none" stroke="black"/>
<path d="M63.9961,284.546h -6.80315" fill="none" stroke="black"/>
<path d="M70.7992,277.582h -13.6063" fill="none" stroke="black"/>
<path d="M63.9961,270.617h -6.80315" fill="none" stroke="black"/>
<path d="M63.9961,263.653h -6.80315" fill="none" stroke="black"/>
<path d="M63.9961,256.689h -6.80315" fill="none" stroke="black"/>
<path d="M63.9961,249.725h -6.80315" fill="none" stroke="black"/>
<path d="M70.7992,242.761h -13.6063" fill="none" stroke="black"/>
<path d="M63.9961,235.796h -6.80315" fill="none" stroke="black"/>
<path d="M63.9961,228.832h -6.80315" fill="none" stroke="black"/>
<path d="M63.9961,221.868h -6.80315" fill="none" stroke="black"/>
<path d="M63.9961,214.904h -6.80315" fill="none" stroke="black"/>
<path d="M70.7992,207.94h -13.6063" fill="none" stroke="black"/>
<path d="M63.9961,200.975h -6.80315" fill="none" stroke="black"/>
<path d="M63.9961,194.011h -6.80315" fill="none" stroke="black"/>
<path d="M63.9961,187.047h -6.80315" fill="none" stroke="black"/>
<path d="M63.9961,180.083h -6.80315" fill="none" stroke="black"/>
<path d="M70.7992,173.118h -13.6063" fill="none" stroke="black"/>
<path d="M63.9961,166.154h -6.80315" fill="none" stroke="black"/>
<path d="M63.9961,159.19h -6.80315" fill="none" stroke="black"/>
<path d="M63.9961,152.226h -6.80315" fill="none" stroke="black"/>
<path d="M63.9961,145.262h -6.80315" fill="none" stroke="black"/>
<path d="M70.7992,138.297h -13.6063" fill="none" stroke="black"/>
<path d="M63.9961,131.333h -6.80315" fill="none" stroke="black"/>
<path d="M63.9961,124.369h -6.80315" fill="none" stroke="black"/>
<path d="M63.9961,117.405h -6.80315" fill="none" stroke="black"/>
<path d="M63.9961,110.441h -6.80315" fill="none" stroke="black"/>
<path d="M70.7992,103.476h -13.6063" fill="none" stroke="black"/>
<path d="M63.9961,96.5121h -6.80315" fill="none" stroke="black"/>
<path d="M63.9961,89.5479h -6.80315" fill="none" stroke="black"/>
<path d="M63.9961,82.5837h -6.80315" fill="none" stroke="black"/>
<path d="M63.9961,75.6194h -6.80315" fill="none" stroke="black"/>
<path d="M70.7992,68.6552h -13.6063" fill="none" stroke="black"/>
<path d="M70.7992,68.6552h -13.6063" fill="none" stroke="black"/>
<path d="M63.9961,61.691h -6.80315" fill="none" stroke="black"/>
<path d="M63.9961,54.7268h -6.80315" fill="none" stroke="black"/>
<path d="M63.9961,47.7626h -6.80315" fill="none" stroke="black"/>
<path d="M63.9961,40.7984h -6.80315" fill="none" stroke="black"/>
<text xml:space="preserve" x="46.7965" y="351.691" fill="black" font-size="12.8882" font-family="Helvetica">0</text>
<text xml:space="preserve" x="46.7965" y="316.766" fill="black" font-size="12.8882" font-family="Helvetica">5</text>
<text xml:space="preserve" x="39.4865" y="281.84" fill="black" font-size="12.8882" font-family="Helvetica">10</text>
<text xml:space="preserve" x="39.4865" y="246.915" fill="black" font-size="12.8882" font-family="Helvetica">15</text>
<text xml:space="preserve" x="39.4865" y="212.801" fill="black" font-size="12.8882" font-family="Helvetica">20</text>
<text xml:space="preserve" x="39.4865" y="177.876" fill="black" font-size="12.8882" font-family="Helvetica">25</text>
<text xml:space="preserve" x="39.4865" y="142.951" fill="black" font-size="12.8882" font-family="Helvetica">30</text>
<text xml:space="preserve" x="39.4865" y="108.025" fill="black" font-size="12.8882" font-family="Helvetica">35</text>
<text xml:space="preserve" x="39.4865" y="73.0997" fill="black" font-size="12.8882" font-family="Helvetica">40</text>
<g transform="rotate(-90,28.9277,71.4753)">
<text xml:space="preserve" x="28.9277" y="71.4753" fill="black" font-size="12.8882" font-family="Helvetica">Event</text>
</g>
<text xml:space="preserve" x="253.1" y="18.681" fill="black" font-size="17.0471" font-family="Helvetica">0mm 56</text></svg>
