<?xml version="1.0" standalone="no"?>
<svg width="567.429" height="386.304" viewBox="0 0 567.429 386.304" xmlns="http://www.w3.org/2000/svg" shape-rendering="crispEdges">
<title>
img/week2/Combined560mm_ch_0_1_2_3.svg
</title>
<desc>
Creator: ROOT Version 6.22/08
CreationDate: Mon Jun 21 21:39:47 2021</desc>
<defs>
</defs>
<rect x="0.5" y="0" width="566.929" height="385.804" fill="white"/>
<rect x="57.1929" y="38.5804" width="453.543" height="308.643" fill="white"/>
<rect x="57.1929" y="38.5804" width="453.543" height="308.643" fill="none" stroke="black"/>
<rect x="57.1929" y="38.5804" width="453.543" height="308.643" fill="white"/>
<rect x="57.1929" y="38.5804" width="453.543" height="308.643" fill="none" stroke="black"/>
<path d="M57.1929,347.224h 120.945v -2.09586h 30.2362v -14.671h 30.2362v -54.4923h 30.2362v -215.873h 30.2362v 142.518h 30.2362v 140.422h 30.2362v 4.19172h 151.181" fill="none" stroke="#000099"/>
<g fill="#ff0000">
<polygon points=" 279.741, 55.8677 288.188, 55.8677 283.965, 64.3148"/>
</g>
<path d="M59.4606,347.224h 140.598l 4.53543, -0.0693707l 4.53543, -0.0985704l 4.53543, -0.219065l 4.53543, -0.461896l 4.53543, -0.923562l 4.53543, -1.75024l 4.53543, -3.14161l 4.53543, -5.33659l 4.53543, -8.56993l 4.53543, -12.9928l 4.53543,
 -18.5638l 4.53543, -24.935l 4.53543, -31.3799l 4.53543, -36.8139l 4.53543, -39.9476l 4.53543, -39.5695l 4.53543, -34.8951l 4.53543, -25.8756" fill="none" stroke="#ff0000" stroke-width="2"/>
<path d="M281.697,61.6796l 4.53543, -13.3427l 4.53543, 1.09012l 4.53543, 15.3656l 4.53543, 27.4636l 4.53543, 35.8704l 4.53543, 39.8847l 4.53543, 39.6787l 4.53543, 36.122l 4.53543, 30.4593l 4.53543, 23.9645l 4.53543, 17.6754l 4.53543, 12.2611l
 4.53543, 8.01785l 4.53543, 4.95104l 4.53543, 2.89075l 4.53543, 1.59751l 4.53543, 0.836263l 4.53543, 0.414947l 4.53543, 0.195264l 4.53543, 0.0871817l 4.53543, 0.0605984h 126.992" fill="none" stroke="#ff0000" stroke-width="2"/>
<path d="M503.933,347.224h 4.53543" fill="none" stroke="#ff0000" stroke-width="2"/>
<path d="M57.1929,347.224h 453.543" fill="none" stroke="black"/>
<path d="M129.869,337.964v 9.2593" fill="none" stroke="black"/>
<path d="M144.98,342.594v 4.62965" fill="none" stroke="black"/>
<path d="M160.09,342.594v 4.62965" fill="none" stroke="black"/>
<path d="M175.201,342.594v 4.62965" fill="none" stroke="black"/>
<path d="M190.312,342.594v 4.62965" fill="none" stroke="black"/>
<path d="M205.423,337.964v 9.2593" fill="none" stroke="black"/>
<path d="M220.533,342.594v 4.62965" fill="none" stroke="black"/>
<path d="M235.644,342.594v 4.62965" fill="none" stroke="black"/>
<path d="M250.755,342.594v 4.62965" fill="none" stroke="black"/>
<path d="M265.866,342.594v 4.62965" fill="none" stroke="black"/>
<path d="M280.976,337.964v 9.2593" fill="none" stroke="black"/>
<path d="M296.087,342.594v 4.62965" fill="none" stroke="black"/>
<path d="M311.198,342.594v 4.62965" fill="none" stroke="black"/>
<path d="M326.309,342.594v 4.62965" fill="none" stroke="black"/>
<path d="M341.419,342.594v 4.62965" fill="none" stroke="black"/>
<path d="M356.53,337.964v 9.2593" fill="none" stroke="black"/>
<path d="M371.641,342.594v 4.62965" fill="none" stroke="black"/>
<path d="M386.751,342.594v 4.62965" fill="none" stroke="black"/>
<path d="M401.862,342.594v 4.62965" fill="none" stroke="black"/>
<path d="M416.973,342.594v 4.62965" fill="none" stroke="black"/>
<path d="M432.084,337.964v 9.2593" fill="none" stroke="black"/>
<path d="M447.194,342.594v 4.62965" fill="none" stroke="black"/>
<path d="M462.305,342.594v 4.62965" fill="none" stroke="black"/>
<path d="M477.416,342.594v 4.62965" fill="none" stroke="black"/>
<path d="M492.527,342.594v 4.62965" fill="none" stroke="black"/>
<path d="M507.637,337.964v 9.2593" fill="none" stroke="black"/>
<path d="M129.869,337.964v 9.2593" fill="none" stroke="black"/>
<path d="M114.758,342.594v 4.62965" fill="none" stroke="black"/>
<path d="M99.6476,342.594v 4.62965" fill="none" stroke="black"/>
<path d="M84.5368,342.594v 4.62965" fill="none" stroke="black"/>
<path d="M69.4261,342.594v 4.62965" fill="none" stroke="black"/>
<path d="M507.637,337.964v 9.2593" fill="none" stroke="black"/>
<text xml:space="preserve" x="118.272" y="359.813" fill="black" font-size="12.8882" font-family="Helvetica">790</text>
<text xml:space="preserve" x="193.808" y="359.813" fill="black" font-size="12.8882" font-family="Helvetica">800</text>
<text xml:space="preserve" x="269.345" y="359.813" fill="black" font-size="12.8882" font-family="Helvetica">810</text>
<text xml:space="preserve" x="344.881" y="359.813" fill="black" font-size="12.8882" font-family="Helvetica">820</text>
<text xml:space="preserve" x="420.417" y="359.813" fill="black" font-size="12.8882" font-family="Helvetica">830</text>
<text xml:space="preserve" x="495.954" y="359.813" fill="black" font-size="12.8882" font-family="Helvetica">840</text>
<text xml:space="preserve" x="481.334" y="373.621" fill="black" font-size="12.8882" font-family="Helvetica">Time</text>
<path d="M57.1929,347.224v -308.643" fill="none" stroke="black"/>
<path d="M70.7992,347.224h -13.6063" fill="none" stroke="black"/>
<path d="M63.9961,336.745h -6.80315" fill="none" stroke="black"/>
<path d="M63.9961,326.265h -6.80315" fill="none" stroke="black"/>
<path d="M63.9961,315.786h -6.80315" fill="none" stroke="black"/>
<path d="M70.7992,305.307h -13.6063" fill="none" stroke="black"/>
<path d="M63.9961,294.827h -6.80315" fill="none" stroke="black"/>
<path d="M63.9961,284.348h -6.80315" fill="none" stroke="black"/>
<path d="M63.9961,273.869h -6.80315" fill="none" stroke="black"/>
<path d="M70.7992,263.389h -13.6063" fill="none" stroke="black"/>
<path d="M63.9961,252.91h -6.80315" fill="none" stroke="black"/>
<path d="M63.9961,242.431h -6.80315" fill="none" stroke="black"/>
<path d="M63.9961,231.952h -6.80315" fill="none" stroke="black"/>
<path d="M70.7992,221.472h -13.6063" fill="none" stroke="black"/>
<path d="M63.9961,210.993h -6.80315" fill="none" stroke="black"/>
<path d="M63.9961,200.514h -6.80315" fill="none" stroke="black"/>
<path d="M63.9961,190.034h -6.80315" fill="none" stroke="black"/>
<path d="M70.7992,179.555h -13.6063" fill="none" stroke="black"/>
<path d="M63.9961,169.076h -6.80315" fill="none" stroke="black"/>
<path d="M63.9961,158.597h -6.80315" fill="none" stroke="black"/>
<path d="M63.9961,148.117h -6.80315" fill="none" stroke="black"/>
<path d="M70.7992,137.638h -13.6063" fill="none" stroke="black"/>
<path d="M63.9961,127.159h -6.80315" fill="none" stroke="black"/>
<path d="M63.9961,116.679h -6.80315" fill="none" stroke="black"/>
<path d="M63.9961,106.2h -6.80315" fill="none" stroke="black"/>
<path d="M70.7992,95.7208h -13.6063" fill="none" stroke="black"/>
<path d="M63.9961,85.2416h -6.80315" fill="none" stroke="black"/>
<path d="M63.9961,74.7623h -6.80315" fill="none" stroke="black"/>
<path d="M63.9961,64.283h -6.80315" fill="none" stroke="black"/>
<path d="M70.7992,53.8037h -13.6063" fill="none" stroke="black"/>
<path d="M70.7992,53.8037h -13.6063" fill="none" stroke="black"/>
<path d="M63.9961,43.3244h -6.80315" fill="none" stroke="black"/>
<text xml:space="preserve" x="46.7965" y="351.691" fill="black" font-size="12.8882" font-family="Helvetica">0</text>
<text xml:space="preserve" x="39.4865" y="309.456" fill="black" font-size="12.8882" font-family="Helvetica">20</text>
<text xml:space="preserve" x="39.4865" y="268.032" fill="black" font-size="12.8882" font-family="Helvetica">40</text>
<text xml:space="preserve" x="39.4865" y="225.797" fill="black" font-size="12.8882" font-family="Helvetica">60</text>
<text xml:space="preserve" x="39.4865" y="184.374" fill="black" font-size="12.8882" font-family="Helvetica">80</text>
<text xml:space="preserve" x="32.1766" y="142.138" fill="black" font-size="12.8882" font-family="Helvetica">100</text>
<text xml:space="preserve" x="32.1766" y="99.903" fill="black" font-size="12.8882" font-family="Helvetica">120</text>
<text xml:space="preserve" x="32.1766" y="58.4798" fill="black" font-size="12.8882" font-family="Helvetica">140</text>
<g transform="rotate(-90,21.6177,71.4753)">
<text xml:space="preserve" x="21.6177" y="71.4753" fill="black" font-size="12.8882" font-family="Helvetica">Event</text>
</g>
<text xml:space="preserve" x="227.109" y="18.681" fill="black" font-size="17.0471" font-family="Helvetica">560mm 0 1 2 3</text></svg>
