<?xml version="1.0" standalone="no"?>
<svg width="567.429" height="386.304" viewBox="0 0 567.429 386.304" xmlns="http://www.w3.org/2000/svg" shape-rendering="crispEdges">
<title>
img/week2/Combined420mm_ch_59.svg
</title>
<desc>
Creator: ROOT Version 6.22/08
CreationDate: Mon Jun 21 21:32:37 2021</desc>
<defs>
</defs>
<rect x="0.5" y="0" width="566.929" height="385.804" fill="white"/>
<rect x="57.1929" y="38.5804" width="453.543" height="308.643" fill="white"/>
<rect x="57.1929" y="38.5804" width="453.543" height="308.643" fill="none" stroke="black"/>
<rect x="57.1929" y="38.5804" width="453.543" height="308.643" fill="white"/>
<rect x="57.1929" y="38.5804" width="453.543" height="308.643" fill="none" stroke="black"/>
<path d="M57.1929,347.224h 151.181v -12.7803h 25.1968v -63.9013h 25.1968v -217.264h 25.1968v 63.9013h 25.1968v 230.045h 201.575" fill="none" stroke="#000099"/>
<g fill="#ff0000">
<polygon points=" 267.143, 49.0542 275.59, 49.0542 271.366, 57.5013"/>
</g>
<path d="M59.4606,347.224h 126.992l 4.53543, -0.0460054l 4.53543, -0.0640022l 4.53543, -0.141375l 4.53543, -0.297583l 4.53543, -0.59669l 4.53543, -1.13921l 4.53543, -2.06992l 4.53543, -3.577l 4.53543, -5.8744l 4.53543, -9.15926l 4.53543, -13.5414l
 4.53543, -18.9522l 4.53543, -25.0545l 4.53543, -31.1892l 4.53543, -36.398l 4.53543, -39.5495l 4.53543, -39.566l 4.53543, -35.7065l 4.53543, -27.8243l 4.53543, -16.5093l 2.06525, -1.38698" fill="none" stroke="#ff0000" stroke-width="2"/>
<path d="M282.392,38.5804l 3.84022, 9.16359" fill="none" stroke="#ff0000" stroke-width="2"/>
<path d="M286.232,47.744l 4.53543, 23.264l 4.53543, 32.7556l 4.53543, 38.3884l 4.53543, 39.9964l 4.53543, 38.089l 4.53543, 33.6329l 4.53543, 27.7688l 4.53543, 21.5522l 4.53543, 15.7809l 4.53543, 10.9291l 4.53543, 7.17221l 4.53543, 4.46639l 4.53543,
 2.64219l 4.53543, 1.48612l 4.53543, 0.795279l 4.53543, 0.405145l 4.53543, 0.196575l 4.53543, 0.0908741l 4.53543, 0.0675908h 131.528" fill="none" stroke="#ff0000" stroke-width="2"/>
<path d="M503.933,347.224h 4.53543" fill="none" stroke="#ff0000" stroke-width="2"/>
<path d="M57.1929,347.224h 453.543" fill="none" stroke="black"/>
<path d="M105.189,337.964v 9.2593" fill="none" stroke="black"/>
<path d="M117.781,342.594v 4.62965" fill="none" stroke="black"/>
<path d="M130.373,342.594v 4.62965" fill="none" stroke="black"/>
<path d="M142.965,342.594v 4.62965" fill="none" stroke="black"/>
<path d="M155.558,342.594v 4.62965" fill="none" stroke="black"/>
<path d="M168.15,337.964v 9.2593" fill="none" stroke="black"/>
<path d="M180.742,342.594v 4.62965" fill="none" stroke="black"/>
<path d="M193.335,342.594v 4.62965" fill="none" stroke="black"/>
<path d="M205.927,342.594v 4.62965" fill="none" stroke="black"/>
<path d="M218.519,342.594v 4.62965" fill="none" stroke="black"/>
<path d="M231.111,337.964v 9.2593" fill="none" stroke="black"/>
<path d="M243.704,342.594v 4.62965" fill="none" stroke="black"/>
<path d="M256.296,342.594v 4.62965" fill="none" stroke="black"/>
<path d="M268.888,342.594v 4.62965" fill="none" stroke="black"/>
<path d="M281.481,342.594v 4.62965" fill="none" stroke="black"/>
<path d="M294.073,337.964v 9.2593" fill="none" stroke="black"/>
<path d="M306.665,342.594v 4.62965" fill="none" stroke="black"/>
<path d="M319.257,342.594v 4.62965" fill="none" stroke="black"/>
<path d="M331.85,342.594v 4.62965" fill="none" stroke="black"/>
<path d="M344.442,342.594v 4.62965" fill="none" stroke="black"/>
<path d="M357.034,337.964v 9.2593" fill="none" stroke="black"/>
<path d="M369.626,342.594v 4.62965" fill="none" stroke="black"/>
<path d="M382.219,342.594v 4.62965" fill="none" stroke="black"/>
<path d="M394.811,342.594v 4.62965" fill="none" stroke="black"/>
<path d="M407.403,342.594v 4.62965" fill="none" stroke="black"/>
<path d="M419.996,337.964v 9.2593" fill="none" stroke="black"/>
<path d="M432.588,342.594v 4.62965" fill="none" stroke="black"/>
<path d="M445.18,342.594v 4.62965" fill="none" stroke="black"/>
<path d="M457.772,342.594v 4.62965" fill="none" stroke="black"/>
<path d="M470.365,342.594v 4.62965" fill="none" stroke="black"/>
<path d="M482.957,337.964v 9.2593" fill="none" stroke="black"/>
<path d="M105.189,337.964v 9.2593" fill="none" stroke="black"/>
<path d="M92.5964,342.594v 4.62965" fill="none" stroke="black"/>
<path d="M80.0041,342.594v 4.62965" fill="none" stroke="black"/>
<path d="M67.4118,342.594v 4.62965" fill="none" stroke="black"/>
<path d="M482.957,337.964v 9.2593" fill="none" stroke="black"/>
<path d="M495.549,342.594v 4.62965" fill="none" stroke="black"/>
<path d="M508.142,342.594v 4.62965" fill="none" stroke="black"/>
<text xml:space="preserve" x="93.093" y="359.813" fill="black" font-size="12.8882" font-family="Helvetica">780</text>
<text xml:space="preserve" x="156.446" y="359.813" fill="black" font-size="12.8882" font-family="Helvetica">790</text>
<text xml:space="preserve" x="218.987" y="359.813" fill="black" font-size="12.8882" font-family="Helvetica">800</text>
<text xml:space="preserve" x="282.34" y="359.813" fill="black" font-size="12.8882" font-family="Helvetica">810</text>
<text xml:space="preserve" x="344.881" y="359.813" fill="black" font-size="12.8882" font-family="Helvetica">820</text>
<text xml:space="preserve" x="408.234" y="359.813" fill="black" font-size="12.8882" font-family="Helvetica">830</text>
<text xml:space="preserve" x="470.775" y="359.813" fill="black" font-size="12.8882" font-family="Helvetica">840</text>
<text xml:space="preserve" x="481.334" y="373.621" fill="black" font-size="12.8882" font-family="Helvetica">Time</text>
<path d="M57.1929,347.224v -308.643" fill="none" stroke="black"/>
<path d="M70.7992,347.224h -13.6063" fill="none" stroke="black"/>
<path d="M63.9961,340.834h -6.80315" fill="none" stroke="black"/>
<path d="M63.9961,334.444h -6.80315" fill="none" stroke="black"/>
<path d="M63.9961,328.053h -6.80315" fill="none" stroke="black"/>
<path d="M63.9961,321.663h -6.80315" fill="none" stroke="black"/>
<path d="M70.7992,315.273h -13.6063" fill="none" stroke="black"/>
<path d="M63.9961,308.883h -6.80315" fill="none" stroke="black"/>
<path d="M63.9961,302.493h -6.80315" fill="none" stroke="black"/>
<path d="M63.9961,296.103h -6.80315" fill="none" stroke="black"/>
<path d="M63.9961,289.713h -6.80315" fill="none" stroke="black"/>
<path d="M70.7992,283.322h -13.6063" fill="none" stroke="black"/>
<path d="M63.9961,276.932h -6.80315" fill="none" stroke="black"/>
<path d="M63.9961,270.542h -6.80315" fill="none" stroke="black"/>
<path d="M63.9961,264.152h -6.80315" fill="none" stroke="black"/>
<path d="M63.9961,257.762h -6.80315" fill="none" stroke="black"/>
<path d="M70.7992,251.372h -13.6063" fill="none" stroke="black"/>
<path d="M63.9961,244.982h -6.80315" fill="none" stroke="black"/>
<path d="M63.9961,238.592h -6.80315" fill="none" stroke="black"/>
<path d="M63.9961,232.201h -6.80315" fill="none" stroke="black"/>
<path d="M63.9961,225.811h -6.80315" fill="none" stroke="black"/>
<path d="M70.7992,219.421h -13.6063" fill="none" stroke="black"/>
<path d="M63.9961,213.031h -6.80315" fill="none" stroke="black"/>
<path d="M63.9961,206.641h -6.80315" fill="none" stroke="black"/>
<path d="M63.9961,200.251h -6.80315" fill="none" stroke="black"/>
<path d="M63.9961,193.861h -6.80315" fill="none" stroke="black"/>
<path d="M70.7992,187.47h -13.6063" fill="none" stroke="black"/>
<path d="M63.9961,181.08h -6.80315" fill="none" stroke="black"/>
<path d="M63.9961,174.69h -6.80315" fill="none" stroke="black"/>
<path d="M63.9961,168.3h -6.80315" fill="none" stroke="black"/>
<path d="M63.9961,161.91h -6.80315" fill="none" stroke="black"/>
<path d="M70.7992,155.52h -13.6063" fill="none" stroke="black"/>
<path d="M63.9961,149.13h -6.80315" fill="none" stroke="black"/>
<path d="M63.9961,142.74h -6.80315" fill="none" stroke="black"/>
<path d="M63.9961,136.349h -6.80315" fill="none" stroke="black"/>
<path d="M63.9961,129.959h -6.80315" fill="none" stroke="black"/>
<path d="M70.7992,123.569h -13.6063" fill="none" stroke="black"/>
<path d="M63.9961,117.179h -6.80315" fill="none" stroke="black"/>
<path d="M63.9961,110.789h -6.80315" fill="none" stroke="black"/>
<path d="M63.9961,104.399h -6.80315" fill="none" stroke="black"/>
<path d="M63.9961,98.0087h -6.80315" fill="none" stroke="black"/>
<path d="M70.7992,91.6185h -13.6063" fill="none" stroke="black"/>
<path d="M63.9961,85.2284h -6.80315" fill="none" stroke="black"/>
<path d="M63.9961,78.8383h -6.80315" fill="none" stroke="black"/>
<path d="M63.9961,72.4481h -6.80315" fill="none" stroke="black"/>
<path d="M63.9961,66.058h -6.80315" fill="none" stroke="black"/>
<path d="M70.7992,59.6679h -13.6063" fill="none" stroke="black"/>
<path d="M70.7992,59.6679h -13.6063" fill="none" stroke="black"/>
<path d="M63.9961,53.2777h -6.80315" fill="none" stroke="black"/>
<path d="M63.9961,46.8876h -6.80315" fill="none" stroke="black"/>
<path d="M63.9961,40.4975h -6.80315" fill="none" stroke="black"/>
<text xml:space="preserve" x="46.7965" y="351.691" fill="black" font-size="12.8882" font-family="Helvetica">0</text>
<text xml:space="preserve" x="46.7965" y="320.014" fill="black" font-size="12.8882" font-family="Helvetica">5</text>
<text xml:space="preserve" x="39.4865" y="287.526" fill="black" font-size="12.8882" font-family="Helvetica">10</text>
<text xml:space="preserve" x="39.4865" y="255.849" fill="black" font-size="12.8882" font-family="Helvetica">15</text>
<text xml:space="preserve" x="39.4865" y="224.173" fill="black" font-size="12.8882" font-family="Helvetica">20</text>
<text xml:space="preserve" x="39.4865" y="191.684" fill="black" font-size="12.8882" font-family="Helvetica">25</text>
<text xml:space="preserve" x="39.4865" y="160.007" fill="black" font-size="12.8882" font-family="Helvetica">30</text>
<text xml:space="preserve" x="39.4865" y="128.331" fill="black" font-size="12.8882" font-family="Helvetica">35</text>
<text xml:space="preserve" x="39.4865" y="95.8419" fill="black" font-size="12.8882" font-family="Helvetica">40</text>
<text xml:space="preserve" x="39.4865" y="64.1653" fill="black" font-size="12.8882" font-family="Helvetica">45</text>
<g transform="rotate(-90,28.9277,71.4753)">
<text xml:space="preserve" x="28.9277" y="71.4753" fill="black" font-size="12.8882" font-family="Helvetica">Event</text>
</g>
<text xml:space="preserve" x="243.354" y="18.681" fill="black" font-size="17.0471" font-family="Helvetica">420mm 59</text></svg>
