<?xml version="1.0" standalone="no"?>
<svg width="567.429" height="384.969" viewBox="0 0 567.429 384.969" xmlns="http://www.w3.org/2000/svg" shape-rendering="crispEdges">
<title>
img/week2/Combined0mm_ch_39.svg
</title>
<desc>
Creator: ROOT Version 6.22/09
CreationDate: Thu Jun 24 12:33:06 2021</desc>
<defs>
</defs>
<rect x="0.5" y="0" width="566.929" height="384.469" fill="white"/>
<rect x="57.1929" y="38.4469" width="453.543" height="307.575" fill="white"/>
<rect x="57.1929" y="38.4469" width="453.543" height="307.575" fill="none" stroke="black"/>
<rect x="57.1929" y="38.4469" width="453.543" height="307.575" fill="white"/>
<rect x="57.1929" y="38.4469" width="453.543" height="307.575" fill="none" stroke="black"/>
<path d="M57.1929,346.022h 113.386v -4.72466h 37.7953v -4.72466h 37.7953v -99.2178h 37.7953v -184.262h 37.7953v 264.581h 37.7953v 28.348h 151.181" fill="none" stroke="#000099"/>
<g fill="#ff0000">
<polygon points=" 298.627, 48.8577 307.098, 48.8577 302.862, 57.329"/>
</g>
<path d="M59.4606,346.022h 140.598l 4.53543, -0.0315618l 4.53543, -0.0459757l 4.53543, -0.104339l 4.53543, -0.225465l 4.53543, -0.463736l 4.53543, -0.907493l 4.53543, -1.68881l 4.53543, -2.9869l 4.53543, -5.01696l 4.53543, -7.99531l 4.53543, -12.075l
 4.53543, -17.2555l 4.53543, -23.2839l 4.53543, -29.5822l 4.53543, -35.243l 4.53543, -39.1286l 4.53543, -40.0827l 4.53543, -37.2189" fill="none" stroke="#ff0000" stroke-width="2"/>
<path d="M281.697,92.6858l 4.53543, -30.2081l 4.53543, -19.4683l 3.35307, -4.56235" fill="none" stroke="#ff0000" stroke-width="2"/>
<path d="M296.22,38.4469l 3.61883, 6.35158" fill="none" stroke="#ff0000" stroke-width="2"/>
<path d="M299.839,44.7985l 4.53543, 21.0178l 4.53543, 31.3307l 4.53543, 37.8171l 4.53543, 40.1595l 4.53543, 38.7717l 4.53543, 34.592l 4.53543, 28.7893l 4.53543, 22.4813l 4.53543, 16.5365l 4.53543, 11.489l 4.53543, 7.55451l 4.53543, 4.70828l 4.53543,
 2.78453l 4.53543, 1.5641l 4.53543, 0.83506l 4.53543, 0.424l 4.53543, 0.204842l 4.53543, 0.0942005l 4.53543, 0.0692857h 122.457" fill="none" stroke="#ff0000" stroke-width="2"/>
<path d="M57.1929,346.022h 453.543" fill="none" stroke="black"/>
<path d="M63.0218,336.795v 9.22726" fill="none" stroke="black"/>
<path d="M72.466,341.409v 4.61363" fill="none" stroke="black"/>
<path d="M81.9102,341.409v 4.61363" fill="none" stroke="black"/>
<path d="M91.3544,341.409v 4.61363" fill="none" stroke="black"/>
<path d="M100.799,341.409v 4.61363" fill="none" stroke="black"/>
<path d="M110.243,336.795v 9.22726" fill="none" stroke="black"/>
<path d="M119.687,341.409v 4.61363" fill="none" stroke="black"/>
<path d="M129.131,341.409v 4.61363" fill="none" stroke="black"/>
<path d="M138.575,341.409v 4.61363" fill="none" stroke="black"/>
<path d="M148.02,341.409v 4.61363" fill="none" stroke="black"/>
<path d="M157.464,336.795v 9.22726" fill="none" stroke="black"/>
<path d="M166.908,341.409v 4.61363" fill="none" stroke="black"/>
<path d="M176.352,341.409v 4.61363" fill="none" stroke="black"/>
<path d="M185.796,341.409v 4.61363" fill="none" stroke="black"/>
<path d="M195.241,341.409v 4.61363" fill="none" stroke="black"/>
<path d="M204.685,336.795v 9.22726" fill="none" stroke="black"/>
<path d="M214.129,341.409v 4.61363" fill="none" stroke="black"/>
<path d="M223.573,341.409v 4.61363" fill="none" stroke="black"/>
<path d="M233.018,341.409v 4.61363" fill="none" stroke="black"/>
<path d="M242.462,341.409v 4.61363" fill="none" stroke="black"/>
<path d="M251.906,336.795v 9.22726" fill="none" stroke="black"/>
<path d="M261.35,341.409v 4.61363" fill="none" stroke="black"/>
<path d="M270.794,341.409v 4.61363" fill="none" stroke="black"/>
<path d="M280.239,341.409v 4.61363" fill="none" stroke="black"/>
<path d="M289.683,341.409v 4.61363" fill="none" stroke="black"/>
<path d="M299.127,336.795v 9.22726" fill="none" stroke="black"/>
<path d="M308.571,341.409v 4.61363" fill="none" stroke="black"/>
<path d="M318.015,341.409v 4.61363" fill="none" stroke="black"/>
<path d="M327.46,341.409v 4.61363" fill="none" stroke="black"/>
<path d="M336.904,341.409v 4.61363" fill="none" stroke="black"/>
<path d="M346.348,336.795v 9.22726" fill="none" stroke="black"/>
<path d="M355.792,341.409v 4.61363" fill="none" stroke="black"/>
<path d="M365.236,341.409v 4.61363" fill="none" stroke="black"/>
<path d="M374.681,341.409v 4.61363" fill="none" stroke="black"/>
<path d="M384.125,341.409v 4.61363" fill="none" stroke="black"/>
<path d="M393.569,336.795v 9.22726" fill="none" stroke="black"/>
<path d="M403.013,341.409v 4.61363" fill="none" stroke="black"/>
<path d="M412.457,341.409v 4.61363" fill="none" stroke="black"/>
<path d="M421.902,341.409v 4.61363" fill="none" stroke="black"/>
<path d="M431.346,341.409v 4.61363" fill="none" stroke="black"/>
<path d="M440.79,336.795v 9.22726" fill="none" stroke="black"/>
<path d="M450.234,341.409v 4.61363" fill="none" stroke="black"/>
<path d="M459.678,341.409v 4.61363" fill="none" stroke="black"/>
<path d="M469.123,341.409v 4.61363" fill="none" stroke="black"/>
<path d="M478.567,341.409v 4.61363" fill="none" stroke="black"/>
<path d="M488.011,336.795v 9.22726" fill="none" stroke="black"/>
<path d="M63.0218,336.795v 9.22726" fill="none" stroke="black"/>
<path d="M488.011,336.795v 9.22726" fill="none" stroke="black"/>
<path d="M497.455,341.409v 4.61363" fill="none" stroke="black"/>
<path d="M506.9,341.409v 4.61363" fill="none" stroke="black"/>
<text xml:space="preserve" x="51.8169" y="358.403" fill="black" font-size="12.8453" font-family="Helvetica">785</text>
<text xml:space="preserve" x="99.061" y="358.403" fill="black" font-size="12.8453" font-family="Helvetica">790</text>
<text xml:space="preserve" x="146.305" y="358.403" fill="black" font-size="12.8453" font-family="Helvetica">795</text>
<text xml:space="preserve" x="193.549" y="358.403" fill="black" font-size="12.8453" font-family="Helvetica">800</text>
<text xml:space="preserve" x="240.793" y="358.403" fill="black" font-size="12.8453" font-family="Helvetica">805</text>
<text xml:space="preserve" x="288.037" y="358.403" fill="black" font-size="12.8453" font-family="Helvetica">810</text>
<text xml:space="preserve" x="335.281" y="358.403" fill="black" font-size="12.8453" font-family="Helvetica">815</text>
<text xml:space="preserve" x="382.526" y="358.403" fill="black" font-size="12.8453" font-family="Helvetica">820</text>
<text xml:space="preserve" x="429.77" y="358.403" fill="black" font-size="12.8453" font-family="Helvetica">825</text>
<text xml:space="preserve" x="477.014" y="358.403" fill="black" font-size="12.8453" font-family="Helvetica">830</text>
<text xml:space="preserve" x="460.723" y="370.622" fill="black" font-size="12.8453" font-family="Helvetica">Time [ns]</text>
<path d="M57.1929,346.022v -307.575" fill="none" stroke="black"/>
<path d="M70.7992,346.022h -13.6063" fill="none" stroke="black"/>
<path d="M63.9961,334.211h -6.80315" fill="none" stroke="black"/>
<path d="M63.9961,322.399h -6.80315" fill="none" stroke="black"/>
<path d="M63.9961,310.587h -6.80315" fill="none" stroke="black"/>
<path d="M70.7992,298.776h -13.6063" fill="none" stroke="black"/>
<path d="M63.9961,286.964h -6.80315" fill="none" stroke="black"/>
<path d="M63.9961,275.152h -6.80315" fill="none" stroke="black"/>
<path d="M63.9961,263.341h -6.80315" fill="none" stroke="black"/>
<path d="M70.7992,251.529h -13.6063" fill="none" stroke="black"/>
<path d="M63.9961,239.717h -6.80315" fill="none" stroke="black"/>
<path d="M63.9961,227.906h -6.80315" fill="none" stroke="black"/>
<path d="M63.9961,216.094h -6.80315" fill="none" stroke="black"/>
<path d="M70.7992,204.282h -13.6063" fill="none" stroke="black"/>
<path d="M63.9961,192.471h -6.80315" fill="none" stroke="black"/>
<path d="M63.9961,180.659h -6.80315" fill="none" stroke="black"/>
<path d="M63.9961,168.848h -6.80315" fill="none" stroke="black"/>
<path d="M70.7992,157.036h -13.6063" fill="none" stroke="black"/>
<path d="M63.9961,145.224h -6.80315" fill="none" stroke="black"/>
<path d="M63.9961,133.413h -6.80315" fill="none" stroke="black"/>
<path d="M63.9961,121.601h -6.80315" fill="none" stroke="black"/>
<path d="M70.7992,109.789h -13.6063" fill="none" stroke="black"/>
<path d="M63.9961,97.9776h -6.80315" fill="none" stroke="black"/>
<path d="M63.9961,86.166h -6.80315" fill="none" stroke="black"/>
<path d="M63.9961,74.3543h -6.80315" fill="none" stroke="black"/>
<path d="M70.7992,62.5427h -13.6063" fill="none" stroke="black"/>
<path d="M70.7992,62.5427h -13.6063" fill="none" stroke="black"/>
<path d="M63.9961,50.731h -6.80315" fill="none" stroke="black"/>
<path d="M63.9961,38.9194h -6.80315" fill="none" stroke="black"/>
<text xml:space="preserve" x="47.7441" y="350.258" fill="black" font-size="12.8453" font-family="Helvetica">0</text>
<text xml:space="preserve" x="41.2277" y="303.014" fill="black" font-size="12.8453" font-family="Helvetica">20</text>
<text xml:space="preserve" x="41.2277" y="255.77" fill="black" font-size="12.8453" font-family="Helvetica">40</text>
<text xml:space="preserve" x="41.2277" y="208.526" fill="black" font-size="12.8453" font-family="Helvetica">60</text>
<text xml:space="preserve" x="41.2277" y="161.282" fill="black" font-size="12.8453" font-family="Helvetica">80</text>
<text xml:space="preserve" x="33.8967" y="114.037" fill="black" font-size="12.8453" font-family="Helvetica">100</text>
<text xml:space="preserve" x="33.8967" y="66.7934" fill="black" font-size="12.8453" font-family="Helvetica">120</text>
<g transform="rotate(-90,20.8638,70.0516)">
<text xml:space="preserve" x="20.8638" y="70.0516" fill="black" font-size="12.8453" font-family="Helvetica">Event</text>
</g>
<text xml:space="preserve" x="253.012" y="18.7347" fill="black" font-size="16.9898" font-family="Helvetica">0mm 39</text></svg>
