<?xml version="1.0" standalone="no"?>
<svg width="567.429" height="384.969" viewBox="0 0 567.429 384.969" xmlns="http://www.w3.org/2000/svg" shape-rendering="crispEdges">
<title>
img/week2/Combined140mm_ch_32.svg
</title>
<desc>
Creator: ROOT Version 6.22/09
CreationDate: Thu Jun 24 12:12:15 2021</desc>
<defs>
</defs>
<rect x="0.5" y="0" width="566.929" height="384.469" fill="white"/>
<rect x="57.1929" y="38.4469" width="453.543" height="307.575" fill="white"/>
<rect x="57.1929" y="38.4469" width="453.543" height="307.575" fill="none" stroke="black"/>
<rect x="57.1929" y="38.4469" width="453.543" height="307.575" fill="white"/>
<rect x="57.1929" y="38.4469" width="453.543" height="307.575" fill="none" stroke="black"/>
<path d="M57.1929,346.022h 104.664v -1.65497h 34.8879v -3.30993h 34.8879v -62.8887h 34.8879v -225.075h 34.8879v 241.625h 34.8879v 51.3039h 174.44" fill="none" stroke="#000099"/>
<g fill="#ff0000">
<polygon points=" 279.729, 48.8577 288.2, 48.8577 283.965, 57.329"/>
</g>
<path d="M59.4606,346.022h 136.063l 4.53543, -0.0452284l 4.53543, -0.0706149l 4.53543, -0.165462l 4.53543, -0.366332l 4.53543, -0.765983l 4.53543, -1.51175l 4.53543, -2.81415l 4.53543, -4.9367l 4.53543, -8.15188l 4.53543, -12.6525l 4.53543, -18.4223l
 4.53543, -25.0961l 4.53543, -31.8652l 4.53543, -37.4988l 4.53543, -40.5326l 4.53543, -39.6188l 4.53543, -33.9549l 4.53543, -23.6421l 4.53543, -9.81899" fill="none" stroke="#ff0000" stroke-width="2"/>
<path d="M281.697,54.0919l 4.53543, 5.52252l 4.53543, 20.0058l 4.53543, 31.4728l 4.53543, 38.5102l 4.53543, 40.7232l 4.53543, 38.6873l 4.53543, 33.6395l 4.53543, 27.0521l 4.53543, 20.2491l 4.53543, 14.1677l 4.53543, 9.29289l 4.53543, 5.72645l
 4.53543, 3.32039l 4.53543, 1.81379l 4.53543, 0.93431l 4.53543, 0.454183l 4.53543, 0.208484l 4.53543, 0.0904134l 4.53543, 0.0593702h 136.063" fill="none" stroke="#ff0000" stroke-width="2"/>
<path d="M503.933,346.022h 4.53543" fill="none" stroke="#ff0000" stroke-width="2"/>
<path d="M57.1929,346.022h 453.543" fill="none" stroke="black"/>
<path d="M106.162,336.795v 9.22726" fill="none" stroke="black"/>
<path d="M123.597,341.409v 4.61363" fill="none" stroke="black"/>
<path d="M141.033,341.409v 4.61363" fill="none" stroke="black"/>
<path d="M158.468,341.409v 4.61363" fill="none" stroke="black"/>
<path d="M175.904,341.409v 4.61363" fill="none" stroke="black"/>
<path d="M193.339,336.795v 9.22726" fill="none" stroke="black"/>
<path d="M210.775,341.409v 4.61363" fill="none" stroke="black"/>
<path d="M228.21,341.409v 4.61363" fill="none" stroke="black"/>
<path d="M245.646,341.409v 4.61363" fill="none" stroke="black"/>
<path d="M263.081,341.409v 4.61363" fill="none" stroke="black"/>
<path d="M280.517,336.795v 9.22726" fill="none" stroke="black"/>
<path d="M297.952,341.409v 4.61363" fill="none" stroke="black"/>
<path d="M315.388,341.409v 4.61363" fill="none" stroke="black"/>
<path d="M332.823,341.409v 4.61363" fill="none" stroke="black"/>
<path d="M350.258,341.409v 4.61363" fill="none" stroke="black"/>
<path d="M367.694,336.795v 9.22726" fill="none" stroke="black"/>
<path d="M385.129,341.409v 4.61363" fill="none" stroke="black"/>
<path d="M402.565,341.409v 4.61363" fill="none" stroke="black"/>
<path d="M420,341.409v 4.61363" fill="none" stroke="black"/>
<path d="M437.436,341.409v 4.61363" fill="none" stroke="black"/>
<path d="M454.871,336.795v 9.22726" fill="none" stroke="black"/>
<path d="M106.162,336.795v 9.22726" fill="none" stroke="black"/>
<path d="M88.7266,341.409v 4.61363" fill="none" stroke="black"/>
<path d="M71.2911,341.409v 4.61363" fill="none" stroke="black"/>
<path d="M454.871,336.795v 9.22726" fill="none" stroke="black"/>
<path d="M472.307,341.409v 4.61363" fill="none" stroke="black"/>
<path d="M489.742,341.409v 4.61363" fill="none" stroke="black"/>
<path d="M507.178,341.409v 4.61363" fill="none" stroke="black"/>
<text xml:space="preserve" x="94.9882" y="358.403" fill="black" font-size="12.8453" font-family="Helvetica">790</text>
<text xml:space="preserve" x="182.145" y="358.403" fill="black" font-size="12.8453" font-family="Helvetica">800</text>
<text xml:space="preserve" x="269.303" y="358.403" fill="black" font-size="12.8453" font-family="Helvetica">810</text>
<text xml:space="preserve" x="356.46" y="358.403" fill="black" font-size="12.8453" font-family="Helvetica">820</text>
<text xml:space="preserve" x="443.617" y="358.403" fill="black" font-size="12.8453" font-family="Helvetica">830</text>
<text xml:space="preserve" x="460.723" y="370.622" fill="black" font-size="12.8453" font-family="Helvetica">Time [ps]</text>
<path d="M57.1929,346.022v -307.575" fill="none" stroke="black"/>
<path d="M70.7992,346.022h -13.6063" fill="none" stroke="black"/>
<path d="M63.9961,337.747h -6.80315" fill="none" stroke="black"/>
<path d="M63.9961,329.473h -6.80315" fill="none" stroke="black"/>
<path d="M63.9961,321.198h -6.80315" fill="none" stroke="black"/>
<path d="M70.7992,312.923h -13.6063" fill="none" stroke="black"/>
<path d="M63.9961,304.648h -6.80315" fill="none" stroke="black"/>
<path d="M63.9961,296.373h -6.80315" fill="none" stroke="black"/>
<path d="M63.9961,288.098h -6.80315" fill="none" stroke="black"/>
<path d="M70.7992,279.824h -13.6063" fill="none" stroke="black"/>
<path d="M63.9961,271.549h -6.80315" fill="none" stroke="black"/>
<path d="M63.9961,263.274h -6.80315" fill="none" stroke="black"/>
<path d="M63.9961,254.999h -6.80315" fill="none" stroke="black"/>
<path d="M70.7992,246.724h -13.6063" fill="none" stroke="black"/>
<path d="M63.9961,238.449h -6.80315" fill="none" stroke="black"/>
<path d="M63.9961,230.175h -6.80315" fill="none" stroke="black"/>
<path d="M63.9961,221.9h -6.80315" fill="none" stroke="black"/>
<path d="M70.7992,213.625h -13.6063" fill="none" stroke="black"/>
<path d="M63.9961,205.35h -6.80315" fill="none" stroke="black"/>
<path d="M63.9961,197.075h -6.80315" fill="none" stroke="black"/>
<path d="M63.9961,188.801h -6.80315" fill="none" stroke="black"/>
<path d="M70.7992,180.526h -13.6063" fill="none" stroke="black"/>
<path d="M63.9961,172.251h -6.80315" fill="none" stroke="black"/>
<path d="M63.9961,163.976h -6.80315" fill="none" stroke="black"/>
<path d="M63.9961,155.701h -6.80315" fill="none" stroke="black"/>
<path d="M70.7992,147.426h -13.6063" fill="none" stroke="black"/>
<path d="M63.9961,139.152h -6.80315" fill="none" stroke="black"/>
<path d="M63.9961,130.877h -6.80315" fill="none" stroke="black"/>
<path d="M63.9961,122.602h -6.80315" fill="none" stroke="black"/>
<path d="M70.7992,114.327h -13.6063" fill="none" stroke="black"/>
<path d="M63.9961,106.052h -6.80315" fill="none" stroke="black"/>
<path d="M63.9961,97.7774h -6.80315" fill="none" stroke="black"/>
<path d="M63.9961,89.5026h -6.80315" fill="none" stroke="black"/>
<path d="M70.7992,81.2278h -13.6063" fill="none" stroke="black"/>
<path d="M63.9961,72.9529h -6.80315" fill="none" stroke="black"/>
<path d="M63.9961,64.6781h -6.80315" fill="none" stroke="black"/>
<path d="M63.9961,56.4033h -6.80315" fill="none" stroke="black"/>
<path d="M70.7992,48.1285h -13.6063" fill="none" stroke="black"/>
<path d="M70.7992,48.1285h -13.6063" fill="none" stroke="black"/>
<path d="M63.9961,39.8536h -6.80315" fill="none" stroke="black"/>
<text xml:space="preserve" x="47.7441" y="350.258" fill="black" font-size="12.8453" font-family="Helvetica">0</text>
<text xml:space="preserve" x="41.2277" y="317.676" fill="black" font-size="12.8453" font-family="Helvetica">20</text>
<text xml:space="preserve" x="41.2277" y="284.279" fill="black" font-size="12.8453" font-family="Helvetica">40</text>
<text xml:space="preserve" x="41.2277" y="250.882" fill="black" font-size="12.8453" font-family="Helvetica">60</text>
<text xml:space="preserve" x="41.2277" y="218.3" fill="black" font-size="12.8453" font-family="Helvetica">80</text>
<text xml:space="preserve" x="33.8967" y="184.904" fill="black" font-size="12.8453" font-family="Helvetica">100</text>
<text xml:space="preserve" x="33.8967" y="151.507" fill="black" font-size="12.8453" font-family="Helvetica">120</text>
<text xml:space="preserve" x="33.8967" y="118.925" fill="black" font-size="12.8453" font-family="Helvetica">140</text>
<text xml:space="preserve" x="33.8967" y="85.5281" fill="black" font-size="12.8453" font-family="Helvetica">160</text>
<text xml:space="preserve" x="33.8967" y="52.946" fill="black" font-size="12.8453" font-family="Helvetica">180</text>
<g transform="rotate(-90,20.8638,70.0516)">
<text xml:space="preserve" x="20.8638" y="70.0516" fill="black" font-size="12.8453" font-family="Helvetica">Event</text>
</g>
<text xml:space="preserve" x="243.237" y="18.7347" fill="black" font-size="16.9898" font-family="Helvetica">140mm 32</text></svg>
