<?xml version="1.0" standalone="no"?>
<svg width="567.429" height="386.304" viewBox="0 0 567.429 386.304" xmlns="http://www.w3.org/2000/svg" shape-rendering="crispEdges">
<title>
img/week2/Combined0mm_ch_59.svg
</title>
<desc>
Creator: ROOT Version 6.22/08
CreationDate: Thu Jun 24 11:58:49 2021</desc>
<defs>
</defs>
<rect x="0.5" y="0" width="566.929" height="385.804" fill="white"/>
<rect x="57.1929" y="38.5804" width="453.543" height="308.643" fill="white"/>
<rect x="57.1929" y="38.5804" width="453.543" height="308.643" fill="none" stroke="black"/>
<rect x="57.1929" y="38.5804" width="453.543" height="308.643" fill="white"/>
<rect x="57.1929" y="38.5804" width="453.543" height="308.643" fill="none" stroke="black"/>
<path d="M57.1929,347.224h 133.395v -5.95888h 26.679v -11.9178h 26.679v -154.931h 26.679v -119.178h 26.679v 190.684h 26.679v 101.301h 186.753" fill="none" stroke="#000099"/>
<g fill="#ff0000">
<polygon points=" 279.741, 51.0154 288.188, 51.0154 283.965, 59.4624"/>
</g>
<path d="M59.4606,347.224h 126.992l 4.53543, -0.0394427l 4.53543, -0.0566946l 4.53543, -0.12748l 4.53543, -0.272756l 4.53543, -0.555106l 4.53543, -1.07412l 4.53543, -1.97504l 4.53543, -3.44873l 4.53543, -5.71415l 4.53543, -8.97448l 4.53543, -13.3433l
 4.53543, -18.7483l 4.53543, -24.8367l 4.53543, -30.92l 4.53543, -36.002l 4.53543, -38.918l 4.53543, -38.5807l 4.53543, -34.2798l 4.53543, -25.9469l 4.53543, -14.2852l 4.53543, -0.698177" fill="none" stroke="#ff0000" stroke-width="2"/>
<path d="M281.697,48.4268l 4.53543, 12.9845l 4.53543, 24.9118l 4.53543, 33.6223l 4.53543, 38.3357l 4.53543, 39.0463l 4.53543, 36.4107l 4.53543, 31.4921l 4.53543, 25.4598l 4.53543, 19.3353l 4.53543, 13.8407l 4.53543, 9.36104l 4.53543, 5.99266l
 4.53543, 3.63605l 4.53543, 2.09319l 4.53543, 1.14424l 4.53543, 0.594355l 4.53543, 0.293514l 4.53543, 0.137868l 4.53543, 0.0616188l 4.53543, 0.0432105h 131.528" fill="none" stroke="#ff0000" stroke-width="2"/>
<path d="M503.933,347.224h 4.53543" fill="none" stroke="#ff0000" stroke-width="2"/>
<rect x="351.996" y="25.0773" width="204.094" height="108.025" fill="white"/>
<path d="M351.996,133.102h 204.094" fill="none" stroke="black"/>
<path d="M556.091,133.102v -108.025" fill="none" stroke="black"/>
<path d="M556.091,25.0773h -204.094" fill="none" stroke="black"/>
<path d="M351.996,25.0773v 108.025" fill="none" stroke="black"/>
<text xml:space="preserve" x="361.938" y="38.9865" fill="black" font-size="15.6962" font-family="Helvetica">Entries </text>
<text xml:space="preserve" x="515.447" y="38.9865" fill="black" font-size="15.6962" font-family="Helvetica"> 100</text>
<text xml:space="preserve" x="375.745" y="57.6676" fill="black" font-size="15.6962" font-family="Helvetica"> / ndf </text>
<text xml:space="preserve" x="370.06" y="52.7943" fill="black" font-size="10.6308" font-family="Helvetica">2</text>
<text xml:space="preserve" x="361.938" y="57.6676" fill="black" font-size="15.6962" font-family="Times">&#0967;</text>
<text xml:space="preserve" x="472.399" y="57.6676" fill="black" font-size="15.6962" font-family="Helvetica"> 0.8916 / 2</text>
<text xml:space="preserve" x="361.938" y="75.5364" fill="black" font-size="15.6962" font-family="Helvetica">Prob  </text>
<text xml:space="preserve" x="494.329" y="75.5364" fill="black" font-size="15.6962" font-family="Helvetica"> 0.6403</text>
<text xml:space="preserve" x="361.938" y="94.2175" fill="black" font-size="15.6962" font-family="Helvetica">Const    </text>
<text xml:space="preserve" x="511.386" y="93.4052" fill="black" font-size="15.6962" font-family="Helvetica"> 6.48</text>
<text xml:space="preserve" x="502.452" y="93.4052" fill="black" font-size="15.6962" font-family="Times">&#0177;</text>
<text xml:space="preserve" x="454.531" y="93.4052" fill="black" font-size="15.6962" font-family="Helvetica"> 50.38 </text>
<text xml:space="preserve" x="361.938" y="111.274" fill="black" font-size="15.6962" font-family="Helvetica">Mean     </text>
<text xml:space="preserve" x="520.32" y="111.274" fill="black" font-size="15.6962" font-family="Helvetica"> 0.3</text>
<text xml:space="preserve" x="511.386" y="111.274" fill="black" font-size="15.6962" font-family="Times">&#0177;</text>
<text xml:space="preserve" x="463.465" y="111.274" fill="black" font-size="15.6962" font-family="Helvetica"> 809.7 </text>
<text xml:space="preserve" x="361.938" y="128.331" fill="black" font-size="15.6962" font-family="Helvetica">Sigma    </text>
<text xml:space="preserve" x="502.452" y="129.143" fill="black" font-size="15.6962" font-family="Helvetica"> 0.274</text>
<text xml:space="preserve" x="493.517" y="129.143" fill="black" font-size="15.6962" font-family="Times">&#0177;</text>
<text xml:space="preserve" x="445.596" y="129.143" fill="black" font-size="15.6962" font-family="Helvetica"> 3.146 </text>
<path d="M57.1929,347.224h 453.543" fill="none" stroke="black"/>
<path d="M81.3329,337.964v 9.2593" fill="none" stroke="black"/>
<path d="M94.6659,342.594v 4.62965" fill="none" stroke="black"/>
<path d="M107.999,342.594v 4.62965" fill="none" stroke="black"/>
<path d="M121.332,342.594v 4.62965" fill="none" stroke="black"/>
<path d="M134.665,342.594v 4.62965" fill="none" stroke="black"/>
<path d="M147.998,337.964v 9.2593" fill="none" stroke="black"/>
<path d="M161.331,342.594v 4.62965" fill="none" stroke="black"/>
<path d="M174.664,342.594v 4.62965" fill="none" stroke="black"/>
<path d="M187.997,342.594v 4.62965" fill="none" stroke="black"/>
<path d="M201.33,342.594v 4.62965" fill="none" stroke="black"/>
<path d="M214.663,337.964v 9.2593" fill="none" stroke="black"/>
<path d="M227.996,342.594v 4.62965" fill="none" stroke="black"/>
<path d="M241.329,342.594v 4.62965" fill="none" stroke="black"/>
<path d="M254.662,342.594v 4.62965" fill="none" stroke="black"/>
<path d="M267.995,342.594v 4.62965" fill="none" stroke="black"/>
<path d="M281.328,337.964v 9.2593" fill="none" stroke="black"/>
<path d="M294.661,342.594v 4.62965" fill="none" stroke="black"/>
<path d="M307.994,342.594v 4.62965" fill="none" stroke="black"/>
<path d="M321.327,342.594v 4.62965" fill="none" stroke="black"/>
<path d="M334.66,342.594v 4.62965" fill="none" stroke="black"/>
<path d="M347.993,337.964v 9.2593" fill="none" stroke="black"/>
<path d="M361.326,342.594v 4.62965" fill="none" stroke="black"/>
<path d="M374.659,342.594v 4.62965" fill="none" stroke="black"/>
<path d="M387.992,342.594v 4.62965" fill="none" stroke="black"/>
<path d="M401.325,342.594v 4.62965" fill="none" stroke="black"/>
<path d="M414.658,337.964v 9.2593" fill="none" stroke="black"/>
<path d="M427.991,342.594v 4.62965" fill="none" stroke="black"/>
<path d="M441.324,342.594v 4.62965" fill="none" stroke="black"/>
<path d="M454.657,342.594v 4.62965" fill="none" stroke="black"/>
<path d="M467.99,342.594v 4.62965" fill="none" stroke="black"/>
<path d="M481.323,337.964v 9.2593" fill="none" stroke="black"/>
<path d="M81.3329,337.964v 9.2593" fill="none" stroke="black"/>
<path d="M67.9999,342.594v 4.62965" fill="none" stroke="black"/>
<path d="M481.323,337.964v 9.2593" fill="none" stroke="black"/>
<path d="M494.656,342.594v 4.62965" fill="none" stroke="black"/>
<path d="M507.989,342.594v 4.62965" fill="none" stroke="black"/>
<text xml:space="preserve" x="69.5387" y="359.813" fill="black" font-size="12.8882" font-family="Helvetica">780</text>
<text xml:space="preserve" x="136.141" y="359.813" fill="black" font-size="12.8882" font-family="Helvetica">790</text>
<text xml:space="preserve" x="202.743" y="359.813" fill="black" font-size="12.8882" font-family="Helvetica">800</text>
<text xml:space="preserve" x="269.345" y="359.813" fill="black" font-size="12.8882" font-family="Helvetica">810</text>
<text xml:space="preserve" x="335.947" y="359.813" fill="black" font-size="12.8882" font-family="Helvetica">820</text>
<text xml:space="preserve" x="402.549" y="359.813" fill="black" font-size="12.8882" font-family="Helvetica">830</text>
<text xml:space="preserve" x="469.151" y="359.813" fill="black" font-size="12.8882" font-family="Helvetica">840</text>
<text xml:space="preserve" x="457.78" y="372.809" fill="black" font-size="12.8882" font-family="Helvetica">Time [ns]</text>
<path d="M57.1929,347.224v -308.643" fill="none" stroke="black"/>
<path d="M70.7992,347.224h -13.6063" fill="none" stroke="black"/>
<path d="M63.9961,335.306h -6.80315" fill="none" stroke="black"/>
<path d="M63.9961,323.388h -6.80315" fill="none" stroke="black"/>
<path d="M63.9961,311.471h -6.80315" fill="none" stroke="black"/>
<path d="M63.9961,299.553h -6.80315" fill="none" stroke="black"/>
<path d="M70.7992,287.635h -13.6063" fill="none" stroke="black"/>
<path d="M63.9961,275.717h -6.80315" fill="none" stroke="black"/>
<path d="M63.9961,263.8h -6.80315" fill="none" stroke="black"/>
<path d="M63.9961,251.882h -6.80315" fill="none" stroke="black"/>
<path d="M63.9961,239.964h -6.80315" fill="none" stroke="black"/>
<path d="M70.7992,228.046h -13.6063" fill="none" stroke="black"/>
<path d="M63.9961,216.129h -6.80315" fill="none" stroke="black"/>
<path d="M63.9961,204.211h -6.80315" fill="none" stroke="black"/>
<path d="M63.9961,192.293h -6.80315" fill="none" stroke="black"/>
<path d="M63.9961,180.375h -6.80315" fill="none" stroke="black"/>
<path d="M70.7992,168.458h -13.6063" fill="none" stroke="black"/>
<path d="M63.9961,156.54h -6.80315" fill="none" stroke="black"/>
<path d="M63.9961,144.622h -6.80315" fill="none" stroke="black"/>
<path d="M63.9961,132.704h -6.80315" fill="none" stroke="black"/>
<path d="M63.9961,120.787h -6.80315" fill="none" stroke="black"/>
<path d="M70.7992,108.869h -13.6063" fill="none" stroke="black"/>
<path d="M63.9961,96.951h -6.80315" fill="none" stroke="black"/>
<path d="M63.9961,85.0333h -6.80315" fill="none" stroke="black"/>
<path d="M63.9961,73.1155h -6.80315" fill="none" stroke="black"/>
<path d="M63.9961,61.1978h -6.80315" fill="none" stroke="black"/>
<path d="M70.7992,49.28h -13.6063" fill="none" stroke="black"/>
<path d="M70.7992,49.28h -13.6063" fill="none" stroke="black"/>
<text xml:space="preserve" x="46.7965" y="351.691" fill="black" font-size="12.8882" font-family="Helvetica">0</text>
<text xml:space="preserve" x="39.4865" y="292.399" fill="black" font-size="12.8882" font-family="Helvetica">10</text>
<text xml:space="preserve" x="39.4865" y="232.295" fill="black" font-size="12.8882" font-family="Helvetica">20</text>
<text xml:space="preserve" x="39.4865" y="173.003" fill="black" font-size="12.8882" font-family="Helvetica">30</text>
<text xml:space="preserve" x="39.4865" y="113.711" fill="black" font-size="12.8882" font-family="Helvetica">40</text>
<text xml:space="preserve" x="39.4865" y="53.6065" fill="black" font-size="12.8882" font-family="Helvetica">50</text>
<g transform="rotate(-90,28.9277,71.4753)">
<text xml:space="preserve" x="28.9277" y="71.4753" fill="black" font-size="12.8882" font-family="Helvetica">Event</text>
</g>
<rect x="351.996" y="25.0773" width="204.094" height="108.025" fill="white"/>
<path d="M351.996,133.102h 204.094" fill="none" stroke="black"/>
<path d="M556.091,133.102v -108.025" fill="none" stroke="black"/>
<path d="M556.091,25.0773h -204.094" fill="none" stroke="black"/>
<path d="M351.996,25.0773v 108.025" fill="none" stroke="black"/>
<text xml:space="preserve" x="361.938" y="38.9865" fill="black" font-size="15.6962" font-family="Helvetica">Entries </text>
<text xml:space="preserve" x="515.447" y="38.9865" fill="black" font-size="15.6962" font-family="Helvetica"> 100</text>
<text xml:space="preserve" x="375.745" y="57.6676" fill="black" font-size="15.6962" font-family="Helvetica"> / ndf </text>
<text xml:space="preserve" x="370.06" y="52.7943" fill="black" font-size="10.6308" font-family="Helvetica">2</text>
<text xml:space="preserve" x="361.938" y="57.6676" fill="black" font-size="15.6962" font-family="Times">&#0967;</text>
<text xml:space="preserve" x="472.399" y="57.6676" fill="black" font-size="15.6962" font-family="Helvetica"> 0.8916 / 2</text>
<text xml:space="preserve" x="361.938" y="75.5364" fill="black" font-size="15.6962" font-family="Helvetica">Prob  </text>
<text xml:space="preserve" x="494.329" y="75.5364" fill="black" font-size="15.6962" font-family="Helvetica"> 0.6403</text>
<text xml:space="preserve" x="361.938" y="94.2175" fill="black" font-size="15.6962" font-family="Helvetica">Const    </text>
<text xml:space="preserve" x="511.386" y="93.4052" fill="black" font-size="15.6962" font-family="Helvetica"> 6.48</text>
<text xml:space="preserve" x="502.452" y="93.4052" fill="black" font-size="15.6962" font-family="Times">&#0177;</text>
<text xml:space="preserve" x="454.531" y="93.4052" fill="black" font-size="15.6962" font-family="Helvetica"> 50.38 </text>
<text xml:space="preserve" x="361.938" y="111.274" fill="black" font-size="15.6962" font-family="Helvetica">Mean     </text>
<text xml:space="preserve" x="520.32" y="111.274" fill="black" font-size="15.6962" font-family="Helvetica"> 0.3</text>
<text xml:space="preserve" x="511.386" y="111.274" fill="black" font-size="15.6962" font-family="Times">&#0177;</text>
<text xml:space="preserve" x="463.465" y="111.274" fill="black" font-size="15.6962" font-family="Helvetica"> 809.7 </text>
<text xml:space="preserve" x="361.938" y="128.331" fill="black" font-size="15.6962" font-family="Helvetica">Sigma    </text>
<text xml:space="preserve" x="502.452" y="129.143" fill="black" font-size="15.6962" font-family="Helvetica"> 0.274</text>
<text xml:space="preserve" x="493.517" y="129.143" fill="black" font-size="15.6962" font-family="Times">&#0177;</text>
<text xml:space="preserve" x="445.596" y="129.143" fill="black" font-size="15.6962" font-family="Helvetica"> 3.146 </text>
<text xml:space="preserve" x="253.1" y="18.681" fill="black" font-size="17.0471" font-family="Helvetica">0mm 59</text></svg>
