<?xml version="1.0" standalone="no"?>
<svg width="567.429" height="384.969" viewBox="0 0 567.429 384.969" xmlns="http://www.w3.org/2000/svg" shape-rendering="crispEdges">
<title>
img/week2/Combined140mm_ch_48_49_50_51.svg
</title>
<desc>
Creator: ROOT Version 6.22/09
CreationDate: Thu Jun 24 12:32:52 2021</desc>
<defs>
</defs>
<rect x="0.5" y="0" width="566.929" height="384.469" fill="white"/>
<rect x="57.1929" y="38.4469" width="453.543" height="307.575" fill="white"/>
<rect x="57.1929" y="38.4469" width="453.543" height="307.575" fill="none" stroke="black"/>
<rect x="57.1929" y="38.4469" width="453.543" height="307.575" fill="white"/>
<rect x="57.1929" y="38.4469" width="453.543" height="307.575" fill="none" stroke="black"/>
<path d="M57.1929,346.022h 90.7087v -2.59996h 30.2362v -0.866654h 30.2362v -12.9998h 30.2362v -98.7985h 30.2362v -177.664h 30.2362v 219.263h 30.2362v 73.6656h 181.417" fill="none" stroke="#000099"/>
<g fill="#ff0000">
<polygon points=" 279.729, 48.8577 288.2, 48.8577 283.965, 57.329"/>
</g>
<path d="M59.4606,346.022h 126.992l 4.53543, -0.0326122l 4.53543, -0.0473559l 4.53543, -0.107178l 4.53543, -0.230848l 4.53543, -0.473026l 4.53543, -0.921705l 4.53543, -1.70696l 4.53543, -3.00263l 4.53543, -5.01294l 4.53543, -7.93537l 4.53543,
 -11.8954l 4.53543, -16.8583l 4.53543, -22.5376l 4.53543, -28.335l 4.53543, -33.3518l 4.53543, -36.503l 4.53543, -36.7341l 4.53543, -33.3006l 4.53543, -26.0277l 4.53543, -15.4594l 4.53543, -2.82333" fill="none" stroke="#ff0000" stroke-width="2"/>
<path d="M281.697,62.7254l 4.53543, 10.1988l 4.53543, 21.8385l 4.53543, 30.6351l 4.53543, 35.7352l 4.53543, 37.0136l 4.53543, 34.9978l 4.53543, 30.6445l 4.53543, 25.0573l 4.53543, 19.2352l 4.53543, 13.9123l 4.53543, 9.50493l 4.53543, 6.14545l
 4.53543, 3.76552l 4.53543, 2.18895l 4.53543, 1.20826l 4.53543, 0.633718l 4.53543, 0.316002l 4.53543, 0.14988l 4.53543, 0.0676433l 4.53543, 0.0481976h 131.528" fill="none" stroke="#ff0000" stroke-width="2"/>
<path d="M503.933,346.022h 4.53543" fill="none" stroke="#ff0000" stroke-width="2"/>
<path d="M57.1929,346.022h 453.543" fill="none" stroke="black"/>
<path d="M129.869,336.795v 9.22726" fill="none" stroke="black"/>
<path d="M144.98,341.409v 4.61363" fill="none" stroke="black"/>
<path d="M160.09,341.409v 4.61363" fill="none" stroke="black"/>
<path d="M175.201,341.409v 4.61363" fill="none" stroke="black"/>
<path d="M190.312,341.409v 4.61363" fill="none" stroke="black"/>
<path d="M205.423,336.795v 9.22726" fill="none" stroke="black"/>
<path d="M220.533,341.409v 4.61363" fill="none" stroke="black"/>
<path d="M235.644,341.409v 4.61363" fill="none" stroke="black"/>
<path d="M250.755,341.409v 4.61363" fill="none" stroke="black"/>
<path d="M265.866,341.409v 4.61363" fill="none" stroke="black"/>
<path d="M280.976,336.795v 9.22726" fill="none" stroke="black"/>
<path d="M296.087,341.409v 4.61363" fill="none" stroke="black"/>
<path d="M311.198,341.409v 4.61363" fill="none" stroke="black"/>
<path d="M326.309,341.409v 4.61363" fill="none" stroke="black"/>
<path d="M341.419,341.409v 4.61363" fill="none" stroke="black"/>
<path d="M356.53,336.795v 9.22726" fill="none" stroke="black"/>
<path d="M371.641,341.409v 4.61363" fill="none" stroke="black"/>
<path d="M386.751,341.409v 4.61363" fill="none" stroke="black"/>
<path d="M401.862,341.409v 4.61363" fill="none" stroke="black"/>
<path d="M416.973,341.409v 4.61363" fill="none" stroke="black"/>
<path d="M432.084,336.795v 9.22726" fill="none" stroke="black"/>
<path d="M447.194,341.409v 4.61363" fill="none" stroke="black"/>
<path d="M462.305,341.409v 4.61363" fill="none" stroke="black"/>
<path d="M477.416,341.409v 4.61363" fill="none" stroke="black"/>
<path d="M492.527,341.409v 4.61363" fill="none" stroke="black"/>
<path d="M507.637,336.795v 9.22726" fill="none" stroke="black"/>
<path d="M129.869,336.795v 9.22726" fill="none" stroke="black"/>
<path d="M114.758,341.409v 4.61363" fill="none" stroke="black"/>
<path d="M99.6476,341.409v 4.61363" fill="none" stroke="black"/>
<path d="M84.5368,341.409v 4.61363" fill="none" stroke="black"/>
<path d="M69.4261,341.409v 4.61363" fill="none" stroke="black"/>
<path d="M507.637,336.795v 9.22726" fill="none" stroke="black"/>
<text xml:space="preserve" x="118.61" y="358.403" fill="black" font-size="12.8453" font-family="Helvetica">790</text>
<text xml:space="preserve" x="194.364" y="358.403" fill="black" font-size="12.8453" font-family="Helvetica">800</text>
<text xml:space="preserve" x="270.117" y="358.403" fill="black" font-size="12.8453" font-family="Helvetica">810</text>
<text xml:space="preserve" x="345.871" y="358.403" fill="black" font-size="12.8453" font-family="Helvetica">820</text>
<text xml:space="preserve" x="420.81" y="358.403" fill="black" font-size="12.8453" font-family="Helvetica">830</text>
<text xml:space="preserve" x="496.563" y="358.403" fill="black" font-size="12.8453" font-family="Helvetica">840</text>
<text xml:space="preserve" x="460.723" y="370.622" fill="black" font-size="12.8453" font-family="Helvetica">Time [ns]</text>
<path d="M57.1929,346.022v -307.575" fill="none" stroke="black"/>
<path d="M70.7992,346.022h -13.6063" fill="none" stroke="black"/>
<path d="M63.9961,337.356h -6.80315" fill="none" stroke="black"/>
<path d="M63.9961,328.689h -6.80315" fill="none" stroke="black"/>
<path d="M63.9961,320.023h -6.80315" fill="none" stroke="black"/>
<path d="M63.9961,311.356h -6.80315" fill="none" stroke="black"/>
<path d="M70.7992,302.69h -13.6063" fill="none" stroke="black"/>
<path d="M63.9961,294.023h -6.80315" fill="none" stroke="black"/>
<path d="M63.9961,285.357h -6.80315" fill="none" stroke="black"/>
<path d="M63.9961,276.69h -6.80315" fill="none" stroke="black"/>
<path d="M63.9961,268.023h -6.80315" fill="none" stroke="black"/>
<path d="M70.7992,259.357h -13.6063" fill="none" stroke="black"/>
<path d="M63.9961,250.69h -6.80315" fill="none" stroke="black"/>
<path d="M63.9961,242.024h -6.80315" fill="none" stroke="black"/>
<path d="M63.9961,233.357h -6.80315" fill="none" stroke="black"/>
<path d="M63.9961,224.691h -6.80315" fill="none" stroke="black"/>
<path d="M70.7992,216.024h -13.6063" fill="none" stroke="black"/>
<path d="M63.9961,207.358h -6.80315" fill="none" stroke="black"/>
<path d="M63.9961,198.691h -6.80315" fill="none" stroke="black"/>
<path d="M63.9961,190.025h -6.80315" fill="none" stroke="black"/>
<path d="M63.9961,181.358h -6.80315" fill="none" stroke="black"/>
<path d="M70.7992,172.692h -13.6063" fill="none" stroke="black"/>
<path d="M63.9961,164.025h -6.80315" fill="none" stroke="black"/>
<path d="M63.9961,155.358h -6.80315" fill="none" stroke="black"/>
<path d="M63.9961,146.692h -6.80315" fill="none" stroke="black"/>
<path d="M63.9961,138.025h -6.80315" fill="none" stroke="black"/>
<path d="M70.7992,129.359h -13.6063" fill="none" stroke="black"/>
<path d="M63.9961,120.692h -6.80315" fill="none" stroke="black"/>
<path d="M63.9961,112.026h -6.80315" fill="none" stroke="black"/>
<path d="M63.9961,103.359h -6.80315" fill="none" stroke="black"/>
<path d="M63.9961,94.6927h -6.80315" fill="none" stroke="black"/>
<path d="M70.7992,86.0262h -13.6063" fill="none" stroke="black"/>
<path d="M63.9961,77.3597h -6.80315" fill="none" stroke="black"/>
<path d="M63.9961,68.6931h -6.80315" fill="none" stroke="black"/>
<path d="M63.9961,60.0266h -6.80315" fill="none" stroke="black"/>
<path d="M63.9961,51.3601h -6.80315" fill="none" stroke="black"/>
<path d="M70.7992,42.6935h -13.6063" fill="none" stroke="black"/>
<path d="M70.7992,42.6935h -13.6063" fill="none" stroke="black"/>
<text xml:space="preserve" x="47.7441" y="350.258" fill="black" font-size="12.8453" font-family="Helvetica">0</text>
<text xml:space="preserve" x="41.2277" y="307.087" fill="black" font-size="12.8453" font-family="Helvetica">50</text>
<text xml:space="preserve" x="33.8967" y="263.915" fill="black" font-size="12.8453" font-family="Helvetica">100</text>
<text xml:space="preserve" x="33.8967" y="220.744" fill="black" font-size="12.8453" font-family="Helvetica">150</text>
<text xml:space="preserve" x="33.8967" y="177.573" fill="black" font-size="12.8453" font-family="Helvetica">200</text>
<text xml:space="preserve" x="33.8967" y="133.587" fill="black" font-size="12.8453" font-family="Helvetica">250</text>
<text xml:space="preserve" x="33.8967" y="90.4154" fill="black" font-size="12.8453" font-family="Helvetica">300</text>
<text xml:space="preserve" x="33.8967" y="47.2441" fill="black" font-size="12.8453" font-family="Helvetica">350</text>
<g transform="rotate(-90,20.8638,70.0516)">
<text xml:space="preserve" x="20.8638" y="70.0516" fill="black" font-size="12.8453" font-family="Helvetica">Event</text>
</g>
<text xml:space="preserve" x="209.026" y="18.7347" fill="black" font-size="16.9898" font-family="Helvetica">140mm 48 49 50 51</text></svg>
