<?xml version="1.0" standalone="no"?>
<svg width="567.429" height="386.304" viewBox="0 0 567.429 386.304" xmlns="http://www.w3.org/2000/svg" shape-rendering="crispEdges">
<title>
img/week2/Combined140mm_ch_13.svg
</title>
<desc>
Creator: ROOT Version 6.22/08
CreationDate: Thu Jun 24 12:19:20 2021</desc>
<defs>
</defs>
<rect x="0.5" y="0" width="566.929" height="385.804" fill="white"/>
<rect x="57.1929" y="38.5804" width="453.543" height="308.643" fill="white"/>
<rect x="57.1929" y="38.5804" width="453.543" height="308.643" fill="none" stroke="black"/>
<rect x="57.1929" y="38.5804" width="453.543" height="308.643" fill="white"/>
<rect x="57.1929" y="38.5804" width="453.543" height="308.643" fill="none" stroke="black"/>
<path d="M57.1929,347.224h 34.8879v -3.81748h 69.7759v -3.81748h 34.8879v -15.2699h 34.8879v -148.882h 34.8879v -122.159h 34.8879v 271.041h 34.8879v 22.9049h 174.44" fill="none" stroke="#000099"/>
<g fill="#ff0000">
<polygon points=" 279.741, 49.0542 288.188, 49.0542 283.965, 57.5013"/>
</g>
<path d="M59.4606,347.224h 117.921l 4.53543, -0.0428876l 4.53543, -0.060672l 4.53543, -0.135323l 4.53543, -0.287518l 4.53543, -0.581713l 4.53543, -1.12026l 4.53543, -2.05246l 4.53543, -3.57523l 4.53543, -5.91661l 4.53543, -9.29308l 4.53543, -13.8365l
 4.53543, -19.4972l 4.53543, -25.9448l 4.53543, -32.505l 4.53543, -38.1747l 4.53543, -41.7482l 4.53543, -42.0546l 4.53543, -38.2608l 4.53543, -30.1567l 0.841511, -3.39909" fill="none" stroke="#ff0000" stroke-width="2"/>
<path d="M278.728,38.5804l 2.96865, 15.745" fill="none" stroke="#ff0000" stroke-width="2"/>
<path d="M281.697,54.3254l 4.53543, 34.3301l 4.53543, 40.5114l 4.53543, 42.3856l 4.53543, 40.474l 4.53543, 35.8007l 4.53543, 29.5876l 4.53543, 22.9722l 4.53543, 16.8176l 4.53543, 11.6391l 4.53543, 7.62952l 4.53543, 4.74367l 4.53543, 2.80061l 4.53543,
 1.57141l 4.53543, 0.838552l 4.53543, 0.425814l 4.53543, 0.205857l 4.53543, 0.0947842l 4.53543, 0.0699601h 136.063" fill="none" stroke="#ff0000" stroke-width="2"/>
<path d="M499.398,347.224h 9.07087" fill="none" stroke="#ff0000" stroke-width="2"/>
<rect x="351.996" y="25.0773" width="204.094" height="108.025" fill="white"/>
<path d="M351.996,133.102h 204.094" fill="none" stroke="black"/>
<path d="M556.091,133.102v -108.025" fill="none" stroke="black"/>
<path d="M556.091,25.0773h -204.094" fill="none" stroke="black"/>
<path d="M351.996,25.0773v 108.025" fill="none" stroke="black"/>
<text xml:space="preserve" x="361.938" y="38.9865" fill="black" font-size="15.6962" font-family="Helvetica">Entries </text>
<text xml:space="preserve" x="515.447" y="38.9865" fill="black" font-size="15.6962" font-family="Helvetica"> 139</text>
<text xml:space="preserve" x="375.745" y="57.6676" fill="black" font-size="15.6962" font-family="Helvetica"> / ndf </text>
<text xml:space="preserve" x="370.06" y="52.7943" fill="black" font-size="10.6308" font-family="Helvetica">2</text>
<text xml:space="preserve" x="361.938" y="57.6676" fill="black" font-size="15.6962" font-family="Times">&#0967;</text>
<text xml:space="preserve" x="481.334" y="57.6676" fill="black" font-size="15.6962" font-family="Helvetica"> 8.223 / 5</text>
<text xml:space="preserve" x="361.938" y="75.5364" fill="black" font-size="15.6962" font-family="Helvetica">Prob  </text>
<text xml:space="preserve" x="494.329" y="75.5364" fill="black" font-size="15.6962" font-family="Helvetica"> 0.1444</text>
<text xml:space="preserve" x="361.938" y="94.2175" fill="black" font-size="15.6962" font-family="Helvetica">Const    </text>
<text xml:space="preserve" x="502.452" y="93.4052" fill="black" font-size="15.6962" font-family="Helvetica"> 10.74</text>
<text xml:space="preserve" x="493.517" y="93.4052" fill="black" font-size="15.6962" font-family="Times">&#0177;</text>
<text xml:space="preserve" x="446.408" y="93.4052" fill="black" font-size="15.6962" font-family="Helvetica"> 85.93 </text>
<text xml:space="preserve" x="361.938" y="111.274" fill="black" font-size="15.6962" font-family="Helvetica">Mean     </text>
<text xml:space="preserve" x="520.32" y="111.274" fill="black" font-size="15.6962" font-family="Helvetica"> 0.2</text>
<text xml:space="preserve" x="511.386" y="111.274" fill="black" font-size="15.6962" font-family="Times">&#0177;</text>
<text xml:space="preserve" x="468.338" y="111.274" fill="black" font-size="15.6962" font-family="Helvetica">   805 </text>
<text xml:space="preserve" x="361.938" y="128.331" fill="black" font-size="15.6962" font-family="Helvetica">Sigma    </text>
<text xml:space="preserve" x="502.452" y="129.143" fill="black" font-size="15.6962" font-family="Helvetica"> 0.216</text>
<text xml:space="preserve" x="493.517" y="129.143" fill="black" font-size="15.6962" font-family="Times">&#0177;</text>
<text xml:space="preserve" x="446.408" y="129.143" fill="black" font-size="15.6962" font-family="Helvetica"> 2.433 </text>
<path d="M57.1929,347.224h 453.543" fill="none" stroke="black"/>
<path d="M141.05,337.964v 9.2593" fill="none" stroke="black"/>
<path d="M158.485,342.594v 4.62965" fill="none" stroke="black"/>
<path d="M175.921,342.594v 4.62965" fill="none" stroke="black"/>
<path d="M193.356,342.594v 4.62965" fill="none" stroke="black"/>
<path d="M210.792,342.594v 4.62965" fill="none" stroke="black"/>
<path d="M228.227,337.964v 9.2593" fill="none" stroke="black"/>
<path d="M245.663,342.594v 4.62965" fill="none" stroke="black"/>
<path d="M263.098,342.594v 4.62965" fill="none" stroke="black"/>
<path d="M280.534,342.594v 4.62965" fill="none" stroke="black"/>
<path d="M297.969,342.594v 4.62965" fill="none" stroke="black"/>
<path d="M315.405,337.964v 9.2593" fill="none" stroke="black"/>
<path d="M332.84,342.594v 4.62965" fill="none" stroke="black"/>
<path d="M350.276,342.594v 4.62965" fill="none" stroke="black"/>
<path d="M367.711,342.594v 4.62965" fill="none" stroke="black"/>
<path d="M385.146,342.594v 4.62965" fill="none" stroke="black"/>
<path d="M402.582,337.964v 9.2593" fill="none" stroke="black"/>
<path d="M420.017,342.594v 4.62965" fill="none" stroke="black"/>
<path d="M437.453,342.594v 4.62965" fill="none" stroke="black"/>
<path d="M454.888,342.594v 4.62965" fill="none" stroke="black"/>
<path d="M472.324,342.594v 4.62965" fill="none" stroke="black"/>
<path d="M489.759,337.964v 9.2593" fill="none" stroke="black"/>
<path d="M141.05,337.964v 9.2593" fill="none" stroke="black"/>
<path d="M123.615,342.594v 4.62965" fill="none" stroke="black"/>
<path d="M106.179,342.594v 4.62965" fill="none" stroke="black"/>
<path d="M88.7436,342.594v 4.62965" fill="none" stroke="black"/>
<path d="M71.3081,342.594v 4.62965" fill="none" stroke="black"/>
<path d="M489.759,337.964v 9.2593" fill="none" stroke="black"/>
<path d="M507.195,342.594v 4.62965" fill="none" stroke="black"/>
<text xml:space="preserve" x="129.643" y="359.813" fill="black" font-size="12.8882" font-family="Helvetica">790</text>
<text xml:space="preserve" x="216.55" y="359.813" fill="black" font-size="12.8882" font-family="Helvetica">800</text>
<text xml:space="preserve" x="303.458" y="359.813" fill="black" font-size="12.8882" font-family="Helvetica">810</text>
<text xml:space="preserve" x="391.178" y="359.813" fill="black" font-size="12.8882" font-family="Helvetica">820</text>
<text xml:space="preserve" x="478.085" y="359.813" fill="black" font-size="12.8882" font-family="Helvetica">830</text>
<text xml:space="preserve" x="457.78" y="372.809" fill="black" font-size="12.8882" font-family="Helvetica">Time [ns]</text>
<path d="M57.1929,347.224v -308.643" fill="none" stroke="black"/>
<path d="M70.7992,347.224h -13.6063" fill="none" stroke="black"/>
<path d="M63.9961,339.589h -6.80315" fill="none" stroke="black"/>
<path d="M63.9961,331.954h -6.80315" fill="none" stroke="black"/>
<path d="M63.9961,324.319h -6.80315" fill="none" stroke="black"/>
<path d="M63.9961,316.684h -6.80315" fill="none" stroke="black"/>
<path d="M70.7992,309.049h -13.6063" fill="none" stroke="black"/>
<path d="M63.9961,301.414h -6.80315" fill="none" stroke="black"/>
<path d="M63.9961,293.779h -6.80315" fill="none" stroke="black"/>
<path d="M63.9961,286.144h -6.80315" fill="none" stroke="black"/>
<path d="M63.9961,278.509h -6.80315" fill="none" stroke="black"/>
<path d="M70.7992,270.874h -13.6063" fill="none" stroke="black"/>
<path d="M63.9961,263.239h -6.80315" fill="none" stroke="black"/>
<path d="M63.9961,255.604h -6.80315" fill="none" stroke="black"/>
<path d="M63.9961,247.969h -6.80315" fill="none" stroke="black"/>
<path d="M63.9961,240.334h -6.80315" fill="none" stroke="black"/>
<path d="M70.7992,232.699h -13.6063" fill="none" stroke="black"/>
<path d="M63.9961,225.064h -6.80315" fill="none" stroke="black"/>
<path d="M63.9961,217.429h -6.80315" fill="none" stroke="black"/>
<path d="M63.9961,209.794h -6.80315" fill="none" stroke="black"/>
<path d="M63.9961,202.16h -6.80315" fill="none" stroke="black"/>
<path d="M70.7992,194.525h -13.6063" fill="none" stroke="black"/>
<path d="M63.9961,186.89h -6.80315" fill="none" stroke="black"/>
<path d="M63.9961,179.255h -6.80315" fill="none" stroke="black"/>
<path d="M63.9961,171.62h -6.80315" fill="none" stroke="black"/>
<path d="M63.9961,163.985h -6.80315" fill="none" stroke="black"/>
<path d="M70.7992,156.35h -13.6063" fill="none" stroke="black"/>
<path d="M63.9961,148.715h -6.80315" fill="none" stroke="black"/>
<path d="M63.9961,141.08h -6.80315" fill="none" stroke="black"/>
<path d="M63.9961,133.445h -6.80315" fill="none" stroke="black"/>
<path d="M63.9961,125.81h -6.80315" fill="none" stroke="black"/>
<path d="M70.7992,118.175h -13.6063" fill="none" stroke="black"/>
<path d="M63.9961,110.54h -6.80315" fill="none" stroke="black"/>
<path d="M63.9961,102.905h -6.80315" fill="none" stroke="black"/>
<path d="M63.9961,95.27h -6.80315" fill="none" stroke="black"/>
<path d="M63.9961,87.6351h -6.80315" fill="none" stroke="black"/>
<path d="M70.7992,80.0001h -13.6063" fill="none" stroke="black"/>
<path d="M63.9961,72.3651h -6.80315" fill="none" stroke="black"/>
<path d="M63.9961,64.7302h -6.80315" fill="none" stroke="black"/>
<path d="M63.9961,57.0952h -6.80315" fill="none" stroke="black"/>
<path d="M63.9961,49.4602h -6.80315" fill="none" stroke="black"/>
<path d="M70.7992,41.8253h -13.6063" fill="none" stroke="black"/>
<path d="M70.7992,41.8253h -13.6063" fill="none" stroke="black"/>
<text xml:space="preserve" x="46.7965" y="351.691" fill="black" font-size="12.8882" font-family="Helvetica">0</text>
<text xml:space="preserve" x="39.4865" y="313.517" fill="black" font-size="12.8882" font-family="Helvetica">10</text>
<text xml:space="preserve" x="39.4865" y="275.342" fill="black" font-size="12.8882" font-family="Helvetica">20</text>
<text xml:space="preserve" x="39.4865" y="237.168" fill="black" font-size="12.8882" font-family="Helvetica">30</text>
<text xml:space="preserve" x="39.4865" y="198.994" fill="black" font-size="12.8882" font-family="Helvetica">40</text>
<text xml:space="preserve" x="39.4865" y="160.819" fill="black" font-size="12.8882" font-family="Helvetica">50</text>
<text xml:space="preserve" x="39.4865" y="122.645" fill="black" font-size="12.8882" font-family="Helvetica">60</text>
<text xml:space="preserve" x="39.4865" y="84.4708" fill="black" font-size="12.8882" font-family="Helvetica">70</text>
<text xml:space="preserve" x="39.4865" y="46.2965" fill="black" font-size="12.8882" font-family="Helvetica">80</text>
<g transform="rotate(-90,28.9277,71.4753)">
<text xml:space="preserve" x="28.9277" y="71.4753" fill="black" font-size="12.8882" font-family="Helvetica">Event</text>
</g>
<rect x="351.996" y="25.0773" width="204.094" height="108.025" fill="white"/>
<path d="M351.996,133.102h 204.094" fill="none" stroke="black"/>
<path d="M556.091,133.102v -108.025" fill="none" stroke="black"/>
<path d="M556.091,25.0773h -204.094" fill="none" stroke="black"/>
<path d="M351.996,25.0773v 108.025" fill="none" stroke="black"/>
<text xml:space="preserve" x="361.938" y="38.9865" fill="black" font-size="15.6962" font-family="Helvetica">Entries </text>
<text xml:space="preserve" x="515.447" y="38.9865" fill="black" font-size="15.6962" font-family="Helvetica"> 139</text>
<text xml:space="preserve" x="375.745" y="57.6676" fill="black" font-size="15.6962" font-family="Helvetica"> / ndf </text>
<text xml:space="preserve" x="370.06" y="52.7943" fill="black" font-size="10.6308" font-family="Helvetica">2</text>
<text xml:space="preserve" x="361.938" y="57.6676" fill="black" font-size="15.6962" font-family="Times">&#0967;</text>
<text xml:space="preserve" x="481.334" y="57.6676" fill="black" font-size="15.6962" font-family="Helvetica"> 8.223 / 5</text>
<text xml:space="preserve" x="361.938" y="75.5364" fill="black" font-size="15.6962" font-family="Helvetica">Prob  </text>
<text xml:space="preserve" x="494.329" y="75.5364" fill="black" font-size="15.6962" font-family="Helvetica"> 0.1444</text>
<text xml:space="preserve" x="361.938" y="94.2175" fill="black" font-size="15.6962" font-family="Helvetica">Const    </text>
<text xml:space="preserve" x="502.452" y="93.4052" fill="black" font-size="15.6962" font-family="Helvetica"> 10.74</text>
<text xml:space="preserve" x="493.517" y="93.4052" fill="black" font-size="15.6962" font-family="Times">&#0177;</text>
<text xml:space="preserve" x="446.408" y="93.4052" fill="black" font-size="15.6962" font-family="Helvetica"> 85.93 </text>
<text xml:space="preserve" x="361.938" y="111.274" fill="black" font-size="15.6962" font-family="Helvetica">Mean     </text>
<text xml:space="preserve" x="520.32" y="111.274" fill="black" font-size="15.6962" font-family="Helvetica"> 0.2</text>
<text xml:space="preserve" x="511.386" y="111.274" fill="black" font-size="15.6962" font-family="Times">&#0177;</text>
<text xml:space="preserve" x="468.338" y="111.274" fill="black" font-size="15.6962" font-family="Helvetica">   805 </text>
<text xml:space="preserve" x="361.938" y="128.331" fill="black" font-size="15.6962" font-family="Helvetica">Sigma    </text>
<text xml:space="preserve" x="502.452" y="129.143" fill="black" font-size="15.6962" font-family="Helvetica"> 0.216</text>
<text xml:space="preserve" x="493.517" y="129.143" fill="black" font-size="15.6962" font-family="Times">&#0177;</text>
<text xml:space="preserve" x="446.408" y="129.143" fill="black" font-size="15.6962" font-family="Helvetica"> 2.433 </text>
<text xml:space="preserve" x="243.354" y="18.681" fill="black" font-size="17.0471" font-family="Helvetica">140mm 13</text></svg>
