<?xml version="1.0" standalone="no"?>
<svg width="567.429" height="384.969" viewBox="0 0 567.429 384.969" xmlns="http://www.w3.org/2000/svg" shape-rendering="crispEdges">
<title>
img/week2/Combined0mm_ch_23.svg
</title>
<desc>
Creator: ROOT Version 6.22/09
CreationDate: Thu Jun 24 12:33:06 2021</desc>
<defs>
</defs>
<rect x="0.5" y="0" width="566.929" height="384.469" fill="white"/>
<rect x="57.1929" y="38.4469" width="453.543" height="307.575" fill="white"/>
<rect x="57.1929" y="38.4469" width="453.543" height="307.575" fill="none" stroke="black"/>
<rect x="57.1929" y="38.4469" width="453.543" height="307.575" fill="white"/>
<rect x="57.1929" y="38.4469" width="453.543" height="307.575" fill="none" stroke="black"/>
<path d="M57.1929,346.022h 90.7087v -3.29134h 30.2362v -3.29134h 30.2362v -9.87401h 30.2362v -138.236h 30.2362v -138.236h 30.2362v 240.268h 30.2362v 49.37h 30.2362v 3.29134h 151.181" fill="none" stroke="#000099"/>
<g fill="#ff0000">
<polygon points=" 279.729, 48.8577 288.2, 48.8577 283.965, 57.329"/>
</g>
<path d="M59.4606,346.022h 126.992l 4.53543, -0.0694264l 4.53543, -0.0953805l 4.53543, -0.208402l 4.53543, -0.433013l 4.53543, -0.855213l 4.53543, -1.60473l 4.53543, -2.85902l 4.53543, -4.83268l 4.53543, -7.74287l 4.53543, -11.7444l 4.53543,
 -16.8376l 4.53543, -22.7681l 4.53543, -28.9526l 4.53543, -34.4756l 4.53543, -38.194l 4.53543, -38.9554l 4.53543, -35.8949l 4.53543, -28.7252l 4.53543, -17.9204l 4.53543, -4.70807l 4.53543, 9.15358" fill="none" stroke="#ff0000" stroke-width="2"/>
<path d="M281.697,57.2989l 4.53543, 21.7592l 4.53543, 31.4863l 4.53543, 37.3374l 4.53543, 39.0946l 4.53543, 37.2598l 4.53543, 32.8252l 4.53543, 26.9702l 4.53543, 20.7828l 4.53543, 15.0766l 4.53543, 10.3236l 4.53543, 6.68541l 4.53543, 4.10038l
 4.53543, 2.38456l 4.53543, 1.31603l 4.53543, 0.689763l 4.53543, 0.343531l 4.53543, 0.162655l 4.53543, 0.0732453l 4.53543, 0.0519328h 136.063" fill="none" stroke="#ff0000" stroke-width="2"/>
<path d="M503.933,346.022h 4.53543" fill="none" stroke="#ff0000" stroke-width="2"/>
<path d="M57.1929,346.022h 453.543" fill="none" stroke="black"/>
<path d="M84.5516,336.795v 9.22726" fill="none" stroke="black"/>
<path d="M99.6623,341.409v 4.61363" fill="none" stroke="black"/>
<path d="M114.773,341.409v 4.61363" fill="none" stroke="black"/>
<path d="M129.884,341.409v 4.61363" fill="none" stroke="black"/>
<path d="M144.995,341.409v 4.61363" fill="none" stroke="black"/>
<path d="M160.105,336.795v 9.22726" fill="none" stroke="black"/>
<path d="M175.216,341.409v 4.61363" fill="none" stroke="black"/>
<path d="M190.327,341.409v 4.61363" fill="none" stroke="black"/>
<path d="M205.437,341.409v 4.61363" fill="none" stroke="black"/>
<path d="M220.548,341.409v 4.61363" fill="none" stroke="black"/>
<path d="M235.659,336.795v 9.22726" fill="none" stroke="black"/>
<path d="M250.77,341.409v 4.61363" fill="none" stroke="black"/>
<path d="M265.88,341.409v 4.61363" fill="none" stroke="black"/>
<path d="M280.991,341.409v 4.61363" fill="none" stroke="black"/>
<path d="M296.102,341.409v 4.61363" fill="none" stroke="black"/>
<path d="M311.213,336.795v 9.22726" fill="none" stroke="black"/>
<path d="M326.323,341.409v 4.61363" fill="none" stroke="black"/>
<path d="M341.434,341.409v 4.61363" fill="none" stroke="black"/>
<path d="M356.545,341.409v 4.61363" fill="none" stroke="black"/>
<path d="M371.656,341.409v 4.61363" fill="none" stroke="black"/>
<path d="M386.766,336.795v 9.22726" fill="none" stroke="black"/>
<path d="M401.877,341.409v 4.61363" fill="none" stroke="black"/>
<path d="M416.988,341.409v 4.61363" fill="none" stroke="black"/>
<path d="M432.098,341.409v 4.61363" fill="none" stroke="black"/>
<path d="M447.209,341.409v 4.61363" fill="none" stroke="black"/>
<path d="M462.32,336.795v 9.22726" fill="none" stroke="black"/>
<path d="M84.5516,336.795v 9.22726" fill="none" stroke="black"/>
<path d="M69.4409,341.409v 4.61363" fill="none" stroke="black"/>
<path d="M462.32,336.795v 9.22726" fill="none" stroke="black"/>
<path d="M477.431,341.409v 4.61363" fill="none" stroke="black"/>
<path d="M492.541,341.409v 4.61363" fill="none" stroke="black"/>
<path d="M507.652,341.409v 4.61363" fill="none" stroke="black"/>
<text xml:space="preserve" x="73.8098" y="358.403" fill="black" font-size="12.8453" font-family="Helvetica">780</text>
<text xml:space="preserve" x="148.749" y="358.403" fill="black" font-size="12.8453" font-family="Helvetica">790</text>
<text xml:space="preserve" x="224.502" y="358.403" fill="black" font-size="12.8453" font-family="Helvetica">800</text>
<text xml:space="preserve" x="300.256" y="358.403" fill="black" font-size="12.8453" font-family="Helvetica">810</text>
<text xml:space="preserve" x="376.009" y="358.403" fill="black" font-size="12.8453" font-family="Helvetica">820</text>
<text xml:space="preserve" x="450.948" y="358.403" fill="black" font-size="12.8453" font-family="Helvetica">830</text>
<text xml:space="preserve" x="460.723" y="370.622" fill="black" font-size="12.8453" font-family="Helvetica">Time [ns]</text>
<path d="M57.1929,346.022v -307.575" fill="none" stroke="black"/>
<path d="M70.7992,346.022h -13.6063" fill="none" stroke="black"/>
<path d="M63.9961,339.44h -6.80315" fill="none" stroke="black"/>
<path d="M63.9961,332.857h -6.80315" fill="none" stroke="black"/>
<path d="M63.9961,326.274h -6.80315" fill="none" stroke="black"/>
<path d="M63.9961,319.692h -6.80315" fill="none" stroke="black"/>
<path d="M70.7992,313.109h -13.6063" fill="none" stroke="black"/>
<path d="M63.9961,306.526h -6.80315" fill="none" stroke="black"/>
<path d="M63.9961,299.944h -6.80315" fill="none" stroke="black"/>
<path d="M63.9961,293.361h -6.80315" fill="none" stroke="black"/>
<path d="M63.9961,286.778h -6.80315" fill="none" stroke="black"/>
<path d="M70.7992,280.196h -13.6063" fill="none" stroke="black"/>
<path d="M63.9961,273.613h -6.80315" fill="none" stroke="black"/>
<path d="M63.9961,267.03h -6.80315" fill="none" stroke="black"/>
<path d="M63.9961,260.448h -6.80315" fill="none" stroke="black"/>
<path d="M63.9961,253.865h -6.80315" fill="none" stroke="black"/>
<path d="M70.7992,247.282h -13.6063" fill="none" stroke="black"/>
<path d="M63.9961,240.7h -6.80315" fill="none" stroke="black"/>
<path d="M63.9961,234.117h -6.80315" fill="none" stroke="black"/>
<path d="M63.9961,227.534h -6.80315" fill="none" stroke="black"/>
<path d="M63.9961,220.951h -6.80315" fill="none" stroke="black"/>
<path d="M70.7992,214.369h -13.6063" fill="none" stroke="black"/>
<path d="M63.9961,207.786h -6.80315" fill="none" stroke="black"/>
<path d="M63.9961,201.203h -6.80315" fill="none" stroke="black"/>
<path d="M63.9961,194.621h -6.80315" fill="none" stroke="black"/>
<path d="M63.9961,188.038h -6.80315" fill="none" stroke="black"/>
<path d="M70.7992,181.455h -13.6063" fill="none" stroke="black"/>
<path d="M63.9961,174.873h -6.80315" fill="none" stroke="black"/>
<path d="M63.9961,168.29h -6.80315" fill="none" stroke="black"/>
<path d="M63.9961,161.707h -6.80315" fill="none" stroke="black"/>
<path d="M63.9961,155.125h -6.80315" fill="none" stroke="black"/>
<path d="M70.7992,148.542h -13.6063" fill="none" stroke="black"/>
<path d="M63.9961,141.959h -6.80315" fill="none" stroke="black"/>
<path d="M63.9961,135.377h -6.80315" fill="none" stroke="black"/>
<path d="M63.9961,128.794h -6.80315" fill="none" stroke="black"/>
<path d="M63.9961,122.211h -6.80315" fill="none" stroke="black"/>
<path d="M70.7992,115.629h -13.6063" fill="none" stroke="black"/>
<path d="M63.9961,109.046h -6.80315" fill="none" stroke="black"/>
<path d="M63.9961,102.463h -6.80315" fill="none" stroke="black"/>
<path d="M63.9961,95.8807h -6.80315" fill="none" stroke="black"/>
<path d="M63.9961,89.2981h -6.80315" fill="none" stroke="black"/>
<path d="M70.7992,82.7154h -13.6063" fill="none" stroke="black"/>
<path d="M63.9961,76.1327h -6.80315" fill="none" stroke="black"/>
<path d="M63.9961,69.55h -6.80315" fill="none" stroke="black"/>
<path d="M63.9961,62.9674h -6.80315" fill="none" stroke="black"/>
<path d="M63.9961,56.3847h -6.80315" fill="none" stroke="black"/>
<path d="M70.7992,49.802h -13.6063" fill="none" stroke="black"/>
<path d="M70.7992,49.802h -13.6063" fill="none" stroke="black"/>
<path d="M63.9961,43.2194h -6.80315" fill="none" stroke="black"/>
<text xml:space="preserve" x="47.7441" y="350.258" fill="black" font-size="12.8453" font-family="Helvetica">0</text>
<text xml:space="preserve" x="41.2277" y="317.676" fill="black" font-size="12.8453" font-family="Helvetica">10</text>
<text xml:space="preserve" x="41.2277" y="284.279" fill="black" font-size="12.8453" font-family="Helvetica">20</text>
<text xml:space="preserve" x="41.2277" y="251.697" fill="black" font-size="12.8453" font-family="Helvetica">30</text>
<text xml:space="preserve" x="41.2277" y="219.115" fill="black" font-size="12.8453" font-family="Helvetica">40</text>
<text xml:space="preserve" x="41.2277" y="185.718" fill="black" font-size="12.8453" font-family="Helvetica">50</text>
<text xml:space="preserve" x="41.2277" y="153.136" fill="black" font-size="12.8453" font-family="Helvetica">60</text>
<text xml:space="preserve" x="41.2277" y="119.739" fill="black" font-size="12.8453" font-family="Helvetica">70</text>
<text xml:space="preserve" x="41.2277" y="87.1572" fill="black" font-size="12.8453" font-family="Helvetica">80</text>
<text xml:space="preserve" x="41.2277" y="54.5751" fill="black" font-size="12.8453" font-family="Helvetica">90</text>
<g transform="rotate(-90,29.0094,70.0516)">
<text xml:space="preserve" x="29.0094" y="70.0516" fill="black" font-size="12.8453" font-family="Helvetica">Event</text>
</g>
<text xml:space="preserve" x="253.012" y="18.7347" fill="black" font-size="16.9898" font-family="Helvetica">0mm 23</text></svg>
