<?xml version="1.0" standalone="no"?>
<svg width="567.429" height="384.969" viewBox="0 0 567.429 384.969" xmlns="http://www.w3.org/2000/svg" shape-rendering="crispEdges">
<title>
img/week2/Combined140mm_ch_10.svg
</title>
<desc>
Creator: ROOT Version 6.22/09
CreationDate: Thu Jun 24 12:12:14 2021</desc>
<defs>
</defs>
<rect x="0.5" y="0" width="566.929" height="384.469" fill="white"/>
<rect x="57.1929" y="38.4469" width="453.543" height="307.575" fill="white"/>
<rect x="57.1929" y="38.4469" width="453.543" height="307.575" fill="none" stroke="black"/>
<rect x="57.1929" y="38.4469" width="453.543" height="307.575" fill="white"/>
<rect x="57.1929" y="38.4469" width="453.543" height="307.575" fill="none" stroke="black"/>
<path d="M57.1929,346.022h 158.74v -9.60423h 22.6772v -48.0211h 22.6772v -96.0423h 22.6772v -139.261h 22.6772v 201.689h 22.6772v 91.2401h 181.417" fill="none" stroke="#000099"/>
<g fill="#ff0000">
<polygon points=" 291.067, 48.8577 299.539, 48.8577 295.303, 57.329"/>
</g>
<path d="M59.4606,346.022h 136.063l 4.53543, -0.0519936l 4.53543, -0.0683531l 4.53543, -0.146292l 4.53543, -0.29884l 4.53543, -0.582448l 4.53543, -1.08265l 4.53543, -1.91823l 4.53543, -3.23761l 4.53543, -5.20136l 4.53543, -7.946l 4.53543, -11.5284l
 4.53543, -15.8584l 4.53543, -20.6369l 4.53543, -25.3266l 4.53543, -29.1807l 4.53543, -31.3468l 4.53543, -31.0399l 4.53543, -27.7476l 4.53543, -21.4099" fill="none" stroke="#ff0000" stroke-width="2"/>
<path d="M281.697,111.413l 4.53543, -12.5113l 4.53543, -2.03869l 4.53543, 8.69552l 4.53543, 18.3238l 4.53543, 25.7098l 4.53543, 30.1678l 4.53543, 31.5572l 4.53543, 30.2382l 4.53543, 26.9176l 4.53543, 22.4455l 4.53543, 17.6246l 4.53543, 13.0784l
 4.53543, 9.19452l 4.53543, 6.13542l 4.53543, 3.89143l 4.53543, 2.34851l 4.53543, 1.34979l 4.53543, 0.739311l 4.53543, 0.386118l 4.53543, 0.192374l 4.53543, 0.0914686l 4.53543, 0.071632h 122.457" fill="none" stroke="#ff0000" stroke-width="2"/>
<path d="M503.933,346.022h 4.53543" fill="none" stroke="#ff0000" stroke-width="2"/>
<path d="M57.1929,346.022h 453.543" fill="none" stroke="black"/>
<path d="M89.0782,336.795v 9.22726" fill="none" stroke="black"/>
<path d="M100.411,341.409v 4.61363" fill="none" stroke="black"/>
<path d="M111.744,341.409v 4.61363" fill="none" stroke="black"/>
<path d="M123.077,341.409v 4.61363" fill="none" stroke="black"/>
<path d="M134.41,341.409v 4.61363" fill="none" stroke="black"/>
<path d="M145.743,336.795v 9.22726" fill="none" stroke="black"/>
<path d="M157.076,341.409v 4.61363" fill="none" stroke="black"/>
<path d="M168.41,341.409v 4.61363" fill="none" stroke="black"/>
<path d="M179.743,341.409v 4.61363" fill="none" stroke="black"/>
<path d="M191.076,341.409v 4.61363" fill="none" stroke="black"/>
<path d="M202.409,336.795v 9.22726" fill="none" stroke="black"/>
<path d="M213.742,341.409v 4.61363" fill="none" stroke="black"/>
<path d="M225.075,341.409v 4.61363" fill="none" stroke="black"/>
<path d="M236.408,341.409v 4.61363" fill="none" stroke="black"/>
<path d="M247.741,341.409v 4.61363" fill="none" stroke="black"/>
<path d="M259.074,336.795v 9.22726" fill="none" stroke="black"/>
<path d="M270.407,341.409v 4.61363" fill="none" stroke="black"/>
<path d="M281.74,341.409v 4.61363" fill="none" stroke="black"/>
<path d="M293.073,341.409v 4.61363" fill="none" stroke="black"/>
<path d="M304.406,341.409v 4.61363" fill="none" stroke="black"/>
<path d="M315.739,336.795v 9.22726" fill="none" stroke="black"/>
<path d="M327.072,341.409v 4.61363" fill="none" stroke="black"/>
<path d="M338.405,341.409v 4.61363" fill="none" stroke="black"/>
<path d="M349.738,341.409v 4.61363" fill="none" stroke="black"/>
<path d="M361.071,341.409v 4.61363" fill="none" stroke="black"/>
<path d="M372.404,336.795v 9.22726" fill="none" stroke="black"/>
<path d="M383.737,341.409v 4.61363" fill="none" stroke="black"/>
<path d="M395.07,341.409v 4.61363" fill="none" stroke="black"/>
<path d="M406.404,341.409v 4.61363" fill="none" stroke="black"/>
<path d="M417.737,341.409v 4.61363" fill="none" stroke="black"/>
<path d="M429.07,336.795v 9.22726" fill="none" stroke="black"/>
<path d="M440.403,341.409v 4.61363" fill="none" stroke="black"/>
<path d="M451.736,341.409v 4.61363" fill="none" stroke="black"/>
<path d="M463.069,341.409v 4.61363" fill="none" stroke="black"/>
<path d="M474.402,341.409v 4.61363" fill="none" stroke="black"/>
<path d="M485.735,336.795v 9.22726" fill="none" stroke="black"/>
<path d="M89.0782,336.795v 9.22726" fill="none" stroke="black"/>
<path d="M77.7451,341.409v 4.61363" fill="none" stroke="black"/>
<path d="M66.4121,341.409v 4.61363" fill="none" stroke="black"/>
<path d="M485.735,336.795v 9.22726" fill="none" stroke="black"/>
<path d="M497.068,341.409v 4.61363" fill="none" stroke="black"/>
<path d="M508.401,341.409v 4.61363" fill="none" stroke="black"/>
<text xml:space="preserve" x="77.8826" y="358.403" fill="black" font-size="12.8453" font-family="Helvetica">770</text>
<text xml:space="preserve" x="134.901" y="358.403" fill="black" font-size="12.8453" font-family="Helvetica">780</text>
<text xml:space="preserve" x="191.105" y="358.403" fill="black" font-size="12.8453" font-family="Helvetica">790</text>
<text xml:space="preserve" x="248.124" y="358.403" fill="black" font-size="12.8453" font-family="Helvetica">800</text>
<text xml:space="preserve" x="305.143" y="358.403" fill="black" font-size="12.8453" font-family="Helvetica">810</text>
<text xml:space="preserve" x="361.347" y="358.403" fill="black" font-size="12.8453" font-family="Helvetica">820</text>
<text xml:space="preserve" x="418.366" y="358.403" fill="black" font-size="12.8453" font-family="Helvetica">830</text>
<text xml:space="preserve" x="474.57" y="358.403" fill="black" font-size="12.8453" font-family="Helvetica">840</text>
<text xml:space="preserve" x="460.723" y="370.622" fill="black" font-size="12.8453" font-family="Helvetica">Time [ps]</text>
<path d="M57.1929,346.022v -307.575" fill="none" stroke="black"/>
<path d="M70.7992,346.022h -13.6063" fill="none" stroke="black"/>
<path d="M63.9961,336.418h -6.80315" fill="none" stroke="black"/>
<path d="M63.9961,326.814h -6.80315" fill="none" stroke="black"/>
<path d="M63.9961,317.21h -6.80315" fill="none" stroke="black"/>
<path d="M63.9961,307.605h -6.80315" fill="none" stroke="black"/>
<path d="M70.7992,298.001h -13.6063" fill="none" stroke="black"/>
<path d="M63.9961,288.397h -6.80315" fill="none" stroke="black"/>
<path d="M63.9961,278.793h -6.80315" fill="none" stroke="black"/>
<path d="M63.9961,269.188h -6.80315" fill="none" stroke="black"/>
<path d="M63.9961,259.584h -6.80315" fill="none" stroke="black"/>
<path d="M70.7992,249.98h -13.6063" fill="none" stroke="black"/>
<path d="M63.9961,240.376h -6.80315" fill="none" stroke="black"/>
<path d="M63.9961,230.772h -6.80315" fill="none" stroke="black"/>
<path d="M63.9961,221.167h -6.80315" fill="none" stroke="black"/>
<path d="M63.9961,211.563h -6.80315" fill="none" stroke="black"/>
<path d="M70.7992,201.959h -13.6063" fill="none" stroke="black"/>
<path d="M63.9961,192.355h -6.80315" fill="none" stroke="black"/>
<path d="M63.9961,182.75h -6.80315" fill="none" stroke="black"/>
<path d="M63.9961,173.146h -6.80315" fill="none" stroke="black"/>
<path d="M63.9961,163.542h -6.80315" fill="none" stroke="black"/>
<path d="M70.7992,153.938h -13.6063" fill="none" stroke="black"/>
<path d="M63.9961,144.334h -6.80315" fill="none" stroke="black"/>
<path d="M63.9961,134.729h -6.80315" fill="none" stroke="black"/>
<path d="M63.9961,125.125h -6.80315" fill="none" stroke="black"/>
<path d="M63.9961,115.521h -6.80315" fill="none" stroke="black"/>
<path d="M70.7992,105.917h -13.6063" fill="none" stroke="black"/>
<path d="M63.9961,96.3124h -6.80315" fill="none" stroke="black"/>
<path d="M63.9961,86.7082h -6.80315" fill="none" stroke="black"/>
<path d="M63.9961,77.1039h -6.80315" fill="none" stroke="black"/>
<path d="M63.9961,67.4997h -6.80315" fill="none" stroke="black"/>
<path d="M70.7992,57.8955h -13.6063" fill="none" stroke="black"/>
<path d="M70.7992,57.8955h -13.6063" fill="none" stroke="black"/>
<path d="M63.9961,48.2913h -6.80315" fill="none" stroke="black"/>
<path d="M63.9961,38.687h -6.80315" fill="none" stroke="black"/>
<text xml:space="preserve" x="47.7441" y="350.258" fill="black" font-size="12.8453" font-family="Helvetica">0</text>
<text xml:space="preserve" x="41.2277" y="302.199" fill="black" font-size="12.8453" font-family="Helvetica">10</text>
<text xml:space="preserve" x="41.2277" y="254.141" fill="black" font-size="12.8453" font-family="Helvetica">20</text>
<text xml:space="preserve" x="41.2277" y="206.082" fill="black" font-size="12.8453" font-family="Helvetica">30</text>
<text xml:space="preserve" x="41.2277" y="158.023" fill="black" font-size="12.8453" font-family="Helvetica">40</text>
<text xml:space="preserve" x="41.2277" y="110.779" fill="black" font-size="12.8453" font-family="Helvetica">50</text>
<text xml:space="preserve" x="41.2277" y="62.7206" fill="black" font-size="12.8453" font-family="Helvetica">60</text>
<g transform="rotate(-90,29.0094,70.0516)">
<text xml:space="preserve" x="29.0094" y="70.0516" fill="black" font-size="12.8453" font-family="Helvetica">Event</text>
</g>
<text xml:space="preserve" x="243.237" y="18.7347" fill="black" font-size="16.9898" font-family="Helvetica">140mm 10</text></svg>
