<?xml version="1.0" standalone="no"?>
<svg width="567.429" height="384.969" viewBox="0 0 567.429 384.969" xmlns="http://www.w3.org/2000/svg" shape-rendering="crispEdges">
<title>
img/week2/Combined420mm_ch_39.svg
</title>
<desc>
Creator: ROOT Version 6.22/09
CreationDate: Thu Jun 24 12:33:06 2021</desc>
<defs>
</defs>
<rect x="0.5" y="0" width="566.929" height="384.469" fill="white"/>
<rect x="57.1929" y="38.4469" width="453.543" height="307.575" fill="white"/>
<rect x="57.1929" y="38.4469" width="453.543" height="307.575" fill="none" stroke="black"/>
<rect x="57.1929" y="38.4469" width="453.543" height="307.575" fill="white"/>
<rect x="57.1929" y="38.4469" width="453.543" height="307.575" fill="none" stroke="black"/>
<path d="M57.1929,346.022h 97.1879v -5.00733h 32.396v -5.00733h 32.396v -47.5696h 32.396v -235.345h 32.396v 152.724h 32.396v 132.694h 32.396v 7.511h 161.98" fill="none" stroke="#000099"/>
<g fill="#ff0000">
<polygon points=" 263.531, 48.8577 272.002, 48.8577 267.767, 57.329"/>
</g>
<path d="M59.4606,346.022h 117.921l 4.53543, -0.0335647l 4.53543, -0.0470366l 4.53543, -0.104559l 4.53543, -0.221751l 4.53543, -0.448544l 4.53543, -0.864991l 4.53543, -1.58958l 4.53543, -2.78208l 4.53543, -4.63418l 4.53543, -7.34036l 4.53543,
 -11.044l 4.53543, -15.761l 4.53543, -21.2949l 4.53543, -27.1699l 4.53543, -32.617l 4.53543, -36.6444l 4.53543, -38.2031l 4.53543, -36.4253l 4.53543, -30.8793l 4.53543, -21.7589l 4.53543, -9.93458l 4.53543, 3.17142l 4.53543, 15.8652" fill="none"
 stroke="#ff0000" stroke-width="2"/>
<path d="M281.697,65.2597l 4.53543, 26.5408l 4.53543, 34.0141l 4.53543, 37.7349l 4.53543, 37.8256l 4.53543, 34.957l 4.53543, 30.1161l 4.53543, 24.3509l 4.53543, 18.5611l 4.53543, 13.378l 4.53543, 9.13766l 4.53543, 5.92438l 4.53543, 3.65055l 4.53543,
 2.13996l 4.53543, 1.19432l 4.53543, 0.635009l 4.53543, 0.321812l 4.53543, 0.155517l 4.53543, 0.0716902l 4.53543, 0.0532371h 136.063" fill="none" stroke="#ff0000" stroke-width="2"/>
<path d="M503.933,346.022h 4.53543" fill="none" stroke="#ff0000" stroke-width="2"/>
<path d="M57.1929,346.022h 453.543" fill="none" stroke="black"/>
<path d="M135.06,336.795v 9.22726" fill="none" stroke="black"/>
<path d="M151.25,341.409v 4.61363" fill="none" stroke="black"/>
<path d="M167.44,341.409v 4.61363" fill="none" stroke="black"/>
<path d="M183.63,341.409v 4.61363" fill="none" stroke="black"/>
<path d="M199.82,341.409v 4.61363" fill="none" stroke="black"/>
<path d="M216.011,336.795v 9.22726" fill="none" stroke="black"/>
<path d="M232.201,341.409v 4.61363" fill="none" stroke="black"/>
<path d="M248.391,341.409v 4.61363" fill="none" stroke="black"/>
<path d="M264.581,341.409v 4.61363" fill="none" stroke="black"/>
<path d="M280.771,341.409v 4.61363" fill="none" stroke="black"/>
<path d="M296.961,336.795v 9.22726" fill="none" stroke="black"/>
<path d="M313.151,341.409v 4.61363" fill="none" stroke="black"/>
<path d="M329.341,341.409v 4.61363" fill="none" stroke="black"/>
<path d="M345.531,341.409v 4.61363" fill="none" stroke="black"/>
<path d="M361.721,341.409v 4.61363" fill="none" stroke="black"/>
<path d="M377.911,336.795v 9.22726" fill="none" stroke="black"/>
<path d="M394.101,341.409v 4.61363" fill="none" stroke="black"/>
<path d="M410.291,341.409v 4.61363" fill="none" stroke="black"/>
<path d="M426.481,341.409v 4.61363" fill="none" stroke="black"/>
<path d="M442.672,341.409v 4.61363" fill="none" stroke="black"/>
<path d="M458.862,336.795v 9.22726" fill="none" stroke="black"/>
<path d="M135.06,336.795v 9.22726" fill="none" stroke="black"/>
<path d="M118.87,341.409v 4.61363" fill="none" stroke="black"/>
<path d="M102.68,341.409v 4.61363" fill="none" stroke="black"/>
<path d="M86.49,341.409v 4.61363" fill="none" stroke="black"/>
<path d="M70.2999,341.409v 4.61363" fill="none" stroke="black"/>
<path d="M458.862,336.795v 9.22726" fill="none" stroke="black"/>
<path d="M475.052,341.409v 4.61363" fill="none" stroke="black"/>
<path d="M491.242,341.409v 4.61363" fill="none" stroke="black"/>
<path d="M507.432,341.409v 4.61363" fill="none" stroke="black"/>
<text xml:space="preserve" x="124.312" y="358.403" fill="black" font-size="12.8453" font-family="Helvetica">790</text>
<text xml:space="preserve" x="204.953" y="358.403" fill="black" font-size="12.8453" font-family="Helvetica">800</text>
<text xml:space="preserve" x="285.594" y="358.403" fill="black" font-size="12.8453" font-family="Helvetica">810</text>
<text xml:space="preserve" x="367.049" y="358.403" fill="black" font-size="12.8453" font-family="Helvetica">820</text>
<text xml:space="preserve" x="447.69" y="358.403" fill="black" font-size="12.8453" font-family="Helvetica">830</text>
<text xml:space="preserve" x="460.723" y="370.622" fill="black" font-size="12.8453" font-family="Helvetica">Time [ns]</text>
<path d="M57.1929,346.022v -307.575" fill="none" stroke="black"/>
<path d="M70.7992,346.022h -13.6063" fill="none" stroke="black"/>
<path d="M63.9961,333.504h -6.80315" fill="none" stroke="black"/>
<path d="M63.9961,320.986h -6.80315" fill="none" stroke="black"/>
<path d="M63.9961,308.467h -6.80315" fill="none" stroke="black"/>
<path d="M70.7992,295.949h -13.6063" fill="none" stroke="black"/>
<path d="M63.9961,283.431h -6.80315" fill="none" stroke="black"/>
<path d="M63.9961,270.912h -6.80315" fill="none" stroke="black"/>
<path d="M63.9961,258.394h -6.80315" fill="none" stroke="black"/>
<path d="M70.7992,245.876h -13.6063" fill="none" stroke="black"/>
<path d="M63.9961,233.357h -6.80315" fill="none" stroke="black"/>
<path d="M63.9961,220.839h -6.80315" fill="none" stroke="black"/>
<path d="M63.9961,208.321h -6.80315" fill="none" stroke="black"/>
<path d="M70.7992,195.802h -13.6063" fill="none" stroke="black"/>
<path d="M63.9961,183.284h -6.80315" fill="none" stroke="black"/>
<path d="M63.9961,170.766h -6.80315" fill="none" stroke="black"/>
<path d="M63.9961,158.247h -6.80315" fill="none" stroke="black"/>
<path d="M70.7992,145.729h -13.6063" fill="none" stroke="black"/>
<path d="M63.9961,133.211h -6.80315" fill="none" stroke="black"/>
<path d="M63.9961,120.692h -6.80315" fill="none" stroke="black"/>
<path d="M63.9961,108.174h -6.80315" fill="none" stroke="black"/>
<path d="M70.7992,95.6557h -13.6063" fill="none" stroke="black"/>
<path d="M63.9961,83.1374h -6.80315" fill="none" stroke="black"/>
<path d="M63.9961,70.619h -6.80315" fill="none" stroke="black"/>
<path d="M63.9961,58.1007h -6.80315" fill="none" stroke="black"/>
<path d="M70.7992,45.5824h -13.6063" fill="none" stroke="black"/>
<path d="M70.7992,45.5824h -13.6063" fill="none" stroke="black"/>
<text xml:space="preserve" x="47.7441" y="350.258" fill="black" font-size="12.8453" font-family="Helvetica">0</text>
<text xml:space="preserve" x="41.2277" y="300.57" fill="black" font-size="12.8453" font-family="Helvetica">20</text>
<text xml:space="preserve" x="41.2277" y="250.068" fill="black" font-size="12.8453" font-family="Helvetica">40</text>
<text xml:space="preserve" x="41.2277" y="200.38" fill="black" font-size="12.8453" font-family="Helvetica">60</text>
<text xml:space="preserve" x="41.2277" y="149.878" fill="black" font-size="12.8453" font-family="Helvetica">80</text>
<text xml:space="preserve" x="33.8967" y="100.19" fill="black" font-size="12.8453" font-family="Helvetica">100</text>
<text xml:space="preserve" x="33.8967" y="49.6878" fill="black" font-size="12.8453" font-family="Helvetica">120</text>
<g transform="rotate(-90,20.8638,70.0516)">
<text xml:space="preserve" x="20.8638" y="70.0516" fill="black" font-size="12.8453" font-family="Helvetica">Event</text>
</g>
<text xml:space="preserve" x="243.237" y="18.7347" fill="black" font-size="16.9898" font-family="Helvetica">420mm 39</text></svg>
