<?xml version="1.0" standalone="no"?>
<svg width="567.429" height="386.304" viewBox="0 0 567.429 386.304" xmlns="http://www.w3.org/2000/svg" shape-rendering="crispEdges">
<title>
img/week2/Combined560mm_ch_16_17_18_19.svg
</title>
<desc>
Creator: ROOT Version 6.22/08
CreationDate: Mon Jun 21 18:56:38 2021</desc>
<defs>
</defs>
<rect x="0.5" y="0" width="566.929" height="385.804" fill="white"/>
<rect x="57.1929" y="38.5804" width="453.543" height="308.643" fill="white"/>
<rect x="57.1929" y="38.5804" width="453.543" height="308.643" fill="none" stroke="black"/>
<rect x="57.1929" y="38.5804" width="453.543" height="308.643" fill="white"/>
<rect x="57.1929" y="38.5804" width="453.543" height="308.643" fill="none" stroke="black"/>
<path d="M57.1929,346.099h 30.2362v 1.12464h 60.4724v -1.12464h 30.2362v -1.12464h 30.2362v -7.87248h 30.2362v -118.087h 30.2362v -163.073h 30.2362v 204.685h 30.2362v 85.4727h 30.2362v 1.12464h 151.181" fill="none" stroke="#000099"/>
<g fill="#ff0000">
<polygon points=" 279.741, 51.7184 288.188, 51.7184 283.965, 60.1655"/>
</g>
<path d="M59.4606,347.224h 131.528l 4.53543, -0.0714963l 4.53543, -0.0988528l 4.53543, -0.216614l 4.53543, -0.451091l 4.53543, -0.892351l 4.53543, -1.676l 4.53543, -2.98679l 4.53543, -5.04646l 4.53543, -8.07591l 4.53543, -12.2256l 4.53543, -17.4783l
 4.53543, -23.5458l 4.53543, -29.7963l 4.53543, -35.2603l 4.53543, -38.7513l 4.53543, -39.1041l 4.53543, -35.4866l 4.53543, -27.6941l 4.53543, -16.3187l 4.53543, -2.71209" fill="none" stroke="#ff0000" stroke-width="2"/>
<path d="M281.697,49.335l 4.53543, 11.2735l 4.53543, 23.6989l 4.53543, 32.9793l 4.53543, 38.2144l 4.53543, 39.3135l 4.53543, 36.8986l 4.53543, 32.0454l 4.53543, 25.9659l 4.53543, 19.734l 4.53543, 14.1172l 4.53543, 9.5301l 4.53543, 6.0823l 4.53543,
 3.67508l 4.53543, 2.10457l 4.53543, 1.14322l 4.53543, 0.589477l 4.53543, 0.288678l 4.53543, 0.134331l 4.53543, 0.0594178l 4.53543, 0.0408707h 131.528" fill="none" stroke="#ff0000" stroke-width="2"/>
<path d="M503.933,347.224h 4.53543" fill="none" stroke="#ff0000" stroke-width="2"/>
<rect x="351.996" y="25.0773" width="204.094" height="108.025" fill="white"/>
<path d="M351.996,133.102h 204.094" fill="none" stroke="black"/>
<path d="M556.091,133.102v -108.025" fill="none" stroke="black"/>
<path d="M556.091,25.0773h -204.094" fill="none" stroke="black"/>
<path d="M351.996,25.0773v 108.025" fill="none" stroke="black"/>
<text xml:space="preserve" x="361.938" y="38.9865" fill="black" font-size="15.6962" font-family="Helvetica">Entries </text>
<text xml:space="preserve" x="515.447" y="38.9865" fill="black" font-size="15.6962" font-family="Helvetica"> 466</text>
<text xml:space="preserve" x="375.745" y="57.6676" fill="black" font-size="15.6962" font-family="Helvetica"> / ndf </text>
<text xml:space="preserve" x="370.06" y="52.7943" fill="black" font-size="10.6308" font-family="Helvetica">2</text>
<text xml:space="preserve" x="361.938" y="57.6676" fill="black" font-size="15.6962" font-family="Times">&#0967;</text>
<text xml:space="preserve" x="481.334" y="57.6676" fill="black" font-size="15.6962" font-family="Helvetica"> 8.036 / 6</text>
<text xml:space="preserve" x="361.938" y="75.5364" fill="black" font-size="15.6962" font-family="Helvetica">Prob  </text>
<text xml:space="preserve" x="494.329" y="75.5364" fill="black" font-size="15.6962" font-family="Helvetica"> 0.2355</text>
<text xml:space="preserve" x="361.938" y="94.2175" fill="black" font-size="15.6962" font-family="Helvetica">Const    </text>
<text xml:space="preserve" x="511.386" y="93.4052" fill="black" font-size="15.6962" font-family="Helvetica"> 14.8</text>
<text xml:space="preserve" x="502.452" y="93.4052" fill="black" font-size="15.6962" font-family="Times">&#0177;</text>
<text xml:space="preserve" x="454.531" y="93.4052" fill="black" font-size="15.6962" font-family="Helvetica"> 265.5 </text>
<text xml:space="preserve" x="361.938" y="111.274" fill="black" font-size="15.6962" font-family="Helvetica">Mean     </text>
<text xml:space="preserve" x="522.757" y="111.274" fill="black" font-size="15.6962" font-family="Helvetica"> 0.1</text>
<text xml:space="preserve" x="513.823" y="111.274" fill="black" font-size="15.6962" font-family="Times">&#0177;</text>
<text xml:space="preserve" x="465.902" y="111.274" fill="black" font-size="15.6962" font-family="Helvetica"> 809.9 </text>
<text xml:space="preserve" x="361.938" y="128.331" fill="black" font-size="15.6962" font-family="Helvetica">Sigma    </text>
<text xml:space="preserve" x="502.452" y="129.143" fill="black" font-size="15.6962" font-family="Helvetica"> 0.084</text>
<text xml:space="preserve" x="493.517" y="129.143" fill="black" font-size="15.6962" font-family="Times">&#0177;</text>
<text xml:space="preserve" x="445.596" y="129.143" fill="black" font-size="15.6962" font-family="Helvetica"> 2.748 </text>
<path d="M57.1929,347.224h 453.543" fill="none" stroke="black"/>
<path d="M129.869,337.964v 9.2593" fill="none" stroke="black"/>
<path d="M144.98,342.594v 4.62965" fill="none" stroke="black"/>
<path d="M160.09,342.594v 4.62965" fill="none" stroke="black"/>
<path d="M175.201,342.594v 4.62965" fill="none" stroke="black"/>
<path d="M190.312,342.594v 4.62965" fill="none" stroke="black"/>
<path d="M205.423,337.964v 9.2593" fill="none" stroke="black"/>
<path d="M220.533,342.594v 4.62965" fill="none" stroke="black"/>
<path d="M235.644,342.594v 4.62965" fill="none" stroke="black"/>
<path d="M250.755,342.594v 4.62965" fill="none" stroke="black"/>
<path d="M265.866,342.594v 4.62965" fill="none" stroke="black"/>
<path d="M280.976,337.964v 9.2593" fill="none" stroke="black"/>
<path d="M296.087,342.594v 4.62965" fill="none" stroke="black"/>
<path d="M311.198,342.594v 4.62965" fill="none" stroke="black"/>
<path d="M326.309,342.594v 4.62965" fill="none" stroke="black"/>
<path d="M341.419,342.594v 4.62965" fill="none" stroke="black"/>
<path d="M356.53,337.964v 9.2593" fill="none" stroke="black"/>
<path d="M371.641,342.594v 4.62965" fill="none" stroke="black"/>
<path d="M386.751,342.594v 4.62965" fill="none" stroke="black"/>
<path d="M401.862,342.594v 4.62965" fill="none" stroke="black"/>
<path d="M416.973,342.594v 4.62965" fill="none" stroke="black"/>
<path d="M432.084,337.964v 9.2593" fill="none" stroke="black"/>
<path d="M447.194,342.594v 4.62965" fill="none" stroke="black"/>
<path d="M462.305,342.594v 4.62965" fill="none" stroke="black"/>
<path d="M477.416,342.594v 4.62965" fill="none" stroke="black"/>
<path d="M492.527,342.594v 4.62965" fill="none" stroke="black"/>
<path d="M507.637,337.964v 9.2593" fill="none" stroke="black"/>
<path d="M129.869,337.964v 9.2593" fill="none" stroke="black"/>
<path d="M114.758,342.594v 4.62965" fill="none" stroke="black"/>
<path d="M99.6476,342.594v 4.62965" fill="none" stroke="black"/>
<path d="M84.5368,342.594v 4.62965" fill="none" stroke="black"/>
<path d="M69.4261,342.594v 4.62965" fill="none" stroke="black"/>
<path d="M507.637,337.964v 9.2593" fill="none" stroke="black"/>
<text xml:space="preserve" x="118.272" y="359.813" fill="black" font-size="12.8882" font-family="Helvetica">790</text>
<text xml:space="preserve" x="193.808" y="359.813" fill="black" font-size="12.8882" font-family="Helvetica">800</text>
<text xml:space="preserve" x="269.345" y="359.813" fill="black" font-size="12.8882" font-family="Helvetica">810</text>
<text xml:space="preserve" x="344.881" y="359.813" fill="black" font-size="12.8882" font-family="Helvetica">820</text>
<text xml:space="preserve" x="420.417" y="359.813" fill="black" font-size="12.8882" font-family="Helvetica">830</text>
<text xml:space="preserve" x="495.954" y="359.813" fill="black" font-size="12.8882" font-family="Helvetica">840</text>
<text xml:space="preserve" x="481.334" y="373.621" fill="black" font-size="12.8882" font-family="Helvetica">Time</text>
<path d="M57.1929,347.224v -308.643" fill="none" stroke="black"/>
<path d="M70.7992,347.224h -13.6063" fill="none" stroke="black"/>
<path d="M63.9961,335.977h -6.80315" fill="none" stroke="black"/>
<path d="M63.9961,324.731h -6.80315" fill="none" stroke="black"/>
<path d="M63.9961,313.485h -6.80315" fill="none" stroke="black"/>
<path d="M63.9961,302.238h -6.80315" fill="none" stroke="black"/>
<path d="M70.7992,290.992h -13.6063" fill="none" stroke="black"/>
<path d="M63.9961,279.745h -6.80315" fill="none" stroke="black"/>
<path d="M63.9961,268.499h -6.80315" fill="none" stroke="black"/>
<path d="M63.9961,257.253h -6.80315" fill="none" stroke="black"/>
<path d="M63.9961,246.006h -6.80315" fill="none" stroke="black"/>
<path d="M70.7992,234.76h -13.6063" fill="none" stroke="black"/>
<path d="M63.9961,223.513h -6.80315" fill="none" stroke="black"/>
<path d="M63.9961,212.267h -6.80315" fill="none" stroke="black"/>
<path d="M63.9961,201.021h -6.80315" fill="none" stroke="black"/>
<path d="M63.9961,189.774h -6.80315" fill="none" stroke="black"/>
<path d="M70.7992,178.528h -13.6063" fill="none" stroke="black"/>
<path d="M63.9961,167.281h -6.80315" fill="none" stroke="black"/>
<path d="M63.9961,156.035h -6.80315" fill="none" stroke="black"/>
<path d="M63.9961,144.789h -6.80315" fill="none" stroke="black"/>
<path d="M63.9961,133.542h -6.80315" fill="none" stroke="black"/>
<path d="M70.7992,122.296h -13.6063" fill="none" stroke="black"/>
<path d="M63.9961,111.049h -6.80315" fill="none" stroke="black"/>
<path d="M63.9961,99.8029h -6.80315" fill="none" stroke="black"/>
<path d="M63.9961,88.5565h -6.80315" fill="none" stroke="black"/>
<path d="M63.9961,77.3101h -6.80315" fill="none" stroke="black"/>
<path d="M70.7992,66.0637h -13.6063" fill="none" stroke="black"/>
<path d="M70.7992,66.0637h -13.6063" fill="none" stroke="black"/>
<path d="M63.9961,54.8173h -6.80315" fill="none" stroke="black"/>
<path d="M63.9961,43.5709h -6.80315" fill="none" stroke="black"/>
<text xml:space="preserve" x="46.7965" y="351.691" fill="black" font-size="12.8882" font-family="Helvetica">0</text>
<text xml:space="preserve" x="39.4865" y="295.648" fill="black" font-size="12.8882" font-family="Helvetica">50</text>
<text xml:space="preserve" x="32.1766" y="239.605" fill="black" font-size="12.8882" font-family="Helvetica">100</text>
<text xml:space="preserve" x="32.1766" y="182.749" fill="black" font-size="12.8882" font-family="Helvetica">150</text>
<text xml:space="preserve" x="32.1766" y="126.706" fill="black" font-size="12.8882" font-family="Helvetica">200</text>
<text xml:space="preserve" x="32.1766" y="70.6631" fill="black" font-size="12.8882" font-family="Helvetica">250</text>
<g transform="rotate(-90,21.6177,71.4753)">
<text xml:space="preserve" x="21.6177" y="71.4753" fill="black" font-size="12.8882" font-family="Helvetica">Event</text>
</g>
<rect x="351.996" y="25.0773" width="204.094" height="108.025" fill="white"/>
<path d="M351.996,133.102h 204.094" fill="none" stroke="black"/>
<path d="M556.091,133.102v -108.025" fill="none" stroke="black"/>
<path d="M556.091,25.0773h -204.094" fill="none" stroke="black"/>
<path d="M351.996,25.0773v 108.025" fill="none" stroke="black"/>
<text xml:space="preserve" x="361.938" y="38.9865" fill="black" font-size="15.6962" font-family="Helvetica">Entries </text>
<text xml:space="preserve" x="515.447" y="38.9865" fill="black" font-size="15.6962" font-family="Helvetica"> 466</text>
<text xml:space="preserve" x="375.745" y="57.6676" fill="black" font-size="15.6962" font-family="Helvetica"> / ndf </text>
<text xml:space="preserve" x="370.06" y="52.7943" fill="black" font-size="10.6308" font-family="Helvetica">2</text>
<text xml:space="preserve" x="361.938" y="57.6676" fill="black" font-size="15.6962" font-family="Times">&#0967;</text>
<text xml:space="preserve" x="481.334" y="57.6676" fill="black" font-size="15.6962" font-family="Helvetica"> 8.036 / 6</text>
<text xml:space="preserve" x="361.938" y="75.5364" fill="black" font-size="15.6962" font-family="Helvetica">Prob  </text>
<text xml:space="preserve" x="494.329" y="75.5364" fill="black" font-size="15.6962" font-family="Helvetica"> 0.2355</text>
<text xml:space="preserve" x="361.938" y="94.2175" fill="black" font-size="15.6962" font-family="Helvetica">Const    </text>
<text xml:space="preserve" x="511.386" y="93.4052" fill="black" font-size="15.6962" font-family="Helvetica"> 14.8</text>
<text xml:space="preserve" x="502.452" y="93.4052" fill="black" font-size="15.6962" font-family="Times">&#0177;</text>
<text xml:space="preserve" x="454.531" y="93.4052" fill="black" font-size="15.6962" font-family="Helvetica"> 265.5 </text>
<text xml:space="preserve" x="361.938" y="111.274" fill="black" font-size="15.6962" font-family="Helvetica">Mean     </text>
<text xml:space="preserve" x="522.757" y="111.274" fill="black" font-size="15.6962" font-family="Helvetica"> 0.1</text>
<text xml:space="preserve" x="513.823" y="111.274" fill="black" font-size="15.6962" font-family="Times">&#0177;</text>
<text xml:space="preserve" x="465.902" y="111.274" fill="black" font-size="15.6962" font-family="Helvetica"> 809.9 </text>
<text xml:space="preserve" x="361.938" y="128.331" fill="black" font-size="15.6962" font-family="Helvetica">Sigma    </text>
<text xml:space="preserve" x="502.452" y="129.143" fill="black" font-size="15.6962" font-family="Helvetica"> 0.084</text>
<text xml:space="preserve" x="493.517" y="129.143" fill="black" font-size="15.6962" font-family="Times">&#0177;</text>
<text xml:space="preserve" x="445.596" y="129.143" fill="black" font-size="15.6962" font-family="Helvetica"> 2.748 </text>
<text xml:space="preserve" x="208.428" y="18.681" fill="black" font-size="17.0471" font-family="Helvetica">560mm 16 17 18 19</text></svg>
