<?xml version="1.0" standalone="no"?>
<svg width="567.429" height="384.969" viewBox="0 0 567.429 384.969" xmlns="http://www.w3.org/2000/svg" shape-rendering="crispEdges">
<title>
img/week2/Combined670mm_ch_13.svg
</title>
<desc>
Creator: ROOT Version 6.22/09
CreationDate: Thu Jun 24 12:33:05 2021</desc>
<defs>
</defs>
<rect x="0.5" y="0" width="566.929" height="384.469" fill="white"/>
<rect x="57.1929" y="38.4469" width="453.543" height="307.575" fill="white"/>
<rect x="57.1929" y="38.4469" width="453.543" height="307.575" fill="none" stroke="black"/>
<rect x="57.1929" y="38.4469" width="453.543" height="307.575" fill="white"/>
<rect x="57.1929" y="38.4469" width="453.543" height="307.575" fill="none" stroke="black"/>
<path d="M57.1929,346.022h 178.178v -46.5619h 16.198v -104.764h 16.198v -128.045h 16.198v 279.371h 226.772" fill="none" stroke="#000099"/>
<g fill="#ff0000">
<polygon points=" 271.63, 62.4151 280.101, 62.4151 275.866, 70.8864"/>
</g>
<path d="M73.9126,346.022h 117.378l 4.04752, -0.0498482l 4.04752, -0.0575412l 4.04752, -0.115935l 4.04752, -0.224981l 4.04752, -0.420403l 4.04752, -0.756231l 4.04752, -1.30908l 4.04752, -2.17987l 4.04752, -3.49016l 4.04752, -5.36984l 4.04752,
 -7.93369l 4.04752, -11.2463l 4.04752, -15.2786l 4.04752, -19.8646l 4.04752, -24.6702l 4.04752, -29.1904l 4.04752, -32.7862l 4.04752, -34.7664l 4.04752, -34.5075l 4.04752, -31.5889" fill="none" stroke="#ff0000" stroke-width="2"/>
<path d="M272.241,90.2156l 4.04752, -25.9126l 4.04752, -17.7719l 4.04752, -7.84537l 4.04752, 2.89273l 4.04752, 13.33l 4.04752, 22.4054l 4.04752, 29.2873l 4.04752, 33.4973l 4.04752, 34.9564l 4.04752, 33.9477l 4.04752, 31.0174l 4.04752, 26.8415l
 4.04752, 22.096l 4.04752, 17.3558l 4.04752, 13.036l 4.04752, 9.37811l 4.04752, 6.46993l 4.04752, 4.28466l 4.04752, 2.72586l 4.04752, 1.66698l 4.04752, 0.980434l 4.04752, 0.554825l 4.04752, 0.302202l 4.04752, 0.15848l 4.04752, 0.0800383l 4.04752,
 0.0389375l 4.04752, 0.0325711h 89.0454" fill="none" stroke="#ff0000" stroke-width="2"/>
<path d="M470.569,346.022h 4.04752" fill="none" stroke="#ff0000" stroke-width="2"/>
<path d="M57.1929,346.022h 453.543" fill="none" stroke="black"/>
<path d="M71.8889,336.795v 9.22726" fill="none" stroke="black"/>
<path d="M92.1265,341.409v 4.61363" fill="none" stroke="black"/>
<path d="M112.364,341.409v 4.61363" fill="none" stroke="black"/>
<path d="M132.602,341.409v 4.61363" fill="none" stroke="black"/>
<path d="M152.839,336.795v 9.22726" fill="none" stroke="black"/>
<path d="M173.077,341.409v 4.61363" fill="none" stroke="black"/>
<path d="M193.314,341.409v 4.61363" fill="none" stroke="black"/>
<path d="M213.552,341.409v 4.61363" fill="none" stroke="black"/>
<path d="M233.79,336.795v 9.22726" fill="none" stroke="black"/>
<path d="M254.027,341.409v 4.61363" fill="none" stroke="black"/>
<path d="M274.265,341.409v 4.61363" fill="none" stroke="black"/>
<path d="M294.502,341.409v 4.61363" fill="none" stroke="black"/>
<path d="M314.74,336.795v 9.22726" fill="none" stroke="black"/>
<path d="M334.978,341.409v 4.61363" fill="none" stroke="black"/>
<path d="M355.215,341.409v 4.61363" fill="none" stroke="black"/>
<path d="M375.453,341.409v 4.61363" fill="none" stroke="black"/>
<path d="M395.69,336.795v 9.22726" fill="none" stroke="black"/>
<path d="M415.928,341.409v 4.61363" fill="none" stroke="black"/>
<path d="M436.165,341.409v 4.61363" fill="none" stroke="black"/>
<path d="M456.403,341.409v 4.61363" fill="none" stroke="black"/>
<path d="M476.641,336.795v 9.22726" fill="none" stroke="black"/>
<path d="M71.8889,336.795v 9.22726" fill="none" stroke="black"/>
<path d="M476.641,336.795v 9.22726" fill="none" stroke="black"/>
<path d="M496.878,341.409v 4.61363" fill="none" stroke="black"/>
<text xml:space="preserve" x="60.7769" y="358.403" fill="black" font-size="12.8453" font-family="Helvetica">760</text>
<text xml:space="preserve" x="142.232" y="358.403" fill="black" font-size="12.8453" font-family="Helvetica">780</text>
<text xml:space="preserve" x="222.873" y="358.403" fill="black" font-size="12.8453" font-family="Helvetica">800</text>
<text xml:space="preserve" x="303.514" y="358.403" fill="black" font-size="12.8453" font-family="Helvetica">820</text>
<text xml:space="preserve" x="384.969" y="358.403" fill="black" font-size="12.8453" font-family="Helvetica">840</text>
<text xml:space="preserve" x="465.61" y="358.403" fill="black" font-size="12.8453" font-family="Helvetica">860</text>
<text xml:space="preserve" x="460.723" y="370.622" fill="black" font-size="12.8453" font-family="Helvetica">Time [ns]</text>
<path d="M57.1929,346.022v -307.575" fill="none" stroke="black"/>
<path d="M70.7992,346.022h -13.6063" fill="none" stroke="black"/>
<path d="M63.9961,334.382h -6.80315" fill="none" stroke="black"/>
<path d="M63.9961,322.741h -6.80315" fill="none" stroke="black"/>
<path d="M63.9961,311.101h -6.80315" fill="none" stroke="black"/>
<path d="M63.9961,299.46h -6.80315" fill="none" stroke="black"/>
<path d="M70.7992,287.82h -13.6063" fill="none" stroke="black"/>
<path d="M63.9961,276.179h -6.80315" fill="none" stroke="black"/>
<path d="M63.9961,264.539h -6.80315" fill="none" stroke="black"/>
<path d="M63.9961,252.898h -6.80315" fill="none" stroke="black"/>
<path d="M63.9961,241.258h -6.80315" fill="none" stroke="black"/>
<path d="M70.7992,229.617h -13.6063" fill="none" stroke="black"/>
<path d="M63.9961,217.977h -6.80315" fill="none" stroke="black"/>
<path d="M63.9961,206.337h -6.80315" fill="none" stroke="black"/>
<path d="M63.9961,194.696h -6.80315" fill="none" stroke="black"/>
<path d="M63.9961,183.056h -6.80315" fill="none" stroke="black"/>
<path d="M70.7992,171.415h -13.6063" fill="none" stroke="black"/>
<path d="M63.9961,159.775h -6.80315" fill="none" stroke="black"/>
<path d="M63.9961,148.134h -6.80315" fill="none" stroke="black"/>
<path d="M63.9961,136.494h -6.80315" fill="none" stroke="black"/>
<path d="M63.9961,124.853h -6.80315" fill="none" stroke="black"/>
<path d="M70.7992,113.213h -13.6063" fill="none" stroke="black"/>
<path d="M63.9961,101.572h -6.80315" fill="none" stroke="black"/>
<path d="M63.9961,89.9317h -6.80315" fill="none" stroke="black"/>
<path d="M63.9961,78.2912h -6.80315" fill="none" stroke="black"/>
<path d="M63.9961,66.6508h -6.80315" fill="none" stroke="black"/>
<path d="M70.7992,55.0103h -13.6063" fill="none" stroke="black"/>
<path d="M70.7992,55.0103h -13.6063" fill="none" stroke="black"/>
<path d="M63.9961,43.3698h -6.80315" fill="none" stroke="black"/>
<text xml:space="preserve" x="47.7441" y="350.258" fill="black" font-size="12.8453" font-family="Helvetica">0</text>
<text xml:space="preserve" x="41.2277" y="292.425" fill="black" font-size="12.8453" font-family="Helvetica">10</text>
<text xml:space="preserve" x="41.2277" y="233.777" fill="black" font-size="12.8453" font-family="Helvetica">20</text>
<text xml:space="preserve" x="41.2277" y="175.944" fill="black" font-size="12.8453" font-family="Helvetica">30</text>
<text xml:space="preserve" x="41.2277" y="117.296" fill="black" font-size="12.8453" font-family="Helvetica">40</text>
<text xml:space="preserve" x="41.2277" y="59.4624" fill="black" font-size="12.8453" font-family="Helvetica">50</text>
<g transform="rotate(-90,29.0094,70.0516)">
<text xml:space="preserve" x="29.0094" y="70.0516" fill="black" font-size="12.8453" font-family="Helvetica">Event</text>
</g>
<text xml:space="preserve" x="243.237" y="18.7347" fill="black" font-size="16.9898" font-family="Helvetica">670mm 13</text></svg>
