<?xml version="1.0" standalone="no"?>
<svg width="567.429" height="386.304" viewBox="0 0 567.429 386.304" xmlns="http://www.w3.org/2000/svg" shape-rendering="crispEdges">
<title>
img/week2/Combined670mm_ch_46.svg
</title>
<desc>
Creator: ROOT Version 6.22/08
CreationDate: Mon Jun 21 21:33:20 2021</desc>
<defs>
</defs>
<rect x="0.5" y="0" width="566.929" height="385.804" fill="white"/>
<rect x="57.1929" y="38.5804" width="453.543" height="308.643" fill="white"/>
<rect x="57.1929" y="38.5804" width="453.543" height="308.643" fill="none" stroke="black"/>
<rect x="57.1929" y="38.5804" width="453.543" height="308.643" fill="white"/>
<rect x="57.1929" y="38.5804" width="453.543" height="308.643" fill="none" stroke="black"/>
<path d="M57.1929,347.224h 90.7087v -5.28853h 30.2362v -10.5771h 30.2362v 5.28853h 30.2362v -179.81h 30.2362v -89.9049h 30.2362v 206.253h 30.2362v 74.0394h 181.417" fill="none" stroke="#000099"/>
<g fill="#ff0000">
<polygon points=" 279.741, 62.7084 288.188, 62.7084 283.965, 71.1555"/>
</g>
<path d="M59.4606,347.224h 122.457l 4.53543, -0.0462116l 4.53543, -0.0632208l 4.53543, -0.138466l 4.53543, -0.2893l 4.53543, -0.576401l 4.53543, -1.09469l 4.53543, -1.98076l 4.53543, -3.41261l 4.53543, -5.5941l 4.53543, -8.7168l 4.53543, -12.8959l
 4.53543, -18.0859l 4.53543, -23.9951l 4.53543, -30.0301l 4.53543, -35.3069l 4.53543, -38.7561l 4.53543, -39.3232l 4.53543, -36.23l 4.53543, -29.2253l 4.53543, -18.7416l 3.18822, -4.14071" fill="none" stroke="#ff0000" stroke-width="2"/>
<path d="M278.189,38.5804l 3.50823, 5.97581" fill="none" stroke="#ff0000" stroke-width="2"/>
<path d="M281.697,44.5562l 4.53543, 20.3404l 4.53543, 30.4015l 4.53543, 36.8828l 4.53543, 39.4485l 4.53543, 38.4339l 4.53543, 34.6707l 4.53543, 29.2301l 4.53543, 23.1661l 4.53543, 17.3269l 4.53543, 12.2638l 4.53543, 8.23045l 4.53543, 5.24529l
 4.53543, 3.17804l 4.53543, 1.83226l 4.53543, 1.00593l 4.53543, 0.526203l 4.53543, 0.262396l 4.53543, 0.124782l 4.53543, 0.0566096l 4.53543, 0.0409493h 126.992" fill="none" stroke="#ff0000" stroke-width="2"/>
<path d="M499.398,347.224h 9.07087" fill="none" stroke="#ff0000" stroke-width="2"/>
<path d="M57.1929,347.224h 453.543" fill="none" stroke="black"/>
<path d="M84.5516,337.964v 9.2593" fill="none" stroke="black"/>
<path d="M99.6623,342.594v 4.62965" fill="none" stroke="black"/>
<path d="M114.773,342.594v 4.62965" fill="none" stroke="black"/>
<path d="M129.884,342.594v 4.62965" fill="none" stroke="black"/>
<path d="M144.995,342.594v 4.62965" fill="none" stroke="black"/>
<path d="M160.105,337.964v 9.2593" fill="none" stroke="black"/>
<path d="M175.216,342.594v 4.62965" fill="none" stroke="black"/>
<path d="M190.327,342.594v 4.62965" fill="none" stroke="black"/>
<path d="M205.437,342.594v 4.62965" fill="none" stroke="black"/>
<path d="M220.548,342.594v 4.62965" fill="none" stroke="black"/>
<path d="M235.659,337.964v 9.2593" fill="none" stroke="black"/>
<path d="M250.77,342.594v 4.62965" fill="none" stroke="black"/>
<path d="M265.88,342.594v 4.62965" fill="none" stroke="black"/>
<path d="M280.991,342.594v 4.62965" fill="none" stroke="black"/>
<path d="M296.102,342.594v 4.62965" fill="none" stroke="black"/>
<path d="M311.213,337.964v 9.2593" fill="none" stroke="black"/>
<path d="M326.323,342.594v 4.62965" fill="none" stroke="black"/>
<path d="M341.434,342.594v 4.62965" fill="none" stroke="black"/>
<path d="M356.545,342.594v 4.62965" fill="none" stroke="black"/>
<path d="M371.656,342.594v 4.62965" fill="none" stroke="black"/>
<path d="M386.766,337.964v 9.2593" fill="none" stroke="black"/>
<path d="M401.877,342.594v 4.62965" fill="none" stroke="black"/>
<path d="M416.988,342.594v 4.62965" fill="none" stroke="black"/>
<path d="M432.098,342.594v 4.62965" fill="none" stroke="black"/>
<path d="M447.209,342.594v 4.62965" fill="none" stroke="black"/>
<path d="M462.32,337.964v 9.2593" fill="none" stroke="black"/>
<path d="M84.5516,337.964v 9.2593" fill="none" stroke="black"/>
<path d="M69.4409,342.594v 4.62965" fill="none" stroke="black"/>
<path d="M462.32,337.964v 9.2593" fill="none" stroke="black"/>
<path d="M477.431,342.594v 4.62965" fill="none" stroke="black"/>
<path d="M492.541,342.594v 4.62965" fill="none" stroke="black"/>
<path d="M507.652,342.594v 4.62965" fill="none" stroke="black"/>
<text xml:space="preserve" x="72.7875" y="359.813" fill="black" font-size="12.8882" font-family="Helvetica">780</text>
<text xml:space="preserve" x="148.324" y="359.813" fill="black" font-size="12.8882" font-family="Helvetica">790</text>
<text xml:space="preserve" x="223.86" y="359.813" fill="black" font-size="12.8882" font-family="Helvetica">800</text>
<text xml:space="preserve" x="299.397" y="359.813" fill="black" font-size="12.8882" font-family="Helvetica">810</text>
<text xml:space="preserve" x="374.933" y="359.813" fill="black" font-size="12.8882" font-family="Helvetica">820</text>
<text xml:space="preserve" x="450.47" y="359.813" fill="black" font-size="12.8882" font-family="Helvetica">830</text>
<text xml:space="preserve" x="481.334" y="373.621" fill="black" font-size="12.8882" font-family="Helvetica">Time</text>
<path d="M57.1929,347.224v -308.643" fill="none" stroke="black"/>
<path d="M70.7992,347.224h -13.6063" fill="none" stroke="black"/>
<path d="M63.9961,336.647h -6.80315" fill="none" stroke="black"/>
<path d="M63.9961,326.07h -6.80315" fill="none" stroke="black"/>
<path d="M63.9961,315.493h -6.80315" fill="none" stroke="black"/>
<path d="M63.9961,304.916h -6.80315" fill="none" stroke="black"/>
<path d="M70.7992,294.339h -13.6063" fill="none" stroke="black"/>
<path d="M63.9961,283.761h -6.80315" fill="none" stroke="black"/>
<path d="M63.9961,273.184h -6.80315" fill="none" stroke="black"/>
<path d="M63.9961,262.607h -6.80315" fill="none" stroke="black"/>
<path d="M63.9961,252.03h -6.80315" fill="none" stroke="black"/>
<path d="M70.7992,241.453h -13.6063" fill="none" stroke="black"/>
<path d="M63.9961,230.876h -6.80315" fill="none" stroke="black"/>
<path d="M63.9961,220.299h -6.80315" fill="none" stroke="black"/>
<path d="M63.9961,209.722h -6.80315" fill="none" stroke="black"/>
<path d="M63.9961,199.145h -6.80315" fill="none" stroke="black"/>
<path d="M70.7992,188.568h -13.6063" fill="none" stroke="black"/>
<path d="M63.9961,177.991h -6.80315" fill="none" stroke="black"/>
<path d="M63.9961,167.414h -6.80315" fill="none" stroke="black"/>
<path d="M63.9961,156.837h -6.80315" fill="none" stroke="black"/>
<path d="M63.9961,146.26h -6.80315" fill="none" stroke="black"/>
<path d="M70.7992,135.683h -13.6063" fill="none" stroke="black"/>
<path d="M63.9961,125.106h -6.80315" fill="none" stroke="black"/>
<path d="M63.9961,114.529h -6.80315" fill="none" stroke="black"/>
<path d="M63.9961,103.952h -6.80315" fill="none" stroke="black"/>
<path d="M63.9961,93.3746h -6.80315" fill="none" stroke="black"/>
<path d="M70.7992,82.7975h -13.6063" fill="none" stroke="black"/>
<path d="M70.7992,82.7975h -13.6063" fill="none" stroke="black"/>
<path d="M63.9961,72.2205h -6.80315" fill="none" stroke="black"/>
<path d="M63.9961,61.6434h -6.80315" fill="none" stroke="black"/>
<path d="M63.9961,51.0664h -6.80315" fill="none" stroke="black"/>
<path d="M63.9961,40.4893h -6.80315" fill="none" stroke="black"/>
<text xml:space="preserve" x="46.7965" y="351.691" fill="black" font-size="12.8882" font-family="Helvetica">0</text>
<text xml:space="preserve" x="39.4865" y="298.897" fill="black" font-size="12.8882" font-family="Helvetica">10</text>
<text xml:space="preserve" x="39.4865" y="246.102" fill="black" font-size="12.8882" font-family="Helvetica">20</text>
<text xml:space="preserve" x="39.4865" y="193.308" fill="black" font-size="12.8882" font-family="Helvetica">30</text>
<text xml:space="preserve" x="39.4865" y="140.514" fill="black" font-size="12.8882" font-family="Helvetica">40</text>
<text xml:space="preserve" x="39.4865" y="86.9075" fill="black" font-size="12.8882" font-family="Helvetica">50</text>
<g transform="rotate(-90,28.9277,71.4753)">
<text xml:space="preserve" x="28.9277" y="71.4753" fill="black" font-size="12.8882" font-family="Helvetica">Event</text>
</g>
<text xml:space="preserve" x="243.354" y="18.681" fill="black" font-size="17.0471" font-family="Helvetica">670mm 46</text></svg>
