<?xml version="1.0" standalone="no"?>
<svg width="567.429" height="384.969" viewBox="0 0 567.429 384.969" xmlns="http://www.w3.org/2000/svg" shape-rendering="crispEdges">
<title>
img/week2/Combined280mm_ch_22.svg
</title>
<desc>
Creator: ROOT Version 6.22/09
CreationDate: Thu Jun 24 12:33:05 2021</desc>
<defs>
</defs>
<rect x="0.5" y="0" width="566.929" height="384.469" fill="white"/>
<rect x="57.1929" y="38.4469" width="453.543" height="307.575" fill="white"/>
<rect x="57.1929" y="38.4469" width="453.543" height="307.575" fill="none" stroke="black"/>
<rect x="57.1929" y="38.4469" width="453.543" height="307.575" fill="white"/>
<rect x="57.1929" y="38.4469" width="453.543" height="307.575" fill="none" stroke="black"/>
<path d="M57.1929,343.43h 30.2362v 2.59229h 90.7087v -5.18458h 30.2362v -31.1075h 30.2362v -33.6998h 30.2362v -222.937h 30.2362v 150.353h 30.2362v 132.207h 30.2362v 10.3692h 151.181" fill="none" stroke="#000099"/>
<g fill="#ff0000">
<polygon points=" 279.729, 48.8577 288.2, 48.8577 283.965, 57.329"/>
</g>
<path d="M59.4606,346.022h 136.063l 4.53543, -0.0597557l 4.53543, -0.0794931l 4.53543, -0.171159l 4.53543, -0.351506l 4.53543, -0.688287l 4.53543, -1.28445l 4.53543, -2.28322l 4.53543, -3.86343l 4.53543, -6.21792l 4.53543, -9.50873l 4.53543,
 -13.7986l 4.53543, -18.9688l 4.53543, -24.6448l 4.53543, -30.1635l 4.53543, -34.6135l 4.53543, -36.9691l 4.53543, -36.3047l 4.53543, -32.0459l 4.53543, -24.1821" fill="none" stroke="#ff0000" stroke-width="2"/>
<path d="M281.697,69.8233l 4.53543, -13.3638l 4.53543, -0.833871l 4.53543, 11.8046l 4.53543, 22.9254l 4.53543, 31.2228l 4.53543, 35.962l 4.53543, 37.0701l 4.53543, 35.0587l 4.53543, 30.8219l 4.53543, 25.3862l 4.53543, 19.6872l 4.53543, 14.4242l
 4.53543, 10.0087l 4.53543, 6.58897l 4.53543, 4.12092l 4.53543, 2.45113l 4.53543, 1.3877l 4.53543, 0.748288l 4.53543, 0.384527l 4.53543, 0.188394l 4.53543, 0.088034l 4.53543, 0.0668475h 122.457" fill="none" stroke="#ff0000" stroke-width="2"/>
<path d="M503.933,346.022h 4.53543" fill="none" stroke="#ff0000" stroke-width="2"/>
<path d="M57.1929,346.022h 453.543" fill="none" stroke="black"/>
<path d="M84.5516,336.795v 9.22726" fill="none" stroke="black"/>
<path d="M99.6623,341.409v 4.61363" fill="none" stroke="black"/>
<path d="M114.773,341.409v 4.61363" fill="none" stroke="black"/>
<path d="M129.884,341.409v 4.61363" fill="none" stroke="black"/>
<path d="M144.995,341.409v 4.61363" fill="none" stroke="black"/>
<path d="M160.105,336.795v 9.22726" fill="none" stroke="black"/>
<path d="M175.216,341.409v 4.61363" fill="none" stroke="black"/>
<path d="M190.327,341.409v 4.61363" fill="none" stroke="black"/>
<path d="M205.437,341.409v 4.61363" fill="none" stroke="black"/>
<path d="M220.548,341.409v 4.61363" fill="none" stroke="black"/>
<path d="M235.659,336.795v 9.22726" fill="none" stroke="black"/>
<path d="M250.77,341.409v 4.61363" fill="none" stroke="black"/>
<path d="M265.88,341.409v 4.61363" fill="none" stroke="black"/>
<path d="M280.991,341.409v 4.61363" fill="none" stroke="black"/>
<path d="M296.102,341.409v 4.61363" fill="none" stroke="black"/>
<path d="M311.213,336.795v 9.22726" fill="none" stroke="black"/>
<path d="M326.323,341.409v 4.61363" fill="none" stroke="black"/>
<path d="M341.434,341.409v 4.61363" fill="none" stroke="black"/>
<path d="M356.545,341.409v 4.61363" fill="none" stroke="black"/>
<path d="M371.656,341.409v 4.61363" fill="none" stroke="black"/>
<path d="M386.766,336.795v 9.22726" fill="none" stroke="black"/>
<path d="M401.877,341.409v 4.61363" fill="none" stroke="black"/>
<path d="M416.988,341.409v 4.61363" fill="none" stroke="black"/>
<path d="M432.098,341.409v 4.61363" fill="none" stroke="black"/>
<path d="M447.209,341.409v 4.61363" fill="none" stroke="black"/>
<path d="M462.32,336.795v 9.22726" fill="none" stroke="black"/>
<path d="M84.5516,336.795v 9.22726" fill="none" stroke="black"/>
<path d="M69.4409,341.409v 4.61363" fill="none" stroke="black"/>
<path d="M462.32,336.795v 9.22726" fill="none" stroke="black"/>
<path d="M477.431,341.409v 4.61363" fill="none" stroke="black"/>
<path d="M492.541,341.409v 4.61363" fill="none" stroke="black"/>
<path d="M507.652,341.409v 4.61363" fill="none" stroke="black"/>
<text xml:space="preserve" x="73.8098" y="358.403" fill="black" font-size="12.8453" font-family="Helvetica">780</text>
<text xml:space="preserve" x="148.749" y="358.403" fill="black" font-size="12.8453" font-family="Helvetica">790</text>
<text xml:space="preserve" x="224.502" y="358.403" fill="black" font-size="12.8453" font-family="Helvetica">800</text>
<text xml:space="preserve" x="300.256" y="358.403" fill="black" font-size="12.8453" font-family="Helvetica">810</text>
<text xml:space="preserve" x="376.009" y="358.403" fill="black" font-size="12.8453" font-family="Helvetica">820</text>
<text xml:space="preserve" x="450.948" y="358.403" fill="black" font-size="12.8453" font-family="Helvetica">830</text>
<text xml:space="preserve" x="460.723" y="370.622" fill="black" font-size="12.8453" font-family="Helvetica">Time [ns]</text>
<path d="M57.1929,346.022v -307.575" fill="none" stroke="black"/>
<path d="M70.7992,346.022h -13.6063" fill="none" stroke="black"/>
<path d="M63.9961,333.061h -6.80315" fill="none" stroke="black"/>
<path d="M63.9961,320.099h -6.80315" fill="none" stroke="black"/>
<path d="M63.9961,307.138h -6.80315" fill="none" stroke="black"/>
<path d="M70.7992,294.176h -13.6063" fill="none" stroke="black"/>
<path d="M63.9961,281.215h -6.80315" fill="none" stroke="black"/>
<path d="M63.9961,268.254h -6.80315" fill="none" stroke="black"/>
<path d="M63.9961,255.292h -6.80315" fill="none" stroke="black"/>
<path d="M70.7992,242.331h -13.6063" fill="none" stroke="black"/>
<path d="M63.9961,229.369h -6.80315" fill="none" stroke="black"/>
<path d="M63.9961,216.408h -6.80315" fill="none" stroke="black"/>
<path d="M63.9961,203.446h -6.80315" fill="none" stroke="black"/>
<path d="M70.7992,190.485h -13.6063" fill="none" stroke="black"/>
<path d="M63.9961,177.523h -6.80315" fill="none" stroke="black"/>
<path d="M63.9961,164.562h -6.80315" fill="none" stroke="black"/>
<path d="M63.9961,151.6h -6.80315" fill="none" stroke="black"/>
<path d="M70.7992,138.639h -13.6063" fill="none" stroke="black"/>
<path d="M63.9961,125.678h -6.80315" fill="none" stroke="black"/>
<path d="M63.9961,112.716h -6.80315" fill="none" stroke="black"/>
<path d="M63.9961,99.7546h -6.80315" fill="none" stroke="black"/>
<path d="M70.7992,86.7932h -13.6063" fill="none" stroke="black"/>
<path d="M70.7992,86.7932h -13.6063" fill="none" stroke="black"/>
<path d="M63.9961,73.8317h -6.80315" fill="none" stroke="black"/>
<path d="M63.9961,60.8702h -6.80315" fill="none" stroke="black"/>
<path d="M63.9961,47.9088h -6.80315" fill="none" stroke="black"/>
<text xml:space="preserve" x="47.7441" y="350.258" fill="black" font-size="12.8453" font-family="Helvetica">0</text>
<text xml:space="preserve" x="41.2277" y="298.941" fill="black" font-size="12.8453" font-family="Helvetica">20</text>
<text xml:space="preserve" x="41.2277" y="246.81" fill="black" font-size="12.8453" font-family="Helvetica">40</text>
<text xml:space="preserve" x="41.2277" y="194.678" fill="black" font-size="12.8453" font-family="Helvetica">60</text>
<text xml:space="preserve" x="41.2277" y="143.361" fill="black" font-size="12.8453" font-family="Helvetica">80</text>
<text xml:space="preserve" x="33.8967" y="91.23" fill="black" font-size="12.8453" font-family="Helvetica">100</text>
<g transform="rotate(-90,20.8638,70.0516)">
<text xml:space="preserve" x="20.8638" y="70.0516" fill="black" font-size="12.8453" font-family="Helvetica">Event</text>
</g>
<text xml:space="preserve" x="243.237" y="18.7347" fill="black" font-size="16.9898" font-family="Helvetica">280mm 22</text></svg>
