<?xml version="1.0" standalone="no"?>
<svg width="567.429" height="384.969" viewBox="0 0 567.429 384.969" xmlns="http://www.w3.org/2000/svg" shape-rendering="crispEdges">
<title>
img/week2/Combined670mm_ch_53.svg
</title>
<desc>
Creator: ROOT Version 6.22/09
CreationDate: Thu Jun 24 12:07:48 2021</desc>
<defs>
</defs>
<rect x="0.5" y="0" width="566.929" height="384.469" fill="white"/>
<rect x="57.1929" y="38.4469" width="453.543" height="307.575" fill="white"/>
<rect x="57.1929" y="38.4469" width="453.543" height="307.575" fill="none" stroke="black"/>
<rect x="57.1929" y="38.4469" width="453.543" height="307.575" fill="white"/>
<rect x="57.1929" y="38.4469" width="453.543" height="307.575" fill="none" stroke="black"/>
<path d="M57.1929,346.022h 139.552v -45.066h 34.8879v -37.555h 34.8879v -210.308h 34.8879v 225.33h 34.8879v 67.599h 174.44" fill="none" stroke="#000099"/>
<g fill="#ff0000">
<polygon points=" 279.729, 48.8577 288.2, 48.8577 283.965, 57.329"/>
</g>
<path d="M59.4606,346.022h 126.992l 4.53543, -0.0382934l 4.53543, -0.0525502l 4.53543, -0.115396l 4.53543, -0.241843l 4.53543, -0.483564l 4.53543, -0.922106l 4.53543, -1.67613l 4.53543, -2.90255l 4.53543, -4.78512l 4.53543, -7.50341l 4.53543,
 -11.1787l 4.53543, -15.7998l 4.53543, -21.1447l 4.53543, -26.7229l 4.53543, -31.7731l 4.53543, -35.341l 4.53543, -36.4462l 4.53543, -34.3116l 4.53543, -28.597l 4.53543, -19.5644l 4.53543, -8.106" fill="none" stroke="#ff0000" stroke-width="2"/>
<path d="M281.697,58.316l 4.53543, 4.39197l 4.53543, 16.3242l 4.53543, 26.2052l 4.53543, 32.9729l 4.53543, 36.1716l 4.53543, 35.9729l 4.53543, 33.0457l 4.53543, 28.3351l 4.53543, 22.8243l 4.53543, 17.3449l 4.53543, 12.4718l 4.53543, 8.5033l 4.53543,
 5.50603l 4.53543, 3.39007l 4.53543, 1.98661l 4.53543, 1.10886l 4.53543, 0.589889l 4.53543, 0.299234l 4.53543, 0.144805l 4.53543, 0.066871l 4.53543, 0.0498588h 126.992" fill="none" stroke="#ff0000" stroke-width="2"/>
<path d="M503.933,346.022h 4.53543" fill="none" stroke="#ff0000" stroke-width="2"/>
<path d="M57.1929,346.022h 453.543" fill="none" stroke="black"/>
<path d="M141.05,336.795v 9.22726" fill="none" stroke="black"/>
<path d="M158.485,341.409v 4.61363" fill="none" stroke="black"/>
<path d="M175.921,341.409v 4.61363" fill="none" stroke="black"/>
<path d="M193.356,341.409v 4.61363" fill="none" stroke="black"/>
<path d="M210.792,341.409v 4.61363" fill="none" stroke="black"/>
<path d="M228.227,336.795v 9.22726" fill="none" stroke="black"/>
<path d="M245.663,341.409v 4.61363" fill="none" stroke="black"/>
<path d="M263.098,341.409v 4.61363" fill="none" stroke="black"/>
<path d="M280.534,341.409v 4.61363" fill="none" stroke="black"/>
<path d="M297.969,341.409v 4.61363" fill="none" stroke="black"/>
<path d="M315.405,336.795v 9.22726" fill="none" stroke="black"/>
<path d="M332.84,341.409v 4.61363" fill="none" stroke="black"/>
<path d="M350.276,341.409v 4.61363" fill="none" stroke="black"/>
<path d="M367.711,341.409v 4.61363" fill="none" stroke="black"/>
<path d="M385.146,341.409v 4.61363" fill="none" stroke="black"/>
<path d="M402.582,336.795v 9.22726" fill="none" stroke="black"/>
<path d="M420.017,341.409v 4.61363" fill="none" stroke="black"/>
<path d="M437.453,341.409v 4.61363" fill="none" stroke="black"/>
<path d="M454.888,341.409v 4.61363" fill="none" stroke="black"/>
<path d="M472.324,341.409v 4.61363" fill="none" stroke="black"/>
<path d="M489.759,336.795v 9.22726" fill="none" stroke="black"/>
<path d="M141.05,336.795v 9.22726" fill="none" stroke="black"/>
<path d="M123.615,341.409v 4.61363" fill="none" stroke="black"/>
<path d="M106.179,341.409v 4.61363" fill="none" stroke="black"/>
<path d="M88.7436,341.409v 4.61363" fill="none" stroke="black"/>
<path d="M71.3081,341.409v 4.61363" fill="none" stroke="black"/>
<path d="M489.759,336.795v 9.22726" fill="none" stroke="black"/>
<path d="M507.195,341.409v 4.61363" fill="none" stroke="black"/>
<text xml:space="preserve" x="130.014" y="358.403" fill="black" font-size="12.8453" font-family="Helvetica">790</text>
<text xml:space="preserve" x="217.171" y="358.403" fill="black" font-size="12.8453" font-family="Helvetica">800</text>
<text xml:space="preserve" x="304.328" y="358.403" fill="black" font-size="12.8453" font-family="Helvetica">810</text>
<text xml:space="preserve" x="391.486" y="358.403" fill="black" font-size="12.8453" font-family="Helvetica">820</text>
<text xml:space="preserve" x="478.643" y="358.403" fill="black" font-size="12.8453" font-family="Helvetica">830</text>
<text xml:space="preserve" x="460.723" y="370.622" fill="black" font-size="12.8453" font-family="Helvetica">Time [ps]</text>
<path d="M57.1929,346.022v -307.575" fill="none" stroke="black"/>
<path d="M70.7992,346.022h -13.6063" fill="none" stroke="black"/>
<path d="M63.9961,338.511h -6.80315" fill="none" stroke="black"/>
<path d="M63.9961,331h -6.80315" fill="none" stroke="black"/>
<path d="M63.9961,323.489h -6.80315" fill="none" stroke="black"/>
<path d="M63.9961,315.978h -6.80315" fill="none" stroke="black"/>
<path d="M70.7992,308.467h -13.6063" fill="none" stroke="black"/>
<path d="M63.9961,300.956h -6.80315" fill="none" stroke="black"/>
<path d="M63.9961,293.445h -6.80315" fill="none" stroke="black"/>
<path d="M63.9961,285.934h -6.80315" fill="none" stroke="black"/>
<path d="M63.9961,278.423h -6.80315" fill="none" stroke="black"/>
<path d="M70.7992,270.912h -13.6063" fill="none" stroke="black"/>
<path d="M63.9961,263.401h -6.80315" fill="none" stroke="black"/>
<path d="M63.9961,255.89h -6.80315" fill="none" stroke="black"/>
<path d="M63.9961,248.379h -6.80315" fill="none" stroke="black"/>
<path d="M63.9961,240.868h -6.80315" fill="none" stroke="black"/>
<path d="M70.7992,233.357h -13.6063" fill="none" stroke="black"/>
<path d="M63.9961,225.846h -6.80315" fill="none" stroke="black"/>
<path d="M63.9961,218.335h -6.80315" fill="none" stroke="black"/>
<path d="M63.9961,210.824h -6.80315" fill="none" stroke="black"/>
<path d="M63.9961,203.313h -6.80315" fill="none" stroke="black"/>
<path d="M70.7992,195.802h -13.6063" fill="none" stroke="black"/>
<path d="M63.9961,188.291h -6.80315" fill="none" stroke="black"/>
<path d="M63.9961,180.78h -6.80315" fill="none" stroke="black"/>
<path d="M63.9961,173.269h -6.80315" fill="none" stroke="black"/>
<path d="M63.9961,165.758h -6.80315" fill="none" stroke="black"/>
<path d="M70.7992,158.247h -13.6063" fill="none" stroke="black"/>
<path d="M63.9961,150.736h -6.80315" fill="none" stroke="black"/>
<path d="M63.9961,143.225h -6.80315" fill="none" stroke="black"/>
<path d="M63.9961,135.714h -6.80315" fill="none" stroke="black"/>
<path d="M63.9961,128.203h -6.80315" fill="none" stroke="black"/>
<path d="M70.7992,120.692h -13.6063" fill="none" stroke="black"/>
<path d="M63.9961,113.181h -6.80315" fill="none" stroke="black"/>
<path d="M63.9961,105.67h -6.80315" fill="none" stroke="black"/>
<path d="M63.9961,98.1593h -6.80315" fill="none" stroke="black"/>
<path d="M63.9961,90.6484h -6.80315" fill="none" stroke="black"/>
<path d="M70.7992,83.1374h -13.6063" fill="none" stroke="black"/>
<path d="M63.9961,75.6264h -6.80315" fill="none" stroke="black"/>
<path d="M63.9961,68.1154h -6.80315" fill="none" stroke="black"/>
<path d="M63.9961,60.6044h -6.80315" fill="none" stroke="black"/>
<path d="M63.9961,53.0934h -6.80315" fill="none" stroke="black"/>
<path d="M70.7992,45.5824h -13.6063" fill="none" stroke="black"/>
<path d="M70.7992,45.5824h -13.6063" fill="none" stroke="black"/>
<text xml:space="preserve" x="47.7441" y="350.258" fill="black" font-size="12.8453" font-family="Helvetica">0</text>
<text xml:space="preserve" x="47.7441" y="312.788" fill="black" font-size="12.8453" font-family="Helvetica">5</text>
<text xml:space="preserve" x="41.2277" y="275.319" fill="black" font-size="12.8453" font-family="Helvetica">10</text>
<text xml:space="preserve" x="40.4131" y="237.85" fill="black" font-size="12.8453" font-family="Helvetica">15</text>
<text xml:space="preserve" x="41.2277" y="200.38" fill="black" font-size="12.8453" font-family="Helvetica">20</text>
<text xml:space="preserve" x="40.4131" y="162.911" fill="black" font-size="12.8453" font-family="Helvetica">25</text>
<text xml:space="preserve" x="41.2277" y="125.441" fill="black" font-size="12.8453" font-family="Helvetica">30</text>
<text xml:space="preserve" x="40.4131" y="87.9718" fill="black" font-size="12.8453" font-family="Helvetica">35</text>
<text xml:space="preserve" x="41.2277" y="49.6878" fill="black" font-size="12.8453" font-family="Helvetica">40</text>
<g transform="rotate(-90,28.1948,70.0516)">
<text xml:space="preserve" x="28.1948" y="70.0516" fill="black" font-size="12.8453" font-family="Helvetica">Event</text>
</g>
<text xml:space="preserve" x="243.237" y="18.7347" fill="black" font-size="16.9898" font-family="Helvetica">670mm 53</text></svg>
