<?xml version="1.0" standalone="no"?>
<svg width="567.429" height="386.304" viewBox="0 0 567.429 386.304" xmlns="http://www.w3.org/2000/svg" shape-rendering="crispEdges">
<title>
img/week2/Combined560mm_ch_18.svg
</title>
<desc>
Creator: ROOT Version 6.22/08
CreationDate: Thu Jun 24 12:19:44 2021</desc>
<defs>
</defs>
<rect x="0.5" y="0" width="566.929" height="385.804" fill="white"/>
<rect x="57.1929" y="38.5804" width="453.543" height="308.643" fill="white"/>
<rect x="57.1929" y="38.5804" width="453.543" height="308.643" fill="none" stroke="black"/>
<rect x="57.1929" y="38.5804" width="453.543" height="308.643" fill="white"/>
<rect x="57.1929" y="38.5804" width="453.543" height="308.643" fill="none" stroke="black"/>
<path d="M57.1929,347.224h 129.584v -3.67433h 32.396v -14.6973h 32.396v -128.601h 32.396v -146.973h 32.396v 249.854h 32.396v 44.0919h 161.98" fill="none" stroke="#000099"/>
<g fill="#ff0000">
<polygon points=" 295.939, 49.0542 304.386, 49.0542 300.163, 57.5013"/>
</g>
<path d="M59.4606,347.224h 140.598l 4.53543, -0.0707224l 4.53543, -0.0942377l 4.53543, -0.202792l 4.53543, -0.41583l 4.53543, -0.81218l 4.53543, -1.51027l 4.53543, -2.67224l 4.53543, -4.49582l 4.53543, -7.18586l 4.53543, -10.8994l 4.53543, -15.6661l
 4.53543, -21.2974l 4.53543, -27.3133l 4.53543, -32.9235l 4.53543, -37.0976l 4.53543, -38.7388l 4.53543, -36.9359l 4.53543, -31.2356" fill="none" stroke="#ff0000" stroke-width="2"/>
<path d="M281.697,77.6561l 4.53543, -21.8441l 4.53543, -9.68101l 4.53543, 3.75673l 4.53543, 16.6966l 4.53543, 27.4743l 4.53543, 34.8856l 4.53543, 38.4023l 4.53543, 38.2022l 4.53543, 35.0242l 4.53543, 29.9166l 4.53543, 23.9665l 4.53543, 18.0859l
 4.53543, 12.8952l 4.53543, 8.70589l 4.53543, 5.57438l 4.53543, 3.38934l 4.53543, 1.9588l 4.53543, 1.07685l 4.53543, 0.563488l 4.53543, 0.280799l 4.53543, 0.133314l 4.53543, 0.0603226l 4.53543, 0.043341h 117.921" fill="none" stroke="#ff0000"
 stroke-width="2"/>
<path d="M503.933,347.224h 4.53543" fill="none" stroke="#ff0000" stroke-width="2"/>
<rect x="351.996" y="25.0773" width="204.094" height="108.025" fill="white"/>
<path d="M351.996,133.102h 204.094" fill="none" stroke="black"/>
<path d="M556.091,133.102v -108.025" fill="none" stroke="black"/>
<path d="M556.091,25.0773h -204.094" fill="none" stroke="black"/>
<path d="M351.996,25.0773v 108.025" fill="none" stroke="black"/>
<text xml:space="preserve" x="361.938" y="38.9865" fill="black" font-size="15.6962" font-family="Helvetica">Entries </text>
<text xml:space="preserve" x="515.447" y="38.9865" fill="black" font-size="15.6962" font-family="Helvetica"> 139</text>
<text xml:space="preserve" x="375.745" y="57.6676" fill="black" font-size="15.6962" font-family="Helvetica"> / ndf </text>
<text xml:space="preserve" x="370.06" y="52.7943" fill="black" font-size="10.6308" font-family="Helvetica">2</text>
<text xml:space="preserve" x="361.938" y="57.6676" fill="black" font-size="15.6962" font-family="Times">&#0967;</text>
<text xml:space="preserve" x="481.334" y="57.6676" fill="black" font-size="15.6962" font-family="Helvetica"> 3.873 / 3</text>
<text xml:space="preserve" x="361.938" y="75.5364" fill="black" font-size="15.6962" font-family="Helvetica">Prob  </text>
<text xml:space="preserve" x="494.329" y="75.5364" fill="black" font-size="15.6962" font-family="Helvetica"> 0.2755</text>
<text xml:space="preserve" x="361.938" y="94.2175" fill="black" font-size="15.6962" font-family="Helvetica">Const    </text>
<text xml:space="preserve" x="511.386" y="93.4052" fill="black" font-size="15.6962" font-family="Helvetica"> 9.73</text>
<text xml:space="preserve" x="502.452" y="93.4052" fill="black" font-size="15.6962" font-family="Times">&#0177;</text>
<text xml:space="preserve" x="454.531" y="93.4052" fill="black" font-size="15.6962" font-family="Helvetica"> 82.04 </text>
<text xml:space="preserve" x="361.938" y="111.274" fill="black" font-size="15.6962" font-family="Helvetica">Mean     </text>
<text xml:space="preserve" x="520.32" y="111.274" fill="black" font-size="15.6962" font-family="Helvetica"> 0.2</text>
<text xml:space="preserve" x="511.386" y="111.274" fill="black" font-size="15.6962" font-family="Times">&#0177;</text>
<text xml:space="preserve" x="463.465" y="111.274" fill="black" font-size="15.6962" font-family="Helvetica"> 809.4 </text>
<text xml:space="preserve" x="361.938" y="128.331" fill="black" font-size="15.6962" font-family="Helvetica">Sigma    </text>
<text xml:space="preserve" x="502.452" y="129.143" fill="black" font-size="15.6962" font-family="Helvetica"> 0.219</text>
<text xml:space="preserve" x="493.517" y="129.143" fill="black" font-size="15.6962" font-family="Times">&#0177;</text>
<text xml:space="preserve" x="445.596" y="129.143" fill="black" font-size="15.6962" font-family="Helvetica"> 2.634 </text>
<path d="M57.1929,347.224h 453.543" fill="none" stroke="black"/>
<path d="M135.06,337.964v 9.2593" fill="none" stroke="black"/>
<path d="M151.25,342.594v 4.62965" fill="none" stroke="black"/>
<path d="M167.44,342.594v 4.62965" fill="none" stroke="black"/>
<path d="M183.63,342.594v 4.62965" fill="none" stroke="black"/>
<path d="M199.82,342.594v 4.62965" fill="none" stroke="black"/>
<path d="M216.011,337.964v 9.2593" fill="none" stroke="black"/>
<path d="M232.201,342.594v 4.62965" fill="none" stroke="black"/>
<path d="M248.391,342.594v 4.62965" fill="none" stroke="black"/>
<path d="M264.581,342.594v 4.62965" fill="none" stroke="black"/>
<path d="M280.771,342.594v 4.62965" fill="none" stroke="black"/>
<path d="M296.961,337.964v 9.2593" fill="none" stroke="black"/>
<path d="M313.151,342.594v 4.62965" fill="none" stroke="black"/>
<path d="M329.341,342.594v 4.62965" fill="none" stroke="black"/>
<path d="M345.531,342.594v 4.62965" fill="none" stroke="black"/>
<path d="M361.721,342.594v 4.62965" fill="none" stroke="black"/>
<path d="M377.911,337.964v 9.2593" fill="none" stroke="black"/>
<path d="M394.101,342.594v 4.62965" fill="none" stroke="black"/>
<path d="M410.291,342.594v 4.62965" fill="none" stroke="black"/>
<path d="M426.481,342.594v 4.62965" fill="none" stroke="black"/>
<path d="M442.672,342.594v 4.62965" fill="none" stroke="black"/>
<path d="M458.862,337.964v 9.2593" fill="none" stroke="black"/>
<path d="M135.06,337.964v 9.2593" fill="none" stroke="black"/>
<path d="M118.87,342.594v 4.62965" fill="none" stroke="black"/>
<path d="M102.68,342.594v 4.62965" fill="none" stroke="black"/>
<path d="M86.49,342.594v 4.62965" fill="none" stroke="black"/>
<path d="M70.2999,342.594v 4.62965" fill="none" stroke="black"/>
<path d="M458.862,337.964v 9.2593" fill="none" stroke="black"/>
<path d="M475.052,342.594v 4.62965" fill="none" stroke="black"/>
<path d="M491.242,342.594v 4.62965" fill="none" stroke="black"/>
<path d="M507.432,342.594v 4.62965" fill="none" stroke="black"/>
<text xml:space="preserve" x="123.145" y="359.813" fill="black" font-size="12.8882" font-family="Helvetica">790</text>
<text xml:space="preserve" x="204.367" y="359.813" fill="black" font-size="12.8882" font-family="Helvetica">800</text>
<text xml:space="preserve" x="285.589" y="359.813" fill="black" font-size="12.8882" font-family="Helvetica">810</text>
<text xml:space="preserve" x="365.999" y="359.813" fill="black" font-size="12.8882" font-family="Helvetica">820</text>
<text xml:space="preserve" x="447.221" y="359.813" fill="black" font-size="12.8882" font-family="Helvetica">830</text>
<text xml:space="preserve" x="457.78" y="372.809" fill="black" font-size="12.8882" font-family="Helvetica">Time [ns]</text>
<path d="M57.1929,347.224v -308.643" fill="none" stroke="black"/>
<path d="M70.7992,347.224h -13.6063" fill="none" stroke="black"/>
<path d="M63.9961,339.875h -6.80315" fill="none" stroke="black"/>
<path d="M63.9961,332.526h -6.80315" fill="none" stroke="black"/>
<path d="M63.9961,325.178h -6.80315" fill="none" stroke="black"/>
<path d="M63.9961,317.829h -6.80315" fill="none" stroke="black"/>
<path d="M70.7992,310.481h -13.6063" fill="none" stroke="black"/>
<path d="M63.9961,303.132h -6.80315" fill="none" stroke="black"/>
<path d="M63.9961,295.783h -6.80315" fill="none" stroke="black"/>
<path d="M63.9961,288.435h -6.80315" fill="none" stroke="black"/>
<path d="M63.9961,281.086h -6.80315" fill="none" stroke="black"/>
<path d="M70.7992,273.737h -13.6063" fill="none" stroke="black"/>
<path d="M63.9961,266.389h -6.80315" fill="none" stroke="black"/>
<path d="M63.9961,259.04h -6.80315" fill="none" stroke="black"/>
<path d="M63.9961,251.691h -6.80315" fill="none" stroke="black"/>
<path d="M63.9961,244.343h -6.80315" fill="none" stroke="black"/>
<path d="M70.7992,236.994h -13.6063" fill="none" stroke="black"/>
<path d="M63.9961,229.645h -6.80315" fill="none" stroke="black"/>
<path d="M63.9961,222.297h -6.80315" fill="none" stroke="black"/>
<path d="M63.9961,214.948h -6.80315" fill="none" stroke="black"/>
<path d="M63.9961,207.599h -6.80315" fill="none" stroke="black"/>
<path d="M70.7992,200.251h -13.6063" fill="none" stroke="black"/>
<path d="M63.9961,192.902h -6.80315" fill="none" stroke="black"/>
<path d="M63.9961,185.553h -6.80315" fill="none" stroke="black"/>
<path d="M63.9961,178.205h -6.80315" fill="none" stroke="black"/>
<path d="M63.9961,170.856h -6.80315" fill="none" stroke="black"/>
<path d="M70.7992,163.508h -13.6063" fill="none" stroke="black"/>
<path d="M63.9961,156.159h -6.80315" fill="none" stroke="black"/>
<path d="M63.9961,148.81h -6.80315" fill="none" stroke="black"/>
<path d="M63.9961,141.462h -6.80315" fill="none" stroke="black"/>
<path d="M63.9961,134.113h -6.80315" fill="none" stroke="black"/>
<path d="M70.7992,126.764h -13.6063" fill="none" stroke="black"/>
<path d="M63.9961,119.416h -6.80315" fill="none" stroke="black"/>
<path d="M63.9961,112.067h -6.80315" fill="none" stroke="black"/>
<path d="M63.9961,104.718h -6.80315" fill="none" stroke="black"/>
<path d="M63.9961,97.3696h -6.80315" fill="none" stroke="black"/>
<path d="M70.7992,90.021h -13.6063" fill="none" stroke="black"/>
<path d="M63.9961,82.6723h -6.80315" fill="none" stroke="black"/>
<path d="M63.9961,75.3237h -6.80315" fill="none" stroke="black"/>
<path d="M63.9961,67.975h -6.80315" fill="none" stroke="black"/>
<path d="M63.9961,60.6264h -6.80315" fill="none" stroke="black"/>
<path d="M70.7992,53.2777h -13.6063" fill="none" stroke="black"/>
<path d="M70.7992,53.2777h -13.6063" fill="none" stroke="black"/>
<path d="M63.9961,45.9291h -6.80315" fill="none" stroke="black"/>
<path d="M63.9961,38.5804h -6.80315" fill="none" stroke="black"/>
<text xml:space="preserve" x="46.7965" y="351.691" fill="black" font-size="12.8882" font-family="Helvetica">0</text>
<text xml:space="preserve" x="39.4865" y="315.141" fill="black" font-size="12.8882" font-family="Helvetica">10</text>
<text xml:space="preserve" x="39.4865" y="278.591" fill="black" font-size="12.8882" font-family="Helvetica">20</text>
<text xml:space="preserve" x="39.4865" y="241.229" fill="black" font-size="12.8882" font-family="Helvetica">30</text>
<text xml:space="preserve" x="39.4865" y="204.679" fill="black" font-size="12.8882" font-family="Helvetica">40</text>
<text xml:space="preserve" x="39.4865" y="168.129" fill="black" font-size="12.8882" font-family="Helvetica">50</text>
<text xml:space="preserve" x="39.4865" y="131.58" fill="black" font-size="12.8882" font-family="Helvetica">60</text>
<text xml:space="preserve" x="39.4865" y="94.2175" fill="black" font-size="12.8882" font-family="Helvetica">70</text>
<text xml:space="preserve" x="39.4865" y="57.6676" fill="black" font-size="12.8882" font-family="Helvetica">80</text>
<g transform="rotate(-90,28.9277,71.4753)">
<text xml:space="preserve" x="28.9277" y="71.4753" fill="black" font-size="12.8882" font-family="Helvetica">Event</text>
</g>
<rect x="351.996" y="25.0773" width="204.094" height="108.025" fill="white"/>
<path d="M351.996,133.102h 204.094" fill="none" stroke="black"/>
<path d="M556.091,133.102v -108.025" fill="none" stroke="black"/>
<path d="M556.091,25.0773h -204.094" fill="none" stroke="black"/>
<path d="M351.996,25.0773v 108.025" fill="none" stroke="black"/>
<text xml:space="preserve" x="361.938" y="38.9865" fill="black" font-size="15.6962" font-family="Helvetica">Entries </text>
<text xml:space="preserve" x="515.447" y="38.9865" fill="black" font-size="15.6962" font-family="Helvetica"> 139</text>
<text xml:space="preserve" x="375.745" y="57.6676" fill="black" font-size="15.6962" font-family="Helvetica"> / ndf </text>
<text xml:space="preserve" x="370.06" y="52.7943" fill="black" font-size="10.6308" font-family="Helvetica">2</text>
<text xml:space="preserve" x="361.938" y="57.6676" fill="black" font-size="15.6962" font-family="Times">&#0967;</text>
<text xml:space="preserve" x="481.334" y="57.6676" fill="black" font-size="15.6962" font-family="Helvetica"> 3.873 / 3</text>
<text xml:space="preserve" x="361.938" y="75.5364" fill="black" font-size="15.6962" font-family="Helvetica">Prob  </text>
<text xml:space="preserve" x="494.329" y="75.5364" fill="black" font-size="15.6962" font-family="Helvetica"> 0.2755</text>
<text xml:space="preserve" x="361.938" y="94.2175" fill="black" font-size="15.6962" font-family="Helvetica">Const    </text>
<text xml:space="preserve" x="511.386" y="93.4052" fill="black" font-size="15.6962" font-family="Helvetica"> 9.73</text>
<text xml:space="preserve" x="502.452" y="93.4052" fill="black" font-size="15.6962" font-family="Times">&#0177;</text>
<text xml:space="preserve" x="454.531" y="93.4052" fill="black" font-size="15.6962" font-family="Helvetica"> 82.04 </text>
<text xml:space="preserve" x="361.938" y="111.274" fill="black" font-size="15.6962" font-family="Helvetica">Mean     </text>
<text xml:space="preserve" x="520.32" y="111.274" fill="black" font-size="15.6962" font-family="Helvetica"> 0.2</text>
<text xml:space="preserve" x="511.386" y="111.274" fill="black" font-size="15.6962" font-family="Times">&#0177;</text>
<text xml:space="preserve" x="463.465" y="111.274" fill="black" font-size="15.6962" font-family="Helvetica"> 809.4 </text>
<text xml:space="preserve" x="361.938" y="128.331" fill="black" font-size="15.6962" font-family="Helvetica">Sigma    </text>
<text xml:space="preserve" x="502.452" y="129.143" fill="black" font-size="15.6962" font-family="Helvetica"> 0.219</text>
<text xml:space="preserve" x="493.517" y="129.143" fill="black" font-size="15.6962" font-family="Times">&#0177;</text>
<text xml:space="preserve" x="445.596" y="129.143" fill="black" font-size="15.6962" font-family="Helvetica"> 2.634 </text>
<text xml:space="preserve" x="243.354" y="18.681" fill="black" font-size="17.0471" font-family="Helvetica">560mm 18</text></svg>
