<?xml version="1.0" standalone="no"?>
<svg width="567.429" height="384.969" viewBox="0 0 567.429 384.969" xmlns="http://www.w3.org/2000/svg" shape-rendering="crispEdges">
<title>
img/week2/Combined280mm_ch_24.svg
</title>
<desc>
Creator: ROOT Version 6.22/09
CreationDate: Thu Jun 24 12:12:15 2021</desc>
<defs>
</defs>
<rect x="0.5" y="0" width="566.929" height="384.469" fill="white"/>
<rect x="57.1929" y="38.4469" width="453.543" height="307.575" fill="white"/>
<rect x="57.1929" y="38.4469" width="453.543" height="307.575" fill="none" stroke="black"/>
<rect x="57.1929" y="38.4469" width="453.543" height="307.575" fill="white"/>
<rect x="57.1929" y="38.4469" width="453.543" height="307.575" fill="none" stroke="black"/>
<path d="M57.1929,346.022h 75.5906v -2.81662h 37.7953v -5.63325h 37.7953v -5.63325h 37.7953v -132.381h 37.7953v -146.464h 37.7953v 273.213h 37.7953v 19.7164h 151.181" fill="none" stroke="#000099"/>
<g fill="#ff0000">
<polygon points=" 298.627, 48.8577 307.098, 48.8577 302.862, 57.329"/>
</g>
<path d="M59.4606,346.022h 136.063l 4.53543, -0.0319786l 4.53543, -0.0463753l 4.53543, -0.105055l 4.53543, -0.226737l 4.53543, -0.466077l 4.53543, -0.912114l 4.53543, -1.69859l 4.53543, -3.0083l 4.53543, -5.06336l 4.53543, -8.09191l 4.53543,
 -12.2649l 4.53543, -17.6052l 4.53543, -23.8852l 4.53543, -30.5462l 4.53543, -36.6832l 4.53543, -41.1312l 4.53543, -42.6692l 4.53543, -40.3097l 4.53543, -33.6028" fill="none" stroke="#ff0000" stroke-width="2"/>
<path d="M299.186,38.4469l 0.652956, 2.86453" fill="none" stroke="#ff0000" stroke-width="2"/>
<path d="M299.839,41.3115l 4.53543, 31.4514l 4.53543, 39.1489l 4.53543, 42.4974l 4.53543, 41.7868l 4.53543, 37.9059l 4.53543, 32.0494l 4.53543, 25.4173l 4.53543, 18.9867l 4.53543, 13.3981l 4.53543, 8.95006l 4.53543, 5.66861l 4.53543, 3.40815l
 4.53543, 1.94699l 4.53543, 1.05764l 4.53543, 0.546641l 4.53543, 0.268955l 4.53543, 0.126023l 4.53543, 0.0562552l 4.53543, 0.0394917h 122.457" fill="none" stroke="#ff0000" stroke-width="2"/>
<path d="M57.1929,346.022h 453.543" fill="none" stroke="black"/>
<path d="M63.0218,336.795v 9.22726" fill="none" stroke="black"/>
<path d="M72.466,341.409v 4.61363" fill="none" stroke="black"/>
<path d="M81.9102,341.409v 4.61363" fill="none" stroke="black"/>
<path d="M91.3544,341.409v 4.61363" fill="none" stroke="black"/>
<path d="M100.799,341.409v 4.61363" fill="none" stroke="black"/>
<path d="M110.243,336.795v 9.22726" fill="none" stroke="black"/>
<path d="M119.687,341.409v 4.61363" fill="none" stroke="black"/>
<path d="M129.131,341.409v 4.61363" fill="none" stroke="black"/>
<path d="M138.575,341.409v 4.61363" fill="none" stroke="black"/>
<path d="M148.02,341.409v 4.61363" fill="none" stroke="black"/>
<path d="M157.464,336.795v 9.22726" fill="none" stroke="black"/>
<path d="M166.908,341.409v 4.61363" fill="none" stroke="black"/>
<path d="M176.352,341.409v 4.61363" fill="none" stroke="black"/>
<path d="M185.796,341.409v 4.61363" fill="none" stroke="black"/>
<path d="M195.241,341.409v 4.61363" fill="none" stroke="black"/>
<path d="M204.685,336.795v 9.22726" fill="none" stroke="black"/>
<path d="M214.129,341.409v 4.61363" fill="none" stroke="black"/>
<path d="M223.573,341.409v 4.61363" fill="none" stroke="black"/>
<path d="M233.018,341.409v 4.61363" fill="none" stroke="black"/>
<path d="M242.462,341.409v 4.61363" fill="none" stroke="black"/>
<path d="M251.906,336.795v 9.22726" fill="none" stroke="black"/>
<path d="M261.35,341.409v 4.61363" fill="none" stroke="black"/>
<path d="M270.794,341.409v 4.61363" fill="none" stroke="black"/>
<path d="M280.239,341.409v 4.61363" fill="none" stroke="black"/>
<path d="M289.683,341.409v 4.61363" fill="none" stroke="black"/>
<path d="M299.127,336.795v 9.22726" fill="none" stroke="black"/>
<path d="M308.571,341.409v 4.61363" fill="none" stroke="black"/>
<path d="M318.015,341.409v 4.61363" fill="none" stroke="black"/>
<path d="M327.46,341.409v 4.61363" fill="none" stroke="black"/>
<path d="M336.904,341.409v 4.61363" fill="none" stroke="black"/>
<path d="M346.348,336.795v 9.22726" fill="none" stroke="black"/>
<path d="M355.792,341.409v 4.61363" fill="none" stroke="black"/>
<path d="M365.236,341.409v 4.61363" fill="none" stroke="black"/>
<path d="M374.681,341.409v 4.61363" fill="none" stroke="black"/>
<path d="M384.125,341.409v 4.61363" fill="none" stroke="black"/>
<path d="M393.569,336.795v 9.22726" fill="none" stroke="black"/>
<path d="M403.013,341.409v 4.61363" fill="none" stroke="black"/>
<path d="M412.457,341.409v 4.61363" fill="none" stroke="black"/>
<path d="M421.902,341.409v 4.61363" fill="none" stroke="black"/>
<path d="M431.346,341.409v 4.61363" fill="none" stroke="black"/>
<path d="M440.79,336.795v 9.22726" fill="none" stroke="black"/>
<path d="M450.234,341.409v 4.61363" fill="none" stroke="black"/>
<path d="M459.678,341.409v 4.61363" fill="none" stroke="black"/>
<path d="M469.123,341.409v 4.61363" fill="none" stroke="black"/>
<path d="M478.567,341.409v 4.61363" fill="none" stroke="black"/>
<path d="M488.011,336.795v 9.22726" fill="none" stroke="black"/>
<path d="M63.0218,336.795v 9.22726" fill="none" stroke="black"/>
<path d="M488.011,336.795v 9.22726" fill="none" stroke="black"/>
<path d="M497.455,341.409v 4.61363" fill="none" stroke="black"/>
<path d="M506.9,341.409v 4.61363" fill="none" stroke="black"/>
<text xml:space="preserve" x="51.8169" y="358.403" fill="black" font-size="12.8453" font-family="Helvetica">785</text>
<text xml:space="preserve" x="99.061" y="358.403" fill="black" font-size="12.8453" font-family="Helvetica">790</text>
<text xml:space="preserve" x="146.305" y="358.403" fill="black" font-size="12.8453" font-family="Helvetica">795</text>
<text xml:space="preserve" x="193.549" y="358.403" fill="black" font-size="12.8453" font-family="Helvetica">800</text>
<text xml:space="preserve" x="240.793" y="358.403" fill="black" font-size="12.8453" font-family="Helvetica">805</text>
<text xml:space="preserve" x="288.037" y="358.403" fill="black" font-size="12.8453" font-family="Helvetica">810</text>
<text xml:space="preserve" x="335.281" y="358.403" fill="black" font-size="12.8453" font-family="Helvetica">815</text>
<text xml:space="preserve" x="382.526" y="358.403" fill="black" font-size="12.8453" font-family="Helvetica">820</text>
<text xml:space="preserve" x="429.77" y="358.403" fill="black" font-size="12.8453" font-family="Helvetica">825</text>
<text xml:space="preserve" x="477.014" y="358.403" fill="black" font-size="12.8453" font-family="Helvetica">830</text>
<text xml:space="preserve" x="460.723" y="370.622" fill="black" font-size="12.8453" font-family="Helvetica">Time [ps]</text>
<path d="M57.1929,346.022v -307.575" fill="none" stroke="black"/>
<path d="M70.7992,346.022h -13.6063" fill="none" stroke="black"/>
<path d="M63.9961,331.939h -6.80315" fill="none" stroke="black"/>
<path d="M63.9961,317.856h -6.80315" fill="none" stroke="black"/>
<path d="M63.9961,303.773h -6.80315" fill="none" stroke="black"/>
<path d="M70.7992,289.69h -13.6063" fill="none" stroke="black"/>
<path d="M63.9961,275.607h -6.80315" fill="none" stroke="black"/>
<path d="M63.9961,261.524h -6.80315" fill="none" stroke="black"/>
<path d="M63.9961,247.44h -6.80315" fill="none" stroke="black"/>
<path d="M70.7992,233.357h -13.6063" fill="none" stroke="black"/>
<path d="M63.9961,219.274h -6.80315" fill="none" stroke="black"/>
<path d="M63.9961,205.191h -6.80315" fill="none" stroke="black"/>
<path d="M63.9961,191.108h -6.80315" fill="none" stroke="black"/>
<path d="M70.7992,177.025h -13.6063" fill="none" stroke="black"/>
<path d="M63.9961,162.942h -6.80315" fill="none" stroke="black"/>
<path d="M63.9961,148.859h -6.80315" fill="none" stroke="black"/>
<path d="M63.9961,134.775h -6.80315" fill="none" stroke="black"/>
<path d="M70.7992,120.692h -13.6063" fill="none" stroke="black"/>
<path d="M63.9961,106.609h -6.80315" fill="none" stroke="black"/>
<path d="M63.9961,92.5261h -6.80315" fill="none" stroke="black"/>
<path d="M63.9961,78.443h -6.80315" fill="none" stroke="black"/>
<path d="M70.7992,64.3599h -13.6063" fill="none" stroke="black"/>
<path d="M70.7992,64.3599h -13.6063" fill="none" stroke="black"/>
<path d="M63.9961,50.2767h -6.80315" fill="none" stroke="black"/>
<text xml:space="preserve" x="47.7441" y="350.258" fill="black" font-size="12.8453" font-family="Helvetica">0</text>
<text xml:space="preserve" x="41.2277" y="294.054" fill="black" font-size="12.8453" font-family="Helvetica">20</text>
<text xml:space="preserve" x="41.2277" y="237.85" fill="black" font-size="12.8453" font-family="Helvetica">40</text>
<text xml:space="preserve" x="41.2277" y="181.645" fill="black" font-size="12.8453" font-family="Helvetica">60</text>
<text xml:space="preserve" x="41.2277" y="125.441" fill="black" font-size="12.8453" font-family="Helvetica">80</text>
<text xml:space="preserve" x="33.8967" y="69.237" fill="black" font-size="12.8453" font-family="Helvetica">100</text>
<g transform="rotate(-90,20.8638,70.0516)">
<text xml:space="preserve" x="20.8638" y="70.0516" fill="black" font-size="12.8453" font-family="Helvetica">Event</text>
</g>
<text xml:space="preserve" x="243.237" y="18.7347" fill="black" font-size="16.9898" font-family="Helvetica">280mm 24</text></svg>
