<?xml version="1.0" standalone="no"?>
<svg width="567.429" height="384.969" viewBox="0 0 567.429 384.969" xmlns="http://www.w3.org/2000/svg" shape-rendering="crispEdges">
<title>
img/week2/Combined0mm_ch_28.svg
</title>
<desc>
Creator: ROOT Version 6.22/09
CreationDate: Thu Jun 24 12:33:06 2021</desc>
<defs>
</defs>
<rect x="0.5" y="0" width="566.929" height="384.469" fill="white"/>
<rect x="57.1929" y="38.4469" width="453.543" height="307.575" fill="white"/>
<rect x="57.1929" y="38.4469" width="453.543" height="307.575" fill="none" stroke="black"/>
<rect x="57.1929" y="38.4469" width="453.543" height="307.575" fill="white"/>
<rect x="57.1929" y="38.4469" width="453.543" height="307.575" fill="none" stroke="black"/>
<path d="M57.1929,346.022h 120.945v -5.05391h 60.4724v -58.12h 30.2362v -222.372h 30.2362v 90.9705h 30.2362v 181.941h 30.2362v 12.6348h 151.181" fill="none" stroke="#000099"/>
<g fill="#ff0000">
<polygon points=" 279.729, 56.2404 288.2, 56.2404 283.965, 64.7118"/>
</g>
<path d="M59.4606,346.022h 140.598l 4.53543, -0.0726447l 4.53543, -0.0966221l 4.53543, -0.20777l 4.53543, -0.425824l 4.53543, -0.831472l 4.53543, -1.54609l 4.53543, -2.73619l 4.53543, -4.60557l 4.53543, -7.36668l 4.53543, -11.1851l 4.53543, -16.098l
 4.53543, -21.9212l 4.53543, -28.1714l 4.53543, -34.0444l 4.53543, -38.4826l 4.53543, -40.3485l 4.53543, -38.6828l 4.53543, -32.9845" fill="none" stroke="#ff0000" stroke-width="2"/>
<path d="M281.697,66.2151l 4.53543, -23.426l 1.80378, -4.34219" fill="none" stroke="#ff0000" stroke-width="2"/>
<path d="M296.277,38.4469l 3.56117, 13.0009" fill="none" stroke="#ff0000" stroke-width="2"/>
<path d="M299.839,51.4478l 4.53543, 27.9565l 4.53543, 35.9284l 4.53543, 39.8754l 4.53543, 39.9322l 4.53543, 36.8286l 4.53543, 31.6352l 4.53543, 25.4828l 4.53543, 19.3356l 4.53543, 13.8624l 4.53543, 9.4114l 4.53543, 6.06065l 4.53543, 3.70663l 4.53543,
 2.15508l 4.53543, 1.19208l 4.53543, 0.627749l 4.53543, 0.314866l 4.53543, 0.150492l 4.53543, 0.0685653l 4.53543, 0.0498474h 122.457" fill="none" stroke="#ff0000" stroke-width="2"/>
<path d="M57.1929,346.022h 453.543" fill="none" stroke="black"/>
<path d="M84.5516,336.795v 9.22726" fill="none" stroke="black"/>
<path d="M99.6623,341.409v 4.61363" fill="none" stroke="black"/>
<path d="M114.773,341.409v 4.61363" fill="none" stroke="black"/>
<path d="M129.884,341.409v 4.61363" fill="none" stroke="black"/>
<path d="M144.995,341.409v 4.61363" fill="none" stroke="black"/>
<path d="M160.105,336.795v 9.22726" fill="none" stroke="black"/>
<path d="M175.216,341.409v 4.61363" fill="none" stroke="black"/>
<path d="M190.327,341.409v 4.61363" fill="none" stroke="black"/>
<path d="M205.437,341.409v 4.61363" fill="none" stroke="black"/>
<path d="M220.548,341.409v 4.61363" fill="none" stroke="black"/>
<path d="M235.659,336.795v 9.22726" fill="none" stroke="black"/>
<path d="M250.77,341.409v 4.61363" fill="none" stroke="black"/>
<path d="M265.88,341.409v 4.61363" fill="none" stroke="black"/>
<path d="M280.991,341.409v 4.61363" fill="none" stroke="black"/>
<path d="M296.102,341.409v 4.61363" fill="none" stroke="black"/>
<path d="M311.213,336.795v 9.22726" fill="none" stroke="black"/>
<path d="M326.323,341.409v 4.61363" fill="none" stroke="black"/>
<path d="M341.434,341.409v 4.61363" fill="none" stroke="black"/>
<path d="M356.545,341.409v 4.61363" fill="none" stroke="black"/>
<path d="M371.656,341.409v 4.61363" fill="none" stroke="black"/>
<path d="M386.766,336.795v 9.22726" fill="none" stroke="black"/>
<path d="M401.877,341.409v 4.61363" fill="none" stroke="black"/>
<path d="M416.988,341.409v 4.61363" fill="none" stroke="black"/>
<path d="M432.098,341.409v 4.61363" fill="none" stroke="black"/>
<path d="M447.209,341.409v 4.61363" fill="none" stroke="black"/>
<path d="M462.32,336.795v 9.22726" fill="none" stroke="black"/>
<path d="M84.5516,336.795v 9.22726" fill="none" stroke="black"/>
<path d="M69.4409,341.409v 4.61363" fill="none" stroke="black"/>
<path d="M462.32,336.795v 9.22726" fill="none" stroke="black"/>
<path d="M477.431,341.409v 4.61363" fill="none" stroke="black"/>
<path d="M492.541,341.409v 4.61363" fill="none" stroke="black"/>
<path d="M507.652,341.409v 4.61363" fill="none" stroke="black"/>
<text xml:space="preserve" x="73.8098" y="358.403" fill="black" font-size="12.8453" font-family="Helvetica">780</text>
<text xml:space="preserve" x="148.749" y="358.403" fill="black" font-size="12.8453" font-family="Helvetica">790</text>
<text xml:space="preserve" x="224.502" y="358.403" fill="black" font-size="12.8453" font-family="Helvetica">800</text>
<text xml:space="preserve" x="300.256" y="358.403" fill="black" font-size="12.8453" font-family="Helvetica">810</text>
<text xml:space="preserve" x="376.009" y="358.403" fill="black" font-size="12.8453" font-family="Helvetica">820</text>
<text xml:space="preserve" x="450.948" y="358.403" fill="black" font-size="12.8453" font-family="Helvetica">830</text>
<text xml:space="preserve" x="460.723" y="370.622" fill="black" font-size="12.8453" font-family="Helvetica">Time [ns]</text>
<path d="M57.1929,346.022v -307.575" fill="none" stroke="black"/>
<path d="M70.7992,346.022h -13.6063" fill="none" stroke="black"/>
<path d="M63.9961,333.387h -6.80315" fill="none" stroke="black"/>
<path d="M63.9961,320.753h -6.80315" fill="none" stroke="black"/>
<path d="M63.9961,308.118h -6.80315" fill="none" stroke="black"/>
<path d="M70.7992,295.483h -13.6063" fill="none" stroke="black"/>
<path d="M63.9961,282.848h -6.80315" fill="none" stroke="black"/>
<path d="M63.9961,270.214h -6.80315" fill="none" stroke="black"/>
<path d="M63.9961,257.579h -6.80315" fill="none" stroke="black"/>
<path d="M70.7992,244.944h -13.6063" fill="none" stroke="black"/>
<path d="M63.9961,232.309h -6.80315" fill="none" stroke="black"/>
<path d="M63.9961,219.674h -6.80315" fill="none" stroke="black"/>
<path d="M63.9961,207.04h -6.80315" fill="none" stroke="black"/>
<path d="M70.7992,194.405h -13.6063" fill="none" stroke="black"/>
<path d="M63.9961,181.77h -6.80315" fill="none" stroke="black"/>
<path d="M63.9961,169.135h -6.80315" fill="none" stroke="black"/>
<path d="M63.9961,156.5h -6.80315" fill="none" stroke="black"/>
<path d="M70.7992,143.866h -13.6063" fill="none" stroke="black"/>
<path d="M63.9961,131.231h -6.80315" fill="none" stroke="black"/>
<path d="M63.9961,118.596h -6.80315" fill="none" stroke="black"/>
<path d="M63.9961,105.961h -6.80315" fill="none" stroke="black"/>
<path d="M70.7992,93.3265h -13.6063" fill="none" stroke="black"/>
<path d="M63.9961,80.6918h -6.80315" fill="none" stroke="black"/>
<path d="M63.9961,68.057h -6.80315" fill="none" stroke="black"/>
<path d="M63.9961,55.4222h -6.80315" fill="none" stroke="black"/>
<path d="M70.7992,42.7874h -13.6063" fill="none" stroke="black"/>
<path d="M70.7992,42.7874h -13.6063" fill="none" stroke="black"/>
<text xml:space="preserve" x="47.7441" y="350.258" fill="black" font-size="12.8453" font-family="Helvetica">0</text>
<text xml:space="preserve" x="41.2277" y="299.756" fill="black" font-size="12.8453" font-family="Helvetica">20</text>
<text xml:space="preserve" x="41.2277" y="249.253" fill="black" font-size="12.8453" font-family="Helvetica">40</text>
<text xml:space="preserve" x="41.2277" y="198.751" fill="black" font-size="12.8453" font-family="Helvetica">60</text>
<text xml:space="preserve" x="41.2277" y="148.249" fill="black" font-size="12.8453" font-family="Helvetica">80</text>
<text xml:space="preserve" x="33.8967" y="97.7464" fill="black" font-size="12.8453" font-family="Helvetica">100</text>
<text xml:space="preserve" x="33.8967" y="47.2441" fill="black" font-size="12.8453" font-family="Helvetica">120</text>
<g transform="rotate(-90,20.8638,70.0516)">
<text xml:space="preserve" x="20.8638" y="70.0516" fill="black" font-size="12.8453" font-family="Helvetica">Event</text>
</g>
<text xml:space="preserve" x="253.012" y="18.7347" fill="black" font-size="16.9898" font-family="Helvetica">0mm 28</text></svg>
