<?xml version="1.0" standalone="no"?>
<svg width="567.429" height="386.304" viewBox="0 0 567.429 386.304" xmlns="http://www.w3.org/2000/svg" shape-rendering="crispEdges">
<title>
img/week2/Combined670mm_ch_0_1_2_3.svg
</title>
<desc>
Creator: ROOT Version 6.22/08
CreationDate: Thu Jun 24 11:56:03 2021</desc>
<defs>
</defs>
<rect x="0.5" y="0" width="566.929" height="385.804" fill="white"/>
<rect x="57.1929" y="38.5804" width="453.543" height="308.643" fill="white"/>
<rect x="57.1929" y="38.5804" width="453.543" height="308.643" fill="none" stroke="black"/>
<rect x="57.1929" y="38.5804" width="453.543" height="308.643" fill="white"/>
<rect x="57.1929" y="38.5804" width="453.543" height="308.643" fill="none" stroke="black"/>
<path d="M57.1929,347.224h 32.396v -2.67724h 97.1879v -13.3862h 32.396v -26.7724h 32.396v -235.598h 32.396v 77.6401h 32.396v 195.439h 32.396v 5.35449h 161.98" fill="none" stroke="#000099"/>
<g fill="#ff0000">
<polygon points=" 263.543, 64.5668 271.99, 64.5668 267.767, 73.0139"/>
</g>
<path d="M59.4606,347.224h 126.992l 4.53543, -0.0359443l 4.53543, -0.0550482l 4.53543, -0.128164l 4.53543, -0.28304l 4.53543, -0.592682l 4.53543, -1.17619l 4.53543, -2.21088l 4.53543, -3.93348l 4.53543, -6.618l 4.53543, -10.5178l 4.53543, -15.7666l
 4.53543, -22.2498l 4.53543, -29.4803l 4.53543, -36.5356l 4.53543, -42.1145l 4.53543, -44.7497l 4.53543, -43.1573l 4.53543, -36.6361l 2.21592, -12.4021" fill="none" stroke="#ff0000" stroke-width="2"/>
<path d="M285.513,38.5804l 0.719121, 3.3638" fill="none" stroke="#ff0000" stroke-width="2"/>
<path d="M286.232,41.9442l 4.53543, 33.7035l 4.53543, 41.7191l 4.53543, 44.7614l 4.53543, 43.2856l 4.53543, 38.4411l 4.53543, 31.6811l 4.53543, 24.3865l 4.53543, 17.607l 4.53543, 11.9587l 4.53543, 7.65721l 4.53543, 4.62948l 4.53543, 2.64605l 4.53543,
 1.43113l 4.53543, 0.733002l 4.53543, 0.355749l 4.53543, 0.163687l 4.53543, 0.0714328l 4.53543, 0.0478218h 136.063" fill="none" stroke="#ff0000" stroke-width="2"/>
<path d="M503.933,347.224h 4.53543" fill="none" stroke="#ff0000" stroke-width="2"/>
<rect x="351.996" y="25.0773" width="204.094" height="108.025" fill="white"/>
<path d="M351.996,133.102h 204.094" fill="none" stroke="black"/>
<path d="M556.091,133.102v -108.025" fill="none" stroke="black"/>
<path d="M556.091,25.0773h -204.094" fill="none" stroke="black"/>
<path d="M351.996,25.0773v 108.025" fill="none" stroke="black"/>
<text xml:space="preserve" x="361.938" y="38.9865" fill="black" font-size="15.6962" font-family="Helvetica">Entries </text>
<text xml:space="preserve" x="515.447" y="38.9865" fill="black" font-size="15.6962" font-family="Helvetica"> 207</text>
<text xml:space="preserve" x="375.745" y="57.6676" fill="black" font-size="15.6962" font-family="Helvetica"> / ndf </text>
<text xml:space="preserve" x="370.06" y="52.7943" fill="black" font-size="10.6308" font-family="Helvetica">2</text>
<text xml:space="preserve" x="361.938" y="57.6676" fill="black" font-size="15.6962" font-family="Times">&#0967;</text>
<text xml:space="preserve" x="481.334" y="57.6676" fill="black" font-size="15.6962" font-family="Helvetica"> 11.83 / 6</text>
<text xml:space="preserve" x="361.938" y="75.5364" fill="black" font-size="15.6962" font-family="Helvetica">Prob  </text>
<text xml:space="preserve" x="485.395" y="75.5364" fill="black" font-size="15.6962" font-family="Helvetica"> 0.06596</text>
<text xml:space="preserve" x="361.938" y="94.2175" fill="black" font-size="15.6962" font-family="Helvetica">Const    </text>
<text xml:space="preserve" x="511.386" y="93.4052" fill="black" font-size="15.6962" font-family="Helvetica"> 10.9</text>
<text xml:space="preserve" x="502.452" y="93.4052" fill="black" font-size="15.6962" font-family="Times">&#0177;</text>
<text xml:space="preserve" x="454.531" y="93.4052" fill="black" font-size="15.6962" font-family="Helvetica"> 124.2 </text>
<text xml:space="preserve" x="361.938" y="111.274" fill="black" font-size="15.6962" font-family="Helvetica">Mean     </text>
<text xml:space="preserve" x="520.32" y="111.274" fill="black" font-size="15.6962" font-family="Helvetica"> 0.2</text>
<text xml:space="preserve" x="511.386" y="111.274" fill="black" font-size="15.6962" font-family="Times">&#0177;</text>
<text xml:space="preserve" x="463.465" y="111.274" fill="black" font-size="15.6962" font-family="Helvetica"> 811.6 </text>
<text xml:space="preserve" x="361.938" y="128.331" fill="black" font-size="15.6962" font-family="Helvetica">Sigma    </text>
<text xml:space="preserve" x="502.452" y="129.143" fill="black" font-size="15.6962" font-family="Helvetica"> 0.126</text>
<text xml:space="preserve" x="493.517" y="129.143" fill="black" font-size="15.6962" font-family="Times">&#0177;</text>
<text xml:space="preserve" x="448.845" y="129.143" fill="black" font-size="15.6962" font-family="Helvetica"> 2.511 </text>
<path d="M57.1929,347.224h 453.543" fill="none" stroke="black"/>
<path d="M102.664,337.964v 9.2593" fill="none" stroke="black"/>
<path d="M118.854,342.594v 4.62965" fill="none" stroke="black"/>
<path d="M135.044,342.594v 4.62965" fill="none" stroke="black"/>
<path d="M151.234,342.594v 4.62965" fill="none" stroke="black"/>
<path d="M167.425,342.594v 4.62965" fill="none" stroke="black"/>
<path d="M183.615,337.964v 9.2593" fill="none" stroke="black"/>
<path d="M199.805,342.594v 4.62965" fill="none" stroke="black"/>
<path d="M215.995,342.594v 4.62965" fill="none" stroke="black"/>
<path d="M232.185,342.594v 4.62965" fill="none" stroke="black"/>
<path d="M248.375,342.594v 4.62965" fill="none" stroke="black"/>
<path d="M264.565,337.964v 9.2593" fill="none" stroke="black"/>
<path d="M280.755,342.594v 4.62965" fill="none" stroke="black"/>
<path d="M296.945,342.594v 4.62965" fill="none" stroke="black"/>
<path d="M313.135,342.594v 4.62965" fill="none" stroke="black"/>
<path d="M329.325,342.594v 4.62965" fill="none" stroke="black"/>
<path d="M345.515,337.964v 9.2593" fill="none" stroke="black"/>
<path d="M361.705,342.594v 4.62965" fill="none" stroke="black"/>
<path d="M377.895,342.594v 4.62965" fill="none" stroke="black"/>
<path d="M394.086,342.594v 4.62965" fill="none" stroke="black"/>
<path d="M410.276,342.594v 4.62965" fill="none" stroke="black"/>
<path d="M426.466,337.964v 9.2593" fill="none" stroke="black"/>
<path d="M442.656,342.594v 4.62965" fill="none" stroke="black"/>
<path d="M458.846,342.594v 4.62965" fill="none" stroke="black"/>
<path d="M475.036,342.594v 4.62965" fill="none" stroke="black"/>
<path d="M491.226,342.594v 4.62965" fill="none" stroke="black"/>
<path d="M507.416,337.964v 9.2593" fill="none" stroke="black"/>
<path d="M102.664,337.964v 9.2593" fill="none" stroke="black"/>
<path d="M86.4742,342.594v 4.62965" fill="none" stroke="black"/>
<path d="M70.2841,342.594v 4.62965" fill="none" stroke="black"/>
<path d="M507.416,337.964v 9.2593" fill="none" stroke="black"/>
<text xml:space="preserve" x="90.6563" y="359.813" fill="black" font-size="12.8882" font-family="Helvetica">790</text>
<text xml:space="preserve" x="171.878" y="359.813" fill="black" font-size="12.8882" font-family="Helvetica">800</text>
<text xml:space="preserve" x="253.1" y="359.813" fill="black" font-size="12.8882" font-family="Helvetica">810</text>
<text xml:space="preserve" x="333.51" y="359.813" fill="black" font-size="12.8882" font-family="Helvetica">820</text>
<text xml:space="preserve" x="414.732" y="359.813" fill="black" font-size="12.8882" font-family="Helvetica">830</text>
<text xml:space="preserve" x="495.954" y="359.813" fill="black" font-size="12.8882" font-family="Helvetica">840</text>
<text xml:space="preserve" x="457.78" y="372.809" fill="black" font-size="12.8882" font-family="Helvetica">Time [ns]</text>
<path d="M57.1929,347.224v -308.643" fill="none" stroke="black"/>
<path d="M70.7992,347.224h -13.6063" fill="none" stroke="black"/>
<path d="M63.9961,333.838h -6.80315" fill="none" stroke="black"/>
<path d="M63.9961,320.451h -6.80315" fill="none" stroke="black"/>
<path d="M63.9961,307.065h -6.80315" fill="none" stroke="black"/>
<path d="M70.7992,293.679h -13.6063" fill="none" stroke="black"/>
<path d="M63.9961,280.293h -6.80315" fill="none" stroke="black"/>
<path d="M63.9961,266.906h -6.80315" fill="none" stroke="black"/>
<path d="M63.9961,253.52h -6.80315" fill="none" stroke="black"/>
<path d="M70.7992,240.134h -13.6063" fill="none" stroke="black"/>
<path d="M63.9961,226.748h -6.80315" fill="none" stroke="black"/>
<path d="M63.9961,213.362h -6.80315" fill="none" stroke="black"/>
<path d="M63.9961,199.975h -6.80315" fill="none" stroke="black"/>
<path d="M70.7992,186.589h -13.6063" fill="none" stroke="black"/>
<path d="M63.9961,173.203h -6.80315" fill="none" stroke="black"/>
<path d="M63.9961,159.817h -6.80315" fill="none" stroke="black"/>
<path d="M63.9961,146.43h -6.80315" fill="none" stroke="black"/>
<path d="M70.7992,133.044h -13.6063" fill="none" stroke="black"/>
<path d="M63.9961,119.658h -6.80315" fill="none" stroke="black"/>
<path d="M63.9961,106.272h -6.80315" fill="none" stroke="black"/>
<path d="M63.9961,92.8856h -6.80315" fill="none" stroke="black"/>
<path d="M70.7992,79.4993h -13.6063" fill="none" stroke="black"/>
<path d="M70.7992,79.4993h -13.6063" fill="none" stroke="black"/>
<path d="M63.9961,66.1131h -6.80315" fill="none" stroke="black"/>
<path d="M63.9961,52.7269h -6.80315" fill="none" stroke="black"/>
<path d="M63.9961,39.3407h -6.80315" fill="none" stroke="black"/>
<text xml:space="preserve" x="46.7965" y="351.691" fill="black" font-size="12.8882" font-family="Helvetica">0</text>
<text xml:space="preserve" x="39.4865" y="298.085" fill="black" font-size="12.8882" font-family="Helvetica">20</text>
<text xml:space="preserve" x="39.4865" y="244.478" fill="black" font-size="12.8882" font-family="Helvetica">40</text>
<text xml:space="preserve" x="39.4865" y="190.872" fill="black" font-size="12.8882" font-family="Helvetica">60</text>
<text xml:space="preserve" x="39.4865" y="137.265" fill="black" font-size="12.8882" font-family="Helvetica">80</text>
<text xml:space="preserve" x="32.1766" y="83.6586" fill="black" font-size="12.8882" font-family="Helvetica">100</text>
<g transform="rotate(-90,21.6177,71.4753)">
<text xml:space="preserve" x="21.6177" y="71.4753" fill="black" font-size="12.8882" font-family="Helvetica">Event</text>
</g>
<rect x="351.996" y="25.0773" width="204.094" height="108.025" fill="white"/>
<path d="M351.996,133.102h 204.094" fill="none" stroke="black"/>
<path d="M556.091,133.102v -108.025" fill="none" stroke="black"/>
<path d="M556.091,25.0773h -204.094" fill="none" stroke="black"/>
<path d="M351.996,25.0773v 108.025" fill="none" stroke="black"/>
<text xml:space="preserve" x="361.938" y="38.9865" fill="black" font-size="15.6962" font-family="Helvetica">Entries </text>
<text xml:space="preserve" x="515.447" y="38.9865" fill="black" font-size="15.6962" font-family="Helvetica"> 207</text>
<text xml:space="preserve" x="375.745" y="57.6676" fill="black" font-size="15.6962" font-family="Helvetica"> / ndf </text>
<text xml:space="preserve" x="370.06" y="52.7943" fill="black" font-size="10.6308" font-family="Helvetica">2</text>
<text xml:space="preserve" x="361.938" y="57.6676" fill="black" font-size="15.6962" font-family="Times">&#0967;</text>
<text xml:space="preserve" x="481.334" y="57.6676" fill="black" font-size="15.6962" font-family="Helvetica"> 11.83 / 6</text>
<text xml:space="preserve" x="361.938" y="75.5364" fill="black" font-size="15.6962" font-family="Helvetica">Prob  </text>
<text xml:space="preserve" x="485.395" y="75.5364" fill="black" font-size="15.6962" font-family="Helvetica"> 0.06596</text>
<text xml:space="preserve" x="361.938" y="94.2175" fill="black" font-size="15.6962" font-family="Helvetica">Const    </text>
<text xml:space="preserve" x="511.386" y="93.4052" fill="black" font-size="15.6962" font-family="Helvetica"> 10.9</text>
<text xml:space="preserve" x="502.452" y="93.4052" fill="black" font-size="15.6962" font-family="Times">&#0177;</text>
<text xml:space="preserve" x="454.531" y="93.4052" fill="black" font-size="15.6962" font-family="Helvetica"> 124.2 </text>
<text xml:space="preserve" x="361.938" y="111.274" fill="black" font-size="15.6962" font-family="Helvetica">Mean     </text>
<text xml:space="preserve" x="520.32" y="111.274" fill="black" font-size="15.6962" font-family="Helvetica"> 0.2</text>
<text xml:space="preserve" x="511.386" y="111.274" fill="black" font-size="15.6962" font-family="Times">&#0177;</text>
<text xml:space="preserve" x="463.465" y="111.274" fill="black" font-size="15.6962" font-family="Helvetica"> 811.6 </text>
<text xml:space="preserve" x="361.938" y="128.331" fill="black" font-size="15.6962" font-family="Helvetica">Sigma    </text>
<text xml:space="preserve" x="502.452" y="129.143" fill="black" font-size="15.6962" font-family="Helvetica"> 0.126</text>
<text xml:space="preserve" x="493.517" y="129.143" fill="black" font-size="15.6962" font-family="Times">&#0177;</text>
<text xml:space="preserve" x="448.845" y="129.143" fill="black" font-size="15.6962" font-family="Helvetica"> 2.511 </text>
<text xml:space="preserve" x="227.109" y="18.681" fill="black" font-size="17.0471" font-family="Helvetica">670mm 0 1 2 3</text></svg>
