<?xml version="1.0" standalone="no"?>
<svg width="567.429" height="384.969" viewBox="0 0 567.429 384.969" xmlns="http://www.w3.org/2000/svg" shape-rendering="crispEdges">
<title>
img/week2/Combined420mm_ch_48.svg
</title>
<desc>
Creator: ROOT Version 6.22/09
CreationDate: Thu Jun 24 12:33:05 2021</desc>
<defs>
</defs>
<rect x="0.5" y="0" width="566.929" height="384.469" fill="white"/>
<rect x="57.1929" y="38.4469" width="453.543" height="307.575" fill="white"/>
<rect x="57.1929" y="38.4469" width="453.543" height="307.575" fill="none" stroke="black"/>
<rect x="57.1929" y="38.4469" width="453.543" height="307.575" fill="white"/>
<rect x="57.1929" y="38.4469" width="453.543" height="307.575" fill="none" stroke="black"/>
<path d="M57.1929,346.022h 113.386v -5.1391h 37.7953v -20.5564h 37.7953v -231.26h 37.7953v -35.9737h 37.7953v 282.651h 37.7953v 10.2782h 151.181" fill="none" stroke="#000099"/>
<g fill="#ff0000">
<polygon points=" 298.627, 48.8577 307.098, 48.8577 302.862, 57.329"/>
</g>
<path d="M59.4606,346.022h 126.992l 4.53543, -0.0602211l 4.53543, -0.0788698l 4.53543, -0.16898l 4.53543, -0.346268l 4.53543, -0.678435l 4.53543, -1.27045l 4.53543, -2.27282l 4.53543, -3.88236l 4.53543, -6.32792l 4.53543, -9.83339l 4.53543, -14.5536l
 4.53543, -20.4873l 4.53543, -27.3826l 4.53543, -34.6663l 4.53543, -41.4309l 4.53543, -46.5146l 4.53543, -48.6842l 4.53543, -46.8977l 0.227772, -2.03841" fill="none" stroke="#ff0000" stroke-width="2"/>
<path d="M299.382,38.4469l 0.456906, 4.12902" fill="none" stroke="#ff0000" stroke-width="2"/>
<path d="M299.839,42.5759l 4.53543, 47.0802l 4.53543, 48.6642l 4.53543, 46.3323l 4.53543, 41.142l 4.53543, 34.3287l 4.53543, 27.0454l 4.53543, 20.1849l 4.53543, 14.3048l 4.53543, 9.64295l 4.53543, 6.19139l 4.53543, 3.7902l 4.53543, 2.21404l 4.53543,
 1.23493l 4.53543, 0.658068l 4.53543, 0.335166l 4.53543, 0.16322l 4.53543, 0.0760234l 4.53543, 0.0578473h 126.992" fill="none" stroke="#ff0000" stroke-width="2"/>
<path d="M57.1929,346.022h 453.543" fill="none" stroke="black"/>
<path d="M63.0218,336.795v 9.22726" fill="none" stroke="black"/>
<path d="M72.466,341.409v 4.61363" fill="none" stroke="black"/>
<path d="M81.9102,341.409v 4.61363" fill="none" stroke="black"/>
<path d="M91.3544,341.409v 4.61363" fill="none" stroke="black"/>
<path d="M100.799,341.409v 4.61363" fill="none" stroke="black"/>
<path d="M110.243,336.795v 9.22726" fill="none" stroke="black"/>
<path d="M119.687,341.409v 4.61363" fill="none" stroke="black"/>
<path d="M129.131,341.409v 4.61363" fill="none" stroke="black"/>
<path d="M138.575,341.409v 4.61363" fill="none" stroke="black"/>
<path d="M148.02,341.409v 4.61363" fill="none" stroke="black"/>
<path d="M157.464,336.795v 9.22726" fill="none" stroke="black"/>
<path d="M166.908,341.409v 4.61363" fill="none" stroke="black"/>
<path d="M176.352,341.409v 4.61363" fill="none" stroke="black"/>
<path d="M185.796,341.409v 4.61363" fill="none" stroke="black"/>
<path d="M195.241,341.409v 4.61363" fill="none" stroke="black"/>
<path d="M204.685,336.795v 9.22726" fill="none" stroke="black"/>
<path d="M214.129,341.409v 4.61363" fill="none" stroke="black"/>
<path d="M223.573,341.409v 4.61363" fill="none" stroke="black"/>
<path d="M233.018,341.409v 4.61363" fill="none" stroke="black"/>
<path d="M242.462,341.409v 4.61363" fill="none" stroke="black"/>
<path d="M251.906,336.795v 9.22726" fill="none" stroke="black"/>
<path d="M261.35,341.409v 4.61363" fill="none" stroke="black"/>
<path d="M270.794,341.409v 4.61363" fill="none" stroke="black"/>
<path d="M280.239,341.409v 4.61363" fill="none" stroke="black"/>
<path d="M289.683,341.409v 4.61363" fill="none" stroke="black"/>
<path d="M299.127,336.795v 9.22726" fill="none" stroke="black"/>
<path d="M308.571,341.409v 4.61363" fill="none" stroke="black"/>
<path d="M318.015,341.409v 4.61363" fill="none" stroke="black"/>
<path d="M327.46,341.409v 4.61363" fill="none" stroke="black"/>
<path d="M336.904,341.409v 4.61363" fill="none" stroke="black"/>
<path d="M346.348,336.795v 9.22726" fill="none" stroke="black"/>
<path d="M355.792,341.409v 4.61363" fill="none" stroke="black"/>
<path d="M365.236,341.409v 4.61363" fill="none" stroke="black"/>
<path d="M374.681,341.409v 4.61363" fill="none" stroke="black"/>
<path d="M384.125,341.409v 4.61363" fill="none" stroke="black"/>
<path d="M393.569,336.795v 9.22726" fill="none" stroke="black"/>
<path d="M403.013,341.409v 4.61363" fill="none" stroke="black"/>
<path d="M412.457,341.409v 4.61363" fill="none" stroke="black"/>
<path d="M421.902,341.409v 4.61363" fill="none" stroke="black"/>
<path d="M431.346,341.409v 4.61363" fill="none" stroke="black"/>
<path d="M440.79,336.795v 9.22726" fill="none" stroke="black"/>
<path d="M450.234,341.409v 4.61363" fill="none" stroke="black"/>
<path d="M459.678,341.409v 4.61363" fill="none" stroke="black"/>
<path d="M469.123,341.409v 4.61363" fill="none" stroke="black"/>
<path d="M478.567,341.409v 4.61363" fill="none" stroke="black"/>
<path d="M488.011,336.795v 9.22726" fill="none" stroke="black"/>
<path d="M63.0218,336.795v 9.22726" fill="none" stroke="black"/>
<path d="M488.011,336.795v 9.22726" fill="none" stroke="black"/>
<path d="M497.455,341.409v 4.61363" fill="none" stroke="black"/>
<path d="M506.9,341.409v 4.61363" fill="none" stroke="black"/>
<text xml:space="preserve" x="51.8169" y="358.403" fill="black" font-size="12.8453" font-family="Helvetica">785</text>
<text xml:space="preserve" x="99.061" y="358.403" fill="black" font-size="12.8453" font-family="Helvetica">790</text>
<text xml:space="preserve" x="146.305" y="358.403" fill="black" font-size="12.8453" font-family="Helvetica">795</text>
<text xml:space="preserve" x="193.549" y="358.403" fill="black" font-size="12.8453" font-family="Helvetica">800</text>
<text xml:space="preserve" x="240.793" y="358.403" fill="black" font-size="12.8453" font-family="Helvetica">805</text>
<text xml:space="preserve" x="288.037" y="358.403" fill="black" font-size="12.8453" font-family="Helvetica">810</text>
<text xml:space="preserve" x="335.281" y="358.403" fill="black" font-size="12.8453" font-family="Helvetica">815</text>
<text xml:space="preserve" x="382.526" y="358.403" fill="black" font-size="12.8453" font-family="Helvetica">820</text>
<text xml:space="preserve" x="429.77" y="358.403" fill="black" font-size="12.8453" font-family="Helvetica">825</text>
<text xml:space="preserve" x="477.014" y="358.403" fill="black" font-size="12.8453" font-family="Helvetica">830</text>
<text xml:space="preserve" x="460.723" y="370.622" fill="black" font-size="12.8453" font-family="Helvetica">Time [ns]</text>
<path d="M57.1929,346.022v -307.575" fill="none" stroke="black"/>
<path d="M70.7992,346.022h -13.6063" fill="none" stroke="black"/>
<path d="M63.9961,335.744h -6.80315" fill="none" stroke="black"/>
<path d="M63.9961,325.466h -6.80315" fill="none" stroke="black"/>
<path d="M63.9961,315.188h -6.80315" fill="none" stroke="black"/>
<path d="M63.9961,304.909h -6.80315" fill="none" stroke="black"/>
<path d="M70.7992,294.631h -13.6063" fill="none" stroke="black"/>
<path d="M63.9961,284.353h -6.80315" fill="none" stroke="black"/>
<path d="M63.9961,274.075h -6.80315" fill="none" stroke="black"/>
<path d="M63.9961,263.797h -6.80315" fill="none" stroke="black"/>
<path d="M63.9961,253.518h -6.80315" fill="none" stroke="black"/>
<path d="M70.7992,243.24h -13.6063" fill="none" stroke="black"/>
<path d="M63.9961,232.962h -6.80315" fill="none" stroke="black"/>
<path d="M63.9961,222.684h -6.80315" fill="none" stroke="black"/>
<path d="M63.9961,212.406h -6.80315" fill="none" stroke="black"/>
<path d="M63.9961,202.127h -6.80315" fill="none" stroke="black"/>
<path d="M70.7992,191.849h -13.6063" fill="none" stroke="black"/>
<path d="M63.9961,181.571h -6.80315" fill="none" stroke="black"/>
<path d="M63.9961,171.293h -6.80315" fill="none" stroke="black"/>
<path d="M63.9961,161.015h -6.80315" fill="none" stroke="black"/>
<path d="M63.9961,150.736h -6.80315" fill="none" stroke="black"/>
<path d="M70.7992,140.458h -13.6063" fill="none" stroke="black"/>
<path d="M63.9961,130.18h -6.80315" fill="none" stroke="black"/>
<path d="M63.9961,119.902h -6.80315" fill="none" stroke="black"/>
<path d="M63.9961,109.624h -6.80315" fill="none" stroke="black"/>
<path d="M63.9961,99.3453h -6.80315" fill="none" stroke="black"/>
<path d="M70.7992,89.0671h -13.6063" fill="none" stroke="black"/>
<path d="M70.7992,89.0671h -13.6063" fill="none" stroke="black"/>
<path d="M63.9961,78.7889h -6.80315" fill="none" stroke="black"/>
<path d="M63.9961,68.5107h -6.80315" fill="none" stroke="black"/>
<path d="M63.9961,58.2325h -6.80315" fill="none" stroke="black"/>
<path d="M63.9961,47.9543h -6.80315" fill="none" stroke="black"/>
<text xml:space="preserve" x="47.7441" y="350.258" fill="black" font-size="12.8453" font-family="Helvetica">0</text>
<text xml:space="preserve" x="41.2277" y="298.941" fill="black" font-size="12.8453" font-family="Helvetica">10</text>
<text xml:space="preserve" x="41.2277" y="247.624" fill="black" font-size="12.8453" font-family="Helvetica">20</text>
<text xml:space="preserve" x="41.2277" y="196.307" fill="black" font-size="12.8453" font-family="Helvetica">30</text>
<text xml:space="preserve" x="41.2277" y="144.99" fill="black" font-size="12.8453" font-family="Helvetica">40</text>
<text xml:space="preserve" x="41.2277" y="93.6736" fill="black" font-size="12.8453" font-family="Helvetica">50</text>
<g transform="rotate(-90,29.0094,70.0516)">
<text xml:space="preserve" x="29.0094" y="70.0516" fill="black" font-size="12.8453" font-family="Helvetica">Event</text>
</g>
<text xml:space="preserve" x="243.237" y="18.7347" fill="black" font-size="16.9898" font-family="Helvetica">420mm 48</text></svg>
