<?xml version="1.0" standalone="no"?>
<svg width="567.429" height="386.304" viewBox="0 0 567.429 386.304" xmlns="http://www.w3.org/2000/svg" shape-rendering="crispEdges">
<title>
img/week2/Combined560mm_ch_1.svg
</title>
<desc>
Creator: ROOT Version 6.22/08
CreationDate: Mon Jun 21 21:32:18 2021</desc>
<defs>
</defs>
<rect x="0.5" y="0" width="566.929" height="385.804" fill="white"/>
<rect x="57.1929" y="38.5804" width="453.543" height="308.643" fill="white"/>
<rect x="57.1929" y="38.5804" width="453.543" height="308.643" fill="none" stroke="black"/>
<rect x="57.1929" y="38.5804" width="453.543" height="308.643" fill="white"/>
<rect x="57.1929" y="38.5804" width="453.543" height="308.643" fill="none" stroke="black"/>
<path d="M57.1929,347.224h 120.945v -7.73542h 30.2362v -7.73542h 30.2362v -38.6771h 30.2362v -239.798h 30.2362v 123.767h 30.2362v 170.179h 181.417" fill="none" stroke="#000099"/>
<g fill="#ff0000">
<polygon points=" 279.741, 49.0542 288.188, 49.0542 283.965, 57.5013"/>
</g>
<path d="M59.4606,347.224h 140.598l 4.53543, -0.043117l 4.53543, -0.0630919l 4.53543, -0.143096l 4.53543, -0.308343l 4.53543, -0.630986l 4.53543, -1.22568l 4.53543, -2.25872l 4.53543, -3.94608l 4.53543, -6.5299l 4.53543, -10.2236l 4.53543, -15.1226l
 4.53543, -21.0935l 4.53543, -27.6712l 4.53543, -34.0138l 4.53543, -38.9608l 4.53543, -41.2233l 4.53543, -39.6865l 4.53543, -33.7489" fill="none" stroke="#ff0000" stroke-width="2"/>
<path d="M281.697,70.3306l 4.53543, -23.5892l 3.61166, -8.16098" fill="none" stroke="#ff0000" stroke-width="2"/>
<path d="M292.858,38.5804l 2.445, 2.44143" fill="none" stroke="#ff0000" stroke-width="2"/>
<path d="M295.303,41.0219l 4.53543, 18.6673l 4.53543, 30.2399l 4.53543, 37.898l 4.53543, 41.1228l 4.53543, 40.2342l 4.53543, 36.1856l 4.53543, 30.2378l 4.53543, 23.6315l 4.53543, 17.3473l 4.53543, 11.9968l 4.53543, 7.8331l 4.53543, 4.8365l 4.53543,
 2.82743l 4.53543, 1.56651l 4.53543, 0.823163l 4.53543, 0.410508l 4.53543, 0.194384l 4.53543, 0.0874354l 4.53543, 0.0616933h 126.992" fill="none" stroke="#ff0000" stroke-width="2"/>
<path d="M57.1929,347.224h 453.543" fill="none" stroke="black"/>
<path d="M129.869,337.964v 9.2593" fill="none" stroke="black"/>
<path d="M144.98,342.594v 4.62965" fill="none" stroke="black"/>
<path d="M160.09,342.594v 4.62965" fill="none" stroke="black"/>
<path d="M175.201,342.594v 4.62965" fill="none" stroke="black"/>
<path d="M190.312,342.594v 4.62965" fill="none" stroke="black"/>
<path d="M205.423,337.964v 9.2593" fill="none" stroke="black"/>
<path d="M220.533,342.594v 4.62965" fill="none" stroke="black"/>
<path d="M235.644,342.594v 4.62965" fill="none" stroke="black"/>
<path d="M250.755,342.594v 4.62965" fill="none" stroke="black"/>
<path d="M265.866,342.594v 4.62965" fill="none" stroke="black"/>
<path d="M280.976,337.964v 9.2593" fill="none" stroke="black"/>
<path d="M296.087,342.594v 4.62965" fill="none" stroke="black"/>
<path d="M311.198,342.594v 4.62965" fill="none" stroke="black"/>
<path d="M326.309,342.594v 4.62965" fill="none" stroke="black"/>
<path d="M341.419,342.594v 4.62965" fill="none" stroke="black"/>
<path d="M356.53,337.964v 9.2593" fill="none" stroke="black"/>
<path d="M371.641,342.594v 4.62965" fill="none" stroke="black"/>
<path d="M386.751,342.594v 4.62965" fill="none" stroke="black"/>
<path d="M401.862,342.594v 4.62965" fill="none" stroke="black"/>
<path d="M416.973,342.594v 4.62965" fill="none" stroke="black"/>
<path d="M432.084,337.964v 9.2593" fill="none" stroke="black"/>
<path d="M447.194,342.594v 4.62965" fill="none" stroke="black"/>
<path d="M462.305,342.594v 4.62965" fill="none" stroke="black"/>
<path d="M477.416,342.594v 4.62965" fill="none" stroke="black"/>
<path d="M492.527,342.594v 4.62965" fill="none" stroke="black"/>
<path d="M507.637,337.964v 9.2593" fill="none" stroke="black"/>
<path d="M129.869,337.964v 9.2593" fill="none" stroke="black"/>
<path d="M114.758,342.594v 4.62965" fill="none" stroke="black"/>
<path d="M99.6476,342.594v 4.62965" fill="none" stroke="black"/>
<path d="M84.5368,342.594v 4.62965" fill="none" stroke="black"/>
<path d="M69.4261,342.594v 4.62965" fill="none" stroke="black"/>
<path d="M507.637,337.964v 9.2593" fill="none" stroke="black"/>
<text xml:space="preserve" x="118.272" y="359.813" fill="black" font-size="12.8882" font-family="Helvetica">790</text>
<text xml:space="preserve" x="193.808" y="359.813" fill="black" font-size="12.8882" font-family="Helvetica">800</text>
<text xml:space="preserve" x="269.345" y="359.813" fill="black" font-size="12.8882" font-family="Helvetica">810</text>
<text xml:space="preserve" x="344.881" y="359.813" fill="black" font-size="12.8882" font-family="Helvetica">820</text>
<text xml:space="preserve" x="420.417" y="359.813" fill="black" font-size="12.8882" font-family="Helvetica">830</text>
<text xml:space="preserve" x="495.954" y="359.813" fill="black" font-size="12.8882" font-family="Helvetica">840</text>
<text xml:space="preserve" x="481.334" y="373.621" fill="black" font-size="12.8882" font-family="Helvetica">Time</text>
<path d="M57.1929,347.224v -308.643" fill="none" stroke="black"/>
<path d="M70.7992,347.224h -13.6063" fill="none" stroke="black"/>
<path d="M63.9961,339.488h -6.80315" fill="none" stroke="black"/>
<path d="M63.9961,331.753h -6.80315" fill="none" stroke="black"/>
<path d="M63.9961,324.018h -6.80315" fill="none" stroke="black"/>
<path d="M63.9961,316.282h -6.80315" fill="none" stroke="black"/>
<path d="M70.7992,308.547h -13.6063" fill="none" stroke="black"/>
<path d="M63.9961,300.811h -6.80315" fill="none" stroke="black"/>
<path d="M63.9961,293.076h -6.80315" fill="none" stroke="black"/>
<path d="M63.9961,285.34h -6.80315" fill="none" stroke="black"/>
<path d="M63.9961,277.605h -6.80315" fill="none" stroke="black"/>
<path d="M70.7992,269.87h -13.6063" fill="none" stroke="black"/>
<path d="M63.9961,262.134h -6.80315" fill="none" stroke="black"/>
<path d="M63.9961,254.399h -6.80315" fill="none" stroke="black"/>
<path d="M63.9961,246.663h -6.80315" fill="none" stroke="black"/>
<path d="M63.9961,238.928h -6.80315" fill="none" stroke="black"/>
<path d="M70.7992,231.192h -13.6063" fill="none" stroke="black"/>
<path d="M63.9961,223.457h -6.80315" fill="none" stroke="black"/>
<path d="M63.9961,215.722h -6.80315" fill="none" stroke="black"/>
<path d="M63.9961,207.986h -6.80315" fill="none" stroke="black"/>
<path d="M63.9961,200.251h -6.80315" fill="none" stroke="black"/>
<path d="M70.7992,192.515h -13.6063" fill="none" stroke="black"/>
<path d="M63.9961,184.78h -6.80315" fill="none" stroke="black"/>
<path d="M63.9961,177.044h -6.80315" fill="none" stroke="black"/>
<path d="M63.9961,169.309h -6.80315" fill="none" stroke="black"/>
<path d="M63.9961,161.574h -6.80315" fill="none" stroke="black"/>
<path d="M70.7992,153.838h -13.6063" fill="none" stroke="black"/>
<path d="M63.9961,146.103h -6.80315" fill="none" stroke="black"/>
<path d="M63.9961,138.367h -6.80315" fill="none" stroke="black"/>
<path d="M63.9961,130.632h -6.80315" fill="none" stroke="black"/>
<path d="M63.9961,122.897h -6.80315" fill="none" stroke="black"/>
<path d="M70.7992,115.161h -13.6063" fill="none" stroke="black"/>
<path d="M63.9961,107.426h -6.80315" fill="none" stroke="black"/>
<path d="M63.9961,99.6903h -6.80315" fill="none" stroke="black"/>
<path d="M63.9961,91.9548h -6.80315" fill="none" stroke="black"/>
<path d="M63.9961,84.2194h -6.80315" fill="none" stroke="black"/>
<path d="M70.7992,76.484h -13.6063" fill="none" stroke="black"/>
<path d="M70.7992,76.484h -13.6063" fill="none" stroke="black"/>
<path d="M63.9961,68.7486h -6.80315" fill="none" stroke="black"/>
<path d="M63.9961,61.0131h -6.80315" fill="none" stroke="black"/>
<path d="M63.9961,53.2777h -6.80315" fill="none" stroke="black"/>
<path d="M63.9961,45.5423h -6.80315" fill="none" stroke="black"/>
<text xml:space="preserve" x="46.7965" y="351.691" fill="black" font-size="12.8882" font-family="Helvetica">0</text>
<text xml:space="preserve" x="46.7965" y="312.704" fill="black" font-size="12.8882" font-family="Helvetica">5</text>
<text xml:space="preserve" x="39.4865" y="274.53" fill="black" font-size="12.8882" font-family="Helvetica">10</text>
<text xml:space="preserve" x="39.4865" y="235.544" fill="black" font-size="12.8882" font-family="Helvetica">15</text>
<text xml:space="preserve" x="39.4865" y="197.369" fill="black" font-size="12.8882" font-family="Helvetica">20</text>
<text xml:space="preserve" x="39.4865" y="158.383" fill="black" font-size="12.8882" font-family="Helvetica">25</text>
<text xml:space="preserve" x="39.4865" y="119.396" fill="black" font-size="12.8882" font-family="Helvetica">30</text>
<text xml:space="preserve" x="39.4865" y="81.2219" fill="black" font-size="12.8882" font-family="Helvetica">35</text>
<g transform="rotate(-90,28.9277,71.4753)">
<text xml:space="preserve" x="28.9277" y="71.4753" fill="black" font-size="12.8882" font-family="Helvetica">Event</text>
</g>
<text xml:space="preserve" x="249.851" y="18.681" fill="black" font-size="17.0471" font-family="Helvetica">560mm 1</text></svg>
