<?xml version="1.0" standalone="no"?>
<svg width="567.429" height="384.969" viewBox="0 0 567.429 384.969" xmlns="http://www.w3.org/2000/svg" shape-rendering="crispEdges">
<title>
img/week2/Combined140mm_ch_33.svg
</title>
<desc>
Creator: ROOT Version 6.22/09
CreationDate: Thu Jun 24 12:12:15 2021</desc>
<defs>
</defs>
<rect x="0.5" y="0" width="566.929" height="384.469" fill="white"/>
<rect x="57.1929" y="38.4469" width="453.543" height="307.575" fill="white"/>
<rect x="57.1929" y="38.4469" width="453.543" height="307.575" fill="none" stroke="black"/>
<rect x="57.1929" y="38.4469" width="453.543" height="307.575" fill="white"/>
<rect x="57.1929" y="38.4469" width="453.543" height="307.575" fill="none" stroke="black"/>
<path d="M57.1929,346.022h 41.2312v -1.61839h 41.2312v -1.61839h 41.2312v -1.61839h 41.2312v -43.6966h 41.2312v -244.377h 41.2312v 241.14h 41.2312v 51.7885h 164.925" fill="none" stroke="#000099"/>
<g fill="#ff0000">
<polygon points=" 279.729, 48.8577 288.2, 48.8577 283.965, 57.329"/>
</g>
<path d="M59.4606,346.022h 126.992l 4.53543, -0.0369106l 4.53543, -0.0495815l 4.53543, -0.107765l 4.53543, -0.223911l 4.53543, -0.444609l 4.53543, -0.843386l 4.53543, -1.52766l 4.53543, -2.64089l 4.53543, -4.35424l 4.53543, -6.84169l 4.53543,
 -10.2344l 4.53543, -14.556l 4.53543, -19.6497l 4.53543, -25.1189l 4.53543, -30.3084l 4.53543, -34.3551l 4.53543, -36.3173l 4.53543, -35.3711l 4.53543, -31.0309l 4.53543, -23.3292l 4.53543, -12.8931" fill="none" stroke="#ff0000" stroke-width="2"/>
<path d="M281.697,55.7875l 4.53543, -0.875739l 4.53543, 11.2507l 4.53543, 21.9919l 4.53543, 30.1337l 4.53543, 34.9669l 4.53543, 36.376l 4.53543, 34.7822l 4.53543, 30.9746l 4.53543, 25.8911l 4.53543, 20.4161l 4.53543, 15.2388l 4.53543, 10.7929l
 4.53543, 7.26634l 4.53543, 4.65659l 4.53543, 2.8435l 4.53543, 1.65589l 4.53543, 0.920226l 4.53543, 0.488294l 4.53543, 0.247507l 4.53543, 0.119888l 4.53543, 0.0555125l 4.53543, 0.0417636h 122.457" fill="none" stroke="#ff0000" stroke-width="2"/>
<path d="M503.933,346.022h 4.53543" fill="none" stroke="#ff0000" stroke-width="2"/>
<path d="M57.1929,346.022h 453.543" fill="none" stroke="black"/>
<path d="M73.8343,336.795v 9.22726" fill="none" stroke="black"/>
<path d="M84.1371,341.409v 4.61363" fill="none" stroke="black"/>
<path d="M94.4398,341.409v 4.61363" fill="none" stroke="black"/>
<path d="M104.743,341.409v 4.61363" fill="none" stroke="black"/>
<path d="M115.045,341.409v 4.61363" fill="none" stroke="black"/>
<path d="M125.348,336.795v 9.22726" fill="none" stroke="black"/>
<path d="M135.651,341.409v 4.61363" fill="none" stroke="black"/>
<path d="M145.954,341.409v 4.61363" fill="none" stroke="black"/>
<path d="M156.256,341.409v 4.61363" fill="none" stroke="black"/>
<path d="M166.559,341.409v 4.61363" fill="none" stroke="black"/>
<path d="M176.862,336.795v 9.22726" fill="none" stroke="black"/>
<path d="M187.165,341.409v 4.61363" fill="none" stroke="black"/>
<path d="M197.468,341.409v 4.61363" fill="none" stroke="black"/>
<path d="M207.77,341.409v 4.61363" fill="none" stroke="black"/>
<path d="M218.073,341.409v 4.61363" fill="none" stroke="black"/>
<path d="M228.376,336.795v 9.22726" fill="none" stroke="black"/>
<path d="M238.679,341.409v 4.61363" fill="none" stroke="black"/>
<path d="M248.981,341.409v 4.61363" fill="none" stroke="black"/>
<path d="M259.284,341.409v 4.61363" fill="none" stroke="black"/>
<path d="M269.587,341.409v 4.61363" fill="none" stroke="black"/>
<path d="M279.89,336.795v 9.22726" fill="none" stroke="black"/>
<path d="M290.193,341.409v 4.61363" fill="none" stroke="black"/>
<path d="M300.495,341.409v 4.61363" fill="none" stroke="black"/>
<path d="M310.798,341.409v 4.61363" fill="none" stroke="black"/>
<path d="M321.101,341.409v 4.61363" fill="none" stroke="black"/>
<path d="M331.404,336.795v 9.22726" fill="none" stroke="black"/>
<path d="M341.706,341.409v 4.61363" fill="none" stroke="black"/>
<path d="M352.009,341.409v 4.61363" fill="none" stroke="black"/>
<path d="M362.312,341.409v 4.61363" fill="none" stroke="black"/>
<path d="M372.615,341.409v 4.61363" fill="none" stroke="black"/>
<path d="M382.917,336.795v 9.22726" fill="none" stroke="black"/>
<path d="M393.22,341.409v 4.61363" fill="none" stroke="black"/>
<path d="M403.523,341.409v 4.61363" fill="none" stroke="black"/>
<path d="M413.826,341.409v 4.61363" fill="none" stroke="black"/>
<path d="M424.129,341.409v 4.61363" fill="none" stroke="black"/>
<path d="M434.431,336.795v 9.22726" fill="none" stroke="black"/>
<path d="M444.734,341.409v 4.61363" fill="none" stroke="black"/>
<path d="M455.037,341.409v 4.61363" fill="none" stroke="black"/>
<path d="M465.34,341.409v 4.61363" fill="none" stroke="black"/>
<path d="M475.642,341.409v 4.61363" fill="none" stroke="black"/>
<path d="M485.945,336.795v 9.22726" fill="none" stroke="black"/>
<path d="M73.8343,336.795v 9.22726" fill="none" stroke="black"/>
<path d="M63.5315,341.409v 4.61363" fill="none" stroke="black"/>
<path d="M485.945,336.795v 9.22726" fill="none" stroke="black"/>
<path d="M496.248,341.409v 4.61363" fill="none" stroke="black"/>
<path d="M506.551,341.409v 4.61363" fill="none" stroke="black"/>
<text xml:space="preserve" x="63.2206" y="358.403" fill="black" font-size="12.8453" font-family="Helvetica">790</text>
<text xml:space="preserve" x="114.537" y="358.403" fill="black" font-size="12.8453" font-family="Helvetica">795</text>
<text xml:space="preserve" x="165.854" y="358.403" fill="black" font-size="12.8453" font-family="Helvetica">800</text>
<text xml:space="preserve" x="217.171" y="358.403" fill="black" font-size="12.8453" font-family="Helvetica">805</text>
<text xml:space="preserve" x="268.488" y="358.403" fill="black" font-size="12.8453" font-family="Helvetica">810</text>
<text xml:space="preserve" x="320.619" y="358.403" fill="black" font-size="12.8453" font-family="Helvetica">815</text>
<text xml:space="preserve" x="371.936" y="358.403" fill="black" font-size="12.8453" font-family="Helvetica">820</text>
<text xml:space="preserve" x="423.253" y="358.403" fill="black" font-size="12.8453" font-family="Helvetica">825</text>
<text xml:space="preserve" x="474.57" y="358.403" fill="black" font-size="12.8453" font-family="Helvetica">830</text>
<text xml:space="preserve" x="460.723" y="370.622" fill="black" font-size="12.8453" font-family="Helvetica">Time [ps]</text>
<path d="M57.1929,346.022v -307.575" fill="none" stroke="black"/>
<path d="M70.7992,346.022h -13.6063" fill="none" stroke="black"/>
<path d="M63.9961,337.93h -6.80315" fill="none" stroke="black"/>
<path d="M63.9961,329.838h -6.80315" fill="none" stroke="black"/>
<path d="M63.9961,321.746h -6.80315" fill="none" stroke="black"/>
<path d="M70.7992,313.654h -13.6063" fill="none" stroke="black"/>
<path d="M63.9961,305.562h -6.80315" fill="none" stroke="black"/>
<path d="M63.9961,297.471h -6.80315" fill="none" stroke="black"/>
<path d="M63.9961,289.379h -6.80315" fill="none" stroke="black"/>
<path d="M70.7992,281.287h -13.6063" fill="none" stroke="black"/>
<path d="M63.9961,273.195h -6.80315" fill="none" stroke="black"/>
<path d="M63.9961,265.103h -6.80315" fill="none" stroke="black"/>
<path d="M63.9961,257.011h -6.80315" fill="none" stroke="black"/>
<path d="M70.7992,248.919h -13.6063" fill="none" stroke="black"/>
<path d="M63.9961,240.827h -6.80315" fill="none" stroke="black"/>
<path d="M63.9961,232.735h -6.80315" fill="none" stroke="black"/>
<path d="M63.9961,224.643h -6.80315" fill="none" stroke="black"/>
<path d="M70.7992,216.551h -13.6063" fill="none" stroke="black"/>
<path d="M63.9961,208.459h -6.80315" fill="none" stroke="black"/>
<path d="M63.9961,200.367h -6.80315" fill="none" stroke="black"/>
<path d="M63.9961,192.275h -6.80315" fill="none" stroke="black"/>
<path d="M70.7992,184.183h -13.6063" fill="none" stroke="black"/>
<path d="M63.9961,176.091h -6.80315" fill="none" stroke="black"/>
<path d="M63.9961,167.999h -6.80315" fill="none" stroke="black"/>
<path d="M63.9961,159.907h -6.80315" fill="none" stroke="black"/>
<path d="M70.7992,151.815h -13.6063" fill="none" stroke="black"/>
<path d="M63.9961,143.723h -6.80315" fill="none" stroke="black"/>
<path d="M63.9961,135.631h -6.80315" fill="none" stroke="black"/>
<path d="M63.9961,127.539h -6.80315" fill="none" stroke="black"/>
<path d="M70.7992,119.447h -13.6063" fill="none" stroke="black"/>
<path d="M63.9961,111.355h -6.80315" fill="none" stroke="black"/>
<path d="M63.9961,103.264h -6.80315" fill="none" stroke="black"/>
<path d="M63.9961,95.1715h -6.80315" fill="none" stroke="black"/>
<path d="M70.7992,87.0796h -13.6063" fill="none" stroke="black"/>
<path d="M63.9961,78.9876h -6.80315" fill="none" stroke="black"/>
<path d="M63.9961,70.8957h -6.80315" fill="none" stroke="black"/>
<path d="M63.9961,62.8037h -6.80315" fill="none" stroke="black"/>
<path d="M70.7992,54.7118h -13.6063" fill="none" stroke="black"/>
<path d="M70.7992,54.7118h -13.6063" fill="none" stroke="black"/>
<path d="M63.9961,46.6198h -6.80315" fill="none" stroke="black"/>
<path d="M63.9961,38.5278h -6.80315" fill="none" stroke="black"/>
<text xml:space="preserve" x="47.7441" y="350.258" fill="black" font-size="12.8453" font-family="Helvetica">0</text>
<text xml:space="preserve" x="41.2277" y="318.49" fill="black" font-size="12.8453" font-family="Helvetica">20</text>
<text xml:space="preserve" x="41.2277" y="285.908" fill="black" font-size="12.8453" font-family="Helvetica">40</text>
<text xml:space="preserve" x="41.2277" y="253.326" fill="black" font-size="12.8453" font-family="Helvetica">60</text>
<text xml:space="preserve" x="41.2277" y="220.744" fill="black" font-size="12.8453" font-family="Helvetica">80</text>
<text xml:space="preserve" x="33.8967" y="188.976" fill="black" font-size="12.8453" font-family="Helvetica">100</text>
<text xml:space="preserve" x="33.8967" y="156.394" fill="black" font-size="12.8453" font-family="Helvetica">120</text>
<text xml:space="preserve" x="33.8967" y="123.812" fill="black" font-size="12.8453" font-family="Helvetica">140</text>
<text xml:space="preserve" x="33.8967" y="91.23" fill="black" font-size="12.8453" font-family="Helvetica">160</text>
<text xml:space="preserve" x="33.8967" y="59.4624" fill="black" font-size="12.8453" font-family="Helvetica">180</text>
<g transform="rotate(-90,20.8638,70.0516)">
<text xml:space="preserve" x="20.8638" y="70.0516" fill="black" font-size="12.8453" font-family="Helvetica">Event</text>
</g>
<text xml:space="preserve" x="243.237" y="18.7347" fill="black" font-size="16.9898" font-family="Helvetica">140mm 33</text></svg>
