<?xml version="1.0" standalone="no"?>
<svg width="567.429" height="384.969" viewBox="0 0 567.429 384.969" xmlns="http://www.w3.org/2000/svg" shape-rendering="crispEdges">
<title>
img/week2/Combined280mm_ch_49.svg
</title>
<desc>
Creator: ROOT Version 6.22/09
CreationDate: Thu Jun 24 12:07:48 2021</desc>
<defs>
</defs>
<rect x="0.5" y="0" width="566.929" height="384.469" fill="white"/>
<rect x="57.1929" y="38.4469" width="453.543" height="307.575" fill="white"/>
<rect x="57.1929" y="38.4469" width="453.543" height="307.575" fill="none" stroke="black"/>
<rect x="57.1929" y="38.4469" width="453.543" height="307.575" fill="white"/>
<rect x="57.1929" y="38.4469" width="453.543" height="307.575" fill="none" stroke="black"/>
<path d="M57.1929,346.022h 97.1879v -3.85433h 32.396v -7.70865h 32.396v -3.85433h 32.396v -165.736h 32.396v -111.775h 32.396v 254.386h 32.396v 38.5433h 161.98" fill="none" stroke="#000099"/>
<g fill="#ff0000">
<polygon points=" 295.927, 48.8577 304.398, 48.8577 300.163, 57.329"/>
</g>
<path d="M59.4606,346.022h 136.063l 4.53543, -0.0421715l 4.53543, -0.0597641l 4.53543, -0.133415l 4.53543, -0.283676l 4.53543, -0.574291l 4.53543, -1.1065l 4.53543, -2.02794l 4.53543, -3.53321l 4.53543, -5.84738l 4.53543, -9.18342l 4.53543, -13.6697l
 4.53543, -19.2537l 4.53543, -25.6045l 4.53543, -32.0511l 4.53543, -37.5989l 4.53543, -41.057l 4.53543, -41.2744l 4.53543, -37.4406l 4.53543, -29.3657" fill="none" stroke="#ff0000" stroke-width="2"/>
<path d="M295.839,38.4469l 3.9991, 21.1611" fill="none" stroke="#ff0000" stroke-width="2"/>
<path d="M299.839,59.608l 4.53543, 33.9894l 4.53543, 39.9278l 4.53543, 41.6306l 4.53543, 39.6332l 4.53543, 34.9581l 4.53543, 28.8118l 4.53543, 22.3085l 4.53543, 16.2864l 4.53543, 11.2395l 4.53543, 7.34614l 4.53543, 4.5538l 4.53543, 2.68021l 4.53543,
 1.49906l 4.53543, 0.797315l 4.53543, 0.4035l 4.53543, 0.194385l 4.53543, 0.0891787l 4.53543, 0.0654106h 126.992" fill="none" stroke="#ff0000" stroke-width="2"/>
<path d="M57.1929,346.022h 453.543" fill="none" stroke="black"/>
<path d="M135.06,336.795v 9.22726" fill="none" stroke="black"/>
<path d="M151.25,341.409v 4.61363" fill="none" stroke="black"/>
<path d="M167.44,341.409v 4.61363" fill="none" stroke="black"/>
<path d="M183.63,341.409v 4.61363" fill="none" stroke="black"/>
<path d="M199.82,341.409v 4.61363" fill="none" stroke="black"/>
<path d="M216.011,336.795v 9.22726" fill="none" stroke="black"/>
<path d="M232.201,341.409v 4.61363" fill="none" stroke="black"/>
<path d="M248.391,341.409v 4.61363" fill="none" stroke="black"/>
<path d="M264.581,341.409v 4.61363" fill="none" stroke="black"/>
<path d="M280.771,341.409v 4.61363" fill="none" stroke="black"/>
<path d="M296.961,336.795v 9.22726" fill="none" stroke="black"/>
<path d="M313.151,341.409v 4.61363" fill="none" stroke="black"/>
<path d="M329.341,341.409v 4.61363" fill="none" stroke="black"/>
<path d="M345.531,341.409v 4.61363" fill="none" stroke="black"/>
<path d="M361.721,341.409v 4.61363" fill="none" stroke="black"/>
<path d="M377.911,336.795v 9.22726" fill="none" stroke="black"/>
<path d="M394.101,341.409v 4.61363" fill="none" stroke="black"/>
<path d="M410.291,341.409v 4.61363" fill="none" stroke="black"/>
<path d="M426.481,341.409v 4.61363" fill="none" stroke="black"/>
<path d="M442.672,341.409v 4.61363" fill="none" stroke="black"/>
<path d="M458.862,336.795v 9.22726" fill="none" stroke="black"/>
<path d="M135.06,336.795v 9.22726" fill="none" stroke="black"/>
<path d="M118.87,341.409v 4.61363" fill="none" stroke="black"/>
<path d="M102.68,341.409v 4.61363" fill="none" stroke="black"/>
<path d="M86.49,341.409v 4.61363" fill="none" stroke="black"/>
<path d="M70.2999,341.409v 4.61363" fill="none" stroke="black"/>
<path d="M458.862,336.795v 9.22726" fill="none" stroke="black"/>
<path d="M475.052,341.409v 4.61363" fill="none" stroke="black"/>
<path d="M491.242,341.409v 4.61363" fill="none" stroke="black"/>
<path d="M507.432,341.409v 4.61363" fill="none" stroke="black"/>
<text xml:space="preserve" x="124.312" y="358.403" fill="black" font-size="12.8453" font-family="Helvetica">790</text>
<text xml:space="preserve" x="204.953" y="358.403" fill="black" font-size="12.8453" font-family="Helvetica">800</text>
<text xml:space="preserve" x="285.594" y="358.403" fill="black" font-size="12.8453" font-family="Helvetica">810</text>
<text xml:space="preserve" x="367.049" y="358.403" fill="black" font-size="12.8453" font-family="Helvetica">820</text>
<text xml:space="preserve" x="447.69" y="358.403" fill="black" font-size="12.8453" font-family="Helvetica">830</text>
<text xml:space="preserve" x="460.723" y="370.622" fill="black" font-size="12.8453" font-family="Helvetica">Time [ps]</text>
<path d="M57.1929,346.022v -307.575" fill="none" stroke="black"/>
<path d="M70.7992,346.022h -13.6063" fill="none" stroke="black"/>
<path d="M63.9961,338.314h -6.80315" fill="none" stroke="black"/>
<path d="M63.9961,330.605h -6.80315" fill="none" stroke="black"/>
<path d="M63.9961,322.896h -6.80315" fill="none" stroke="black"/>
<path d="M63.9961,315.188h -6.80315" fill="none" stroke="black"/>
<path d="M70.7992,307.479h -13.6063" fill="none" stroke="black"/>
<path d="M63.9961,299.77h -6.80315" fill="none" stroke="black"/>
<path d="M63.9961,292.062h -6.80315" fill="none" stroke="black"/>
<path d="M63.9961,284.353h -6.80315" fill="none" stroke="black"/>
<path d="M63.9961,276.644h -6.80315" fill="none" stroke="black"/>
<path d="M70.7992,268.936h -13.6063" fill="none" stroke="black"/>
<path d="M63.9961,261.227h -6.80315" fill="none" stroke="black"/>
<path d="M63.9961,253.518h -6.80315" fill="none" stroke="black"/>
<path d="M63.9961,245.81h -6.80315" fill="none" stroke="black"/>
<path d="M63.9961,238.101h -6.80315" fill="none" stroke="black"/>
<path d="M70.7992,230.392h -13.6063" fill="none" stroke="black"/>
<path d="M63.9961,222.684h -6.80315" fill="none" stroke="black"/>
<path d="M63.9961,214.975h -6.80315" fill="none" stroke="black"/>
<path d="M63.9961,207.266h -6.80315" fill="none" stroke="black"/>
<path d="M63.9961,199.558h -6.80315" fill="none" stroke="black"/>
<path d="M70.7992,191.849h -13.6063" fill="none" stroke="black"/>
<path d="M63.9961,184.141h -6.80315" fill="none" stroke="black"/>
<path d="M63.9961,176.432h -6.80315" fill="none" stroke="black"/>
<path d="M63.9961,168.723h -6.80315" fill="none" stroke="black"/>
<path d="M63.9961,161.015h -6.80315" fill="none" stroke="black"/>
<path d="M70.7992,153.306h -13.6063" fill="none" stroke="black"/>
<path d="M63.9961,145.597h -6.80315" fill="none" stroke="black"/>
<path d="M63.9961,137.889h -6.80315" fill="none" stroke="black"/>
<path d="M63.9961,130.18h -6.80315" fill="none" stroke="black"/>
<path d="M63.9961,122.471h -6.80315" fill="none" stroke="black"/>
<path d="M70.7992,114.763h -13.6063" fill="none" stroke="black"/>
<path d="M63.9961,107.054h -6.80315" fill="none" stroke="black"/>
<path d="M63.9961,99.3453h -6.80315" fill="none" stroke="black"/>
<path d="M63.9961,91.6366h -6.80315" fill="none" stroke="black"/>
<path d="M63.9961,83.928h -6.80315" fill="none" stroke="black"/>
<path d="M70.7992,76.2193h -13.6063" fill="none" stroke="black"/>
<path d="M70.7992,76.2193h -13.6063" fill="none" stroke="black"/>
<path d="M63.9961,68.5107h -6.80315" fill="none" stroke="black"/>
<path d="M63.9961,60.802h -6.80315" fill="none" stroke="black"/>
<path d="M63.9961,53.0934h -6.80315" fill="none" stroke="black"/>
<path d="M63.9961,45.3847h -6.80315" fill="none" stroke="black"/>
<text xml:space="preserve" x="47.7441" y="350.258" fill="black" font-size="12.8453" font-family="Helvetica">0</text>
<text xml:space="preserve" x="41.2277" y="311.974" fill="black" font-size="12.8453" font-family="Helvetica">10</text>
<text xml:space="preserve" x="41.2277" y="273.69" fill="black" font-size="12.8453" font-family="Helvetica">20</text>
<text xml:space="preserve" x="41.2277" y="234.591" fill="black" font-size="12.8453" font-family="Helvetica">30</text>
<text xml:space="preserve" x="41.2277" y="196.307" fill="black" font-size="12.8453" font-family="Helvetica">40</text>
<text xml:space="preserve" x="41.2277" y="158.023" fill="black" font-size="12.8453" font-family="Helvetica">50</text>
<text xml:space="preserve" x="41.2277" y="118.925" fill="black" font-size="12.8453" font-family="Helvetica">60</text>
<text xml:space="preserve" x="41.2277" y="80.6408" fill="black" font-size="12.8453" font-family="Helvetica">70</text>
<g transform="rotate(-90,29.0094,70.0516)">
<text xml:space="preserve" x="29.0094" y="70.0516" fill="black" font-size="12.8453" font-family="Helvetica">Event</text>
</g>
<text xml:space="preserve" x="243.237" y="18.7347" fill="black" font-size="16.9898" font-family="Helvetica">280mm 49</text></svg>
