<?xml version="1.0" standalone="no"?>
<svg width="567.429" height="386.304" viewBox="0 0 567.429 386.304" xmlns="http://www.w3.org/2000/svg" shape-rendering="crispEdges">
<title>
img/week2/Combined560mm_ch_50.svg
</title>
<desc>
Creator: ROOT Version 6.22/08
CreationDate: Tue Jun 22 00:48:07 2021</desc>
<defs>
</defs>
<rect x="0.5" y="0" width="566.929" height="385.804" fill="white"/>
<rect x="57.1929" y="38.5804" width="453.543" height="308.643" fill="white"/>
<rect x="57.1929" y="38.5804" width="453.543" height="308.643" fill="none" stroke="black"/>
<rect x="57.1929" y="38.5804" width="453.543" height="308.643" fill="white"/>
<rect x="57.1929" y="38.5804" width="453.543" height="308.643" fill="none" stroke="black"/>
<path d="M57.1929,347.224h 133.395v -12.2478h 26.679v -18.3716h 26.679v -79.6104h 26.679v -183.716h 26.679v 140.849h 26.679v 140.849h 26.679v 12.2478h 160.074" fill="none" stroke="#000099"/>
<g fill="#ff0000">
<polygon points=" 279.741, 49.0542 288.188, 49.0542 283.965, 57.5013"/>
</g>
<path d="M59.4606,347.224h 131.528l 4.53543, -0.0606326l 4.53543, -0.0790237l 4.53543, -0.168383l 4.53543, -0.342603l 4.53543, -0.6654l 4.53543, -1.23307l 4.53543, -2.17911l 4.53543, -3.67021l 4.53543, -5.88687l 4.53543, -8.98338l 4.53543, -13.0262l
 4.53543, -17.9189l 4.53543, -23.3332l 4.53543, -28.6742l 4.53543, -33.11l 4.53543, -35.6844l 4.53543, -35.5057l 4.53543, -31.9757l 4.53543, -24.993l 4.53543, -15.0629" fill="none" stroke="#ff0000" stroke-width="2"/>
<path d="M281.697,64.6709l 4.53543, -3.26078l 4.53543, 8.95557l 4.53543, 20.0419l 4.53543, 28.6882l 4.53543, 34.0726l 4.53543, 35.9801l 4.53543, 34.7668l 4.53543, 31.1972l 4.53543, 26.2206l 4.53543, 20.7544l 4.53543, 15.5276l 4.53543, 11.0091l
 4.53543, 7.41093l 4.53543, 4.74336l 4.53543, 2.88982l 4.53543, 1.67728l 4.53543, 0.928093l 4.53543, 0.489867l 4.53543, 0.246756l 4.53543, 0.118668l 4.53543, 0.0545022l 4.53543, 0.0403511h 122.457" fill="none" stroke="#ff0000" stroke-width="2"/>
<path d="M503.933,347.224h 4.53543" fill="none" stroke="#ff0000" stroke-width="2"/>
<path d="M57.1929,347.224h 453.543" fill="none" stroke="black"/>
<path d="M108.012,337.964v 9.2593" fill="none" stroke="black"/>
<path d="M121.345,342.594v 4.62965" fill="none" stroke="black"/>
<path d="M134.678,342.594v 4.62965" fill="none" stroke="black"/>
<path d="M148.011,342.594v 4.62965" fill="none" stroke="black"/>
<path d="M161.344,342.594v 4.62965" fill="none" stroke="black"/>
<path d="M174.677,337.964v 9.2593" fill="none" stroke="black"/>
<path d="M188.01,342.594v 4.62965" fill="none" stroke="black"/>
<path d="M201.343,342.594v 4.62965" fill="none" stroke="black"/>
<path d="M214.676,342.594v 4.62965" fill="none" stroke="black"/>
<path d="M228.009,342.594v 4.62965" fill="none" stroke="black"/>
<path d="M241.342,337.964v 9.2593" fill="none" stroke="black"/>
<path d="M254.675,342.594v 4.62965" fill="none" stroke="black"/>
<path d="M268.008,342.594v 4.62965" fill="none" stroke="black"/>
<path d="M281.341,342.594v 4.62965" fill="none" stroke="black"/>
<path d="M294.674,342.594v 4.62965" fill="none" stroke="black"/>
<path d="M308.007,337.964v 9.2593" fill="none" stroke="black"/>
<path d="M321.34,342.594v 4.62965" fill="none" stroke="black"/>
<path d="M334.673,342.594v 4.62965" fill="none" stroke="black"/>
<path d="M348.006,342.594v 4.62965" fill="none" stroke="black"/>
<path d="M361.339,342.594v 4.62965" fill="none" stroke="black"/>
<path d="M374.672,337.964v 9.2593" fill="none" stroke="black"/>
<path d="M388.005,342.594v 4.62965" fill="none" stroke="black"/>
<path d="M401.338,342.594v 4.62965" fill="none" stroke="black"/>
<path d="M414.671,342.594v 4.62965" fill="none" stroke="black"/>
<path d="M428.004,342.594v 4.62965" fill="none" stroke="black"/>
<path d="M441.337,337.964v 9.2593" fill="none" stroke="black"/>
<path d="M454.67,342.594v 4.62965" fill="none" stroke="black"/>
<path d="M468.003,342.594v 4.62965" fill="none" stroke="black"/>
<path d="M481.336,342.594v 4.62965" fill="none" stroke="black"/>
<path d="M494.669,342.594v 4.62965" fill="none" stroke="black"/>
<path d="M508.002,337.964v 9.2593" fill="none" stroke="black"/>
<path d="M108.012,337.964v 9.2593" fill="none" stroke="black"/>
<path d="M94.679,342.594v 4.62965" fill="none" stroke="black"/>
<path d="M81.346,342.594v 4.62965" fill="none" stroke="black"/>
<path d="M68.013,342.594v 4.62965" fill="none" stroke="black"/>
<path d="M508.002,337.964v 9.2593" fill="none" stroke="black"/>
<text xml:space="preserve" x="96.3419" y="359.813" fill="black" font-size="12.8882" font-family="Helvetica">780</text>
<text xml:space="preserve" x="162.944" y="359.813" fill="black" font-size="12.8882" font-family="Helvetica">790</text>
<text xml:space="preserve" x="229.546" y="359.813" fill="black" font-size="12.8882" font-family="Helvetica">800</text>
<text xml:space="preserve" x="296.148" y="359.813" fill="black" font-size="12.8882" font-family="Helvetica">810</text>
<text xml:space="preserve" x="362.75" y="359.813" fill="black" font-size="12.8882" font-family="Helvetica">820</text>
<text xml:space="preserve" x="429.352" y="359.813" fill="black" font-size="12.8882" font-family="Helvetica">830</text>
<text xml:space="preserve" x="495.954" y="359.813" fill="black" font-size="12.8882" font-family="Helvetica">840</text>
<text xml:space="preserve" x="481.334" y="373.621" fill="black" font-size="12.8882" font-family="Helvetica">Time</text>
<path d="M57.1929,347.224v -308.643" fill="none" stroke="black"/>
<path d="M70.7992,347.224h -13.6063" fill="none" stroke="black"/>
<path d="M63.9961,334.976h -6.80315" fill="none" stroke="black"/>
<path d="M63.9961,322.728h -6.80315" fill="none" stroke="black"/>
<path d="M63.9961,310.481h -6.80315" fill="none" stroke="black"/>
<path d="M63.9961,298.233h -6.80315" fill="none" stroke="black"/>
<path d="M70.7992,285.985h -13.6063" fill="none" stroke="black"/>
<path d="M63.9961,273.737h -6.80315" fill="none" stroke="black"/>
<path d="M63.9961,261.49h -6.80315" fill="none" stroke="black"/>
<path d="M63.9961,249.242h -6.80315" fill="none" stroke="black"/>
<path d="M63.9961,236.994h -6.80315" fill="none" stroke="black"/>
<path d="M70.7992,224.746h -13.6063" fill="none" stroke="black"/>
<path d="M63.9961,212.499h -6.80315" fill="none" stroke="black"/>
<path d="M63.9961,200.251h -6.80315" fill="none" stroke="black"/>
<path d="M63.9961,188.003h -6.80315" fill="none" stroke="black"/>
<path d="M63.9961,175.755h -6.80315" fill="none" stroke="black"/>
<path d="M70.7992,163.508h -13.6063" fill="none" stroke="black"/>
<path d="M63.9961,151.26h -6.80315" fill="none" stroke="black"/>
<path d="M63.9961,139.012h -6.80315" fill="none" stroke="black"/>
<path d="M63.9961,126.764h -6.80315" fill="none" stroke="black"/>
<path d="M63.9961,114.516h -6.80315" fill="none" stroke="black"/>
<path d="M70.7992,102.269h -13.6063" fill="none" stroke="black"/>
<path d="M63.9961,90.021h -6.80315" fill="none" stroke="black"/>
<path d="M63.9961,77.7732h -6.80315" fill="none" stroke="black"/>
<path d="M63.9961,65.5255h -6.80315" fill="none" stroke="black"/>
<path d="M63.9961,53.2777h -6.80315" fill="none" stroke="black"/>
<path d="M70.7992,41.03h -13.6063" fill="none" stroke="black"/>
<path d="M70.7992,41.03h -13.6063" fill="none" stroke="black"/>
<text xml:space="preserve" x="46.7965" y="351.691" fill="black" font-size="12.8882" font-family="Helvetica">0</text>
<text xml:space="preserve" x="39.4865" y="290.775" fill="black" font-size="12.8882" font-family="Helvetica">10</text>
<text xml:space="preserve" x="39.4865" y="229.046" fill="black" font-size="12.8882" font-family="Helvetica">20</text>
<text xml:space="preserve" x="39.4865" y="168.129" fill="black" font-size="12.8882" font-family="Helvetica">30</text>
<text xml:space="preserve" x="39.4865" y="106.401" fill="black" font-size="12.8882" font-family="Helvetica">40</text>
<text xml:space="preserve" x="39.4865" y="45.4843" fill="black" font-size="12.8882" font-family="Helvetica">50</text>
<g transform="rotate(-90,28.9277,71.4753)">
<text xml:space="preserve" x="28.9277" y="71.4753" fill="black" font-size="12.8882" font-family="Helvetica">Event</text>
</g>
<text xml:space="preserve" x="243.354" y="18.681" fill="black" font-size="17.0471" font-family="Helvetica">560mm 50</text></svg>
