<?xml version="1.0" standalone="no"?>
<svg width="567.429" height="386.304" viewBox="0 0 567.429 386.304" xmlns="http://www.w3.org/2000/svg" shape-rendering="crispEdges">
<title>
img/week2/Combined280mm_ch_50.svg
</title>
<desc>
Creator: ROOT Version 6.22/08
CreationDate: Mon Jun 21 21:11:41 2021</desc>
<defs>
</defs>
<rect x="0.5" y="0" width="566.929" height="385.804" fill="white"/>
<rect x="57.1929" y="38.5804" width="453.543" height="308.643" fill="white"/>
<rect x="57.1929" y="38.5804" width="453.543" height="308.643" fill="none" stroke="black"/>
<rect x="57.1929" y="38.5804" width="453.543" height="308.643" fill="white"/>
<rect x="57.1929" y="38.5804" width="453.543" height="308.643" fill="none" stroke="black"/>
<path d="M57.1929,347.224h 32.396v -3.89563h 32.396v 3.89563h 64.7919v -7.79126h 32.396v -46.7476h 32.396v -218.155h 32.396v 54.5388h 32.396v 210.364h 32.396v 7.79126h 161.98" fill="none" stroke="#000099"/>
<g fill="#ff0000">
<polygon points=" 263.543, 70.306 271.99, 70.306 267.767, 78.7531"/>
</g>
<path d="M59.4606,347.224h 122.457l 4.53543, -0.0416265l 4.53543, -0.0576543l 4.53543, -0.127249l 4.53543, -0.267951l 4.53543, -0.538132l 4.53543, -1.03034l 4.53543, -1.87987l 4.53543, -3.2664l 4.53543, -5.40134l 4.53543, -8.49247l 4.53543, -12.6816l
 4.53543, -17.9592l 4.53543, -24.0724l 4.53543, -30.4585l 4.53543, -36.2409l 4.53543, -40.3194l 4.53543, -41.5638l 4.53543, -39.0803l 4.53543, -32.483l 2.60433, -12.6812" fill="none" stroke="#ff0000" stroke-width="2"/>
<path d="M284.785,38.5804l 1.44719, 6.06348" fill="none" stroke="#ff0000" stroke-width="2"/>
<path d="M286.232,44.6439l 4.53543, 30.2144l 4.53543, 37.8193l 4.53543, 41.3186l 4.53543, 40.9366l 4.53543, 37.4641l 4.53543, 31.9988l 4.53543, 25.6702l 4.53543, 19.4234l 4.53543, 13.9022l 4.53543, 9.43247l 4.53543, 6.0762l 4.53543, 3.72072l 4.53543,
 2.16782l 4.53543, 1.20267l 4.53543, 0.635712l 4.53543, 0.320322l 4.53543, 0.153923l 4.53543, 0.0705616l 4.53543, 0.0519289h 131.528" fill="none" stroke="#ff0000" stroke-width="2"/>
<path d="M503.933,347.224h 4.53543" fill="none" stroke="#ff0000" stroke-width="2"/>
<rect x="351.996" y="25.0773" width="204.094" height="108.025" fill="white"/>
<path d="M351.996,133.102h 204.094" fill="none" stroke="black"/>
<path d="M556.091,133.102v -108.025" fill="none" stroke="black"/>
<path d="M556.091,25.0773h -204.094" fill="none" stroke="black"/>
<path d="M351.996,25.0773v 108.025" fill="none" stroke="black"/>
<text xml:space="preserve" x="361.938" y="38.9865" fill="black" font-size="15.6962" font-family="Helvetica">Entries </text>
<text xml:space="preserve" x="515.447" y="38.9865" fill="black" font-size="15.6962" font-family="Helvetica"> 145</text>
<text xml:space="preserve" x="375.745" y="57.6676" fill="black" font-size="15.6962" font-family="Helvetica"> / ndf </text>
<text xml:space="preserve" x="370.06" y="52.7943" fill="black" font-size="10.6308" font-family="Helvetica">2</text>
<text xml:space="preserve" x="361.938" y="57.6676" fill="black" font-size="15.6962" font-family="Times">&#0967;</text>
<text xml:space="preserve" x="481.334" y="57.6676" fill="black" font-size="15.6962" font-family="Helvetica"> 5.036 / 3</text>
<text xml:space="preserve" x="361.938" y="75.5364" fill="black" font-size="15.6962" font-family="Helvetica">Prob  </text>
<text xml:space="preserve" x="494.329" y="75.5364" fill="black" font-size="15.6962" font-family="Helvetica"> 0.1692</text>
<text xml:space="preserve" x="361.938" y="94.2175" fill="black" font-size="15.6962" font-family="Helvetica">Const    </text>
<text xml:space="preserve" x="511.386" y="93.4052" fill="black" font-size="15.6962" font-family="Helvetica"> 8.75</text>
<text xml:space="preserve" x="502.452" y="93.4052" fill="black" font-size="15.6962" font-family="Times">&#0177;</text>
<text xml:space="preserve" x="454.531" y="93.4052" fill="black" font-size="15.6962" font-family="Helvetica"> 83.96 </text>
<text xml:space="preserve" x="361.938" y="111.274" fill="black" font-size="15.6962" font-family="Helvetica">Mean     </text>
<text xml:space="preserve" x="520.32" y="111.274" fill="black" font-size="15.6962" font-family="Helvetica"> 0.3</text>
<text xml:space="preserve" x="511.386" y="111.274" fill="black" font-size="15.6962" font-family="Times">&#0177;</text>
<text xml:space="preserve" x="463.465" y="111.274" fill="black" font-size="15.6962" font-family="Helvetica"> 807.6 </text>
<text xml:space="preserve" x="361.938" y="128.331" fill="black" font-size="15.6962" font-family="Helvetica">Sigma    </text>
<text xml:space="preserve" x="502.452" y="129.143" fill="black" font-size="15.6962" font-family="Helvetica"> 0.162</text>
<text xml:space="preserve" x="493.517" y="129.143" fill="black" font-size="15.6962" font-family="Times">&#0177;</text>
<text xml:space="preserve" x="445.596" y="129.143" fill="black" font-size="15.6962" font-family="Helvetica"> 2.662 </text>
<path d="M57.1929,347.224h 453.543" fill="none" stroke="black"/>
<path d="M135.06,337.964v 9.2593" fill="none" stroke="black"/>
<path d="M151.25,342.594v 4.62965" fill="none" stroke="black"/>
<path d="M167.44,342.594v 4.62965" fill="none" stroke="black"/>
<path d="M183.63,342.594v 4.62965" fill="none" stroke="black"/>
<path d="M199.82,342.594v 4.62965" fill="none" stroke="black"/>
<path d="M216.011,337.964v 9.2593" fill="none" stroke="black"/>
<path d="M232.201,342.594v 4.62965" fill="none" stroke="black"/>
<path d="M248.391,342.594v 4.62965" fill="none" stroke="black"/>
<path d="M264.581,342.594v 4.62965" fill="none" stroke="black"/>
<path d="M280.771,342.594v 4.62965" fill="none" stroke="black"/>
<path d="M296.961,337.964v 9.2593" fill="none" stroke="black"/>
<path d="M313.151,342.594v 4.62965" fill="none" stroke="black"/>
<path d="M329.341,342.594v 4.62965" fill="none" stroke="black"/>
<path d="M345.531,342.594v 4.62965" fill="none" stroke="black"/>
<path d="M361.721,342.594v 4.62965" fill="none" stroke="black"/>
<path d="M377.911,337.964v 9.2593" fill="none" stroke="black"/>
<path d="M394.101,342.594v 4.62965" fill="none" stroke="black"/>
<path d="M410.291,342.594v 4.62965" fill="none" stroke="black"/>
<path d="M426.481,342.594v 4.62965" fill="none" stroke="black"/>
<path d="M442.672,342.594v 4.62965" fill="none" stroke="black"/>
<path d="M458.862,337.964v 9.2593" fill="none" stroke="black"/>
<path d="M135.06,337.964v 9.2593" fill="none" stroke="black"/>
<path d="M118.87,342.594v 4.62965" fill="none" stroke="black"/>
<path d="M102.68,342.594v 4.62965" fill="none" stroke="black"/>
<path d="M86.49,342.594v 4.62965" fill="none" stroke="black"/>
<path d="M70.2999,342.594v 4.62965" fill="none" stroke="black"/>
<path d="M458.862,337.964v 9.2593" fill="none" stroke="black"/>
<path d="M475.052,342.594v 4.62965" fill="none" stroke="black"/>
<path d="M491.242,342.594v 4.62965" fill="none" stroke="black"/>
<path d="M507.432,342.594v 4.62965" fill="none" stroke="black"/>
<text xml:space="preserve" x="123.145" y="359.813" fill="black" font-size="12.8882" font-family="Helvetica">790</text>
<text xml:space="preserve" x="204.367" y="359.813" fill="black" font-size="12.8882" font-family="Helvetica">800</text>
<text xml:space="preserve" x="285.589" y="359.813" fill="black" font-size="12.8882" font-family="Helvetica">810</text>
<text xml:space="preserve" x="365.999" y="359.813" fill="black" font-size="12.8882" font-family="Helvetica">820</text>
<text xml:space="preserve" x="447.221" y="359.813" fill="black" font-size="12.8882" font-family="Helvetica">830</text>
<text xml:space="preserve" x="481.334" y="373.621" fill="black" font-size="12.8882" font-family="Helvetica">Time</text>
<path d="M57.1929,347.224v -308.643" fill="none" stroke="black"/>
<path d="M70.7992,347.224h -13.6063" fill="none" stroke="black"/>
<path d="M63.9961,339.433h -6.80315" fill="none" stroke="black"/>
<path d="M63.9961,331.641h -6.80315" fill="none" stroke="black"/>
<path d="M63.9961,323.85h -6.80315" fill="none" stroke="black"/>
<path d="M63.9961,316.059h -6.80315" fill="none" stroke="black"/>
<path d="M70.7992,308.267h -13.6063" fill="none" stroke="black"/>
<path d="M63.9961,300.476h -6.80315" fill="none" stroke="black"/>
<path d="M63.9961,292.685h -6.80315" fill="none" stroke="black"/>
<path d="M63.9961,284.894h -6.80315" fill="none" stroke="black"/>
<path d="M63.9961,277.102h -6.80315" fill="none" stroke="black"/>
<path d="M70.7992,269.311h -13.6063" fill="none" stroke="black"/>
<path d="M63.9961,261.52h -6.80315" fill="none" stroke="black"/>
<path d="M63.9961,253.729h -6.80315" fill="none" stroke="black"/>
<path d="M63.9961,245.937h -6.80315" fill="none" stroke="black"/>
<path d="M63.9961,238.146h -6.80315" fill="none" stroke="black"/>
<path d="M70.7992,230.355h -13.6063" fill="none" stroke="black"/>
<path d="M63.9961,222.564h -6.80315" fill="none" stroke="black"/>
<path d="M63.9961,214.772h -6.80315" fill="none" stroke="black"/>
<path d="M63.9961,206.981h -6.80315" fill="none" stroke="black"/>
<path d="M63.9961,199.19h -6.80315" fill="none" stroke="black"/>
<path d="M70.7992,191.399h -13.6063" fill="none" stroke="black"/>
<path d="M63.9961,183.607h -6.80315" fill="none" stroke="black"/>
<path d="M63.9961,175.816h -6.80315" fill="none" stroke="black"/>
<path d="M63.9961,168.025h -6.80315" fill="none" stroke="black"/>
<path d="M63.9961,160.233h -6.80315" fill="none" stroke="black"/>
<path d="M70.7992,152.442h -13.6063" fill="none" stroke="black"/>
<path d="M63.9961,144.651h -6.80315" fill="none" stroke="black"/>
<path d="M63.9961,136.86h -6.80315" fill="none" stroke="black"/>
<path d="M63.9961,129.068h -6.80315" fill="none" stroke="black"/>
<path d="M63.9961,121.277h -6.80315" fill="none" stroke="black"/>
<path d="M70.7992,113.486h -13.6063" fill="none" stroke="black"/>
<path d="M63.9961,105.695h -6.80315" fill="none" stroke="black"/>
<path d="M63.9961,97.9033h -6.80315" fill="none" stroke="black"/>
<path d="M63.9961,90.1121h -6.80315" fill="none" stroke="black"/>
<path d="M63.9961,82.3208h -6.80315" fill="none" stroke="black"/>
<path d="M70.7992,74.5295h -13.6063" fill="none" stroke="black"/>
<path d="M70.7992,74.5295h -13.6063" fill="none" stroke="black"/>
<path d="M63.9961,66.7383h -6.80315" fill="none" stroke="black"/>
<path d="M63.9961,58.947h -6.80315" fill="none" stroke="black"/>
<path d="M63.9961,51.1558h -6.80315" fill="none" stroke="black"/>
<path d="M63.9961,43.3645h -6.80315" fill="none" stroke="black"/>
<text xml:space="preserve" x="46.7965" y="351.691" fill="black" font-size="12.8882" font-family="Helvetica">0</text>
<text xml:space="preserve" x="39.4865" y="312.704" fill="black" font-size="12.8882" font-family="Helvetica">10</text>
<text xml:space="preserve" x="39.4865" y="273.718" fill="black" font-size="12.8882" font-family="Helvetica">20</text>
<text xml:space="preserve" x="39.4865" y="234.731" fill="black" font-size="12.8882" font-family="Helvetica">30</text>
<text xml:space="preserve" x="39.4865" y="195.745" fill="black" font-size="12.8882" font-family="Helvetica">40</text>
<text xml:space="preserve" x="39.4865" y="156.758" fill="black" font-size="12.8882" font-family="Helvetica">50</text>
<text xml:space="preserve" x="39.4865" y="117.772" fill="black" font-size="12.8882" font-family="Helvetica">60</text>
<text xml:space="preserve" x="39.4865" y="78.7853" fill="black" font-size="12.8882" font-family="Helvetica">70</text>
<g transform="rotate(-90,28.9277,71.4753)">
<text xml:space="preserve" x="28.9277" y="71.4753" fill="black" font-size="12.8882" font-family="Helvetica">Event</text>
</g>
<rect x="351.996" y="25.0773" width="204.094" height="108.025" fill="white"/>
<path d="M351.996,133.102h 204.094" fill="none" stroke="black"/>
<path d="M556.091,133.102v -108.025" fill="none" stroke="black"/>
<path d="M556.091,25.0773h -204.094" fill="none" stroke="black"/>
<path d="M351.996,25.0773v 108.025" fill="none" stroke="black"/>
<text xml:space="preserve" x="361.938" y="38.9865" fill="black" font-size="15.6962" font-family="Helvetica">Entries </text>
<text xml:space="preserve" x="515.447" y="38.9865" fill="black" font-size="15.6962" font-family="Helvetica"> 145</text>
<text xml:space="preserve" x="375.745" y="57.6676" fill="black" font-size="15.6962" font-family="Helvetica"> / ndf </text>
<text xml:space="preserve" x="370.06" y="52.7943" fill="black" font-size="10.6308" font-family="Helvetica">2</text>
<text xml:space="preserve" x="361.938" y="57.6676" fill="black" font-size="15.6962" font-family="Times">&#0967;</text>
<text xml:space="preserve" x="481.334" y="57.6676" fill="black" font-size="15.6962" font-family="Helvetica"> 5.036 / 3</text>
<text xml:space="preserve" x="361.938" y="75.5364" fill="black" font-size="15.6962" font-family="Helvetica">Prob  </text>
<text xml:space="preserve" x="494.329" y="75.5364" fill="black" font-size="15.6962" font-family="Helvetica"> 0.1692</text>
<text xml:space="preserve" x="361.938" y="94.2175" fill="black" font-size="15.6962" font-family="Helvetica">Const    </text>
<text xml:space="preserve" x="511.386" y="93.4052" fill="black" font-size="15.6962" font-family="Helvetica"> 8.75</text>
<text xml:space="preserve" x="502.452" y="93.4052" fill="black" font-size="15.6962" font-family="Times">&#0177;</text>
<text xml:space="preserve" x="454.531" y="93.4052" fill="black" font-size="15.6962" font-family="Helvetica"> 83.96 </text>
<text xml:space="preserve" x="361.938" y="111.274" fill="black" font-size="15.6962" font-family="Helvetica">Mean     </text>
<text xml:space="preserve" x="520.32" y="111.274" fill="black" font-size="15.6962" font-family="Helvetica"> 0.3</text>
<text xml:space="preserve" x="511.386" y="111.274" fill="black" font-size="15.6962" font-family="Times">&#0177;</text>
<text xml:space="preserve" x="463.465" y="111.274" fill="black" font-size="15.6962" font-family="Helvetica"> 807.6 </text>
<text xml:space="preserve" x="361.938" y="128.331" fill="black" font-size="15.6962" font-family="Helvetica">Sigma    </text>
<text xml:space="preserve" x="502.452" y="129.143" fill="black" font-size="15.6962" font-family="Helvetica"> 0.162</text>
<text xml:space="preserve" x="493.517" y="129.143" fill="black" font-size="15.6962" font-family="Times">&#0177;</text>
<text xml:space="preserve" x="445.596" y="129.143" fill="black" font-size="15.6962" font-family="Helvetica"> 2.662 </text>
<text xml:space="preserve" x="243.354" y="18.681" fill="black" font-size="17.0471" font-family="Helvetica">280mm 50</text></svg>
