<?xml version="1.0" standalone="no"?>
<svg width="567.429" height="384.969" viewBox="0 0 567.429 384.969" xmlns="http://www.w3.org/2000/svg" shape-rendering="crispEdges">
<title>
img/week2/Combined0mm_ch_59.svg
</title>
<desc>
Creator: ROOT Version 6.22/09
CreationDate: Thu Jun 24 12:33:04 2021</desc>
<defs>
</defs>
<rect x="0.5" y="0" width="566.929" height="384.469" fill="white"/>
<rect x="57.1929" y="38.4469" width="453.543" height="307.575" fill="white"/>
<rect x="57.1929" y="38.4469" width="453.543" height="307.575" fill="none" stroke="black"/>
<rect x="57.1929" y="38.4469" width="453.543" height="307.575" fill="white"/>
<rect x="57.1929" y="38.4469" width="453.543" height="307.575" fill="none" stroke="black"/>
<path d="M57.1929,346.022h 133.395v -5.93826h 26.679v -11.8765h 26.679v -154.395h 26.679v -118.765h 26.679v 190.024h 26.679v 100.95h 186.753" fill="none" stroke="#000099"/>
<g fill="#ff0000">
<polygon points=" 279.729, 50.8121 288.2, 50.8121 283.965, 59.2834"/>
</g>
<path d="M59.4606,346.022h 126.992l 4.53543, -0.0393062l 4.53543, -0.0564984l 4.53543, -0.127039l 4.53543, -0.271812l 4.53543, -0.553185l 4.53543, -1.0704l 4.53543, -1.9682l 4.53543, -3.43679l 4.53543, -5.69437l 4.53543, -8.94342l 4.53543, -13.2971l
 4.53543, -18.6834l 4.53543, -24.7508l 4.53543, -30.813l 4.53543, -35.8774l 4.53543, -38.7833l 4.53543, -38.4472l 4.53543, -34.1612l 4.53543, -25.8571l 4.53543, -14.2357l 4.53543, -0.695761" fill="none" stroke="#ff0000" stroke-width="2"/>
<path d="M281.697,48.2592l 4.53543, 12.9396l 4.53543, 24.8256l 4.53543, 33.5059l 4.53543, 38.203l 4.53543, 38.9112l 4.53543, 36.2847l 4.53543, 31.3831l 4.53543, 25.3717l 4.53543, 19.2684l 4.53543, 13.7928l 4.53543, 9.32865l 4.53543, 5.97192l 4.53543,
 3.62347l 4.53543, 2.08595l 4.53543, 1.14028l 4.53543, 0.592298l 4.53543, 0.292498l 4.53543, 0.137391l 4.53543, 0.0614055l 4.53543, 0.043061h 131.528" fill="none" stroke="#ff0000" stroke-width="2"/>
<path d="M503.933,346.022h 4.53543" fill="none" stroke="#ff0000" stroke-width="2"/>
<path d="M57.1929,346.022h 453.543" fill="none" stroke="black"/>
<path d="M81.3329,336.795v 9.22726" fill="none" stroke="black"/>
<path d="M94.6659,341.409v 4.61363" fill="none" stroke="black"/>
<path d="M107.999,341.409v 4.61363" fill="none" stroke="black"/>
<path d="M121.332,341.409v 4.61363" fill="none" stroke="black"/>
<path d="M134.665,341.409v 4.61363" fill="none" stroke="black"/>
<path d="M147.998,336.795v 9.22726" fill="none" stroke="black"/>
<path d="M161.331,341.409v 4.61363" fill="none" stroke="black"/>
<path d="M174.664,341.409v 4.61363" fill="none" stroke="black"/>
<path d="M187.997,341.409v 4.61363" fill="none" stroke="black"/>
<path d="M201.33,341.409v 4.61363" fill="none" stroke="black"/>
<path d="M214.663,336.795v 9.22726" fill="none" stroke="black"/>
<path d="M227.996,341.409v 4.61363" fill="none" stroke="black"/>
<path d="M241.329,341.409v 4.61363" fill="none" stroke="black"/>
<path d="M254.662,341.409v 4.61363" fill="none" stroke="black"/>
<path d="M267.995,341.409v 4.61363" fill="none" stroke="black"/>
<path d="M281.328,336.795v 9.22726" fill="none" stroke="black"/>
<path d="M294.661,341.409v 4.61363" fill="none" stroke="black"/>
<path d="M307.994,341.409v 4.61363" fill="none" stroke="black"/>
<path d="M321.327,341.409v 4.61363" fill="none" stroke="black"/>
<path d="M334.66,341.409v 4.61363" fill="none" stroke="black"/>
<path d="M347.993,336.795v 9.22726" fill="none" stroke="black"/>
<path d="M361.326,341.409v 4.61363" fill="none" stroke="black"/>
<path d="M374.659,341.409v 4.61363" fill="none" stroke="black"/>
<path d="M387.992,341.409v 4.61363" fill="none" stroke="black"/>
<path d="M401.325,341.409v 4.61363" fill="none" stroke="black"/>
<path d="M414.658,336.795v 9.22726" fill="none" stroke="black"/>
<path d="M427.991,341.409v 4.61363" fill="none" stroke="black"/>
<path d="M441.324,341.409v 4.61363" fill="none" stroke="black"/>
<path d="M454.657,341.409v 4.61363" fill="none" stroke="black"/>
<path d="M467.99,341.409v 4.61363" fill="none" stroke="black"/>
<path d="M481.323,336.795v 9.22726" fill="none" stroke="black"/>
<path d="M81.3329,336.795v 9.22726" fill="none" stroke="black"/>
<path d="M67.9999,341.409v 4.61363" fill="none" stroke="black"/>
<path d="M481.323,336.795v 9.22726" fill="none" stroke="black"/>
<path d="M494.656,341.409v 4.61363" fill="none" stroke="black"/>
<path d="M507.989,341.409v 4.61363" fill="none" stroke="black"/>
<text xml:space="preserve" x="70.5516" y="358.403" fill="black" font-size="12.8453" font-family="Helvetica">780</text>
<text xml:space="preserve" x="137.345" y="358.403" fill="black" font-size="12.8453" font-family="Helvetica">790</text>
<text xml:space="preserve" x="203.324" y="358.403" fill="black" font-size="12.8453" font-family="Helvetica">800</text>
<text xml:space="preserve" x="270.117" y="358.403" fill="black" font-size="12.8453" font-family="Helvetica">810</text>
<text xml:space="preserve" x="336.911" y="358.403" fill="black" font-size="12.8453" font-family="Helvetica">820</text>
<text xml:space="preserve" x="403.704" y="358.403" fill="black" font-size="12.8453" font-family="Helvetica">830</text>
<text xml:space="preserve" x="470.497" y="358.403" fill="black" font-size="12.8453" font-family="Helvetica">840</text>
<text xml:space="preserve" x="460.723" y="370.622" fill="black" font-size="12.8453" font-family="Helvetica">Time [ns]</text>
<path d="M57.1929,346.022v -307.575" fill="none" stroke="black"/>
<path d="M70.7992,346.022h -13.6063" fill="none" stroke="black"/>
<path d="M63.9961,334.146h -6.80315" fill="none" stroke="black"/>
<path d="M63.9961,322.269h -6.80315" fill="none" stroke="black"/>
<path d="M63.9961,310.393h -6.80315" fill="none" stroke="black"/>
<path d="M63.9961,298.516h -6.80315" fill="none" stroke="black"/>
<path d="M70.7992,286.64h -13.6063" fill="none" stroke="black"/>
<path d="M63.9961,274.763h -6.80315" fill="none" stroke="black"/>
<path d="M63.9961,262.887h -6.80315" fill="none" stroke="black"/>
<path d="M63.9961,251.01h -6.80315" fill="none" stroke="black"/>
<path d="M63.9961,239.134h -6.80315" fill="none" stroke="black"/>
<path d="M70.7992,227.257h -13.6063" fill="none" stroke="black"/>
<path d="M63.9961,215.381h -6.80315" fill="none" stroke="black"/>
<path d="M63.9961,203.504h -6.80315" fill="none" stroke="black"/>
<path d="M63.9961,191.628h -6.80315" fill="none" stroke="black"/>
<path d="M63.9961,179.751h -6.80315" fill="none" stroke="black"/>
<path d="M70.7992,167.875h -13.6063" fill="none" stroke="black"/>
<path d="M63.9961,155.998h -6.80315" fill="none" stroke="black"/>
<path d="M63.9961,144.122h -6.80315" fill="none" stroke="black"/>
<path d="M63.9961,132.245h -6.80315" fill="none" stroke="black"/>
<path d="M63.9961,120.369h -6.80315" fill="none" stroke="black"/>
<path d="M70.7992,108.492h -13.6063" fill="none" stroke="black"/>
<path d="M63.9961,96.6155h -6.80315" fill="none" stroke="black"/>
<path d="M63.9961,84.739h -6.80315" fill="none" stroke="black"/>
<path d="M63.9961,72.8625h -6.80315" fill="none" stroke="black"/>
<path d="M63.9961,60.986h -6.80315" fill="none" stroke="black"/>
<path d="M70.7992,49.1095h -13.6063" fill="none" stroke="black"/>
<path d="M70.7992,49.1095h -13.6063" fill="none" stroke="black"/>
<text xml:space="preserve" x="47.7441" y="350.258" fill="black" font-size="12.8453" font-family="Helvetica">0</text>
<text xml:space="preserve" x="41.2277" y="290.796" fill="black" font-size="12.8453" font-family="Helvetica">10</text>
<text xml:space="preserve" x="41.2277" y="231.333" fill="black" font-size="12.8453" font-family="Helvetica">20</text>
<text xml:space="preserve" x="41.2277" y="172.685" fill="black" font-size="12.8453" font-family="Helvetica">30</text>
<text xml:space="preserve" x="41.2277" y="113.223" fill="black" font-size="12.8453" font-family="Helvetica">40</text>
<text xml:space="preserve" x="41.2277" y="53.7605" fill="black" font-size="12.8453" font-family="Helvetica">50</text>
<g transform="rotate(-90,29.0094,70.0516)">
<text xml:space="preserve" x="29.0094" y="70.0516" fill="black" font-size="12.8453" font-family="Helvetica">Event</text>
</g>
<text xml:space="preserve" x="253.012" y="18.7347" fill="black" font-size="16.9898" font-family="Helvetica">0mm 59</text></svg>
