<?xml version="1.0" standalone="no"?>
<svg width="567.429" height="384.969" viewBox="0 0 567.429 384.969" xmlns="http://www.w3.org/2000/svg" shape-rendering="crispEdges">
<title>
img/week2/Combined560mm_ch_54.svg
</title>
<desc>
Creator: ROOT Version 6.22/09
CreationDate: Thu Jun 24 12:33:05 2021</desc>
<defs>
</defs>
<rect x="0.5" y="0" width="566.929" height="384.469" fill="white"/>
<rect x="57.1929" y="38.4469" width="453.543" height="307.575" fill="white"/>
<rect x="57.1929" y="38.4469" width="453.543" height="307.575" fill="none" stroke="black"/>
<rect x="57.1929" y="38.4469" width="453.543" height="307.575" fill="white"/>
<rect x="57.1929" y="38.4469" width="453.543" height="307.575" fill="none" stroke="black"/>
<path d="M57.1929,346.022h 106.716v -6.65747h 26.679v 6.65747h 26.679v -13.3149h 26.679v -86.5472h 26.679v -193.067h 26.679v 146.464h 26.679v 146.464h 186.753" fill="none" stroke="#000099"/>
<g fill="#ff0000">
<polygon points=" 279.729, 48.8577 288.2, 48.8577 283.965, 57.329"/>
</g>
<path d="M59.4606,346.022h 136.063l 4.53543, -0.0627347l 4.53543, -0.0854252l 4.53543, -0.185941l 4.53543, -0.385261l 4.53543, -0.759547l 4.53543, -1.42417l 4.53543, -2.53819l 4.53543, -4.29663l 4.53543, -6.90213l 4.53543, -10.5098l 4.53543,
 -15.1465l 4.53543, -20.6199l 4.53543, -26.4444l 4.53543, -31.8256l 4.53543, -35.7359l 4.53543, -37.0945l 4.53543, -35.0265l 4.53543, -29.1349l 4.53543, -19.6941" fill="none" stroke="#ff0000" stroke-width="2"/>
<path d="M281.697,68.15l 4.53543, -7.68596l 4.53543, 5.3584l 4.53543, 17.6784l 4.53543, 27.6742l 4.53543, 34.2478l 4.53543, 36.994l 4.53543, 36.1996l 4.53543, 32.6721l 4.53543, 27.4758l 4.53543, 21.6641l 4.53543, 16.0823l 4.53543, 11.2725l 4.53543,
 7.476l 4.53543, 4.6986l 4.53543, 2.80181l 4.53543, 1.58667l 4.53543, 0.853956l 4.53543, 0.437071l 4.53543, 0.212839l 4.53543, 0.0986539l 4.53543, 0.0735087h 126.992" fill="none" stroke="#ff0000" stroke-width="2"/>
<path d="M503.933,346.022h 4.53543" fill="none" stroke="#ff0000" stroke-width="2"/>
<path d="M57.1929,346.022h 453.543" fill="none" stroke="black"/>
<path d="M108.012,336.795v 9.22726" fill="none" stroke="black"/>
<path d="M121.345,341.409v 4.61363" fill="none" stroke="black"/>
<path d="M134.678,341.409v 4.61363" fill="none" stroke="black"/>
<path d="M148.011,341.409v 4.61363" fill="none" stroke="black"/>
<path d="M161.344,341.409v 4.61363" fill="none" stroke="black"/>
<path d="M174.677,336.795v 9.22726" fill="none" stroke="black"/>
<path d="M188.01,341.409v 4.61363" fill="none" stroke="black"/>
<path d="M201.343,341.409v 4.61363" fill="none" stroke="black"/>
<path d="M214.676,341.409v 4.61363" fill="none" stroke="black"/>
<path d="M228.009,341.409v 4.61363" fill="none" stroke="black"/>
<path d="M241.342,336.795v 9.22726" fill="none" stroke="black"/>
<path d="M254.675,341.409v 4.61363" fill="none" stroke="black"/>
<path d="M268.008,341.409v 4.61363" fill="none" stroke="black"/>
<path d="M281.341,341.409v 4.61363" fill="none" stroke="black"/>
<path d="M294.674,341.409v 4.61363" fill="none" stroke="black"/>
<path d="M308.007,336.795v 9.22726" fill="none" stroke="black"/>
<path d="M321.34,341.409v 4.61363" fill="none" stroke="black"/>
<path d="M334.673,341.409v 4.61363" fill="none" stroke="black"/>
<path d="M348.006,341.409v 4.61363" fill="none" stroke="black"/>
<path d="M361.339,341.409v 4.61363" fill="none" stroke="black"/>
<path d="M374.672,336.795v 9.22726" fill="none" stroke="black"/>
<path d="M388.005,341.409v 4.61363" fill="none" stroke="black"/>
<path d="M401.338,341.409v 4.61363" fill="none" stroke="black"/>
<path d="M414.671,341.409v 4.61363" fill="none" stroke="black"/>
<path d="M428.004,341.409v 4.61363" fill="none" stroke="black"/>
<path d="M441.337,336.795v 9.22726" fill="none" stroke="black"/>
<path d="M454.67,341.409v 4.61363" fill="none" stroke="black"/>
<path d="M468.003,341.409v 4.61363" fill="none" stroke="black"/>
<path d="M481.336,341.409v 4.61363" fill="none" stroke="black"/>
<path d="M494.669,341.409v 4.61363" fill="none" stroke="black"/>
<path d="M508.002,336.795v 9.22726" fill="none" stroke="black"/>
<path d="M108.012,336.795v 9.22726" fill="none" stroke="black"/>
<path d="M94.679,341.409v 4.61363" fill="none" stroke="black"/>
<path d="M81.346,341.409v 4.61363" fill="none" stroke="black"/>
<path d="M68.013,341.409v 4.61363" fill="none" stroke="black"/>
<path d="M508.002,336.795v 9.22726" fill="none" stroke="black"/>
<text xml:space="preserve" x="96.6173" y="358.403" fill="black" font-size="12.8453" font-family="Helvetica">780</text>
<text xml:space="preserve" x="163.411" y="358.403" fill="black" font-size="12.8453" font-family="Helvetica">790</text>
<text xml:space="preserve" x="230.204" y="358.403" fill="black" font-size="12.8453" font-family="Helvetica">800</text>
<text xml:space="preserve" x="296.997" y="358.403" fill="black" font-size="12.8453" font-family="Helvetica">810</text>
<text xml:space="preserve" x="363.791" y="358.403" fill="black" font-size="12.8453" font-family="Helvetica">820</text>
<text xml:space="preserve" x="430.584" y="358.403" fill="black" font-size="12.8453" font-family="Helvetica">830</text>
<text xml:space="preserve" x="497.378" y="358.403" fill="black" font-size="12.8453" font-family="Helvetica">840</text>
<text xml:space="preserve" x="460.723" y="370.622" fill="black" font-size="12.8453" font-family="Helvetica">Time [ns]</text>
<path d="M57.1929,346.022v -307.575" fill="none" stroke="black"/>
<path d="M70.7992,346.022h -13.6063" fill="none" stroke="black"/>
<path d="M63.9961,339.365h -6.80315" fill="none" stroke="black"/>
<path d="M63.9961,332.707h -6.80315" fill="none" stroke="black"/>
<path d="M63.9961,326.05h -6.80315" fill="none" stroke="black"/>
<path d="M63.9961,319.392h -6.80315" fill="none" stroke="black"/>
<path d="M70.7992,312.735h -13.6063" fill="none" stroke="black"/>
<path d="M63.9961,306.077h -6.80315" fill="none" stroke="black"/>
<path d="M63.9961,299.42h -6.80315" fill="none" stroke="black"/>
<path d="M63.9961,292.762h -6.80315" fill="none" stroke="black"/>
<path d="M63.9961,286.105h -6.80315" fill="none" stroke="black"/>
<path d="M70.7992,279.448h -13.6063" fill="none" stroke="black"/>
<path d="M63.9961,272.79h -6.80315" fill="none" stroke="black"/>
<path d="M63.9961,266.133h -6.80315" fill="none" stroke="black"/>
<path d="M63.9961,259.475h -6.80315" fill="none" stroke="black"/>
<path d="M63.9961,252.818h -6.80315" fill="none" stroke="black"/>
<path d="M70.7992,246.16h -13.6063" fill="none" stroke="black"/>
<path d="M63.9961,239.503h -6.80315" fill="none" stroke="black"/>
<path d="M63.9961,232.845h -6.80315" fill="none" stroke="black"/>
<path d="M63.9961,226.188h -6.80315" fill="none" stroke="black"/>
<path d="M63.9961,219.53h -6.80315" fill="none" stroke="black"/>
<path d="M70.7992,212.873h -13.6063" fill="none" stroke="black"/>
<path d="M63.9961,206.215h -6.80315" fill="none" stroke="black"/>
<path d="M63.9961,199.558h -6.80315" fill="none" stroke="black"/>
<path d="M63.9961,192.9h -6.80315" fill="none" stroke="black"/>
<path d="M63.9961,186.243h -6.80315" fill="none" stroke="black"/>
<path d="M70.7992,179.585h -13.6063" fill="none" stroke="black"/>
<path d="M63.9961,172.928h -6.80315" fill="none" stroke="black"/>
<path d="M63.9961,166.27h -6.80315" fill="none" stroke="black"/>
<path d="M63.9961,159.613h -6.80315" fill="none" stroke="black"/>
<path d="M63.9961,152.955h -6.80315" fill="none" stroke="black"/>
<path d="M70.7992,146.298h -13.6063" fill="none" stroke="black"/>
<path d="M63.9961,139.641h -6.80315" fill="none" stroke="black"/>
<path d="M63.9961,132.983h -6.80315" fill="none" stroke="black"/>
<path d="M63.9961,126.326h -6.80315" fill="none" stroke="black"/>
<path d="M63.9961,119.668h -6.80315" fill="none" stroke="black"/>
<path d="M70.7992,113.011h -13.6063" fill="none" stroke="black"/>
<path d="M63.9961,106.353h -6.80315" fill="none" stroke="black"/>
<path d="M63.9961,99.6957h -6.80315" fill="none" stroke="black"/>
<path d="M63.9961,93.0382h -6.80315" fill="none" stroke="black"/>
<path d="M63.9961,86.3807h -6.80315" fill="none" stroke="black"/>
<path d="M70.7992,79.7233h -13.6063" fill="none" stroke="black"/>
<path d="M63.9961,73.0658h -6.80315" fill="none" stroke="black"/>
<path d="M63.9961,66.4083h -6.80315" fill="none" stroke="black"/>
<path d="M63.9961,59.7508h -6.80315" fill="none" stroke="black"/>
<path d="M63.9961,53.0934h -6.80315" fill="none" stroke="black"/>
<path d="M70.7992,46.4359h -13.6063" fill="none" stroke="black"/>
<path d="M70.7992,46.4359h -13.6063" fill="none" stroke="black"/>
<path d="M63.9961,39.7784h -6.80315" fill="none" stroke="black"/>
<text xml:space="preserve" x="47.7441" y="350.258" fill="black" font-size="12.8453" font-family="Helvetica">0</text>
<text xml:space="preserve" x="47.7441" y="316.861" fill="black" font-size="12.8453" font-family="Helvetica">5</text>
<text xml:space="preserve" x="41.2277" y="284.279" fill="black" font-size="12.8453" font-family="Helvetica">10</text>
<text xml:space="preserve" x="40.4131" y="250.882" fill="black" font-size="12.8453" font-family="Helvetica">15</text>
<text xml:space="preserve" x="41.2277" y="217.486" fill="black" font-size="12.8453" font-family="Helvetica">20</text>
<text xml:space="preserve" x="40.4131" y="184.089" fill="black" font-size="12.8453" font-family="Helvetica">25</text>
<text xml:space="preserve" x="41.2277" y="150.692" fill="black" font-size="12.8453" font-family="Helvetica">30</text>
<text xml:space="preserve" x="40.4131" y="117.296" fill="black" font-size="12.8453" font-family="Helvetica">35</text>
<text xml:space="preserve" x="41.2277" y="83.899" fill="black" font-size="12.8453" font-family="Helvetica">40</text>
<text xml:space="preserve" x="40.4131" y="51.3169" fill="black" font-size="12.8453" font-family="Helvetica">45</text>
<g transform="rotate(-90,28.1948,70.0516)">
<text xml:space="preserve" x="28.1948" y="70.0516" fill="black" font-size="12.8453" font-family="Helvetica">Event</text>
</g>
<text xml:space="preserve" x="243.237" y="18.7347" fill="black" font-size="16.9898" font-family="Helvetica">560mm 54</text></svg>
