<?xml version="1.0" standalone="no"?>
<svg width="567.429" height="384.969" viewBox="0 0 567.429 384.969" xmlns="http://www.w3.org/2000/svg" shape-rendering="crispEdges">
<title>
img/week2/Combined420mm_ch_53.svg
</title>
<desc>
Creator: ROOT Version 6.22/09
CreationDate: Thu Jun 24 12:12:14 2021</desc>
<defs>
</defs>
<rect x="0.5" y="0" width="566.929" height="384.469" fill="white"/>
<rect x="57.1929" y="38.4469" width="453.543" height="307.575" fill="white"/>
<rect x="57.1929" y="38.4469" width="453.543" height="307.575" fill="none" stroke="black"/>
<rect x="57.1929" y="38.4469" width="453.543" height="307.575" fill="white"/>
<rect x="57.1929" y="38.4469" width="453.543" height="307.575" fill="none" stroke="black"/>
<path d="M57.1929,346.022h 120.945v -5.47414h 30.2362v -49.2673h 30.2362v -38.319h 30.2362v -180.647h 30.2362v 93.0604h 30.2362v 175.172h 30.2362v 5.47414h 151.181" fill="none" stroke="#000099"/>
<g fill="#ff0000">
<polygon points=" 279.729, 68.0796 288.2, 68.0796 283.965, 76.5509"/>
</g>
<path d="M59.4606,346.022h 131.528l 4.53543, -0.061686l 4.53543, -0.0779553l 4.53543, -0.163653l 4.53543, -0.328736l 4.53543, -0.631642l 4.53543, -1.16045l 4.53543, -2.03755l 4.53543, -3.41721l 4.53543, -5.4703l 4.53543, -8.35123l 4.53543, -12.1454l
 4.53543, -16.8025l 4.53543, -22.0707l 4.53543, -27.4548l 4.53543, -32.2249l 4.53543, -35.4958l 4.53543, -36.3793l 4.53543, -34.1843l 4.53543, -28.6178l 4.53543, -19.9233" fill="none" stroke="#ff0000" stroke-width="2"/>
<path d="M281.697,59.0232l 4.53543, -8.9042l 4.53543, 3.19006l 4.53543, 14.8966l 4.53543, 24.8301l 4.53543, 31.9522l 4.53543, 35.7471l 4.53543, 36.2638l 4.53543, 34.0263l 4.53543, 29.8554l 4.53543, 24.6604l 4.53543, 19.2598l 4.53543, 14.2659l
 4.53543, 10.0435l 4.53543, 6.73158l 4.53543, 4.30067l 4.53543, 2.62158l 4.53543, 1.52593l 4.53543, 0.848636l 4.53543, 0.451176l 4.53543, 0.229401l 4.53543, 0.11159l 4.53543, 0.0519473l 4.53543, 0.0395532h 117.921" fill="none" stroke="#ff0000"
 stroke-width="2"/>
<path d="M503.933,346.022h 4.53543" fill="none" stroke="#ff0000" stroke-width="2"/>
<path d="M57.1929,346.022h 453.543" fill="none" stroke="black"/>
<path d="M84.5516,336.795v 9.22726" fill="none" stroke="black"/>
<path d="M99.6623,341.409v 4.61363" fill="none" stroke="black"/>
<path d="M114.773,341.409v 4.61363" fill="none" stroke="black"/>
<path d="M129.884,341.409v 4.61363" fill="none" stroke="black"/>
<path d="M144.995,341.409v 4.61363" fill="none" stroke="black"/>
<path d="M160.105,336.795v 9.22726" fill="none" stroke="black"/>
<path d="M175.216,341.409v 4.61363" fill="none" stroke="black"/>
<path d="M190.327,341.409v 4.61363" fill="none" stroke="black"/>
<path d="M205.437,341.409v 4.61363" fill="none" stroke="black"/>
<path d="M220.548,341.409v 4.61363" fill="none" stroke="black"/>
<path d="M235.659,336.795v 9.22726" fill="none" stroke="black"/>
<path d="M250.77,341.409v 4.61363" fill="none" stroke="black"/>
<path d="M265.88,341.409v 4.61363" fill="none" stroke="black"/>
<path d="M280.991,341.409v 4.61363" fill="none" stroke="black"/>
<path d="M296.102,341.409v 4.61363" fill="none" stroke="black"/>
<path d="M311.213,336.795v 9.22726" fill="none" stroke="black"/>
<path d="M326.323,341.409v 4.61363" fill="none" stroke="black"/>
<path d="M341.434,341.409v 4.61363" fill="none" stroke="black"/>
<path d="M356.545,341.409v 4.61363" fill="none" stroke="black"/>
<path d="M371.656,341.409v 4.61363" fill="none" stroke="black"/>
<path d="M386.766,336.795v 9.22726" fill="none" stroke="black"/>
<path d="M401.877,341.409v 4.61363" fill="none" stroke="black"/>
<path d="M416.988,341.409v 4.61363" fill="none" stroke="black"/>
<path d="M432.098,341.409v 4.61363" fill="none" stroke="black"/>
<path d="M447.209,341.409v 4.61363" fill="none" stroke="black"/>
<path d="M462.32,336.795v 9.22726" fill="none" stroke="black"/>
<path d="M84.5516,336.795v 9.22726" fill="none" stroke="black"/>
<path d="M69.4409,341.409v 4.61363" fill="none" stroke="black"/>
<path d="M462.32,336.795v 9.22726" fill="none" stroke="black"/>
<path d="M477.431,341.409v 4.61363" fill="none" stroke="black"/>
<path d="M492.541,341.409v 4.61363" fill="none" stroke="black"/>
<path d="M507.652,341.409v 4.61363" fill="none" stroke="black"/>
<text xml:space="preserve" x="73.8098" y="358.403" fill="black" font-size="12.8453" font-family="Helvetica">780</text>
<text xml:space="preserve" x="148.749" y="358.403" fill="black" font-size="12.8453" font-family="Helvetica">790</text>
<text xml:space="preserve" x="224.502" y="358.403" fill="black" font-size="12.8453" font-family="Helvetica">800</text>
<text xml:space="preserve" x="300.256" y="358.403" fill="black" font-size="12.8453" font-family="Helvetica">810</text>
<text xml:space="preserve" x="376.009" y="358.403" fill="black" font-size="12.8453" font-family="Helvetica">820</text>
<text xml:space="preserve" x="450.948" y="358.403" fill="black" font-size="12.8453" font-family="Helvetica">830</text>
<text xml:space="preserve" x="460.723" y="370.622" fill="black" font-size="12.8453" font-family="Helvetica">Time [ps]</text>
<path d="M57.1929,346.022v -307.575" fill="none" stroke="black"/>
<path d="M70.7992,346.022h -13.6063" fill="none" stroke="black"/>
<path d="M63.9961,335.074h -6.80315" fill="none" stroke="black"/>
<path d="M63.9961,324.126h -6.80315" fill="none" stroke="black"/>
<path d="M63.9961,313.177h -6.80315" fill="none" stroke="black"/>
<path d="M63.9961,302.229h -6.80315" fill="none" stroke="black"/>
<path d="M70.7992,291.281h -13.6063" fill="none" stroke="black"/>
<path d="M63.9961,280.333h -6.80315" fill="none" stroke="black"/>
<path d="M63.9961,269.384h -6.80315" fill="none" stroke="black"/>
<path d="M63.9961,258.436h -6.80315" fill="none" stroke="black"/>
<path d="M63.9961,247.488h -6.80315" fill="none" stroke="black"/>
<path d="M70.7992,236.539h -13.6063" fill="none" stroke="black"/>
<path d="M63.9961,225.591h -6.80315" fill="none" stroke="black"/>
<path d="M63.9961,214.643h -6.80315" fill="none" stroke="black"/>
<path d="M63.9961,203.695h -6.80315" fill="none" stroke="black"/>
<path d="M63.9961,192.746h -6.80315" fill="none" stroke="black"/>
<path d="M70.7992,181.798h -13.6063" fill="none" stroke="black"/>
<path d="M63.9961,170.85h -6.80315" fill="none" stroke="black"/>
<path d="M63.9961,159.901h -6.80315" fill="none" stroke="black"/>
<path d="M63.9961,148.953h -6.80315" fill="none" stroke="black"/>
<path d="M63.9961,138.005h -6.80315" fill="none" stroke="black"/>
<path d="M70.7992,127.057h -13.6063" fill="none" stroke="black"/>
<path d="M63.9961,116.108h -6.80315" fill="none" stroke="black"/>
<path d="M63.9961,105.16h -6.80315" fill="none" stroke="black"/>
<path d="M63.9961,94.2118h -6.80315" fill="none" stroke="black"/>
<path d="M63.9961,83.2635h -6.80315" fill="none" stroke="black"/>
<path d="M70.7992,72.3152h -13.6063" fill="none" stroke="black"/>
<path d="M70.7992,72.3152h -13.6063" fill="none" stroke="black"/>
<path d="M63.9961,61.367h -6.80315" fill="none" stroke="black"/>
<path d="M63.9961,50.4187h -6.80315" fill="none" stroke="black"/>
<path d="M63.9961,39.4704h -6.80315" fill="none" stroke="black"/>
<text xml:space="preserve" x="47.7441" y="350.258" fill="black" font-size="12.8453" font-family="Helvetica">0</text>
<text xml:space="preserve" x="41.2277" y="295.683" fill="black" font-size="12.8453" font-family="Helvetica">10</text>
<text xml:space="preserve" x="41.2277" y="241.108" fill="black" font-size="12.8453" font-family="Helvetica">20</text>
<text xml:space="preserve" x="41.2277" y="186.533" fill="black" font-size="12.8453" font-family="Helvetica">30</text>
<text xml:space="preserve" x="41.2277" y="131.143" fill="black" font-size="12.8453" font-family="Helvetica">40</text>
<text xml:space="preserve" x="41.2277" y="76.568" fill="black" font-size="12.8453" font-family="Helvetica">50</text>
<g transform="rotate(-90,29.0094,70.0516)">
<text xml:space="preserve" x="29.0094" y="70.0516" fill="black" font-size="12.8453" font-family="Helvetica">Event</text>
</g>
<text xml:space="preserve" x="243.237" y="18.7347" fill="black" font-size="16.9898" font-family="Helvetica">420mm 53</text></svg>
