<?xml version="1.0" standalone="no"?>
<svg width="567.429" height="386.304" viewBox="0 0 567.429 386.304" xmlns="http://www.w3.org/2000/svg" shape-rendering="crispEdges">
<title>
img/week2/Combined0mm_ch_44.svg
</title>
<desc>
Creator: ROOT Version 6.22/08
CreationDate: Tue Jun 22 00:36:08 2021</desc>
<defs>
</defs>
<rect x="0.5" y="0" width="566.929" height="385.804" fill="white"/>
<rect x="57.1929" y="38.5804" width="453.543" height="308.643" fill="white"/>
<rect x="57.1929" y="38.5804" width="453.543" height="308.643" fill="none" stroke="black"/>
<rect x="57.1929" y="38.5804" width="453.543" height="308.643" fill="white"/>
<rect x="57.1929" y="38.5804" width="453.543" height="308.643" fill="none" stroke="black"/>
<path d="M57.1929,347.224h 161.98v -8.64547h 32.396v -112.391h 32.396v -172.909h 32.396v 233.428h 32.396v 60.5183h 161.98" fill="none" stroke="#000099"/>
<g fill="#ff0000">
<polygon points=" 295.939, 49.0542 304.386, 49.0542 300.163, 57.5013"/>
</g>
<path d="M59.4606,347.224h 145.134l 4.53543, -0.0739659l 4.53543, -0.0991306l 4.53543, -0.213785l 4.53543, -0.438968l 4.53543, -0.857819l 4.53543, -1.5946l 4.53543, -2.81803l 4.53543, -4.73102l 4.53543, -7.53841l 4.53543, -11.3871l 4.53543, -16.2815l
 4.53543, -21.9906l 4.53543, -27.9786l 4.53543, -33.3979l 4.53543, -37.179l 4.53543, -38.2251l 4.53543, -35.6819" fill="none" stroke="#ff0000" stroke-width="2"/>
<path d="M281.697,106.736l 4.53543, -29.2095l 4.53543, -19.1665l 4.53543, -6.62606l 4.53543, 6.80434l 4.53543, 19.321l 4.53543, 29.3217l 4.53543, 35.742l 4.53543, 38.2334l 4.53543, 37.144l 4.53543, 33.3334l 4.53543, 27.8997l 4.53543, 21.9105l
 4.53543, 16.2095l 4.53543, 11.3283l 4.53543, 7.49403l 4.53543, 4.69983l 4.53543, 2.79751l 4.53543, 1.58191l 4.53543, 0.850416l 4.53543, 0.434889l 4.53543, 0.211659l 4.53543, 0.0980802l 4.53543, 0.0731033h 117.921" fill="none" stroke="#ff0000"
 stroke-width="2"/>
<path d="M503.933,347.224h 4.53543" fill="none" stroke="#ff0000" stroke-width="2"/>
<rect x="351.996" y="25.0773" width="204.094" height="108.025" fill="white"/>
<path d="M351.996,133.102h 204.094" fill="none" stroke="black"/>
<path d="M556.091,133.102v -108.025" fill="none" stroke="black"/>
<path d="M556.091,25.0773h -204.094" fill="none" stroke="black"/>
<path d="M351.996,25.0773v 108.025" fill="none" stroke="black"/>
<text xml:space="preserve" x="361.938" y="38.9865" fill="black" font-size="15.6962" font-family="Helvetica">Entries </text>
<text xml:space="preserve" x="515.447" y="39.7988" fill="black" font-size="15.6962" font-family="Helvetica"> 112</text>
<text xml:space="preserve" x="375.745" y="57.6676" fill="black" font-size="15.6962" font-family="Helvetica"> / ndf </text>
<text xml:space="preserve" x="370.06" y="52.7943" fill="black" font-size="10.6308" font-family="Helvetica">2</text>
<text xml:space="preserve" x="361.938" y="57.6676" fill="black" font-size="15.6962" font-family="Times">&#0967;</text>
<text xml:space="preserve" x="475.648" y="57.6676" fill="black" font-size="15.6962" font-family="Helvetica"> 0.3996 / 1</text>
<text xml:space="preserve" x="361.938" y="75.5364" fill="black" font-size="15.6962" font-family="Helvetica">Prob  </text>
<text xml:space="preserve" x="494.329" y="75.5364" fill="black" font-size="15.6962" font-family="Helvetica"> 0.5273</text>
<text xml:space="preserve" x="361.938" y="94.2175" fill="black" font-size="15.6962" font-family="Helvetica">Const    </text>
<text xml:space="preserve" x="511.386" y="93.4052" fill="black" font-size="15.6962" font-family="Helvetica"> 8.38</text>
<text xml:space="preserve" x="502.452" y="93.4052" fill="black" font-size="15.6962" font-family="Times">&#0177;</text>
<text xml:space="preserve" x="454.531" y="93.4052" fill="black" font-size="15.6962" font-family="Helvetica"> 68.36 </text>
<text xml:space="preserve" x="361.938" y="111.274" fill="black" font-size="15.6962" font-family="Helvetica">Mean     </text>
<text xml:space="preserve" x="520.32" y="111.274" fill="black" font-size="15.6962" font-family="Helvetica"> 0.3</text>
<text xml:space="preserve" x="511.386" y="111.274" fill="black" font-size="15.6962" font-family="Times">&#0177;</text>
<text xml:space="preserve" x="463.465" y="111.274" fill="black" font-size="15.6962" font-family="Helvetica"> 809.8 </text>
<text xml:space="preserve" x="361.938" y="128.331" fill="black" font-size="15.6962" font-family="Helvetica">Sigma    </text>
<text xml:space="preserve" x="503.264" y="129.143" fill="black" font-size="15.6962" font-family="Helvetica"> 0.210</text>
<text xml:space="preserve" x="494.329" y="129.143" fill="black" font-size="15.6962" font-family="Times">&#0177;</text>
<text xml:space="preserve" x="447.221" y="129.143" fill="black" font-size="15.6962" font-family="Helvetica"> 2.613 </text>
<path d="M57.1929,347.224h 453.543" fill="none" stroke="black"/>
<path d="M135.06,337.964v 9.2593" fill="none" stroke="black"/>
<path d="M151.25,342.594v 4.62965" fill="none" stroke="black"/>
<path d="M167.44,342.594v 4.62965" fill="none" stroke="black"/>
<path d="M183.63,342.594v 4.62965" fill="none" stroke="black"/>
<path d="M199.82,342.594v 4.62965" fill="none" stroke="black"/>
<path d="M216.011,337.964v 9.2593" fill="none" stroke="black"/>
<path d="M232.201,342.594v 4.62965" fill="none" stroke="black"/>
<path d="M248.391,342.594v 4.62965" fill="none" stroke="black"/>
<path d="M264.581,342.594v 4.62965" fill="none" stroke="black"/>
<path d="M280.771,342.594v 4.62965" fill="none" stroke="black"/>
<path d="M296.961,337.964v 9.2593" fill="none" stroke="black"/>
<path d="M313.151,342.594v 4.62965" fill="none" stroke="black"/>
<path d="M329.341,342.594v 4.62965" fill="none" stroke="black"/>
<path d="M345.531,342.594v 4.62965" fill="none" stroke="black"/>
<path d="M361.721,342.594v 4.62965" fill="none" stroke="black"/>
<path d="M377.911,337.964v 9.2593" fill="none" stroke="black"/>
<path d="M394.101,342.594v 4.62965" fill="none" stroke="black"/>
<path d="M410.291,342.594v 4.62965" fill="none" stroke="black"/>
<path d="M426.481,342.594v 4.62965" fill="none" stroke="black"/>
<path d="M442.672,342.594v 4.62965" fill="none" stroke="black"/>
<path d="M458.862,337.964v 9.2593" fill="none" stroke="black"/>
<path d="M135.06,337.964v 9.2593" fill="none" stroke="black"/>
<path d="M118.87,342.594v 4.62965" fill="none" stroke="black"/>
<path d="M102.68,342.594v 4.62965" fill="none" stroke="black"/>
<path d="M86.49,342.594v 4.62965" fill="none" stroke="black"/>
<path d="M70.2999,342.594v 4.62965" fill="none" stroke="black"/>
<path d="M458.862,337.964v 9.2593" fill="none" stroke="black"/>
<path d="M475.052,342.594v 4.62965" fill="none" stroke="black"/>
<path d="M491.242,342.594v 4.62965" fill="none" stroke="black"/>
<path d="M507.432,342.594v 4.62965" fill="none" stroke="black"/>
<text xml:space="preserve" x="123.145" y="359.813" fill="black" font-size="12.8882" font-family="Helvetica">790</text>
<text xml:space="preserve" x="204.367" y="359.813" fill="black" font-size="12.8882" font-family="Helvetica">800</text>
<text xml:space="preserve" x="285.589" y="359.813" fill="black" font-size="12.8882" font-family="Helvetica">810</text>
<text xml:space="preserve" x="365.999" y="359.813" fill="black" font-size="12.8882" font-family="Helvetica">820</text>
<text xml:space="preserve" x="447.221" y="359.813" fill="black" font-size="12.8882" font-family="Helvetica">830</text>
<text xml:space="preserve" x="481.334" y="373.621" fill="black" font-size="12.8882" font-family="Helvetica">Time</text>
<path d="M57.1929,347.224v -308.643" fill="none" stroke="black"/>
<path d="M70.7992,347.224h -13.6063" fill="none" stroke="black"/>
<path d="M63.9961,338.578h -6.80315" fill="none" stroke="black"/>
<path d="M63.9961,329.933h -6.80315" fill="none" stroke="black"/>
<path d="M63.9961,321.287h -6.80315" fill="none" stroke="black"/>
<path d="M63.9961,312.642h -6.80315" fill="none" stroke="black"/>
<path d="M70.7992,303.996h -13.6063" fill="none" stroke="black"/>
<path d="M63.9961,295.351h -6.80315" fill="none" stroke="black"/>
<path d="M63.9961,286.705h -6.80315" fill="none" stroke="black"/>
<path d="M63.9961,278.06h -6.80315" fill="none" stroke="black"/>
<path d="M63.9961,269.415h -6.80315" fill="none" stroke="black"/>
<path d="M70.7992,260.769h -13.6063" fill="none" stroke="black"/>
<path d="M63.9961,252.124h -6.80315" fill="none" stroke="black"/>
<path d="M63.9961,243.478h -6.80315" fill="none" stroke="black"/>
<path d="M63.9961,234.833h -6.80315" fill="none" stroke="black"/>
<path d="M63.9961,226.187h -6.80315" fill="none" stroke="black"/>
<path d="M70.7992,217.542h -13.6063" fill="none" stroke="black"/>
<path d="M63.9961,208.896h -6.80315" fill="none" stroke="black"/>
<path d="M63.9961,200.251h -6.80315" fill="none" stroke="black"/>
<path d="M63.9961,191.605h -6.80315" fill="none" stroke="black"/>
<path d="M63.9961,182.96h -6.80315" fill="none" stroke="black"/>
<path d="M70.7992,174.314h -13.6063" fill="none" stroke="black"/>
<path d="M63.9961,165.669h -6.80315" fill="none" stroke="black"/>
<path d="M63.9961,157.023h -6.80315" fill="none" stroke="black"/>
<path d="M63.9961,148.378h -6.80315" fill="none" stroke="black"/>
<path d="M63.9961,139.732h -6.80315" fill="none" stroke="black"/>
<path d="M70.7992,131.087h -13.6063" fill="none" stroke="black"/>
<path d="M63.9961,122.442h -6.80315" fill="none" stroke="black"/>
<path d="M63.9961,113.796h -6.80315" fill="none" stroke="black"/>
<path d="M63.9961,105.151h -6.80315" fill="none" stroke="black"/>
<path d="M63.9961,96.5051h -6.80315" fill="none" stroke="black"/>
<path d="M70.7992,87.8596h -13.6063" fill="none" stroke="black"/>
<path d="M63.9961,79.2141h -6.80315" fill="none" stroke="black"/>
<path d="M63.9961,70.5687h -6.80315" fill="none" stroke="black"/>
<path d="M63.9961,61.9232h -6.80315" fill="none" stroke="black"/>
<path d="M63.9961,53.2777h -6.80315" fill="none" stroke="black"/>
<path d="M70.7992,44.6323h -13.6063" fill="none" stroke="black"/>
<path d="M70.7992,44.6323h -13.6063" fill="none" stroke="black"/>
<text xml:space="preserve" x="46.7965" y="351.691" fill="black" font-size="12.8882" font-family="Helvetica">0</text>
<text xml:space="preserve" x="39.4865" y="308.643" fill="black" font-size="12.8882" font-family="Helvetica">10</text>
<text xml:space="preserve" x="39.4865" y="265.596" fill="black" font-size="12.8882" font-family="Helvetica">20</text>
<text xml:space="preserve" x="39.4865" y="221.736" fill="black" font-size="12.8882" font-family="Helvetica">30</text>
<text xml:space="preserve" x="39.4865" y="178.688" fill="black" font-size="12.8882" font-family="Helvetica">40</text>
<text xml:space="preserve" x="39.4865" y="135.641" fill="black" font-size="12.8882" font-family="Helvetica">50</text>
<text xml:space="preserve" x="39.4865" y="92.593" fill="black" font-size="12.8882" font-family="Helvetica">60</text>
<text xml:space="preserve" x="39.4865" y="48.7332" fill="black" font-size="12.8882" font-family="Helvetica">70</text>
<g transform="rotate(-90,28.9277,71.4753)">
<text xml:space="preserve" x="28.9277" y="71.4753" fill="black" font-size="12.8882" font-family="Helvetica">Event</text>
</g>
<rect x="351.996" y="25.0773" width="204.094" height="108.025" fill="white"/>
<path d="M351.996,133.102h 204.094" fill="none" stroke="black"/>
<path d="M556.091,133.102v -108.025" fill="none" stroke="black"/>
<path d="M556.091,25.0773h -204.094" fill="none" stroke="black"/>
<path d="M351.996,25.0773v 108.025" fill="none" stroke="black"/>
<text xml:space="preserve" x="361.938" y="38.9865" fill="black" font-size="15.6962" font-family="Helvetica">Entries </text>
<text xml:space="preserve" x="515.447" y="39.7988" fill="black" font-size="15.6962" font-family="Helvetica"> 112</text>
<text xml:space="preserve" x="375.745" y="57.6676" fill="black" font-size="15.6962" font-family="Helvetica"> / ndf </text>
<text xml:space="preserve" x="370.06" y="52.7943" fill="black" font-size="10.6308" font-family="Helvetica">2</text>
<text xml:space="preserve" x="361.938" y="57.6676" fill="black" font-size="15.6962" font-family="Times">&#0967;</text>
<text xml:space="preserve" x="475.648" y="57.6676" fill="black" font-size="15.6962" font-family="Helvetica"> 0.3996 / 1</text>
<text xml:space="preserve" x="361.938" y="75.5364" fill="black" font-size="15.6962" font-family="Helvetica">Prob  </text>
<text xml:space="preserve" x="494.329" y="75.5364" fill="black" font-size="15.6962" font-family="Helvetica"> 0.5273</text>
<text xml:space="preserve" x="361.938" y="94.2175" fill="black" font-size="15.6962" font-family="Helvetica">Const    </text>
<text xml:space="preserve" x="511.386" y="93.4052" fill="black" font-size="15.6962" font-family="Helvetica"> 8.38</text>
<text xml:space="preserve" x="502.452" y="93.4052" fill="black" font-size="15.6962" font-family="Times">&#0177;</text>
<text xml:space="preserve" x="454.531" y="93.4052" fill="black" font-size="15.6962" font-family="Helvetica"> 68.36 </text>
<text xml:space="preserve" x="361.938" y="111.274" fill="black" font-size="15.6962" font-family="Helvetica">Mean     </text>
<text xml:space="preserve" x="520.32" y="111.274" fill="black" font-size="15.6962" font-family="Helvetica"> 0.3</text>
<text xml:space="preserve" x="511.386" y="111.274" fill="black" font-size="15.6962" font-family="Times">&#0177;</text>
<text xml:space="preserve" x="463.465" y="111.274" fill="black" font-size="15.6962" font-family="Helvetica"> 809.8 </text>
<text xml:space="preserve" x="361.938" y="128.331" fill="black" font-size="15.6962" font-family="Helvetica">Sigma    </text>
<text xml:space="preserve" x="503.264" y="129.143" fill="black" font-size="15.6962" font-family="Helvetica"> 0.210</text>
<text xml:space="preserve" x="494.329" y="129.143" fill="black" font-size="15.6962" font-family="Times">&#0177;</text>
<text xml:space="preserve" x="447.221" y="129.143" fill="black" font-size="15.6962" font-family="Helvetica"> 2.613 </text>
<text xml:space="preserve" x="253.1" y="18.681" fill="black" font-size="17.0471" font-family="Helvetica">0mm 44</text></svg>
