<?xml version="1.0" standalone="no"?>
<svg width="567.429" height="386.304" viewBox="0 0 567.429 386.304" xmlns="http://www.w3.org/2000/svg" shape-rendering="crispEdges">
<title>
img/week2/Combined560mm_ch_13.svg
</title>
<desc>
Creator: ROOT Version 6.22/08
CreationDate: Thu Jun 24 12:19:22 2021</desc>
<defs>
</defs>
<rect x="0.5" y="0" width="566.929" height="385.804" fill="white"/>
<rect x="57.1929" y="38.5804" width="453.543" height="308.643" fill="white"/>
<rect x="57.1929" y="38.5804" width="453.543" height="308.643" fill="none" stroke="black"/>
<rect x="57.1929" y="38.5804" width="453.543" height="308.643" fill="white"/>
<rect x="57.1929" y="38.5804" width="453.543" height="308.643" fill="none" stroke="black"/>
<path d="M57.1929,347.224h 143.224v -6.83596h 23.8707v -41.0157h 23.8707v -82.0315h 23.8707v -82.0315h 23.8707v -82.0315h 23.8707v 287.11h 23.8707v 6.83596h 167.095" fill="none" stroke="#000099"/>
<g fill="#ff0000">
<polygon points=" 279.741, 131.086 288.188, 131.086 283.965, 139.533"/>
</g>
<path d="M59.4606,347.224h 131.528l 4.53543, -0.0562322l 4.53543, -0.0753338l 4.53543, -0.16261l 4.53543, -0.334427l 4.53543, -0.655059l 4.53543, -1.22147l 4.53543, -2.167l 4.53543, -3.65519l 4.53543, -5.85674l 4.53543, -8.90473l 4.53543, -12.8288l
 4.53543, -17.4796l 4.53543, -22.4667l 4.53543, -27.1407l 4.53543, -30.6499l 4.53543, -32.0811l 4.53543, -30.6697l 4.53543, -26.026l 4.53543, -18.3063l 4.53543, -8.26119" fill="none" stroke="#ff0000" stroke-width="2"/>
<path d="M281.697,98.2249l 4.53543, 2.87374l 4.53543, 13.6268l 4.53543, 22.6097l 4.53543, 28.8116l 4.53543, 31.7828l 4.53543, 31.6616l 4.53543, 29.0562l 4.53543, 24.8362l 4.53543, 19.9059l 4.53543, 15.0258l 4.53543, 10.7146l 4.53543, 7.23342l
 4.53543, 4.63072l 4.53543, 2.81469l 4.53543, 1.62597l 4.53543, 0.893369l 4.53543, 0.467151l 4.53543, 0.232602l 4.53543, 0.110329l 4.53543, 0.0498694l 4.53543, 0.0357577h 126.992" fill="none" stroke="#ff0000" stroke-width="2"/>
<path d="M503.933,347.224h 4.53543" fill="none" stroke="#ff0000" stroke-width="2"/>
<rect x="351.996" y="25.0773" width="204.094" height="108.025" fill="white"/>
<path d="M351.996,133.102h 204.094" fill="none" stroke="black"/>
<path d="M556.091,133.102v -108.025" fill="none" stroke="black"/>
<path d="M556.091,25.0773h -204.094" fill="none" stroke="black"/>
<path d="M351.996,25.0773v 108.025" fill="none" stroke="black"/>
<text xml:space="preserve" x="361.938" y="38.9865" fill="black" font-size="15.6962" font-family="Helvetica">Entries </text>
<text xml:space="preserve" x="515.447" y="38.9865" fill="black" font-size="15.6962" font-family="Helvetica"> 102</text>
<text xml:space="preserve" x="375.745" y="57.6676" fill="black" font-size="15.6962" font-family="Helvetica"> / ndf </text>
<text xml:space="preserve" x="370.06" y="52.7943" fill="black" font-size="10.6308" font-family="Helvetica">2</text>
<text xml:space="preserve" x="361.938" y="57.6676" fill="black" font-size="15.6962" font-family="Times">&#0967;</text>
<text xml:space="preserve" x="481.334" y="57.6676" fill="black" font-size="15.6962" font-family="Helvetica"> 20.54 / 3</text>
<text xml:space="preserve" x="361.938" y="75.5364" fill="black" font-size="15.6962" font-family="Helvetica">Prob  </text>
<text xml:space="preserve" x="468.338" y="75.5364" fill="black" font-size="15.6962" font-family="Helvetica"> 0.0001313</text>
<text xml:space="preserve" x="361.938" y="94.2175" fill="black" font-size="15.6962" font-family="Helvetica">Const    </text>
<text xml:space="preserve" x="511.386" y="93.4052" fill="black" font-size="15.6962" font-family="Helvetica"> 5.44</text>
<text xml:space="preserve" x="502.452" y="93.4052" fill="black" font-size="15.6962" font-family="Times">&#0177;</text>
<text xml:space="preserve" x="454.531" y="93.4052" fill="black" font-size="15.6962" font-family="Helvetica"> 36.47 </text>
<text xml:space="preserve" x="361.938" y="111.274" fill="black" font-size="15.6962" font-family="Helvetica">Mean     </text>
<text xml:space="preserve" x="520.32" y="111.274" fill="black" font-size="15.6962" font-family="Helvetica"> 0.6</text>
<text xml:space="preserve" x="511.386" y="111.274" fill="black" font-size="15.6962" font-family="Times">&#0177;</text>
<text xml:space="preserve" x="463.465" y="111.274" fill="black" font-size="15.6962" font-family="Helvetica"> 806.2 </text>
<text xml:space="preserve" x="361.938" y="128.331" fill="black" font-size="15.6962" font-family="Helvetica">Sigma    </text>
<text xml:space="preserve" x="503.264" y="129.143" fill="black" font-size="15.6962" font-family="Helvetica"> 0.360</text>
<text xml:space="preserve" x="494.329" y="129.143" fill="black" font-size="15.6962" font-family="Times">&#0177;</text>
<text xml:space="preserve" x="449.657" y="129.143" fill="black" font-size="15.6962" font-family="Helvetica"> 3.571 </text>
<path d="M57.1929,347.224h 453.543" fill="none" stroke="black"/>
<path d="M66.8857,337.964v 9.2593" fill="none" stroke="black"/>
<path d="M78.8152,342.594v 4.62965" fill="none" stroke="black"/>
<path d="M90.7447,342.594v 4.62965" fill="none" stroke="black"/>
<path d="M102.674,342.594v 4.62965" fill="none" stroke="black"/>
<path d="M114.604,342.594v 4.62965" fill="none" stroke="black"/>
<path d="M126.533,337.964v 9.2593" fill="none" stroke="black"/>
<path d="M138.463,342.594v 4.62965" fill="none" stroke="black"/>
<path d="M150.392,342.594v 4.62965" fill="none" stroke="black"/>
<path d="M162.322,342.594v 4.62965" fill="none" stroke="black"/>
<path d="M174.251,342.594v 4.62965" fill="none" stroke="black"/>
<path d="M186.181,337.964v 9.2593" fill="none" stroke="black"/>
<path d="M198.11,342.594v 4.62965" fill="none" stroke="black"/>
<path d="M210.04,342.594v 4.62965" fill="none" stroke="black"/>
<path d="M221.969,342.594v 4.62965" fill="none" stroke="black"/>
<path d="M233.899,342.594v 4.62965" fill="none" stroke="black"/>
<path d="M245.829,337.964v 9.2593" fill="none" stroke="black"/>
<path d="M257.758,342.594v 4.62965" fill="none" stroke="black"/>
<path d="M269.688,342.594v 4.62965" fill="none" stroke="black"/>
<path d="M281.617,342.594v 4.62965" fill="none" stroke="black"/>
<path d="M293.547,342.594v 4.62965" fill="none" stroke="black"/>
<path d="M305.476,337.964v 9.2593" fill="none" stroke="black"/>
<path d="M317.406,342.594v 4.62965" fill="none" stroke="black"/>
<path d="M329.335,342.594v 4.62965" fill="none" stroke="black"/>
<path d="M341.265,342.594v 4.62965" fill="none" stroke="black"/>
<path d="M353.194,342.594v 4.62965" fill="none" stroke="black"/>
<path d="M365.124,337.964v 9.2593" fill="none" stroke="black"/>
<path d="M377.053,342.594v 4.62965" fill="none" stroke="black"/>
<path d="M388.983,342.594v 4.62965" fill="none" stroke="black"/>
<path d="M400.912,342.594v 4.62965" fill="none" stroke="black"/>
<path d="M412.842,342.594v 4.62965" fill="none" stroke="black"/>
<path d="M424.771,337.964v 9.2593" fill="none" stroke="black"/>
<path d="M436.701,342.594v 4.62965" fill="none" stroke="black"/>
<path d="M448.63,342.594v 4.62965" fill="none" stroke="black"/>
<path d="M460.56,342.594v 4.62965" fill="none" stroke="black"/>
<path d="M472.49,342.594v 4.62965" fill="none" stroke="black"/>
<path d="M484.419,337.964v 9.2593" fill="none" stroke="black"/>
<path d="M66.8857,337.964v 9.2593" fill="none" stroke="black"/>
<path d="M484.419,337.964v 9.2593" fill="none" stroke="black"/>
<path d="M496.349,342.594v 4.62965" fill="none" stroke="black"/>
<path d="M508.278,342.594v 4.62965" fill="none" stroke="black"/>
<text xml:space="preserve" x="54.9187" y="359.813" fill="black" font-size="12.8882" font-family="Helvetica">770</text>
<text xml:space="preserve" x="115.023" y="359.813" fill="black" font-size="12.8882" font-family="Helvetica">780</text>
<text xml:space="preserve" x="174.315" y="359.813" fill="black" font-size="12.8882" font-family="Helvetica">790</text>
<text xml:space="preserve" x="234.419" y="359.813" fill="black" font-size="12.8882" font-family="Helvetica">800</text>
<text xml:space="preserve" x="293.711" y="359.813" fill="black" font-size="12.8882" font-family="Helvetica">810</text>
<text xml:space="preserve" x="353.003" y="359.813" fill="black" font-size="12.8882" font-family="Helvetica">820</text>
<text xml:space="preserve" x="413.107" y="359.813" fill="black" font-size="12.8882" font-family="Helvetica">830</text>
<text xml:space="preserve" x="472.399" y="359.813" fill="black" font-size="12.8882" font-family="Helvetica">840</text>
<text xml:space="preserve" x="457.78" y="372.809" fill="black" font-size="12.8882" font-family="Helvetica">Time [ns]</text>
<path d="M57.1929,347.224v -308.643" fill="none" stroke="black"/>
<path d="M70.7992,347.224h -13.6063" fill="none" stroke="black"/>
<path d="M63.9961,340.388h -6.80315" fill="none" stroke="black"/>
<path d="M63.9961,333.552h -6.80315" fill="none" stroke="black"/>
<path d="M63.9961,326.716h -6.80315" fill="none" stroke="black"/>
<path d="M63.9961,319.88h -6.80315" fill="none" stroke="black"/>
<path d="M70.7992,313.044h -13.6063" fill="none" stroke="black"/>
<path d="M63.9961,306.208h -6.80315" fill="none" stroke="black"/>
<path d="M63.9961,299.372h -6.80315" fill="none" stroke="black"/>
<path d="M63.9961,292.536h -6.80315" fill="none" stroke="black"/>
<path d="M63.9961,285.7h -6.80315" fill="none" stroke="black"/>
<path d="M70.7992,278.864h -13.6063" fill="none" stroke="black"/>
<path d="M63.9961,272.028h -6.80315" fill="none" stroke="black"/>
<path d="M63.9961,265.192h -6.80315" fill="none" stroke="black"/>
<path d="M63.9961,258.356h -6.80315" fill="none" stroke="black"/>
<path d="M63.9961,251.52h -6.80315" fill="none" stroke="black"/>
<path d="M70.7992,244.684h -13.6063" fill="none" stroke="black"/>
<path d="M63.9961,237.849h -6.80315" fill="none" stroke="black"/>
<path d="M63.9961,231.013h -6.80315" fill="none" stroke="black"/>
<path d="M63.9961,224.177h -6.80315" fill="none" stroke="black"/>
<path d="M63.9961,217.341h -6.80315" fill="none" stroke="black"/>
<path d="M70.7992,210.505h -13.6063" fill="none" stroke="black"/>
<path d="M63.9961,203.669h -6.80315" fill="none" stroke="black"/>
<path d="M63.9961,196.833h -6.80315" fill="none" stroke="black"/>
<path d="M63.9961,189.997h -6.80315" fill="none" stroke="black"/>
<path d="M63.9961,183.161h -6.80315" fill="none" stroke="black"/>
<path d="M70.7992,176.325h -13.6063" fill="none" stroke="black"/>
<path d="M63.9961,169.489h -6.80315" fill="none" stroke="black"/>
<path d="M63.9961,162.653h -6.80315" fill="none" stroke="black"/>
<path d="M63.9961,155.817h -6.80315" fill="none" stroke="black"/>
<path d="M63.9961,148.981h -6.80315" fill="none" stroke="black"/>
<path d="M70.7992,142.145h -13.6063" fill="none" stroke="black"/>
<path d="M63.9961,135.309h -6.80315" fill="none" stroke="black"/>
<path d="M63.9961,128.473h -6.80315" fill="none" stroke="black"/>
<path d="M63.9961,121.637h -6.80315" fill="none" stroke="black"/>
<path d="M63.9961,114.801h -6.80315" fill="none" stroke="black"/>
<path d="M70.7992,107.965h -13.6063" fill="none" stroke="black"/>
<path d="M63.9961,101.129h -6.80315" fill="none" stroke="black"/>
<path d="M63.9961,94.2935h -6.80315" fill="none" stroke="black"/>
<path d="M63.9961,87.4575h -6.80315" fill="none" stroke="black"/>
<path d="M63.9961,80.6215h -6.80315" fill="none" stroke="black"/>
<path d="M70.7992,73.7856h -13.6063" fill="none" stroke="black"/>
<path d="M63.9961,66.9496h -6.80315" fill="none" stroke="black"/>
<path d="M63.9961,60.1137h -6.80315" fill="none" stroke="black"/>
<path d="M63.9961,53.2777h -6.80315" fill="none" stroke="black"/>
<path d="M63.9961,46.4418h -6.80315" fill="none" stroke="black"/>
<path d="M70.7992,39.6058h -13.6063" fill="none" stroke="black"/>
<path d="M70.7992,39.6058h -13.6063" fill="none" stroke="black"/>
<text xml:space="preserve" x="46.7965" y="351.691" fill="black" font-size="12.8882" font-family="Helvetica">0</text>
<text xml:space="preserve" x="46.7965" y="317.578" fill="black" font-size="12.8882" font-family="Helvetica">5</text>
<text xml:space="preserve" x="39.4865" y="283.465" fill="black" font-size="12.8882" font-family="Helvetica">10</text>
<text xml:space="preserve" x="39.4865" y="249.351" fill="black" font-size="12.8882" font-family="Helvetica">15</text>
<text xml:space="preserve" x="39.4865" y="215.238" fill="black" font-size="12.8882" font-family="Helvetica">20</text>
<text xml:space="preserve" x="39.4865" y="181.125" fill="black" font-size="12.8882" font-family="Helvetica">25</text>
<text xml:space="preserve" x="39.4865" y="147.012" fill="black" font-size="12.8882" font-family="Helvetica">30</text>
<text xml:space="preserve" x="39.4865" y="112.086" fill="black" font-size="12.8882" font-family="Helvetica">35</text>
<text xml:space="preserve" x="39.4865" y="77.9731" fill="black" font-size="12.8882" font-family="Helvetica">40</text>
<text xml:space="preserve" x="39.4865" y="43.8598" fill="black" font-size="12.8882" font-family="Helvetica">45</text>
<g transform="rotate(-90,28.9277,71.4753)">
<text xml:space="preserve" x="28.9277" y="71.4753" fill="black" font-size="12.8882" font-family="Helvetica">Event</text>
</g>
<rect x="351.996" y="25.0773" width="204.094" height="108.025" fill="white"/>
<path d="M351.996,133.102h 204.094" fill="none" stroke="black"/>
<path d="M556.091,133.102v -108.025" fill="none" stroke="black"/>
<path d="M556.091,25.0773h -204.094" fill="none" stroke="black"/>
<path d="M351.996,25.0773v 108.025" fill="none" stroke="black"/>
<text xml:space="preserve" x="361.938" y="38.9865" fill="black" font-size="15.6962" font-family="Helvetica">Entries </text>
<text xml:space="preserve" x="515.447" y="38.9865" fill="black" font-size="15.6962" font-family="Helvetica"> 102</text>
<text xml:space="preserve" x="375.745" y="57.6676" fill="black" font-size="15.6962" font-family="Helvetica"> / ndf </text>
<text xml:space="preserve" x="370.06" y="52.7943" fill="black" font-size="10.6308" font-family="Helvetica">2</text>
<text xml:space="preserve" x="361.938" y="57.6676" fill="black" font-size="15.6962" font-family="Times">&#0967;</text>
<text xml:space="preserve" x="481.334" y="57.6676" fill="black" font-size="15.6962" font-family="Helvetica"> 20.54 / 3</text>
<text xml:space="preserve" x="361.938" y="75.5364" fill="black" font-size="15.6962" font-family="Helvetica">Prob  </text>
<text xml:space="preserve" x="468.338" y="75.5364" fill="black" font-size="15.6962" font-family="Helvetica"> 0.0001313</text>
<text xml:space="preserve" x="361.938" y="94.2175" fill="black" font-size="15.6962" font-family="Helvetica">Const    </text>
<text xml:space="preserve" x="511.386" y="93.4052" fill="black" font-size="15.6962" font-family="Helvetica"> 5.44</text>
<text xml:space="preserve" x="502.452" y="93.4052" fill="black" font-size="15.6962" font-family="Times">&#0177;</text>
<text xml:space="preserve" x="454.531" y="93.4052" fill="black" font-size="15.6962" font-family="Helvetica"> 36.47 </text>
<text xml:space="preserve" x="361.938" y="111.274" fill="black" font-size="15.6962" font-family="Helvetica">Mean     </text>
<text xml:space="preserve" x="520.32" y="111.274" fill="black" font-size="15.6962" font-family="Helvetica"> 0.6</text>
<text xml:space="preserve" x="511.386" y="111.274" fill="black" font-size="15.6962" font-family="Times">&#0177;</text>
<text xml:space="preserve" x="463.465" y="111.274" fill="black" font-size="15.6962" font-family="Helvetica"> 806.2 </text>
<text xml:space="preserve" x="361.938" y="128.331" fill="black" font-size="15.6962" font-family="Helvetica">Sigma    </text>
<text xml:space="preserve" x="503.264" y="129.143" fill="black" font-size="15.6962" font-family="Helvetica"> 0.360</text>
<text xml:space="preserve" x="494.329" y="129.143" fill="black" font-size="15.6962" font-family="Times">&#0177;</text>
<text xml:space="preserve" x="449.657" y="129.143" fill="black" font-size="15.6962" font-family="Helvetica"> 3.571 </text>
<text xml:space="preserve" x="243.354" y="18.681" fill="black" font-size="17.0471" font-family="Helvetica">560mm 13</text></svg>
