<?xml version="1.0" standalone="no"?>
<svg width="567.429" height="386.304" viewBox="0 0 567.429 386.304" xmlns="http://www.w3.org/2000/svg" shape-rendering="crispEdges">
<title>
img/week2/Combined0mm_ch_61.svg
</title>
<desc>
Creator: ROOT Version 6.22/08
CreationDate: Thu Jun 24 12:18:32 2021</desc>
<defs>
</defs>
<rect x="0.5" y="0" width="566.929" height="385.804" fill="white"/>
<rect x="57.1929" y="38.5804" width="453.543" height="308.643" fill="white"/>
<rect x="57.1929" y="38.5804" width="453.543" height="308.643" fill="none" stroke="black"/>
<rect x="57.1929" y="38.5804" width="453.543" height="308.643" fill="white"/>
<rect x="57.1929" y="38.5804" width="453.543" height="308.643" fill="none" stroke="black"/>
<path d="M57.1929,347.224h 151.181v -12.5083h 30.2362v -93.8126h 30.2362v -187.625h 30.2362v 206.388h 30.2362v 87.5584h 181.417" fill="none" stroke="#000099"/>
<g fill="#ff0000">
<polygon points=" 279.741, 49.0542 288.188, 49.0542 283.965, 57.5013"/>
</g>
<path d="M59.4606,347.224h 131.528l 4.53543, -0.0629292l 4.53543, -0.0854835l 4.53543, -0.185836l 4.53543, -0.384616l 4.53543, -0.757537l 4.53543, -1.41922l 4.53543, -2.5276l 4.53543, -4.27636l 4.53543, -6.86682l 4.53543, -10.4534l 4.53543, -15.0642l
 4.53543, -20.5097l 4.53543, -26.3108l 4.53543, -31.6814l 4.53543, -35.6025l 4.53543, -36.9997l 4.53543, -34.9992l 4.53543, -29.197l 4.53543, -19.8533l 4.53543, -7.93103" fill="none" stroke="#ff0000" stroke-width="2"/>
<path d="M281.697,62.055l 4.53543, 5.05719l 4.53543, 17.3634l 4.53543, 27.3908l 4.53543, 34.0335l 4.53543, 36.8707l 4.53543, 36.1703l 4.53543, 32.7232l 4.53543, 27.583l 4.53543, 21.7998l 4.53543, 16.2219l 4.53543, 11.3986l 4.53543, 7.57906l 4.53543,
 4.77608l 4.53543, 2.85591l 4.53543, 1.62197l 4.53543, 0.87557l 4.53543, 0.449528l 4.53543, 0.219612l 4.53543, 0.102134l 4.53543, 0.045233l 4.53543, 0.0313175h 126.992" fill="none" stroke="#ff0000" stroke-width="2"/>
<path d="M503.933,347.224h 4.53543" fill="none" stroke="#ff0000" stroke-width="2"/>
<rect x="351.996" y="25.0773" width="204.094" height="108.025" fill="white"/>
<path d="M351.996,133.102h 204.094" fill="none" stroke="black"/>
<path d="M556.091,133.102v -108.025" fill="none" stroke="black"/>
<path d="M556.091,25.0773h -204.094" fill="none" stroke="black"/>
<path d="M351.996,25.0773v 108.025" fill="none" stroke="black"/>
<text xml:space="preserve" x="361.938" y="38.9865" fill="black" font-size="15.6962" font-family="Helvetica">Entries </text>
<text xml:space="preserve" x="524.382" y="38.9865" fill="black" font-size="15.6962" font-family="Helvetica"> 82</text>
<text xml:space="preserve" x="375.745" y="57.6676" fill="black" font-size="15.6962" font-family="Helvetica"> / ndf </text>
<text xml:space="preserve" x="370.06" y="52.7943" fill="black" font-size="10.6308" font-family="Helvetica">2</text>
<text xml:space="preserve" x="361.938" y="57.6676" fill="black" font-size="15.6962" font-family="Times">&#0967;</text>
<text xml:space="preserve" x="475.648" y="57.6676" fill="black" font-size="15.6962" font-family="Helvetica"> 0.7229 / 1</text>
<text xml:space="preserve" x="361.938" y="75.5364" fill="black" font-size="15.6962" font-family="Helvetica">Prob  </text>
<text xml:space="preserve" x="494.329" y="75.5364" fill="black" font-size="15.6962" font-family="Helvetica"> 0.3952</text>
<text xml:space="preserve" x="361.938" y="94.2175" fill="black" font-size="15.6962" font-family="Helvetica">Const    </text>
<text xml:space="preserve" x="511.386" y="93.4052" fill="black" font-size="15.6962" font-family="Helvetica"> 7.02</text>
<text xml:space="preserve" x="502.452" y="93.4052" fill="black" font-size="15.6962" font-family="Times">&#0177;</text>
<text xml:space="preserve" x="457.78" y="93.4052" fill="black" font-size="15.6962" font-family="Helvetica"> 45.61 </text>
<text xml:space="preserve" x="361.938" y="111.274" fill="black" font-size="15.6962" font-family="Helvetica">Mean     </text>
<text xml:space="preserve" x="520.32" y="111.274" fill="black" font-size="15.6962" font-family="Helvetica"> 0.3</text>
<text xml:space="preserve" x="511.386" y="111.274" fill="black" font-size="15.6962" font-family="Times">&#0177;</text>
<text xml:space="preserve" x="463.465" y="111.274" fill="black" font-size="15.6962" font-family="Helvetica"> 810.2 </text>
<text xml:space="preserve" x="361.938" y="128.331" fill="black" font-size="15.6962" font-family="Helvetica">Sigma    </text>
<text xml:space="preserve" x="503.264" y="129.143" fill="black" font-size="15.6962" font-family="Helvetica"> 0.313</text>
<text xml:space="preserve" x="494.329" y="129.143" fill="black" font-size="15.6962" font-family="Times">&#0177;</text>
<text xml:space="preserve" x="446.408" y="129.143" fill="black" font-size="15.6962" font-family="Helvetica"> 2.796 </text>
<path d="M57.1929,347.224h 453.543" fill="none" stroke="black"/>
<path d="M129.869,337.964v 9.2593" fill="none" stroke="black"/>
<path d="M144.98,342.594v 4.62965" fill="none" stroke="black"/>
<path d="M160.09,342.594v 4.62965" fill="none" stroke="black"/>
<path d="M175.201,342.594v 4.62965" fill="none" stroke="black"/>
<path d="M190.312,342.594v 4.62965" fill="none" stroke="black"/>
<path d="M205.423,337.964v 9.2593" fill="none" stroke="black"/>
<path d="M220.533,342.594v 4.62965" fill="none" stroke="black"/>
<path d="M235.644,342.594v 4.62965" fill="none" stroke="black"/>
<path d="M250.755,342.594v 4.62965" fill="none" stroke="black"/>
<path d="M265.866,342.594v 4.62965" fill="none" stroke="black"/>
<path d="M280.976,337.964v 9.2593" fill="none" stroke="black"/>
<path d="M296.087,342.594v 4.62965" fill="none" stroke="black"/>
<path d="M311.198,342.594v 4.62965" fill="none" stroke="black"/>
<path d="M326.309,342.594v 4.62965" fill="none" stroke="black"/>
<path d="M341.419,342.594v 4.62965" fill="none" stroke="black"/>
<path d="M356.53,337.964v 9.2593" fill="none" stroke="black"/>
<path d="M371.641,342.594v 4.62965" fill="none" stroke="black"/>
<path d="M386.751,342.594v 4.62965" fill="none" stroke="black"/>
<path d="M401.862,342.594v 4.62965" fill="none" stroke="black"/>
<path d="M416.973,342.594v 4.62965" fill="none" stroke="black"/>
<path d="M432.084,337.964v 9.2593" fill="none" stroke="black"/>
<path d="M447.194,342.594v 4.62965" fill="none" stroke="black"/>
<path d="M462.305,342.594v 4.62965" fill="none" stroke="black"/>
<path d="M477.416,342.594v 4.62965" fill="none" stroke="black"/>
<path d="M492.527,342.594v 4.62965" fill="none" stroke="black"/>
<path d="M507.637,337.964v 9.2593" fill="none" stroke="black"/>
<path d="M129.869,337.964v 9.2593" fill="none" stroke="black"/>
<path d="M114.758,342.594v 4.62965" fill="none" stroke="black"/>
<path d="M99.6476,342.594v 4.62965" fill="none" stroke="black"/>
<path d="M84.5368,342.594v 4.62965" fill="none" stroke="black"/>
<path d="M69.4261,342.594v 4.62965" fill="none" stroke="black"/>
<path d="M507.637,337.964v 9.2593" fill="none" stroke="black"/>
<text xml:space="preserve" x="118.272" y="359.813" fill="black" font-size="12.8882" font-family="Helvetica">790</text>
<text xml:space="preserve" x="193.808" y="359.813" fill="black" font-size="12.8882" font-family="Helvetica">800</text>
<text xml:space="preserve" x="269.345" y="359.813" fill="black" font-size="12.8882" font-family="Helvetica">810</text>
<text xml:space="preserve" x="344.881" y="359.813" fill="black" font-size="12.8882" font-family="Helvetica">820</text>
<text xml:space="preserve" x="420.417" y="359.813" fill="black" font-size="12.8882" font-family="Helvetica">830</text>
<text xml:space="preserve" x="495.954" y="359.813" fill="black" font-size="12.8882" font-family="Helvetica">840</text>
<text xml:space="preserve" x="457.78" y="372.809" fill="black" font-size="12.8882" font-family="Helvetica">Time [ns]</text>
<path d="M57.1929,347.224v -308.643" fill="none" stroke="black"/>
<path d="M70.7992,347.224h -13.6063" fill="none" stroke="black"/>
<path d="M63.9961,340.97h -6.80315" fill="none" stroke="black"/>
<path d="M63.9961,334.715h -6.80315" fill="none" stroke="black"/>
<path d="M63.9961,328.461h -6.80315" fill="none" stroke="black"/>
<path d="M63.9961,322.207h -6.80315" fill="none" stroke="black"/>
<path d="M70.7992,315.953h -13.6063" fill="none" stroke="black"/>
<path d="M63.9961,309.699h -6.80315" fill="none" stroke="black"/>
<path d="M63.9961,303.445h -6.80315" fill="none" stroke="black"/>
<path d="M63.9961,297.19h -6.80315" fill="none" stroke="black"/>
<path d="M63.9961,290.936h -6.80315" fill="none" stroke="black"/>
<path d="M70.7992,284.682h -13.6063" fill="none" stroke="black"/>
<path d="M63.9961,278.428h -6.80315" fill="none" stroke="black"/>
<path d="M63.9961,272.174h -6.80315" fill="none" stroke="black"/>
<path d="M63.9961,265.92h -6.80315" fill="none" stroke="black"/>
<path d="M63.9961,259.665h -6.80315" fill="none" stroke="black"/>
<path d="M70.7992,253.411h -13.6063" fill="none" stroke="black"/>
<path d="M63.9961,247.157h -6.80315" fill="none" stroke="black"/>
<path d="M63.9961,240.903h -6.80315" fill="none" stroke="black"/>
<path d="M63.9961,234.649h -6.80315" fill="none" stroke="black"/>
<path d="M63.9961,228.395h -6.80315" fill="none" stroke="black"/>
<path d="M70.7992,222.14h -13.6063" fill="none" stroke="black"/>
<path d="M63.9961,215.886h -6.80315" fill="none" stroke="black"/>
<path d="M63.9961,209.632h -6.80315" fill="none" stroke="black"/>
<path d="M63.9961,203.378h -6.80315" fill="none" stroke="black"/>
<path d="M63.9961,197.124h -6.80315" fill="none" stroke="black"/>
<path d="M70.7992,190.87h -13.6063" fill="none" stroke="black"/>
<path d="M63.9961,184.615h -6.80315" fill="none" stroke="black"/>
<path d="M63.9961,178.361h -6.80315" fill="none" stroke="black"/>
<path d="M63.9961,172.107h -6.80315" fill="none" stroke="black"/>
<path d="M63.9961,165.853h -6.80315" fill="none" stroke="black"/>
<path d="M70.7992,159.599h -13.6063" fill="none" stroke="black"/>
<path d="M63.9961,153.344h -6.80315" fill="none" stroke="black"/>
<path d="M63.9961,147.09h -6.80315" fill="none" stroke="black"/>
<path d="M63.9961,140.836h -6.80315" fill="none" stroke="black"/>
<path d="M63.9961,134.582h -6.80315" fill="none" stroke="black"/>
<path d="M70.7992,128.328h -13.6063" fill="none" stroke="black"/>
<path d="M63.9961,122.074h -6.80315" fill="none" stroke="black"/>
<path d="M63.9961,115.819h -6.80315" fill="none" stroke="black"/>
<path d="M63.9961,109.565h -6.80315" fill="none" stroke="black"/>
<path d="M63.9961,103.311h -6.80315" fill="none" stroke="black"/>
<path d="M70.7992,97.0569h -13.6063" fill="none" stroke="black"/>
<path d="M63.9961,90.8028h -6.80315" fill="none" stroke="black"/>
<path d="M63.9961,84.5486h -6.80315" fill="none" stroke="black"/>
<path d="M63.9961,78.2944h -6.80315" fill="none" stroke="black"/>
<path d="M63.9961,72.0402h -6.80315" fill="none" stroke="black"/>
<path d="M70.7992,65.7861h -13.6063" fill="none" stroke="black"/>
<path d="M70.7992,65.7861h -13.6063" fill="none" stroke="black"/>
<path d="M63.9961,59.5319h -6.80315" fill="none" stroke="black"/>
<path d="M63.9961,53.2777h -6.80315" fill="none" stroke="black"/>
<path d="M63.9961,47.0236h -6.80315" fill="none" stroke="black"/>
<path d="M63.9961,40.7694h -6.80315" fill="none" stroke="black"/>
<text xml:space="preserve" x="46.7965" y="351.691" fill="black" font-size="12.8882" font-family="Helvetica">0</text>
<text xml:space="preserve" x="46.7965" y="320.014" fill="black" font-size="12.8882" font-family="Helvetica">5</text>
<text xml:space="preserve" x="39.4865" y="289.15" fill="black" font-size="12.8882" font-family="Helvetica">10</text>
<text xml:space="preserve" x="39.4865" y="257.474" fill="black" font-size="12.8882" font-family="Helvetica">15</text>
<text xml:space="preserve" x="39.4865" y="226.609" fill="black" font-size="12.8882" font-family="Helvetica">20</text>
<text xml:space="preserve" x="39.4865" y="194.933" fill="black" font-size="12.8882" font-family="Helvetica">25</text>
<text xml:space="preserve" x="39.4865" y="164.068" fill="black" font-size="12.8882" font-family="Helvetica">30</text>
<text xml:space="preserve" x="39.4865" y="132.392" fill="black" font-size="12.8882" font-family="Helvetica">35</text>
<text xml:space="preserve" x="39.4865" y="101.527" fill="black" font-size="12.8882" font-family="Helvetica">40</text>
<text xml:space="preserve" x="39.4865" y="69.8509" fill="black" font-size="12.8882" font-family="Helvetica">45</text>
<g transform="rotate(-90,28.9277,71.4753)">
<text xml:space="preserve" x="28.9277" y="71.4753" fill="black" font-size="12.8882" font-family="Helvetica">Event</text>
</g>
<rect x="351.996" y="25.0773" width="204.094" height="108.025" fill="white"/>
<path d="M351.996,133.102h 204.094" fill="none" stroke="black"/>
<path d="M556.091,133.102v -108.025" fill="none" stroke="black"/>
<path d="M556.091,25.0773h -204.094" fill="none" stroke="black"/>
<path d="M351.996,25.0773v 108.025" fill="none" stroke="black"/>
<text xml:space="preserve" x="361.938" y="38.9865" fill="black" font-size="15.6962" font-family="Helvetica">Entries </text>
<text xml:space="preserve" x="524.382" y="38.9865" fill="black" font-size="15.6962" font-family="Helvetica"> 82</text>
<text xml:space="preserve" x="375.745" y="57.6676" fill="black" font-size="15.6962" font-family="Helvetica"> / ndf </text>
<text xml:space="preserve" x="370.06" y="52.7943" fill="black" font-size="10.6308" font-family="Helvetica">2</text>
<text xml:space="preserve" x="361.938" y="57.6676" fill="black" font-size="15.6962" font-family="Times">&#0967;</text>
<text xml:space="preserve" x="475.648" y="57.6676" fill="black" font-size="15.6962" font-family="Helvetica"> 0.7229 / 1</text>
<text xml:space="preserve" x="361.938" y="75.5364" fill="black" font-size="15.6962" font-family="Helvetica">Prob  </text>
<text xml:space="preserve" x="494.329" y="75.5364" fill="black" font-size="15.6962" font-family="Helvetica"> 0.3952</text>
<text xml:space="preserve" x="361.938" y="94.2175" fill="black" font-size="15.6962" font-family="Helvetica">Const    </text>
<text xml:space="preserve" x="511.386" y="93.4052" fill="black" font-size="15.6962" font-family="Helvetica"> 7.02</text>
<text xml:space="preserve" x="502.452" y="93.4052" fill="black" font-size="15.6962" font-family="Times">&#0177;</text>
<text xml:space="preserve" x="457.78" y="93.4052" fill="black" font-size="15.6962" font-family="Helvetica"> 45.61 </text>
<text xml:space="preserve" x="361.938" y="111.274" fill="black" font-size="15.6962" font-family="Helvetica">Mean     </text>
<text xml:space="preserve" x="520.32" y="111.274" fill="black" font-size="15.6962" font-family="Helvetica"> 0.3</text>
<text xml:space="preserve" x="511.386" y="111.274" fill="black" font-size="15.6962" font-family="Times">&#0177;</text>
<text xml:space="preserve" x="463.465" y="111.274" fill="black" font-size="15.6962" font-family="Helvetica"> 810.2 </text>
<text xml:space="preserve" x="361.938" y="128.331" fill="black" font-size="15.6962" font-family="Helvetica">Sigma    </text>
<text xml:space="preserve" x="503.264" y="129.143" fill="black" font-size="15.6962" font-family="Helvetica"> 0.313</text>
<text xml:space="preserve" x="494.329" y="129.143" fill="black" font-size="15.6962" font-family="Times">&#0177;</text>
<text xml:space="preserve" x="446.408" y="129.143" fill="black" font-size="15.6962" font-family="Helvetica"> 2.796 </text>
<text xml:space="preserve" x="254.725" y="18.681" fill="black" font-size="17.0471" font-family="Helvetica">0mm 61</text></svg>
