<?xml version="1.0" standalone="no"?>
<svg width="567.429" height="384.969" viewBox="0 0 567.429 384.969" xmlns="http://www.w3.org/2000/svg" shape-rendering="crispEdges">
<title>
img/week2/Combined280mm_ch_47.svg
</title>
<desc>
Creator: ROOT Version 6.22/09
CreationDate: Thu Jun 24 12:33:05 2021</desc>
<defs>
</defs>
<rect x="0.5" y="0" width="566.929" height="384.469" fill="white"/>
<rect x="57.1929" y="38.4469" width="453.543" height="307.575" fill="white"/>
<rect x="57.1929" y="38.4469" width="453.543" height="307.575" fill="none" stroke="black"/>
<rect x="57.1929" y="38.4469" width="453.543" height="307.575" fill="white"/>
<rect x="57.1929" y="38.4469" width="453.543" height="307.575" fill="none" stroke="black"/>
<path d="M57.1929,346.022h 120.945v -2.81662h 30.2362v -14.0831h 30.2362v -59.1491h 30.2362v -216.88h 30.2362v 191.53h 30.2362v 101.398h 181.417" fill="none" stroke="#000099"/>
<g fill="#ff0000">
<polygon points=" 279.729, 48.8577 288.2, 48.8577 283.965, 57.329"/>
</g>
<path d="M59.4606,346.022h 136.063l 4.53543, -0.0329033l 4.53543, -0.0511305l 4.53543, -0.119891l 4.53543, -0.266278l 4.53543, -0.559949l 4.53543, -1.11431l 4.53543, -2.0972l 4.53543, -3.73009l 4.53543, -6.26374l 4.53543, -9.91865l 4.53543, -14.7873l
 4.53543, -20.7116l 4.53543, -27.1737l 4.53543, -33.2545l 4.53543, -37.7152l 4.53543, -39.228l 4.53543, -36.7212l 4.53543, -29.7464l 4.53543, -18.7308" fill="none" stroke="#ff0000" stroke-width="2"/>
<path d="M281.697,63.7995l 4.53543, -4.99895l 4.53543, 9.47873l 4.53543, 22.5495l 4.53543, 32.403l 4.53543, 37.981l 4.53543, 39.1454l 4.53543, 36.575l 4.53543, 31.4624l 4.53543, 25.1409l 4.53543, 18.7669l 4.53543, 13.136l 4.53543, 8.64463l 4.53543,
 5.35897l 4.53543, 3.13402l 4.53543, 1.73099l 4.53543, 0.903747l 4.53543, 0.446339l 4.53543, 0.208641l 4.53543, 0.0923545l 4.53543, 0.0630047h 131.528" fill="none" stroke="#ff0000" stroke-width="2"/>
<path d="M503.933,346.022h 4.53543" fill="none" stroke="#ff0000" stroke-width="2"/>
<path d="M57.1929,346.022h 453.543" fill="none" stroke="black"/>
<path d="M84.5516,336.795v 9.22726" fill="none" stroke="black"/>
<path d="M99.6623,341.409v 4.61363" fill="none" stroke="black"/>
<path d="M114.773,341.409v 4.61363" fill="none" stroke="black"/>
<path d="M129.884,341.409v 4.61363" fill="none" stroke="black"/>
<path d="M144.995,341.409v 4.61363" fill="none" stroke="black"/>
<path d="M160.105,336.795v 9.22726" fill="none" stroke="black"/>
<path d="M175.216,341.409v 4.61363" fill="none" stroke="black"/>
<path d="M190.327,341.409v 4.61363" fill="none" stroke="black"/>
<path d="M205.437,341.409v 4.61363" fill="none" stroke="black"/>
<path d="M220.548,341.409v 4.61363" fill="none" stroke="black"/>
<path d="M235.659,336.795v 9.22726" fill="none" stroke="black"/>
<path d="M250.77,341.409v 4.61363" fill="none" stroke="black"/>
<path d="M265.88,341.409v 4.61363" fill="none" stroke="black"/>
<path d="M280.991,341.409v 4.61363" fill="none" stroke="black"/>
<path d="M296.102,341.409v 4.61363" fill="none" stroke="black"/>
<path d="M311.213,336.795v 9.22726" fill="none" stroke="black"/>
<path d="M326.323,341.409v 4.61363" fill="none" stroke="black"/>
<path d="M341.434,341.409v 4.61363" fill="none" stroke="black"/>
<path d="M356.545,341.409v 4.61363" fill="none" stroke="black"/>
<path d="M371.656,341.409v 4.61363" fill="none" stroke="black"/>
<path d="M386.766,336.795v 9.22726" fill="none" stroke="black"/>
<path d="M401.877,341.409v 4.61363" fill="none" stroke="black"/>
<path d="M416.988,341.409v 4.61363" fill="none" stroke="black"/>
<path d="M432.098,341.409v 4.61363" fill="none" stroke="black"/>
<path d="M447.209,341.409v 4.61363" fill="none" stroke="black"/>
<path d="M462.32,336.795v 9.22726" fill="none" stroke="black"/>
<path d="M84.5516,336.795v 9.22726" fill="none" stroke="black"/>
<path d="M69.4409,341.409v 4.61363" fill="none" stroke="black"/>
<path d="M462.32,336.795v 9.22726" fill="none" stroke="black"/>
<path d="M477.431,341.409v 4.61363" fill="none" stroke="black"/>
<path d="M492.541,341.409v 4.61363" fill="none" stroke="black"/>
<path d="M507.652,341.409v 4.61363" fill="none" stroke="black"/>
<text xml:space="preserve" x="73.8098" y="358.403" fill="black" font-size="12.8453" font-family="Helvetica">780</text>
<text xml:space="preserve" x="148.749" y="358.403" fill="black" font-size="12.8453" font-family="Helvetica">790</text>
<text xml:space="preserve" x="224.502" y="358.403" fill="black" font-size="12.8453" font-family="Helvetica">800</text>
<text xml:space="preserve" x="300.256" y="358.403" fill="black" font-size="12.8453" font-family="Helvetica">810</text>
<text xml:space="preserve" x="376.009" y="358.403" fill="black" font-size="12.8453" font-family="Helvetica">820</text>
<text xml:space="preserve" x="450.948" y="358.403" fill="black" font-size="12.8453" font-family="Helvetica">830</text>
<text xml:space="preserve" x="460.723" y="370.622" fill="black" font-size="12.8453" font-family="Helvetica">Time [ns]</text>
<path d="M57.1929,346.022v -307.575" fill="none" stroke="black"/>
<path d="M70.7992,346.022h -13.6063" fill="none" stroke="black"/>
<path d="M63.9961,331.939h -6.80315" fill="none" stroke="black"/>
<path d="M63.9961,317.856h -6.80315" fill="none" stroke="black"/>
<path d="M63.9961,303.773h -6.80315" fill="none" stroke="black"/>
<path d="M70.7992,289.69h -13.6063" fill="none" stroke="black"/>
<path d="M63.9961,275.607h -6.80315" fill="none" stroke="black"/>
<path d="M63.9961,261.524h -6.80315" fill="none" stroke="black"/>
<path d="M63.9961,247.44h -6.80315" fill="none" stroke="black"/>
<path d="M70.7992,233.357h -13.6063" fill="none" stroke="black"/>
<path d="M63.9961,219.274h -6.80315" fill="none" stroke="black"/>
<path d="M63.9961,205.191h -6.80315" fill="none" stroke="black"/>
<path d="M63.9961,191.108h -6.80315" fill="none" stroke="black"/>
<path d="M70.7992,177.025h -13.6063" fill="none" stroke="black"/>
<path d="M63.9961,162.942h -6.80315" fill="none" stroke="black"/>
<path d="M63.9961,148.859h -6.80315" fill="none" stroke="black"/>
<path d="M63.9961,134.775h -6.80315" fill="none" stroke="black"/>
<path d="M70.7992,120.692h -13.6063" fill="none" stroke="black"/>
<path d="M63.9961,106.609h -6.80315" fill="none" stroke="black"/>
<path d="M63.9961,92.5261h -6.80315" fill="none" stroke="black"/>
<path d="M63.9961,78.443h -6.80315" fill="none" stroke="black"/>
<path d="M70.7992,64.3599h -13.6063" fill="none" stroke="black"/>
<path d="M70.7992,64.3599h -13.6063" fill="none" stroke="black"/>
<path d="M63.9961,50.2767h -6.80315" fill="none" stroke="black"/>
<text xml:space="preserve" x="47.7441" y="350.258" fill="black" font-size="12.8453" font-family="Helvetica">0</text>
<text xml:space="preserve" x="41.2277" y="294.054" fill="black" font-size="12.8453" font-family="Helvetica">20</text>
<text xml:space="preserve" x="41.2277" y="237.85" fill="black" font-size="12.8453" font-family="Helvetica">40</text>
<text xml:space="preserve" x="41.2277" y="181.645" fill="black" font-size="12.8453" font-family="Helvetica">60</text>
<text xml:space="preserve" x="41.2277" y="125.441" fill="black" font-size="12.8453" font-family="Helvetica">80</text>
<text xml:space="preserve" x="33.8967" y="69.237" fill="black" font-size="12.8453" font-family="Helvetica">100</text>
<g transform="rotate(-90,20.8638,70.0516)">
<text xml:space="preserve" x="20.8638" y="70.0516" fill="black" font-size="12.8453" font-family="Helvetica">Event</text>
</g>
<text xml:space="preserve" x="243.237" y="18.7347" fill="black" font-size="16.9898" font-family="Helvetica">280mm 47</text></svg>
