<?xml version="1.0" standalone="no"?>
<svg width="567.429" height="386.304" viewBox="0 0 567.429 386.304" xmlns="http://www.w3.org/2000/svg" shape-rendering="crispEdges">
<title>
img/week2/Combined560mm_ch_12.svg
</title>
<desc>
Creator: ROOT Version 6.22/08
CreationDate: Tue Jun 22 00:35:55 2021</desc>
<defs>
</defs>
<rect x="0.5" y="0" width="566.929" height="385.804" fill="white"/>
<rect x="57.1929" y="38.5804" width="453.543" height="308.643" fill="white"/>
<rect x="57.1929" y="38.5804" width="453.543" height="308.643" fill="none" stroke="black"/>
<rect x="57.1929" y="38.5804" width="453.543" height="308.643" fill="white"/>
<rect x="57.1929" y="38.5804" width="453.543" height="308.643" fill="none" stroke="black"/>
<path d="M57.1929,347.224h 139.552v -25.7847h 34.8879v -82.5112h 34.8879v -185.65h 34.8879v 252.69h 34.8879v 41.2556h 174.44" fill="none" stroke="#000099"/>
<g fill="#ff0000">
<polygon points=" 279.741, 49.0542 288.188, 49.0542 283.965, 57.5013"/>
</g>
<path d="M59.4606,347.224h 126.992l 4.53543, -0.0526348l 4.53543, -0.0741036l 4.53543, -0.164393l 4.53543, -0.346861l 4.53543, -0.695798l 4.53543, -1.32635l 4.53543, -2.40123l 4.53543, -4.12571l 4.53543, -6.72154l 4.53543, -10.3719l 4.53543,
 -15.1366l 4.53543, -20.8518l 4.53543, -27.0429l 4.53543, -32.8941l 4.53543, -37.3163l 4.53543, -39.131l 4.53543, -37.3488l 4.53543, -31.472l 4.53543, -21.7226l 4.53543, -9.10146l 4.53543, 4.76749" fill="none" stroke="#ff0000" stroke-width="2"/>
<path d="M281.697,53.6932l 4.53543, 17.9796l 4.53543, 28.7788l 4.53543, 35.9404l 4.53543, 38.9928l 4.53543, 38.2247l 4.53543, 34.5015l 4.53543, 28.975l 4.53543, 22.7878l 4.53543, 16.8547l 4.53543, 11.7587l 4.53543, 7.7543l 4.53543, 4.8413l 4.53543,
 2.86514l 4.53543, 1.60882l 4.53543, 0.857781l 4.53543, 0.434531l 4.53543, 0.209247l 4.53543, 0.095824l 4.53543, 0.0698258h 136.063" fill="none" stroke="#ff0000" stroke-width="2"/>
<path d="M503.933,347.224h 4.53543" fill="none" stroke="#ff0000" stroke-width="2"/>
<rect x="351.996" y="25.0773" width="204.094" height="108.025" fill="white"/>
<path d="M351.996,133.102h 204.094" fill="none" stroke="black"/>
<path d="M556.091,133.102v -108.025" fill="none" stroke="black"/>
<path d="M556.091,25.0773h -204.094" fill="none" stroke="black"/>
<path d="M351.996,25.0773v 108.025" fill="none" stroke="black"/>
<text xml:space="preserve" x="361.938" y="38.9865" fill="black" font-size="15.6962" font-family="Helvetica">Entries </text>
<text xml:space="preserve" x="526.818" y="38.9865" fill="black" font-size="15.6962" font-family="Helvetica"> 91</text>
<text xml:space="preserve" x="375.745" y="57.6676" fill="black" font-size="15.6962" font-family="Helvetica"> / ndf </text>
<text xml:space="preserve" x="370.06" y="52.7943" fill="black" font-size="10.6308" font-family="Helvetica">2</text>
<text xml:space="preserve" x="361.938" y="57.6676" fill="black" font-size="15.6962" font-family="Times">&#0967;</text>
<text xml:space="preserve" x="483.771" y="57.6676" fill="black" font-size="15.6962" font-family="Helvetica"> 4.109 / 1</text>
<text xml:space="preserve" x="361.938" y="75.5364" fill="black" font-size="15.6962" font-family="Helvetica">Prob  </text>
<text xml:space="preserve" x="485.395" y="75.5364" fill="black" font-size="15.6962" font-family="Helvetica"> 0.04266</text>
<text xml:space="preserve" x="361.938" y="94.2175" fill="black" font-size="15.6962" font-family="Helvetica">Const    </text>
<text xml:space="preserve" x="511.386" y="93.4052" fill="black" font-size="15.6962" font-family="Helvetica"> 8.27</text>
<text xml:space="preserve" x="502.452" y="93.4052" fill="black" font-size="15.6962" font-family="Times">&#0177;</text>
<text xml:space="preserve" x="454.531" y="93.4052" fill="black" font-size="15.6962" font-family="Helvetica"> 57.88 </text>
<text xml:space="preserve" x="361.938" y="111.274" fill="black" font-size="15.6962" font-family="Helvetica">Mean     </text>
<text xml:space="preserve" x="520.32" y="111.274" fill="black" font-size="15.6962" font-family="Helvetica"> 0.3</text>
<text xml:space="preserve" x="511.386" y="111.274" fill="black" font-size="15.6962" font-family="Times">&#0177;</text>
<text xml:space="preserve" x="463.465" y="111.274" fill="black" font-size="15.6962" font-family="Helvetica"> 809.7 </text>
<text xml:space="preserve" x="361.938" y="128.331" fill="black" font-size="15.6962" font-family="Helvetica">Sigma    </text>
<text xml:space="preserve" x="505.7" y="129.143" fill="black" font-size="15.6962" font-family="Helvetica"> 0.231</text>
<text xml:space="preserve" x="496.766" y="129.143" fill="black" font-size="15.6962" font-family="Times">&#0177;</text>
<text xml:space="preserve" x="448.845" y="129.143" fill="black" font-size="15.6962" font-family="Helvetica"> 2.397 </text>
<path d="M57.1929,347.224h 453.543" fill="none" stroke="black"/>
<path d="M106.162,337.964v 9.2593" fill="none" stroke="black"/>
<path d="M123.597,342.594v 4.62965" fill="none" stroke="black"/>
<path d="M141.033,342.594v 4.62965" fill="none" stroke="black"/>
<path d="M158.468,342.594v 4.62965" fill="none" stroke="black"/>
<path d="M175.904,342.594v 4.62965" fill="none" stroke="black"/>
<path d="M193.339,337.964v 9.2593" fill="none" stroke="black"/>
<path d="M210.775,342.594v 4.62965" fill="none" stroke="black"/>
<path d="M228.21,342.594v 4.62965" fill="none" stroke="black"/>
<path d="M245.646,342.594v 4.62965" fill="none" stroke="black"/>
<path d="M263.081,342.594v 4.62965" fill="none" stroke="black"/>
<path d="M280.517,337.964v 9.2593" fill="none" stroke="black"/>
<path d="M297.952,342.594v 4.62965" fill="none" stroke="black"/>
<path d="M315.388,342.594v 4.62965" fill="none" stroke="black"/>
<path d="M332.823,342.594v 4.62965" fill="none" stroke="black"/>
<path d="M350.258,342.594v 4.62965" fill="none" stroke="black"/>
<path d="M367.694,337.964v 9.2593" fill="none" stroke="black"/>
<path d="M385.129,342.594v 4.62965" fill="none" stroke="black"/>
<path d="M402.565,342.594v 4.62965" fill="none" stroke="black"/>
<path d="M420,342.594v 4.62965" fill="none" stroke="black"/>
<path d="M437.436,342.594v 4.62965" fill="none" stroke="black"/>
<path d="M454.871,337.964v 9.2593" fill="none" stroke="black"/>
<path d="M106.162,337.964v 9.2593" fill="none" stroke="black"/>
<path d="M88.7266,342.594v 4.62965" fill="none" stroke="black"/>
<path d="M71.2911,342.594v 4.62965" fill="none" stroke="black"/>
<path d="M454.871,337.964v 9.2593" fill="none" stroke="black"/>
<path d="M472.307,342.594v 4.62965" fill="none" stroke="black"/>
<path d="M489.742,342.594v 4.62965" fill="none" stroke="black"/>
<path d="M507.178,342.594v 4.62965" fill="none" stroke="black"/>
<text xml:space="preserve" x="94.7174" y="359.813" fill="black" font-size="12.8882" font-family="Helvetica">790</text>
<text xml:space="preserve" x="181.625" y="359.813" fill="black" font-size="12.8882" font-family="Helvetica">800</text>
<text xml:space="preserve" x="268.532" y="359.813" fill="black" font-size="12.8882" font-family="Helvetica">810</text>
<text xml:space="preserve" x="356.252" y="359.813" fill="black" font-size="12.8882" font-family="Helvetica">820</text>
<text xml:space="preserve" x="443.16" y="359.813" fill="black" font-size="12.8882" font-family="Helvetica">830</text>
<text xml:space="preserve" x="481.334" y="373.621" fill="black" font-size="12.8882" font-family="Helvetica">Time</text>
<path d="M57.1929,347.224v -308.643" fill="none" stroke="black"/>
<path d="M70.7992,347.224h -13.6063" fill="none" stroke="black"/>
<path d="M63.9961,336.91h -6.80315" fill="none" stroke="black"/>
<path d="M63.9961,326.596h -6.80315" fill="none" stroke="black"/>
<path d="M63.9961,316.282h -6.80315" fill="none" stroke="black"/>
<path d="M63.9961,305.968h -6.80315" fill="none" stroke="black"/>
<path d="M70.7992,295.654h -13.6063" fill="none" stroke="black"/>
<path d="M63.9961,285.34h -6.80315" fill="none" stroke="black"/>
<path d="M63.9961,275.027h -6.80315" fill="none" stroke="black"/>
<path d="M63.9961,264.713h -6.80315" fill="none" stroke="black"/>
<path d="M63.9961,254.399h -6.80315" fill="none" stroke="black"/>
<path d="M70.7992,244.085h -13.6063" fill="none" stroke="black"/>
<path d="M63.9961,233.771h -6.80315" fill="none" stroke="black"/>
<path d="M63.9961,223.457h -6.80315" fill="none" stroke="black"/>
<path d="M63.9961,213.143h -6.80315" fill="none" stroke="black"/>
<path d="M63.9961,202.829h -6.80315" fill="none" stroke="black"/>
<path d="M70.7992,192.515h -13.6063" fill="none" stroke="black"/>
<path d="M63.9961,182.201h -6.80315" fill="none" stroke="black"/>
<path d="M63.9961,171.888h -6.80315" fill="none" stroke="black"/>
<path d="M63.9961,161.574h -6.80315" fill="none" stroke="black"/>
<path d="M63.9961,151.26h -6.80315" fill="none" stroke="black"/>
<path d="M70.7992,140.946h -13.6063" fill="none" stroke="black"/>
<path d="M63.9961,130.632h -6.80315" fill="none" stroke="black"/>
<path d="M63.9961,120.318h -6.80315" fill="none" stroke="black"/>
<path d="M63.9961,110.004h -6.80315" fill="none" stroke="black"/>
<path d="M63.9961,99.6903h -6.80315" fill="none" stroke="black"/>
<path d="M70.7992,89.3764h -13.6063" fill="none" stroke="black"/>
<path d="M70.7992,89.3764h -13.6063" fill="none" stroke="black"/>
<path d="M63.9961,79.0625h -6.80315" fill="none" stroke="black"/>
<path d="M63.9961,68.7486h -6.80315" fill="none" stroke="black"/>
<path d="M63.9961,58.4347h -6.80315" fill="none" stroke="black"/>
<path d="M63.9961,48.1208h -6.80315" fill="none" stroke="black"/>
<text xml:space="preserve" x="46.7965" y="351.691" fill="black" font-size="12.8882" font-family="Helvetica">0</text>
<text xml:space="preserve" x="39.4865" y="300.521" fill="black" font-size="12.8882" font-family="Helvetica">10</text>
<text xml:space="preserve" x="39.4865" y="248.539" fill="black" font-size="12.8882" font-family="Helvetica">20</text>
<text xml:space="preserve" x="39.4865" y="197.369" fill="black" font-size="12.8882" font-family="Helvetica">30</text>
<text xml:space="preserve" x="39.4865" y="145.387" fill="black" font-size="12.8882" font-family="Helvetica">40</text>
<text xml:space="preserve" x="39.4865" y="94.2175" fill="black" font-size="12.8882" font-family="Helvetica">50</text>
<g transform="rotate(-90,28.9277,71.4753)">
<text xml:space="preserve" x="28.9277" y="71.4753" fill="black" font-size="12.8882" font-family="Helvetica">Event</text>
</g>
<rect x="351.996" y="25.0773" width="204.094" height="108.025" fill="white"/>
<path d="M351.996,133.102h 204.094" fill="none" stroke="black"/>
<path d="M556.091,133.102v -108.025" fill="none" stroke="black"/>
<path d="M556.091,25.0773h -204.094" fill="none" stroke="black"/>
<path d="M351.996,25.0773v 108.025" fill="none" stroke="black"/>
<text xml:space="preserve" x="361.938" y="38.9865" fill="black" font-size="15.6962" font-family="Helvetica">Entries </text>
<text xml:space="preserve" x="526.818" y="38.9865" fill="black" font-size="15.6962" font-family="Helvetica"> 91</text>
<text xml:space="preserve" x="375.745" y="57.6676" fill="black" font-size="15.6962" font-family="Helvetica"> / ndf </text>
<text xml:space="preserve" x="370.06" y="52.7943" fill="black" font-size="10.6308" font-family="Helvetica">2</text>
<text xml:space="preserve" x="361.938" y="57.6676" fill="black" font-size="15.6962" font-family="Times">&#0967;</text>
<text xml:space="preserve" x="483.771" y="57.6676" fill="black" font-size="15.6962" font-family="Helvetica"> 4.109 / 1</text>
<text xml:space="preserve" x="361.938" y="75.5364" fill="black" font-size="15.6962" font-family="Helvetica">Prob  </text>
<text xml:space="preserve" x="485.395" y="75.5364" fill="black" font-size="15.6962" font-family="Helvetica"> 0.04266</text>
<text xml:space="preserve" x="361.938" y="94.2175" fill="black" font-size="15.6962" font-family="Helvetica">Const    </text>
<text xml:space="preserve" x="511.386" y="93.4052" fill="black" font-size="15.6962" font-family="Helvetica"> 8.27</text>
<text xml:space="preserve" x="502.452" y="93.4052" fill="black" font-size="15.6962" font-family="Times">&#0177;</text>
<text xml:space="preserve" x="454.531" y="93.4052" fill="black" font-size="15.6962" font-family="Helvetica"> 57.88 </text>
<text xml:space="preserve" x="361.938" y="111.274" fill="black" font-size="15.6962" font-family="Helvetica">Mean     </text>
<text xml:space="preserve" x="520.32" y="111.274" fill="black" font-size="15.6962" font-family="Helvetica"> 0.3</text>
<text xml:space="preserve" x="511.386" y="111.274" fill="black" font-size="15.6962" font-family="Times">&#0177;</text>
<text xml:space="preserve" x="463.465" y="111.274" fill="black" font-size="15.6962" font-family="Helvetica"> 809.7 </text>
<text xml:space="preserve" x="361.938" y="128.331" fill="black" font-size="15.6962" font-family="Helvetica">Sigma    </text>
<text xml:space="preserve" x="505.7" y="129.143" fill="black" font-size="15.6962" font-family="Helvetica"> 0.231</text>
<text xml:space="preserve" x="496.766" y="129.143" fill="black" font-size="15.6962" font-family="Times">&#0177;</text>
<text xml:space="preserve" x="448.845" y="129.143" fill="black" font-size="15.6962" font-family="Helvetica"> 2.397 </text>
<text xml:space="preserve" x="243.354" y="18.681" fill="black" font-size="17.0471" font-family="Helvetica">560mm 12</text></svg>
