<?xml version="1.0" standalone="no"?>
<svg width="567.429" height="386.304" viewBox="0 0 567.429 386.304" xmlns="http://www.w3.org/2000/svg" shape-rendering="crispEdges">
<title>
img/week2/Combined670mm_ch_29.svg
</title>
<desc>
Creator: ROOT Version 6.22/08
CreationDate: Mon Jun 21 21:34:06 2021</desc>
<defs>
</defs>
<rect x="0.5" y="0" width="566.929" height="385.804" fill="white"/>
<rect x="57.1929" y="38.5804" width="453.543" height="308.643" fill="white"/>
<rect x="57.1929" y="38.5804" width="453.543" height="308.643" fill="none" stroke="black"/>
<rect x="57.1929" y="38.5804" width="453.543" height="308.643" fill="white"/>
<rect x="57.1929" y="38.5804" width="453.543" height="308.643" fill="none" stroke="black"/>
<path d="M57.1929,347.224h 97.1879v -6.5564h 64.7919v -55.7294h 32.396v -190.136h 32.396v -32.782h 32.396v 278.647h 32.396v 6.5564h 161.98" fill="none" stroke="#000099"/>
<g fill="#ff0000">
<polygon points=" 263.543, 90.5788 271.99, 90.5788 267.767, 99.0259"/>
</g>
<path d="M59.4606,347.224h 131.528l 4.53543, -0.0733055l 4.53543, -0.103979l 4.53543, -0.231154l 4.53543, -0.487969l 4.53543, -0.977752l 4.53543, -1.8586l 4.53543, -3.34958l 4.53543, -5.71871l 4.53543, -9.24024l 4.53543, -14.1123l 4.53543, -20.3385l
 4.53543, -27.5984l 4.53543, -35.1513l 4.53543, -41.8349l 4.53543, -46.2043l 4.53543, -46.8215l 4.53543, -42.6408l 1.61692, -11.9001" fill="none" stroke="#ff0000" stroke-width="2"/>
<path d="M291.064,38.5804l 4.23935, 37.0082" fill="none" stroke="#ff0000" stroke-width="2"/>
<path d="M295.303,75.5886l 4.53543, 45.7874l 4.53543, 46.9652l 4.53543, 43.9108l 4.53543, 37.9564l 4.53543, 30.5859l 4.53543, 23.098l 4.53543, 16.4057l 4.53543, 10.987l 4.53543, 6.95075l 4.53543, 4.15971l 4.53543, 2.35746l 4.53543, 1.26632l 4.53543,
 0.645157l 4.53543, 0.311924l 4.53543, 0.143185l 4.53543, 0.0624276l 4.53543, 0.0418764h 136.063" fill="none" stroke="#ff0000" stroke-width="2"/>
<path d="M57.1929,347.224h 453.543" fill="none" stroke="black"/>
<path d="M102.664,337.964v 9.2593" fill="none" stroke="black"/>
<path d="M118.854,342.594v 4.62965" fill="none" stroke="black"/>
<path d="M135.044,342.594v 4.62965" fill="none" stroke="black"/>
<path d="M151.234,342.594v 4.62965" fill="none" stroke="black"/>
<path d="M167.425,342.594v 4.62965" fill="none" stroke="black"/>
<path d="M183.615,337.964v 9.2593" fill="none" stroke="black"/>
<path d="M199.805,342.594v 4.62965" fill="none" stroke="black"/>
<path d="M215.995,342.594v 4.62965" fill="none" stroke="black"/>
<path d="M232.185,342.594v 4.62965" fill="none" stroke="black"/>
<path d="M248.375,342.594v 4.62965" fill="none" stroke="black"/>
<path d="M264.565,337.964v 9.2593" fill="none" stroke="black"/>
<path d="M280.755,342.594v 4.62965" fill="none" stroke="black"/>
<path d="M296.945,342.594v 4.62965" fill="none" stroke="black"/>
<path d="M313.135,342.594v 4.62965" fill="none" stroke="black"/>
<path d="M329.325,342.594v 4.62965" fill="none" stroke="black"/>
<path d="M345.515,337.964v 9.2593" fill="none" stroke="black"/>
<path d="M361.705,342.594v 4.62965" fill="none" stroke="black"/>
<path d="M377.895,342.594v 4.62965" fill="none" stroke="black"/>
<path d="M394.086,342.594v 4.62965" fill="none" stroke="black"/>
<path d="M410.276,342.594v 4.62965" fill="none" stroke="black"/>
<path d="M426.466,337.964v 9.2593" fill="none" stroke="black"/>
<path d="M442.656,342.594v 4.62965" fill="none" stroke="black"/>
<path d="M458.846,342.594v 4.62965" fill="none" stroke="black"/>
<path d="M475.036,342.594v 4.62965" fill="none" stroke="black"/>
<path d="M491.226,342.594v 4.62965" fill="none" stroke="black"/>
<path d="M507.416,337.964v 9.2593" fill="none" stroke="black"/>
<path d="M102.664,337.964v 9.2593" fill="none" stroke="black"/>
<path d="M86.4742,342.594v 4.62965" fill="none" stroke="black"/>
<path d="M70.2841,342.594v 4.62965" fill="none" stroke="black"/>
<path d="M507.416,337.964v 9.2593" fill="none" stroke="black"/>
<text xml:space="preserve" x="90.6563" y="359.813" fill="black" font-size="12.8882" font-family="Helvetica">790</text>
<text xml:space="preserve" x="171.878" y="359.813" fill="black" font-size="12.8882" font-family="Helvetica">800</text>
<text xml:space="preserve" x="253.1" y="359.813" fill="black" font-size="12.8882" font-family="Helvetica">810</text>
<text xml:space="preserve" x="333.51" y="359.813" fill="black" font-size="12.8882" font-family="Helvetica">820</text>
<text xml:space="preserve" x="414.732" y="359.813" fill="black" font-size="12.8882" font-family="Helvetica">830</text>
<text xml:space="preserve" x="495.954" y="359.813" fill="black" font-size="12.8882" font-family="Helvetica">840</text>
<text xml:space="preserve" x="481.334" y="373.621" fill="black" font-size="12.8882" font-family="Helvetica">Time</text>
<path d="M57.1929,347.224v -308.643" fill="none" stroke="black"/>
<path d="M70.7992,347.224h -13.6063" fill="none" stroke="black"/>
<path d="M63.9961,340.667h -6.80315" fill="none" stroke="black"/>
<path d="M63.9961,334.111h -6.80315" fill="none" stroke="black"/>
<path d="M63.9961,327.555h -6.80315" fill="none" stroke="black"/>
<path d="M63.9961,320.998h -6.80315" fill="none" stroke="black"/>
<path d="M70.7992,314.442h -13.6063" fill="none" stroke="black"/>
<path d="M63.9961,307.885h -6.80315" fill="none" stroke="black"/>
<path d="M63.9961,301.329h -6.80315" fill="none" stroke="black"/>
<path d="M63.9961,294.773h -6.80315" fill="none" stroke="black"/>
<path d="M63.9961,288.216h -6.80315" fill="none" stroke="black"/>
<path d="M70.7992,281.66h -13.6063" fill="none" stroke="black"/>
<path d="M63.9961,275.103h -6.80315" fill="none" stroke="black"/>
<path d="M63.9961,268.547h -6.80315" fill="none" stroke="black"/>
<path d="M63.9961,261.991h -6.80315" fill="none" stroke="black"/>
<path d="M63.9961,255.434h -6.80315" fill="none" stroke="black"/>
<path d="M70.7992,248.878h -13.6063" fill="none" stroke="black"/>
<path d="M63.9961,242.321h -6.80315" fill="none" stroke="black"/>
<path d="M63.9961,235.765h -6.80315" fill="none" stroke="black"/>
<path d="M63.9961,229.209h -6.80315" fill="none" stroke="black"/>
<path d="M63.9961,222.652h -6.80315" fill="none" stroke="black"/>
<path d="M70.7992,216.096h -13.6063" fill="none" stroke="black"/>
<path d="M63.9961,209.539h -6.80315" fill="none" stroke="black"/>
<path d="M63.9961,202.983h -6.80315" fill="none" stroke="black"/>
<path d="M63.9961,196.427h -6.80315" fill="none" stroke="black"/>
<path d="M63.9961,189.87h -6.80315" fill="none" stroke="black"/>
<path d="M70.7992,183.314h -13.6063" fill="none" stroke="black"/>
<path d="M63.9961,176.757h -6.80315" fill="none" stroke="black"/>
<path d="M63.9961,170.201h -6.80315" fill="none" stroke="black"/>
<path d="M63.9961,163.645h -6.80315" fill="none" stroke="black"/>
<path d="M63.9961,157.088h -6.80315" fill="none" stroke="black"/>
<path d="M70.7992,150.532h -13.6063" fill="none" stroke="black"/>
<path d="M63.9961,143.975h -6.80315" fill="none" stroke="black"/>
<path d="M63.9961,137.419h -6.80315" fill="none" stroke="black"/>
<path d="M63.9961,130.863h -6.80315" fill="none" stroke="black"/>
<path d="M63.9961,124.306h -6.80315" fill="none" stroke="black"/>
<path d="M70.7992,117.75h -13.6063" fill="none" stroke="black"/>
<path d="M63.9961,111.193h -6.80315" fill="none" stroke="black"/>
<path d="M63.9961,104.637h -6.80315" fill="none" stroke="black"/>
<path d="M63.9961,98.0805h -6.80315" fill="none" stroke="black"/>
<path d="M63.9961,91.5241h -6.80315" fill="none" stroke="black"/>
<path d="M70.7992,84.9677h -13.6063" fill="none" stroke="black"/>
<path d="M63.9961,78.4113h -6.80315" fill="none" stroke="black"/>
<path d="M63.9961,71.8549h -6.80315" fill="none" stroke="black"/>
<path d="M63.9961,65.2985h -6.80315" fill="none" stroke="black"/>
<path d="M63.9961,58.7421h -6.80315" fill="none" stroke="black"/>
<path d="M70.7992,52.1857h -13.6063" fill="none" stroke="black"/>
<path d="M70.7992,52.1857h -13.6063" fill="none" stroke="black"/>
<path d="M63.9961,45.6293h -6.80315" fill="none" stroke="black"/>
<path d="M63.9961,39.0729h -6.80315" fill="none" stroke="black"/>
<text xml:space="preserve" x="46.7965" y="351.691" fill="black" font-size="12.8882" font-family="Helvetica">0</text>
<text xml:space="preserve" x="39.4865" y="319.202" fill="black" font-size="12.8882" font-family="Helvetica">10</text>
<text xml:space="preserve" x="39.4865" y="285.901" fill="black" font-size="12.8882" font-family="Helvetica">20</text>
<text xml:space="preserve" x="39.4865" y="253.412" fill="black" font-size="12.8882" font-family="Helvetica">30</text>
<text xml:space="preserve" x="39.4865" y="220.924" fill="black" font-size="12.8882" font-family="Helvetica">40</text>
<text xml:space="preserve" x="39.4865" y="187.623" fill="black" font-size="12.8882" font-family="Helvetica">50</text>
<text xml:space="preserve" x="39.4865" y="155.134" fill="black" font-size="12.8882" font-family="Helvetica">60</text>
<text xml:space="preserve" x="39.4865" y="121.833" fill="black" font-size="12.8882" font-family="Helvetica">70</text>
<text xml:space="preserve" x="39.4865" y="89.3441" fill="black" font-size="12.8882" font-family="Helvetica">80</text>
<text xml:space="preserve" x="39.4865" y="56.8554" fill="black" font-size="12.8882" font-family="Helvetica">90</text>
<g transform="rotate(-90,28.9277,71.4753)">
<text xml:space="preserve" x="28.9277" y="71.4753" fill="black" font-size="12.8882" font-family="Helvetica">Event</text>
</g>
<text xml:space="preserve" x="243.354" y="18.681" fill="black" font-size="17.0471" font-family="Helvetica">670mm 29</text></svg>
