<?xml version="1.0" standalone="no"?>
<svg width="567.429" height="386.304" viewBox="0 0 567.429 386.304" xmlns="http://www.w3.org/2000/svg" shape-rendering="crispEdges">
<title>
img/week2/Combined280mm_ch_55.svg
</title>
<desc>
Creator: ROOT Version 6.22/08
CreationDate: Thu Jun 24 11:59:06 2021</desc>
<defs>
</defs>
<rect x="0.5" y="0" width="566.929" height="385.804" fill="white"/>
<rect x="57.1929" y="38.5804" width="453.543" height="308.643" fill="white"/>
<rect x="57.1929" y="38.5804" width="453.543" height="308.643" fill="none" stroke="black"/>
<rect x="57.1929" y="38.5804" width="453.543" height="308.643" fill="white"/>
<rect x="57.1929" y="38.5804" width="453.543" height="308.643" fill="none" stroke="black"/>
<path d="M57.1929,347.224h 170.079v -37.2608h 28.3465v -144.903h 28.3465v -111.782h 28.3465v 252.545h 28.3465v 41.4009h 170.079" fill="none" stroke="#000099"/>
<g fill="#ff0000">
<polygon points=" 293.914, 49.0542 302.361, 49.0542 298.138, 57.5013"/>
</g>
<path d="M59.4606,347.224h 140.598l 4.53543, -0.0728035l 4.53543, -0.103609l 4.53543, -0.230335l 4.53543, -0.485614l 4.53543, -0.970485l 4.53543, -1.83742l 4.53543, -3.29348l 4.53543, -5.58412l 4.53543, -8.94619l 4.53543, -13.5238l 4.53543, -19.2545l
 4.53543, -25.7541l 4.53543, -32.2472l 4.53543, -37.5999l 4.53543, -40.489l 4.53543, -39.703l 4.53543, -34.5025l 4.53543, -24.9263" fill="none" stroke="#ff0000" stroke-width="2"/>
<path d="M281.697,57.6994l 4.53543, -11.9177l 4.53543, 2.80568l 4.53543, 17.1213l 4.53543, 29.0038l 4.53543, 36.995l 4.53543, 40.4915l 4.53543, 39.7742l 4.53543, 35.8019l 4.53543, 29.8696l 4.53543, 23.258l 4.53543, 16.9785l 4.53543, 11.6562l 4.53543,
 7.54263l 4.53543, 4.60799l 4.53543, 2.66118l 4.53543, 1.45426l 4.53543, 0.75258l 4.53543, 0.369049l 4.53543, 0.171578l 4.53543, 0.0756612l 4.53543, 0.0515098h 126.992" fill="none" stroke="#ff0000" stroke-width="2"/>
<path d="M503.933,347.224h 4.53543" fill="none" stroke="#ff0000" stroke-width="2"/>
<rect x="351.996" y="25.0773" width="204.094" height="108.025" fill="white"/>
<path d="M351.996,133.102h 204.094" fill="none" stroke="black"/>
<path d="M556.091,133.102v -108.025" fill="none" stroke="black"/>
<path d="M556.091,25.0773h -204.094" fill="none" stroke="black"/>
<path d="M351.996,25.0773v 108.025" fill="none" stroke="black"/>
<text xml:space="preserve" x="361.938" y="38.9865" fill="black" font-size="15.6962" font-family="Helvetica">Entries </text>
<text xml:space="preserve" x="515.447" y="38.9865" fill="black" font-size="15.6962" font-family="Helvetica"> 134</text>
<text xml:space="preserve" x="375.745" y="57.6676" fill="black" font-size="15.6962" font-family="Helvetica"> / ndf </text>
<text xml:space="preserve" x="370.06" y="52.7943" fill="black" font-size="10.6308" font-family="Helvetica">2</text>
<text xml:space="preserve" x="361.938" y="57.6676" fill="black" font-size="15.6962" font-family="Times">&#0967;</text>
<text xml:space="preserve" x="483.771" y="57.6676" fill="black" font-size="15.6962" font-family="Helvetica"> 3.093 / 1</text>
<text xml:space="preserve" x="361.938" y="75.5364" fill="black" font-size="15.6962" font-family="Helvetica">Prob  </text>
<text xml:space="preserve" x="487.832" y="75.5364" fill="black" font-size="15.6962" font-family="Helvetica"> 0.07861</text>
<text xml:space="preserve" x="361.938" y="94.2175" fill="black" font-size="15.6962" font-family="Helvetica">Const    </text>
<text xml:space="preserve" x="511.386" y="93.4052" fill="black" font-size="15.6962" font-family="Helvetica"> 8.83</text>
<text xml:space="preserve" x="502.452" y="93.4052" fill="black" font-size="15.6962" font-family="Times">&#0177;</text>
<text xml:space="preserve" x="454.531" y="93.4052" fill="black" font-size="15.6962" font-family="Helvetica"> 72.99 </text>
<text xml:space="preserve" x="361.938" y="111.274" fill="black" font-size="15.6962" font-family="Helvetica">Mean     </text>
<text xml:space="preserve" x="520.32" y="111.274" fill="black" font-size="15.6962" font-family="Helvetica"> 0.3</text>
<text xml:space="preserve" x="511.386" y="111.274" fill="black" font-size="15.6962" font-family="Times">&#0177;</text>
<text xml:space="preserve" x="463.465" y="111.274" fill="black" font-size="15.6962" font-family="Helvetica"> 808.9 </text>
<text xml:space="preserve" x="361.938" y="128.331" fill="black" font-size="15.6962" font-family="Helvetica">Sigma    </text>
<text xml:space="preserve" x="502.452" y="129.143" fill="black" font-size="15.6962" font-family="Helvetica"> 0.248</text>
<text xml:space="preserve" x="493.517" y="129.143" fill="black" font-size="15.6962" font-family="Times">&#0177;</text>
<text xml:space="preserve" x="446.408" y="129.143" fill="black" font-size="15.6962" font-family="Helvetica"> 2.873 </text>
<path d="M57.1929,347.224h 453.543" fill="none" stroke="black"/>
<path d="M82.8417,337.964v 9.2593" fill="none" stroke="black"/>
<path d="M97.008,342.594v 4.62965" fill="none" stroke="black"/>
<path d="M111.174,342.594v 4.62965" fill="none" stroke="black"/>
<path d="M125.341,342.594v 4.62965" fill="none" stroke="black"/>
<path d="M139.507,342.594v 4.62965" fill="none" stroke="black"/>
<path d="M153.673,337.964v 9.2593" fill="none" stroke="black"/>
<path d="M167.84,342.594v 4.62965" fill="none" stroke="black"/>
<path d="M182.006,342.594v 4.62965" fill="none" stroke="black"/>
<path d="M196.172,342.594v 4.62965" fill="none" stroke="black"/>
<path d="M210.338,342.594v 4.62965" fill="none" stroke="black"/>
<path d="M224.505,337.964v 9.2593" fill="none" stroke="black"/>
<path d="M238.671,342.594v 4.62965" fill="none" stroke="black"/>
<path d="M252.837,342.594v 4.62965" fill="none" stroke="black"/>
<path d="M267.004,342.594v 4.62965" fill="none" stroke="black"/>
<path d="M281.17,342.594v 4.62965" fill="none" stroke="black"/>
<path d="M295.336,337.964v 9.2593" fill="none" stroke="black"/>
<path d="M309.503,342.594v 4.62965" fill="none" stroke="black"/>
<path d="M323.669,342.594v 4.62965" fill="none" stroke="black"/>
<path d="M337.835,342.594v 4.62965" fill="none" stroke="black"/>
<path d="M352.002,342.594v 4.62965" fill="none" stroke="black"/>
<path d="M366.168,337.964v 9.2593" fill="none" stroke="black"/>
<path d="M380.334,342.594v 4.62965" fill="none" stroke="black"/>
<path d="M394.501,342.594v 4.62965" fill="none" stroke="black"/>
<path d="M408.667,342.594v 4.62965" fill="none" stroke="black"/>
<path d="M422.833,342.594v 4.62965" fill="none" stroke="black"/>
<path d="M436.999,337.964v 9.2593" fill="none" stroke="black"/>
<path d="M451.166,342.594v 4.62965" fill="none" stroke="black"/>
<path d="M465.332,342.594v 4.62965" fill="none" stroke="black"/>
<path d="M479.498,342.594v 4.62965" fill="none" stroke="black"/>
<path d="M493.665,342.594v 4.62965" fill="none" stroke="black"/>
<path d="M507.831,337.964v 9.2593" fill="none" stroke="black"/>
<path d="M82.8417,337.964v 9.2593" fill="none" stroke="black"/>
<path d="M68.6754,342.594v 4.62965" fill="none" stroke="black"/>
<path d="M507.831,337.964v 9.2593" fill="none" stroke="black"/>
<text xml:space="preserve" x="71.1631" y="359.813" fill="black" font-size="12.8882" font-family="Helvetica">780</text>
<text xml:space="preserve" x="141.826" y="359.813" fill="black" font-size="12.8882" font-family="Helvetica">790</text>
<text xml:space="preserve" x="212.489" y="359.813" fill="black" font-size="12.8882" font-family="Helvetica">800</text>
<text xml:space="preserve" x="283.965" y="359.813" fill="black" font-size="12.8882" font-family="Helvetica">810</text>
<text xml:space="preserve" x="354.628" y="359.813" fill="black" font-size="12.8882" font-family="Helvetica">820</text>
<text xml:space="preserve" x="425.291" y="359.813" fill="black" font-size="12.8882" font-family="Helvetica">830</text>
<text xml:space="preserve" x="495.954" y="359.813" fill="black" font-size="12.8882" font-family="Helvetica">840</text>
<text xml:space="preserve" x="457.78" y="372.809" fill="black" font-size="12.8882" font-family="Helvetica">Time [ns]</text>
<path d="M57.1929,347.224v -308.643" fill="none" stroke="black"/>
<path d="M70.7992,347.224h -13.6063" fill="none" stroke="black"/>
<path d="M63.9961,338.944h -6.80315" fill="none" stroke="black"/>
<path d="M63.9961,330.663h -6.80315" fill="none" stroke="black"/>
<path d="M63.9961,322.383h -6.80315" fill="none" stroke="black"/>
<path d="M63.9961,314.103h -6.80315" fill="none" stroke="black"/>
<path d="M70.7992,305.823h -13.6063" fill="none" stroke="black"/>
<path d="M63.9961,297.543h -6.80315" fill="none" stroke="black"/>
<path d="M63.9961,289.263h -6.80315" fill="none" stroke="black"/>
<path d="M63.9961,280.982h -6.80315" fill="none" stroke="black"/>
<path d="M63.9961,272.702h -6.80315" fill="none" stroke="black"/>
<path d="M70.7992,264.422h -13.6063" fill="none" stroke="black"/>
<path d="M63.9961,256.142h -6.80315" fill="none" stroke="black"/>
<path d="M63.9961,247.862h -6.80315" fill="none" stroke="black"/>
<path d="M63.9961,239.582h -6.80315" fill="none" stroke="black"/>
<path d="M63.9961,231.301h -6.80315" fill="none" stroke="black"/>
<path d="M70.7992,223.021h -13.6063" fill="none" stroke="black"/>
<path d="M63.9961,214.741h -6.80315" fill="none" stroke="black"/>
<path d="M63.9961,206.461h -6.80315" fill="none" stroke="black"/>
<path d="M63.9961,198.181h -6.80315" fill="none" stroke="black"/>
<path d="M63.9961,189.901h -6.80315" fill="none" stroke="black"/>
<path d="M70.7992,181.62h -13.6063" fill="none" stroke="black"/>
<path d="M63.9961,173.34h -6.80315" fill="none" stroke="black"/>
<path d="M63.9961,165.06h -6.80315" fill="none" stroke="black"/>
<path d="M63.9961,156.78h -6.80315" fill="none" stroke="black"/>
<path d="M63.9961,148.5h -6.80315" fill="none" stroke="black"/>
<path d="M70.7992,140.22h -13.6063" fill="none" stroke="black"/>
<path d="M63.9961,131.939h -6.80315" fill="none" stroke="black"/>
<path d="M63.9961,123.659h -6.80315" fill="none" stroke="black"/>
<path d="M63.9961,115.379h -6.80315" fill="none" stroke="black"/>
<path d="M63.9961,107.099h -6.80315" fill="none" stroke="black"/>
<path d="M70.7992,98.8187h -13.6063" fill="none" stroke="black"/>
<path d="M63.9961,90.5385h -6.80315" fill="none" stroke="black"/>
<path d="M63.9961,82.2583h -6.80315" fill="none" stroke="black"/>
<path d="M63.9961,73.9782h -6.80315" fill="none" stroke="black"/>
<path d="M63.9961,65.698h -6.80315" fill="none" stroke="black"/>
<path d="M70.7992,57.4178h -13.6063" fill="none" stroke="black"/>
<path d="M70.7992,57.4178h -13.6063" fill="none" stroke="black"/>
<path d="M63.9961,49.1376h -6.80315" fill="none" stroke="black"/>
<path d="M63.9961,40.8575h -6.80315" fill="none" stroke="black"/>
<text xml:space="preserve" x="46.7965" y="351.691" fill="black" font-size="12.8882" font-family="Helvetica">0</text>
<text xml:space="preserve" x="39.4865" y="310.268" fill="black" font-size="12.8882" font-family="Helvetica">10</text>
<text xml:space="preserve" x="39.4865" y="268.845" fill="black" font-size="12.8882" font-family="Helvetica">20</text>
<text xml:space="preserve" x="39.4865" y="227.421" fill="black" font-size="12.8882" font-family="Helvetica">30</text>
<text xml:space="preserve" x="39.4865" y="185.998" fill="black" font-size="12.8882" font-family="Helvetica">40</text>
<text xml:space="preserve" x="39.4865" y="144.575" fill="black" font-size="12.8882" font-family="Helvetica">50</text>
<text xml:space="preserve" x="39.4865" y="103.152" fill="black" font-size="12.8882" font-family="Helvetica">60</text>
<text xml:space="preserve" x="39.4865" y="61.7287" fill="black" font-size="12.8882" font-family="Helvetica">70</text>
<g transform="rotate(-90,28.9277,71.4753)">
<text xml:space="preserve" x="28.9277" y="71.4753" fill="black" font-size="12.8882" font-family="Helvetica">Event</text>
</g>
<rect x="351.996" y="25.0773" width="204.094" height="108.025" fill="white"/>
<path d="M351.996,133.102h 204.094" fill="none" stroke="black"/>
<path d="M556.091,133.102v -108.025" fill="none" stroke="black"/>
<path d="M556.091,25.0773h -204.094" fill="none" stroke="black"/>
<path d="M351.996,25.0773v 108.025" fill="none" stroke="black"/>
<text xml:space="preserve" x="361.938" y="38.9865" fill="black" font-size="15.6962" font-family="Helvetica">Entries </text>
<text xml:space="preserve" x="515.447" y="38.9865" fill="black" font-size="15.6962" font-family="Helvetica"> 134</text>
<text xml:space="preserve" x="375.745" y="57.6676" fill="black" font-size="15.6962" font-family="Helvetica"> / ndf </text>
<text xml:space="preserve" x="370.06" y="52.7943" fill="black" font-size="10.6308" font-family="Helvetica">2</text>
<text xml:space="preserve" x="361.938" y="57.6676" fill="black" font-size="15.6962" font-family="Times">&#0967;</text>
<text xml:space="preserve" x="483.771" y="57.6676" fill="black" font-size="15.6962" font-family="Helvetica"> 3.093 / 1</text>
<text xml:space="preserve" x="361.938" y="75.5364" fill="black" font-size="15.6962" font-family="Helvetica">Prob  </text>
<text xml:space="preserve" x="487.832" y="75.5364" fill="black" font-size="15.6962" font-family="Helvetica"> 0.07861</text>
<text xml:space="preserve" x="361.938" y="94.2175" fill="black" font-size="15.6962" font-family="Helvetica">Const    </text>
<text xml:space="preserve" x="511.386" y="93.4052" fill="black" font-size="15.6962" font-family="Helvetica"> 8.83</text>
<text xml:space="preserve" x="502.452" y="93.4052" fill="black" font-size="15.6962" font-family="Times">&#0177;</text>
<text xml:space="preserve" x="454.531" y="93.4052" fill="black" font-size="15.6962" font-family="Helvetica"> 72.99 </text>
<text xml:space="preserve" x="361.938" y="111.274" fill="black" font-size="15.6962" font-family="Helvetica">Mean     </text>
<text xml:space="preserve" x="520.32" y="111.274" fill="black" font-size="15.6962" font-family="Helvetica"> 0.3</text>
<text xml:space="preserve" x="511.386" y="111.274" fill="black" font-size="15.6962" font-family="Times">&#0177;</text>
<text xml:space="preserve" x="463.465" y="111.274" fill="black" font-size="15.6962" font-family="Helvetica"> 808.9 </text>
<text xml:space="preserve" x="361.938" y="128.331" fill="black" font-size="15.6962" font-family="Helvetica">Sigma    </text>
<text xml:space="preserve" x="502.452" y="129.143" fill="black" font-size="15.6962" font-family="Helvetica"> 0.248</text>
<text xml:space="preserve" x="493.517" y="129.143" fill="black" font-size="15.6962" font-family="Times">&#0177;</text>
<text xml:space="preserve" x="446.408" y="129.143" fill="black" font-size="15.6962" font-family="Helvetica"> 2.873 </text>
<text xml:space="preserve" x="243.354" y="18.681" fill="black" font-size="17.0471" font-family="Helvetica">280mm 55</text></svg>
