<?xml version="1.0" standalone="no"?>
<svg width="567.429" height="384.969" viewBox="0 0 567.429 384.969" xmlns="http://www.w3.org/2000/svg" shape-rendering="crispEdges">
<title>
img/week2/Combined140mm_ch_40.svg
</title>
<desc>
Creator: ROOT Version 6.22/09
CreationDate: Thu Jun 24 12:12:14 2021</desc>
<defs>
</defs>
<rect x="0.5" y="0" width="566.929" height="384.469" fill="white"/>
<rect x="57.1929" y="38.4469" width="453.543" height="307.575" fill="white"/>
<rect x="57.1929" y="38.4469" width="453.543" height="307.575" fill="none" stroke="black"/>
<rect x="57.1929" y="38.4469" width="453.543" height="307.575" fill="white"/>
<rect x="57.1929" y="38.4469" width="453.543" height="307.575" fill="none" stroke="black"/>
<path d="M57.1929,346.022h 139.552v -10.556h 34.8879v -100.282h 34.8879v -182.091h 34.8879v 258.622h 34.8879v 34.307h 174.44" fill="none" stroke="#000099"/>
<g fill="#ff0000">
<polygon points=" 279.729, 48.8577 288.2, 48.8577 283.965, 57.329"/>
</g>
<path d="M59.4606,346.022h 126.992l 4.53543, -0.0344675l 4.53543, -0.0530326l 4.53543, -0.123716l 4.53543, -0.273586l 4.53543, -0.573285l 4.53543, -1.13774l 4.53543, -2.13723l 4.53543, -3.7973l 4.53543, -6.37552l 4.53543, -10.1034l 4.53543, -15.089l
 4.53543, -21.1943l 4.53543, -27.9205l 4.53543, -34.358l 4.53543, -39.2566l 4.53543, -41.2441l 4.53543, -39.1687l 4.53543, -32.475l 4.53543, -21.4816l 4.53543, -7.43712l 4.53543, 7.69927" fill="none" stroke="#ff0000" stroke-width="2"/>
<path d="M281.697,49.4873l 4.53543, 21.7056l 4.53543, 32.6318l 4.53543, 39.2444l 4.53543, 41.2415l 4.53543, 39.1919l 4.53543, 34.2544l 4.53543, 27.8018l 4.53543, 21.0799l 4.53543, 14.9911l 4.53543, 10.0272l 4.53543, 6.32097l 4.53543, 3.76103l
 4.53543, 2.11473l 4.53543, 1.12467l 4.53543, 0.566159l 4.53543, 0.269929l 4.53543, 0.121947l 4.53543, 0.0522257l 4.53543, 0.0338936h 136.063" fill="none" stroke="#ff0000" stroke-width="2"/>
<path d="M503.933,346.022h 4.53543" fill="none" stroke="#ff0000" stroke-width="2"/>
<path d="M57.1929,346.022h 453.543" fill="none" stroke="black"/>
<path d="M106.162,336.795v 9.22726" fill="none" stroke="black"/>
<path d="M123.597,341.409v 4.61363" fill="none" stroke="black"/>
<path d="M141.033,341.409v 4.61363" fill="none" stroke="black"/>
<path d="M158.468,341.409v 4.61363" fill="none" stroke="black"/>
<path d="M175.904,341.409v 4.61363" fill="none" stroke="black"/>
<path d="M193.339,336.795v 9.22726" fill="none" stroke="black"/>
<path d="M210.775,341.409v 4.61363" fill="none" stroke="black"/>
<path d="M228.21,341.409v 4.61363" fill="none" stroke="black"/>
<path d="M245.646,341.409v 4.61363" fill="none" stroke="black"/>
<path d="M263.081,341.409v 4.61363" fill="none" stroke="black"/>
<path d="M280.517,336.795v 9.22726" fill="none" stroke="black"/>
<path d="M297.952,341.409v 4.61363" fill="none" stroke="black"/>
<path d="M315.388,341.409v 4.61363" fill="none" stroke="black"/>
<path d="M332.823,341.409v 4.61363" fill="none" stroke="black"/>
<path d="M350.258,341.409v 4.61363" fill="none" stroke="black"/>
<path d="M367.694,336.795v 9.22726" fill="none" stroke="black"/>
<path d="M385.129,341.409v 4.61363" fill="none" stroke="black"/>
<path d="M402.565,341.409v 4.61363" fill="none" stroke="black"/>
<path d="M420,341.409v 4.61363" fill="none" stroke="black"/>
<path d="M437.436,341.409v 4.61363" fill="none" stroke="black"/>
<path d="M454.871,336.795v 9.22726" fill="none" stroke="black"/>
<path d="M106.162,336.795v 9.22726" fill="none" stroke="black"/>
<path d="M88.7266,341.409v 4.61363" fill="none" stroke="black"/>
<path d="M71.2911,341.409v 4.61363" fill="none" stroke="black"/>
<path d="M454.871,336.795v 9.22726" fill="none" stroke="black"/>
<path d="M472.307,341.409v 4.61363" fill="none" stroke="black"/>
<path d="M489.742,341.409v 4.61363" fill="none" stroke="black"/>
<path d="M507.178,341.409v 4.61363" fill="none" stroke="black"/>
<text xml:space="preserve" x="94.9882" y="358.403" fill="black" font-size="12.8453" font-family="Helvetica">790</text>
<text xml:space="preserve" x="182.145" y="358.403" fill="black" font-size="12.8453" font-family="Helvetica">800</text>
<text xml:space="preserve" x="269.303" y="358.403" fill="black" font-size="12.8453" font-family="Helvetica">810</text>
<text xml:space="preserve" x="356.46" y="358.403" fill="black" font-size="12.8453" font-family="Helvetica">820</text>
<text xml:space="preserve" x="443.617" y="358.403" fill="black" font-size="12.8453" font-family="Helvetica">830</text>
<text xml:space="preserve" x="460.723" y="370.622" fill="black" font-size="12.8453" font-family="Helvetica">Time [ps]</text>
<path d="M57.1929,346.022v -307.575" fill="none" stroke="black"/>
<path d="M70.7992,346.022h -13.6063" fill="none" stroke="black"/>
<path d="M63.9961,332.827h -6.80315" fill="none" stroke="black"/>
<path d="M63.9961,319.632h -6.80315" fill="none" stroke="black"/>
<path d="M63.9961,306.437h -6.80315" fill="none" stroke="black"/>
<path d="M70.7992,293.242h -13.6063" fill="none" stroke="black"/>
<path d="M63.9961,280.047h -6.80315" fill="none" stroke="black"/>
<path d="M63.9961,266.852h -6.80315" fill="none" stroke="black"/>
<path d="M63.9961,253.657h -6.80315" fill="none" stroke="black"/>
<path d="M70.7992,240.462h -13.6063" fill="none" stroke="black"/>
<path d="M63.9961,227.267h -6.80315" fill="none" stroke="black"/>
<path d="M63.9961,214.072h -6.80315" fill="none" stroke="black"/>
<path d="M63.9961,200.877h -6.80315" fill="none" stroke="black"/>
<path d="M70.7992,187.682h -13.6063" fill="none" stroke="black"/>
<path d="M63.9961,174.487h -6.80315" fill="none" stroke="black"/>
<path d="M63.9961,161.292h -6.80315" fill="none" stroke="black"/>
<path d="M63.9961,148.097h -6.80315" fill="none" stroke="black"/>
<path d="M70.7992,134.902h -13.6063" fill="none" stroke="black"/>
<path d="M63.9961,121.707h -6.80315" fill="none" stroke="black"/>
<path d="M63.9961,108.512h -6.80315" fill="none" stroke="black"/>
<path d="M63.9961,95.3174h -6.80315" fill="none" stroke="black"/>
<path d="M70.7992,82.1224h -13.6063" fill="none" stroke="black"/>
<path d="M70.7992,82.1224h -13.6063" fill="none" stroke="black"/>
<path d="M63.9961,68.9274h -6.80315" fill="none" stroke="black"/>
<path d="M63.9961,55.7324h -6.80315" fill="none" stroke="black"/>
<path d="M63.9961,42.5374h -6.80315" fill="none" stroke="black"/>
<text xml:space="preserve" x="47.7441" y="350.258" fill="black" font-size="12.8453" font-family="Helvetica">0</text>
<text xml:space="preserve" x="41.2277" y="298.127" fill="black" font-size="12.8453" font-family="Helvetica">20</text>
<text xml:space="preserve" x="41.2277" y="245.181" fill="black" font-size="12.8453" font-family="Helvetica">40</text>
<text xml:space="preserve" x="41.2277" y="192.235" fill="black" font-size="12.8453" font-family="Helvetica">60</text>
<text xml:space="preserve" x="41.2277" y="139.289" fill="black" font-size="12.8453" font-family="Helvetica">80</text>
<text xml:space="preserve" x="33.8967" y="86.3427" fill="black" font-size="12.8453" font-family="Helvetica">100</text>
<g transform="rotate(-90,20.8638,70.0516)">
<text xml:space="preserve" x="20.8638" y="70.0516" fill="black" font-size="12.8453" font-family="Helvetica">Event</text>
</g>
<text xml:space="preserve" x="243.237" y="18.7347" fill="black" font-size="16.9898" font-family="Helvetica">140mm 40</text></svg>
