<?xml version="1.0" standalone="no"?>
<svg width="567.429" height="386.304" viewBox="0 0 567.429 386.304" xmlns="http://www.w3.org/2000/svg" shape-rendering="crispEdges">
<title>
img/week2/Combined670mm_ch_6.svg
</title>
<desc>
Creator: ROOT Version 6.22/08
CreationDate: Tue Jun 22 00:47:36 2021</desc>
<defs>
</defs>
<rect x="0.5" y="0" width="566.929" height="385.804" fill="white"/>
<rect x="57.1929" y="38.5804" width="453.543" height="308.643" fill="white"/>
<rect x="57.1929" y="38.5804" width="453.543" height="308.643" fill="none" stroke="black"/>
<rect x="57.1929" y="38.5804" width="453.543" height="308.643" fill="white"/>
<rect x="57.1929" y="38.5804" width="453.543" height="308.643" fill="none" stroke="black"/>
<path d="M57.1929,347.224h 161.98v -58.9175h 32.396v -227.253h 32.396v 109.418h 32.396v 168.336h 32.396v 8.41679h 161.98" fill="none" stroke="#000099"/>
<g fill="#ff0000">
<polygon points=" 263.543, 56.8293 271.99, 56.8293 267.767, 65.2764"/>
</g>
<path d="M59.4606,347.224h 122.457l 4.53543, -0.0694271l 4.53543, -0.0902661l 4.53543, -0.192032l 4.53543, -0.390064l 4.53543, -0.756229l 4.53543, -1.39875l 4.53543, -2.467l 4.53543, -4.14634l 4.53543, -6.63575l 4.53543, -10.1022l 4.53543, -14.6114l
 4.53543, -20.0447l 4.53543, -26.0242l 4.53543, -31.877l 4.53543, -36.6731l 4.53543, -39.3553l 4.53543, -38.952l 4.53543, -34.8301l 4.53543, -26.9165l 3.76113, -13.1109" fill="none" stroke="#ff0000" stroke-width="2"/>
<path d="M279.464,38.5804l 2.23277, 5.26535" fill="none" stroke="#ff0000" stroke-width="2"/>
<path d="M281.697,43.8458l 4.53543, 22.7722l 4.53543, 32.0815l 4.53543, 37.7581l 4.53543, 39.6099l 4.53543, 38.0666l 4.53543, 33.9938l 4.53543, 28.4435l 4.53543, 22.4179l 4.53543, 16.7027l 4.53543, 11.794l 4.53543, 7.90714l 4.53543, 5.04052l 4.53543,
 3.05843l 4.53543, 1.76791l 4.53543, 0.974233l 4.53543, 0.512091l 4.53543, 0.256872l 4.53543, 0.123009l 4.53543, 0.0562542l 4.53543, 0.0413469h 126.992" fill="none" stroke="#ff0000" stroke-width="2"/>
<path d="M499.398,347.224h 9.07087" fill="none" stroke="#ff0000" stroke-width="2"/>
<path d="M57.1929,347.224h 453.543" fill="none" stroke="black"/>
<path d="M102.664,337.964v 9.2593" fill="none" stroke="black"/>
<path d="M118.854,342.594v 4.62965" fill="none" stroke="black"/>
<path d="M135.044,342.594v 4.62965" fill="none" stroke="black"/>
<path d="M151.234,342.594v 4.62965" fill="none" stroke="black"/>
<path d="M167.425,342.594v 4.62965" fill="none" stroke="black"/>
<path d="M183.615,337.964v 9.2593" fill="none" stroke="black"/>
<path d="M199.805,342.594v 4.62965" fill="none" stroke="black"/>
<path d="M215.995,342.594v 4.62965" fill="none" stroke="black"/>
<path d="M232.185,342.594v 4.62965" fill="none" stroke="black"/>
<path d="M248.375,342.594v 4.62965" fill="none" stroke="black"/>
<path d="M264.565,337.964v 9.2593" fill="none" stroke="black"/>
<path d="M280.755,342.594v 4.62965" fill="none" stroke="black"/>
<path d="M296.945,342.594v 4.62965" fill="none" stroke="black"/>
<path d="M313.135,342.594v 4.62965" fill="none" stroke="black"/>
<path d="M329.325,342.594v 4.62965" fill="none" stroke="black"/>
<path d="M345.515,337.964v 9.2593" fill="none" stroke="black"/>
<path d="M361.705,342.594v 4.62965" fill="none" stroke="black"/>
<path d="M377.895,342.594v 4.62965" fill="none" stroke="black"/>
<path d="M394.086,342.594v 4.62965" fill="none" stroke="black"/>
<path d="M410.276,342.594v 4.62965" fill="none" stroke="black"/>
<path d="M426.466,337.964v 9.2593" fill="none" stroke="black"/>
<path d="M442.656,342.594v 4.62965" fill="none" stroke="black"/>
<path d="M458.846,342.594v 4.62965" fill="none" stroke="black"/>
<path d="M475.036,342.594v 4.62965" fill="none" stroke="black"/>
<path d="M491.226,342.594v 4.62965" fill="none" stroke="black"/>
<path d="M507.416,337.964v 9.2593" fill="none" stroke="black"/>
<path d="M102.664,337.964v 9.2593" fill="none" stroke="black"/>
<path d="M86.4742,342.594v 4.62965" fill="none" stroke="black"/>
<path d="M70.2841,342.594v 4.62965" fill="none" stroke="black"/>
<path d="M507.416,337.964v 9.2593" fill="none" stroke="black"/>
<text xml:space="preserve" x="90.6563" y="359.813" fill="black" font-size="12.8882" font-family="Helvetica">790</text>
<text xml:space="preserve" x="171.878" y="359.813" fill="black" font-size="12.8882" font-family="Helvetica">800</text>
<text xml:space="preserve" x="253.1" y="359.813" fill="black" font-size="12.8882" font-family="Helvetica">810</text>
<text xml:space="preserve" x="333.51" y="359.813" fill="black" font-size="12.8882" font-family="Helvetica">820</text>
<text xml:space="preserve" x="414.732" y="359.813" fill="black" font-size="12.8882" font-family="Helvetica">830</text>
<text xml:space="preserve" x="495.954" y="359.813" fill="black" font-size="12.8882" font-family="Helvetica">840</text>
<text xml:space="preserve" x="481.334" y="373.621" fill="black" font-size="12.8882" font-family="Helvetica">Time</text>
<path d="M57.1929,347.224v -308.643" fill="none" stroke="black"/>
<path d="M70.7992,347.224h -13.6063" fill="none" stroke="black"/>
<path d="M63.9961,338.807h -6.80315" fill="none" stroke="black"/>
<path d="M63.9961,330.39h -6.80315" fill="none" stroke="black"/>
<path d="M63.9961,321.973h -6.80315" fill="none" stroke="black"/>
<path d="M63.9961,313.557h -6.80315" fill="none" stroke="black"/>
<path d="M70.7992,305.14h -13.6063" fill="none" stroke="black"/>
<path d="M63.9961,296.723h -6.80315" fill="none" stroke="black"/>
<path d="M63.9961,288.306h -6.80315" fill="none" stroke="black"/>
<path d="M63.9961,279.889h -6.80315" fill="none" stroke="black"/>
<path d="M63.9961,271.473h -6.80315" fill="none" stroke="black"/>
<path d="M70.7992,263.056h -13.6063" fill="none" stroke="black"/>
<path d="M63.9961,254.639h -6.80315" fill="none" stroke="black"/>
<path d="M63.9961,246.222h -6.80315" fill="none" stroke="black"/>
<path d="M63.9961,237.805h -6.80315" fill="none" stroke="black"/>
<path d="M63.9961,229.389h -6.80315" fill="none" stroke="black"/>
<path d="M70.7992,220.972h -13.6063" fill="none" stroke="black"/>
<path d="M63.9961,212.555h -6.80315" fill="none" stroke="black"/>
<path d="M63.9961,204.138h -6.80315" fill="none" stroke="black"/>
<path d="M63.9961,195.722h -6.80315" fill="none" stroke="black"/>
<path d="M63.9961,187.305h -6.80315" fill="none" stroke="black"/>
<path d="M70.7992,178.888h -13.6063" fill="none" stroke="black"/>
<path d="M63.9961,170.471h -6.80315" fill="none" stroke="black"/>
<path d="M63.9961,162.054h -6.80315" fill="none" stroke="black"/>
<path d="M63.9961,153.638h -6.80315" fill="none" stroke="black"/>
<path d="M63.9961,145.221h -6.80315" fill="none" stroke="black"/>
<path d="M70.7992,136.804h -13.6063" fill="none" stroke="black"/>
<path d="M63.9961,128.387h -6.80315" fill="none" stroke="black"/>
<path d="M63.9961,119.97h -6.80315" fill="none" stroke="black"/>
<path d="M63.9961,111.554h -6.80315" fill="none" stroke="black"/>
<path d="M63.9961,103.137h -6.80315" fill="none" stroke="black"/>
<path d="M70.7992,94.72h -13.6063" fill="none" stroke="black"/>
<path d="M63.9961,86.3032h -6.80315" fill="none" stroke="black"/>
<path d="M63.9961,77.8864h -6.80315" fill="none" stroke="black"/>
<path d="M63.9961,69.4696h -6.80315" fill="none" stroke="black"/>
<path d="M63.9961,61.0528h -6.80315" fill="none" stroke="black"/>
<path d="M70.7992,52.636h -13.6063" fill="none" stroke="black"/>
<path d="M70.7992,52.636h -13.6063" fill="none" stroke="black"/>
<path d="M63.9961,44.2192h -6.80315" fill="none" stroke="black"/>
<text xml:space="preserve" x="46.7965" y="351.691" fill="black" font-size="12.8882" font-family="Helvetica">0</text>
<text xml:space="preserve" x="46.7965" y="309.456" fill="black" font-size="12.8882" font-family="Helvetica">5</text>
<text xml:space="preserve" x="39.4865" y="267.22" fill="black" font-size="12.8882" font-family="Helvetica">10</text>
<text xml:space="preserve" x="39.4865" y="225.797" fill="black" font-size="12.8882" font-family="Helvetica">15</text>
<text xml:space="preserve" x="39.4865" y="183.562" fill="black" font-size="12.8882" font-family="Helvetica">20</text>
<text xml:space="preserve" x="39.4865" y="141.326" fill="black" font-size="12.8882" font-family="Helvetica">25</text>
<text xml:space="preserve" x="39.4865" y="99.0908" fill="black" font-size="12.8882" font-family="Helvetica">30</text>
<text xml:space="preserve" x="39.4865" y="56.8554" fill="black" font-size="12.8882" font-family="Helvetica">35</text>
<g transform="rotate(-90,28.9277,71.4753)">
<text xml:space="preserve" x="28.9277" y="71.4753" fill="black" font-size="12.8882" font-family="Helvetica">Event</text>
</g>
<text xml:space="preserve" x="248.227" y="18.681" fill="black" font-size="17.0471" font-family="Helvetica">670mm 6</text></svg>
