<?xml version="1.0" standalone="no"?>
<svg width="567.429" height="384.969" viewBox="0 0 567.429 384.969" xmlns="http://www.w3.org/2000/svg" shape-rendering="crispEdges">
<title>
img/week2/Combined140mm_ch_19.svg
</title>
<desc>
Creator: ROOT Version 6.22/09
CreationDate: Thu Jun 24 12:07:48 2021</desc>
<defs>
</defs>
<rect x="0.5" y="0" width="566.929" height="384.469" fill="white"/>
<rect x="57.1929" y="38.4469" width="453.543" height="307.575" fill="white"/>
<rect x="57.1929" y="38.4469" width="453.543" height="307.575" fill="none" stroke="black"/>
<rect x="57.1929" y="38.4469" width="453.543" height="307.575" fill="white"/>
<rect x="57.1929" y="38.4469" width="453.543" height="307.575" fill="none" stroke="black"/>
<path d="M57.1929,346.022h 133.395v -2.98907h 26.679v -26.9016h 26.679v -59.7814h 26.679v -203.257h 26.679v 158.421h 26.679v 134.508h 186.753" fill="none" stroke="#000099"/>
<g fill="#ff0000">
<polygon points=" 279.729, 48.8577 288.2, 48.8577 283.965, 57.329"/>
</g>
<path d="M59.4606,346.022h 136.063l 4.53543, -0.0585967l 4.53543, -0.0806092l 4.53543, -0.176408l 4.53543, -0.367304l 4.53543, -0.727328l 4.53543, -1.36905l 4.53543, -2.44814l 4.53543, -4.15589l 4.53543, -6.69121l 4.53543, -10.206l 4.53543, -14.7251l
 4.53543, -20.0558l 4.53543, -25.7154l 4.53543, -30.9173l 4.53543, -34.6479l 4.53543, -35.8488l 4.53543, -33.6753l 4.53543, -27.7642l 4.53543, -18.4208" fill="none" stroke="#ff0000" stroke-width="2"/>
<path d="M281.697,77.9712l 4.53543, -6.6445l 4.53543, 6.03766l 4.53543, 17.8961l 4.53543, 27.3855l 4.53543, 33.4756l 4.53543, 35.8265l 4.53543, 34.7724l 4.53543, 31.1405l 4.53543, 25.9853l 4.53543, 20.3274l 4.53543, 14.9671l 4.53543, 10.4022l
 4.53543, 6.83796l 4.53543, 4.25805l 4.53543, 2.5147l 4.53543, 1.40979l 4.53543, 0.750823l 4.53543, 0.380096l 4.53543, 0.182994l 4.53543, 0.0838199l 4.53543, 0.0611692h 126.992" fill="none" stroke="#ff0000" stroke-width="2"/>
<path d="M503.933,346.022h 4.53543" fill="none" stroke="#ff0000" stroke-width="2"/>
<path d="M57.1929,346.022h 453.543" fill="none" stroke="black"/>
<path d="M108.012,336.795v 9.22726" fill="none" stroke="black"/>
<path d="M121.345,341.409v 4.61363" fill="none" stroke="black"/>
<path d="M134.678,341.409v 4.61363" fill="none" stroke="black"/>
<path d="M148.011,341.409v 4.61363" fill="none" stroke="black"/>
<path d="M161.344,341.409v 4.61363" fill="none" stroke="black"/>
<path d="M174.677,336.795v 9.22726" fill="none" stroke="black"/>
<path d="M188.01,341.409v 4.61363" fill="none" stroke="black"/>
<path d="M201.343,341.409v 4.61363" fill="none" stroke="black"/>
<path d="M214.676,341.409v 4.61363" fill="none" stroke="black"/>
<path d="M228.009,341.409v 4.61363" fill="none" stroke="black"/>
<path d="M241.342,336.795v 9.22726" fill="none" stroke="black"/>
<path d="M254.675,341.409v 4.61363" fill="none" stroke="black"/>
<path d="M268.008,341.409v 4.61363" fill="none" stroke="black"/>
<path d="M281.341,341.409v 4.61363" fill="none" stroke="black"/>
<path d="M294.674,341.409v 4.61363" fill="none" stroke="black"/>
<path d="M308.007,336.795v 9.22726" fill="none" stroke="black"/>
<path d="M321.34,341.409v 4.61363" fill="none" stroke="black"/>
<path d="M334.673,341.409v 4.61363" fill="none" stroke="black"/>
<path d="M348.006,341.409v 4.61363" fill="none" stroke="black"/>
<path d="M361.339,341.409v 4.61363" fill="none" stroke="black"/>
<path d="M374.672,336.795v 9.22726" fill="none" stroke="black"/>
<path d="M388.005,341.409v 4.61363" fill="none" stroke="black"/>
<path d="M401.338,341.409v 4.61363" fill="none" stroke="black"/>
<path d="M414.671,341.409v 4.61363" fill="none" stroke="black"/>
<path d="M428.004,341.409v 4.61363" fill="none" stroke="black"/>
<path d="M441.337,336.795v 9.22726" fill="none" stroke="black"/>
<path d="M454.67,341.409v 4.61363" fill="none" stroke="black"/>
<path d="M468.003,341.409v 4.61363" fill="none" stroke="black"/>
<path d="M481.336,341.409v 4.61363" fill="none" stroke="black"/>
<path d="M494.669,341.409v 4.61363" fill="none" stroke="black"/>
<path d="M508.002,336.795v 9.22726" fill="none" stroke="black"/>
<path d="M108.012,336.795v 9.22726" fill="none" stroke="black"/>
<path d="M94.679,341.409v 4.61363" fill="none" stroke="black"/>
<path d="M81.346,341.409v 4.61363" fill="none" stroke="black"/>
<path d="M68.013,341.409v 4.61363" fill="none" stroke="black"/>
<path d="M508.002,336.795v 9.22726" fill="none" stroke="black"/>
<text xml:space="preserve" x="96.6173" y="358.403" fill="black" font-size="12.8453" font-family="Helvetica">780</text>
<text xml:space="preserve" x="163.411" y="358.403" fill="black" font-size="12.8453" font-family="Helvetica">790</text>
<text xml:space="preserve" x="230.204" y="358.403" fill="black" font-size="12.8453" font-family="Helvetica">800</text>
<text xml:space="preserve" x="296.997" y="358.403" fill="black" font-size="12.8453" font-family="Helvetica">810</text>
<text xml:space="preserve" x="363.791" y="358.403" fill="black" font-size="12.8453" font-family="Helvetica">820</text>
<text xml:space="preserve" x="430.584" y="358.403" fill="black" font-size="12.8453" font-family="Helvetica">830</text>
<text xml:space="preserve" x="497.378" y="358.403" fill="black" font-size="12.8453" font-family="Helvetica">840</text>
<text xml:space="preserve" x="460.723" y="370.622" fill="black" font-size="12.8453" font-family="Helvetica">Time [ps]</text>
<path d="M57.1929,346.022v -307.575" fill="none" stroke="black"/>
<path d="M70.7992,346.022h -13.6063" fill="none" stroke="black"/>
<path d="M63.9961,331.077h -6.80315" fill="none" stroke="black"/>
<path d="M63.9961,316.132h -6.80315" fill="none" stroke="black"/>
<path d="M63.9961,301.186h -6.80315" fill="none" stroke="black"/>
<path d="M70.7992,286.241h -13.6063" fill="none" stroke="black"/>
<path d="M63.9961,271.296h -6.80315" fill="none" stroke="black"/>
<path d="M63.9961,256.35h -6.80315" fill="none" stroke="black"/>
<path d="M63.9961,241.405h -6.80315" fill="none" stroke="black"/>
<path d="M70.7992,226.459h -13.6063" fill="none" stroke="black"/>
<path d="M63.9961,211.514h -6.80315" fill="none" stroke="black"/>
<path d="M63.9961,196.569h -6.80315" fill="none" stroke="black"/>
<path d="M63.9961,181.623h -6.80315" fill="none" stroke="black"/>
<path d="M70.7992,166.678h -13.6063" fill="none" stroke="black"/>
<path d="M63.9961,151.733h -6.80315" fill="none" stroke="black"/>
<path d="M63.9961,136.787h -6.80315" fill="none" stroke="black"/>
<path d="M63.9961,121.842h -6.80315" fill="none" stroke="black"/>
<path d="M70.7992,106.897h -13.6063" fill="none" stroke="black"/>
<path d="M63.9961,91.9513h -6.80315" fill="none" stroke="black"/>
<path d="M63.9961,77.0059h -6.80315" fill="none" stroke="black"/>
<path d="M63.9961,62.0606h -6.80315" fill="none" stroke="black"/>
<path d="M70.7992,47.1152h -13.6063" fill="none" stroke="black"/>
<path d="M70.7992,47.1152h -13.6063" fill="none" stroke="black"/>
<text xml:space="preserve" x="47.7441" y="350.258" fill="black" font-size="12.8453" font-family="Helvetica">0</text>
<text xml:space="preserve" x="41.2277" y="290.796" fill="black" font-size="12.8453" font-family="Helvetica">20</text>
<text xml:space="preserve" x="41.2277" y="231.333" fill="black" font-size="12.8453" font-family="Helvetica">40</text>
<text xml:space="preserve" x="41.2277" y="171.056" fill="black" font-size="12.8453" font-family="Helvetica">60</text>
<text xml:space="preserve" x="41.2277" y="111.594" fill="black" font-size="12.8453" font-family="Helvetica">80</text>
<text xml:space="preserve" x="33.8967" y="51.3169" fill="black" font-size="12.8453" font-family="Helvetica">100</text>
<g transform="rotate(-90,20.8638,70.0516)">
<text xml:space="preserve" x="20.8638" y="70.0516" fill="black" font-size="12.8453" font-family="Helvetica">Event</text>
</g>
<text xml:space="preserve" x="243.237" y="18.7347" fill="black" font-size="16.9898" font-family="Helvetica">140mm 19</text></svg>
