<?xml version="1.0" standalone="no"?>
<svg width="567.429" height="384.969" viewBox="0 0 567.429 384.969" xmlns="http://www.w3.org/2000/svg" shape-rendering="crispEdges">
<title>
img/week2/Combined420mm_ch_20_21_22_23.svg
</title>
<desc>
Creator: ROOT Version 6.22/09
CreationDate: Thu Jun 24 11:05:58 2021</desc>
<defs>
</defs>
<rect x="0.5" y="0" width="566.929" height="384.469" fill="white"/>
<rect x="57.1929" y="38.4469" width="453.543" height="307.575" fill="white"/>
<rect x="57.1929" y="38.4469" width="453.543" height="307.575" fill="none" stroke="black"/>
<rect x="57.1929" y="38.4469" width="453.543" height="307.575" fill="white"/>
<rect x="57.1929" y="38.4469" width="453.543" height="307.575" fill="none" stroke="black"/>
<path d="M57.1929,346.022h 80.0371v -1.63647h 26.679v 0.818237h 26.679v -3.27295h 26.679v -28.6383h 26.679v -130.918h 26.679v -129.281h 26.679v 224.197h 26.679v 68.7319h 186.753" fill="none" stroke="#000099"/>
<g fill="#ff0000">
<polygon points=" 279.729, 48.8577 288.2, 48.8577 283.965, 57.329"/>
</g>
<path d="M59.4606,346.022h 126.992l 4.53543, -0.0587743l 4.53543, -0.0819548l 4.53543, -0.180631l 4.53543, -0.378503l 4.53543, -0.75374l 4.53543, -1.42572l 4.53543, -2.56003l 4.53543, -4.36042l 4.53543, -7.03848l 4.53543, -10.7542l 4.53543, -15.5292l
 4.53543, -21.1489l 4.53543, -27.0863l 4.53543, -32.4892l 4.53543, -36.2702l 4.53543, -37.308l 4.53543, -34.7306l 4.53543, -28.2008l 4.53543, -18.1079l 4.53543, -5.5779l 4.53543, 7.72476" fill="none" stroke="#ff0000" stroke-width="2"/>
<path d="M281.697,69.7055l 4.53543, 19.9601l 4.53543, 29.53l 4.53543, 35.4206l 4.53543, 37.3676l 4.53543, 35.812l 4.53543, 31.6874l 4.53543, 26.1273l 4.53543, 20.1917l 4.53543, 14.6827l 4.53543, 10.0734l 4.53543, 6.53345l 4.53543, 4.01191l 4.53543,
 2.33506l 4.53543, 1.28937l 4.53543, 0.675929l 4.53543, 0.336607l 4.53543, 0.159314l 4.53543, 0.0716914l 4.53543, 0.0507369h 136.063" fill="none" stroke="#ff0000" stroke-width="2"/>
<path d="M503.933,346.022h 4.53543" fill="none" stroke="#ff0000" stroke-width="2"/>
<rect x="351.996" y="24.9905" width="204.094" height="107.651" fill="white"/>
<path d="M351.996,132.642h 204.094" fill="none" stroke="black"/>
<path d="M556.091,132.642v -107.651" fill="none" stroke="black"/>
<path d="M556.091,24.9905h -204.094" fill="none" stroke="black"/>
<path d="M351.996,24.9905v 107.651" fill="none" stroke="black"/>
<text xml:space="preserve" x="362.162" y="39.0986" fill="black" font-size="15.6436" font-family="Helvetica">Entries </text>
<text xml:space="preserve" x="518.556" y="39.0986" fill="black" font-size="15.6436" font-family="Helvetica"> 691</text>
<text xml:space="preserve" x="376.009" y="57.0187" fill="black" font-size="15.6436" font-family="Helvetica"> / ndf </text>
<text xml:space="preserve" x="370.307" y="52.1314" fill="black" font-size="10.5957" font-family="Helvetica">2</text>
<text xml:space="preserve" x="362.162" y="57.0187" fill="black" font-size="15.6436" font-family="Times">&#0967;</text>
<text xml:space="preserve" x="481.086" y="57.0187" fill="black" font-size="15.6436" font-family="Helvetica"> 16.64 / 5</text>
<text xml:space="preserve" x="362.162" y="74.9389" fill="black" font-size="15.6436" font-family="Helvetica">Prob  </text>
<text xml:space="preserve" x="477.014" y="74.9389" fill="black" font-size="15.6436" font-family="Helvetica"> 0.005238</text>
<text xml:space="preserve" x="362.162" y="93.6736" fill="black" font-size="15.6436" font-family="Helvetica">Const    </text>
<text xml:space="preserve" x="511.225" y="92.8591" fill="black" font-size="15.6436" font-family="Helvetica"> 18.7</text>
<text xml:space="preserve" x="502.265" y="92.8591" fill="black" font-size="15.6436" font-family="Times">&#0177;</text>
<text xml:space="preserve" x="455.021" y="92.8591" fill="black" font-size="15.6436" font-family="Helvetica"> 347.2 </text>
<text xml:space="preserve" x="362.162" y="110.779" fill="black" font-size="15.6436" font-family="Helvetica">Mean     </text>
<text xml:space="preserve" x="522.629" y="110.779" fill="black" font-size="15.6436" font-family="Helvetica"> 0.1</text>
<text xml:space="preserve" x="513.669" y="110.779" fill="black" font-size="15.6436" font-family="Times">&#0177;</text>
<text xml:space="preserve" x="466.425" y="110.779" fill="black" font-size="15.6436" font-family="Helvetica"> 809.3 </text>
<text xml:space="preserve" x="362.162" y="127.885" fill="black" font-size="15.6436" font-family="Helvetica">Sigma    </text>
<text xml:space="preserve" x="502.265" y="128.699" fill="black" font-size="15.6436" font-family="Helvetica"> 0.124</text>
<text xml:space="preserve" x="493.305" y="128.699" fill="black" font-size="15.6436" font-family="Times">&#0177;</text>
<text xml:space="preserve" x="446.061" y="128.699" fill="black" font-size="15.6436" font-family="Helvetica"> 3.125 </text>
<path d="M57.1929,346.022h 453.543" fill="none" stroke="black"/>
<path d="M81.3329,336.795v 9.22726" fill="none" stroke="black"/>
<path d="M94.6659,341.409v 4.61363" fill="none" stroke="black"/>
<path d="M107.999,341.409v 4.61363" fill="none" stroke="black"/>
<path d="M121.332,341.409v 4.61363" fill="none" stroke="black"/>
<path d="M134.665,341.409v 4.61363" fill="none" stroke="black"/>
<path d="M147.998,336.795v 9.22726" fill="none" stroke="black"/>
<path d="M161.331,341.409v 4.61363" fill="none" stroke="black"/>
<path d="M174.664,341.409v 4.61363" fill="none" stroke="black"/>
<path d="M187.997,341.409v 4.61363" fill="none" stroke="black"/>
<path d="M201.33,341.409v 4.61363" fill="none" stroke="black"/>
<path d="M214.663,336.795v 9.22726" fill="none" stroke="black"/>
<path d="M227.996,341.409v 4.61363" fill="none" stroke="black"/>
<path d="M241.329,341.409v 4.61363" fill="none" stroke="black"/>
<path d="M254.662,341.409v 4.61363" fill="none" stroke="black"/>
<path d="M267.995,341.409v 4.61363" fill="none" stroke="black"/>
<path d="M281.328,336.795v 9.22726" fill="none" stroke="black"/>
<path d="M294.661,341.409v 4.61363" fill="none" stroke="black"/>
<path d="M307.994,341.409v 4.61363" fill="none" stroke="black"/>
<path d="M321.327,341.409v 4.61363" fill="none" stroke="black"/>
<path d="M334.66,341.409v 4.61363" fill="none" stroke="black"/>
<path d="M347.993,336.795v 9.22726" fill="none" stroke="black"/>
<path d="M361.326,341.409v 4.61363" fill="none" stroke="black"/>
<path d="M374.659,341.409v 4.61363" fill="none" stroke="black"/>
<path d="M387.992,341.409v 4.61363" fill="none" stroke="black"/>
<path d="M401.325,341.409v 4.61363" fill="none" stroke="black"/>
<path d="M414.658,336.795v 9.22726" fill="none" stroke="black"/>
<path d="M427.991,341.409v 4.61363" fill="none" stroke="black"/>
<path d="M441.324,341.409v 4.61363" fill="none" stroke="black"/>
<path d="M454.657,341.409v 4.61363" fill="none" stroke="black"/>
<path d="M467.99,341.409v 4.61363" fill="none" stroke="black"/>
<path d="M481.323,336.795v 9.22726" fill="none" stroke="black"/>
<path d="M81.3329,336.795v 9.22726" fill="none" stroke="black"/>
<path d="M67.9999,341.409v 4.61363" fill="none" stroke="black"/>
<path d="M481.323,336.795v 9.22726" fill="none" stroke="black"/>
<path d="M494.656,341.409v 4.61363" fill="none" stroke="black"/>
<path d="M507.989,341.409v 4.61363" fill="none" stroke="black"/>
<text xml:space="preserve" x="70.5516" y="358.403" fill="black" font-size="12.8453" font-family="Helvetica">780</text>
<text xml:space="preserve" x="137.345" y="358.403" fill="black" font-size="12.8453" font-family="Helvetica">790</text>
<text xml:space="preserve" x="203.324" y="358.403" fill="black" font-size="12.8453" font-family="Helvetica">800</text>
<text xml:space="preserve" x="270.117" y="358.403" fill="black" font-size="12.8453" font-family="Helvetica">810</text>
<text xml:space="preserve" x="336.911" y="358.403" fill="black" font-size="12.8453" font-family="Helvetica">820</text>
<text xml:space="preserve" x="403.704" y="358.403" fill="black" font-size="12.8453" font-family="Helvetica">830</text>
<text xml:space="preserve" x="470.497" y="358.403" fill="black" font-size="12.8453" font-family="Helvetica">840</text>
<text xml:space="preserve" x="460.723" y="370.622" fill="black" font-size="12.8453" font-family="Helvetica">Time [ps]</text>
<path d="M57.1929,346.022v -307.575" fill="none" stroke="black"/>
<path d="M70.7992,346.022h -13.6063" fill="none" stroke="black"/>
<path d="M63.9961,337.84h -6.80315" fill="none" stroke="black"/>
<path d="M63.9961,329.658h -6.80315" fill="none" stroke="black"/>
<path d="M63.9961,321.475h -6.80315" fill="none" stroke="black"/>
<path d="M63.9961,313.293h -6.80315" fill="none" stroke="black"/>
<path d="M70.7992,305.11h -13.6063" fill="none" stroke="black"/>
<path d="M63.9961,296.928h -6.80315" fill="none" stroke="black"/>
<path d="M63.9961,288.746h -6.80315" fill="none" stroke="black"/>
<path d="M63.9961,280.563h -6.80315" fill="none" stroke="black"/>
<path d="M63.9961,272.381h -6.80315" fill="none" stroke="black"/>
<path d="M70.7992,264.199h -13.6063" fill="none" stroke="black"/>
<path d="M63.9961,256.016h -6.80315" fill="none" stroke="black"/>
<path d="M63.9961,247.834h -6.80315" fill="none" stroke="black"/>
<path d="M63.9961,239.651h -6.80315" fill="none" stroke="black"/>
<path d="M63.9961,231.469h -6.80315" fill="none" stroke="black"/>
<path d="M70.7992,223.287h -13.6063" fill="none" stroke="black"/>
<path d="M63.9961,215.104h -6.80315" fill="none" stroke="black"/>
<path d="M63.9961,206.922h -6.80315" fill="none" stroke="black"/>
<path d="M63.9961,198.74h -6.80315" fill="none" stroke="black"/>
<path d="M63.9961,190.557h -6.80315" fill="none" stroke="black"/>
<path d="M70.7992,182.375h -13.6063" fill="none" stroke="black"/>
<path d="M63.9961,174.192h -6.80315" fill="none" stroke="black"/>
<path d="M63.9961,166.01h -6.80315" fill="none" stroke="black"/>
<path d="M63.9961,157.828h -6.80315" fill="none" stroke="black"/>
<path d="M63.9961,149.645h -6.80315" fill="none" stroke="black"/>
<path d="M70.7992,141.463h -13.6063" fill="none" stroke="black"/>
<path d="M63.9961,133.281h -6.80315" fill="none" stroke="black"/>
<path d="M63.9961,125.098h -6.80315" fill="none" stroke="black"/>
<path d="M63.9961,116.916h -6.80315" fill="none" stroke="black"/>
<path d="M63.9961,108.733h -6.80315" fill="none" stroke="black"/>
<path d="M70.7992,100.551h -13.6063" fill="none" stroke="black"/>
<path d="M63.9961,92.3687h -6.80315" fill="none" stroke="black"/>
<path d="M63.9961,84.1864h -6.80315" fill="none" stroke="black"/>
<path d="M63.9961,76.004h -6.80315" fill="none" stroke="black"/>
<path d="M63.9961,67.8216h -6.80315" fill="none" stroke="black"/>
<path d="M70.7992,59.6393h -13.6063" fill="none" stroke="black"/>
<path d="M70.7992,59.6393h -13.6063" fill="none" stroke="black"/>
<path d="M63.9961,51.4569h -6.80315" fill="none" stroke="black"/>
<path d="M63.9961,43.2745h -6.80315" fill="none" stroke="black"/>
<text xml:space="preserve" x="47.7441" y="350.258" fill="black" font-size="12.8453" font-family="Helvetica">0</text>
<text xml:space="preserve" x="41.2277" y="309.53" fill="black" font-size="12.8453" font-family="Helvetica">50</text>
<text xml:space="preserve" x="33.8967" y="268.803" fill="black" font-size="12.8453" font-family="Helvetica">100</text>
<text xml:space="preserve" x="33.8967" y="228.075" fill="black" font-size="12.8453" font-family="Helvetica">150</text>
<text xml:space="preserve" x="33.8967" y="186.533" fill="black" font-size="12.8453" font-family="Helvetica">200</text>
<text xml:space="preserve" x="33.8967" y="145.805" fill="black" font-size="12.8453" font-family="Helvetica">250</text>
<text xml:space="preserve" x="33.8967" y="105.077" fill="black" font-size="12.8453" font-family="Helvetica">300</text>
<text xml:space="preserve" x="33.8967" y="64.3497" fill="black" font-size="12.8453" font-family="Helvetica">350</text>
<g transform="rotate(-90,20.8638,70.0516)">
<text xml:space="preserve" x="20.8638" y="70.0516" fill="black" font-size="12.8453" font-family="Helvetica">Event</text>
</g>
<rect x="351.996" y="24.9905" width="204.094" height="107.651" fill="white"/>
<path d="M351.996,132.642h 204.094" fill="none" stroke="black"/>
<path d="M556.091,132.642v -107.651" fill="none" stroke="black"/>
<path d="M556.091,24.9905h -204.094" fill="none" stroke="black"/>
<path d="M351.996,24.9905v 107.651" fill="none" stroke="black"/>
<text xml:space="preserve" x="362.162" y="39.0986" fill="black" font-size="15.6436" font-family="Helvetica">Entries </text>
<text xml:space="preserve" x="518.556" y="39.0986" fill="black" font-size="15.6436" font-family="Helvetica"> 691</text>
<text xml:space="preserve" x="376.009" y="57.0187" fill="black" font-size="15.6436" font-family="Helvetica"> / ndf </text>
<text xml:space="preserve" x="370.307" y="52.1314" fill="black" font-size="10.5957" font-family="Helvetica">2</text>
<text xml:space="preserve" x="362.162" y="57.0187" fill="black" font-size="15.6436" font-family="Times">&#0967;</text>
<text xml:space="preserve" x="481.086" y="57.0187" fill="black" font-size="15.6436" font-family="Helvetica"> 16.64 / 5</text>
<text xml:space="preserve" x="362.162" y="74.9389" fill="black" font-size="15.6436" font-family="Helvetica">Prob  </text>
<text xml:space="preserve" x="477.014" y="74.9389" fill="black" font-size="15.6436" font-family="Helvetica"> 0.005238</text>
<text xml:space="preserve" x="362.162" y="93.6736" fill="black" font-size="15.6436" font-family="Helvetica">Const    </text>
<text xml:space="preserve" x="511.225" y="92.8591" fill="black" font-size="15.6436" font-family="Helvetica"> 18.7</text>
<text xml:space="preserve" x="502.265" y="92.8591" fill="black" font-size="15.6436" font-family="Times">&#0177;</text>
<text xml:space="preserve" x="455.021" y="92.8591" fill="black" font-size="15.6436" font-family="Helvetica"> 347.2 </text>
<text xml:space="preserve" x="362.162" y="110.779" fill="black" font-size="15.6436" font-family="Helvetica">Mean     </text>
<text xml:space="preserve" x="522.629" y="110.779" fill="black" font-size="15.6436" font-family="Helvetica"> 0.1</text>
<text xml:space="preserve" x="513.669" y="110.779" fill="black" font-size="15.6436" font-family="Times">&#0177;</text>
<text xml:space="preserve" x="466.425" y="110.779" fill="black" font-size="15.6436" font-family="Helvetica"> 809.3 </text>
<text xml:space="preserve" x="362.162" y="127.885" fill="black" font-size="15.6436" font-family="Helvetica">Sigma    </text>
<text xml:space="preserve" x="502.265" y="128.699" fill="black" font-size="15.6436" font-family="Helvetica"> 0.124</text>
<text xml:space="preserve" x="493.305" y="128.699" fill="black" font-size="15.6436" font-family="Times">&#0177;</text>
<text xml:space="preserve" x="446.061" y="128.699" fill="black" font-size="15.6436" font-family="Helvetica"> 3.125 </text>
<text xml:space="preserve" x="208.211" y="18.7347" fill="black" font-size="16.9898" font-family="Helvetica">420mm 20 21 22 23</text></svg>
