<?xml version="1.0" standalone="no"?>
<svg width="567.429" height="384.969" viewBox="0 0 567.429 384.969" xmlns="http://www.w3.org/2000/svg" shape-rendering="crispEdges">
<title>
img/week2/Combined420mm_ch_26.svg
</title>
<desc>
Creator: ROOT Version 6.22/09
CreationDate: Thu Jun 24 12:12:15 2021</desc>
<defs>
</defs>
<rect x="0.5" y="0" width="566.929" height="384.469" fill="white"/>
<rect x="57.1929" y="38.4469" width="453.543" height="307.575" fill="white"/>
<rect x="57.1929" y="38.4469" width="453.543" height="307.575" fill="none" stroke="black"/>
<rect x="57.1929" y="38.4469" width="453.543" height="307.575" fill="white"/>
<rect x="57.1929" y="38.4469" width="453.543" height="307.575" fill="none" stroke="black"/>
<path d="M57.1929,346.022h 75.5906v -5.37484h 37.7953v 2.68742h 37.7953v -32.2491h 37.7953v -91.3723h 37.7953v -166.62h 37.7953v 271.43h 37.7953v 21.4994h 151.181" fill="none" stroke="#000099"/>
<g fill="#ff0000">
<polygon points=" 298.627, 48.8577 307.098, 48.8577 302.862, 57.329"/>
</g>
<path d="M59.4606,346.022h 140.598l 4.53543, -0.0430119l 4.53543, -0.0620269l 4.53543, -0.139677l 4.53543, -0.299191l 4.53543, -0.60938l 4.53543, -1.17964l 4.53543, -2.16918l 4.53543, -3.7865l 4.53543, -6.26926l 4.53543, -9.8351l 4.53543, -14.5996l
 4.53543, -20.4709l 4.53543, -27.0471l 4.53543, -33.5607l 4.53543, -38.9151l 4.53543, -41.8449l 4.53543, -41.1899l 4.53543, -36.2231" fill="none" stroke="#ff0000" stroke-width="2"/>
<path d="M281.697,67.778l 4.53543, -26.9313l 0.76956, -2.39973" fill="none" stroke="#ff0000" stroke-width="2"/>
<path d="M298.637,38.4469l 1.20197, 4.02904" fill="none" stroke="#ff0000" stroke-width="2"/>
<path d="M299.839,42.476l 4.53543, 27.7735l 4.53543, 36.7559l 4.53543, 41.3852l 4.53543, 41.7356l 4.53543, 38.5781l 4.53543, 33.0923l 4.53543, 26.539l 4.53543, 19.994l 4.53543, 14.1969l 4.53543, 9.52332l 4.53543, 6.04551l 4.53543, 3.63663l 4.53543,
 2.07507l 4.53543, 1.12405l 4.53543, 0.57842l 4.53543, 0.282903l 4.53543, 0.131572l 4.53543, 0.0582074l 4.53543, 0.0401204h 122.457" fill="none" stroke="#ff0000" stroke-width="2"/>
<path d="M57.1929,346.022h 453.543" fill="none" stroke="black"/>
<path d="M63.0218,336.795v 9.22726" fill="none" stroke="black"/>
<path d="M72.466,341.409v 4.61363" fill="none" stroke="black"/>
<path d="M81.9102,341.409v 4.61363" fill="none" stroke="black"/>
<path d="M91.3544,341.409v 4.61363" fill="none" stroke="black"/>
<path d="M100.799,341.409v 4.61363" fill="none" stroke="black"/>
<path d="M110.243,336.795v 9.22726" fill="none" stroke="black"/>
<path d="M119.687,341.409v 4.61363" fill="none" stroke="black"/>
<path d="M129.131,341.409v 4.61363" fill="none" stroke="black"/>
<path d="M138.575,341.409v 4.61363" fill="none" stroke="black"/>
<path d="M148.02,341.409v 4.61363" fill="none" stroke="black"/>
<path d="M157.464,336.795v 9.22726" fill="none" stroke="black"/>
<path d="M166.908,341.409v 4.61363" fill="none" stroke="black"/>
<path d="M176.352,341.409v 4.61363" fill="none" stroke="black"/>
<path d="M185.796,341.409v 4.61363" fill="none" stroke="black"/>
<path d="M195.241,341.409v 4.61363" fill="none" stroke="black"/>
<path d="M204.685,336.795v 9.22726" fill="none" stroke="black"/>
<path d="M214.129,341.409v 4.61363" fill="none" stroke="black"/>
<path d="M223.573,341.409v 4.61363" fill="none" stroke="black"/>
<path d="M233.018,341.409v 4.61363" fill="none" stroke="black"/>
<path d="M242.462,341.409v 4.61363" fill="none" stroke="black"/>
<path d="M251.906,336.795v 9.22726" fill="none" stroke="black"/>
<path d="M261.35,341.409v 4.61363" fill="none" stroke="black"/>
<path d="M270.794,341.409v 4.61363" fill="none" stroke="black"/>
<path d="M280.239,341.409v 4.61363" fill="none" stroke="black"/>
<path d="M289.683,341.409v 4.61363" fill="none" stroke="black"/>
<path d="M299.127,336.795v 9.22726" fill="none" stroke="black"/>
<path d="M308.571,341.409v 4.61363" fill="none" stroke="black"/>
<path d="M318.015,341.409v 4.61363" fill="none" stroke="black"/>
<path d="M327.46,341.409v 4.61363" fill="none" stroke="black"/>
<path d="M336.904,341.409v 4.61363" fill="none" stroke="black"/>
<path d="M346.348,336.795v 9.22726" fill="none" stroke="black"/>
<path d="M355.792,341.409v 4.61363" fill="none" stroke="black"/>
<path d="M365.236,341.409v 4.61363" fill="none" stroke="black"/>
<path d="M374.681,341.409v 4.61363" fill="none" stroke="black"/>
<path d="M384.125,341.409v 4.61363" fill="none" stroke="black"/>
<path d="M393.569,336.795v 9.22726" fill="none" stroke="black"/>
<path d="M403.013,341.409v 4.61363" fill="none" stroke="black"/>
<path d="M412.457,341.409v 4.61363" fill="none" stroke="black"/>
<path d="M421.902,341.409v 4.61363" fill="none" stroke="black"/>
<path d="M431.346,341.409v 4.61363" fill="none" stroke="black"/>
<path d="M440.79,336.795v 9.22726" fill="none" stroke="black"/>
<path d="M450.234,341.409v 4.61363" fill="none" stroke="black"/>
<path d="M459.678,341.409v 4.61363" fill="none" stroke="black"/>
<path d="M469.123,341.409v 4.61363" fill="none" stroke="black"/>
<path d="M478.567,341.409v 4.61363" fill="none" stroke="black"/>
<path d="M488.011,336.795v 9.22726" fill="none" stroke="black"/>
<path d="M63.0218,336.795v 9.22726" fill="none" stroke="black"/>
<path d="M488.011,336.795v 9.22726" fill="none" stroke="black"/>
<path d="M497.455,341.409v 4.61363" fill="none" stroke="black"/>
<path d="M506.9,341.409v 4.61363" fill="none" stroke="black"/>
<text xml:space="preserve" x="51.8169" y="358.403" fill="black" font-size="12.8453" font-family="Helvetica">785</text>
<text xml:space="preserve" x="99.061" y="358.403" fill="black" font-size="12.8453" font-family="Helvetica">790</text>
<text xml:space="preserve" x="146.305" y="358.403" fill="black" font-size="12.8453" font-family="Helvetica">795</text>
<text xml:space="preserve" x="193.549" y="358.403" fill="black" font-size="12.8453" font-family="Helvetica">800</text>
<text xml:space="preserve" x="240.793" y="358.403" fill="black" font-size="12.8453" font-family="Helvetica">805</text>
<text xml:space="preserve" x="288.037" y="358.403" fill="black" font-size="12.8453" font-family="Helvetica">810</text>
<text xml:space="preserve" x="335.281" y="358.403" fill="black" font-size="12.8453" font-family="Helvetica">815</text>
<text xml:space="preserve" x="382.526" y="358.403" fill="black" font-size="12.8453" font-family="Helvetica">820</text>
<text xml:space="preserve" x="429.77" y="358.403" fill="black" font-size="12.8453" font-family="Helvetica">825</text>
<text xml:space="preserve" x="477.014" y="358.403" fill="black" font-size="12.8453" font-family="Helvetica">830</text>
<text xml:space="preserve" x="460.723" y="370.622" fill="black" font-size="12.8453" font-family="Helvetica">Time [ps]</text>
<path d="M57.1929,346.022v -307.575" fill="none" stroke="black"/>
<path d="M70.7992,346.022h -13.6063" fill="none" stroke="black"/>
<path d="M63.9961,332.585h -6.80315" fill="none" stroke="black"/>
<path d="M63.9961,319.148h -6.80315" fill="none" stroke="black"/>
<path d="M63.9961,305.711h -6.80315" fill="none" stroke="black"/>
<path d="M70.7992,292.274h -13.6063" fill="none" stroke="black"/>
<path d="M63.9961,278.837h -6.80315" fill="none" stroke="black"/>
<path d="M63.9961,265.4h -6.80315" fill="none" stroke="black"/>
<path d="M63.9961,251.963h -6.80315" fill="none" stroke="black"/>
<path d="M70.7992,238.525h -13.6063" fill="none" stroke="black"/>
<path d="M63.9961,225.088h -6.80315" fill="none" stroke="black"/>
<path d="M63.9961,211.651h -6.80315" fill="none" stroke="black"/>
<path d="M63.9961,198.214h -6.80315" fill="none" stroke="black"/>
<path d="M70.7992,184.777h -13.6063" fill="none" stroke="black"/>
<path d="M63.9961,171.34h -6.80315" fill="none" stroke="black"/>
<path d="M63.9961,157.903h -6.80315" fill="none" stroke="black"/>
<path d="M63.9961,144.466h -6.80315" fill="none" stroke="black"/>
<path d="M70.7992,131.029h -13.6063" fill="none" stroke="black"/>
<path d="M63.9961,117.591h -6.80315" fill="none" stroke="black"/>
<path d="M63.9961,104.154h -6.80315" fill="none" stroke="black"/>
<path d="M63.9961,90.7173h -6.80315" fill="none" stroke="black"/>
<path d="M70.7992,77.2802h -13.6063" fill="none" stroke="black"/>
<path d="M70.7992,77.2802h -13.6063" fill="none" stroke="black"/>
<path d="M63.9961,63.843h -6.80315" fill="none" stroke="black"/>
<path d="M63.9961,50.4059h -6.80315" fill="none" stroke="black"/>
<text xml:space="preserve" x="47.7441" y="350.258" fill="black" font-size="12.8453" font-family="Helvetica">0</text>
<text xml:space="preserve" x="41.2277" y="296.497" fill="black" font-size="12.8453" font-family="Helvetica">20</text>
<text xml:space="preserve" x="41.2277" y="242.737" fill="black" font-size="12.8453" font-family="Helvetica">40</text>
<text xml:space="preserve" x="41.2277" y="188.976" fill="black" font-size="12.8453" font-family="Helvetica">60</text>
<text xml:space="preserve" x="41.2277" y="135.216" fill="black" font-size="12.8453" font-family="Helvetica">80</text>
<text xml:space="preserve" x="33.8967" y="81.4553" fill="black" font-size="12.8453" font-family="Helvetica">100</text>
<g transform="rotate(-90,20.8638,70.0516)">
<text xml:space="preserve" x="20.8638" y="70.0516" fill="black" font-size="12.8453" font-family="Helvetica">Event</text>
</g>
<text xml:space="preserve" x="243.237" y="18.7347" fill="black" font-size="16.9898" font-family="Helvetica">420mm 26</text></svg>
