<?xml version="1.0" standalone="no"?>
<svg width="567.429" height="386.304" viewBox="0 0 567.429 386.304" xmlns="http://www.w3.org/2000/svg" shape-rendering="crispEdges">
<title>
img/week2/Combined670mm_ch_26.svg
</title>
<desc>
Creator: ROOT Version 6.22/08
CreationDate: Thu Jun 24 12:00:14 2021</desc>
<defs>
</defs>
<rect x="0.5" y="0" width="566.929" height="385.804" fill="white"/>
<rect x="57.1929" y="38.5804" width="453.543" height="308.643" fill="white"/>
<rect x="57.1929" y="38.5804" width="453.543" height="308.643" fill="none" stroke="black"/>
<rect x="57.1929" y="38.5804" width="453.543" height="308.643" fill="white"/>
<rect x="57.1929" y="38.5804" width="453.543" height="308.643" fill="none" stroke="black"/>
<path d="M57.1929,347.224h 129.584v -16.8935h 32.396v -47.3017h 32.396v -229.751h 32.396v 175.692h 32.396v 114.875h 32.396v 3.37869h 161.98" fill="none" stroke="#000099"/>
<g fill="#ff0000">
<polygon points=" 263.543, 49.0542 271.99, 49.0542 267.767, 57.5013"/>
</g>
<path d="M59.4606,347.224h 122.457l 4.53543, -0.0758821l 4.53543, -0.103261l 4.53543, -0.224338l 4.53543, -0.463497l 4.53543, -0.910302l 4.53543, -1.69861l 4.53543, -3.00953l 4.53543, -5.05902l 4.53543, -8.0607l 4.53543, -12.1584l 4.53543, -17.333l
 4.53543, -23.3029l 4.53543, -29.4554l 4.53543, -34.8521l 4.53543, -38.3429l 4.53543, -38.7932l 4.53543, -35.3815l 4.53543, -27.8834l 4.53543, -16.8393l 4.53543, -3.52896l 4.53543, 10.2676l 4.53543, 22.6603" fill="none" stroke="#ff0000"
 stroke-width="2"/>
<path d="M281.697,82.6756l 4.53543, 32.074l 4.53543, 37.5764l 4.53543, 39.0138l 4.53543, 36.9356l 4.53543, 32.3564l 4.53543, 26.4526l 4.53543, 20.2917l 4.53543, 14.6588l 4.53543, 9.99821l 4.53543, 6.45076l 4.53543, 3.94259l 4.53543, 2.28514l 4.53543,
 1.25713l 4.53543, 0.65688l 4.53543, 0.326195l 4.53543, 0.154013l 4.53543, 0.0691665l 4.53543, 0.0488396h 140.598" fill="none" stroke="#ff0000" stroke-width="2"/>
<path d="M503.933,347.224h 4.53543" fill="none" stroke="#ff0000" stroke-width="2"/>
<rect x="351.996" y="25.0773" width="204.094" height="108.025" fill="white"/>
<path d="M351.996,133.102h 204.094" fill="none" stroke="black"/>
<path d="M556.091,133.102v -108.025" fill="none" stroke="black"/>
<path d="M556.091,25.0773h -204.094" fill="none" stroke="black"/>
<path d="M351.996,25.0773v 108.025" fill="none" stroke="black"/>
<text xml:space="preserve" x="361.938" y="38.9865" fill="black" font-size="15.6962" font-family="Helvetica">Entries </text>
<text xml:space="preserve" x="515.447" y="39.7988" fill="black" font-size="15.6962" font-family="Helvetica"> 147</text>
<text xml:space="preserve" x="375.745" y="57.6676" fill="black" font-size="15.6962" font-family="Helvetica"> / ndf </text>
<text xml:space="preserve" x="370.06" y="52.7943" fill="black" font-size="10.6308" font-family="Helvetica">2</text>
<text xml:space="preserve" x="361.938" y="57.6676" fill="black" font-size="15.6962" font-family="Times">&#0967;</text>
<text xml:space="preserve" x="481.334" y="57.6676" fill="black" font-size="15.6962" font-family="Helvetica"> 4.315 / 2</text>
<text xml:space="preserve" x="361.938" y="75.5364" fill="black" font-size="15.6962" font-family="Helvetica">Prob  </text>
<text xml:space="preserve" x="494.329" y="75.5364" fill="black" font-size="15.6962" font-family="Helvetica"> 0.1156</text>
<text xml:space="preserve" x="361.938" y="94.2175" fill="black" font-size="15.6962" font-family="Helvetica">Const    </text>
<text xml:space="preserve" x="511.386" y="93.4052" fill="black" font-size="15.6962" font-family="Helvetica"> 9.19</text>
<text xml:space="preserve" x="502.452" y="93.4052" fill="black" font-size="15.6962" font-family="Times">&#0177;</text>
<text xml:space="preserve" x="454.531" y="93.4052" fill="black" font-size="15.6962" font-family="Helvetica"> 88.17 </text>
<text xml:space="preserve" x="361.938" y="111.274" fill="black" font-size="15.6962" font-family="Helvetica">Mean     </text>
<text xml:space="preserve" x="520.32" y="111.274" fill="black" font-size="15.6962" font-family="Helvetica"> 0.2</text>
<text xml:space="preserve" x="511.386" y="111.274" fill="black" font-size="15.6962" font-family="Times">&#0177;</text>
<text xml:space="preserve" x="463.465" y="111.274" fill="black" font-size="15.6962" font-family="Helvetica"> 810.9 </text>
<text xml:space="preserve" x="361.938" y="128.331" fill="black" font-size="15.6962" font-family="Helvetica">Sigma    </text>
<text xml:space="preserve" x="502.452" y="129.143" fill="black" font-size="15.6962" font-family="Helvetica"> 0.162</text>
<text xml:space="preserve" x="493.517" y="129.143" fill="black" font-size="15.6962" font-family="Times">&#0177;</text>
<text xml:space="preserve" x="446.408" y="129.143" fill="black" font-size="15.6962" font-family="Helvetica"> 2.583 </text>
<path d="M57.1929,347.224h 453.543" fill="none" stroke="black"/>
<path d="M102.664,337.964v 9.2593" fill="none" stroke="black"/>
<path d="M118.854,342.594v 4.62965" fill="none" stroke="black"/>
<path d="M135.044,342.594v 4.62965" fill="none" stroke="black"/>
<path d="M151.234,342.594v 4.62965" fill="none" stroke="black"/>
<path d="M167.425,342.594v 4.62965" fill="none" stroke="black"/>
<path d="M183.615,337.964v 9.2593" fill="none" stroke="black"/>
<path d="M199.805,342.594v 4.62965" fill="none" stroke="black"/>
<path d="M215.995,342.594v 4.62965" fill="none" stroke="black"/>
<path d="M232.185,342.594v 4.62965" fill="none" stroke="black"/>
<path d="M248.375,342.594v 4.62965" fill="none" stroke="black"/>
<path d="M264.565,337.964v 9.2593" fill="none" stroke="black"/>
<path d="M280.755,342.594v 4.62965" fill="none" stroke="black"/>
<path d="M296.945,342.594v 4.62965" fill="none" stroke="black"/>
<path d="M313.135,342.594v 4.62965" fill="none" stroke="black"/>
<path d="M329.325,342.594v 4.62965" fill="none" stroke="black"/>
<path d="M345.515,337.964v 9.2593" fill="none" stroke="black"/>
<path d="M361.705,342.594v 4.62965" fill="none" stroke="black"/>
<path d="M377.895,342.594v 4.62965" fill="none" stroke="black"/>
<path d="M394.086,342.594v 4.62965" fill="none" stroke="black"/>
<path d="M410.276,342.594v 4.62965" fill="none" stroke="black"/>
<path d="M426.466,337.964v 9.2593" fill="none" stroke="black"/>
<path d="M442.656,342.594v 4.62965" fill="none" stroke="black"/>
<path d="M458.846,342.594v 4.62965" fill="none" stroke="black"/>
<path d="M475.036,342.594v 4.62965" fill="none" stroke="black"/>
<path d="M491.226,342.594v 4.62965" fill="none" stroke="black"/>
<path d="M507.416,337.964v 9.2593" fill="none" stroke="black"/>
<path d="M102.664,337.964v 9.2593" fill="none" stroke="black"/>
<path d="M86.4742,342.594v 4.62965" fill="none" stroke="black"/>
<path d="M70.2841,342.594v 4.62965" fill="none" stroke="black"/>
<path d="M507.416,337.964v 9.2593" fill="none" stroke="black"/>
<text xml:space="preserve" x="90.6563" y="359.813" fill="black" font-size="12.8882" font-family="Helvetica">790</text>
<text xml:space="preserve" x="171.878" y="359.813" fill="black" font-size="12.8882" font-family="Helvetica">800</text>
<text xml:space="preserve" x="253.1" y="359.813" fill="black" font-size="12.8882" font-family="Helvetica">810</text>
<text xml:space="preserve" x="333.51" y="359.813" fill="black" font-size="12.8882" font-family="Helvetica">820</text>
<text xml:space="preserve" x="414.732" y="359.813" fill="black" font-size="12.8882" font-family="Helvetica">830</text>
<text xml:space="preserve" x="495.954" y="359.813" fill="black" font-size="12.8882" font-family="Helvetica">840</text>
<text xml:space="preserve" x="457.78" y="372.809" fill="black" font-size="12.8882" font-family="Helvetica">Time [ns]</text>
<path d="M57.1929,347.224v -308.643" fill="none" stroke="black"/>
<path d="M70.7992,347.224h -13.6063" fill="none" stroke="black"/>
<path d="M63.9961,340.466h -6.80315" fill="none" stroke="black"/>
<path d="M63.9961,333.709h -6.80315" fill="none" stroke="black"/>
<path d="M63.9961,326.952h -6.80315" fill="none" stroke="black"/>
<path d="M63.9961,320.194h -6.80315" fill="none" stroke="black"/>
<path d="M70.7992,313.437h -13.6063" fill="none" stroke="black"/>
<path d="M63.9961,306.68h -6.80315" fill="none" stroke="black"/>
<path d="M63.9961,299.922h -6.80315" fill="none" stroke="black"/>
<path d="M63.9961,293.165h -6.80315" fill="none" stroke="black"/>
<path d="M63.9961,286.407h -6.80315" fill="none" stroke="black"/>
<path d="M70.7992,279.65h -13.6063" fill="none" stroke="black"/>
<path d="M63.9961,272.893h -6.80315" fill="none" stroke="black"/>
<path d="M63.9961,266.135h -6.80315" fill="none" stroke="black"/>
<path d="M63.9961,259.378h -6.80315" fill="none" stroke="black"/>
<path d="M63.9961,252.62h -6.80315" fill="none" stroke="black"/>
<path d="M70.7992,245.863h -13.6063" fill="none" stroke="black"/>
<path d="M63.9961,239.106h -6.80315" fill="none" stroke="black"/>
<path d="M63.9961,232.348h -6.80315" fill="none" stroke="black"/>
<path d="M63.9961,225.591h -6.80315" fill="none" stroke="black"/>
<path d="M63.9961,218.834h -6.80315" fill="none" stroke="black"/>
<path d="M70.7992,212.076h -13.6063" fill="none" stroke="black"/>
<path d="M63.9961,205.319h -6.80315" fill="none" stroke="black"/>
<path d="M63.9961,198.561h -6.80315" fill="none" stroke="black"/>
<path d="M63.9961,191.804h -6.80315" fill="none" stroke="black"/>
<path d="M63.9961,185.047h -6.80315" fill="none" stroke="black"/>
<path d="M70.7992,178.289h -13.6063" fill="none" stroke="black"/>
<path d="M63.9961,171.532h -6.80315" fill="none" stroke="black"/>
<path d="M63.9961,164.775h -6.80315" fill="none" stroke="black"/>
<path d="M63.9961,158.017h -6.80315" fill="none" stroke="black"/>
<path d="M63.9961,151.26h -6.80315" fill="none" stroke="black"/>
<path d="M70.7992,144.502h -13.6063" fill="none" stroke="black"/>
<path d="M63.9961,137.745h -6.80315" fill="none" stroke="black"/>
<path d="M63.9961,130.988h -6.80315" fill="none" stroke="black"/>
<path d="M63.9961,124.23h -6.80315" fill="none" stroke="black"/>
<path d="M63.9961,117.473h -6.80315" fill="none" stroke="black"/>
<path d="M70.7992,110.715h -13.6063" fill="none" stroke="black"/>
<path d="M63.9961,103.958h -6.80315" fill="none" stroke="black"/>
<path d="M63.9961,97.2007h -6.80315" fill="none" stroke="black"/>
<path d="M63.9961,90.4433h -6.80315" fill="none" stroke="black"/>
<path d="M63.9961,83.6859h -6.80315" fill="none" stroke="black"/>
<path d="M70.7992,76.9286h -13.6063" fill="none" stroke="black"/>
<path d="M63.9961,70.1712h -6.80315" fill="none" stroke="black"/>
<path d="M63.9961,63.4138h -6.80315" fill="none" stroke="black"/>
<path d="M63.9961,56.6564h -6.80315" fill="none" stroke="black"/>
<path d="M63.9961,49.899h -6.80315" fill="none" stroke="black"/>
<path d="M70.7992,43.1417h -13.6063" fill="none" stroke="black"/>
<path d="M70.7992,43.1417h -13.6063" fill="none" stroke="black"/>
<text xml:space="preserve" x="46.7965" y="351.691" fill="black" font-size="12.8882" font-family="Helvetica">0</text>
<text xml:space="preserve" x="39.4865" y="317.578" fill="black" font-size="12.8882" font-family="Helvetica">10</text>
<text xml:space="preserve" x="39.4865" y="284.277" fill="black" font-size="12.8882" font-family="Helvetica">20</text>
<text xml:space="preserve" x="39.4865" y="250.164" fill="black" font-size="12.8882" font-family="Helvetica">30</text>
<text xml:space="preserve" x="39.4865" y="216.863" fill="black" font-size="12.8882" font-family="Helvetica">40</text>
<text xml:space="preserve" x="39.4865" y="182.749" fill="black" font-size="12.8882" font-family="Helvetica">50</text>
<text xml:space="preserve" x="39.4865" y="148.636" fill="black" font-size="12.8882" font-family="Helvetica">60</text>
<text xml:space="preserve" x="39.4865" y="115.335" fill="black" font-size="12.8882" font-family="Helvetica">70</text>
<text xml:space="preserve" x="39.4865" y="81.2219" fill="black" font-size="12.8882" font-family="Helvetica">80</text>
<text xml:space="preserve" x="39.4865" y="47.9209" fill="black" font-size="12.8882" font-family="Helvetica">90</text>
<g transform="rotate(-90,28.9277,71.4753)">
<text xml:space="preserve" x="28.9277" y="71.4753" fill="black" font-size="12.8882" font-family="Helvetica">Event</text>
</g>
<rect x="351.996" y="25.0773" width="204.094" height="108.025" fill="white"/>
<path d="M351.996,133.102h 204.094" fill="none" stroke="black"/>
<path d="M556.091,133.102v -108.025" fill="none" stroke="black"/>
<path d="M556.091,25.0773h -204.094" fill="none" stroke="black"/>
<path d="M351.996,25.0773v 108.025" fill="none" stroke="black"/>
<text xml:space="preserve" x="361.938" y="38.9865" fill="black" font-size="15.6962" font-family="Helvetica">Entries </text>
<text xml:space="preserve" x="515.447" y="39.7988" fill="black" font-size="15.6962" font-family="Helvetica"> 147</text>
<text xml:space="preserve" x="375.745" y="57.6676" fill="black" font-size="15.6962" font-family="Helvetica"> / ndf </text>
<text xml:space="preserve" x="370.06" y="52.7943" fill="black" font-size="10.6308" font-family="Helvetica">2</text>
<text xml:space="preserve" x="361.938" y="57.6676" fill="black" font-size="15.6962" font-family="Times">&#0967;</text>
<text xml:space="preserve" x="481.334" y="57.6676" fill="black" font-size="15.6962" font-family="Helvetica"> 4.315 / 2</text>
<text xml:space="preserve" x="361.938" y="75.5364" fill="black" font-size="15.6962" font-family="Helvetica">Prob  </text>
<text xml:space="preserve" x="494.329" y="75.5364" fill="black" font-size="15.6962" font-family="Helvetica"> 0.1156</text>
<text xml:space="preserve" x="361.938" y="94.2175" fill="black" font-size="15.6962" font-family="Helvetica">Const    </text>
<text xml:space="preserve" x="511.386" y="93.4052" fill="black" font-size="15.6962" font-family="Helvetica"> 9.19</text>
<text xml:space="preserve" x="502.452" y="93.4052" fill="black" font-size="15.6962" font-family="Times">&#0177;</text>
<text xml:space="preserve" x="454.531" y="93.4052" fill="black" font-size="15.6962" font-family="Helvetica"> 88.17 </text>
<text xml:space="preserve" x="361.938" y="111.274" fill="black" font-size="15.6962" font-family="Helvetica">Mean     </text>
<text xml:space="preserve" x="520.32" y="111.274" fill="black" font-size="15.6962" font-family="Helvetica"> 0.2</text>
<text xml:space="preserve" x="511.386" y="111.274" fill="black" font-size="15.6962" font-family="Times">&#0177;</text>
<text xml:space="preserve" x="463.465" y="111.274" fill="black" font-size="15.6962" font-family="Helvetica"> 810.9 </text>
<text xml:space="preserve" x="361.938" y="128.331" fill="black" font-size="15.6962" font-family="Helvetica">Sigma    </text>
<text xml:space="preserve" x="502.452" y="129.143" fill="black" font-size="15.6962" font-family="Helvetica"> 0.162</text>
<text xml:space="preserve" x="493.517" y="129.143" fill="black" font-size="15.6962" font-family="Times">&#0177;</text>
<text xml:space="preserve" x="446.408" y="129.143" fill="black" font-size="15.6962" font-family="Helvetica"> 2.583 </text>
<text xml:space="preserve" x="243.354" y="18.681" fill="black" font-size="17.0471" font-family="Helvetica">670mm 26</text></svg>
