<?xml version="1.0" standalone="no"?>
<svg width="567.429" height="386.304" viewBox="0 0 567.429 386.304" xmlns="http://www.w3.org/2000/svg" shape-rendering="crispEdges">
<title>
img/week2/Combined280mm_ch_54.svg
</title>
<desc>
Creator: ROOT Version 6.22/08
CreationDate: Tue Jun 22 00:47:50 2021</desc>
<defs>
</defs>
<rect x="0.5" y="0" width="566.929" height="385.804" fill="white"/>
<rect x="57.1929" y="38.5804" width="453.543" height="308.643" fill="white"/>
<rect x="57.1929" y="38.5804" width="453.543" height="308.643" fill="none" stroke="black"/>
<rect x="57.1929" y="38.5804" width="453.543" height="308.643" fill="white"/>
<rect x="57.1929" y="38.5804" width="453.543" height="308.643" fill="none" stroke="black"/>
<path d="M57.1929,347.224h 97.1879v -5.37174h 32.396v -5.37174h 32.396v -26.8587h 32.396v -252.472h 32.396v 16.1152h 32.396v 247.1h 32.396v 26.8587h 161.98" fill="none" stroke="#000099"/>
<g fill="#ff0000">
<polygon points=" 263.543, 52.9265 271.99, 52.9265 267.767, 61.3736"/>
</g>
<path d="M59.4606,347.224h 126.992l 4.53543, -0.0671348l 4.53543, -0.0870235l 4.53543, -0.185205l 4.53543, -0.376846l 4.53543, -0.732875l 4.53543, -1.36169l 4.53543, -2.41603l 4.53543, -4.09123l 4.53543, -6.60738l 4.53543, -10.1683l 4.53543,
 -14.8945l 4.53543, -20.7366l 4.53543, -27.3878l 4.53543, -34.2253l 4.53543, -40.3182l 4.53543, -44.5272l 4.53543, -45.7022l 4.53543, -42.9447l 1.49357, -11.8133" fill="none" stroke="#ff0000" stroke-width="2"/>
<path d="M295.744,38.5804l 4.09459, 36.6309" fill="none" stroke="#ff0000" stroke-width="2"/>
<path d="M299.839,75.2113l 4.53543, 45.0863l 4.53543, 45.4337l 4.53543, 42.3336l 4.53543, 36.867l 4.53543, 30.2061l 4.53543, 23.3849l 4.53543, 17.1579l 4.53543, 11.9569l 4.53543, 7.92682l 4.53543, 5.00538l 4.53543, 3.01338l 4.53543, 1.73094l 4.53543,
 0.949271l 4.53543, 0.49728l 4.53543, 0.248943l 4.53543, 0.119135l 4.53543, 0.0545193l 4.53543, 0.0402578h 126.992" fill="none" stroke="#ff0000" stroke-width="2"/>
<path d="M57.1929,347.224h 453.543" fill="none" stroke="black"/>
<path d="M135.06,337.964v 9.2593" fill="none" stroke="black"/>
<path d="M151.25,342.594v 4.62965" fill="none" stroke="black"/>
<path d="M167.44,342.594v 4.62965" fill="none" stroke="black"/>
<path d="M183.63,342.594v 4.62965" fill="none" stroke="black"/>
<path d="M199.82,342.594v 4.62965" fill="none" stroke="black"/>
<path d="M216.011,337.964v 9.2593" fill="none" stroke="black"/>
<path d="M232.201,342.594v 4.62965" fill="none" stroke="black"/>
<path d="M248.391,342.594v 4.62965" fill="none" stroke="black"/>
<path d="M264.581,342.594v 4.62965" fill="none" stroke="black"/>
<path d="M280.771,342.594v 4.62965" fill="none" stroke="black"/>
<path d="M296.961,337.964v 9.2593" fill="none" stroke="black"/>
<path d="M313.151,342.594v 4.62965" fill="none" stroke="black"/>
<path d="M329.341,342.594v 4.62965" fill="none" stroke="black"/>
<path d="M345.531,342.594v 4.62965" fill="none" stroke="black"/>
<path d="M361.721,342.594v 4.62965" fill="none" stroke="black"/>
<path d="M377.911,337.964v 9.2593" fill="none" stroke="black"/>
<path d="M394.101,342.594v 4.62965" fill="none" stroke="black"/>
<path d="M410.291,342.594v 4.62965" fill="none" stroke="black"/>
<path d="M426.481,342.594v 4.62965" fill="none" stroke="black"/>
<path d="M442.672,342.594v 4.62965" fill="none" stroke="black"/>
<path d="M458.862,337.964v 9.2593" fill="none" stroke="black"/>
<path d="M135.06,337.964v 9.2593" fill="none" stroke="black"/>
<path d="M118.87,342.594v 4.62965" fill="none" stroke="black"/>
<path d="M102.68,342.594v 4.62965" fill="none" stroke="black"/>
<path d="M86.49,342.594v 4.62965" fill="none" stroke="black"/>
<path d="M70.2999,342.594v 4.62965" fill="none" stroke="black"/>
<path d="M458.862,337.964v 9.2593" fill="none" stroke="black"/>
<path d="M475.052,342.594v 4.62965" fill="none" stroke="black"/>
<path d="M491.242,342.594v 4.62965" fill="none" stroke="black"/>
<path d="M507.432,342.594v 4.62965" fill="none" stroke="black"/>
<text xml:space="preserve" x="123.145" y="359.813" fill="black" font-size="12.8882" font-family="Helvetica">790</text>
<text xml:space="preserve" x="204.367" y="359.813" fill="black" font-size="12.8882" font-family="Helvetica">800</text>
<text xml:space="preserve" x="285.589" y="359.813" fill="black" font-size="12.8882" font-family="Helvetica">810</text>
<text xml:space="preserve" x="365.999" y="359.813" fill="black" font-size="12.8882" font-family="Helvetica">820</text>
<text xml:space="preserve" x="447.221" y="359.813" fill="black" font-size="12.8882" font-family="Helvetica">830</text>
<text xml:space="preserve" x="481.334" y="373.621" fill="black" font-size="12.8882" font-family="Helvetica">Time</text>
<path d="M57.1929,347.224v -308.643" fill="none" stroke="black"/>
<path d="M70.7992,347.224h -13.6063" fill="none" stroke="black"/>
<path d="M63.9961,336.48h -6.80315" fill="none" stroke="black"/>
<path d="M63.9961,325.737h -6.80315" fill="none" stroke="black"/>
<path d="M63.9961,314.993h -6.80315" fill="none" stroke="black"/>
<path d="M63.9961,304.25h -6.80315" fill="none" stroke="black"/>
<path d="M70.7992,293.506h -13.6063" fill="none" stroke="black"/>
<path d="M63.9961,282.763h -6.80315" fill="none" stroke="black"/>
<path d="M63.9961,272.02h -6.80315" fill="none" stroke="black"/>
<path d="M63.9961,261.276h -6.80315" fill="none" stroke="black"/>
<path d="M63.9961,250.533h -6.80315" fill="none" stroke="black"/>
<path d="M70.7992,239.789h -13.6063" fill="none" stroke="black"/>
<path d="M63.9961,229.046h -6.80315" fill="none" stroke="black"/>
<path d="M63.9961,218.302h -6.80315" fill="none" stroke="black"/>
<path d="M63.9961,207.559h -6.80315" fill="none" stroke="black"/>
<path d="M63.9961,196.815h -6.80315" fill="none" stroke="black"/>
<path d="M70.7992,186.072h -13.6063" fill="none" stroke="black"/>
<path d="M63.9961,175.328h -6.80315" fill="none" stroke="black"/>
<path d="M63.9961,164.585h -6.80315" fill="none" stroke="black"/>
<path d="M63.9961,153.841h -6.80315" fill="none" stroke="black"/>
<path d="M63.9961,143.098h -6.80315" fill="none" stroke="black"/>
<path d="M70.7992,132.354h -13.6063" fill="none" stroke="black"/>
<path d="M63.9961,121.611h -6.80315" fill="none" stroke="black"/>
<path d="M63.9961,110.867h -6.80315" fill="none" stroke="black"/>
<path d="M63.9961,100.124h -6.80315" fill="none" stroke="black"/>
<path d="M63.9961,89.3805h -6.80315" fill="none" stroke="black"/>
<path d="M70.7992,78.637h -13.6063" fill="none" stroke="black"/>
<path d="M70.7992,78.637h -13.6063" fill="none" stroke="black"/>
<path d="M63.9961,67.8935h -6.80315" fill="none" stroke="black"/>
<path d="M63.9961,57.1501h -6.80315" fill="none" stroke="black"/>
<path d="M63.9961,46.4066h -6.80315" fill="none" stroke="black"/>
<text xml:space="preserve" x="46.7965" y="351.691" fill="black" font-size="12.8882" font-family="Helvetica">0</text>
<text xml:space="preserve" x="39.4865" y="298.085" fill="black" font-size="12.8882" font-family="Helvetica">10</text>
<text xml:space="preserve" x="39.4865" y="244.478" fill="black" font-size="12.8882" font-family="Helvetica">20</text>
<text xml:space="preserve" x="39.4865" y="190.872" fill="black" font-size="12.8882" font-family="Helvetica">30</text>
<text xml:space="preserve" x="39.4865" y="136.453" fill="black" font-size="12.8882" font-family="Helvetica">40</text>
<text xml:space="preserve" x="39.4865" y="82.8464" fill="black" font-size="12.8882" font-family="Helvetica">50</text>
<g transform="rotate(-90,28.9277,71.4753)">
<text xml:space="preserve" x="28.9277" y="71.4753" fill="black" font-size="12.8882" font-family="Helvetica">Event</text>
</g>
<text xml:space="preserve" x="243.354" y="18.681" fill="black" font-size="17.0471" font-family="Helvetica">280mm 54</text></svg>
