<?xml version="1.0" standalone="no"?>
<svg width="567.429" height="384.969" viewBox="0 0 567.429 384.969" xmlns="http://www.w3.org/2000/svg" shape-rendering="crispEdges">
<title>
img/week2/Combined280mm_ch_2.svg
</title>
<desc>
Creator: ROOT Version 6.22/09
CreationDate: Thu Jun 24 12:33:04 2021</desc>
<defs>
</defs>
<rect x="0.5" y="0" width="566.929" height="384.469" fill="white"/>
<rect x="57.1929" y="38.4469" width="453.543" height="307.575" fill="white"/>
<rect x="57.1929" y="38.4469" width="453.543" height="307.575" fill="none" stroke="black"/>
<rect x="57.1929" y="38.4469" width="453.543" height="307.575" fill="white"/>
<rect x="57.1929" y="38.4469" width="453.543" height="307.575" fill="none" stroke="black"/>
<path d="M57.1929,346.022h 141.732v -6.50953h 28.3465v -13.0191h 28.3465v -136.7h 28.3465v -136.7h 28.3465v 214.815h 28.3465v 78.1144h 170.079" fill="none" stroke="#000099"/>
<g fill="#ff0000">
<polygon points=" 293.902, 48.8577 302.373, 48.8577 298.138, 57.329"/>
</g>
<path d="M59.4606,346.022h 140.598l 4.53543, -0.0562893l 4.53543, -0.0767451l 4.53543, -0.167379l 4.53543, -0.34776l 4.53543, -0.688055l 4.53543, -1.29578l 4.53543, -2.32147l 4.53543, -3.95391l 4.53543, -6.3967l 4.53543, -9.81949l 4.53543, -14.2833l
 4.53543, -19.6513l 4.53543, -25.5097l 4.53543, -31.1359l 4.53543, -35.5501l 4.53543, -37.6681l 4.53543, -36.5411l 4.53543, -31.627" fill="none" stroke="#ff0000" stroke-width="2"/>
<path d="M281.697,88.9322l 4.53543, -23.0093l 4.53543, -11.4794l 4.53543, 1.5663l 4.53543, 14.4028l 4.53543, 25.351l 4.53543, 33.1382l 4.53543, 37.1383l 4.53543, 37.4296l 4.53543, 34.6734l 4.53543, 29.8751l 4.53543, 24.1134l 4.53543, 18.3171l
 4.53543, 13.1369l 4.53543, 8.91575l 4.53543, 5.73569l 4.53543, 3.50217l 4.53543, 2.03165l 4.53543, 1.12064l 4.53543, 0.588124l 4.53543, 0.293824l 4.53543, 0.139801l 4.53543, 0.0633723l 4.53543, 0.0456243h 117.921" fill="none" stroke="#ff0000"
 stroke-width="2"/>
<path d="M503.933,346.022h 4.53543" fill="none" stroke="#ff0000" stroke-width="2"/>
<path d="M57.1929,346.022h 453.543" fill="none" stroke="black"/>
<path d="M82.8417,336.795v 9.22726" fill="none" stroke="black"/>
<path d="M97.008,341.409v 4.61363" fill="none" stroke="black"/>
<path d="M111.174,341.409v 4.61363" fill="none" stroke="black"/>
<path d="M125.341,341.409v 4.61363" fill="none" stroke="black"/>
<path d="M139.507,341.409v 4.61363" fill="none" stroke="black"/>
<path d="M153.673,336.795v 9.22726" fill="none" stroke="black"/>
<path d="M167.84,341.409v 4.61363" fill="none" stroke="black"/>
<path d="M182.006,341.409v 4.61363" fill="none" stroke="black"/>
<path d="M196.172,341.409v 4.61363" fill="none" stroke="black"/>
<path d="M210.338,341.409v 4.61363" fill="none" stroke="black"/>
<path d="M224.505,336.795v 9.22726" fill="none" stroke="black"/>
<path d="M238.671,341.409v 4.61363" fill="none" stroke="black"/>
<path d="M252.837,341.409v 4.61363" fill="none" stroke="black"/>
<path d="M267.004,341.409v 4.61363" fill="none" stroke="black"/>
<path d="M281.17,341.409v 4.61363" fill="none" stroke="black"/>
<path d="M295.336,336.795v 9.22726" fill="none" stroke="black"/>
<path d="M309.503,341.409v 4.61363" fill="none" stroke="black"/>
<path d="M323.669,341.409v 4.61363" fill="none" stroke="black"/>
<path d="M337.835,341.409v 4.61363" fill="none" stroke="black"/>
<path d="M352.002,341.409v 4.61363" fill="none" stroke="black"/>
<path d="M366.168,336.795v 9.22726" fill="none" stroke="black"/>
<path d="M380.334,341.409v 4.61363" fill="none" stroke="black"/>
<path d="M394.501,341.409v 4.61363" fill="none" stroke="black"/>
<path d="M408.667,341.409v 4.61363" fill="none" stroke="black"/>
<path d="M422.833,341.409v 4.61363" fill="none" stroke="black"/>
<path d="M436.999,336.795v 9.22726" fill="none" stroke="black"/>
<path d="M451.166,341.409v 4.61363" fill="none" stroke="black"/>
<path d="M465.332,341.409v 4.61363" fill="none" stroke="black"/>
<path d="M479.498,341.409v 4.61363" fill="none" stroke="black"/>
<path d="M493.665,341.409v 4.61363" fill="none" stroke="black"/>
<path d="M507.831,336.795v 9.22726" fill="none" stroke="black"/>
<path d="M82.8417,336.795v 9.22726" fill="none" stroke="black"/>
<path d="M68.6754,341.409v 4.61363" fill="none" stroke="black"/>
<path d="M507.831,336.795v 9.22726" fill="none" stroke="black"/>
<text xml:space="preserve" x="72.1807" y="358.403" fill="black" font-size="12.8453" font-family="Helvetica">780</text>
<text xml:space="preserve" x="143.047" y="358.403" fill="black" font-size="12.8453" font-family="Helvetica">790</text>
<text xml:space="preserve" x="213.913" y="358.403" fill="black" font-size="12.8453" font-family="Helvetica">800</text>
<text xml:space="preserve" x="283.965" y="358.403" fill="black" font-size="12.8453" font-family="Helvetica">810</text>
<text xml:space="preserve" x="354.831" y="358.403" fill="black" font-size="12.8453" font-family="Helvetica">820</text>
<text xml:space="preserve" x="425.697" y="358.403" fill="black" font-size="12.8453" font-family="Helvetica">830</text>
<text xml:space="preserve" x="496.563" y="358.403" fill="black" font-size="12.8453" font-family="Helvetica">840</text>
<text xml:space="preserve" x="460.723" y="370.622" fill="black" font-size="12.8453" font-family="Helvetica">Time [ns]</text>
<path d="M57.1929,346.022v -307.575" fill="none" stroke="black"/>
<path d="M70.7992,346.022h -13.6063" fill="none" stroke="black"/>
<path d="M63.9961,339.513h -6.80315" fill="none" stroke="black"/>
<path d="M63.9961,333.003h -6.80315" fill="none" stroke="black"/>
<path d="M63.9961,326.494h -6.80315" fill="none" stroke="black"/>
<path d="M63.9961,319.984h -6.80315" fill="none" stroke="black"/>
<path d="M70.7992,313.475h -13.6063" fill="none" stroke="black"/>
<path d="M63.9961,306.965h -6.80315" fill="none" stroke="black"/>
<path d="M63.9961,300.456h -6.80315" fill="none" stroke="black"/>
<path d="M63.9961,293.946h -6.80315" fill="none" stroke="black"/>
<path d="M63.9961,287.436h -6.80315" fill="none" stroke="black"/>
<path d="M70.7992,280.927h -13.6063" fill="none" stroke="black"/>
<path d="M63.9961,274.417h -6.80315" fill="none" stroke="black"/>
<path d="M63.9961,267.908h -6.80315" fill="none" stroke="black"/>
<path d="M63.9961,261.398h -6.80315" fill="none" stroke="black"/>
<path d="M63.9961,254.889h -6.80315" fill="none" stroke="black"/>
<path d="M70.7992,248.379h -13.6063" fill="none" stroke="black"/>
<path d="M63.9961,241.87h -6.80315" fill="none" stroke="black"/>
<path d="M63.9961,235.36h -6.80315" fill="none" stroke="black"/>
<path d="M63.9961,228.851h -6.80315" fill="none" stroke="black"/>
<path d="M63.9961,222.341h -6.80315" fill="none" stroke="black"/>
<path d="M70.7992,215.832h -13.6063" fill="none" stroke="black"/>
<path d="M63.9961,209.322h -6.80315" fill="none" stroke="black"/>
<path d="M63.9961,202.813h -6.80315" fill="none" stroke="black"/>
<path d="M63.9961,196.303h -6.80315" fill="none" stroke="black"/>
<path d="M63.9961,189.794h -6.80315" fill="none" stroke="black"/>
<path d="M70.7992,183.284h -13.6063" fill="none" stroke="black"/>
<path d="M63.9961,176.774h -6.80315" fill="none" stroke="black"/>
<path d="M63.9961,170.265h -6.80315" fill="none" stroke="black"/>
<path d="M63.9961,163.755h -6.80315" fill="none" stroke="black"/>
<path d="M63.9961,157.246h -6.80315" fill="none" stroke="black"/>
<path d="M70.7992,150.736h -13.6063" fill="none" stroke="black"/>
<path d="M63.9961,144.227h -6.80315" fill="none" stroke="black"/>
<path d="M63.9961,137.717h -6.80315" fill="none" stroke="black"/>
<path d="M63.9961,131.208h -6.80315" fill="none" stroke="black"/>
<path d="M63.9961,124.698h -6.80315" fill="none" stroke="black"/>
<path d="M70.7992,118.189h -13.6063" fill="none" stroke="black"/>
<path d="M63.9961,111.679h -6.80315" fill="none" stroke="black"/>
<path d="M63.9961,105.17h -6.80315" fill="none" stroke="black"/>
<path d="M63.9961,98.6601h -6.80315" fill="none" stroke="black"/>
<path d="M63.9961,92.1506h -6.80315" fill="none" stroke="black"/>
<path d="M70.7992,85.641h -13.6063" fill="none" stroke="black"/>
<path d="M63.9961,79.1315h -6.80315" fill="none" stroke="black"/>
<path d="M63.9961,72.622h -6.80315" fill="none" stroke="black"/>
<path d="M63.9961,66.1124h -6.80315" fill="none" stroke="black"/>
<path d="M63.9961,59.6029h -6.80315" fill="none" stroke="black"/>
<path d="M70.7992,53.0934h -13.6063" fill="none" stroke="black"/>
<path d="M70.7992,53.0934h -13.6063" fill="none" stroke="black"/>
<path d="M63.9961,46.5838h -6.80315" fill="none" stroke="black"/>
<path d="M63.9961,40.0743h -6.80315" fill="none" stroke="black"/>
<text xml:space="preserve" x="47.7441" y="350.258" fill="black" font-size="12.8453" font-family="Helvetica">0</text>
<text xml:space="preserve" x="47.7441" y="317.676" fill="black" font-size="12.8453" font-family="Helvetica">5</text>
<text xml:space="preserve" x="41.2277" y="285.094" fill="black" font-size="12.8453" font-family="Helvetica">10</text>
<text xml:space="preserve" x="40.4131" y="252.512" fill="black" font-size="12.8453" font-family="Helvetica">15</text>
<text xml:space="preserve" x="41.2277" y="219.929" fill="black" font-size="12.8453" font-family="Helvetica">20</text>
<text xml:space="preserve" x="40.4131" y="188.162" fill="black" font-size="12.8453" font-family="Helvetica">25</text>
<text xml:space="preserve" x="41.2277" y="155.58" fill="black" font-size="12.8453" font-family="Helvetica">30</text>
<text xml:space="preserve" x="40.4131" y="122.998" fill="black" font-size="12.8453" font-family="Helvetica">35</text>
<text xml:space="preserve" x="41.2277" y="90.4154" fill="black" font-size="12.8453" font-family="Helvetica">40</text>
<text xml:space="preserve" x="40.4131" y="57.8333" fill="black" font-size="12.8453" font-family="Helvetica">45</text>
<g transform="rotate(-90,28.1948,70.0516)">
<text xml:space="preserve" x="28.1948" y="70.0516" fill="black" font-size="12.8453" font-family="Helvetica">Event</text>
</g>
<text xml:space="preserve" x="248.124" y="18.7347" fill="black" font-size="16.9898" font-family="Helvetica">280mm 2</text></svg>
