<?xml version="1.0" standalone="no"?>
<svg width="567.429" height="386.304" viewBox="0 0 567.429 386.304" xmlns="http://www.w3.org/2000/svg" shape-rendering="crispEdges">
<title>
img/week2/Combined0mm_ch_60_61_62_63.svg
</title>
<desc>
Creator: ROOT Version 6.22/08
CreationDate: Mon Jun 21 21:39:45 2021</desc>
<defs>
</defs>
<rect x="0.5" y="0" width="566.929" height="385.804" fill="white"/>
<rect x="57.1929" y="38.5804" width="453.543" height="308.643" fill="white"/>
<rect x="57.1929" y="38.5804" width="453.543" height="308.643" fill="none" stroke="black"/>
<rect x="57.1929" y="38.5804" width="453.543" height="308.643" fill="white"/>
<rect x="57.1929" y="38.5804" width="453.543" height="308.643" fill="none" stroke="black"/>
<path d="M57.1929,347.224h 106.716v -1.90874h 26.679v -1.90874h 26.679v -17.1787h 26.679v -143.156h 26.679v -129.794h 26.679v 204.235h 26.679v 89.7108h 186.753" fill="none" stroke="#000099"/>
<g fill="#ff0000">
<polygon points=" 279.741, 49.0542 288.188, 49.0542 283.965, 57.5013"/>
</g>
<path d="M59.4606,347.224h 126.992l 4.53543, -0.0367546l 4.53543, -0.0538825l 4.53543, -0.122455l 4.53543, -0.264539l 4.53543, -0.543038l 4.53543, -1.05875l 4.53543, -1.95951l 4.53543, -3.4403l 4.53543, -5.72501l 4.53543, -9.02045l 4.53543, -13.4388l
 4.53543, -18.897l 4.53543, -25.0185l 4.53543, -31.0795l 4.53543, -36.0438l 4.53543, -38.7171l 4.53543, -38.0095l 4.53543, -33.2496l 4.53543, -24.4506l 4.53543, -12.4249l 4.53543, 1.31628" fill="none" stroke="#ff0000" stroke-width="2"/>
<path d="M281.697,54.9861l 4.53543, 14.8734l 4.53543, 26.3891l 4.53543, 34.4656l 4.53543, 38.4401l 4.53543, 38.443l 4.53543, 35.2477l 4.53543, 29.9874l 4.53543, 23.8439l 4.53543, 17.8027l 4.53543, 12.5215l 4.53543, 8.31559l 4.53543, 5.22316l 4.53543,
 3.107l 4.53543, 1.75209l 4.53543, 0.937401l 4.53543, 0.476136l 4.53543, 0.229722l 4.53543, 0.105325l 4.53543, 0.0767524h 136.063" fill="none" stroke="#ff0000" stroke-width="2"/>
<path d="M503.933,347.224h 4.53543" fill="none" stroke="#ff0000" stroke-width="2"/>
<path d="M57.1929,347.224h 453.543" fill="none" stroke="black"/>
<path d="M81.3329,337.964v 9.2593" fill="none" stroke="black"/>
<path d="M94.6659,342.594v 4.62965" fill="none" stroke="black"/>
<path d="M107.999,342.594v 4.62965" fill="none" stroke="black"/>
<path d="M121.332,342.594v 4.62965" fill="none" stroke="black"/>
<path d="M134.665,342.594v 4.62965" fill="none" stroke="black"/>
<path d="M147.998,337.964v 9.2593" fill="none" stroke="black"/>
<path d="M161.331,342.594v 4.62965" fill="none" stroke="black"/>
<path d="M174.664,342.594v 4.62965" fill="none" stroke="black"/>
<path d="M187.997,342.594v 4.62965" fill="none" stroke="black"/>
<path d="M201.33,342.594v 4.62965" fill="none" stroke="black"/>
<path d="M214.663,337.964v 9.2593" fill="none" stroke="black"/>
<path d="M227.996,342.594v 4.62965" fill="none" stroke="black"/>
<path d="M241.329,342.594v 4.62965" fill="none" stroke="black"/>
<path d="M254.662,342.594v 4.62965" fill="none" stroke="black"/>
<path d="M267.995,342.594v 4.62965" fill="none" stroke="black"/>
<path d="M281.328,337.964v 9.2593" fill="none" stroke="black"/>
<path d="M294.661,342.594v 4.62965" fill="none" stroke="black"/>
<path d="M307.994,342.594v 4.62965" fill="none" stroke="black"/>
<path d="M321.327,342.594v 4.62965" fill="none" stroke="black"/>
<path d="M334.66,342.594v 4.62965" fill="none" stroke="black"/>
<path d="M347.993,337.964v 9.2593" fill="none" stroke="black"/>
<path d="M361.326,342.594v 4.62965" fill="none" stroke="black"/>
<path d="M374.659,342.594v 4.62965" fill="none" stroke="black"/>
<path d="M387.992,342.594v 4.62965" fill="none" stroke="black"/>
<path d="M401.325,342.594v 4.62965" fill="none" stroke="black"/>
<path d="M414.658,337.964v 9.2593" fill="none" stroke="black"/>
<path d="M427.991,342.594v 4.62965" fill="none" stroke="black"/>
<path d="M441.324,342.594v 4.62965" fill="none" stroke="black"/>
<path d="M454.657,342.594v 4.62965" fill="none" stroke="black"/>
<path d="M467.99,342.594v 4.62965" fill="none" stroke="black"/>
<path d="M481.323,337.964v 9.2593" fill="none" stroke="black"/>
<path d="M81.3329,337.964v 9.2593" fill="none" stroke="black"/>
<path d="M67.9999,342.594v 4.62965" fill="none" stroke="black"/>
<path d="M481.323,337.964v 9.2593" fill="none" stroke="black"/>
<path d="M494.656,342.594v 4.62965" fill="none" stroke="black"/>
<path d="M507.989,342.594v 4.62965" fill="none" stroke="black"/>
<text xml:space="preserve" x="69.5387" y="359.813" fill="black" font-size="12.8882" font-family="Helvetica">780</text>
<text xml:space="preserve" x="136.141" y="359.813" fill="black" font-size="12.8882" font-family="Helvetica">790</text>
<text xml:space="preserve" x="202.743" y="359.813" fill="black" font-size="12.8882" font-family="Helvetica">800</text>
<text xml:space="preserve" x="269.345" y="359.813" fill="black" font-size="12.8882" font-family="Helvetica">810</text>
<text xml:space="preserve" x="335.947" y="359.813" fill="black" font-size="12.8882" font-family="Helvetica">820</text>
<text xml:space="preserve" x="402.549" y="359.813" fill="black" font-size="12.8882" font-family="Helvetica">830</text>
<text xml:space="preserve" x="469.151" y="359.813" fill="black" font-size="12.8882" font-family="Helvetica">840</text>
<text xml:space="preserve" x="481.334" y="373.621" fill="black" font-size="12.8882" font-family="Helvetica">Time</text>
<path d="M57.1929,347.224v -308.643" fill="none" stroke="black"/>
<path d="M70.7992,347.224h -13.6063" fill="none" stroke="black"/>
<path d="M63.9961,337.68h -6.80315" fill="none" stroke="black"/>
<path d="M63.9961,328.136h -6.80315" fill="none" stroke="black"/>
<path d="M63.9961,318.593h -6.80315" fill="none" stroke="black"/>
<path d="M70.7992,309.049h -13.6063" fill="none" stroke="black"/>
<path d="M63.9961,299.505h -6.80315" fill="none" stroke="black"/>
<path d="M63.9961,289.962h -6.80315" fill="none" stroke="black"/>
<path d="M63.9961,280.418h -6.80315" fill="none" stroke="black"/>
<path d="M70.7992,270.874h -13.6063" fill="none" stroke="black"/>
<path d="M63.9961,261.33h -6.80315" fill="none" stroke="black"/>
<path d="M63.9961,251.787h -6.80315" fill="none" stroke="black"/>
<path d="M63.9961,242.243h -6.80315" fill="none" stroke="black"/>
<path d="M70.7992,232.699h -13.6063" fill="none" stroke="black"/>
<path d="M63.9961,223.156h -6.80315" fill="none" stroke="black"/>
<path d="M63.9961,213.612h -6.80315" fill="none" stroke="black"/>
<path d="M63.9961,204.068h -6.80315" fill="none" stroke="black"/>
<path d="M70.7992,194.525h -13.6063" fill="none" stroke="black"/>
<path d="M63.9961,184.981h -6.80315" fill="none" stroke="black"/>
<path d="M63.9961,175.437h -6.80315" fill="none" stroke="black"/>
<path d="M63.9961,165.893h -6.80315" fill="none" stroke="black"/>
<path d="M70.7992,156.35h -13.6063" fill="none" stroke="black"/>
<path d="M63.9961,146.806h -6.80315" fill="none" stroke="black"/>
<path d="M63.9961,137.262h -6.80315" fill="none" stroke="black"/>
<path d="M63.9961,127.719h -6.80315" fill="none" stroke="black"/>
<path d="M70.7992,118.175h -13.6063" fill="none" stroke="black"/>
<path d="M63.9961,108.631h -6.80315" fill="none" stroke="black"/>
<path d="M63.9961,99.0875h -6.80315" fill="none" stroke="black"/>
<path d="M63.9961,89.5438h -6.80315" fill="none" stroke="black"/>
<path d="M70.7992,80.0001h -13.6063" fill="none" stroke="black"/>
<path d="M63.9961,70.4564h -6.80315" fill="none" stroke="black"/>
<path d="M63.9961,60.9127h -6.80315" fill="none" stroke="black"/>
<path d="M63.9961,51.369h -6.80315" fill="none" stroke="black"/>
<path d="M70.7992,41.8253h -13.6063" fill="none" stroke="black"/>
<path d="M70.7992,41.8253h -13.6063" fill="none" stroke="black"/>
<text xml:space="preserve" x="46.7965" y="351.691" fill="black" font-size="12.8882" font-family="Helvetica">0</text>
<text xml:space="preserve" x="39.4865" y="313.517" fill="black" font-size="12.8882" font-family="Helvetica">20</text>
<text xml:space="preserve" x="39.4865" y="275.342" fill="black" font-size="12.8882" font-family="Helvetica">40</text>
<text xml:space="preserve" x="39.4865" y="237.168" fill="black" font-size="12.8882" font-family="Helvetica">60</text>
<text xml:space="preserve" x="39.4865" y="198.994" fill="black" font-size="12.8882" font-family="Helvetica">80</text>
<text xml:space="preserve" x="32.1766" y="160.819" fill="black" font-size="12.8882" font-family="Helvetica">100</text>
<text xml:space="preserve" x="32.1766" y="122.645" fill="black" font-size="12.8882" font-family="Helvetica">120</text>
<text xml:space="preserve" x="32.1766" y="84.4708" fill="black" font-size="12.8882" font-family="Helvetica">140</text>
<text xml:space="preserve" x="32.1766" y="46.2965" fill="black" font-size="12.8882" font-family="Helvetica">160</text>
<g transform="rotate(-90,21.6177,71.4753)">
<text xml:space="preserve" x="21.6177" y="71.4753" fill="black" font-size="12.8882" font-family="Helvetica">Event</text>
</g>
<text xml:space="preserve" x="217.363" y="18.681" fill="black" font-size="17.0471" font-family="Helvetica">0mm 60 61 62 63</text></svg>
