<?xml version="1.0" standalone="no"?>
<svg width="567.429" height="386.304" viewBox="0 0 567.429 386.304" xmlns="http://www.w3.org/2000/svg" shape-rendering="crispEdges">
<title>
img/week2/Combined560mm_ch_24_25_26_27.svg
</title>
<desc>
Creator: ROOT Version 6.22/08
CreationDate: Mon Jun 21 21:40:09 2021</desc>
<defs>
</defs>
<rect x="0.5" y="0" width="566.929" height="385.804" fill="white"/>
<rect x="57.1929" y="38.5804" width="453.543" height="308.643" fill="white"/>
<rect x="57.1929" y="38.5804" width="453.543" height="308.643" fill="none" stroke="black"/>
<rect x="57.1929" y="38.5804" width="453.543" height="308.643" fill="white"/>
<rect x="57.1929" y="38.5804" width="453.543" height="308.643" fill="none" stroke="black"/>
<path d="M57.1929,347.224h 64.7919v -0.796602h 32.396v -0.796602h 32.396v -4.77961h 32.396v -11.949h 32.396v -86.8296h 32.396v -188.795h 32.396v 212.693h 32.396v 80.4568h 32.396v 0.796602h 129.584" fill="none" stroke="#000099"/>
<g fill="#ff0000">
<polygon points=" 295.939, 49.0542 304.386, 49.0542 300.163, 57.5013"/>
</g>
<path d="M59.4606,347.224h 145.134l 4.53543, -0.0547953l 4.53543, -0.0746623l 4.53543, -0.162843l 4.53543, -0.338438l 4.53543, -0.669993l 4.53543, -1.26283l 4.53543, -2.265l 4.53543, -3.86325l 4.53543, -6.26093l 4.53543, -9.63108l 4.53543, -14.0436l
 4.53543, -19.3769l 4.53543, -25.2378l 4.53543, -30.9258l 4.53543, -35.4773l 4.53543, -37.811l 4.53543, -36.9603" fill="none" stroke="#ff0000" stroke-width="2"/>
<path d="M281.697,122.807l 4.53543, -32.3438l 4.53543, -23.9892l 4.53543, -12.6289l 4.53543, 0.386688l 4.53543, 13.3509l 4.53543, 24.5682l 4.53543, 32.7185l 4.53543, 37.1099l 4.53543, 37.7543l 4.53543, 35.2628l 4.53543, 30.6156l 4.53543, 24.8932l
 4.53543, 19.0468l 4.53543, 13.7592l 4.53543, 9.4063l 4.53543, 6.09607l 4.53543, 3.75025l 4.53543, 2.19228l 4.53543, 1.21874l 4.53543, 0.644747l 4.53543, 0.324761l 4.53543, 0.155822l 4.53543, 0.0712437l 4.53543, 0.052048h 113.386" fill="none"
 stroke="#ff0000" stroke-width="2"/>
<path d="M503.933,347.224h 4.53543" fill="none" stroke="#ff0000" stroke-width="2"/>
<path d="M57.1929,347.224h 453.543" fill="none" stroke="black"/>
<path d="M135.06,337.964v 9.2593" fill="none" stroke="black"/>
<path d="M151.25,342.594v 4.62965" fill="none" stroke="black"/>
<path d="M167.44,342.594v 4.62965" fill="none" stroke="black"/>
<path d="M183.63,342.594v 4.62965" fill="none" stroke="black"/>
<path d="M199.82,342.594v 4.62965" fill="none" stroke="black"/>
<path d="M216.011,337.964v 9.2593" fill="none" stroke="black"/>
<path d="M232.201,342.594v 4.62965" fill="none" stroke="black"/>
<path d="M248.391,342.594v 4.62965" fill="none" stroke="black"/>
<path d="M264.581,342.594v 4.62965" fill="none" stroke="black"/>
<path d="M280.771,342.594v 4.62965" fill="none" stroke="black"/>
<path d="M296.961,337.964v 9.2593" fill="none" stroke="black"/>
<path d="M313.151,342.594v 4.62965" fill="none" stroke="black"/>
<path d="M329.341,342.594v 4.62965" fill="none" stroke="black"/>
<path d="M345.531,342.594v 4.62965" fill="none" stroke="black"/>
<path d="M361.721,342.594v 4.62965" fill="none" stroke="black"/>
<path d="M377.911,337.964v 9.2593" fill="none" stroke="black"/>
<path d="M394.101,342.594v 4.62965" fill="none" stroke="black"/>
<path d="M410.291,342.594v 4.62965" fill="none" stroke="black"/>
<path d="M426.481,342.594v 4.62965" fill="none" stroke="black"/>
<path d="M442.672,342.594v 4.62965" fill="none" stroke="black"/>
<path d="M458.862,337.964v 9.2593" fill="none" stroke="black"/>
<path d="M135.06,337.964v 9.2593" fill="none" stroke="black"/>
<path d="M118.87,342.594v 4.62965" fill="none" stroke="black"/>
<path d="M102.68,342.594v 4.62965" fill="none" stroke="black"/>
<path d="M86.49,342.594v 4.62965" fill="none" stroke="black"/>
<path d="M70.2999,342.594v 4.62965" fill="none" stroke="black"/>
<path d="M458.862,337.964v 9.2593" fill="none" stroke="black"/>
<path d="M475.052,342.594v 4.62965" fill="none" stroke="black"/>
<path d="M491.242,342.594v 4.62965" fill="none" stroke="black"/>
<path d="M507.432,342.594v 4.62965" fill="none" stroke="black"/>
<text xml:space="preserve" x="123.145" y="359.813" fill="black" font-size="12.8882" font-family="Helvetica">790</text>
<text xml:space="preserve" x="204.367" y="359.813" fill="black" font-size="12.8882" font-family="Helvetica">800</text>
<text xml:space="preserve" x="285.589" y="359.813" fill="black" font-size="12.8882" font-family="Helvetica">810</text>
<text xml:space="preserve" x="365.999" y="359.813" fill="black" font-size="12.8882" font-family="Helvetica">820</text>
<text xml:space="preserve" x="447.221" y="359.813" fill="black" font-size="12.8882" font-family="Helvetica">830</text>
<text xml:space="preserve" x="481.334" y="373.621" fill="black" font-size="12.8882" font-family="Helvetica">Time</text>
<path d="M57.1929,347.224v -308.643" fill="none" stroke="black"/>
<path d="M70.7992,347.224h -13.6063" fill="none" stroke="black"/>
<path d="M63.9961,339.258h -6.80315" fill="none" stroke="black"/>
<path d="M63.9961,331.292h -6.80315" fill="none" stroke="black"/>
<path d="M63.9961,323.326h -6.80315" fill="none" stroke="black"/>
<path d="M63.9961,315.36h -6.80315" fill="none" stroke="black"/>
<path d="M70.7992,307.394h -13.6063" fill="none" stroke="black"/>
<path d="M63.9961,299.428h -6.80315" fill="none" stroke="black"/>
<path d="M63.9961,291.462h -6.80315" fill="none" stroke="black"/>
<path d="M63.9961,283.496h -6.80315" fill="none" stroke="black"/>
<path d="M63.9961,275.53h -6.80315" fill="none" stroke="black"/>
<path d="M70.7992,267.564h -13.6063" fill="none" stroke="black"/>
<path d="M63.9961,259.598h -6.80315" fill="none" stroke="black"/>
<path d="M63.9961,251.632h -6.80315" fill="none" stroke="black"/>
<path d="M63.9961,243.666h -6.80315" fill="none" stroke="black"/>
<path d="M63.9961,235.7h -6.80315" fill="none" stroke="black"/>
<path d="M70.7992,227.734h -13.6063" fill="none" stroke="black"/>
<path d="M63.9961,219.768h -6.80315" fill="none" stroke="black"/>
<path d="M63.9961,211.801h -6.80315" fill="none" stroke="black"/>
<path d="M63.9961,203.835h -6.80315" fill="none" stroke="black"/>
<path d="M63.9961,195.869h -6.80315" fill="none" stroke="black"/>
<path d="M70.7992,187.903h -13.6063" fill="none" stroke="black"/>
<path d="M63.9961,179.937h -6.80315" fill="none" stroke="black"/>
<path d="M63.9961,171.971h -6.80315" fill="none" stroke="black"/>
<path d="M63.9961,164.005h -6.80315" fill="none" stroke="black"/>
<path d="M63.9961,156.039h -6.80315" fill="none" stroke="black"/>
<path d="M70.7992,148.073h -13.6063" fill="none" stroke="black"/>
<path d="M63.9961,140.107h -6.80315" fill="none" stroke="black"/>
<path d="M63.9961,132.141h -6.80315" fill="none" stroke="black"/>
<path d="M63.9961,124.175h -6.80315" fill="none" stroke="black"/>
<path d="M63.9961,116.209h -6.80315" fill="none" stroke="black"/>
<path d="M70.7992,108.243h -13.6063" fill="none" stroke="black"/>
<path d="M63.9961,100.277h -6.80315" fill="none" stroke="black"/>
<path d="M63.9961,92.3112h -6.80315" fill="none" stroke="black"/>
<path d="M63.9961,84.3452h -6.80315" fill="none" stroke="black"/>
<path d="M63.9961,76.3792h -6.80315" fill="none" stroke="black"/>
<path d="M70.7992,68.4132h -13.6063" fill="none" stroke="black"/>
<path d="M70.7992,68.4132h -13.6063" fill="none" stroke="black"/>
<path d="M63.9961,60.4471h -6.80315" fill="none" stroke="black"/>
<path d="M63.9961,52.4811h -6.80315" fill="none" stroke="black"/>
<path d="M63.9961,44.5151h -6.80315" fill="none" stroke="black"/>
<text xml:space="preserve" x="46.7965" y="351.691" fill="black" font-size="12.8882" font-family="Helvetica">0</text>
<text xml:space="preserve" x="39.4865" y="311.892" fill="black" font-size="12.8882" font-family="Helvetica">50</text>
<text xml:space="preserve" x="32.1766" y="272.094" fill="black" font-size="12.8882" font-family="Helvetica">100</text>
<text xml:space="preserve" x="32.1766" y="232.295" fill="black" font-size="12.8882" font-family="Helvetica">150</text>
<text xml:space="preserve" x="32.1766" y="192.496" fill="black" font-size="12.8882" font-family="Helvetica">200</text>
<text xml:space="preserve" x="32.1766" y="152.697" fill="black" font-size="12.8882" font-family="Helvetica">250</text>
<text xml:space="preserve" x="32.1766" y="112.898" fill="black" font-size="12.8882" font-family="Helvetica">300</text>
<text xml:space="preserve" x="32.1766" y="73.0997" fill="black" font-size="12.8882" font-family="Helvetica">350</text>
<g transform="rotate(-90,21.6177,71.4753)">
<text xml:space="preserve" x="21.6177" y="71.4753" fill="black" font-size="12.8882" font-family="Helvetica">Event</text>
</g>
<text xml:space="preserve" x="207.616" y="18.681" fill="black" font-size="17.0471" font-family="Helvetica">560mm 24 25 26 27</text></svg>
