<?xml version="1.0" standalone="no"?>
<svg width="567.429" height="384.969" viewBox="0 0 567.429 384.969" xmlns="http://www.w3.org/2000/svg" shape-rendering="crispEdges">
<title>
img/week2/Combined560mm_ch_29.svg
</title>
<desc>
Creator: ROOT Version 6.22/09
CreationDate: Thu Jun 24 12:33:06 2021</desc>
<defs>
</defs>
<rect x="0.5" y="0" width="566.929" height="384.469" fill="white"/>
<rect x="57.1929" y="38.4469" width="453.543" height="307.575" fill="white"/>
<rect x="57.1929" y="38.4469" width="453.543" height="307.575" fill="none" stroke="black"/>
<rect x="57.1929" y="38.4469" width="453.543" height="307.575" fill="white"/>
<rect x="57.1929" y="38.4469" width="453.543" height="307.575" fill="none" stroke="black"/>
<path d="M57.1929,346.022h 139.552v -13.0096h 34.8879v -15.6115h 34.8879v -262.793h 34.8879v 117.086h 34.8879v 169.124h 34.8879v 5.20382h 139.552" fill="none" stroke="#000099"/>
<g fill="#ff0000">
<polygon points=" 279.729, 50.3724 288.2, 50.3724 283.965, 58.8438"/>
</g>
<path d="M59.4606,346.022h 145.134l 4.53543, -0.0584692l 4.53543, -0.0840867l 4.53543, -0.188601l 4.53543, -0.40179l 4.53543, -0.812667l 4.53543, -1.5598l 4.53543, -2.83927l 4.53543, -4.89779l 4.53543, -7.99915l 4.53543, -12.3543l 4.53543, -18.0158l
 4.53543, -24.7538l 4.53543, -31.955l 4.53543, -38.5972l 4.53543, -43.35l 4.53543, -44.82l 4.53543, -41.9025" fill="none" stroke="#ff0000" stroke-width="2"/>
<path d="M303.731,38.4469l 0.64299, 3.4189" fill="none" stroke="#ff0000" stroke-width="2"/>
<path d="M304.374,41.8658l 4.53543, 35.6528l 4.53543, 42.6674l 4.53543, 44.8576l 4.53543, 42.7967l 4.53543, 37.6589l 4.53543, 30.8491l 4.53543, 23.6625l 4.53543, 17.0612l 4.53543, 11.595l 4.53543, 7.44233l 4.53543, 4.51822l 4.53543, 2.59743l 4.53543,
 1.41525l 4.53543, 0.731382l 4.53543, 0.358703l 4.53543, 0.167038l 4.53543, 0.0738857l 4.53543, 0.0507309h 122.457" fill="none" stroke="#ff0000" stroke-width="2"/>
<path d="M57.1929,346.022h 453.543" fill="none" stroke="black"/>
<path d="M106.162,336.795v 9.22726" fill="none" stroke="black"/>
<path d="M123.597,341.409v 4.61363" fill="none" stroke="black"/>
<path d="M141.033,341.409v 4.61363" fill="none" stroke="black"/>
<path d="M158.468,341.409v 4.61363" fill="none" stroke="black"/>
<path d="M175.904,341.409v 4.61363" fill="none" stroke="black"/>
<path d="M193.339,336.795v 9.22726" fill="none" stroke="black"/>
<path d="M210.775,341.409v 4.61363" fill="none" stroke="black"/>
<path d="M228.21,341.409v 4.61363" fill="none" stroke="black"/>
<path d="M245.646,341.409v 4.61363" fill="none" stroke="black"/>
<path d="M263.081,341.409v 4.61363" fill="none" stroke="black"/>
<path d="M280.517,336.795v 9.22726" fill="none" stroke="black"/>
<path d="M297.952,341.409v 4.61363" fill="none" stroke="black"/>
<path d="M315.388,341.409v 4.61363" fill="none" stroke="black"/>
<path d="M332.823,341.409v 4.61363" fill="none" stroke="black"/>
<path d="M350.258,341.409v 4.61363" fill="none" stroke="black"/>
<path d="M367.694,336.795v 9.22726" fill="none" stroke="black"/>
<path d="M385.129,341.409v 4.61363" fill="none" stroke="black"/>
<path d="M402.565,341.409v 4.61363" fill="none" stroke="black"/>
<path d="M420,341.409v 4.61363" fill="none" stroke="black"/>
<path d="M437.436,341.409v 4.61363" fill="none" stroke="black"/>
<path d="M454.871,336.795v 9.22726" fill="none" stroke="black"/>
<path d="M106.162,336.795v 9.22726" fill="none" stroke="black"/>
<path d="M88.7266,341.409v 4.61363" fill="none" stroke="black"/>
<path d="M71.2911,341.409v 4.61363" fill="none" stroke="black"/>
<path d="M454.871,336.795v 9.22726" fill="none" stroke="black"/>
<path d="M472.307,341.409v 4.61363" fill="none" stroke="black"/>
<path d="M489.742,341.409v 4.61363" fill="none" stroke="black"/>
<path d="M507.178,341.409v 4.61363" fill="none" stroke="black"/>
<text xml:space="preserve" x="94.9882" y="358.403" fill="black" font-size="12.8453" font-family="Helvetica">790</text>
<text xml:space="preserve" x="182.145" y="358.403" fill="black" font-size="12.8453" font-family="Helvetica">800</text>
<text xml:space="preserve" x="269.303" y="358.403" fill="black" font-size="12.8453" font-family="Helvetica">810</text>
<text xml:space="preserve" x="356.46" y="358.403" fill="black" font-size="12.8453" font-family="Helvetica">820</text>
<text xml:space="preserve" x="443.617" y="358.403" fill="black" font-size="12.8453" font-family="Helvetica">830</text>
<text xml:space="preserve" x="460.723" y="370.622" fill="black" font-size="12.8453" font-family="Helvetica">Time [ns]</text>
<path d="M57.1929,346.022v -307.575" fill="none" stroke="black"/>
<path d="M70.7992,346.022h -13.6063" fill="none" stroke="black"/>
<path d="M63.9961,333.013h -6.80315" fill="none" stroke="black"/>
<path d="M63.9961,320.003h -6.80315" fill="none" stroke="black"/>
<path d="M63.9961,306.994h -6.80315" fill="none" stroke="black"/>
<path d="M70.7992,293.984h -13.6063" fill="none" stroke="black"/>
<path d="M63.9961,280.974h -6.80315" fill="none" stroke="black"/>
<path d="M63.9961,267.965h -6.80315" fill="none" stroke="black"/>
<path d="M63.9961,254.955h -6.80315" fill="none" stroke="black"/>
<path d="M70.7992,241.946h -13.6063" fill="none" stroke="black"/>
<path d="M63.9961,228.936h -6.80315" fill="none" stroke="black"/>
<path d="M63.9961,215.927h -6.80315" fill="none" stroke="black"/>
<path d="M63.9961,202.917h -6.80315" fill="none" stroke="black"/>
<path d="M70.7992,189.908h -13.6063" fill="none" stroke="black"/>
<path d="M63.9961,176.898h -6.80315" fill="none" stroke="black"/>
<path d="M63.9961,163.888h -6.80315" fill="none" stroke="black"/>
<path d="M63.9961,150.879h -6.80315" fill="none" stroke="black"/>
<path d="M70.7992,137.869h -13.6063" fill="none" stroke="black"/>
<path d="M63.9961,124.86h -6.80315" fill="none" stroke="black"/>
<path d="M63.9961,111.85h -6.80315" fill="none" stroke="black"/>
<path d="M63.9961,98.8406h -6.80315" fill="none" stroke="black"/>
<path d="M70.7992,85.831h -13.6063" fill="none" stroke="black"/>
<path d="M70.7992,85.831h -13.6063" fill="none" stroke="black"/>
<path d="M63.9961,72.8215h -6.80315" fill="none" stroke="black"/>
<path d="M63.9961,59.8119h -6.80315" fill="none" stroke="black"/>
<path d="M63.9961,46.8024h -6.80315" fill="none" stroke="black"/>
<text xml:space="preserve" x="47.7441" y="350.258" fill="black" font-size="12.8453" font-family="Helvetica">0</text>
<text xml:space="preserve" x="41.2277" y="298.127" fill="black" font-size="12.8453" font-family="Helvetica">20</text>
<text xml:space="preserve" x="41.2277" y="246.81" fill="black" font-size="12.8453" font-family="Helvetica">40</text>
<text xml:space="preserve" x="41.2277" y="194.678" fill="black" font-size="12.8453" font-family="Helvetica">60</text>
<text xml:space="preserve" x="41.2277" y="142.547" fill="black" font-size="12.8453" font-family="Helvetica">80</text>
<text xml:space="preserve" x="33.8967" y="90.4154" fill="black" font-size="12.8453" font-family="Helvetica">100</text>
<g transform="rotate(-90,20.8638,70.0516)">
<text xml:space="preserve" x="20.8638" y="70.0516" fill="black" font-size="12.8453" font-family="Helvetica">Event</text>
</g>
<text xml:space="preserve" x="243.237" y="18.7347" fill="black" font-size="16.9898" font-family="Helvetica">560mm 29</text></svg>
