<?xml version="1.0" standalone="no"?>
<svg width="567.429" height="384.969" viewBox="0 0 567.429 384.969" xmlns="http://www.w3.org/2000/svg" shape-rendering="crispEdges">
<title>
img/week2/Combined420mm_ch_3.svg
</title>
<desc>
Creator: ROOT Version 6.22/09
CreationDate: Thu Jun 24 12:07:47 2021</desc>
<defs>
</defs>
<rect x="0.5" y="0" width="566.929" height="384.469" fill="white"/>
<rect x="57.1929" y="38.4469" width="453.543" height="307.575" fill="white"/>
<rect x="57.1929" y="38.4469" width="453.543" height="307.575" fill="none" stroke="black"/>
<rect x="57.1929" y="38.4469" width="453.543" height="307.575" fill="white"/>
<rect x="57.1929" y="38.4469" width="453.543" height="307.575" fill="none" stroke="black"/>
<path d="M57.1929,346.022h 151.181v -12.4482h 30.2362v -186.723h 30.2362v -80.9133h 30.2362v 211.619h 30.2362v 68.4651h 181.417" fill="none" stroke="#000099"/>
<g fill="#ff0000">
<polygon points=" 279.729, 61.7021 288.2, 61.7021 283.965, 70.1735"/>
</g>
<path d="M59.4606,346.022h 122.457l 4.53543, -0.0528124l 4.53543, -0.0719267l 4.53543, -0.156997l 4.53543, -0.326757l 4.53543, -0.648236l 4.53543, -1.22526l 4.53543, -2.20542l 4.53543, -3.77781l 4.53543, -6.15374l 4.53543, -9.52274l 4.53543,
 -13.9818l 4.53543, -19.4457l 4.53543, -25.5613l 4.53543, -31.6595l 4.53543, -36.7826l 4.53543, -39.8135l 4.53543, -39.6997l 4.53543, -35.7285l 4.53543, -27.7757l 3.58272, -12.9853" fill="none" stroke="#ff0000" stroke-width="2"/>
<path d="M279.855,38.4469l 1.84227, 4.40742" fill="none" stroke="#ff0000" stroke-width="2"/>
<path d="M281.697,42.8543l 4.53543, 23.2798l 4.53543, 32.7961l 4.53543, 38.496l 4.53543, 40.2021l 4.53543, 38.401l 4.53543, 34.0338l 4.53543, 28.2221l 4.53543, 22.0136l 4.53543, 16.2097l 4.53543, 11.2965l 4.53543, 7.46463l 4.53543, 4.6836l 4.53543,
 2.79339l 4.53543, 1.58502l 4.53543, 0.856234l 4.53543, 0.440602l 4.53543, 0.216073l 4.53543, 0.101024l 4.53543, 0.045046l 4.53543, 0.0316519h 126.992" fill="none" stroke="#ff0000" stroke-width="2"/>
<path d="M499.398,346.022h 9.07087" fill="none" stroke="#ff0000" stroke-width="2"/>
<path d="M57.1929,346.022h 453.543" fill="none" stroke="black"/>
<path d="M129.869,336.795v 9.22726" fill="none" stroke="black"/>
<path d="M144.98,341.409v 4.61363" fill="none" stroke="black"/>
<path d="M160.09,341.409v 4.61363" fill="none" stroke="black"/>
<path d="M175.201,341.409v 4.61363" fill="none" stroke="black"/>
<path d="M190.312,341.409v 4.61363" fill="none" stroke="black"/>
<path d="M205.423,336.795v 9.22726" fill="none" stroke="black"/>
<path d="M220.533,341.409v 4.61363" fill="none" stroke="black"/>
<path d="M235.644,341.409v 4.61363" fill="none" stroke="black"/>
<path d="M250.755,341.409v 4.61363" fill="none" stroke="black"/>
<path d="M265.866,341.409v 4.61363" fill="none" stroke="black"/>
<path d="M280.976,336.795v 9.22726" fill="none" stroke="black"/>
<path d="M296.087,341.409v 4.61363" fill="none" stroke="black"/>
<path d="M311.198,341.409v 4.61363" fill="none" stroke="black"/>
<path d="M326.309,341.409v 4.61363" fill="none" stroke="black"/>
<path d="M341.419,341.409v 4.61363" fill="none" stroke="black"/>
<path d="M356.53,336.795v 9.22726" fill="none" stroke="black"/>
<path d="M371.641,341.409v 4.61363" fill="none" stroke="black"/>
<path d="M386.751,341.409v 4.61363" fill="none" stroke="black"/>
<path d="M401.862,341.409v 4.61363" fill="none" stroke="black"/>
<path d="M416.973,341.409v 4.61363" fill="none" stroke="black"/>
<path d="M432.084,336.795v 9.22726" fill="none" stroke="black"/>
<path d="M447.194,341.409v 4.61363" fill="none" stroke="black"/>
<path d="M462.305,341.409v 4.61363" fill="none" stroke="black"/>
<path d="M477.416,341.409v 4.61363" fill="none" stroke="black"/>
<path d="M492.527,341.409v 4.61363" fill="none" stroke="black"/>
<path d="M507.637,336.795v 9.22726" fill="none" stroke="black"/>
<path d="M129.869,336.795v 9.22726" fill="none" stroke="black"/>
<path d="M114.758,341.409v 4.61363" fill="none" stroke="black"/>
<path d="M99.6476,341.409v 4.61363" fill="none" stroke="black"/>
<path d="M84.5368,341.409v 4.61363" fill="none" stroke="black"/>
<path d="M69.4261,341.409v 4.61363" fill="none" stroke="black"/>
<path d="M507.637,336.795v 9.22726" fill="none" stroke="black"/>
<text xml:space="preserve" x="118.61" y="358.403" fill="black" font-size="12.8453" font-family="Helvetica">790</text>
<text xml:space="preserve" x="194.364" y="358.403" fill="black" font-size="12.8453" font-family="Helvetica">800</text>
<text xml:space="preserve" x="270.117" y="358.403" fill="black" font-size="12.8453" font-family="Helvetica">810</text>
<text xml:space="preserve" x="345.871" y="358.403" fill="black" font-size="12.8453" font-family="Helvetica">820</text>
<text xml:space="preserve" x="420.81" y="358.403" fill="black" font-size="12.8453" font-family="Helvetica">830</text>
<text xml:space="preserve" x="496.563" y="358.403" fill="black" font-size="12.8453" font-family="Helvetica">840</text>
<text xml:space="preserve" x="460.723" y="370.622" fill="black" font-size="12.8453" font-family="Helvetica">Time [ps]</text>
<path d="M57.1929,346.022v -307.575" fill="none" stroke="black"/>
<path d="M70.7992,346.022h -13.6063" fill="none" stroke="black"/>
<path d="M63.9961,339.798h -6.80315" fill="none" stroke="black"/>
<path d="M63.9961,333.574h -6.80315" fill="none" stroke="black"/>
<path d="M63.9961,327.35h -6.80315" fill="none" stroke="black"/>
<path d="M63.9961,321.126h -6.80315" fill="none" stroke="black"/>
<path d="M70.7992,314.902h -13.6063" fill="none" stroke="black"/>
<path d="M63.9961,308.678h -6.80315" fill="none" stroke="black"/>
<path d="M63.9961,302.454h -6.80315" fill="none" stroke="black"/>
<path d="M63.9961,296.229h -6.80315" fill="none" stroke="black"/>
<path d="M63.9961,290.005h -6.80315" fill="none" stroke="black"/>
<path d="M70.7992,283.781h -13.6063" fill="none" stroke="black"/>
<path d="M63.9961,277.557h -6.80315" fill="none" stroke="black"/>
<path d="M63.9961,271.333h -6.80315" fill="none" stroke="black"/>
<path d="M63.9961,265.109h -6.80315" fill="none" stroke="black"/>
<path d="M63.9961,258.885h -6.80315" fill="none" stroke="black"/>
<path d="M70.7992,252.661h -13.6063" fill="none" stroke="black"/>
<path d="M63.9961,246.437h -6.80315" fill="none" stroke="black"/>
<path d="M63.9961,240.213h -6.80315" fill="none" stroke="black"/>
<path d="M63.9961,233.988h -6.80315" fill="none" stroke="black"/>
<path d="M63.9961,227.764h -6.80315" fill="none" stroke="black"/>
<path d="M70.7992,221.54h -13.6063" fill="none" stroke="black"/>
<path d="M63.9961,215.316h -6.80315" fill="none" stroke="black"/>
<path d="M63.9961,209.092h -6.80315" fill="none" stroke="black"/>
<path d="M63.9961,202.868h -6.80315" fill="none" stroke="black"/>
<path d="M63.9961,196.644h -6.80315" fill="none" stroke="black"/>
<path d="M70.7992,190.42h -13.6063" fill="none" stroke="black"/>
<path d="M63.9961,184.196h -6.80315" fill="none" stroke="black"/>
<path d="M63.9961,177.972h -6.80315" fill="none" stroke="black"/>
<path d="M63.9961,171.747h -6.80315" fill="none" stroke="black"/>
<path d="M63.9961,165.523h -6.80315" fill="none" stroke="black"/>
<path d="M70.7992,159.299h -13.6063" fill="none" stroke="black"/>
<path d="M63.9961,153.075h -6.80315" fill="none" stroke="black"/>
<path d="M63.9961,146.851h -6.80315" fill="none" stroke="black"/>
<path d="M63.9961,140.627h -6.80315" fill="none" stroke="black"/>
<path d="M63.9961,134.403h -6.80315" fill="none" stroke="black"/>
<path d="M70.7992,128.179h -13.6063" fill="none" stroke="black"/>
<path d="M63.9961,121.955h -6.80315" fill="none" stroke="black"/>
<path d="M63.9961,115.731h -6.80315" fill="none" stroke="black"/>
<path d="M63.9961,109.507h -6.80315" fill="none" stroke="black"/>
<path d="M63.9961,103.282h -6.80315" fill="none" stroke="black"/>
<path d="M70.7992,97.0583h -13.6063" fill="none" stroke="black"/>
<path d="M63.9961,90.8342h -6.80315" fill="none" stroke="black"/>
<path d="M63.9961,84.6101h -6.80315" fill="none" stroke="black"/>
<path d="M63.9961,78.386h -6.80315" fill="none" stroke="black"/>
<path d="M63.9961,72.1619h -6.80315" fill="none" stroke="black"/>
<path d="M70.7992,65.9378h -13.6063" fill="none" stroke="black"/>
<path d="M70.7992,65.9378h -13.6063" fill="none" stroke="black"/>
<path d="M63.9961,59.7137h -6.80315" fill="none" stroke="black"/>
<path d="M63.9961,53.4896h -6.80315" fill="none" stroke="black"/>
<path d="M63.9961,47.2655h -6.80315" fill="none" stroke="black"/>
<path d="M63.9961,41.0414h -6.80315" fill="none" stroke="black"/>
<text xml:space="preserve" x="47.7441" y="350.258" fill="black" font-size="12.8453" font-family="Helvetica">0</text>
<text xml:space="preserve" x="47.7441" y="319.305" fill="black" font-size="12.8453" font-family="Helvetica">5</text>
<text xml:space="preserve" x="41.2277" y="288.352" fill="black" font-size="12.8453" font-family="Helvetica">10</text>
<text xml:space="preserve" x="40.4131" y="257.399" fill="black" font-size="12.8453" font-family="Helvetica">15</text>
<text xml:space="preserve" x="41.2277" y="225.631" fill="black" font-size="12.8453" font-family="Helvetica">20</text>
<text xml:space="preserve" x="40.4131" y="194.678" fill="black" font-size="12.8453" font-family="Helvetica">25</text>
<text xml:space="preserve" x="41.2277" y="163.725" fill="black" font-size="12.8453" font-family="Helvetica">30</text>
<text xml:space="preserve" x="40.4131" y="132.772" fill="black" font-size="12.8453" font-family="Helvetica">35</text>
<text xml:space="preserve" x="41.2277" y="101.819" fill="black" font-size="12.8453" font-family="Helvetica">40</text>
<text xml:space="preserve" x="40.4131" y="70.0516" fill="black" font-size="12.8453" font-family="Helvetica">45</text>
<g transform="rotate(-90,28.1948,70.0516)">
<text xml:space="preserve" x="28.1948" y="70.0516" fill="black" font-size="12.8453" font-family="Helvetica">Event</text>
</g>
<text xml:space="preserve" x="248.124" y="18.7347" fill="black" font-size="16.9898" font-family="Helvetica">420mm 3</text></svg>
