<?xml version="1.0" standalone="no"?>
<svg width="567.429" height="386.304" viewBox="0 0 567.429 386.304" xmlns="http://www.w3.org/2000/svg" shape-rendering="crispEdges">
<title>
img/week2/Combined420mm_ch_24.svg
</title>
<desc>
Creator: ROOT Version 6.22/08
CreationDate: Mon Jun 21 21:12:26 2021</desc>
<defs>
</defs>
<rect x="0.5" y="0" width="566.929" height="385.804" fill="white"/>
<rect x="57.1929" y="38.5804" width="453.543" height="308.643" fill="white"/>
<rect x="57.1929" y="38.5804" width="453.543" height="308.643" fill="none" stroke="black"/>
<rect x="57.1929" y="38.5804" width="453.543" height="308.643" fill="white"/>
<rect x="57.1929" y="38.5804" width="453.543" height="308.643" fill="none" stroke="black"/>
<path d="M57.1929,347.224h 69.7759v -2.57847h 34.8879v 2.57847h 34.8879v -5.15695h 34.8879v -108.296h 34.8879v -180.493h 34.8879v 237.22h 34.8879v 56.7264h 174.44" fill="none" stroke="#000099"/>
<g fill="#ff0000">
<polygon points=" 279.741, 49.0542 288.188, 49.0542 283.965, 57.5013"/>
</g>
<path d="M59.4606,347.224h 122.457l 4.53543, -0.0393963l 4.53543, -0.0530312l 4.53543, -0.115335l 4.53543, -0.239699l 4.53543, -0.475886l 4.53543, -0.902211l 4.53543, -1.63262l 4.53543, -2.81836l 4.53543, -4.63823l 4.53543, -7.27092l 4.53543,
 -10.8456l 4.53543, -15.3729l 4.53543, -20.6691l 4.53543, -26.2965l 4.53543, -31.5506l 4.53543, -35.5201l 4.53543, -37.232l 4.53543, -35.8614l 4.53543, -30.9608l 4.53543, -22.6384l 4.53543, -11.6205l 4.53543, 0.839621" fill="none" stroke="#ff0000"
 stroke-width="2"/>
<path d="M281.697,51.3099l 4.53543, 13.1942l 4.53543, 23.9175l 4.53543, 31.8152l 4.53543, 36.2411l 4.53543, 37.1673l 4.53543, 35.1034l 4.53543, 30.9072l 4.53543, 25.5547l 4.53543, 19.9362l 4.53543, 14.7226l 4.53543, 10.3159l 4.53543, 6.86999l
 4.53543, 4.35409l 4.53543, 2.6289l 4.53543, 1.51334l 4.53543, 0.831125l 4.53543, 0.43571l 4.53543, 0.218132l 4.53543, 0.104327l 4.53543, 0.0476826l 4.53543, 0.0350755h 126.992" fill="none" stroke="#ff0000" stroke-width="2"/>
<path d="M503.933,347.224h 4.53543" fill="none" stroke="#ff0000" stroke-width="2"/>
<rect x="351.996" y="25.0773" width="204.094" height="108.025" fill="white"/>
<path d="M351.996,133.102h 204.094" fill="none" stroke="black"/>
<path d="M556.091,133.102v -108.025" fill="none" stroke="black"/>
<path d="M556.091,25.0773h -204.094" fill="none" stroke="black"/>
<path d="M351.996,25.0773v 108.025" fill="none" stroke="black"/>
<text xml:space="preserve" x="361.938" y="38.9865" fill="black" font-size="15.6962" font-family="Helvetica">Entries </text>
<text xml:space="preserve" x="515.447" y="38.9865" fill="black" font-size="15.6962" font-family="Helvetica"> 183</text>
<text xml:space="preserve" x="375.745" y="57.6676" fill="black" font-size="15.6962" font-family="Helvetica"> / ndf </text>
<text xml:space="preserve" x="370.06" y="52.7943" fill="black" font-size="10.6308" font-family="Helvetica">2</text>
<text xml:space="preserve" x="361.938" y="57.6676" fill="black" font-size="15.6962" font-family="Times">&#0967;</text>
<text xml:space="preserve" x="481.334" y="57.6676" fill="black" font-size="15.6962" font-family="Helvetica"> 1.209 / 2</text>
<text xml:space="preserve" x="361.938" y="75.5364" fill="black" font-size="15.6962" font-family="Helvetica">Prob  </text>
<text xml:space="preserve" x="494.329" y="75.5364" fill="black" font-size="15.6962" font-family="Helvetica"> 0.5464</text>
<text xml:space="preserve" x="361.938" y="94.2175" fill="black" font-size="15.6962" font-family="Helvetica">Const    </text>
<text xml:space="preserve" x="511.386" y="93.4052" fill="black" font-size="15.6962" font-family="Helvetica"> 10.8</text>
<text xml:space="preserve" x="502.452" y="93.4052" fill="black" font-size="15.6962" font-family="Times">&#0177;</text>
<text xml:space="preserve" x="454.531" y="93.4052" fill="black" font-size="15.6962" font-family="Helvetica"> 115.6 </text>
<text xml:space="preserve" x="361.938" y="111.274" fill="black" font-size="15.6962" font-family="Helvetica">Mean     </text>
<text xml:space="preserve" x="520.32" y="111.274" fill="black" font-size="15.6962" font-family="Helvetica"> 0.2</text>
<text xml:space="preserve" x="511.386" y="111.274" fill="black" font-size="15.6962" font-family="Times">&#0177;</text>
<text xml:space="preserve" x="463.465" y="111.274" fill="black" font-size="15.6962" font-family="Helvetica"> 809.8 </text>
<text xml:space="preserve" x="361.938" y="128.331" fill="black" font-size="15.6962" font-family="Helvetica">Sigma    </text>
<text xml:space="preserve" x="502.452" y="129.143" fill="black" font-size="15.6962" font-family="Helvetica"> 0.146</text>
<text xml:space="preserve" x="493.517" y="129.143" fill="black" font-size="15.6962" font-family="Times">&#0177;</text>
<text xml:space="preserve" x="445.596" y="129.143" fill="black" font-size="15.6962" font-family="Helvetica"> 2.515 </text>
<path d="M57.1929,347.224h 453.543" fill="none" stroke="black"/>
<path d="M106.162,337.964v 9.2593" fill="none" stroke="black"/>
<path d="M123.597,342.594v 4.62965" fill="none" stroke="black"/>
<path d="M141.033,342.594v 4.62965" fill="none" stroke="black"/>
<path d="M158.468,342.594v 4.62965" fill="none" stroke="black"/>
<path d="M175.904,342.594v 4.62965" fill="none" stroke="black"/>
<path d="M193.339,337.964v 9.2593" fill="none" stroke="black"/>
<path d="M210.775,342.594v 4.62965" fill="none" stroke="black"/>
<path d="M228.21,342.594v 4.62965" fill="none" stroke="black"/>
<path d="M245.646,342.594v 4.62965" fill="none" stroke="black"/>
<path d="M263.081,342.594v 4.62965" fill="none" stroke="black"/>
<path d="M280.517,337.964v 9.2593" fill="none" stroke="black"/>
<path d="M297.952,342.594v 4.62965" fill="none" stroke="black"/>
<path d="M315.388,342.594v 4.62965" fill="none" stroke="black"/>
<path d="M332.823,342.594v 4.62965" fill="none" stroke="black"/>
<path d="M350.258,342.594v 4.62965" fill="none" stroke="black"/>
<path d="M367.694,337.964v 9.2593" fill="none" stroke="black"/>
<path d="M385.129,342.594v 4.62965" fill="none" stroke="black"/>
<path d="M402.565,342.594v 4.62965" fill="none" stroke="black"/>
<path d="M420,342.594v 4.62965" fill="none" stroke="black"/>
<path d="M437.436,342.594v 4.62965" fill="none" stroke="black"/>
<path d="M454.871,337.964v 9.2593" fill="none" stroke="black"/>
<path d="M106.162,337.964v 9.2593" fill="none" stroke="black"/>
<path d="M88.7266,342.594v 4.62965" fill="none" stroke="black"/>
<path d="M71.2911,342.594v 4.62965" fill="none" stroke="black"/>
<path d="M454.871,337.964v 9.2593" fill="none" stroke="black"/>
<path d="M472.307,342.594v 4.62965" fill="none" stroke="black"/>
<path d="M489.742,342.594v 4.62965" fill="none" stroke="black"/>
<path d="M507.178,342.594v 4.62965" fill="none" stroke="black"/>
<text xml:space="preserve" x="94.7174" y="359.813" fill="black" font-size="12.8882" font-family="Helvetica">790</text>
<text xml:space="preserve" x="181.625" y="359.813" fill="black" font-size="12.8882" font-family="Helvetica">800</text>
<text xml:space="preserve" x="268.532" y="359.813" fill="black" font-size="12.8882" font-family="Helvetica">810</text>
<text xml:space="preserve" x="356.252" y="359.813" fill="black" font-size="12.8882" font-family="Helvetica">820</text>
<text xml:space="preserve" x="443.16" y="359.813" fill="black" font-size="12.8882" font-family="Helvetica">830</text>
<text xml:space="preserve" x="481.334" y="373.621" fill="black" font-size="12.8882" font-family="Helvetica">Time</text>
<path d="M57.1929,347.224v -308.643" fill="none" stroke="black"/>
<path d="M70.7992,347.224h -13.6063" fill="none" stroke="black"/>
<path d="M63.9961,334.331h -6.80315" fill="none" stroke="black"/>
<path d="M63.9961,321.439h -6.80315" fill="none" stroke="black"/>
<path d="M63.9961,308.547h -6.80315" fill="none" stroke="black"/>
<path d="M70.7992,295.654h -13.6063" fill="none" stroke="black"/>
<path d="M63.9961,282.762h -6.80315" fill="none" stroke="black"/>
<path d="M63.9961,269.87h -6.80315" fill="none" stroke="black"/>
<path d="M63.9961,256.977h -6.80315" fill="none" stroke="black"/>
<path d="M70.7992,244.085h -13.6063" fill="none" stroke="black"/>
<path d="M63.9961,231.192h -6.80315" fill="none" stroke="black"/>
<path d="M63.9961,218.3h -6.80315" fill="none" stroke="black"/>
<path d="M63.9961,205.408h -6.80315" fill="none" stroke="black"/>
<path d="M70.7992,192.515h -13.6063" fill="none" stroke="black"/>
<path d="M63.9961,179.623h -6.80315" fill="none" stroke="black"/>
<path d="M63.9961,166.731h -6.80315" fill="none" stroke="black"/>
<path d="M63.9961,153.838h -6.80315" fill="none" stroke="black"/>
<path d="M70.7992,140.946h -13.6063" fill="none" stroke="black"/>
<path d="M63.9961,128.053h -6.80315" fill="none" stroke="black"/>
<path d="M63.9961,115.161h -6.80315" fill="none" stroke="black"/>
<path d="M63.9961,102.269h -6.80315" fill="none" stroke="black"/>
<path d="M70.7992,89.3764h -13.6063" fill="none" stroke="black"/>
<path d="M70.7992,89.3764h -13.6063" fill="none" stroke="black"/>
<path d="M63.9961,76.484h -6.80315" fill="none" stroke="black"/>
<path d="M63.9961,63.5916h -6.80315" fill="none" stroke="black"/>
<path d="M63.9961,50.6993h -6.80315" fill="none" stroke="black"/>
<text xml:space="preserve" x="46.7965" y="351.691" fill="black" font-size="12.8882" font-family="Helvetica">0</text>
<text xml:space="preserve" x="39.4865" y="300.521" fill="black" font-size="12.8882" font-family="Helvetica">20</text>
<text xml:space="preserve" x="39.4865" y="248.539" fill="black" font-size="12.8882" font-family="Helvetica">40</text>
<text xml:space="preserve" x="39.4865" y="197.369" fill="black" font-size="12.8882" font-family="Helvetica">60</text>
<text xml:space="preserve" x="39.4865" y="145.387" fill="black" font-size="12.8882" font-family="Helvetica">80</text>
<text xml:space="preserve" x="32.1766" y="94.2175" fill="black" font-size="12.8882" font-family="Helvetica">100</text>
<g transform="rotate(-90,21.6177,71.4753)">
<text xml:space="preserve" x="21.6177" y="71.4753" fill="black" font-size="12.8882" font-family="Helvetica">Event</text>
</g>
<rect x="351.996" y="25.0773" width="204.094" height="108.025" fill="white"/>
<path d="M351.996,133.102h 204.094" fill="none" stroke="black"/>
<path d="M556.091,133.102v -108.025" fill="none" stroke="black"/>
<path d="M556.091,25.0773h -204.094" fill="none" stroke="black"/>
<path d="M351.996,25.0773v 108.025" fill="none" stroke="black"/>
<text xml:space="preserve" x="361.938" y="38.9865" fill="black" font-size="15.6962" font-family="Helvetica">Entries </text>
<text xml:space="preserve" x="515.447" y="38.9865" fill="black" font-size="15.6962" font-family="Helvetica"> 183</text>
<text xml:space="preserve" x="375.745" y="57.6676" fill="black" font-size="15.6962" font-family="Helvetica"> / ndf </text>
<text xml:space="preserve" x="370.06" y="52.7943" fill="black" font-size="10.6308" font-family="Helvetica">2</text>
<text xml:space="preserve" x="361.938" y="57.6676" fill="black" font-size="15.6962" font-family="Times">&#0967;</text>
<text xml:space="preserve" x="481.334" y="57.6676" fill="black" font-size="15.6962" font-family="Helvetica"> 1.209 / 2</text>
<text xml:space="preserve" x="361.938" y="75.5364" fill="black" font-size="15.6962" font-family="Helvetica">Prob  </text>
<text xml:space="preserve" x="494.329" y="75.5364" fill="black" font-size="15.6962" font-family="Helvetica"> 0.5464</text>
<text xml:space="preserve" x="361.938" y="94.2175" fill="black" font-size="15.6962" font-family="Helvetica">Const    </text>
<text xml:space="preserve" x="511.386" y="93.4052" fill="black" font-size="15.6962" font-family="Helvetica"> 10.8</text>
<text xml:space="preserve" x="502.452" y="93.4052" fill="black" font-size="15.6962" font-family="Times">&#0177;</text>
<text xml:space="preserve" x="454.531" y="93.4052" fill="black" font-size="15.6962" font-family="Helvetica"> 115.6 </text>
<text xml:space="preserve" x="361.938" y="111.274" fill="black" font-size="15.6962" font-family="Helvetica">Mean     </text>
<text xml:space="preserve" x="520.32" y="111.274" fill="black" font-size="15.6962" font-family="Helvetica"> 0.2</text>
<text xml:space="preserve" x="511.386" y="111.274" fill="black" font-size="15.6962" font-family="Times">&#0177;</text>
<text xml:space="preserve" x="463.465" y="111.274" fill="black" font-size="15.6962" font-family="Helvetica"> 809.8 </text>
<text xml:space="preserve" x="361.938" y="128.331" fill="black" font-size="15.6962" font-family="Helvetica">Sigma    </text>
<text xml:space="preserve" x="502.452" y="129.143" fill="black" font-size="15.6962" font-family="Helvetica"> 0.146</text>
<text xml:space="preserve" x="493.517" y="129.143" fill="black" font-size="15.6962" font-family="Times">&#0177;</text>
<text xml:space="preserve" x="445.596" y="129.143" fill="black" font-size="15.6962" font-family="Helvetica"> 2.515 </text>
<text xml:space="preserve" x="243.354" y="18.681" fill="black" font-size="17.0471" font-family="Helvetica">420mm 24</text></svg>
