<?xml version="1.0" standalone="no"?>
<svg width="567.429" height="384.969" viewBox="0 0 567.429 384.969" xmlns="http://www.w3.org/2000/svg" shape-rendering="crispEdges">
<title>
img/week2/Combined280mm_ch_50.svg
</title>
<desc>
Creator: ROOT Version 6.22/09
CreationDate: Thu Jun 24 12:33:05 2021</desc>
<defs>
</defs>
<rect x="0.5" y="0" width="566.929" height="384.469" fill="white"/>
<rect x="57.1929" y="38.4469" width="453.543" height="307.575" fill="white"/>
<rect x="57.1929" y="38.4469" width="453.543" height="307.575" fill="none" stroke="black"/>
<rect x="57.1929" y="38.4469" width="453.543" height="307.575" fill="white"/>
<rect x="57.1929" y="38.4469" width="453.543" height="307.575" fill="none" stroke="black"/>
<path d="M57.1929,346.022h 32.396v -3.88215h 32.396v 3.88215h 64.7919v -7.7643h 32.396v -46.5858h 32.396v -217.4h 32.396v 54.3501h 32.396v 209.636h 32.396v 7.7643h 161.98" fill="none" stroke="#000099"/>
<g fill="#ff0000">
<polygon points=" 263.531, 70.036 272.002, 70.036 267.767, 78.5073"/>
</g>
<path d="M59.4606,346.022h 122.457l 4.53543, -0.0414825l 4.53543, -0.0574548l 4.53543, -0.126808l 4.53543, -0.267023l 4.53543, -0.53627l 4.53543, -1.02678l 4.53543, -1.87336l 4.53543, -3.2551l 4.53543, -5.38265l 4.53543, -8.46308l 4.53543, -12.6378l
 4.53543, -17.897l 4.53543, -23.9891l 4.53543, -30.3531l 4.53543, -36.1155l 4.53543, -40.1798l 4.53543, -41.42l 4.53543, -38.945l 4.53543, -32.3706l 2.60433, -12.6373" fill="none" stroke="#ff0000" stroke-width="2"/>
<path d="M284.785,38.4469l 1.44719, 6.0425" fill="none" stroke="#ff0000" stroke-width="2"/>
<path d="M286.232,44.4894l 4.53543, 30.1099l 4.53543, 37.6884l 4.53543, 41.1756l 4.53543, 40.7949l 4.53543, 37.3344l 4.53543, 31.8881l 4.53543, 25.5814l 4.53543, 19.3561l 4.53543, 13.8541l 4.53543, 9.39983l 4.53543, 6.05517l 4.53543, 3.70785l
 4.53543, 2.16031l 4.53543, 1.1985l 4.53543, 0.633512l 4.53543, 0.319213l 4.53543, 0.153391l 4.53543, 0.0703174l 4.53543, 0.0517492h 131.528" fill="none" stroke="#ff0000" stroke-width="2"/>
<path d="M503.933,346.022h 4.53543" fill="none" stroke="#ff0000" stroke-width="2"/>
<path d="M57.1929,346.022h 453.543" fill="none" stroke="black"/>
<path d="M135.06,336.795v 9.22726" fill="none" stroke="black"/>
<path d="M151.25,341.409v 4.61363" fill="none" stroke="black"/>
<path d="M167.44,341.409v 4.61363" fill="none" stroke="black"/>
<path d="M183.63,341.409v 4.61363" fill="none" stroke="black"/>
<path d="M199.82,341.409v 4.61363" fill="none" stroke="black"/>
<path d="M216.011,336.795v 9.22726" fill="none" stroke="black"/>
<path d="M232.201,341.409v 4.61363" fill="none" stroke="black"/>
<path d="M248.391,341.409v 4.61363" fill="none" stroke="black"/>
<path d="M264.581,341.409v 4.61363" fill="none" stroke="black"/>
<path d="M280.771,341.409v 4.61363" fill="none" stroke="black"/>
<path d="M296.961,336.795v 9.22726" fill="none" stroke="black"/>
<path d="M313.151,341.409v 4.61363" fill="none" stroke="black"/>
<path d="M329.341,341.409v 4.61363" fill="none" stroke="black"/>
<path d="M345.531,341.409v 4.61363" fill="none" stroke="black"/>
<path d="M361.721,341.409v 4.61363" fill="none" stroke="black"/>
<path d="M377.911,336.795v 9.22726" fill="none" stroke="black"/>
<path d="M394.101,341.409v 4.61363" fill="none" stroke="black"/>
<path d="M410.291,341.409v 4.61363" fill="none" stroke="black"/>
<path d="M426.481,341.409v 4.61363" fill="none" stroke="black"/>
<path d="M442.672,341.409v 4.61363" fill="none" stroke="black"/>
<path d="M458.862,336.795v 9.22726" fill="none" stroke="black"/>
<path d="M135.06,336.795v 9.22726" fill="none" stroke="black"/>
<path d="M118.87,341.409v 4.61363" fill="none" stroke="black"/>
<path d="M102.68,341.409v 4.61363" fill="none" stroke="black"/>
<path d="M86.49,341.409v 4.61363" fill="none" stroke="black"/>
<path d="M70.2999,341.409v 4.61363" fill="none" stroke="black"/>
<path d="M458.862,336.795v 9.22726" fill="none" stroke="black"/>
<path d="M475.052,341.409v 4.61363" fill="none" stroke="black"/>
<path d="M491.242,341.409v 4.61363" fill="none" stroke="black"/>
<path d="M507.432,341.409v 4.61363" fill="none" stroke="black"/>
<text xml:space="preserve" x="124.312" y="358.403" fill="black" font-size="12.8453" font-family="Helvetica">790</text>
<text xml:space="preserve" x="204.953" y="358.403" fill="black" font-size="12.8453" font-family="Helvetica">800</text>
<text xml:space="preserve" x="285.594" y="358.403" fill="black" font-size="12.8453" font-family="Helvetica">810</text>
<text xml:space="preserve" x="367.049" y="358.403" fill="black" font-size="12.8453" font-family="Helvetica">820</text>
<text xml:space="preserve" x="447.69" y="358.403" fill="black" font-size="12.8453" font-family="Helvetica">830</text>
<text xml:space="preserve" x="460.723" y="370.622" fill="black" font-size="12.8453" font-family="Helvetica">Time [ns]</text>
<path d="M57.1929,346.022v -307.575" fill="none" stroke="black"/>
<path d="M70.7992,346.022h -13.6063" fill="none" stroke="black"/>
<path d="M63.9961,338.258h -6.80315" fill="none" stroke="black"/>
<path d="M63.9961,330.494h -6.80315" fill="none" stroke="black"/>
<path d="M63.9961,322.729h -6.80315" fill="none" stroke="black"/>
<path d="M63.9961,314.965h -6.80315" fill="none" stroke="black"/>
<path d="M70.7992,307.201h -13.6063" fill="none" stroke="black"/>
<path d="M63.9961,299.436h -6.80315" fill="none" stroke="black"/>
<path d="M63.9961,291.672h -6.80315" fill="none" stroke="black"/>
<path d="M63.9961,283.908h -6.80315" fill="none" stroke="black"/>
<path d="M63.9961,276.144h -6.80315" fill="none" stroke="black"/>
<path d="M70.7992,268.379h -13.6063" fill="none" stroke="black"/>
<path d="M63.9961,260.615h -6.80315" fill="none" stroke="black"/>
<path d="M63.9961,252.851h -6.80315" fill="none" stroke="black"/>
<path d="M63.9961,245.086h -6.80315" fill="none" stroke="black"/>
<path d="M63.9961,237.322h -6.80315" fill="none" stroke="black"/>
<path d="M70.7992,229.558h -13.6063" fill="none" stroke="black"/>
<path d="M63.9961,221.793h -6.80315" fill="none" stroke="black"/>
<path d="M63.9961,214.029h -6.80315" fill="none" stroke="black"/>
<path d="M63.9961,206.265h -6.80315" fill="none" stroke="black"/>
<path d="M63.9961,198.5h -6.80315" fill="none" stroke="black"/>
<path d="M70.7992,190.736h -13.6063" fill="none" stroke="black"/>
<path d="M63.9961,182.972h -6.80315" fill="none" stroke="black"/>
<path d="M63.9961,175.208h -6.80315" fill="none" stroke="black"/>
<path d="M63.9961,167.443h -6.80315" fill="none" stroke="black"/>
<path d="M63.9961,159.679h -6.80315" fill="none" stroke="black"/>
<path d="M70.7992,151.915h -13.6063" fill="none" stroke="black"/>
<path d="M63.9961,144.15h -6.80315" fill="none" stroke="black"/>
<path d="M63.9961,136.386h -6.80315" fill="none" stroke="black"/>
<path d="M63.9961,128.622h -6.80315" fill="none" stroke="black"/>
<path d="M63.9961,120.857h -6.80315" fill="none" stroke="black"/>
<path d="M70.7992,113.093h -13.6063" fill="none" stroke="black"/>
<path d="M63.9961,105.329h -6.80315" fill="none" stroke="black"/>
<path d="M63.9961,97.5646h -6.80315" fill="none" stroke="black"/>
<path d="M63.9961,89.8002h -6.80315" fill="none" stroke="black"/>
<path d="M63.9961,82.0359h -6.80315" fill="none" stroke="black"/>
<path d="M70.7992,74.2716h -13.6063" fill="none" stroke="black"/>
<path d="M70.7992,74.2716h -13.6063" fill="none" stroke="black"/>
<path d="M63.9961,66.5073h -6.80315" fill="none" stroke="black"/>
<path d="M63.9961,58.743h -6.80315" fill="none" stroke="black"/>
<path d="M63.9961,50.9787h -6.80315" fill="none" stroke="black"/>
<path d="M63.9961,43.2144h -6.80315" fill="none" stroke="black"/>
<text xml:space="preserve" x="47.7441" y="350.258" fill="black" font-size="12.8453" font-family="Helvetica">0</text>
<text xml:space="preserve" x="41.2277" y="311.974" fill="black" font-size="12.8453" font-family="Helvetica">10</text>
<text xml:space="preserve" x="41.2277" y="272.875" fill="black" font-size="12.8453" font-family="Helvetica">20</text>
<text xml:space="preserve" x="41.2277" y="233.777" fill="black" font-size="12.8453" font-family="Helvetica">30</text>
<text xml:space="preserve" x="41.2277" y="195.493" fill="black" font-size="12.8453" font-family="Helvetica">40</text>
<text xml:space="preserve" x="41.2277" y="156.394" fill="black" font-size="12.8453" font-family="Helvetica">50</text>
<text xml:space="preserve" x="41.2277" y="117.296" fill="black" font-size="12.8453" font-family="Helvetica">60</text>
<text xml:space="preserve" x="41.2277" y="79.0117" fill="black" font-size="12.8453" font-family="Helvetica">70</text>
<g transform="rotate(-90,29.0094,70.0516)">
<text xml:space="preserve" x="29.0094" y="70.0516" fill="black" font-size="12.8453" font-family="Helvetica">Event</text>
</g>
<text xml:space="preserve" x="243.237" y="18.7347" fill="black" font-size="16.9898" font-family="Helvetica">280mm 50</text></svg>
