<?xml version="1.0" standalone="no"?>
<svg width="567.429" height="384.969" viewBox="0 0 567.429 384.969" xmlns="http://www.w3.org/2000/svg" shape-rendering="crispEdges">
<title>
img/week2/Combined420mm_ch_20.svg
</title>
<desc>
Creator: ROOT Version 6.22/09
CreationDate: Thu Jun 24 12:33:05 2021</desc>
<defs>
</defs>
<rect x="0.5" y="0" width="566.929" height="384.469" fill="white"/>
<rect x="57.1929" y="38.4469" width="453.543" height="307.575" fill="white"/>
<rect x="57.1929" y="38.4469" width="453.543" height="307.575" fill="none" stroke="black"/>
<rect x="57.1929" y="38.4469" width="453.543" height="307.575" fill="white"/>
<rect x="57.1929" y="38.4469" width="453.543" height="307.575" fill="none" stroke="black"/>
<path d="M57.1929,346.022h 32.396v -3.367h 32.396v 3.367h 64.7919v -6.734h 32.396v -40.404h 32.396v -245.791h 32.396v 134.68h 32.396v 158.249h 194.376" fill="none" stroke="#000099"/>
<g fill="#ff0000">
<polygon points=" 263.531, 48.8577 272.002, 48.8577 267.767, 57.329"/>
</g>
<path d="M59.4606,346.022h 122.457l 4.53543, -0.0364989l 4.53543, -0.0529634l 4.53543, -0.119809l 4.53543, -0.257912l 4.53543, -0.528163l 4.53543, -1.02846l 4.53543, -1.90331l 4.53543, -3.34545l 4.53543, -5.58059l 4.53543, -8.82592l 4.53543,
 -13.2173l 4.53543, -18.7116l 4.53543, -24.9856l 4.53543, -31.3711l 4.53543, -36.8699l 4.53543, -40.282l 4.53543, -40.4482l 4.53543, -36.5584l 4.53543, -28.4381l 4.07577, -15.0142" fill="none" stroke="#ff0000" stroke-width="2"/>
<path d="M278.893,38.4469l 2.80376, 7.17481" fill="none" stroke="#ff0000" stroke-width="2"/>
<path d="M281.697,45.6217l 4.53543, 24.3769l 4.53543, 33.9761l 4.53543, 39.4828l 4.53543, 40.7806l 4.53543, 38.4689l 4.53543, 33.6124l 4.53543, 27.4292l 4.53543, 21.0154l 4.53543, 15.1711l 4.53543, 10.3455l 4.53543, 6.67637l 4.53543, 4.08311l
 4.53543, 2.36905l 4.53543, 1.30515l 4.53543, 0.683202l 4.53543, 0.340003l 4.53543, 0.160939l 4.53543, 0.0724863l 4.53543, 0.051472h 131.528" fill="none" stroke="#ff0000" stroke-width="2"/>
<path d="M499.398,346.022h 9.07087" fill="none" stroke="#ff0000" stroke-width="2"/>
<path d="M57.1929,346.022h 453.543" fill="none" stroke="black"/>
<path d="M102.664,336.795v 9.22726" fill="none" stroke="black"/>
<path d="M118.854,341.409v 4.61363" fill="none" stroke="black"/>
<path d="M135.044,341.409v 4.61363" fill="none" stroke="black"/>
<path d="M151.234,341.409v 4.61363" fill="none" stroke="black"/>
<path d="M167.425,341.409v 4.61363" fill="none" stroke="black"/>
<path d="M183.615,336.795v 9.22726" fill="none" stroke="black"/>
<path d="M199.805,341.409v 4.61363" fill="none" stroke="black"/>
<path d="M215.995,341.409v 4.61363" fill="none" stroke="black"/>
<path d="M232.185,341.409v 4.61363" fill="none" stroke="black"/>
<path d="M248.375,341.409v 4.61363" fill="none" stroke="black"/>
<path d="M264.565,336.795v 9.22726" fill="none" stroke="black"/>
<path d="M280.755,341.409v 4.61363" fill="none" stroke="black"/>
<path d="M296.945,341.409v 4.61363" fill="none" stroke="black"/>
<path d="M313.135,341.409v 4.61363" fill="none" stroke="black"/>
<path d="M329.325,341.409v 4.61363" fill="none" stroke="black"/>
<path d="M345.515,336.795v 9.22726" fill="none" stroke="black"/>
<path d="M361.705,341.409v 4.61363" fill="none" stroke="black"/>
<path d="M377.895,341.409v 4.61363" fill="none" stroke="black"/>
<path d="M394.086,341.409v 4.61363" fill="none" stroke="black"/>
<path d="M410.276,341.409v 4.61363" fill="none" stroke="black"/>
<path d="M426.466,336.795v 9.22726" fill="none" stroke="black"/>
<path d="M442.656,341.409v 4.61363" fill="none" stroke="black"/>
<path d="M458.846,341.409v 4.61363" fill="none" stroke="black"/>
<path d="M475.036,341.409v 4.61363" fill="none" stroke="black"/>
<path d="M491.226,341.409v 4.61363" fill="none" stroke="black"/>
<path d="M507.416,336.795v 9.22726" fill="none" stroke="black"/>
<path d="M102.664,336.795v 9.22726" fill="none" stroke="black"/>
<path d="M86.4742,341.409v 4.61363" fill="none" stroke="black"/>
<path d="M70.2841,341.409v 4.61363" fill="none" stroke="black"/>
<path d="M507.416,336.795v 9.22726" fill="none" stroke="black"/>
<text xml:space="preserve" x="91.73" y="358.403" fill="black" font-size="12.8453" font-family="Helvetica">790</text>
<text xml:space="preserve" x="172.371" y="358.403" fill="black" font-size="12.8453" font-family="Helvetica">800</text>
<text xml:space="preserve" x="253.826" y="358.403" fill="black" font-size="12.8453" font-family="Helvetica">810</text>
<text xml:space="preserve" x="334.467" y="358.403" fill="black" font-size="12.8453" font-family="Helvetica">820</text>
<text xml:space="preserve" x="415.108" y="358.403" fill="black" font-size="12.8453" font-family="Helvetica">830</text>
<text xml:space="preserve" x="496.563" y="358.403" fill="black" font-size="12.8453" font-family="Helvetica">840</text>
<text xml:space="preserve" x="460.723" y="370.622" fill="black" font-size="12.8453" font-family="Helvetica">Time [ns]</text>
<path d="M57.1929,346.022v -307.575" fill="none" stroke="black"/>
<path d="M70.7992,346.022h -13.6063" fill="none" stroke="black"/>
<path d="M63.9961,339.288h -6.80315" fill="none" stroke="black"/>
<path d="M63.9961,332.554h -6.80315" fill="none" stroke="black"/>
<path d="M63.9961,325.82h -6.80315" fill="none" stroke="black"/>
<path d="M63.9961,319.086h -6.80315" fill="none" stroke="black"/>
<path d="M70.7992,312.352h -13.6063" fill="none" stroke="black"/>
<path d="M63.9961,305.618h -6.80315" fill="none" stroke="black"/>
<path d="M63.9961,298.884h -6.80315" fill="none" stroke="black"/>
<path d="M63.9961,292.15h -6.80315" fill="none" stroke="black"/>
<path d="M63.9961,285.416h -6.80315" fill="none" stroke="black"/>
<path d="M70.7992,278.682h -13.6063" fill="none" stroke="black"/>
<path d="M63.9961,271.948h -6.80315" fill="none" stroke="black"/>
<path d="M63.9961,265.214h -6.80315" fill="none" stroke="black"/>
<path d="M63.9961,258.48h -6.80315" fill="none" stroke="black"/>
<path d="M63.9961,251.746h -6.80315" fill="none" stroke="black"/>
<path d="M70.7992,245.012h -13.6063" fill="none" stroke="black"/>
<path d="M63.9961,238.278h -6.80315" fill="none" stroke="black"/>
<path d="M63.9961,231.544h -6.80315" fill="none" stroke="black"/>
<path d="M63.9961,224.81h -6.80315" fill="none" stroke="black"/>
<path d="M63.9961,218.076h -6.80315" fill="none" stroke="black"/>
<path d="M70.7992,211.342h -13.6063" fill="none" stroke="black"/>
<path d="M63.9961,204.608h -6.80315" fill="none" stroke="black"/>
<path d="M63.9961,197.874h -6.80315" fill="none" stroke="black"/>
<path d="M63.9961,191.14h -6.80315" fill="none" stroke="black"/>
<path d="M63.9961,184.406h -6.80315" fill="none" stroke="black"/>
<path d="M70.7992,177.672h -13.6063" fill="none" stroke="black"/>
<path d="M63.9961,170.938h -6.80315" fill="none" stroke="black"/>
<path d="M63.9961,164.204h -6.80315" fill="none" stroke="black"/>
<path d="M63.9961,157.47h -6.80315" fill="none" stroke="black"/>
<path d="M63.9961,150.736h -6.80315" fill="none" stroke="black"/>
<path d="M70.7992,144.002h -13.6063" fill="none" stroke="black"/>
<path d="M63.9961,137.268h -6.80315" fill="none" stroke="black"/>
<path d="M63.9961,130.534h -6.80315" fill="none" stroke="black"/>
<path d="M63.9961,123.8h -6.80315" fill="none" stroke="black"/>
<path d="M63.9961,117.066h -6.80315" fill="none" stroke="black"/>
<path d="M70.7992,110.332h -13.6063" fill="none" stroke="black"/>
<path d="M63.9961,103.598h -6.80315" fill="none" stroke="black"/>
<path d="M63.9961,96.8643h -6.80315" fill="none" stroke="black"/>
<path d="M63.9961,90.1303h -6.80315" fill="none" stroke="black"/>
<path d="M63.9961,83.3964h -6.80315" fill="none" stroke="black"/>
<path d="M70.7992,76.6624h -13.6063" fill="none" stroke="black"/>
<path d="M63.9961,69.9284h -6.80315" fill="none" stroke="black"/>
<path d="M63.9961,63.1944h -6.80315" fill="none" stroke="black"/>
<path d="M63.9961,56.4604h -6.80315" fill="none" stroke="black"/>
<path d="M63.9961,49.7264h -6.80315" fill="none" stroke="black"/>
<path d="M70.7992,42.9924h -13.6063" fill="none" stroke="black"/>
<path d="M70.7992,42.9924h -13.6063" fill="none" stroke="black"/>
<text xml:space="preserve" x="47.7441" y="350.258" fill="black" font-size="12.8453" font-family="Helvetica">0</text>
<text xml:space="preserve" x="41.2277" y="316.861" fill="black" font-size="12.8453" font-family="Helvetica">10</text>
<text xml:space="preserve" x="41.2277" y="283.465" fill="black" font-size="12.8453" font-family="Helvetica">20</text>
<text xml:space="preserve" x="41.2277" y="249.253" fill="black" font-size="12.8453" font-family="Helvetica">30</text>
<text xml:space="preserve" x="41.2277" y="215.857" fill="black" font-size="12.8453" font-family="Helvetica">40</text>
<text xml:space="preserve" x="41.2277" y="182.46" fill="black" font-size="12.8453" font-family="Helvetica">50</text>
<text xml:space="preserve" x="41.2277" y="148.249" fill="black" font-size="12.8453" font-family="Helvetica">60</text>
<text xml:space="preserve" x="41.2277" y="114.852" fill="black" font-size="12.8453" font-family="Helvetica">70</text>
<text xml:space="preserve" x="41.2277" y="81.4553" fill="black" font-size="12.8453" font-family="Helvetica">80</text>
<text xml:space="preserve" x="41.2277" y="47.2441" fill="black" font-size="12.8453" font-family="Helvetica">90</text>
<g transform="rotate(-90,29.0094,70.0516)">
<text xml:space="preserve" x="29.0094" y="70.0516" fill="black" font-size="12.8453" font-family="Helvetica">Event</text>
</g>
<text xml:space="preserve" x="243.237" y="18.7347" fill="black" font-size="16.9898" font-family="Helvetica">420mm 20</text></svg>
