<?xml version="1.0" standalone="no"?>
<svg width="567.429" height="384.969" viewBox="0 0 567.429 384.969" xmlns="http://www.w3.org/2000/svg" shape-rendering="crispEdges">
<title>
img/week2/Combined280mm_ch_28_29_30_31.svg
</title>
<desc>
Creator: ROOT Version 6.22/09
CreationDate: Thu Jun 24 11:05:58 2021</desc>
<defs>
</defs>
<rect x="0.5" y="0" width="566.929" height="384.469" fill="white"/>
<rect x="57.1929" y="38.4469" width="453.543" height="307.575" fill="white"/>
<rect x="57.1929" y="38.4469" width="453.543" height="307.575" fill="none" stroke="black"/>
<rect x="57.1929" y="38.4469" width="453.543" height="307.575" fill="white"/>
<rect x="57.1929" y="38.4469" width="453.543" height="307.575" fill="none" stroke="black"/>
<path d="M57.1929,346.022h 60.4724v -1.19807h 30.2362v -1.19807h 30.2362v -10.1836h 30.2362v -19.7682h 30.2362v -166.532h 30.2362v -94.0487h 30.2362v 258.784h 30.2362v 33.546h 30.2362v 0.599037h 151.181" fill="none" stroke="#000099"/>
<g fill="#ff0000">
<polygon points=" 279.729, 48.8577 288.2, 48.8577 283.965, 57.329"/>
</g>
<path d="M59.4606,346.022h 122.457l 4.53543, -0.0758894l 4.53543, -0.10407l 4.53543, -0.227124l 4.53543, -0.471351l 4.53543, -0.929785l 4.53543, -1.74244l 4.53543, -3.10028l 4.53543, -5.23335l 4.53543, -8.37293l 4.53543, -12.6812l 4.53543, -18.1522l
 4.53543, -24.5049l 4.53543, -31.1052l 4.53543, -36.9656l 4.53543, -40.8601l 4.53543, -41.562l 4.53543, -38.1612l 4.53543, -30.3733l 3.13623, -12.9523" fill="none" stroke="#ff0000" stroke-width="2"/>
<path d="M277.184,38.4469l 4.51247, 23.4976" fill="none" stroke="#ff0000" stroke-width="2"/>
<path d="M281.697,61.9445l 4.53543, 33.8875l 4.53543, 39.9966l 4.53543, 41.7382l 4.53543, 39.67l 4.53543, 34.864l 4.53543, 28.5815l 4.53543, 21.978l 4.53543, 15.9111l 4.53543, 10.8734l 4.53543, 7.0276l 4.53543, 4.30188l 4.53543, 2.4969l 4.53543,
 1.37536l 4.53543, 0.719463l 4.53543, 0.357626l 4.53543, 0.168999l 4.53543, 0.0759524l 4.53543, 0.0536786h 136.063" fill="none" stroke="#ff0000" stroke-width="2"/>
<path d="M499.398,346.022h 9.07087" fill="none" stroke="#ff0000" stroke-width="2"/>
<rect x="351.996" y="24.9905" width="204.094" height="107.651" fill="white"/>
<path d="M351.996,132.642h 204.094" fill="none" stroke="black"/>
<path d="M556.091,132.642v -107.651" fill="none" stroke="black"/>
<path d="M556.091,24.9905h -204.094" fill="none" stroke="black"/>
<path d="M351.996,24.9905v 107.651" fill="none" stroke="black"/>
<text xml:space="preserve" x="362.162" y="39.0986" fill="black" font-size="15.6436" font-family="Helvetica">Entries </text>
<text xml:space="preserve" x="515.298" y="39.0986" fill="black" font-size="15.6436" font-family="Helvetica"> 969</text>
<text xml:space="preserve" x="376.009" y="57.0187" fill="black" font-size="15.6436" font-family="Helvetica"> / ndf </text>
<text xml:space="preserve" x="370.307" y="52.1314" fill="black" font-size="10.5957" font-family="Helvetica">2</text>
<text xml:space="preserve" x="362.162" y="57.0187" fill="black" font-size="15.6436" font-family="Times">&#0967;</text>
<text xml:space="preserve" x="481.086" y="57.0187" fill="black" font-size="15.6436" font-family="Helvetica"> 45.49 / 8</text>
<text xml:space="preserve" x="362.162" y="74.9389" fill="black" font-size="15.6436" font-family="Helvetica">Prob  </text>
<text xml:space="preserve" x="528.331" y="74.9389" fill="black" font-size="15.6436" font-family="Helvetica">07</text>
<text xml:space="preserve" x="519.37" y="74.9389" fill="black" font-size="15.6436" font-family="Times">&#8722;</text>
<text xml:space="preserve" x="468.054" y="74.9389" fill="black" font-size="15.6436" font-family="Helvetica"> 2.973e</text>
<text xml:space="preserve" x="362.162" y="93.6736" fill="black" font-size="15.6436" font-family="Helvetica">Const    </text>
<text xml:space="preserve" x="511.225" y="92.8591" fill="black" font-size="15.6436" font-family="Helvetica"> 23.2</text>
<text xml:space="preserve" x="502.265" y="92.8591" fill="black" font-size="15.6436" font-family="Times">&#0177;</text>
<text xml:space="preserve" x="455.021" y="92.8591" fill="black" font-size="15.6436" font-family="Helvetica"> 531.2 </text>
<text xml:space="preserve" x="362.162" y="110.779" fill="black" font-size="15.6436" font-family="Helvetica">Mean     </text>
<text xml:space="preserve" x="522.629" y="110.779" fill="black" font-size="15.6436" font-family="Helvetica"> 0.1</text>
<text xml:space="preserve" x="513.669" y="110.779" fill="black" font-size="15.6436" font-family="Times">&#0177;</text>
<text xml:space="preserve" x="466.425" y="110.779" fill="black" font-size="15.6436" font-family="Helvetica"> 808.8 </text>
<text xml:space="preserve" x="362.162" y="127.885" fill="black" font-size="15.6436" font-family="Helvetica">Sigma    </text>
<text xml:space="preserve" x="503.079" y="128.699" fill="black" font-size="15.6436" font-family="Helvetica"> 0.079</text>
<text xml:space="preserve" x="494.119" y="128.699" fill="black" font-size="15.6436" font-family="Times">&#0177;</text>
<text xml:space="preserve" x="446.061" y="128.699" fill="black" font-size="15.6436" font-family="Helvetica"> 2.764 </text>
<path d="M57.1929,346.022h 453.543" fill="none" stroke="black"/>
<path d="M129.869,336.795v 9.22726" fill="none" stroke="black"/>
<path d="M144.98,341.409v 4.61363" fill="none" stroke="black"/>
<path d="M160.09,341.409v 4.61363" fill="none" stroke="black"/>
<path d="M175.201,341.409v 4.61363" fill="none" stroke="black"/>
<path d="M190.312,341.409v 4.61363" fill="none" stroke="black"/>
<path d="M205.423,336.795v 9.22726" fill="none" stroke="black"/>
<path d="M220.533,341.409v 4.61363" fill="none" stroke="black"/>
<path d="M235.644,341.409v 4.61363" fill="none" stroke="black"/>
<path d="M250.755,341.409v 4.61363" fill="none" stroke="black"/>
<path d="M265.866,341.409v 4.61363" fill="none" stroke="black"/>
<path d="M280.976,336.795v 9.22726" fill="none" stroke="black"/>
<path d="M296.087,341.409v 4.61363" fill="none" stroke="black"/>
<path d="M311.198,341.409v 4.61363" fill="none" stroke="black"/>
<path d="M326.309,341.409v 4.61363" fill="none" stroke="black"/>
<path d="M341.419,341.409v 4.61363" fill="none" stroke="black"/>
<path d="M356.53,336.795v 9.22726" fill="none" stroke="black"/>
<path d="M371.641,341.409v 4.61363" fill="none" stroke="black"/>
<path d="M386.751,341.409v 4.61363" fill="none" stroke="black"/>
<path d="M401.862,341.409v 4.61363" fill="none" stroke="black"/>
<path d="M416.973,341.409v 4.61363" fill="none" stroke="black"/>
<path d="M432.084,336.795v 9.22726" fill="none" stroke="black"/>
<path d="M447.194,341.409v 4.61363" fill="none" stroke="black"/>
<path d="M462.305,341.409v 4.61363" fill="none" stroke="black"/>
<path d="M477.416,341.409v 4.61363" fill="none" stroke="black"/>
<path d="M492.527,341.409v 4.61363" fill="none" stroke="black"/>
<path d="M507.637,336.795v 9.22726" fill="none" stroke="black"/>
<path d="M129.869,336.795v 9.22726" fill="none" stroke="black"/>
<path d="M114.758,341.409v 4.61363" fill="none" stroke="black"/>
<path d="M99.6476,341.409v 4.61363" fill="none" stroke="black"/>
<path d="M84.5368,341.409v 4.61363" fill="none" stroke="black"/>
<path d="M69.4261,341.409v 4.61363" fill="none" stroke="black"/>
<path d="M507.637,336.795v 9.22726" fill="none" stroke="black"/>
<text xml:space="preserve" x="118.61" y="358.403" fill="black" font-size="12.8453" font-family="Helvetica">790</text>
<text xml:space="preserve" x="194.364" y="358.403" fill="black" font-size="12.8453" font-family="Helvetica">800</text>
<text xml:space="preserve" x="270.117" y="358.403" fill="black" font-size="12.8453" font-family="Helvetica">810</text>
<text xml:space="preserve" x="345.871" y="358.403" fill="black" font-size="12.8453" font-family="Helvetica">820</text>
<text xml:space="preserve" x="420.81" y="358.403" fill="black" font-size="12.8453" font-family="Helvetica">830</text>
<text xml:space="preserve" x="496.563" y="358.403" fill="black" font-size="12.8453" font-family="Helvetica">840</text>
<text xml:space="preserve" x="460.723" y="370.622" fill="black" font-size="12.8453" font-family="Helvetica">Time [ps]</text>
<path d="M57.1929,346.022v -307.575" fill="none" stroke="black"/>
<path d="M70.7992,346.022h -13.6063" fill="none" stroke="black"/>
<path d="M63.9961,334.042h -6.80315" fill="none" stroke="black"/>
<path d="M63.9961,322.061h -6.80315" fill="none" stroke="black"/>
<path d="M63.9961,310.08h -6.80315" fill="none" stroke="black"/>
<path d="M63.9961,298.099h -6.80315" fill="none" stroke="black"/>
<path d="M70.7992,286.119h -13.6063" fill="none" stroke="black"/>
<path d="M63.9961,274.138h -6.80315" fill="none" stroke="black"/>
<path d="M63.9961,262.157h -6.80315" fill="none" stroke="black"/>
<path d="M63.9961,250.176h -6.80315" fill="none" stroke="black"/>
<path d="M63.9961,238.196h -6.80315" fill="none" stroke="black"/>
<path d="M70.7992,226.215h -13.6063" fill="none" stroke="black"/>
<path d="M63.9961,214.234h -6.80315" fill="none" stroke="black"/>
<path d="M63.9961,202.253h -6.80315" fill="none" stroke="black"/>
<path d="M63.9961,190.273h -6.80315" fill="none" stroke="black"/>
<path d="M63.9961,178.292h -6.80315" fill="none" stroke="black"/>
<path d="M70.7992,166.311h -13.6063" fill="none" stroke="black"/>
<path d="M63.9961,154.331h -6.80315" fill="none" stroke="black"/>
<path d="M63.9961,142.35h -6.80315" fill="none" stroke="black"/>
<path d="M63.9961,130.369h -6.80315" fill="none" stroke="black"/>
<path d="M63.9961,118.388h -6.80315" fill="none" stroke="black"/>
<path d="M70.7992,106.408h -13.6063" fill="none" stroke="black"/>
<path d="M63.9961,94.4269h -6.80315" fill="none" stroke="black"/>
<path d="M63.9961,82.4462h -6.80315" fill="none" stroke="black"/>
<path d="M63.9961,70.4654h -6.80315" fill="none" stroke="black"/>
<path d="M63.9961,58.4847h -6.80315" fill="none" stroke="black"/>
<path d="M70.7992,46.504h -13.6063" fill="none" stroke="black"/>
<path d="M70.7992,46.504h -13.6063" fill="none" stroke="black"/>
<text xml:space="preserve" x="47.7441" y="350.258" fill="black" font-size="12.8453" font-family="Helvetica">0</text>
<text xml:space="preserve" x="33.8967" y="290.796" fill="black" font-size="12.8453" font-family="Helvetica">100</text>
<text xml:space="preserve" x="33.8967" y="230.519" fill="black" font-size="12.8453" font-family="Helvetica">200</text>
<text xml:space="preserve" x="33.8967" y="171.056" fill="black" font-size="12.8453" font-family="Helvetica">300</text>
<text xml:space="preserve" x="33.8967" y="110.779" fill="black" font-size="12.8453" font-family="Helvetica">400</text>
<text xml:space="preserve" x="33.8967" y="51.3169" fill="black" font-size="12.8453" font-family="Helvetica">500</text>
<g transform="rotate(-90,20.8638,70.0516)">
<text xml:space="preserve" x="20.8638" y="70.0516" fill="black" font-size="12.8453" font-family="Helvetica">Event</text>
</g>
<rect x="351.996" y="24.9905" width="204.094" height="107.651" fill="white"/>
<path d="M351.996,132.642h 204.094" fill="none" stroke="black"/>
<path d="M556.091,132.642v -107.651" fill="none" stroke="black"/>
<path d="M556.091,24.9905h -204.094" fill="none" stroke="black"/>
<path d="M351.996,24.9905v 107.651" fill="none" stroke="black"/>
<text xml:space="preserve" x="362.162" y="39.0986" fill="black" font-size="15.6436" font-family="Helvetica">Entries </text>
<text xml:space="preserve" x="515.298" y="39.0986" fill="black" font-size="15.6436" font-family="Helvetica"> 969</text>
<text xml:space="preserve" x="376.009" y="57.0187" fill="black" font-size="15.6436" font-family="Helvetica"> / ndf </text>
<text xml:space="preserve" x="370.307" y="52.1314" fill="black" font-size="10.5957" font-family="Helvetica">2</text>
<text xml:space="preserve" x="362.162" y="57.0187" fill="black" font-size="15.6436" font-family="Times">&#0967;</text>
<text xml:space="preserve" x="481.086" y="57.0187" fill="black" font-size="15.6436" font-family="Helvetica"> 45.49 / 8</text>
<text xml:space="preserve" x="362.162" y="74.9389" fill="black" font-size="15.6436" font-family="Helvetica">Prob  </text>
<text xml:space="preserve" x="528.331" y="74.9389" fill="black" font-size="15.6436" font-family="Helvetica">07</text>
<text xml:space="preserve" x="519.37" y="74.9389" fill="black" font-size="15.6436" font-family="Times">&#8722;</text>
<text xml:space="preserve" x="468.054" y="74.9389" fill="black" font-size="15.6436" font-family="Helvetica"> 2.973e</text>
<text xml:space="preserve" x="362.162" y="93.6736" fill="black" font-size="15.6436" font-family="Helvetica">Const    </text>
<text xml:space="preserve" x="511.225" y="92.8591" fill="black" font-size="15.6436" font-family="Helvetica"> 23.2</text>
<text xml:space="preserve" x="502.265" y="92.8591" fill="black" font-size="15.6436" font-family="Times">&#0177;</text>
<text xml:space="preserve" x="455.021" y="92.8591" fill="black" font-size="15.6436" font-family="Helvetica"> 531.2 </text>
<text xml:space="preserve" x="362.162" y="110.779" fill="black" font-size="15.6436" font-family="Helvetica">Mean     </text>
<text xml:space="preserve" x="522.629" y="110.779" fill="black" font-size="15.6436" font-family="Helvetica"> 0.1</text>
<text xml:space="preserve" x="513.669" y="110.779" fill="black" font-size="15.6436" font-family="Times">&#0177;</text>
<text xml:space="preserve" x="466.425" y="110.779" fill="black" font-size="15.6436" font-family="Helvetica"> 808.8 </text>
<text xml:space="preserve" x="362.162" y="127.885" fill="black" font-size="15.6436" font-family="Helvetica">Sigma    </text>
<text xml:space="preserve" x="503.079" y="128.699" fill="black" font-size="15.6436" font-family="Helvetica"> 0.079</text>
<text xml:space="preserve" x="494.119" y="128.699" fill="black" font-size="15.6436" font-family="Times">&#0177;</text>
<text xml:space="preserve" x="446.061" y="128.699" fill="black" font-size="15.6436" font-family="Helvetica"> 2.764 </text>
<text xml:space="preserve" x="209.026" y="18.7347" fill="black" font-size="16.9898" font-family="Helvetica">280mm 28 29 30 31</text></svg>
