<?xml version="1.0" standalone="no"?>
<svg width="567.429" height="386.304" viewBox="0 0 567.429 386.304" xmlns="http://www.w3.org/2000/svg" shape-rendering="crispEdges">
<title>
img/week2/Combined140mm_ch_27.svg
</title>
<desc>
Creator: ROOT Version 6.22/08
CreationDate: Mon Jun 21 21:33:54 2021</desc>
<defs>
</defs>
<rect x="0.5" y="0" width="566.929" height="385.804" fill="white"/>
<rect x="57.1929" y="38.5804" width="453.543" height="308.643" fill="white"/>
<rect x="57.1929" y="38.5804" width="453.543" height="308.643" fill="none" stroke="black"/>
<rect x="57.1929" y="38.5804" width="453.543" height="308.643" fill="white"/>
<rect x="57.1929" y="38.5804" width="453.543" height="308.643" fill="none" stroke="black"/>
<path d="M57.1929,347.224h 120.945v -4.71514h 30.2362v -11.7879h 30.2362v -58.9393h 30.2362v -207.466h 30.2362v 110.806h 30.2362v 165.03h 30.2362v 7.07271h 151.181" fill="none" stroke="#000099"/>
<g fill="#ff0000">
<polygon points=" 279.741, 60.0917 288.188, 60.0917 283.965, 68.5387"/>
</g>
<path d="M59.4606,347.224h 136.063l 4.53543, -0.0507913l 4.53543, -0.0693814l 4.53543, -0.151672l 4.53543, -0.316096l 4.53543, -0.627812l 4.53543, -1.18781l 4.53543, -2.13966l 4.53543, -3.66729l 4.53543, -5.97599l 4.53543, -9.24924l 4.53543,
 -13.5795l 4.53543, -18.8808l 4.53543, -24.8051l 4.53543, -30.6966l 4.53543, -35.6206l 4.53543, -38.4907l 4.53543, -38.2894l 4.53543, -34.3369l 4.53543, -26.5311" fill="none" stroke="#ff0000" stroke-width="2"/>
<path d="M281.697,62.5573l 4.53543, -15.4733l 4.53543, -2.41856l 4.53543, 10.9546l 4.53543, 22.8989l 4.53543, 31.9733l 4.53543, 37.3269l 4.53543, 38.8168l 4.53543, 36.9394l 4.53543, 32.623l 4.53543, 26.9583l 4.53543, 20.9543l 4.53543, 15.3748l
 4.53543, 10.6755l 4.53543, 7.02771l 4.53543, 4.39229l 4.53543, 2.60908l 4.53543, 1.47426l 4.53543, 0.792959l 4.53543, 0.406216l 4.53543, 0.198288l 4.53543, 0.0922643l 4.53543, 0.0694587h 122.457" fill="none" stroke="#ff0000" stroke-width="2"/>
<path d="M503.933,347.224h 4.53543" fill="none" stroke="#ff0000" stroke-width="2"/>
<path d="M57.1929,347.224h 453.543" fill="none" stroke="black"/>
<path d="M84.5516,337.964v 9.2593" fill="none" stroke="black"/>
<path d="M99.6623,342.594v 4.62965" fill="none" stroke="black"/>
<path d="M114.773,342.594v 4.62965" fill="none" stroke="black"/>
<path d="M129.884,342.594v 4.62965" fill="none" stroke="black"/>
<path d="M144.995,342.594v 4.62965" fill="none" stroke="black"/>
<path d="M160.105,337.964v 9.2593" fill="none" stroke="black"/>
<path d="M175.216,342.594v 4.62965" fill="none" stroke="black"/>
<path d="M190.327,342.594v 4.62965" fill="none" stroke="black"/>
<path d="M205.437,342.594v 4.62965" fill="none" stroke="black"/>
<path d="M220.548,342.594v 4.62965" fill="none" stroke="black"/>
<path d="M235.659,337.964v 9.2593" fill="none" stroke="black"/>
<path d="M250.77,342.594v 4.62965" fill="none" stroke="black"/>
<path d="M265.88,342.594v 4.62965" fill="none" stroke="black"/>
<path d="M280.991,342.594v 4.62965" fill="none" stroke="black"/>
<path d="M296.102,342.594v 4.62965" fill="none" stroke="black"/>
<path d="M311.213,337.964v 9.2593" fill="none" stroke="black"/>
<path d="M326.323,342.594v 4.62965" fill="none" stroke="black"/>
<path d="M341.434,342.594v 4.62965" fill="none" stroke="black"/>
<path d="M356.545,342.594v 4.62965" fill="none" stroke="black"/>
<path d="M371.656,342.594v 4.62965" fill="none" stroke="black"/>
<path d="M386.766,337.964v 9.2593" fill="none" stroke="black"/>
<path d="M401.877,342.594v 4.62965" fill="none" stroke="black"/>
<path d="M416.988,342.594v 4.62965" fill="none" stroke="black"/>
<path d="M432.098,342.594v 4.62965" fill="none" stroke="black"/>
<path d="M447.209,342.594v 4.62965" fill="none" stroke="black"/>
<path d="M462.32,337.964v 9.2593" fill="none" stroke="black"/>
<path d="M84.5516,337.964v 9.2593" fill="none" stroke="black"/>
<path d="M69.4409,342.594v 4.62965" fill="none" stroke="black"/>
<path d="M462.32,337.964v 9.2593" fill="none" stroke="black"/>
<path d="M477.431,342.594v 4.62965" fill="none" stroke="black"/>
<path d="M492.541,342.594v 4.62965" fill="none" stroke="black"/>
<path d="M507.652,342.594v 4.62965" fill="none" stroke="black"/>
<text xml:space="preserve" x="72.7875" y="359.813" fill="black" font-size="12.8882" font-family="Helvetica">780</text>
<text xml:space="preserve" x="148.324" y="359.813" fill="black" font-size="12.8882" font-family="Helvetica">790</text>
<text xml:space="preserve" x="223.86" y="359.813" fill="black" font-size="12.8882" font-family="Helvetica">800</text>
<text xml:space="preserve" x="299.397" y="359.813" fill="black" font-size="12.8882" font-family="Helvetica">810</text>
<text xml:space="preserve" x="374.933" y="359.813" fill="black" font-size="12.8882" font-family="Helvetica">820</text>
<text xml:space="preserve" x="450.47" y="359.813" fill="black" font-size="12.8882" font-family="Helvetica">830</text>
<text xml:space="preserve" x="481.334" y="373.621" fill="black" font-size="12.8882" font-family="Helvetica">Time</text>
<path d="M57.1929,347.224v -308.643" fill="none" stroke="black"/>
<path d="M70.7992,347.224h -13.6063" fill="none" stroke="black"/>
<path d="M63.9961,335.436h -6.80315" fill="none" stroke="black"/>
<path d="M63.9961,323.648h -6.80315" fill="none" stroke="black"/>
<path d="M63.9961,311.86h -6.80315" fill="none" stroke="black"/>
<path d="M70.7992,300.072h -13.6063" fill="none" stroke="black"/>
<path d="M63.9961,288.285h -6.80315" fill="none" stroke="black"/>
<path d="M63.9961,276.497h -6.80315" fill="none" stroke="black"/>
<path d="M63.9961,264.709h -6.80315" fill="none" stroke="black"/>
<path d="M70.7992,252.921h -13.6063" fill="none" stroke="black"/>
<path d="M63.9961,241.133h -6.80315" fill="none" stroke="black"/>
<path d="M63.9961,229.345h -6.80315" fill="none" stroke="black"/>
<path d="M63.9961,217.557h -6.80315" fill="none" stroke="black"/>
<path d="M70.7992,205.77h -13.6063" fill="none" stroke="black"/>
<path d="M63.9961,193.982h -6.80315" fill="none" stroke="black"/>
<path d="M63.9961,182.194h -6.80315" fill="none" stroke="black"/>
<path d="M63.9961,170.406h -6.80315" fill="none" stroke="black"/>
<path d="M70.7992,158.618h -13.6063" fill="none" stroke="black"/>
<path d="M63.9961,146.83h -6.80315" fill="none" stroke="black"/>
<path d="M63.9961,135.042h -6.80315" fill="none" stroke="black"/>
<path d="M63.9961,123.254h -6.80315" fill="none" stroke="black"/>
<path d="M70.7992,111.467h -13.6063" fill="none" stroke="black"/>
<path d="M63.9961,99.6788h -6.80315" fill="none" stroke="black"/>
<path d="M63.9961,87.8909h -6.80315" fill="none" stroke="black"/>
<path d="M63.9961,76.1031h -6.80315" fill="none" stroke="black"/>
<path d="M70.7992,64.3152h -13.6063" fill="none" stroke="black"/>
<path d="M70.7992,64.3152h -13.6063" fill="none" stroke="black"/>
<path d="M63.9961,52.5274h -6.80315" fill="none" stroke="black"/>
<path d="M63.9961,40.7395h -6.80315" fill="none" stroke="black"/>
<text xml:space="preserve" x="46.7965" y="351.691" fill="black" font-size="12.8882" font-family="Helvetica">0</text>
<text xml:space="preserve" x="39.4865" y="304.582" fill="black" font-size="12.8882" font-family="Helvetica">20</text>
<text xml:space="preserve" x="39.4865" y="257.474" fill="black" font-size="12.8882" font-family="Helvetica">40</text>
<text xml:space="preserve" x="39.4865" y="210.365" fill="black" font-size="12.8882" font-family="Helvetica">60</text>
<text xml:space="preserve" x="39.4865" y="163.256" fill="black" font-size="12.8882" font-family="Helvetica">80</text>
<text xml:space="preserve" x="32.1766" y="116.147" fill="black" font-size="12.8882" font-family="Helvetica">100</text>
<text xml:space="preserve" x="32.1766" y="69.0387" fill="black" font-size="12.8882" font-family="Helvetica">120</text>
<g transform="rotate(-90,21.6177,71.4753)">
<text xml:space="preserve" x="21.6177" y="71.4753" fill="black" font-size="12.8882" font-family="Helvetica">Event</text>
</g>
<text xml:space="preserve" x="243.354" y="18.681" fill="black" font-size="17.0471" font-family="Helvetica">140mm 27</text></svg>
