<?xml version="1.0" standalone="no"?>
<svg width="567.429" height="384.969" viewBox="0 0 567.429 384.969" xmlns="http://www.w3.org/2000/svg" shape-rendering="crispEdges">
<title>
img/week2/Combined280mm_ch_27.svg
</title>
<desc>
Creator: ROOT Version 6.22/09
CreationDate: Thu Jun 24 12:07:49 2021</desc>
<defs>
</defs>
<rect x="0.5" y="0" width="566.929" height="384.469" fill="white"/>
<rect x="57.1929" y="38.4469" width="453.543" height="307.575" fill="white"/>
<rect x="57.1929" y="38.4469" width="453.543" height="307.575" fill="none" stroke="black"/>
<rect x="57.1929" y="38.4469" width="453.543" height="307.575" fill="white"/>
<rect x="57.1929" y="38.4469" width="453.543" height="307.575" fill="none" stroke="black"/>
<path d="M57.1929,346.022h 97.1879v -2.59229h 32.396v -10.3692h 32.396v -12.9615h 32.396v -199.606h 32.396v -67.3996h 32.396v 256.637h 32.396v 36.2921h 161.98" fill="none" stroke="#000099"/>
<g fill="#ff0000">
<polygon points=" 295.927, 48.8577 304.398, 48.8577 300.163, 57.329"/>
</g>
<path d="M59.4606,346.022h 131.528l 4.53543, -0.0677908l 4.53543, -0.0870803l 4.53543, -0.184342l 4.53543, -0.373113l 4.53543, -0.721802l 4.53543, -1.33409l 4.53543, -2.35468l 4.53543, -3.96648l 4.53543, -6.37226l 4.53543, -9.75459l 4.53543,
 -14.2121l 4.53543, -19.6787l 4.53543, -25.8449l 4.53543, -32.1086l 4.53543, -37.5898l 4.53543, -41.2315l 4.53543, -41.9888l 4.53543, -39.0725l 4.31617, -30.6324" fill="none" stroke="#ff0000" stroke-width="2"/>
<path d="M296.406,38.4469l 3.43269, 22.8312" fill="none" stroke="#ff0000" stroke-width="2"/>
<path d="M299.839,61.2781l 4.53543, 37.8979l 4.53543, 41.6821l 4.53543, 41.6786l 4.53543, 38.5861l 4.53543, 33.4155l 4.53543, 27.24l 4.53543, 20.9903l 4.53543, 15.3336l 4.53543, 10.6413l 4.53543, 7.02668l 4.53543, 4.42013l 4.53543, 2.65129l 4.53543,
 1.51755l 4.53543, 0.829386l 4.53543, 0.433029l 4.53543, 0.216075l 4.53543, 0.103079l 4.53543, 0.047027l 4.53543, 0.0345562h 122.457" fill="none" stroke="#ff0000" stroke-width="2"/>
<path d="M57.1929,346.022h 453.543" fill="none" stroke="black"/>
<path d="M135.06,336.795v 9.22726" fill="none" stroke="black"/>
<path d="M151.25,341.409v 4.61363" fill="none" stroke="black"/>
<path d="M167.44,341.409v 4.61363" fill="none" stroke="black"/>
<path d="M183.63,341.409v 4.61363" fill="none" stroke="black"/>
<path d="M199.82,341.409v 4.61363" fill="none" stroke="black"/>
<path d="M216.011,336.795v 9.22726" fill="none" stroke="black"/>
<path d="M232.201,341.409v 4.61363" fill="none" stroke="black"/>
<path d="M248.391,341.409v 4.61363" fill="none" stroke="black"/>
<path d="M264.581,341.409v 4.61363" fill="none" stroke="black"/>
<path d="M280.771,341.409v 4.61363" fill="none" stroke="black"/>
<path d="M296.961,336.795v 9.22726" fill="none" stroke="black"/>
<path d="M313.151,341.409v 4.61363" fill="none" stroke="black"/>
<path d="M329.341,341.409v 4.61363" fill="none" stroke="black"/>
<path d="M345.531,341.409v 4.61363" fill="none" stroke="black"/>
<path d="M361.721,341.409v 4.61363" fill="none" stroke="black"/>
<path d="M377.911,336.795v 9.22726" fill="none" stroke="black"/>
<path d="M394.101,341.409v 4.61363" fill="none" stroke="black"/>
<path d="M410.291,341.409v 4.61363" fill="none" stroke="black"/>
<path d="M426.481,341.409v 4.61363" fill="none" stroke="black"/>
<path d="M442.672,341.409v 4.61363" fill="none" stroke="black"/>
<path d="M458.862,336.795v 9.22726" fill="none" stroke="black"/>
<path d="M135.06,336.795v 9.22726" fill="none" stroke="black"/>
<path d="M118.87,341.409v 4.61363" fill="none" stroke="black"/>
<path d="M102.68,341.409v 4.61363" fill="none" stroke="black"/>
<path d="M86.49,341.409v 4.61363" fill="none" stroke="black"/>
<path d="M70.2999,341.409v 4.61363" fill="none" stroke="black"/>
<path d="M458.862,336.795v 9.22726" fill="none" stroke="black"/>
<path d="M475.052,341.409v 4.61363" fill="none" stroke="black"/>
<path d="M491.242,341.409v 4.61363" fill="none" stroke="black"/>
<path d="M507.432,341.409v 4.61363" fill="none" stroke="black"/>
<text xml:space="preserve" x="124.312" y="358.403" fill="black" font-size="12.8453" font-family="Helvetica">790</text>
<text xml:space="preserve" x="204.953" y="358.403" fill="black" font-size="12.8453" font-family="Helvetica">800</text>
<text xml:space="preserve" x="285.594" y="358.403" fill="black" font-size="12.8453" font-family="Helvetica">810</text>
<text xml:space="preserve" x="367.049" y="358.403" fill="black" font-size="12.8453" font-family="Helvetica">820</text>
<text xml:space="preserve" x="447.69" y="358.403" fill="black" font-size="12.8453" font-family="Helvetica">830</text>
<text xml:space="preserve" x="460.723" y="370.622" fill="black" font-size="12.8453" font-family="Helvetica">Time [ps]</text>
<path d="M57.1929,346.022v -307.575" fill="none" stroke="black"/>
<path d="M70.7992,346.022h -13.6063" fill="none" stroke="black"/>
<path d="M63.9961,333.061h -6.80315" fill="none" stroke="black"/>
<path d="M63.9961,320.099h -6.80315" fill="none" stroke="black"/>
<path d="M63.9961,307.138h -6.80315" fill="none" stroke="black"/>
<path d="M70.7992,294.176h -13.6063" fill="none" stroke="black"/>
<path d="M63.9961,281.215h -6.80315" fill="none" stroke="black"/>
<path d="M63.9961,268.254h -6.80315" fill="none" stroke="black"/>
<path d="M63.9961,255.292h -6.80315" fill="none" stroke="black"/>
<path d="M70.7992,242.331h -13.6063" fill="none" stroke="black"/>
<path d="M63.9961,229.369h -6.80315" fill="none" stroke="black"/>
<path d="M63.9961,216.408h -6.80315" fill="none" stroke="black"/>
<path d="M63.9961,203.446h -6.80315" fill="none" stroke="black"/>
<path d="M70.7992,190.485h -13.6063" fill="none" stroke="black"/>
<path d="M63.9961,177.523h -6.80315" fill="none" stroke="black"/>
<path d="M63.9961,164.562h -6.80315" fill="none" stroke="black"/>
<path d="M63.9961,151.6h -6.80315" fill="none" stroke="black"/>
<path d="M70.7992,138.639h -13.6063" fill="none" stroke="black"/>
<path d="M63.9961,125.678h -6.80315" fill="none" stroke="black"/>
<path d="M63.9961,112.716h -6.80315" fill="none" stroke="black"/>
<path d="M63.9961,99.7546h -6.80315" fill="none" stroke="black"/>
<path d="M70.7992,86.7932h -13.6063" fill="none" stroke="black"/>
<path d="M70.7992,86.7932h -13.6063" fill="none" stroke="black"/>
<path d="M63.9961,73.8317h -6.80315" fill="none" stroke="black"/>
<path d="M63.9961,60.8702h -6.80315" fill="none" stroke="black"/>
<path d="M63.9961,47.9088h -6.80315" fill="none" stroke="black"/>
<text xml:space="preserve" x="47.7441" y="350.258" fill="black" font-size="12.8453" font-family="Helvetica">0</text>
<text xml:space="preserve" x="41.2277" y="298.941" fill="black" font-size="12.8453" font-family="Helvetica">20</text>
<text xml:space="preserve" x="41.2277" y="246.81" fill="black" font-size="12.8453" font-family="Helvetica">40</text>
<text xml:space="preserve" x="41.2277" y="194.678" fill="black" font-size="12.8453" font-family="Helvetica">60</text>
<text xml:space="preserve" x="41.2277" y="143.361" fill="black" font-size="12.8453" font-family="Helvetica">80</text>
<text xml:space="preserve" x="33.8967" y="91.23" fill="black" font-size="12.8453" font-family="Helvetica">100</text>
<g transform="rotate(-90,20.8638,70.0516)">
<text xml:space="preserve" x="20.8638" y="70.0516" fill="black" font-size="12.8453" font-family="Helvetica">Event</text>
</g>
<text xml:space="preserve" x="243.237" y="18.7347" fill="black" font-size="16.9898" font-family="Helvetica">280mm 27</text></svg>
