<?xml version="1.0" standalone="no"?>
<svg width="567.429" height="386.304" viewBox="0 0 567.429 386.304" xmlns="http://www.w3.org/2000/svg" shape-rendering="crispEdges">
<title>
img/week2/Combined140mm_ch_23.svg
</title>
<desc>
Creator: ROOT Version 6.22/08
CreationDate: Thu Jun 24 11:59:57 2021</desc>
<defs>
</defs>
<rect x="0.5" y="0" width="566.929" height="385.804" fill="white"/>
<rect x="57.1929" y="38.5804" width="453.543" height="308.643" fill="white"/>
<rect x="57.1929" y="38.5804" width="453.543" height="308.643" fill="none" stroke="black"/>
<rect x="57.1929" y="38.5804" width="453.543" height="308.643" fill="white"/>
<rect x="57.1929" y="38.5804" width="453.543" height="308.643" fill="none" stroke="black"/>
<path d="M57.1929,347.224h 30.2362v -2.33291h 90.7087v 2.33291h 30.2362v -20.9961h 30.2362v -69.9872h 30.2362v -202.963h 30.2362v 209.961h 30.2362v 81.6517h 30.2362v 2.33291h 151.181" fill="none" stroke="#000099"/>
<g fill="#ff0000">
<polygon points=" 279.741, 49.0542 288.188, 49.0542 283.965, 57.5013"/>
</g>
<path d="M59.4606,347.224h 136.063l 4.53543, -0.0560675l 4.53543, -0.0829472l 4.53543, -0.188512l 4.53543, -0.405751l 4.53543, -0.82673l 4.53543, -1.5937l 4.53543, -2.90462l 4.53543, -5.00079l 4.53543, -8.12424l 4.53543, -12.4369l 4.53543, -17.9068l
 4.53543, -24.1879l 4.53543, -30.542l 4.53543, -35.8601l 4.53543, -38.8255l 4.53543, -38.2138l 4.53543, -33.263l 4.53543, -23.9905l 4.53543, -11.3281" fill="none" stroke="#ff0000" stroke-width="2"/>
<path d="M281.697,61.4859l 4.53543, 3.00755l 4.53543, 16.8946l 4.53543, 28.3209l 4.53543, 35.8619l 4.53543, 38.9652l 4.53543, 37.9662l 4.53543, 33.8633l 4.53543, 27.9622l 4.53543, 21.5229l 4.53543, 15.5119l 4.53543, 10.5004l 4.53543, 6.69091l
 4.53543, 4.01998l 4.53543, 2.28017l 4.53543, 1.2222l 4.53543, 0.619568l 4.53543, 0.297222l 4.53543, 0.135003l 4.53543, 0.0580853l 4.53543, 0.0379037h 131.528" fill="none" stroke="#ff0000" stroke-width="2"/>
<path d="M503.933,347.224h 4.53543" fill="none" stroke="#ff0000" stroke-width="2"/>
<rect x="351.996" y="25.0773" width="204.094" height="108.025" fill="white"/>
<path d="M351.996,133.102h 204.094" fill="none" stroke="black"/>
<path d="M556.091,133.102v -108.025" fill="none" stroke="black"/>
<path d="M556.091,25.0773h -204.094" fill="none" stroke="black"/>
<path d="M351.996,25.0773v 108.025" fill="none" stroke="black"/>
<text xml:space="preserve" x="361.938" y="38.9865" fill="black" font-size="15.6962" font-family="Helvetica">Entries </text>
<text xml:space="preserve" x="515.447" y="38.9865" fill="black" font-size="15.6962" font-family="Helvetica"> 216</text>
<text xml:space="preserve" x="375.745" y="57.6676" fill="black" font-size="15.6962" font-family="Helvetica"> / ndf </text>
<text xml:space="preserve" x="370.06" y="52.7943" fill="black" font-size="10.6308" font-family="Helvetica">2</text>
<text xml:space="preserve" x="361.938" y="57.6676" fill="black" font-size="15.6962" font-family="Times">&#0967;</text>
<text xml:space="preserve" x="485.395" y="57.6676" fill="black" font-size="15.6962" font-family="Helvetica">  9.64 / 5</text>
<text xml:space="preserve" x="361.938" y="75.5364" fill="black" font-size="15.6962" font-family="Helvetica">Prob  </text>
<text xml:space="preserve" x="485.395" y="75.5364" fill="black" font-size="15.6962" font-family="Helvetica"> 0.08609</text>
<text xml:space="preserve" x="361.938" y="94.2175" fill="black" font-size="15.6962" font-family="Helvetica">Const    </text>
<text xml:space="preserve" x="511.386" y="93.4052" fill="black" font-size="15.6962" font-family="Helvetica"> 11.3</text>
<text xml:space="preserve" x="502.452" y="93.4052" fill="black" font-size="15.6962" font-family="Times">&#0177;</text>
<text xml:space="preserve" x="454.531" y="93.4052" fill="black" font-size="15.6962" font-family="Helvetica"> 122.7 </text>
<text xml:space="preserve" x="361.938" y="111.274" fill="black" font-size="15.6962" font-family="Helvetica">Mean     </text>
<text xml:space="preserve" x="520.32" y="111.274" fill="black" font-size="15.6962" font-family="Helvetica"> 0.2</text>
<text xml:space="preserve" x="511.386" y="111.274" fill="black" font-size="15.6962" font-family="Times">&#0177;</text>
<text xml:space="preserve" x="464.277" y="111.274" fill="black" font-size="15.6962" font-family="Helvetica"> 806.3 </text>
<text xml:space="preserve" x="361.938" y="128.331" fill="black" font-size="15.6962" font-family="Helvetica">Sigma    </text>
<text xml:space="preserve" x="502.452" y="129.143" fill="black" font-size="15.6962" font-family="Helvetica"> 0.159</text>
<text xml:space="preserve" x="493.517" y="129.143" fill="black" font-size="15.6962" font-family="Times">&#0177;</text>
<text xml:space="preserve" x="445.596" y="129.143" fill="black" font-size="15.6962" font-family="Helvetica"> 2.657 </text>
<path d="M57.1929,347.224h 453.543" fill="none" stroke="black"/>
<path d="M84.5516,337.964v 9.2593" fill="none" stroke="black"/>
<path d="M99.6623,342.594v 4.62965" fill="none" stroke="black"/>
<path d="M114.773,342.594v 4.62965" fill="none" stroke="black"/>
<path d="M129.884,342.594v 4.62965" fill="none" stroke="black"/>
<path d="M144.995,342.594v 4.62965" fill="none" stroke="black"/>
<path d="M160.105,337.964v 9.2593" fill="none" stroke="black"/>
<path d="M175.216,342.594v 4.62965" fill="none" stroke="black"/>
<path d="M190.327,342.594v 4.62965" fill="none" stroke="black"/>
<path d="M205.437,342.594v 4.62965" fill="none" stroke="black"/>
<path d="M220.548,342.594v 4.62965" fill="none" stroke="black"/>
<path d="M235.659,337.964v 9.2593" fill="none" stroke="black"/>
<path d="M250.77,342.594v 4.62965" fill="none" stroke="black"/>
<path d="M265.88,342.594v 4.62965" fill="none" stroke="black"/>
<path d="M280.991,342.594v 4.62965" fill="none" stroke="black"/>
<path d="M296.102,342.594v 4.62965" fill="none" stroke="black"/>
<path d="M311.213,337.964v 9.2593" fill="none" stroke="black"/>
<path d="M326.323,342.594v 4.62965" fill="none" stroke="black"/>
<path d="M341.434,342.594v 4.62965" fill="none" stroke="black"/>
<path d="M356.545,342.594v 4.62965" fill="none" stroke="black"/>
<path d="M371.656,342.594v 4.62965" fill="none" stroke="black"/>
<path d="M386.766,337.964v 9.2593" fill="none" stroke="black"/>
<path d="M401.877,342.594v 4.62965" fill="none" stroke="black"/>
<path d="M416.988,342.594v 4.62965" fill="none" stroke="black"/>
<path d="M432.098,342.594v 4.62965" fill="none" stroke="black"/>
<path d="M447.209,342.594v 4.62965" fill="none" stroke="black"/>
<path d="M462.32,337.964v 9.2593" fill="none" stroke="black"/>
<path d="M84.5516,337.964v 9.2593" fill="none" stroke="black"/>
<path d="M69.4409,342.594v 4.62965" fill="none" stroke="black"/>
<path d="M462.32,337.964v 9.2593" fill="none" stroke="black"/>
<path d="M477.431,342.594v 4.62965" fill="none" stroke="black"/>
<path d="M492.541,342.594v 4.62965" fill="none" stroke="black"/>
<path d="M507.652,342.594v 4.62965" fill="none" stroke="black"/>
<text xml:space="preserve" x="72.7875" y="359.813" fill="black" font-size="12.8882" font-family="Helvetica">780</text>
<text xml:space="preserve" x="148.324" y="359.813" fill="black" font-size="12.8882" font-family="Helvetica">790</text>
<text xml:space="preserve" x="223.86" y="359.813" fill="black" font-size="12.8882" font-family="Helvetica">800</text>
<text xml:space="preserve" x="299.397" y="359.813" fill="black" font-size="12.8882" font-family="Helvetica">810</text>
<text xml:space="preserve" x="374.933" y="359.813" fill="black" font-size="12.8882" font-family="Helvetica">820</text>
<text xml:space="preserve" x="450.47" y="359.813" fill="black" font-size="12.8882" font-family="Helvetica">830</text>
<text xml:space="preserve" x="457.78" y="372.809" fill="black" font-size="12.8882" font-family="Helvetica">Time [ns]</text>
<path d="M57.1929,347.224v -308.643" fill="none" stroke="black"/>
<path d="M70.7992,347.224h -13.6063" fill="none" stroke="black"/>
<path d="M63.9961,335.559h -6.80315" fill="none" stroke="black"/>
<path d="M63.9961,323.895h -6.80315" fill="none" stroke="black"/>
<path d="M63.9961,312.23h -6.80315" fill="none" stroke="black"/>
<path d="M70.7992,300.566h -13.6063" fill="none" stroke="black"/>
<path d="M63.9961,288.901h -6.80315" fill="none" stroke="black"/>
<path d="M63.9961,277.237h -6.80315" fill="none" stroke="black"/>
<path d="M63.9961,265.572h -6.80315" fill="none" stroke="black"/>
<path d="M70.7992,253.908h -13.6063" fill="none" stroke="black"/>
<path d="M63.9961,242.243h -6.80315" fill="none" stroke="black"/>
<path d="M63.9961,230.579h -6.80315" fill="none" stroke="black"/>
<path d="M63.9961,218.914h -6.80315" fill="none" stroke="black"/>
<path d="M70.7992,207.249h -13.6063" fill="none" stroke="black"/>
<path d="M63.9961,195.585h -6.80315" fill="none" stroke="black"/>
<path d="M63.9961,183.92h -6.80315" fill="none" stroke="black"/>
<path d="M63.9961,172.256h -6.80315" fill="none" stroke="black"/>
<path d="M70.7992,160.591h -13.6063" fill="none" stroke="black"/>
<path d="M63.9961,148.927h -6.80315" fill="none" stroke="black"/>
<path d="M63.9961,137.262h -6.80315" fill="none" stroke="black"/>
<path d="M63.9961,125.598h -6.80315" fill="none" stroke="black"/>
<path d="M70.7992,113.933h -13.6063" fill="none" stroke="black"/>
<path d="M63.9961,102.269h -6.80315" fill="none" stroke="black"/>
<path d="M63.9961,90.6042h -6.80315" fill="none" stroke="black"/>
<path d="M63.9961,78.9397h -6.80315" fill="none" stroke="black"/>
<path d="M70.7992,67.2752h -13.6063" fill="none" stroke="black"/>
<path d="M70.7992,67.2752h -13.6063" fill="none" stroke="black"/>
<path d="M63.9961,55.6106h -6.80315" fill="none" stroke="black"/>
<path d="M63.9961,43.9461h -6.80315" fill="none" stroke="black"/>
<text xml:space="preserve" x="46.7965" y="351.691" fill="black" font-size="12.8882" font-family="Helvetica">0</text>
<text xml:space="preserve" x="39.4865" y="305.395" fill="black" font-size="12.8882" font-family="Helvetica">20</text>
<text xml:space="preserve" x="39.4865" y="258.286" fill="black" font-size="12.8882" font-family="Helvetica">40</text>
<text xml:space="preserve" x="39.4865" y="211.989" fill="black" font-size="12.8882" font-family="Helvetica">60</text>
<text xml:space="preserve" x="39.4865" y="164.881" fill="black" font-size="12.8882" font-family="Helvetica">80</text>
<text xml:space="preserve" x="32.1766" y="118.584" fill="black" font-size="12.8882" font-family="Helvetica">100</text>
<text xml:space="preserve" x="32.1766" y="71.4753" fill="black" font-size="12.8882" font-family="Helvetica">120</text>
<g transform="rotate(-90,21.6177,71.4753)">
<text xml:space="preserve" x="21.6177" y="71.4753" fill="black" font-size="12.8882" font-family="Helvetica">Event</text>
</g>
<rect x="351.996" y="25.0773" width="204.094" height="108.025" fill="white"/>
<path d="M351.996,133.102h 204.094" fill="none" stroke="black"/>
<path d="M556.091,133.102v -108.025" fill="none" stroke="black"/>
<path d="M556.091,25.0773h -204.094" fill="none" stroke="black"/>
<path d="M351.996,25.0773v 108.025" fill="none" stroke="black"/>
<text xml:space="preserve" x="361.938" y="38.9865" fill="black" font-size="15.6962" font-family="Helvetica">Entries </text>
<text xml:space="preserve" x="515.447" y="38.9865" fill="black" font-size="15.6962" font-family="Helvetica"> 216</text>
<text xml:space="preserve" x="375.745" y="57.6676" fill="black" font-size="15.6962" font-family="Helvetica"> / ndf </text>
<text xml:space="preserve" x="370.06" y="52.7943" fill="black" font-size="10.6308" font-family="Helvetica">2</text>
<text xml:space="preserve" x="361.938" y="57.6676" fill="black" font-size="15.6962" font-family="Times">&#0967;</text>
<text xml:space="preserve" x="485.395" y="57.6676" fill="black" font-size="15.6962" font-family="Helvetica">  9.64 / 5</text>
<text xml:space="preserve" x="361.938" y="75.5364" fill="black" font-size="15.6962" font-family="Helvetica">Prob  </text>
<text xml:space="preserve" x="485.395" y="75.5364" fill="black" font-size="15.6962" font-family="Helvetica"> 0.08609</text>
<text xml:space="preserve" x="361.938" y="94.2175" fill="black" font-size="15.6962" font-family="Helvetica">Const    </text>
<text xml:space="preserve" x="511.386" y="93.4052" fill="black" font-size="15.6962" font-family="Helvetica"> 11.3</text>
<text xml:space="preserve" x="502.452" y="93.4052" fill="black" font-size="15.6962" font-family="Times">&#0177;</text>
<text xml:space="preserve" x="454.531" y="93.4052" fill="black" font-size="15.6962" font-family="Helvetica"> 122.7 </text>
<text xml:space="preserve" x="361.938" y="111.274" fill="black" font-size="15.6962" font-family="Helvetica">Mean     </text>
<text xml:space="preserve" x="520.32" y="111.274" fill="black" font-size="15.6962" font-family="Helvetica"> 0.2</text>
<text xml:space="preserve" x="511.386" y="111.274" fill="black" font-size="15.6962" font-family="Times">&#0177;</text>
<text xml:space="preserve" x="464.277" y="111.274" fill="black" font-size="15.6962" font-family="Helvetica"> 806.3 </text>
<text xml:space="preserve" x="361.938" y="128.331" fill="black" font-size="15.6962" font-family="Helvetica">Sigma    </text>
<text xml:space="preserve" x="502.452" y="129.143" fill="black" font-size="15.6962" font-family="Helvetica"> 0.159</text>
<text xml:space="preserve" x="493.517" y="129.143" fill="black" font-size="15.6962" font-family="Times">&#0177;</text>
<text xml:space="preserve" x="445.596" y="129.143" fill="black" font-size="15.6962" font-family="Helvetica"> 2.657 </text>
<text xml:space="preserve" x="243.354" y="18.681" fill="black" font-size="17.0471" font-family="Helvetica">140mm 23</text></svg>
