<?xml version="1.0" standalone="no"?>
<svg width="567.429" height="384.969" viewBox="0 0 567.429 384.969" xmlns="http://www.w3.org/2000/svg" shape-rendering="crispEdges">
<title>
img/week2/Combined0mm_ch_38.svg
</title>
<desc>
Creator: ROOT Version 6.22/09
CreationDate: Thu Jun 24 12:33:06 2021</desc>
<defs>
</defs>
<rect x="0.5" y="0" width="566.929" height="384.469" fill="white"/>
<rect x="57.1929" y="38.4469" width="453.543" height="307.575" fill="white"/>
<rect x="57.1929" y="38.4469" width="453.543" height="307.575" fill="none" stroke="black"/>
<rect x="57.1929" y="38.4469" width="453.543" height="307.575" fill="white"/>
<rect x="57.1929" y="38.4469" width="453.543" height="307.575" fill="none" stroke="black"/>
<path d="M57.1929,346.022h 104.664v -5.01535h 34.8879v -5.01535h 34.8879v -35.1075h 34.8879v -240.737h 34.8879v 142.938h 34.8879v 140.43h 34.8879v 2.50768h 139.552" fill="none" stroke="#000099"/>
<g fill="#ff0000">
<polygon points=" 279.729, 55.9115 288.2, 55.9115 283.965, 64.3828"/>
</g>
<path d="M59.4606,346.022h 136.063l 4.53543, -0.0319178l 4.53543, -0.0458416l 4.53543, -0.103273l 4.53543, -0.221725l 4.53543, -0.453519l 4.53543, -0.883398l 4.53543, -1.63791l 4.53543, -2.88895l 4.53543, -4.84394l 4.53543, -7.71393l 4.53543,
 -11.6541l 4.53543, -16.6789l 4.53543, -22.5678l 4.53543, -28.7922l 4.53543, -34.5036l 4.53543, -38.616l 4.53543, -39.9969l 4.53543, -37.7356l 4.53543, -31.4227" fill="none" stroke="#ff0000" stroke-width="2"/>
<path d="M281.697,65.2301l 4.53543, -21.3493l 2.88487, -5.43387" fill="none" stroke="#ff0000" stroke-width="2"/>
<path d="M293.381,38.4469l 1.92168, 2.28577" fill="none" stroke="#ff0000" stroke-width="2"/>
<path d="M295.303,40.7327l 4.53543, 18.6156l 4.53543, 29.4282l 4.53543, 36.6527l 4.53543, 39.8261l 4.53543, 39.2104l 4.53543, 35.6252l 4.53543, 30.1778l 4.53543, 23.9851l 4.53543, 17.9611l 4.53543, 12.7094l 4.53543, 8.51583l 4.53543, 5.41158l
 4.53543, 3.26542l 4.53543, 1.87275l 4.53543, 1.02158l 4.53543, 0.530376l 4.53543, 0.262199l 4.53543, 0.12348l 4.53543, 0.0554151l 4.53543, 0.0392704h 122.457" fill="none" stroke="#ff0000" stroke-width="2"/>
<path d="M57.1929,346.022h 453.543" fill="none" stroke="black"/>
<path d="M106.162,336.795v 9.22726" fill="none" stroke="black"/>
<path d="M123.597,341.409v 4.61363" fill="none" stroke="black"/>
<path d="M141.033,341.409v 4.61363" fill="none" stroke="black"/>
<path d="M158.468,341.409v 4.61363" fill="none" stroke="black"/>
<path d="M175.904,341.409v 4.61363" fill="none" stroke="black"/>
<path d="M193.339,336.795v 9.22726" fill="none" stroke="black"/>
<path d="M210.775,341.409v 4.61363" fill="none" stroke="black"/>
<path d="M228.21,341.409v 4.61363" fill="none" stroke="black"/>
<path d="M245.646,341.409v 4.61363" fill="none" stroke="black"/>
<path d="M263.081,341.409v 4.61363" fill="none" stroke="black"/>
<path d="M280.517,336.795v 9.22726" fill="none" stroke="black"/>
<path d="M297.952,341.409v 4.61363" fill="none" stroke="black"/>
<path d="M315.388,341.409v 4.61363" fill="none" stroke="black"/>
<path d="M332.823,341.409v 4.61363" fill="none" stroke="black"/>
<path d="M350.258,341.409v 4.61363" fill="none" stroke="black"/>
<path d="M367.694,336.795v 9.22726" fill="none" stroke="black"/>
<path d="M385.129,341.409v 4.61363" fill="none" stroke="black"/>
<path d="M402.565,341.409v 4.61363" fill="none" stroke="black"/>
<path d="M420,341.409v 4.61363" fill="none" stroke="black"/>
<path d="M437.436,341.409v 4.61363" fill="none" stroke="black"/>
<path d="M454.871,336.795v 9.22726" fill="none" stroke="black"/>
<path d="M106.162,336.795v 9.22726" fill="none" stroke="black"/>
<path d="M88.7266,341.409v 4.61363" fill="none" stroke="black"/>
<path d="M71.2911,341.409v 4.61363" fill="none" stroke="black"/>
<path d="M454.871,336.795v 9.22726" fill="none" stroke="black"/>
<path d="M472.307,341.409v 4.61363" fill="none" stroke="black"/>
<path d="M489.742,341.409v 4.61363" fill="none" stroke="black"/>
<path d="M507.178,341.409v 4.61363" fill="none" stroke="black"/>
<text xml:space="preserve" x="94.9882" y="358.403" fill="black" font-size="12.8453" font-family="Helvetica">790</text>
<text xml:space="preserve" x="182.145" y="358.403" fill="black" font-size="12.8453" font-family="Helvetica">800</text>
<text xml:space="preserve" x="269.303" y="358.403" fill="black" font-size="12.8453" font-family="Helvetica">810</text>
<text xml:space="preserve" x="356.46" y="358.403" fill="black" font-size="12.8453" font-family="Helvetica">820</text>
<text xml:space="preserve" x="443.617" y="358.403" fill="black" font-size="12.8453" font-family="Helvetica">830</text>
<text xml:space="preserve" x="460.723" y="370.622" fill="black" font-size="12.8453" font-family="Helvetica">Time [ns]</text>
<path d="M57.1929,346.022v -307.575" fill="none" stroke="black"/>
<path d="M70.7992,346.022h -13.6063" fill="none" stroke="black"/>
<path d="M63.9961,333.484h -6.80315" fill="none" stroke="black"/>
<path d="M63.9961,320.945h -6.80315" fill="none" stroke="black"/>
<path d="M63.9961,308.407h -6.80315" fill="none" stroke="black"/>
<path d="M70.7992,295.869h -13.6063" fill="none" stroke="black"/>
<path d="M63.9961,283.33h -6.80315" fill="none" stroke="black"/>
<path d="M63.9961,270.792h -6.80315" fill="none" stroke="black"/>
<path d="M63.9961,258.254h -6.80315" fill="none" stroke="black"/>
<path d="M70.7992,245.715h -13.6063" fill="none" stroke="black"/>
<path d="M63.9961,233.177h -6.80315" fill="none" stroke="black"/>
<path d="M63.9961,220.638h -6.80315" fill="none" stroke="black"/>
<path d="M63.9961,208.1h -6.80315" fill="none" stroke="black"/>
<path d="M70.7992,195.562h -13.6063" fill="none" stroke="black"/>
<path d="M63.9961,183.023h -6.80315" fill="none" stroke="black"/>
<path d="M63.9961,170.485h -6.80315" fill="none" stroke="black"/>
<path d="M63.9961,157.947h -6.80315" fill="none" stroke="black"/>
<path d="M70.7992,145.408h -13.6063" fill="none" stroke="black"/>
<path d="M63.9961,132.87h -6.80315" fill="none" stroke="black"/>
<path d="M63.9961,120.331h -6.80315" fill="none" stroke="black"/>
<path d="M63.9961,107.793h -6.80315" fill="none" stroke="black"/>
<path d="M70.7992,95.2546h -13.6063" fill="none" stroke="black"/>
<path d="M63.9961,82.7162h -6.80315" fill="none" stroke="black"/>
<path d="M63.9961,70.1779h -6.80315" fill="none" stroke="black"/>
<path d="M63.9961,57.6395h -6.80315" fill="none" stroke="black"/>
<path d="M70.7992,45.1011h -13.6063" fill="none" stroke="black"/>
<path d="M70.7992,45.1011h -13.6063" fill="none" stroke="black"/>
<text xml:space="preserve" x="47.7441" y="350.258" fill="black" font-size="12.8453" font-family="Helvetica">0</text>
<text xml:space="preserve" x="41.2277" y="300.57" fill="black" font-size="12.8453" font-family="Helvetica">20</text>
<text xml:space="preserve" x="41.2277" y="250.068" fill="black" font-size="12.8453" font-family="Helvetica">40</text>
<text xml:space="preserve" x="41.2277" y="200.38" fill="black" font-size="12.8453" font-family="Helvetica">60</text>
<text xml:space="preserve" x="41.2277" y="149.878" fill="black" font-size="12.8453" font-family="Helvetica">80</text>
<text xml:space="preserve" x="33.8967" y="99.3755" fill="black" font-size="12.8453" font-family="Helvetica">100</text>
<text xml:space="preserve" x="33.8967" y="49.6878" fill="black" font-size="12.8453" font-family="Helvetica">120</text>
<g transform="rotate(-90,20.8638,70.0516)">
<text xml:space="preserve" x="20.8638" y="70.0516" fill="black" font-size="12.8453" font-family="Helvetica">Event</text>
</g>
<text xml:space="preserve" x="253.012" y="18.7347" fill="black" font-size="16.9898" font-family="Helvetica">0mm 38</text></svg>
