<?xml version="1.0" standalone="no"?>
<svg width="567.429" height="384.969" viewBox="0 0 567.429 384.969" xmlns="http://www.w3.org/2000/svg" shape-rendering="crispEdges">
<title>
img/week2/NonCombinedTimeDistGraph_ch_4_5_6_7.svg
</title>
<desc>
Creator: ROOT Version 6.22/09
CreationDate: Thu Jun 24 12:33:05 2021</desc>
<defs>
</defs>
<rect x="0.5" y="0" width="566.929" height="384.469" fill="white"/>
<rect x="57.1929" y="38.4469" width="453.543" height="307.575" fill="white"/>
<rect x="57.1929" y="38.4469" width="453.543" height="307.575" fill="none" stroke="black"/>
<rect x="57.1929" y="38.4469" width="453.543" height="307.575" fill="white"/>
<rect x="57.1929" y="38.4469" width="453.543" height="307.575" fill="none" stroke="black"/>
<path d="M57.1929,346.022h 453.543" fill="none" stroke="black"/>
<path d="M57.252,336.795v 9.22726" fill="none" stroke="black"/>
<path d="M67.2773,341.409v 4.61363" fill="none" stroke="black"/>
<path d="M77.3026,341.409v 4.61363" fill="none" stroke="black"/>
<path d="M87.3279,341.409v 4.61363" fill="none" stroke="black"/>
<path d="M97.3532,341.409v 4.61363" fill="none" stroke="black"/>
<path d="M107.379,336.795v 9.22726" fill="none" stroke="black"/>
<path d="M117.404,341.409v 4.61363" fill="none" stroke="black"/>
<path d="M127.429,341.409v 4.61363" fill="none" stroke="black"/>
<path d="M137.454,341.409v 4.61363" fill="none" stroke="black"/>
<path d="M147.48,341.409v 4.61363" fill="none" stroke="black"/>
<path d="M157.505,336.795v 9.22726" fill="none" stroke="black"/>
<path d="M167.53,341.409v 4.61363" fill="none" stroke="black"/>
<path d="M177.556,341.409v 4.61363" fill="none" stroke="black"/>
<path d="M187.581,341.409v 4.61363" fill="none" stroke="black"/>
<path d="M197.606,341.409v 4.61363" fill="none" stroke="black"/>
<path d="M207.632,336.795v 9.22726" fill="none" stroke="black"/>
<path d="M217.657,341.409v 4.61363" fill="none" stroke="black"/>
<path d="M227.682,341.409v 4.61363" fill="none" stroke="black"/>
<path d="M237.707,341.409v 4.61363" fill="none" stroke="black"/>
<path d="M247.733,341.409v 4.61363" fill="none" stroke="black"/>
<path d="M257.758,336.795v 9.22726" fill="none" stroke="black"/>
<path d="M267.783,341.409v 4.61363" fill="none" stroke="black"/>
<path d="M277.809,341.409v 4.61363" fill="none" stroke="black"/>
<path d="M287.834,341.409v 4.61363" fill="none" stroke="black"/>
<path d="M297.859,341.409v 4.61363" fill="none" stroke="black"/>
<path d="M307.885,336.795v 9.22726" fill="none" stroke="black"/>
<path d="M317.91,341.409v 4.61363" fill="none" stroke="black"/>
<path d="M327.935,341.409v 4.61363" fill="none" stroke="black"/>
<path d="M337.96,341.409v 4.61363" fill="none" stroke="black"/>
<path d="M347.986,341.409v 4.61363" fill="none" stroke="black"/>
<path d="M358.011,336.795v 9.22726" fill="none" stroke="black"/>
<path d="M368.036,341.409v 4.61363" fill="none" stroke="black"/>
<path d="M378.062,341.409v 4.61363" fill="none" stroke="black"/>
<path d="M388.087,341.409v 4.61363" fill="none" stroke="black"/>
<path d="M398.112,341.409v 4.61363" fill="none" stroke="black"/>
<path d="M408.138,336.795v 9.22726" fill="none" stroke="black"/>
<path d="M418.163,341.409v 4.61363" fill="none" stroke="black"/>
<path d="M428.188,341.409v 4.61363" fill="none" stroke="black"/>
<path d="M438.214,341.409v 4.61363" fill="none" stroke="black"/>
<path d="M448.239,341.409v 4.61363" fill="none" stroke="black"/>
<path d="M458.264,336.795v 9.22726" fill="none" stroke="black"/>
<path d="M468.289,341.409v 4.61363" fill="none" stroke="black"/>
<path d="M478.315,341.409v 4.61363" fill="none" stroke="black"/>
<path d="M488.34,341.409v 4.61363" fill="none" stroke="black"/>
<path d="M498.365,341.409v 4.61363" fill="none" stroke="black"/>
<path d="M508.391,336.795v 9.22726" fill="none" stroke="black"/>
<path d="M57.252,336.795v 9.22726" fill="none" stroke="black"/>
<path d="M508.391,336.795v 9.22726" fill="none" stroke="black"/>
<text xml:space="preserve" x="56.7042" y="358.403" fill="black" font-size="12.8453" font-family="Helvetica">5</text>
<text xml:space="preserve" x="49.3732" y="358.403" fill="black" font-size="12.8453" font-family="Times">&#8722;</text>
<text xml:space="preserve" x="107.206" y="358.403" fill="black" font-size="12.8453" font-family="Helvetica">4</text>
<text xml:space="preserve" x="99.8755" y="358.403" fill="black" font-size="12.8453" font-family="Times">&#8722;</text>
<text xml:space="preserve" x="156.894" y="358.403" fill="black" font-size="12.8453" font-family="Helvetica">3</text>
<text xml:space="preserve" x="149.563" y="358.403" fill="black" font-size="12.8453" font-family="Times">&#8722;</text>
<text xml:space="preserve" x="207.397" y="358.403" fill="black" font-size="12.8453" font-family="Helvetica">2</text>
<text xml:space="preserve" x="200.066" y="358.403" fill="black" font-size="12.8453" font-family="Times">&#8722;</text>
<text xml:space="preserve" x="257.899" y="358.403" fill="black" font-size="12.8453" font-family="Helvetica">1</text>
<text xml:space="preserve" x="250.568" y="358.403" fill="black" font-size="12.8453" font-family="Times">&#8722;</text>
<text xml:space="preserve" x="304.328" y="358.403" fill="black" font-size="12.8453" font-family="Helvetica">0</text>
<text xml:space="preserve" x="354.831" y="358.403" fill="black" font-size="12.8453" font-family="Helvetica">1</text>
<text xml:space="preserve" x="404.518" y="358.403" fill="black" font-size="12.8453" font-family="Helvetica">2</text>
<text xml:space="preserve" x="454.206" y="358.403" fill="black" font-size="12.8453" font-family="Helvetica">3</text>
<text xml:space="preserve" x="504.709" y="358.403" fill="black" font-size="12.8453" font-family="Helvetica">4</text>
<text xml:space="preserve" x="448.504" y="370.622" fill="black" font-size="12.8453" font-family="Helvetica">time lag[ns]</text>
<path d="M57.1929,346.022v -307.575" fill="none" stroke="black"/>
<path d="M70.7992,346.022h -13.6063" fill="none" stroke="black"/>
<path d="M63.9961,337.676h -6.80315" fill="none" stroke="black"/>
<path d="M63.9961,329.329h -6.80315" fill="none" stroke="black"/>
<path d="M63.9961,320.982h -6.80315" fill="none" stroke="black"/>
<path d="M63.9961,312.636h -6.80315" fill="none" stroke="black"/>
<path d="M70.7992,304.289h -13.6063" fill="none" stroke="black"/>
<path d="M63.9961,295.942h -6.80315" fill="none" stroke="black"/>
<path d="M63.9961,287.595h -6.80315" fill="none" stroke="black"/>
<path d="M63.9961,279.249h -6.80315" fill="none" stroke="black"/>
<path d="M63.9961,270.902h -6.80315" fill="none" stroke="black"/>
<path d="M70.7992,262.555h -13.6063" fill="none" stroke="black"/>
<path d="M63.9961,254.209h -6.80315" fill="none" stroke="black"/>
<path d="M63.9961,245.862h -6.80315" fill="none" stroke="black"/>
<path d="M63.9961,237.515h -6.80315" fill="none" stroke="black"/>
<path d="M63.9961,229.169h -6.80315" fill="none" stroke="black"/>
<path d="M70.7992,220.822h -13.6063" fill="none" stroke="black"/>
<path d="M63.9961,212.475h -6.80315" fill="none" stroke="black"/>
<path d="M63.9961,204.129h -6.80315" fill="none" stroke="black"/>
<path d="M63.9961,195.782h -6.80315" fill="none" stroke="black"/>
<path d="M63.9961,187.435h -6.80315" fill="none" stroke="black"/>
<path d="M70.7992,179.089h -13.6063" fill="none" stroke="black"/>
<path d="M63.9961,170.742h -6.80315" fill="none" stroke="black"/>
<path d="M63.9961,162.395h -6.80315" fill="none" stroke="black"/>
<path d="M63.9961,154.049h -6.80315" fill="none" stroke="black"/>
<path d="M63.9961,145.702h -6.80315" fill="none" stroke="black"/>
<path d="M70.7992,137.355h -13.6063" fill="none" stroke="black"/>
<path d="M63.9961,129.008h -6.80315" fill="none" stroke="black"/>
<path d="M63.9961,120.662h -6.80315" fill="none" stroke="black"/>
<path d="M63.9961,112.315h -6.80315" fill="none" stroke="black"/>
<path d="M63.9961,103.968h -6.80315" fill="none" stroke="black"/>
<path d="M70.7992,95.6217h -13.6063" fill="none" stroke="black"/>
<path d="M63.9961,87.275h -6.80315" fill="none" stroke="black"/>
<path d="M63.9961,78.9283h -6.80315" fill="none" stroke="black"/>
<path d="M63.9961,70.5817h -6.80315" fill="none" stroke="black"/>
<path d="M63.9961,62.235h -6.80315" fill="none" stroke="black"/>
<path d="M70.7992,53.8883h -13.6063" fill="none" stroke="black"/>
<path d="M70.7992,53.8883h -13.6063" fill="none" stroke="black"/>
<path d="M63.9961,45.5416h -6.80315" fill="none" stroke="black"/>
<text xml:space="preserve" x="47.7441" y="350.258" fill="black" font-size="12.8453" font-family="Helvetica">0</text>
<text xml:space="preserve" x="33.8967" y="308.716" fill="black" font-size="12.8453" font-family="Helvetica">100</text>
<text xml:space="preserve" x="33.8967" y="267.173" fill="black" font-size="12.8453" font-family="Helvetica">200</text>
<text xml:space="preserve" x="33.8967" y="225.631" fill="black" font-size="12.8453" font-family="Helvetica">300</text>
<text xml:space="preserve" x="33.8967" y="183.275" fill="black" font-size="12.8453" font-family="Helvetica">400</text>
<text xml:space="preserve" x="33.8967" y="141.732" fill="black" font-size="12.8453" font-family="Helvetica">500</text>
<text xml:space="preserve" x="33.8967" y="100.19" fill="black" font-size="12.8453" font-family="Helvetica">600</text>
<text xml:space="preserve" x="33.8967" y="58.6478" fill="black" font-size="12.8453" font-family="Helvetica">700</text>
<g transform="rotate(-90,20.0493,114.037)">
<text xml:space="preserve" x="20.0493" y="114.037" fill="black" font-size="12.8453" font-family="Helvetica">distance [mm]</text>
</g>
<g fill="black">
<circle cx="121.29" cy="346.022" r="3.25821"/>
<circle cx="223.86" cy="287.595" r="3.25821"/>
<circle cx="272.956" cy="229.169" r="3.25821"/>
<circle cx="353.957" cy="170.742" r="3.25821"/>
<circle cx="447.864" cy="112.315" r="3.25821"/>
<circle cx="423.054" cy="66.4083" r="3.25821"/>
</g>
<path d="M132.533,346.022l 4.02962, -3.19896" fill="none" stroke="#ff0000" stroke-width="2"/>
<path d="M136.563,342.823l 4.53543, -3.60051l 4.53543, -3.60051l 4.53543, -3.60051l 4.53543, -3.60051l 4.53543, -3.60051l 4.53543, -3.60051l 4.53543, -3.60051l 4.53543, -3.60051l 4.53543, -3.60051l 4.53543, -3.60051l 4.53543, -3.60051l 4.53543,
 -3.60051l 4.53543, -3.60051l 4.53543, -3.60051l 4.53543, -3.60051l 4.53543, -3.60051l 4.53543, -3.60051l 4.53543, -3.60051l 4.53543, -3.60051l 4.53543, -3.60051l 4.53543, -3.60051l 4.53543, -3.60051l 4.53543, -3.60051l 4.53543, -3.60051l 4.53543,
 -3.60051l 4.53543, -3.60051l 4.53543, -3.60051l 4.53543, -3.60051l 4.53543, -3.60051l 4.53543, -3.60051l 4.53543, -3.60051l 4.53543, -3.60051l 4.53543, -3.60051l 4.53543, -3.60051l 4.53543, -3.60051l 4.53543, -3.60051l 4.53543, -3.60051l 4.53543,
 -3.60051l 4.53543, -3.60051l 4.53543, -3.60051l 4.53543, -3.60051l 4.53543, -3.60051l 4.53543, -3.60051l 4.53543, -3.60051l 4.53543, -3.60051l 4.53543, -3.60051l 4.53543, -3.60051l 4.53543, -3.60051" fill="none" stroke="#ff0000" stroke-width="2"/>
<path d="M354.264,169.999l 4.53543, -3.60051l 4.53543, -3.60051l 4.53543, -3.60051l 4.53543, -3.60051l 4.53543, -3.60051l 4.53543, -3.60051l 4.53543, -3.60051l 4.53543, -3.60051l 4.53543, -3.60051l 4.53543, -3.60051l 4.53543, -3.60051l 4.53543,
 -3.60051l 4.53543, -3.60051l 4.53543, -3.60051l 4.53543, -3.60051l 4.53543, -3.60051l 4.53543, -3.60051l 4.53543, -3.60051l 4.53543, -3.60051l 4.53543, -3.60051l 4.53543, -3.60051l 4.53543, -3.60051l 4.53543, -3.60051l 4.53543, -3.60051l 4.53543,
 -3.60051l 4.53543, -3.60051l 4.53543, -3.60051l 4.53543, -3.60051l 4.53543, -3.60051l 4.53543, -3.60051l 4.53543, -3.60051l 4.53543, -3.60051l 4.53543, -3.60051l 4.53543, -3.60051" fill="none" stroke="#ff0000" stroke-width="2"/>
<path d="M121.29,346.022h -26.3019" fill="none" stroke="black"/>
<path d="M94.9882,346.022v -1.62911" fill="none" stroke="black"/>
<path d="M121.29,346.022h 26.3019" fill="none" stroke="black"/>
<path d="M147.592,346.022v -1.62911" fill="none" stroke="black"/>
<path d="M223.86,287.595h -25.7027" fill="none" stroke="black"/>
<path d="M198.157,289.225v -3.25821" fill="none" stroke="black"/>
<path d="M223.86,287.595h 25.7027" fill="none" stroke="black"/>
<path d="M249.563,289.225v -3.25821" fill="none" stroke="black"/>
<path d="M272.956,229.169h -19.0163" fill="none" stroke="black"/>
<path d="M253.94,230.798v -3.25821" fill="none" stroke="black"/>
<path d="M272.956,229.169h 19.0163" fill="none" stroke="black"/>
<path d="M291.973,230.798v -3.25821" fill="none" stroke="black"/>
<path d="M353.957,170.742h -22.8459" fill="none" stroke="black"/>
<path d="M331.111,172.371v -3.25821" fill="none" stroke="black"/>
<path d="M353.957,170.742h 22.8459" fill="none" stroke="black"/>
<path d="M376.803,172.371v -3.25821" fill="none" stroke="black"/>
<path d="M447.864,112.315h -25.0773" fill="none" stroke="black"/>
<path d="M422.786,113.944v -3.25821" fill="none" stroke="black"/>
<path d="M447.864,112.315h 25.0773" fill="none" stroke="black"/>
<path d="M472.941,113.944v -3.25821" fill="none" stroke="black"/>
<path d="M423.054,66.4083h -48.3783" fill="none" stroke="black"/>
<path d="M374.676,68.0374v -3.25821" fill="none" stroke="black"/>
<path d="M423.054,66.4083h 48.3783" fill="none" stroke="black"/>
<path d="M471.433,68.0374v -3.25821" fill="none" stroke="black"/>
<path d="M121.29,346.022h -26.3019" fill="none" stroke="black"/>
<path d="M94.9882,346.022v -1.62911" fill="none" stroke="black"/>
<path d="M121.29,346.022h 26.3019" fill="none" stroke="black"/>
<path d="M147.592,346.022v -1.62911" fill="none" stroke="black"/>
<path d="M223.86,287.595h -25.7027" fill="none" stroke="black"/>
<path d="M198.157,289.225v -3.25821" fill="none" stroke="black"/>
<path d="M223.86,287.595h 25.7027" fill="none" stroke="black"/>
<path d="M249.563,289.225v -3.25821" fill="none" stroke="black"/>
<path d="M272.956,229.169h -19.0163" fill="none" stroke="black"/>
<path d="M253.94,230.798v -3.25821" fill="none" stroke="black"/>
<path d="M272.956,229.169h 19.0163" fill="none" stroke="black"/>
<path d="M291.973,230.798v -3.25821" fill="none" stroke="black"/>
<path d="M353.957,170.742h -22.8459" fill="none" stroke="black"/>
<path d="M331.111,172.371v -3.25821" fill="none" stroke="black"/>
<path d="M353.957,170.742h 22.8459" fill="none" stroke="black"/>
<path d="M376.803,172.371v -3.25821" fill="none" stroke="black"/>
<path d="M447.864,112.315h -25.0773" fill="none" stroke="black"/>
<path d="M422.786,113.944v -3.25821" fill="none" stroke="black"/>
<path d="M447.864,112.315h 25.0773" fill="none" stroke="black"/>
<path d="M472.941,113.944v -3.25821" fill="none" stroke="black"/>
<path d="M423.054,66.4083h -48.3783" fill="none" stroke="black"/>
<path d="M374.676,68.0374v -3.25821" fill="none" stroke="black"/>
<path d="M423.054,66.4083h 48.3783" fill="none" stroke="black"/>
<path d="M471.433,68.0374v -3.25821" fill="none" stroke="black"/>
<g fill="black">
<circle cx="121.29" cy="346.022" r="3.25821"/>
<circle cx="223.86" cy="287.595" r="3.25821"/>
<circle cx="272.956" cy="229.169" r="3.25821"/>
<circle cx="353.957" cy="170.742" r="3.25821"/>
<circle cx="447.864" cy="112.315" r="3.25821"/>
<circle cx="423.054" cy="66.4083" r="3.25821"/>
</g>
<path d="M132.533,346.022l 4.02962, -3.19896" fill="none" stroke="#ff0000" stroke-width="2"/>
<path d="M136.563,342.823l 4.53543, -3.60051l 4.53543, -3.60051l 4.53543, -3.60051l 4.53543, -3.60051l 4.53543, -3.60051l 4.53543, -3.60051l 4.53543, -3.60051l 4.53543, -3.60051l 4.53543, -3.60051l 4.53543, -3.60051l 4.53543, -3.60051l 4.53543,
 -3.60051l 4.53543, -3.60051l 4.53543, -3.60051l 4.53543, -3.60051l 4.53543, -3.60051l 4.53543, -3.60051l 4.53543, -3.60051l 4.53543, -3.60051l 4.53543, -3.60051l 4.53543, -3.60051l 4.53543, -3.60051l 4.53543, -3.60051l 4.53543, -3.60051l 4.53543,
 -3.60051l 4.53543, -3.60051l 4.53543, -3.60051l 4.53543, -3.60051l 4.53543, -3.60051l 4.53543, -3.60051l 4.53543, -3.60051l 4.53543, -3.60051l 4.53543, -3.60051l 4.53543, -3.60051l 4.53543, -3.60051l 4.53543, -3.60051l 4.53543, -3.60051l 4.53543,
 -3.60051l 4.53543, -3.60051l 4.53543, -3.60051l 4.53543, -3.60051l 4.53543, -3.60051l 4.53543, -3.60051l 4.53543, -3.60051l 4.53543, -3.60051l 4.53543, -3.60051l 4.53543, -3.60051l 4.53543, -3.60051" fill="none" stroke="#ff0000" stroke-width="2"/>
<path d="M354.264,169.999l 4.53543, -3.60051l 4.53543, -3.60051l 4.53543, -3.60051l 4.53543, -3.60051l 4.53543, -3.60051l 4.53543, -3.60051l 4.53543, -3.60051l 4.53543, -3.60051l 4.53543, -3.60051l 4.53543, -3.60051l 4.53543, -3.60051l 4.53543,
 -3.60051l 4.53543, -3.60051l 4.53543, -3.60051l 4.53543, -3.60051l 4.53543, -3.60051l 4.53543, -3.60051l 4.53543, -3.60051l 4.53543, -3.60051l 4.53543, -3.60051l 4.53543, -3.60051l 4.53543, -3.60051l 4.53543, -3.60051l 4.53543, -3.60051l 4.53543,
 -3.60051l 4.53543, -3.60051l 4.53543, -3.60051l 4.53543, -3.60051l 4.53543, -3.60051l 4.53543, -3.60051l 4.53543, -3.60051l 4.53543, -3.60051l 4.53543, -3.60051l 4.53543, -3.60051" fill="none" stroke="#ff0000" stroke-width="2"/>
<path d="M145.327,346.022h -22.7989" fill="none" stroke="black"/>
<path d="M122.528,346.022v -1.62911" fill="none" stroke="black"/>
<path d="M145.327,346.022h 22.7989" fill="none" stroke="black"/>
<path d="M168.126,346.022v -1.62911" fill="none" stroke="black"/>
<path d="M210.451,287.595h -21.3318" fill="none" stroke="black"/>
<path d="M189.119,289.225v -3.25821" fill="none" stroke="black"/>
<path d="M210.451,287.595h 21.3318" fill="none" stroke="black"/>
<path d="M231.782,289.225v -3.25821" fill="none" stroke="black"/>
<path d="M272.125,229.169h -20.1323" fill="none" stroke="black"/>
<path d="M251.993,230.798v -3.25821" fill="none" stroke="black"/>
<path d="M272.125,229.169h 20.1323" fill="none" stroke="black"/>
<path d="M292.258,230.798v -3.25821" fill="none" stroke="black"/>
<path d="M375.101,170.742h -26.3871" fill="none" stroke="black"/>
<path d="M348.714,172.371v -3.25821" fill="none" stroke="black"/>
<path d="M375.101,170.742h 26.3871" fill="none" stroke="black"/>
<path d="M401.488,172.371v -3.25821" fill="none" stroke="black"/>
<path d="M472.112,112.315h -27.7652" fill="none" stroke="black"/>
<path d="M444.347,113.944v -3.25821" fill="none" stroke="black"/>
<path d="M472.112,112.315h 27.7652" fill="none" stroke="black"/>
<path d="M499.878,113.944v -3.25821" fill="none" stroke="black"/>
<path d="M497.208,66.4083h -29.5192" fill="none" stroke="black"/>
<path d="M467.688,68.0374v -3.25821" fill="none" stroke="black"/>
<path d="M497.208,66.4083h 13.5287" fill="none" stroke="black"/>
<g stroke="black" stroke-width="1" fill="none">
<line x1="142.068" y1="346.022" x2="148.585" y2="346.022"/><line x1="145.327" y1="342.764" x2="145.327" y2="349.28"/><line x1="143.023" y1="343.719" x2="147.63" y2="348.326"/><line x1="143.023" y1="348.326" x2="147.63" y2="343.719"/>
<line x1="207.192" y1="287.595" x2="213.709" y2="287.595"/><line x1="210.451" y1="284.337" x2="210.451" y2="290.854"/><line x1="208.147" y1="285.292" x2="212.754" y2="289.899"/><line x1="208.147" y1="289.899" x2="212.754" y2="285.292"/>
<line x1="268.867" y1="229.169" x2="275.384" y2="229.169"/><line x1="272.125" y1="225.91" x2="272.125" y2="232.427"/><line x1="269.822" y1="226.865" x2="274.429" y2="231.472"/><line x1="269.822" y1="231.472" x2="274.429" y2="226.865"/>
<line x1="371.843" y1="170.742" x2="378.359" y2="170.742"/><line x1="375.101" y1="167.484" x2="375.101" y2="174"/><line x1="372.797" y1="168.438" x2="377.404" y2="173.045"/><line x1="372.797" y1="173.045" x2="377.404" y2="168.438"/>
<line x1="468.854" y1="112.315" x2="475.371" y2="112.315"/><line x1="472.112" y1="109.057" x2="472.112" y2="115.573"/><line x1="469.809" y1="110.012" x2="474.416" y2="114.619"/><line x1="469.809" y1="114.619" x2="474.416" y2="110.012"/>
<line x1="493.949" y1="66.4083" x2="500.466" y2="66.4083"/><line x1="497.208" y1="63.1501" x2="497.208" y2="69.6665"/><line x1="494.904" y1="64.1048" x2="499.511" y2="68.7119"/><line x1="494.904" y1="68.7119" x2="499.511" y2="64.1048"/>
</g>
<path d="M134.256,346.022l 2.30677, -1.72377" fill="none" stroke="#0000ff" stroke-width="2"/>
<path d="M136.563,344.298l 4.53543, -3.38918l 4.53543, -3.38918l 4.53543, -3.38918l 4.53543, -3.38918l 4.53543, -3.38918l 4.53543, -3.38918l 4.53543, -3.38918l 4.53543, -3.38918l 4.53543, -3.38918l 4.53543, -3.38918l 4.53543, -3.38918l 4.53543,
 -3.38918l 4.53543, -3.38918l 4.53543, -3.38918l 4.53543, -3.38918l 4.53543, -3.38918l 4.53543, -3.38918l 4.53543, -3.38918l 4.53543, -3.38918l 4.53543, -3.38918l 4.53543, -3.38918l 4.53543, -3.38918l 4.53543, -3.38918l 4.53543, -3.38918l 4.53543,
 -3.38918l 4.53543, -3.38918l 4.53543, -3.38918l 4.53543, -3.38918l 4.53543, -3.38918l 4.53543, -3.38918l 4.53543, -3.38918l 4.53543, -3.38918l 4.53543, -3.38918l 4.53543, -3.38918l 4.53543, -3.38918l 4.53543, -3.38918l 4.53543, -3.38918l 4.53543,
 -3.38918l 4.53543, -3.38918l 4.53543, -3.38918l 4.53543, -3.38918l 4.53543, -3.38918l 4.53543, -3.38918l 4.53543, -3.38918l 4.53543, -3.38918l 4.53543, -3.38918l 4.53543, -3.38918l 4.53543, -3.38918" fill="none" stroke="#0000ff" stroke-width="2"/>
<path d="M354.264,181.618l 4.53543, -3.38918l 4.53543, -3.38918l 4.53543, -3.38918l 4.53543, -3.38918l 4.53543, -3.38918l 4.53543, -3.38918l 4.53543, -3.38918l 4.53543, -3.38918l 4.53543, -3.38918l 4.53543, -3.38918l 4.53543, -3.38918l 4.53543,
 -3.38918l 4.53543, -3.38918l 4.53543, -3.38918l 4.53543, -3.38918l 4.53543, -3.38918l 4.53543, -3.38918l 4.53543, -3.38918l 4.53543, -3.38918l 4.53543, -3.38918l 4.53543, -3.38918l 4.53543, -3.38918l 4.53543, -3.38918l 4.53543, -3.38918l 4.53543,
 -3.38918l 4.53543, -3.38918l 4.53543, -3.38918l 4.53543, -3.38918l 4.53543, -3.38918l 4.53543, -3.38918l 4.53543, -3.38918l 4.53543, -3.38918l 4.53543, -3.38918l 4.53543, -3.38918" fill="none" stroke="#0000ff" stroke-width="2"/>
<path d="M110.24,346.022h -26.8432" fill="none" stroke="black"/>
<path d="M83.397,346.022v -1.62911" fill="none" stroke="black"/>
<path d="M110.24,346.022h 26.8432" fill="none" stroke="black"/>
<path d="M137.083,346.022v -1.62911" fill="none" stroke="black"/>
<path d="M207.272,287.595h -23.2827" fill="none" stroke="black"/>
<path d="M183.99,289.225v -3.25821" fill="none" stroke="black"/>
<path d="M207.272,287.595h 23.2827" fill="none" stroke="black"/>
<path d="M230.555,289.225v -3.25821" fill="none" stroke="black"/>
<path d="M249.634,229.169h -19.6064" fill="none" stroke="black"/>
<path d="M230.028,230.798v -3.25821" fill="none" stroke="black"/>
<path d="M249.634,229.169h 19.6064" fill="none" stroke="black"/>
<path d="M269.241,230.798v -3.25821" fill="none" stroke="black"/>
<path d="M364.998,170.742h -19.7521" fill="none" stroke="black"/>
<path d="M345.246,172.371v -3.25821" fill="none" stroke="black"/>
<path d="M364.998,170.742h 19.7521" fill="none" stroke="black"/>
<path d="M384.75,172.371v -3.25821" fill="none" stroke="black"/>
<path d="M427.56,112.315h -25.2612" fill="none" stroke="black"/>
<path d="M402.299,113.944v -3.25821" fill="none" stroke="black"/>
<path d="M427.56,112.315h 25.2612" fill="none" stroke="black"/>
<path d="M452.821,113.944v -3.25821" fill="none" stroke="black"/>
<path d="M476.774,66.4083h -36.2548" fill="none" stroke="black"/>
<path d="M440.519,68.0374v -3.25821" fill="none" stroke="black"/>
<path d="M476.774,66.4083h 33.9622" fill="none" stroke="black"/>
<g stroke="black" stroke-width="1" fill="none">
<circle cx="110.24" cy="346.022" r="3.25821"/>
<circle cx="207.272" cy="287.595" r="3.25821"/>
<circle cx="249.634" cy="229.169" r="3.25821"/>
<circle cx="364.998" cy="170.742" r="3.25821"/>
<circle cx="427.56" cy="112.315" r="3.25821"/>
<circle cx="476.774" cy="66.4083" r="3.25821"/>
</g>
<path d="M114.087,346.022l 4.3338, -3.23441" fill="none" stroke="#00ff00" stroke-width="2"/>
<path d="M118.421,342.788l 4.53543, -3.38489l 4.53543, -3.38489l 4.53543, -3.38489l 4.53543, -3.38489l 4.53543, -3.38489l 4.53543, -3.38489l 4.53543, -3.38489l 4.53543, -3.38489l 4.53543, -3.38489l 4.53543, -3.38489l 4.53543, -3.38489l 4.53543,
 -3.38489l 4.53543, -3.38489l 4.53543, -3.38489l 4.53543, -3.38489l 4.53543, -3.38489l 4.53543, -3.38489l 4.53543, -3.38489l 4.53543, -3.38489l 4.53543, -3.38489l 4.53543, -3.38489l 4.53543, -3.38489l 4.53543, -3.38489l 4.53543, -3.38489l 4.53543,
 -3.38489l 4.53543, -3.38489l 4.53543, -3.38489l 4.53543, -3.38489l 4.53543, -3.38489l 4.53543, -3.38489l 4.53543, -3.38489l 4.53543, -3.38489l 4.53543, -3.38489l 4.53543, -3.38489l 4.53543, -3.38489l 4.53543, -3.38489l 4.53543, -3.38489l 4.53543,
 -3.38489l 4.53543, -3.38489l 4.53543, -3.38489l 4.53543, -3.38489l 4.53543, -3.38489l 4.53543, -3.38489l 4.53543, -3.38489l 4.53543, -3.38489l 4.53543, -3.38489l 4.53543, -3.38489l 4.53543, -3.38489" fill="none" stroke="#00ff00" stroke-width="2"/>
<path d="M336.122,180.313l 4.53543, -3.38489l 4.53543, -3.38489l 4.53543, -3.38489l 4.53543, -3.38489l 4.53543, -3.38489l 4.53543, -3.38489l 4.53543, -3.38489l 4.53543, -3.38489l 4.53543, -3.38489l 4.53543, -3.38489l 4.53543, -3.38489l 4.53543,
 -3.38489l 4.53543, -3.38489l 4.53543, -3.38489l 4.53543, -3.38489l 4.53543, -3.38489l 4.53543, -3.38489l 4.53543, -3.38489l 4.53543, -3.38489l 4.53543, -3.38489l 4.53543, -3.38489l 4.53543, -3.38489l 4.53543, -3.38489l 4.53543, -3.38489l 4.53543,
 -3.38489l 4.53543, -3.38489l 4.53543, -3.38489l 4.53543, -3.38489l 4.53543, -3.38489l 4.53543, -3.38489l 4.53543, -3.38489l 4.53543, -3.38489l 4.53543, -3.38489l 4.53543, -3.38489l 4.53543, -3.38489l 4.53543, -3.38489l 4.53543, -3.38489l 4.53543,
 -3.38489" fill="none" stroke="#00ff00" stroke-width="2"/>
<path d="M251.679,346.022h -23.3377" fill="none" stroke="black"/>
<path d="M228.341,346.022v -1.62911" fill="none" stroke="black"/>
<path d="M251.679,346.022h 23.3377" fill="none" stroke="black"/>
<path d="M275.017,346.022v -1.62911" fill="none" stroke="black"/>
<path d="M305.67,287.595h -19.2231" fill="none" stroke="black"/>
<path d="M286.447,289.225v -3.25821" fill="none" stroke="black"/>
<path d="M305.67,287.595h 19.2231" fill="none" stroke="black"/>
<path d="M324.893,289.225v -3.25821" fill="none" stroke="black"/>
<path d="M399.534,229.169h -17.1473" fill="none" stroke="black"/>
<path d="M382.386,230.798v -3.25821" fill="none" stroke="black"/>
<path d="M399.534,229.169h 17.1473" fill="none" stroke="black"/>
<path d="M416.681,230.798v -3.25821" fill="none" stroke="black"/>
<path d="M464.745,170.742h -29.6246" fill="none" stroke="black"/>
<path d="M435.12,172.371v -3.25821" fill="none" stroke="black"/>
<path d="M464.745,170.742h 29.6246" fill="none" stroke="black"/>
<path d="M494.369,172.371v -3.25821" fill="none" stroke="black"/>
<g stroke="black" stroke-width="1" fill="none">
<line x1="249.375" y1="343.719" x2="253.983" y2="348.326"/><line x1="249.375" y1="348.326" x2="253.983" y2="343.719"/>
<line x1="303.366" y1="285.292" x2="307.974" y2="289.899"/><line x1="303.366" y1="289.899" x2="307.974" y2="285.292"/>
<line x1="397.23" y1="226.865" x2="401.837" y2="231.472"/><line x1="397.23" y1="231.472" x2="401.837" y2="226.865"/>
<line x1="462.441" y1="168.438" x2="467.048" y2="173.045"/><line x1="462.441" y1="173.045" x2="467.048" y2="168.438"/>
</g>
<path d="M240.219,346.022l 0.659194, -0.494955" fill="none" stroke="#00ffff" stroke-width="2"/>
<path d="M240.878,345.527l 4.53543, -3.40542l 4.53543, -3.40542l 4.53543, -3.40542l 4.53543, -3.40542l 4.53543, -3.40542l 4.53543, -3.40542l 4.53543, -3.40542l 4.53543, -3.40542l 4.53543, -3.40542l 4.53543, -3.40542l 4.53543, -3.40542l 4.53543,
 -3.40542l 4.53543, -3.40542l 4.53543, -3.40542l 4.53543, -3.40542l 4.53543, -3.40542l 4.53543, -3.40542l 4.53543, -3.40542l 4.53543, -3.40542l 4.53543, -3.40542l 4.53543, -3.40542l 4.53543, -3.40542l 4.53543, -3.40542l 4.53543, -3.40542l 4.53543,
 -3.40542l 4.53543, -3.40542l 4.53543, -3.40542l 4.53543, -3.40542l 4.53543, -3.40542l 4.53543, -3.40542l 4.53543, -3.40542l 4.53543, -3.40542l 4.53543, -3.40542l 4.53543, -3.40542l 4.53543, -3.40542l 4.53543, -3.40542l 4.53543, -3.40542l 4.53543,
 -3.40542l 4.53543, -3.40542l 4.53543, -3.40542l 4.53543, -3.40542l 4.53543, -3.40542l 4.53543, -3.40542l 4.53543, -3.40542l 4.53543, -3.40542l 4.53543, -3.40542l 4.53543, -3.40542l 4.53543, -3.40542" fill="none" stroke="#00ffff" stroke-width="2"/>
<path d="M458.579,182.067l 4.53543, -3.40542l 4.53543, -3.40542l 4.53543, -3.40542l 4.53543, -3.40542l 4.53543, -3.40542l 4.53543, -3.40542l 4.53543, -3.40542l 4.53543, -3.40542l 4.53543, -3.40542l 4.53543, -3.40542l 4.53543, -3.40542" fill="none"
 stroke="#00ffff" stroke-width="2"/>
<rect x="170.579" y="38.4469" width="56.6929" height="115.341" fill="white"/>
<path d="M170.579,153.788h 56.6929" fill="none" stroke="black"/>
<path d="M227.272,153.788v -115.341" fill="none" stroke="black"/>
<path d="M227.272,38.4469h -56.6929" fill="none" stroke="black"/>
<path d="M170.579,38.4469v 115.341" fill="none" stroke="black"/>
<text xml:space="preserve" x="184.589" y="58.6478" fill="black" font-size="17.6878" font-family="Helvetica">ch4</text>
<g fill="black">
<circle cx="177.665" cy="52.8645" r="3.25821"/>
</g>
<text xml:space="preserve" x="184.589" y="87.9718" fill="black" font-size="17.6878" font-family="Helvetica">ch5</text>
<g stroke="black" stroke-width="1" fill="none">
<line x1="174.407" y1="81.6997" x2="180.924" y2="81.6997"/><line x1="177.665" y1="78.4415" x2="177.665" y2="84.9579"/><line x1="175.362" y1="79.3961" x2="179.969" y2="84.0033"/><line x1="175.362" y1="84.0033" x2="179.969" y2="79.3961"/>
</g>
<text xml:space="preserve" x="184.589" y="116.481" fill="black" font-size="17.6878" font-family="Helvetica">ch6</text>
<g stroke="black" stroke-width="1" fill="none">
<circle cx="177.665" cy="110.535" r="3.25821"/>
</g>
<text xml:space="preserve" x="184.589" y="145.805" fill="black" font-size="17.6878" font-family="Helvetica">ch7</text>
<g stroke="black" stroke-width="1" fill="none">
<line x1="175.362" y1="137.067" x2="179.969" y2="141.674"/><line x1="175.362" y1="141.674" x2="179.969" y2="137.067"/>
</g>
<rect x="85.5394" y="38.4469" width="85.0394" height="115.341" fill="white"/>
<path d="M85.5394,153.788h 85.0394" fill="none" stroke="black"/>
<path d="M170.579,153.788v -115.341" fill="none" stroke="black"/>
<path d="M170.579,38.4469h -85.0394" fill="none" stroke="black"/>
<path d="M85.5394,38.4469v 115.341" fill="none" stroke="black"/>
<text xml:space="preserve" x="106.392" y="58.6478" fill="black" font-size="17.6878" font-family="Helvetica">ch4</text>
<path d="M88.7283,52.8645h 14.8819" fill="none" stroke="#ff0000" stroke-width="2"/>
<text xml:space="preserve" x="106.392" y="87.9718" fill="black" font-size="17.6878" font-family="Helvetica">ch5</text>
<path d="M88.7283,81.6997h 14.8819" fill="none" stroke="#0000ff" stroke-width="2"/>
<text xml:space="preserve" x="106.392" y="116.481" fill="black" font-size="17.6878" font-family="Helvetica">ch6</text>
<path d="M88.7283,110.535h 14.8819" fill="none" stroke="#00ff00" stroke-width="2"/>
<text xml:space="preserve" x="106.392" y="145.805" fill="black" font-size="17.6878" font-family="Helvetica">ch7</text>
<path d="M88.7283,139.37h 14.8819" fill="none" stroke="#00ffff" stroke-width="2"/></svg>
