<?xml version="1.0" standalone="no"?>
<svg width="567.429" height="384.969" viewBox="0 0 567.429 384.969" xmlns="http://www.w3.org/2000/svg" shape-rendering="crispEdges">
<title>
img/week2/NonCombinedTimeDistGraph_ch_8_9_10_11.svg
</title>
<desc>
Creator: ROOT Version 6.22/09
CreationDate: Thu Jun 24 12:33:05 2021</desc>
<defs>
</defs>
<rect x="0.5" y="0" width="566.929" height="384.469" fill="white"/>
<rect x="57.1929" y="38.4469" width="453.543" height="307.575" fill="white"/>
<rect x="57.1929" y="38.4469" width="453.543" height="307.575" fill="none" stroke="black"/>
<rect x="57.1929" y="38.4469" width="453.543" height="307.575" fill="white"/>
<rect x="57.1929" y="38.4469" width="453.543" height="307.575" fill="none" stroke="black"/>
<path d="M57.1929,346.022h 453.543" fill="none" stroke="black"/>
<path d="M69.5254,336.795v 9.22726" fill="none" stroke="black"/>
<path d="M79.2519,341.409v 4.61363" fill="none" stroke="black"/>
<path d="M88.9784,341.409v 4.61363" fill="none" stroke="black"/>
<path d="M98.7048,341.409v 4.61363" fill="none" stroke="black"/>
<path d="M108.431,341.409v 4.61363" fill="none" stroke="black"/>
<path d="M118.158,336.795v 9.22726" fill="none" stroke="black"/>
<path d="M127.884,341.409v 4.61363" fill="none" stroke="black"/>
<path d="M137.611,341.409v 4.61363" fill="none" stroke="black"/>
<path d="M147.337,341.409v 4.61363" fill="none" stroke="black"/>
<path d="M157.064,341.409v 4.61363" fill="none" stroke="black"/>
<path d="M166.79,336.795v 9.22726" fill="none" stroke="black"/>
<path d="M176.517,341.409v 4.61363" fill="none" stroke="black"/>
<path d="M186.243,341.409v 4.61363" fill="none" stroke="black"/>
<path d="M195.97,341.409v 4.61363" fill="none" stroke="black"/>
<path d="M205.696,341.409v 4.61363" fill="none" stroke="black"/>
<path d="M215.423,336.795v 9.22726" fill="none" stroke="black"/>
<path d="M225.149,341.409v 4.61363" fill="none" stroke="black"/>
<path d="M234.876,341.409v 4.61363" fill="none" stroke="black"/>
<path d="M244.602,341.409v 4.61363" fill="none" stroke="black"/>
<path d="M254.329,341.409v 4.61363" fill="none" stroke="black"/>
<path d="M264.055,336.795v 9.22726" fill="none" stroke="black"/>
<path d="M273.781,341.409v 4.61363" fill="none" stroke="black"/>
<path d="M283.508,341.409v 4.61363" fill="none" stroke="black"/>
<path d="M293.234,341.409v 4.61363" fill="none" stroke="black"/>
<path d="M302.961,341.409v 4.61363" fill="none" stroke="black"/>
<path d="M312.687,336.795v 9.22726" fill="none" stroke="black"/>
<path d="M322.414,341.409v 4.61363" fill="none" stroke="black"/>
<path d="M332.14,341.409v 4.61363" fill="none" stroke="black"/>
<path d="M341.867,341.409v 4.61363" fill="none" stroke="black"/>
<path d="M351.593,341.409v 4.61363" fill="none" stroke="black"/>
<path d="M361.32,336.795v 9.22726" fill="none" stroke="black"/>
<path d="M371.046,341.409v 4.61363" fill="none" stroke="black"/>
<path d="M380.773,341.409v 4.61363" fill="none" stroke="black"/>
<path d="M390.499,341.409v 4.61363" fill="none" stroke="black"/>
<path d="M400.226,341.409v 4.61363" fill="none" stroke="black"/>
<path d="M409.952,336.795v 9.22726" fill="none" stroke="black"/>
<path d="M419.679,341.409v 4.61363" fill="none" stroke="black"/>
<path d="M429.405,341.409v 4.61363" fill="none" stroke="black"/>
<path d="M439.132,341.409v 4.61363" fill="none" stroke="black"/>
<path d="M448.858,341.409v 4.61363" fill="none" stroke="black"/>
<path d="M458.585,336.795v 9.22726" fill="none" stroke="black"/>
<path d="M468.311,341.409v 4.61363" fill="none" stroke="black"/>
<path d="M478.038,341.409v 4.61363" fill="none" stroke="black"/>
<path d="M487.764,341.409v 4.61363" fill="none" stroke="black"/>
<path d="M497.491,341.409v 4.61363" fill="none" stroke="black"/>
<path d="M507.217,336.795v 9.22726" fill="none" stroke="black"/>
<path d="M69.5254,336.795v 9.22726" fill="none" stroke="black"/>
<path d="M59.7989,341.409v 4.61363" fill="none" stroke="black"/>
<path d="M507.217,336.795v 9.22726" fill="none" stroke="black"/>
<text xml:space="preserve" x="68.9225" y="358.403" fill="black" font-size="12.8453" font-family="Helvetica">7</text>
<text xml:space="preserve" x="61.5915" y="358.403" fill="black" font-size="12.8453" font-family="Times">&#8722;</text>
<text xml:space="preserve" x="117.796" y="358.403" fill="black" font-size="12.8453" font-family="Helvetica">6</text>
<text xml:space="preserve" x="110.465" y="358.403" fill="black" font-size="12.8453" font-family="Times">&#8722;</text>
<text xml:space="preserve" x="166.669" y="358.403" fill="black" font-size="12.8453" font-family="Helvetica">5</text>
<text xml:space="preserve" x="159.338" y="358.403" fill="black" font-size="12.8453" font-family="Times">&#8722;</text>
<text xml:space="preserve" x="214.728" y="358.403" fill="black" font-size="12.8453" font-family="Helvetica">4</text>
<text xml:space="preserve" x="207.397" y="358.403" fill="black" font-size="12.8453" font-family="Times">&#8722;</text>
<text xml:space="preserve" x="263.601" y="358.403" fill="black" font-size="12.8453" font-family="Helvetica">3</text>
<text xml:space="preserve" x="256.27" y="358.403" fill="black" font-size="12.8453" font-family="Times">&#8722;</text>
<text xml:space="preserve" x="312.474" y="358.403" fill="black" font-size="12.8453" font-family="Helvetica">2</text>
<text xml:space="preserve" x="305.143" y="358.403" fill="black" font-size="12.8453" font-family="Times">&#8722;</text>
<text xml:space="preserve" x="361.347" y="358.403" fill="black" font-size="12.8453" font-family="Helvetica">1</text>
<text xml:space="preserve" x="354.016" y="358.403" fill="black" font-size="12.8453" font-family="Times">&#8722;</text>
<text xml:space="preserve" x="406.148" y="358.403" fill="black" font-size="12.8453" font-family="Helvetica">0</text>
<text xml:space="preserve" x="455.835" y="358.403" fill="black" font-size="12.8453" font-family="Helvetica">1</text>
<text xml:space="preserve" x="503.894" y="358.403" fill="black" font-size="12.8453" font-family="Helvetica">2</text>
<text xml:space="preserve" x="448.504" y="370.622" fill="black" font-size="12.8453" font-family="Helvetica">time lag[ns]</text>
<path d="M57.1929,346.022v -307.575" fill="none" stroke="black"/>
<path d="M70.7992,346.022h -13.6063" fill="none" stroke="black"/>
<path d="M63.9961,337.676h -6.80315" fill="none" stroke="black"/>
<path d="M63.9961,329.329h -6.80315" fill="none" stroke="black"/>
<path d="M63.9961,320.982h -6.80315" fill="none" stroke="black"/>
<path d="M63.9961,312.636h -6.80315" fill="none" stroke="black"/>
<path d="M70.7992,304.289h -13.6063" fill="none" stroke="black"/>
<path d="M63.9961,295.942h -6.80315" fill="none" stroke="black"/>
<path d="M63.9961,287.595h -6.80315" fill="none" stroke="black"/>
<path d="M63.9961,279.249h -6.80315" fill="none" stroke="black"/>
<path d="M63.9961,270.902h -6.80315" fill="none" stroke="black"/>
<path d="M70.7992,262.555h -13.6063" fill="none" stroke="black"/>
<path d="M63.9961,254.209h -6.80315" fill="none" stroke="black"/>
<path d="M63.9961,245.862h -6.80315" fill="none" stroke="black"/>
<path d="M63.9961,237.515h -6.80315" fill="none" stroke="black"/>
<path d="M63.9961,229.169h -6.80315" fill="none" stroke="black"/>
<path d="M70.7992,220.822h -13.6063" fill="none" stroke="black"/>
<path d="M63.9961,212.475h -6.80315" fill="none" stroke="black"/>
<path d="M63.9961,204.129h -6.80315" fill="none" stroke="black"/>
<path d="M63.9961,195.782h -6.80315" fill="none" stroke="black"/>
<path d="M63.9961,187.435h -6.80315" fill="none" stroke="black"/>
<path d="M70.7992,179.089h -13.6063" fill="none" stroke="black"/>
<path d="M63.9961,170.742h -6.80315" fill="none" stroke="black"/>
<path d="M63.9961,162.395h -6.80315" fill="none" stroke="black"/>
<path d="M63.9961,154.049h -6.80315" fill="none" stroke="black"/>
<path d="M63.9961,145.702h -6.80315" fill="none" stroke="black"/>
<path d="M70.7992,137.355h -13.6063" fill="none" stroke="black"/>
<path d="M63.9961,129.008h -6.80315" fill="none" stroke="black"/>
<path d="M63.9961,120.662h -6.80315" fill="none" stroke="black"/>
<path d="M63.9961,112.315h -6.80315" fill="none" stroke="black"/>
<path d="M63.9961,103.968h -6.80315" fill="none" stroke="black"/>
<path d="M70.7992,95.6217h -13.6063" fill="none" stroke="black"/>
<path d="M63.9961,87.275h -6.80315" fill="none" stroke="black"/>
<path d="M63.9961,78.9283h -6.80315" fill="none" stroke="black"/>
<path d="M63.9961,70.5817h -6.80315" fill="none" stroke="black"/>
<path d="M63.9961,62.235h -6.80315" fill="none" stroke="black"/>
<path d="M70.7992,53.8883h -13.6063" fill="none" stroke="black"/>
<path d="M70.7992,53.8883h -13.6063" fill="none" stroke="black"/>
<path d="M63.9961,45.5416h -6.80315" fill="none" stroke="black"/>
<text xml:space="preserve" x="47.7441" y="350.258" fill="black" font-size="12.8453" font-family="Helvetica">0</text>
<text xml:space="preserve" x="33.8967" y="308.716" fill="black" font-size="12.8453" font-family="Helvetica">100</text>
<text xml:space="preserve" x="33.8967" y="267.173" fill="black" font-size="12.8453" font-family="Helvetica">200</text>
<text xml:space="preserve" x="33.8967" y="225.631" fill="black" font-size="12.8453" font-family="Helvetica">300</text>
<text xml:space="preserve" x="33.8967" y="183.275" fill="black" font-size="12.8453" font-family="Helvetica">400</text>
<text xml:space="preserve" x="33.8967" y="141.732" fill="black" font-size="12.8453" font-family="Helvetica">500</text>
<text xml:space="preserve" x="33.8967" y="100.19" fill="black" font-size="12.8453" font-family="Helvetica">600</text>
<text xml:space="preserve" x="33.8967" y="58.6478" fill="black" font-size="12.8453" font-family="Helvetica">700</text>
<g transform="rotate(-90,20.0493,114.037)">
<text xml:space="preserve" x="20.0493" y="114.037" fill="black" font-size="12.8453" font-family="Helvetica">distance [mm]</text>
</g>
<g fill="black">
<circle cx="117.193" cy="346.022" r="3.25821"/>
<circle cx="188.525" cy="287.595" r="3.25821"/>
<circle cx="242.275" cy="229.169" r="3.25821"/>
<circle cx="333.15" cy="170.742" r="3.25821"/>
<circle cx="399.281" cy="112.315" r="3.25821"/>
<circle cx="435.932" cy="66.4083" r="3.25821"/>
</g>
<path d="M115.153,346.022l 3.26821, -2.73966" fill="none" stroke="#ff0000" stroke-width="2"/>
<path d="M118.421,343.283l 4.53543, -3.80194l 4.53543, -3.80194l 4.53543, -3.80194l 4.53543, -3.80194l 4.53543, -3.80194l 4.53543, -3.80194l 4.53543, -3.80194l 4.53543, -3.80194l 4.53543, -3.80194l 4.53543, -3.80194l 4.53543, -3.80194l 4.53543,
 -3.80194l 4.53543, -3.80194l 4.53543, -3.80194l 4.53543, -3.80194l 4.53543, -3.80194l 4.53543, -3.80194l 4.53543, -3.80194l 4.53543, -3.80194l 4.53543, -3.80194l 4.53543, -3.80194l 4.53543, -3.80194l 4.53543, -3.80194l 4.53543, -3.80194l 4.53543,
 -3.80194l 4.53543, -3.80194l 4.53543, -3.80194l 4.53543, -3.80194l 4.53543, -3.80194l 4.53543, -3.80194l 4.53543, -3.80194l 4.53543, -3.80194l 4.53543, -3.80194l 4.53543, -3.80194l 4.53543, -3.80194l 4.53543, -3.80194l 4.53543, -3.80194l 4.53543,
 -3.80194l 4.53543, -3.80194l 4.53543, -3.80194l 4.53543, -3.80194l 4.53543, -3.80194l 4.53543, -3.80194l 4.53543, -3.80194l 4.53543, -3.80194l 4.53543, -3.80194l 4.53543, -3.80194l 4.53543, -3.80194" fill="none" stroke="#ff0000" stroke-width="2"/>
<path d="M336.122,160.79l 4.53543, -3.80194l 4.53543, -3.80194l 4.53543, -3.80194l 4.53543, -3.80194l 4.53543, -3.80194l 4.53543, -3.80194l 4.53543, -3.80194l 4.53543, -3.80194l 4.53543, -3.80194l 4.53543, -3.80194l 4.53543, -3.80194l 4.53543,
 -3.80194l 4.53543, -3.80194l 4.53543, -3.80194l 4.53543, -3.80194l 4.53543, -3.80194l 4.53543, -3.80194l 4.53543, -3.80194l 4.53543, -3.80194l 4.53543, -3.80194l 4.53543, -3.80194l 4.53543, -3.80194l 4.53543, -3.80194l 4.53543, -3.80194l 4.53543,
 -3.80194l 4.53543, -3.80194l 4.53543, -3.80194l 4.53543, -3.80194l 4.53543, -3.80194l 4.53543, -3.80194l 4.53543, -3.80194l 4.53543, -3.80194l 0.812172, -0.680822" fill="none" stroke="#ff0000" stroke-width="2"/>
<path d="M117.193,346.022h -22.2047" fill="none" stroke="black"/>
<path d="M94.9882,346.022v -1.62911" fill="none" stroke="black"/>
<path d="M117.193,346.022h 22.2047" fill="none" stroke="black"/>
<path d="M139.398,346.022v -1.62911" fill="none" stroke="black"/>
<path d="M188.525,287.595h -18.7825" fill="none" stroke="black"/>
<path d="M169.743,289.225v -3.25821" fill="none" stroke="black"/>
<path d="M188.525,287.595h 18.7825" fill="none" stroke="black"/>
<path d="M207.308,289.225v -3.25821" fill="none" stroke="black"/>
<path d="M242.275,229.169h -17.384" fill="none" stroke="black"/>
<path d="M224.891,230.798v -3.25821" fill="none" stroke="black"/>
<path d="M242.275,229.169h 17.384" fill="none" stroke="black"/>
<path d="M259.659,230.798v -3.25821" fill="none" stroke="black"/>
<path d="M333.15,170.742h -18.4431" fill="none" stroke="black"/>
<path d="M314.707,172.371v -3.25821" fill="none" stroke="black"/>
<path d="M333.15,170.742h 18.4431" fill="none" stroke="black"/>
<path d="M351.593,172.371v -3.25821" fill="none" stroke="black"/>
<path d="M399.281,112.315h -24.0266" fill="none" stroke="black"/>
<path d="M375.254,113.944v -3.25821" fill="none" stroke="black"/>
<path d="M399.281,112.315h 24.0266" fill="none" stroke="black"/>
<path d="M423.307,113.944v -3.25821" fill="none" stroke="black"/>
<path d="M435.932,66.4083h -37.0084" fill="none" stroke="black"/>
<path d="M398.924,68.0374v -3.25821" fill="none" stroke="black"/>
<path d="M435.932,66.4083h 37.0084" fill="none" stroke="black"/>
<path d="M472.941,68.0374v -3.25821" fill="none" stroke="black"/>
<path d="M117.193,346.022h -22.2047" fill="none" stroke="black"/>
<path d="M94.9882,346.022v -1.62911" fill="none" stroke="black"/>
<path d="M117.193,346.022h 22.2047" fill="none" stroke="black"/>
<path d="M139.398,346.022v -1.62911" fill="none" stroke="black"/>
<path d="M188.525,287.595h -18.7825" fill="none" stroke="black"/>
<path d="M169.743,289.225v -3.25821" fill="none" stroke="black"/>
<path d="M188.525,287.595h 18.7825" fill="none" stroke="black"/>
<path d="M207.308,289.225v -3.25821" fill="none" stroke="black"/>
<path d="M242.275,229.169h -17.384" fill="none" stroke="black"/>
<path d="M224.891,230.798v -3.25821" fill="none" stroke="black"/>
<path d="M242.275,229.169h 17.384" fill="none" stroke="black"/>
<path d="M259.659,230.798v -3.25821" fill="none" stroke="black"/>
<path d="M333.15,170.742h -18.4431" fill="none" stroke="black"/>
<path d="M314.707,172.371v -3.25821" fill="none" stroke="black"/>
<path d="M333.15,170.742h 18.4431" fill="none" stroke="black"/>
<path d="M351.593,172.371v -3.25821" fill="none" stroke="black"/>
<path d="M399.281,112.315h -24.0266" fill="none" stroke="black"/>
<path d="M375.254,113.944v -3.25821" fill="none" stroke="black"/>
<path d="M399.281,112.315h 24.0266" fill="none" stroke="black"/>
<path d="M423.307,113.944v -3.25821" fill="none" stroke="black"/>
<path d="M435.932,66.4083h -37.0084" fill="none" stroke="black"/>
<path d="M398.924,68.0374v -3.25821" fill="none" stroke="black"/>
<path d="M435.932,66.4083h 37.0084" fill="none" stroke="black"/>
<path d="M472.941,68.0374v -3.25821" fill="none" stroke="black"/>
<g fill="black">
<circle cx="117.193" cy="346.022" r="3.25821"/>
<circle cx="188.525" cy="287.595" r="3.25821"/>
<circle cx="242.275" cy="229.169" r="3.25821"/>
<circle cx="333.15" cy="170.742" r="3.25821"/>
<circle cx="399.281" cy="112.315" r="3.25821"/>
<circle cx="435.932" cy="66.4083" r="3.25821"/>
</g>
<path d="M115.153,346.022l 3.26821, -2.73966" fill="none" stroke="#ff0000" stroke-width="2"/>
<path d="M118.421,343.283l 4.53543, -3.80194l 4.53543, -3.80194l 4.53543, -3.80194l 4.53543, -3.80194l 4.53543, -3.80194l 4.53543, -3.80194l 4.53543, -3.80194l 4.53543, -3.80194l 4.53543, -3.80194l 4.53543, -3.80194l 4.53543, -3.80194l 4.53543,
 -3.80194l 4.53543, -3.80194l 4.53543, -3.80194l 4.53543, -3.80194l 4.53543, -3.80194l 4.53543, -3.80194l 4.53543, -3.80194l 4.53543, -3.80194l 4.53543, -3.80194l 4.53543, -3.80194l 4.53543, -3.80194l 4.53543, -3.80194l 4.53543, -3.80194l 4.53543,
 -3.80194l 4.53543, -3.80194l 4.53543, -3.80194l 4.53543, -3.80194l 4.53543, -3.80194l 4.53543, -3.80194l 4.53543, -3.80194l 4.53543, -3.80194l 4.53543, -3.80194l 4.53543, -3.80194l 4.53543, -3.80194l 4.53543, -3.80194l 4.53543, -3.80194l 4.53543,
 -3.80194l 4.53543, -3.80194l 4.53543, -3.80194l 4.53543, -3.80194l 4.53543, -3.80194l 4.53543, -3.80194l 4.53543, -3.80194l 4.53543, -3.80194l 4.53543, -3.80194l 4.53543, -3.80194l 4.53543, -3.80194" fill="none" stroke="#ff0000" stroke-width="2"/>
<path d="M336.122,160.79l 4.53543, -3.80194l 4.53543, -3.80194l 4.53543, -3.80194l 4.53543, -3.80194l 4.53543, -3.80194l 4.53543, -3.80194l 4.53543, -3.80194l 4.53543, -3.80194l 4.53543, -3.80194l 4.53543, -3.80194l 4.53543, -3.80194l 4.53543,
 -3.80194l 4.53543, -3.80194l 4.53543, -3.80194l 4.53543, -3.80194l 4.53543, -3.80194l 4.53543, -3.80194l 4.53543, -3.80194l 4.53543, -3.80194l 4.53543, -3.80194l 4.53543, -3.80194l 4.53543, -3.80194l 4.53543, -3.80194l 4.53543, -3.80194l 4.53543,
 -3.80194l 4.53543, -3.80194l 4.53543, -3.80194l 4.53543, -3.80194l 4.53543, -3.80194l 4.53543, -3.80194l 4.53543, -3.80194l 4.53543, -3.80194l 0.812172, -0.680822" fill="none" stroke="#ff0000" stroke-width="2"/>
<path d="M145.429,346.022h -21.4353" fill="none" stroke="black"/>
<path d="M123.994,346.022v -1.62911" fill="none" stroke="black"/>
<path d="M145.429,346.022h 21.4353" fill="none" stroke="black"/>
<path d="M166.865,346.022v -1.62911" fill="none" stroke="black"/>
<path d="M204.13,287.595h -23.2719" fill="none" stroke="black"/>
<path d="M180.858,289.225v -3.25821" fill="none" stroke="black"/>
<path d="M204.13,287.595h 23.2719" fill="none" stroke="black"/>
<path d="M227.402,289.225v -3.25821" fill="none" stroke="black"/>
<path d="M287.126,229.169h -22.733" fill="none" stroke="black"/>
<path d="M264.393,230.798v -3.25821" fill="none" stroke="black"/>
<path d="M287.126,229.169h 22.733" fill="none" stroke="black"/>
<path d="M309.859,230.798v -3.25821" fill="none" stroke="black"/>
<path d="M358.277,170.742h -23.4529" fill="none" stroke="black"/>
<path d="M334.824,172.371v -3.25821" fill="none" stroke="black"/>
<path d="M358.277,170.742h 23.4529" fill="none" stroke="black"/>
<path d="M381.729,172.371v -3.25821" fill="none" stroke="black"/>
<path d="M453.43,112.315h -23.512" fill="none" stroke="black"/>
<path d="M429.918,113.944v -3.25821" fill="none" stroke="black"/>
<path d="M453.43,112.315h 23.512" fill="none" stroke="black"/>
<path d="M476.942,113.944v -3.25821" fill="none" stroke="black"/>
<path d="M465.346,66.4083h -25.774" fill="none" stroke="black"/>
<path d="M439.572,68.0374v -3.25821" fill="none" stroke="black"/>
<path d="M465.346,66.4083h 25.774" fill="none" stroke="black"/>
<path d="M491.12,68.0374v -3.25821" fill="none" stroke="black"/>
<g stroke="black" stroke-width="1" fill="none">
<line x1="142.171" y1="346.022" x2="148.687" y2="346.022"/><line x1="145.429" y1="342.764" x2="145.429" y2="349.28"/><line x1="143.126" y1="343.719" x2="147.733" y2="348.326"/><line x1="143.126" y1="348.326" x2="147.733" y2="343.719"/>
<line x1="200.872" y1="287.595" x2="207.388" y2="287.595"/><line x1="204.13" y1="284.337" x2="204.13" y2="290.854"/><line x1="201.826" y1="285.292" x2="206.433" y2="289.899"/><line x1="201.826" y1="289.899" x2="206.433" y2="285.292"/>
<line x1="283.867" y1="229.169" x2="290.384" y2="229.169"/><line x1="287.126" y1="225.91" x2="287.126" y2="232.427"/><line x1="284.822" y1="226.865" x2="289.429" y2="231.472"/><line x1="284.822" y1="231.472" x2="289.429" y2="226.865"/>
<line x1="355.018" y1="170.742" x2="361.535" y2="170.742"/><line x1="358.277" y1="167.484" x2="358.277" y2="174"/><line x1="355.973" y1="168.438" x2="360.58" y2="173.045"/><line x1="355.973" y1="173.045" x2="360.58" y2="168.438"/>
<line x1="450.172" y1="112.315" x2="456.688" y2="112.315"/><line x1="453.43" y1="109.057" x2="453.43" y2="115.573"/><line x1="451.126" y1="110.012" x2="455.733" y2="114.619"/><line x1="451.126" y1="114.619" x2="455.733" y2="110.012"/>
<line x1="462.088" y1="66.4083" x2="468.604" y2="66.4083"/><line x1="465.346" y1="63.1501" x2="465.346" y2="69.6665"/><line x1="463.043" y1="64.1048" x2="467.65" y2="68.7119"/><line x1="463.043" y1="68.7119" x2="467.65" y2="64.1048"/>
</g>
<path d="M142.301,346.022l 3.33296, -2.70609" fill="none" stroke="#0000ff" stroke-width="2"/>
<path d="M145.634,343.316l 4.53543, -3.6824l 4.53543, -3.6824l 4.53543, -3.6824l 4.53543, -3.6824l 4.53543, -3.6824l 4.53543, -3.6824l 4.53543, -3.6824l 4.53543, -3.6824l 4.53543, -3.6824l 4.53543, -3.6824l 4.53543, -3.6824l 4.53543, -3.6824l
 4.53543, -3.6824l 4.53543, -3.6824l 4.53543, -3.6824l 4.53543, -3.6824l 4.53543, -3.6824l 4.53543, -3.6824l 4.53543, -3.6824l 4.53543, -3.6824l 4.53543, -3.6824l 4.53543, -3.6824l 4.53543, -3.6824l 4.53543, -3.6824l 4.53543, -3.6824l 4.53543,
 -3.6824l 4.53543, -3.6824l 4.53543, -3.6824l 4.53543, -3.6824l 4.53543, -3.6824l 4.53543, -3.6824l 4.53543, -3.6824l 4.53543, -3.6824l 4.53543, -3.6824l 4.53543, -3.6824l 4.53543, -3.6824l 4.53543, -3.6824l 4.53543, -3.6824l 4.53543, -3.6824l
 4.53543, -3.6824l 4.53543, -3.6824l 4.53543, -3.6824l 4.53543, -3.6824l 4.53543, -3.6824l 4.53543, -3.6824l 4.53543, -3.6824l 4.53543, -3.6824l 4.53543, -3.6824" fill="none" stroke="#0000ff" stroke-width="2"/>
<path d="M363.335,166.561l 4.53543, -3.6824l 4.53543, -3.6824l 4.53543, -3.6824l 4.53543, -3.6824l 4.53543, -3.6824l 4.53543, -3.6824l 4.53543, -3.6824l 4.53543, -3.6824l 4.53543, -3.6824l 4.53543, -3.6824l 4.53543, -3.6824l 4.53543, -3.6824l
 4.53543, -3.6824l 4.53543, -3.6824l 4.53543, -3.6824l 4.53543, -3.6824l 4.53543, -3.6824l 4.53543, -3.6824l 4.53543, -3.6824l 4.53543, -3.6824l 4.53543, -3.6824l 4.53543, -3.6824l 4.53543, -3.6824l 4.53543, -3.6824l 4.53543, -3.6824l 4.53543,
 -3.6824l 4.53543, -3.6824l 4.53543, -3.6824l 4.53543, -3.6824l 4.53543, -3.6824l 4.53543, -3.6824l 4.53543, -3.6824" fill="none" stroke="#0000ff" stroke-width="2"/>
<path d="M205.603,346.022h -20.9998" fill="none" stroke="black"/>
<path d="M184.603,346.022v -1.62911" fill="none" stroke="black"/>
<path d="M205.603,346.022h 20.9998" fill="none" stroke="black"/>
<path d="M226.602,346.022v -1.62911" fill="none" stroke="black"/>
<path d="M198.01,287.595h -23.7844" fill="none" stroke="black"/>
<path d="M174.226,289.225v -3.25821" fill="none" stroke="black"/>
<path d="M198.01,287.595h 23.7844" fill="none" stroke="black"/>
<path d="M221.795,289.225v -3.25821" fill="none" stroke="black"/>
<path d="M341.296,229.169h -20.774" fill="none" stroke="black"/>
<path d="M320.522,230.798v -3.25821" fill="none" stroke="black"/>
<path d="M341.296,229.169h 20.774" fill="none" stroke="black"/>
<path d="M362.07,230.798v -3.25821" fill="none" stroke="black"/>
<path d="M424.143,170.742h -20.2543" fill="none" stroke="black"/>
<path d="M403.889,172.371v -3.25821" fill="none" stroke="black"/>
<path d="M424.143,170.742h 20.2543" fill="none" stroke="black"/>
<path d="M444.398,172.371v -3.25821" fill="none" stroke="black"/>
<path d="M455.314,112.315h -27.2904" fill="none" stroke="black"/>
<path d="M428.023,113.944v -3.25821" fill="none" stroke="black"/>
<path d="M455.314,112.315h 27.2904" fill="none" stroke="black"/>
<path d="M482.604,113.944v -3.25821" fill="none" stroke="black"/>
<path d="M504.771,66.4083h -24.8114" fill="none" stroke="black"/>
<path d="M479.959,68.0374v -3.25821" fill="none" stroke="black"/>
<path d="M504.771,66.4083h 5.96533" fill="none" stroke="black"/>
<g stroke="black" stroke-width="1" fill="none">
<circle cx="205.603" cy="346.022" r="3.25821"/>
<circle cx="198.01" cy="287.595" r="3.25821"/>
<circle cx="341.296" cy="229.169" r="3.25821"/>
<circle cx="424.143" cy="170.742" r="3.25821"/>
<circle cx="455.314" cy="112.315" r="3.25821"/>
<circle cx="504.771" cy="66.4083" r="3.25821"/>
</g>
<path d="M188.064,346.022l 2.92424, -2.46567" fill="none" stroke="#00ff00" stroke-width="2"/>
<path d="M190.988,343.557l 4.53543, -3.8242l 4.53543, -3.8242l 4.53543, -3.8242l 4.53543, -3.8242l 4.53543, -3.8242l 4.53543, -3.8242l 4.53543, -3.8242l 4.53543, -3.8242l 4.53543, -3.8242l 4.53543, -3.8242l 4.53543, -3.8242l 4.53543, -3.8242l
 4.53543, -3.8242l 4.53543, -3.8242l 4.53543, -3.8242l 4.53543, -3.8242l 4.53543, -3.8242l 4.53543, -3.8242l 4.53543, -3.8242l 4.53543, -3.8242l 4.53543, -3.8242l 4.53543, -3.8242l 4.53543, -3.8242l 4.53543, -3.8242l 4.53543, -3.8242l 4.53543,
 -3.8242l 4.53543, -3.8242l 4.53543, -3.8242l 4.53543, -3.8242l 4.53543, -3.8242l 4.53543, -3.8242l 4.53543, -3.8242l 4.53543, -3.8242l 4.53543, -3.8242l 4.53543, -3.8242l 4.53543, -3.8242l 4.53543, -3.8242l 4.53543, -3.8242l 4.53543, -3.8242l
 4.53543, -3.8242l 4.53543, -3.8242l 4.53543, -3.8242l 4.53543, -3.8242l 4.53543, -3.8242l 4.53543, -3.8242l 4.53543, -3.8242l 4.53543, -3.8242l 4.53543, -3.8242" fill="none" stroke="#00ff00" stroke-width="2"/>
<path d="M408.689,159.995l 4.53543, -3.8242l 4.53543, -3.8242l 4.53543, -3.8242l 4.53543, -3.8242l 4.53543, -3.8242l 4.53543, -3.8242l 4.53543, -3.8242l 4.53543, -3.8242l 4.53543, -3.8242l 4.53543, -3.8242l 4.53543, -3.8242l 4.53543, -3.8242l
 4.53543, -3.8242l 4.53543, -3.8242l 4.53543, -3.8242l 4.53543, -3.8242l 4.53543, -3.8242l 4.53543, -3.8242l 4.53543, -3.8242l 4.53543, -3.8242l 4.53543, -3.8242l 4.53543, -3.8242" fill="none" stroke="#00ff00" stroke-width="2"/>
<path d="M163.224,346.022h -19.2777" fill="none" stroke="black"/>
<path d="M143.946,346.022v -1.62911" fill="none" stroke="black"/>
<path d="M163.224,346.022h 19.2777" fill="none" stroke="black"/>
<path d="M182.501,346.022v -1.62911" fill="none" stroke="black"/>
<path d="M194.928,287.595h -15.3569" fill="none" stroke="black"/>
<path d="M179.571,289.225v -3.25821" fill="none" stroke="black"/>
<path d="M194.928,287.595h 15.3569" fill="none" stroke="black"/>
<path d="M210.285,289.225v -3.25821" fill="none" stroke="black"/>
<path d="M324.349,229.169h -17.4583" fill="none" stroke="black"/>
<path d="M306.891,230.798v -3.25821" fill="none" stroke="black"/>
<path d="M324.349,229.169h 17.4583" fill="none" stroke="black"/>
<path d="M341.808,230.798v -3.25821" fill="none" stroke="black"/>
<path d="M364.01,170.742h -19.3426" fill="none" stroke="black"/>
<path d="M344.667,172.371v -3.25821" fill="none" stroke="black"/>
<path d="M364.01,170.742h 19.3426" fill="none" stroke="black"/>
<path d="M383.352,172.371v -3.25821" fill="none" stroke="black"/>
<path d="M384.932,112.315h -37.1374" fill="none" stroke="black"/>
<path d="M347.795,113.944v -3.25821" fill="none" stroke="black"/>
<path d="M384.932,112.315h 37.1374" fill="none" stroke="black"/>
<path d="M422.07,113.944v -3.25821" fill="none" stroke="black"/>
<g stroke="black" stroke-width="1" fill="none">
<line x1="160.92" y1="343.719" x2="165.527" y2="348.326"/><line x1="160.92" y1="348.326" x2="165.527" y2="343.719"/>
<line x1="192.624" y1="285.292" x2="197.231" y2="289.899"/><line x1="192.624" y1="289.899" x2="197.231" y2="285.292"/>
<line x1="322.046" y1="226.865" x2="326.653" y2="231.472"/><line x1="322.046" y1="231.472" x2="326.653" y2="226.865"/>
<line x1="361.706" y1="168.438" x2="366.313" y2="173.045"/><line x1="361.706" y1="173.045" x2="366.313" y2="168.438"/>
<line x1="382.629" y1="110.012" x2="387.236" y2="114.619"/><line x1="382.629" y1="114.619" x2="387.236" y2="110.012"/>
</g>
<path d="M147.939,346.022l 2.22997, -1.7791" fill="none" stroke="#00ffff" stroke-width="2"/>
<path d="M150.169,344.243l 4.53543, -3.61843l 4.53543, -3.61843l 4.53543, -3.61843l 4.53543, -3.61843l 4.53543, -3.61843l 4.53543, -3.61843l 4.53543, -3.61843l 4.53543, -3.61843l 4.53543, -3.61843l 4.53543, -3.61843l 4.53543, -3.61843l 4.53543,
 -3.61843l 4.53543, -3.61843l 4.53543, -3.61843l 4.53543, -3.61843l 4.53543, -3.61843l 4.53543, -3.61843l 4.53543, -3.61843l 4.53543, -3.61843l 4.53543, -3.61843l 4.53543, -3.61843l 4.53543, -3.61843l 4.53543, -3.61843l 4.53543, -3.61843l 4.53543,
 -3.61843l 4.53543, -3.61843l 4.53543, -3.61843l 4.53543, -3.61843l 4.53543, -3.61843l 4.53543, -3.61843l 4.53543, -3.61843l 4.53543, -3.61843l 4.53543, -3.61843l 4.53543, -3.61843l 4.53543, -3.61843l 4.53543, -3.61843l 4.53543, -3.61843l 4.53543,
 -3.61843l 4.53543, -3.61843l 4.53543, -3.61843l 4.53543, -3.61843l 4.53543, -3.61843l 4.53543, -3.61843l 4.53543, -3.61843l 4.53543, -3.61843l 4.53543, -3.61843l 4.53543, -3.61843l 4.53543, -3.61843" fill="none" stroke="#00ffff" stroke-width="2"/>
<path d="M367.87,170.559l 4.53543, -3.61843l 4.53543, -3.61843l 4.53543, -3.61843l 4.53543, -3.61843l 4.53543, -3.61843l 4.53543, -3.61843l 4.53543, -3.61843l 4.53543, -3.61843l 4.53543, -3.61843l 4.53543, -3.61843l 4.53543, -3.61843l 4.53543,
 -3.61843l 4.53543, -3.61843l 4.53543, -3.61843l 4.53543, -3.61843l 4.53543, -3.61843l 4.53543, -3.61843l 4.53543, -3.61843l 4.53543, -3.61843l 4.53543, -3.61843l 4.53543, -3.61843l 4.53543, -3.61843l 4.53543, -3.61843l 4.53543, -3.61843l 4.53543,
 -3.61843l 4.53543, -3.61843l 4.53543, -3.61843l 4.53543, -3.61843l 4.53543, -3.61843l 4.53543, -3.61843l 4.53543, -3.61843" fill="none" stroke="#00ffff" stroke-width="2"/>
<rect x="170.579" y="38.4469" width="56.6929" height="115.341" fill="white"/>
<path d="M170.579,153.788h 56.6929" fill="none" stroke="black"/>
<path d="M227.272,153.788v -115.341" fill="none" stroke="black"/>
<path d="M227.272,38.4469h -56.6929" fill="none" stroke="black"/>
<path d="M170.579,38.4469v 115.341" fill="none" stroke="black"/>
<text xml:space="preserve" x="184.589" y="58.6478" fill="black" font-size="14.5188" font-family="Helvetica">ch8</text>
<g fill="black">
<circle cx="177.665" cy="52.8645" r="3.25821"/>
</g>
<text xml:space="preserve" x="184.589" y="87.9718" fill="black" font-size="14.5188" font-family="Helvetica">ch9</text>
<g stroke="black" stroke-width="1" fill="none">
<line x1="174.407" y1="81.6997" x2="180.924" y2="81.6997"/><line x1="177.665" y1="78.4415" x2="177.665" y2="84.9579"/><line x1="175.362" y1="79.3961" x2="179.969" y2="84.0033"/><line x1="175.362" y1="84.0033" x2="179.969" y2="79.3961"/>
</g>
<text xml:space="preserve" x="184.589" y="116.481" fill="black" font-size="14.5188" font-family="Helvetica">ch10</text>
<g stroke="black" stroke-width="1" fill="none">
<circle cx="177.665" cy="110.535" r="3.25821"/>
</g>
<text xml:space="preserve" x="184.589" y="145.805" fill="black" font-size="14.5188" font-family="Helvetica">ch11</text>
<g stroke="black" stroke-width="1" fill="none">
<line x1="175.362" y1="137.067" x2="179.969" y2="141.674"/><line x1="175.362" y1="141.674" x2="179.969" y2="137.067"/>
</g>
<rect x="85.5394" y="38.4469" width="85.0394" height="115.341" fill="white"/>
<path d="M85.5394,153.788h 85.0394" fill="none" stroke="black"/>
<path d="M170.579,153.788v -115.341" fill="none" stroke="black"/>
<path d="M170.579,38.4469h -85.0394" fill="none" stroke="black"/>
<path d="M85.5394,38.4469v 115.341" fill="none" stroke="black"/>
<text xml:space="preserve" x="106.392" y="58.6478" fill="black" font-size="17.6878" font-family="Helvetica">ch8</text>
<path d="M88.7283,52.8645h 14.8819" fill="none" stroke="#ff0000" stroke-width="2"/>
<text xml:space="preserve" x="106.392" y="87.9718" fill="black" font-size="17.6878" font-family="Helvetica">ch9</text>
<path d="M88.7283,81.6997h 14.8819" fill="none" stroke="#0000ff" stroke-width="2"/>
<text xml:space="preserve" x="106.392" y="116.481" fill="black" font-size="17.6878" font-family="Helvetica">ch10</text>
<path d="M88.7283,110.535h 14.8819" fill="none" stroke="#00ff00" stroke-width="2"/>
<text xml:space="preserve" x="106.392" y="145.805" fill="black" font-size="17.6878" font-family="Helvetica">ch11</text>
<path d="M88.7283,139.37h 14.8819" fill="none" stroke="#00ffff" stroke-width="2"/></svg>
