<?xml version="1.0" standalone="no"?>
<svg width="567.429" height="386.304" viewBox="0 0 567.429 386.304" xmlns="http://www.w3.org/2000/svg" shape-rendering="crispEdges">
<title>
img/week2/NonCombinedTimeDistGraph_ch_16_17_18_19.svg
</title>
<desc>
Creator: ROOT Version 6.22/08
CreationDate: Mon Jun 21 21:33:24 2021</desc>
<defs>
</defs>
<rect x="0.5" y="0" width="566.929" height="385.804" fill="white"/>
<rect x="57.1929" y="38.5804" width="453.543" height="308.643" fill="white"/>
<rect x="57.1929" y="38.5804" width="453.543" height="308.643" fill="none" stroke="black"/>
<rect x="57.1929" y="38.5804" width="453.543" height="308.643" fill="white"/>
<rect x="57.1929" y="38.5804" width="453.543" height="308.643" fill="none" stroke="black"/>
<path d="M57.1929,347.224h 453.543" fill="none" stroke="black"/>
<path d="M83.7548,337.964v 9.2593" fill="none" stroke="black"/>
<path d="M93.038,342.594v 4.62965" fill="none" stroke="black"/>
<path d="M102.321,342.594v 4.62965" fill="none" stroke="black"/>
<path d="M111.604,342.594v 4.62965" fill="none" stroke="black"/>
<path d="M120.887,342.594v 4.62965" fill="none" stroke="black"/>
<path d="M130.171,337.964v 9.2593" fill="none" stroke="black"/>
<path d="M139.454,342.594v 4.62965" fill="none" stroke="black"/>
<path d="M148.737,342.594v 4.62965" fill="none" stroke="black"/>
<path d="M158.02,342.594v 4.62965" fill="none" stroke="black"/>
<path d="M167.303,342.594v 4.62965" fill="none" stroke="black"/>
<path d="M176.587,337.964v 9.2593" fill="none" stroke="black"/>
<path d="M185.87,342.594v 4.62965" fill="none" stroke="black"/>
<path d="M195.153,342.594v 4.62965" fill="none" stroke="black"/>
<path d="M204.436,342.594v 4.62965" fill="none" stroke="black"/>
<path d="M213.719,342.594v 4.62965" fill="none" stroke="black"/>
<path d="M223.002,337.964v 9.2593" fill="none" stroke="black"/>
<path d="M232.286,342.594v 4.62965" fill="none" stroke="black"/>
<path d="M241.569,342.594v 4.62965" fill="none" stroke="black"/>
<path d="M250.852,342.594v 4.62965" fill="none" stroke="black"/>
<path d="M260.135,342.594v 4.62965" fill="none" stroke="black"/>
<path d="M269.418,337.964v 9.2593" fill="none" stroke="black"/>
<path d="M278.701,342.594v 4.62965" fill="none" stroke="black"/>
<path d="M287.985,342.594v 4.62965" fill="none" stroke="black"/>
<path d="M297.268,342.594v 4.62965" fill="none" stroke="black"/>
<path d="M306.551,342.594v 4.62965" fill="none" stroke="black"/>
<path d="M315.834,337.964v 9.2593" fill="none" stroke="black"/>
<path d="M325.117,342.594v 4.62965" fill="none" stroke="black"/>
<path d="M334.4,342.594v 4.62965" fill="none" stroke="black"/>
<path d="M343.684,342.594v 4.62965" fill="none" stroke="black"/>
<path d="M352.967,342.594v 4.62965" fill="none" stroke="black"/>
<path d="M362.25,337.964v 9.2593" fill="none" stroke="black"/>
<path d="M371.533,342.594v 4.62965" fill="none" stroke="black"/>
<path d="M380.816,342.594v 4.62965" fill="none" stroke="black"/>
<path d="M390.099,342.594v 4.62965" fill="none" stroke="black"/>
<path d="M399.383,342.594v 4.62965" fill="none" stroke="black"/>
<path d="M408.666,337.964v 9.2593" fill="none" stroke="black"/>
<path d="M417.949,342.594v 4.62965" fill="none" stroke="black"/>
<path d="M427.232,342.594v 4.62965" fill="none" stroke="black"/>
<path d="M436.515,342.594v 4.62965" fill="none" stroke="black"/>
<path d="M445.799,342.594v 4.62965" fill="none" stroke="black"/>
<path d="M455.082,337.964v 9.2593" fill="none" stroke="black"/>
<path d="M464.365,342.594v 4.62965" fill="none" stroke="black"/>
<path d="M473.648,342.594v 4.62965" fill="none" stroke="black"/>
<path d="M482.931,342.594v 4.62965" fill="none" stroke="black"/>
<path d="M492.214,342.594v 4.62965" fill="none" stroke="black"/>
<path d="M501.498,337.964v 9.2593" fill="none" stroke="black"/>
<path d="M83.7548,337.964v 9.2593" fill="none" stroke="black"/>
<path d="M74.4716,342.594v 4.62965" fill="none" stroke="black"/>
<path d="M65.1884,342.594v 4.62965" fill="none" stroke="black"/>
<path d="M501.498,337.964v 9.2593" fill="none" stroke="black"/>
<text xml:space="preserve" x="82.5342" y="359.813" fill="black" font-size="12.8882" font-family="Helvetica">3</text>
<text xml:space="preserve" x="76.0364" y="359.813" fill="black" font-size="12.8882" font-family="Times">&#8722;</text>
<text xml:space="preserve" x="128.831" y="359.813" fill="black" font-size="12.8882" font-family="Helvetica">2</text>
<text xml:space="preserve" x="122.333" y="359.813" fill="black" font-size="12.8882" font-family="Times">&#8722;</text>
<text xml:space="preserve" x="176.752" y="359.813" fill="black" font-size="12.8882" font-family="Helvetica">1</text>
<text xml:space="preserve" x="169.442" y="359.813" fill="black" font-size="12.8882" font-family="Times">&#8722;</text>
<text xml:space="preserve" x="218.175" y="359.813" fill="black" font-size="12.8882" font-family="Helvetica">0</text>
<text xml:space="preserve" x="266.908" y="359.813" fill="black" font-size="12.8882" font-family="Helvetica">1</text>
<text xml:space="preserve" x="311.58" y="359.813" fill="black" font-size="12.8882" font-family="Helvetica">2</text>
<text xml:space="preserve" x="357.877" y="359.813" fill="black" font-size="12.8882" font-family="Helvetica">3</text>
<text xml:space="preserve" x="404.173" y="359.813" fill="black" font-size="12.8882" font-family="Helvetica">4</text>
<text xml:space="preserve" x="450.47" y="359.813" fill="black" font-size="12.8882" font-family="Helvetica">5</text>
<text xml:space="preserve" x="496.766" y="359.813" fill="black" font-size="12.8882" font-family="Helvetica">6</text>
<text xml:space="preserve" x="444.784" y="372.809" fill="black" font-size="12.8882" font-family="Helvetica">time lag[ps]</text>
<path d="M57.1929,347.224v -308.643" fill="none" stroke="black"/>
<path d="M70.7992,347.224h -13.6063" fill="none" stroke="black"/>
<path d="M63.9961,338.848h -6.80315" fill="none" stroke="black"/>
<path d="M63.9961,330.472h -6.80315" fill="none" stroke="black"/>
<path d="M63.9961,322.097h -6.80315" fill="none" stroke="black"/>
<path d="M63.9961,313.721h -6.80315" fill="none" stroke="black"/>
<path d="M70.7992,305.345h -13.6063" fill="none" stroke="black"/>
<path d="M63.9961,296.97h -6.80315" fill="none" stroke="black"/>
<path d="M63.9961,288.594h -6.80315" fill="none" stroke="black"/>
<path d="M63.9961,280.218h -6.80315" fill="none" stroke="black"/>
<path d="M63.9961,271.843h -6.80315" fill="none" stroke="black"/>
<path d="M70.7992,263.467h -13.6063" fill="none" stroke="black"/>
<path d="M63.9961,255.091h -6.80315" fill="none" stroke="black"/>
<path d="M63.9961,246.716h -6.80315" fill="none" stroke="black"/>
<path d="M63.9961,238.34h -6.80315" fill="none" stroke="black"/>
<path d="M63.9961,229.964h -6.80315" fill="none" stroke="black"/>
<path d="M70.7992,221.589h -13.6063" fill="none" stroke="black"/>
<path d="M63.9961,213.213h -6.80315" fill="none" stroke="black"/>
<path d="M63.9961,204.837h -6.80315" fill="none" stroke="black"/>
<path d="M63.9961,196.462h -6.80315" fill="none" stroke="black"/>
<path d="M63.9961,188.086h -6.80315" fill="none" stroke="black"/>
<path d="M70.7992,179.71h -13.6063" fill="none" stroke="black"/>
<path d="M63.9961,171.335h -6.80315" fill="none" stroke="black"/>
<path d="M63.9961,162.959h -6.80315" fill="none" stroke="black"/>
<path d="M63.9961,154.583h -6.80315" fill="none" stroke="black"/>
<path d="M63.9961,146.208h -6.80315" fill="none" stroke="black"/>
<path d="M70.7992,137.832h -13.6063" fill="none" stroke="black"/>
<path d="M63.9961,129.456h -6.80315" fill="none" stroke="black"/>
<path d="M63.9961,121.081h -6.80315" fill="none" stroke="black"/>
<path d="M63.9961,112.705h -6.80315" fill="none" stroke="black"/>
<path d="M63.9961,104.329h -6.80315" fill="none" stroke="black"/>
<path d="M70.7992,95.9538h -13.6063" fill="none" stroke="black"/>
<path d="M63.9961,87.5781h -6.80315" fill="none" stroke="black"/>
<path d="M63.9961,79.2024h -6.80315" fill="none" stroke="black"/>
<path d="M63.9961,70.8267h -6.80315" fill="none" stroke="black"/>
<path d="M63.9961,62.4511h -6.80315" fill="none" stroke="black"/>
<path d="M70.7992,54.0754h -13.6063" fill="none" stroke="black"/>
<path d="M70.7992,54.0754h -13.6063" fill="none" stroke="black"/>
<path d="M63.9961,45.6997h -6.80315" fill="none" stroke="black"/>
<text xml:space="preserve" x="46.7965" y="351.691" fill="black" font-size="12.8882" font-family="Helvetica">0</text>
<text xml:space="preserve" x="32.1766" y="309.456" fill="black" font-size="12.8882" font-family="Helvetica">100</text>
<text xml:space="preserve" x="32.1766" y="268.032" fill="black" font-size="12.8882" font-family="Helvetica">200</text>
<text xml:space="preserve" x="32.1766" y="225.797" fill="black" font-size="12.8882" font-family="Helvetica">300</text>
<text xml:space="preserve" x="32.1766" y="184.374" fill="black" font-size="12.8882" font-family="Helvetica">400</text>
<text xml:space="preserve" x="32.1766" y="142.138" fill="black" font-size="12.8882" font-family="Helvetica">500</text>
<text xml:space="preserve" x="32.1766" y="100.715" fill="black" font-size="12.8882" font-family="Helvetica">600</text>
<text xml:space="preserve" x="32.1766" y="58.4798" fill="black" font-size="12.8882" font-family="Helvetica">700</text>
<g transform="rotate(-90,19.9933,118.584)">
<text xml:space="preserve" x="19.9933" y="118.584" fill="black" font-size="12.8882" font-family="Helvetica">distance [mm]</text>
</g>
<g fill="black">
<circle cx="121.481" cy="347.224" r="3.24888"/>
<circle cx="158.092" cy="288.594" r="3.24888"/>
<circle cx="273.539" cy="229.964" r="3.24888"/>
<circle cx="351.545" cy="171.335" r="3.24888"/>
<circle cx="441.907" cy="112.705" r="3.24888"/>
<circle cx="454.965" cy="66.6389" r="3.24888"/>
</g>
<path d="M102.421,347.224l 2.39361, -1.77411" fill="none" stroke="#ff0000" stroke-width="2"/>
<path d="M104.815,345.45l 4.53543, -3.3616l 4.53543, -3.3616l 4.53543, -3.3616l 4.53543, -3.3616l 4.53543, -3.3616l 4.53543, -3.3616l 4.53543, -3.3616l 4.53543, -3.3616l 4.53543, -3.3616l 4.53543, -3.3616l 4.53543, -3.3616l 4.53543, -3.3616l 4.53543,
 -3.3616l 4.53543, -3.3616l 4.53543, -3.3616l 4.53543, -3.3616l 4.53543, -3.3616l 4.53543, -3.3616l 4.53543, -3.3616l 4.53543, -3.3616l 4.53543, -3.3616l 4.53543, -3.3616l 4.53543, -3.3616l 4.53543, -3.3616l 4.53543, -3.3616l 4.53543, -3.3616l
 4.53543, -3.3616l 4.53543, -3.3616l 4.53543, -3.3616l 4.53543, -3.3616l 4.53543, -3.3616l 4.53543, -3.3616l 4.53543, -3.3616l 4.53543, -3.3616l 4.53543, -3.3616l 4.53543, -3.3616l 4.53543, -3.3616l 4.53543, -3.3616l 4.53543, -3.3616l 4.53543,
 -3.3616l 4.53543, -3.3616l 4.53543, -3.3616l 4.53543, -3.3616l 4.53543, -3.3616l 4.53543, -3.3616l 4.53543, -3.3616l 4.53543, -3.3616l 4.53543, -3.3616" fill="none" stroke="#ff0000" stroke-width="2"/>
<path d="M322.516,184.093l 4.53543, -3.3616l 4.53543, -3.3616l 4.53543, -3.3616l 4.53543, -3.3616l 4.53543, -3.3616l 4.53543, -3.3616l 4.53543, -3.3616l 4.53543, -3.3616l 4.53543, -3.3616l 4.53543, -3.3616l 4.53543, -3.3616l 4.53543, -3.3616l
 4.53543, -3.3616l 4.53543, -3.3616l 4.53543, -3.3616l 4.53543, -3.3616l 4.53543, -3.3616l 4.53543, -3.3616l 4.53543, -3.3616l 4.53543, -3.3616l 4.53543, -3.3616l 4.53543, -3.3616l 4.53543, -3.3616l 4.53543, -3.3616l 4.53543, -3.3616l 4.53543,
 -3.3616l 4.53543, -3.3616l 4.53543, -3.3616l 4.53543, -3.3616l 4.53543, -3.3616l 4.53543, -3.3616l 4.53543, -3.3616l 4.53543, -3.3616l 4.53543, -3.3616l 4.53543, -3.3616l 4.53543, -3.3616l 4.53543, -3.3616l 4.53543, -3.3616l 4.53543, -3.3616l
 4.53543, -3.3616l 4.53543, -3.3616" fill="none" stroke="#ff0000" stroke-width="2"/>
<path d="M121.481,347.224h -26.4923" fill="none" stroke="black"/>
<path d="M94.9882,347.224v -1.62444" fill="none" stroke="black"/>
<path d="M121.481,347.224h 26.4923" fill="none" stroke="black"/>
<path d="M147.973,347.224v -1.62444" fill="none" stroke="black"/>
<path d="M158.092,288.594h -14.2219" fill="none" stroke="black"/>
<path d="M143.87,290.219v -3.24888" fill="none" stroke="black"/>
<path d="M158.092,288.594h 14.2219" fill="none" stroke="black"/>
<path d="M172.314,290.219v -3.24888" fill="none" stroke="black"/>
<path d="M273.539,229.964h -14.8646" fill="none" stroke="black"/>
<path d="M258.675,231.589v -3.24888" fill="none" stroke="black"/>
<path d="M273.539,229.964h 14.8646" fill="none" stroke="black"/>
<path d="M288.404,231.589v -3.24888" fill="none" stroke="black"/>
<path d="M351.545,171.335h -14.1674" fill="none" stroke="black"/>
<path d="M337.378,172.959v -3.24888" fill="none" stroke="black"/>
<path d="M351.545,171.335h 14.1674" fill="none" stroke="black"/>
<path d="M365.713,172.959v -3.24888" fill="none" stroke="black"/>
<path d="M441.907,112.705h -21.0772" fill="none" stroke="black"/>
<path d="M420.829,114.33v -3.24888" fill="none" stroke="black"/>
<path d="M441.907,112.705h 21.0772" fill="none" stroke="black"/>
<path d="M462.984,114.33v -3.24888" fill="none" stroke="black"/>
<path d="M454.965,66.6389h -17.9764" fill="none" stroke="black"/>
<path d="M436.988,68.2634v -3.24888" fill="none" stroke="black"/>
<path d="M454.965,66.6389h 17.9764" fill="none" stroke="black"/>
<path d="M472.941,68.2634v -3.24888" fill="none" stroke="black"/>
<path d="M121.481,347.224h -26.4923" fill="none" stroke="black"/>
<path d="M94.9882,347.224v -1.62444" fill="none" stroke="black"/>
<path d="M121.481,347.224h 26.4923" fill="none" stroke="black"/>
<path d="M147.973,347.224v -1.62444" fill="none" stroke="black"/>
<path d="M158.092,288.594h -14.2219" fill="none" stroke="black"/>
<path d="M143.87,290.219v -3.24888" fill="none" stroke="black"/>
<path d="M158.092,288.594h 14.2219" fill="none" stroke="black"/>
<path d="M172.314,290.219v -3.24888" fill="none" stroke="black"/>
<path d="M273.539,229.964h -14.8646" fill="none" stroke="black"/>
<path d="M258.675,231.589v -3.24888" fill="none" stroke="black"/>
<path d="M273.539,229.964h 14.8646" fill="none" stroke="black"/>
<path d="M288.404,231.589v -3.24888" fill="none" stroke="black"/>
<path d="M351.545,171.335h -14.1674" fill="none" stroke="black"/>
<path d="M337.378,172.959v -3.24888" fill="none" stroke="black"/>
<path d="M351.545,171.335h 14.1674" fill="none" stroke="black"/>
<path d="M365.713,172.959v -3.24888" fill="none" stroke="black"/>
<path d="M441.907,112.705h -21.0772" fill="none" stroke="black"/>
<path d="M420.829,114.33v -3.24888" fill="none" stroke="black"/>
<path d="M441.907,112.705h 21.0772" fill="none" stroke="black"/>
<path d="M462.984,114.33v -3.24888" fill="none" stroke="black"/>
<path d="M454.965,66.6389h -17.9764" fill="none" stroke="black"/>
<path d="M436.988,68.2634v -3.24888" fill="none" stroke="black"/>
<path d="M454.965,66.6389h 17.9764" fill="none" stroke="black"/>
<path d="M472.941,68.2634v -3.24888" fill="none" stroke="black"/>
<g fill="black">
<circle cx="121.481" cy="347.224" r="3.24888"/>
<circle cx="158.092" cy="288.594" r="3.24888"/>
<circle cx="273.539" cy="229.964" r="3.24888"/>
<circle cx="351.545" cy="171.335" r="3.24888"/>
<circle cx="441.907" cy="112.705" r="3.24888"/>
<circle cx="454.965" cy="66.6389" r="3.24888"/>
</g>
<path d="M102.421,347.224l 2.39361, -1.77411" fill="none" stroke="#ff0000" stroke-width="2"/>
<path d="M104.815,345.45l 4.53543, -3.3616l 4.53543, -3.3616l 4.53543, -3.3616l 4.53543, -3.3616l 4.53543, -3.3616l 4.53543, -3.3616l 4.53543, -3.3616l 4.53543, -3.3616l 4.53543, -3.3616l 4.53543, -3.3616l 4.53543, -3.3616l 4.53543, -3.3616l 4.53543,
 -3.3616l 4.53543, -3.3616l 4.53543, -3.3616l 4.53543, -3.3616l 4.53543, -3.3616l 4.53543, -3.3616l 4.53543, -3.3616l 4.53543, -3.3616l 4.53543, -3.3616l 4.53543, -3.3616l 4.53543, -3.3616l 4.53543, -3.3616l 4.53543, -3.3616l 4.53543, -3.3616l
 4.53543, -3.3616l 4.53543, -3.3616l 4.53543, -3.3616l 4.53543, -3.3616l 4.53543, -3.3616l 4.53543, -3.3616l 4.53543, -3.3616l 4.53543, -3.3616l 4.53543, -3.3616l 4.53543, -3.3616l 4.53543, -3.3616l 4.53543, -3.3616l 4.53543, -3.3616l 4.53543,
 -3.3616l 4.53543, -3.3616l 4.53543, -3.3616l 4.53543, -3.3616l 4.53543, -3.3616l 4.53543, -3.3616l 4.53543, -3.3616l 4.53543, -3.3616l 4.53543, -3.3616" fill="none" stroke="#ff0000" stroke-width="2"/>
<path d="M322.516,184.093l 4.53543, -3.3616l 4.53543, -3.3616l 4.53543, -3.3616l 4.53543, -3.3616l 4.53543, -3.3616l 4.53543, -3.3616l 4.53543, -3.3616l 4.53543, -3.3616l 4.53543, -3.3616l 4.53543, -3.3616l 4.53543, -3.3616l 4.53543, -3.3616l
 4.53543, -3.3616l 4.53543, -3.3616l 4.53543, -3.3616l 4.53543, -3.3616l 4.53543, -3.3616l 4.53543, -3.3616l 4.53543, -3.3616l 4.53543, -3.3616l 4.53543, -3.3616l 4.53543, -3.3616l 4.53543, -3.3616l 4.53543, -3.3616l 4.53543, -3.3616l 4.53543,
 -3.3616l 4.53543, -3.3616l 4.53543, -3.3616l 4.53543, -3.3616l 4.53543, -3.3616l 4.53543, -3.3616l 4.53543, -3.3616l 4.53543, -3.3616l 4.53543, -3.3616l 4.53543, -3.3616l 4.53543, -3.3616l 4.53543, -3.3616l 4.53543, -3.3616l 4.53543, -3.3616l
 4.53543, -3.3616l 4.53543, -3.3616" fill="none" stroke="#ff0000" stroke-width="2"/>
<path d="M71.4655,347.224h -14.2726" fill="none" stroke="black"/>
<path d="M71.4655,347.224h 17.5885" fill="none" stroke="black"/>
<path d="M89.054,347.224v -1.62444" fill="none" stroke="black"/>
<path d="M176.166,288.594h -12.5856" fill="none" stroke="black"/>
<path d="M163.58,290.219v -3.24888" fill="none" stroke="black"/>
<path d="M176.166,288.594h 12.5856" fill="none" stroke="black"/>
<path d="M188.751,290.219v -3.24888" fill="none" stroke="black"/>
<path d="M242.422,229.964h -15.733" fill="none" stroke="black"/>
<path d="M226.689,231.589v -3.24888" fill="none" stroke="black"/>
<path d="M242.422,229.964h 15.733" fill="none" stroke="black"/>
<path d="M258.155,231.589v -3.24888" fill="none" stroke="black"/>
<path d="M327.403,171.335h -13.0909" fill="none" stroke="black"/>
<path d="M314.312,172.959v -3.24888" fill="none" stroke="black"/>
<path d="M327.403,171.335h 13.0909" fill="none" stroke="black"/>
<path d="M340.494,172.959v -3.24888" fill="none" stroke="black"/>
<path d="M426.218,112.705h -16.9284" fill="none" stroke="black"/>
<path d="M409.29,114.33v -3.24888" fill="none" stroke="black"/>
<path d="M426.218,112.705h 16.9284" fill="none" stroke="black"/>
<path d="M443.147,114.33v -3.24888" fill="none" stroke="black"/>
<path d="M503.769,66.6389h -21.8203" fill="none" stroke="black"/>
<path d="M481.948,68.2634v -3.24888" fill="none" stroke="black"/>
<path d="M503.769,66.6389h 6.96746" fill="none" stroke="black"/>
<g stroke="black" stroke-width="1" fill="none">
<line x1="68.2166" y1="347.224" x2="74.7144" y2="347.224"/><line x1="71.4655" y1="343.975" x2="71.4655" y2="350.473"/><line x1="69.1686" y1="344.927" x2="73.7625" y2="349.521"/><line x1="69.1686" y1="349.521" x2="73.7625" y2="344.927"/>
<line x1="172.917" y1="288.594" x2="179.414" y2="288.594"/><line x1="176.166" y1="285.345" x2="176.166" y2="291.843"/><line x1="173.869" y1="286.297" x2="178.463" y2="290.891"/><line x1="173.869" y1="290.891" x2="178.463" y2="286.297"/>
<line x1="239.174" y1="229.964" x2="245.671" y2="229.964"/><line x1="242.422" y1="226.716" x2="242.422" y2="233.213"/><line x1="240.125" y1="227.667" x2="244.719" y2="232.261"/><line x1="240.125" y1="232.261" x2="244.719" y2="227.667"/>
<line x1="324.154" y1="171.335" x2="330.652" y2="171.335"/><line x1="327.403" y1="168.086" x2="327.403" y2="174.584"/><line x1="325.106" y1="169.038" x2="329.7" y2="173.632"/><line x1="325.106" y1="173.632" x2="329.7" y2="169.038"/>
<line x1="422.969" y1="112.705" x2="429.467" y2="112.705"/><line x1="426.218" y1="109.456" x2="426.218" y2="115.954"/><line x1="423.921" y1="110.408" x2="428.515" y2="115.002"/><line x1="423.921" y1="115.002" x2="428.515" y2="110.408"/>
<line x1="500.52" y1="66.6389" x2="507.018" y2="66.6389"/><line x1="503.769" y1="63.39" x2="503.769" y2="69.8878"/><line x1="501.472" y1="64.342" x2="506.066" y2="68.9359"/><line x1="501.472" y1="68.9359" x2="506.066" y2="64.342"/>
</g>
<path d="M77.8167,347.224l 4.32113, -2.93122" fill="none" stroke="#0000ff" stroke-width="2"/>
<path d="M82.1378,344.293l 4.53543, -3.07659l 4.53543, -3.07659l 4.53543, -3.07659l 4.53543, -3.07659l 4.53543, -3.07659l 4.53543, -3.07659l 4.53543, -3.07659l 4.53543, -3.07659l 4.53543, -3.07659l 4.53543, -3.07659l 4.53543, -3.07659l 4.53543,
 -3.07659l 4.53543, -3.07659l 4.53543, -3.07659l 4.53543, -3.07659l 4.53543, -3.07659l 4.53543, -3.07659l 4.53543, -3.07659l 4.53543, -3.07659l 4.53543, -3.07659l 4.53543, -3.07659l 4.53543, -3.07659l 4.53543, -3.07659l 4.53543, -3.07659l 4.53543,
 -3.07659l 4.53543, -3.07659l 4.53543, -3.07659l 4.53543, -3.07659l 4.53543, -3.07659l 4.53543, -3.07659l 4.53543, -3.07659l 4.53543, -3.07659l 4.53543, -3.07659l 4.53543, -3.07659l 4.53543, -3.07659l 4.53543, -3.07659l 4.53543, -3.07659l 4.53543,
 -3.07659l 4.53543, -3.07659l 4.53543, -3.07659l 4.53543, -3.07659l 4.53543, -3.07659l 4.53543, -3.07659l 4.53543, -3.07659l 4.53543, -3.07659l 4.53543, -3.07659l 4.53543, -3.07659l 4.53543, -3.07659" fill="none" stroke="#0000ff" stroke-width="2"/>
<path d="M299.839,196.616l 4.53543, -3.07659l 4.53543, -3.07659l 4.53543, -3.07659l 4.53543, -3.07659l 4.53543, -3.07659l 4.53543, -3.07659l 4.53543, -3.07659l 4.53543, -3.07659l 4.53543, -3.07659l 4.53543, -3.07659l 4.53543, -3.07659l 4.53543,
 -3.07659l 4.53543, -3.07659l 4.53543, -3.07659l 4.53543, -3.07659l 4.53543, -3.07659l 4.53543, -3.07659l 4.53543, -3.07659l 4.53543, -3.07659l 4.53543, -3.07659l 4.53543, -3.07659l 4.53543, -3.07659l 4.53543, -3.07659l 4.53543, -3.07659l 4.53543,
 -3.07659l 4.53543, -3.07659l 4.53543, -3.07659l 4.53543, -3.07659l 4.53543, -3.07659l 4.53543, -3.07659l 4.53543, -3.07659l 4.53543, -3.07659l 4.53543, -3.07659l 4.53543, -3.07659l 4.53543, -3.07659l 4.53543, -3.07659l 4.53543, -3.07659l 4.53543,
 -3.07659l 4.53543, -3.07659l 4.53543, -3.07659l 4.53543, -3.07659l 4.53543, -3.07659l 4.53543, -3.07659l 4.53543, -3.07659l 4.53543, -3.07659l 4.53543, -3.07659" fill="none" stroke="#0000ff" stroke-width="2"/>
<path d="M100.022,288.594h -14.3908" fill="none" stroke="black"/>
<path d="M85.6315,290.219v -3.24888" fill="none" stroke="black"/>
<path d="M100.022,288.594h 14.3908" fill="none" stroke="black"/>
<path d="M114.413,290.219v -3.24888" fill="none" stroke="black"/>
<path d="M198.266,229.964h -14.6497" fill="none" stroke="black"/>
<path d="M183.616,231.589v -3.24888" fill="none" stroke="black"/>
<path d="M198.266,229.964h 14.6497" fill="none" stroke="black"/>
<path d="M212.916,231.589v -3.24888" fill="none" stroke="black"/>
<path d="M297.19,171.335h -16.1881" fill="none" stroke="black"/>
<path d="M281.002,172.959v -3.24888" fill="none" stroke="black"/>
<path d="M297.19,171.335h 16.1881" fill="none" stroke="black"/>
<path d="M313.378,172.959v -3.24888" fill="none" stroke="black"/>
<path d="M363.711,112.705h -16.2893" fill="none" stroke="black"/>
<path d="M347.422,114.33v -3.24888" fill="none" stroke="black"/>
<path d="M363.711,112.705h 16.2893" fill="none" stroke="black"/>
<path d="M380,114.33v -3.24888" fill="none" stroke="black"/>
<path d="M452.763,66.6389h -18.5118" fill="none" stroke="black"/>
<path d="M434.251,68.2634v -3.24888" fill="none" stroke="black"/>
<path d="M452.763,66.6389h 18.5118" fill="none" stroke="black"/>
<path d="M471.275,68.2634v -3.24888" fill="none" stroke="black"/>
<g stroke="black" stroke-width="1" fill="none">
<circle cx="100.022" cy="288.594" r="3.24888"/>
<circle cx="198.266" cy="229.964" r="3.24888"/>
<circle cx="297.19" cy="171.335" r="3.24888"/>
<circle cx="363.711" cy="112.705" r="3.24888"/>
<circle cx="452.763" cy="66.6389" r="3.24888"/>
</g>
<path d="M59.4606,326.282l 4.53543, -3.07832l 4.53543, -3.07832l 4.53543, -3.07832l 4.53543, -3.07832l 4.53543, -3.07832l 4.53543, -3.07832l 4.53543, -3.07832l 4.53543, -3.07832l 4.53543, -3.07832l 4.53543, -3.07832l 4.53543, -3.07832l 4.53543,
 -3.07832l 4.53543, -3.07832l 4.53543, -3.07832l 4.53543, -3.07832l 4.53543, -3.07832l 4.53543, -3.07832l 4.53543, -3.07832l 4.53543, -3.07832l 4.53543, -3.07832l 4.53543, -3.07832l 4.53543, -3.07832l 4.53543, -3.07832l 4.53543, -3.07832l 4.53543,
 -3.07832l 4.53543, -3.07832l 4.53543, -3.07832l 4.53543, -3.07832l 4.53543, -3.07832l 4.53543, -3.07832l 4.53543, -3.07832l 4.53543, -3.07832l 4.53543, -3.07832l 4.53543, -3.07832l 4.53543, -3.07832l 4.53543, -3.07832l 4.53543, -3.07832l 4.53543,
 -3.07832l 4.53543, -3.07832l 4.53543, -3.07832l 4.53543, -3.07832l 4.53543, -3.07832l 4.53543, -3.07832l 4.53543, -3.07832l 4.53543, -3.07832l 4.53543, -3.07832l 4.53543, -3.07832l 4.53543, -3.07832l 4.53543, -3.07832" fill="none" stroke="#00ff00"
 stroke-width="2"/>
<path d="M281.697,175.444l 4.53543, -3.07832l 4.53543, -3.07832l 4.53543, -3.07832l 4.53543, -3.07832l 4.53543, -3.07832l 4.53543, -3.07832l 4.53543, -3.07832l 4.53543, -3.07832l 4.53543, -3.07832l 4.53543, -3.07832l 4.53543, -3.07832l 4.53543,
 -3.07832l 4.53543, -3.07832l 4.53543, -3.07832l 4.53543, -3.07832l 4.53543, -3.07832l 4.53543, -3.07832l 4.53543, -3.07832l 4.53543, -3.07832l 4.53543, -3.07832l 4.53543, -3.07832l 4.53543, -3.07832l 4.53543, -3.07832l 4.53543, -3.07832l 4.53543,
 -3.07832l 4.53543, -3.07832l 4.53543, -3.07832l 4.53543, -3.07832l 4.53543, -3.07832l 4.53543, -3.07832l 4.53543, -3.07832l 4.53543, -3.07832l 4.53543, -3.07832l 4.53543, -3.07832l 4.53543, -3.07832l 4.53543, -3.07832l 4.53543, -3.07832l 4.53543,
 -3.07832l 4.53543, -3.07832l 4.53543, -3.07832l 4.53543, -3.07832l 4.53543, -3.07832l 4.53543, -3.07832l 4.53543, -3.07832l 2.08884, -1.41775" fill="none" stroke="#00ff00" stroke-width="2"/>
<path d="M86.8663,347.224h -19.824" fill="none" stroke="black"/>
<path d="M67.0423,347.224v -1.62444" fill="none" stroke="black"/>
<path d="M86.8663,347.224h 19.824" fill="none" stroke="black"/>
<path d="M106.69,347.224v -1.62444" fill="none" stroke="black"/>
<path d="M172.393,288.594h -15.4926" fill="none" stroke="black"/>
<path d="M156.9,290.219v -3.24888" fill="none" stroke="black"/>
<path d="M172.393,288.594h 15.4926" fill="none" stroke="black"/>
<path d="M187.885,290.219v -3.24888" fill="none" stroke="black"/>
<path d="M279.671,229.964h -14.1623" fill="none" stroke="black"/>
<path d="M265.508,231.589v -3.24888" fill="none" stroke="black"/>
<path d="M279.671,229.964h 14.1623" fill="none" stroke="black"/>
<path d="M293.833,231.589v -3.24888" fill="none" stroke="black"/>
<path d="M347.564,171.335h -20.3327" fill="none" stroke="black"/>
<path d="M327.231,172.959v -3.24888" fill="none" stroke="black"/>
<path d="M347.564,171.335h 20.3327" fill="none" stroke="black"/>
<path d="M367.896,172.959v -3.24888" fill="none" stroke="black"/>
<path d="M427.195,112.705h -18.1722" fill="none" stroke="black"/>
<path d="M409.023,114.33v -3.24888" fill="none" stroke="black"/>
<path d="M427.195,112.705h 18.1722" fill="none" stroke="black"/>
<path d="M445.367,114.33v -3.24888" fill="none" stroke="black"/>
<path d="M472.459,66.6389h -18.2931" fill="none" stroke="black"/>
<path d="M454.166,68.2634v -3.24888" fill="none" stroke="black"/>
<path d="M472.459,66.6389h 18.2931" fill="none" stroke="black"/>
<path d="M490.752,68.2634v -3.24888" fill="none" stroke="black"/>
<g stroke="black" stroke-width="1" fill="none">
<line x1="84.5693" y1="344.927" x2="89.1633" y2="349.521"/><line x1="84.5693" y1="349.521" x2="89.1633" y2="344.927"/>
<line x1="170.096" y1="286.297" x2="174.69" y2="290.891"/><line x1="170.096" y1="290.891" x2="174.69" y2="286.297"/>
<line x1="277.374" y1="227.667" x2="281.968" y2="232.261"/><line x1="277.374" y1="232.261" x2="281.968" y2="227.667"/>
<line x1="345.267" y1="169.038" x2="349.861" y2="173.632"/><line x1="345.267" y1="173.632" x2="349.861" y2="169.038"/>
<line x1="424.898" y1="110.408" x2="429.492" y2="115.002"/><line x1="424.898" y1="115.002" x2="429.492" y2="110.408"/>
<line x1="470.162" y1="64.342" x2="474.756" y2="68.9359"/><line x1="470.162" y1="68.9359" x2="474.756" y2="64.342"/>
</g>
<path d="M99.2816,347.224l 0.99792, -0.720714" fill="none" stroke="#00ffff" stroke-width="2"/>
<path d="M100.28,346.503l 4.53543, -3.27556l 4.53543, -3.27556l 4.53543, -3.27556l 4.53543, -3.27556l 4.53543, -3.27556l 4.53543, -3.27556l 4.53543, -3.27556l 4.53543, -3.27556l 4.53543, -3.27556l 4.53543, -3.27556l 4.53543, -3.27556l 4.53543,
 -3.27556l 4.53543, -3.27556l 4.53543, -3.27556l 4.53543, -3.27556l 4.53543, -3.27556l 4.53543, -3.27556l 4.53543, -3.27556l 4.53543, -3.27556l 4.53543, -3.27556l 4.53543, -3.27556l 4.53543, -3.27556l 4.53543, -3.27556l 4.53543, -3.27556l 4.53543,
 -3.27556l 4.53543, -3.27556l 4.53543, -3.27556l 4.53543, -3.27556l 4.53543, -3.27556l 4.53543, -3.27556l 4.53543, -3.27556l 4.53543, -3.27556l 4.53543, -3.27556l 4.53543, -3.27556l 4.53543, -3.27556l 4.53543, -3.27556l 4.53543, -3.27556l 4.53543,
 -3.27556l 4.53543, -3.27556l 4.53543, -3.27556l 4.53543, -3.27556l 4.53543, -3.27556l 4.53543, -3.27556l 4.53543, -3.27556l 4.53543, -3.27556l 4.53543, -3.27556l 4.53543, -3.27556l 4.53543, -3.27556" fill="none" stroke="#00ffff" stroke-width="2"/>
<path d="M317.98,189.276l 4.53543, -3.27556l 4.53543, -3.27556l 4.53543, -3.27556l 4.53543, -3.27556l 4.53543, -3.27556l 4.53543, -3.27556l 4.53543, -3.27556l 4.53543, -3.27556l 4.53543, -3.27556l 4.53543, -3.27556l 4.53543, -3.27556l 4.53543,
 -3.27556l 4.53543, -3.27556l 4.53543, -3.27556l 4.53543, -3.27556l 4.53543, -3.27556l 4.53543, -3.27556l 4.53543, -3.27556l 4.53543, -3.27556l 4.53543, -3.27556l 4.53543, -3.27556l 4.53543, -3.27556l 4.53543, -3.27556l 4.53543, -3.27556l 4.53543,
 -3.27556l 4.53543, -3.27556l 4.53543, -3.27556l 4.53543, -3.27556l 4.53543, -3.27556l 4.53543, -3.27556l 4.53543, -3.27556l 4.53543, -3.27556l 4.53543, -3.27556l 4.53543, -3.27556l 4.53543, -3.27556l 4.53543, -3.27556l 4.53543, -3.27556l 4.53543,
 -3.27556l 4.53543, -3.27556l 4.53543, -3.27556l 4.53543, -3.27556l 4.53543, -3.27556" fill="none" stroke="#00ffff" stroke-width="2"/>
<rect x="170.579" y="38.5804" width="56.6929" height="115.741" fill="white"/>
<path d="M170.579,154.322h 56.6929" fill="none" stroke="black"/>
<path d="M227.272,154.322v -115.741" fill="none" stroke="black"/>
<path d="M227.272,38.5804h -56.6929" fill="none" stroke="black"/>
<path d="M170.579,38.5804v 115.741" fill="none" stroke="black"/>
<text xml:space="preserve" x="184.062" y="59.292" fill="black" font-size="14.3419" font-family="Helvetica">ch16</text>
<g fill="black">
<circle cx="177.665" cy="53.0481" r="3.24888"/>
</g>
<text xml:space="preserve" x="184.062" y="87.7197" fill="black" font-size="14.3419" font-family="Helvetica">ch17</text>
<g stroke="black" stroke-width="1" fill="none">
<line x1="174.416" y1="81.9834" x2="180.914" y2="81.9834"/><line x1="177.665" y1="78.7345" x2="177.665" y2="85.2323"/><line x1="175.368" y1="79.6864" x2="179.962" y2="84.2803"/><line x1="175.368" y1="84.2803" x2="179.962" y2="79.6864"/>
</g>
<text xml:space="preserve" x="184.062" y="116.96" fill="black" font-size="14.3419" font-family="Helvetica">ch18</text>
<g stroke="black" stroke-width="1" fill="none">
<circle cx="177.665" cy="110.919" r="3.24888"/>
</g>
<text xml:space="preserve" x="184.062" y="146.199" fill="black" font-size="14.3419" font-family="Helvetica">ch19</text>
<g stroke="black" stroke-width="1" fill="none">
<line x1="175.368" y1="137.557" x2="179.962" y2="142.151"/><line x1="175.368" y1="142.151" x2="179.962" y2="137.557"/>
</g>
<rect x="85.5394" y="38.5804" width="85.0394" height="115.741" fill="white"/>
<path d="M85.5394,154.322h 85.0394" fill="none" stroke="black"/>
<path d="M170.579,154.322v -115.741" fill="none" stroke="black"/>
<path d="M170.579,38.5804h -85.0394" fill="none" stroke="black"/>
<path d="M85.5394,38.5804v 115.741" fill="none" stroke="black"/>
<text xml:space="preserve" x="106.089" y="59.292" fill="black" font-size="16.8934" font-family="Helvetica">ch16</text>
<path d="M88.7283,53.0481h 14.8819" fill="none" stroke="#ff0000" stroke-width="2"/>
<text xml:space="preserve" x="106.089" y="87.7197" fill="black" font-size="16.8934" font-family="Helvetica">ch17</text>
<path d="M88.7283,81.9834h 14.8819" fill="none" stroke="#0000ff" stroke-width="2"/>
<text xml:space="preserve" x="106.089" y="116.96" fill="black" font-size="16.8934" font-family="Helvetica">ch18</text>
<path d="M88.7283,110.919h 14.8819" fill="none" stroke="#00ff00" stroke-width="2"/>
<text xml:space="preserve" x="106.089" y="146.199" fill="black" font-size="16.8934" font-family="Helvetica">ch19</text>
<path d="M88.7283,139.854h 14.8819" fill="none" stroke="#00ffff" stroke-width="2"/></svg>
