<?xml version="1.0" standalone="no"?>
<svg width="567.429" height="384.969" viewBox="0 0 567.429 384.969" xmlns="http://www.w3.org/2000/svg" shape-rendering="crispEdges">
<title>
img/week2/NonCombinedTimeDistGraph_ch_0_1_2_3.svg
</title>
<desc>
Creator: ROOT Version 6.22/09
CreationDate: Thu Jun 24 12:33:04 2021</desc>
<defs>
</defs>
<rect x="0.5" y="0" width="566.929" height="384.469" fill="white"/>
<rect x="57.1929" y="38.4469" width="453.543" height="307.575" fill="white"/>
<rect x="57.1929" y="38.4469" width="453.543" height="307.575" fill="none" stroke="black"/>
<rect x="57.1929" y="38.4469" width="453.543" height="307.575" fill="white"/>
<rect x="57.1929" y="38.4469" width="453.543" height="307.575" fill="none" stroke="black"/>
<path d="M57.1929,346.022h 453.543" fill="none" stroke="black"/>
<path d="M73.2822,336.795v 9.22726" fill="none" stroke="black"/>
<path d="M83.3157,341.409v 4.61363" fill="none" stroke="black"/>
<path d="M93.3492,341.409v 4.61363" fill="none" stroke="black"/>
<path d="M103.383,341.409v 4.61363" fill="none" stroke="black"/>
<path d="M113.416,341.409v 4.61363" fill="none" stroke="black"/>
<path d="M123.45,336.795v 9.22726" fill="none" stroke="black"/>
<path d="M133.483,341.409v 4.61363" fill="none" stroke="black"/>
<path d="M143.517,341.409v 4.61363" fill="none" stroke="black"/>
<path d="M153.55,341.409v 4.61363" fill="none" stroke="black"/>
<path d="M163.584,341.409v 4.61363" fill="none" stroke="black"/>
<path d="M173.617,336.795v 9.22726" fill="none" stroke="black"/>
<path d="M183.65,341.409v 4.61363" fill="none" stroke="black"/>
<path d="M193.684,341.409v 4.61363" fill="none" stroke="black"/>
<path d="M203.717,341.409v 4.61363" fill="none" stroke="black"/>
<path d="M213.751,341.409v 4.61363" fill="none" stroke="black"/>
<path d="M223.784,336.795v 9.22726" fill="none" stroke="black"/>
<path d="M233.818,341.409v 4.61363" fill="none" stroke="black"/>
<path d="M243.851,341.409v 4.61363" fill="none" stroke="black"/>
<path d="M253.885,341.409v 4.61363" fill="none" stroke="black"/>
<path d="M263.918,341.409v 4.61363" fill="none" stroke="black"/>
<path d="M273.952,336.795v 9.22726" fill="none" stroke="black"/>
<path d="M283.985,341.409v 4.61363" fill="none" stroke="black"/>
<path d="M294.019,341.409v 4.61363" fill="none" stroke="black"/>
<path d="M304.052,341.409v 4.61363" fill="none" stroke="black"/>
<path d="M314.086,341.409v 4.61363" fill="none" stroke="black"/>
<path d="M324.119,336.795v 9.22726" fill="none" stroke="black"/>
<path d="M334.153,341.409v 4.61363" fill="none" stroke="black"/>
<path d="M344.186,341.409v 4.61363" fill="none" stroke="black"/>
<path d="M354.22,341.409v 4.61363" fill="none" stroke="black"/>
<path d="M364.253,341.409v 4.61363" fill="none" stroke="black"/>
<path d="M374.287,336.795v 9.22726" fill="none" stroke="black"/>
<path d="M384.32,341.409v 4.61363" fill="none" stroke="black"/>
<path d="M394.354,341.409v 4.61363" fill="none" stroke="black"/>
<path d="M404.387,341.409v 4.61363" fill="none" stroke="black"/>
<path d="M414.421,341.409v 4.61363" fill="none" stroke="black"/>
<path d="M424.454,336.795v 9.22726" fill="none" stroke="black"/>
<path d="M434.487,341.409v 4.61363" fill="none" stroke="black"/>
<path d="M444.521,341.409v 4.61363" fill="none" stroke="black"/>
<path d="M454.554,341.409v 4.61363" fill="none" stroke="black"/>
<path d="M464.588,341.409v 4.61363" fill="none" stroke="black"/>
<path d="M474.621,336.795v 9.22726" fill="none" stroke="black"/>
<path d="M73.2822,336.795v 9.22726" fill="none" stroke="black"/>
<path d="M63.2487,341.409v 4.61363" fill="none" stroke="black"/>
<path d="M474.621,336.795v 9.22726" fill="none" stroke="black"/>
<path d="M484.655,341.409v 4.61363" fill="none" stroke="black"/>
<path d="M494.688,341.409v 4.61363" fill="none" stroke="black"/>
<path d="M504.722,341.409v 4.61363" fill="none" stroke="black"/>
<text xml:space="preserve" x="72.9952" y="358.403" fill="black" font-size="12.8453" font-family="Helvetica">3</text>
<text xml:space="preserve" x="65.6643" y="358.403" fill="black" font-size="12.8453" font-family="Times">&#8722;</text>
<text xml:space="preserve" x="122.683" y="358.403" fill="black" font-size="12.8453" font-family="Helvetica">2</text>
<text xml:space="preserve" x="115.352" y="358.403" fill="black" font-size="12.8453" font-family="Times">&#8722;</text>
<text xml:space="preserve" x="174" y="358.403" fill="black" font-size="12.8453" font-family="Helvetica">1</text>
<text xml:space="preserve" x="166.669" y="358.403" fill="black" font-size="12.8453" font-family="Times">&#8722;</text>
<text xml:space="preserve" x="220.429" y="358.403" fill="black" font-size="12.8453" font-family="Helvetica">0</text>
<text xml:space="preserve" x="270.932" y="358.403" fill="black" font-size="12.8453" font-family="Helvetica">1</text>
<text xml:space="preserve" x="320.619" y="358.403" fill="black" font-size="12.8453" font-family="Helvetica">2</text>
<text xml:space="preserve" x="370.307" y="358.403" fill="black" font-size="12.8453" font-family="Helvetica">3</text>
<text xml:space="preserve" x="420.81" y="358.403" fill="black" font-size="12.8453" font-family="Helvetica">4</text>
<text xml:space="preserve" x="471.312" y="358.403" fill="black" font-size="12.8453" font-family="Helvetica">5</text>
<text xml:space="preserve" x="448.504" y="370.622" fill="black" font-size="12.8453" font-family="Helvetica">time lag[ns]</text>
<path d="M57.1929,346.022v -307.575" fill="none" stroke="black"/>
<path d="M70.7992,346.022h -13.6063" fill="none" stroke="black"/>
<path d="M63.9961,337.676h -6.80315" fill="none" stroke="black"/>
<path d="M63.9961,329.329h -6.80315" fill="none" stroke="black"/>
<path d="M63.9961,320.982h -6.80315" fill="none" stroke="black"/>
<path d="M63.9961,312.636h -6.80315" fill="none" stroke="black"/>
<path d="M70.7992,304.289h -13.6063" fill="none" stroke="black"/>
<path d="M63.9961,295.942h -6.80315" fill="none" stroke="black"/>
<path d="M63.9961,287.595h -6.80315" fill="none" stroke="black"/>
<path d="M63.9961,279.249h -6.80315" fill="none" stroke="black"/>
<path d="M63.9961,270.902h -6.80315" fill="none" stroke="black"/>
<path d="M70.7992,262.555h -13.6063" fill="none" stroke="black"/>
<path d="M63.9961,254.209h -6.80315" fill="none" stroke="black"/>
<path d="M63.9961,245.862h -6.80315" fill="none" stroke="black"/>
<path d="M63.9961,237.515h -6.80315" fill="none" stroke="black"/>
<path d="M63.9961,229.169h -6.80315" fill="none" stroke="black"/>
<path d="M70.7992,220.822h -13.6063" fill="none" stroke="black"/>
<path d="M63.9961,212.475h -6.80315" fill="none" stroke="black"/>
<path d="M63.9961,204.129h -6.80315" fill="none" stroke="black"/>
<path d="M63.9961,195.782h -6.80315" fill="none" stroke="black"/>
<path d="M63.9961,187.435h -6.80315" fill="none" stroke="black"/>
<path d="M70.7992,179.089h -13.6063" fill="none" stroke="black"/>
<path d="M63.9961,170.742h -6.80315" fill="none" stroke="black"/>
<path d="M63.9961,162.395h -6.80315" fill="none" stroke="black"/>
<path d="M63.9961,154.049h -6.80315" fill="none" stroke="black"/>
<path d="M63.9961,145.702h -6.80315" fill="none" stroke="black"/>
<path d="M70.7992,137.355h -13.6063" fill="none" stroke="black"/>
<path d="M63.9961,129.008h -6.80315" fill="none" stroke="black"/>
<path d="M63.9961,120.662h -6.80315" fill="none" stroke="black"/>
<path d="M63.9961,112.315h -6.80315" fill="none" stroke="black"/>
<path d="M63.9961,103.968h -6.80315" fill="none" stroke="black"/>
<path d="M70.7992,95.6217h -13.6063" fill="none" stroke="black"/>
<path d="M63.9961,87.275h -6.80315" fill="none" stroke="black"/>
<path d="M63.9961,78.9283h -6.80315" fill="none" stroke="black"/>
<path d="M63.9961,70.5817h -6.80315" fill="none" stroke="black"/>
<path d="M63.9961,62.235h -6.80315" fill="none" stroke="black"/>
<path d="M70.7992,53.8883h -13.6063" fill="none" stroke="black"/>
<path d="M70.7992,53.8883h -13.6063" fill="none" stroke="black"/>
<path d="M63.9961,45.5416h -6.80315" fill="none" stroke="black"/>
<text xml:space="preserve" x="47.7441" y="350.258" fill="black" font-size="12.8453" font-family="Helvetica">0</text>
<text xml:space="preserve" x="33.8967" y="308.716" fill="black" font-size="12.8453" font-family="Helvetica">100</text>
<text xml:space="preserve" x="33.8967" y="267.173" fill="black" font-size="12.8453" font-family="Helvetica">200</text>
<text xml:space="preserve" x="33.8967" y="225.631" fill="black" font-size="12.8453" font-family="Helvetica">300</text>
<text xml:space="preserve" x="33.8967" y="183.275" fill="black" font-size="12.8453" font-family="Helvetica">400</text>
<text xml:space="preserve" x="33.8967" y="141.732" fill="black" font-size="12.8453" font-family="Helvetica">500</text>
<text xml:space="preserve" x="33.8967" y="100.19" fill="black" font-size="12.8453" font-family="Helvetica">600</text>
<text xml:space="preserve" x="33.8967" y="58.6478" fill="black" font-size="12.8453" font-family="Helvetica">700</text>
<g transform="rotate(-90,20.0493,114.037)">
<text xml:space="preserve" x="20.0493" y="114.037" fill="black" font-size="12.8453" font-family="Helvetica">distance [mm]</text>
</g>
<g fill="black">
<circle cx="124.184" cy="346.022" r="3.25821"/>
<circle cx="219.115" cy="287.595" r="3.25821"/>
<circle cx="269.621" cy="229.169" r="3.25821"/>
<circle cx="359.578" cy="170.742" r="3.25821"/>
<circle cx="446.467" cy="112.315" r="3.25821"/>
<circle cx="404.533" cy="66.4083" r="3.25821"/>
</g>
<path d="M137.508,346.022l 3.59029, -2.97684" fill="none" stroke="#ff0000" stroke-width="2"/>
<path d="M141.098,343.045l 4.53543, -3.76049l 4.53543, -3.76049l 4.53543, -3.76049l 4.53543, -3.76049l 4.53543, -3.76049l 4.53543, -3.76049l 4.53543, -3.76049l 4.53543, -3.76049l 4.53543, -3.76049l 4.53543, -3.76049l 4.53543, -3.76049l 4.53543,
 -3.76049l 4.53543, -3.76049l 4.53543, -3.76049l 4.53543, -3.76049l 4.53543, -3.76049l 4.53543, -3.76049l 4.53543, -3.76049l 4.53543, -3.76049l 4.53543, -3.76049l 4.53543, -3.76049l 4.53543, -3.76049l 4.53543, -3.76049l 4.53543, -3.76049l 4.53543,
 -3.76049l 4.53543, -3.76049l 4.53543, -3.76049l 4.53543, -3.76049l 4.53543, -3.76049l 4.53543, -3.76049l 4.53543, -3.76049l 4.53543, -3.76049l 4.53543, -3.76049l 4.53543, -3.76049l 4.53543, -3.76049l 4.53543, -3.76049l 4.53543, -3.76049l 4.53543,
 -3.76049l 4.53543, -3.76049l 4.53543, -3.76049l 4.53543, -3.76049l 4.53543, -3.76049l 4.53543, -3.76049l 4.53543, -3.76049l 4.53543, -3.76049l 4.53543, -3.76049l 4.53543, -3.76049l 4.53543, -3.76049" fill="none" stroke="#ff0000" stroke-width="2"/>
<path d="M358.799,162.542l 4.53543, -3.76049l 4.53543, -3.76049l 4.53543, -3.76049l 4.53543, -3.76049l 4.53543, -3.76049l 4.53543, -3.76049l 4.53543, -3.76049l 4.53543, -3.76049l 4.53543, -3.76049l 4.53543, -3.76049l 4.53543, -3.76049l 4.53543,
 -3.76049l 4.53543, -3.76049l 4.53543, -3.76049l 4.53543, -3.76049l 4.53543, -3.76049l 4.53543, -3.76049l 4.53543, -3.76049l 4.53543, -3.76049l 4.53543, -3.76049l 4.53543, -3.76049l 4.53543, -3.76049l 4.53543, -3.76049l 4.53543, -3.76049l 4.53543,
 -3.76049l 4.53543, -3.76049l 4.53543, -3.76049l 4.53543, -3.76049l 4.53543, -3.76049l 4.53543, -3.76049l 4.53543, -3.76049l 4.53543, -3.76049l 4.53543, -3.75895" fill="none" stroke="#ff0000" stroke-width="2"/>
<path d="M124.184,346.022h -29.196" fill="none" stroke="black"/>
<path d="M94.9882,346.022v -1.62911" fill="none" stroke="black"/>
<path d="M124.184,346.022h 29.196" fill="none" stroke="black"/>
<path d="M153.38,346.022v -1.62911" fill="none" stroke="black"/>
<path d="M219.115,287.595h -25.5541" fill="none" stroke="black"/>
<path d="M193.561,289.225v -3.25821" fill="none" stroke="black"/>
<path d="M219.115,287.595h 25.5541" fill="none" stroke="black"/>
<path d="M244.669,289.225v -3.25821" fill="none" stroke="black"/>
<path d="M269.621,229.169h -22.3841" fill="none" stroke="black"/>
<path d="M247.237,230.798v -3.25821" fill="none" stroke="black"/>
<path d="M269.621,229.169h 22.3841" fill="none" stroke="black"/>
<path d="M292.005,230.798v -3.25821" fill="none" stroke="black"/>
<path d="M359.578,170.742h -25.66" fill="none" stroke="black"/>
<path d="M333.918,172.371v -3.25821" fill="none" stroke="black"/>
<path d="M359.578,170.742h 25.66" fill="none" stroke="black"/>
<path d="M385.238,172.371v -3.25821" fill="none" stroke="black"/>
<path d="M446.467,112.315h -26.4735" fill="none" stroke="black"/>
<path d="M419.994,113.944v -3.25821" fill="none" stroke="black"/>
<path d="M446.467,112.315h 26.4735" fill="none" stroke="black"/>
<path d="M472.941,113.944v -3.25821" fill="none" stroke="black"/>
<path d="M404.533,66.4083h -42.6166" fill="none" stroke="black"/>
<path d="M361.916,68.0374v -3.25821" fill="none" stroke="black"/>
<path d="M404.533,66.4083h 42.6166" fill="none" stroke="black"/>
<path d="M447.149,68.0374v -3.25821" fill="none" stroke="black"/>
<path d="M124.184,346.022h -29.196" fill="none" stroke="black"/>
<path d="M94.9882,346.022v -1.62911" fill="none" stroke="black"/>
<path d="M124.184,346.022h 29.196" fill="none" stroke="black"/>
<path d="M153.38,346.022v -1.62911" fill="none" stroke="black"/>
<path d="M219.115,287.595h -25.5541" fill="none" stroke="black"/>
<path d="M193.561,289.225v -3.25821" fill="none" stroke="black"/>
<path d="M219.115,287.595h 25.5541" fill="none" stroke="black"/>
<path d="M244.669,289.225v -3.25821" fill="none" stroke="black"/>
<path d="M269.621,229.169h -22.3841" fill="none" stroke="black"/>
<path d="M247.237,230.798v -3.25821" fill="none" stroke="black"/>
<path d="M269.621,229.169h 22.3841" fill="none" stroke="black"/>
<path d="M292.005,230.798v -3.25821" fill="none" stroke="black"/>
<path d="M359.578,170.742h -25.66" fill="none" stroke="black"/>
<path d="M333.918,172.371v -3.25821" fill="none" stroke="black"/>
<path d="M359.578,170.742h 25.66" fill="none" stroke="black"/>
<path d="M385.238,172.371v -3.25821" fill="none" stroke="black"/>
<path d="M446.467,112.315h -26.4735" fill="none" stroke="black"/>
<path d="M419.994,113.944v -3.25821" fill="none" stroke="black"/>
<path d="M446.467,112.315h 26.4735" fill="none" stroke="black"/>
<path d="M472.941,113.944v -3.25821" fill="none" stroke="black"/>
<path d="M404.533,66.4083h -42.6166" fill="none" stroke="black"/>
<path d="M361.916,68.0374v -3.25821" fill="none" stroke="black"/>
<path d="M404.533,66.4083h 42.6166" fill="none" stroke="black"/>
<path d="M447.149,68.0374v -3.25821" fill="none" stroke="black"/>
<g fill="black">
<circle cx="124.184" cy="346.022" r="3.25821"/>
<circle cx="219.115" cy="287.595" r="3.25821"/>
<circle cx="269.621" cy="229.169" r="3.25821"/>
<circle cx="359.578" cy="170.742" r="3.25821"/>
<circle cx="446.467" cy="112.315" r="3.25821"/>
<circle cx="404.533" cy="66.4083" r="3.25821"/>
</g>
<path d="M137.508,346.022l 3.59029, -2.97684" fill="none" stroke="#ff0000" stroke-width="2"/>
<path d="M141.098,343.045l 4.53543, -3.76049l 4.53543, -3.76049l 4.53543, -3.76049l 4.53543, -3.76049l 4.53543, -3.76049l 4.53543, -3.76049l 4.53543, -3.76049l 4.53543, -3.76049l 4.53543, -3.76049l 4.53543, -3.76049l 4.53543, -3.76049l 4.53543,
 -3.76049l 4.53543, -3.76049l 4.53543, -3.76049l 4.53543, -3.76049l 4.53543, -3.76049l 4.53543, -3.76049l 4.53543, -3.76049l 4.53543, -3.76049l 4.53543, -3.76049l 4.53543, -3.76049l 4.53543, -3.76049l 4.53543, -3.76049l 4.53543, -3.76049l 4.53543,
 -3.76049l 4.53543, -3.76049l 4.53543, -3.76049l 4.53543, -3.76049l 4.53543, -3.76049l 4.53543, -3.76049l 4.53543, -3.76049l 4.53543, -3.76049l 4.53543, -3.76049l 4.53543, -3.76049l 4.53543, -3.76049l 4.53543, -3.76049l 4.53543, -3.76049l 4.53543,
 -3.76049l 4.53543, -3.76049l 4.53543, -3.76049l 4.53543, -3.76049l 4.53543, -3.76049l 4.53543, -3.76049l 4.53543, -3.76049l 4.53543, -3.76049l 4.53543, -3.76049l 4.53543, -3.76049l 4.53543, -3.76049" fill="none" stroke="#ff0000" stroke-width="2"/>
<path d="M358.799,162.542l 4.53543, -3.76049l 4.53543, -3.76049l 4.53543, -3.76049l 4.53543, -3.76049l 4.53543, -3.76049l 4.53543, -3.76049l 4.53543, -3.76049l 4.53543, -3.76049l 4.53543, -3.76049l 4.53543, -3.76049l 4.53543, -3.76049l 4.53543,
 -3.76049l 4.53543, -3.76049l 4.53543, -3.76049l 4.53543, -3.76049l 4.53543, -3.76049l 4.53543, -3.76049l 4.53543, -3.76049l 4.53543, -3.76049l 4.53543, -3.76049l 4.53543, -3.76049l 4.53543, -3.76049l 4.53543, -3.76049l 4.53543, -3.76049l 4.53543,
 -3.76049l 4.53543, -3.76049l 4.53543, -3.76049l 4.53543, -3.76049l 4.53543, -3.76049l 4.53543, -3.76049l 4.53543, -3.76049l 4.53543, -3.76049l 4.53543, -3.75895" fill="none" stroke="#ff0000" stroke-width="2"/>
<path d="M132.405,346.022h -22.7507" fill="none" stroke="black"/>
<path d="M109.654,346.022v -1.62911" fill="none" stroke="black"/>
<path d="M132.405,346.022h 22.7507" fill="none" stroke="black"/>
<path d="M155.156,346.022v -1.62911" fill="none" stroke="black"/>
<path d="M189.074,287.595h -22.1903" fill="none" stroke="black"/>
<path d="M166.883,289.225v -3.25821" fill="none" stroke="black"/>
<path d="M189.074,287.595h 22.1903" fill="none" stroke="black"/>
<path d="M211.264,289.225v -3.25821" fill="none" stroke="black"/>
<path d="M253.591,229.169h -19.9234" fill="none" stroke="black"/>
<path d="M233.668,230.798v -3.25821" fill="none" stroke="black"/>
<path d="M253.591,229.169h 19.9234" fill="none" stroke="black"/>
<path d="M273.515,230.798v -3.25821" fill="none" stroke="black"/>
<path d="M255.927,170.742h -22.2877" fill="none" stroke="black"/>
<path d="M233.64,172.371v -3.25821" fill="none" stroke="black"/>
<path d="M255.927,170.742h 22.2877" fill="none" stroke="black"/>
<path d="M278.215,172.371v -3.25821" fill="none" stroke="black"/>
<path d="M447.29,112.315h -24.7698" fill="none" stroke="black"/>
<path d="M422.52,113.944v -3.25821" fill="none" stroke="black"/>
<path d="M447.29,112.315h 24.7698" fill="none" stroke="black"/>
<path d="M472.06,113.944v -3.25821" fill="none" stroke="black"/>
<path d="M479.205,66.4083h -27.871" fill="none" stroke="black"/>
<path d="M451.334,68.0374v -3.25821" fill="none" stroke="black"/>
<path d="M479.205,66.4083h 27.871" fill="none" stroke="black"/>
<path d="M507.076,68.0374v -3.25821" fill="none" stroke="black"/>
<g stroke="black" stroke-width="1" fill="none">
<line x1="129.147" y1="346.022" x2="135.663" y2="346.022"/><line x1="132.405" y1="342.764" x2="132.405" y2="349.28"/><line x1="130.101" y1="343.719" x2="134.708" y2="348.326"/><line x1="130.101" y1="348.326" x2="134.708" y2="343.719"/>
<line x1="185.816" y1="287.595" x2="192.332" y2="287.595"/><line x1="189.074" y1="284.337" x2="189.074" y2="290.854"/><line x1="186.77" y1="285.292" x2="191.377" y2="289.899"/><line x1="186.77" y1="289.899" x2="191.377" y2="285.292"/>
<line x1="250.333" y1="229.169" x2="256.849" y2="229.169"/><line x1="253.591" y1="225.91" x2="253.591" y2="232.427"/><line x1="251.288" y1="226.865" x2="255.895" y2="231.472"/><line x1="251.288" y1="231.472" x2="255.895" y2="226.865"/>
<line x1="252.669" y1="170.742" x2="259.186" y2="170.742"/><line x1="255.927" y1="167.484" x2="255.927" y2="174"/><line x1="253.624" y1="168.438" x2="258.231" y2="173.045"/><line x1="253.624" y1="173.045" x2="258.231" y2="168.438"/>
<line x1="444.032" y1="112.315" x2="450.548" y2="112.315"/><line x1="447.29" y1="109.057" x2="447.29" y2="115.573"/><line x1="444.987" y1="110.012" x2="449.594" y2="114.619"/><line x1="444.987" y1="114.619" x2="449.594" y2="110.012"/>
<line x1="475.947" y1="66.4083" x2="482.463" y2="66.4083"/><line x1="479.205" y1="63.1501" x2="479.205" y2="69.6665"/><line x1="476.901" y1="64.1048" x2="481.509" y2="68.7119"/><line x1="476.901" y1="68.7119" x2="481.509" y2="64.1048"/>
</g>
<path d="M112.436,346.022l 1.44986, -1.17665" fill="none" stroke="#0000ff" stroke-width="2"/>
<path d="M113.886,344.846l 4.53543, -3.68079l 4.53543, -3.68079l 4.53543, -3.68079l 4.53543, -3.68079l 4.53543, -3.68079l 4.53543, -3.68079l 4.53543, -3.68079l 4.53543, -3.68079l 4.53543, -3.68079l 4.53543, -3.68079l 4.53543, -3.68079l 4.53543,
 -3.68079l 4.53543, -3.68079l 4.53543, -3.68079l 4.53543, -3.68079l 4.53543, -3.68079l 4.53543, -3.68079l 4.53543, -3.68079l 4.53543, -3.68079l 4.53543, -3.68079l 4.53543, -3.68079l 4.53543, -3.68079l 4.53543, -3.68079l 4.53543, -3.68079l 4.53543,
 -3.68079l 4.53543, -3.68079l 4.53543, -3.68079l 4.53543, -3.68079l 4.53543, -3.68079l 4.53543, -3.68079l 4.53543, -3.68079l 4.53543, -3.68079l 4.53543, -3.68079l 4.53543, -3.68079l 4.53543, -3.68079l 4.53543, -3.68079l 4.53543, -3.68079l 4.53543,
 -3.68079l 4.53543, -3.68079l 4.53543, -3.68079l 4.53543, -3.68079l 4.53543, -3.68079l 4.53543, -3.68079l 4.53543, -3.68079l 4.53543, -3.68079l 4.53543, -3.68079l 4.53543, -3.68079l 4.53543, -3.68079" fill="none" stroke="#0000ff" stroke-width="2"/>
<path d="M331.587,168.168l 4.53543, -3.68079l 4.53543, -3.68079l 4.53543, -3.68079l 4.53543, -3.68079l 4.53543, -3.68079l 4.53543, -3.68079l 4.53543, -3.68079l 4.53543, -3.68079l 4.53543, -3.68079l 4.53543, -3.68079l 4.53543, -3.68079l 4.53543,
 -3.68079l 4.53543, -3.68079l 4.53543, -3.68079l 4.53543, -3.68079l 4.53543, -3.68079l 4.53543, -3.68079l 4.53543, -3.68079l 4.53543, -3.68079l 4.53543, -3.68079l 4.53543, -3.68079l 4.53543, -3.68079l 4.53543, -3.68079l 4.53543, -3.68079l 4.53543,
 -3.68079l 4.53543, -3.68079l 4.53543, -3.68079l 4.53543, -3.68079l 4.53543, -3.68079l 4.53543, -3.68079l 4.53543, -3.68079l 4.53543, -3.68079l 4.53543, -3.68079l 4.53543, -3.68079l 4.53543, -3.68079l 1.10041, -0.893052" fill="none" stroke="#0000ff"
 stroke-width="2"/>
<path d="M155.987,346.022h -23.2872" fill="none" stroke="black"/>
<path d="M132.699,346.022v -1.62911" fill="none" stroke="black"/>
<path d="M155.987,346.022h 23.2872" fill="none" stroke="black"/>
<path d="M179.274,346.022v -1.62911" fill="none" stroke="black"/>
<path d="M239.842,287.595h -23.1108" fill="none" stroke="black"/>
<path d="M216.731,289.225v -3.25821" fill="none" stroke="black"/>
<path d="M239.842,287.595h 23.1108" fill="none" stroke="black"/>
<path d="M262.953,289.225v -3.25821" fill="none" stroke="black"/>
<path d="M273.357,229.169h -22.9305" fill="none" stroke="black"/>
<path d="M250.427,230.798v -3.25821" fill="none" stroke="black"/>
<path d="M273.357,229.169h 22.9305" fill="none" stroke="black"/>
<path d="M296.288,230.798v -3.25821" fill="none" stroke="black"/>
<path d="M363.991,170.742h -21.1089" fill="none" stroke="black"/>
<path d="M342.883,172.371v -3.25821" fill="none" stroke="black"/>
<path d="M363.991,170.742h 21.1089" fill="none" stroke="black"/>
<path d="M385.1,172.371v -3.25821" fill="none" stroke="black"/>
<path d="M375.883,112.315h -32.2916" fill="none" stroke="black"/>
<path d="M343.592,113.944v -3.25821" fill="none" stroke="black"/>
<path d="M375.883,112.315h 32.2916" fill="none" stroke="black"/>
<path d="M408.175,113.944v -3.25821" fill="none" stroke="black"/>
<path d="M494.795,66.4083h -27.9986" fill="none" stroke="black"/>
<path d="M466.796,68.0374v -3.25821" fill="none" stroke="black"/>
<path d="M494.795,66.4083h 15.9413" fill="none" stroke="black"/>
<g stroke="black" stroke-width="1" fill="none">
<circle cx="155.987" cy="346.022" r="3.25821"/>
<circle cx="239.842" cy="287.595" r="3.25821"/>
<circle cx="273.357" cy="229.169" r="3.25821"/>
<circle cx="363.991" cy="170.742" r="3.25821"/>
<circle cx="375.883" cy="112.315" r="3.25821"/>
<circle cx="494.795" cy="66.4083" r="3.25821"/>
</g>
<path d="M159.015,346.022l 0.225526, -0.201773" fill="none" stroke="#00ff00" stroke-width="2"/>
<path d="M159.24,345.82l 4.53543, -4.05775l 4.53543, -4.05775l 4.53543, -4.05775l 4.53543, -4.05775l 4.53543, -4.05775l 4.53543, -4.05775l 4.53543, -4.05775l 4.53543, -4.05775l 4.53543, -4.05775l 4.53543, -4.05775l 4.53543, -4.05775l 4.53543,
 -4.05775l 4.53543, -4.05775l 4.53543, -4.05775l 4.53543, -4.05775l 4.53543, -4.05775l 4.53543, -4.05775l 4.53543, -4.05775l 4.53543, -4.05775l 4.53543, -4.05775l 4.53543, -4.05775l 4.53543, -4.05775l 4.53543, -4.05775l 4.53543, -4.05775l 4.53543,
 -4.05775l 4.53543, -4.05775l 4.53543, -4.05775l 4.53543, -4.05775l 4.53543, -4.05775l 4.53543, -4.05775l 4.53543, -4.05775l 4.53543, -4.05775l 4.53543, -4.05775l 4.53543, -4.05775l 4.53543, -4.05775l 4.53543, -4.05775l 4.53543, -4.05775l 4.53543,
 -4.05775l 4.53543, -4.05775l 4.53543, -4.05775l 4.53543, -4.05775l 4.53543, -4.05775l 4.53543, -4.05775l 4.53543, -4.05775l 4.53543, -4.05775l 4.53543, -4.05775l 4.53543, -4.05775l 4.53543, -4.05775" fill="none" stroke="#00ff00" stroke-width="2"/>
<path d="M376.941,151.049l 4.53543, -4.05775l 4.53543, -4.05775l 4.53543, -4.05775l 4.53543, -4.05775l 4.53543, -4.05775l 4.53543, -4.05775l 4.53543, -4.05775l 4.53543, -4.05775l 4.53543, -4.05775l 4.53543, -4.05775l 4.53543, -4.05775l 4.53543,
 -4.05775l 4.53543, -4.05775l 4.53543, -4.05775l 4.53543, -4.05775l 4.53543, -4.05775l 4.53543, -4.05775l 4.53543, -4.05775l 4.53543, -4.05775l 4.53543, -4.05775l 4.53543, -4.05775l 4.53543, -4.05775l 4.53543, -4.05775l 4.53543, -4.05775l 4.53543,
 -4.05775l 4.53543, -4.05775l 4.53543, -4.05775l 3.40082, -3.04263" fill="none" stroke="#00ff00" stroke-width="2"/>
<path d="M215.666,346.022h -30.83" fill="none" stroke="black"/>
<path d="M184.836,346.022v -1.62911" fill="none" stroke="black"/>
<path d="M215.666,346.022h 30.83" fill="none" stroke="black"/>
<path d="M246.496,346.022v -1.62911" fill="none" stroke="black"/>
<path d="M194.201,287.595h -50.9783" fill="none" stroke="black"/>
<path d="M143.223,289.225v -3.25821" fill="none" stroke="black"/>
<path d="M194.201,287.595h 50.9783" fill="none" stroke="black"/>
<path d="M245.18,289.225v -3.25821" fill="none" stroke="black"/>
<path d="M333.835,229.169h -20.9141" fill="none" stroke="black"/>
<path d="M312.921,230.798v -3.25821" fill="none" stroke="black"/>
<path d="M333.835,229.169h 20.9141" fill="none" stroke="black"/>
<path d="M354.749,230.798v -3.25821" fill="none" stroke="black"/>
<path d="M421.018,170.742h -22.4372" fill="none" stroke="black"/>
<path d="M398.581,172.371v -3.25821" fill="none" stroke="black"/>
<path d="M421.018,170.742h 22.4372" fill="none" stroke="black"/>
<path d="M443.455,172.371v -3.25821" fill="none" stroke="black"/>
<path d="M475.386,112.315h -26.8946" fill="none" stroke="black"/>
<path d="M448.491,113.944v -3.25821" fill="none" stroke="black"/>
<path d="M475.386,112.315h 26.8946" fill="none" stroke="black"/>
<path d="M502.28,113.944v -3.25821" fill="none" stroke="black"/>
<path d="M497.002,66.4083h -28.9857" fill="none" stroke="black"/>
<path d="M468.016,68.0374v -3.25821" fill="none" stroke="black"/>
<path d="M497.002,66.4083h 13.7341" fill="none" stroke="black"/>
<g stroke="black" stroke-width="1" fill="none">
<line x1="213.362" y1="343.719" x2="217.969" y2="348.326"/><line x1="213.362" y1="348.326" x2="217.969" y2="343.719"/>
<line x1="191.898" y1="285.292" x2="196.505" y2="289.899"/><line x1="191.898" y1="289.899" x2="196.505" y2="285.292"/>
<line x1="331.531" y1="226.865" x2="336.138" y2="231.472"/><line x1="331.531" y1="231.472" x2="336.138" y2="226.865"/>
<line x1="418.715" y1="168.438" x2="423.322" y2="173.045"/><line x1="418.715" y1="173.045" x2="423.322" y2="168.438"/>
<line x1="473.082" y1="110.012" x2="477.689" y2="114.619"/><line x1="473.082" y1="114.619" x2="477.689" y2="110.012"/>
<line x1="494.699" y1="64.1048" x2="499.306" y2="68.7119"/><line x1="494.699" y1="68.7119" x2="499.306" y2="64.1048"/>
</g>
<path d="M205.746,346.022l 3.38428, -3.02807" fill="none" stroke="#00ffff" stroke-width="2"/>
<path d="M209.13,342.994l 4.53543, -4.05805l 4.53543, -4.05805l 4.53543, -4.05805l 4.53543, -4.05805l 4.53543, -4.05805l 4.53543, -4.05805l 4.53543, -4.05805l 4.53543, -4.05805l 4.53543, -4.05805l 4.53543, -4.05805l 4.53543, -4.05805l 4.53543,
 -4.05805l 4.53543, -4.05805l 4.53543, -4.05805l 4.53543, -4.05805l 4.53543, -4.05805l 4.53543, -4.05805l 4.53543, -4.05805l 4.53543, -4.05805l 4.53543, -4.05805l 4.53543, -4.05805l 4.53543, -4.05805l 4.53543, -4.05805l 4.53543, -4.05805l 4.53543,
 -4.05805l 4.53543, -4.05805l 4.53543, -4.05805l 4.53543, -4.05805l 4.53543, -4.05805l 4.53543, -4.05805l 4.53543, -4.05805l 4.53543, -4.05805l 4.53543, -4.05805l 4.53543, -4.05805l 4.53543, -4.05805l 4.53543, -4.05805l 4.53543, -4.05805l 4.53543,
 -4.05805l 4.53543, -4.05805l 4.53543, -4.05805l 4.53543, -4.05805l 4.53543, -4.05805l 4.53543, -4.05805l 4.53543, -4.05805l 4.53543, -4.05805l 4.53543, -4.05805l 4.53543, -4.05805l 4.53543, -4.05805" fill="none" stroke="#00ffff" stroke-width="2"/>
<path d="M426.831,148.208l 4.53543, -4.05805l 4.53543, -4.05805l 4.53543, -4.05805l 4.53543, -4.05805l 4.53543, -4.05805l 4.53543, -4.05805l 4.53543, -4.05805l 4.53543, -4.05805l 4.53543, -4.05805l 4.53543, -4.05805l 4.53543, -4.05805l 4.53543,
 -4.05805l 4.53543, -4.05805l 4.53543, -4.05805l 4.53543, -4.05805l 4.53543, -4.05805l 4.53543, -4.05805l 4.53543, -4.05805" fill="none" stroke="#00ffff" stroke-width="2"/>
<rect x="170.579" y="38.4469" width="56.6929" height="115.341" fill="white"/>
<path d="M170.579,153.788h 56.6929" fill="none" stroke="black"/>
<path d="M227.272,153.788v -115.341" fill="none" stroke="black"/>
<path d="M227.272,38.4469h -56.6929" fill="none" stroke="black"/>
<path d="M170.579,38.4469v 115.341" fill="none" stroke="black"/>
<text xml:space="preserve" x="184.589" y="58.6478" fill="black" font-size="17.6878" font-family="Helvetica">ch0</text>
<g fill="black">
<circle cx="177.665" cy="52.8645" r="3.25821"/>
</g>
<text xml:space="preserve" x="184.589" y="87.9718" fill="black" font-size="17.6878" font-family="Helvetica">ch1</text>
<g stroke="black" stroke-width="1" fill="none">
<line x1="174.407" y1="81.6997" x2="180.924" y2="81.6997"/><line x1="177.665" y1="78.4415" x2="177.665" y2="84.9579"/><line x1="175.362" y1="79.3961" x2="179.969" y2="84.0033"/><line x1="175.362" y1="84.0033" x2="179.969" y2="79.3961"/>
</g>
<text xml:space="preserve" x="184.589" y="116.481" fill="black" font-size="17.6878" font-family="Helvetica">ch2</text>
<g stroke="black" stroke-width="1" fill="none">
<circle cx="177.665" cy="110.535" r="3.25821"/>
</g>
<text xml:space="preserve" x="184.589" y="145.805" fill="black" font-size="17.6878" font-family="Helvetica">ch3</text>
<g stroke="black" stroke-width="1" fill="none">
<line x1="175.362" y1="137.067" x2="179.969" y2="141.674"/><line x1="175.362" y1="141.674" x2="179.969" y2="137.067"/>
</g>
<rect x="85.5394" y="38.4469" width="85.0394" height="115.341" fill="white"/>
<path d="M85.5394,153.788h 85.0394" fill="none" stroke="black"/>
<path d="M170.579,153.788v -115.341" fill="none" stroke="black"/>
<path d="M170.579,38.4469h -85.0394" fill="none" stroke="black"/>
<path d="M85.5394,38.4469v 115.341" fill="none" stroke="black"/>
<text xml:space="preserve" x="106.392" y="58.6478" fill="black" font-size="17.6878" font-family="Helvetica">ch0</text>
<path d="M88.7283,52.8645h 14.8819" fill="none" stroke="#ff0000" stroke-width="2"/>
<text xml:space="preserve" x="106.392" y="87.9718" fill="black" font-size="17.6878" font-family="Helvetica">ch1</text>
<path d="M88.7283,81.6997h 14.8819" fill="none" stroke="#0000ff" stroke-width="2"/>
<text xml:space="preserve" x="106.392" y="116.481" fill="black" font-size="17.6878" font-family="Helvetica">ch2</text>
<path d="M88.7283,110.535h 14.8819" fill="none" stroke="#00ff00" stroke-width="2"/>
<text xml:space="preserve" x="106.392" y="145.805" fill="black" font-size="17.6878" font-family="Helvetica">ch3</text>
<path d="M88.7283,139.37h 14.8819" fill="none" stroke="#00ffff" stroke-width="2"/></svg>
