<?xml version="1.0" standalone="no"?>
<svg width="567.429" height="384.969" viewBox="0 0 567.429 384.969" xmlns="http://www.w3.org/2000/svg" shape-rendering="crispEdges">
<title>
img/week2/time_distance_graph_ch_24_25_26_27.svg
</title>
<desc>
Creator: ROOT Version 6.22/09
CreationDate: Thu Jun 24 11:05:58 2021</desc>
<defs>
</defs>
<rect x="0.5" y="0" width="566.929" height="384.469" fill="white"/>
<rect x="57.1929" y="38.4469" width="453.543" height="307.575" fill="white"/>
<rect x="57.1929" y="38.4469" width="453.543" height="307.575" fill="none" stroke="black"/>
<rect x="57.1929" y="38.4469" width="453.543" height="307.575" fill="white"/>
<rect x="57.1929" y="38.4469" width="453.543" height="307.575" fill="none" stroke="black"/>
<path d="M57.1929,346.022h 453.543" fill="none" stroke="black"/>
<path d="M66.6799,336.795v 9.22726" fill="none" stroke="black"/>
<path d="M87.8,341.409v 4.61363" fill="none" stroke="black"/>
<path d="M108.92,341.409v 4.61363" fill="none" stroke="black"/>
<path d="M130.04,341.409v 4.61363" fill="none" stroke="black"/>
<path d="M151.16,336.795v 9.22726" fill="none" stroke="black"/>
<path d="M172.281,341.409v 4.61363" fill="none" stroke="black"/>
<path d="M193.401,341.409v 4.61363" fill="none" stroke="black"/>
<path d="M214.521,341.409v 4.61363" fill="none" stroke="black"/>
<path d="M235.641,336.795v 9.22726" fill="none" stroke="black"/>
<path d="M256.761,341.409v 4.61363" fill="none" stroke="black"/>
<path d="M277.881,341.409v 4.61363" fill="none" stroke="black"/>
<path d="M299.002,341.409v 4.61363" fill="none" stroke="black"/>
<path d="M320.122,336.795v 9.22726" fill="none" stroke="black"/>
<path d="M341.242,341.409v 4.61363" fill="none" stroke="black"/>
<path d="M362.362,341.409v 4.61363" fill="none" stroke="black"/>
<path d="M383.482,341.409v 4.61363" fill="none" stroke="black"/>
<path d="M404.602,336.795v 9.22726" fill="none" stroke="black"/>
<path d="M425.723,341.409v 4.61363" fill="none" stroke="black"/>
<path d="M446.843,341.409v 4.61363" fill="none" stroke="black"/>
<path d="M467.963,341.409v 4.61363" fill="none" stroke="black"/>
<path d="M489.083,336.795v 9.22726" fill="none" stroke="black"/>
<path d="M66.6799,336.795v 9.22726" fill="none" stroke="black"/>
<path d="M489.083,336.795v 9.22726" fill="none" stroke="black"/>
<path d="M510.203,341.409v 4.61363" fill="none" stroke="black"/>
<text xml:space="preserve" x="66.4788" y="358.403" fill="black" font-size="12.8453" font-family="Helvetica">6</text>
<text xml:space="preserve" x="59.1478" y="358.403" fill="black" font-size="12.8453" font-family="Times">&#8722;</text>
<text xml:space="preserve" x="150.378" y="358.403" fill="black" font-size="12.8453" font-family="Helvetica">4</text>
<text xml:space="preserve" x="143.047" y="358.403" fill="black" font-size="12.8453" font-family="Times">&#8722;</text>
<text xml:space="preserve" x="235.091" y="358.403" fill="black" font-size="12.8453" font-family="Helvetica">2</text>
<text xml:space="preserve" x="227.76" y="358.403" fill="black" font-size="12.8453" font-family="Times">&#8722;</text>
<text xml:space="preserve" x="316.547" y="358.403" fill="black" font-size="12.8453" font-family="Helvetica">0</text>
<text xml:space="preserve" x="401.26" y="358.403" fill="black" font-size="12.8453" font-family="Helvetica">2</text>
<text xml:space="preserve" x="485.159" y="358.403" fill="black" font-size="12.8453" font-family="Helvetica">4</text>
<text xml:space="preserve" x="445.246" y="370.622" fill="black" font-size="12.8453" font-family="Helvetica">time lag [ps]</text>
<path d="M57.1929,346.022v -307.575" fill="none" stroke="black"/>
<path d="M70.7992,346.022h -13.6063" fill="none" stroke="black"/>
<path d="M63.9961,337.676h -6.80315" fill="none" stroke="black"/>
<path d="M63.9961,329.329h -6.80315" fill="none" stroke="black"/>
<path d="M63.9961,320.982h -6.80315" fill="none" stroke="black"/>
<path d="M63.9961,312.636h -6.80315" fill="none" stroke="black"/>
<path d="M70.7992,304.289h -13.6063" fill="none" stroke="black"/>
<path d="M63.9961,295.942h -6.80315" fill="none" stroke="black"/>
<path d="M63.9961,287.595h -6.80315" fill="none" stroke="black"/>
<path d="M63.9961,279.249h -6.80315" fill="none" stroke="black"/>
<path d="M63.9961,270.902h -6.80315" fill="none" stroke="black"/>
<path d="M70.7992,262.555h -13.6063" fill="none" stroke="black"/>
<path d="M63.9961,254.209h -6.80315" fill="none" stroke="black"/>
<path d="M63.9961,245.862h -6.80315" fill="none" stroke="black"/>
<path d="M63.9961,237.515h -6.80315" fill="none" stroke="black"/>
<path d="M63.9961,229.169h -6.80315" fill="none" stroke="black"/>
<path d="M70.7992,220.822h -13.6063" fill="none" stroke="black"/>
<path d="M63.9961,212.475h -6.80315" fill="none" stroke="black"/>
<path d="M63.9961,204.129h -6.80315" fill="none" stroke="black"/>
<path d="M63.9961,195.782h -6.80315" fill="none" stroke="black"/>
<path d="M63.9961,187.435h -6.80315" fill="none" stroke="black"/>
<path d="M70.7992,179.089h -13.6063" fill="none" stroke="black"/>
<path d="M63.9961,170.742h -6.80315" fill="none" stroke="black"/>
<path d="M63.9961,162.395h -6.80315" fill="none" stroke="black"/>
<path d="M63.9961,154.049h -6.80315" fill="none" stroke="black"/>
<path d="M63.9961,145.702h -6.80315" fill="none" stroke="black"/>
<path d="M70.7992,137.355h -13.6063" fill="none" stroke="black"/>
<path d="M63.9961,129.008h -6.80315" fill="none" stroke="black"/>
<path d="M63.9961,120.662h -6.80315" fill="none" stroke="black"/>
<path d="M63.9961,112.315h -6.80315" fill="none" stroke="black"/>
<path d="M63.9961,103.968h -6.80315" fill="none" stroke="black"/>
<path d="M70.7992,95.6217h -13.6063" fill="none" stroke="black"/>
<path d="M63.9961,87.275h -6.80315" fill="none" stroke="black"/>
<path d="M63.9961,78.9283h -6.80315" fill="none" stroke="black"/>
<path d="M63.9961,70.5817h -6.80315" fill="none" stroke="black"/>
<path d="M63.9961,62.235h -6.80315" fill="none" stroke="black"/>
<path d="M70.7992,53.8883h -13.6063" fill="none" stroke="black"/>
<path d="M70.7992,53.8883h -13.6063" fill="none" stroke="black"/>
<path d="M63.9961,45.5416h -6.80315" fill="none" stroke="black"/>
<text xml:space="preserve" x="47.7441" y="350.258" fill="black" font-size="12.8453" font-family="Helvetica">0</text>
<text xml:space="preserve" x="33.8967" y="308.716" fill="black" font-size="12.8453" font-family="Helvetica">100</text>
<text xml:space="preserve" x="33.8967" y="267.173" fill="black" font-size="12.8453" font-family="Helvetica">200</text>
<text xml:space="preserve" x="33.8967" y="225.631" fill="black" font-size="12.8453" font-family="Helvetica">300</text>
<text xml:space="preserve" x="33.8967" y="183.275" fill="black" font-size="12.8453" font-family="Helvetica">400</text>
<text xml:space="preserve" x="33.8967" y="141.732" fill="black" font-size="12.8453" font-family="Helvetica">500</text>
<text xml:space="preserve" x="33.8967" y="100.19" fill="black" font-size="12.8453" font-family="Helvetica">600</text>
<text xml:space="preserve" x="33.8967" y="58.6478" fill="black" font-size="12.8453" font-family="Helvetica">700</text>
<g transform="rotate(-90,20.0493,114.037)">
<text xml:space="preserve" x="20.0493" y="114.037" fill="black" font-size="12.8453" font-family="Helvetica">distance [mm]</text>
</g>
<g stroke="black" stroke-width="1" fill="none">
<line x1="100.737" y1="346.022" x2="101.737" y2="346.022"/>
<line x1="163.447" y1="287.595" x2="164.447" y2="287.595"/>
<line x1="256.945" y1="229.169" x2="257.945" y2="229.169"/>
<line x1="337.593" y1="170.742" x2="338.593" y2="170.742"/>
<line x1="416.721" y1="112.315" x2="417.721" y2="112.315"/>
<line x1="464.445" y1="66.4083" x2="465.445" y2="66.4083"/>
</g>
<path d="M95.9299,346.022l 4.3496, -3.21311" fill="none" stroke="#ff0000" stroke-width="2"/>
<path d="M100.28,342.809l 4.53543, -3.35039l 4.53543, -3.35039l 4.53543, -3.35039l 4.53543, -3.35039l 4.53543, -3.35039l 4.53543, -3.35039l 4.53543, -3.35039l 4.53543, -3.35039l 4.53543, -3.35039l 4.53543, -3.35039l 4.53543, -3.35039l 4.53543,
 -3.35039l 4.53543, -3.35039l 4.53543, -3.35039l 4.53543, -3.35039l 4.53543, -3.35039l 4.53543, -3.35039l 4.53543, -3.35039l 4.53543, -3.35039l 4.53543, -3.35039l 4.53543, -3.35039l 4.53543, -3.35039l 4.53543, -3.35039l 4.53543, -3.35039l 4.53543,
 -3.35039l 4.53543, -3.35039l 4.53543, -3.35039l 4.53543, -3.35039l 4.53543, -3.35039l 4.53543, -3.35039l 4.53543, -3.35039l 4.53543, -3.35039l 4.53543, -3.35039l 4.53543, -3.35039l 4.53543, -3.35039l 4.53543, -3.35039l 4.53543, -3.35039l 4.53543,
 -3.35039l 4.53543, -3.35039l 4.53543, -3.35039l 4.53543, -3.35039l 4.53543, -3.35039l 4.53543, -3.35039l 4.53543, -3.35039l 4.53543, -3.35039l 4.53543, -3.35039l 4.53543, -3.35039l 4.53543, -3.35039" fill="none" stroke="#ff0000" stroke-width="2"/>
<path d="M317.98,181.99l 4.53543, -3.35039l 4.53543, -3.35039l 4.53543, -3.35039l 4.53543, -3.35039l 4.53543, -3.35039l 4.53543, -3.35039l 4.53543, -3.35039l 4.53543, -3.35039l 4.53543, -3.35039l 4.53543, -3.35039l 4.53543, -3.35039l 4.53543,
 -3.35039l 4.53543, -3.35039l 4.53543, -3.35039l 4.53543, -3.35039l 4.53543, -3.35039l 4.53543, -3.35039l 4.53543, -3.35039l 4.53543, -3.35039l 4.53543, -3.35039l 4.53543, -3.35039l 4.53543, -3.35039l 4.53543, -3.35039l 4.53543, -3.35039l 4.53543,
 -3.35039l 4.53543, -3.35039l 4.53543, -3.35039l 4.53543, -3.35039l 4.53543, -3.35039l 4.53543, -3.35039l 4.53543, -3.35039l 4.53543, -3.35039l 4.53543, -3.35039l 4.53543, -3.35039l 4.53543, -3.35039l 4.53543, -3.35039l 4.53543, -3.35039l 4.53543,
 -3.35039l 4.53543, -3.35039l 4.53543, -3.35039l 4.53543, -3.35039l 4.53543, -3.35039" fill="none" stroke="#ff0000" stroke-width="2"/>
<rect x="351.996" y="24.9905" width="204.094" height="76.8938" fill="white"/>
<path d="M351.996,101.884h 204.094" fill="none" stroke="black"/>
<path d="M556.091,101.884v -76.8938" fill="none" stroke="black"/>
<path d="M556.091,24.9905h -204.094" fill="none" stroke="black"/>
<path d="M351.996,24.9905v 76.8938" fill="none" stroke="black"/>
<text xml:space="preserve" x="377.638" y="39.0986" fill="black" font-size="16.7253" font-family="Helvetica"> / ndf </text>
<text xml:space="preserve" x="371.122" y="34.2112" fill="black" font-size="11.3169" font-family="Helvetica">2</text>
<text xml:space="preserve" x="362.162" y="39.0986" fill="black" font-size="16.7253" font-family="Times">&#0967;</text>
<text xml:space="preserve" x="477.828" y="40.7277" fill="black" font-size="16.7253" font-family="Helvetica"> 7.464 / 4</text>
<text xml:space="preserve" x="362.162" y="60.2769" fill="black" font-size="16.7253" font-family="Helvetica">Prob  </text>
<text xml:space="preserve" x="491.676" y="60.2769" fill="black" font-size="16.7253" font-family="Helvetica"> 0.1133</text>
<text xml:space="preserve" x="362.162" y="77.3826" fill="black" font-size="16.7253" font-family="Helvetica">p0       </text>
<text xml:space="preserve" x="500.636" y="79.0117" fill="black" font-size="16.7253" font-family="Helvetica"> 1.584</text>
<text xml:space="preserve" x="491.676" y="79.0117" fill="black" font-size="16.7253" font-family="Times">&#0177;</text>
<text xml:space="preserve" x="441.173" y="79.0117" fill="black" font-size="16.7253" font-family="Helvetica"> 74.77 </text>
<text xml:space="preserve" x="362.162" y="96.9318" fill="black" font-size="16.7253" font-family="Helvetica">p1       </text>
<text xml:space="preserve" x="500.636" y="98.561" fill="black" font-size="16.7253" font-family="Helvetica"> 4.896</text>
<text xml:space="preserve" x="491.676" y="98.561" fill="black" font-size="16.7253" font-family="Times">&#0177;</text>
<text xml:space="preserve" x="441.173" y="98.561" fill="black" font-size="16.7253" font-family="Helvetica"> 396.8 </text>
<path d="M101.737,346.022h -6.74876" fill="none" stroke="black"/>
<path d="M94.9882,346.022v -1.62911" fill="none" stroke="black"/>
<path d="M101.737,346.022h 6.74876" fill="none" stroke="black"/>
<path d="M108.486,346.022v -1.62911" fill="none" stroke="black"/>
<path d="M164.447,287.595h -5.65874" fill="none" stroke="black"/>
<path d="M158.789,289.225v -3.25821" fill="none" stroke="black"/>
<path d="M164.447,287.595h 5.65874" fill="none" stroke="black"/>
<path d="M170.106,289.225v -3.25821" fill="none" stroke="black"/>
<path d="M257.945,229.169h -5.93545" fill="none" stroke="black"/>
<path d="M252.009,230.798v -3.25821" fill="none" stroke="black"/>
<path d="M257.945,229.169h 5.93545" fill="none" stroke="black"/>
<path d="M263.88,230.798v -3.25821" fill="none" stroke="black"/>
<path d="M338.593,170.742h -6.25786" fill="none" stroke="black"/>
<path d="M332.335,172.371v -3.25821" fill="none" stroke="black"/>
<path d="M338.593,170.742h 6.25786" fill="none" stroke="black"/>
<path d="M344.851,172.371v -3.25821" fill="none" stroke="black"/>
<path d="M417.721,112.315h -6.81565" fill="none" stroke="black"/>
<path d="M410.905,113.944v -3.25821" fill="none" stroke="black"/>
<path d="M417.721,112.315h 6.81565" fill="none" stroke="black"/>
<path d="M424.537,113.944v -3.25821" fill="none" stroke="black"/>
<path d="M465.445,66.4083h -7.4959" fill="none" stroke="black"/>
<path d="M457.949,68.0374v -3.25821" fill="none" stroke="black"/>
<path d="M465.445,66.4083h 7.4959" fill="none" stroke="black"/>
<path d="M472.941,68.0374v -3.25821" fill="none" stroke="black"/>
<rect x="351.996" y="24.9905" width="204.094" height="76.8938" fill="white"/>
<path d="M351.996,101.884h 204.094" fill="none" stroke="black"/>
<path d="M556.091,101.884v -76.8938" fill="none" stroke="black"/>
<path d="M556.091,24.9905h -204.094" fill="none" stroke="black"/>
<path d="M351.996,24.9905v 76.8938" fill="none" stroke="black"/>
<text xml:space="preserve" x="377.638" y="39.0986" fill="black" font-size="16.7253" font-family="Helvetica"> / ndf </text>
<text xml:space="preserve" x="371.122" y="34.2112" fill="black" font-size="11.3169" font-family="Helvetica">2</text>
<text xml:space="preserve" x="362.162" y="39.0986" fill="black" font-size="16.7253" font-family="Times">&#0967;</text>
<text xml:space="preserve" x="477.828" y="40.7277" fill="black" font-size="16.7253" font-family="Helvetica"> 7.464 / 4</text>
<text xml:space="preserve" x="362.162" y="60.2769" fill="black" font-size="16.7253" font-family="Helvetica">Prob  </text>
<text xml:space="preserve" x="491.676" y="60.2769" fill="black" font-size="16.7253" font-family="Helvetica"> 0.1133</text>
<text xml:space="preserve" x="362.162" y="77.3826" fill="black" font-size="16.7253" font-family="Helvetica">p0       </text>
<text xml:space="preserve" x="500.636" y="79.0117" fill="black" font-size="16.7253" font-family="Helvetica"> 1.584</text>
<text xml:space="preserve" x="491.676" y="79.0117" fill="black" font-size="16.7253" font-family="Times">&#0177;</text>
<text xml:space="preserve" x="441.173" y="79.0117" fill="black" font-size="16.7253" font-family="Helvetica"> 74.77 </text>
<text xml:space="preserve" x="362.162" y="96.9318" fill="black" font-size="16.7253" font-family="Helvetica">p1       </text>
<text xml:space="preserve" x="500.636" y="98.561" fill="black" font-size="16.7253" font-family="Helvetica"> 4.896</text>
<text xml:space="preserve" x="491.676" y="98.561" fill="black" font-size="16.7253" font-family="Times">&#0177;</text>
<text xml:space="preserve" x="441.173" y="98.561" fill="black" font-size="16.7253" font-family="Helvetica"> 396.8 </text></svg>
