<?xml version="1.0" standalone="no"?>
<svg width="567.429" height="384.969" viewBox="0 0 567.429 384.969" xmlns="http://www.w3.org/2000/svg" shape-rendering="crispEdges">
<title>
img/week2/time_distance_graph_ch_8_9_10_11.svg
</title>
<desc>
Creator: ROOT Version 6.22/09
CreationDate: Thu Jun 24 11:05:57 2021</desc>
<defs>
</defs>
<rect x="0.5" y="0" width="566.929" height="384.469" fill="white"/>
<rect x="57.1929" y="38.4469" width="453.543" height="307.575" fill="white"/>
<rect x="57.1929" y="38.4469" width="453.543" height="307.575" fill="none" stroke="black"/>
<rect x="57.1929" y="38.4469" width="453.543" height="307.575" fill="white"/>
<rect x="57.1929" y="38.4469" width="453.543" height="307.575" fill="none" stroke="black"/>
<path d="M57.1929,346.022h 453.543" fill="none" stroke="black"/>
<path d="M67.8545,336.795v 9.22726" fill="none" stroke="black"/>
<path d="M78.2516,341.409v 4.61363" fill="none" stroke="black"/>
<path d="M88.6487,341.409v 4.61363" fill="none" stroke="black"/>
<path d="M99.0459,341.409v 4.61363" fill="none" stroke="black"/>
<path d="M109.443,341.409v 4.61363" fill="none" stroke="black"/>
<path d="M119.84,336.795v 9.22726" fill="none" stroke="black"/>
<path d="M130.237,341.409v 4.61363" fill="none" stroke="black"/>
<path d="M140.634,341.409v 4.61363" fill="none" stroke="black"/>
<path d="M151.032,341.409v 4.61363" fill="none" stroke="black"/>
<path d="M161.429,341.409v 4.61363" fill="none" stroke="black"/>
<path d="M171.826,336.795v 9.22726" fill="none" stroke="black"/>
<path d="M182.223,341.409v 4.61363" fill="none" stroke="black"/>
<path d="M192.62,341.409v 4.61363" fill="none" stroke="black"/>
<path d="M203.017,341.409v 4.61363" fill="none" stroke="black"/>
<path d="M213.414,341.409v 4.61363" fill="none" stroke="black"/>
<path d="M223.811,336.795v 9.22726" fill="none" stroke="black"/>
<path d="M234.209,341.409v 4.61363" fill="none" stroke="black"/>
<path d="M244.606,341.409v 4.61363" fill="none" stroke="black"/>
<path d="M255.003,341.409v 4.61363" fill="none" stroke="black"/>
<path d="M265.4,341.409v 4.61363" fill="none" stroke="black"/>
<path d="M275.797,336.795v 9.22726" fill="none" stroke="black"/>
<path d="M286.194,341.409v 4.61363" fill="none" stroke="black"/>
<path d="M296.591,341.409v 4.61363" fill="none" stroke="black"/>
<path d="M306.989,341.409v 4.61363" fill="none" stroke="black"/>
<path d="M317.386,341.409v 4.61363" fill="none" stroke="black"/>
<path d="M327.783,336.795v 9.22726" fill="none" stroke="black"/>
<path d="M338.18,341.409v 4.61363" fill="none" stroke="black"/>
<path d="M348.577,341.409v 4.61363" fill="none" stroke="black"/>
<path d="M358.974,341.409v 4.61363" fill="none" stroke="black"/>
<path d="M369.371,341.409v 4.61363" fill="none" stroke="black"/>
<path d="M379.769,336.795v 9.22726" fill="none" stroke="black"/>
<path d="M390.166,341.409v 4.61363" fill="none" stroke="black"/>
<path d="M400.563,341.409v 4.61363" fill="none" stroke="black"/>
<path d="M410.96,341.409v 4.61363" fill="none" stroke="black"/>
<path d="M421.357,341.409v 4.61363" fill="none" stroke="black"/>
<path d="M431.754,336.795v 9.22726" fill="none" stroke="black"/>
<path d="M442.151,341.409v 4.61363" fill="none" stroke="black"/>
<path d="M452.548,341.409v 4.61363" fill="none" stroke="black"/>
<path d="M462.946,341.409v 4.61363" fill="none" stroke="black"/>
<path d="M473.343,341.409v 4.61363" fill="none" stroke="black"/>
<path d="M483.74,336.795v 9.22726" fill="none" stroke="black"/>
<path d="M67.8545,336.795v 9.22726" fill="none" stroke="black"/>
<path d="M57.4573,341.409v 4.61363" fill="none" stroke="black"/>
<path d="M483.74,336.795v 9.22726" fill="none" stroke="black"/>
<path d="M494.137,341.409v 4.61363" fill="none" stroke="black"/>
<path d="M504.534,341.409v 4.61363" fill="none" stroke="black"/>
<text xml:space="preserve" x="67.2934" y="358.403" fill="black" font-size="12.8453" font-family="Helvetica">6</text>
<text xml:space="preserve" x="59.9624" y="358.403" fill="black" font-size="12.8453" font-family="Times">&#8722;</text>
<text xml:space="preserve" x="119.425" y="358.403" fill="black" font-size="12.8453" font-family="Helvetica">5</text>
<text xml:space="preserve" x="112.094" y="358.403" fill="black" font-size="12.8453" font-family="Times">&#8722;</text>
<text xml:space="preserve" x="171.556" y="358.403" fill="black" font-size="12.8453" font-family="Helvetica">4</text>
<text xml:space="preserve" x="164.225" y="358.403" fill="black" font-size="12.8453" font-family="Times">&#8722;</text>
<text xml:space="preserve" x="223.688" y="358.403" fill="black" font-size="12.8453" font-family="Helvetica">3</text>
<text xml:space="preserve" x="216.357" y="358.403" fill="black" font-size="12.8453" font-family="Times">&#8722;</text>
<text xml:space="preserve" x="275.004" y="358.403" fill="black" font-size="12.8453" font-family="Helvetica">2</text>
<text xml:space="preserve" x="267.673" y="358.403" fill="black" font-size="12.8453" font-family="Times">&#8722;</text>
<text xml:space="preserve" x="327.95" y="358.403" fill="black" font-size="12.8453" font-family="Helvetica">1</text>
<text xml:space="preserve" x="320.619" y="358.403" fill="black" font-size="12.8453" font-family="Times">&#8722;</text>
<text xml:space="preserve" x="376.009" y="358.403" fill="black" font-size="12.8453" font-family="Helvetica">0</text>
<text xml:space="preserve" x="428.955" y="358.403" fill="black" font-size="12.8453" font-family="Helvetica">1</text>
<text xml:space="preserve" x="480.272" y="358.403" fill="black" font-size="12.8453" font-family="Helvetica">2</text>
<text xml:space="preserve" x="445.246" y="370.622" fill="black" font-size="12.8453" font-family="Helvetica">time lag [ps]</text>
<path d="M57.1929,346.022v -307.575" fill="none" stroke="black"/>
<path d="M70.7992,346.022h -13.6063" fill="none" stroke="black"/>
<path d="M63.9961,337.676h -6.80315" fill="none" stroke="black"/>
<path d="M63.9961,329.329h -6.80315" fill="none" stroke="black"/>
<path d="M63.9961,320.982h -6.80315" fill="none" stroke="black"/>
<path d="M63.9961,312.636h -6.80315" fill="none" stroke="black"/>
<path d="M70.7992,304.289h -13.6063" fill="none" stroke="black"/>
<path d="M63.9961,295.942h -6.80315" fill="none" stroke="black"/>
<path d="M63.9961,287.595h -6.80315" fill="none" stroke="black"/>
<path d="M63.9961,279.249h -6.80315" fill="none" stroke="black"/>
<path d="M63.9961,270.902h -6.80315" fill="none" stroke="black"/>
<path d="M70.7992,262.555h -13.6063" fill="none" stroke="black"/>
<path d="M63.9961,254.209h -6.80315" fill="none" stroke="black"/>
<path d="M63.9961,245.862h -6.80315" fill="none" stroke="black"/>
<path d="M63.9961,237.515h -6.80315" fill="none" stroke="black"/>
<path d="M63.9961,229.169h -6.80315" fill="none" stroke="black"/>
<path d="M70.7992,220.822h -13.6063" fill="none" stroke="black"/>
<path d="M63.9961,212.475h -6.80315" fill="none" stroke="black"/>
<path d="M63.9961,204.129h -6.80315" fill="none" stroke="black"/>
<path d="M63.9961,195.782h -6.80315" fill="none" stroke="black"/>
<path d="M63.9961,187.435h -6.80315" fill="none" stroke="black"/>
<path d="M70.7992,179.089h -13.6063" fill="none" stroke="black"/>
<path d="M63.9961,170.742h -6.80315" fill="none" stroke="black"/>
<path d="M63.9961,162.395h -6.80315" fill="none" stroke="black"/>
<path d="M63.9961,154.049h -6.80315" fill="none" stroke="black"/>
<path d="M63.9961,145.702h -6.80315" fill="none" stroke="black"/>
<path d="M70.7992,137.355h -13.6063" fill="none" stroke="black"/>
<path d="M63.9961,129.008h -6.80315" fill="none" stroke="black"/>
<path d="M63.9961,120.662h -6.80315" fill="none" stroke="black"/>
<path d="M63.9961,112.315h -6.80315" fill="none" stroke="black"/>
<path d="M63.9961,103.968h -6.80315" fill="none" stroke="black"/>
<path d="M70.7992,95.6217h -13.6063" fill="none" stroke="black"/>
<path d="M63.9961,87.275h -6.80315" fill="none" stroke="black"/>
<path d="M63.9961,78.9283h -6.80315" fill="none" stroke="black"/>
<path d="M63.9961,70.5817h -6.80315" fill="none" stroke="black"/>
<path d="M63.9961,62.235h -6.80315" fill="none" stroke="black"/>
<path d="M70.7992,53.8883h -13.6063" fill="none" stroke="black"/>
<path d="M70.7992,53.8883h -13.6063" fill="none" stroke="black"/>
<path d="M63.9961,45.5416h -6.80315" fill="none" stroke="black"/>
<text xml:space="preserve" x="47.7441" y="350.258" fill="black" font-size="12.8453" font-family="Helvetica">0</text>
<text xml:space="preserve" x="33.8967" y="308.716" fill="black" font-size="12.8453" font-family="Helvetica">100</text>
<text xml:space="preserve" x="33.8967" y="267.173" fill="black" font-size="12.8453" font-family="Helvetica">200</text>
<text xml:space="preserve" x="33.8967" y="225.631" fill="black" font-size="12.8453" font-family="Helvetica">300</text>
<text xml:space="preserve" x="33.8967" y="183.275" fill="black" font-size="12.8453" font-family="Helvetica">400</text>
<text xml:space="preserve" x="33.8967" y="141.732" fill="black" font-size="12.8453" font-family="Helvetica">500</text>
<text xml:space="preserve" x="33.8967" y="100.19" fill="black" font-size="12.8453" font-family="Helvetica">600</text>
<text xml:space="preserve" x="33.8967" y="58.6478" fill="black" font-size="12.8453" font-family="Helvetica">700</text>
<g transform="rotate(-90,20.0493,114.037)">
<text xml:space="preserve" x="20.0493" y="114.037" fill="black" font-size="12.8453" font-family="Helvetica">distance [mm]</text>
</g>
<g stroke="black" stroke-width="1" fill="none">
<line x1="105.765" y1="346.022" x2="106.765" y2="346.022"/>
<line x1="149.262" y1="287.595" x2="150.262" y2="287.595"/>
<line x1="254.77" y1="229.169" x2="255.77" y2="229.169"/>
<line x1="331.72" y1="170.742" x2="332.72" y2="170.742"/>
<line x1="410.91" y1="112.315" x2="411.91" y2="112.315"/>
<line x1="456.885" y1="66.4083" x2="457.885" y2="66.4083"/>
</g>
<path d="M94.4708,346.022l 1.27332, -0.955833" fill="none" stroke="#ff0000" stroke-width="2"/>
<path d="M95.7441,345.066l 4.53543, -3.40459l 4.53543, -3.40459l 4.53543, -3.40459l 4.53543, -3.40459l 4.53543, -3.40459l 4.53543, -3.40459l 4.53543, -3.40459l 4.53543, -3.40459l 4.53543, -3.40459l 4.53543, -3.40459l 4.53543, -3.40459l 4.53543,
 -3.40459l 4.53543, -3.40459l 4.53543, -3.40459l 4.53543, -3.40459l 4.53543, -3.40459l 4.53543, -3.40459l 4.53543, -3.40459l 4.53543, -3.40459l 4.53543, -3.40459l 4.53543, -3.40459l 4.53543, -3.40459l 4.53543, -3.40459l 4.53543, -3.40459l 4.53543,
 -3.40459l 4.53543, -3.40459l 4.53543, -3.40459l 4.53543, -3.40459l 4.53543, -3.40459l 4.53543, -3.40459l 4.53543, -3.40459l 4.53543, -3.40459l 4.53543, -3.40459l 4.53543, -3.40459l 4.53543, -3.40459l 4.53543, -3.40459l 4.53543, -3.40459l 4.53543,
 -3.40459l 4.53543, -3.40459l 4.53543, -3.40459l 4.53543, -3.40459l 4.53543, -3.40459l 4.53543, -3.40459l 4.53543, -3.40459l 4.53543, -3.40459l 4.53543, -3.40459l 4.53543, -3.40459l 4.53543, -3.40459" fill="none" stroke="#ff0000" stroke-width="2"/>
<path d="M313.445,181.646l 4.53543, -3.40459l 4.53543, -3.40459l 4.53543, -3.40459l 4.53543, -3.40459l 4.53543, -3.40459l 4.53543, -3.40459l 4.53543, -3.40459l 4.53543, -3.40459l 4.53543, -3.40459l 4.53543, -3.40459l 4.53543, -3.40459l 4.53543,
 -3.40459l 4.53543, -3.40459l 4.53543, -3.40459l 4.53543, -3.40459l 4.53543, -3.40459l 4.53543, -3.40459l 4.53543, -3.40459l 4.53543, -3.40459l 4.53543, -3.40459l 4.53543, -3.40459l 4.53543, -3.40459l 4.53543, -3.40459l 4.53543, -3.40459l 4.53543,
 -3.40459l 4.53543, -3.40459l 4.53543, -3.40459l 4.53543, -3.40459l 4.53543, -3.40459l 4.53543, -3.40459l 4.53543, -3.40459l 4.53543, -3.40459l 4.53543, -3.40459l 4.53543, -3.40459l 4.53543, -3.40459l 4.53543, -3.40459l 4.53543, -3.40459l 4.53543,
 -3.40459l 4.53543, -3.40459l 4.53543, -3.40459l 4.53543, -3.40459l 4.53543, -3.40459l 0.274973, -0.206413" fill="none" stroke="#ff0000" stroke-width="2"/>
<rect x="351.996" y="24.9905" width="204.094" height="76.8938" fill="white"/>
<path d="M351.996,101.884h 204.094" fill="none" stroke="black"/>
<path d="M556.091,101.884v -76.8938" fill="none" stroke="black"/>
<path d="M556.091,24.9905h -204.094" fill="none" stroke="black"/>
<path d="M351.996,24.9905v 76.8938" fill="none" stroke="black"/>
<text xml:space="preserve" x="377.638" y="39.0986" fill="black" font-size="16.7253" font-family="Helvetica"> / ndf </text>
<text xml:space="preserve" x="371.122" y="34.2112" fill="black" font-size="11.3169" font-family="Helvetica">2</text>
<text xml:space="preserve" x="362.162" y="39.0986" fill="black" font-size="16.7253" font-family="Times">&#0967;</text>
<text xml:space="preserve" x="477.828" y="40.7277" fill="black" font-size="16.7253" font-family="Helvetica"> 5.953 / 4</text>
<text xml:space="preserve" x="362.162" y="60.2769" fill="black" font-size="16.7253" font-family="Helvetica">Prob  </text>
<text xml:space="preserve" x="490.861" y="60.2769" fill="black" font-size="16.7253" font-family="Helvetica"> 0.2027</text>
<text xml:space="preserve" x="362.162" y="77.3826" fill="black" font-size="16.7253" font-family="Helvetica">p0       </text>
<text xml:space="preserve" x="500.636" y="79.0117" fill="black" font-size="16.7253" font-family="Helvetica"> 3.773</text>
<text xml:space="preserve" x="491.676" y="79.0117" fill="black" font-size="16.7253" font-family="Times">&#0177;</text>
<text xml:space="preserve" x="443.617" y="79.0117" fill="black" font-size="16.7253" font-family="Helvetica"> 93.51 </text>
<text xml:space="preserve" x="362.162" y="96.9318" fill="black" font-size="16.7253" font-family="Helvetica">p1       </text>
<text xml:space="preserve" x="500.636" y="98.561" fill="black" font-size="16.7253" font-family="Helvetica"> 11.82</text>
<text xml:space="preserve" x="491.676" y="98.561" fill="black" font-size="16.7253" font-family="Times">&#0177;</text>
<text xml:space="preserve" x="441.173" y="98.561" fill="black" font-size="16.7253" font-family="Helvetica"> 513.2 </text>
<path d="M106.765,346.022h -11.7768" fill="none" stroke="black"/>
<path d="M94.9882,346.022v -1.62911" fill="none" stroke="black"/>
<path d="M106.765,346.022h 11.7768" fill="none" stroke="black"/>
<path d="M118.542,346.022v -1.62911" fill="none" stroke="black"/>
<path d="M150.262,287.595h -11.2837" fill="none" stroke="black"/>
<path d="M138.979,289.225v -3.25821" fill="none" stroke="black"/>
<path d="M150.262,287.595h 11.2837" fill="none" stroke="black"/>
<path d="M161.546,289.225v -3.25821" fill="none" stroke="black"/>
<path d="M255.77,229.169h -10.9788" fill="none" stroke="black"/>
<path d="M244.791,230.798v -3.25821" fill="none" stroke="black"/>
<path d="M255.77,229.169h 10.9788" fill="none" stroke="black"/>
<path d="M266.748,230.798v -3.25821" fill="none" stroke="black"/>
<path d="M332.72,170.742h -10.9121" fill="none" stroke="black"/>
<path d="M321.808,172.371v -3.25821" fill="none" stroke="black"/>
<path d="M332.72,170.742h 10.9121" fill="none" stroke="black"/>
<path d="M343.632,172.371v -3.25821" fill="none" stroke="black"/>
<path d="M411.91,112.315h -12.6933" fill="none" stroke="black"/>
<path d="M399.217,113.944v -3.25821" fill="none" stroke="black"/>
<path d="M411.91,112.315h 12.6933" fill="none" stroke="black"/>
<path d="M424.604,113.944v -3.25821" fill="none" stroke="black"/>
<path d="M457.885,66.4083h -15.0562" fill="none" stroke="black"/>
<path d="M442.829,68.0374v -3.25821" fill="none" stroke="black"/>
<path d="M457.885,66.4083h 15.0562" fill="none" stroke="black"/>
<path d="M472.941,68.0374v -3.25821" fill="none" stroke="black"/>
<rect x="351.996" y="24.9905" width="204.094" height="76.8938" fill="white"/>
<path d="M351.996,101.884h 204.094" fill="none" stroke="black"/>
<path d="M556.091,101.884v -76.8938" fill="none" stroke="black"/>
<path d="M556.091,24.9905h -204.094" fill="none" stroke="black"/>
<path d="M351.996,24.9905v 76.8938" fill="none" stroke="black"/>
<text xml:space="preserve" x="377.638" y="39.0986" fill="black" font-size="16.7253" font-family="Helvetica"> / ndf </text>
<text xml:space="preserve" x="371.122" y="34.2112" fill="black" font-size="11.3169" font-family="Helvetica">2</text>
<text xml:space="preserve" x="362.162" y="39.0986" fill="black" font-size="16.7253" font-family="Times">&#0967;</text>
<text xml:space="preserve" x="477.828" y="40.7277" fill="black" font-size="16.7253" font-family="Helvetica"> 5.953 / 4</text>
<text xml:space="preserve" x="362.162" y="60.2769" fill="black" font-size="16.7253" font-family="Helvetica">Prob  </text>
<text xml:space="preserve" x="490.861" y="60.2769" fill="black" font-size="16.7253" font-family="Helvetica"> 0.2027</text>
<text xml:space="preserve" x="362.162" y="77.3826" fill="black" font-size="16.7253" font-family="Helvetica">p0       </text>
<text xml:space="preserve" x="500.636" y="79.0117" fill="black" font-size="16.7253" font-family="Helvetica"> 3.773</text>
<text xml:space="preserve" x="491.676" y="79.0117" fill="black" font-size="16.7253" font-family="Times">&#0177;</text>
<text xml:space="preserve" x="443.617" y="79.0117" fill="black" font-size="16.7253" font-family="Helvetica"> 93.51 </text>
<text xml:space="preserve" x="362.162" y="96.9318" fill="black" font-size="16.7253" font-family="Helvetica">p1       </text>
<text xml:space="preserve" x="500.636" y="98.561" fill="black" font-size="16.7253" font-family="Helvetica"> 11.82</text>
<text xml:space="preserve" x="491.676" y="98.561" fill="black" font-size="16.7253" font-family="Times">&#0177;</text>
<text xml:space="preserve" x="441.173" y="98.561" fill="black" font-size="16.7253" font-family="Helvetica"> 513.2 </text></svg>
