<?xml version="1.0" standalone="no"?>
<svg width="567.429" height="386.304" viewBox="0 0 567.429 386.304" xmlns="http://www.w3.org/2000/svg" shape-rendering="crispEdges">
<title>
img/week2/time_distance_graph_ch_4_5_6_7.svg
</title>
<desc>
Creator: ROOT Version 6.22/08
CreationDate: Mon Jun 21 18:56:27 2021</desc>
<defs>
</defs>
<rect x="0.5" y="0" width="566.929" height="385.804" fill="white"/>
<rect x="57.1929" y="38.5804" width="453.543" height="308.643" fill="white"/>
<rect x="57.1929" y="38.5804" width="453.543" height="308.643" fill="none" stroke="black"/>
<rect x="57.1929" y="38.5804" width="453.543" height="308.643" fill="white"/>
<rect x="57.1929" y="38.5804" width="453.543" height="308.643" fill="none" stroke="black"/>
<path d="M57.1929,347.224h 453.543" fill="none" stroke="black"/>
<path d="M96.5095,337.964v 9.2593" fill="none" stroke="black"/>
<path d="M106.365,342.594v 4.62965" fill="none" stroke="black"/>
<path d="M116.22,342.594v 4.62965" fill="none" stroke="black"/>
<path d="M126.075,342.594v 4.62965" fill="none" stroke="black"/>
<path d="M135.93,342.594v 4.62965" fill="none" stroke="black"/>
<path d="M145.785,337.964v 9.2593" fill="none" stroke="black"/>
<path d="M155.64,342.594v 4.62965" fill="none" stroke="black"/>
<path d="M165.495,342.594v 4.62965" fill="none" stroke="black"/>
<path d="M175.35,342.594v 4.62965" fill="none" stroke="black"/>
<path d="M185.205,342.594v 4.62965" fill="none" stroke="black"/>
<path d="M195.06,337.964v 9.2593" fill="none" stroke="black"/>
<path d="M204.915,342.594v 4.62965" fill="none" stroke="black"/>
<path d="M214.771,342.594v 4.62965" fill="none" stroke="black"/>
<path d="M224.626,342.594v 4.62965" fill="none" stroke="black"/>
<path d="M234.481,342.594v 4.62965" fill="none" stroke="black"/>
<path d="M244.336,337.964v 9.2593" fill="none" stroke="black"/>
<path d="M254.191,342.594v 4.62965" fill="none" stroke="black"/>
<path d="M264.046,342.594v 4.62965" fill="none" stroke="black"/>
<path d="M273.901,342.594v 4.62965" fill="none" stroke="black"/>
<path d="M283.756,342.594v 4.62965" fill="none" stroke="black"/>
<path d="M293.611,337.964v 9.2593" fill="none" stroke="black"/>
<path d="M303.466,342.594v 4.62965" fill="none" stroke="black"/>
<path d="M313.321,342.594v 4.62965" fill="none" stroke="black"/>
<path d="M323.176,342.594v 4.62965" fill="none" stroke="black"/>
<path d="M333.031,342.594v 4.62965" fill="none" stroke="black"/>
<path d="M342.887,337.964v 9.2593" fill="none" stroke="black"/>
<path d="M352.742,342.594v 4.62965" fill="none" stroke="black"/>
<path d="M362.597,342.594v 4.62965" fill="none" stroke="black"/>
<path d="M372.452,342.594v 4.62965" fill="none" stroke="black"/>
<path d="M382.307,342.594v 4.62965" fill="none" stroke="black"/>
<path d="M392.162,337.964v 9.2593" fill="none" stroke="black"/>
<path d="M402.017,342.594v 4.62965" fill="none" stroke="black"/>
<path d="M411.872,342.594v 4.62965" fill="none" stroke="black"/>
<path d="M421.727,342.594v 4.62965" fill="none" stroke="black"/>
<path d="M431.582,342.594v 4.62965" fill="none" stroke="black"/>
<path d="M441.437,337.964v 9.2593" fill="none" stroke="black"/>
<path d="M451.292,342.594v 4.62965" fill="none" stroke="black"/>
<path d="M461.148,342.594v 4.62965" fill="none" stroke="black"/>
<path d="M471.003,342.594v 4.62965" fill="none" stroke="black"/>
<path d="M480.858,342.594v 4.62965" fill="none" stroke="black"/>
<path d="M490.713,337.964v 9.2593" fill="none" stroke="black"/>
<path d="M96.5095,337.964v 9.2593" fill="none" stroke="black"/>
<path d="M86.6545,342.594v 4.62965" fill="none" stroke="black"/>
<path d="M76.7994,342.594v 4.62965" fill="none" stroke="black"/>
<path d="M66.9443,342.594v 4.62965" fill="none" stroke="black"/>
<path d="M490.713,337.964v 9.2593" fill="none" stroke="black"/>
<path d="M500.568,342.594v 4.62965" fill="none" stroke="black"/>
<path d="M510.423,342.594v 4.62965" fill="none" stroke="black"/>
<text xml:space="preserve" x="95.5297" y="359.813" fill="black" font-size="12.8882" font-family="Helvetica">3</text>
<text xml:space="preserve" x="89.0319" y="359.813" fill="black" font-size="12.8882" font-family="Times">&#8722;</text>
<text xml:space="preserve" x="144.263" y="359.813" fill="black" font-size="12.8882" font-family="Helvetica">2</text>
<text xml:space="preserve" x="137.765" y="359.813" fill="black" font-size="12.8882" font-family="Times">&#8722;</text>
<text xml:space="preserve" x="195.433" y="359.813" fill="black" font-size="12.8882" font-family="Helvetica">1</text>
<text xml:space="preserve" x="188.123" y="359.813" fill="black" font-size="12.8882" font-family="Times">&#8722;</text>
<text xml:space="preserve" x="240.105" y="359.813" fill="black" font-size="12.8882" font-family="Helvetica">0</text>
<text xml:space="preserve" x="290.462" y="359.813" fill="black" font-size="12.8882" font-family="Helvetica">1</text>
<text xml:space="preserve" x="338.383" y="359.813" fill="black" font-size="12.8882" font-family="Helvetica">2</text>
<text xml:space="preserve" x="387.929" y="359.813" fill="black" font-size="12.8882" font-family="Helvetica">3</text>
<text xml:space="preserve" x="436.662" y="359.813" fill="black" font-size="12.8882" font-family="Helvetica">4</text>
<text xml:space="preserve" x="486.207" y="359.813" fill="black" font-size="12.8882" font-family="Helvetica">5</text>
<text xml:space="preserve" x="440.723" y="372.809" fill="black" font-size="12.8882" font-family="Helvetica">time lag [ps]</text>
<path d="M57.1929,347.224v -308.643" fill="none" stroke="black"/>
<path d="M70.7992,347.224h -13.6063" fill="none" stroke="black"/>
<path d="M63.9961,338.848h -6.80315" fill="none" stroke="black"/>
<path d="M63.9961,330.472h -6.80315" fill="none" stroke="black"/>
<path d="M63.9961,322.097h -6.80315" fill="none" stroke="black"/>
<path d="M63.9961,313.721h -6.80315" fill="none" stroke="black"/>
<path d="M70.7992,305.345h -13.6063" fill="none" stroke="black"/>
<path d="M63.9961,296.97h -6.80315" fill="none" stroke="black"/>
<path d="M63.9961,288.594h -6.80315" fill="none" stroke="black"/>
<path d="M63.9961,280.218h -6.80315" fill="none" stroke="black"/>
<path d="M63.9961,271.843h -6.80315" fill="none" stroke="black"/>
<path d="M70.7992,263.467h -13.6063" fill="none" stroke="black"/>
<path d="M63.9961,255.091h -6.80315" fill="none" stroke="black"/>
<path d="M63.9961,246.716h -6.80315" fill="none" stroke="black"/>
<path d="M63.9961,238.34h -6.80315" fill="none" stroke="black"/>
<path d="M63.9961,229.964h -6.80315" fill="none" stroke="black"/>
<path d="M70.7992,221.589h -13.6063" fill="none" stroke="black"/>
<path d="M63.9961,213.213h -6.80315" fill="none" stroke="black"/>
<path d="M63.9961,204.837h -6.80315" fill="none" stroke="black"/>
<path d="M63.9961,196.462h -6.80315" fill="none" stroke="black"/>
<path d="M63.9961,188.086h -6.80315" fill="none" stroke="black"/>
<path d="M70.7992,179.71h -13.6063" fill="none" stroke="black"/>
<path d="M63.9961,171.335h -6.80315" fill="none" stroke="black"/>
<path d="M63.9961,162.959h -6.80315" fill="none" stroke="black"/>
<path d="M63.9961,154.583h -6.80315" fill="none" stroke="black"/>
<path d="M63.9961,146.208h -6.80315" fill="none" stroke="black"/>
<path d="M70.7992,137.832h -13.6063" fill="none" stroke="black"/>
<path d="M63.9961,129.456h -6.80315" fill="none" stroke="black"/>
<path d="M63.9961,121.081h -6.80315" fill="none" stroke="black"/>
<path d="M63.9961,112.705h -6.80315" fill="none" stroke="black"/>
<path d="M63.9961,104.329h -6.80315" fill="none" stroke="black"/>
<path d="M70.7992,95.9538h -13.6063" fill="none" stroke="black"/>
<path d="M63.9961,87.5781h -6.80315" fill="none" stroke="black"/>
<path d="M63.9961,79.2024h -6.80315" fill="none" stroke="black"/>
<path d="M63.9961,70.8267h -6.80315" fill="none" stroke="black"/>
<path d="M63.9961,62.4511h -6.80315" fill="none" stroke="black"/>
<path d="M70.7992,54.0754h -13.6063" fill="none" stroke="black"/>
<path d="M70.7992,54.0754h -13.6063" fill="none" stroke="black"/>
<path d="M63.9961,45.6997h -6.80315" fill="none" stroke="black"/>
<text xml:space="preserve" x="46.7965" y="351.691" fill="black" font-size="12.8882" font-family="Helvetica">0</text>
<text xml:space="preserve" x="32.1766" y="309.456" fill="black" font-size="12.8882" font-family="Helvetica">100</text>
<text xml:space="preserve" x="32.1766" y="268.032" fill="black" font-size="12.8882" font-family="Helvetica">200</text>
<text xml:space="preserve" x="32.1766" y="225.797" fill="black" font-size="12.8882" font-family="Helvetica">300</text>
<text xml:space="preserve" x="32.1766" y="184.374" fill="black" font-size="12.8882" font-family="Helvetica">400</text>
<text xml:space="preserve" x="32.1766" y="142.138" fill="black" font-size="12.8882" font-family="Helvetica">500</text>
<text xml:space="preserve" x="32.1766" y="100.715" fill="black" font-size="12.8882" font-family="Helvetica">600</text>
<text xml:space="preserve" x="32.1766" y="58.4798" fill="black" font-size="12.8882" font-family="Helvetica">700</text>
<g transform="rotate(-90,19.9933,118.584)">
<text xml:space="preserve" x="19.9933" y="118.584" fill="black" font-size="12.8882" font-family="Helvetica">distance [mm]</text>
</g>
<g stroke="black" stroke-width="1" fill="none">
<line x1="105.951" y1="347.224" x2="106.951" y2="347.224"/>
<line x1="177.122" y1="288.594" x2="178.122" y2="288.594"/>
<line x1="237.787" y1="229.964" x2="238.787" y2="229.964"/>
<line x1="325.598" y1="171.335" x2="326.598" y2="171.335"/>
<line x1="404.069" y1="112.705" x2="405.069" y2="112.705"/>
<line x1="458.349" y1="66.6389" x2="459.349" y2="66.6389"/>
</g>
<path d="M100.838,347.224l 3.97698, -3.12156" fill="none" stroke="#ff0000" stroke-width="2"/>
<path d="M104.815,344.102l 4.53543, -3.55989l 4.53543, -3.55989l 4.53543, -3.55989l 4.53543, -3.55989l 4.53543, -3.55989l 4.53543, -3.55989l 4.53543, -3.55989l 4.53543, -3.55989l 4.53543, -3.55989l 4.53543, -3.55989l 4.53543, -3.55989l 4.53543,
 -3.55989l 4.53543, -3.55989l 4.53543, -3.55989l 4.53543, -3.55989l 4.53543, -3.55989l 4.53543, -3.55989l 4.53543, -3.55989l 4.53543, -3.55989l 4.53543, -3.55989l 4.53543, -3.55989l 4.53543, -3.55989l 4.53543, -3.55989l 4.53543, -3.55989l 4.53543,
 -3.55989l 4.53543, -3.55989l 4.53543, -3.55989l 4.53543, -3.55989l 4.53543, -3.55989l 4.53543, -3.55989l 4.53543, -3.55989l 4.53543, -3.55989l 4.53543, -3.55989l 4.53543, -3.55989l 4.53543, -3.55989l 4.53543, -3.55989l 4.53543, -3.55989l 4.53543,
 -3.55989l 4.53543, -3.55989l 4.53543, -3.55989l 4.53543, -3.55989l 4.53543, -3.55989l 4.53543, -3.55989l 4.53543, -3.55989l 4.53543, -3.55989l 4.53543, -3.55989l 4.53543, -3.55989l 4.53543, -3.55989" fill="none" stroke="#ff0000" stroke-width="2"/>
<path d="M322.516,173.227l 4.53543, -3.55989l 4.53543, -3.55989l 4.53543, -3.55989l 4.53543, -3.55989l 4.53543, -3.55989l 4.53543, -3.55989l 4.53543, -3.55989l 4.53543, -3.55989l 4.53543, -3.55989l 4.53543, -3.55989l 4.53543, -3.55989l 4.53543,
 -3.55989l 4.53543, -3.55989l 4.53543, -3.55989l 4.53543, -3.55989l 4.53543, -3.55989l 4.53543, -3.55989l 4.53543, -3.55989l 4.53543, -3.55989l 4.53543, -3.55989l 4.53543, -3.55989l 4.53543, -3.55989l 4.53543, -3.55989l 4.53543, -3.55989l 4.53543,
 -3.55989l 4.53543, -3.55989l 4.53543, -3.55989l 4.53543, -3.55989l 4.53543, -3.55989l 4.53543, -3.55989l 4.53543, -3.55989l 4.53543, -3.55989l 4.53543, -3.55989l 4.53543, -3.55989l 4.53543, -3.55989l 4.53543, -3.55989l 4.53543, -3.55989l 3.7343,
 -2.93108" fill="none" stroke="#ff0000" stroke-width="2"/>
<rect x="351.996" y="25.0773" width="204.094" height="77.1608" fill="white"/>
<path d="M351.996,102.238h 204.094" fill="none" stroke="black"/>
<path d="M556.091,102.238v -77.1608" fill="none" stroke="black"/>
<path d="M556.091,25.0773h -204.094" fill="none" stroke="black"/>
<path d="M351.996,25.0773v 77.1608" fill="none" stroke="black"/>
<text xml:space="preserve" x="377.37" y="39.7988" fill="black" font-size="16.7816" font-family="Helvetica"> / ndf </text>
<text xml:space="preserve" x="370.872" y="34.1132" fill="black" font-size="11.3544" font-family="Helvetica">2</text>
<text xml:space="preserve" x="361.938" y="39.7988" fill="black" font-size="16.7816" font-family="Times">&#0967;</text>
<text xml:space="preserve" x="478.085" y="40.611" fill="black" font-size="16.7816" font-family="Helvetica"> 1.983 / 4</text>
<text xml:space="preserve" x="361.938" y="60.1042" fill="black" font-size="16.7816" font-family="Helvetica">Prob  </text>
<text xml:space="preserve" x="491.893" y="60.1042" fill="black" font-size="16.7816" font-family="Helvetica"> 0.7389</text>
<text xml:space="preserve" x="361.938" y="77.9731" fill="black" font-size="16.7816" font-family="Helvetica">p0       </text>
<text xml:space="preserve" x="508.137" y="79.5975" fill="black" font-size="16.7816" font-family="Helvetica">  3.71</text>
<text xml:space="preserve" x="499.203" y="79.5975" fill="black" font-size="16.7816" font-family="Times">&#0177;</text>
<text xml:space="preserve" x="448.845" y="79.5975" fill="black" font-size="16.7816" font-family="Helvetica"> 92.35 </text>
<text xml:space="preserve" x="361.938" y="97.4663" fill="black" font-size="16.7816" font-family="Helvetica">p1       </text>
<text xml:space="preserve" x="500.827" y="99.0908" fill="black" font-size="16.7816" font-family="Helvetica"> 8.876</text>
<text xml:space="preserve" x="491.893" y="99.0908" fill="black" font-size="16.7816" font-family="Times">&#0177;</text>
<text xml:space="preserve" x="445.596" y="99.0908" fill="black" font-size="16.7816" font-family="Helvetica">   269 </text>
<path d="M106.951,347.224h -11.9629" fill="none" stroke="black"/>
<path d="M94.9882,347.224v -1.62444" fill="none" stroke="black"/>
<path d="M106.951,347.224h 11.9629" fill="none" stroke="black"/>
<path d="M118.914,347.224v -1.62444" fill="none" stroke="black"/>
<path d="M178.122,288.594h -10.7037" fill="none" stroke="black"/>
<path d="M167.418,290.219v -3.24888" fill="none" stroke="black"/>
<path d="M178.122,288.594h 10.7037" fill="none" stroke="black"/>
<path d="M188.826,290.219v -3.24888" fill="none" stroke="black"/>
<path d="M238.787,229.964h -9.5998" fill="none" stroke="black"/>
<path d="M229.187,231.589v -3.24888" fill="none" stroke="black"/>
<path d="M238.787,229.964h 9.5998" fill="none" stroke="black"/>
<path d="M248.387,231.589v -3.24888" fill="none" stroke="black"/>
<path d="M326.598,171.335h -10.8768" fill="none" stroke="black"/>
<path d="M315.721,172.959v -3.24888" fill="none" stroke="black"/>
<path d="M326.598,171.335h 10.8768" fill="none" stroke="black"/>
<path d="M337.475,172.959v -3.24888" fill="none" stroke="black"/>
<path d="M405.069,112.705h -11.7954" fill="none" stroke="black"/>
<path d="M393.273,114.33v -3.24888" fill="none" stroke="black"/>
<path d="M405.069,112.705h 11.7954" fill="none" stroke="black"/>
<path d="M416.864,114.33v -3.24888" fill="none" stroke="black"/>
<path d="M459.349,66.6389h -13.5918" fill="none" stroke="black"/>
<path d="M445.757,68.2634v -3.24888" fill="none" stroke="black"/>
<path d="M459.349,66.6389h 13.5918" fill="none" stroke="black"/>
<path d="M472.941,68.2634v -3.24888" fill="none" stroke="black"/>
<rect x="351.996" y="25.0773" width="204.094" height="77.1608" fill="white"/>
<path d="M351.996,102.238h 204.094" fill="none" stroke="black"/>
<path d="M556.091,102.238v -77.1608" fill="none" stroke="black"/>
<path d="M556.091,25.0773h -204.094" fill="none" stroke="black"/>
<path d="M351.996,25.0773v 77.1608" fill="none" stroke="black"/>
<text xml:space="preserve" x="377.37" y="39.7988" fill="black" font-size="16.7816" font-family="Helvetica"> / ndf </text>
<text xml:space="preserve" x="370.872" y="34.1132" fill="black" font-size="11.3544" font-family="Helvetica">2</text>
<text xml:space="preserve" x="361.938" y="39.7988" fill="black" font-size="16.7816" font-family="Times">&#0967;</text>
<text xml:space="preserve" x="478.085" y="40.611" fill="black" font-size="16.7816" font-family="Helvetica"> 1.983 / 4</text>
<text xml:space="preserve" x="361.938" y="60.1042" fill="black" font-size="16.7816" font-family="Helvetica">Prob  </text>
<text xml:space="preserve" x="491.893" y="60.1042" fill="black" font-size="16.7816" font-family="Helvetica"> 0.7389</text>
<text xml:space="preserve" x="361.938" y="77.9731" fill="black" font-size="16.7816" font-family="Helvetica">p0       </text>
<text xml:space="preserve" x="508.137" y="79.5975" fill="black" font-size="16.7816" font-family="Helvetica">  3.71</text>
<text xml:space="preserve" x="499.203" y="79.5975" fill="black" font-size="16.7816" font-family="Times">&#0177;</text>
<text xml:space="preserve" x="448.845" y="79.5975" fill="black" font-size="16.7816" font-family="Helvetica"> 92.35 </text>
<text xml:space="preserve" x="361.938" y="97.4663" fill="black" font-size="16.7816" font-family="Helvetica">p1       </text>
<text xml:space="preserve" x="500.827" y="99.0908" fill="black" font-size="16.7816" font-family="Helvetica"> 8.876</text>
<text xml:space="preserve" x="491.893" y="99.0908" fill="black" font-size="16.7816" font-family="Times">&#0177;</text>
<text xml:space="preserve" x="445.596" y="99.0908" fill="black" font-size="16.7816" font-family="Helvetica">   269 </text></svg>
