<?xml version="1.0" standalone="no"?>
<svg width="567.429" height="386.304" viewBox="0 0 567.429 386.304" xmlns="http://www.w3.org/2000/svg" shape-rendering="crispEdges">
<title>
img/week2/time_distance_graph_ch_24_25_26_27.svg
</title>
<desc>
Creator: ROOT Version 6.22/08
CreationDate: Tue Jun 22 01:05:18 2021</desc>
<defs>
</defs>
<rect x="0.5" y="0" width="566.929" height="385.804" fill="white"/>
<rect x="57.1929" y="38.5804" width="453.543" height="308.643" fill="white"/>
<rect x="57.1929" y="38.5804" width="453.543" height="308.643" fill="none" stroke="black"/>
<rect x="57.1929" y="38.5804" width="453.543" height="308.643" fill="white"/>
<rect x="57.1929" y="38.5804" width="453.543" height="308.643" fill="none" stroke="black"/>
<path d="M57.1929,347.224h 453.543" fill="none" stroke="black"/>
<path d="M66.6799,337.964v 9.2593" fill="none" stroke="black"/>
<path d="M87.8,342.594v 4.62965" fill="none" stroke="black"/>
<path d="M108.92,342.594v 4.62965" fill="none" stroke="black"/>
<path d="M130.04,342.594v 4.62965" fill="none" stroke="black"/>
<path d="M151.16,337.964v 9.2593" fill="none" stroke="black"/>
<path d="M172.281,342.594v 4.62965" fill="none" stroke="black"/>
<path d="M193.401,342.594v 4.62965" fill="none" stroke="black"/>
<path d="M214.521,342.594v 4.62965" fill="none" stroke="black"/>
<path d="M235.641,337.964v 9.2593" fill="none" stroke="black"/>
<path d="M256.761,342.594v 4.62965" fill="none" stroke="black"/>
<path d="M277.881,342.594v 4.62965" fill="none" stroke="black"/>
<path d="M299.002,342.594v 4.62965" fill="none" stroke="black"/>
<path d="M320.122,337.964v 9.2593" fill="none" stroke="black"/>
<path d="M341.242,342.594v 4.62965" fill="none" stroke="black"/>
<path d="M362.362,342.594v 4.62965" fill="none" stroke="black"/>
<path d="M383.482,342.594v 4.62965" fill="none" stroke="black"/>
<path d="M404.602,337.964v 9.2593" fill="none" stroke="black"/>
<path d="M425.723,342.594v 4.62965" fill="none" stroke="black"/>
<path d="M446.843,342.594v 4.62965" fill="none" stroke="black"/>
<path d="M467.963,342.594v 4.62965" fill="none" stroke="black"/>
<path d="M489.083,337.964v 9.2593" fill="none" stroke="black"/>
<path d="M66.6799,337.964v 9.2593" fill="none" stroke="black"/>
<path d="M489.083,337.964v 9.2593" fill="none" stroke="black"/>
<path d="M510.203,342.594v 4.62965" fill="none" stroke="black"/>
<text xml:space="preserve" x="65.4776" y="359.813" fill="black" font-size="12.8882" font-family="Helvetica">6</text>
<text xml:space="preserve" x="58.9798" y="359.813" fill="black" font-size="12.8882" font-family="Times">&#8722;</text>
<text xml:space="preserve" x="149.948" y="359.813" fill="black" font-size="12.8882" font-family="Helvetica">4</text>
<text xml:space="preserve" x="143.451" y="359.813" fill="black" font-size="12.8882" font-family="Times">&#8722;</text>
<text xml:space="preserve" x="234.419" y="359.813" fill="black" font-size="12.8882" font-family="Helvetica">2</text>
<text xml:space="preserve" x="227.921" y="359.813" fill="black" font-size="12.8882" font-family="Times">&#8722;</text>
<text xml:space="preserve" x="315.641" y="359.813" fill="black" font-size="12.8882" font-family="Helvetica">0</text>
<text xml:space="preserve" x="400.112" y="359.813" fill="black" font-size="12.8882" font-family="Helvetica">2</text>
<text xml:space="preserve" x="484.583" y="359.813" fill="black" font-size="12.8882" font-family="Helvetica">4</text>
<text xml:space="preserve" x="440.723" y="372.809" fill="black" font-size="12.8882" font-family="Helvetica">time lag [ps]</text>
<path d="M57.1929,347.224v -308.643" fill="none" stroke="black"/>
<path d="M70.7992,347.224h -13.6063" fill="none" stroke="black"/>
<path d="M63.9961,338.848h -6.80315" fill="none" stroke="black"/>
<path d="M63.9961,330.472h -6.80315" fill="none" stroke="black"/>
<path d="M63.9961,322.097h -6.80315" fill="none" stroke="black"/>
<path d="M63.9961,313.721h -6.80315" fill="none" stroke="black"/>
<path d="M70.7992,305.345h -13.6063" fill="none" stroke="black"/>
<path d="M63.9961,296.97h -6.80315" fill="none" stroke="black"/>
<path d="M63.9961,288.594h -6.80315" fill="none" stroke="black"/>
<path d="M63.9961,280.218h -6.80315" fill="none" stroke="black"/>
<path d="M63.9961,271.843h -6.80315" fill="none" stroke="black"/>
<path d="M70.7992,263.467h -13.6063" fill="none" stroke="black"/>
<path d="M63.9961,255.091h -6.80315" fill="none" stroke="black"/>
<path d="M63.9961,246.716h -6.80315" fill="none" stroke="black"/>
<path d="M63.9961,238.34h -6.80315" fill="none" stroke="black"/>
<path d="M63.9961,229.964h -6.80315" fill="none" stroke="black"/>
<path d="M70.7992,221.589h -13.6063" fill="none" stroke="black"/>
<path d="M63.9961,213.213h -6.80315" fill="none" stroke="black"/>
<path d="M63.9961,204.837h -6.80315" fill="none" stroke="black"/>
<path d="M63.9961,196.462h -6.80315" fill="none" stroke="black"/>
<path d="M63.9961,188.086h -6.80315" fill="none" stroke="black"/>
<path d="M70.7992,179.71h -13.6063" fill="none" stroke="black"/>
<path d="M63.9961,171.335h -6.80315" fill="none" stroke="black"/>
<path d="M63.9961,162.959h -6.80315" fill="none" stroke="black"/>
<path d="M63.9961,154.583h -6.80315" fill="none" stroke="black"/>
<path d="M63.9961,146.208h -6.80315" fill="none" stroke="black"/>
<path d="M70.7992,137.832h -13.6063" fill="none" stroke="black"/>
<path d="M63.9961,129.456h -6.80315" fill="none" stroke="black"/>
<path d="M63.9961,121.081h -6.80315" fill="none" stroke="black"/>
<path d="M63.9961,112.705h -6.80315" fill="none" stroke="black"/>
<path d="M63.9961,104.329h -6.80315" fill="none" stroke="black"/>
<path d="M70.7992,95.9538h -13.6063" fill="none" stroke="black"/>
<path d="M63.9961,87.5781h -6.80315" fill="none" stroke="black"/>
<path d="M63.9961,79.2024h -6.80315" fill="none" stroke="black"/>
<path d="M63.9961,70.8267h -6.80315" fill="none" stroke="black"/>
<path d="M63.9961,62.4511h -6.80315" fill="none" stroke="black"/>
<path d="M70.7992,54.0754h -13.6063" fill="none" stroke="black"/>
<path d="M70.7992,54.0754h -13.6063" fill="none" stroke="black"/>
<path d="M63.9961,45.6997h -6.80315" fill="none" stroke="black"/>
<text xml:space="preserve" x="46.7965" y="351.691" fill="black" font-size="12.8882" font-family="Helvetica">0</text>
<text xml:space="preserve" x="32.1766" y="309.456" fill="black" font-size="12.8882" font-family="Helvetica">100</text>
<text xml:space="preserve" x="32.1766" y="268.032" fill="black" font-size="12.8882" font-family="Helvetica">200</text>
<text xml:space="preserve" x="32.1766" y="225.797" fill="black" font-size="12.8882" font-family="Helvetica">300</text>
<text xml:space="preserve" x="32.1766" y="184.374" fill="black" font-size="12.8882" font-family="Helvetica">400</text>
<text xml:space="preserve" x="32.1766" y="142.138" fill="black" font-size="12.8882" font-family="Helvetica">500</text>
<text xml:space="preserve" x="32.1766" y="100.715" fill="black" font-size="12.8882" font-family="Helvetica">600</text>
<text xml:space="preserve" x="32.1766" y="58.4798" fill="black" font-size="12.8882" font-family="Helvetica">700</text>
<g transform="rotate(-90,19.9933,118.584)">
<text xml:space="preserve" x="19.9933" y="118.584" fill="black" font-size="12.8882" font-family="Helvetica">distance [mm]</text>
</g>
<g stroke="black" stroke-width="1" fill="none">
<line x1="100.737" y1="347.224" x2="101.737" y2="347.224"/>
<line x1="163.447" y1="288.594" x2="164.447" y2="288.594"/>
<line x1="256.945" y1="229.964" x2="257.945" y2="229.964"/>
<line x1="337.593" y1="171.335" x2="338.593" y2="171.335"/>
<line x1="416.721" y1="112.705" x2="417.721" y2="112.705"/>
<line x1="464.445" y1="66.6389" x2="465.445" y2="66.6389"/>
</g>
<path d="M95.9298,347.224l 4.34971, -3.22437" fill="none" stroke="#ff0000" stroke-width="2"/>
<path d="M100.28,343.999l 4.53543, -3.36205l 4.53543, -3.36205l 4.53543, -3.36205l 4.53543, -3.36205l 4.53543, -3.36205l 4.53543, -3.36205l 4.53543, -3.36205l 4.53543, -3.36205l 4.53543, -3.36205l 4.53543, -3.36205l 4.53543, -3.36205l 4.53543,
 -3.36205l 4.53543, -3.36205l 4.53543, -3.36205l 4.53543, -3.36205l 4.53543, -3.36205l 4.53543, -3.36205l 4.53543, -3.36205l 4.53543, -3.36205l 4.53543, -3.36205l 4.53543, -3.36205l 4.53543, -3.36205l 4.53543, -3.36205l 4.53543, -3.36205l 4.53543,
 -3.36205l 4.53543, -3.36205l 4.53543, -3.36205l 4.53543, -3.36205l 4.53543, -3.36205l 4.53543, -3.36205l 4.53543, -3.36205l 4.53543, -3.36205l 4.53543, -3.36205l 4.53543, -3.36205l 4.53543, -3.36205l 4.53543, -3.36205l 4.53543, -3.36205l 4.53543,
 -3.36205l 4.53543, -3.36205l 4.53543, -3.36205l 4.53543, -3.36205l 4.53543, -3.36205l 4.53543, -3.36205l 4.53543, -3.36205l 4.53543, -3.36205l 4.53543, -3.36205l 4.53543, -3.36205l 4.53543, -3.36205" fill="none" stroke="#ff0000" stroke-width="2"/>
<path d="M317.98,182.621l 4.53543, -3.36205l 4.53543, -3.36205l 4.53543, -3.36205l 4.53543, -3.36205l 4.53543, -3.36205l 4.53543, -3.36205l 4.53543, -3.36205l 4.53543, -3.36205l 4.53543, -3.36205l 4.53543, -3.36205l 4.53543, -3.36205l 4.53543,
 -3.36205l 4.53543, -3.36205l 4.53543, -3.36205l 4.53543, -3.36205l 4.53543, -3.36205l 4.53543, -3.36205l 4.53543, -3.36205l 4.53543, -3.36205l 4.53543, -3.36205l 4.53543, -3.36205l 4.53543, -3.36205l 4.53543, -3.36205l 4.53543, -3.36205l 4.53543,
 -3.36205l 4.53543, -3.36205l 4.53543, -3.36205l 4.53543, -3.36205l 4.53543, -3.36205l 4.53543, -3.36205l 4.53543, -3.36205l 4.53543, -3.36205l 4.53543, -3.36205l 4.53543, -3.36205l 4.53543, -3.36205l 4.53543, -3.36205l 4.53543, -3.36205l 4.53543,
 -3.36205l 4.53543, -3.36205l 4.53543, -3.36205l 4.53543, -3.36205l 4.53543, -3.36205" fill="none" stroke="#ff0000" stroke-width="2"/>
<path d="M101.737,347.224h -6.74876" fill="none" stroke="black"/>
<path d="M94.9882,347.224v -1.62444" fill="none" stroke="black"/>
<path d="M101.737,347.224h 6.74876" fill="none" stroke="black"/>
<path d="M108.486,347.224v -1.62444" fill="none" stroke="black"/>
<path d="M164.447,288.594h -5.65874" fill="none" stroke="black"/>
<path d="M158.789,290.219v -3.24888" fill="none" stroke="black"/>
<path d="M164.447,288.594h 5.65874" fill="none" stroke="black"/>
<path d="M170.106,290.219v -3.24888" fill="none" stroke="black"/>
<path d="M257.945,229.964h -5.93545" fill="none" stroke="black"/>
<path d="M252.009,231.589v -3.24888" fill="none" stroke="black"/>
<path d="M257.945,229.964h 5.93545" fill="none" stroke="black"/>
<path d="M263.88,231.589v -3.24888" fill="none" stroke="black"/>
<path d="M338.593,171.335h -6.25786" fill="none" stroke="black"/>
<path d="M332.335,172.959v -3.24888" fill="none" stroke="black"/>
<path d="M338.593,171.335h 6.25786" fill="none" stroke="black"/>
<path d="M344.851,172.959v -3.24888" fill="none" stroke="black"/>
<path d="M417.721,112.705h -6.81565" fill="none" stroke="black"/>
<path d="M410.905,114.33v -3.24888" fill="none" stroke="black"/>
<path d="M417.721,112.705h 6.81565" fill="none" stroke="black"/>
<path d="M424.537,114.33v -3.24888" fill="none" stroke="black"/>
<path d="M465.445,66.6389h -7.4959" fill="none" stroke="black"/>
<path d="M457.949,68.2634v -3.24888" fill="none" stroke="black"/>
<path d="M465.445,66.6389h 7.4959" fill="none" stroke="black"/>
<path d="M472.941,68.2634v -3.24888" fill="none" stroke="black"/></svg>
