<?xml version="1.0" standalone="no"?>
<svg width="567.429" height="384.969" viewBox="0 0 567.429 384.969" xmlns="http://www.w3.org/2000/svg" shape-rendering="crispEdges">
<title>
img/week2/tracks/svg/10017.svg
</title>
<desc>
Creator: ROOT Version 6.22/09
CreationDate: Thu Jun 24 11:06:16 2021</desc>
<defs>
</defs>
<rect x="0.5" y="0" width="566.929" height="384.469" fill="white"/>
<rect x="57.1929" y="38.4469" width="453.543" height="307.575" fill="white"/>
<rect x="57.1929" y="38.4469" width="453.543" height="307.575" fill="none" stroke="black"/>
<path d="M57.1929,346.022h 453.543" fill="none" stroke="black"/>
<path d="M61.8359,336.795v 9.22726" fill="none" stroke="black"/>
<path d="M74.5562,341.409v 4.61363" fill="none" stroke="black"/>
<path d="M87.2766,341.409v 4.61363" fill="none" stroke="black"/>
<path d="M99.9969,341.409v 4.61363" fill="none" stroke="black"/>
<path d="M112.717,341.409v 4.61363" fill="none" stroke="black"/>
<path d="M125.438,336.795v 9.22726" fill="none" stroke="black"/>
<path d="M138.158,341.409v 4.61363" fill="none" stroke="black"/>
<path d="M150.878,341.409v 4.61363" fill="none" stroke="black"/>
<path d="M163.599,341.409v 4.61363" fill="none" stroke="black"/>
<path d="M176.319,341.409v 4.61363" fill="none" stroke="black"/>
<path d="M189.039,336.795v 9.22726" fill="none" stroke="black"/>
<path d="M201.76,341.409v 4.61363" fill="none" stroke="black"/>
<path d="M214.48,341.409v 4.61363" fill="none" stroke="black"/>
<path d="M227.2,341.409v 4.61363" fill="none" stroke="black"/>
<path d="M239.921,341.409v 4.61363" fill="none" stroke="black"/>
<path d="M252.641,336.795v 9.22726" fill="none" stroke="black"/>
<path d="M265.361,341.409v 4.61363" fill="none" stroke="black"/>
<path d="M278.082,341.409v 4.61363" fill="none" stroke="black"/>
<path d="M290.802,341.409v 4.61363" fill="none" stroke="black"/>
<path d="M303.522,341.409v 4.61363" fill="none" stroke="black"/>
<path d="M316.243,336.795v 9.22726" fill="none" stroke="black"/>
<path d="M328.963,341.409v 4.61363" fill="none" stroke="black"/>
<path d="M341.683,341.409v 4.61363" fill="none" stroke="black"/>
<path d="M354.404,341.409v 4.61363" fill="none" stroke="black"/>
<path d="M367.124,341.409v 4.61363" fill="none" stroke="black"/>
<path d="M379.844,336.795v 9.22726" fill="none" stroke="black"/>
<path d="M392.565,341.409v 4.61363" fill="none" stroke="black"/>
<path d="M405.285,341.409v 4.61363" fill="none" stroke="black"/>
<path d="M418.005,341.409v 4.61363" fill="none" stroke="black"/>
<path d="M430.726,341.409v 4.61363" fill="none" stroke="black"/>
<path d="M443.446,336.795v 9.22726" fill="none" stroke="black"/>
<path d="M456.166,341.409v 4.61363" fill="none" stroke="black"/>
<path d="M468.887,341.409v 4.61363" fill="none" stroke="black"/>
<path d="M481.607,341.409v 4.61363" fill="none" stroke="black"/>
<path d="M494.327,341.409v 4.61363" fill="none" stroke="black"/>
<path d="M507.048,336.795v 9.22726" fill="none" stroke="black"/>
<path d="M61.8359,336.795v 9.22726" fill="none" stroke="black"/>
<path d="M507.048,336.795v 9.22726" fill="none" stroke="black"/>
<text xml:space="preserve" x="54.2605" y="358.403" fill="black" font-size="12.8453" font-family="Helvetica">100</text>
<text xml:space="preserve" x="47.7441" y="358.403" fill="black" font-size="12.8453" font-family="Times">&#8722;</text>
<text xml:space="preserve" x="121.868" y="358.403" fill="black" font-size="12.8453" font-family="Helvetica">0</text>
<text xml:space="preserve" x="178.073" y="358.403" fill="black" font-size="12.8453" font-family="Helvetica">100</text>
<text xml:space="preserve" x="241.608" y="358.403" fill="black" font-size="12.8453" font-family="Helvetica">200</text>
<text xml:space="preserve" x="305.143" y="358.403" fill="black" font-size="12.8453" font-family="Helvetica">300</text>
<text xml:space="preserve" x="368.678" y="358.403" fill="black" font-size="12.8453" font-family="Helvetica">400</text>
<text xml:space="preserve" x="432.213" y="358.403" fill="black" font-size="12.8453" font-family="Helvetica">500</text>
<text xml:space="preserve" x="495.748" y="358.403" fill="black" font-size="12.8453" font-family="Helvetica">600</text>
<text xml:space="preserve" x="454.206" y="370.622" fill="black" font-size="12.8453" font-family="Helvetica">yoko [mm]</text>
<path d="M57.1929,346.022v -307.575" fill="none" stroke="black"/>
<path d="M70.7992,346.022h -13.6063" fill="none" stroke="black"/>
<path d="M63.9961,339.032h -6.80315" fill="none" stroke="black"/>
<path d="M63.9961,332.042h -6.80315" fill="none" stroke="black"/>
<path d="M63.9961,325.051h -6.80315" fill="none" stroke="black"/>
<path d="M63.9961,318.061h -6.80315" fill="none" stroke="black"/>
<path d="M70.7992,311.071h -13.6063" fill="none" stroke="black"/>
<path d="M63.9961,304.08h -6.80315" fill="none" stroke="black"/>
<path d="M63.9961,297.09h -6.80315" fill="none" stroke="black"/>
<path d="M63.9961,290.099h -6.80315" fill="none" stroke="black"/>
<path d="M63.9961,283.109h -6.80315" fill="none" stroke="black"/>
<path d="M70.7992,276.119h -13.6063" fill="none" stroke="black"/>
<path d="M63.9961,269.128h -6.80315" fill="none" stroke="black"/>
<path d="M63.9961,262.138h -6.80315" fill="none" stroke="black"/>
<path d="M63.9961,255.148h -6.80315" fill="none" stroke="black"/>
<path d="M63.9961,248.157h -6.80315" fill="none" stroke="black"/>
<path d="M70.7992,241.167h -13.6063" fill="none" stroke="black"/>
<path d="M63.9961,234.177h -6.80315" fill="none" stroke="black"/>
<path d="M63.9961,227.186h -6.80315" fill="none" stroke="black"/>
<path d="M63.9961,220.196h -6.80315" fill="none" stroke="black"/>
<path d="M63.9961,213.206h -6.80315" fill="none" stroke="black"/>
<path d="M70.7992,206.215h -13.6063" fill="none" stroke="black"/>
<path d="M63.9961,199.225h -6.80315" fill="none" stroke="black"/>
<path d="M63.9961,192.235h -6.80315" fill="none" stroke="black"/>
<path d="M63.9961,185.244h -6.80315" fill="none" stroke="black"/>
<path d="M63.9961,178.254h -6.80315" fill="none" stroke="black"/>
<path d="M70.7992,171.264h -13.6063" fill="none" stroke="black"/>
<path d="M63.9961,164.273h -6.80315" fill="none" stroke="black"/>
<path d="M63.9961,157.283h -6.80315" fill="none" stroke="black"/>
<path d="M63.9961,150.292h -6.80315" fill="none" stroke="black"/>
<path d="M63.9961,143.302h -6.80315" fill="none" stroke="black"/>
<path d="M70.7992,136.312h -13.6063" fill="none" stroke="black"/>
<path d="M63.9961,129.321h -6.80315" fill="none" stroke="black"/>
<path d="M63.9961,122.331h -6.80315" fill="none" stroke="black"/>
<path d="M63.9961,115.341h -6.80315" fill="none" stroke="black"/>
<path d="M63.9961,108.35h -6.80315" fill="none" stroke="black"/>
<path d="M70.7992,101.36h -13.6063" fill="none" stroke="black"/>
<path d="M63.9961,94.3697h -6.80315" fill="none" stroke="black"/>
<path d="M63.9961,87.3794h -6.80315" fill="none" stroke="black"/>
<path d="M63.9961,80.389h -6.80315" fill="none" stroke="black"/>
<path d="M63.9961,73.3987h -6.80315" fill="none" stroke="black"/>
<path d="M70.7992,66.4083h -13.6063" fill="none" stroke="black"/>
<path d="M70.7992,66.4083h -13.6063" fill="none" stroke="black"/>
<path d="M63.9961,59.418h -6.80315" fill="none" stroke="black"/>
<path d="M63.9961,52.4276h -6.80315" fill="none" stroke="black"/>
<path d="M63.9961,45.4373h -6.80315" fill="none" stroke="black"/>
<path d="M63.9961,38.4469h -6.80315" fill="none" stroke="black"/>
<text xml:space="preserve" x="47.7441" y="350.258" fill="black" font-size="12.8453" font-family="Helvetica">0</text>
<text xml:space="preserve" x="49.3732" y="315.232" fill="black" font-size="12.8453" font-family="Helvetica">1</text>
<text xml:space="preserve" x="47.7441" y="280.206" fill="black" font-size="12.8453" font-family="Helvetica">2</text>
<text xml:space="preserve" x="47.7441" y="245.995" fill="black" font-size="12.8453" font-family="Helvetica">3</text>
<text xml:space="preserve" x="47.7441" y="210.969" fill="black" font-size="12.8453" font-family="Helvetica">4</text>
<text xml:space="preserve" x="47.7441" y="175.944" fill="black" font-size="12.8453" font-family="Helvetica">5</text>
<text xml:space="preserve" x="47.7441" y="140.918" fill="black" font-size="12.8453" font-family="Helvetica">6</text>
<text xml:space="preserve" x="47.7441" y="105.892" fill="black" font-size="12.8453" font-family="Helvetica">7</text>
<text xml:space="preserve" x="47.7441" y="70.8661" fill="black" font-size="12.8453" font-family="Helvetica">8</text>
<g transform="rotate(-90,33.8967,101.819)">
<text xml:space="preserve" x="33.8967" y="101.819" fill="black" font-size="12.8453" font-family="Helvetica">height [mm]</text>
</g>
<text xml:space="preserve" x="261.157" y="18.7347" fill="black" font-size="16.9898" font-family="Helvetica">tracks</text>
<g fill="black">
<circle cx="354.709" cy="311.071" r="3.25821"/>
<circle cx="125.438" cy="346.022" r="3.25821"/>
<circle cx="125.438" cy="346.022" r="3.25821"/>
<circle cx="125.438" cy="346.022" r="3.25821"/>
<circle cx="120.278" cy="276.119" r="3.25821"/>
<circle cx="125.438" cy="346.022" r="3.25821"/>
<circle cx="125.438" cy="346.022" r="3.25821"/>
<circle cx="125.438" cy="346.022" r="3.25821"/>
<circle cx="94.9882" cy="241.167" r="3.25821"/>
<circle cx="125.438" cy="346.022" r="3.25821"/>
<circle cx="125.438" cy="346.022" r="3.25821"/>
<circle cx="125.438" cy="346.022" r="3.25821"/>
<circle cx="235.784" cy="206.215" r="3.25821"/>
<circle cx="125.438" cy="346.022" r="3.25821"/>
<circle cx="125.438" cy="346.022" r="3.25821"/>
<circle cx="125.438" cy="346.022" r="3.25821"/>
<circle cx="285.062" cy="171.264" r="3.25821"/>
<circle cx="125.438" cy="346.022" r="3.25821"/>
<circle cx="125.438" cy="346.022" r="3.25821"/>
<circle cx="125.438" cy="346.022" r="3.25821"/>
<circle cx="315.17" cy="136.312" r="3.25821"/>
<circle cx="125.438" cy="346.022" r="3.25821"/>
<circle cx="125.438" cy="346.022" r="3.25821"/>
<circle cx="125.438" cy="346.022" r="3.25821"/>
<circle cx="472.941" cy="101.36" r="3.25821"/>
<circle cx="125.438" cy="346.022" r="3.25821"/>
<circle cx="125.438" cy="346.022" r="3.25821"/>
<circle cx="125.438" cy="346.022" r="3.25821"/>
<circle cx="404.7" cy="66.4083" r="3.25821"/>
</g>
<text xml:space="preserve" x="261.157" y="18.7347" fill="black" font-size="16.9898" font-family="Helvetica">tracks</text></svg>
