<?xml version="1.0" standalone="no"?>
<svg width="567.429" height="384.969" viewBox="0 0 567.429 384.969" xmlns="http://www.w3.org/2000/svg" shape-rendering="crispEdges">
<title>
img/week2/tracks/svg/10387.svg
</title>
<desc>
Creator: ROOT Version 6.22/09
CreationDate: Thu Jun 24 11:06:17 2021</desc>
<defs>
</defs>
<rect x="0.5" y="0" width="566.929" height="384.469" fill="white"/>
<rect x="57.1929" y="38.4469" width="453.543" height="307.575" fill="white"/>
<rect x="57.1929" y="38.4469" width="453.543" height="307.575" fill="none" stroke="black"/>
<path d="M57.1929,346.022h 453.543" fill="none" stroke="black"/>
<path d="M93.0423,336.795v 9.22726" fill="none" stroke="black"/>
<path d="M102.2,341.409v 4.61363" fill="none" stroke="black"/>
<path d="M111.358,341.409v 4.61363" fill="none" stroke="black"/>
<path d="M120.516,341.409v 4.61363" fill="none" stroke="black"/>
<path d="M129.673,341.409v 4.61363" fill="none" stroke="black"/>
<path d="M138.831,336.795v 9.22726" fill="none" stroke="black"/>
<path d="M147.989,341.409v 4.61363" fill="none" stroke="black"/>
<path d="M157.147,341.409v 4.61363" fill="none" stroke="black"/>
<path d="M166.304,341.409v 4.61363" fill="none" stroke="black"/>
<path d="M175.462,341.409v 4.61363" fill="none" stroke="black"/>
<path d="M184.62,336.795v 9.22726" fill="none" stroke="black"/>
<path d="M193.777,341.409v 4.61363" fill="none" stroke="black"/>
<path d="M202.935,341.409v 4.61363" fill="none" stroke="black"/>
<path d="M212.093,341.409v 4.61363" fill="none" stroke="black"/>
<path d="M221.251,341.409v 4.61363" fill="none" stroke="black"/>
<path d="M230.408,336.795v 9.22726" fill="none" stroke="black"/>
<path d="M239.566,341.409v 4.61363" fill="none" stroke="black"/>
<path d="M248.724,341.409v 4.61363" fill="none" stroke="black"/>
<path d="M257.882,341.409v 4.61363" fill="none" stroke="black"/>
<path d="M267.039,341.409v 4.61363" fill="none" stroke="black"/>
<path d="M276.197,336.795v 9.22726" fill="none" stroke="black"/>
<path d="M285.355,341.409v 4.61363" fill="none" stroke="black"/>
<path d="M294.513,341.409v 4.61363" fill="none" stroke="black"/>
<path d="M303.67,341.409v 4.61363" fill="none" stroke="black"/>
<path d="M312.828,341.409v 4.61363" fill="none" stroke="black"/>
<path d="M321.986,336.795v 9.22726" fill="none" stroke="black"/>
<path d="M331.144,341.409v 4.61363" fill="none" stroke="black"/>
<path d="M340.301,341.409v 4.61363" fill="none" stroke="black"/>
<path d="M349.459,341.409v 4.61363" fill="none" stroke="black"/>
<path d="M358.617,341.409v 4.61363" fill="none" stroke="black"/>
<path d="M367.775,336.795v 9.22726" fill="none" stroke="black"/>
<path d="M376.932,341.409v 4.61363" fill="none" stroke="black"/>
<path d="M386.09,341.409v 4.61363" fill="none" stroke="black"/>
<path d="M395.248,341.409v 4.61363" fill="none" stroke="black"/>
<path d="M404.406,341.409v 4.61363" fill="none" stroke="black"/>
<path d="M413.563,336.795v 9.22726" fill="none" stroke="black"/>
<path d="M422.721,341.409v 4.61363" fill="none" stroke="black"/>
<path d="M431.879,341.409v 4.61363" fill="none" stroke="black"/>
<path d="M441.037,341.409v 4.61363" fill="none" stroke="black"/>
<path d="M450.194,341.409v 4.61363" fill="none" stroke="black"/>
<path d="M459.352,336.795v 9.22726" fill="none" stroke="black"/>
<path d="M468.51,341.409v 4.61363" fill="none" stroke="black"/>
<path d="M477.668,341.409v 4.61363" fill="none" stroke="black"/>
<path d="M486.825,341.409v 4.61363" fill="none" stroke="black"/>
<path d="M495.983,341.409v 4.61363" fill="none" stroke="black"/>
<path d="M505.141,336.795v 9.22726" fill="none" stroke="black"/>
<path d="M93.0423,336.795v 9.22726" fill="none" stroke="black"/>
<path d="M83.8846,341.409v 4.61363" fill="none" stroke="black"/>
<path d="M74.7268,341.409v 4.61363" fill="none" stroke="black"/>
<path d="M65.5691,341.409v 4.61363" fill="none" stroke="black"/>
<path d="M505.141,336.795v 9.22726" fill="none" stroke="black"/>
<text xml:space="preserve" x="89.2863" y="358.403" fill="black" font-size="12.8453" font-family="Helvetica">50</text>
<text xml:space="preserve" x="81.9553" y="358.403" fill="black" font-size="12.8453" font-family="Times">&#8722;</text>
<text xml:space="preserve" x="134.901" y="358.403" fill="black" font-size="12.8453" font-family="Helvetica">0</text>
<text xml:space="preserve" x="178.073" y="358.403" fill="black" font-size="12.8453" font-family="Helvetica">50</text>
<text xml:space="preserve" x="219.615" y="358.403" fill="black" font-size="12.8453" font-family="Helvetica">100</text>
<text xml:space="preserve" x="265.23" y="358.403" fill="black" font-size="12.8453" font-family="Helvetica">150</text>
<text xml:space="preserve" x="310.845" y="358.403" fill="black" font-size="12.8453" font-family="Helvetica">200</text>
<text xml:space="preserve" x="356.46" y="358.403" fill="black" font-size="12.8453" font-family="Helvetica">250</text>
<text xml:space="preserve" x="402.889" y="358.403" fill="black" font-size="12.8453" font-family="Helvetica">300</text>
<text xml:space="preserve" x="448.504" y="358.403" fill="black" font-size="12.8453" font-family="Helvetica">350</text>
<text xml:space="preserve" x="494.119" y="358.403" fill="black" font-size="12.8453" font-family="Helvetica">400</text>
<text xml:space="preserve" x="454.206" y="370.622" fill="black" font-size="12.8453" font-family="Helvetica">yoko [mm]</text>
<path d="M57.1929,346.022v -307.575" fill="none" stroke="black"/>
<path d="M70.7992,346.022h -13.6063" fill="none" stroke="black"/>
<path d="M63.9961,339.032h -6.80315" fill="none" stroke="black"/>
<path d="M63.9961,332.042h -6.80315" fill="none" stroke="black"/>
<path d="M63.9961,325.051h -6.80315" fill="none" stroke="black"/>
<path d="M63.9961,318.061h -6.80315" fill="none" stroke="black"/>
<path d="M70.7992,311.071h -13.6063" fill="none" stroke="black"/>
<path d="M63.9961,304.08h -6.80315" fill="none" stroke="black"/>
<path d="M63.9961,297.09h -6.80315" fill="none" stroke="black"/>
<path d="M63.9961,290.099h -6.80315" fill="none" stroke="black"/>
<path d="M63.9961,283.109h -6.80315" fill="none" stroke="black"/>
<path d="M70.7992,276.119h -13.6063" fill="none" stroke="black"/>
<path d="M63.9961,269.128h -6.80315" fill="none" stroke="black"/>
<path d="M63.9961,262.138h -6.80315" fill="none" stroke="black"/>
<path d="M63.9961,255.148h -6.80315" fill="none" stroke="black"/>
<path d="M63.9961,248.157h -6.80315" fill="none" stroke="black"/>
<path d="M70.7992,241.167h -13.6063" fill="none" stroke="black"/>
<path d="M63.9961,234.177h -6.80315" fill="none" stroke="black"/>
<path d="M63.9961,227.186h -6.80315" fill="none" stroke="black"/>
<path d="M63.9961,220.196h -6.80315" fill="none" stroke="black"/>
<path d="M63.9961,213.206h -6.80315" fill="none" stroke="black"/>
<path d="M70.7992,206.215h -13.6063" fill="none" stroke="black"/>
<path d="M63.9961,199.225h -6.80315" fill="none" stroke="black"/>
<path d="M63.9961,192.235h -6.80315" fill="none" stroke="black"/>
<path d="M63.9961,185.244h -6.80315" fill="none" stroke="black"/>
<path d="M63.9961,178.254h -6.80315" fill="none" stroke="black"/>
<path d="M70.7992,171.264h -13.6063" fill="none" stroke="black"/>
<path d="M63.9961,164.273h -6.80315" fill="none" stroke="black"/>
<path d="M63.9961,157.283h -6.80315" fill="none" stroke="black"/>
<path d="M63.9961,150.292h -6.80315" fill="none" stroke="black"/>
<path d="M63.9961,143.302h -6.80315" fill="none" stroke="black"/>
<path d="M70.7992,136.312h -13.6063" fill="none" stroke="black"/>
<path d="M63.9961,129.321h -6.80315" fill="none" stroke="black"/>
<path d="M63.9961,122.331h -6.80315" fill="none" stroke="black"/>
<path d="M63.9961,115.341h -6.80315" fill="none" stroke="black"/>
<path d="M63.9961,108.35h -6.80315" fill="none" stroke="black"/>
<path d="M70.7992,101.36h -13.6063" fill="none" stroke="black"/>
<path d="M63.9961,94.3697h -6.80315" fill="none" stroke="black"/>
<path d="M63.9961,87.3794h -6.80315" fill="none" stroke="black"/>
<path d="M63.9961,80.389h -6.80315" fill="none" stroke="black"/>
<path d="M63.9961,73.3987h -6.80315" fill="none" stroke="black"/>
<path d="M70.7992,66.4083h -13.6063" fill="none" stroke="black"/>
<path d="M70.7992,66.4083h -13.6063" fill="none" stroke="black"/>
<path d="M63.9961,59.418h -6.80315" fill="none" stroke="black"/>
<path d="M63.9961,52.4276h -6.80315" fill="none" stroke="black"/>
<path d="M63.9961,45.4373h -6.80315" fill="none" stroke="black"/>
<path d="M63.9961,38.4469h -6.80315" fill="none" stroke="black"/>
<text xml:space="preserve" x="47.7441" y="350.258" fill="black" font-size="12.8453" font-family="Helvetica">0</text>
<text xml:space="preserve" x="49.3732" y="315.232" fill="black" font-size="12.8453" font-family="Helvetica">1</text>
<text xml:space="preserve" x="47.7441" y="280.206" fill="black" font-size="12.8453" font-family="Helvetica">2</text>
<text xml:space="preserve" x="47.7441" y="245.995" fill="black" font-size="12.8453" font-family="Helvetica">3</text>
<text xml:space="preserve" x="47.7441" y="210.969" fill="black" font-size="12.8453" font-family="Helvetica">4</text>
<text xml:space="preserve" x="47.7441" y="175.944" fill="black" font-size="12.8453" font-family="Helvetica">5</text>
<text xml:space="preserve" x="47.7441" y="140.918" fill="black" font-size="12.8453" font-family="Helvetica">6</text>
<text xml:space="preserve" x="47.7441" y="105.892" fill="black" font-size="12.8453" font-family="Helvetica">7</text>
<text xml:space="preserve" x="47.7441" y="70.8661" fill="black" font-size="12.8453" font-family="Helvetica">8</text>
<g transform="rotate(-90,33.8967,101.819)">
<text xml:space="preserve" x="33.8967" y="101.819" fill="black" font-size="12.8453" font-family="Helvetica">height [mm]</text>
</g>
<text xml:space="preserve" x="261.157" y="18.7347" fill="black" font-size="16.9898" font-family="Helvetica">tracks</text>
<g fill="black">
<circle cx="138.831" cy="346.022" r="3.25821"/>
<circle cx="95.5857" cy="311.071" r="3.25821"/>
<circle cx="138.831" cy="346.022" r="3.25821"/>
<circle cx="138.831" cy="346.022" r="3.25821"/>
<circle cx="138.831" cy="346.022" r="3.25821"/>
<circle cx="215.978" cy="276.119" r="3.25821"/>
<circle cx="138.831" cy="346.022" r="3.25821"/>
<circle cx="138.831" cy="346.022" r="3.25821"/>
<circle cx="138.831" cy="346.022" r="3.25821"/>
<circle cx="94.9882" cy="241.167" r="3.25821"/>
<circle cx="138.831" cy="346.022" r="3.25821"/>
<circle cx="138.831" cy="346.022" r="3.25821"/>
<circle cx="138.831" cy="346.022" r="3.25821"/>
<circle cx="138.831" cy="346.022" r="3.25821"/>
<circle cx="224.725" cy="206.215" r="3.25821"/>
<circle cx="138.831" cy="346.022" r="3.25821"/>
<circle cx="138.831" cy="346.022" r="3.25821"/>
<circle cx="138.831" cy="346.022" r="3.25821"/>
<circle cx="228.688" cy="171.264" r="3.25821"/>
<circle cx="138.831" cy="346.022" r="3.25821"/>
<circle cx="138.831" cy="346.022" r="3.25821"/>
<circle cx="138.831" cy="346.022" r="3.25821"/>
<circle cx="412.02" cy="136.312" r="3.25821"/>
<circle cx="138.831" cy="346.022" r="3.25821"/>
<circle cx="138.831" cy="346.022" r="3.25821"/>
<circle cx="138.831" cy="346.022" r="3.25821"/>
<circle cx="365.302" cy="101.36" r="3.25821"/>
<circle cx="138.831" cy="346.022" r="3.25821"/>
<circle cx="138.831" cy="346.022" r="3.25821"/>
<circle cx="138.831" cy="346.022" r="3.25821"/>
<circle cx="472.941" cy="66.4083" r="3.25821"/>
</g>
<text xml:space="preserve" x="261.157" y="18.7347" fill="black" font-size="16.9898" font-family="Helvetica">tracks</text></svg>
