<?xml version="1.0" standalone="no"?>
<svg width="567.429" height="384.969" viewBox="0 0 567.429 384.969" xmlns="http://www.w3.org/2000/svg" shape-rendering="crispEdges">
<title>
img/week2/tracks/svg/10941.svg
</title>
<desc>
Creator: ROOT Version 6.22/09
CreationDate: Thu Jun 24 11:06:18 2021</desc>
<defs>
</defs>
<rect x="0.5" y="0" width="566.929" height="384.469" fill="white"/>
<rect x="57.1929" y="38.4469" width="453.543" height="307.575" fill="white"/>
<rect x="57.1929" y="38.4469" width="453.543" height="307.575" fill="none" stroke="black"/>
<path d="M57.1929,346.022h 453.543" fill="none" stroke="black"/>
<path d="M80.6527,336.795v 9.22726" fill="none" stroke="black"/>
<path d="M94.1639,341.409v 4.61363" fill="none" stroke="black"/>
<path d="M107.675,341.409v 4.61363" fill="none" stroke="black"/>
<path d="M121.186,341.409v 4.61363" fill="none" stroke="black"/>
<path d="M134.698,336.795v 9.22726" fill="none" stroke="black"/>
<path d="M148.209,341.409v 4.61363" fill="none" stroke="black"/>
<path d="M161.72,341.409v 4.61363" fill="none" stroke="black"/>
<path d="M175.231,341.409v 4.61363" fill="none" stroke="black"/>
<path d="M188.742,336.795v 9.22726" fill="none" stroke="black"/>
<path d="M202.254,341.409v 4.61363" fill="none" stroke="black"/>
<path d="M215.765,341.409v 4.61363" fill="none" stroke="black"/>
<path d="M229.276,341.409v 4.61363" fill="none" stroke="black"/>
<path d="M242.787,336.795v 9.22726" fill="none" stroke="black"/>
<path d="M256.299,341.409v 4.61363" fill="none" stroke="black"/>
<path d="M269.81,341.409v 4.61363" fill="none" stroke="black"/>
<path d="M283.321,341.409v 4.61363" fill="none" stroke="black"/>
<path d="M296.832,336.795v 9.22726" fill="none" stroke="black"/>
<path d="M310.343,341.409v 4.61363" fill="none" stroke="black"/>
<path d="M323.855,341.409v 4.61363" fill="none" stroke="black"/>
<path d="M337.366,341.409v 4.61363" fill="none" stroke="black"/>
<path d="M350.877,336.795v 9.22726" fill="none" stroke="black"/>
<path d="M364.388,341.409v 4.61363" fill="none" stroke="black"/>
<path d="M377.9,341.409v 4.61363" fill="none" stroke="black"/>
<path d="M391.411,341.409v 4.61363" fill="none" stroke="black"/>
<path d="M404.922,336.795v 9.22726" fill="none" stroke="black"/>
<path d="M418.433,341.409v 4.61363" fill="none" stroke="black"/>
<path d="M431.944,341.409v 4.61363" fill="none" stroke="black"/>
<path d="M445.456,341.409v 4.61363" fill="none" stroke="black"/>
<path d="M458.967,336.795v 9.22726" fill="none" stroke="black"/>
<path d="M80.6527,336.795v 9.22726" fill="none" stroke="black"/>
<path d="M67.1415,341.409v 4.61363" fill="none" stroke="black"/>
<path d="M458.967,336.795v 9.22726" fill="none" stroke="black"/>
<path d="M472.478,341.409v 4.61363" fill="none" stroke="black"/>
<path d="M485.989,341.409v 4.61363" fill="none" stroke="black"/>
<path d="M499.5,341.409v 4.61363" fill="none" stroke="black"/>
<text xml:space="preserve" x="72.9952" y="358.403" fill="black" font-size="12.8453" font-family="Helvetica">800</text>
<text xml:space="preserve" x="66.4788" y="358.403" fill="black" font-size="12.8453" font-family="Times">&#8722;</text>
<text xml:space="preserve" x="126.756" y="358.403" fill="black" font-size="12.8453" font-family="Helvetica">600</text>
<text xml:space="preserve" x="120.239" y="358.403" fill="black" font-size="12.8453" font-family="Times">&#8722;</text>
<text xml:space="preserve" x="181.331" y="358.403" fill="black" font-size="12.8453" font-family="Helvetica">400</text>
<text xml:space="preserve" x="174.814" y="358.403" fill="black" font-size="12.8453" font-family="Times">&#8722;</text>
<text xml:space="preserve" x="235.091" y="358.403" fill="black" font-size="12.8453" font-family="Helvetica">200</text>
<text xml:space="preserve" x="228.575" y="358.403" fill="black" font-size="12.8453" font-family="Times">&#8722;</text>
<text xml:space="preserve" x="292.925" y="358.403" fill="black" font-size="12.8453" font-family="Helvetica">0</text>
<text xml:space="preserve" x="340.169" y="358.403" fill="black" font-size="12.8453" font-family="Helvetica">200</text>
<text xml:space="preserve" x="393.929" y="358.403" fill="black" font-size="12.8453" font-family="Helvetica">400</text>
<text xml:space="preserve" x="447.69" y="358.403" fill="black" font-size="12.8453" font-family="Helvetica">600</text>
<text xml:space="preserve" x="454.206" y="370.622" fill="black" font-size="12.8453" font-family="Helvetica">yoko [mm]</text>
<path d="M57.1929,346.022v -307.575" fill="none" stroke="black"/>
<path d="M70.7992,346.022h -13.6063" fill="none" stroke="black"/>
<path d="M63.9961,339.032h -6.80315" fill="none" stroke="black"/>
<path d="M63.9961,332.042h -6.80315" fill="none" stroke="black"/>
<path d="M63.9961,325.051h -6.80315" fill="none" stroke="black"/>
<path d="M63.9961,318.061h -6.80315" fill="none" stroke="black"/>
<path d="M70.7992,311.071h -13.6063" fill="none" stroke="black"/>
<path d="M63.9961,304.08h -6.80315" fill="none" stroke="black"/>
<path d="M63.9961,297.09h -6.80315" fill="none" stroke="black"/>
<path d="M63.9961,290.099h -6.80315" fill="none" stroke="black"/>
<path d="M63.9961,283.109h -6.80315" fill="none" stroke="black"/>
<path d="M70.7992,276.119h -13.6063" fill="none" stroke="black"/>
<path d="M63.9961,269.128h -6.80315" fill="none" stroke="black"/>
<path d="M63.9961,262.138h -6.80315" fill="none" stroke="black"/>
<path d="M63.9961,255.148h -6.80315" fill="none" stroke="black"/>
<path d="M63.9961,248.157h -6.80315" fill="none" stroke="black"/>
<path d="M70.7992,241.167h -13.6063" fill="none" stroke="black"/>
<path d="M63.9961,234.177h -6.80315" fill="none" stroke="black"/>
<path d="M63.9961,227.186h -6.80315" fill="none" stroke="black"/>
<path d="M63.9961,220.196h -6.80315" fill="none" stroke="black"/>
<path d="M63.9961,213.206h -6.80315" fill="none" stroke="black"/>
<path d="M70.7992,206.215h -13.6063" fill="none" stroke="black"/>
<path d="M63.9961,199.225h -6.80315" fill="none" stroke="black"/>
<path d="M63.9961,192.235h -6.80315" fill="none" stroke="black"/>
<path d="M63.9961,185.244h -6.80315" fill="none" stroke="black"/>
<path d="M63.9961,178.254h -6.80315" fill="none" stroke="black"/>
<path d="M70.7992,171.264h -13.6063" fill="none" stroke="black"/>
<path d="M63.9961,164.273h -6.80315" fill="none" stroke="black"/>
<path d="M63.9961,157.283h -6.80315" fill="none" stroke="black"/>
<path d="M63.9961,150.292h -6.80315" fill="none" stroke="black"/>
<path d="M63.9961,143.302h -6.80315" fill="none" stroke="black"/>
<path d="M70.7992,136.312h -13.6063" fill="none" stroke="black"/>
<path d="M63.9961,129.321h -6.80315" fill="none" stroke="black"/>
<path d="M63.9961,122.331h -6.80315" fill="none" stroke="black"/>
<path d="M63.9961,115.341h -6.80315" fill="none" stroke="black"/>
<path d="M63.9961,108.35h -6.80315" fill="none" stroke="black"/>
<path d="M70.7992,101.36h -13.6063" fill="none" stroke="black"/>
<path d="M63.9961,94.3697h -6.80315" fill="none" stroke="black"/>
<path d="M63.9961,87.3794h -6.80315" fill="none" stroke="black"/>
<path d="M63.9961,80.389h -6.80315" fill="none" stroke="black"/>
<path d="M63.9961,73.3987h -6.80315" fill="none" stroke="black"/>
<path d="M70.7992,66.4083h -13.6063" fill="none" stroke="black"/>
<path d="M70.7992,66.4083h -13.6063" fill="none" stroke="black"/>
<path d="M63.9961,59.418h -6.80315" fill="none" stroke="black"/>
<path d="M63.9961,52.4276h -6.80315" fill="none" stroke="black"/>
<path d="M63.9961,45.4373h -6.80315" fill="none" stroke="black"/>
<path d="M63.9961,38.4469h -6.80315" fill="none" stroke="black"/>
<text xml:space="preserve" x="47.7441" y="350.258" fill="black" font-size="12.8453" font-family="Helvetica">0</text>
<text xml:space="preserve" x="49.3732" y="315.232" fill="black" font-size="12.8453" font-family="Helvetica">1</text>
<text xml:space="preserve" x="47.7441" y="280.206" fill="black" font-size="12.8453" font-family="Helvetica">2</text>
<text xml:space="preserve" x="47.7441" y="245.995" fill="black" font-size="12.8453" font-family="Helvetica">3</text>
<text xml:space="preserve" x="47.7441" y="210.969" fill="black" font-size="12.8453" font-family="Helvetica">4</text>
<text xml:space="preserve" x="47.7441" y="175.944" fill="black" font-size="12.8453" font-family="Helvetica">5</text>
<text xml:space="preserve" x="47.7441" y="140.918" fill="black" font-size="12.8453" font-family="Helvetica">6</text>
<text xml:space="preserve" x="47.7441" y="105.892" fill="black" font-size="12.8453" font-family="Helvetica">7</text>
<text xml:space="preserve" x="47.7441" y="70.8661" fill="black" font-size="12.8453" font-family="Helvetica">8</text>
<g transform="rotate(-90,33.8967,101.819)">
<text xml:space="preserve" x="33.8967" y="101.819" fill="black" font-size="12.8453" font-family="Helvetica">height [mm]</text>
</g>
<text xml:space="preserve" x="261.157" y="18.7347" fill="black" font-size="16.9898" font-family="Helvetica">tracks</text>
<g fill="black">
<circle cx="296.832" cy="346.022" r="3.25821"/>
<circle cx="296.832" cy="346.022" r="3.25821"/>
<circle cx="296.832" cy="346.022" r="3.25821"/>
<circle cx="296.832" cy="346.022" r="3.25821"/>
<circle cx="296.832" cy="346.022" r="3.25821"/>
<circle cx="296.832" cy="346.022" r="3.25821"/>
<circle cx="94.9882" cy="276.119" r="3.25821"/>
<circle cx="296.832" cy="346.022" r="3.25821"/>
<circle cx="296.832" cy="346.022" r="3.25821"/>
<circle cx="296.832" cy="346.022" r="3.25821"/>
<circle cx="296.832" cy="346.022" r="3.25821"/>
<circle cx="296.832" cy="346.022" r="3.25821"/>
<circle cx="296.832" cy="346.022" r="3.25821"/>
<circle cx="472.941" cy="206.215" r="3.25821"/>
<circle cx="296.832" cy="346.022" r="3.25821"/>
<circle cx="296.832" cy="346.022" r="3.25821"/>
<circle cx="296.832" cy="346.022" r="3.25821"/>
<circle cx="323.347" cy="171.264" r="3.25821"/>
<circle cx="296.832" cy="346.022" r="3.25821"/>
<circle cx="296.832" cy="346.022" r="3.25821"/>
<circle cx="296.832" cy="346.022" r="3.25821"/>
<circle cx="377.444" cy="136.312" r="3.25821"/>
<circle cx="296.832" cy="346.022" r="3.25821"/>
<circle cx="296.832" cy="346.022" r="3.25821"/>
<circle cx="404.067" cy="101.36" r="3.25821"/>
<circle cx="296.832" cy="346.022" r="3.25821"/>
<circle cx="296.832" cy="346.022" r="3.25821"/>
<circle cx="296.832" cy="346.022" r="3.25821"/>
<circle cx="395.42" cy="66.4083" r="3.25821"/>
</g>
<text xml:space="preserve" x="261.157" y="18.7347" fill="black" font-size="16.9898" font-family="Helvetica">tracks</text></svg>
