<?xml version="1.0" standalone="no"?>
<svg width="567.429" height="384.969" viewBox="0 0 567.429 384.969" xmlns="http://www.w3.org/2000/svg" shape-rendering="crispEdges">
<title>
img/week2/tracks/svg/11703.svg
</title>
<desc>
Creator: ROOT Version 6.22/09
CreationDate: Thu Jun 24 11:06:20 2021</desc>
<defs>
</defs>
<rect x="0.5" y="0" width="566.929" height="384.469" fill="white"/>
<rect x="57.1929" y="38.4469" width="453.543" height="307.575" fill="white"/>
<rect x="57.1929" y="38.4469" width="453.543" height="307.575" fill="none" stroke="black"/>
<path d="M57.1929,346.022h 453.543" fill="none" stroke="black"/>
<path d="M82.3473,336.795v 9.22726" fill="none" stroke="black"/>
<path d="M92.917,341.409v 4.61363" fill="none" stroke="black"/>
<path d="M103.487,341.409v 4.61363" fill="none" stroke="black"/>
<path d="M114.056,341.409v 4.61363" fill="none" stroke="black"/>
<path d="M124.626,341.409v 4.61363" fill="none" stroke="black"/>
<path d="M135.196,336.795v 9.22726" fill="none" stroke="black"/>
<path d="M145.766,341.409v 4.61363" fill="none" stroke="black"/>
<path d="M156.335,341.409v 4.61363" fill="none" stroke="black"/>
<path d="M166.905,341.409v 4.61363" fill="none" stroke="black"/>
<path d="M177.475,341.409v 4.61363" fill="none" stroke="black"/>
<path d="M188.044,336.795v 9.22726" fill="none" stroke="black"/>
<path d="M198.614,341.409v 4.61363" fill="none" stroke="black"/>
<path d="M209.184,341.409v 4.61363" fill="none" stroke="black"/>
<path d="M219.754,341.409v 4.61363" fill="none" stroke="black"/>
<path d="M230.323,341.409v 4.61363" fill="none" stroke="black"/>
<path d="M240.893,336.795v 9.22726" fill="none" stroke="black"/>
<path d="M251.463,341.409v 4.61363" fill="none" stroke="black"/>
<path d="M262.032,341.409v 4.61363" fill="none" stroke="black"/>
<path d="M272.602,341.409v 4.61363" fill="none" stroke="black"/>
<path d="M283.172,341.409v 4.61363" fill="none" stroke="black"/>
<path d="M293.742,336.795v 9.22726" fill="none" stroke="black"/>
<path d="M304.311,341.409v 4.61363" fill="none" stroke="black"/>
<path d="M314.881,341.409v 4.61363" fill="none" stroke="black"/>
<path d="M325.451,341.409v 4.61363" fill="none" stroke="black"/>
<path d="M336.02,341.409v 4.61363" fill="none" stroke="black"/>
<path d="M346.59,336.795v 9.22726" fill="none" stroke="black"/>
<path d="M357.16,341.409v 4.61363" fill="none" stroke="black"/>
<path d="M367.73,341.409v 4.61363" fill="none" stroke="black"/>
<path d="M378.299,341.409v 4.61363" fill="none" stroke="black"/>
<path d="M388.869,341.409v 4.61363" fill="none" stroke="black"/>
<path d="M399.439,336.795v 9.22726" fill="none" stroke="black"/>
<path d="M410.008,341.409v 4.61363" fill="none" stroke="black"/>
<path d="M420.578,341.409v 4.61363" fill="none" stroke="black"/>
<path d="M431.148,341.409v 4.61363" fill="none" stroke="black"/>
<path d="M441.718,341.409v 4.61363" fill="none" stroke="black"/>
<path d="M452.287,336.795v 9.22726" fill="none" stroke="black"/>
<path d="M462.857,341.409v 4.61363" fill="none" stroke="black"/>
<path d="M473.427,341.409v 4.61363" fill="none" stroke="black"/>
<path d="M483.996,341.409v 4.61363" fill="none" stroke="black"/>
<path d="M494.566,341.409v 4.61363" fill="none" stroke="black"/>
<path d="M505.136,336.795v 9.22726" fill="none" stroke="black"/>
<path d="M82.3473,336.795v 9.22726" fill="none" stroke="black"/>
<path d="M71.7776,341.409v 4.61363" fill="none" stroke="black"/>
<path d="M61.2079,341.409v 4.61363" fill="none" stroke="black"/>
<path d="M505.136,336.795v 9.22726" fill="none" stroke="black"/>
<text xml:space="preserve" x="74.6244" y="358.403" fill="black" font-size="12.8453" font-family="Helvetica">300</text>
<text xml:space="preserve" x="68.1079" y="358.403" fill="black" font-size="12.8453" font-family="Times">&#8722;</text>
<text xml:space="preserve" x="127.57" y="358.403" fill="black" font-size="12.8453" font-family="Helvetica">200</text>
<text xml:space="preserve" x="121.054" y="358.403" fill="black" font-size="12.8453" font-family="Times">&#8722;</text>
<text xml:space="preserve" x="180.516" y="358.403" fill="black" font-size="12.8453" font-family="Helvetica">100</text>
<text xml:space="preserve" x="174" y="358.403" fill="black" font-size="12.8453" font-family="Times">&#8722;</text>
<text xml:space="preserve" x="237.535" y="358.403" fill="black" font-size="12.8453" font-family="Helvetica">0</text>
<text xml:space="preserve" x="283.15" y="358.403" fill="black" font-size="12.8453" font-family="Helvetica">100</text>
<text xml:space="preserve" x="335.281" y="358.403" fill="black" font-size="12.8453" font-family="Helvetica">200</text>
<text xml:space="preserve" x="388.227" y="358.403" fill="black" font-size="12.8453" font-family="Helvetica">300</text>
<text xml:space="preserve" x="441.173" y="358.403" fill="black" font-size="12.8453" font-family="Helvetica">400</text>
<text xml:space="preserve" x="494.119" y="358.403" fill="black" font-size="12.8453" font-family="Helvetica">500</text>
<text xml:space="preserve" x="454.206" y="370.622" fill="black" font-size="12.8453" font-family="Helvetica">yoko [mm]</text>
<path d="M57.1929,346.022v -307.575" fill="none" stroke="black"/>
<path d="M70.7992,346.022h -13.6063" fill="none" stroke="black"/>
<path d="M63.9961,339.032h -6.80315" fill="none" stroke="black"/>
<path d="M63.9961,332.042h -6.80315" fill="none" stroke="black"/>
<path d="M63.9961,325.051h -6.80315" fill="none" stroke="black"/>
<path d="M63.9961,318.061h -6.80315" fill="none" stroke="black"/>
<path d="M70.7992,311.071h -13.6063" fill="none" stroke="black"/>
<path d="M63.9961,304.08h -6.80315" fill="none" stroke="black"/>
<path d="M63.9961,297.09h -6.80315" fill="none" stroke="black"/>
<path d="M63.9961,290.099h -6.80315" fill="none" stroke="black"/>
<path d="M63.9961,283.109h -6.80315" fill="none" stroke="black"/>
<path d="M70.7992,276.119h -13.6063" fill="none" stroke="black"/>
<path d="M63.9961,269.128h -6.80315" fill="none" stroke="black"/>
<path d="M63.9961,262.138h -6.80315" fill="none" stroke="black"/>
<path d="M63.9961,255.148h -6.80315" fill="none" stroke="black"/>
<path d="M63.9961,248.157h -6.80315" fill="none" stroke="black"/>
<path d="M70.7992,241.167h -13.6063" fill="none" stroke="black"/>
<path d="M63.9961,234.177h -6.80315" fill="none" stroke="black"/>
<path d="M63.9961,227.186h -6.80315" fill="none" stroke="black"/>
<path d="M63.9961,220.196h -6.80315" fill="none" stroke="black"/>
<path d="M63.9961,213.206h -6.80315" fill="none" stroke="black"/>
<path d="M70.7992,206.215h -13.6063" fill="none" stroke="black"/>
<path d="M63.9961,199.225h -6.80315" fill="none" stroke="black"/>
<path d="M63.9961,192.235h -6.80315" fill="none" stroke="black"/>
<path d="M63.9961,185.244h -6.80315" fill="none" stroke="black"/>
<path d="M63.9961,178.254h -6.80315" fill="none" stroke="black"/>
<path d="M70.7992,171.264h -13.6063" fill="none" stroke="black"/>
<path d="M63.9961,164.273h -6.80315" fill="none" stroke="black"/>
<path d="M63.9961,157.283h -6.80315" fill="none" stroke="black"/>
<path d="M63.9961,150.292h -6.80315" fill="none" stroke="black"/>
<path d="M63.9961,143.302h -6.80315" fill="none" stroke="black"/>
<path d="M70.7992,136.312h -13.6063" fill="none" stroke="black"/>
<path d="M63.9961,129.321h -6.80315" fill="none" stroke="black"/>
<path d="M63.9961,122.331h -6.80315" fill="none" stroke="black"/>
<path d="M63.9961,115.341h -6.80315" fill="none" stroke="black"/>
<path d="M63.9961,108.35h -6.80315" fill="none" stroke="black"/>
<path d="M70.7992,101.36h -13.6063" fill="none" stroke="black"/>
<path d="M63.9961,94.3697h -6.80315" fill="none" stroke="black"/>
<path d="M63.9961,87.3794h -6.80315" fill="none" stroke="black"/>
<path d="M63.9961,80.389h -6.80315" fill="none" stroke="black"/>
<path d="M63.9961,73.3987h -6.80315" fill="none" stroke="black"/>
<path d="M70.7992,66.4083h -13.6063" fill="none" stroke="black"/>
<path d="M70.7992,66.4083h -13.6063" fill="none" stroke="black"/>
<path d="M63.9961,59.418h -6.80315" fill="none" stroke="black"/>
<path d="M63.9961,52.4276h -6.80315" fill="none" stroke="black"/>
<path d="M63.9961,45.4373h -6.80315" fill="none" stroke="black"/>
<path d="M63.9961,38.4469h -6.80315" fill="none" stroke="black"/>
<text xml:space="preserve" x="47.7441" y="350.258" fill="black" font-size="12.8453" font-family="Helvetica">0</text>
<text xml:space="preserve" x="49.3732" y="315.232" fill="black" font-size="12.8453" font-family="Helvetica">1</text>
<text xml:space="preserve" x="47.7441" y="280.206" fill="black" font-size="12.8453" font-family="Helvetica">2</text>
<text xml:space="preserve" x="47.7441" y="245.995" fill="black" font-size="12.8453" font-family="Helvetica">3</text>
<text xml:space="preserve" x="47.7441" y="210.969" fill="black" font-size="12.8453" font-family="Helvetica">4</text>
<text xml:space="preserve" x="47.7441" y="175.944" fill="black" font-size="12.8453" font-family="Helvetica">5</text>
<text xml:space="preserve" x="47.7441" y="140.918" fill="black" font-size="12.8453" font-family="Helvetica">6</text>
<text xml:space="preserve" x="47.7441" y="105.892" fill="black" font-size="12.8453" font-family="Helvetica">7</text>
<text xml:space="preserve" x="47.7441" y="70.8661" fill="black" font-size="12.8453" font-family="Helvetica">8</text>
<g transform="rotate(-90,33.8967,101.819)">
<text xml:space="preserve" x="33.8967" y="101.819" fill="black" font-size="12.8453" font-family="Helvetica">height [mm]</text>
</g>
<text xml:space="preserve" x="261.157" y="18.7347" fill="black" font-size="16.9898" font-family="Helvetica">tracks</text>
<g fill="black">
<circle cx="240.893" cy="346.022" r="3.25821"/>
<circle cx="240.893" cy="346.022" r="3.25821"/>
<circle cx="240.893" cy="346.022" r="3.25821"/>
<circle cx="269.803" cy="311.071" r="3.25821"/>
<circle cx="240.893" cy="346.022" r="3.25821"/>
<circle cx="240.893" cy="346.022" r="3.25821"/>
<circle cx="187.798" cy="276.119" r="3.25821"/>
<circle cx="240.893" cy="346.022" r="3.25821"/>
<circle cx="240.893" cy="346.022" r="3.25821"/>
<circle cx="240.893" cy="346.022" r="3.25821"/>
<circle cx="116.757" cy="241.167" r="3.25821"/>
<circle cx="240.893" cy="346.022" r="3.25821"/>
<circle cx="240.893" cy="346.022" r="3.25821"/>
<circle cx="240.893" cy="346.022" r="3.25821"/>
<circle cx="248.34" cy="206.215" r="3.25821"/>
<circle cx="240.893" cy="346.022" r="3.25821"/>
<circle cx="240.893" cy="346.022" r="3.25821"/>
<circle cx="240.893" cy="346.022" r="3.25821"/>
<circle cx="373.53" cy="171.264" r="3.25821"/>
<circle cx="240.893" cy="346.022" r="3.25821"/>
<circle cx="240.893" cy="346.022" r="3.25821"/>
<circle cx="316.941" cy="136.312" r="3.25821"/>
<circle cx="240.893" cy="346.022" r="3.25821"/>
<circle cx="240.893" cy="346.022" r="3.25821"/>
<circle cx="240.893" cy="346.022" r="3.25821"/>
<circle cx="94.9882" cy="101.36" r="3.25821"/>
<circle cx="240.893" cy="346.022" r="3.25821"/>
<circle cx="240.893" cy="346.022" r="3.25821"/>
<circle cx="240.893" cy="346.022" r="3.25821"/>
<circle cx="472.941" cy="66.4083" r="3.25821"/>
</g>
<text xml:space="preserve" x="261.157" y="18.7347" fill="black" font-size="16.9898" font-family="Helvetica">tracks</text></svg>
