<?xml version="1.0" standalone="no"?>
<svg width="567.429" height="384.969" viewBox="0 0 567.429 384.969" xmlns="http://www.w3.org/2000/svg" shape-rendering="crispEdges">
<title>
img/week2/tracks/svg/12416.svg
</title>
<desc>
Creator: ROOT Version 6.22/09
CreationDate: Thu Jun 24 11:06:21 2021</desc>
<defs>
</defs>
<rect x="0.5" y="0" width="566.929" height="384.469" fill="white"/>
<rect x="57.1929" y="38.4469" width="453.543" height="307.575" fill="white"/>
<rect x="57.1929" y="38.4469" width="453.543" height="307.575" fill="none" stroke="black"/>
<path d="M57.1929,346.022h 453.543" fill="none" stroke="black"/>
<path d="M77.9212,336.795v 9.22726" fill="none" stroke="black"/>
<path d="M87.8474,341.409v 4.61363" fill="none" stroke="black"/>
<path d="M97.7736,341.409v 4.61363" fill="none" stroke="black"/>
<path d="M107.7,341.409v 4.61363" fill="none" stroke="black"/>
<path d="M117.626,341.409v 4.61363" fill="none" stroke="black"/>
<path d="M127.552,336.795v 9.22726" fill="none" stroke="black"/>
<path d="M137.479,341.409v 4.61363" fill="none" stroke="black"/>
<path d="M147.405,341.409v 4.61363" fill="none" stroke="black"/>
<path d="M157.331,341.409v 4.61363" fill="none" stroke="black"/>
<path d="M167.257,341.409v 4.61363" fill="none" stroke="black"/>
<path d="M177.183,336.795v 9.22726" fill="none" stroke="black"/>
<path d="M187.11,341.409v 4.61363" fill="none" stroke="black"/>
<path d="M197.036,341.409v 4.61363" fill="none" stroke="black"/>
<path d="M206.962,341.409v 4.61363" fill="none" stroke="black"/>
<path d="M216.888,341.409v 4.61363" fill="none" stroke="black"/>
<path d="M226.814,336.795v 9.22726" fill="none" stroke="black"/>
<path d="M236.741,341.409v 4.61363" fill="none" stroke="black"/>
<path d="M246.667,341.409v 4.61363" fill="none" stroke="black"/>
<path d="M256.593,341.409v 4.61363" fill="none" stroke="black"/>
<path d="M266.519,341.409v 4.61363" fill="none" stroke="black"/>
<path d="M276.446,336.795v 9.22726" fill="none" stroke="black"/>
<path d="M286.372,341.409v 4.61363" fill="none" stroke="black"/>
<path d="M296.298,341.409v 4.61363" fill="none" stroke="black"/>
<path d="M306.224,341.409v 4.61363" fill="none" stroke="black"/>
<path d="M316.15,341.409v 4.61363" fill="none" stroke="black"/>
<path d="M326.077,336.795v 9.22726" fill="none" stroke="black"/>
<path d="M336.003,341.409v 4.61363" fill="none" stroke="black"/>
<path d="M345.929,341.409v 4.61363" fill="none" stroke="black"/>
<path d="M355.855,341.409v 4.61363" fill="none" stroke="black"/>
<path d="M365.782,341.409v 4.61363" fill="none" stroke="black"/>
<path d="M375.708,336.795v 9.22726" fill="none" stroke="black"/>
<path d="M385.634,341.409v 4.61363" fill="none" stroke="black"/>
<path d="M395.56,341.409v 4.61363" fill="none" stroke="black"/>
<path d="M405.486,341.409v 4.61363" fill="none" stroke="black"/>
<path d="M415.413,341.409v 4.61363" fill="none" stroke="black"/>
<path d="M425.339,336.795v 9.22726" fill="none" stroke="black"/>
<path d="M435.265,341.409v 4.61363" fill="none" stroke="black"/>
<path d="M445.191,341.409v 4.61363" fill="none" stroke="black"/>
<path d="M455.118,341.409v 4.61363" fill="none" stroke="black"/>
<path d="M465.044,341.409v 4.61363" fill="none" stroke="black"/>
<path d="M474.97,336.795v 9.22726" fill="none" stroke="black"/>
<path d="M77.9212,336.795v 9.22726" fill="none" stroke="black"/>
<path d="M67.995,341.409v 4.61363" fill="none" stroke="black"/>
<path d="M58.0688,341.409v 4.61363" fill="none" stroke="black"/>
<path d="M474.97,336.795v 9.22726" fill="none" stroke="black"/>
<path d="M484.896,341.409v 4.61363" fill="none" stroke="black"/>
<path d="M494.822,341.409v 4.61363" fill="none" stroke="black"/>
<path d="M504.749,341.409v 4.61363" fill="none" stroke="black"/>
<text xml:space="preserve" x="70.5516" y="358.403" fill="black" font-size="12.8453" font-family="Helvetica">100</text>
<text xml:space="preserve" x="64.0352" y="358.403" fill="black" font-size="12.8453" font-family="Times">&#8722;</text>
<text xml:space="preserve" x="123.498" y="358.403" fill="black" font-size="12.8453" font-family="Helvetica">0</text>
<text xml:space="preserve" x="165.854" y="358.403" fill="black" font-size="12.8453" font-family="Helvetica">100</text>
<text xml:space="preserve" x="215.542" y="358.403" fill="black" font-size="12.8453" font-family="Helvetica">200</text>
<text xml:space="preserve" x="265.23" y="358.403" fill="black" font-size="12.8453" font-family="Helvetica">300</text>
<text xml:space="preserve" x="314.918" y="358.403" fill="black" font-size="12.8453" font-family="Helvetica">400</text>
<text xml:space="preserve" x="364.605" y="358.403" fill="black" font-size="12.8453" font-family="Helvetica">500</text>
<text xml:space="preserve" x="414.293" y="358.403" fill="black" font-size="12.8453" font-family="Helvetica">600</text>
<text xml:space="preserve" x="463.981" y="358.403" fill="black" font-size="12.8453" font-family="Helvetica">700</text>
<text xml:space="preserve" x="454.206" y="370.622" fill="black" font-size="12.8453" font-family="Helvetica">yoko [mm]</text>
<path d="M57.1929,346.022v -307.575" fill="none" stroke="black"/>
<path d="M70.7992,346.022h -13.6063" fill="none" stroke="black"/>
<path d="M63.9961,339.032h -6.80315" fill="none" stroke="black"/>
<path d="M63.9961,332.042h -6.80315" fill="none" stroke="black"/>
<path d="M63.9961,325.051h -6.80315" fill="none" stroke="black"/>
<path d="M63.9961,318.061h -6.80315" fill="none" stroke="black"/>
<path d="M70.7992,311.071h -13.6063" fill="none" stroke="black"/>
<path d="M63.9961,304.08h -6.80315" fill="none" stroke="black"/>
<path d="M63.9961,297.09h -6.80315" fill="none" stroke="black"/>
<path d="M63.9961,290.099h -6.80315" fill="none" stroke="black"/>
<path d="M63.9961,283.109h -6.80315" fill="none" stroke="black"/>
<path d="M70.7992,276.119h -13.6063" fill="none" stroke="black"/>
<path d="M63.9961,269.128h -6.80315" fill="none" stroke="black"/>
<path d="M63.9961,262.138h -6.80315" fill="none" stroke="black"/>
<path d="M63.9961,255.148h -6.80315" fill="none" stroke="black"/>
<path d="M63.9961,248.157h -6.80315" fill="none" stroke="black"/>
<path d="M70.7992,241.167h -13.6063" fill="none" stroke="black"/>
<path d="M63.9961,234.177h -6.80315" fill="none" stroke="black"/>
<path d="M63.9961,227.186h -6.80315" fill="none" stroke="black"/>
<path d="M63.9961,220.196h -6.80315" fill="none" stroke="black"/>
<path d="M63.9961,213.206h -6.80315" fill="none" stroke="black"/>
<path d="M70.7992,206.215h -13.6063" fill="none" stroke="black"/>
<path d="M63.9961,199.225h -6.80315" fill="none" stroke="black"/>
<path d="M63.9961,192.235h -6.80315" fill="none" stroke="black"/>
<path d="M63.9961,185.244h -6.80315" fill="none" stroke="black"/>
<path d="M63.9961,178.254h -6.80315" fill="none" stroke="black"/>
<path d="M70.7992,171.264h -13.6063" fill="none" stroke="black"/>
<path d="M63.9961,164.273h -6.80315" fill="none" stroke="black"/>
<path d="M63.9961,157.283h -6.80315" fill="none" stroke="black"/>
<path d="M63.9961,150.292h -6.80315" fill="none" stroke="black"/>
<path d="M63.9961,143.302h -6.80315" fill="none" stroke="black"/>
<path d="M70.7992,136.312h -13.6063" fill="none" stroke="black"/>
<path d="M63.9961,129.321h -6.80315" fill="none" stroke="black"/>
<path d="M63.9961,122.331h -6.80315" fill="none" stroke="black"/>
<path d="M63.9961,115.341h -6.80315" fill="none" stroke="black"/>
<path d="M63.9961,108.35h -6.80315" fill="none" stroke="black"/>
<path d="M70.7992,101.36h -13.6063" fill="none" stroke="black"/>
<path d="M63.9961,94.3697h -6.80315" fill="none" stroke="black"/>
<path d="M63.9961,87.3794h -6.80315" fill="none" stroke="black"/>
<path d="M63.9961,80.389h -6.80315" fill="none" stroke="black"/>
<path d="M63.9961,73.3987h -6.80315" fill="none" stroke="black"/>
<path d="M70.7992,66.4083h -13.6063" fill="none" stroke="black"/>
<path d="M70.7992,66.4083h -13.6063" fill="none" stroke="black"/>
<path d="M63.9961,59.418h -6.80315" fill="none" stroke="black"/>
<path d="M63.9961,52.4276h -6.80315" fill="none" stroke="black"/>
<path d="M63.9961,45.4373h -6.80315" fill="none" stroke="black"/>
<path d="M63.9961,38.4469h -6.80315" fill="none" stroke="black"/>
<text xml:space="preserve" x="47.7441" y="350.258" fill="black" font-size="12.8453" font-family="Helvetica">0</text>
<text xml:space="preserve" x="49.3732" y="315.232" fill="black" font-size="12.8453" font-family="Helvetica">1</text>
<text xml:space="preserve" x="47.7441" y="280.206" fill="black" font-size="12.8453" font-family="Helvetica">2</text>
<text xml:space="preserve" x="47.7441" y="245.995" fill="black" font-size="12.8453" font-family="Helvetica">3</text>
<text xml:space="preserve" x="47.7441" y="210.969" fill="black" font-size="12.8453" font-family="Helvetica">4</text>
<text xml:space="preserve" x="47.7441" y="175.944" fill="black" font-size="12.8453" font-family="Helvetica">5</text>
<text xml:space="preserve" x="47.7441" y="140.918" fill="black" font-size="12.8453" font-family="Helvetica">6</text>
<text xml:space="preserve" x="47.7441" y="105.892" fill="black" font-size="12.8453" font-family="Helvetica">7</text>
<text xml:space="preserve" x="47.7441" y="70.8661" fill="black" font-size="12.8453" font-family="Helvetica">8</text>
<g transform="rotate(-90,33.8967,101.819)">
<text xml:space="preserve" x="33.8967" y="101.819" fill="black" font-size="12.8453" font-family="Helvetica">height [mm]</text>
</g>
<text xml:space="preserve" x="261.157" y="18.7347" fill="black" font-size="16.9898" font-family="Helvetica">tracks</text>
<g fill="black">
<circle cx="127.552" cy="346.022" r="3.25821"/>
<circle cx="458.223" cy="311.071" r="3.25821"/>
<circle cx="127.552" cy="346.022" r="3.25821"/>
<circle cx="127.552" cy="346.022" r="3.25821"/>
<circle cx="127.552" cy="346.022" r="3.25821"/>
<circle cx="127.552" cy="346.022" r="3.25821"/>
<circle cx="127.552" cy="346.022" r="3.25821"/>
<circle cx="127.552" cy="346.022" r="3.25821"/>
<circle cx="127.552" cy="346.022" r="3.25821"/>
<circle cx="127.552" cy="346.022" r="3.25821"/>
<circle cx="335.835" cy="241.167" r="3.25821"/>
<circle cx="127.552" cy="346.022" r="3.25821"/>
<circle cx="127.552" cy="346.022" r="3.25821"/>
<circle cx="127.552" cy="346.022" r="3.25821"/>
<circle cx="94.9882" cy="206.215" r="3.25821"/>
<circle cx="127.552" cy="346.022" r="3.25821"/>
<circle cx="127.552" cy="346.022" r="3.25821"/>
<circle cx="127.552" cy="346.022" r="3.25821"/>
<circle cx="290.046" cy="171.264" r="3.25821"/>
<circle cx="127.552" cy="346.022" r="3.25821"/>
<circle cx="127.552" cy="346.022" r="3.25821"/>
<circle cx="127.552" cy="346.022" r="3.25821"/>
<circle cx="390.567" cy="136.312" r="3.25821"/>
<circle cx="127.552" cy="346.022" r="3.25821"/>
<circle cx="127.552" cy="346.022" r="3.25821"/>
<circle cx="127.552" cy="346.022" r="3.25821"/>
<circle cx="472.941" cy="101.36" r="3.25821"/>
<circle cx="127.552" cy="346.022" r="3.25821"/>
<circle cx="127.552" cy="346.022" r="3.25821"/>
<circle cx="127.552" cy="346.022" r="3.25821"/>
<circle cx="308.626" cy="66.4083" r="3.25821"/>
</g>
<text xml:space="preserve" x="261.157" y="18.7347" fill="black" font-size="16.9898" font-family="Helvetica">tracks</text></svg>
