<?xml version="1.0" standalone="no"?>
<svg width="567.429" height="384.969" viewBox="0 0 567.429 384.969" xmlns="http://www.w3.org/2000/svg" shape-rendering="crispEdges">
<title>
img/week2/tracks/svg/136.svg
</title>
<desc>
Creator: ROOT Version 6.22/09
CreationDate: Thu Jun 24 11:05:58 2021</desc>
<defs>
</defs>
<rect x="0.5" y="0" width="566.929" height="384.469" fill="white"/>
<rect x="57.1929" y="38.4469" width="453.543" height="307.575" fill="white"/>
<rect x="57.1929" y="38.4469" width="453.543" height="307.575" fill="none" stroke="black"/>
<path d="M57.1929,346.022h 453.543" fill="none" stroke="black"/>
<path d="M86.9922,336.795v 9.22726" fill="none" stroke="black"/>
<path d="M96.9959,341.409v 4.61363" fill="none" stroke="black"/>
<path d="M107,341.409v 4.61363" fill="none" stroke="black"/>
<path d="M117.004,341.409v 4.61363" fill="none" stroke="black"/>
<path d="M127.007,341.409v 4.61363" fill="none" stroke="black"/>
<path d="M137.011,336.795v 9.22726" fill="none" stroke="black"/>
<path d="M147.015,341.409v 4.61363" fill="none" stroke="black"/>
<path d="M157.019,341.409v 4.61363" fill="none" stroke="black"/>
<path d="M167.022,341.409v 4.61363" fill="none" stroke="black"/>
<path d="M177.026,341.409v 4.61363" fill="none" stroke="black"/>
<path d="M187.03,336.795v 9.22726" fill="none" stroke="black"/>
<path d="M197.034,341.409v 4.61363" fill="none" stroke="black"/>
<path d="M207.038,341.409v 4.61363" fill="none" stroke="black"/>
<path d="M217.041,341.409v 4.61363" fill="none" stroke="black"/>
<path d="M227.045,341.409v 4.61363" fill="none" stroke="black"/>
<path d="M237.049,336.795v 9.22726" fill="none" stroke="black"/>
<path d="M247.053,341.409v 4.61363" fill="none" stroke="black"/>
<path d="M257.056,341.409v 4.61363" fill="none" stroke="black"/>
<path d="M267.06,341.409v 4.61363" fill="none" stroke="black"/>
<path d="M277.064,341.409v 4.61363" fill="none" stroke="black"/>
<path d="M287.068,336.795v 9.22726" fill="none" stroke="black"/>
<path d="M297.072,341.409v 4.61363" fill="none" stroke="black"/>
<path d="M307.075,341.409v 4.61363" fill="none" stroke="black"/>
<path d="M317.079,341.409v 4.61363" fill="none" stroke="black"/>
<path d="M327.083,341.409v 4.61363" fill="none" stroke="black"/>
<path d="M337.087,336.795v 9.22726" fill="none" stroke="black"/>
<path d="M347.09,341.409v 4.61363" fill="none" stroke="black"/>
<path d="M357.094,341.409v 4.61363" fill="none" stroke="black"/>
<path d="M367.098,341.409v 4.61363" fill="none" stroke="black"/>
<path d="M377.102,341.409v 4.61363" fill="none" stroke="black"/>
<path d="M387.106,336.795v 9.22726" fill="none" stroke="black"/>
<path d="M397.109,341.409v 4.61363" fill="none" stroke="black"/>
<path d="M407.113,341.409v 4.61363" fill="none" stroke="black"/>
<path d="M417.117,341.409v 4.61363" fill="none" stroke="black"/>
<path d="M427.121,341.409v 4.61363" fill="none" stroke="black"/>
<path d="M437.125,336.795v 9.22726" fill="none" stroke="black"/>
<path d="M447.128,341.409v 4.61363" fill="none" stroke="black"/>
<path d="M457.132,341.409v 4.61363" fill="none" stroke="black"/>
<path d="M467.136,341.409v 4.61363" fill="none" stroke="black"/>
<path d="M477.14,341.409v 4.61363" fill="none" stroke="black"/>
<path d="M487.143,336.795v 9.22726" fill="none" stroke="black"/>
<path d="M86.9922,336.795v 9.22726" fill="none" stroke="black"/>
<path d="M76.9884,341.409v 4.61363" fill="none" stroke="black"/>
<path d="M66.9846,341.409v 4.61363" fill="none" stroke="black"/>
<path d="M487.143,336.795v 9.22726" fill="none" stroke="black"/>
<path d="M497.147,341.409v 4.61363" fill="none" stroke="black"/>
<path d="M507.151,341.409v 4.61363" fill="none" stroke="black"/>
<text xml:space="preserve" x="79.5117" y="358.403" fill="black" font-size="12.8453" font-family="Helvetica">300</text>
<text xml:space="preserve" x="72.9952" y="358.403" fill="black" font-size="12.8453" font-family="Times">&#8722;</text>
<text xml:space="preserve" x="129.199" y="358.403" fill="black" font-size="12.8453" font-family="Helvetica">200</text>
<text xml:space="preserve" x="122.683" y="358.403" fill="black" font-size="12.8453" font-family="Times">&#8722;</text>
<text xml:space="preserve" x="178.887" y="358.403" fill="black" font-size="12.8453" font-family="Helvetica">100</text>
<text xml:space="preserve" x="172.371" y="358.403" fill="black" font-size="12.8453" font-family="Times">&#8722;</text>
<text xml:space="preserve" x="233.462" y="358.403" fill="black" font-size="12.8453" font-family="Helvetica">0</text>
<text xml:space="preserve" x="275.819" y="358.403" fill="black" font-size="12.8453" font-family="Helvetica">100</text>
<text xml:space="preserve" x="326.321" y="358.403" fill="black" font-size="12.8453" font-family="Helvetica">200</text>
<text xml:space="preserve" x="376.009" y="358.403" fill="black" font-size="12.8453" font-family="Helvetica">300</text>
<text xml:space="preserve" x="426.511" y="358.403" fill="black" font-size="12.8453" font-family="Helvetica">400</text>
<text xml:space="preserve" x="476.199" y="358.403" fill="black" font-size="12.8453" font-family="Helvetica">500</text>
<text xml:space="preserve" x="454.206" y="370.622" fill="black" font-size="12.8453" font-family="Helvetica">yoko [mm]</text>
<path d="M57.1929,346.022v -307.575" fill="none" stroke="black"/>
<path d="M70.7992,346.022h -13.6063" fill="none" stroke="black"/>
<path d="M63.9961,339.032h -6.80315" fill="none" stroke="black"/>
<path d="M63.9961,332.042h -6.80315" fill="none" stroke="black"/>
<path d="M63.9961,325.051h -6.80315" fill="none" stroke="black"/>
<path d="M63.9961,318.061h -6.80315" fill="none" stroke="black"/>
<path d="M70.7992,311.071h -13.6063" fill="none" stroke="black"/>
<path d="M63.9961,304.08h -6.80315" fill="none" stroke="black"/>
<path d="M63.9961,297.09h -6.80315" fill="none" stroke="black"/>
<path d="M63.9961,290.099h -6.80315" fill="none" stroke="black"/>
<path d="M63.9961,283.109h -6.80315" fill="none" stroke="black"/>
<path d="M70.7992,276.119h -13.6063" fill="none" stroke="black"/>
<path d="M63.9961,269.128h -6.80315" fill="none" stroke="black"/>
<path d="M63.9961,262.138h -6.80315" fill="none" stroke="black"/>
<path d="M63.9961,255.148h -6.80315" fill="none" stroke="black"/>
<path d="M63.9961,248.157h -6.80315" fill="none" stroke="black"/>
<path d="M70.7992,241.167h -13.6063" fill="none" stroke="black"/>
<path d="M63.9961,234.177h -6.80315" fill="none" stroke="black"/>
<path d="M63.9961,227.186h -6.80315" fill="none" stroke="black"/>
<path d="M63.9961,220.196h -6.80315" fill="none" stroke="black"/>
<path d="M63.9961,213.206h -6.80315" fill="none" stroke="black"/>
<path d="M70.7992,206.215h -13.6063" fill="none" stroke="black"/>
<path d="M63.9961,199.225h -6.80315" fill="none" stroke="black"/>
<path d="M63.9961,192.235h -6.80315" fill="none" stroke="black"/>
<path d="M63.9961,185.244h -6.80315" fill="none" stroke="black"/>
<path d="M63.9961,178.254h -6.80315" fill="none" stroke="black"/>
<path d="M70.7992,171.264h -13.6063" fill="none" stroke="black"/>
<path d="M63.9961,164.273h -6.80315" fill="none" stroke="black"/>
<path d="M63.9961,157.283h -6.80315" fill="none" stroke="black"/>
<path d="M63.9961,150.292h -6.80315" fill="none" stroke="black"/>
<path d="M63.9961,143.302h -6.80315" fill="none" stroke="black"/>
<path d="M70.7992,136.312h -13.6063" fill="none" stroke="black"/>
<path d="M63.9961,129.321h -6.80315" fill="none" stroke="black"/>
<path d="M63.9961,122.331h -6.80315" fill="none" stroke="black"/>
<path d="M63.9961,115.341h -6.80315" fill="none" stroke="black"/>
<path d="M63.9961,108.35h -6.80315" fill="none" stroke="black"/>
<path d="M70.7992,101.36h -13.6063" fill="none" stroke="black"/>
<path d="M63.9961,94.3697h -6.80315" fill="none" stroke="black"/>
<path d="M63.9961,87.3794h -6.80315" fill="none" stroke="black"/>
<path d="M63.9961,80.389h -6.80315" fill="none" stroke="black"/>
<path d="M63.9961,73.3987h -6.80315" fill="none" stroke="black"/>
<path d="M70.7992,66.4083h -13.6063" fill="none" stroke="black"/>
<path d="M70.7992,66.4083h -13.6063" fill="none" stroke="black"/>
<path d="M63.9961,59.418h -6.80315" fill="none" stroke="black"/>
<path d="M63.9961,52.4276h -6.80315" fill="none" stroke="black"/>
<path d="M63.9961,45.4373h -6.80315" fill="none" stroke="black"/>
<path d="M63.9961,38.4469h -6.80315" fill="none" stroke="black"/>
<text xml:space="preserve" x="47.7441" y="350.258" fill="black" font-size="12.8453" font-family="Helvetica">0</text>
<text xml:space="preserve" x="49.3732" y="315.232" fill="black" font-size="12.8453" font-family="Helvetica">1</text>
<text xml:space="preserve" x="47.7441" y="280.206" fill="black" font-size="12.8453" font-family="Helvetica">2</text>
<text xml:space="preserve" x="47.7441" y="245.995" fill="black" font-size="12.8453" font-family="Helvetica">3</text>
<text xml:space="preserve" x="47.7441" y="210.969" fill="black" font-size="12.8453" font-family="Helvetica">4</text>
<text xml:space="preserve" x="47.7441" y="175.944" fill="black" font-size="12.8453" font-family="Helvetica">5</text>
<text xml:space="preserve" x="47.7441" y="140.918" fill="black" font-size="12.8453" font-family="Helvetica">6</text>
<text xml:space="preserve" x="47.7441" y="105.892" fill="black" font-size="12.8453" font-family="Helvetica">7</text>
<text xml:space="preserve" x="47.7441" y="70.8661" fill="black" font-size="12.8453" font-family="Helvetica">8</text>
<g transform="rotate(-90,33.8967,101.819)">
<text xml:space="preserve" x="33.8967" y="101.819" fill="black" font-size="12.8453" font-family="Helvetica">height [mm]</text>
</g>
<text xml:space="preserve" x="261.157" y="18.7347" fill="black" font-size="16.9898" font-family="Helvetica">tracks</text>
<g fill="black">
<circle cx="237.049" cy="346.022" r="3.25821"/>
<circle cx="237.049" cy="346.022" r="3.25821"/>
<circle cx="162.446" cy="311.071" r="3.25821"/>
<circle cx="237.049" cy="346.022" r="3.25821"/>
<circle cx="237.049" cy="346.022" r="3.25821"/>
<circle cx="279.186" cy="276.119" r="3.25821"/>
<circle cx="237.049" cy="346.022" r="3.25821"/>
<circle cx="237.049" cy="346.022" r="3.25821"/>
<circle cx="237.049" cy="346.022" r="3.25821"/>
<circle cx="446.959" cy="241.167" r="3.25821"/>
<circle cx="237.049" cy="346.022" r="3.25821"/>
<circle cx="237.049" cy="346.022" r="3.25821"/>
<circle cx="237.049" cy="346.022" r="3.25821"/>
<circle cx="443.429" cy="206.215" r="3.25821"/>
<circle cx="237.049" cy="346.022" r="3.25821"/>
<circle cx="237.049" cy="346.022" r="3.25821"/>
<circle cx="237.049" cy="346.022" r="3.25821"/>
<circle cx="94.9882" cy="171.264" r="3.25821"/>
<circle cx="237.049" cy="346.022" r="3.25821"/>
<circle cx="237.049" cy="346.022" r="3.25821"/>
<circle cx="237.049" cy="346.022" r="3.25821"/>
<circle cx="386.262" cy="136.312" r="3.25821"/>
<circle cx="237.049" cy="346.022" r="3.25821"/>
<circle cx="237.049" cy="346.022" r="3.25821"/>
<circle cx="472.941" cy="101.36" r="3.25821"/>
<circle cx="237.049" cy="346.022" r="3.25821"/>
<circle cx="237.049" cy="346.022" r="3.25821"/>
<circle cx="237.049" cy="346.022" r="3.25821"/>
<circle cx="382.402" cy="66.4083" r="3.25821"/>
</g>
<text xml:space="preserve" x="261.157" y="18.7347" fill="black" font-size="16.9898" font-family="Helvetica">tracks</text></svg>
