<?xml version="1.0" standalone="no"?>
<svg width="567.429" height="384.969" viewBox="0 0 567.429 384.969" xmlns="http://www.w3.org/2000/svg" shape-rendering="crispEdges">
<title>
img/week2/tracks/svg/14511.svg
</title>
<desc>
Creator: ROOT Version 6.22/09
CreationDate: Thu Jun 24 11:06:26 2021</desc>
<defs>
</defs>
<rect x="0.5" y="0" width="566.929" height="384.469" fill="white"/>
<rect x="57.1929" y="38.4469" width="453.543" height="307.575" fill="white"/>
<rect x="57.1929" y="38.4469" width="453.543" height="307.575" fill="none" stroke="black"/>
<path d="M57.1929,346.022h 453.543" fill="none" stroke="black"/>
<path d="M57.1929,336.795v 9.22726" fill="none" stroke="black"/>
<path d="M68.9702,341.409v 4.61363" fill="none" stroke="black"/>
<path d="M80.7474,341.409v 4.61363" fill="none" stroke="black"/>
<path d="M92.5247,341.409v 4.61363" fill="none" stroke="black"/>
<path d="M104.302,341.409v 4.61363" fill="none" stroke="black"/>
<path d="M116.079,336.795v 9.22726" fill="none" stroke="black"/>
<path d="M127.856,341.409v 4.61363" fill="none" stroke="black"/>
<path d="M139.634,341.409v 4.61363" fill="none" stroke="black"/>
<path d="M151.411,341.409v 4.61363" fill="none" stroke="black"/>
<path d="M163.188,341.409v 4.61363" fill="none" stroke="black"/>
<path d="M174.965,336.795v 9.22726" fill="none" stroke="black"/>
<path d="M186.743,341.409v 4.61363" fill="none" stroke="black"/>
<path d="M198.52,341.409v 4.61363" fill="none" stroke="black"/>
<path d="M210.297,341.409v 4.61363" fill="none" stroke="black"/>
<path d="M222.075,341.409v 4.61363" fill="none" stroke="black"/>
<path d="M233.852,336.795v 9.22726" fill="none" stroke="black"/>
<path d="M245.629,341.409v 4.61363" fill="none" stroke="black"/>
<path d="M257.406,341.409v 4.61363" fill="none" stroke="black"/>
<path d="M269.184,341.409v 4.61363" fill="none" stroke="black"/>
<path d="M280.961,341.409v 4.61363" fill="none" stroke="black"/>
<path d="M292.738,336.795v 9.22726" fill="none" stroke="black"/>
<path d="M304.515,341.409v 4.61363" fill="none" stroke="black"/>
<path d="M316.293,341.409v 4.61363" fill="none" stroke="black"/>
<path d="M328.07,341.409v 4.61363" fill="none" stroke="black"/>
<path d="M339.847,341.409v 4.61363" fill="none" stroke="black"/>
<path d="M351.624,336.795v 9.22726" fill="none" stroke="black"/>
<path d="M363.402,341.409v 4.61363" fill="none" stroke="black"/>
<path d="M375.179,341.409v 4.61363" fill="none" stroke="black"/>
<path d="M386.956,341.409v 4.61363" fill="none" stroke="black"/>
<path d="M398.733,341.409v 4.61363" fill="none" stroke="black"/>
<path d="M410.511,336.795v 9.22726" fill="none" stroke="black"/>
<path d="M422.288,341.409v 4.61363" fill="none" stroke="black"/>
<path d="M434.065,341.409v 4.61363" fill="none" stroke="black"/>
<path d="M445.842,341.409v 4.61363" fill="none" stroke="black"/>
<path d="M457.62,341.409v 4.61363" fill="none" stroke="black"/>
<path d="M469.397,336.795v 9.22726" fill="none" stroke="black"/>
<path d="M469.397,336.795v 9.22726" fill="none" stroke="black"/>
<path d="M481.174,341.409v 4.61363" fill="none" stroke="black"/>
<path d="M492.951,341.409v 4.61363" fill="none" stroke="black"/>
<path d="M504.729,341.409v 4.61363" fill="none" stroke="black"/>
<text xml:space="preserve" x="53.446" y="358.403" fill="black" font-size="12.8453" font-family="Helvetica">0</text>
<text xml:space="preserve" x="104.763" y="358.403" fill="black" font-size="12.8453" font-family="Helvetica">100</text>
<text xml:space="preserve" x="164.225" y="358.403" fill="black" font-size="12.8453" font-family="Helvetica">200</text>
<text xml:space="preserve" x="222.873" y="358.403" fill="black" font-size="12.8453" font-family="Helvetica">300</text>
<text xml:space="preserve" x="281.521" y="358.403" fill="black" font-size="12.8453" font-family="Helvetica">400</text>
<text xml:space="preserve" x="340.983" y="358.403" fill="black" font-size="12.8453" font-family="Helvetica">500</text>
<text xml:space="preserve" x="399.631" y="358.403" fill="black" font-size="12.8453" font-family="Helvetica">600</text>
<text xml:space="preserve" x="458.279" y="358.403" fill="black" font-size="12.8453" font-family="Helvetica">700</text>
<text xml:space="preserve" x="454.206" y="370.622" fill="black" font-size="12.8453" font-family="Helvetica">yoko [mm]</text>
<path d="M57.1929,346.022v -307.575" fill="none" stroke="black"/>
<path d="M70.7992,346.022h -13.6063" fill="none" stroke="black"/>
<path d="M63.9961,339.032h -6.80315" fill="none" stroke="black"/>
<path d="M63.9961,332.042h -6.80315" fill="none" stroke="black"/>
<path d="M63.9961,325.051h -6.80315" fill="none" stroke="black"/>
<path d="M63.9961,318.061h -6.80315" fill="none" stroke="black"/>
<path d="M70.7992,311.071h -13.6063" fill="none" stroke="black"/>
<path d="M63.9961,304.08h -6.80315" fill="none" stroke="black"/>
<path d="M63.9961,297.09h -6.80315" fill="none" stroke="black"/>
<path d="M63.9961,290.099h -6.80315" fill="none" stroke="black"/>
<path d="M63.9961,283.109h -6.80315" fill="none" stroke="black"/>
<path d="M70.7992,276.119h -13.6063" fill="none" stroke="black"/>
<path d="M63.9961,269.128h -6.80315" fill="none" stroke="black"/>
<path d="M63.9961,262.138h -6.80315" fill="none" stroke="black"/>
<path d="M63.9961,255.148h -6.80315" fill="none" stroke="black"/>
<path d="M63.9961,248.157h -6.80315" fill="none" stroke="black"/>
<path d="M70.7992,241.167h -13.6063" fill="none" stroke="black"/>
<path d="M63.9961,234.177h -6.80315" fill="none" stroke="black"/>
<path d="M63.9961,227.186h -6.80315" fill="none" stroke="black"/>
<path d="M63.9961,220.196h -6.80315" fill="none" stroke="black"/>
<path d="M63.9961,213.206h -6.80315" fill="none" stroke="black"/>
<path d="M70.7992,206.215h -13.6063" fill="none" stroke="black"/>
<path d="M63.9961,199.225h -6.80315" fill="none" stroke="black"/>
<path d="M63.9961,192.235h -6.80315" fill="none" stroke="black"/>
<path d="M63.9961,185.244h -6.80315" fill="none" stroke="black"/>
<path d="M63.9961,178.254h -6.80315" fill="none" stroke="black"/>
<path d="M70.7992,171.264h -13.6063" fill="none" stroke="black"/>
<path d="M63.9961,164.273h -6.80315" fill="none" stroke="black"/>
<path d="M63.9961,157.283h -6.80315" fill="none" stroke="black"/>
<path d="M63.9961,150.292h -6.80315" fill="none" stroke="black"/>
<path d="M63.9961,143.302h -6.80315" fill="none" stroke="black"/>
<path d="M70.7992,136.312h -13.6063" fill="none" stroke="black"/>
<path d="M63.9961,129.321h -6.80315" fill="none" stroke="black"/>
<path d="M63.9961,122.331h -6.80315" fill="none" stroke="black"/>
<path d="M63.9961,115.341h -6.80315" fill="none" stroke="black"/>
<path d="M63.9961,108.35h -6.80315" fill="none" stroke="black"/>
<path d="M70.7992,101.36h -13.6063" fill="none" stroke="black"/>
<path d="M63.9961,94.3697h -6.80315" fill="none" stroke="black"/>
<path d="M63.9961,87.3794h -6.80315" fill="none" stroke="black"/>
<path d="M63.9961,80.389h -6.80315" fill="none" stroke="black"/>
<path d="M63.9961,73.3987h -6.80315" fill="none" stroke="black"/>
<path d="M70.7992,66.4083h -13.6063" fill="none" stroke="black"/>
<path d="M70.7992,66.4083h -13.6063" fill="none" stroke="black"/>
<path d="M63.9961,59.418h -6.80315" fill="none" stroke="black"/>
<path d="M63.9961,52.4276h -6.80315" fill="none" stroke="black"/>
<path d="M63.9961,45.4373h -6.80315" fill="none" stroke="black"/>
<path d="M63.9961,38.4469h -6.80315" fill="none" stroke="black"/>
<text xml:space="preserve" x="47.7441" y="350.258" fill="black" font-size="12.8453" font-family="Helvetica">0</text>
<text xml:space="preserve" x="49.3732" y="315.232" fill="black" font-size="12.8453" font-family="Helvetica">1</text>
<text xml:space="preserve" x="47.7441" y="280.206" fill="black" font-size="12.8453" font-family="Helvetica">2</text>
<text xml:space="preserve" x="47.7441" y="245.995" fill="black" font-size="12.8453" font-family="Helvetica">3</text>
<text xml:space="preserve" x="47.7441" y="210.969" fill="black" font-size="12.8453" font-family="Helvetica">4</text>
<text xml:space="preserve" x="47.7441" y="175.944" fill="black" font-size="12.8453" font-family="Helvetica">5</text>
<text xml:space="preserve" x="47.7441" y="140.918" fill="black" font-size="12.8453" font-family="Helvetica">6</text>
<text xml:space="preserve" x="47.7441" y="105.892" fill="black" font-size="12.8453" font-family="Helvetica">7</text>
<text xml:space="preserve" x="47.7441" y="70.8661" fill="black" font-size="12.8453" font-family="Helvetica">8</text>
<g transform="rotate(-90,33.8967,101.819)">
<text xml:space="preserve" x="33.8967" y="101.819" fill="black" font-size="12.8453" font-family="Helvetica">height [mm]</text>
</g>
<text xml:space="preserve" x="261.157" y="18.7347" fill="black" font-size="16.9898" font-family="Helvetica">tracks</text>
<g fill="black">
<circle cx="57.1929" cy="346.022" r="3.25821"/>
<circle cx="57.1929" cy="346.022" r="3.25821"/>
<circle cx="329.487" cy="311.071" r="3.25821"/>
<circle cx="57.1929" cy="346.022" r="3.25821"/>
<circle cx="57.1929" cy="346.022" r="3.25821"/>
<circle cx="57.1929" cy="346.022" r="3.25821"/>
<circle cx="269.953" cy="276.119" r="3.25821"/>
<circle cx="57.1929" cy="346.022" r="3.25821"/>
<circle cx="57.1929" cy="346.022" r="3.25821"/>
<circle cx="57.1929" cy="346.022" r="3.25821"/>
<circle cx="469.505" cy="241.167" r="3.25821"/>
<circle cx="57.1929" cy="346.022" r="3.25821"/>
<circle cx="57.1929" cy="346.022" r="3.25821"/>
<circle cx="57.1929" cy="346.022" r="3.25821"/>
<circle cx="253.226" cy="206.215" r="3.25821"/>
<circle cx="57.1929" cy="346.022" r="3.25821"/>
<circle cx="57.1929" cy="346.022" r="3.25821"/>
<circle cx="57.1929" cy="346.022" r="3.25821"/>
<circle cx="249.988" cy="171.264" r="3.25821"/>
<circle cx="57.1929" cy="346.022" r="3.25821"/>
<circle cx="57.1929" cy="346.022" r="3.25821"/>
<circle cx="57.1929" cy="346.022" r="3.25821"/>
<circle cx="414.719" cy="136.312" r="3.25821"/>
<circle cx="57.1929" cy="346.022" r="3.25821"/>
<circle cx="57.1929" cy="346.022" r="3.25821"/>
<circle cx="57.1929" cy="346.022" r="3.25821"/>
<circle cx="378.933" cy="101.36" r="3.25821"/>
<circle cx="57.1929" cy="346.022" r="3.25821"/>
<circle cx="57.1929" cy="346.022" r="3.25821"/>
<circle cx="57.1929" cy="346.022" r="3.25821"/>
<circle cx="272.033" cy="66.4083" r="3.25821"/>
</g>
<text xml:space="preserve" x="261.157" y="18.7347" fill="black" font-size="16.9898" font-family="Helvetica">tracks</text></svg>
