<?xml version="1.0" standalone="no"?>
<svg width="567.429" height="384.969" viewBox="0 0 567.429 384.969" xmlns="http://www.w3.org/2000/svg" shape-rendering="crispEdges">
<title>
img/week2/tracks/svg/3812.svg
</title>
<desc>
Creator: ROOT Version 6.22/09
CreationDate: Thu Jun 24 11:06:04 2021</desc>
<defs>
</defs>
<rect x="0.5" y="0" width="566.929" height="384.469" fill="white"/>
<rect x="57.1929" y="38.4469" width="453.543" height="307.575" fill="white"/>
<rect x="57.1929" y="38.4469" width="453.543" height="307.575" fill="none" stroke="black"/>
<path d="M57.1929,346.022h 453.543" fill="none" stroke="black"/>
<path d="M97.2865,336.795v 9.22726" fill="none" stroke="black"/>
<path d="M107.023,341.409v 4.61363" fill="none" stroke="black"/>
<path d="M116.76,341.409v 4.61363" fill="none" stroke="black"/>
<path d="M126.497,341.409v 4.61363" fill="none" stroke="black"/>
<path d="M136.234,341.409v 4.61363" fill="none" stroke="black"/>
<path d="M145.971,336.795v 9.22726" fill="none" stroke="black"/>
<path d="M155.708,341.409v 4.61363" fill="none" stroke="black"/>
<path d="M165.445,341.409v 4.61363" fill="none" stroke="black"/>
<path d="M175.182,341.409v 4.61363" fill="none" stroke="black"/>
<path d="M184.919,341.409v 4.61363" fill="none" stroke="black"/>
<path d="M194.656,336.795v 9.22726" fill="none" stroke="black"/>
<path d="M204.393,341.409v 4.61363" fill="none" stroke="black"/>
<path d="M214.13,341.409v 4.61363" fill="none" stroke="black"/>
<path d="M223.867,341.409v 4.61363" fill="none" stroke="black"/>
<path d="M233.604,341.409v 4.61363" fill="none" stroke="black"/>
<path d="M243.341,336.795v 9.22726" fill="none" stroke="black"/>
<path d="M253.078,341.409v 4.61363" fill="none" stroke="black"/>
<path d="M262.815,341.409v 4.61363" fill="none" stroke="black"/>
<path d="M272.552,341.409v 4.61363" fill="none" stroke="black"/>
<path d="M282.289,341.409v 4.61363" fill="none" stroke="black"/>
<path d="M292.026,336.795v 9.22726" fill="none" stroke="black"/>
<path d="M301.762,341.409v 4.61363" fill="none" stroke="black"/>
<path d="M311.499,341.409v 4.61363" fill="none" stroke="black"/>
<path d="M321.236,341.409v 4.61363" fill="none" stroke="black"/>
<path d="M330.973,341.409v 4.61363" fill="none" stroke="black"/>
<path d="M340.71,336.795v 9.22726" fill="none" stroke="black"/>
<path d="M350.447,341.409v 4.61363" fill="none" stroke="black"/>
<path d="M360.184,341.409v 4.61363" fill="none" stroke="black"/>
<path d="M369.921,341.409v 4.61363" fill="none" stroke="black"/>
<path d="M379.658,341.409v 4.61363" fill="none" stroke="black"/>
<path d="M389.395,336.795v 9.22726" fill="none" stroke="black"/>
<path d="M399.132,341.409v 4.61363" fill="none" stroke="black"/>
<path d="M408.869,341.409v 4.61363" fill="none" stroke="black"/>
<path d="M418.606,341.409v 4.61363" fill="none" stroke="black"/>
<path d="M428.343,341.409v 4.61363" fill="none" stroke="black"/>
<path d="M438.08,336.795v 9.22726" fill="none" stroke="black"/>
<path d="M447.817,341.409v 4.61363" fill="none" stroke="black"/>
<path d="M457.554,341.409v 4.61363" fill="none" stroke="black"/>
<path d="M467.291,341.409v 4.61363" fill="none" stroke="black"/>
<path d="M477.028,341.409v 4.61363" fill="none" stroke="black"/>
<path d="M486.765,336.795v 9.22726" fill="none" stroke="black"/>
<path d="M97.2865,336.795v 9.22726" fill="none" stroke="black"/>
<path d="M87.5495,341.409v 4.61363" fill="none" stroke="black"/>
<path d="M77.8126,341.409v 4.61363" fill="none" stroke="black"/>
<path d="M68.0756,341.409v 4.61363" fill="none" stroke="black"/>
<path d="M58.3387,341.409v 4.61363" fill="none" stroke="black"/>
<path d="M486.765,336.795v 9.22726" fill="none" stroke="black"/>
<path d="M496.502,341.409v 4.61363" fill="none" stroke="black"/>
<path d="M506.238,341.409v 4.61363" fill="none" stroke="black"/>
<text xml:space="preserve" x="89.2863" y="358.403" fill="black" font-size="12.8453" font-family="Helvetica">300</text>
<text xml:space="preserve" x="82.7699" y="358.403" fill="black" font-size="12.8453" font-family="Times">&#8722;</text>
<text xml:space="preserve" x="138.16" y="358.403" fill="black" font-size="12.8453" font-family="Helvetica">200</text>
<text xml:space="preserve" x="131.643" y="358.403" fill="black" font-size="12.8453" font-family="Times">&#8722;</text>
<text xml:space="preserve" x="187.033" y="358.403" fill="black" font-size="12.8453" font-family="Helvetica">100</text>
<text xml:space="preserve" x="180.516" y="358.403" fill="black" font-size="12.8453" font-family="Times">&#8722;</text>
<text xml:space="preserve" x="239.979" y="358.403" fill="black" font-size="12.8453" font-family="Helvetica">0</text>
<text xml:space="preserve" x="280.706" y="358.403" fill="black" font-size="12.8453" font-family="Helvetica">100</text>
<text xml:space="preserve" x="329.58" y="358.403" fill="black" font-size="12.8453" font-family="Helvetica">200</text>
<text xml:space="preserve" x="378.453" y="358.403" fill="black" font-size="12.8453" font-family="Helvetica">300</text>
<text xml:space="preserve" x="427.326" y="358.403" fill="black" font-size="12.8453" font-family="Helvetica">400</text>
<text xml:space="preserve" x="475.385" y="358.403" fill="black" font-size="12.8453" font-family="Helvetica">500</text>
<text xml:space="preserve" x="454.206" y="370.622" fill="black" font-size="12.8453" font-family="Helvetica">yoko [mm]</text>
<path d="M57.1929,346.022v -307.575" fill="none" stroke="black"/>
<path d="M70.7992,346.022h -13.6063" fill="none" stroke="black"/>
<path d="M63.9961,339.032h -6.80315" fill="none" stroke="black"/>
<path d="M63.9961,332.042h -6.80315" fill="none" stroke="black"/>
<path d="M63.9961,325.051h -6.80315" fill="none" stroke="black"/>
<path d="M63.9961,318.061h -6.80315" fill="none" stroke="black"/>
<path d="M70.7992,311.071h -13.6063" fill="none" stroke="black"/>
<path d="M63.9961,304.08h -6.80315" fill="none" stroke="black"/>
<path d="M63.9961,297.09h -6.80315" fill="none" stroke="black"/>
<path d="M63.9961,290.099h -6.80315" fill="none" stroke="black"/>
<path d="M63.9961,283.109h -6.80315" fill="none" stroke="black"/>
<path d="M70.7992,276.119h -13.6063" fill="none" stroke="black"/>
<path d="M63.9961,269.128h -6.80315" fill="none" stroke="black"/>
<path d="M63.9961,262.138h -6.80315" fill="none" stroke="black"/>
<path d="M63.9961,255.148h -6.80315" fill="none" stroke="black"/>
<path d="M63.9961,248.157h -6.80315" fill="none" stroke="black"/>
<path d="M70.7992,241.167h -13.6063" fill="none" stroke="black"/>
<path d="M63.9961,234.177h -6.80315" fill="none" stroke="black"/>
<path d="M63.9961,227.186h -6.80315" fill="none" stroke="black"/>
<path d="M63.9961,220.196h -6.80315" fill="none" stroke="black"/>
<path d="M63.9961,213.206h -6.80315" fill="none" stroke="black"/>
<path d="M70.7992,206.215h -13.6063" fill="none" stroke="black"/>
<path d="M63.9961,199.225h -6.80315" fill="none" stroke="black"/>
<path d="M63.9961,192.235h -6.80315" fill="none" stroke="black"/>
<path d="M63.9961,185.244h -6.80315" fill="none" stroke="black"/>
<path d="M63.9961,178.254h -6.80315" fill="none" stroke="black"/>
<path d="M70.7992,171.264h -13.6063" fill="none" stroke="black"/>
<path d="M63.9961,164.273h -6.80315" fill="none" stroke="black"/>
<path d="M63.9961,157.283h -6.80315" fill="none" stroke="black"/>
<path d="M63.9961,150.292h -6.80315" fill="none" stroke="black"/>
<path d="M63.9961,143.302h -6.80315" fill="none" stroke="black"/>
<path d="M70.7992,136.312h -13.6063" fill="none" stroke="black"/>
<path d="M63.9961,129.321h -6.80315" fill="none" stroke="black"/>
<path d="M63.9961,122.331h -6.80315" fill="none" stroke="black"/>
<path d="M63.9961,115.341h -6.80315" fill="none" stroke="black"/>
<path d="M63.9961,108.35h -6.80315" fill="none" stroke="black"/>
<path d="M70.7992,101.36h -13.6063" fill="none" stroke="black"/>
<path d="M63.9961,94.3697h -6.80315" fill="none" stroke="black"/>
<path d="M63.9961,87.3794h -6.80315" fill="none" stroke="black"/>
<path d="M63.9961,80.389h -6.80315" fill="none" stroke="black"/>
<path d="M63.9961,73.3987h -6.80315" fill="none" stroke="black"/>
<path d="M70.7992,66.4083h -13.6063" fill="none" stroke="black"/>
<path d="M70.7992,66.4083h -13.6063" fill="none" stroke="black"/>
<path d="M63.9961,59.418h -6.80315" fill="none" stroke="black"/>
<path d="M63.9961,52.4276h -6.80315" fill="none" stroke="black"/>
<path d="M63.9961,45.4373h -6.80315" fill="none" stroke="black"/>
<path d="M63.9961,38.4469h -6.80315" fill="none" stroke="black"/>
<text xml:space="preserve" x="47.7441" y="350.258" fill="black" font-size="12.8453" font-family="Helvetica">0</text>
<text xml:space="preserve" x="49.3732" y="315.232" fill="black" font-size="12.8453" font-family="Helvetica">1</text>
<text xml:space="preserve" x="47.7441" y="280.206" fill="black" font-size="12.8453" font-family="Helvetica">2</text>
<text xml:space="preserve" x="47.7441" y="245.995" fill="black" font-size="12.8453" font-family="Helvetica">3</text>
<text xml:space="preserve" x="47.7441" y="210.969" fill="black" font-size="12.8453" font-family="Helvetica">4</text>
<text xml:space="preserve" x="47.7441" y="175.944" fill="black" font-size="12.8453" font-family="Helvetica">5</text>
<text xml:space="preserve" x="47.7441" y="140.918" fill="black" font-size="12.8453" font-family="Helvetica">6</text>
<text xml:space="preserve" x="47.7441" y="105.892" fill="black" font-size="12.8453" font-family="Helvetica">7</text>
<text xml:space="preserve" x="47.7441" y="70.8661" fill="black" font-size="12.8453" font-family="Helvetica">8</text>
<g transform="rotate(-90,33.8967,101.819)">
<text xml:space="preserve" x="33.8967" y="101.819" fill="black" font-size="12.8453" font-family="Helvetica">height [mm]</text>
</g>
<text xml:space="preserve" x="261.157" y="18.7347" fill="black" font-size="16.9898" font-family="Helvetica">tracks</text>
<g fill="black">
<circle cx="243.341" cy="346.022" r="3.25821"/>
<circle cx="243.341" cy="346.022" r="3.25821"/>
<circle cx="243.341" cy="346.022" r="3.25821"/>
<circle cx="243.341" cy="346.022" r="3.25821"/>
<circle cx="243.341" cy="346.022" r="3.25821"/>
<circle cx="243.341" cy="346.022" r="3.25821"/>
<circle cx="243.341" cy="346.022" r="3.25821"/>
<circle cx="243.341" cy="346.022" r="3.25821"/>
<circle cx="311.081" cy="241.167" r="3.25821"/>
<circle cx="243.341" cy="346.022" r="3.25821"/>
<circle cx="243.341" cy="346.022" r="3.25821"/>
<circle cx="243.341" cy="346.022" r="3.25821"/>
<circle cx="94.9882" cy="206.215" r="3.25821"/>
<circle cx="243.341" cy="346.022" r="3.25821"/>
<circle cx="243.341" cy="346.022" r="3.25821"/>
<circle cx="243.341" cy="346.022" r="3.25821"/>
<circle cx="243.341" cy="346.022" r="3.25821"/>
<circle cx="402.736" cy="171.264" r="3.25821"/>
<circle cx="243.341" cy="346.022" r="3.25821"/>
<circle cx="243.341" cy="346.022" r="3.25821"/>
<circle cx="243.341" cy="346.022" r="3.25821"/>
<circle cx="388.574" cy="136.312" r="3.25821"/>
<circle cx="243.341" cy="346.022" r="3.25821"/>
<circle cx="243.341" cy="346.022" r="3.25821"/>
<circle cx="243.341" cy="346.022" r="3.25821"/>
<circle cx="243.341" cy="346.022" r="3.25821"/>
<circle cx="472.941" cy="101.36" r="3.25821"/>
<circle cx="243.341" cy="346.022" r="3.25821"/>
<circle cx="243.341" cy="346.022" r="3.25821"/>
<circle cx="243.341" cy="346.022" r="3.25821"/>
<circle cx="420.962" cy="66.4083" r="3.25821"/>
</g>
<text xml:space="preserve" x="261.157" y="18.7347" fill="black" font-size="16.9898" font-family="Helvetica">tracks</text></svg>
