<?xml version="1.0" standalone="no"?>
<svg width="567.429" height="384.969" viewBox="0 0 567.429 384.969" xmlns="http://www.w3.org/2000/svg" shape-rendering="crispEdges">
<title>
img/week2/tracks/svg/4360.svg
</title>
<desc>
Creator: ROOT Version 6.22/09
CreationDate: Thu Jun 24 11:06:05 2021</desc>
<defs>
</defs>
<rect x="0.5" y="0" width="566.929" height="384.469" fill="white"/>
<rect x="57.1929" y="38.4469" width="453.543" height="307.575" fill="white"/>
<rect x="57.1929" y="38.4469" width="453.543" height="307.575" fill="none" stroke="black"/>
<path d="M57.1929,346.022h 453.543" fill="none" stroke="black"/>
<path d="M100.016,336.795v 9.22726" fill="none" stroke="black"/>
<path d="M111.492,341.409v 4.61363" fill="none" stroke="black"/>
<path d="M122.968,341.409v 4.61363" fill="none" stroke="black"/>
<path d="M134.444,341.409v 4.61363" fill="none" stroke="black"/>
<path d="M145.919,336.795v 9.22726" fill="none" stroke="black"/>
<path d="M157.395,341.409v 4.61363" fill="none" stroke="black"/>
<path d="M168.871,341.409v 4.61363" fill="none" stroke="black"/>
<path d="M180.347,341.409v 4.61363" fill="none" stroke="black"/>
<path d="M191.823,336.795v 9.22726" fill="none" stroke="black"/>
<path d="M203.299,341.409v 4.61363" fill="none" stroke="black"/>
<path d="M214.775,341.409v 4.61363" fill="none" stroke="black"/>
<path d="M226.251,341.409v 4.61363" fill="none" stroke="black"/>
<path d="M237.727,336.795v 9.22726" fill="none" stroke="black"/>
<path d="M249.203,341.409v 4.61363" fill="none" stroke="black"/>
<path d="M260.679,341.409v 4.61363" fill="none" stroke="black"/>
<path d="M272.155,341.409v 4.61363" fill="none" stroke="black"/>
<path d="M283.631,336.795v 9.22726" fill="none" stroke="black"/>
<path d="M295.107,341.409v 4.61363" fill="none" stroke="black"/>
<path d="M306.583,341.409v 4.61363" fill="none" stroke="black"/>
<path d="M318.059,341.409v 4.61363" fill="none" stroke="black"/>
<path d="M329.534,336.795v 9.22726" fill="none" stroke="black"/>
<path d="M341.01,341.409v 4.61363" fill="none" stroke="black"/>
<path d="M352.486,341.409v 4.61363" fill="none" stroke="black"/>
<path d="M363.962,341.409v 4.61363" fill="none" stroke="black"/>
<path d="M375.438,336.795v 9.22726" fill="none" stroke="black"/>
<path d="M386.914,341.409v 4.61363" fill="none" stroke="black"/>
<path d="M398.39,341.409v 4.61363" fill="none" stroke="black"/>
<path d="M409.866,341.409v 4.61363" fill="none" stroke="black"/>
<path d="M421.342,336.795v 9.22726" fill="none" stroke="black"/>
<path d="M432.818,341.409v 4.61363" fill="none" stroke="black"/>
<path d="M444.294,341.409v 4.61363" fill="none" stroke="black"/>
<path d="M455.77,341.409v 4.61363" fill="none" stroke="black"/>
<path d="M467.246,336.795v 9.22726" fill="none" stroke="black"/>
<path d="M100.016,336.795v 9.22726" fill="none" stroke="black"/>
<path d="M88.5397,341.409v 4.61363" fill="none" stroke="black"/>
<path d="M77.0638,341.409v 4.61363" fill="none" stroke="black"/>
<path d="M65.5879,341.409v 4.61363" fill="none" stroke="black"/>
<path d="M467.246,336.795v 9.22726" fill="none" stroke="black"/>
<path d="M478.722,341.409v 4.61363" fill="none" stroke="black"/>
<path d="M490.198,341.409v 4.61363" fill="none" stroke="black"/>
<path d="M501.674,341.409v 4.61363" fill="none" stroke="black"/>
<text xml:space="preserve" x="92.5445" y="358.403" fill="black" font-size="12.8453" font-family="Helvetica">400</text>
<text xml:space="preserve" x="86.0281" y="358.403" fill="black" font-size="12.8453" font-family="Times">&#8722;</text>
<text xml:space="preserve" x="138.16" y="358.403" fill="black" font-size="12.8453" font-family="Helvetica">200</text>
<text xml:space="preserve" x="131.643" y="358.403" fill="black" font-size="12.8453" font-family="Times">&#8722;</text>
<text xml:space="preserve" x="187.847" y="358.403" fill="black" font-size="12.8453" font-family="Helvetica">0</text>
<text xml:space="preserve" x="226.946" y="358.403" fill="black" font-size="12.8453" font-family="Helvetica">200</text>
<text xml:space="preserve" x="272.561" y="358.403" fill="black" font-size="12.8453" font-family="Helvetica">400</text>
<text xml:space="preserve" x="318.176" y="358.403" fill="black" font-size="12.8453" font-family="Helvetica">600</text>
<text xml:space="preserve" x="364.605" y="358.403" fill="black" font-size="12.8453" font-family="Helvetica">800</text>
<text xml:space="preserve" x="406.962" y="358.403" fill="black" font-size="12.8453" font-family="Helvetica">1000</text>
<text xml:space="preserve" x="453.392" y="358.403" fill="black" font-size="12.8453" font-family="Helvetica">1200</text>
<text xml:space="preserve" x="454.206" y="370.622" fill="black" font-size="12.8453" font-family="Helvetica">yoko [mm]</text>
<path d="M57.1929,346.022v -307.575" fill="none" stroke="black"/>
<path d="M70.7992,346.022h -13.6063" fill="none" stroke="black"/>
<path d="M63.9961,339.032h -6.80315" fill="none" stroke="black"/>
<path d="M63.9961,332.042h -6.80315" fill="none" stroke="black"/>
<path d="M63.9961,325.051h -6.80315" fill="none" stroke="black"/>
<path d="M63.9961,318.061h -6.80315" fill="none" stroke="black"/>
<path d="M70.7992,311.071h -13.6063" fill="none" stroke="black"/>
<path d="M63.9961,304.08h -6.80315" fill="none" stroke="black"/>
<path d="M63.9961,297.09h -6.80315" fill="none" stroke="black"/>
<path d="M63.9961,290.099h -6.80315" fill="none" stroke="black"/>
<path d="M63.9961,283.109h -6.80315" fill="none" stroke="black"/>
<path d="M70.7992,276.119h -13.6063" fill="none" stroke="black"/>
<path d="M63.9961,269.128h -6.80315" fill="none" stroke="black"/>
<path d="M63.9961,262.138h -6.80315" fill="none" stroke="black"/>
<path d="M63.9961,255.148h -6.80315" fill="none" stroke="black"/>
<path d="M63.9961,248.157h -6.80315" fill="none" stroke="black"/>
<path d="M70.7992,241.167h -13.6063" fill="none" stroke="black"/>
<path d="M63.9961,234.177h -6.80315" fill="none" stroke="black"/>
<path d="M63.9961,227.186h -6.80315" fill="none" stroke="black"/>
<path d="M63.9961,220.196h -6.80315" fill="none" stroke="black"/>
<path d="M63.9961,213.206h -6.80315" fill="none" stroke="black"/>
<path d="M70.7992,206.215h -13.6063" fill="none" stroke="black"/>
<path d="M63.9961,199.225h -6.80315" fill="none" stroke="black"/>
<path d="M63.9961,192.235h -6.80315" fill="none" stroke="black"/>
<path d="M63.9961,185.244h -6.80315" fill="none" stroke="black"/>
<path d="M63.9961,178.254h -6.80315" fill="none" stroke="black"/>
<path d="M70.7992,171.264h -13.6063" fill="none" stroke="black"/>
<path d="M63.9961,164.273h -6.80315" fill="none" stroke="black"/>
<path d="M63.9961,157.283h -6.80315" fill="none" stroke="black"/>
<path d="M63.9961,150.292h -6.80315" fill="none" stroke="black"/>
<path d="M63.9961,143.302h -6.80315" fill="none" stroke="black"/>
<path d="M70.7992,136.312h -13.6063" fill="none" stroke="black"/>
<path d="M63.9961,129.321h -6.80315" fill="none" stroke="black"/>
<path d="M63.9961,122.331h -6.80315" fill="none" stroke="black"/>
<path d="M63.9961,115.341h -6.80315" fill="none" stroke="black"/>
<path d="M63.9961,108.35h -6.80315" fill="none" stroke="black"/>
<path d="M70.7992,101.36h -13.6063" fill="none" stroke="black"/>
<path d="M63.9961,94.3697h -6.80315" fill="none" stroke="black"/>
<path d="M63.9961,87.3794h -6.80315" fill="none" stroke="black"/>
<path d="M63.9961,80.389h -6.80315" fill="none" stroke="black"/>
<path d="M63.9961,73.3987h -6.80315" fill="none" stroke="black"/>
<path d="M70.7992,66.4083h -13.6063" fill="none" stroke="black"/>
<path d="M70.7992,66.4083h -13.6063" fill="none" stroke="black"/>
<path d="M63.9961,59.418h -6.80315" fill="none" stroke="black"/>
<path d="M63.9961,52.4276h -6.80315" fill="none" stroke="black"/>
<path d="M63.9961,45.4373h -6.80315" fill="none" stroke="black"/>
<path d="M63.9961,38.4469h -6.80315" fill="none" stroke="black"/>
<text xml:space="preserve" x="47.7441" y="350.258" fill="black" font-size="12.8453" font-family="Helvetica">0</text>
<text xml:space="preserve" x="49.3732" y="315.232" fill="black" font-size="12.8453" font-family="Helvetica">1</text>
<text xml:space="preserve" x="47.7441" y="280.206" fill="black" font-size="12.8453" font-family="Helvetica">2</text>
<text xml:space="preserve" x="47.7441" y="245.995" fill="black" font-size="12.8453" font-family="Helvetica">3</text>
<text xml:space="preserve" x="47.7441" y="210.969" fill="black" font-size="12.8453" font-family="Helvetica">4</text>
<text xml:space="preserve" x="47.7441" y="175.944" fill="black" font-size="12.8453" font-family="Helvetica">5</text>
<text xml:space="preserve" x="47.7441" y="140.918" fill="black" font-size="12.8453" font-family="Helvetica">6</text>
<text xml:space="preserve" x="47.7441" y="105.892" fill="black" font-size="12.8453" font-family="Helvetica">7</text>
<text xml:space="preserve" x="47.7441" y="70.8661" fill="black" font-size="12.8453" font-family="Helvetica">8</text>
<g transform="rotate(-90,33.8967,101.819)">
<text xml:space="preserve" x="33.8967" y="101.819" fill="black" font-size="12.8453" font-family="Helvetica">height [mm]</text>
</g>
<text xml:space="preserve" x="261.157" y="18.7347" fill="black" font-size="16.9898" font-family="Helvetica">tracks</text>
<g fill="black">
<circle cx="191.823" cy="346.022" r="3.25821"/>
<circle cx="274.56" cy="311.071" r="3.25821"/>
<circle cx="191.823" cy="346.022" r="3.25821"/>
<circle cx="191.823" cy="346.022" r="3.25821"/>
<circle cx="191.823" cy="346.022" r="3.25821"/>
<circle cx="295.947" cy="276.119" r="3.25821"/>
<circle cx="191.823" cy="346.022" r="3.25821"/>
<circle cx="191.823" cy="346.022" r="3.25821"/>
<circle cx="191.823" cy="346.022" r="3.25821"/>
<circle cx="94.9882" cy="241.167" r="3.25821"/>
<circle cx="191.823" cy="346.022" r="3.25821"/>
<circle cx="191.823" cy="346.022" r="3.25821"/>
<circle cx="191.823" cy="346.022" r="3.25821"/>
<circle cx="191.823" cy="346.022" r="3.25821"/>
<circle cx="286.524" cy="206.215" r="3.25821"/>
<circle cx="191.823" cy="346.022" r="3.25821"/>
<circle cx="191.823" cy="346.022" r="3.25821"/>
<circle cx="191.823" cy="346.022" r="3.25821"/>
<circle cx="302.051" cy="171.264" r="3.25821"/>
<circle cx="191.823" cy="346.022" r="3.25821"/>
<circle cx="191.823" cy="346.022" r="3.25821"/>
<circle cx="191.823" cy="346.022" r="3.25821"/>
<circle cx="191.823" cy="346.022" r="3.25821"/>
<circle cx="472.941" cy="136.312" r="3.25821"/>
<circle cx="191.823" cy="346.022" r="3.25821"/>
<circle cx="191.823" cy="346.022" r="3.25821"/>
<circle cx="191.823" cy="346.022" r="3.25821"/>
<circle cx="334.387" cy="101.36" r="3.25821"/>
<circle cx="191.823" cy="346.022" r="3.25821"/>
<circle cx="191.823" cy="346.022" r="3.25821"/>
<circle cx="191.823" cy="346.022" r="3.25821"/>
<circle cx="275.561" cy="66.4083" r="3.25821"/>
</g>
<text xml:space="preserve" x="261.157" y="18.7347" fill="black" font-size="16.9898" font-family="Helvetica">tracks</text></svg>
