<?xml version="1.0" standalone="no"?>
<svg width="567.429" height="384.969" viewBox="0 0 567.429 384.969" xmlns="http://www.w3.org/2000/svg" shape-rendering="crispEdges">
<title>
img/week2/tracks/svg/5650.svg
</title>
<desc>
Creator: ROOT Version 6.22/09
CreationDate: Thu Jun 24 11:06:08 2021</desc>
<defs>
</defs>
<rect x="0.5" y="0" width="566.929" height="384.469" fill="white"/>
<rect x="57.1929" y="38.4469" width="453.543" height="307.575" fill="white"/>
<rect x="57.1929" y="38.4469" width="453.543" height="307.575" fill="none" stroke="black"/>
<path d="M57.1929,346.022h 453.543" fill="none" stroke="black"/>
<path d="M58.4413,336.795v 9.22726" fill="none" stroke="black"/>
<path d="M68.3919,341.409v 4.61363" fill="none" stroke="black"/>
<path d="M78.3426,341.409v 4.61363" fill="none" stroke="black"/>
<path d="M88.2932,341.409v 4.61363" fill="none" stroke="black"/>
<path d="M98.2439,341.409v 4.61363" fill="none" stroke="black"/>
<path d="M108.194,336.795v 9.22726" fill="none" stroke="black"/>
<path d="M118.145,341.409v 4.61363" fill="none" stroke="black"/>
<path d="M128.096,341.409v 4.61363" fill="none" stroke="black"/>
<path d="M138.046,341.409v 4.61363" fill="none" stroke="black"/>
<path d="M147.997,341.409v 4.61363" fill="none" stroke="black"/>
<path d="M157.948,336.795v 9.22726" fill="none" stroke="black"/>
<path d="M167.898,341.409v 4.61363" fill="none" stroke="black"/>
<path d="M177.849,341.409v 4.61363" fill="none" stroke="black"/>
<path d="M187.8,341.409v 4.61363" fill="none" stroke="black"/>
<path d="M197.75,341.409v 4.61363" fill="none" stroke="black"/>
<path d="M207.701,336.795v 9.22726" fill="none" stroke="black"/>
<path d="M217.652,341.409v 4.61363" fill="none" stroke="black"/>
<path d="M227.602,341.409v 4.61363" fill="none" stroke="black"/>
<path d="M237.553,341.409v 4.61363" fill="none" stroke="black"/>
<path d="M247.504,341.409v 4.61363" fill="none" stroke="black"/>
<path d="M257.454,336.795v 9.22726" fill="none" stroke="black"/>
<path d="M267.405,341.409v 4.61363" fill="none" stroke="black"/>
<path d="M277.355,341.409v 4.61363" fill="none" stroke="black"/>
<path d="M287.306,341.409v 4.61363" fill="none" stroke="black"/>
<path d="M297.257,341.409v 4.61363" fill="none" stroke="black"/>
<path d="M307.207,336.795v 9.22726" fill="none" stroke="black"/>
<path d="M317.158,341.409v 4.61363" fill="none" stroke="black"/>
<path d="M327.109,341.409v 4.61363" fill="none" stroke="black"/>
<path d="M337.059,341.409v 4.61363" fill="none" stroke="black"/>
<path d="M347.01,341.409v 4.61363" fill="none" stroke="black"/>
<path d="M356.961,336.795v 9.22726" fill="none" stroke="black"/>
<path d="M366.911,341.409v 4.61363" fill="none" stroke="black"/>
<path d="M376.862,341.409v 4.61363" fill="none" stroke="black"/>
<path d="M386.813,341.409v 4.61363" fill="none" stroke="black"/>
<path d="M396.763,341.409v 4.61363" fill="none" stroke="black"/>
<path d="M406.714,336.795v 9.22726" fill="none" stroke="black"/>
<path d="M416.664,341.409v 4.61363" fill="none" stroke="black"/>
<path d="M426.615,341.409v 4.61363" fill="none" stroke="black"/>
<path d="M436.566,341.409v 4.61363" fill="none" stroke="black"/>
<path d="M446.516,341.409v 4.61363" fill="none" stroke="black"/>
<path d="M456.467,336.795v 9.22726" fill="none" stroke="black"/>
<path d="M466.418,341.409v 4.61363" fill="none" stroke="black"/>
<path d="M476.368,341.409v 4.61363" fill="none" stroke="black"/>
<path d="M486.319,341.409v 4.61363" fill="none" stroke="black"/>
<path d="M496.27,341.409v 4.61363" fill="none" stroke="black"/>
<path d="M506.22,336.795v 9.22726" fill="none" stroke="black"/>
<path d="M58.4413,336.795v 9.22726" fill="none" stroke="black"/>
<path d="M506.22,336.795v 9.22726" fill="none" stroke="black"/>
<text xml:space="preserve" x="51.0023" y="358.403" fill="black" font-size="12.8453" font-family="Helvetica">200</text>
<text xml:space="preserve" x="44.4859" y="358.403" fill="black" font-size="12.8453" font-family="Times">&#8722;</text>
<text xml:space="preserve" x="100.69" y="358.403" fill="black" font-size="12.8453" font-family="Helvetica">100</text>
<text xml:space="preserve" x="94.1736" y="358.403" fill="black" font-size="12.8453" font-family="Times">&#8722;</text>
<text xml:space="preserve" x="154.451" y="358.403" fill="black" font-size="12.8453" font-family="Helvetica">0</text>
<text xml:space="preserve" x="196.807" y="358.403" fill="black" font-size="12.8453" font-family="Helvetica">100</text>
<text xml:space="preserve" x="246.495" y="358.403" fill="black" font-size="12.8453" font-family="Helvetica">200</text>
<text xml:space="preserve" x="296.183" y="358.403" fill="black" font-size="12.8453" font-family="Helvetica">300</text>
<text xml:space="preserve" x="345.871" y="358.403" fill="black" font-size="12.8453" font-family="Helvetica">400</text>
<text xml:space="preserve" x="395.558" y="358.403" fill="black" font-size="12.8453" font-family="Helvetica">500</text>
<text xml:space="preserve" x="445.246" y="358.403" fill="black" font-size="12.8453" font-family="Helvetica">600</text>
<text xml:space="preserve" x="494.934" y="358.403" fill="black" font-size="12.8453" font-family="Helvetica">700</text>
<text xml:space="preserve" x="454.206" y="370.622" fill="black" font-size="12.8453" font-family="Helvetica">yoko [mm]</text>
<path d="M57.1929,346.022v -307.575" fill="none" stroke="black"/>
<path d="M70.7992,346.022h -13.6063" fill="none" stroke="black"/>
<path d="M63.9961,339.032h -6.80315" fill="none" stroke="black"/>
<path d="M63.9961,332.042h -6.80315" fill="none" stroke="black"/>
<path d="M63.9961,325.051h -6.80315" fill="none" stroke="black"/>
<path d="M63.9961,318.061h -6.80315" fill="none" stroke="black"/>
<path d="M70.7992,311.071h -13.6063" fill="none" stroke="black"/>
<path d="M63.9961,304.08h -6.80315" fill="none" stroke="black"/>
<path d="M63.9961,297.09h -6.80315" fill="none" stroke="black"/>
<path d="M63.9961,290.099h -6.80315" fill="none" stroke="black"/>
<path d="M63.9961,283.109h -6.80315" fill="none" stroke="black"/>
<path d="M70.7992,276.119h -13.6063" fill="none" stroke="black"/>
<path d="M63.9961,269.128h -6.80315" fill="none" stroke="black"/>
<path d="M63.9961,262.138h -6.80315" fill="none" stroke="black"/>
<path d="M63.9961,255.148h -6.80315" fill="none" stroke="black"/>
<path d="M63.9961,248.157h -6.80315" fill="none" stroke="black"/>
<path d="M70.7992,241.167h -13.6063" fill="none" stroke="black"/>
<path d="M63.9961,234.177h -6.80315" fill="none" stroke="black"/>
<path d="M63.9961,227.186h -6.80315" fill="none" stroke="black"/>
<path d="M63.9961,220.196h -6.80315" fill="none" stroke="black"/>
<path d="M63.9961,213.206h -6.80315" fill="none" stroke="black"/>
<path d="M70.7992,206.215h -13.6063" fill="none" stroke="black"/>
<path d="M63.9961,199.225h -6.80315" fill="none" stroke="black"/>
<path d="M63.9961,192.235h -6.80315" fill="none" stroke="black"/>
<path d="M63.9961,185.244h -6.80315" fill="none" stroke="black"/>
<path d="M63.9961,178.254h -6.80315" fill="none" stroke="black"/>
<path d="M70.7992,171.264h -13.6063" fill="none" stroke="black"/>
<path d="M63.9961,164.273h -6.80315" fill="none" stroke="black"/>
<path d="M63.9961,157.283h -6.80315" fill="none" stroke="black"/>
<path d="M63.9961,150.292h -6.80315" fill="none" stroke="black"/>
<path d="M63.9961,143.302h -6.80315" fill="none" stroke="black"/>
<path d="M70.7992,136.312h -13.6063" fill="none" stroke="black"/>
<path d="M63.9961,129.321h -6.80315" fill="none" stroke="black"/>
<path d="M63.9961,122.331h -6.80315" fill="none" stroke="black"/>
<path d="M63.9961,115.341h -6.80315" fill="none" stroke="black"/>
<path d="M63.9961,108.35h -6.80315" fill="none" stroke="black"/>
<path d="M70.7992,101.36h -13.6063" fill="none" stroke="black"/>
<path d="M63.9961,94.3697h -6.80315" fill="none" stroke="black"/>
<path d="M63.9961,87.3794h -6.80315" fill="none" stroke="black"/>
<path d="M63.9961,80.389h -6.80315" fill="none" stroke="black"/>
<path d="M63.9961,73.3987h -6.80315" fill="none" stroke="black"/>
<path d="M70.7992,66.4083h -13.6063" fill="none" stroke="black"/>
<path d="M70.7992,66.4083h -13.6063" fill="none" stroke="black"/>
<path d="M63.9961,59.418h -6.80315" fill="none" stroke="black"/>
<path d="M63.9961,52.4276h -6.80315" fill="none" stroke="black"/>
<path d="M63.9961,45.4373h -6.80315" fill="none" stroke="black"/>
<path d="M63.9961,38.4469h -6.80315" fill="none" stroke="black"/>
<text xml:space="preserve" x="47.7441" y="350.258" fill="black" font-size="12.8453" font-family="Helvetica">0</text>
<text xml:space="preserve" x="49.3732" y="315.232" fill="black" font-size="12.8453" font-family="Helvetica">1</text>
<text xml:space="preserve" x="47.7441" y="280.206" fill="black" font-size="12.8453" font-family="Helvetica">2</text>
<text xml:space="preserve" x="47.7441" y="245.995" fill="black" font-size="12.8453" font-family="Helvetica">3</text>
<text xml:space="preserve" x="47.7441" y="210.969" fill="black" font-size="12.8453" font-family="Helvetica">4</text>
<text xml:space="preserve" x="47.7441" y="175.944" fill="black" font-size="12.8453" font-family="Helvetica">5</text>
<text xml:space="preserve" x="47.7441" y="140.918" fill="black" font-size="12.8453" font-family="Helvetica">6</text>
<text xml:space="preserve" x="47.7441" y="105.892" fill="black" font-size="12.8453" font-family="Helvetica">7</text>
<text xml:space="preserve" x="47.7441" y="70.8661" fill="black" font-size="12.8453" font-family="Helvetica">8</text>
<g transform="rotate(-90,33.8967,101.819)">
<text xml:space="preserve" x="33.8967" y="101.819" fill="black" font-size="12.8453" font-family="Helvetica">height [mm]</text>
</g>
<text xml:space="preserve" x="261.157" y="18.7347" fill="black" font-size="16.9898" font-family="Helvetica">tracks</text>
<g fill="black">
<circle cx="157.948" cy="346.022" r="3.25821"/>
<circle cx="157.948" cy="346.022" r="3.25821"/>
<circle cx="388.01" cy="311.071" r="3.25821"/>
<circle cx="157.948" cy="346.022" r="3.25821"/>
<circle cx="157.948" cy="346.022" r="3.25821"/>
<circle cx="157.948" cy="346.022" r="3.25821"/>
<circle cx="383.658" cy="276.119" r="3.25821"/>
<circle cx="157.948" cy="346.022" r="3.25821"/>
<circle cx="157.948" cy="346.022" r="3.25821"/>
<circle cx="157.948" cy="346.022" r="3.25821"/>
<circle cx="366.743" cy="241.167" r="3.25821"/>
<circle cx="157.948" cy="346.022" r="3.25821"/>
<circle cx="157.948" cy="346.022" r="3.25821"/>
<circle cx="363.232" cy="206.215" r="3.25821"/>
<circle cx="157.948" cy="346.022" r="3.25821"/>
<circle cx="157.948" cy="346.022" r="3.25821"/>
<circle cx="157.948" cy="346.022" r="3.25821"/>
<circle cx="472.941" cy="171.264" r="3.25821"/>
<circle cx="157.948" cy="346.022" r="3.25821"/>
<circle cx="157.948" cy="346.022" r="3.25821"/>
<circle cx="157.948" cy="346.022" r="3.25821"/>
<circle cx="383.196" cy="136.312" r="3.25821"/>
<circle cx="157.948" cy="346.022" r="3.25821"/>
<circle cx="157.948" cy="346.022" r="3.25821"/>
<circle cx="157.948" cy="346.022" r="3.25821"/>
<circle cx="94.9882" cy="101.36" r="3.25821"/>
<circle cx="157.948" cy="346.022" r="3.25821"/>
<circle cx="157.948" cy="346.022" r="3.25821"/>
<circle cx="302.529" cy="66.4083" r="3.25821"/>
</g>
<text xml:space="preserve" x="261.157" y="18.7347" fill="black" font-size="16.9898" font-family="Helvetica">tracks</text></svg>
