<?xml version="1.0" standalone="no"?>
<svg width="567.429" height="384.969" viewBox="0 0 567.429 384.969" xmlns="http://www.w3.org/2000/svg" shape-rendering="crispEdges">
<title>
img/week2/tracks/svg/6103.svg
</title>
<desc>
Creator: ROOT Version 6.22/09
CreationDate: Thu Jun 24 11:06:09 2021</desc>
<defs>
</defs>
<rect x="0.5" y="0" width="566.929" height="384.469" fill="white"/>
<rect x="57.1929" y="38.4469" width="453.543" height="307.575" fill="white"/>
<rect x="57.1929" y="38.4469" width="453.543" height="307.575" fill="none" stroke="black"/>
<path d="M57.1929,346.022h 453.543" fill="none" stroke="black"/>
<path d="M96.9476,336.795v 9.22726" fill="none" stroke="black"/>
<path d="M107.987,341.409v 4.61363" fill="none" stroke="black"/>
<path d="M119.026,341.409v 4.61363" fill="none" stroke="black"/>
<path d="M130.065,341.409v 4.61363" fill="none" stroke="black"/>
<path d="M141.105,341.409v 4.61363" fill="none" stroke="black"/>
<path d="M152.144,336.795v 9.22726" fill="none" stroke="black"/>
<path d="M163.183,341.409v 4.61363" fill="none" stroke="black"/>
<path d="M174.222,341.409v 4.61363" fill="none" stroke="black"/>
<path d="M185.262,341.409v 4.61363" fill="none" stroke="black"/>
<path d="M196.301,341.409v 4.61363" fill="none" stroke="black"/>
<path d="M207.34,336.795v 9.22726" fill="none" stroke="black"/>
<path d="M218.379,341.409v 4.61363" fill="none" stroke="black"/>
<path d="M229.419,341.409v 4.61363" fill="none" stroke="black"/>
<path d="M240.458,341.409v 4.61363" fill="none" stroke="black"/>
<path d="M251.497,341.409v 4.61363" fill="none" stroke="black"/>
<path d="M262.536,336.795v 9.22726" fill="none" stroke="black"/>
<path d="M273.576,341.409v 4.61363" fill="none" stroke="black"/>
<path d="M284.615,341.409v 4.61363" fill="none" stroke="black"/>
<path d="M295.654,341.409v 4.61363" fill="none" stroke="black"/>
<path d="M306.694,341.409v 4.61363" fill="none" stroke="black"/>
<path d="M317.733,336.795v 9.22726" fill="none" stroke="black"/>
<path d="M328.772,341.409v 4.61363" fill="none" stroke="black"/>
<path d="M339.811,341.409v 4.61363" fill="none" stroke="black"/>
<path d="M350.851,341.409v 4.61363" fill="none" stroke="black"/>
<path d="M361.89,341.409v 4.61363" fill="none" stroke="black"/>
<path d="M372.929,336.795v 9.22726" fill="none" stroke="black"/>
<path d="M383.968,341.409v 4.61363" fill="none" stroke="black"/>
<path d="M395.008,341.409v 4.61363" fill="none" stroke="black"/>
<path d="M406.047,341.409v 4.61363" fill="none" stroke="black"/>
<path d="M417.086,341.409v 4.61363" fill="none" stroke="black"/>
<path d="M428.125,336.795v 9.22726" fill="none" stroke="black"/>
<path d="M439.165,341.409v 4.61363" fill="none" stroke="black"/>
<path d="M450.204,341.409v 4.61363" fill="none" stroke="black"/>
<path d="M461.243,341.409v 4.61363" fill="none" stroke="black"/>
<path d="M472.282,341.409v 4.61363" fill="none" stroke="black"/>
<path d="M483.322,336.795v 9.22726" fill="none" stroke="black"/>
<path d="M96.9476,336.795v 9.22726" fill="none" stroke="black"/>
<path d="M85.9083,341.409v 4.61363" fill="none" stroke="black"/>
<path d="M74.8691,341.409v 4.61363" fill="none" stroke="black"/>
<path d="M63.8298,341.409v 4.61363" fill="none" stroke="black"/>
<path d="M483.322,336.795v 9.22726" fill="none" stroke="black"/>
<path d="M494.361,341.409v 4.61363" fill="none" stroke="black"/>
<path d="M505.4,341.409v 4.61363" fill="none" stroke="black"/>
<text xml:space="preserve" x="93.3591" y="358.403" fill="black" font-size="12.8453" font-family="Helvetica">50</text>
<text xml:space="preserve" x="86.0281" y="358.403" fill="black" font-size="12.8453" font-family="Times">&#8722;</text>
<text xml:space="preserve" x="148.749" y="358.403" fill="black" font-size="12.8453" font-family="Helvetica">0</text>
<text xml:space="preserve" x="200.066" y="358.403" fill="black" font-size="12.8453" font-family="Helvetica">50</text>
<text xml:space="preserve" x="251.382" y="358.403" fill="black" font-size="12.8453" font-family="Helvetica">100</text>
<text xml:space="preserve" x="306.772" y="358.403" fill="black" font-size="12.8453" font-family="Helvetica">150</text>
<text xml:space="preserve" x="362.162" y="358.403" fill="black" font-size="12.8453" font-family="Helvetica">200</text>
<text xml:space="preserve" x="416.737" y="358.403" fill="black" font-size="12.8453" font-family="Helvetica">250</text>
<text xml:space="preserve" x="472.126" y="358.403" fill="black" font-size="12.8453" font-family="Helvetica">300</text>
<text xml:space="preserve" x="454.206" y="370.622" fill="black" font-size="12.8453" font-family="Helvetica">yoko [mm]</text>
<path d="M57.1929,346.022v -307.575" fill="none" stroke="black"/>
<path d="M70.7992,346.022h -13.6063" fill="none" stroke="black"/>
<path d="M63.9961,339.032h -6.80315" fill="none" stroke="black"/>
<path d="M63.9961,332.042h -6.80315" fill="none" stroke="black"/>
<path d="M63.9961,325.051h -6.80315" fill="none" stroke="black"/>
<path d="M63.9961,318.061h -6.80315" fill="none" stroke="black"/>
<path d="M70.7992,311.071h -13.6063" fill="none" stroke="black"/>
<path d="M63.9961,304.08h -6.80315" fill="none" stroke="black"/>
<path d="M63.9961,297.09h -6.80315" fill="none" stroke="black"/>
<path d="M63.9961,290.099h -6.80315" fill="none" stroke="black"/>
<path d="M63.9961,283.109h -6.80315" fill="none" stroke="black"/>
<path d="M70.7992,276.119h -13.6063" fill="none" stroke="black"/>
<path d="M63.9961,269.128h -6.80315" fill="none" stroke="black"/>
<path d="M63.9961,262.138h -6.80315" fill="none" stroke="black"/>
<path d="M63.9961,255.148h -6.80315" fill="none" stroke="black"/>
<path d="M63.9961,248.157h -6.80315" fill="none" stroke="black"/>
<path d="M70.7992,241.167h -13.6063" fill="none" stroke="black"/>
<path d="M63.9961,234.177h -6.80315" fill="none" stroke="black"/>
<path d="M63.9961,227.186h -6.80315" fill="none" stroke="black"/>
<path d="M63.9961,220.196h -6.80315" fill="none" stroke="black"/>
<path d="M63.9961,213.206h -6.80315" fill="none" stroke="black"/>
<path d="M70.7992,206.215h -13.6063" fill="none" stroke="black"/>
<path d="M63.9961,199.225h -6.80315" fill="none" stroke="black"/>
<path d="M63.9961,192.235h -6.80315" fill="none" stroke="black"/>
<path d="M63.9961,185.244h -6.80315" fill="none" stroke="black"/>
<path d="M63.9961,178.254h -6.80315" fill="none" stroke="black"/>
<path d="M70.7992,171.264h -13.6063" fill="none" stroke="black"/>
<path d="M63.9961,164.273h -6.80315" fill="none" stroke="black"/>
<path d="M63.9961,157.283h -6.80315" fill="none" stroke="black"/>
<path d="M63.9961,150.292h -6.80315" fill="none" stroke="black"/>
<path d="M63.9961,143.302h -6.80315" fill="none" stroke="black"/>
<path d="M70.7992,136.312h -13.6063" fill="none" stroke="black"/>
<path d="M63.9961,129.321h -6.80315" fill="none" stroke="black"/>
<path d="M63.9961,122.331h -6.80315" fill="none" stroke="black"/>
<path d="M63.9961,115.341h -6.80315" fill="none" stroke="black"/>
<path d="M63.9961,108.35h -6.80315" fill="none" stroke="black"/>
<path d="M70.7992,101.36h -13.6063" fill="none" stroke="black"/>
<path d="M63.9961,94.3697h -6.80315" fill="none" stroke="black"/>
<path d="M63.9961,87.3794h -6.80315" fill="none" stroke="black"/>
<path d="M63.9961,80.389h -6.80315" fill="none" stroke="black"/>
<path d="M63.9961,73.3987h -6.80315" fill="none" stroke="black"/>
<path d="M70.7992,66.4083h -13.6063" fill="none" stroke="black"/>
<path d="M70.7992,66.4083h -13.6063" fill="none" stroke="black"/>
<path d="M63.9961,59.418h -6.80315" fill="none" stroke="black"/>
<path d="M63.9961,52.4276h -6.80315" fill="none" stroke="black"/>
<path d="M63.9961,45.4373h -6.80315" fill="none" stroke="black"/>
<path d="M63.9961,38.4469h -6.80315" fill="none" stroke="black"/>
<text xml:space="preserve" x="47.7441" y="350.258" fill="black" font-size="12.8453" font-family="Helvetica">0</text>
<text xml:space="preserve" x="49.3732" y="315.232" fill="black" font-size="12.8453" font-family="Helvetica">1</text>
<text xml:space="preserve" x="47.7441" y="280.206" fill="black" font-size="12.8453" font-family="Helvetica">2</text>
<text xml:space="preserve" x="47.7441" y="245.995" fill="black" font-size="12.8453" font-family="Helvetica">3</text>
<text xml:space="preserve" x="47.7441" y="210.969" fill="black" font-size="12.8453" font-family="Helvetica">4</text>
<text xml:space="preserve" x="47.7441" y="175.944" fill="black" font-size="12.8453" font-family="Helvetica">5</text>
<text xml:space="preserve" x="47.7441" y="140.918" fill="black" font-size="12.8453" font-family="Helvetica">6</text>
<text xml:space="preserve" x="47.7441" y="105.892" fill="black" font-size="12.8453" font-family="Helvetica">7</text>
<text xml:space="preserve" x="47.7441" y="70.8661" fill="black" font-size="12.8453" font-family="Helvetica">8</text>
<g transform="rotate(-90,33.8967,101.819)">
<text xml:space="preserve" x="33.8967" y="101.819" fill="black" font-size="12.8453" font-family="Helvetica">height [mm]</text>
</g>
<text xml:space="preserve" x="261.157" y="18.7347" fill="black" font-size="16.9898" font-family="Helvetica">tracks</text>
<g fill="black">
<circle cx="152.144" cy="346.022" r="3.25821"/>
<circle cx="152.144" cy="346.022" r="3.25821"/>
<circle cx="152.144" cy="346.022" r="3.25821"/>
<circle cx="152.144" cy="346.022" r="3.25821"/>
<circle cx="152.144" cy="346.022" r="3.25821"/>
<circle cx="152.144" cy="346.022" r="3.25821"/>
<circle cx="152.144" cy="346.022" r="3.25821"/>
<circle cx="152.144" cy="346.022" r="3.25821"/>
<circle cx="152.144" cy="346.022" r="3.25821"/>
<circle cx="152.144" cy="346.022" r="3.25821"/>
<circle cx="152.144" cy="346.022" r="3.25821"/>
<circle cx="152.144" cy="346.022" r="3.25821"/>
<circle cx="152.144" cy="346.022" r="3.25821"/>
<circle cx="152.144" cy="346.022" r="3.25821"/>
<circle cx="152.144" cy="346.022" r="3.25821"/>
<circle cx="152.144" cy="346.022" r="3.25821"/>
<circle cx="152.144" cy="346.022" r="3.25821"/>
<circle cx="152.144" cy="346.022" r="3.25821"/>
<circle cx="152.144" cy="346.022" r="3.25821"/>
<circle cx="344.833" cy="171.264" r="3.25821"/>
<circle cx="152.144" cy="346.022" r="3.25821"/>
<circle cx="152.144" cy="346.022" r="3.25821"/>
<circle cx="225.764" cy="136.312" r="3.25821"/>
<circle cx="152.144" cy="346.022" r="3.25821"/>
<circle cx="152.144" cy="346.022" r="3.25821"/>
<circle cx="94.9882" cy="101.36" r="3.25821"/>
<circle cx="152.144" cy="346.022" r="3.25821"/>
<circle cx="152.144" cy="346.022" r="3.25821"/>
<circle cx="472.941" cy="66.4083" r="3.25821"/>
</g>
<text xml:space="preserve" x="261.157" y="18.7347" fill="black" font-size="16.9898" font-family="Helvetica">tracks</text></svg>
