<?xml version="1.0" standalone="no"?>
<svg width="567.429" height="384.969" viewBox="0 0 567.429 384.969" xmlns="http://www.w3.org/2000/svg" shape-rendering="crispEdges">
<title>
img/week2/tracks/svg/6630.svg
</title>
<desc>
Creator: ROOT Version 6.22/09
CreationDate: Thu Jun 24 11:06:10 2021</desc>
<defs>
</defs>
<rect x="0.5" y="0" width="566.929" height="384.469" fill="white"/>
<rect x="57.1929" y="38.4469" width="453.543" height="307.575" fill="white"/>
<rect x="57.1929" y="38.4469" width="453.543" height="307.575" fill="none" stroke="black"/>
<path d="M57.1929,346.022h 453.543" fill="none" stroke="black"/>
<path d="M95.7465,336.795v 9.22726" fill="none" stroke="black"/>
<path d="M107.304,341.409v 4.61363" fill="none" stroke="black"/>
<path d="M118.861,341.409v 4.61363" fill="none" stroke="black"/>
<path d="M130.419,341.409v 4.61363" fill="none" stroke="black"/>
<path d="M141.976,341.409v 4.61363" fill="none" stroke="black"/>
<path d="M153.534,336.795v 9.22726" fill="none" stroke="black"/>
<path d="M165.091,341.409v 4.61363" fill="none" stroke="black"/>
<path d="M176.649,341.409v 4.61363" fill="none" stroke="black"/>
<path d="M188.206,341.409v 4.61363" fill="none" stroke="black"/>
<path d="M199.763,341.409v 4.61363" fill="none" stroke="black"/>
<path d="M211.321,336.795v 9.22726" fill="none" stroke="black"/>
<path d="M222.878,341.409v 4.61363" fill="none" stroke="black"/>
<path d="M234.436,341.409v 4.61363" fill="none" stroke="black"/>
<path d="M245.993,341.409v 4.61363" fill="none" stroke="black"/>
<path d="M257.551,341.409v 4.61363" fill="none" stroke="black"/>
<path d="M269.108,336.795v 9.22726" fill="none" stroke="black"/>
<path d="M280.665,341.409v 4.61363" fill="none" stroke="black"/>
<path d="M292.223,341.409v 4.61363" fill="none" stroke="black"/>
<path d="M303.78,341.409v 4.61363" fill="none" stroke="black"/>
<path d="M315.338,341.409v 4.61363" fill="none" stroke="black"/>
<path d="M326.895,336.795v 9.22726" fill="none" stroke="black"/>
<path d="M338.453,341.409v 4.61363" fill="none" stroke="black"/>
<path d="M350.01,341.409v 4.61363" fill="none" stroke="black"/>
<path d="M361.567,341.409v 4.61363" fill="none" stroke="black"/>
<path d="M373.125,341.409v 4.61363" fill="none" stroke="black"/>
<path d="M384.682,336.795v 9.22726" fill="none" stroke="black"/>
<path d="M396.24,341.409v 4.61363" fill="none" stroke="black"/>
<path d="M407.797,341.409v 4.61363" fill="none" stroke="black"/>
<path d="M419.354,341.409v 4.61363" fill="none" stroke="black"/>
<path d="M430.912,341.409v 4.61363" fill="none" stroke="black"/>
<path d="M442.469,336.795v 9.22726" fill="none" stroke="black"/>
<path d="M454.027,341.409v 4.61363" fill="none" stroke="black"/>
<path d="M465.584,341.409v 4.61363" fill="none" stroke="black"/>
<path d="M477.142,341.409v 4.61363" fill="none" stroke="black"/>
<path d="M488.699,341.409v 4.61363" fill="none" stroke="black"/>
<path d="M500.257,336.795v 9.22726" fill="none" stroke="black"/>
<path d="M95.7465,336.795v 9.22726" fill="none" stroke="black"/>
<path d="M84.1891,341.409v 4.61363" fill="none" stroke="black"/>
<path d="M72.6317,341.409v 4.61363" fill="none" stroke="black"/>
<path d="M61.0742,341.409v 4.61363" fill="none" stroke="black"/>
<path d="M500.257,336.795v 9.22726" fill="none" stroke="black"/>
<text xml:space="preserve" x="87.6572" y="358.403" fill="black" font-size="12.8453" font-family="Helvetica">200</text>
<text xml:space="preserve" x="81.1408" y="358.403" fill="black" font-size="12.8453" font-family="Times">&#8722;</text>
<text xml:space="preserve" x="145.49" y="358.403" fill="black" font-size="12.8453" font-family="Helvetica">100</text>
<text xml:space="preserve" x="138.974" y="358.403" fill="black" font-size="12.8453" font-family="Times">&#8722;</text>
<text xml:space="preserve" x="207.397" y="358.403" fill="black" font-size="12.8453" font-family="Helvetica">0</text>
<text xml:space="preserve" x="257.899" y="358.403" fill="black" font-size="12.8453" font-family="Helvetica">100</text>
<text xml:space="preserve" x="315.732" y="358.403" fill="black" font-size="12.8453" font-family="Helvetica">200</text>
<text xml:space="preserve" x="373.565" y="358.403" fill="black" font-size="12.8453" font-family="Helvetica">300</text>
<text xml:space="preserve" x="431.399" y="358.403" fill="black" font-size="12.8453" font-family="Helvetica">400</text>
<text xml:space="preserve" x="489.232" y="358.403" fill="black" font-size="12.8453" font-family="Helvetica">500</text>
<text xml:space="preserve" x="454.206" y="370.622" fill="black" font-size="12.8453" font-family="Helvetica">yoko [mm]</text>
<path d="M57.1929,346.022v -307.575" fill="none" stroke="black"/>
<path d="M70.7992,346.022h -13.6063" fill="none" stroke="black"/>
<path d="M63.9961,339.032h -6.80315" fill="none" stroke="black"/>
<path d="M63.9961,332.042h -6.80315" fill="none" stroke="black"/>
<path d="M63.9961,325.051h -6.80315" fill="none" stroke="black"/>
<path d="M63.9961,318.061h -6.80315" fill="none" stroke="black"/>
<path d="M70.7992,311.071h -13.6063" fill="none" stroke="black"/>
<path d="M63.9961,304.08h -6.80315" fill="none" stroke="black"/>
<path d="M63.9961,297.09h -6.80315" fill="none" stroke="black"/>
<path d="M63.9961,290.099h -6.80315" fill="none" stroke="black"/>
<path d="M63.9961,283.109h -6.80315" fill="none" stroke="black"/>
<path d="M70.7992,276.119h -13.6063" fill="none" stroke="black"/>
<path d="M63.9961,269.128h -6.80315" fill="none" stroke="black"/>
<path d="M63.9961,262.138h -6.80315" fill="none" stroke="black"/>
<path d="M63.9961,255.148h -6.80315" fill="none" stroke="black"/>
<path d="M63.9961,248.157h -6.80315" fill="none" stroke="black"/>
<path d="M70.7992,241.167h -13.6063" fill="none" stroke="black"/>
<path d="M63.9961,234.177h -6.80315" fill="none" stroke="black"/>
<path d="M63.9961,227.186h -6.80315" fill="none" stroke="black"/>
<path d="M63.9961,220.196h -6.80315" fill="none" stroke="black"/>
<path d="M63.9961,213.206h -6.80315" fill="none" stroke="black"/>
<path d="M70.7992,206.215h -13.6063" fill="none" stroke="black"/>
<path d="M63.9961,199.225h -6.80315" fill="none" stroke="black"/>
<path d="M63.9961,192.235h -6.80315" fill="none" stroke="black"/>
<path d="M63.9961,185.244h -6.80315" fill="none" stroke="black"/>
<path d="M63.9961,178.254h -6.80315" fill="none" stroke="black"/>
<path d="M70.7992,171.264h -13.6063" fill="none" stroke="black"/>
<path d="M63.9961,164.273h -6.80315" fill="none" stroke="black"/>
<path d="M63.9961,157.283h -6.80315" fill="none" stroke="black"/>
<path d="M63.9961,150.292h -6.80315" fill="none" stroke="black"/>
<path d="M63.9961,143.302h -6.80315" fill="none" stroke="black"/>
<path d="M70.7992,136.312h -13.6063" fill="none" stroke="black"/>
<path d="M63.9961,129.321h -6.80315" fill="none" stroke="black"/>
<path d="M63.9961,122.331h -6.80315" fill="none" stroke="black"/>
<path d="M63.9961,115.341h -6.80315" fill="none" stroke="black"/>
<path d="M63.9961,108.35h -6.80315" fill="none" stroke="black"/>
<path d="M70.7992,101.36h -13.6063" fill="none" stroke="black"/>
<path d="M63.9961,94.3697h -6.80315" fill="none" stroke="black"/>
<path d="M63.9961,87.3794h -6.80315" fill="none" stroke="black"/>
<path d="M63.9961,80.389h -6.80315" fill="none" stroke="black"/>
<path d="M63.9961,73.3987h -6.80315" fill="none" stroke="black"/>
<path d="M70.7992,66.4083h -13.6063" fill="none" stroke="black"/>
<path d="M70.7992,66.4083h -13.6063" fill="none" stroke="black"/>
<path d="M63.9961,59.418h -6.80315" fill="none" stroke="black"/>
<path d="M63.9961,52.4276h -6.80315" fill="none" stroke="black"/>
<path d="M63.9961,45.4373h -6.80315" fill="none" stroke="black"/>
<path d="M63.9961,38.4469h -6.80315" fill="none" stroke="black"/>
<text xml:space="preserve" x="47.7441" y="350.258" fill="black" font-size="12.8453" font-family="Helvetica">0</text>
<text xml:space="preserve" x="49.3732" y="315.232" fill="black" font-size="12.8453" font-family="Helvetica">1</text>
<text xml:space="preserve" x="47.7441" y="280.206" fill="black" font-size="12.8453" font-family="Helvetica">2</text>
<text xml:space="preserve" x="47.7441" y="245.995" fill="black" font-size="12.8453" font-family="Helvetica">3</text>
<text xml:space="preserve" x="47.7441" y="210.969" fill="black" font-size="12.8453" font-family="Helvetica">4</text>
<text xml:space="preserve" x="47.7441" y="175.944" fill="black" font-size="12.8453" font-family="Helvetica">5</text>
<text xml:space="preserve" x="47.7441" y="140.918" fill="black" font-size="12.8453" font-family="Helvetica">6</text>
<text xml:space="preserve" x="47.7441" y="105.892" fill="black" font-size="12.8453" font-family="Helvetica">7</text>
<text xml:space="preserve" x="47.7441" y="70.8661" fill="black" font-size="12.8453" font-family="Helvetica">8</text>
<g transform="rotate(-90,33.8967,101.819)">
<text xml:space="preserve" x="33.8967" y="101.819" fill="black" font-size="12.8453" font-family="Helvetica">height [mm]</text>
</g>
<text xml:space="preserve" x="261.157" y="18.7347" fill="black" font-size="16.9898" font-family="Helvetica">tracks</text>
<g fill="black">
<circle cx="211.321" cy="346.022" r="3.25821"/>
<circle cx="184.032" cy="311.071" r="3.25821"/>
<circle cx="211.321" cy="346.022" r="3.25821"/>
<circle cx="211.321" cy="346.022" r="3.25821"/>
<circle cx="211.321" cy="346.022" r="3.25821"/>
<circle cx="260.002" cy="276.119" r="3.25821"/>
<circle cx="211.321" cy="346.022" r="3.25821"/>
<circle cx="211.321" cy="346.022" r="3.25821"/>
<circle cx="211.321" cy="346.022" r="3.25821"/>
<circle cx="345.761" cy="241.167" r="3.25821"/>
<circle cx="211.321" cy="346.022" r="3.25821"/>
<circle cx="211.321" cy="346.022" r="3.25821"/>
<circle cx="211.321" cy="346.022" r="3.25821"/>
<circle cx="265.521" cy="206.215" r="3.25821"/>
<circle cx="211.321" cy="346.022" r="3.25821"/>
<circle cx="211.321" cy="346.022" r="3.25821"/>
<circle cx="211.321" cy="346.022" r="3.25821"/>
<circle cx="268.022" cy="171.264" r="3.25821"/>
<circle cx="211.321" cy="346.022" r="3.25821"/>
<circle cx="211.321" cy="346.022" r="3.25821"/>
<circle cx="211.321" cy="346.022" r="3.25821"/>
<circle cx="472.941" cy="136.312" r="3.25821"/>
<circle cx="211.321" cy="346.022" r="3.25821"/>
<circle cx="211.321" cy="346.022" r="3.25821"/>
<circle cx="211.321" cy="346.022" r="3.25821"/>
<circle cx="94.9882" cy="101.36" r="3.25821"/>
<circle cx="211.321" cy="346.022" r="3.25821"/>
<circle cx="211.321" cy="346.022" r="3.25821"/>
<circle cx="211.321" cy="346.022" r="3.25821"/>
<circle cx="336.346" cy="66.4083" r="3.25821"/>
</g>
<text xml:space="preserve" x="261.157" y="18.7347" fill="black" font-size="16.9898" font-family="Helvetica">tracks</text></svg>
