<?xml version="1.0" standalone="no"?>
<svg width="567.429" height="384.969" viewBox="0 0 567.429 384.969" xmlns="http://www.w3.org/2000/svg" shape-rendering="crispEdges">
<title>
img/week2/tracks/svg/7645.svg
</title>
<desc>
Creator: ROOT Version 6.22/09
CreationDate: Thu Jun 24 11:06:12 2021</desc>
<defs>
</defs>
<rect x="0.5" y="0" width="566.929" height="384.469" fill="white"/>
<rect x="57.1929" y="38.4469" width="453.543" height="307.575" fill="white"/>
<rect x="57.1929" y="38.4469" width="453.543" height="307.575" fill="none" stroke="black"/>
<path d="M57.1929,346.022h 453.543" fill="none" stroke="black"/>
<path d="M68.615,336.795v 9.22726" fill="none" stroke="black"/>
<path d="M78.2605,341.409v 4.61363" fill="none" stroke="black"/>
<path d="M87.906,341.409v 4.61363" fill="none" stroke="black"/>
<path d="M97.5515,341.409v 4.61363" fill="none" stroke="black"/>
<path d="M107.197,341.409v 4.61363" fill="none" stroke="black"/>
<path d="M116.843,336.795v 9.22726" fill="none" stroke="black"/>
<path d="M126.488,341.409v 4.61363" fill="none" stroke="black"/>
<path d="M136.134,341.409v 4.61363" fill="none" stroke="black"/>
<path d="M145.779,341.409v 4.61363" fill="none" stroke="black"/>
<path d="M155.425,341.409v 4.61363" fill="none" stroke="black"/>
<path d="M165.07,336.795v 9.22726" fill="none" stroke="black"/>
<path d="M174.716,341.409v 4.61363" fill="none" stroke="black"/>
<path d="M184.361,341.409v 4.61363" fill="none" stroke="black"/>
<path d="M194.007,341.409v 4.61363" fill="none" stroke="black"/>
<path d="M203.652,341.409v 4.61363" fill="none" stroke="black"/>
<path d="M213.298,336.795v 9.22726" fill="none" stroke="black"/>
<path d="M222.943,341.409v 4.61363" fill="none" stroke="black"/>
<path d="M232.589,341.409v 4.61363" fill="none" stroke="black"/>
<path d="M242.234,341.409v 4.61363" fill="none" stroke="black"/>
<path d="M251.88,341.409v 4.61363" fill="none" stroke="black"/>
<path d="M261.526,336.795v 9.22726" fill="none" stroke="black"/>
<path d="M271.171,341.409v 4.61363" fill="none" stroke="black"/>
<path d="M280.817,341.409v 4.61363" fill="none" stroke="black"/>
<path d="M290.462,341.409v 4.61363" fill="none" stroke="black"/>
<path d="M300.108,341.409v 4.61363" fill="none" stroke="black"/>
<path d="M309.753,336.795v 9.22726" fill="none" stroke="black"/>
<path d="M319.399,341.409v 4.61363" fill="none" stroke="black"/>
<path d="M329.044,341.409v 4.61363" fill="none" stroke="black"/>
<path d="M338.69,341.409v 4.61363" fill="none" stroke="black"/>
<path d="M348.335,341.409v 4.61363" fill="none" stroke="black"/>
<path d="M357.981,336.795v 9.22726" fill="none" stroke="black"/>
<path d="M367.626,341.409v 4.61363" fill="none" stroke="black"/>
<path d="M377.272,341.409v 4.61363" fill="none" stroke="black"/>
<path d="M386.917,341.409v 4.61363" fill="none" stroke="black"/>
<path d="M396.563,341.409v 4.61363" fill="none" stroke="black"/>
<path d="M406.208,336.795v 9.22726" fill="none" stroke="black"/>
<path d="M415.854,341.409v 4.61363" fill="none" stroke="black"/>
<path d="M425.5,341.409v 4.61363" fill="none" stroke="black"/>
<path d="M435.145,341.409v 4.61363" fill="none" stroke="black"/>
<path d="M444.791,341.409v 4.61363" fill="none" stroke="black"/>
<path d="M454.436,336.795v 9.22726" fill="none" stroke="black"/>
<path d="M464.082,341.409v 4.61363" fill="none" stroke="black"/>
<path d="M473.727,341.409v 4.61363" fill="none" stroke="black"/>
<path d="M483.373,341.409v 4.61363" fill="none" stroke="black"/>
<path d="M493.018,341.409v 4.61363" fill="none" stroke="black"/>
<path d="M502.664,336.795v 9.22726" fill="none" stroke="black"/>
<path d="M68.615,336.795v 9.22726" fill="none" stroke="black"/>
<path d="M58.9694,341.409v 4.61363" fill="none" stroke="black"/>
<path d="M502.664,336.795v 9.22726" fill="none" stroke="black"/>
<text xml:space="preserve" x="60.7769" y="358.403" fill="black" font-size="12.8453" font-family="Helvetica">200</text>
<text xml:space="preserve" x="54.2605" y="358.403" fill="black" font-size="12.8453" font-family="Times">&#8722;</text>
<text xml:space="preserve" x="108.836" y="358.403" fill="black" font-size="12.8453" font-family="Helvetica">100</text>
<text xml:space="preserve" x="102.319" y="358.403" fill="black" font-size="12.8453" font-family="Times">&#8722;</text>
<text xml:space="preserve" x="161.782" y="358.403" fill="black" font-size="12.8453" font-family="Helvetica">0</text>
<text xml:space="preserve" x="202.509" y="358.403" fill="black" font-size="12.8453" font-family="Helvetica">100</text>
<text xml:space="preserve" x="250.568" y="358.403" fill="black" font-size="12.8453" font-family="Helvetica">200</text>
<text xml:space="preserve" x="298.627" y="358.403" fill="black" font-size="12.8453" font-family="Helvetica">300</text>
<text xml:space="preserve" x="346.685" y="358.403" fill="black" font-size="12.8453" font-family="Helvetica">400</text>
<text xml:space="preserve" x="395.558" y="358.403" fill="black" font-size="12.8453" font-family="Helvetica">500</text>
<text xml:space="preserve" x="443.617" y="358.403" fill="black" font-size="12.8453" font-family="Helvetica">600</text>
<text xml:space="preserve" x="491.676" y="358.403" fill="black" font-size="12.8453" font-family="Helvetica">700</text>
<text xml:space="preserve" x="454.206" y="370.622" fill="black" font-size="12.8453" font-family="Helvetica">yoko [mm]</text>
<path d="M57.1929,346.022v -307.575" fill="none" stroke="black"/>
<path d="M70.7992,346.022h -13.6063" fill="none" stroke="black"/>
<path d="M63.9961,339.032h -6.80315" fill="none" stroke="black"/>
<path d="M63.9961,332.042h -6.80315" fill="none" stroke="black"/>
<path d="M63.9961,325.051h -6.80315" fill="none" stroke="black"/>
<path d="M63.9961,318.061h -6.80315" fill="none" stroke="black"/>
<path d="M70.7992,311.071h -13.6063" fill="none" stroke="black"/>
<path d="M63.9961,304.08h -6.80315" fill="none" stroke="black"/>
<path d="M63.9961,297.09h -6.80315" fill="none" stroke="black"/>
<path d="M63.9961,290.099h -6.80315" fill="none" stroke="black"/>
<path d="M63.9961,283.109h -6.80315" fill="none" stroke="black"/>
<path d="M70.7992,276.119h -13.6063" fill="none" stroke="black"/>
<path d="M63.9961,269.128h -6.80315" fill="none" stroke="black"/>
<path d="M63.9961,262.138h -6.80315" fill="none" stroke="black"/>
<path d="M63.9961,255.148h -6.80315" fill="none" stroke="black"/>
<path d="M63.9961,248.157h -6.80315" fill="none" stroke="black"/>
<path d="M70.7992,241.167h -13.6063" fill="none" stroke="black"/>
<path d="M63.9961,234.177h -6.80315" fill="none" stroke="black"/>
<path d="M63.9961,227.186h -6.80315" fill="none" stroke="black"/>
<path d="M63.9961,220.196h -6.80315" fill="none" stroke="black"/>
<path d="M63.9961,213.206h -6.80315" fill="none" stroke="black"/>
<path d="M70.7992,206.215h -13.6063" fill="none" stroke="black"/>
<path d="M63.9961,199.225h -6.80315" fill="none" stroke="black"/>
<path d="M63.9961,192.235h -6.80315" fill="none" stroke="black"/>
<path d="M63.9961,185.244h -6.80315" fill="none" stroke="black"/>
<path d="M63.9961,178.254h -6.80315" fill="none" stroke="black"/>
<path d="M70.7992,171.264h -13.6063" fill="none" stroke="black"/>
<path d="M63.9961,164.273h -6.80315" fill="none" stroke="black"/>
<path d="M63.9961,157.283h -6.80315" fill="none" stroke="black"/>
<path d="M63.9961,150.292h -6.80315" fill="none" stroke="black"/>
<path d="M63.9961,143.302h -6.80315" fill="none" stroke="black"/>
<path d="M70.7992,136.312h -13.6063" fill="none" stroke="black"/>
<path d="M63.9961,129.321h -6.80315" fill="none" stroke="black"/>
<path d="M63.9961,122.331h -6.80315" fill="none" stroke="black"/>
<path d="M63.9961,115.341h -6.80315" fill="none" stroke="black"/>
<path d="M63.9961,108.35h -6.80315" fill="none" stroke="black"/>
<path d="M70.7992,101.36h -13.6063" fill="none" stroke="black"/>
<path d="M63.9961,94.3697h -6.80315" fill="none" stroke="black"/>
<path d="M63.9961,87.3794h -6.80315" fill="none" stroke="black"/>
<path d="M63.9961,80.389h -6.80315" fill="none" stroke="black"/>
<path d="M63.9961,73.3987h -6.80315" fill="none" stroke="black"/>
<path d="M70.7992,66.4083h -13.6063" fill="none" stroke="black"/>
<path d="M70.7992,66.4083h -13.6063" fill="none" stroke="black"/>
<path d="M63.9961,59.418h -6.80315" fill="none" stroke="black"/>
<path d="M63.9961,52.4276h -6.80315" fill="none" stroke="black"/>
<path d="M63.9961,45.4373h -6.80315" fill="none" stroke="black"/>
<path d="M63.9961,38.4469h -6.80315" fill="none" stroke="black"/>
<text xml:space="preserve" x="47.7441" y="350.258" fill="black" font-size="12.8453" font-family="Helvetica">0</text>
<text xml:space="preserve" x="49.3732" y="315.232" fill="black" font-size="12.8453" font-family="Helvetica">1</text>
<text xml:space="preserve" x="47.7441" y="280.206" fill="black" font-size="12.8453" font-family="Helvetica">2</text>
<text xml:space="preserve" x="47.7441" y="245.995" fill="black" font-size="12.8453" font-family="Helvetica">3</text>
<text xml:space="preserve" x="47.7441" y="210.969" fill="black" font-size="12.8453" font-family="Helvetica">4</text>
<text xml:space="preserve" x="47.7441" y="175.944" fill="black" font-size="12.8453" font-family="Helvetica">5</text>
<text xml:space="preserve" x="47.7441" y="140.918" fill="black" font-size="12.8453" font-family="Helvetica">6</text>
<text xml:space="preserve" x="47.7441" y="105.892" fill="black" font-size="12.8453" font-family="Helvetica">7</text>
<text xml:space="preserve" x="47.7441" y="70.8661" fill="black" font-size="12.8453" font-family="Helvetica">8</text>
<g transform="rotate(-90,33.8967,101.819)">
<text xml:space="preserve" x="33.8967" y="101.819" fill="black" font-size="12.8453" font-family="Helvetica">height [mm]</text>
</g>
<text xml:space="preserve" x="261.157" y="18.7347" fill="black" font-size="16.9898" font-family="Helvetica">tracks</text>
<g fill="black">
<circle cx="165.07" cy="346.022" r="3.25821"/>
<circle cx="289.765" cy="311.071" r="3.25821"/>
<circle cx="165.07" cy="346.022" r="3.25821"/>
<circle cx="165.07" cy="346.022" r="3.25821"/>
<circle cx="165.07" cy="346.022" r="3.25821"/>
<circle cx="472.941" cy="276.119" r="3.25821"/>
<circle cx="165.07" cy="346.022" r="3.25821"/>
<circle cx="165.07" cy="346.022" r="3.25821"/>
<circle cx="457.656" cy="241.167" r="3.25821"/>
<circle cx="165.07" cy="346.022" r="3.25821"/>
<circle cx="165.07" cy="346.022" r="3.25821"/>
<circle cx="165.07" cy="346.022" r="3.25821"/>
<circle cx="94.9882" cy="206.215" r="3.25821"/>
<circle cx="165.07" cy="346.022" r="3.25821"/>
<circle cx="165.07" cy="346.022" r="3.25821"/>
<circle cx="165.07" cy="346.022" r="3.25821"/>
<circle cx="433.546" cy="171.264" r="3.25821"/>
<circle cx="165.07" cy="346.022" r="3.25821"/>
<circle cx="165.07" cy="346.022" r="3.25821"/>
<circle cx="165.07" cy="346.022" r="3.25821"/>
<circle cx="457.883" cy="136.312" r="3.25821"/>
<circle cx="165.07" cy="346.022" r="3.25821"/>
<circle cx="165.07" cy="346.022" r="3.25821"/>
<circle cx="165.07" cy="346.022" r="3.25821"/>
<circle cx="356.455" cy="101.36" r="3.25821"/>
<circle cx="165.07" cy="346.022" r="3.25821"/>
<circle cx="165.07" cy="346.022" r="3.25821"/>
<circle cx="165.07" cy="346.022" r="3.25821"/>
<circle cx="376.829" cy="66.4083" r="3.25821"/>
</g>
<text xml:space="preserve" x="261.157" y="18.7347" fill="black" font-size="16.9898" font-family="Helvetica">tracks</text></svg>
