<?xml version="1.0" standalone="no"?>
<svg width="567.429" height="384.969" viewBox="0 0 567.429 384.969" xmlns="http://www.w3.org/2000/svg" shape-rendering="crispEdges">
<title>
img/week2/tracks/svg/7688.svg
</title>
<desc>
Creator: ROOT Version 6.22/09
CreationDate: Thu Jun 24 11:06:12 2021</desc>
<defs>
</defs>
<rect x="0.5" y="0" width="566.929" height="384.469" fill="white"/>
<rect x="57.1929" y="38.4469" width="453.543" height="307.575" fill="white"/>
<rect x="57.1929" y="38.4469" width="453.543" height="307.575" fill="none" stroke="black"/>
<path d="M57.1929,346.022h 453.543" fill="none" stroke="black"/>
<path d="M57.1929,336.795v 9.22726" fill="none" stroke="black"/>
<path d="M66.755,341.409v 4.61363" fill="none" stroke="black"/>
<path d="M76.317,341.409v 4.61363" fill="none" stroke="black"/>
<path d="M85.8791,341.409v 4.61363" fill="none" stroke="black"/>
<path d="M95.4411,341.409v 4.61363" fill="none" stroke="black"/>
<path d="M105.003,336.795v 9.22726" fill="none" stroke="black"/>
<path d="M114.565,341.409v 4.61363" fill="none" stroke="black"/>
<path d="M124.127,341.409v 4.61363" fill="none" stroke="black"/>
<path d="M133.689,341.409v 4.61363" fill="none" stroke="black"/>
<path d="M143.251,341.409v 4.61363" fill="none" stroke="black"/>
<path d="M152.813,336.795v 9.22726" fill="none" stroke="black"/>
<path d="M162.375,341.409v 4.61363" fill="none" stroke="black"/>
<path d="M171.938,341.409v 4.61363" fill="none" stroke="black"/>
<path d="M181.5,341.409v 4.61363" fill="none" stroke="black"/>
<path d="M191.062,341.409v 4.61363" fill="none" stroke="black"/>
<path d="M200.624,336.795v 9.22726" fill="none" stroke="black"/>
<path d="M210.186,341.409v 4.61363" fill="none" stroke="black"/>
<path d="M219.748,341.409v 4.61363" fill="none" stroke="black"/>
<path d="M229.31,341.409v 4.61363" fill="none" stroke="black"/>
<path d="M238.872,341.409v 4.61363" fill="none" stroke="black"/>
<path d="M248.434,336.795v 9.22726" fill="none" stroke="black"/>
<path d="M257.996,341.409v 4.61363" fill="none" stroke="black"/>
<path d="M267.558,341.409v 4.61363" fill="none" stroke="black"/>
<path d="M277.12,341.409v 4.61363" fill="none" stroke="black"/>
<path d="M286.682,341.409v 4.61363" fill="none" stroke="black"/>
<path d="M296.244,336.795v 9.22726" fill="none" stroke="black"/>
<path d="M305.806,341.409v 4.61363" fill="none" stroke="black"/>
<path d="M315.368,341.409v 4.61363" fill="none" stroke="black"/>
<path d="M324.93,341.409v 4.61363" fill="none" stroke="black"/>
<path d="M334.492,341.409v 4.61363" fill="none" stroke="black"/>
<path d="M344.054,336.795v 9.22726" fill="none" stroke="black"/>
<path d="M353.617,341.409v 4.61363" fill="none" stroke="black"/>
<path d="M363.179,341.409v 4.61363" fill="none" stroke="black"/>
<path d="M372.741,341.409v 4.61363" fill="none" stroke="black"/>
<path d="M382.303,341.409v 4.61363" fill="none" stroke="black"/>
<path d="M391.865,336.795v 9.22726" fill="none" stroke="black"/>
<path d="M401.427,341.409v 4.61363" fill="none" stroke="black"/>
<path d="M410.989,341.409v 4.61363" fill="none" stroke="black"/>
<path d="M420.551,341.409v 4.61363" fill="none" stroke="black"/>
<path d="M430.113,341.409v 4.61363" fill="none" stroke="black"/>
<path d="M439.675,336.795v 9.22726" fill="none" stroke="black"/>
<path d="M449.237,341.409v 4.61363" fill="none" stroke="black"/>
<path d="M458.799,341.409v 4.61363" fill="none" stroke="black"/>
<path d="M468.361,341.409v 4.61363" fill="none" stroke="black"/>
<path d="M477.923,341.409v 4.61363" fill="none" stroke="black"/>
<path d="M487.485,336.795v 9.22726" fill="none" stroke="black"/>
<path d="M487.485,336.795v 9.22726" fill="none" stroke="black"/>
<path d="M497.047,341.409v 4.61363" fill="none" stroke="black"/>
<path d="M506.609,341.409v 4.61363" fill="none" stroke="black"/>
<text xml:space="preserve" x="53.446" y="358.403" fill="black" font-size="12.8453" font-family="Helvetica">0</text>
<text xml:space="preserve" x="94.1736" y="358.403" fill="black" font-size="12.8453" font-family="Helvetica">100</text>
<text xml:space="preserve" x="141.418" y="358.403" fill="black" font-size="12.8453" font-family="Helvetica">200</text>
<text xml:space="preserve" x="189.476" y="358.403" fill="black" font-size="12.8453" font-family="Helvetica">300</text>
<text xml:space="preserve" x="237.535" y="358.403" fill="black" font-size="12.8453" font-family="Helvetica">400</text>
<text xml:space="preserve" x="285.594" y="358.403" fill="black" font-size="12.8453" font-family="Helvetica">500</text>
<text xml:space="preserve" x="332.838" y="358.403" fill="black" font-size="12.8453" font-family="Helvetica">600</text>
<text xml:space="preserve" x="380.896" y="358.403" fill="black" font-size="12.8453" font-family="Helvetica">700</text>
<text xml:space="preserve" x="428.955" y="358.403" fill="black" font-size="12.8453" font-family="Helvetica">800</text>
<text xml:space="preserve" x="476.199" y="358.403" fill="black" font-size="12.8453" font-family="Helvetica">900</text>
<text xml:space="preserve" x="454.206" y="370.622" fill="black" font-size="12.8453" font-family="Helvetica">yoko [mm]</text>
<path d="M57.1929,346.022v -307.575" fill="none" stroke="black"/>
<path d="M70.7992,346.022h -13.6063" fill="none" stroke="black"/>
<path d="M63.9961,339.032h -6.80315" fill="none" stroke="black"/>
<path d="M63.9961,332.042h -6.80315" fill="none" stroke="black"/>
<path d="M63.9961,325.051h -6.80315" fill="none" stroke="black"/>
<path d="M63.9961,318.061h -6.80315" fill="none" stroke="black"/>
<path d="M70.7992,311.071h -13.6063" fill="none" stroke="black"/>
<path d="M63.9961,304.08h -6.80315" fill="none" stroke="black"/>
<path d="M63.9961,297.09h -6.80315" fill="none" stroke="black"/>
<path d="M63.9961,290.099h -6.80315" fill="none" stroke="black"/>
<path d="M63.9961,283.109h -6.80315" fill="none" stroke="black"/>
<path d="M70.7992,276.119h -13.6063" fill="none" stroke="black"/>
<path d="M63.9961,269.128h -6.80315" fill="none" stroke="black"/>
<path d="M63.9961,262.138h -6.80315" fill="none" stroke="black"/>
<path d="M63.9961,255.148h -6.80315" fill="none" stroke="black"/>
<path d="M63.9961,248.157h -6.80315" fill="none" stroke="black"/>
<path d="M70.7992,241.167h -13.6063" fill="none" stroke="black"/>
<path d="M63.9961,234.177h -6.80315" fill="none" stroke="black"/>
<path d="M63.9961,227.186h -6.80315" fill="none" stroke="black"/>
<path d="M63.9961,220.196h -6.80315" fill="none" stroke="black"/>
<path d="M63.9961,213.206h -6.80315" fill="none" stroke="black"/>
<path d="M70.7992,206.215h -13.6063" fill="none" stroke="black"/>
<path d="M63.9961,199.225h -6.80315" fill="none" stroke="black"/>
<path d="M63.9961,192.235h -6.80315" fill="none" stroke="black"/>
<path d="M63.9961,185.244h -6.80315" fill="none" stroke="black"/>
<path d="M63.9961,178.254h -6.80315" fill="none" stroke="black"/>
<path d="M70.7992,171.264h -13.6063" fill="none" stroke="black"/>
<path d="M63.9961,164.273h -6.80315" fill="none" stroke="black"/>
<path d="M63.9961,157.283h -6.80315" fill="none" stroke="black"/>
<path d="M63.9961,150.292h -6.80315" fill="none" stroke="black"/>
<path d="M63.9961,143.302h -6.80315" fill="none" stroke="black"/>
<path d="M70.7992,136.312h -13.6063" fill="none" stroke="black"/>
<path d="M63.9961,129.321h -6.80315" fill="none" stroke="black"/>
<path d="M63.9961,122.331h -6.80315" fill="none" stroke="black"/>
<path d="M63.9961,115.341h -6.80315" fill="none" stroke="black"/>
<path d="M63.9961,108.35h -6.80315" fill="none" stroke="black"/>
<path d="M70.7992,101.36h -13.6063" fill="none" stroke="black"/>
<path d="M63.9961,94.3697h -6.80315" fill="none" stroke="black"/>
<path d="M63.9961,87.3794h -6.80315" fill="none" stroke="black"/>
<path d="M63.9961,80.389h -6.80315" fill="none" stroke="black"/>
<path d="M63.9961,73.3987h -6.80315" fill="none" stroke="black"/>
<path d="M70.7992,66.4083h -13.6063" fill="none" stroke="black"/>
<path d="M70.7992,66.4083h -13.6063" fill="none" stroke="black"/>
<path d="M63.9961,59.418h -6.80315" fill="none" stroke="black"/>
<path d="M63.9961,52.4276h -6.80315" fill="none" stroke="black"/>
<path d="M63.9961,45.4373h -6.80315" fill="none" stroke="black"/>
<path d="M63.9961,38.4469h -6.80315" fill="none" stroke="black"/>
<text xml:space="preserve" x="47.7441" y="350.258" fill="black" font-size="12.8453" font-family="Helvetica">0</text>
<text xml:space="preserve" x="49.3732" y="315.232" fill="black" font-size="12.8453" font-family="Helvetica">1</text>
<text xml:space="preserve" x="47.7441" y="280.206" fill="black" font-size="12.8453" font-family="Helvetica">2</text>
<text xml:space="preserve" x="47.7441" y="245.995" fill="black" font-size="12.8453" font-family="Helvetica">3</text>
<text xml:space="preserve" x="47.7441" y="210.969" fill="black" font-size="12.8453" font-family="Helvetica">4</text>
<text xml:space="preserve" x="47.7441" y="175.944" fill="black" font-size="12.8453" font-family="Helvetica">5</text>
<text xml:space="preserve" x="47.7441" y="140.918" fill="black" font-size="12.8453" font-family="Helvetica">6</text>
<text xml:space="preserve" x="47.7441" y="105.892" fill="black" font-size="12.8453" font-family="Helvetica">7</text>
<text xml:space="preserve" x="47.7441" y="70.8661" fill="black" font-size="12.8453" font-family="Helvetica">8</text>
<g transform="rotate(-90,33.8967,101.819)">
<text xml:space="preserve" x="33.8967" y="101.819" fill="black" font-size="12.8453" font-family="Helvetica">height [mm]</text>
</g>
<text xml:space="preserve" x="261.157" y="18.7347" fill="black" font-size="16.9898" font-family="Helvetica">tracks</text>
<g fill="black">
<circle cx="57.1929" cy="346.022" r="3.25821"/>
<circle cx="57.1929" cy="346.022" r="3.25821"/>
<circle cx="57.1929" cy="346.022" r="3.25821"/>
<circle cx="57.1929" cy="346.022" r="3.25821"/>
<circle cx="57.1929" cy="346.022" r="3.25821"/>
<circle cx="57.1929" cy="346.022" r="3.25821"/>
<circle cx="57.1929" cy="346.022" r="3.25821"/>
<circle cx="57.1929" cy="346.022" r="3.25821"/>
<circle cx="57.1929" cy="346.022" r="3.25821"/>
<circle cx="57.1929" cy="346.022" r="3.25821"/>
<circle cx="57.1929" cy="346.022" r="3.25821"/>
<circle cx="57.1929" cy="346.022" r="3.25821"/>
<circle cx="57.1929" cy="346.022" r="3.25821"/>
<circle cx="57.1929" cy="346.022" r="3.25821"/>
<circle cx="57.1929" cy="346.022" r="3.25821"/>
<circle cx="57.1929" cy="346.022" r="3.25821"/>
<circle cx="57.1929" cy="346.022" r="3.25821"/>
<circle cx="57.1929" cy="346.022" r="3.25821"/>
<circle cx="57.1929" cy="346.022" r="3.25821"/>
<circle cx="469.505" cy="171.264" r="3.25821"/>
<circle cx="57.1929" cy="346.022" r="3.25821"/>
<circle cx="57.1929" cy="346.022" r="3.25821"/>
<circle cx="57.1929" cy="346.022" r="3.25821"/>
<circle cx="273.645" cy="136.312" r="3.25821"/>
<circle cx="57.1929" cy="346.022" r="3.25821"/>
<circle cx="139.68" cy="101.36" r="3.25821"/>
<circle cx="354.163" cy="101.36" r="3.25821"/>
<circle cx="57.1929" cy="346.022" r="3.25821"/>
<circle cx="125.137" cy="66.4083" r="3.25821"/>
<circle cx="267.119" cy="66.4083" r="3.25821"/>
</g>
<text xml:space="preserve" x="261.157" y="18.7347" fill="black" font-size="16.9898" font-family="Helvetica">tracks</text></svg>
