<?xml version="1.0" standalone="no"?>
<svg width="567.429" height="384.969" viewBox="0 0 567.429 384.969" xmlns="http://www.w3.org/2000/svg" shape-rendering="crispEdges">
<title>
img/week2/tracks/svg/9291.svg
</title>
<desc>
Creator: ROOT Version 6.22/09
CreationDate: Thu Jun 24 11:06:15 2021</desc>
<defs>
</defs>
<rect x="0.5" y="0" width="566.929" height="384.469" fill="white"/>
<rect x="57.1929" y="38.4469" width="453.543" height="307.575" fill="white"/>
<rect x="57.1929" y="38.4469" width="453.543" height="307.575" fill="none" stroke="black"/>
<path d="M57.1929,346.022h 453.543" fill="none" stroke="black"/>
<path d="M61.1479,336.795v 9.22726" fill="none" stroke="black"/>
<path d="M71.5427,341.409v 4.61363" fill="none" stroke="black"/>
<path d="M81.9375,341.409v 4.61363" fill="none" stroke="black"/>
<path d="M92.3322,341.409v 4.61363" fill="none" stroke="black"/>
<path d="M102.727,341.409v 4.61363" fill="none" stroke="black"/>
<path d="M113.122,336.795v 9.22726" fill="none" stroke="black"/>
<path d="M123.517,341.409v 4.61363" fill="none" stroke="black"/>
<path d="M133.911,341.409v 4.61363" fill="none" stroke="black"/>
<path d="M144.306,341.409v 4.61363" fill="none" stroke="black"/>
<path d="M154.701,341.409v 4.61363" fill="none" stroke="black"/>
<path d="M165.096,336.795v 9.22726" fill="none" stroke="black"/>
<path d="M175.49,341.409v 4.61363" fill="none" stroke="black"/>
<path d="M185.885,341.409v 4.61363" fill="none" stroke="black"/>
<path d="M196.28,341.409v 4.61363" fill="none" stroke="black"/>
<path d="M206.675,341.409v 4.61363" fill="none" stroke="black"/>
<path d="M217.07,336.795v 9.22726" fill="none" stroke="black"/>
<path d="M227.464,341.409v 4.61363" fill="none" stroke="black"/>
<path d="M237.859,341.409v 4.61363" fill="none" stroke="black"/>
<path d="M248.254,341.409v 4.61363" fill="none" stroke="black"/>
<path d="M258.649,341.409v 4.61363" fill="none" stroke="black"/>
<path d="M269.043,336.795v 9.22726" fill="none" stroke="black"/>
<path d="M279.438,341.409v 4.61363" fill="none" stroke="black"/>
<path d="M289.833,341.409v 4.61363" fill="none" stroke="black"/>
<path d="M300.228,341.409v 4.61363" fill="none" stroke="black"/>
<path d="M310.623,341.409v 4.61363" fill="none" stroke="black"/>
<path d="M321.017,336.795v 9.22726" fill="none" stroke="black"/>
<path d="M331.412,341.409v 4.61363" fill="none" stroke="black"/>
<path d="M341.807,341.409v 4.61363" fill="none" stroke="black"/>
<path d="M352.202,341.409v 4.61363" fill="none" stroke="black"/>
<path d="M362.596,341.409v 4.61363" fill="none" stroke="black"/>
<path d="M372.991,336.795v 9.22726" fill="none" stroke="black"/>
<path d="M383.386,341.409v 4.61363" fill="none" stroke="black"/>
<path d="M393.781,341.409v 4.61363" fill="none" stroke="black"/>
<path d="M404.176,341.409v 4.61363" fill="none" stroke="black"/>
<path d="M414.57,341.409v 4.61363" fill="none" stroke="black"/>
<path d="M424.965,336.795v 9.22726" fill="none" stroke="black"/>
<path d="M435.36,341.409v 4.61363" fill="none" stroke="black"/>
<path d="M445.755,341.409v 4.61363" fill="none" stroke="black"/>
<path d="M456.15,341.409v 4.61363" fill="none" stroke="black"/>
<path d="M466.544,341.409v 4.61363" fill="none" stroke="black"/>
<path d="M476.939,336.795v 9.22726" fill="none" stroke="black"/>
<path d="M61.1479,336.795v 9.22726" fill="none" stroke="black"/>
<path d="M476.939,336.795v 9.22726" fill="none" stroke="black"/>
<path d="M487.334,341.409v 4.61363" fill="none" stroke="black"/>
<path d="M497.729,341.409v 4.61363" fill="none" stroke="black"/>
<path d="M508.123,341.409v 4.61363" fill="none" stroke="black"/>
<text xml:space="preserve" x="53.446" y="358.403" fill="black" font-size="12.8453" font-family="Helvetica">300</text>
<text xml:space="preserve" x="46.9295" y="358.403" fill="black" font-size="12.8453" font-family="Times">&#8722;</text>
<text xml:space="preserve" x="105.577" y="358.403" fill="black" font-size="12.8453" font-family="Helvetica">200</text>
<text xml:space="preserve" x="99.061" y="358.403" fill="black" font-size="12.8453" font-family="Times">&#8722;</text>
<text xml:space="preserve" x="157.709" y="358.403" fill="black" font-size="12.8453" font-family="Helvetica">100</text>
<text xml:space="preserve" x="151.192" y="358.403" fill="black" font-size="12.8453" font-family="Times">&#8722;</text>
<text xml:space="preserve" x="213.098" y="358.403" fill="black" font-size="12.8453" font-family="Helvetica">0</text>
<text xml:space="preserve" x="257.899" y="358.403" fill="black" font-size="12.8453" font-family="Helvetica">100</text>
<text xml:space="preserve" x="310.03" y="358.403" fill="black" font-size="12.8453" font-family="Helvetica">200</text>
<text xml:space="preserve" x="362.162" y="358.403" fill="black" font-size="12.8453" font-family="Helvetica">300</text>
<text xml:space="preserve" x="414.293" y="358.403" fill="black" font-size="12.8453" font-family="Helvetica">400</text>
<text xml:space="preserve" x="465.61" y="358.403" fill="black" font-size="12.8453" font-family="Helvetica">500</text>
<text xml:space="preserve" x="454.206" y="370.622" fill="black" font-size="12.8453" font-family="Helvetica">yoko [mm]</text>
<path d="M57.1929,346.022v -307.575" fill="none" stroke="black"/>
<path d="M70.7992,346.022h -13.6063" fill="none" stroke="black"/>
<path d="M63.9961,339.032h -6.80315" fill="none" stroke="black"/>
<path d="M63.9961,332.042h -6.80315" fill="none" stroke="black"/>
<path d="M63.9961,325.051h -6.80315" fill="none" stroke="black"/>
<path d="M63.9961,318.061h -6.80315" fill="none" stroke="black"/>
<path d="M70.7992,311.071h -13.6063" fill="none" stroke="black"/>
<path d="M63.9961,304.08h -6.80315" fill="none" stroke="black"/>
<path d="M63.9961,297.09h -6.80315" fill="none" stroke="black"/>
<path d="M63.9961,290.099h -6.80315" fill="none" stroke="black"/>
<path d="M63.9961,283.109h -6.80315" fill="none" stroke="black"/>
<path d="M70.7992,276.119h -13.6063" fill="none" stroke="black"/>
<path d="M63.9961,269.128h -6.80315" fill="none" stroke="black"/>
<path d="M63.9961,262.138h -6.80315" fill="none" stroke="black"/>
<path d="M63.9961,255.148h -6.80315" fill="none" stroke="black"/>
<path d="M63.9961,248.157h -6.80315" fill="none" stroke="black"/>
<path d="M70.7992,241.167h -13.6063" fill="none" stroke="black"/>
<path d="M63.9961,234.177h -6.80315" fill="none" stroke="black"/>
<path d="M63.9961,227.186h -6.80315" fill="none" stroke="black"/>
<path d="M63.9961,220.196h -6.80315" fill="none" stroke="black"/>
<path d="M63.9961,213.206h -6.80315" fill="none" stroke="black"/>
<path d="M70.7992,206.215h -13.6063" fill="none" stroke="black"/>
<path d="M63.9961,199.225h -6.80315" fill="none" stroke="black"/>
<path d="M63.9961,192.235h -6.80315" fill="none" stroke="black"/>
<path d="M63.9961,185.244h -6.80315" fill="none" stroke="black"/>
<path d="M63.9961,178.254h -6.80315" fill="none" stroke="black"/>
<path d="M70.7992,171.264h -13.6063" fill="none" stroke="black"/>
<path d="M63.9961,164.273h -6.80315" fill="none" stroke="black"/>
<path d="M63.9961,157.283h -6.80315" fill="none" stroke="black"/>
<path d="M63.9961,150.292h -6.80315" fill="none" stroke="black"/>
<path d="M63.9961,143.302h -6.80315" fill="none" stroke="black"/>
<path d="M70.7992,136.312h -13.6063" fill="none" stroke="black"/>
<path d="M63.9961,129.321h -6.80315" fill="none" stroke="black"/>
<path d="M63.9961,122.331h -6.80315" fill="none" stroke="black"/>
<path d="M63.9961,115.341h -6.80315" fill="none" stroke="black"/>
<path d="M63.9961,108.35h -6.80315" fill="none" stroke="black"/>
<path d="M70.7992,101.36h -13.6063" fill="none" stroke="black"/>
<path d="M63.9961,94.3697h -6.80315" fill="none" stroke="black"/>
<path d="M63.9961,87.3794h -6.80315" fill="none" stroke="black"/>
<path d="M63.9961,80.389h -6.80315" fill="none" stroke="black"/>
<path d="M63.9961,73.3987h -6.80315" fill="none" stroke="black"/>
<path d="M70.7992,66.4083h -13.6063" fill="none" stroke="black"/>
<path d="M70.7992,66.4083h -13.6063" fill="none" stroke="black"/>
<path d="M63.9961,59.418h -6.80315" fill="none" stroke="black"/>
<path d="M63.9961,52.4276h -6.80315" fill="none" stroke="black"/>
<path d="M63.9961,45.4373h -6.80315" fill="none" stroke="black"/>
<path d="M63.9961,38.4469h -6.80315" fill="none" stroke="black"/>
<text xml:space="preserve" x="47.7441" y="350.258" fill="black" font-size="12.8453" font-family="Helvetica">0</text>
<text xml:space="preserve" x="49.3732" y="315.232" fill="black" font-size="12.8453" font-family="Helvetica">1</text>
<text xml:space="preserve" x="47.7441" y="280.206" fill="black" font-size="12.8453" font-family="Helvetica">2</text>
<text xml:space="preserve" x="47.7441" y="245.995" fill="black" font-size="12.8453" font-family="Helvetica">3</text>
<text xml:space="preserve" x="47.7441" y="210.969" fill="black" font-size="12.8453" font-family="Helvetica">4</text>
<text xml:space="preserve" x="47.7441" y="175.944" fill="black" font-size="12.8453" font-family="Helvetica">5</text>
<text xml:space="preserve" x="47.7441" y="140.918" fill="black" font-size="12.8453" font-family="Helvetica">6</text>
<text xml:space="preserve" x="47.7441" y="105.892" fill="black" font-size="12.8453" font-family="Helvetica">7</text>
<text xml:space="preserve" x="47.7441" y="70.8661" fill="black" font-size="12.8453" font-family="Helvetica">8</text>
<g transform="rotate(-90,33.8967,101.819)">
<text xml:space="preserve" x="33.8967" y="101.819" fill="black" font-size="12.8453" font-family="Helvetica">height [mm]</text>
</g>
<text xml:space="preserve" x="261.157" y="18.7347" fill="black" font-size="16.9898" font-family="Helvetica">tracks</text>
<g fill="black">
<circle cx="217.07" cy="346.022" r="3.25821"/>
<circle cx="217.07" cy="346.022" r="3.25821"/>
<circle cx="217.07" cy="346.022" r="3.25821"/>
<circle cx="217.07" cy="346.022" r="3.25821"/>
<circle cx="212.853" cy="276.119" r="3.25821"/>
<circle cx="217.07" cy="346.022" r="3.25821"/>
<circle cx="217.07" cy="346.022" r="3.25821"/>
<circle cx="217.07" cy="346.022" r="3.25821"/>
<circle cx="94.9882" cy="241.167" r="3.25821"/>
<circle cx="217.07" cy="346.022" r="3.25821"/>
<circle cx="217.07" cy="346.022" r="3.25821"/>
<circle cx="217.07" cy="346.022" r="3.25821"/>
<circle cx="472.941" cy="206.215" r="3.25821"/>
<circle cx="217.07" cy="346.022" r="3.25821"/>
<circle cx="217.07" cy="346.022" r="3.25821"/>
<circle cx="217.07" cy="346.022" r="3.25821"/>
<circle cx="217.07" cy="346.022" r="3.25821"/>
<circle cx="307.789" cy="171.264" r="3.25821"/>
<circle cx="217.07" cy="346.022" r="3.25821"/>
<circle cx="217.07" cy="346.022" r="3.25821"/>
<circle cx="217.07" cy="346.022" r="3.25821"/>
<circle cx="331.987" cy="136.312" r="3.25821"/>
<circle cx="217.07" cy="346.022" r="3.25821"/>
<circle cx="217.07" cy="346.022" r="3.25821"/>
<circle cx="217.07" cy="346.022" r="3.25821"/>
<circle cx="151.3" cy="101.36" r="3.25821"/>
<circle cx="217.07" cy="346.022" r="3.25821"/>
<circle cx="217.07" cy="346.022" r="3.25821"/>
<circle cx="217.07" cy="346.022" r="3.25821"/>
<circle cx="217.07" cy="346.022" r="3.25821"/>
<circle cx="445.277" cy="66.4083" r="3.25821"/>
</g>
<text xml:space="preserve" x="261.157" y="18.7347" fill="black" font-size="16.9898" font-family="Helvetica">tracks</text></svg>
