<?xml version="1.0" standalone="no"?>
<svg width="567.429" height="384.969" viewBox="0 0 567.429 384.969" xmlns="http://www.w3.org/2000/svg" shape-rendering="crispEdges">
<title>
img/week2/tracks/svg/9829.svg
</title>
<desc>
Creator: ROOT Version 6.22/09
CreationDate: Thu Jun 24 11:06:16 2021</desc>
<defs>
</defs>
<rect x="0.5" y="0" width="566.929" height="384.469" fill="white"/>
<rect x="57.1929" y="38.4469" width="453.543" height="307.575" fill="white"/>
<rect x="57.1929" y="38.4469" width="453.543" height="307.575" fill="none" stroke="black"/>
<path d="M57.1929,346.022h 453.543" fill="none" stroke="black"/>
<path d="M57.1929,336.795v 9.22726" fill="none" stroke="black"/>
<path d="M67.5827,341.409v 4.61363" fill="none" stroke="black"/>
<path d="M77.9724,341.409v 4.61363" fill="none" stroke="black"/>
<path d="M88.3621,341.409v 4.61363" fill="none" stroke="black"/>
<path d="M98.7519,341.409v 4.61363" fill="none" stroke="black"/>
<path d="M109.142,336.795v 9.22726" fill="none" stroke="black"/>
<path d="M119.531,341.409v 4.61363" fill="none" stroke="black"/>
<path d="M129.921,341.409v 4.61363" fill="none" stroke="black"/>
<path d="M140.311,341.409v 4.61363" fill="none" stroke="black"/>
<path d="M150.701,341.409v 4.61363" fill="none" stroke="black"/>
<path d="M161.09,336.795v 9.22726" fill="none" stroke="black"/>
<path d="M171.48,341.409v 4.61363" fill="none" stroke="black"/>
<path d="M181.87,341.409v 4.61363" fill="none" stroke="black"/>
<path d="M192.26,341.409v 4.61363" fill="none" stroke="black"/>
<path d="M202.649,341.409v 4.61363" fill="none" stroke="black"/>
<path d="M213.039,336.795v 9.22726" fill="none" stroke="black"/>
<path d="M223.429,341.409v 4.61363" fill="none" stroke="black"/>
<path d="M233.818,341.409v 4.61363" fill="none" stroke="black"/>
<path d="M244.208,341.409v 4.61363" fill="none" stroke="black"/>
<path d="M254.598,341.409v 4.61363" fill="none" stroke="black"/>
<path d="M264.988,336.795v 9.22726" fill="none" stroke="black"/>
<path d="M275.377,341.409v 4.61363" fill="none" stroke="black"/>
<path d="M285.767,341.409v 4.61363" fill="none" stroke="black"/>
<path d="M296.157,341.409v 4.61363" fill="none" stroke="black"/>
<path d="M306.547,341.409v 4.61363" fill="none" stroke="black"/>
<path d="M316.936,336.795v 9.22726" fill="none" stroke="black"/>
<path d="M327.326,341.409v 4.61363" fill="none" stroke="black"/>
<path d="M337.716,341.409v 4.61363" fill="none" stroke="black"/>
<path d="M348.106,341.409v 4.61363" fill="none" stroke="black"/>
<path d="M358.495,341.409v 4.61363" fill="none" stroke="black"/>
<path d="M368.885,336.795v 9.22726" fill="none" stroke="black"/>
<path d="M379.275,341.409v 4.61363" fill="none" stroke="black"/>
<path d="M389.665,341.409v 4.61363" fill="none" stroke="black"/>
<path d="M400.054,341.409v 4.61363" fill="none" stroke="black"/>
<path d="M410.444,341.409v 4.61363" fill="none" stroke="black"/>
<path d="M420.834,336.795v 9.22726" fill="none" stroke="black"/>
<path d="M431.224,341.409v 4.61363" fill="none" stroke="black"/>
<path d="M441.613,341.409v 4.61363" fill="none" stroke="black"/>
<path d="M452.003,341.409v 4.61363" fill="none" stroke="black"/>
<path d="M462.393,341.409v 4.61363" fill="none" stroke="black"/>
<path d="M472.782,336.795v 9.22726" fill="none" stroke="black"/>
<path d="M472.782,336.795v 9.22726" fill="none" stroke="black"/>
<path d="M483.172,341.409v 4.61363" fill="none" stroke="black"/>
<path d="M493.562,341.409v 4.61363" fill="none" stroke="black"/>
<path d="M503.952,341.409v 4.61363" fill="none" stroke="black"/>
<text xml:space="preserve" x="53.446" y="358.403" fill="black" font-size="12.8453" font-family="Helvetica">0</text>
<text xml:space="preserve" x="98.2464" y="358.403" fill="black" font-size="12.8453" font-family="Helvetica">100</text>
<text xml:space="preserve" x="150.378" y="358.403" fill="black" font-size="12.8453" font-family="Helvetica">200</text>
<text xml:space="preserve" x="201.695" y="358.403" fill="black" font-size="12.8453" font-family="Helvetica">300</text>
<text xml:space="preserve" x="253.826" y="358.403" fill="black" font-size="12.8453" font-family="Helvetica">400</text>
<text xml:space="preserve" x="305.958" y="358.403" fill="black" font-size="12.8453" font-family="Helvetica">500</text>
<text xml:space="preserve" x="358.089" y="358.403" fill="black" font-size="12.8453" font-family="Helvetica">600</text>
<text xml:space="preserve" x="410.22" y="358.403" fill="black" font-size="12.8453" font-family="Helvetica">700</text>
<text xml:space="preserve" x="461.537" y="358.403" fill="black" font-size="12.8453" font-family="Helvetica">800</text>
<text xml:space="preserve" x="454.206" y="370.622" fill="black" font-size="12.8453" font-family="Helvetica">yoko [mm]</text>
<path d="M57.1929,346.022v -307.575" fill="none" stroke="black"/>
<path d="M70.7992,346.022h -13.6063" fill="none" stroke="black"/>
<path d="M63.9961,339.032h -6.80315" fill="none" stroke="black"/>
<path d="M63.9961,332.042h -6.80315" fill="none" stroke="black"/>
<path d="M63.9961,325.051h -6.80315" fill="none" stroke="black"/>
<path d="M63.9961,318.061h -6.80315" fill="none" stroke="black"/>
<path d="M70.7992,311.071h -13.6063" fill="none" stroke="black"/>
<path d="M63.9961,304.08h -6.80315" fill="none" stroke="black"/>
<path d="M63.9961,297.09h -6.80315" fill="none" stroke="black"/>
<path d="M63.9961,290.099h -6.80315" fill="none" stroke="black"/>
<path d="M63.9961,283.109h -6.80315" fill="none" stroke="black"/>
<path d="M70.7992,276.119h -13.6063" fill="none" stroke="black"/>
<path d="M63.9961,269.128h -6.80315" fill="none" stroke="black"/>
<path d="M63.9961,262.138h -6.80315" fill="none" stroke="black"/>
<path d="M63.9961,255.148h -6.80315" fill="none" stroke="black"/>
<path d="M63.9961,248.157h -6.80315" fill="none" stroke="black"/>
<path d="M70.7992,241.167h -13.6063" fill="none" stroke="black"/>
<path d="M63.9961,234.177h -6.80315" fill="none" stroke="black"/>
<path d="M63.9961,227.186h -6.80315" fill="none" stroke="black"/>
<path d="M63.9961,220.196h -6.80315" fill="none" stroke="black"/>
<path d="M63.9961,213.206h -6.80315" fill="none" stroke="black"/>
<path d="M70.7992,206.215h -13.6063" fill="none" stroke="black"/>
<path d="M63.9961,199.225h -6.80315" fill="none" stroke="black"/>
<path d="M63.9961,192.235h -6.80315" fill="none" stroke="black"/>
<path d="M63.9961,185.244h -6.80315" fill="none" stroke="black"/>
<path d="M63.9961,178.254h -6.80315" fill="none" stroke="black"/>
<path d="M70.7992,171.264h -13.6063" fill="none" stroke="black"/>
<path d="M63.9961,164.273h -6.80315" fill="none" stroke="black"/>
<path d="M63.9961,157.283h -6.80315" fill="none" stroke="black"/>
<path d="M63.9961,150.292h -6.80315" fill="none" stroke="black"/>
<path d="M63.9961,143.302h -6.80315" fill="none" stroke="black"/>
<path d="M70.7992,136.312h -13.6063" fill="none" stroke="black"/>
<path d="M63.9961,129.321h -6.80315" fill="none" stroke="black"/>
<path d="M63.9961,122.331h -6.80315" fill="none" stroke="black"/>
<path d="M63.9961,115.341h -6.80315" fill="none" stroke="black"/>
<path d="M63.9961,108.35h -6.80315" fill="none" stroke="black"/>
<path d="M70.7992,101.36h -13.6063" fill="none" stroke="black"/>
<path d="M63.9961,94.3697h -6.80315" fill="none" stroke="black"/>
<path d="M63.9961,87.3794h -6.80315" fill="none" stroke="black"/>
<path d="M63.9961,80.389h -6.80315" fill="none" stroke="black"/>
<path d="M63.9961,73.3987h -6.80315" fill="none" stroke="black"/>
<path d="M70.7992,66.4083h -13.6063" fill="none" stroke="black"/>
<path d="M70.7992,66.4083h -13.6063" fill="none" stroke="black"/>
<path d="M63.9961,59.418h -6.80315" fill="none" stroke="black"/>
<path d="M63.9961,52.4276h -6.80315" fill="none" stroke="black"/>
<path d="M63.9961,45.4373h -6.80315" fill="none" stroke="black"/>
<path d="M63.9961,38.4469h -6.80315" fill="none" stroke="black"/>
<text xml:space="preserve" x="47.7441" y="350.258" fill="black" font-size="12.8453" font-family="Helvetica">0</text>
<text xml:space="preserve" x="49.3732" y="315.232" fill="black" font-size="12.8453" font-family="Helvetica">1</text>
<text xml:space="preserve" x="47.7441" y="280.206" fill="black" font-size="12.8453" font-family="Helvetica">2</text>
<text xml:space="preserve" x="47.7441" y="245.995" fill="black" font-size="12.8453" font-family="Helvetica">3</text>
<text xml:space="preserve" x="47.7441" y="210.969" fill="black" font-size="12.8453" font-family="Helvetica">4</text>
<text xml:space="preserve" x="47.7441" y="175.944" fill="black" font-size="12.8453" font-family="Helvetica">5</text>
<text xml:space="preserve" x="47.7441" y="140.918" fill="black" font-size="12.8453" font-family="Helvetica">6</text>
<text xml:space="preserve" x="47.7441" y="105.892" fill="black" font-size="12.8453" font-family="Helvetica">7</text>
<text xml:space="preserve" x="47.7441" y="70.8661" fill="black" font-size="12.8453" font-family="Helvetica">8</text>
<g transform="rotate(-90,33.8967,101.819)">
<text xml:space="preserve" x="33.8967" y="101.819" fill="black" font-size="12.8453" font-family="Helvetica">height [mm]</text>
</g>
<text xml:space="preserve" x="261.157" y="18.7347" fill="black" font-size="16.9898" font-family="Helvetica">tracks</text>
<g fill="black">
<circle cx="57.1929" cy="346.022" r="3.25821"/>
<circle cx="57.1929" cy="346.022" r="3.25821"/>
<circle cx="57.1929" cy="346.022" r="3.25821"/>
<circle cx="57.1929" cy="346.022" r="3.25821"/>
<circle cx="57.1929" cy="346.022" r="3.25821"/>
<circle cx="57.1929" cy="346.022" r="3.25821"/>
<circle cx="57.1929" cy="346.022" r="3.25821"/>
<circle cx="57.1929" cy="346.022" r="3.25821"/>
<circle cx="57.1929" cy="346.022" r="3.25821"/>
<circle cx="57.1929" cy="346.022" r="3.25821"/>
<circle cx="57.1929" cy="346.022" r="3.25821"/>
<circle cx="469.505" cy="241.167" r="3.25821"/>
<circle cx="57.1929" cy="346.022" r="3.25821"/>
<circle cx="57.1929" cy="346.022" r="3.25821"/>
<circle cx="57.1929" cy="346.022" r="3.25821"/>
<circle cx="188.726" cy="206.215" r="3.25821"/>
<circle cx="57.1929" cy="346.022" r="3.25821"/>
<circle cx="57.1929" cy="346.022" r="3.25821"/>
<circle cx="57.1929" cy="346.022" r="3.25821"/>
<circle cx="227.274" cy="171.264" r="3.25821"/>
<circle cx="57.1929" cy="346.022" r="3.25821"/>
<circle cx="57.1929" cy="346.022" r="3.25821"/>
<circle cx="57.1929" cy="346.022" r="3.25821"/>
<circle cx="172.055" cy="136.312" r="3.25821"/>
<circle cx="57.1929" cy="346.022" r="3.25821"/>
<circle cx="57.1929" cy="346.022" r="3.25821"/>
<circle cx="302.186" cy="101.36" r="3.25821"/>
<circle cx="57.1929" cy="346.022" r="3.25821"/>
<circle cx="57.1929" cy="346.022" r="3.25821"/>
<circle cx="57.1929" cy="346.022" r="3.25821"/>
<circle cx="246.722" cy="66.4083" r="3.25821"/>
<circle cx="208.154" cy="66.4083" r="3.25821"/>
</g>
<text xml:space="preserve" x="261.157" y="18.7347" fill="black" font-size="16.9898" font-family="Helvetica">tracks</text></svg>
