<?xml version="1.0" standalone="no"?>
<svg width="567.429" height="384.969" viewBox="0 0 567.429 384.969" xmlns="http://www.w3.org/2000/svg" shape-rendering="crispEdges">
<title>
img/week2/tracks/svg/9994.svg
</title>
<desc>
Creator: ROOT Version 6.22/09
CreationDate: Thu Jun 24 11:06:16 2021</desc>
<defs>
</defs>
<rect x="0.5" y="0" width="566.929" height="384.469" fill="white"/>
<rect x="57.1929" y="38.4469" width="453.543" height="307.575" fill="white"/>
<rect x="57.1929" y="38.4469" width="453.543" height="307.575" fill="none" stroke="black"/>
<path d="M57.1929,346.022h 453.543" fill="none" stroke="black"/>
<path d="M76.6017,336.795v 9.22726" fill="none" stroke="black"/>
<path d="M85.8974,341.409v 4.61363" fill="none" stroke="black"/>
<path d="M95.1932,341.409v 4.61363" fill="none" stroke="black"/>
<path d="M104.489,341.409v 4.61363" fill="none" stroke="black"/>
<path d="M113.785,341.409v 4.61363" fill="none" stroke="black"/>
<path d="M123.081,336.795v 9.22726" fill="none" stroke="black"/>
<path d="M132.376,341.409v 4.61363" fill="none" stroke="black"/>
<path d="M141.672,341.409v 4.61363" fill="none" stroke="black"/>
<path d="M150.968,341.409v 4.61363" fill="none" stroke="black"/>
<path d="M160.264,341.409v 4.61363" fill="none" stroke="black"/>
<path d="M169.559,336.795v 9.22726" fill="none" stroke="black"/>
<path d="M178.855,341.409v 4.61363" fill="none" stroke="black"/>
<path d="M188.151,341.409v 4.61363" fill="none" stroke="black"/>
<path d="M197.447,341.409v 4.61363" fill="none" stroke="black"/>
<path d="M206.742,341.409v 4.61363" fill="none" stroke="black"/>
<path d="M216.038,336.795v 9.22726" fill="none" stroke="black"/>
<path d="M225.334,341.409v 4.61363" fill="none" stroke="black"/>
<path d="M234.63,341.409v 4.61363" fill="none" stroke="black"/>
<path d="M243.925,341.409v 4.61363" fill="none" stroke="black"/>
<path d="M253.221,341.409v 4.61363" fill="none" stroke="black"/>
<path d="M262.517,336.795v 9.22726" fill="none" stroke="black"/>
<path d="M271.813,341.409v 4.61363" fill="none" stroke="black"/>
<path d="M281.109,341.409v 4.61363" fill="none" stroke="black"/>
<path d="M290.404,341.409v 4.61363" fill="none" stroke="black"/>
<path d="M299.7,341.409v 4.61363" fill="none" stroke="black"/>
<path d="M308.996,336.795v 9.22726" fill="none" stroke="black"/>
<path d="M318.292,341.409v 4.61363" fill="none" stroke="black"/>
<path d="M327.587,341.409v 4.61363" fill="none" stroke="black"/>
<path d="M336.883,341.409v 4.61363" fill="none" stroke="black"/>
<path d="M346.179,341.409v 4.61363" fill="none" stroke="black"/>
<path d="M355.475,336.795v 9.22726" fill="none" stroke="black"/>
<path d="M364.77,341.409v 4.61363" fill="none" stroke="black"/>
<path d="M374.066,341.409v 4.61363" fill="none" stroke="black"/>
<path d="M383.362,341.409v 4.61363" fill="none" stroke="black"/>
<path d="M392.658,341.409v 4.61363" fill="none" stroke="black"/>
<path d="M401.953,336.795v 9.22726" fill="none" stroke="black"/>
<path d="M411.249,341.409v 4.61363" fill="none" stroke="black"/>
<path d="M420.545,341.409v 4.61363" fill="none" stroke="black"/>
<path d="M429.841,341.409v 4.61363" fill="none" stroke="black"/>
<path d="M439.137,341.409v 4.61363" fill="none" stroke="black"/>
<path d="M448.432,336.795v 9.22726" fill="none" stroke="black"/>
<path d="M457.728,341.409v 4.61363" fill="none" stroke="black"/>
<path d="M467.024,341.409v 4.61363" fill="none" stroke="black"/>
<path d="M476.32,341.409v 4.61363" fill="none" stroke="black"/>
<path d="M485.615,341.409v 4.61363" fill="none" stroke="black"/>
<path d="M494.911,336.795v 9.22726" fill="none" stroke="black"/>
<path d="M76.6017,336.795v 9.22726" fill="none" stroke="black"/>
<path d="M67.3059,341.409v 4.61363" fill="none" stroke="black"/>
<path d="M58.0101,341.409v 4.61363" fill="none" stroke="black"/>
<path d="M494.911,336.795v 9.22726" fill="none" stroke="black"/>
<path d="M504.207,341.409v 4.61363" fill="none" stroke="black"/>
<text xml:space="preserve" x="68.9225" y="358.403" fill="black" font-size="12.8453" font-family="Helvetica">400</text>
<text xml:space="preserve" x="62.4061" y="358.403" fill="black" font-size="12.8453" font-family="Times">&#8722;</text>
<text xml:space="preserve" x="115.352" y="358.403" fill="black" font-size="12.8453" font-family="Helvetica">300</text>
<text xml:space="preserve" x="108.836" y="358.403" fill="black" font-size="12.8453" font-family="Times">&#8722;</text>
<text xml:space="preserve" x="161.782" y="358.403" fill="black" font-size="12.8453" font-family="Helvetica">200</text>
<text xml:space="preserve" x="155.265" y="358.403" fill="black" font-size="12.8453" font-family="Times">&#8722;</text>
<text xml:space="preserve" x="208.211" y="358.403" fill="black" font-size="12.8453" font-family="Helvetica">100</text>
<text xml:space="preserve" x="201.695" y="358.403" fill="black" font-size="12.8453" font-family="Times">&#8722;</text>
<text xml:space="preserve" x="258.713" y="358.403" fill="black" font-size="12.8453" font-family="Helvetica">0</text>
<text xml:space="preserve" x="297.812" y="358.403" fill="black" font-size="12.8453" font-family="Helvetica">100</text>
<text xml:space="preserve" x="344.242" y="358.403" fill="black" font-size="12.8453" font-family="Helvetica">200</text>
<text xml:space="preserve" x="390.671" y="358.403" fill="black" font-size="12.8453" font-family="Helvetica">300</text>
<text xml:space="preserve" x="437.101" y="358.403" fill="black" font-size="12.8453" font-family="Helvetica">400</text>
<text xml:space="preserve" x="483.53" y="358.403" fill="black" font-size="12.8453" font-family="Helvetica">500</text>
<text xml:space="preserve" x="454.206" y="370.622" fill="black" font-size="12.8453" font-family="Helvetica">yoko [mm]</text>
<path d="M57.1929,346.022v -307.575" fill="none" stroke="black"/>
<path d="M70.7992,346.022h -13.6063" fill="none" stroke="black"/>
<path d="M63.9961,339.032h -6.80315" fill="none" stroke="black"/>
<path d="M63.9961,332.042h -6.80315" fill="none" stroke="black"/>
<path d="M63.9961,325.051h -6.80315" fill="none" stroke="black"/>
<path d="M63.9961,318.061h -6.80315" fill="none" stroke="black"/>
<path d="M70.7992,311.071h -13.6063" fill="none" stroke="black"/>
<path d="M63.9961,304.08h -6.80315" fill="none" stroke="black"/>
<path d="M63.9961,297.09h -6.80315" fill="none" stroke="black"/>
<path d="M63.9961,290.099h -6.80315" fill="none" stroke="black"/>
<path d="M63.9961,283.109h -6.80315" fill="none" stroke="black"/>
<path d="M70.7992,276.119h -13.6063" fill="none" stroke="black"/>
<path d="M63.9961,269.128h -6.80315" fill="none" stroke="black"/>
<path d="M63.9961,262.138h -6.80315" fill="none" stroke="black"/>
<path d="M63.9961,255.148h -6.80315" fill="none" stroke="black"/>
<path d="M63.9961,248.157h -6.80315" fill="none" stroke="black"/>
<path d="M70.7992,241.167h -13.6063" fill="none" stroke="black"/>
<path d="M63.9961,234.177h -6.80315" fill="none" stroke="black"/>
<path d="M63.9961,227.186h -6.80315" fill="none" stroke="black"/>
<path d="M63.9961,220.196h -6.80315" fill="none" stroke="black"/>
<path d="M63.9961,213.206h -6.80315" fill="none" stroke="black"/>
<path d="M70.7992,206.215h -13.6063" fill="none" stroke="black"/>
<path d="M63.9961,199.225h -6.80315" fill="none" stroke="black"/>
<path d="M63.9961,192.235h -6.80315" fill="none" stroke="black"/>
<path d="M63.9961,185.244h -6.80315" fill="none" stroke="black"/>
<path d="M63.9961,178.254h -6.80315" fill="none" stroke="black"/>
<path d="M70.7992,171.264h -13.6063" fill="none" stroke="black"/>
<path d="M63.9961,164.273h -6.80315" fill="none" stroke="black"/>
<path d="M63.9961,157.283h -6.80315" fill="none" stroke="black"/>
<path d="M63.9961,150.292h -6.80315" fill="none" stroke="black"/>
<path d="M63.9961,143.302h -6.80315" fill="none" stroke="black"/>
<path d="M70.7992,136.312h -13.6063" fill="none" stroke="black"/>
<path d="M63.9961,129.321h -6.80315" fill="none" stroke="black"/>
<path d="M63.9961,122.331h -6.80315" fill="none" stroke="black"/>
<path d="M63.9961,115.341h -6.80315" fill="none" stroke="black"/>
<path d="M63.9961,108.35h -6.80315" fill="none" stroke="black"/>
<path d="M70.7992,101.36h -13.6063" fill="none" stroke="black"/>
<path d="M63.9961,94.3697h -6.80315" fill="none" stroke="black"/>
<path d="M63.9961,87.3794h -6.80315" fill="none" stroke="black"/>
<path d="M63.9961,80.389h -6.80315" fill="none" stroke="black"/>
<path d="M63.9961,73.3987h -6.80315" fill="none" stroke="black"/>
<path d="M70.7992,66.4083h -13.6063" fill="none" stroke="black"/>
<path d="M70.7992,66.4083h -13.6063" fill="none" stroke="black"/>
<path d="M63.9961,59.418h -6.80315" fill="none" stroke="black"/>
<path d="M63.9961,52.4276h -6.80315" fill="none" stroke="black"/>
<path d="M63.9961,45.4373h -6.80315" fill="none" stroke="black"/>
<path d="M63.9961,38.4469h -6.80315" fill="none" stroke="black"/>
<text xml:space="preserve" x="47.7441" y="350.258" fill="black" font-size="12.8453" font-family="Helvetica">0</text>
<text xml:space="preserve" x="49.3732" y="315.232" fill="black" font-size="12.8453" font-family="Helvetica">1</text>
<text xml:space="preserve" x="47.7441" y="280.206" fill="black" font-size="12.8453" font-family="Helvetica">2</text>
<text xml:space="preserve" x="47.7441" y="245.995" fill="black" font-size="12.8453" font-family="Helvetica">3</text>
<text xml:space="preserve" x="47.7441" y="210.969" fill="black" font-size="12.8453" font-family="Helvetica">4</text>
<text xml:space="preserve" x="47.7441" y="175.944" fill="black" font-size="12.8453" font-family="Helvetica">5</text>
<text xml:space="preserve" x="47.7441" y="140.918" fill="black" font-size="12.8453" font-family="Helvetica">6</text>
<text xml:space="preserve" x="47.7441" y="105.892" fill="black" font-size="12.8453" font-family="Helvetica">7</text>
<text xml:space="preserve" x="47.7441" y="70.8661" fill="black" font-size="12.8453" font-family="Helvetica">8</text>
<g transform="rotate(-90,33.8967,101.819)">
<text xml:space="preserve" x="33.8967" y="101.819" fill="black" font-size="12.8453" font-family="Helvetica">height [mm]</text>
</g>
<text xml:space="preserve" x="261.157" y="18.7347" fill="black" font-size="16.9898" font-family="Helvetica">tracks</text>
<g fill="black">
<circle cx="262.517" cy="346.022" r="3.25821"/>
<circle cx="382.69" cy="311.071" r="3.25821"/>
<circle cx="262.517" cy="346.022" r="3.25821"/>
<circle cx="262.517" cy="346.022" r="3.25821"/>
<circle cx="262.517" cy="346.022" r="3.25821"/>
<circle cx="172.896" cy="276.119" r="3.25821"/>
<circle cx="262.517" cy="346.022" r="3.25821"/>
<circle cx="262.517" cy="346.022" r="3.25821"/>
<circle cx="262.517" cy="346.022" r="3.25821"/>
<circle cx="414.11" cy="241.167" r="3.25821"/>
<circle cx="262.517" cy="346.022" r="3.25821"/>
<circle cx="262.517" cy="346.022" r="3.25821"/>
<circle cx="262.517" cy="346.022" r="3.25821"/>
<circle cx="454.291" cy="206.215" r="3.25821"/>
<circle cx="262.517" cy="346.022" r="3.25821"/>
<circle cx="262.517" cy="346.022" r="3.25821"/>
<circle cx="262.517" cy="346.022" r="3.25821"/>
<circle cx="94.9882" cy="171.264" r="3.25821"/>
<circle cx="262.517" cy="346.022" r="3.25821"/>
<circle cx="262.517" cy="346.022" r="3.25821"/>
<circle cx="472.941" cy="136.312" r="3.25821"/>
<circle cx="401.17" cy="136.312" r="3.25821"/>
<circle cx="262.517" cy="346.022" r="3.25821"/>
<circle cx="262.517" cy="346.022" r="3.25821"/>
<circle cx="262.517" cy="346.022" r="3.25821"/>
<circle cx="273.204" cy="101.36" r="3.25821"/>
<circle cx="262.517" cy="346.022" r="3.25821"/>
<circle cx="262.517" cy="346.022" r="3.25821"/>
<circle cx="262.517" cy="346.022" r="3.25821"/>
<circle cx="363.076" cy="66.4083" r="3.25821"/>
</g>
<text xml:space="preserve" x="261.157" y="18.7347" fill="black" font-size="16.9898" font-family="Helvetica">tracks</text></svg>
