<?xml version="1.0" standalone="no"?>
<svg width="567.429" height="386.304" viewBox="0 0 567.429 386.304" xmlns="http://www.w3.org/2000/svg" shape-rendering="crispEdges">
<title>
img/week1/3018_CH29_Clbed.svg
</title>
<desc>
Creator: ROOT Version 6.22/08
CreationDate: Mon Jun 21 14:35:48 2021</desc>
<defs>
</defs>
<rect x="0.5" y="0" width="566.929" height="385.804" fill="white"/>
<rect x="57.1929" y="38.5804" width="453.543" height="308.643" fill="white"/>
<rect x="57.1929" y="38.5804" width="453.543" height="308.643" fill="none" stroke="black"/>
<path d="M57.1929,347.224h 8.24624v -0.345007h 1.64925v -0.690014h 0.824624v 0.690014h 0.824624v 0.345007h 1.64925v -0.690014h 0.824624v 0.345007h 0.824624v 0.345007h 0.824624v -0.345007h 0.824624v 0.345007h 0.824624v -1.72504h 0.824624v 1.38003h
 0.824624v -0.690014h 1.64925v -2.76006h 0.824624v 2.07004h 1.64925v 0.345007h 0.824624v -1.72504h 0.824624v 0.690014h 1.64925v -5.17511h 0.824624v 2.76006h 1.64925v -0.345007h 0.824624v -1.72504h 0.824624v -1.03502h 0.824624v 2.41505h 0.824624v
 -5.17511h 0.824624v 2.07004h 0.824624v 0.690014h 0.824624v -0.345007h 0.824624v 2.41505h 0.824624v 0.345007h 0.824624v 0.690014h 0.824624v -0.345007h 0.824624v 1.03502h 0.824624v 0.690014h 0.824624v 0.345007h 0.824624v 1.38003h 0.824624v -0.345007h
 0.824624v -1.38003h 0.824624v -0.690014h 0.824624v 2.07004h 0.824624v -4.14009h 0.824624v 1.38003h 0.824624v -2.07004h 0.824624v 0.345007h 0.824624v -1.03502h 0.824624v -2.41505h 0.824624v 1.38003h 0.824624v -4.48509h 1.64925v -2.07004h 0.824624v
 -3.79508h 0.824624v -1.72504h 0.824624v -3.79508h 0.824624v -2.41505h 0.824624v 0.345007h 0.824624v -8.62518h 0.824624v -1.03502h 0.824624v -0.345007h 0.824624v -4.14009h 0.824624v -4.14009h 0.824624v -3.10506h 0.824624v 5.86512h 1.64925v 0.345007h
 0.824624v -1.38003h 0.824624v 11.3852h 0.824624v -0.345007h 0.824624v 6.90014h 0.824624v -1.72504h 0.824624v 7.24515h 0.824624v 4.48509h 0.824624v -1.38003h 0.824624v 4.14009h 1.64925v 1.03502h 0.824624v -11.7302h 0.824624v 8.97019h 1.64925v
 0.690014h 0.824624v -7.59016h 0.824624v -0.690014h 0.824624v -3.79508h 0.824624v 0.345007h 0.824624v -10.0052h 0.824624v 4.48509h 0.824624v -6.55514h 0.824624v -11.0402h 0.824624v -5.86512h 1.64925v -26.5655h 0.824624v 1.72504h 0.824624v -1.38003h
 0.824624v -2.07004h 0.824624v -20.0104h 0.824624v -1.72504h 0.824624v -14.8353h 0.824624v 5.86512h 0.824624v -2.07004h 0.824624v -7.24515h 0.824624v 3.10506h 0.824624v 14.4903h 0.824624v 12.4203h 0.824624v 5.86512h 0.824624v 18.6304h 1.64925v
 12.0752h 0.824624v 12.0752h 1.64925v 1.38003h 0.824624v 11.3852h 0.824624v -5.52011h 0.824624v 12.7653h 0.824624v -6.21013h 0.824624v -2.41505h 0.824624v 3.79508h 0.824624v -5.17511h 0.824624v -9.6602h 0.824624v -9.6602h 0.824624v 5.17511h 0.824624v
 -12.7653h 0.824624v -14.4903h 0.824624v -18.6304h 0.824624v 3.45007h 0.824624v 2.76006h 0.824624v -27.2556h 0.824624v -18.6304h 0.824624v -10.3502h 0.824624v -18.9754h 0.824624v 0.690014h 0.824624v -10.6952h 0.824624v -31.7407h 0.824624v 3.79508h
 0.824624v 2.41505h 0.824624v -17.9404h 0.824624v 12.4203h 0.824624v 19.3204h 0.824624v 12.0752h 0.824624v 2.07004h 0.824624v 28.6356h 0.824624v 11.3852h 0.824624v 23.1155h 0.824624v 3.45007h 0.824624v 16.5603h 0.824624v 13.1103h 0.824624v 7.59016h
 0.824624v 13.8003h 0.824624v 1.72504h 0.824624v 0.345007h 0.824624v 1.72504h 0.824624v -3.45007h 0.824624v 1.38003h 0.824624v 6.90014h 0.824624v -15.8703h 0.824624v -4.48509h 0.824624v 2.76006h 0.824624v -35.5357h 0.824624v 5.52011h 0.824624v
 -27.2556h 0.824624v -9.31519h 0.824624v -11.0402h 0.824624v -8.28017h 0.824624v -52.0961h 0.824624v -6.55514h 0.824624v -10.6952h 0.824624v -12.7653h 0.824624v -34.1557h 0.824624v -2.41505h 0.824624v -4.8301h 0.824624v 1.72504h 0.824624v 10.0052h
 0.824624v -3.79508h 0.824624v 18.2854h 0.824624v 28.6356h 0.824624v -7.59016h 0.824624v 20.7004h 0.824624v 35.8807h 0.824624v 24.8405h 0.824624v 14.1453h 0.824624v 23.8055h 0.824624v 7.59016h 0.824624v 12.7653h 0.824624v 11.7302h 0.824624v 3.45007h
 0.824624v 10.6952h 0.824624v -0.690014h 0.824624v -0.345007h 0.824624v -2.41505h 0.824624v -7.59016h 0.824624v 2.76006h 0.824624v -20.7004h 0.824624v 3.10506h 0.824624v -11.0402h 0.824624v -5.86512h 0.824624v -31.0506h 0.824624v 7.24515h 0.824624v
 -41.0558h 0.824624v -17.5954h 0.824624v -12.7653h 0.824624v -19.3204h 0.824624v -40.0208h 0.824624v 18.6304h 0.824624v -46.921h 0.824624v 2.41505h 0.824624v -11.7302h 0.824624v -0.690014h 0.824624v 0.690014h 0.824624v 16.5603h 0.824624v 0.345007h
 0.824624v 30.0156h 0.824624v 13.1103h 0.824624v 5.52011h 0.824624v 37.9508h 0.824624v 34.1557h 0.824624v -8.97019h 0.824624v 48.646h 0.824624v 16.9053h 0.824624v 6.90014h 0.824624v 7.59016h 0.824624v 7.59016h 0.824624v 10.6952h 0.824624v 12.4203h
 0.824624v -12.0752h 0.824624v 0.690014h 0.824624v -1.72504h 0.824624v -4.8301h 0.824624v -1.03502h 1.64925v -31.0506h 0.824624v 8.62518h 0.824624v -28.2906h 0.824624v -10.3502h 0.824624v -14.4903h 0.824624v -20.3554h 0.824624v -16.9053h 0.824624v
 -18.2854h 0.824624v -16.2153h 1.64925v -29.3256h 0.824624v -15.1803h 0.824624v -6.90014h 0.824624v 17.9404h 0.824624v -11.3852h 0.824624v 4.14009h 0.824624v 26.5655h 0.824624v 7.59016h 0.824624v -3.10506h 0.824624v 57.6162h 0.824624v 12.4203h
 0.824624v 25.5305h 0.824624v 8.28017h 0.824624v 21.3904h 0.824624v 13.1103h 0.824624v 15.1803h 0.824624v -8.97019h 0.824624v 23.4605h 0.824624v -5.17511h 0.824624v 14.1453h 1.64925v 2.07004h 0.824624v -9.31519h 1.64925v -13.1103h 0.824624v 6.21013h
 0.824624v -20.3554h 0.824624v -2.41505h 0.824624v -7.93516h 0.824624v -14.1453h 0.824624v -7.24515h 0.824624v -2.41505h 0.824624v -34.1557h 0.824624v 6.55514h 0.824624v -13.8003h 0.824624v -12.7653h 0.824624v -16.5603h 0.824624v 3.10506h 0.824624v
 -10.3502h 0.824624v 18.9754h 0.824624v -21.7354h 0.824624v 16.9053h 0.824624v 13.8003h 0.824624v -13.4553h 0.824624v 36.5708h 0.824624v 11.3852h 0.824624v 10.0052h 0.824624v 10.3502h 0.824624v 27.2556h 0.824624v 5.86512h 0.824624v 11.0402h 0.824624v
 7.93516h 0.824624v 4.8301h 0.824624v 7.59016h 0.824624v 3.10506h 0.824624v 5.17511h 0.824624v -2.76006h 0.824624v 2.41505h 0.824624v 4.14009h 0.824624v -9.31519h 0.824624v 2.41505h 0.824624v -7.24515h 0.824624v -9.6602h 0.824624v 10.6952h 0.824624v
 -17.9404h 1.64925v -12.0752h 0.824624v -8.97019h 0.824624v -13.8003h 0.824624v -3.79508h 0.824624v -14.4903h 0.824624v 7.93516h 0.824624v -20.7004h 0.824624v 5.17511h 0.824624v -1.72504h 0.824624v 6.90014h 0.824624v -1.03502h 0.824624v 4.8301h
 0.824624v -6.90014h 0.824624v 33.4657h 0.824624v -12.7653h 0.824624v 15.1803h 0.824624v 14.8353h 0.824624v 3.79508h 0.824624v 5.17511h 0.824624v 17.5954h 0.824624v -5.17511h 0.824624v 18.9754h 0.824624v 1.38003h 0.824624v 3.79508h 0.824624v 4.14009h
 0.824624v -3.45007h 0.824624v 0.345007h 0.824624v 8.28017h 0.824624v 5.52011h 0.824624v -9.6602h 0.824624v -5.86512h 0.824624v 0.345007h 0.824624v -0.345007h 0.824624v -6.21013h 0.824624v -11.0402h 0.824624v 2.07004h 0.824624v -8.62518h 0.824624v
 3.79508h 0.824624v -7.24515h 0.824624v -3.10506h 0.824624v -16.5603h 0.824624v 6.55514h 0.824624v -12.7653h 0.824624v 17.5954h 0.824624v -7.59016h 0.824624v 14.8353h 0.824624v -21.0454h 0.824624v 12.4203h 0.824624v 3.45007h 0.824624v -1.03502h
 0.824624v 4.48509h 0.824624v 4.48509h 0.824624v 8.62518h 0.824624v 2.76006h 0.824624v 12.0752h 0.824624v 5.17511h 0.824624v 3.45007h 0.824624v 5.17511h 0.824624v 1.72504h 0.824624v 0.345007h 0.824624v 2.07004h 0.824624v 3.79508h 0.824624v -2.41505h
 0.824624v 2.07004h 0.824624v -5.86512h 0.824624v 5.17511h 0.824624v -4.14009h 0.824624v -4.14009h 0.824624v 5.17511h 0.824624v -1.72504h 0.824624v -2.41505h 0.824624v 0.345007h 0.824624v -8.97019h 0.824624v -3.45007h 0.824624v -1.72504h 0.824624v
 2.07004h 0.824624v -1.03502h 0.824624v -2.76006h 0.824624v -8.62518h 0.824624v -0.345007h 0.824624v 2.07004h 0.824624v 9.6602h 0.824624v -4.48509h 0.824624v 5.17511h 0.824624v -2.76006h 0.824624v 0.690014h 0.824624v 8.97019h 0.824624v 1.38003h
 0.824624v -1.72504h 0.824624v 8.97019h 0.824624v -4.8301h 0.824624v 7.59016h 0.824624v -1.03502h 0.824624v 4.8301h 0.824624v -0.345007h 0.824624v 2.07004h 0.824624v 3.45007h 0.824624v -2.07004h 0.824624v -0.690014h 0.824624v -0.690014h 0.824624v
 2.41505h 0.824624v 0.345007h 0.824624v 0.690014h 0.824624v -1.38003h 0.824624v -3.45007h 0.824624v 3.45007h 0.824624v 0.690014h 0.824624v -6.21013h 0.824624v -0.345007h 0.824624v 3.10506h 0.824624v -5.52011h 0.824624v 0.345007h 0.824624v -3.79508h
 0.824624v -2.41505h 0.824624v 5.17511h 0.824624v -0.345007h 0.824624v 0.345007h 0.824624v -2.76006h 0.824624v -0.690014h 0.824624v 2.07004h 0.824624v 6.21013h 0.824624v 0.690014h 0.824624v -1.38003h 0.824624v 2.41505h 0.824624v -2.07004h 0.824624v
 5.52011h 0.824624v -1.38003h 0.824624v -0.345007h 0.824624v 4.8301h 0.824624v -1.03502h 0.824624v 1.38003h 0.824624v -0.690014h 0.824624v 1.38003h 2.47387v -0.690014h 0.824624v 2.07004h 0.824624v -0.690014h 0.824624v -2.76006h 0.824624v 1.38003h
 0.824624v -0.345007h 0.824624v -2.41505h 0.824624v 1.03502h 0.824624v 1.03502h 0.824624v -4.14009h 0.824624v 4.14009h 0.824624v 0.345007h 0.824624v -2.07004h 0.824624v 1.72504h 0.824624v -5.86512h 0.824624v -1.03502h 0.824624v 5.17511h 0.824624v
 -0.690014h 0.824624v 1.72504h 0.824624v -2.76006h 0.824624v 2.07004h 0.824624v -0.690014h 0.824624v -1.38003h 0.824624v 1.03502h 0.824624v 1.03502h 0.824624v 1.72504h 0.824624v -1.38003h 0.824624v 1.72504h 0.824624v -0.345007h 0.824624v 1.38003h
 0.824624v 1.38003h 0.824624v -0.690014h 0.824624v 1.72504h 0.824624v -1.72504h 0.824624v -1.38003h 0.824624v 3.10506h 0.824624v -1.03502h 0.824624v 1.03502h 0.824624v -2.07004h 0.824624v 1.03502h 0.824624v 1.03502h 0.824624v 0.345007h 0.824624v
 -1.03502h 0.824624v -2.41505h 0.824624v 0.345007h 1.64925v 1.38003h 0.824624v -1.03502h 0.824624v -0.690014h 0.824624v 1.38003h 0.824624v -0.345007h 0.824624v -1.38003h 0.824624v -0.690014h 0.824624v 2.07004h 0.824624v 0.345007h 0.824624v -1.38003h
 1.64925v -0.345007h 0.824624v 1.38003h 0.824624v 0.690014h 0.824624v 1.03502h 0.824624v -1.72504h 0.824624v 0.690014h 0.824624v -1.72504h 0.824624v 2.41505h 0.824624v 1.03502h 1.64925v -0.345007h 0.824624v 0.345007h 0.824624v -0.690014h 0.824624v
 1.03502h 1.64925v -0.345007h 0.824624v -0.690014h 0.824624v 0.690014h 0.824624v 0.345007h 0.824624v -0.345007h 3.2985v -1.03502h 0.824624v 1.03502h 1.64925v 0.345007h 1.64925v -1.38003h 0.824624v 1.03502h 0.824624v -1.38003h 1.64925v 0.345007h
 0.824624v 0.345007h 0.824624v -1.38003h 0.824624v 2.41505h 0.824624v -2.07004h 0.824624v 0.345007h 0.824624v 2.07004h 0.824624v -1.38003h 0.824624" fill="none" stroke="#000099"/>
<path d="M57.1929,347.224h 453.543" fill="none" stroke="black"/>
<path d="M91.4923,337.964v 9.2593" fill="none" stroke="black"/>
<path d="M106.254,342.594v 4.62965" fill="none" stroke="black"/>
<path d="M121.015,342.594v 4.62965" fill="none" stroke="black"/>
<path d="M135.776,342.594v 4.62965" fill="none" stroke="black"/>
<path d="M150.538,337.964v 9.2593" fill="none" stroke="black"/>
<path d="M165.299,342.594v 4.62965" fill="none" stroke="black"/>
<path d="M180.06,342.594v 4.62965" fill="none" stroke="black"/>
<path d="M194.822,342.594v 4.62965" fill="none" stroke="black"/>
<path d="M209.583,337.964v 9.2593" fill="none" stroke="black"/>
<path d="M224.345,342.594v 4.62965" fill="none" stroke="black"/>
<path d="M239.106,342.594v 4.62965" fill="none" stroke="black"/>
<path d="M253.867,342.594v 4.62965" fill="none" stroke="black"/>
<path d="M268.629,337.964v 9.2593" fill="none" stroke="black"/>
<path d="M283.39,342.594v 4.62965" fill="none" stroke="black"/>
<path d="M298.151,342.594v 4.62965" fill="none" stroke="black"/>
<path d="M312.913,342.594v 4.62965" fill="none" stroke="black"/>
<path d="M327.674,337.964v 9.2593" fill="none" stroke="black"/>
<path d="M342.435,342.594v 4.62965" fill="none" stroke="black"/>
<path d="M357.197,342.594v 4.62965" fill="none" stroke="black"/>
<path d="M371.958,342.594v 4.62965" fill="none" stroke="black"/>
<path d="M386.719,337.964v 9.2593" fill="none" stroke="black"/>
<path d="M401.481,342.594v 4.62965" fill="none" stroke="black"/>
<path d="M416.242,342.594v 4.62965" fill="none" stroke="black"/>
<path d="M431.004,342.594v 4.62965" fill="none" stroke="black"/>
<path d="M445.765,337.964v 9.2593" fill="none" stroke="black"/>
<path d="M460.526,342.594v 4.62965" fill="none" stroke="black"/>
<path d="M475.288,342.594v 4.62965" fill="none" stroke="black"/>
<path d="M490.049,342.594v 4.62965" fill="none" stroke="black"/>
<path d="M504.81,337.964v 9.2593" fill="none" stroke="black"/>
<path d="M91.4923,337.964v 9.2593" fill="none" stroke="black"/>
<path d="M76.7309,342.594v 4.62965" fill="none" stroke="black"/>
<path d="M61.9696,342.594v 4.62965" fill="none" stroke="black"/>
<path d="M504.81,337.964v 9.2593" fill="none" stroke="black"/>
<text xml:space="preserve" x="87.4075" y="359.813" fill="black" font-size="12.8882" font-family="Helvetica">0</text>
<text xml:space="preserve" x="145.887" y="359.813" fill="black" font-size="12.8882" font-family="Helvetica">2</text>
<text xml:space="preserve" x="205.179" y="359.813" fill="black" font-size="12.8882" font-family="Helvetica">4</text>
<text xml:space="preserve" x="264.471" y="359.813" fill="black" font-size="12.8882" font-family="Helvetica">6</text>
<text xml:space="preserve" x="322.951" y="359.813" fill="black" font-size="12.8882" font-family="Helvetica">8</text>
<text xml:space="preserve" x="378.994" y="359.813" fill="black" font-size="12.8882" font-family="Helvetica">10</text>
<text xml:space="preserve" x="438.286" y="359.813" fill="black" font-size="12.8882" font-family="Helvetica">12</text>
<text xml:space="preserve" x="496.766" y="359.813" fill="black" font-size="12.8882" font-family="Helvetica">14</text>
<text xml:space="preserve" x="406.61" y="372.809" fill="black" font-size="12.8882" font-family="Helvetica">Number of photon</text>
<path d="M57.1929,347.224v -308.643" fill="none" stroke="black"/>
<path d="M70.7992,347.224h -13.6063" fill="none" stroke="black"/>
<path d="M63.9961,340.324h -6.80315" fill="none" stroke="black"/>
<path d="M63.9961,333.423h -6.80315" fill="none" stroke="black"/>
<path d="M63.9961,326.523h -6.80315" fill="none" stroke="black"/>
<path d="M63.9961,319.623h -6.80315" fill="none" stroke="black"/>
<path d="M70.7992,312.723h -13.6063" fill="none" stroke="black"/>
<path d="M63.9961,305.823h -6.80315" fill="none" stroke="black"/>
<path d="M63.9961,298.923h -6.80315" fill="none" stroke="black"/>
<path d="M63.9961,292.023h -6.80315" fill="none" stroke="black"/>
<path d="M63.9961,285.122h -6.80315" fill="none" stroke="black"/>
<path d="M70.7992,278.222h -13.6063" fill="none" stroke="black"/>
<path d="M63.9961,271.322h -6.80315" fill="none" stroke="black"/>
<path d="M63.9961,264.422h -6.80315" fill="none" stroke="black"/>
<path d="M63.9961,257.522h -6.80315" fill="none" stroke="black"/>
<path d="M63.9961,250.622h -6.80315" fill="none" stroke="black"/>
<path d="M70.7992,243.722h -13.6063" fill="none" stroke="black"/>
<path d="M63.9961,236.822h -6.80315" fill="none" stroke="black"/>
<path d="M63.9961,229.921h -6.80315" fill="none" stroke="black"/>
<path d="M63.9961,223.021h -6.80315" fill="none" stroke="black"/>
<path d="M63.9961,216.121h -6.80315" fill="none" stroke="black"/>
<path d="M70.7992,209.221h -13.6063" fill="none" stroke="black"/>
<path d="M63.9961,202.321h -6.80315" fill="none" stroke="black"/>
<path d="M63.9961,195.421h -6.80315" fill="none" stroke="black"/>
<path d="M63.9961,188.521h -6.80315" fill="none" stroke="black"/>
<path d="M63.9961,181.62h -6.80315" fill="none" stroke="black"/>
<path d="M70.7992,174.72h -13.6063" fill="none" stroke="black"/>
<path d="M63.9961,167.82h -6.80315" fill="none" stroke="black"/>
<path d="M63.9961,160.92h -6.80315" fill="none" stroke="black"/>
<path d="M63.9961,154.02h -6.80315" fill="none" stroke="black"/>
<path d="M63.9961,147.12h -6.80315" fill="none" stroke="black"/>
<path d="M70.7992,140.22h -13.6063" fill="none" stroke="black"/>
<path d="M63.9961,133.319h -6.80315" fill="none" stroke="black"/>
<path d="M63.9961,126.419h -6.80315" fill="none" stroke="black"/>
<path d="M63.9961,119.519h -6.80315" fill="none" stroke="black"/>
<path d="M63.9961,112.619h -6.80315" fill="none" stroke="black"/>
<path d="M70.7992,105.719h -13.6063" fill="none" stroke="black"/>
<path d="M63.9961,98.8187h -6.80315" fill="none" stroke="black"/>
<path d="M63.9961,91.9185h -6.80315" fill="none" stroke="black"/>
<path d="M63.9961,85.0184h -6.80315" fill="none" stroke="black"/>
<path d="M63.9961,78.1182h -6.80315" fill="none" stroke="black"/>
<path d="M70.7992,71.2181h -13.6063" fill="none" stroke="black"/>
<path d="M70.7992,71.2181h -13.6063" fill="none" stroke="black"/>
<path d="M63.9961,64.318h -6.80315" fill="none" stroke="black"/>
<path d="M63.9961,57.4178h -6.80315" fill="none" stroke="black"/>
<path d="M63.9961,50.5177h -6.80315" fill="none" stroke="black"/>
<path d="M63.9961,43.6175h -6.80315" fill="none" stroke="black"/>
<text xml:space="preserve" x="46.7965" y="351.691" fill="black" font-size="12.8882" font-family="Helvetica">0</text>
<text xml:space="preserve" x="32.1766" y="317.578" fill="black" font-size="12.8882" font-family="Helvetica">100</text>
<text xml:space="preserve" x="32.1766" y="282.652" fill="black" font-size="12.8882" font-family="Helvetica">200</text>
<text xml:space="preserve" x="32.1766" y="248.539" fill="black" font-size="12.8882" font-family="Helvetica">300</text>
<text xml:space="preserve" x="32.1766" y="213.614" fill="black" font-size="12.8882" font-family="Helvetica">400</text>
<text xml:space="preserve" x="32.1766" y="179.5" fill="black" font-size="12.8882" font-family="Helvetica">500</text>
<text xml:space="preserve" x="32.1766" y="144.575" fill="black" font-size="12.8882" font-family="Helvetica">600</text>
<text xml:space="preserve" x="32.1766" y="110.462" fill="black" font-size="12.8882" font-family="Helvetica">700</text>
<text xml:space="preserve" x="32.1766" y="75.5364" fill="black" font-size="12.8882" font-family="Helvetica">800</text>
<g transform="rotate(-90,21.6177,71.4753)">
<text xml:space="preserve" x="21.6177" y="71.4753" fill="black" font-size="12.8882" font-family="Helvetica">Event</text>
</g>
<text xml:space="preserve" x="215.738" y="18.681" fill="black" font-size="17.0471" font-family="Helvetica">led3018.root 29ch</text>
<text xml:space="preserve" x="215.738" y="18.681" fill="black" font-size="17.0471" font-family="Helvetica">led3018.root 29ch</text></svg>
