<?xml version="1.0" standalone="no"?>
<svg width="567.429" height="386.304" viewBox="0 0 567.429 386.304" xmlns="http://www.w3.org/2000/svg" shape-rendering="crispEdges">
<title>
img/week1/3020_CH26_Clbed.svg
</title>
<desc>
Creator: ROOT Version 6.22/08
CreationDate: Wed Jun 16 17:34:39 2021</desc>
<defs>
</defs>
<rect x="0.5" y="0" width="566.929" height="385.804" fill="white"/>
<rect x="57.1929" y="38.5804" width="453.543" height="308.643" fill="white"/>
<rect x="57.1929" y="38.5804" width="453.543" height="308.643" fill="none" stroke="black"/>
<path d="M57.1929,346.757h 0.348611v 0.466581h 1.04583v -0.466581h 0.348611v 0.466581h 5.92639v -0.933162h 0.348611v 0.933162h 0.348611v -0.933162h 0.348611v 0.933162h 0.348611v -0.466581h 0.348611v 0.466581h 0.697223v -0.466581h 0.348611v 0.466581h
 0.348611v -0.466581h 0.348611v -0.466581h 0.348611v -0.933162h 0.697223v 0.933162h 0.348611v -0.466581h 0.348611v 0.933162h 1.04583v -0.933162h 1.04583v 0.933162h 1.04583v -0.933162h 0.348611v 1.39974h 0.348611v -0.466581h 0.697223v 0.466581h
 2.44028v -0.466581h 0.697223v 0.466581h 2.44028v -0.466581h 0.697223v 0.466581h 0.348611v -0.466581h 0.348611v 0.466581h 0.697223v -0.933162h 0.348611v 0.466581h 0.348611v 0.466581h 0.348611v -0.466581h 0.348611v 0.466581h 0.697223v -0.466581h
 0.348611v 0.466581h 0.697223v -0.466581h 0.348611v 0.466581h 0.348611v -0.466581h 0.697223v -0.466581h 0.697223v 0.933162h 0.348611v -0.466581h 0.697223v -0.933162h 0.348611v 0.466581h 0.348611v 0.466581h 0.348611v -0.466581h 0.348611v 0.933162h
 0.348611v -1.86632h 0.348611v -1.39974h 0.348611v -1.86632h 0.348611v 0.933162h 0.697223v 0.933162h 0.348611v 0.466581h 0.697223v -4.19923h 0.348611v -0.933162h 0.348611v 0.466581h 0.348611v 1.86632h 0.348611v -0.933162h 0.348611v 0.466581h
 0.697223v -1.39974h 0.348611v 2.79949h 0.348611v -0.466581h 0.348611v 1.39974h 0.348611v -0.466581h 0.348611v 0.933162h 0.348611v -0.466581h 0.348611v 2.33291h 0.348611v -2.33291h 0.348611v 1.39974h 0.348611v -0.466581h 0.348611v 1.39974h 0.348611v
 0.466581h 0.348611v 0.933162h 1.04583v -0.466581h 0.697223v 0.466581h 0.348611v -0.466581h 1.74306v -0.933162h 0.348611v 0.466581h 0.697223v 0.466581h 0.348611v -0.466581h 0.697223v 0.933162h 0.348611v -0.933162h 0.348611v 0.466581h 0.348611v
 -0.933162h 0.348611v 1.39974h 0.348611v -2.79949h 0.348611v 1.39974h 0.348611v -0.933162h 0.348611v 1.86632h 0.348611v -2.33291h 0.348611v 0.466581h 0.348611v 1.86632h 0.348611v -1.86632h 0.348611v 0.933162h 0.697223v -0.466581h 1.39445v -0.466581h
 0.348611v 0.933162h 0.348611v -1.86632h 0.348611v -0.466581h 0.348611v -0.466581h 0.348611v -3.73265h 0.348611v -3.26607h 0.348611v 2.33291h 0.348611v -0.466581h 0.348611v -0.933162h 0.348611v -3.26607h 0.348611v -6.06555h 0.348611v -0.466581h
 0.348611v 5.13239h 0.348611v -6.06555h 0.348611v -4.19923h 0.348611v 2.33291h 0.348611v -2.79949h 0.348611v -2.79949h 0.348611v -1.86632h 0.348611v 3.73265h 0.348611v 2.79949h 0.348611v 0.933162h 0.348611v -2.79949h 0.348611v 8.86504h 0.348611v
 -0.933162h 0.348611v 6.99872h 0.348611v -6.53213h 0.348611v 3.26607h 0.348611v 1.86632h 0.348611v 1.86632h 0.348611v 1.86632h 0.348611v 1.86632h 0.348611v 2.79949h 0.348611v 1.86632h 0.697223v -0.466581h 0.697223v -0.466581h 0.348611v 2.33291h
 0.348611v -2.33291h 0.348611v 0.466581h 0.348611v 1.39974h 0.348611v -1.86632h 0.348611v -0.466581h 0.348611v 2.79949h 0.348611v -1.86632h 0.348611v -0.466581h 0.348611v 1.86632h 0.348611v 0.466581h 0.348611v -1.86632h 0.348611v 0.466581h 0.697223v
 0.466581h 0.348611v -2.33291h 0.348611v 0.466581h 1.39445v 0.466581h 0.697223v -1.39974h 0.697223v -0.933162h 0.348611v 0.933162h 0.348611v 1.39974h 0.348611v -2.33291h 0.348611v 0.933162h 0.348611v 1.39974h 0.348611v -1.39974h 0.348611v -1.86632h
 0.348611v 0.466581h 0.348611v -4.19923h 0.348611v 0.466581h 0.348611v -0.466581h 0.348611v -1.86632h 0.348611v -11.1979h 0.348611v 3.26607h 0.348611v -0.933162h 0.348611v -5.13239h 0.348611v -4.66581h 0.348611v -4.19923h 0.348611v -3.26607h
 0.348611v -9.33162h 0.348611v 5.59897h 0.348611v -10.7314h 0.348611v -12.1311h 0.348611v 0.933162h 0.348611v -0.466581h 0.348611v -0.466581h 0.348611v -7.93188h 0.348611v 4.66581h 0.348611v -4.19923h 0.348611v 17.7301h 0.348611v -16.3303h 0.348611v
 20.063h 0.348611v 3.26607h 0.348611v 13.9974h 0.348611v -6.06555h 0.348611v 13.0643h 0.348611v 2.79949h 0.348611v 1.86632h 0.348611v -2.79949h 0.348611v 5.59897h 0.348611v 4.19923h 0.348611v 4.19923h 0.348611v -2.33291h 0.348611v 5.59897h 0.697223v
 -1.39974h 0.348611v 2.33291h 0.348611v 3.26607h 0.348611v -4.19923h 0.348611v -0.466581h 0.348611v 2.79949h 0.697223v -1.39974h 0.348611v 0.466581h 0.348611v 0.466581h 0.348611v 1.39974h 0.348611v -1.86632h 0.348611v 2.33291h 0.348611v -0.466581h
 0.348611v 0.466581h 0.348611v -0.466581h 0.697223v -4.19923h 0.348611v 2.33291h 0.697223v -3.73265h 0.348611v 1.39974h 0.348611v 1.86632h 0.348611v -0.933162h 0.348611v -1.86632h 0.348611v -0.466581h 0.348611v 2.33291h 0.348611v -3.26607h 0.348611v
 1.86632h 0.697223v -7.4653h 0.348611v 8.86504h 0.348611v -2.79949h 0.348611v -9.33162h 0.348611v 1.86632h 0.348611v -1.86632h 0.348611v -3.73265h 0.348611v -6.53213h 0.348611v -10.7314h 0.348611v 0.466581h 0.348611v 2.33291h 0.348611v -22.3959h
 0.348611v -7.93188h 0.348611v -8.39846h 0.348611v -2.33291h 0.348611v -13.9974h 0.348611v -6.53213h 0.348611v 6.99872h 0.348611v -20.9961h 0.348611v -13.9974h 0.348611v 5.13239h 0.348611v 3.73265h 0.348611v -11.1979h 0.348611v -1.86632h 0.348611v
 12.1311h 0.348611v 10.7314h 0.348611v 7.4653h 0.348611v 3.73265h 0.348611v -2.79949h 0.348611v 24.2622h 0.348611v 6.99872h 0.348611v 5.59897h 0.348611v 18.1967h 0.348611v 8.86504h 0.697223v 6.99872h 0.697223v 7.4653h 0.348611v 1.86632h 0.348611v
 2.33291h 0.348611v 0.466581h 0.348611v 3.73265h 0.348611v -0.466581h 0.348611v 0.466581h 0.697223v 1.39974h 0.348611v 0.933162h 0.348611v 3.26607h 0.348611v -0.933162h 0.348611v -1.86632h 0.348611v 2.79949h 0.348611v 1.39974h 0.348611v -1.86632h
 0.348611v 3.26607h 0.348611v -1.86632h 0.697223v -5.13239h 0.348611v 4.19923h 0.348611v 0.466581h 0.348611v -2.79949h 0.348611v 3.26607h 0.348611v 1.86632h 0.348611v -6.53213h 0.348611v 0.933162h 0.348611v 1.39974h 0.348611v -4.19923h 0.348611v
 -1.86632h 0.348611v 5.59897h 0.348611v -8.39846h 0.348611v -2.79949h 0.348611v 4.66581h 0.348611v -2.79949h 0.348611v 1.86632h 0.348611v -7.93188h 0.348611v -7.4653h 0.348611v -4.66581h 0.348611v 0.466581h 0.348611v -11.6645h 0.348611v -5.13239h
 0.348611v -0.933162h 0.348611v -10.2648h 0.348611v -18.6632h 0.348611v -5.13239h 0.348611v -11.1979h 0.348611v -27.5283h 0.348611v -11.6645h 0.348611v 3.26607h 0.348611v -23.7956h 0.348611v 8.86504h 0.348611v -21.4627h 0.348611v -6.99872h 0.348611v
 -17.7301h 0.348611v 12.5977h 0.348611v -12.1311h 0.348611v -1.39974h 0.348611v -13.5309h 0.348611v 40.126h 0.348611v 24.2622h 0.348611v 7.4653h 0.348611v 3.73265h 0.348611v -5.13239h 0.348611v 39.1928h 0.348611v 9.33162h 0.348611v 12.1311h 0.348611v
 9.7982h 0.348611v 12.5977h 0.348611v 8.86504h 0.348611v 0.933162h 0.348611v 13.0643h 0.348611v -0.933162h 0.348611v 7.93188h 0.348611v -2.79949h 0.348611v 6.99872h 0.348611v 9.7982h 0.348611v -8.39846h 0.348611v 5.13239h 0.348611v -1.86632h
 0.348611v 1.39974h 0.348611v 4.19923h 0.697223v 0.933162h 0.348611v -4.19923h 0.348611v 3.26607h 0.348611v -1.39974h 0.348611v 1.39974h 0.348611v 1.39974h 0.348611v 1.39974h 0.348611v 1.86632h 0.348611v -5.59897h 0.348611v -1.39974h 0.348611v
 2.33291h 0.348611v -2.79949h 0.348611v 1.86632h 0.348611v 2.79949h 0.348611v -4.66581h 0.348611v -2.33291h 0.348611v 3.73265h 0.348611v -5.13239h 0.348611v 0.466581h 0.348611v -8.86504h 0.348611v 3.73265h 0.348611v 2.33291h 0.348611v -13.9974h
 0.348611v 6.06555h 0.348611v -8.39846h 0.348611v -4.66581h 0.348611v -0.466581h 0.348611v -31.7275h 0.348611v 14.464h 0.348611v -11.6645h 0.348611v -14.464h 0.348611v -18.6632h 0.348611v -9.33162h 0.348611v -13.0643h 0.348611v -13.9974h 0.348611v
 -17.2635h 0.348611v -5.13239h 0.348611v -30.3278h 0.348611v 3.73265h 0.348611v -23.3291h 0.348611v -27.9949h 0.348611v 10.2648h 0.348611v -0.466581h 0.348611v -36.8599h 0.348611v 33.1273h 0.348611v 10.2648h 0.348611v -10.2648h 0.348611v 10.2648h
 0.348611v 51.3239h 0.348611v -23.7956h 0.348611v 39.1928h 0.348611v -6.06555h 0.348611v 24.2622h 0.348611v 30.3278h 0.348611v 26.5951h 0.348611v -3.73265h 0.348611v 12.5977h 0.348611v 6.99872h 0.348611v 10.2648h 0.348611v 14.9306h 0.348611v
 0.933162h 0.348611v -7.93188h 0.348611v 12.1311h 0.348611v 0.466581h 0.348611v -1.39974h 0.348611v 16.3303h 0.348611v 5.59897h 0.348611v 1.39974h 0.348611v -3.26607h 0.348611v 2.33291h 0.348611v 0.466581h 0.348611v -9.33162h 0.348611v 14.464h
 0.348611v -3.26607h 0.348611v 0.466581h 0.348611v 0.466581h 0.348611v 0.466581h 0.348611v -4.19923h 0.348611v -3.73265h 0.348611v -0.933162h 0.348611v -1.86632h 0.348611v 3.73265h 0.348611v 1.39974h 0.348611v 0.466581h 0.348611v -3.26607h 0.348611v
 -1.39974h 0.348611v 3.26607h 0.348611v 4.66581h 0.348611v -7.93188h 0.348611v 0.933162h 0.348611v -1.39974h 0.348611v -3.73265h 0.348611v -7.93188h 0.348611v -0.933162h 0.348611v -11.6645h 0.348611v -3.26607h 0.348611v -3.73265h 0.348611v -7.4653h
 0.348611v -14.464h 0.348611v -4.19923h 0.348611v -6.06555h 0.348611v -10.7314h 0.348611v -22.3959h 0.348611v -20.9961h 0.348611v -21.4627h 0.348611v -18.6632h 0.348611v 11.6645h 0.348611v -34.0604h 0.348611v -16.3303h 0.348611v -6.06555h 0.348611v
 -6.06555h 0.348611v -47.1247h 0.348611v 17.7301h 0.348611v 5.59897h 0.348611v -14.9306h 0.348611v -9.7982h 0.348611v 38.2596h 0.348611v -8.39846h 0.348611v 34.0604h 0.348611v -6.06555h 0.348611v 34.527h 0.348611v 30.3278h 0.348611v -3.26607h
 0.348611v 27.5283h 0.348611v 4.66581h 0.348611v 28.928h 0.348611v 0.466581h 0.348611v 12.5977h 0.348611v 4.19923h 0.348611v 16.7969h 0.348611v 15.8638h 0.348611v 2.79949h 0.348611v 2.33291h 0.348611v 5.13239h 0.348611v 9.7982h 0.348611v 1.39974h
 0.348611v 1.86632h 0.348611v -0.933162h 0.348611v 3.73265h 0.348611v -3.26607h 0.348611v 2.79949h 0.348611v 6.06555h 0.348611v -1.86632h 0.348611v -0.466581h 0.348611v -0.466581h 0.348611v 0.466581h 0.348611v 0.466581h 0.348611v -0.466581h 0.697223v
 -1.39974h 0.348611v 5.13239h 0.348611v 3.26607h 0.348611v -1.39974h 0.348611v -6.99872h 0.348611v 4.66581h 0.348611v -3.73265h 0.348611v 1.39974h 0.348611v -4.19923h 0.348611v 1.86632h 0.348611v -1.39974h 0.348611v 0.466581h 0.348611v -12.1311h
 0.348611v 2.33291h 0.348611v -2.33291h 0.348611v -11.1979h 0.348611v 6.53213h 0.348611v -9.7982h 0.348611v -11.6645h 0.348611v 2.33291h 0.348611v -21.4627h 0.348611v -3.26607h 0.348611v -22.3959h 0.348611v -5.59897h 0.348611v -22.8625h 0.348611v
 -13.0643h 0.348611v -13.5309h 0.348611v -16.3303h 0.348611v -11.6645h 0.348611v -20.9961h 0.348611v -22.8625h 0.348611v 17.2635h 0.348611v -36.3933h 0.348611v 16.3303h 0.348611v -58.7892h 0.348611v 39.6594h 0.348611v -9.7982h 0.348611v 27.9949h
 0.348611v 1.39974h 0.348611v 9.7982h 0.348611v 19.5964h 0.348611v 24.2622h 0.348611v -15.8638h 0.348611v 32.6607h 0.348611v 34.0604h 0.348611v 16.3303h 0.348611v 10.7314h 0.348611v 11.6645h 0.348611v 10.2648h 0.348611v 6.06555h 0.348611v 0.466581h
 0.348611v 21.4627h 0.348611v 0.933162h 0.348611v 10.2648h 0.348611v -4.66581h 0.348611v 5.13239h 0.348611v 3.73265h 0.348611v 5.13239h 0.348611v 3.73265h 0.348611v 3.73265h 0.348611v 2.79949h 0.697223v -2.33291h 0.348611v 5.13239h 0.348611v 1.39974h
 0.348611v -3.73265h 0.348611v -0.466581h 0.348611v 6.53213h 0.348611v -5.59897h 0.348611v 0.466581h 0.348611v 3.73265h 0.348611v -5.59897h 0.348611v 6.53213h 0.348611v -2.79949h 0.348611v -1.39974h 0.348611v 3.26607h 0.348611v 4.66581h 0.348611v
 -7.4653h 0.348611v -4.19923h 0.348611v 1.39974h 0.348611v 4.19923h 0.348611v -4.19923h 0.348611v -5.13239h 0.348611v 3.26607h 0.348611v -8.86504h 0.348611v 4.19923h 0.348611v -14.9306h 0.348611v 6.53213h 0.348611v -21.9293h 0.697223v -4.19923h
 0.348611v -26.1285h 0.348611v -0.933162h 0.348611v -6.06555h 0.348611v -20.063h 0.348611v -17.2635h 0.348611v -20.9961h 0.348611v 5.13239h 0.348611v -22.3959h 0.348611v -14.464h 0.348611v 10.2648h 0.348611v -38.7262h 0.348611v -1.86632h 0.348611v
 14.464h 0.348611v -35.4602h 0.348611v 28.4614h 0.348611v -1.86632h 0.348611v -2.33291h 0.348611v 27.9949h 0.348611v 10.7314h 0.348611v -13.9974h 0.348611v 13.5309h 0.348611v 41.0591h 0.348611v 2.79949h 0.348611v 20.5296h 0.348611v 18.1967h 0.348611v
 -0.466581h 0.348611v 3.73265h 0.348611v 20.9961h 0.348611v 8.39846h 0.348611v -2.33291h 0.348611v 2.33291h 0.348611v 13.0643h 0.348611v 10.2648h 0.348611v -0.466581h 0.348611v 4.19923h 0.348611v 1.86632h 0.348611v 2.33291h 0.348611v 4.19923h
 0.348611v 3.73265h 0.348611v 5.59897h 0.348611v -0.933162h 0.348611v -4.19923h 0.348611v 4.66581h 0.348611v -1.39974h 0.348611v 4.19923h 0.348611v -3.73265h 0.348611v -2.79949h 0.348611v 4.66581h 0.348611v 1.39974h 0.348611v -1.39974h 0.348611v
 2.33291h 0.348611v -1.39974h 0.348611v -0.466581h 0.348611v -1.39974h 0.348611v 4.19923h 0.348611v -0.466581h 0.348611v -8.39846h 0.348611v 1.86632h 0.348611v 1.39974h 0.348611v 2.79949h 0.348611v -9.7982h 0.348611v 0.933162h 0.348611v -3.73265h
 0.348611v -2.79949h 0.348611v -4.19923h 0.348611v -4.19923h 0.697223v -12.1311h 0.348611v -7.4653h 0.348611v 5.59897h 0.348611v -11.1979h 0.348611v -18.1967h 0.348611v -7.93188h 0.697223v -19.5964h 0.348611v -11.1979h 0.348611v -2.79949h 0.348611v
 -10.2648h 0.348611v -12.5977h 0.348611v -17.7301h 0.348611v 21.4627h 0.348611v -20.9961h 0.348611v -2.33291h 0.348611v -11.1979h 0.348611v 18.1967h 0.348611v -5.13239h 0.348611v 26.5951h 0.348611v -29.8612h 0.348611v 23.3291h 0.348611v 6.06555h
 0.348611v 31.2609h 0.348611v -18.6632h 0.348611v 14.9306h 0.348611v 12.1311h 0.348611v 14.464h 0.348611v 4.19923h 0.348611v 13.0643h 0.348611v 3.73265h 0.348611v 9.7982h 0.348611v -5.13239h 0.348611v 21.9293h 0.348611v -10.2648h 0.348611v 9.33162h
 0.348611v 7.4653h 0.348611v 6.06555h 0.348611v -1.86632h 0.348611v 0.466581h 0.348611v 2.79949h 0.348611v 2.33291h 0.348611v -1.39974h 0.348611v 2.79949h 0.348611v 0.466581h 0.348611v 3.26607h 0.348611v -1.39974h 0.348611v 2.33291h 0.348611v
 -4.66581h 0.348611v 10.2648h 0.348611v -6.53213h 0.348611v 3.73265h 0.348611v -3.26607h 0.697223v 7.93188h 0.348611v -6.06555h 0.348611v 2.79949h 0.348611v -2.33291h 0.348611v -1.39974h 0.348611v -0.466581h 0.348611v -1.39974h 0.348611v -0.466581h
 0.348611v -1.86632h 0.348611v 5.13239h 0.348611v -5.59897h 0.348611v -6.99872h 0.348611v 5.59897h 0.348611v -6.06555h 0.348611v -3.73265h 0.348611v -7.93188h 0.348611v 3.26607h 0.348611v -10.7314h 0.348611v 4.19923h 0.348611v -13.0643h 0.348611v
 -13.0643h 0.348611v 3.73265h 0.348611v -15.8638h 0.348611v -12.1311h 0.348611v 3.73265h 0.348611v -5.59897h 0.348611v -5.59897h 0.348611v -13.5309h 0.348611v 16.7969h 0.348611v -15.8638h 0.348611v -3.73265h 0.348611v -10.2648h 0.348611v 18.1967h
 0.348611v -2.79949h 0.348611v -20.063h 0.348611v 25.662h 0.348611v 2.79949h 0.348611v 8.86504h 0.348611v -1.86632h 0.348611v 10.7314h 0.348611v 3.26607h 0.348611v 17.2635h 0.348611v -20.063h 0.348611v 24.7288h 0.348611v 1.86632h 0.348611v 14.9306h
 0.348611v -1.39974h 0.348611v -3.73265h 0.348611v 13.9974h 0.348611v 4.19923h 0.348611v 1.86632h 0.348611v -3.73265h 0.348611v 9.33162h 0.348611v 1.86632h 0.348611v -1.86632h 0.348611v 3.26607h 0.697223v 5.13239h 0.348611v -0.466581h 0.348611v
 6.06555h 0.348611v -1.86632h 0.348611v 0.933162h 0.348611v -4.19923h 0.348611v 0.933162h 0.697223v 3.26607h 0.348611v 0.466581h 0.348611v -2.33291h 0.348611v 2.33291h 0.348611v -3.73265h 0.348611v 4.66581h 0.348611v 0.466581h 0.348611v -2.33291h
 0.348611v -1.39974h 0.348611v -0.466581h 0.348611v -0.466581h 0.348611v 1.86632h 0.348611v -1.86632h 0.348611v -3.26607h 0.348611v -1.39974h 0.348611v 3.26607h 0.348611v -3.73265h 0.348611v -0.933162h 0.348611v -3.73265h 0.348611v -6.06555h
 0.348611v -0.933162h 0.348611v -7.4653h 0.348611v 8.39846h 0.348611v -14.464h 0.348611v 2.33291h 0.348611v -8.86504h 0.348611v 2.79949h 0.348611v 0.933162h 0.348611v -12.1311h 0.348611v -8.86504h 0.348611v -1.86632h 0.348611v -1.39974h 0.348611v
 -8.39846h 0.348611v -3.73265h 0.348611v 7.93188h 0.348611v -6.53213h 0.348611v -0.933162h 0.348611v -0.466581h 0.348611v -6.53213h 0.348611v 19.1298h 0.348611v 6.99872h 0.348611v -20.9961h 0.348611v 18.6632h 0.348611v 6.06555h 0.348611v 5.13239h
 0.348611v 2.79949h 0.348611v 6.99872h 0.348611v -11.6645h 0.348611v 21.9293h 0.348611v -4.19923h 0.348611v 13.0643h 0.348611v -3.73265h 0.697223v 10.7314h 0.348611v -0.933162h 0.348611v -2.79949h 0.348611v 5.13239h 0.348611v -1.86632h 0.348611v
 6.99872h 0.348611v -3.26607h 0.348611v 4.66581h 0.348611v -1.86632h 0.348611v -0.466581h 0.348611v 0.466581h 0.697223v 3.73265h 0.348611v -2.33291h 0.348611v 1.39974h 0.348611v 0.933162h 0.348611v -2.33291h 0.348611v 5.13239h 0.348611v -3.26607h
 0.697223v -0.933162h 0.348611v 3.73265h 0.348611v -0.933162h 0.348611v -2.79949h 0.348611v 2.79949h 0.697223v -1.39974h 0.348611v -1.86632h 0.348611v 0.466581h 0.348611v -4.19923h 0.348611v 1.86632h 0.348611v 0.466581h 0.348611v -1.86632h 0.348611v
 1.86632h 0.348611v -4.19923h 0.348611v -4.19923h 0.348611v 1.86632h 0.348611v 0.933162h 0.348611v -2.33291h 0.348611v -8.39846h 0.348611v 2.79949h 0.348611v -4.66581h 0.348611v -3.26607h 0.348611v -10.7314h 0.348611v 8.86504h 0.348611v -6.99872h
 0.348611v 3.26607h 0.348611v -0.933162h 0.348611v -7.4653h 0.348611v -2.79949h 0.348611v 6.06555h 0.348611v -4.19923h 0.348611v 2.79949h 0.348611v -4.66581h 0.348611v 3.26607h 0.348611v 0.933162h 0.348611v 1.39974h 0.348611v 4.19923h 0.348611v
 -2.33291h 0.348611v 4.66581h 0.348611v 3.26607h 0.348611v 4.66581h 0.348611v 2.79949h 0.348611v 1.86632h 0.348611v 1.86632h 0.348611v 0.466581h 0.348611v 5.13239h 0.348611v 3.73265h 0.348611v -6.53213h 0.348611v 3.26607h 0.697223v 6.99872h 0.348611v
 -5.13239h 0.348611v 5.13239h 0.697223v -6.06555h 0.348611v 3.26607h 0.348611v 4.19923h 0.348611v -1.86632h 0.348611v 3.26607h 0.348611v 0.933162h 0.348611v 1.39974h 0.348611v -0.933162h 0.348611v 0.466581h 0.348611v -0.466581h 0.348611v -3.26607h
 0.348611v 3.26607h 0.348611v -0.466581h 0.348611v 0.933162h 0.348611v -2.79949h 0.348611v 3.73265h 0.348611v -0.466581h 0.348611v -0.466581h 0.348611v -1.39974h 0.348611v 2.33291h 0.348611v -2.79949h 0.348611v 2.79949h 0.348611v -2.33291h 0.348611v
 1.39974h 0.348611v -1.86632h 0.348611v 0.933162h 0.348611v -2.33291h 0.348611v -2.33291h 0.348611v 2.33291h 0.348611v -0.933162h 0.348611v -0.933162h 0.348611v -0.933162h 0.348611v -4.19923h 0.348611v 2.79949h 0.348611v -4.19923h 0.348611v -4.66581h
 0.348611v 5.59897h 0.348611v -7.4653h 0.348611v 1.86632h 0.348611v 0.466581h 0.348611v -3.26607h 0.348611v -3.73265h 0.348611v -0.466581h 0.348611v 5.13239h 0.348611v -1.86632h 0.348611v -0.466581h 0.348611v 0.466581h 0.348611v -6.99872h 0.348611v
 3.26607h 0.348611v 3.73265h 0.348611v 1.39974h 0.348611v 3.73265h 0.348611v -2.79949h 0.348611v -2.79949h 0.348611v 5.59897h 0.348611v -2.33291h 0.348611v 8.39846h 0.348611v -4.19923h 0.348611v 0.933162h 0.348611v 1.86632h 0.348611v 0.466581h
 0.348611v 3.73265h 0.348611v 1.39974h 0.348611v -2.33291h 0.348611v 3.26607h 0.348611v 0.933162h 0.348611v -0.466581h 0.348611v 1.39974h 0.348611v -0.933162h 0.348611v 1.86632h 0.348611v 0.466581h 0.348611v -0.466581h 0.348611v 0.933162h 0.348611v
 1.86632h 0.348611v -2.33291h 0.348611v 0.466581h 0.348611v 1.86632h 0.348611v -1.39974h 0.348611v 2.33291h 0.348611v -2.79949h 0.348611v 0.933162h 0.348611v 0.933162h 0.697223v 0.933162h 0.348611v -2.33291h 0.348611v -1.39974h 0.348611v 2.33291h
 0.348611v 0.466581h 0.348611v -2.79949h 0.348611v 1.39974h 0.697223v -0.466581h 0.697223v -0.933162h 0.348611v 0.466581h 0.348611v 0.933162h 0.348611v -2.33291h 0.348611v 3.26607h 0.348611v -0.933162h 0.348611v -1.86632h 0.348611v 0.466581h
 0.348611v -2.79949h 0.348611v 3.26607h 0.348611v -2.79949h 0.697223v -3.73265h 0.348611v -0.466581h 0.697223v -3.26607h 0.348611v 0.933162h 0.348611v -1.39974h 0.348611v 2.79949h 0.348611v 0.933162h 0.348611v -4.19923h 0.348611v 2.33291h 0.348611v
 -2.33291h 0.348611v 4.19923h 0.348611v -4.66581h 0.348611v 2.79949h 0.348611v -1.86632h 0.348611v 0.466581h 0.348611v 2.33291h 0.348611v -2.79949h 0.348611v 3.73265h 0.348611v -1.86632h 0.348611v 6.06555h 0.697223v -1.39974h 0.348611v 1.39974h
 0.348611v 3.26607h 0.348611v -4.66581h 0.348611v 5.59897h 0.348611v -3.73265h 0.348611v 2.33291h 0.348611v 0.933162h 0.348611v -1.86632h 0.348611v 0.466581h 0.348611v 1.39974h 0.348611v 1.39974h 0.348611v -0.933162h 0.348611v -1.39974h 0.348611v
 1.86632h 0.348611v -0.466581h 0.348611v 0.933162h 0.348611v 0.466581h 0.348611v -0.466581h 0.697223v 0.466581h 0.697223v 0.933162h 0.348611v -1.86632h 0.348611v -0.933162h 0.348611v 0.933162h 0.348611v 1.86632h 0.348611v -2.33291h 0.348611v 2.33291h
 0.348611v -0.933162h 0.348611v 0.933162h 0.348611v -0.933162h 0.348611v -0.933162h 0.348611v 1.39974h 0.348611v 0.466581h 0.348611v -3.26607h 0.697223v 0.933162h 0.348611v 0.466581h 0.348611v -1.86632h 0.348611v 0.933162h 0.348611v 0.466581h
 0.348611v -1.39974h 0.348611v 2.79949h 0.348611v -4.19923h 0.348611v -0.466581h 0.348611v 1.86632h 0.348611v -4.19923h 0.348611v 1.86632h 0.348611v 1.39974h 0.348611v -0.466581h 0.348611v 1.86632h 0.348611v -2.79949h 0.348611v 1.86632h 0.348611v
 -3.26607h 0.348611v -2.33291h 0.348611v 3.26607h 0.348611v 0.466581h 0.348611v -1.86632h 0.697223v 4.66581h 0.348611v -1.86632h 0.348611v -1.39974h 0.348611v -0.466581h 0.348611v 0.933162h 0.348611v 2.33291h 0.348611v -0.466581h 0.348611v 1.86632h
 0.348611v -2.33291h 0.697223v 3.26607h 0.348611v -0.933162h 0.348611v -1.39974h 0.348611v 1.39974h 0.697223v 1.86632h 0.348611v -0.933162h 0.348611v 0.933162h 0.348611v -0.466581h 0.697223v 0.466581h 0.697223v 0.466581h 0.348611v -0.466581h
 0.348611v -0.933162h 0.348611v 0.466581h 0.348611v 0.466581h 0.348611v -0.466581h 0.348611v -0.466581h 0.697223v 1.39974h 0.348611v -0.466581h 0.348611v 0.466581h 1.04583v -0.933162h 0.348611v 0.933162h 0.348611v -0.466581h 0.697223v 0.466581h
 0.348611v -0.933162h 0.348611v 0.933162h 0.348611v -0.933162h 1.04583v 0.466581h 0.348611v -0.466581h 0.348611v -1.39974h 0.697223v 0.466581h 0.348611v 0.933162h 0.348611v -0.933162h 0.348611v -1.39974h 0.348611v 1.86632h 0.348611v -2.33291h
 0.348611v 0.466581h 0.348611v 2.79949h 0.348611v -2.79949h 0.348611v -1.39974h 0.348611v 1.39974h 0.348611v -1.86632h 0.348611v 1.39974h 0.348611v 0.933162h 0.348611v -2.79949h 0.348611v 0.466581h 0.348611v 2.33291h 0.697223v -0.466581h 0.697223v
 -2.33291h 0.348611v 1.86632h 0.348611v 2.79949h 0.697223v -3.26607h 0.348611v 3.26607h 0.348611v -1.86632h 0.348611v 0.466581h 0.348611v 0.466581h 0.348611v 0.933162h 0.348611v 0.466581h 0.348611v -1.39974h 0.348611v 0.466581h 0.348611v 0.933162h
 0.348611v -0.466581h 1.04583v 0.933162h 1.04583v -0.466581h 1.04583v -0.466581h 0.348611v 0.933162h 0.697223v -0.933162h 0.348611v 0.466581h 0.697223v 0.466581h 0.348611v -0.933162h 0.348611v 0.933162h 1.39445v -0.466581h 0.697223v -0.466581h
 0.348611v 0.933162h 0.348611v -0.466581h 0.348611v 0.466581h 0.697223v -0.933162h 0.348611v 0.466581h 0.348611v 0.466581h 0.348611v -0.466581h 0.348611v -0.466581h 0.348611v -0.466581h 0.348611v 0.933162h 0.348611v 0.466581h 0.697223v -0.933162h
 0.348611v 0.466581h 0.348611v -0.466581h 0.348611v -0.466581h 0.348611v 0.466581h 0.697223v -0.933162h 0.697223v -1.39974h 0.348611v 1.39974h 0.348611v 0.466581h 0.348611v -0.466581h 0.348611v 0.933162h 0.348611v -0.933162h 0.348611v -0.933162h
 0.348611v 1.39974h 0.697223v 0.466581h 0.348611v 0.466581h 0.697223v -0.933162h 0.697223" fill="none" stroke="#000099"/>
<path d="M57.1929,347.224h 453.543" fill="none" stroke="black"/>
<path d="M71.1861,337.964v 9.2593" fill="none" stroke="black"/>
<path d="M83.415,342.594v 4.62965" fill="none" stroke="black"/>
<path d="M95.6439,342.594v 4.62965" fill="none" stroke="black"/>
<path d="M107.873,342.594v 4.62965" fill="none" stroke="black"/>
<path d="M120.102,337.964v 9.2593" fill="none" stroke="black"/>
<path d="M132.331,342.594v 4.62965" fill="none" stroke="black"/>
<path d="M144.56,342.594v 4.62965" fill="none" stroke="black"/>
<path d="M156.789,342.594v 4.62965" fill="none" stroke="black"/>
<path d="M169.018,337.964v 9.2593" fill="none" stroke="black"/>
<path d="M181.246,342.594v 4.62965" fill="none" stroke="black"/>
<path d="M193.475,342.594v 4.62965" fill="none" stroke="black"/>
<path d="M205.704,342.594v 4.62965" fill="none" stroke="black"/>
<path d="M217.933,337.964v 9.2593" fill="none" stroke="black"/>
<path d="M230.162,342.594v 4.62965" fill="none" stroke="black"/>
<path d="M242.391,342.594v 4.62965" fill="none" stroke="black"/>
<path d="M254.62,342.594v 4.62965" fill="none" stroke="black"/>
<path d="M266.849,337.964v 9.2593" fill="none" stroke="black"/>
<path d="M279.078,342.594v 4.62965" fill="none" stroke="black"/>
<path d="M291.307,342.594v 4.62965" fill="none" stroke="black"/>
<path d="M303.536,342.594v 4.62965" fill="none" stroke="black"/>
<path d="M315.765,337.964v 9.2593" fill="none" stroke="black"/>
<path d="M327.994,342.594v 4.62965" fill="none" stroke="black"/>
<path d="M340.223,342.594v 4.62965" fill="none" stroke="black"/>
<path d="M352.452,342.594v 4.62965" fill="none" stroke="black"/>
<path d="M364.68,337.964v 9.2593" fill="none" stroke="black"/>
<path d="M376.909,342.594v 4.62965" fill="none" stroke="black"/>
<path d="M389.138,342.594v 4.62965" fill="none" stroke="black"/>
<path d="M401.367,342.594v 4.62965" fill="none" stroke="black"/>
<path d="M413.596,337.964v 9.2593" fill="none" stroke="black"/>
<path d="M425.825,342.594v 4.62965" fill="none" stroke="black"/>
<path d="M438.054,342.594v 4.62965" fill="none" stroke="black"/>
<path d="M450.283,342.594v 4.62965" fill="none" stroke="black"/>
<path d="M462.512,337.964v 9.2593" fill="none" stroke="black"/>
<path d="M71.1861,337.964v 9.2593" fill="none" stroke="black"/>
<path d="M58.9571,342.594v 4.62965" fill="none" stroke="black"/>
<path d="M462.512,337.964v 9.2593" fill="none" stroke="black"/>
<path d="M474.741,342.594v 4.62965" fill="none" stroke="black"/>
<path d="M486.97,342.594v 4.62965" fill="none" stroke="black"/>
<path d="M499.199,342.594v 4.62965" fill="none" stroke="black"/>
<text xml:space="preserve" x="67.102" y="359.813" fill="black" font-size="12.8882" font-family="Helvetica">0</text>
<text xml:space="preserve" x="115.835" y="359.813" fill="black" font-size="12.8882" font-family="Helvetica">2</text>
<text xml:space="preserve" x="164.568" y="359.813" fill="black" font-size="12.8882" font-family="Helvetica">4</text>
<text xml:space="preserve" x="213.301" y="359.813" fill="black" font-size="12.8882" font-family="Helvetica">6</text>
<text xml:space="preserve" x="262.035" y="359.813" fill="black" font-size="12.8882" font-family="Helvetica">8</text>
<text xml:space="preserve" x="308.331" y="359.813" fill="black" font-size="12.8882" font-family="Helvetica">10</text>
<text xml:space="preserve" x="357.064" y="359.813" fill="black" font-size="12.8882" font-family="Helvetica">12</text>
<text xml:space="preserve" x="405.797" y="359.813" fill="black" font-size="12.8882" font-family="Helvetica">14</text>
<text xml:space="preserve" x="454.531" y="359.813" fill="black" font-size="12.8882" font-family="Helvetica">16</text>
<text xml:space="preserve" x="406.61" y="372.809" fill="black" font-size="12.8882" font-family="Helvetica">Number of photon</text>
<path d="M57.1929,347.224v -308.643" fill="none" stroke="black"/>
<path d="M70.7992,347.224h -13.6063" fill="none" stroke="black"/>
<path d="M63.9961,337.892h -6.80315" fill="none" stroke="black"/>
<path d="M63.9961,328.561h -6.80315" fill="none" stroke="black"/>
<path d="M63.9961,319.229h -6.80315" fill="none" stroke="black"/>
<path d="M63.9961,309.897h -6.80315" fill="none" stroke="black"/>
<path d="M70.7992,300.566h -13.6063" fill="none" stroke="black"/>
<path d="M63.9961,291.234h -6.80315" fill="none" stroke="black"/>
<path d="M63.9961,281.902h -6.80315" fill="none" stroke="black"/>
<path d="M63.9961,272.571h -6.80315" fill="none" stroke="black"/>
<path d="M63.9961,263.239h -6.80315" fill="none" stroke="black"/>
<path d="M70.7992,253.908h -13.6063" fill="none" stroke="black"/>
<path d="M63.9961,244.576h -6.80315" fill="none" stroke="black"/>
<path d="M63.9961,235.244h -6.80315" fill="none" stroke="black"/>
<path d="M63.9961,225.913h -6.80315" fill="none" stroke="black"/>
<path d="M63.9961,216.581h -6.80315" fill="none" stroke="black"/>
<path d="M70.7992,207.249h -13.6063" fill="none" stroke="black"/>
<path d="M63.9961,197.918h -6.80315" fill="none" stroke="black"/>
<path d="M63.9961,188.586h -6.80315" fill="none" stroke="black"/>
<path d="M63.9961,179.255h -6.80315" fill="none" stroke="black"/>
<path d="M63.9961,169.923h -6.80315" fill="none" stroke="black"/>
<path d="M70.7992,160.591h -13.6063" fill="none" stroke="black"/>
<path d="M63.9961,151.26h -6.80315" fill="none" stroke="black"/>
<path d="M63.9961,141.928h -6.80315" fill="none" stroke="black"/>
<path d="M63.9961,132.597h -6.80315" fill="none" stroke="black"/>
<path d="M63.9961,123.265h -6.80315" fill="none" stroke="black"/>
<path d="M70.7992,113.933h -13.6063" fill="none" stroke="black"/>
<path d="M63.9961,104.602h -6.80315" fill="none" stroke="black"/>
<path d="M63.9961,95.27h -6.80315" fill="none" stroke="black"/>
<path d="M63.9961,85.9384h -6.80315" fill="none" stroke="black"/>
<path d="M63.9961,76.6068h -6.80315" fill="none" stroke="black"/>
<path d="M70.7992,67.2752h -13.6063" fill="none" stroke="black"/>
<path d="M70.7992,67.2752h -13.6063" fill="none" stroke="black"/>
<path d="M63.9961,57.9435h -6.80315" fill="none" stroke="black"/>
<path d="M63.9961,48.6119h -6.80315" fill="none" stroke="black"/>
<path d="M63.9961,39.2803h -6.80315" fill="none" stroke="black"/>
<text xml:space="preserve" x="46.7965" y="351.691" fill="black" font-size="12.8882" font-family="Helvetica">0</text>
<text xml:space="preserve" x="32.1766" y="305.395" fill="black" font-size="12.8882" font-family="Helvetica">100</text>
<text xml:space="preserve" x="32.1766" y="258.286" fill="black" font-size="12.8882" font-family="Helvetica">200</text>
<text xml:space="preserve" x="32.1766" y="211.989" fill="black" font-size="12.8882" font-family="Helvetica">300</text>
<text xml:space="preserve" x="32.1766" y="164.881" fill="black" font-size="12.8882" font-family="Helvetica">400</text>
<text xml:space="preserve" x="32.1766" y="118.584" fill="black" font-size="12.8882" font-family="Helvetica">500</text>
<text xml:space="preserve" x="32.1766" y="71.4753" fill="black" font-size="12.8882" font-family="Helvetica">600</text>
<g transform="rotate(-90,21.6177,71.4753)">
<text xml:space="preserve" x="21.6177" y="71.4753" fill="black" font-size="12.8882" font-family="Helvetica">Event</text>
</g>
<text xml:space="preserve" x="215.738" y="18.681" fill="black" font-size="17.0471" font-family="Helvetica">led3020.root 26ch</text>
<rect x="442.705" y="25.0773" width="113.386" height="61.7287" fill="white"/>
<path d="M442.705,86.8059h 113.386" fill="none" stroke="black"/>
<path d="M556.091,86.8059v -61.7287" fill="none" stroke="black"/>
<path d="M556.091,25.0773h -113.386" fill="none" stroke="black"/>
<path d="M442.705,25.0773v 61.7287" fill="none" stroke="black"/>
<text xml:space="preserve" x="454.531" y="37.3621" fill="black" font-size="13.5253" font-family="Helvetica">ADC_HIGH_26</text>
<path d="M442.705,40.5094h 113.386" fill="none" stroke="black"/>
<text xml:space="preserve" x="448.033" y="52.7943" fill="black" font-size="12.7086" font-family="Helvetica">Entries </text>
<text xml:space="preserve" x="508.137" y="52.7943" fill="black" font-size="12.7086" font-family="Helvetica"> 100001</text>
<text xml:space="preserve" x="448.033" y="68.2264" fill="black" font-size="12.7086" font-family="Helvetica">Mean  </text>
<text xml:space="preserve" x="513.01" y="68.2264" fill="black" font-size="12.7086" font-family="Helvetica">  7.904</text>
<text xml:space="preserve" x="448.033" y="83.6586" fill="black" font-size="12.7086" font-family="Helvetica">Std Dev   </text>
<text xml:space="preserve" x="513.01" y="83.6586" fill="black" font-size="12.7086" font-family="Helvetica">  2.832</text>
<text xml:space="preserve" x="215.738" y="18.681" fill="black" font-size="17.0471" font-family="Helvetica">led3020.root 26ch</text></svg>
