<?xml version="1.0" standalone="no"?>
<svg width="567.429" height="386.304" viewBox="0 0 567.429 386.304" xmlns="http://www.w3.org/2000/svg" shape-rendering="crispEdges">
<title>
img/week1/3021_CH26_Clbed.svg
</title>
<desc>
Creator: ROOT Version 6.22/08
CreationDate: Mon Jun 21 14:39:14 2021</desc>
<defs>
</defs>
<rect x="0.5" y="0" width="566.929" height="385.804" fill="white"/>
<rect x="57.1929" y="38.5804" width="453.543" height="308.643" fill="white"/>
<rect x="57.1929" y="38.5804" width="453.543" height="308.643" fill="none" stroke="black"/>
<path d="M57.1929,347.224h 2.01575v -0.618834h 0.251969v 0.618834h 3.27559v -1.23767h 0.251969v 1.23767h 0.251969v -1.8565h 0.251969v 1.8565h 1.76378v -0.618834h 0.251969v 0.618834h 0.251969v -1.23767h 0.251969v 1.23767h 0.251969v -1.23767h 0.251969v
 1.23767h 0.503937v -0.618834h 0.251969v 0.618834h 0.251969v -0.618834h 0.251969v 0.618834h 1.51181v -1.23767h 0.251969v 1.23767h 10.3307v -0.618834h 0.503937v 0.618834h 0.755906v -0.618834h 0.251969v 0.618834h 0.503937v -1.23767h 0.251969v 1.23767h
 0.251969v -1.23767h 0.251969v 1.23767h 0.251969v -0.618834h 0.251969v 0.618834h 0.251969v -0.618834h 0.251969v 0.618834h 0.251969v -0.618834h 0.251969v -1.23767h 0.755906v 1.8565h 0.251969v -2.47534h 0.251969v 0.618834h 0.251969v -2.47534h 0.251969v
 1.8565h 0.251969v 0.618834h 0.251969v -1.8565h 0.503937v 0.618834h 0.251969v 0.618834h 0.251969v -3.09417h 0.251969v 2.47534h 0.251969v 0.618834h 0.251969v -1.8565h 0.251969v -2.47534h 0.251969v 5.5695h 0.251969v -1.8565h 0.251969v 0.618834h
 0.251969v -1.8565h 0.251969v 1.23767h 0.251969v 1.23767h 0.251969v 1.23767h 0.503937v -0.618834h 0.251969v 1.23767h 0.251969v -2.47534h 0.251969v 1.23767h 0.503937v 0.618834h 0.251969v 0.618834h 0.503937v -0.618834h 0.251969v 0.618834h 0.503937v
 -0.618834h 0.503937v 0.618834h 0.503937v -0.618834h 0.251969v 0.618834h 1.25984v -0.618834h 0.251969v 0.618834h 0.251969v -0.618834h 0.503937v 0.618834h 0.251969v -0.618834h 0.251969v 0.618834h 0.251969v -0.618834h 0.503937v -0.618834h 0.251969v
 0.618834h 0.503937v 0.618834h 0.251969v -1.23767h 0.251969v 0.618834h 0.251969v -0.618834h 1.00787v 1.23767h 0.251969v -1.23767h 0.251969v -0.618834h 0.251969v 1.23767h 0.755906v 0.618834h 0.755906v -0.618834h 0.755906v -0.618834h 1.00787v 0.618834h
 0.755906v -1.8565h 0.251969v 0.618834h 0.251969v -3.09417h 0.251969v 1.8565h 0.251969v -3.713h 0.251969v 3.09417h 0.251969v -3.713h 0.251969v -0.618834h 0.251969v -1.8565h 0.251969v 1.23767h 0.251969v -5.5695h 0.251969v 3.713h 0.251969v -6.80717h
 0.251969v 1.8565h 0.251969v -4.95067h 0.251969v 0.618834h 0.251969v 6.18834h 0.251969v -9.28251h 0.251969v 11.7578h 0.251969v -4.95067h 0.251969v 6.80717h 0.251969v -8.04484h 0.251969v 6.18834h 0.251969v 2.47534h 0.251969v -2.47534h 0.251969v
 2.47534h 0.251969v 2.47534h 0.251969v -0.618834h 0.251969v 2.47534h 0.251969v -1.8565h 0.251969v 3.09417h 0.755906v 1.23767h 0.503937v 0.618834h 0.251969v -2.47534h 0.251969v 0.618834h 0.251969v 2.47534h 0.251969v -1.23767h 0.503937v 1.23767h
 0.251969v -2.47534h 0.251969v 3.09417h 0.251969v -1.8565h 0.251969v 0.618834h 0.251969v -1.23767h 0.251969v 1.8565h 0.251969v -2.47534h 0.251969v 3.09417h 0.251969v -0.618834h 0.251969v -1.8565h 0.251969v 1.8565h 0.251969v 0.618834h 0.251969v
 -1.23767h 0.251969v -1.23767h 0.251969v 1.23767h 0.251969v 1.23767h 0.251969v -1.8565h 0.251969v 0.618834h 0.503937v 0.618834h 0.251969v -1.23767h 0.251969v 1.23767h 0.251969v -1.23767h 0.251969v 1.23767h 0.251969v -0.618834h 0.251969v -0.618834h
 0.251969v -1.8565h 0.251969v 1.8565h 0.251969v 0.618834h 0.251969v -1.23767h 0.251969v 1.23767h 0.251969v -1.23767h 0.251969v -1.23767h 0.251969v 3.09417h 0.251969v -2.47534h 0.251969v 0.618834h 0.251969v -1.23767h 0.251969v -0.618834h 0.251969v
 -1.23767h 0.251969v 1.8565h 0.251969v 0.618834h 0.503937v -2.47534h 0.251969v -4.33184h 0.251969v 3.09417h 0.251969v -3.713h 0.251969v -0.618834h 0.251969v 4.95067h 0.251969v -3.09417h 0.503937v -11.139h 0.251969v -3.713h 0.251969v 3.09417h
 0.251969v -9.90134h 0.251969v -1.8565h 0.503937v 6.80717h 0.251969v -25.991h 0.251969v 6.80717h 0.251969v 3.09417h 0.503937v 5.5695h 0.251969v -5.5695h 0.251969v -0.618834h 0.251969v 8.04484h 0.251969v -4.95067h 0.503937v 8.66367h 0.251969v -1.8565h
 0.251969v 6.80717h 0.251969v -0.618834h 0.251969v 4.33184h 0.251969v 1.8565h 0.251969v 6.18834h 0.251969v 1.8565h 0.251969v 1.8565h 0.251969v 3.713h 0.251969v -4.33184h 0.251969v 4.95067h 0.251969v -0.618834h 0.251969v 2.47534h 0.503937v -1.8565h
 0.251969v 4.33184h 0.251969v -2.47534h 0.251969v -1.8565h 0.251969v 3.713h 0.755906v -0.618834h 0.251969v 2.47534h 0.251969v -3.09417h 0.251969v 1.8565h 0.251969v -0.618834h 0.251969v -2.47534h 0.251969v 3.713h 0.251969v -2.47534h 0.251969v 1.23767h
 0.251969v 0.618834h 0.503937v 0.618834h 0.251969v 0.618834h 0.251969v -0.618834h 0.503937v -1.8565h 0.251969v -3.09417h 0.251969v -0.618834h 0.251969v 3.09417h 0.251969v 1.23767h 0.251969v -1.8565h 0.251969v -1.23767h 0.251969v 3.713h 0.251969v
 -3.09417h 0.251969v 0.618834h 0.251969v -0.618834h 0.251969v 2.47534h 0.251969v -3.713h 0.251969v 1.23767h 0.251969v -3.09417h 0.251969v 3.09417h 0.251969v -1.23767h 0.251969v 2.47534h 0.251969v -1.8565h 0.251969v -1.23767h 0.251969v -0.618834h
 0.251969v -2.47534h 0.251969v 1.23767h 0.251969v -4.95067h 0.251969v 5.5695h 0.251969v -2.47534h 0.251969v -1.23767h 0.251969v -5.5695h 0.251969v -1.8565h 0.251969v -5.5695h 0.251969v -1.23767h 0.251969v -1.23767h 0.251969v 0.618834h 0.251969v
 -6.80717h 0.251969v -11.7578h 0.251969v -9.90134h 0.251969v -0.618834h 0.251969v -11.7578h 0.251969v -9.28251h 0.251969v 6.80717h 0.251969v -15.4708h 0.251969v 2.47534h 0.251969v -15.4708h 0.251969v 1.8565h 0.251969v 3.09417h 0.251969v 3.09417h
 0.251969v -9.90134h 0.251969v 11.139h 0.251969v 5.5695h 0.251969v -5.5695h 0.251969v 13.6143h 0.251969v -5.5695h 0.251969v 14.2332h 0.251969v 13.6143h 0.251969v 5.5695h 0.251969v 5.5695h 0.251969v 5.5695h 0.251969v 4.33184h 0.251969v -4.95067h
 0.251969v 18.565h 0.251969v -3.09417h 0.251969v 10.5202h 0.251969v -3.09417h 0.251969v -0.618834h 0.251969v 3.713h 0.251969v -4.33184h 0.251969v 4.33184h 0.251969v 3.09417h 0.251969v -3.713h 0.251969v 3.713h 0.251969v 1.23767h 0.251969v -4.33184h
 0.251969v 5.5695h 0.503937v -0.618834h 0.503937v -0.618834h 0.251969v -1.23767h 0.251969v 4.33184h 0.251969v 0.618834h 0.251969v -1.8565h 0.251969v -1.23767h 0.251969v -0.618834h 0.251969v -1.23767h 0.251969v 1.8565h 0.251969v -0.618834h 0.251969v
 1.23767h 0.251969v 0.618834h 0.251969v -0.618834h 0.251969v -3.09417h 0.503937v 1.8565h 0.251969v -0.618834h 0.251969v 3.09417h 0.251969v -5.5695h 0.251969v 3.713h 0.251969v -7.42601h 0.251969v 6.18834h 0.755906v 0.618834h 0.251969v -3.713h
 0.503937v 1.23767h 0.503937v 0.618834h 0.251969v -1.23767h 0.251969v -3.09417h 0.251969v -1.23767h 0.251969v -1.8565h 0.251969v 3.09417h 0.251969v -6.80717h 0.251969v -3.713h 0.251969v -0.618834h 0.251969v -5.5695h 0.251969v 2.47534h 0.251969v
 -4.95067h 0.251969v -12.9955h 0.251969v 3.09417h 0.251969v -14.852h 0.251969v -9.28251h 0.251969v -14.2332h 0.251969v -12.3767h 0.251969v -14.852h 0.251969v 11.7578h 0.251969v -22.8969h 0.251969v -5.5695h 0.251969v -25.3722h 0.251969v 1.8565h
 0.251969v 1.8565h 0.251969v -24.1345h 0.251969v 11.7578h 0.251969v 11.139h 0.251969v -3.713h 0.251969v 0.618834h 0.251969v 8.04484h 0.251969v 19.1838h 0.251969v 2.47534h 0.251969v 1.23767h 0.251969v 22.278h 0.251969v 9.90134h 0.251969v 19.8027h
 0.251969v -6.18834h 0.251969v 10.5202h 0.251969v 0.618834h 0.251969v 8.66367h 0.251969v 14.2332h 0.251969v -6.80717h 0.251969v 9.90134h 0.251969v 9.90134h 0.251969v 3.09417h 0.251969v -0.618834h 0.251969v 1.23767h 0.251969v -0.618834h 0.251969v
 6.80717h 0.251969v 1.23767h 0.251969v -6.80717h 0.251969v 6.80717h 0.251969v 0.618834h 0.251969v 5.5695h 0.251969v -8.04484h 0.251969v 5.5695h 0.251969v -3.713h 0.503937v 1.8565h 0.251969v 4.33184h 0.251969v -3.713h 0.251969v 3.09417h 0.251969v
 2.47534h 0.503937v -1.8565h 0.503937v -1.8565h 0.251969v 2.47534h 0.251969v 1.23767h 0.251969v -4.33184h 0.251969v 1.8565h 0.251969v 2.47534h 0.251969v -4.95067h 0.251969v 5.5695h 0.251969v -6.80717h 0.251969v 0.618834h 0.251969v 4.33184h 0.251969v
 -1.8565h 0.251969v 0.618834h 0.251969v -2.47534h 0.251969v -3.09417h 0.251969v 2.47534h 0.503937v -2.47534h 0.251969v -0.618834h 0.251969v -1.23767h 0.251969v 1.23767h 0.251969v -1.8565h 0.251969v -7.42601h 0.251969v 1.8565h 0.503937v -4.33184h
 0.251969v -11.139h 0.251969v 4.33184h 0.251969v -6.80717h 0.251969v -7.42601h 0.251969v -1.8565h 0.251969v -0.618834h 0.251969v -21.0403h 0.251969v -11.139h 0.251969v -11.7578h 0.251969v -14.852h 0.251969v -9.90134h 0.251969v -5.5695h 0.251969v
 -26.6099h 0.251969v -4.33184h 0.251969v -14.2332h 0.251969v -17.3273h 0.251969v -6.80717h 0.251969v -17.3273h 0.251969v -3.713h 0.251969v 3.09417h 0.251969v -6.80717h 0.251969v -6.80717h 0.251969v 4.95067h 0.251969v 25.991h 0.251969v -9.28251h
 0.251969v 25.991h 0.251969v -3.713h 0.251969v 34.0359h 0.251969v 16.0897h 0.251969v 5.5695h 0.251969v -13.6143h 0.251969v 27.8475h 0.251969v 24.1345h 0.251969v 13.6143h 0.251969v 3.09417h 0.251969v 14.2332h 0.251969v -3.09417h 0.251969v 9.28251h
 0.251969v 6.80717h 0.503937v 7.42601h 0.251969v 1.23767h 0.251969v 1.8565h 0.251969v 5.5695h 0.251969v -6.18834h 0.251969v 14.2332h 0.251969v -9.28251h 0.251969v 5.5695h 0.251969v -1.8565h 0.251969v 9.28251h 0.503937v -4.33184h 0.251969v 4.95067h
 0.251969v 1.8565h 0.251969v -7.42601h 0.251969v 6.18834h 0.251969v -2.47534h 0.251969v 5.5695h 0.251969v -3.713h 0.251969v -0.618834h 0.251969v 1.8565h 0.251969v 4.95067h 0.251969v -9.28251h 0.251969v 4.95067h 0.251969v 2.47534h 0.251969v -2.47534h
 0.251969v 4.33184h 0.251969v -2.47534h 0.251969v -4.95067h 0.251969v 1.8565h 0.251969v 0.618834h 0.251969v 2.47534h 0.251969v -3.713h 0.251969v 0.618834h 0.251969v 1.8565h 0.251969v -4.95067h 0.251969v 1.8565h 0.251969v -6.80717h 0.251969v 8.66367h
 0.251969v -3.09417h 0.251969v -6.80717h 0.251969v 3.713h 0.251969v -8.66367h 0.503937v -11.139h 0.251969v 1.8565h 0.251969v -14.852h 0.251969v 13.6143h 0.251969v -6.18834h 0.251969v -11.7578h 0.251969v 4.33184h 0.251969v -21.6592h 0.251969v
 -19.8027h 0.251969v 1.8565h 0.251969v -19.1838h 0.251969v -1.23767h 0.251969v -21.6592h 0.251969v 1.23767h 0.251969v -50.7444h 0.251969v 12.9955h 0.251969v -28.4664h 0.251969v -25.991h 0.251969v -8.66367h 0.251969v -7.42601h 0.251969v -18.565h
 0.251969v 0.618834h 0.251969v -28.4664h 0.251969v 29.704h 0.251969v -6.80717h 0.251969v 31.5605h 0.251969v -7.42601h 0.251969v 21.6592h 0.251969v 8.66367h 0.251969v -18.565h 0.251969v 55.695h 0.251969v 22.278h 0.251969v -7.42601h 0.251969v 42.6995h
 0.251969v -20.4215h 0.251969v 42.0807h 0.251969v -15.4708h 0.251969v 27.8475h 0.251969v 8.66367h 0.251969v 8.04484h 0.251969v 4.33184h 0.251969v 9.28251h 0.251969v -3.09417h 0.251969v 13.6143h 0.251969v -5.5695h 0.251969v 4.33184h 0.251969v 1.8565h
 0.251969v 6.18834h 0.251969v -1.8565h 0.251969v 6.18834h 0.251969v -2.47534h 0.251969v -1.8565h 0.251969v 11.7578h 0.251969v 2.47534h 0.251969v -4.33184h 0.503937v 2.47534h 0.251969v 4.33184h 0.251969v -3.09417h 0.251969v 6.18834h 0.251969v
 -3.09417h 0.503937v -1.8565h 0.251969v 1.8565h 0.251969v 7.42601h 0.251969v -6.18834h 0.251969v 1.8565h 0.251969v -3.09417h 0.251969v -2.47534h 0.251969v 11.7578h 0.251969v -6.80717h 0.251969v -5.5695h 0.251969v 0.618834h 0.251969v 1.8565h 0.251969v
 3.09417h 0.251969v -5.5695h 0.251969v 2.47534h 0.251969v -0.618834h 0.251969v -9.28251h 0.251969v 8.66367h 0.251969v 6.80717h 0.251969v -18.565h 0.251969v 5.5695h 0.251969v -4.95067h 0.251969v -9.28251h 0.251969v 11.7578h 0.251969v -15.4708h
 0.251969v -4.33184h 0.251969v -4.95067h 0.251969v 9.90134h 0.251969v -17.3273h 0.251969v -6.80717h 0.251969v -2.47534h 0.251969v -23.5157h 0.251969v -4.95067h 0.251969v -10.5202h 0.251969v -4.95067h 0.251969v -19.1838h 0.251969v -11.7578h 0.251969v
 -25.3722h 0.251969v -58.7892h 0.251969v 19.1838h 0.251969v -25.991h 0.251969v 12.3767h 0.251969v -46.4125h 0.251969v -7.42601h 0.251969v 1.23767h 0.251969v 6.80717h 0.251969v -24.1345h 0.251969v 32.1794h 0.251969v -11.7578h 0.251969v -4.33184h
 0.251969v 4.33184h 0.251969v 29.0852h 0.251969v 11.7578h 0.251969v 40.843h 0.251969v -7.42601h 0.251969v 24.1345h 0.251969v 2.47534h 0.251969v 30.3229h 0.251969v 16.7085h 0.251969v 13.6143h 0.251969v 6.18834h 0.251969v 11.139h 0.251969v 11.139h
 0.251969v -6.18834h 0.251969v 23.5157h 0.251969v -3.09417h 0.251969v 3.713h 0.251969v 19.8027h 0.251969v -16.7085h 0.251969v 16.7085h 0.251969v -13.6143h 0.251969v 18.565h 0.251969v -4.33184h 0.251969v 12.9955h 0.251969v -6.18834h 0.251969v 4.33184h
 0.251969v 3.09417h 0.503937v -3.713h 0.251969v 7.42601h 0.251969v -0.618834h 0.251969v 3.713h 0.251969v -1.23767h 0.251969v 2.47534h 0.251969v 1.23767h 0.251969v 2.47534h 0.251969v -0.618834h 0.251969v 3.09417h 0.503937v -0.618834h 0.251969v
 -1.8565h 0.251969v -3.09417h 0.251969v -4.33184h 0.251969v -1.8565h 0.251969v 13.6143h 0.251969v -1.23767h 0.251969v -4.33184h 0.251969v 3.09417h 0.251969v -3.09417h 0.251969v -5.5695h 0.251969v 8.04484h 0.251969v -3.713h 0.251969v -1.8565h
 0.251969v 2.47534h 0.251969v -6.18834h 0.251969v 3.09417h 0.251969v -6.18834h 0.251969v -1.23767h 0.251969v 3.09417h 0.251969v -5.5695h 0.251969v -3.09417h 0.251969v -11.139h 0.251969v -3.713h 0.251969v -11.7578h 0.251969v 6.80717h 0.251969v
 -19.8027h 0.251969v -12.9955h 0.251969v -1.8565h 0.251969v -25.991h 0.251969v -5.5695h 0.251969v -11.7578h 0.251969v 4.95067h 0.251969v -58.1704h 0.251969v 14.852h 0.251969v -11.7578h 0.251969v -13.6143h 0.251969v -16.0897h 0.251969v -20.4215h
 0.251969v 1.8565h 0.251969v -2.47534h 0.251969v -40.2242h 0.251969v 0.618834h 0.251969v -6.80717h 0.251969v 11.139h 0.251969v -5.5695h 0.251969v 36.5112h 0.251969v -14.2332h 0.251969v 50.7444h 0.251969v -9.28251h 0.251969v 19.1838h 0.251969v 5.5695h
 0.251969v 36.5112h 0.251969v -11.139h 0.251969v 8.04484h 0.251969v 31.5605h 0.251969v 23.5157h 0.251969v -7.42601h 0.251969v 5.5695h 0.251969v 25.991h 0.251969v -5.5695h 0.251969v -1.23767h 0.251969v 1.23767h 0.251969v 3.713h 0.251969v 26.6099h
 0.251969v -5.5695h 0.251969v 1.23767h 0.251969v 1.8565h 0.251969v 8.04484h 0.251969v 6.80717h 0.503937v -6.80717h 0.251969v 11.7578h 0.251969v -1.8565h 0.251969v 4.33184h 0.251969v 1.8565h 0.251969v 3.09417h 0.251969v 0.618834h 0.251969v -3.713h
 0.251969v 9.28251h 0.251969v 0.618834h 0.251969v -4.95067h 0.251969v 4.95067h 0.251969v 3.713h 0.251969v -5.5695h 0.251969v 4.95067h 0.503937v -8.66367h 0.251969v 8.04484h 0.503937v -1.23767h 0.251969v 3.713h 0.251969v -4.95067h 0.251969v 4.33184h
 0.251969v 1.8565h 0.251969v -9.28251h 0.251969v 4.95067h 0.251969v -0.618834h 0.251969v -4.33184h 0.251969v -2.47534h 0.251969v 3.713h 0.251969v -1.8565h 0.251969v -0.618834h 0.251969v 1.23767h 0.251969v -9.90134h 0.251969v -1.8565h 0.251969v
 -2.47534h 0.251969v -1.23767h 0.251969v -4.33184h 0.251969v -14.852h 0.251969v -2.47534h 0.251969v -3.713h 0.251969v -16.7085h 0.251969v -11.7578h 0.251969v 6.18834h 0.251969v -33.417h 0.251969v 10.5202h 0.251969v -24.1345h 0.251969v -12.9955h
 0.251969v -8.04484h 0.503937v -37.13h 0.251969v -3.713h 0.251969v -25.3722h 0.251969v 18.565h 0.251969v -14.852h 0.251969v 19.1838h 0.251969v -27.8475h 0.251969v -15.4708h 0.251969v 8.04484h 0.251969v 14.852h 0.251969v -28.4664h 0.251969v 51.3632h
 0.251969v -24.1345h 0.251969v 50.1255h 0.251969v -13.6143h 0.251969v 14.2332h 0.251969v 4.95067h 0.251969v -2.47534h 0.251969v 38.9865h 0.251969v 10.5202h 0.251969v -19.8027h 0.251969v 35.2735h 0.251969v 6.18834h 0.251969v 14.2332h 0.251969v
 -5.5695h 0.251969v 14.2332h 0.251969v -1.8565h 0.251969v 9.90134h 0.251969v 3.713h 0.251969v 12.9955h 0.251969v -1.23767h 0.251969v -7.42601h 0.251969v 17.9462h 0.251969v 0.618834h 0.251969v 3.09417h 0.503937v -0.618834h 0.251969v 3.713h 0.251969v
 -6.18834h 0.251969v 7.42601h 0.251969v -4.33184h 0.251969v 8.66367h 0.251969v -9.90134h 0.251969v 11.7578h 0.251969v 3.09417h 0.251969v 0.618834h 0.251969v -1.8565h 0.251969v -3.09417h 0.251969v 9.28251h 0.251969v 2.47534h 0.251969v -1.8565h
 0.251969v -4.33184h 0.251969v 4.95067h 0.251969v -1.8565h 0.251969v -5.5695h 0.251969v 6.18834h 0.251969v -0.618834h 0.251969v 3.713h 0.251969v -4.95067h 0.251969v 1.8565h 0.251969v -3.09417h 0.251969v -3.09417h 0.251969v 4.33184h 0.251969v
 -0.618834h 0.251969v -6.18834h 0.251969v 3.713h 0.251969v -1.23767h 0.251969v -8.66367h 0.251969v 8.04484h 0.251969v 1.23767h 0.251969v -20.4215h 0.251969v 1.8565h 0.251969v -9.28251h 0.251969v 4.95067h 0.251969v -4.33184h 0.251969v -16.7085h
 0.251969v 1.8565h 0.251969v -6.80717h 0.251969v -6.18834h 0.251969v -11.7578h 0.251969v -20.4215h 0.251969v -6.80717h 0.251969v 6.80717h 0.251969v -17.9462h 0.251969v -12.3767h 0.251969v -4.95067h 0.251969v -10.5202h 0.251969v -8.66367h 0.251969v
 -11.139h 0.251969v -12.9955h 0.251969v 10.5202h 0.251969v -3.09417h 0.251969v -29.0852h 0.251969v 15.4708h 0.251969v 1.8565h 0.251969v 30.9417h 0.251969v -26.6099h 0.251969v 27.2287h 0.251969v 18.565h 0.251969v -7.42601h 0.251969v 12.9955h 0.251969v
 11.139h 0.251969v 21.0403h 0.251969v -3.713h 0.251969v -3.713h 0.251969v 24.7534h 0.251969v 4.95067h 0.251969v 3.09417h 0.251969v -1.8565h 0.251969v 6.18834h 0.251969v 21.6592h 0.251969v -5.5695h 0.251969v -4.95067h 0.251969v 21.6592h 0.251969v
 -4.33184h 0.251969v 1.23767h 0.251969v 3.713h 0.251969v -6.18834h 0.251969v 11.7578h 0.503937v 8.04484h 0.251969v -3.713h 0.251969v -3.09417h 0.251969v 5.5695h 0.503937v 1.8565h 0.251969v 1.8565h 0.251969v -0.618834h 0.503937v 3.09417h 0.251969v
 -4.33184h 0.251969v 5.5695h 0.251969v 3.713h 0.251969v -1.23767h 0.251969v 4.33184h 0.251969v 1.8565h 0.251969v 0.618834h 0.251969v -7.42601h 0.251969v 3.713h 0.251969v -5.5695h 0.251969v 4.33184h 0.251969v 6.80717h 0.251969v -7.42601h 0.251969v
 3.713h 0.251969v -3.09417h 0.251969v 5.5695h 0.251969v -10.5202h 0.251969v 3.09417h 0.251969v -1.23767h 0.251969v 3.713h 0.251969v -7.42601h 0.251969v 4.95067h 0.251969v -0.618834h 0.251969v -1.8565h 0.251969v -3.09417h 0.251969v -4.95067h 0.251969v
 -9.28251h 0.251969v 1.23767h 0.251969v -6.18834h 0.251969v -1.23767h 0.251969v -2.47534h 0.251969v -8.66367h 0.251969v -7.42601h 0.251969v -2.47534h 0.251969v -14.2332h 0.251969v -4.95067h 0.251969v -4.95067h 0.251969v 3.713h 0.251969v -16.7085h
 0.251969v -2.47534h 0.251969v 8.66367h 0.251969v -9.28251h 0.251969v -25.3722h 0.251969v -12.9955h 0.251969v 3.09417h 0.251969v 3.713h 0.251969v -14.852h 0.251969v 5.5695h 0.251969v 14.2332h 0.251969v 22.278h 0.251969v -29.0852h 0.251969v 22.278h
 0.251969v 11.7578h 0.251969v -12.9955h 0.251969v 20.4215h 0.251969v -4.95067h 0.251969v 8.04484h 0.251969v 2.47534h 0.251969v 0.618834h 0.251969v 6.18834h 0.251969v 12.9955h 0.251969v 6.18834h 0.251969v 10.5202h 0.251969v 1.23767h 0.251969v
 -6.80717h 0.251969v 8.04484h 0.251969v 1.23767h 0.251969v 4.33184h 0.251969v 16.7085h 0.251969v -6.80717h 0.251969v -1.8565h 0.251969v 8.04484h 0.251969v -5.5695h 0.251969v 11.7578h 0.251969v -3.09417h 0.251969v 5.5695h 0.251969v -0.618834h
 0.503937v -2.47534h 0.251969v 1.8565h 0.251969v 3.09417h 0.251969v 4.95067h 0.251969v -0.618834h 0.251969v -1.23767h 0.251969v 1.23767h 0.251969v 1.8565h 0.251969v -3.713h 0.251969v 10.5202h 0.251969v -6.80717h 0.251969v 2.47534h 0.251969v -4.33184h
 0.251969v 7.42601h 0.251969v -1.23767h 0.251969v -1.8565h 0.251969v 1.8565h 0.251969v 1.8565h 0.251969v -6.80717h 0.251969v 1.8565h 0.251969v 1.23767h 0.251969v 1.8565h 0.251969v -5.5695h 0.251969v 6.80717h 0.251969v -8.04484h 0.251969v 5.5695h
 0.251969v -5.5695h 0.251969v 1.8565h 0.251969v -0.618834h 0.251969v -3.09417h 0.251969v 4.33184h 0.251969v -12.3767h 0.251969v 9.28251h 0.251969v -9.90134h 0.251969v -0.618834h 0.251969v -1.8565h 0.251969v -9.28251h 0.251969v 6.18834h 0.251969v
 -7.42601h 0.251969v -12.3767h 0.251969v 4.33184h 0.251969v -12.3767h 0.251969v 14.2332h 0.251969v -21.0403h 0.251969v -3.713h 0.251969v -2.47534h 0.251969v 1.23767h 0.251969v 10.5202h 0.251969v -22.278h 0.251969v 8.66367h 0.251969v -14.852h
 0.251969v 1.23767h 0.251969v -9.28251h 0.251969v -4.95067h 0.251969v 24.7534h 0.251969v -14.2332h 0.251969v 8.04484h 0.251969v 14.852h 0.251969v -11.139h 0.251969v 14.852h 0.251969v -4.33184h 0.251969v 1.8565h 0.251969v 7.42601h 0.251969v 4.95067h
 0.251969v -3.713h 0.251969v 8.66367h 0.251969v -0.618834h 0.251969v 5.5695h 0.251969v 3.09417h 0.251969v 3.09417h 0.251969v 3.09417h 0.251969v 3.713h 0.251969v -4.95067h 0.251969v 5.5695h 0.251969v -4.95067h 0.251969v 7.42601h 0.251969v -6.18834h
 0.251969v 11.139h 0.251969v 9.28251h 0.251969v -0.618834h 0.251969v -4.95067h 0.251969v 4.95067h 0.251969v -3.713h 0.251969v 4.95067h 0.503937v 0.618834h 0.251969v 1.23767h 0.251969v 3.713h 0.251969v -1.23767h 0.251969v 0.618834h 0.251969v
 -0.618834h 0.251969v 1.8565h 0.251969v 1.8565h 0.503937v -1.23767h 0.251969v -1.23767h 0.251969v 2.47534h 0.251969v 3.09417h 0.251969v -3.713h 0.251969v 2.47534h 0.251969v -6.18834h 0.251969v -0.618834h 0.251969v 6.80717h 0.251969v -0.618834h
 0.503937v -1.8565h 0.251969v -1.23767h 0.251969v -0.618834h 0.251969v -4.95067h 0.251969v 4.33184h 0.251969v 2.47534h 0.251969v -2.47534h 0.251969v 1.23767h 0.251969v -2.47534h 0.251969v -3.713h 0.251969v 2.47534h 0.251969v -2.47534h 0.251969v
 -1.23767h 0.251969v -3.09417h 0.251969v -3.713h 0.251969v -2.47534h 0.503937v 1.23767h 0.251969v -4.95067h 0.251969v -6.80717h 0.251969v 3.09417h 0.251969v -3.713h 0.503937v -4.95067h 0.251969v -1.8565h 0.251969v -10.5202h 0.251969v 6.18834h
 0.251969v -2.47534h 0.251969v 1.23767h 0.251969v -13.6143h 0.251969v 7.42601h 0.251969v 4.95067h 0.251969v 0.618834h 0.251969v -16.7085h 0.251969v 16.0897h 0.251969v 1.23767h 0.251969v 0.618834h 0.251969v -11.139h 0.251969v 16.0897h 0.251969v
 1.23767h 0.251969v -4.33184h 0.251969v 3.713h 0.251969v 3.713h 0.251969v -4.95067h 0.251969v 17.3273h 0.251969v -1.8565h 0.251969v -10.5202h 0.251969v 10.5202h 0.503937v 8.04484h 0.251969v 2.47534h 0.251969v -3.713h 0.251969v 1.8565h 0.251969v
 -1.8565h 0.251969v 1.8565h 0.251969v 1.23767h 0.503937v 4.33184h 0.251969v 1.23767h 0.251969v -4.33184h 0.251969v 4.33184h 0.251969v 3.09417h 0.251969v -0.618834h 0.251969v -2.47534h 0.251969v 5.5695h 0.251969v -0.618834h 0.251969v 3.09417h
 0.251969v -3.713h 0.251969v 0.618834h 0.251969v -2.47534h 0.251969v 2.47534h 0.251969v -1.23767h 0.251969v 3.713h 0.251969v -4.33184h 0.251969v 3.713h 0.251969v 2.47534h 0.251969v -3.713h 0.251969v 4.95067h 0.503937v 0.618834h 0.251969v -2.47534h
 0.251969v -1.23767h 0.251969v 2.47534h 0.251969v -3.09417h 0.251969v 1.23767h 0.251969v -4.33184h 0.251969v 3.713h 0.251969v -0.618834h 0.251969v 0.618834h 0.251969v -1.23767h 0.251969v 1.23767h 0.251969v -4.33184h 0.251969v -0.618834h 0.251969v
 4.33184h 0.251969v -3.09417h 0.503937v -4.95067h 0.251969v -3.09417h 0.251969v 2.47534h 0.251969v 6.18834h 0.251969v -5.5695h 0.251969v 3.09417h 0.251969v -5.5695h 0.251969v -8.04484h 0.251969v -1.8565h 0.251969v 4.95067h 0.251969v 1.8565h 0.251969v
 -18.565h 0.251969v 15.4708h 0.251969v 0.618834h 0.251969v -10.5202h 0.251969v -3.09417h 0.251969v -3.713h 0.251969v 2.47534h 0.251969v 6.18834h 0.251969v -1.23767h 0.251969v -3.09417h 0.251969v 3.09417h 0.251969v -6.18834h 0.251969v 7.42601h
 0.251969v 4.33184h 0.251969v -4.95067h 0.251969v -4.33184h 0.251969v 9.90134h 0.251969v 1.23767h 0.251969v 2.47534h 0.251969v 2.47534h 0.251969v -4.33184h 0.251969v 7.42601h 0.251969v 3.09417h 0.251969v -11.139h 0.251969v 11.7578h 0.251969v -5.5695h
 0.503937v 4.33184h 0.251969v -6.18834h 0.251969v 9.90134h 0.503937v -1.23767h 0.251969v 2.47534h 0.251969v 0.618834h 0.251969v 2.47534h 0.251969v -3.713h 0.251969v 3.09417h 0.251969v 2.47534h 0.503937v -1.23767h 0.251969v -1.23767h 0.251969v
 1.23767h 0.251969v 0.618834h 0.251969v -1.23767h 0.251969v -0.618834h 0.251969v 4.33184h 0.503937v -4.33184h 0.251969v 1.8565h 0.251969v 1.23767h 0.251969v -1.8565h 0.251969v 3.09417h 0.251969v -2.47534h 0.503937v 1.8565h 0.503937v 0.618834h
 0.251969v -0.618834h 0.755906v -0.618834h 0.251969v 1.23767h 0.251969v -3.09417h 0.251969v 1.8565h 0.251969v 2.47534h 0.251969v -3.09417h 0.251969v 2.47534h 0.251969v -0.618834h 0.251969v -1.23767h 0.251969v -1.8565h 0.251969v 0.618834h 0.251969v
 -3.09417h 0.503937v 1.23767h 0.251969v 1.23767h 0.251969v -0.618834h 0.251969v 1.8565h 0.251969v -7.42601h 0.251969v 2.47534h 0.251969v -1.8565h 0.251969v -3.09417h 0.251969v 2.47534h 0.251969v -5.5695h 0.251969v 3.713h 0.251969v -2.47534h 0.251969v
 -4.33184h 0.251969v 1.8565h 0.251969v 1.8565h 0.251969v -6.18834h 0.251969v 8.66367h 0.251969v -3.09417h 0.503937v -4.95067h 0.251969v 4.33184h 0.251969v -4.95067h 0.251969v -1.23767h 0.251969v 6.18834h 0.251969v 2.47534h 0.251969v 0.618834h
 0.251969v -1.23767h 0.503937v 4.33184h 0.251969v -1.8565h 0.251969v 1.23767h 0.251969v 4.33184h 0.251969v -4.95067h 0.251969v 0.618834h 0.251969v 1.8565h 0.251969v 6.18834h 0.251969v -1.8565h 0.251969v -2.47534h 0.251969v 2.47534h 0.251969v
 -1.23767h 0.251969v 2.47534h 0.251969v -3.09417h 0.251969v 1.8565h 0.251969v 1.23767h 0.251969v -0.618834h 0.251969v 1.23767h 0.251969v 1.8565h 0.251969v -3.09417h 0.251969v -3.09417h 0.251969v 4.33184h 0.251969v 2.47534h 0.251969v -0.618834h
 0.503937v -1.23767h 0.251969v -0.618834h 0.251969v 0.618834h 0.251969v 1.23767h 0.251969v 0.618834h 0.251969v 0.618834h 0.251969v -1.8565h 0.251969v 1.23767h 0.503937v -1.23767h 0.251969v 2.47534h 0.251969v -0.618834h 0.251969v -2.47534h 0.251969v
 2.47534h 0.251969v -1.23767h 0.251969v -0.618834h 0.251969v -1.23767h 0.251969v 3.09417h 0.251969v -0.618834h 0.503937v -0.618834h 0.251969v 1.23767h 0.503937v -0.618834h 0.251969v -3.713h 0.251969v 3.713h 0.251969v -1.23767h 0.251969v 1.8565h
 0.251969v -2.47534h 0.251969v -0.618834h 0.251969v -0.618834h 0.503937v -0.618834h 0.251969v 1.23767h 0.251969v 1.8565h 0.251969v -3.713h 0.251969v -0.618834h 0.503937v -2.47534h 0.503937v 5.5695h 0.251969v -3.713h 0.251969v -2.47534h 0.251969v
 0.618834h 0.251969v -1.8565h 0.251969v 4.33184h 0.251969v -3.09417h 0.251969v -0.618834h 0.251969v 3.09417h 0.251969v -7.42601h 0.251969v 5.5695h 0.251969v -1.8565h 0.251969v 1.8565h 0.251969v -2.47534h 0.251969v -2.47534h 0.251969v 9.90134h
 0.251969v -3.713h 0.251969v -2.47534h 0.251969v 5.5695h 0.251969v -7.42601h 0.251969v 5.5695h 0.251969v -0.618834h 0.251969v 4.95067h 0.251969v -2.47534h 0.251969v 0.618834h 0.251969v 0.618834h 0.503937v -1.23767h 0.251969v 0.618834h 0.251969v
 0.618834h 0.251969v 1.23767h 0.251969v 0.618834h 0.251969v -0.618834h 0.251969v 0.618834h 0.251969v 1.23767h 0.251969v -1.8565h 0.251969v 0.618834h 0.503937v -3.713h 0.251969v 1.23767h 0.251969v 2.47534h 0.251969v 0.618834h 0.251969v -0.618834h
 0.503937v -3.09417h 0.251969v 3.09417h 0.251969v 1.23767h 0.251969v -0.618834h 0.503937v -1.8565h 0.251969v 3.09417h 0.251969v -0.618834h 0.251969v -1.23767h 0.251969v -0.618834h 0.503937v 1.8565h 0.251969v 0.618834h 0.251969v -1.8565h 0.251969v
 1.23767h 0.251969v -0.618834h 0.251969v -0.618834h 0.251969v 0.618834h 0.251969v -0.618834h 0.251969v 1.8565h 0.251969v -0.618834h 1.00787v 0.618834h 0.251969v -0.618834h 0.251969v -0.618834h 0.251969v -1.23767h 0.251969v 0.618834h 0.251969v
 -1.8565h 0.251969v 1.8565h 0.251969v 1.23767h 0.251969v -1.23767h 0.251969v -1.8565h 0.251969v 3.09417h 0.251969v -0.618834h 0.251969v -3.09417h 0.251969v 2.47534h 0.251969v -3.713h 0.251969v 1.23767h 0.251969v 0.618834h 0.251969v -2.47534h
 0.503937v 2.47534h 0.251969v 0.618834h 0.251969v 1.23767h 0.251969v -2.47534h 0.251969v 0.618834h 0.251969v -3.713h 0.251969v 1.23767h 0.251969v 3.713h 0.251969v 1.23767h 0.251969v -5.5695h 0.251969v 4.33184h 0.251969v -3.09417h 0.251969v -2.47534h
 0.251969v 4.33184h 0.251969v 1.23767h 0.251969v -0.618834h 0.251969v -1.8565h 0.251969v -3.713h 0.251969v 3.09417h 0.251969v 0.618834h 0.251969v 1.23767h 0.251969v 1.23767h 0.251969v -2.47534h 0.251969v 1.8565h 0.251969v 0.618834h 0.251969v -3.713h
 0.251969v 3.09417h 0.251969v 0.618834h 0.251969v -2.47534h 0.251969v 1.8565h 0.251969v 1.8565h 0.503937v -3.09417h 0.251969v 3.09417h 0.251969v 0.618834h 0.251969v -0.618834h 0.251969v 0.618834h 0.251969v 0.618834h 0.251969v -0.618834h 0.503937v
 -0.618834h 0.251969v 0.618834h 0.251969v -0.618834h 0.251969v -0.618834h 0.251969v 0.618834h 0.251969v 1.23767h 0.251969v -0.618834h 0.503937v 0.618834h 0.503937v -0.618834h 0.251969v -1.23767h 0.251969v 1.23767h 0.251969v 0.618834h 0.251969v
 -1.8565h 0.251969v 1.8565h 0.251969v -1.23767h 0.755906v 1.23767h 0.251969v -2.47534h 0.251969v 1.8565h 0.251969v 0.618834h 0.251969v -1.23767h 0.251969v 0.618834h 0.251969v -0.618834h 0.251969v 1.23767h 0.251969v -1.23767h 0.251969v -1.23767h
 0.251969v 2.47534h 0.251969v -2.47534h 0.251969v 1.23767h 0.251969v 0.618834h 0.251969v -1.23767h 0.251969v 1.8565h 0.251969v -0.618834h 0.251969v -1.8565h 0.251969v 1.23767h 0.251969v -0.618834h 0.251969v -0.618834h 0.251969v 1.23767h 0.251969v
 -1.23767h 0.503937v -3.09417h 0.251969v 3.09417h 0.251969v -1.8565h 0.251969v 1.23767h 0.251969v 2.47534h 0.251969v -3.09417h 0.251969v 1.23767h 0.503937v -0.618834h 0.251969v 1.23767h 0.503937v -0.618834h 0.503937v -0.618834h 0.503937v 0.618834h
 0.251969v 1.23767h 0.251969v -2.47534h 0.251969v 3.09417h 0.251969v -2.47534h 0.251969v -0.618834h 0.251969v 3.09417h 0.503937v -2.47534h 0.251969v 2.47534h 1.25984v -1.8565h 0.251969v 1.8565h 0.251969v 0.618834h 0.251969v -0.618834h 0.755906v
 0.618834h 0.251969v -0.618834h 0.503937v -0.618834h 0.251969v 1.23767h 0.251969v -0.618834h 0.755906v 0.618834h 0.251969v -0.618834h 1.00787v 0.618834h 1.00787v -0.618834h 0.251969v 0.618834h 0.251969v -0.618834h 0.251969v 0.618834h 0.503937v
 -0.618834h 0.251969v 0.618834h 0.251969v -0.618834h 0.251969v -0.618834h 0.251969v 1.23767h 1.76378v -0.618834h 0.755906v -0.618834h 0.251969v 1.23767h 0.251969v -1.23767h 0.503937v 1.23767h 0.251969v -1.23767h 0.251969v 0.618834h 0.503937v
 -0.618834h 0.251969v -0.618834h 0.251969v 0.618834h 0.251969v 1.23767h 0.251969v -1.8565h 0.251969v 1.8565h 0.251969v -1.23767h 0.251969v 0.618834h 0.251969v -1.23767h 0.251969v 1.23767h 0.251969v -0.618834h 0.503937v 1.23767h 0.251969v -1.8565h
 0.251969v 0.618834h 0.503937v 0.618834h 0.503937v 0.618834h 0.251969v -1.23767h 0.503937v 1.23767h 0.755906v -0.618834h 0.251969v 0.618834h 0.251969v -1.23767h 0.251969v 1.23767h 0.251969v -0.618834h 0.503937v -0.618834h 0.251969v 0.618834h
 0.755906v -0.618834h 0.503937v 0.618834h 0.503937v 0.618834h 0.251969v -0.618834h 0.251969v 0.618834h 1.25984v -1.23767h 0.503937v 1.23767h 0.755906v -0.618834h 0.503937v 0.618834h 1.25984v -0.618834h 0.251969v 0.618834h 1.51181v -0.618834h
 0.251969v 0.618834h 0.503937v -1.23767h 0.251969v 0.618834h 0.251969v 0.618834h 1.00787" fill="none" stroke="#000099"/>
<path d="M57.1929,347.224h 453.543" fill="none" stroke="black"/>
<path d="M67.0484,337.964v 9.2593" fill="none" stroke="black"/>
<path d="M88.6965,342.594v 4.62965" fill="none" stroke="black"/>
<path d="M110.345,342.594v 4.62965" fill="none" stroke="black"/>
<path d="M131.993,342.594v 4.62965" fill="none" stroke="black"/>
<path d="M153.641,342.594v 4.62965" fill="none" stroke="black"/>
<path d="M175.289,337.964v 9.2593" fill="none" stroke="black"/>
<path d="M196.937,342.594v 4.62965" fill="none" stroke="black"/>
<path d="M218.585,342.594v 4.62965" fill="none" stroke="black"/>
<path d="M240.234,342.594v 4.62965" fill="none" stroke="black"/>
<path d="M261.882,342.594v 4.62965" fill="none" stroke="black"/>
<path d="M283.53,337.964v 9.2593" fill="none" stroke="black"/>
<path d="M305.178,342.594v 4.62965" fill="none" stroke="black"/>
<path d="M326.826,342.594v 4.62965" fill="none" stroke="black"/>
<path d="M348.474,342.594v 4.62965" fill="none" stroke="black"/>
<path d="M370.123,342.594v 4.62965" fill="none" stroke="black"/>
<path d="M391.771,337.964v 9.2593" fill="none" stroke="black"/>
<path d="M413.419,342.594v 4.62965" fill="none" stroke="black"/>
<path d="M435.067,342.594v 4.62965" fill="none" stroke="black"/>
<path d="M456.715,342.594v 4.62965" fill="none" stroke="black"/>
<path d="M478.363,342.594v 4.62965" fill="none" stroke="black"/>
<path d="M500.012,337.964v 9.2593" fill="none" stroke="black"/>
<path d="M67.0484,337.964v 9.2593" fill="none" stroke="black"/>
<path d="M500.012,337.964v 9.2593" fill="none" stroke="black"/>
<text xml:space="preserve" x="62.2287" y="359.813" fill="black" font-size="12.8882" font-family="Helvetica">0</text>
<text xml:space="preserve" x="171.066" y="359.813" fill="black" font-size="12.8882" font-family="Helvetica">5</text>
<text xml:space="preserve" x="275.842" y="359.813" fill="black" font-size="12.8882" font-family="Helvetica">10</text>
<text xml:space="preserve" x="383.868" y="359.813" fill="black" font-size="12.8882" font-family="Helvetica">15</text>
<text xml:space="preserve" x="491.893" y="359.813" fill="black" font-size="12.8882" font-family="Helvetica">20</text>
<text xml:space="preserve" x="406.61" y="372.809" fill="black" font-size="12.8882" font-family="Helvetica">Number of photon</text>
<path d="M57.1929,347.224v -308.643" fill="none" stroke="black"/>
<path d="M70.7992,347.224h -13.6063" fill="none" stroke="black"/>
<path d="M63.9961,341.035h -6.80315" fill="none" stroke="black"/>
<path d="M63.9961,334.847h -6.80315" fill="none" stroke="black"/>
<path d="M63.9961,328.659h -6.80315" fill="none" stroke="black"/>
<path d="M63.9961,322.47h -6.80315" fill="none" stroke="black"/>
<path d="M70.7992,316.282h -13.6063" fill="none" stroke="black"/>
<path d="M63.9961,310.094h -6.80315" fill="none" stroke="black"/>
<path d="M63.9961,303.905h -6.80315" fill="none" stroke="black"/>
<path d="M63.9961,297.717h -6.80315" fill="none" stroke="black"/>
<path d="M63.9961,291.529h -6.80315" fill="none" stroke="black"/>
<path d="M70.7992,285.34h -13.6063" fill="none" stroke="black"/>
<path d="M63.9961,279.152h -6.80315" fill="none" stroke="black"/>
<path d="M63.9961,272.964h -6.80315" fill="none" stroke="black"/>
<path d="M63.9961,266.775h -6.80315" fill="none" stroke="black"/>
<path d="M63.9961,260.587h -6.80315" fill="none" stroke="black"/>
<path d="M70.7992,254.399h -13.6063" fill="none" stroke="black"/>
<path d="M63.9961,248.21h -6.80315" fill="none" stroke="black"/>
<path d="M63.9961,242.022h -6.80315" fill="none" stroke="black"/>
<path d="M63.9961,235.834h -6.80315" fill="none" stroke="black"/>
<path d="M63.9961,229.645h -6.80315" fill="none" stroke="black"/>
<path d="M70.7992,223.457h -13.6063" fill="none" stroke="black"/>
<path d="M63.9961,217.269h -6.80315" fill="none" stroke="black"/>
<path d="M63.9961,211.08h -6.80315" fill="none" stroke="black"/>
<path d="M63.9961,204.892h -6.80315" fill="none" stroke="black"/>
<path d="M63.9961,198.704h -6.80315" fill="none" stroke="black"/>
<path d="M70.7992,192.515h -13.6063" fill="none" stroke="black"/>
<path d="M63.9961,186.327h -6.80315" fill="none" stroke="black"/>
<path d="M63.9961,180.139h -6.80315" fill="none" stroke="black"/>
<path d="M63.9961,173.95h -6.80315" fill="none" stroke="black"/>
<path d="M63.9961,167.762h -6.80315" fill="none" stroke="black"/>
<path d="M70.7992,161.574h -13.6063" fill="none" stroke="black"/>
<path d="M63.9961,155.385h -6.80315" fill="none" stroke="black"/>
<path d="M63.9961,149.197h -6.80315" fill="none" stroke="black"/>
<path d="M63.9961,143.009h -6.80315" fill="none" stroke="black"/>
<path d="M63.9961,136.82h -6.80315" fill="none" stroke="black"/>
<path d="M70.7992,130.632h -13.6063" fill="none" stroke="black"/>
<path d="M63.9961,124.444h -6.80315" fill="none" stroke="black"/>
<path d="M63.9961,118.255h -6.80315" fill="none" stroke="black"/>
<path d="M63.9961,112.067h -6.80315" fill="none" stroke="black"/>
<path d="M63.9961,105.879h -6.80315" fill="none" stroke="black"/>
<path d="M70.7992,99.6903h -13.6063" fill="none" stroke="black"/>
<path d="M63.9961,93.5019h -6.80315" fill="none" stroke="black"/>
<path d="M63.9961,87.3136h -6.80315" fill="none" stroke="black"/>
<path d="M63.9961,81.1253h -6.80315" fill="none" stroke="black"/>
<path d="M63.9961,74.9369h -6.80315" fill="none" stroke="black"/>
<path d="M70.7992,68.7486h -13.6063" fill="none" stroke="black"/>
<path d="M70.7992,68.7486h -13.6063" fill="none" stroke="black"/>
<path d="M63.9961,62.5602h -6.80315" fill="none" stroke="black"/>
<path d="M63.9961,56.3719h -6.80315" fill="none" stroke="black"/>
<path d="M63.9961,50.1836h -6.80315" fill="none" stroke="black"/>
<path d="M63.9961,43.9952h -6.80315" fill="none" stroke="black"/>
<text xml:space="preserve" x="46.7965" y="351.691" fill="black" font-size="12.8882" font-family="Helvetica">0</text>
<text xml:space="preserve" x="39.4865" y="320.827" fill="black" font-size="12.8882" font-family="Helvetica">50</text>
<text xml:space="preserve" x="32.1766" y="289.962" fill="black" font-size="12.8882" font-family="Helvetica">100</text>
<text xml:space="preserve" x="32.1766" y="259.098" fill="black" font-size="12.8882" font-family="Helvetica">150</text>
<text xml:space="preserve" x="32.1766" y="228.234" fill="black" font-size="12.8882" font-family="Helvetica">200</text>
<text xml:space="preserve" x="32.1766" y="197.369" fill="black" font-size="12.8882" font-family="Helvetica">250</text>
<text xml:space="preserve" x="32.1766" y="165.693" fill="black" font-size="12.8882" font-family="Helvetica">300</text>
<text xml:space="preserve" x="32.1766" y="134.828" fill="black" font-size="12.8882" font-family="Helvetica">350</text>
<text xml:space="preserve" x="32.1766" y="103.964" fill="black" font-size="12.8882" font-family="Helvetica">400</text>
<text xml:space="preserve" x="32.1766" y="73.0997" fill="black" font-size="12.8882" font-family="Helvetica">450</text>
<g transform="rotate(-90,21.6177,71.4753)">
<text xml:space="preserve" x="21.6177" y="71.4753" fill="black" font-size="12.8882" font-family="Helvetica">Event</text>
</g>
<text xml:space="preserve" x="215.738" y="18.681" fill="black" font-size="17.0471" font-family="Helvetica">led3021.root 26ch</text>
<text xml:space="preserve" x="215.738" y="18.681" fill="black" font-size="17.0471" font-family="Helvetica">led3021.root 26ch</text></svg>
