<?xml version="1.0" standalone="no"?>
<svg width="567.429" height="386.304" viewBox="0 0 567.429 386.304" xmlns="http://www.w3.org/2000/svg" shape-rendering="crispEdges">
<title>
img/week1/determineMeanWidth3021_CH26.svg
</title>
<desc>
Creator: ROOT Version 6.22/08
CreationDate: Mon Jun 14 16:40:12 2021</desc>
<defs>
</defs>
<rect x="0.5" y="0" width="566.929" height="385.804" fill="white"/>
<rect x="57.1929" y="38.5804" width="453.543" height="308.643" fill="white"/>
<rect x="57.1929" y="38.5804" width="453.543" height="308.643" fill="none" stroke="black"/>
<rect x="57.1929" y="38.5804" width="453.543" height="308.643" fill="white"/>
<rect x="57.1929" y="38.5804" width="453.543" height="308.643" fill="none" stroke="black"/>
<path d="M57.1929,347.224h 453.543" fill="none" stroke="black"/>
<path d="M57.1929,337.964v 9.2593" fill="none" stroke="black"/>
<path d="M74.3726,342.594v 4.62965" fill="none" stroke="black"/>
<path d="M91.5523,342.594v 4.62965" fill="none" stroke="black"/>
<path d="M108.732,342.594v 4.62965" fill="none" stroke="black"/>
<path d="M125.912,337.964v 9.2593" fill="none" stroke="black"/>
<path d="M143.091,342.594v 4.62965" fill="none" stroke="black"/>
<path d="M160.271,342.594v 4.62965" fill="none" stroke="black"/>
<path d="M177.451,342.594v 4.62965" fill="none" stroke="black"/>
<path d="M194.63,337.964v 9.2593" fill="none" stroke="black"/>
<path d="M211.81,342.594v 4.62965" fill="none" stroke="black"/>
<path d="M228.99,342.594v 4.62965" fill="none" stroke="black"/>
<path d="M246.169,342.594v 4.62965" fill="none" stroke="black"/>
<path d="M263.349,337.964v 9.2593" fill="none" stroke="black"/>
<path d="M280.529,342.594v 4.62965" fill="none" stroke="black"/>
<path d="M297.708,342.594v 4.62965" fill="none" stroke="black"/>
<path d="M314.888,342.594v 4.62965" fill="none" stroke="black"/>
<path d="M332.068,337.964v 9.2593" fill="none" stroke="black"/>
<path d="M349.247,342.594v 4.62965" fill="none" stroke="black"/>
<path d="M366.427,342.594v 4.62965" fill="none" stroke="black"/>
<path d="M383.607,342.594v 4.62965" fill="none" stroke="black"/>
<path d="M400.786,337.964v 9.2593" fill="none" stroke="black"/>
<path d="M417.966,342.594v 4.62965" fill="none" stroke="black"/>
<path d="M435.146,342.594v 4.62965" fill="none" stroke="black"/>
<path d="M452.325,342.594v 4.62965" fill="none" stroke="black"/>
<path d="M469.505,337.964v 9.2593" fill="none" stroke="black"/>
<path d="M469.505,337.964v 9.2593" fill="none" stroke="black"/>
<path d="M486.685,342.594v 4.62965" fill="none" stroke="black"/>
<path d="M503.864,342.594v 4.62965" fill="none" stroke="black"/>
<text xml:space="preserve" x="52.482" y="359.813" fill="black" font-size="12.8882" font-family="Helvetica">0</text>
<text xml:space="preserve" x="121.521" y="359.813" fill="black" font-size="12.8882" font-family="Helvetica">2</text>
<text xml:space="preserve" x="190.559" y="359.813" fill="black" font-size="12.8882" font-family="Helvetica">4</text>
<text xml:space="preserve" x="258.786" y="359.813" fill="black" font-size="12.8882" font-family="Helvetica">6</text>
<text xml:space="preserve" x="327.824" y="359.813" fill="black" font-size="12.8882" font-family="Helvetica">8</text>
<text xml:space="preserve" x="392.802" y="359.813" fill="black" font-size="12.8882" font-family="Helvetica">10</text>
<text xml:space="preserve" x="461.841" y="359.813" fill="black" font-size="12.8882" font-family="Helvetica">12</text>
<text xml:space="preserve" x="456.155" y="373.621" fill="black" font-size="12.8882" font-family="Helvetica">x th width</text>
<path d="M57.1929,347.224v -308.643" fill="none" stroke="black"/>
<path d="M70.7992,332.236h -13.6063" fill="none" stroke="black"/>
<path d="M63.9961,320.078h -6.80315" fill="none" stroke="black"/>
<path d="M63.9961,307.92h -6.80315" fill="none" stroke="black"/>
<path d="M63.9961,295.762h -6.80315" fill="none" stroke="black"/>
<path d="M63.9961,283.604h -6.80315" fill="none" stroke="black"/>
<path d="M70.7992,271.446h -13.6063" fill="none" stroke="black"/>
<path d="M63.9961,259.287h -6.80315" fill="none" stroke="black"/>
<path d="M63.9961,247.129h -6.80315" fill="none" stroke="black"/>
<path d="M63.9961,234.971h -6.80315" fill="none" stroke="black"/>
<path d="M63.9961,222.813h -6.80315" fill="none" stroke="black"/>
<path d="M70.7992,210.655h -13.6063" fill="none" stroke="black"/>
<path d="M63.9961,198.497h -6.80315" fill="none" stroke="black"/>
<path d="M63.9961,186.339h -6.80315" fill="none" stroke="black"/>
<path d="M63.9961,174.181h -6.80315" fill="none" stroke="black"/>
<path d="M63.9961,162.023h -6.80315" fill="none" stroke="black"/>
<path d="M70.7992,149.865h -13.6063" fill="none" stroke="black"/>
<path d="M63.9961,137.707h -6.80315" fill="none" stroke="black"/>
<path d="M63.9961,125.549h -6.80315" fill="none" stroke="black"/>
<path d="M63.9961,113.39h -6.80315" fill="none" stroke="black"/>
<path d="M63.9961,101.232h -6.80315" fill="none" stroke="black"/>
<path d="M70.7992,89.0742h -13.6063" fill="none" stroke="black"/>
<path d="M70.7992,332.236h -13.6063" fill="none" stroke="black"/>
<path d="M63.9961,344.394h -6.80315" fill="none" stroke="black"/>
<path d="M70.7992,89.0742h -13.6063" fill="none" stroke="black"/>
<path d="M63.9961,76.9162h -6.80315" fill="none" stroke="black"/>
<path d="M63.9961,64.7581h -6.80315" fill="none" stroke="black"/>
<path d="M63.9961,52.6h -6.80315" fill="none" stroke="black"/>
<path d="M63.9961,40.4419h -6.80315" fill="none" stroke="black"/>
<text xml:space="preserve" x="39.4865" y="337.071" fill="black" font-size="12.8882" font-family="Helvetica">83</text>
<text xml:space="preserve" x="39.4865" y="276.155" fill="black" font-size="12.8882" font-family="Helvetica">84</text>
<text xml:space="preserve" x="39.4865" y="215.238" fill="black" font-size="12.8882" font-family="Helvetica">85</text>
<text xml:space="preserve" x="39.4865" y="154.322" fill="black" font-size="12.8882" font-family="Helvetica">86</text>
<text xml:space="preserve" x="39.4865" y="93.4052" fill="black" font-size="12.8882" font-family="Helvetica">87</text>
<g transform="rotate(-90,28.1155,142.138)">
<text xml:space="preserve" x="28.1155" y="142.138" fill="black" font-size="12.8882" font-family="Helvetica">width [ADC value]</text>
</g>
<g stroke="black" stroke-width="1" fill="none">
<line x1="56.1929" y1="104.706" x2="57.1929" y2="104.706"/>
<line x1="90.5523" y1="78.4792" x2="91.5523" y2="78.4792"/>
<line x1="124.912" y1="76.0524" x2="125.912" y2="76.0524"/>
<line x1="159.271" y1="108.304" x2="160.271" y2="108.304"/>
<line x1="193.63" y1="117.755" x2="194.63" y2="117.755"/>
<line x1="227.99" y1="152.921" x2="228.99" y2="152.921"/>
<line x1="262.349" y1="155.124" x2="263.349" y2="155.124"/>
<line x1="296.708" y1="180.975" x2="297.708" y2="180.975"/>
<line x1="331.068" y1="214.055" x2="332.068" y2="214.055"/>
<line x1="365.427" y1="226.703" x2="366.427" y2="226.703"/>
<line x1="399.786" y1="257.838" x2="400.786" y2="257.838"/>
<line x1="434.146" y1="278.313" x2="435.146" y2="278.313"/>
<line x1="468.505" y1="291.612" x2="469.505" y2="291.612"/>
</g>
<path d="M59.4606,154.963h 222.236" fill="none" stroke="#ff0000" stroke-width="2"/>
<path d="M281.697,154.963h 222.236" fill="none" stroke="#ff0000" stroke-width="2"/>
<path d="M503.933,154.963h 4.53543" fill="none" stroke="#ff0000" stroke-width="2"/>
<path d="M57.1929,104.706v -19.5019" fill="none" stroke="black"/>
<path d="M57.1929,85.2044h 1.62444" fill="none" stroke="black"/>
<path d="M57.1929,104.706v 19.5019" fill="none" stroke="black"/>
<path d="M57.1929,124.208h 1.62444" fill="none" stroke="black"/>
<path d="M91.5523,78.4792v -14.1785" fill="none" stroke="black"/>
<path d="M89.9278,64.3007h 3.24888" fill="none" stroke="black"/>
<path d="M91.5523,78.4792v 14.1785" fill="none" stroke="black"/>
<path d="M89.9278,92.6578h 3.24888" fill="none" stroke="black"/>
<path d="M125.912,76.0524v -9.06606" fill="none" stroke="black"/>
<path d="M124.287,66.9863h 3.24888" fill="none" stroke="black"/>
<path d="M125.912,76.0524v 9.06606" fill="none" stroke="black"/>
<path d="M124.287,85.1184h 3.24888" fill="none" stroke="black"/>
<path d="M160.271,108.304v -8.38592" fill="none" stroke="black"/>
<path d="M158.646,99.9179h 3.24888" fill="none" stroke="black"/>
<path d="M160.271,108.304v 8.38592" fill="none" stroke="black"/>
<path d="M158.646,116.69h 3.24888" fill="none" stroke="black"/>
<path d="M194.63,117.755v -7.92688" fill="none" stroke="black"/>
<path d="M193.006,109.828h 3.24888" fill="none" stroke="black"/>
<path d="M194.63,117.755v 7.92688" fill="none" stroke="black"/>
<path d="M193.006,125.681h 3.24888" fill="none" stroke="black"/>
<path d="M228.99,152.921v -7.70883" fill="none" stroke="black"/>
<path d="M227.365,145.212h 3.24888" fill="none" stroke="black"/>
<path d="M228.99,152.921v 7.70883" fill="none" stroke="black"/>
<path d="M227.365,160.63h 3.24888" fill="none" stroke="black"/>
<path d="M263.349,155.124v -7.26323" fill="none" stroke="black"/>
<path d="M261.725,147.86h 3.24888" fill="none" stroke="black"/>
<path d="M263.349,155.124v 7.26323" fill="none" stroke="black"/>
<path d="M261.725,162.387h 3.24888" fill="none" stroke="black"/>
<path d="M297.708,180.975v -8.25472" fill="none" stroke="black"/>
<path d="M296.084,172.72h 3.24888" fill="none" stroke="black"/>
<path d="M297.708,180.975v 8.25472" fill="none" stroke="black"/>
<path d="M296.084,189.23h 3.24888" fill="none" stroke="black"/>
<path d="M332.068,214.055v -8.885" fill="none" stroke="black"/>
<path d="M330.443,205.17h 3.24888" fill="none" stroke="black"/>
<path d="M332.068,214.055v 8.885" fill="none" stroke="black"/>
<path d="M330.443,222.94h 3.24888" fill="none" stroke="black"/>
<path d="M366.427,226.703v -11.2381" fill="none" stroke="black"/>
<path d="M364.803,215.465h 3.24888" fill="none" stroke="black"/>
<path d="M366.427,226.703v 11.2381" fill="none" stroke="black"/>
<path d="M364.803,237.941h 3.24888" fill="none" stroke="black"/>
<path d="M400.786,257.838v -13.0343" fill="none" stroke="black"/>
<path d="M399.162,244.803h 3.24888" fill="none" stroke="black"/>
<path d="M400.786,257.838v 13.0343" fill="none" stroke="black"/>
<path d="M399.162,270.872h 3.24888" fill="none" stroke="black"/>
<path d="M435.146,278.313v -20.1818" fill="none" stroke="black"/>
<path d="M433.521,258.131h 3.24888" fill="none" stroke="black"/>
<path d="M435.146,278.313v 20.1818" fill="none" stroke="black"/>
<path d="M433.521,298.495h 3.24888" fill="none" stroke="black"/>
<path d="M469.505,291.612v -29.8914" fill="none" stroke="black"/>
<path d="M467.881,261.721h 3.24888" fill="none" stroke="black"/>
<path d="M469.505,291.612v 29.8914" fill="none" stroke="black"/>
<path d="M467.881,321.504h 3.24888" fill="none" stroke="black"/>
<text xml:space="preserve" x="97.1541" y="18.681" fill="black" font-size="18.7414" font-family="Helvetica">Each width between gaussians (3021_CH26)</text></svg>
