<?xml version="1.0" standalone="no"?>
<svg width="567.429" height="386.304" viewBox="0 0 567.429 386.304" xmlns="http://www.w3.org/2000/svg" shape-rendering="crispEdges">
<title>
img/week1/determineMeanWidth3021_CH29.svg
</title>
<desc>
Creator: ROOT Version 6.22/08
CreationDate: Mon Jun 21 14:40:18 2021</desc>
<defs>
</defs>
<rect x="0.5" y="0" width="566.929" height="385.804" fill="white"/>
<rect x="57.1929" y="38.5804" width="453.543" height="308.643" fill="white"/>
<rect x="57.1929" y="38.5804" width="453.543" height="308.643" fill="none" stroke="black"/>
<rect x="57.1929" y="38.5804" width="453.543" height="308.643" fill="white"/>
<rect x="57.1929" y="38.5804" width="453.543" height="308.643" fill="none" stroke="black"/>
<path d="M57.1929,347.224h 453.543" fill="none" stroke="black"/>
<path d="M57.1929,337.964v 9.2593" fill="none" stroke="black"/>
<path d="M73.0511,342.594v 4.62965" fill="none" stroke="black"/>
<path d="M88.9092,342.594v 4.62965" fill="none" stroke="black"/>
<path d="M104.767,342.594v 4.62965" fill="none" stroke="black"/>
<path d="M120.626,337.964v 9.2593" fill="none" stroke="black"/>
<path d="M136.484,342.594v 4.62965" fill="none" stroke="black"/>
<path d="M152.342,342.594v 4.62965" fill="none" stroke="black"/>
<path d="M168.2,342.594v 4.62965" fill="none" stroke="black"/>
<path d="M184.058,337.964v 9.2593" fill="none" stroke="black"/>
<path d="M199.916,342.594v 4.62965" fill="none" stroke="black"/>
<path d="M215.774,342.594v 4.62965" fill="none" stroke="black"/>
<path d="M231.633,342.594v 4.62965" fill="none" stroke="black"/>
<path d="M247.491,337.964v 9.2593" fill="none" stroke="black"/>
<path d="M263.349,342.594v 4.62965" fill="none" stroke="black"/>
<path d="M279.207,342.594v 4.62965" fill="none" stroke="black"/>
<path d="M295.065,342.594v 4.62965" fill="none" stroke="black"/>
<path d="M310.923,337.964v 9.2593" fill="none" stroke="black"/>
<path d="M326.782,342.594v 4.62965" fill="none" stroke="black"/>
<path d="M342.64,342.594v 4.62965" fill="none" stroke="black"/>
<path d="M358.498,342.594v 4.62965" fill="none" stroke="black"/>
<path d="M374.356,337.964v 9.2593" fill="none" stroke="black"/>
<path d="M390.214,342.594v 4.62965" fill="none" stroke="black"/>
<path d="M406.072,342.594v 4.62965" fill="none" stroke="black"/>
<path d="M421.931,342.594v 4.62965" fill="none" stroke="black"/>
<path d="M437.789,337.964v 9.2593" fill="none" stroke="black"/>
<path d="M453.647,342.594v 4.62965" fill="none" stroke="black"/>
<path d="M469.505,342.594v 4.62965" fill="none" stroke="black"/>
<path d="M485.363,342.594v 4.62965" fill="none" stroke="black"/>
<path d="M501.221,337.964v 9.2593" fill="none" stroke="black"/>
<path d="M501.221,337.964v 9.2593" fill="none" stroke="black"/>
<text xml:space="preserve" x="52.482" y="359.813" fill="black" font-size="12.8882" font-family="Helvetica">0</text>
<text xml:space="preserve" x="115.835" y="359.813" fill="black" font-size="12.8882" font-family="Helvetica">2</text>
<text xml:space="preserve" x="179.188" y="359.813" fill="black" font-size="12.8882" font-family="Helvetica">4</text>
<text xml:space="preserve" x="243.354" y="359.813" fill="black" font-size="12.8882" font-family="Helvetica">6</text>
<text xml:space="preserve" x="306.707" y="359.813" fill="black" font-size="12.8882" font-family="Helvetica">8</text>
<text xml:space="preserve" x="366.811" y="359.813" fill="black" font-size="12.8882" font-family="Helvetica">10</text>
<text xml:space="preserve" x="430.164" y="359.813" fill="black" font-size="12.8882" font-family="Helvetica">12</text>
<text xml:space="preserve" x="493.517" y="359.813" fill="black" font-size="12.8882" font-family="Helvetica">14</text>
<text xml:space="preserve" x="456.155" y="373.621" fill="black" font-size="12.8882" font-family="Helvetica">x th width</text>
<path d="M57.1929,347.224v -308.643" fill="none" stroke="black"/>
<path d="M70.7992,305.865h -13.6063" fill="none" stroke="black"/>
<path d="M63.9961,296.984h -6.80315" fill="none" stroke="black"/>
<path d="M63.9961,288.103h -6.80315" fill="none" stroke="black"/>
<path d="M63.9961,279.221h -6.80315" fill="none" stroke="black"/>
<path d="M63.9961,270.34h -6.80315" fill="none" stroke="black"/>
<path d="M70.7992,261.459h -13.6063" fill="none" stroke="black"/>
<path d="M63.9961,252.577h -6.80315" fill="none" stroke="black"/>
<path d="M63.9961,243.696h -6.80315" fill="none" stroke="black"/>
<path d="M63.9961,234.815h -6.80315" fill="none" stroke="black"/>
<path d="M63.9961,225.933h -6.80315" fill="none" stroke="black"/>
<path d="M70.7992,217.052h -13.6063" fill="none" stroke="black"/>
<path d="M63.9961,208.171h -6.80315" fill="none" stroke="black"/>
<path d="M63.9961,199.289h -6.80315" fill="none" stroke="black"/>
<path d="M63.9961,190.408h -6.80315" fill="none" stroke="black"/>
<path d="M63.9961,181.527h -6.80315" fill="none" stroke="black"/>
<path d="M70.7992,172.645h -13.6063" fill="none" stroke="black"/>
<path d="M63.9961,163.764h -6.80315" fill="none" stroke="black"/>
<path d="M63.9961,154.883h -6.80315" fill="none" stroke="black"/>
<path d="M63.9961,146.001h -6.80315" fill="none" stroke="black"/>
<path d="M63.9961,137.12h -6.80315" fill="none" stroke="black"/>
<path d="M70.7992,128.239h -13.6063" fill="none" stroke="black"/>
<path d="M63.9961,119.357h -6.80315" fill="none" stroke="black"/>
<path d="M63.9961,110.476h -6.80315" fill="none" stroke="black"/>
<path d="M63.9961,101.594h -6.80315" fill="none" stroke="black"/>
<path d="M63.9961,92.7131h -6.80315" fill="none" stroke="black"/>
<path d="M70.7992,83.8318h -13.6063" fill="none" stroke="black"/>
<path d="M63.9961,74.9505h -6.80315" fill="none" stroke="black"/>
<path d="M63.9961,66.0691h -6.80315" fill="none" stroke="black"/>
<path d="M63.9961,57.1878h -6.80315" fill="none" stroke="black"/>
<path d="M63.9961,48.3064h -6.80315" fill="none" stroke="black"/>
<path d="M70.7992,39.4251h -13.6063" fill="none" stroke="black"/>
<path d="M70.7992,305.865h -13.6063" fill="none" stroke="black"/>
<path d="M63.9961,314.747h -6.80315" fill="none" stroke="black"/>
<path d="M63.9961,323.628h -6.80315" fill="none" stroke="black"/>
<path d="M63.9961,332.509h -6.80315" fill="none" stroke="black"/>
<path d="M63.9961,341.391h -6.80315" fill="none" stroke="black"/>
<path d="M70.7992,39.4251h -13.6063" fill="none" stroke="black"/>
<text xml:space="preserve" x="41.9232" y="310.268" fill="black" font-size="12.8882" font-family="Helvetica">81</text>
<text xml:space="preserve" x="39.4865" y="265.596" fill="black" font-size="12.8882" font-family="Helvetica">82</text>
<text xml:space="preserve" x="39.4865" y="221.736" fill="black" font-size="12.8882" font-family="Helvetica">83</text>
<text xml:space="preserve" x="39.4865" y="177.064" fill="black" font-size="12.8882" font-family="Helvetica">84</text>
<text xml:space="preserve" x="39.4865" y="132.392" fill="black" font-size="12.8882" font-family="Helvetica">85</text>
<text xml:space="preserve" x="39.4865" y="88.5319" fill="black" font-size="12.8882" font-family="Helvetica">86</text>
<text xml:space="preserve" x="39.4865" y="43.8598" fill="black" font-size="12.8882" font-family="Helvetica">87</text>
<g transform="rotate(-90,28.1155,142.138)">
<text xml:space="preserve" x="28.1155" y="142.138" fill="black" font-size="12.8882" font-family="Helvetica">width [ADC value]</text>
</g>
<g stroke="black" stroke-width="1" fill="none">
<line x1="56.1929" y1="100.616" x2="57.1929" y2="100.616"/>
<line x1="87.9092" y1="74.0906" x2="88.9092" y2="74.0906"/>
<line x1="119.626" y1="122.301" x2="120.626" y2="122.301"/>
<line x1="151.342" y1="148.717" x2="152.342" y2="148.717"/>
<line x1="183.058" y1="160.231" x2="184.058" y2="160.231"/>
<line x1="214.774" y1="154.785" x2="215.774" y2="154.785"/>
<line x1="246.491" y1="186.558" x2="247.491" y2="186.558"/>
<line x1="278.207" y1="212.556" x2="279.207" y2="212.556"/>
<line x1="309.923" y1="213.432" x2="310.923" y2="213.432"/>
<line x1="341.64" y1="255.163" x2="342.64" y2="255.163"/>
<line x1="373.356" y1="215.861" x2="374.356" y2="215.861"/>
<line x1="405.072" y1="308.36" x2="406.072" y2="308.36"/>
<line x1="436.789" y1="291.333" x2="437.789" y2="291.333"/>
<line x1="468.505" y1="184.22" x2="469.505" y2="184.22"/>
</g>
<path d="M59.4606,176.864h 222.236" fill="none" stroke="#ff0000" stroke-width="2"/>
<path d="M281.697,176.864h 222.236" fill="none" stroke="#ff0000" stroke-width="2"/>
<path d="M503.933,176.864h 4.53543" fill="none" stroke="#ff0000" stroke-width="2"/>
<path d="M57.1929,100.616v -9.94945" fill="none" stroke="black"/>
<path d="M57.1929,90.6661h 1.62444" fill="none" stroke="black"/>
<path d="M57.1929,100.616v 9.94945" fill="none" stroke="black"/>
<path d="M57.1929,110.565h 1.62444" fill="none" stroke="black"/>
<path d="M88.9092,74.0906v -9.78992" fill="none" stroke="black"/>
<path d="M87.2848,64.3007h 3.24888" fill="none" stroke="black"/>
<path d="M88.9092,74.0906v 9.78992" fill="none" stroke="black"/>
<path d="M87.2848,83.8806h 3.24888" fill="none" stroke="black"/>
<path d="M120.626,122.301v -9.09561" fill="none" stroke="black"/>
<path d="M119.001,113.205h 3.24888" fill="none" stroke="black"/>
<path d="M120.626,122.301v 9.09561" fill="none" stroke="black"/>
<path d="M119.001,131.396h 3.24888" fill="none" stroke="black"/>
<path d="M152.342,148.717v -7.39874" fill="none" stroke="black"/>
<path d="M150.717,141.318h 3.24888" fill="none" stroke="black"/>
<path d="M152.342,148.717v 7.39874" fill="none" stroke="black"/>
<path d="M150.717,156.115h 3.24888" fill="none" stroke="black"/>
<path d="M184.058,160.231v -6.29659" fill="none" stroke="black"/>
<path d="M182.434,153.935h 3.24888" fill="none" stroke="black"/>
<path d="M184.058,160.231v 6.29659" fill="none" stroke="black"/>
<path d="M182.434,166.528h 3.24888" fill="none" stroke="black"/>
<path d="M215.774,154.785v -6.64255" fill="none" stroke="black"/>
<path d="M214.15,148.142h 3.24888" fill="none" stroke="black"/>
<path d="M215.774,154.785v 6.64255" fill="none" stroke="black"/>
<path d="M214.15,161.427h 3.24888" fill="none" stroke="black"/>
<path d="M247.491,186.558v -6.34225" fill="none" stroke="black"/>
<path d="M245.866,180.216h 3.24888" fill="none" stroke="black"/>
<path d="M247.491,186.558v 6.34225" fill="none" stroke="black"/>
<path d="M245.866,192.9h 3.24888" fill="none" stroke="black"/>
<path d="M279.207,212.556v -7.05459" fill="none" stroke="black"/>
<path d="M277.583,205.501h 3.24888" fill="none" stroke="black"/>
<path d="M279.207,212.556v 7.05459" fill="none" stroke="black"/>
<path d="M277.583,219.61h 3.24888" fill="none" stroke="black"/>
<path d="M310.923,213.432v -8.30652" fill="none" stroke="black"/>
<path d="M309.299,205.125h 3.24888" fill="none" stroke="black"/>
<path d="M310.923,213.432v 8.30652" fill="none" stroke="black"/>
<path d="M309.299,221.738h 3.24888" fill="none" stroke="black"/>
<path d="M342.64,255.163v -9.36489" fill="none" stroke="black"/>
<path d="M341.015,245.798h 3.24888" fill="none" stroke="black"/>
<path d="M342.64,255.163v 9.36489" fill="none" stroke="black"/>
<path d="M341.015,264.528h 3.24888" fill="none" stroke="black"/>
<path d="M374.356,215.861v -11.0866" fill="none" stroke="black"/>
<path d="M372.732,204.774h 3.24888" fill="none" stroke="black"/>
<path d="M374.356,215.861v 11.0866" fill="none" stroke="black"/>
<path d="M372.732,226.948h 3.24888" fill="none" stroke="black"/>
<path d="M406.072,308.36v -13.1433" fill="none" stroke="black"/>
<path d="M404.448,295.217h 3.24888" fill="none" stroke="black"/>
<path d="M406.072,308.36v 13.1433" fill="none" stroke="black"/>
<path d="M404.448,321.504h 3.24888" fill="none" stroke="black"/>
<path d="M437.789,291.333v -15.7026" fill="none" stroke="black"/>
<path d="M436.164,275.631h 3.24888" fill="none" stroke="black"/>
<path d="M437.789,291.333v 15.7026" fill="none" stroke="black"/>
<path d="M436.164,307.036h 3.24888" fill="none" stroke="black"/>
<path d="M469.505,184.22v -24.3218" fill="none" stroke="black"/>
<path d="M467.881,159.898h 3.24888" fill="none" stroke="black"/>
<path d="M469.505,184.22v 24.3218" fill="none" stroke="black"/>
<path d="M467.881,208.542h 3.24888" fill="none" stroke="black"/>
<text xml:space="preserve" x="97.1541" y="18.681" fill="black" font-size="18.7414" font-family="Helvetica">Each width between gaussians (3021_CH29)</text></svg>
