<?xml version="1.0" standalone="no"?>
<svg width="567.429" height="386.304" viewBox="0 0 567.429 386.304" xmlns="http://www.w3.org/2000/svg" shape-rendering="crispEdges">
<title>
img/week1/determineMeanWidth3020_CH29.svg
</title>
<desc>
Creator: ROOT Version 6.22/08
CreationDate: Mon Jun 21 14:35:56 2021</desc>
<defs>
</defs>
<rect x="0.5" y="0" width="566.929" height="385.804" fill="white"/>
<rect x="57.1929" y="38.5804" width="453.543" height="308.643" fill="white"/>
<rect x="57.1929" y="38.5804" width="453.543" height="308.643" fill="none" stroke="black"/>
<rect x="57.1929" y="38.5804" width="453.543" height="308.643" fill="white"/>
<rect x="57.1929" y="38.5804" width="453.543" height="308.643" fill="none" stroke="black"/>
<path d="M57.1929,347.224h 453.543" fill="none" stroke="black"/>
<path d="M57.1929,337.964v 9.2593" fill="none" stroke="black"/>
<path d="M74.3726,342.594v 4.62965" fill="none" stroke="black"/>
<path d="M91.5523,342.594v 4.62965" fill="none" stroke="black"/>
<path d="M108.732,342.594v 4.62965" fill="none" stroke="black"/>
<path d="M125.912,337.964v 9.2593" fill="none" stroke="black"/>
<path d="M143.091,342.594v 4.62965" fill="none" stroke="black"/>
<path d="M160.271,342.594v 4.62965" fill="none" stroke="black"/>
<path d="M177.451,342.594v 4.62965" fill="none" stroke="black"/>
<path d="M194.63,337.964v 9.2593" fill="none" stroke="black"/>
<path d="M211.81,342.594v 4.62965" fill="none" stroke="black"/>
<path d="M228.99,342.594v 4.62965" fill="none" stroke="black"/>
<path d="M246.169,342.594v 4.62965" fill="none" stroke="black"/>
<path d="M263.349,337.964v 9.2593" fill="none" stroke="black"/>
<path d="M280.529,342.594v 4.62965" fill="none" stroke="black"/>
<path d="M297.708,342.594v 4.62965" fill="none" stroke="black"/>
<path d="M314.888,342.594v 4.62965" fill="none" stroke="black"/>
<path d="M332.068,337.964v 9.2593" fill="none" stroke="black"/>
<path d="M349.247,342.594v 4.62965" fill="none" stroke="black"/>
<path d="M366.427,342.594v 4.62965" fill="none" stroke="black"/>
<path d="M383.607,342.594v 4.62965" fill="none" stroke="black"/>
<path d="M400.786,337.964v 9.2593" fill="none" stroke="black"/>
<path d="M417.966,342.594v 4.62965" fill="none" stroke="black"/>
<path d="M435.146,342.594v 4.62965" fill="none" stroke="black"/>
<path d="M452.325,342.594v 4.62965" fill="none" stroke="black"/>
<path d="M469.505,337.964v 9.2593" fill="none" stroke="black"/>
<path d="M469.505,337.964v 9.2593" fill="none" stroke="black"/>
<path d="M486.685,342.594v 4.62965" fill="none" stroke="black"/>
<path d="M503.864,342.594v 4.62965" fill="none" stroke="black"/>
<text xml:space="preserve" x="52.482" y="359.813" fill="black" font-size="12.8882" font-family="Helvetica">0</text>
<text xml:space="preserve" x="121.521" y="359.813" fill="black" font-size="12.8882" font-family="Helvetica">2</text>
<text xml:space="preserve" x="190.559" y="359.813" fill="black" font-size="12.8882" font-family="Helvetica">4</text>
<text xml:space="preserve" x="258.786" y="359.813" fill="black" font-size="12.8882" font-family="Helvetica">6</text>
<text xml:space="preserve" x="327.824" y="359.813" fill="black" font-size="12.8882" font-family="Helvetica">8</text>
<text xml:space="preserve" x="392.802" y="359.813" fill="black" font-size="12.8882" font-family="Helvetica">10</text>
<text xml:space="preserve" x="461.841" y="359.813" fill="black" font-size="12.8882" font-family="Helvetica">12</text>
<text xml:space="preserve" x="456.155" y="373.621" fill="black" font-size="12.8882" font-family="Helvetica">x th width</text>
<path d="M57.1929,347.224v -308.643" fill="none" stroke="black"/>
<path d="M70.7992,344.189h -13.6063" fill="none" stroke="black"/>
<path d="M63.9961,337.619h -6.80315" fill="none" stroke="black"/>
<path d="M63.9961,331.05h -6.80315" fill="none" stroke="black"/>
<path d="M63.9961,324.481h -6.80315" fill="none" stroke="black"/>
<path d="M63.9961,317.912h -6.80315" fill="none" stroke="black"/>
<path d="M70.7992,311.343h -13.6063" fill="none" stroke="black"/>
<path d="M63.9961,304.774h -6.80315" fill="none" stroke="black"/>
<path d="M63.9961,298.204h -6.80315" fill="none" stroke="black"/>
<path d="M63.9961,291.635h -6.80315" fill="none" stroke="black"/>
<path d="M63.9961,285.066h -6.80315" fill="none" stroke="black"/>
<path d="M70.7992,278.497h -13.6063" fill="none" stroke="black"/>
<path d="M63.9961,271.928h -6.80315" fill="none" stroke="black"/>
<path d="M63.9961,265.359h -6.80315" fill="none" stroke="black"/>
<path d="M63.9961,258.79h -6.80315" fill="none" stroke="black"/>
<path d="M63.9961,252.22h -6.80315" fill="none" stroke="black"/>
<path d="M70.7992,245.651h -13.6063" fill="none" stroke="black"/>
<path d="M63.9961,239.082h -6.80315" fill="none" stroke="black"/>
<path d="M63.9961,232.513h -6.80315" fill="none" stroke="black"/>
<path d="M63.9961,225.944h -6.80315" fill="none" stroke="black"/>
<path d="M63.9961,219.375h -6.80315" fill="none" stroke="black"/>
<path d="M70.7992,212.805h -13.6063" fill="none" stroke="black"/>
<path d="M63.9961,206.236h -6.80315" fill="none" stroke="black"/>
<path d="M63.9961,199.667h -6.80315" fill="none" stroke="black"/>
<path d="M63.9961,193.098h -6.80315" fill="none" stroke="black"/>
<path d="M63.9961,186.529h -6.80315" fill="none" stroke="black"/>
<path d="M70.7992,179.96h -13.6063" fill="none" stroke="black"/>
<path d="M63.9961,173.391h -6.80315" fill="none" stroke="black"/>
<path d="M63.9961,166.821h -6.80315" fill="none" stroke="black"/>
<path d="M63.9961,160.252h -6.80315" fill="none" stroke="black"/>
<path d="M63.9961,153.683h -6.80315" fill="none" stroke="black"/>
<path d="M70.7992,147.114h -13.6063" fill="none" stroke="black"/>
<path d="M63.9961,140.545h -6.80315" fill="none" stroke="black"/>
<path d="M63.9961,133.976h -6.80315" fill="none" stroke="black"/>
<path d="M63.9961,127.407h -6.80315" fill="none" stroke="black"/>
<path d="M63.9961,120.837h -6.80315" fill="none" stroke="black"/>
<path d="M70.7992,114.268h -13.6063" fill="none" stroke="black"/>
<path d="M63.9961,107.699h -6.80315" fill="none" stroke="black"/>
<path d="M63.9961,101.13h -6.80315" fill="none" stroke="black"/>
<path d="M63.9961,94.5608h -6.80315" fill="none" stroke="black"/>
<path d="M63.9961,87.9916h -6.80315" fill="none" stroke="black"/>
<path d="M70.7992,81.4225h -13.6063" fill="none" stroke="black"/>
<path d="M63.9961,74.8533h -6.80315" fill="none" stroke="black"/>
<path d="M63.9961,68.2842h -6.80315" fill="none" stroke="black"/>
<path d="M63.9961,61.715h -6.80315" fill="none" stroke="black"/>
<path d="M63.9961,55.1459h -6.80315" fill="none" stroke="black"/>
<path d="M70.7992,48.5767h -13.6063" fill="none" stroke="black"/>
<path d="M70.7992,344.189h -13.6063" fill="none" stroke="black"/>
<path d="M70.7992,48.5767h -13.6063" fill="none" stroke="black"/>
<path d="M63.9961,42.0076h -6.80315" fill="none" stroke="black"/>
<text xml:space="preserve" x="39.4865" y="348.442" fill="black" font-size="12.8882" font-family="Helvetica">66</text>
<text xml:space="preserve" x="28.9277" y="315.953" fill="black" font-size="12.8882" font-family="Helvetica">66.5</text>
<text xml:space="preserve" x="39.4865" y="282.652" fill="black" font-size="12.8882" font-family="Helvetica">67</text>
<text xml:space="preserve" x="28.9277" y="250.164" fill="black" font-size="12.8882" font-family="Helvetica">67.5</text>
<text xml:space="preserve" x="39.4865" y="217.675" fill="black" font-size="12.8882" font-family="Helvetica">68</text>
<text xml:space="preserve" x="28.9277" y="184.374" fill="black" font-size="12.8882" font-family="Helvetica">68.5</text>
<text xml:space="preserve" x="39.4865" y="151.885" fill="black" font-size="12.8882" font-family="Helvetica">69</text>
<text xml:space="preserve" x="28.9277" y="118.584" fill="black" font-size="12.8882" font-family="Helvetica">69.5</text>
<text xml:space="preserve" x="39.4865" y="86.0953" fill="black" font-size="12.8882" font-family="Helvetica">70</text>
<text xml:space="preserve" x="28.9277" y="52.7943" fill="black" font-size="12.8882" font-family="Helvetica">70.5</text>
<g transform="rotate(-90,17.5566,142.138)">
<text xml:space="preserve" x="17.5566" y="142.138" fill="black" font-size="12.8882" font-family="Helvetica">width [ADC value]</text>
</g>
<g stroke="black" stroke-width="1" fill="none">
<line x1="56.1929" y1="88.6114" x2="57.1929" y2="88.6114"/>
<line x1="90.5523" y1="115.851" x2="91.5523" y2="115.851"/>
<line x1="124.912" y1="113.917" x2="125.912" y2="113.917"/>
<line x1="159.271" y1="126.773" x2="160.271" y2="126.773"/>
<line x1="193.63" y1="169.794" x2="194.63" y2="169.794"/>
<line x1="227.99" y1="191.237" x2="228.99" y2="191.237"/>
<line x1="262.349" y1="200.191" x2="263.349" y2="200.191"/>
<line x1="296.708" y1="180.557" x2="297.708" y2="180.557"/>
<line x1="331.068" y1="245.483" x2="332.068" y2="245.483"/>
<line x1="365.427" y1="246.066" x2="366.427" y2="246.066"/>
<line x1="399.786" y1="227.712" x2="400.786" y2="227.712"/>
<line x1="434.146" y1="304.394" x2="435.146" y2="304.394"/>
<line x1="468.505" y1="255.825" x2="469.505" y2="255.825"/>
</g>
<path d="M59.4606,181.708h 222.236" fill="none" stroke="#ff0000" stroke-width="2"/>
<path d="M281.697,181.708h 222.236" fill="none" stroke="#ff0000" stroke-width="2"/>
<path d="M503.933,181.708h 4.53543" fill="none" stroke="#ff0000" stroke-width="2"/>
<path d="M57.1929,88.6114v -24.3107" fill="none" stroke="black"/>
<path d="M57.1929,64.3007h 1.62444" fill="none" stroke="black"/>
<path d="M57.1929,88.6114v 24.3107" fill="none" stroke="black"/>
<path d="M57.1929,112.922h 1.62444" fill="none" stroke="black"/>
<path d="M91.5523,115.851v -12.2164" fill="none" stroke="black"/>
<path d="M89.9278,103.634h 3.24888" fill="none" stroke="black"/>
<path d="M91.5523,115.851v 12.2164" fill="none" stroke="black"/>
<path d="M89.9278,128.067h 3.24888" fill="none" stroke="black"/>
<path d="M125.912,113.917v -8.90974" fill="none" stroke="black"/>
<path d="M124.287,105.008h 3.24888" fill="none" stroke="black"/>
<path d="M125.912,113.917v 8.90974" fill="none" stroke="black"/>
<path d="M124.287,122.827h 3.24888" fill="none" stroke="black"/>
<path d="M160.271,126.773v -7.31078" fill="none" stroke="black"/>
<path d="M158.646,119.462h 3.24888" fill="none" stroke="black"/>
<path d="M160.271,126.773v 7.31078" fill="none" stroke="black"/>
<path d="M158.646,134.084h 3.24888" fill="none" stroke="black"/>
<path d="M194.63,169.794v -6.66841" fill="none" stroke="black"/>
<path d="M193.006,163.125h 3.24888" fill="none" stroke="black"/>
<path d="M194.63,169.794v 6.66841" fill="none" stroke="black"/>
<path d="M193.006,176.462h 3.24888" fill="none" stroke="black"/>
<path d="M228.99,191.237v -6.13636" fill="none" stroke="black"/>
<path d="M227.365,185.101h 3.24888" fill="none" stroke="black"/>
<path d="M228.99,191.237v 6.13636" fill="none" stroke="black"/>
<path d="M227.365,197.373h 3.24888" fill="none" stroke="black"/>
<path d="M263.349,200.191v -6.69156" fill="none" stroke="black"/>
<path d="M261.725,193.5h 3.24888" fill="none" stroke="black"/>
<path d="M263.349,200.191v 6.69156" fill="none" stroke="black"/>
<path d="M261.725,206.883h 3.24888" fill="none" stroke="black"/>
<path d="M297.708,180.557v -6.7469" fill="none" stroke="black"/>
<path d="M296.084,173.81h 3.24888" fill="none" stroke="black"/>
<path d="M297.708,180.557v 6.7469" fill="none" stroke="black"/>
<path d="M296.084,187.304h 3.24888" fill="none" stroke="black"/>
<path d="M332.068,245.483v -9.07366" fill="none" stroke="black"/>
<path d="M330.443,236.409h 3.24888" fill="none" stroke="black"/>
<path d="M332.068,245.483v 9.07366" fill="none" stroke="black"/>
<path d="M330.443,254.556h 3.24888" fill="none" stroke="black"/>
<path d="M366.427,246.066v -10.8036" fill="none" stroke="black"/>
<path d="M364.803,235.263h 3.24888" fill="none" stroke="black"/>
<path d="M366.427,246.066v 10.8036" fill="none" stroke="black"/>
<path d="M364.803,256.87h 3.24888" fill="none" stroke="black"/>
<path d="M400.786,227.712v -12.9929" fill="none" stroke="black"/>
<path d="M399.162,214.719h 3.24888" fill="none" stroke="black"/>
<path d="M400.786,227.712v 12.9929" fill="none" stroke="black"/>
<path d="M399.162,240.705h 3.24888" fill="none" stroke="black"/>
<path d="M435.146,304.394v -17.1097" fill="none" stroke="black"/>
<path d="M433.521,287.284h 3.24888" fill="none" stroke="black"/>
<path d="M435.146,304.394v 17.1097" fill="none" stroke="black"/>
<path d="M433.521,321.504h 3.24888" fill="none" stroke="black"/>
<path d="M469.505,255.825v -28.6431" fill="none" stroke="black"/>
<path d="M467.881,227.182h 3.24888" fill="none" stroke="black"/>
<path d="M469.505,255.825v 28.6431" fill="none" stroke="black"/>
<path d="M467.881,284.468h 3.24888" fill="none" stroke="black"/>
<text xml:space="preserve" x="97.1541" y="18.681" fill="black" font-size="18.7414" font-family="Helvetica">Each width between gaussians (3020_CH29)</text></svg>
