<?xml version="1.0" standalone="no"?>
<svg width="567.429" height="386.304" viewBox="0 0 567.429 386.304" xmlns="http://www.w3.org/2000/svg" shape-rendering="crispEdges">
<title>
img/week1/determineMeanWidth3018_CH26.svg
</title>
<desc>
Creator: ROOT Version 6.22/08
CreationDate: Mon Jun 14 14:40:53 2021</desc>
<defs>
</defs>
<rect x="0.5" y="0" width="566.929" height="385.804" fill="white"/>
<rect x="57.1929" y="38.5804" width="453.543" height="308.643" fill="white"/>
<rect x="57.1929" y="38.5804" width="453.543" height="308.643" fill="none" stroke="black"/>
<rect x="57.1929" y="38.5804" width="453.543" height="308.643" fill="white"/>
<rect x="57.1929" y="38.5804" width="453.543" height="308.643" fill="none" stroke="black"/>
<path d="M57.1929,347.224h 453.543" fill="none" stroke="black"/>
<path d="M57.1929,337.964v 9.2593" fill="none" stroke="black"/>
<path d="M67.5007,342.594v 4.62965" fill="none" stroke="black"/>
<path d="M77.8085,342.594v 4.62965" fill="none" stroke="black"/>
<path d="M88.1163,342.594v 4.62965" fill="none" stroke="black"/>
<path d="M98.4241,342.594v 4.62965" fill="none" stroke="black"/>
<path d="M108.732,337.964v 9.2593" fill="none" stroke="black"/>
<path d="M119.04,342.594v 4.62965" fill="none" stroke="black"/>
<path d="M129.348,342.594v 4.62965" fill="none" stroke="black"/>
<path d="M139.655,342.594v 4.62965" fill="none" stroke="black"/>
<path d="M149.963,342.594v 4.62965" fill="none" stroke="black"/>
<path d="M160.271,337.964v 9.2593" fill="none" stroke="black"/>
<path d="M170.579,342.594v 4.62965" fill="none" stroke="black"/>
<path d="M180.887,342.594v 4.62965" fill="none" stroke="black"/>
<path d="M191.194,342.594v 4.62965" fill="none" stroke="black"/>
<path d="M201.502,342.594v 4.62965" fill="none" stroke="black"/>
<path d="M211.81,337.964v 9.2593" fill="none" stroke="black"/>
<path d="M222.118,342.594v 4.62965" fill="none" stroke="black"/>
<path d="M232.426,342.594v 4.62965" fill="none" stroke="black"/>
<path d="M242.733,342.594v 4.62965" fill="none" stroke="black"/>
<path d="M253.041,342.594v 4.62965" fill="none" stroke="black"/>
<path d="M263.349,337.964v 9.2593" fill="none" stroke="black"/>
<path d="M273.657,342.594v 4.62965" fill="none" stroke="black"/>
<path d="M283.965,342.594v 4.62965" fill="none" stroke="black"/>
<path d="M294.272,342.594v 4.62965" fill="none" stroke="black"/>
<path d="M304.58,342.594v 4.62965" fill="none" stroke="black"/>
<path d="M314.888,337.964v 9.2593" fill="none" stroke="black"/>
<path d="M325.196,342.594v 4.62965" fill="none" stroke="black"/>
<path d="M335.504,342.594v 4.62965" fill="none" stroke="black"/>
<path d="M345.811,342.594v 4.62965" fill="none" stroke="black"/>
<path d="M356.119,342.594v 4.62965" fill="none" stroke="black"/>
<path d="M366.427,337.964v 9.2593" fill="none" stroke="black"/>
<path d="M376.735,342.594v 4.62965" fill="none" stroke="black"/>
<path d="M387.043,342.594v 4.62965" fill="none" stroke="black"/>
<path d="M397.35,342.594v 4.62965" fill="none" stroke="black"/>
<path d="M407.658,342.594v 4.62965" fill="none" stroke="black"/>
<path d="M417.966,337.964v 9.2593" fill="none" stroke="black"/>
<path d="M428.274,342.594v 4.62965" fill="none" stroke="black"/>
<path d="M438.582,342.594v 4.62965" fill="none" stroke="black"/>
<path d="M448.889,342.594v 4.62965" fill="none" stroke="black"/>
<path d="M459.197,342.594v 4.62965" fill="none" stroke="black"/>
<path d="M469.505,337.964v 9.2593" fill="none" stroke="black"/>
<path d="M469.505,337.964v 9.2593" fill="none" stroke="black"/>
<path d="M479.813,342.594v 4.62965" fill="none" stroke="black"/>
<path d="M490.121,342.594v 4.62965" fill="none" stroke="black"/>
<path d="M500.428,342.594v 4.62965" fill="none" stroke="black"/>
<path d="M510.736,342.594v 4.62965" fill="none" stroke="black"/>
<text xml:space="preserve" x="52.482" y="359.813" fill="black" font-size="12.8882" font-family="Helvetica">0</text>
<text xml:space="preserve" x="106.089" y="359.813" fill="black" font-size="12.8882" font-family="Helvetica">1</text>
<text xml:space="preserve" x="155.634" y="359.813" fill="black" font-size="12.8882" font-family="Helvetica">2</text>
<text xml:space="preserve" x="207.616" y="359.813" fill="black" font-size="12.8882" font-family="Helvetica">3</text>
<text xml:space="preserve" x="258.786" y="359.813" fill="black" font-size="12.8882" font-family="Helvetica">4</text>
<text xml:space="preserve" x="310.768" y="359.813" fill="black" font-size="12.8882" font-family="Helvetica">5</text>
<text xml:space="preserve" x="361.938" y="359.813" fill="black" font-size="12.8882" font-family="Helvetica">6</text>
<text xml:space="preserve" x="413.107" y="359.813" fill="black" font-size="12.8882" font-family="Helvetica">7</text>
<text xml:space="preserve" x="465.089" y="359.813" fill="black" font-size="12.8882" font-family="Helvetica">8</text>
<text xml:space="preserve" x="456.155" y="373.621" fill="black" font-size="12.8882" font-family="Helvetica">x th width</text>
<path d="M57.1929,347.224v -308.643" fill="none" stroke="black"/>
<path d="M70.7992,314.602h -13.6063" fill="none" stroke="black"/>
<path d="M63.9961,306.308h -6.80315" fill="none" stroke="black"/>
<path d="M63.9961,298.014h -6.80315" fill="none" stroke="black"/>
<path d="M63.9961,289.721h -6.80315" fill="none" stroke="black"/>
<path d="M70.7992,281.427h -13.6063" fill="none" stroke="black"/>
<path d="M63.9961,273.133h -6.80315" fill="none" stroke="black"/>
<path d="M63.9961,264.839h -6.80315" fill="none" stroke="black"/>
<path d="M63.9961,256.545h -6.80315" fill="none" stroke="black"/>
<path d="M70.7992,248.251h -13.6063" fill="none" stroke="black"/>
<path d="M63.9961,239.957h -6.80315" fill="none" stroke="black"/>
<path d="M63.9961,231.664h -6.80315" fill="none" stroke="black"/>
<path d="M63.9961,223.37h -6.80315" fill="none" stroke="black"/>
<path d="M70.7992,215.076h -13.6063" fill="none" stroke="black"/>
<path d="M63.9961,206.782h -6.80315" fill="none" stroke="black"/>
<path d="M63.9961,198.488h -6.80315" fill="none" stroke="black"/>
<path d="M63.9961,190.194h -6.80315" fill="none" stroke="black"/>
<path d="M70.7992,181.9h -13.6063" fill="none" stroke="black"/>
<path d="M63.9961,173.607h -6.80315" fill="none" stroke="black"/>
<path d="M63.9961,165.313h -6.80315" fill="none" stroke="black"/>
<path d="M63.9961,157.019h -6.80315" fill="none" stroke="black"/>
<path d="M70.7992,148.725h -13.6063" fill="none" stroke="black"/>
<path d="M63.9961,140.431h -6.80315" fill="none" stroke="black"/>
<path d="M63.9961,132.137h -6.80315" fill="none" stroke="black"/>
<path d="M63.9961,123.843h -6.80315" fill="none" stroke="black"/>
<path d="M70.7992,115.55h -13.6063" fill="none" stroke="black"/>
<path d="M63.9961,107.256h -6.80315" fill="none" stroke="black"/>
<path d="M63.9961,98.9618h -6.80315" fill="none" stroke="black"/>
<path d="M63.9961,90.6679h -6.80315" fill="none" stroke="black"/>
<path d="M70.7992,82.3741h -13.6063" fill="none" stroke="black"/>
<path d="M63.9961,74.0802h -6.80315" fill="none" stroke="black"/>
<path d="M63.9961,65.7863h -6.80315" fill="none" stroke="black"/>
<path d="M63.9961,57.4925h -6.80315" fill="none" stroke="black"/>
<path d="M70.7992,49.1986h -13.6063" fill="none" stroke="black"/>
<path d="M70.7992,314.602h -13.6063" fill="none" stroke="black"/>
<path d="M63.9961,322.896h -6.80315" fill="none" stroke="black"/>
<path d="M63.9961,331.19h -6.80315" fill="none" stroke="black"/>
<path d="M63.9961,339.484h -6.80315" fill="none" stroke="black"/>
<path d="M70.7992,49.1986h -13.6063" fill="none" stroke="black"/>
<path d="M63.9961,40.9048h -6.80315" fill="none" stroke="black"/>
<text xml:space="preserve" x="39.4865" y="319.202" fill="black" font-size="12.8882" font-family="Helvetica">37</text>
<text xml:space="preserve" x="28.9277" y="285.901" fill="black" font-size="12.8882" font-family="Helvetica">37.2</text>
<text xml:space="preserve" x="28.9277" y="252.6" fill="black" font-size="12.8882" font-family="Helvetica">37.4</text>
<text xml:space="preserve" x="28.9277" y="219.299" fill="black" font-size="12.8882" font-family="Helvetica">37.6</text>
<text xml:space="preserve" x="28.9277" y="185.998" fill="black" font-size="12.8882" font-family="Helvetica">37.8</text>
<text xml:space="preserve" x="39.4865" y="153.509" fill="black" font-size="12.8882" font-family="Helvetica">38</text>
<text xml:space="preserve" x="28.9277" y="120.208" fill="black" font-size="12.8882" font-family="Helvetica">38.2</text>
<text xml:space="preserve" x="28.9277" y="86.9075" fill="black" font-size="12.8882" font-family="Helvetica">38.4</text>
<text xml:space="preserve" x="28.9277" y="53.6065" fill="black" font-size="12.8882" font-family="Helvetica">38.6</text>
<g transform="rotate(-90,17.5566,142.138)">
<text xml:space="preserve" x="17.5566" y="142.138" fill="black" font-size="12.8882" font-family="Helvetica">width [ADC value]</text>
</g>
<g stroke="black" stroke-width="1" fill="none">
<line x1="56.1929" y1="243.897" x2="57.1929" y2="243.897"/>
<line x1="107.732" y1="197.321" x2="108.732" y2="197.321"/>
<line x1="159.271" y1="222.271" x2="160.271" y2="222.271"/>
<line x1="210.81" y1="205.885" x2="211.81" y2="205.885"/>
<line x1="262.349" y1="213.174" x2="263.349" y2="213.174"/>
<line x1="313.888" y1="219.14" x2="314.888" y2="219.14"/>
<line x1="365.427" y1="199.745" x2="366.427" y2="199.745"/>
<line x1="416.966" y1="282.596" x2="417.966" y2="282.596"/>
<line x1="468.505" y1="125.247" x2="469.505" y2="125.247"/>
</g>
<path d="M59.4606,214.214h 222.236" fill="none" stroke="#ff0000" stroke-width="2"/>
<path d="M281.697,214.214h 222.236" fill="none" stroke="#ff0000" stroke-width="2"/>
<path d="M503.933,214.214h 4.53543" fill="none" stroke="#ff0000" stroke-width="2"/>
<path d="M57.1929,243.897v -32.1694" fill="none" stroke="black"/>
<path d="M57.1929,211.728h 1.62444" fill="none" stroke="black"/>
<path d="M57.1929,243.897v 32.1694" fill="none" stroke="black"/>
<path d="M57.1929,276.066h 1.62444" fill="none" stroke="black"/>
<path d="M108.732,197.321v -22.3865" fill="none" stroke="black"/>
<path d="M107.107,174.934h 3.24888" fill="none" stroke="black"/>
<path d="M108.732,197.321v 22.3865" fill="none" stroke="black"/>
<path d="M107.107,219.707h 3.24888" fill="none" stroke="black"/>
<path d="M160.271,222.271v -18.3681" fill="none" stroke="black"/>
<path d="M158.646,203.902h 3.24888" fill="none" stroke="black"/>
<path d="M160.271,222.271v 18.3681" fill="none" stroke="black"/>
<path d="M158.646,240.639h 3.24888" fill="none" stroke="black"/>
<path d="M211.81,205.885v -17.1813" fill="none" stroke="black"/>
<path d="M210.186,188.704h 3.24888" fill="none" stroke="black"/>
<path d="M211.81,205.885v 17.1813" fill="none" stroke="black"/>
<path d="M210.186,223.066h 3.24888" fill="none" stroke="black"/>
<path d="M263.349,213.174v -18.5399" fill="none" stroke="black"/>
<path d="M261.725,194.634h 3.24888" fill="none" stroke="black"/>
<path d="M263.349,213.174v 18.5399" fill="none" stroke="black"/>
<path d="M261.725,231.714h 3.24888" fill="none" stroke="black"/>
<path d="M314.888,219.14v -21.9738" fill="none" stroke="black"/>
<path d="M313.264,197.167h 3.24888" fill="none" stroke="black"/>
<path d="M314.888,219.14v 21.9738" fill="none" stroke="black"/>
<path d="M313.264,241.114h 3.24888" fill="none" stroke="black"/>
<path d="M366.427,199.745v -27.5766" fill="none" stroke="black"/>
<path d="M364.803,172.168h 3.24888" fill="none" stroke="black"/>
<path d="M366.427,199.745v 27.5766" fill="none" stroke="black"/>
<path d="M364.803,227.321h 3.24888" fill="none" stroke="black"/>
<path d="M417.966,282.596v -38.9079" fill="none" stroke="black"/>
<path d="M416.342,243.688h 3.24888" fill="none" stroke="black"/>
<path d="M417.966,282.596v 38.9079" fill="none" stroke="black"/>
<path d="M416.342,321.504h 3.24888" fill="none" stroke="black"/>
<path d="M469.505,125.247v -60.9461" fill="none" stroke="black"/>
<path d="M467.881,64.3007h 3.24888" fill="none" stroke="black"/>
<path d="M469.505,125.247v 60.9461" fill="none" stroke="black"/>
<path d="M467.881,186.193h 3.24888" fill="none" stroke="black"/>
<text xml:space="preserve" x="97.1541" y="18.681" fill="black" font-size="18.7414" font-family="Helvetica">Each width between gaussians (3018_CH26)</text></svg>
