<?xml version="1.0" standalone="no"?>
<svg width="567.429" height="386.304" viewBox="0 0 567.429 386.304" xmlns="http://www.w3.org/2000/svg" shape-rendering="crispEdges">
<title>
img/week1/determineMeanWidth3021_CH26.svg
</title>
<desc>
Creator: ROOT Version 6.22/08
CreationDate: Mon Jun 14 14:40:55 2021</desc>
<defs>
</defs>
<rect x="0.5" y="0" width="566.929" height="385.804" fill="white"/>
<rect x="57.1929" y="38.5804" width="453.543" height="308.643" fill="white"/>
<rect x="57.1929" y="38.5804" width="453.543" height="308.643" fill="none" stroke="black"/>
<rect x="57.1929" y="38.5804" width="453.543" height="308.643" fill="white"/>
<rect x="57.1929" y="38.5804" width="453.543" height="308.643" fill="none" stroke="black"/>
<path d="M57.1929,347.224h 453.543" fill="none" stroke="black"/>
<path d="M57.1929,337.964v 9.2593" fill="none" stroke="black"/>
<path d="M74.3726,342.594v 4.62965" fill="none" stroke="black"/>
<path d="M91.5523,342.594v 4.62965" fill="none" stroke="black"/>
<path d="M108.732,342.594v 4.62965" fill="none" stroke="black"/>
<path d="M125.912,337.964v 9.2593" fill="none" stroke="black"/>
<path d="M143.091,342.594v 4.62965" fill="none" stroke="black"/>
<path d="M160.271,342.594v 4.62965" fill="none" stroke="black"/>
<path d="M177.451,342.594v 4.62965" fill="none" stroke="black"/>
<path d="M194.63,337.964v 9.2593" fill="none" stroke="black"/>
<path d="M211.81,342.594v 4.62965" fill="none" stroke="black"/>
<path d="M228.99,342.594v 4.62965" fill="none" stroke="black"/>
<path d="M246.169,342.594v 4.62965" fill="none" stroke="black"/>
<path d="M263.349,337.964v 9.2593" fill="none" stroke="black"/>
<path d="M280.529,342.594v 4.62965" fill="none" stroke="black"/>
<path d="M297.708,342.594v 4.62965" fill="none" stroke="black"/>
<path d="M314.888,342.594v 4.62965" fill="none" stroke="black"/>
<path d="M332.068,337.964v 9.2593" fill="none" stroke="black"/>
<path d="M349.247,342.594v 4.62965" fill="none" stroke="black"/>
<path d="M366.427,342.594v 4.62965" fill="none" stroke="black"/>
<path d="M383.607,342.594v 4.62965" fill="none" stroke="black"/>
<path d="M400.786,337.964v 9.2593" fill="none" stroke="black"/>
<path d="M417.966,342.594v 4.62965" fill="none" stroke="black"/>
<path d="M435.146,342.594v 4.62965" fill="none" stroke="black"/>
<path d="M452.325,342.594v 4.62965" fill="none" stroke="black"/>
<path d="M469.505,337.964v 9.2593" fill="none" stroke="black"/>
<path d="M469.505,337.964v 9.2593" fill="none" stroke="black"/>
<path d="M486.685,342.594v 4.62965" fill="none" stroke="black"/>
<path d="M503.864,342.594v 4.62965" fill="none" stroke="black"/>
<text xml:space="preserve" x="52.482" y="359.813" fill="black" font-size="12.8882" font-family="Helvetica">0</text>
<text xml:space="preserve" x="121.521" y="359.813" fill="black" font-size="12.8882" font-family="Helvetica">2</text>
<text xml:space="preserve" x="190.559" y="359.813" fill="black" font-size="12.8882" font-family="Helvetica">4</text>
<text xml:space="preserve" x="258.786" y="359.813" fill="black" font-size="12.8882" font-family="Helvetica">6</text>
<text xml:space="preserve" x="327.824" y="359.813" fill="black" font-size="12.8882" font-family="Helvetica">8</text>
<text xml:space="preserve" x="392.802" y="359.813" fill="black" font-size="12.8882" font-family="Helvetica">10</text>
<text xml:space="preserve" x="461.841" y="359.813" fill="black" font-size="12.8882" font-family="Helvetica">12</text>
<text xml:space="preserve" x="456.155" y="373.621" fill="black" font-size="12.8882" font-family="Helvetica">x th width</text>
<path d="M57.1929,347.224v -308.643" fill="none" stroke="black"/>
<path d="M70.7992,338.282h -13.6063" fill="none" stroke="black"/>
<path d="M63.9961,326.32h -6.80315" fill="none" stroke="black"/>
<path d="M63.9961,314.357h -6.80315" fill="none" stroke="black"/>
<path d="M63.9961,302.394h -6.80315" fill="none" stroke="black"/>
<path d="M63.9961,290.431h -6.80315" fill="none" stroke="black"/>
<path d="M70.7992,278.469h -13.6063" fill="none" stroke="black"/>
<path d="M63.9961,266.506h -6.80315" fill="none" stroke="black"/>
<path d="M63.9961,254.543h -6.80315" fill="none" stroke="black"/>
<path d="M63.9961,242.58h -6.80315" fill="none" stroke="black"/>
<path d="M63.9961,230.618h -6.80315" fill="none" stroke="black"/>
<path d="M70.7992,218.655h -13.6063" fill="none" stroke="black"/>
<path d="M63.9961,206.692h -6.80315" fill="none" stroke="black"/>
<path d="M63.9961,194.729h -6.80315" fill="none" stroke="black"/>
<path d="M63.9961,182.767h -6.80315" fill="none" stroke="black"/>
<path d="M63.9961,170.804h -6.80315" fill="none" stroke="black"/>
<path d="M70.7992,158.841h -13.6063" fill="none" stroke="black"/>
<path d="M63.9961,146.878h -6.80315" fill="none" stroke="black"/>
<path d="M63.9961,134.916h -6.80315" fill="none" stroke="black"/>
<path d="M63.9961,122.953h -6.80315" fill="none" stroke="black"/>
<path d="M63.9961,110.99h -6.80315" fill="none" stroke="black"/>
<path d="M70.7992,99.0273h -13.6063" fill="none" stroke="black"/>
<path d="M63.9961,87.0645h -6.80315" fill="none" stroke="black"/>
<path d="M63.9961,75.1018h -6.80315" fill="none" stroke="black"/>
<path d="M63.9961,63.139h -6.80315" fill="none" stroke="black"/>
<path d="M63.9961,51.1763h -6.80315" fill="none" stroke="black"/>
<path d="M70.7992,39.2135h -13.6063" fill="none" stroke="black"/>
<path d="M70.7992,338.282h -13.6063" fill="none" stroke="black"/>
<path d="M70.7992,39.2135h -13.6063" fill="none" stroke="black"/>
<text xml:space="preserve" x="39.4865" y="342.757" fill="black" font-size="12.8882" font-family="Helvetica">83</text>
<text xml:space="preserve" x="39.4865" y="282.652" fill="black" font-size="12.8882" font-family="Helvetica">84</text>
<text xml:space="preserve" x="39.4865" y="223.36" fill="black" font-size="12.8882" font-family="Helvetica">85</text>
<text xml:space="preserve" x="39.4865" y="163.256" fill="black" font-size="12.8882" font-family="Helvetica">86</text>
<text xml:space="preserve" x="39.4865" y="103.152" fill="black" font-size="12.8882" font-family="Helvetica">87</text>
<text xml:space="preserve" x="39.4865" y="43.8598" fill="black" font-size="12.8882" font-family="Helvetica">88</text>
<g transform="rotate(-90,28.1155,142.138)">
<text xml:space="preserve" x="28.1155" y="142.138" fill="black" font-size="12.8882" font-family="Helvetica">width [ADC value]</text>
</g>
<g stroke="black" stroke-width="1" fill="none">
<line x1="56.1929" y1="113.661" x2="57.1929" y2="113.661"/>
<line x1="90.5523" y1="79.0105" x2="91.5523" y2="79.0105"/>
<line x1="124.912" y1="89.4505" x2="125.912" y2="89.4505"/>
<line x1="159.271" y1="121.431" x2="160.271" y2="121.431"/>
<line x1="193.63" y1="125.042" x2="194.63" y2="125.042"/>
<line x1="227.99" y1="163.393" x2="228.99" y2="163.393"/>
<line x1="262.349" y1="159.963" x2="263.349" y2="159.963"/>
<line x1="296.708" y1="190.531" x2="297.708" y2="190.531"/>
<line x1="331.068" y1="223.107" x2="332.068" y2="223.107"/>
<line x1="365.427" y1="234.314" x2="366.427" y2="234.314"/>
<line x1="399.786" y1="271.055" x2="400.786" y2="271.055"/>
<line x1="434.146" y1="281.205" x2="435.146" y2="281.205"/>
<line x1="468.505" y1="296.873" x2="469.505" y2="296.873"/>
</g>
<path d="M59.4606,161.894h 222.236" fill="none" stroke="#ff0000" stroke-width="2"/>
<path d="M281.697,161.894h 222.236" fill="none" stroke="#ff0000" stroke-width="2"/>
<path d="M503.933,161.894h 4.53543" fill="none" stroke="#ff0000" stroke-width="2"/>
<path d="M57.1929,113.661v -18.8857" fill="none" stroke="black"/>
<path d="M57.1929,94.7753h 1.62444" fill="none" stroke="black"/>
<path d="M57.1929,113.661v 18.8857" fill="none" stroke="black"/>
<path d="M57.1929,132.547h 1.62444" fill="none" stroke="black"/>
<path d="M91.5523,79.0105v -14.7098" fill="none" stroke="black"/>
<path d="M89.9278,64.3007h 3.24888" fill="none" stroke="black"/>
<path d="M91.5523,79.0105v 14.7098" fill="none" stroke="black"/>
<path d="M89.9278,93.7204h 3.24888" fill="none" stroke="black"/>
<path d="M125.912,89.4505v -9.6726" fill="none" stroke="black"/>
<path d="M124.287,79.7778h 3.24888" fill="none" stroke="black"/>
<path d="M125.912,89.4505v 9.6726" fill="none" stroke="black"/>
<path d="M124.287,99.1231h 3.24888" fill="none" stroke="black"/>
<path d="M160.271,121.431v -7.38759" fill="none" stroke="black"/>
<path d="M158.646,114.043h 3.24888" fill="none" stroke="black"/>
<path d="M160.271,121.431v 7.38759" fill="none" stroke="black"/>
<path d="M158.646,128.819h 3.24888" fill="none" stroke="black"/>
<path d="M194.63,125.042v -6.9822" fill="none" stroke="black"/>
<path d="M193.006,118.06h 3.24888" fill="none" stroke="black"/>
<path d="M194.63,125.042v 6.9822" fill="none" stroke="black"/>
<path d="M193.006,132.025h 3.24888" fill="none" stroke="black"/>
<path d="M228.99,163.393v -7.07928" fill="none" stroke="black"/>
<path d="M227.365,156.314h 3.24888" fill="none" stroke="black"/>
<path d="M228.99,163.393v 7.07928" fill="none" stroke="black"/>
<path d="M227.365,170.473h 3.24888" fill="none" stroke="black"/>
<path d="M263.349,159.963v -8.50611" fill="none" stroke="black"/>
<path d="M261.725,151.457h 3.24888" fill="none" stroke="black"/>
<path d="M263.349,159.963v 8.50611" fill="none" stroke="black"/>
<path d="M261.725,168.469h 3.24888" fill="none" stroke="black"/>
<path d="M297.708,190.531v -10.42" fill="none" stroke="black"/>
<path d="M296.084,180.111h 3.24888" fill="none" stroke="black"/>
<path d="M297.708,190.531v 10.42" fill="none" stroke="black"/>
<path d="M296.084,200.951h 3.24888" fill="none" stroke="black"/>
<path d="M332.068,223.107v -10.117" fill="none" stroke="black"/>
<path d="M330.443,212.99h 3.24888" fill="none" stroke="black"/>
<path d="M332.068,223.107v 10.117" fill="none" stroke="black"/>
<path d="M330.443,233.224h 3.24888" fill="none" stroke="black"/>
<path d="M366.427,234.314v -10.3588" fill="none" stroke="black"/>
<path d="M364.803,223.955h 3.24888" fill="none" stroke="black"/>
<path d="M366.427,234.314v 10.3588" fill="none" stroke="black"/>
<path d="M364.803,244.672h 3.24888" fill="none" stroke="black"/>
<path d="M400.786,271.055v -12.7739" fill="none" stroke="black"/>
<path d="M399.162,258.281h 3.24888" fill="none" stroke="black"/>
<path d="M400.786,271.055v 12.7739" fill="none" stroke="black"/>
<path d="M399.162,283.829h 3.24888" fill="none" stroke="black"/>
<path d="M435.146,281.205v -18.2436" fill="none" stroke="black"/>
<path d="M433.521,262.961h 3.24888" fill="none" stroke="black"/>
<path d="M435.146,281.205v 18.2436" fill="none" stroke="black"/>
<path d="M433.521,299.449h 3.24888" fill="none" stroke="black"/>
<path d="M469.505,296.873v -24.6306" fill="none" stroke="black"/>
<path d="M467.881,272.242h 3.24888" fill="none" stroke="black"/>
<path d="M469.505,296.873v 24.6306" fill="none" stroke="black"/>
<path d="M467.881,321.504h 3.24888" fill="none" stroke="black"/>
<text xml:space="preserve" x="97.1541" y="18.681" fill="black" font-size="18.7414" font-family="Helvetica">Each width between gaussians (3021_CH26)</text></svg>
