<?xml version="1.0" standalone="no"?>
<svg width="567.429" height="386.304" viewBox="0 0 567.429 386.304" xmlns="http://www.w3.org/2000/svg" shape-rendering="crispEdges">
<title>
img/week1/determineMeanWidth3021_CH29.svg
</title>
<desc>
Creator: ROOT Version 6.22/08
CreationDate: Mon Jun 14 14:40:56 2021</desc>
<defs>
</defs>
<rect x="0.5" y="0" width="566.929" height="385.804" fill="white"/>
<rect x="57.1929" y="38.5804" width="453.543" height="308.643" fill="white"/>
<rect x="57.1929" y="38.5804" width="453.543" height="308.643" fill="none" stroke="black"/>
<rect x="57.1929" y="38.5804" width="453.543" height="308.643" fill="white"/>
<rect x="57.1929" y="38.5804" width="453.543" height="308.643" fill="none" stroke="black"/>
<path d="M57.1929,347.224h 453.543" fill="none" stroke="black"/>
<path d="M57.1929,337.964v 9.2593" fill="none" stroke="black"/>
<path d="M74.3726,342.594v 4.62965" fill="none" stroke="black"/>
<path d="M91.5523,342.594v 4.62965" fill="none" stroke="black"/>
<path d="M108.732,342.594v 4.62965" fill="none" stroke="black"/>
<path d="M125.912,337.964v 9.2593" fill="none" stroke="black"/>
<path d="M143.091,342.594v 4.62965" fill="none" stroke="black"/>
<path d="M160.271,342.594v 4.62965" fill="none" stroke="black"/>
<path d="M177.451,342.594v 4.62965" fill="none" stroke="black"/>
<path d="M194.63,337.964v 9.2593" fill="none" stroke="black"/>
<path d="M211.81,342.594v 4.62965" fill="none" stroke="black"/>
<path d="M228.99,342.594v 4.62965" fill="none" stroke="black"/>
<path d="M246.169,342.594v 4.62965" fill="none" stroke="black"/>
<path d="M263.349,337.964v 9.2593" fill="none" stroke="black"/>
<path d="M280.529,342.594v 4.62965" fill="none" stroke="black"/>
<path d="M297.708,342.594v 4.62965" fill="none" stroke="black"/>
<path d="M314.888,342.594v 4.62965" fill="none" stroke="black"/>
<path d="M332.068,337.964v 9.2593" fill="none" stroke="black"/>
<path d="M349.247,342.594v 4.62965" fill="none" stroke="black"/>
<path d="M366.427,342.594v 4.62965" fill="none" stroke="black"/>
<path d="M383.607,342.594v 4.62965" fill="none" stroke="black"/>
<path d="M400.786,337.964v 9.2593" fill="none" stroke="black"/>
<path d="M417.966,342.594v 4.62965" fill="none" stroke="black"/>
<path d="M435.146,342.594v 4.62965" fill="none" stroke="black"/>
<path d="M452.325,342.594v 4.62965" fill="none" stroke="black"/>
<path d="M469.505,337.964v 9.2593" fill="none" stroke="black"/>
<path d="M469.505,337.964v 9.2593" fill="none" stroke="black"/>
<path d="M486.685,342.594v 4.62965" fill="none" stroke="black"/>
<path d="M503.864,342.594v 4.62965" fill="none" stroke="black"/>
<text xml:space="preserve" x="52.482" y="359.813" fill="black" font-size="12.8882" font-family="Helvetica">0</text>
<text xml:space="preserve" x="121.521" y="359.813" fill="black" font-size="12.8882" font-family="Helvetica">2</text>
<text xml:space="preserve" x="190.559" y="359.813" fill="black" font-size="12.8882" font-family="Helvetica">4</text>
<text xml:space="preserve" x="258.786" y="359.813" fill="black" font-size="12.8882" font-family="Helvetica">6</text>
<text xml:space="preserve" x="327.824" y="359.813" fill="black" font-size="12.8882" font-family="Helvetica">8</text>
<text xml:space="preserve" x="392.802" y="359.813" fill="black" font-size="12.8882" font-family="Helvetica">10</text>
<text xml:space="preserve" x="461.841" y="359.813" fill="black" font-size="12.8882" font-family="Helvetica">12</text>
<text xml:space="preserve" x="456.155" y="373.621" fill="black" font-size="12.8882" font-family="Helvetica">x th width</text>
<path d="M57.1929,347.224v -308.643" fill="none" stroke="black"/>
<path d="M70.7992,310.108h -13.6063" fill="none" stroke="black"/>
<path d="M63.9961,301.289h -6.80315" fill="none" stroke="black"/>
<path d="M63.9961,292.47h -6.80315" fill="none" stroke="black"/>
<path d="M63.9961,283.651h -6.80315" fill="none" stroke="black"/>
<path d="M63.9961,274.832h -6.80315" fill="none" stroke="black"/>
<path d="M70.7992,266.013h -13.6063" fill="none" stroke="black"/>
<path d="M63.9961,257.194h -6.80315" fill="none" stroke="black"/>
<path d="M63.9961,248.375h -6.80315" fill="none" stroke="black"/>
<path d="M63.9961,239.556h -6.80315" fill="none" stroke="black"/>
<path d="M63.9961,230.737h -6.80315" fill="none" stroke="black"/>
<path d="M70.7992,221.918h -13.6063" fill="none" stroke="black"/>
<path d="M63.9961,213.099h -6.80315" fill="none" stroke="black"/>
<path d="M63.9961,204.28h -6.80315" fill="none" stroke="black"/>
<path d="M63.9961,195.461h -6.80315" fill="none" stroke="black"/>
<path d="M63.9961,186.642h -6.80315" fill="none" stroke="black"/>
<path d="M70.7992,177.823h -13.6063" fill="none" stroke="black"/>
<path d="M63.9961,169.004h -6.80315" fill="none" stroke="black"/>
<path d="M63.9961,160.185h -6.80315" fill="none" stroke="black"/>
<path d="M63.9961,151.366h -6.80315" fill="none" stroke="black"/>
<path d="M63.9961,142.547h -6.80315" fill="none" stroke="black"/>
<path d="M70.7992,133.728h -13.6063" fill="none" stroke="black"/>
<path d="M63.9961,124.909h -6.80315" fill="none" stroke="black"/>
<path d="M63.9961,116.09h -6.80315" fill="none" stroke="black"/>
<path d="M63.9961,107.271h -6.80315" fill="none" stroke="black"/>
<path d="M63.9961,98.4521h -6.80315" fill="none" stroke="black"/>
<path d="M70.7992,89.6331h -13.6063" fill="none" stroke="black"/>
<path d="M63.9961,80.8141h -6.80315" fill="none" stroke="black"/>
<path d="M63.9961,71.9951h -6.80315" fill="none" stroke="black"/>
<path d="M63.9961,63.1761h -6.80315" fill="none" stroke="black"/>
<path d="M63.9961,54.3571h -6.80315" fill="none" stroke="black"/>
<path d="M70.7992,45.5381h -13.6063" fill="none" stroke="black"/>
<path d="M70.7992,310.108h -13.6063" fill="none" stroke="black"/>
<path d="M63.9961,318.927h -6.80315" fill="none" stroke="black"/>
<path d="M63.9961,327.746h -6.80315" fill="none" stroke="black"/>
<path d="M63.9961,336.565h -6.80315" fill="none" stroke="black"/>
<path d="M63.9961,345.384h -6.80315" fill="none" stroke="black"/>
<path d="M70.7992,45.5381h -13.6063" fill="none" stroke="black"/>
<text xml:space="preserve" x="41.9232" y="314.329" fill="black" font-size="12.8882" font-family="Helvetica">81</text>
<text xml:space="preserve" x="39.4865" y="270.469" fill="black" font-size="12.8882" font-family="Helvetica">82</text>
<text xml:space="preserve" x="39.4865" y="226.609" fill="black" font-size="12.8882" font-family="Helvetica">83</text>
<text xml:space="preserve" x="39.4865" y="181.937" fill="black" font-size="12.8882" font-family="Helvetica">84</text>
<text xml:space="preserve" x="39.4865" y="138.077" fill="black" font-size="12.8882" font-family="Helvetica">85</text>
<text xml:space="preserve" x="39.4865" y="94.2175" fill="black" font-size="12.8882" font-family="Helvetica">86</text>
<text xml:space="preserve" x="39.4865" y="50.3576" fill="black" font-size="12.8882" font-family="Helvetica">87</text>
<g transform="rotate(-90,28.1155,142.138)">
<text xml:space="preserve" x="28.1155" y="142.138" fill="black" font-size="12.8882" font-family="Helvetica">width [ADC value]</text>
</g>
<g stroke="black" stroke-width="1" fill="none">
<line x1="56.1929" y1="105.799" x2="57.1929" y2="105.799"/>
<line x1="90.5523" y1="74.4761" x2="91.5523" y2="74.4761"/>
<line x1="124.912" y1="132.161" x2="125.912" y2="132.161"/>
<line x1="159.271" y1="151.59" x2="160.271" y2="151.59"/>
<line x1="193.63" y1="169.076" x2="194.63" y2="169.076"/>
<line x1="227.99" y1="158.149" x2="228.99" y2="158.149"/>
<line x1="262.349" y1="192.25" x2="263.349" y2="192.25"/>
<line x1="296.708" y1="217.805" x2="297.708" y2="217.805"/>
<line x1="331.068" y1="219.878" x2="332.068" y2="219.878"/>
<line x1="365.427" y1="257.21" x2="366.427" y2="257.21"/>
<line x1="399.786" y1="227.824" x2="400.786" y2="227.824"/>
<line x1="434.146" y1="308.002" x2="435.146" y2="308.002"/>
<line x1="468.505" y1="264.749" x2="469.505" y2="264.749"/>
</g>
<path d="M59.4606,184.468h 222.236" fill="none" stroke="#ff0000" stroke-width="2"/>
<path d="M281.697,184.468h 222.236" fill="none" stroke="#ff0000" stroke-width="2"/>
<path d="M503.933,184.468h 4.53543" fill="none" stroke="#ff0000" stroke-width="2"/>
<path d="M57.1929,105.799v -12.5304" fill="none" stroke="black"/>
<path d="M57.1929,93.2689h 1.62444" fill="none" stroke="black"/>
<path d="M57.1929,105.799v 12.5304" fill="none" stroke="black"/>
<path d="M57.1929,118.33h 1.62444" fill="none" stroke="black"/>
<path d="M91.5523,74.4761v -10.1754" fill="none" stroke="black"/>
<path d="M89.9278,64.3007h 3.24888" fill="none" stroke="black"/>
<path d="M91.5523,74.4761v 10.1754" fill="none" stroke="black"/>
<path d="M89.9278,84.6515h 3.24888" fill="none" stroke="black"/>
<path d="M125.912,132.161v -8.27444" fill="none" stroke="black"/>
<path d="M124.287,123.887h 3.24888" fill="none" stroke="black"/>
<path d="M125.912,132.161v 8.27444" fill="none" stroke="black"/>
<path d="M124.287,140.436h 3.24888" fill="none" stroke="black"/>
<path d="M160.271,151.59v -7.73763" fill="none" stroke="black"/>
<path d="M158.646,143.852h 3.24888" fill="none" stroke="black"/>
<path d="M160.271,151.59v 7.73763" fill="none" stroke="black"/>
<path d="M158.646,159.327h 3.24888" fill="none" stroke="black"/>
<path d="M194.63,169.076v -6.1587" fill="none" stroke="black"/>
<path d="M193.006,162.917h 3.24888" fill="none" stroke="black"/>
<path d="M194.63,169.076v 6.1587" fill="none" stroke="black"/>
<path d="M193.006,175.235h 3.24888" fill="none" stroke="black"/>
<path d="M228.99,158.149v -6.34232" fill="none" stroke="black"/>
<path d="M227.365,151.807h 3.24888" fill="none" stroke="black"/>
<path d="M228.99,158.149v 6.34232" fill="none" stroke="black"/>
<path d="M227.365,164.491h 3.24888" fill="none" stroke="black"/>
<path d="M263.349,192.25v -6.24296" fill="none" stroke="black"/>
<path d="M261.725,186.007h 3.24888" fill="none" stroke="black"/>
<path d="M263.349,192.25v 6.24296" fill="none" stroke="black"/>
<path d="M261.725,198.493h 3.24888" fill="none" stroke="black"/>
<path d="M297.708,217.805v -6.4786" fill="none" stroke="black"/>
<path d="M296.084,211.326h 3.24888" fill="none" stroke="black"/>
<path d="M297.708,217.805v 6.4786" fill="none" stroke="black"/>
<path d="M296.084,224.283h 3.24888" fill="none" stroke="black"/>
<path d="M332.068,219.878v -7.05103" fill="none" stroke="black"/>
<path d="M330.443,212.827h 3.24888" fill="none" stroke="black"/>
<path d="M332.068,219.878v 7.05103" fill="none" stroke="black"/>
<path d="M330.443,226.929h 3.24888" fill="none" stroke="black"/>
<path d="M366.427,257.21v -8.63321" fill="none" stroke="black"/>
<path d="M364.803,248.577h 3.24888" fill="none" stroke="black"/>
<path d="M366.427,257.21v 8.63321" fill="none" stroke="black"/>
<path d="M364.803,265.844h 3.24888" fill="none" stroke="black"/>
<path d="M400.786,227.824v -11.133" fill="none" stroke="black"/>
<path d="M399.162,216.691h 3.24888" fill="none" stroke="black"/>
<path d="M400.786,227.824v 11.133" fill="none" stroke="black"/>
<path d="M399.162,238.957h 3.24888" fill="none" stroke="black"/>
<path d="M435.146,308.002v -13.5013" fill="none" stroke="black"/>
<path d="M433.521,294.501h 3.24888" fill="none" stroke="black"/>
<path d="M435.146,308.002v 13.5013" fill="none" stroke="black"/>
<path d="M433.521,321.504h 3.24888" fill="none" stroke="black"/>
<path d="M469.505,264.749v -18.8111" fill="none" stroke="black"/>
<path d="M467.881,245.938h 3.24888" fill="none" stroke="black"/>
<path d="M469.505,264.749v 18.8111" fill="none" stroke="black"/>
<path d="M467.881,283.56h 3.24888" fill="none" stroke="black"/>
<text xml:space="preserve" x="97.1541" y="18.681" fill="black" font-size="18.7414" font-family="Helvetica">Each width between gaussians (3021_CH29)</text></svg>
