<?xml version="1.0" standalone="no"?>
<svg width="567.429" height="386.304" viewBox="0 0 567.429 386.304" xmlns="http://www.w3.org/2000/svg" shape-rendering="crispEdges">
<title>
img/week1/HV_Width.svg
</title>
<desc>
Creator: ROOT Version 6.22/08
CreationDate: Mon Jun 14 15:39:20 2021</desc>
<defs>
</defs>
<rect x="0.5" y="0" width="566.929" height="385.804" fill="white"/>
<rect x="57.1929" y="38.5804" width="453.543" height="308.643" fill="white"/>
<rect x="57.1929" y="38.5804" width="453.543" height="308.643" fill="none" stroke="black"/>
<rect x="57.1929" y="38.5804" width="453.543" height="308.643" fill="white"/>
<rect x="57.1929" y="38.5804" width="453.543" height="308.643" fill="none" stroke="black"/>
<path d="M57.1929,347.224h 453.543" fill="none" stroke="black"/>
<path d="M97.4912,337.964v 9.2593" fill="none" stroke="black"/>
<path d="M110.006,342.594v 4.62965" fill="none" stroke="black"/>
<path d="M122.521,342.594v 4.62965" fill="none" stroke="black"/>
<path d="M135.036,342.594v 4.62965" fill="none" stroke="black"/>
<path d="M147.551,337.964v 9.2593" fill="none" stroke="black"/>
<path d="M160.066,342.594v 4.62965" fill="none" stroke="black"/>
<path d="M172.581,342.594v 4.62965" fill="none" stroke="black"/>
<path d="M185.096,342.594v 4.62965" fill="none" stroke="black"/>
<path d="M197.611,337.964v 9.2593" fill="none" stroke="black"/>
<path d="M210.126,342.594v 4.62965" fill="none" stroke="black"/>
<path d="M222.641,342.594v 4.62965" fill="none" stroke="black"/>
<path d="M235.156,342.594v 4.62965" fill="none" stroke="black"/>
<path d="M247.671,337.964v 9.2593" fill="none" stroke="black"/>
<path d="M260.186,342.594v 4.62965" fill="none" stroke="black"/>
<path d="M272.701,342.594v 4.62965" fill="none" stroke="black"/>
<path d="M285.216,342.594v 4.62965" fill="none" stroke="black"/>
<path d="M297.731,337.964v 9.2593" fill="none" stroke="black"/>
<path d="M310.246,342.594v 4.62965" fill="none" stroke="black"/>
<path d="M322.761,342.594v 4.62965" fill="none" stroke="black"/>
<path d="M335.276,342.594v 4.62965" fill="none" stroke="black"/>
<path d="M347.791,337.964v 9.2593" fill="none" stroke="black"/>
<path d="M360.306,342.594v 4.62965" fill="none" stroke="black"/>
<path d="M372.821,342.594v 4.62965" fill="none" stroke="black"/>
<path d="M385.336,342.594v 4.62965" fill="none" stroke="black"/>
<path d="M397.851,337.964v 9.2593" fill="none" stroke="black"/>
<path d="M410.366,342.594v 4.62965" fill="none" stroke="black"/>
<path d="M422.881,342.594v 4.62965" fill="none" stroke="black"/>
<path d="M435.396,342.594v 4.62965" fill="none" stroke="black"/>
<path d="M447.911,337.964v 9.2593" fill="none" stroke="black"/>
<path d="M460.426,342.594v 4.62965" fill="none" stroke="black"/>
<path d="M472.941,342.594v 4.62965" fill="none" stroke="black"/>
<path d="M485.456,342.594v 4.62965" fill="none" stroke="black"/>
<path d="M497.971,337.964v 9.2593" fill="none" stroke="black"/>
<path d="M97.4912,337.964v 9.2593" fill="none" stroke="black"/>
<path d="M84.9762,342.594v 4.62965" fill="none" stroke="black"/>
<path d="M72.4612,342.594v 4.62965" fill="none" stroke="black"/>
<path d="M59.9462,342.594v 4.62965" fill="none" stroke="black"/>
<path d="M497.971,337.964v 9.2593" fill="none" stroke="black"/>
<path d="M510.486,342.594v 4.62965" fill="none" stroke="black"/>
<text xml:space="preserve" x="89.8441" y="359.813" fill="black" font-size="12.8882" font-family="Helvetica">53</text>
<text xml:space="preserve" x="134.516" y="359.813" fill="black" font-size="12.8882" font-family="Helvetica">53.2</text>
<text xml:space="preserve" x="184.062" y="359.813" fill="black" font-size="12.8882" font-family="Helvetica">53.4</text>
<text xml:space="preserve" x="234.419" y="359.813" fill="black" font-size="12.8882" font-family="Helvetica">53.6</text>
<text xml:space="preserve" x="283.965" y="359.813" fill="black" font-size="12.8882" font-family="Helvetica">53.8</text>
<text xml:space="preserve" x="340.008" y="359.813" fill="black" font-size="12.8882" font-family="Helvetica">54</text>
<text xml:space="preserve" x="384.68" y="359.813" fill="black" font-size="12.8882" font-family="Helvetica">54.2</text>
<text xml:space="preserve" x="434.225" y="359.813" fill="black" font-size="12.8882" font-family="Helvetica">54.4</text>
<text xml:space="preserve" x="484.583" y="359.813" fill="black" font-size="12.8882" font-family="Helvetica">54.6</text>
<text xml:space="preserve" x="469.963" y="372.809" fill="black" font-size="12.8882" font-family="Helvetica"> HV [V]</text>
<path d="M57.1929,347.224v -308.643" fill="none" stroke="black"/>
<path d="M70.7992,299.743h -13.6063" fill="none" stroke="black"/>
<path d="M63.9961,289.498h -6.80315" fill="none" stroke="black"/>
<path d="M63.9961,279.253h -6.80315" fill="none" stroke="black"/>
<path d="M63.9961,269.008h -6.80315" fill="none" stroke="black"/>
<path d="M63.9961,258.763h -6.80315" fill="none" stroke="black"/>
<path d="M70.7992,248.518h -13.6063" fill="none" stroke="black"/>
<path d="M63.9961,238.272h -6.80315" fill="none" stroke="black"/>
<path d="M63.9961,228.027h -6.80315" fill="none" stroke="black"/>
<path d="M63.9961,217.782h -6.80315" fill="none" stroke="black"/>
<path d="M63.9961,207.537h -6.80315" fill="none" stroke="black"/>
<path d="M70.7992,197.292h -13.6063" fill="none" stroke="black"/>
<path d="M63.9961,187.047h -6.80315" fill="none" stroke="black"/>
<path d="M63.9961,176.801h -6.80315" fill="none" stroke="black"/>
<path d="M63.9961,166.556h -6.80315" fill="none" stroke="black"/>
<path d="M63.9961,156.311h -6.80315" fill="none" stroke="black"/>
<path d="M70.7992,146.066h -13.6063" fill="none" stroke="black"/>
<path d="M63.9961,135.821h -6.80315" fill="none" stroke="black"/>
<path d="M63.9961,125.575h -6.80315" fill="none" stroke="black"/>
<path d="M63.9961,115.33h -6.80315" fill="none" stroke="black"/>
<path d="M63.9961,105.085h -6.80315" fill="none" stroke="black"/>
<path d="M70.7992,94.84h -13.6063" fill="none" stroke="black"/>
<path d="M63.9961,84.5948h -6.80315" fill="none" stroke="black"/>
<path d="M63.9961,74.3496h -6.80315" fill="none" stroke="black"/>
<path d="M63.9961,64.1044h -6.80315" fill="none" stroke="black"/>
<path d="M63.9961,53.8593h -6.80315" fill="none" stroke="black"/>
<path d="M70.7992,43.6141h -13.6063" fill="none" stroke="black"/>
<path d="M70.7992,299.743h -13.6063" fill="none" stroke="black"/>
<path d="M63.9961,309.989h -6.80315" fill="none" stroke="black"/>
<path d="M63.9961,320.234h -6.80315" fill="none" stroke="black"/>
<path d="M63.9961,330.479h -6.80315" fill="none" stroke="black"/>
<path d="M63.9961,340.724h -6.80315" fill="none" stroke="black"/>
<path d="M70.7992,43.6141h -13.6063" fill="none" stroke="black"/>
<text xml:space="preserve" x="39.4865" y="304.582" fill="black" font-size="12.8882" font-family="Helvetica">40</text>
<text xml:space="preserve" x="39.4865" y="252.6" fill="black" font-size="12.8882" font-family="Helvetica">50</text>
<text xml:space="preserve" x="39.4865" y="201.43" fill="black" font-size="12.8882" font-family="Helvetica">60</text>
<text xml:space="preserve" x="39.4865" y="150.261" fill="black" font-size="12.8882" font-family="Helvetica">70</text>
<text xml:space="preserve" x="39.4865" y="99.0908" fill="black" font-size="12.8882" font-family="Helvetica">80</text>
<text xml:space="preserve" x="39.4865" y="47.9209" fill="black" font-size="12.8882" font-family="Helvetica">90</text>
<g transform="rotate(-90,28.1155,141.326)">
<text xml:space="preserve" x="28.1155" y="141.326" fill="black" font-size="12.8882" font-family="Helvetica"> width[ADC value]</text>
</g>
<path d="M94.9882,312.01v 9.24059l 127.653, -94.2137v 8.95073l 125.15, -90.7316v 8.62953l 125.15, -89.352v 10.3022" fill="none" stroke="black"/>
<g stroke="black" stroke-width="1" fill="none">
<line x1="93.9882" y1="312.01" x2="94.9882" y2="312.01"/>
<line x1="93.9882" y1="321.251" x2="94.9882" y2="321.251"/>
<line x1="221.641" y1="227.037" x2="222.641" y2="227.037"/>
<line x1="221.641" y1="235.988" x2="222.641" y2="235.988"/>
<line x1="346.791" y1="145.257" x2="347.791" y2="145.257"/>
<line x1="346.791" y1="153.886" x2="347.791" y2="153.886"/>
<line x1="471.941" y1="64.534" x2="472.941" y2="64.534"/>
<line x1="471.941" y1="74.8362" x2="472.941" y2="74.8362"/>
</g>
<path d="M94.9882,312.01v -0.233765" fill="none" stroke="black"/>
<path d="M93.3638,311.777h 3.24888" fill="none" stroke="black"/>
<path d="M94.9882,312.01v 0.233765" fill="none" stroke="black"/>
<path d="M93.3638,312.244h 3.24888" fill="none" stroke="black"/>
<path d="M94.9882,321.251v -0.252457" fill="none" stroke="black"/>
<path d="M93.3638,320.999h 3.24888" fill="none" stroke="black"/>
<path d="M94.9882,321.251v 0.252457" fill="none" stroke="black"/>
<path d="M93.3638,321.504h 3.24888" fill="none" stroke="black"/>
<path d="M222.641,227.037v -0.171564" fill="none" stroke="black"/>
<path d="M221.017,226.866h 3.24888" fill="none" stroke="black"/>
<path d="M222.641,227.037v 0.171564" fill="none" stroke="black"/>
<path d="M221.017,227.209h 3.24888" fill="none" stroke="black"/>
<path d="M222.641,235.988v -0.199324" fill="none" stroke="black"/>
<path d="M221.017,235.789h 3.24888" fill="none" stroke="black"/>
<path d="M222.641,235.988v 0.199324" fill="none" stroke="black"/>
<path d="M221.017,236.187h 3.24888" fill="none" stroke="black"/>
<path d="M347.791,145.257v -0.177918" fill="none" stroke="black"/>
<path d="M346.167,145.079h 3.24888" fill="none" stroke="black"/>
<path d="M347.791,145.257v 0.177918" fill="none" stroke="black"/>
<path d="M346.167,145.434h 3.24888" fill="none" stroke="black"/>
<path d="M347.791,153.886v -0.19237" fill="none" stroke="black"/>
<path d="M346.167,153.694h 3.24888" fill="none" stroke="black"/>
<path d="M347.791,153.886v 0.19237" fill="none" stroke="black"/>
<path d="M346.167,154.078h 3.24888" fill="none" stroke="black"/>
<path d="M472.941,64.534v -0.233346" fill="none" stroke="black"/>
<path d="M471.316,64.3007h 3.24888" fill="none" stroke="black"/>
<path d="M472.941,64.534v 0.233346" fill="none" stroke="black"/>
<path d="M471.316,64.7674h 3.24888" fill="none" stroke="black"/>
<path d="M472.941,74.8362v -0.265136" fill="none" stroke="black"/>
<path d="M471.316,74.5711h 3.24888" fill="none" stroke="black"/>
<path d="M472.941,74.8362v 0.265136" fill="none" stroke="black"/>
<path d="M471.316,75.1013h 3.24888" fill="none" stroke="black"/>
<text xml:space="preserve" x="244.978" y="18.681" fill="black" font-size="17.0471" font-family="Helvetica">HV - width</text></svg>
