<?xml version="1.0" standalone="no"?>
<svg width="567.429" height="386.304" viewBox="0 0 567.429 386.304" xmlns="http://www.w3.org/2000/svg" shape-rendering="crispEdges">
<title>
img/week1/led3019.rootCH26.svg
</title>
<desc>
Creator: ROOT Version 6.22/08
CreationDate: Sat Jun 12 13:43:40 2021</desc>
<defs>
</defs>
<rect x="0.5" y="0" width="566.929" height="385.804" fill="white"/>
<rect x="57.1929" y="38.5804" width="453.543" height="308.643" fill="white"/>
<rect x="57.1929" y="38.5804" width="453.543" height="308.643" fill="none" stroke="black"/>
<rect x="57.1929" y="38.5804" width="453.543" height="308.643" fill="white"/>
<rect x="57.1929" y="38.5804" width="453.543" height="308.643" fill="none" stroke="black"/>
<path d="M57.1929,347.224h 2.86448v -0.385756h 0.477414v 0.385756h 0.954828v -0.771512h 0.477414v 0.385756h 1.43224v 0.385756h 1.90966v -0.385756h 0.477414v 0.385756h 0.477414v -0.771512h 0.477414v 0.771512h 0.954828v -0.385756h 0.954828v -1.15727h
 0.477414v 0.385756h 0.477414v -1.15727h 0.477414v 1.92878h 0.477414v -0.771512h 0.477414v 0.385756h 0.477414v -0.771512h 0.954828v -1.15727h 0.477414v 1.15727h 0.477414v -0.385756h 0.477414v -1.92878h 0.477414v 0.771512h 0.477414v -0.771512h
 0.477414v 1.92878h 0.477414v -1.54302h 0.954828v 2.70029h 0.477414v -2.70029h 0.477414v 2.31454h 0.477414v -0.385756h 0.477414v 1.54302h 0.954828v -0.771512h 0.954828v 0.771512h 0.954828v -0.385756h 0.477414v 0.385756h 0.477414v -0.385756h 0.477414v
 0.385756h 0.954828v -0.385756h 0.477414v -0.385756h 0.477414v 0.771512h 0.477414v -0.385756h 0.477414v 0.385756h 0.477414v -0.771512h 0.477414v 0.771512h 0.954828v -0.771512h 0.477414v -0.385756h 0.954828v 0.771512h 0.477414v -0.771512h 0.477414v
 -0.771512h 0.477414v 1.54302h 0.477414v -3.4718h 0.477414v 2.70029h 0.954828v -1.15727h 0.477414v 0.385756h 0.477414v -1.54302h 0.477414v 2.70029h 0.477414v -3.4718h 0.477414v -3.85756h 0.477414v 3.08605h 0.477414v -3.08605h 0.477414v -1.92878h
 0.954828v -3.08605h 0.477414v 0.385756h 0.477414v 1.54302h 0.477414v 1.54302h 0.477414v -7.71512h 0.477414v -1.15727h 0.477414v 0.771512h 0.477414v 2.70029h 0.477414v -6.94361h 0.477414v 3.08605h 0.477414v 3.85756h 0.477414v -0.385756h 0.477414v
 2.31454h 0.477414v 3.85756h 0.477414v -1.92878h 0.477414v 5.40058h 0.477414v -1.92878h 0.477414v 1.92878h 0.477414v 3.4718h 0.477414v -1.15727h 0.477414v 0.385756h 0.477414v 1.54302h 0.477414v 0.771512h 0.477414v -0.385756h 0.477414v -0.771512h
 0.477414v -0.771512h 0.477414v 0.385756h 0.477414v -0.385756h 0.477414v 0.385756h 0.477414v 0.771512h 0.477414v -0.385756h 0.477414v -1.54302h 0.477414v 2.70029h 0.954828v -2.31454h 0.477414v -1.92878h 0.477414v 1.92878h 0.477414v 0.771512h
 0.477414v -0.771512h 0.477414v -2.70029h 0.477414v 0.385756h 0.477414v 0.385756h 0.477414v -1.54302h 0.477414v -0.385756h 0.477414v -2.31454h 0.477414v 1.92878h 0.477414v -6.55785h 0.477414v 4.62907h 0.477414v -7.32936h 0.477414v 1.54302h 0.477414v
 -11.1869h 0.477414v 8.10088h 0.477414v -7.71512h 0.477414v -4.62907h 0.477414v -6.94361h 0.477414v 9.25814h 0.477414v -12.7299h 0.477414v -4.62907h 0.477414v -3.4718h 0.477414v 1.15727h 0.477414v -3.4718h 0.477414v -9.25814h 0.477414v 15.816h
 0.477414v -9.25814h 0.477414v 0.385756h 0.477414v -3.08605h 0.477414v 18.5163h 0.477414v 3.85756h 0.477414v 3.4718h 0.477414v 2.70029h 0.477414v 7.32936h 0.477414v 1.54302h 0.477414v 1.92878h 0.477414v 4.62907h 0.477414v -0.771512h 0.477414v
 4.24332h 0.477414v 1.54302h 0.477414v -0.771512h 0.477414v 1.54302h 0.477414v 0.385756h 0.477414v -0.771512h 0.477414v 0.385756h 0.477414v 2.70029h 0.477414v -0.771512h 0.477414v 0.771512h 0.477414v 0.771512h 0.477414v 0.771512h 0.477414v -3.4718h
 0.477414v 0.385756h 0.477414v -3.08605h 0.477414v 2.70029h 0.477414v 1.15727h 0.477414v -2.31454h 0.477414v -3.85756h 0.477414v 1.15727h 0.477414v 0.385756h 0.477414v -2.31454h 0.477414v -2.70029h 0.477414v -3.08605h 0.477414v 3.08605h 0.477414v
 -1.15727h 0.477414v -10.8012h 0.477414v -5.40058h 0.477414v 4.62907h 0.477414v -17.359h 0.477414v -7.71512h 0.477414v 3.85756h 0.477414v -9.6439h 0.477414v -21.2166h 0.477414v -9.25814h 0.477414v 9.6439h 0.477414v -7.32936h 0.477414v -30.089h
 0.477414v 6.1721h 0.477414v 2.31454h 0.477414v -5.01483h 0.477414v 3.85756h 0.477414v -13.8872h 0.477414v 10.4154h 0.477414v 7.71512h 0.477414v 9.25814h 0.477414v 12.3442h 0.477414v 0.771512h 0.477414v 10.4154h 0.477414v 11.1869h 0.477414v 12.7299h
 0.477414v 7.32936h 0.477414v 4.24332h 0.477414v 9.6439h 0.477414v -1.92878h 0.477414v 9.6439h 0.477414v 6.94361h 0.477414v -9.6439h 0.477414v 5.78634h 0.477414v 5.01483h 0.477414v 1.54302h 0.477414v -4.24332h 0.477414v 5.01483h 0.477414v -3.85756h
 0.477414v 4.62907h 0.477414v -0.385756h 0.477414v -3.85756h 0.477414v 3.08605h 0.477414v -1.92878h 0.477414v -4.24332h 0.477414v 5.78634h 0.477414v -5.01483h 0.477414v -0.385756h 0.477414v -0.771512h 0.477414v -0.771512h 0.477414v -3.08605h
 0.477414v -6.55785h 0.477414v 5.01483h 0.477414v -2.31454h 0.477414v -13.8872h 0.954828v -8.87239h 0.477414v -1.92878h 0.477414v -10.0297h 0.477414v -14.6587h 0.477414v -15.4302h 0.477414v -6.94361h 0.477414v -14.6587h 0.477414v -10.4154h 0.477414v
 -22.3738h 0.477414v -5.78634h 0.477414v -14.273h 0.477414v -8.48663h 0.477414v -35.1038h 0.477414v 19.2878h 0.477414v -13.1157h 0.477414v 6.94361h 0.477414v -0.385756h 0.477414v 21.9881h 0.477414v -1.92878h 0.477414v 31.2462h 0.477414v 3.85756h
 0.477414v 13.5015h 0.477414v 21.9881h 0.477414v 4.62907h 0.477414v 19.6736h 0.477414v 26.2314h 0.477414v 1.92878h 0.477414v 9.25814h 0.477414v -1.92878h 0.477414v 9.25814h 0.477414v 7.71512h 0.477414v -6.55785h 0.477414v 10.0297h 0.477414v -1.54302h
 0.477414v 7.71512h 0.477414v -0.771512h 0.477414v -2.31454h 0.477414v 6.1721h 0.477414v 1.15727h 0.477414v -0.771512h 0.477414v -0.385756h 0.477414v -1.92878h 0.477414v -0.771512h 0.477414v 1.92878h 0.477414v -4.62907h 0.477414v -2.70029h 0.477414v
 -4.24332h 0.477414v -1.92878h 0.477414v 3.4718h 0.477414v -1.15727h 0.477414v -8.87239h 0.477414v -4.62907h 0.477414v -8.87239h 0.477414v -7.71512h 0.477414v -3.08605h 0.477414v -5.78634h 0.477414v -21.9881h 0.477414v -6.55785h 0.477414v -18.1305h
 0.477414v -12.3442h 0.477414v -28.9317h 0.477414v 0.771512h 0.477414v -25.8457h 0.477414v -16.5875h 0.477414v -32.7893h 0.477414v -13.5015h 0.477414v -8.87239h 0.477414v 18.902h 0.477414v -1.15727h 0.477414v -27.3887h 0.477414v 19.6736h 0.477414v
 13.1157h 0.477414v 1.15727h 0.477414v 16.9733h 0.477414v 10.8012h 0.477414v 40.8901h 0.477414v 2.70029h 0.477414v 25.4599h 0.477414v 9.6439h 0.477414v 37.4183h 0.477414v -8.10088h 0.477414v 20.4451h 0.477414v 13.8872h 0.477414v 5.40058h 0.477414v
 6.1721h 0.477414v 6.1721h 0.477414v 2.70029h 0.477414v 10.4154h 0.477414v 3.85756h 0.477414v -4.62907h 0.477414v 3.08605h 0.477414v 4.62907h 0.477414v -4.24332h 0.477414v 6.1721h 0.477414v -2.70029h 0.477414v 1.54302h 0.477414v -6.94361h 0.477414v
 2.70029h 0.477414v -0.771512h 0.477414v -1.15727h 0.477414v -4.62907h 0.954828v -2.31454h 0.477414v -3.08605h 0.477414v -8.87239h 0.477414v 4.24332h 0.477414v -14.6587h 0.477414v 4.24332h 0.477414v -20.0593h 0.477414v -17.359h 0.477414v -10.0297h
 0.477414v 2.31454h 0.477414v -21.2166h 0.477414v -36.6468h 0.477414v -16.5875h 0.477414v 7.71512h 0.477414v -30.089h 0.477414v -4.24332h 0.477414v -39.7329h 0.477414v 9.6439h 0.477414v -55.9346h 0.477414v -14.273h 0.477414v 23.9169h 0.477414v
 5.40058h 0.477414v 13.1157h 0.477414v -9.25814h 0.477414v 17.7448h 0.477414v 16.9733h 0.477414v 12.3442h 0.477414v 19.6736h 0.477414v 20.8308h 0.477414v 30.8605h 0.477414v 0.771512h 0.477414v 30.089h 0.477414v 17.359h 0.477414v 12.3442h 0.477414v
 15.4302h 0.477414v 4.62907h 0.477414v 10.0297h 0.477414v 11.9584h 0.477414v 5.78634h 0.477414v 3.4718h 0.477414v 1.54302h 0.477414v 2.70029h 0.477414v 0.771512h 0.477414v 1.92878h 0.477414v -3.08605h 0.477414v 5.40058h 0.477414v 0.771512h 0.477414v
 -2.31454h 0.477414v -0.385756h 0.477414v 6.55785h 0.477414v -1.92878h 0.477414v -8.10088h 0.477414v 2.70029h 0.477414v -3.85756h 0.477414v -5.78634h 0.477414v -7.32936h 0.477414v -1.15727h 0.477414v 2.70029h 0.477414v -4.24332h 0.477414v -18.1305h
 0.477414v -6.94361h 0.954828v -25.8457h 0.477414v 14.6587h 0.477414v -39.3471h 0.477414v 3.08605h 0.477414v -40.1186h 0.477414v 8.48663h 0.477414v -18.5163h 0.477414v -35.1038h 0.477414v -17.7448h 0.477414v -23.1454h 0.477414v 16.5875h 0.477414v
 -18.5163h 0.477414v -22.3738h 0.477414v 5.01483h 0.477414v -1.54302h 0.477414v 16.5875h 0.477414v -0.385756h 0.477414v 12.7299h 0.477414v 25.0741h 0.477414v 16.9733h 0.477414v 29.3175h 0.477414v 10.8012h 0.477414v 6.94361h 0.477414v 42.4332h
 0.477414v 4.62907h 0.477414v 11.1869h 0.477414v 9.25814h 0.477414v 21.2166h 0.477414v -6.55785h 0.477414v 23.9169h 0.954828v 0.385756h 0.477414v 11.9584h 0.954828v 5.01483h 0.477414v -2.31454h 0.477414v 1.54302h 0.477414v 0.771512h 0.477414v
 5.01483h 0.477414v -3.85756h 0.954828v 2.31454h 0.477414v -1.54302h 0.477414v 1.92878h 0.477414v -3.4718h 0.477414v -5.78634h 0.477414v 5.78634h 0.477414v -7.32936h 0.477414v -5.40058h 0.477414v -2.31454h 0.477414v -5.40058h 0.477414v -0.385756h
 0.477414v -7.71512h 0.477414v -12.3442h 0.477414v -14.273h 0.477414v -9.25814h 0.477414v -14.273h 0.477414v -7.71512h 0.477414v -20.4451h 0.477414v -5.01483h 0.477414v -18.902h 0.477414v -8.87239h 0.477414v -27.3887h 0.477414v 17.7448h 0.477414v
 -27.3887h 0.477414v 6.1721h 0.477414v -27.3887h 0.477414v 14.273h 0.477414v -28.5459h 0.477414v 35.4896h 0.477414v -4.24332h 0.477414v 22.7596h 0.477414v -0.771512h 0.477414v 15.816h 0.477414v 21.2166h 0.477414v 28.5459h 0.477414v -5.78634h
 0.477414v 17.359h 0.477414v 23.1454h 0.477414v 5.78634h 0.477414v 11.9584h 0.477414v 3.85756h 0.477414v 8.87239h 0.477414v 12.3442h 0.477414v 1.92878h 0.477414v 5.40058h 0.477414v 3.85756h 0.477414v -2.70029h 0.477414v 9.6439h 0.477414v 2.31454h
 0.477414v 1.92878h 0.477414v -5.78634h 0.477414v 3.4718h 0.477414v 1.54302h 0.477414v 1.92878h 0.477414v -4.62907h 0.477414v -1.92878h 0.477414v 0.771512h 0.477414v 3.08605h 0.477414v -1.15727h 0.477414v -0.385756h 0.477414v -6.1721h 0.477414v
 -1.92878h 0.477414v -4.62907h 0.477414v -6.55785h 0.477414v -1.15727h 0.477414v 1.54302h 0.477414v -3.85756h 0.477414v -16.2018h 0.477414v -2.70029h 0.477414v -13.1157h 0.477414v -10.4154h 0.477414v -5.78634h 0.477414v -5.78634h 0.477414v -20.0593h
 0.477414v 1.15727h 0.477414v -30.4747h 0.477414v -0.771512h 0.477414v -2.31454h 0.477414v -5.01483h 0.477414v -5.40058h 0.477414v 3.85756h 0.477414v 6.55785h 0.477414v -0.771512h 0.477414v -3.4718h 0.477414v 10.8012h 0.477414v 8.10088h 0.477414v
 30.089h 0.477414v -2.70029h 0.477414v 11.1869h 0.477414v 6.94361h 0.477414v 4.62907h 0.477414v 24.3026h 0.477414v -1.54302h 0.477414v 15.4302h 0.477414v -6.1721h 0.477414v 15.4302h 0.477414v 2.70029h 0.477414v 9.6439h 0.477414v -3.08605h 0.477414v
 3.08605h 0.477414v 7.32936h 0.477414v -2.31454h 0.477414v 2.70029h 0.477414v -0.771512h 0.477414v 2.70029h 0.477414v -1.92878h 0.477414v 5.01483h 0.477414v -6.94361h 0.477414v 3.4718h 0.477414v 4.24332h 0.477414v -5.40058h 0.477414v 0.771512h
 0.477414v 3.08605h 0.477414v -0.385756h 0.477414v -7.71512h 0.477414v -4.62907h 0.477414v 2.70029h 0.477414v -2.70029h 0.477414v -4.62907h 0.477414v -8.48663h 0.477414v 1.92878h 0.477414v 5.40058h 0.477414v -10.0297h 0.477414v -10.0297h 0.477414v
 -0.771512h 0.477414v -15.816h 0.477414v -5.78634h 0.477414v 1.15727h 0.477414v -10.0297h 0.477414v -1.92878h 0.477414v -7.71512h 0.477414v -18.5163h 0.477414v 6.1721h 0.477414v -10.0297h 0.477414v 18.902h 0.477414v -10.4154h 0.477414v 5.01483h
 0.477414v 0.771512h 0.477414v 11.1869h 0.477414v 12.3442h 0.477414v -10.4154h 0.477414v 21.9881h 0.477414v -1.54302h 0.477414v 3.08605h 0.477414v 5.40058h 0.477414v 13.1157h 0.477414v 3.85756h 0.477414v 4.24332h 0.477414v 9.6439h 0.477414v -7.71512h
 0.477414v 8.10088h 0.477414v 5.40058h 0.477414v -1.15727h 0.477414v 2.70029h 0.477414v 3.4718h 0.477414v 1.15727h 0.477414v -0.385756h 0.477414v 2.70029h 0.477414v 2.31454h 0.477414v 1.15727h 0.954828v 0.771512h 0.477414v -2.31454h 0.477414v
 3.08605h 0.477414v -2.70029h 0.477414v 1.15727h 0.477414v -0.771512h 0.477414v -6.1721h 0.477414v 5.01483h 0.477414v -5.40058h 0.954828v -2.70029h 0.477414v 3.08605h 0.477414v -6.55785h 0.954828v -4.62907h 0.477414v -3.08605h 0.477414v -0.771512h
 0.477414v -7.71512h 0.477414v -3.08605h 0.477414v 3.85756h 0.477414v -13.5015h 0.477414v 1.54302h 0.477414v -4.24332h 0.477414v -13.5015h 0.477414v 4.62907h 0.477414v 0.385756h 0.477414v -6.94361h 0.477414v 10.8012h 0.954828v 11.5727h 0.477414v
 -12.7299h 0.477414v 2.31454h 0.477414v 3.85756h 0.477414v 1.92878h 0.477414v 9.25814h 0.477414v 4.62907h 0.477414v -1.54302h 0.477414v 11.1869h 0.477414v 6.1721h 0.954828v -1.15727h 0.477414v 4.62907h 0.477414v 3.85756h 0.477414v -1.54302h 0.477414v
 3.08605h 0.954828v 5.01483h 0.477414v -0.385756h 0.477414v -2.31454h 0.477414v 1.92878h 0.954828v 3.4718h 0.477414v -2.31454h 0.954828v -0.385756h 0.477414v -1.54302h 0.477414v 1.92878h 0.477414v 0.771512h 0.477414v 1.92878h 0.477414v -3.85756h
 0.477414v -0.385756h 0.477414v 5.40058h 0.477414v -5.78634h 0.477414v 0.385756h 0.477414v -1.92878h 0.477414v -0.385756h 0.477414v -3.08605h 0.477414v 0.385756h 0.477414v -1.54302h 0.477414v -1.15727h 0.477414v -3.08605h 0.477414v -5.40058h
 0.477414v 1.54302h 0.477414v 0.385756h 0.477414v -0.771512h 0.477414v -4.62907h 0.477414v 0.771512h 0.477414v -2.31454h 0.477414v -3.85756h 0.477414v -3.4718h 0.477414v 5.40058h 0.477414v -0.385756h 0.477414v 3.08605h 0.477414v -3.85756h 0.477414v
 -2.70029h 0.477414v 7.71512h 0.954828v 1.54302h 0.954828v 4.24332h 0.477414v 5.01483h 0.477414v 2.70029h 0.477414v 1.54302h 0.477414v 1.54302h 0.477414v -3.4718h 0.477414v -0.385756h 0.477414v 6.55785h 0.477414v 1.15727h 0.477414v -0.385756h
 0.477414v 3.4718h 0.477414v -0.385756h 0.477414v -0.771512h 0.477414v 1.92878h 0.477414v 0.771512h 0.477414v -1.54302h 0.477414v 0.771512h 0.477414v 0.771512h 0.477414v -1.54302h 0.477414v 1.92878h 0.477414v -1.54302h 0.954828v 0.385756h 0.477414v
 0.771512h 0.477414v -0.771512h 0.477414v -1.54302h 0.477414v 0.771512h 0.477414v -0.771512h 0.477414v -1.92878h 0.477414v 1.15727h 0.477414v 0.385756h 0.477414v -1.54302h 0.477414v -2.31454h 0.954828v -3.4718h 0.477414v 4.24332h 0.477414v -3.08605h
 0.477414v -2.70029h 0.477414v 2.31454h 0.477414v -3.4718h 0.477414v 2.31454h 0.477414v -7.32936h 0.477414v 8.87239h 0.477414v -7.71512h 0.477414v -0.385756h 0.477414v -1.15727h 0.477414v 1.54302h 0.477414v 1.54302h 0.477414v 2.70029h 0.477414v
 0.385756h 0.477414v -1.54302h 0.477414v 2.70029h 0.477414v 3.08605h 0.477414v -1.15727h 0.477414v -0.385756h 0.477414v 2.70029h 0.477414v 1.54302h 0.477414v -0.385756h 0.477414v -0.385756h 0.477414v 2.31454h 0.477414v 1.54302h 0.477414v 0.385756h
 0.477414v 1.15727h 0.477414v -1.15727h 0.477414v 0.385756h 0.477414v 1.54302h 0.477414v -0.771512h 0.954828v 1.54302h 0.477414v 0.771512h 0.477414v -2.70029h 0.477414v 0.385756h 0.477414v 1.54302h 0.477414v -3.08605h 0.477414v 2.70029h 0.477414v
 -0.771512h 0.477414v 0.385756h 0.477414v -1.15727h 0.477414v 2.31454h 0.477414v -1.54302h 0.477414v -0.385756h 0.477414v -1.15727h 0.477414v 0.771512h 0.477414v -0.385756h 0.477414v -0.385756h 0.477414v 0.771512h 0.477414v -2.31454h 0.477414v
 2.31454h 0.477414v -0.771512h 0.477414v -0.385756h 0.477414v 1.15727h 0.477414v -1.15727h 0.477414v -3.4718h 0.477414v 0.771512h 0.477414v -0.771512h 0.477414v -0.385756h 0.477414v 3.4718h 0.477414v -4.24332h 0.477414v 2.70029h 0.477414v -0.771512h
 0.477414v -2.70029h 0.477414v 1.54302h 0.954828v -0.385756h 0.477414v 4.62907h 0.477414v -2.70029h 0.477414v 2.70029h 0.477414v -1.92878h 0.477414v 1.15727h 0.954828v 2.31454h 0.477414v -1.15727h 0.477414v 0.385756h 0.477414v -0.771512h 0.477414v
 1.54302h 0.954828v 0.385756h 0.477414v 1.15727h 0.477414v -0.771512h 0.477414v 0.771512h 0.477414v -2.31454h 0.477414v 1.54302h 0.477414v -0.385756h 0.954828v 1.54302h 0.477414v -1.15727h 0.477414v 1.15727h 0.477414v -1.92878h 0.477414v 0.771512h
 0.477414v 0.385756h 0.477414v -0.385756h 0.477414v 0.771512h 0.477414v 0.385756h 0.477414v -0.771512h 0.477414v -0.385756h 0.477414v 0.385756h 0.477414v -0.771512h 0.477414v -0.771512h 0.477414v 1.54302h 0.954828v -2.70029h 0.477414v -1.92878h
 0.477414v 3.4718h 0.477414v 0.385756h 0.477414v -2.31454h 0.477414v 0.385756h 0.477414v 0.771512h 0.477414v -1.54302h 0.477414v 3.08605h 0.477414v -1.92878h 0.477414v 0.385756h 0.477414v -0.771512h 0.477414v 0.385756h 0.477414v -0.771512h 0.477414v
 0.385756h 0.477414v 1.15727h 0.477414v -0.771512h 0.477414v 0.385756h 0.477414v 1.15727h 0.477414v -0.385756h 0.477414v -1.15727h 0.477414v 0.385756h 0.954828v -0.385756h 0.477414v 1.54302h 0.954828v 1.54302h 0.477414v -0.771512h 0.477414v 0.385756h
 0.477414v -1.15727h 0.477414v 1.54302h 0.477414v -0.771512h 0.954828v 0.385756h 0.477414v -0.771512h 0.477414v 1.15727h 0.477414v -0.385756h 0.477414v -0.385756h 0.477414v 0.385756h 0.477414v -0.385756h 0.477414v 0.771512h 0.954828v -0.385756h
 0.477414v 0.385756h 0.477414v -0.385756h 0.477414v 0.385756h 0.477414v -0.771512h 0.477414v 0.385756h 0.477414v 0.385756h 0.477414v -0.385756h 0.477414v 0.385756h 0.477414v -0.385756h 0.477414v -0.385756h 0.477414v 0.385756h 0.477414v -1.15727h
 0.477414v 0.385756h 0.477414v 0.385756h 0.954828v 0.385756h 0.477414v 0.385756h 0.477414v -0.771512h 0.477414v -1.15727h 0.477414v -0.385756h 0.477414v 0.385756h 0.477414v 1.15727h 0.954828v -0.771512h 0.954828v 0.771512h 0.477414v 0.385756h
 0.477414v -0.385756h 0.477414v -0.771512h 0.477414v 0.385756h 0.477414v 1.15727h 0.477414v -1.54302h 0.477414v 0.385756h 0.477414v 0.771512h 0.477414v -0.385756h 1.43224v 0.385756h 0.477414v 0.385756h 1.43224v -0.385756h 0.477414v 0.385756h
 0.954828v -0.385756h 0.954828v 0.385756h 2.38707v -0.385756h 0.954828v 0.385756h 0.477414v -0.385756h 1.43224v 0.385756h 0.477414v -1.15727h 0.477414v 0.385756h 0.954828v 0.385756h 0.477414v 0.385756h 0.477414v -0.385756h 0.477414v 0.385756h
 1.43224v -0.385756h 1.43224v -1.15727h 0.477414v 1.15727h 0.477414" fill="none" stroke="#000099"/>
<rect x="442.705" y="25.0773" width="113.386" height="61.7287" fill="white"/>
<path d="M442.705,86.8059h 113.386" fill="none" stroke="black"/>
<path d="M556.091,86.8059v -61.7287" fill="none" stroke="black"/>
<path d="M556.091,25.0773h -113.386" fill="none" stroke="black"/>
<path d="M442.705,25.0773v 61.7287" fill="none" stroke="black"/>
<text xml:space="preserve" x="454.531" y="37.3621" fill="black" font-size="13.5253" font-family="Helvetica">ADC_HIGH_26</text>
<path d="M442.705,40.5094h 113.386" fill="none" stroke="black"/>
<text xml:space="preserve" x="448.033" y="52.7943" fill="black" font-size="12.7086" font-family="Helvetica">Entries </text>
<text xml:space="preserve" x="508.137" y="52.7943" fill="black" font-size="12.7086" font-family="Helvetica"> 100001</text>
<text xml:space="preserve" x="448.033" y="68.2264" fill="black" font-size="12.7086" font-family="Helvetica">Mean  </text>
<text xml:space="preserve" x="513.01" y="68.2264" fill="black" font-size="12.7086" font-family="Helvetica">   1200</text>
<text xml:space="preserve" x="448.033" y="83.6586" fill="black" font-size="12.7086" font-family="Helvetica">Std Dev   </text>
<text xml:space="preserve" x="513.01" y="83.6586" fill="black" font-size="12.7086" font-family="Helvetica">  140.4</text>
<path d="M57.1929,347.224h 453.543" fill="none" stroke="black"/>
<path d="M57.1929,337.964v 9.2593" fill="none" stroke="black"/>
<path d="M66.7412,342.594v 4.62965" fill="none" stroke="black"/>
<path d="M76.2895,342.594v 4.62965" fill="none" stroke="black"/>
<path d="M85.8378,342.594v 4.62965" fill="none" stroke="black"/>
<path d="M95.386,342.594v 4.62965" fill="none" stroke="black"/>
<path d="M104.934,337.964v 9.2593" fill="none" stroke="black"/>
<path d="M114.483,342.594v 4.62965" fill="none" stroke="black"/>
<path d="M124.031,342.594v 4.62965" fill="none" stroke="black"/>
<path d="M133.579,342.594v 4.62965" fill="none" stroke="black"/>
<path d="M143.127,342.594v 4.62965" fill="none" stroke="black"/>
<path d="M152.676,337.964v 9.2593" fill="none" stroke="black"/>
<path d="M162.224,342.594v 4.62965" fill="none" stroke="black"/>
<path d="M171.772,342.594v 4.62965" fill="none" stroke="black"/>
<path d="M181.321,342.594v 4.62965" fill="none" stroke="black"/>
<path d="M190.869,342.594v 4.62965" fill="none" stroke="black"/>
<path d="M200.417,337.964v 9.2593" fill="none" stroke="black"/>
<path d="M209.965,342.594v 4.62965" fill="none" stroke="black"/>
<path d="M219.514,342.594v 4.62965" fill="none" stroke="black"/>
<path d="M229.062,342.594v 4.62965" fill="none" stroke="black"/>
<path d="M238.61,342.594v 4.62965" fill="none" stroke="black"/>
<path d="M248.159,337.964v 9.2593" fill="none" stroke="black"/>
<path d="M257.707,342.594v 4.62965" fill="none" stroke="black"/>
<path d="M267.255,342.594v 4.62965" fill="none" stroke="black"/>
<path d="M276.803,342.594v 4.62965" fill="none" stroke="black"/>
<path d="M286.352,342.594v 4.62965" fill="none" stroke="black"/>
<path d="M295.9,337.964v 9.2593" fill="none" stroke="black"/>
<path d="M305.448,342.594v 4.62965" fill="none" stroke="black"/>
<path d="M314.996,342.594v 4.62965" fill="none" stroke="black"/>
<path d="M324.545,342.594v 4.62965" fill="none" stroke="black"/>
<path d="M334.093,342.594v 4.62965" fill="none" stroke="black"/>
<path d="M343.641,337.964v 9.2593" fill="none" stroke="black"/>
<path d="M353.19,342.594v 4.62965" fill="none" stroke="black"/>
<path d="M362.738,342.594v 4.62965" fill="none" stroke="black"/>
<path d="M372.286,342.594v 4.62965" fill="none" stroke="black"/>
<path d="M381.834,342.594v 4.62965" fill="none" stroke="black"/>
<path d="M391.383,337.964v 9.2593" fill="none" stroke="black"/>
<path d="M400.931,342.594v 4.62965" fill="none" stroke="black"/>
<path d="M410.479,342.594v 4.62965" fill="none" stroke="black"/>
<path d="M420.028,342.594v 4.62965" fill="none" stroke="black"/>
<path d="M429.576,342.594v 4.62965" fill="none" stroke="black"/>
<path d="M439.124,337.964v 9.2593" fill="none" stroke="black"/>
<path d="M448.672,342.594v 4.62965" fill="none" stroke="black"/>
<path d="M458.221,342.594v 4.62965" fill="none" stroke="black"/>
<path d="M467.769,342.594v 4.62965" fill="none" stroke="black"/>
<path d="M477.317,342.594v 4.62965" fill="none" stroke="black"/>
<path d="M486.866,337.964v 9.2593" fill="none" stroke="black"/>
<path d="M486.866,337.964v 9.2593" fill="none" stroke="black"/>
<path d="M496.414,342.594v 4.62965" fill="none" stroke="black"/>
<path d="M505.962,342.594v 4.62965" fill="none" stroke="black"/>
<text xml:space="preserve" x="45.1721" y="359.813" fill="black" font-size="12.8882" font-family="Helvetica">800</text>
<text xml:space="preserve" x="93.093" y="359.813" fill="black" font-size="12.8882" font-family="Helvetica">900</text>
<text xml:space="preserve" x="137.765" y="359.813" fill="black" font-size="12.8882" font-family="Helvetica">1000</text>
<text xml:space="preserve" x="185.686" y="359.813" fill="black" font-size="12.8882" font-family="Helvetica">1100</text>
<text xml:space="preserve" x="232.795" y="359.813" fill="black" font-size="12.8882" font-family="Helvetica">1200</text>
<text xml:space="preserve" x="280.716" y="359.813" fill="black" font-size="12.8882" font-family="Helvetica">1300</text>
<text xml:space="preserve" x="328.637" y="359.813" fill="black" font-size="12.8882" font-family="Helvetica">1400</text>
<text xml:space="preserve" x="376.558" y="359.813" fill="black" font-size="12.8882" font-family="Helvetica">1500</text>
<text xml:space="preserve" x="424.479" y="359.813" fill="black" font-size="12.8882" font-family="Helvetica">1600</text>
<text xml:space="preserve" x="471.587" y="359.813" fill="black" font-size="12.8882" font-family="Helvetica">1700</text>
<path d="M57.1929,347.224v -308.643" fill="none" stroke="black"/>
<path d="M70.7992,347.224h -13.6063" fill="none" stroke="black"/>
<path d="M63.9961,339.509h -6.80315" fill="none" stroke="black"/>
<path d="M63.9961,331.794h -6.80315" fill="none" stroke="black"/>
<path d="M63.9961,324.078h -6.80315" fill="none" stroke="black"/>
<path d="M63.9961,316.363h -6.80315" fill="none" stroke="black"/>
<path d="M70.7992,308.648h -13.6063" fill="none" stroke="black"/>
<path d="M63.9961,300.933h -6.80315" fill="none" stroke="black"/>
<path d="M63.9961,293.218h -6.80315" fill="none" stroke="black"/>
<path d="M63.9961,285.503h -6.80315" fill="none" stroke="black"/>
<path d="M63.9961,277.788h -6.80315" fill="none" stroke="black"/>
<path d="M70.7992,270.073h -13.6063" fill="none" stroke="black"/>
<path d="M63.9961,262.357h -6.80315" fill="none" stroke="black"/>
<path d="M63.9961,254.642h -6.80315" fill="none" stroke="black"/>
<path d="M63.9961,246.927h -6.80315" fill="none" stroke="black"/>
<path d="M63.9961,239.212h -6.80315" fill="none" stroke="black"/>
<path d="M70.7992,231.497h -13.6063" fill="none" stroke="black"/>
<path d="M63.9961,223.782h -6.80315" fill="none" stroke="black"/>
<path d="M63.9961,216.067h -6.80315" fill="none" stroke="black"/>
<path d="M63.9961,208.352h -6.80315" fill="none" stroke="black"/>
<path d="M63.9961,200.637h -6.80315" fill="none" stroke="black"/>
<path d="M70.7992,192.921h -13.6063" fill="none" stroke="black"/>
<path d="M63.9961,185.206h -6.80315" fill="none" stroke="black"/>
<path d="M63.9961,177.491h -6.80315" fill="none" stroke="black"/>
<path d="M63.9961,169.776h -6.80315" fill="none" stroke="black"/>
<path d="M63.9961,162.061h -6.80315" fill="none" stroke="black"/>
<path d="M70.7992,154.346h -13.6063" fill="none" stroke="black"/>
<path d="M63.9961,146.631h -6.80315" fill="none" stroke="black"/>
<path d="M63.9961,138.916h -6.80315" fill="none" stroke="black"/>
<path d="M63.9961,131.2h -6.80315" fill="none" stroke="black"/>
<path d="M63.9961,123.485h -6.80315" fill="none" stroke="black"/>
<path d="M70.7992,115.77h -13.6063" fill="none" stroke="black"/>
<path d="M63.9961,108.055h -6.80315" fill="none" stroke="black"/>
<path d="M63.9961,100.34h -6.80315" fill="none" stroke="black"/>
<path d="M63.9961,92.6248h -6.80315" fill="none" stroke="black"/>
<path d="M63.9961,84.9097h -6.80315" fill="none" stroke="black"/>
<path d="M70.7992,77.1946h -13.6063" fill="none" stroke="black"/>
<path d="M63.9961,69.4795h -6.80315" fill="none" stroke="black"/>
<path d="M63.9961,61.7644h -6.80315" fill="none" stroke="black"/>
<path d="M63.9961,54.0492h -6.80315" fill="none" stroke="black"/>
<path d="M63.9961,46.3341h -6.80315" fill="none" stroke="black"/>
<path d="M70.7992,38.619h -13.6063" fill="none" stroke="black"/>
<path d="M70.7992,38.619h -13.6063" fill="none" stroke="black"/>
<text xml:space="preserve" x="46.7965" y="351.691" fill="black" font-size="12.8882" font-family="Helvetica">0</text>
<text xml:space="preserve" x="32.1766" y="313.517" fill="black" font-size="12.8882" font-family="Helvetica">100</text>
<text xml:space="preserve" x="32.1766" y="274.53" fill="black" font-size="12.8882" font-family="Helvetica">200</text>
<text xml:space="preserve" x="32.1766" y="236.356" fill="black" font-size="12.8882" font-family="Helvetica">300</text>
<text xml:space="preserve" x="32.1766" y="197.369" fill="black" font-size="12.8882" font-family="Helvetica">400</text>
<text xml:space="preserve" x="32.1766" y="159.195" fill="black" font-size="12.8882" font-family="Helvetica">500</text>
<text xml:space="preserve" x="32.1766" y="120.208" fill="black" font-size="12.8882" font-family="Helvetica">600</text>
<text xml:space="preserve" x="32.1766" y="82.0342" fill="black" font-size="12.8882" font-family="Helvetica">700</text>
<text xml:space="preserve" x="32.1766" y="43.0476" fill="black" font-size="12.8882" font-family="Helvetica">800</text>
<rect x="442.705" y="25.0773" width="113.386" height="61.7287" fill="white"/>
<path d="M442.705,86.8059h 113.386" fill="none" stroke="black"/>
<path d="M556.091,86.8059v -61.7287" fill="none" stroke="black"/>
<path d="M556.091,25.0773h -113.386" fill="none" stroke="black"/>
<path d="M442.705,25.0773v 61.7287" fill="none" stroke="black"/>
<text xml:space="preserve" x="454.531" y="37.3621" fill="black" font-size="13.5253" font-family="Helvetica">ADC_HIGH_26</text>
<path d="M442.705,40.5094h 113.386" fill="none" stroke="black"/>
<text xml:space="preserve" x="448.033" y="52.7943" fill="black" font-size="12.7086" font-family="Helvetica">Entries </text>
<text xml:space="preserve" x="508.137" y="52.7943" fill="black" font-size="12.7086" font-family="Helvetica"> 100001</text>
<text xml:space="preserve" x="448.033" y="68.2264" fill="black" font-size="12.7086" font-family="Helvetica">Mean  </text>
<text xml:space="preserve" x="513.01" y="68.2264" fill="black" font-size="12.7086" font-family="Helvetica">   1200</text>
<text xml:space="preserve" x="448.033" y="83.6586" fill="black" font-size="12.7086" font-family="Helvetica">Std Dev   </text>
<text xml:space="preserve" x="513.01" y="83.6586" fill="black" font-size="12.7086" font-family="Helvetica">  140.4</text>
<text xml:space="preserve" x="224.673" y="18.681" fill="black" font-size="17.0471" font-family="Helvetica">led3019.root 26</text></svg>
