<?xml version="1.0" standalone="no"?>
<svg width="567.429" height="386.304" viewBox="0 0 567.429 386.304" xmlns="http://www.w3.org/2000/svg" shape-rendering="crispEdges">
<title>
img/week1/led3019.rootCH29.svg
</title>
<desc>
Creator: ROOT Version 6.22/08
CreationDate: Sat Jun 12 13:58:38 2021</desc>
<defs>
</defs>
<rect x="0.5" y="0" width="566.929" height="385.804" fill="white"/>
<rect x="57.1929" y="38.5804" width="453.543" height="308.643" fill="white"/>
<rect x="57.1929" y="38.5804" width="453.543" height="308.643" fill="none" stroke="black"/>
<rect x="57.1929" y="38.5804" width="453.543" height="308.643" fill="white"/>
<rect x="57.1929" y="38.5804" width="453.543" height="308.643" fill="none" stroke="black"/>
<path d="M57.1929,347.224h 10.9805v -0.824533h 0.477414v 0.824533h 0.477414v -0.412267h 0.477414v 0.412267h 0.954828v -0.412267h 0.477414v 0.412267h 0.477414v -1.2368h 0.477414v 0.824533h 0.477414v -1.64907h 0.477414v 1.2368h 0.477414v -1.2368h
 0.954828v 1.64907h 0.477414v -0.824533h 0.477414v -0.824533h 0.477414v 1.2368h 0.477414v -0.412267h 0.477414v -0.412267h 0.954828v 0.412267h 0.477414v -1.2368h 0.477414v 1.2368h 0.477414v 0.412267h 0.477414v 0.412267h 0.954828v -0.824533h 0.477414v
 1.2368h 2.38707v -0.824533h 0.477414v 0.412267h 0.477414v -0.412267h 0.477414v 0.824533h 0.477414v -0.412267h 0.954828v -0.412267h 1.43224v 0.824533h 0.477414v -0.412267h 0.477414v 0.412267h 0.477414v -0.824533h 0.477414v 0.412267h 0.477414v
 0.412267h 0.477414v -0.412267h 0.477414v -0.824533h 0.477414v -1.2368h 0.477414v 1.64907h 0.954828v -2.4736h 0.477414v -0.412267h 0.477414v 0.824533h 0.477414v 0.824533h 0.477414v -2.06133h 0.477414v 0.412267h 0.477414v 0.824533h 0.477414v -2.4736h
 0.477414v 0.412267h 0.954828v -2.06133h 0.477414v -2.4736h 0.477414v 0.824533h 0.954828v -3.7104h 0.477414v -1.64907h 0.477414v 1.64907h 0.477414v 0.824533h 0.477414v 2.88587h 0.477414v -0.412267h 0.477414v 3.29813h 0.477414v -6.59627h 0.477414v
 6.59627h 0.477414v -0.824533h 0.477414v 3.29813h 0.477414v -2.06133h 0.477414v 3.29813h 0.477414v -0.824533h 0.477414v -1.2368h 0.477414v 2.4736h 0.477414v -0.412267h 0.954828v 1.2368h 0.954828v -2.06133h 0.477414v 0.824533h 0.477414v 0.412267h
 0.954828v -1.2368h 0.477414v 1.2368h 0.477414v -2.06133h 0.477414v 2.06133h 0.477414v -2.06133h 0.477414v 1.64907h 0.477414v 0.824533h 0.477414v -1.2368h 0.477414v 0.412267h 0.477414v -0.824533h 0.477414v -2.4736h 0.477414v 1.2368h 0.477414v
 2.06133h 0.477414v -2.06133h 0.477414v -2.88587h 0.477414v -1.2368h 0.477414v 1.64907h 0.477414v 0.412267h 0.477414v -2.06133h 0.477414v -6.59627h 0.477414v 1.2368h 0.954828v -4.12267h 0.477414v -0.412267h 0.477414v -13.6048h 0.477414v 3.7104h
 0.477414v -1.64907h 0.477414v -5.77173h 0.477414v -1.2368h 0.477414v -2.06133h 0.477414v -14.8416h 0.477414v 17.7275h 0.477414v -0.824533h 0.954828v -3.29813h 0.477414v 2.4736h 0.477414v 8.6576h 0.477414v 3.29813h 0.477414v 3.29813h 0.477414v
 2.4736h 0.477414v 4.53493h 0.477414v 5.35947h 0.477414v -2.06133h 0.477414v 2.4736h 0.954828v 2.88587h 0.477414v -1.64907h 0.477414v 1.2368h 0.477414v 0.824533h 0.477414v 2.4736h 0.477414v -0.824533h 0.477414v -2.06133h 0.477414v 2.88587h 0.477414v
 0.824533h 0.477414v -4.53493h 0.477414v 2.88587h 0.477414v 1.2368h 0.477414v 0.824533h 0.477414v -6.59627h 0.477414v -0.412267h 0.477414v 3.29813h 0.477414v -2.4736h 0.477414v 0.412267h 0.954828v -1.2368h 0.477414v 2.06133h 0.477414v -6.184h
 0.954828v -3.29813h 0.477414v -2.88587h 0.477414v -4.53493h 0.477414v 0.824533h 0.477414v -8.6576h 0.477414v -7.00853h 0.477414v -1.2368h 0.477414v -2.88587h 0.477414v -11.9557h 0.477414v -13.6048h 0.477414v -2.88587h 0.477414v -3.29813h 0.477414v
 7.00853h 0.477414v -26.3851h 0.477414v 12.7803h 0.477414v -10.3067h 0.477414v 8.24533h 0.954828v 9.06986h 0.477414v 0.412267h 0.477414v 1.2368h 0.477414v 11.5435h 0.477414v 0.412267h 0.477414v 5.77173h 0.477414v 8.24533h 0.477414v 6.184h 0.477414v
 9.8944h 0.477414v 4.9472h 0.477414v 1.64907h 0.477414v 7.00853h 0.477414v 1.64907h 0.477414v -0.824533h 0.477414v 1.2368h 0.954828v 5.77173h 0.954828v -0.824533h 0.477414v 0.412267h 0.477414v 1.64907h 0.477414v -0.824533h 0.477414v -3.29813h
 0.477414v -3.29813h 0.477414v 8.6576h 0.477414v -2.06133h 0.477414v -2.06133h 0.477414v -4.12267h 0.477414v 3.7104h 0.477414v -5.77173h 0.477414v -1.2368h 0.477414v 0.412267h 0.477414v -3.29813h 0.477414v -5.35947h 0.477414v 0.824533h 0.477414v
 -12.7803h 0.477414v 2.06133h 0.477414v -4.12267h 0.477414v -8.24533h 0.477414v -19.7888h 0.477414v -6.59627h 0.477414v -23.9115h 0.477414v 18.1397h 0.477414v -28.8587h 0.477414v -5.77173h 0.477414v -21.8501h 0.477414v 7.4208h 0.477414v -7.4208h
 0.477414v -10.7189h 0.477414v -23.4992h 0.477414v 2.06133h 0.477414v 24.3237h 0.477414v 10.7189h 0.477414v -39.1653h 0.477414v 31.7445h 0.477414v 10.3067h 0.477414v 15.6661h 0.477414v 22.2624h 0.477414v -3.7104h 0.477414v 10.3067h 0.477414v 11.5435h
 0.477414v 20.2011h 0.477414v 0.412267h 0.477414v 20.6133h 0.954828v 4.53493h 0.477414v 4.9472h 0.477414v 8.24533h 0.477414v -5.77173h 0.477414v 2.06133h 0.477414v 4.9472h 0.477414v 1.2368h 0.477414v 0.824533h 0.477414v -5.35947h 0.477414v 4.12267h
 0.477414v -2.4736h 0.477414v 1.64907h 0.477414v -0.412267h 0.477414v -1.64907h 0.477414v -1.2368h 0.477414v -5.35947h 0.477414v -0.824533h 0.477414v -5.35947h 0.477414v 2.06133h 0.477414v -4.9472h 0.477414v -1.2368h 0.477414v -11.1312h 0.477414v
 1.64907h 0.477414v -4.12267h 0.477414v -12.368h 0.477414v -16.0784h 0.477414v 1.2368h 0.477414v -17.7275h 0.477414v -20.6133h 0.477414v 3.7104h 0.477414v -33.3936h 0.477414v -13.6048h 0.477414v -7.00853h 0.477414v -29.6832h 0.477414v 4.12267h
 0.477414v -12.368h 0.477414v -15.6661h 0.477414v 10.3067h 0.477414v -36.6917h 0.477414v 21.4379h 0.477414v 1.64907h 0.477414v 14.4293h 0.477414v 9.06986h 0.477414v 25.9728h 0.477414v -2.88587h 0.477414v 22.6747h 0.477414v 28.8587h 0.477414v 22.6747h
 0.477414v 17.3152h 0.477414v -0.412267h 0.477414v 18.552h 0.477414v 3.7104h 0.477414v 3.29813h 0.477414v 19.3765h 0.477414v 3.7104h 0.477414v 2.88587h 0.477414v 1.2368h 0.477414v 5.35947h 0.477414v 5.35947h 0.477414v -4.53493h 0.477414v 5.77173h
 0.477414v -3.7104h 0.477414v -11.1312h 0.477414v 11.9557h 0.477414v -1.2368h 0.477414v -0.412267h 0.477414v -6.184h 0.477414v 5.77173h 0.477414v -9.8944h 0.477414v 1.64907h 0.477414v -1.2368h 0.477414v -8.6576h 0.477414v -3.7104h 0.477414v 0.824533h
 0.477414v -15.6661h 0.477414v -2.88587h 0.477414v -8.24533h 0.477414v -7.4208h 0.477414v -15.2539h 0.477414v -5.77173h 0.477414v -15.2539h 0.477414v -14.8416h 0.477414v -30.92h 0.477414v 1.64907h 0.477414v -45.3493h 0.477414v 0.824533h 0.477414v
 -22.6747h 0.477414v 2.88587h 0.477414v -36.2795h 0.477414v 16.0784h 0.477414v -11.1312h 0.477414v -14.4293h 0.477414v -3.7104h 0.477414v 18.1397h 0.477414v -0.412267h 0.477414v 44.5248h 0.477414v 10.3067h 0.477414v 28.0341h 0.477414v 1.64907h
 0.477414v 30.5077h 0.477414v -6.184h 0.477414v 37.9285h 0.477414v 2.06133h 0.477414v 30.92h 0.477414v 8.24533h 0.477414v 10.3067h 0.477414v 12.368h 0.477414v 0.824533h 0.477414v 2.88587h 0.477414v 0.412267h 0.477414v 4.53493h 0.477414v 0.412267h
 0.477414v 13.6048h 0.477414v -11.1312h 0.477414v 12.7803h 0.477414v -5.77173h 0.477414v -5.35947h 0.477414v 5.77173h 0.477414v 1.64907h 0.477414v -3.29813h 0.477414v 2.88587h 0.477414v -8.6576h 0.477414v -0.824533h 0.477414v -4.9472h 0.477414v
 -1.64907h 0.477414v -6.59627h 0.477414v -2.06133h 0.477414v -1.64907h 0.477414v -21.4379h 0.477414v 1.64907h 0.477414v -20.6133h 0.477414v 2.88587h 0.477414v -32.9813h 0.477414v -8.24533h 0.477414v -18.552h 0.477414v -6.59627h 0.477414v -48.2352h
 0.477414v 2.88587h 0.477414v -17.7275h 0.477414v 2.4736h 0.477414v -32.1568h 0.477414v 7.4208h 0.477414v -42.0512h 0.477414v 35.0427h 0.477414v -46.9984h 0.477414v 49.472h 0.477414v -1.64907h 0.477414v -0.412267h 0.477414v 13.1925h 0.477414v
 30.5077h 0.477414v 0.824533h 0.477414v 40.8144h 0.477414v 4.9472h 0.477414v 19.3765h 0.477414v 26.3851h 0.477414v 18.9643h 0.477414v 11.1312h 0.477414v 11.9557h 0.477414v -2.06133h 0.477414v 23.0869h 0.477414v -3.29813h 0.477414v 10.7189h 0.477414v
 3.29813h 0.477414v 3.29813h 0.477414v -1.2368h 0.477414v 5.77173h 0.477414v 4.12267h 0.954828v -1.64907h 0.477414v 3.29813h 0.477414v -5.35947h 0.477414v 3.7104h 0.477414v -10.7189h 0.477414v -0.412267h 0.477414v 4.53493h 0.477414v -0.412267h
 0.477414v -2.06133h 0.477414v -3.7104h 0.477414v -12.7803h 0.477414v -4.12267h 0.477414v -10.3067h 0.477414v -7.83307h 0.477414v -11.9557h 0.477414v -11.9557h 0.477414v -16.0784h 0.477414v -19.7888h 0.477414v 16.0784h 0.477414v -22.6747h 0.477414v
 -18.1397h 0.477414v -12.7803h 0.477414v -35.4549h 0.477414v 4.53493h 0.477414v -11.9557h 0.477414v -7.83307h 0.477414v -9.06986h 0.477414v -7.00853h 0.477414v -5.77173h 0.477414v 18.552h 0.477414v -6.184h 0.477414v 9.8944h 0.477414v -11.1312h
 0.477414v 46.1739h 0.477414v 2.88587h 0.477414v 15.2539h 0.477414v 17.7275h 0.477414v 10.7189h 0.477414v 23.4992h 0.477414v 22.2624h 0.477414v 9.06986h 0.477414v 17.7275h 0.477414v 7.83307h 0.477414v 6.59627h 0.477414v -3.29813h 0.477414v 8.6576h
 0.477414v 13.1925h 0.477414v -2.88587h 0.477414v 2.4736h 0.477414v 8.6576h 0.477414v -5.77173h 0.477414v 7.00853h 0.477414v 2.06133h 0.477414v -1.64907h 0.477414v 0.412267h 0.477414v -7.83307h 0.477414v 1.2368h 0.477414v 6.59627h 0.477414v
 -0.412267h 0.477414v 2.4736h 0.477414v -11.9557h 0.477414v -2.06133h 0.477414v -2.88587h 0.477414v -12.7803h 0.477414v 2.4736h 0.477414v 2.88587h 0.477414v -19.3765h 0.477414v -7.4208h 0.477414v -3.7104h 0.477414v -1.2368h 0.477414v -18.9643h
 0.477414v -16.9029h 0.477414v -22.2624h 0.477414v -16.4907h 0.477414v 15.2539h 0.477414v -0.412267h 0.477414v -48.6475h 0.477414v 10.3067h 0.477414v -16.0784h 0.477414v 6.59627h 0.477414v -0.412267h 0.477414v 4.12267h 0.477414v -15.6661h 0.477414v
 30.5077h 0.477414v -14.0171h 0.477414v 18.552h 0.477414v 25.9728h 0.477414v 3.7104h 0.477414v -0.824533h 0.477414v 32.5691h 0.477414v 4.12267h 0.477414v 12.7803h 0.477414v 1.64907h 0.477414v 22.2624h 0.954828v 14.0171h 0.477414v 4.12267h 0.477414v
 10.7189h 0.477414v -3.7104h 0.477414v 2.4736h 0.477414v -1.2368h 0.477414v 9.06986h 0.477414v 1.2368h 0.477414v 5.35947h 0.477414v -4.12267h 0.477414v -2.06133h 0.477414v 3.7104h 0.954828v 0.824533h 0.954828v -1.64907h 0.477414v -0.412267h 0.477414v
 -14.8416h 0.477414v 12.368h 0.477414v -3.29813h 0.477414v -1.2368h 0.477414v -7.83307h 0.477414v -11.5435h 0.477414v -0.412267h 0.477414v 1.64907h 0.477414v -14.8416h 0.477414v -2.06133h 0.477414v -19.3765h 0.477414v 9.8944h 0.477414v -33.8059h
 0.477414v 4.12267h 0.477414v -5.77173h 0.477414v 2.4736h 0.477414v -31.3323h 0.477414v 2.88587h 0.477414v 4.9472h 0.477414v -7.83307h 0.477414v -5.77173h 0.477414v 15.2539h 0.477414v -4.53493h 0.477414v 9.48213h 0.477414v 2.88587h 0.477414v
 -0.412267h 0.477414v 32.5691h 0.477414v -20.2011h 0.477414v 23.4992h 0.477414v 4.12267h 0.477414v 13.6048h 0.477414v 15.2539h 0.477414v -9.06986h 0.477414v 4.53493h 0.477414v 17.7275h 0.477414v 0.412267h 0.477414v 6.184h 0.477414v 1.2368h 0.477414v
 2.4736h 0.477414v 7.00853h 0.477414v -1.64907h 0.477414v 8.6576h 0.477414v 1.2368h 0.477414v -10.7189h 0.477414v 9.48213h 0.477414v 1.2368h 0.477414v -6.59627h 0.477414v 4.9472h 0.477414v -2.06133h 0.477414v 0.824533h 0.477414v -0.824533h 0.477414v
 -1.2368h 0.477414v 2.88587h 0.477414v -5.77173h 0.477414v -4.53493h 0.477414v 2.06133h 0.477414v -7.83307h 0.477414v -0.412267h 0.477414v -2.88587h 0.477414v -0.824533h 0.477414v -2.88587h 0.477414v -2.88587h 0.477414v -11.1312h 0.477414v 4.9472h
 0.477414v -7.00853h 0.477414v -3.7104h 0.477414v -10.3067h 0.477414v -2.4736h 0.477414v -15.2539h 0.477414v 3.29813h 0.477414v -16.9029h 0.477414v 16.9029h 0.477414v -13.1925h 0.477414v 14.0171h 0.477414v 7.00853h 0.477414v -4.12267h 0.477414v
 -16.9029h 0.477414v 10.3067h 0.477414v 16.9029h 0.477414v 4.12267h 0.477414v -6.184h 0.477414v 18.9643h 0.477414v 2.88587h 0.477414v 6.184h 0.477414v 0.412267h 0.477414v 10.3067h 0.477414v 4.9472h 0.477414v 0.412267h 0.477414v 0.412267h 0.477414v
 7.83307h 0.477414v -1.2368h 0.477414v 4.53493h 0.477414v 3.29813h 0.477414v -6.184h 0.477414v 5.77173h 0.477414v 1.64907h 0.477414v 0.412267h 0.954828v -1.64907h 0.477414v 1.64907h 0.477414v 3.7104h 0.477414v -3.29813h 0.477414v -2.4736h 0.477414v
 3.7104h 0.477414v -4.12267h 0.477414v 1.64907h 0.477414v -2.4736h 0.477414v 1.64907h 0.477414v -2.06133h 0.477414v -4.53493h 0.477414v -4.12267h 0.477414v 4.53493h 0.477414v -16.9029h 0.477414v 7.4208h 0.477414v 3.29813h 0.477414v -7.00853h
 0.477414v -14.0171h 0.477414v 3.7104h 0.477414v 1.2368h 0.477414v -9.06986h 0.477414v -10.3067h 0.477414v 15.6661h 0.477414v -10.7189h 0.477414v 3.29813h 0.477414v 1.2368h 0.477414v -8.24533h 0.477414v 1.2368h 0.477414v 7.83307h 0.477414v 2.06133h
 0.477414v 1.2368h 0.477414v 1.64907h 0.477414v 4.12267h 0.477414v 5.35947h 0.477414v 6.184h 0.477414v -3.7104h 0.477414v 12.7803h 0.477414v -4.53493h 0.477414v 3.7104h 0.477414v 9.8944h 0.477414v -2.06133h 0.477414v 1.2368h 0.477414v -1.2368h
 0.477414v 3.29813h 0.954828v 2.4736h 0.477414v -1.64907h 0.477414v 0.412267h 0.477414v 0.824533h 0.477414v 2.06133h 0.477414v -4.9472h 0.477414v 0.824533h 0.477414v 4.53493h 0.477414v -0.824533h 0.477414v -1.64907h 0.477414v 1.64907h 0.477414v
 -2.4736h 0.477414v 0.412267h 0.477414v -0.824533h 0.477414v 1.2368h 0.477414v -1.64907h 0.477414v -2.88587h 0.477414v 0.412267h 0.477414v -0.412267h 0.477414v -2.88587h 0.477414v -1.64907h 0.477414v -3.29813h 0.477414v 2.06133h 0.477414v 2.06133h
 0.477414v -6.59627h 0.954828v 0.412267h 0.477414v -2.06133h 0.477414v -9.8944h 0.477414v 7.83307h 0.477414v -1.64907h 0.477414v 1.2368h 0.477414v -4.9472h 0.477414v -1.2368h 0.477414v 3.29813h 0.477414v 3.7104h 0.477414v -4.12267h 0.477414v 3.7104h
 0.477414v 7.4208h 0.477414v -5.77173h 0.477414v 6.184h 0.477414v -2.4736h 0.477414v 4.9472h 0.477414v -1.64907h 0.477414v 2.06133h 0.477414v 1.2368h 0.477414v 6.184h 0.477414v -2.06133h 0.477414v 3.29813h 0.477414v 1.64907h 0.477414v -1.64907h
 0.477414v 0.824533h 0.477414v 0.412267h 0.477414v -0.412267h 0.477414v 1.64907h 0.477414v -0.412267h 0.477414v -0.824533h 0.477414v -1.2368h 0.477414v 3.29813h 0.477414v -0.824533h 0.477414v -0.824533h 0.477414v 2.4736h 0.477414v -2.06133h 0.477414v
 -1.2368h 0.477414v 2.4736h 0.477414v -2.4736h 0.477414v 1.2368h 0.477414v -3.7104h 0.477414v -0.412267h 0.477414v 2.4736h 0.477414v 2.06133h 0.477414v -3.29813h 0.477414v -1.64907h 0.477414v 3.7104h 0.477414v -5.35947h 0.477414v 2.88587h 0.477414v
 -4.53493h 0.477414v -0.412267h 0.477414v -2.88587h 0.477414v 2.4736h 0.477414v -4.9472h 0.477414v 0.412267h 0.477414v 1.64907h 0.477414v 2.88587h 0.477414v 0.412267h 0.477414v -3.29813h 0.477414v 2.88587h 0.477414v 1.64907h 0.477414v -2.88587h
 0.477414v 2.4736h 0.954828v 2.06133h 0.477414v -2.88587h 0.477414v 2.4736h 0.477414v 2.88587h 0.477414v 0.824533h 0.477414v -0.824533h 0.477414v -1.2368h 0.477414v 4.12267h 0.477414v -2.06133h 0.477414v 3.29813h 0.477414v -0.824533h 0.477414v
 0.412267h 0.477414v 2.06133h 0.954828v -2.06133h 0.477414v 1.2368h 0.477414v -1.2368h 0.477414v -2.4736h 0.477414v 4.12267h 0.477414v -0.824533h 0.477414v -1.2368h 0.477414v -1.64907h 0.477414v 1.64907h 0.477414v 1.2368h 0.954828v 0.824533h
 0.477414v -1.64907h 0.477414v -0.412267h 0.477414v 0.824533h 0.477414v -0.412267h 0.954828v -1.2368h 0.477414v 0.412267h 0.477414v -1.64907h 0.477414v 1.64907h 0.477414v -2.06133h 0.477414v 3.29813h 0.477414v -4.9472h 0.477414v -1.2368h 0.477414v
 2.4736h 0.477414v -0.412267h 0.477414v -2.06133h 0.477414v 2.06133h 0.477414v -0.824533h 0.477414v -2.06133h 0.477414v -1.64907h 0.477414v 5.35947h 0.477414v -2.06133h 0.477414v 0.824533h 0.477414v 3.29813h 0.477414v -2.88587h 0.477414v 1.64907h
 0.477414v 1.64907h 0.477414v -2.4736h 0.477414v 2.06133h 0.954828v 0.412267h 0.477414v 0.824533h 0.477414v -1.64907h 0.477414v 2.4736h 0.477414v -0.824533h 0.477414v 1.2368h 0.477414v -0.412267h 0.954828v -0.824533h 0.477414v 0.824533h 0.477414v
 -2.06133h 0.477414v 2.4736h 0.477414v 0.824533h 0.477414v -1.2368h 0.477414v 0.824533h 0.477414v -0.412267h 0.477414v -0.412267h 0.477414v 0.412267h 0.477414v -0.412267h 0.477414v -0.412267h 0.477414v 1.2368h 0.477414v -0.824533h 0.477414v 0.412267h
 0.477414v -0.412267h 0.954828v 0.412267h 0.477414v -2.06133h 0.477414v 0.824533h 0.954828v -0.824533h 0.954828v 0.824533h 0.477414v -0.412267h 0.477414v 1.2368h 0.954828v -1.64907h 0.477414v -2.4736h 0.477414v 1.64907h 1.43224v 2.06133h 0.477414v
 -2.4736h 1.43224v 0.824533h 0.954828v 1.64907h 0.477414v -1.64907h 0.477414v 1.2368h 0.477414v -1.64907h 0.477414v 2.06133h 0.477414v 1.2368h 0.477414v -0.412267h 0.477414v -2.06133h 0.477414v 0.824533h 0.477414v 1.2368h 0.477414v 0.412267h
 0.477414v -0.824533h 0.477414v 0.412267h 0.477414v 0.824533h 0.477414v -1.2368h 0.477414v 1.2368h 0.477414v -0.824533h 0.477414v 0.824533h 0.477414v -0.412267h 0.477414v 0.412267h 0.954828v -0.824533h 0.477414v 0.824533h 0.477414v -0.412267h
 0.477414v 0.412267h 0.477414v -0.412267h 1.43224v -0.412267h 0.477414v 0.412267h 1.43224v -1.2368h 0.477414v 0.412267h 0.477414v -1.2368h 0.477414v 1.64907h 0.477414v 0.412267h 1.90966v -1.2368h 0.954828v 0.824533h 0.477414v -0.412267h 0.477414v
 0.412267h 0.477414v -0.412267h 0.477414v 1.2368h 0.477414v -1.64907h 0.477414v 1.2368h 0.477414v -0.824533h 0.477414v 0.824533h 0.477414v -0.412267h 0.477414v -0.412267h 0.477414v -0.412267h 0.477414v 1.2368h 0.477414v -0.412267h 0.477414v 0.824533h
 0.477414v -0.412267h 0.477414v 0.412267h 0.954828v -0.824533h 0.477414v 0.412267h 0.477414v -0.412267h 1.43224v 0.412267h 0.477414v 0.412267h 1.43224" fill="none" stroke="#000099"/>
<rect x="442.705" y="25.0773" width="113.386" height="61.7287" fill="white"/>
<path d="M442.705,86.8059h 113.386" fill="none" stroke="black"/>
<path d="M556.091,86.8059v -61.7287" fill="none" stroke="black"/>
<path d="M556.091,25.0773h -113.386" fill="none" stroke="black"/>
<path d="M442.705,25.0773v 61.7287" fill="none" stroke="black"/>
<text xml:space="preserve" x="454.531" y="37.3621" fill="black" font-size="13.5253" font-family="Helvetica">ADC_HIGH_29</text>
<path d="M442.705,40.5094h 113.386" fill="none" stroke="black"/>
<text xml:space="preserve" x="448.033" y="52.7943" fill="black" font-size="12.7086" font-family="Helvetica">Entries </text>
<text xml:space="preserve" x="508.137" y="52.7943" fill="black" font-size="12.7086" font-family="Helvetica"> 100001</text>
<text xml:space="preserve" x="448.033" y="68.2264" fill="black" font-size="12.7086" font-family="Helvetica">Mean  </text>
<text xml:space="preserve" x="513.01" y="68.2264" fill="black" font-size="12.7086" font-family="Helvetica">   1220</text>
<text xml:space="preserve" x="448.033" y="83.6586" fill="black" font-size="12.7086" font-family="Helvetica">Std Dev   </text>
<text xml:space="preserve" x="513.01" y="83.6586" fill="black" font-size="12.7086" font-family="Helvetica">  141.3</text>
<path d="M57.1929,347.224h 453.543" fill="none" stroke="black"/>
<path d="M57.1929,337.964v 9.2593" fill="none" stroke="black"/>
<path d="M66.7412,342.594v 4.62965" fill="none" stroke="black"/>
<path d="M76.2895,342.594v 4.62965" fill="none" stroke="black"/>
<path d="M85.8378,342.594v 4.62965" fill="none" stroke="black"/>
<path d="M95.386,342.594v 4.62965" fill="none" stroke="black"/>
<path d="M104.934,337.964v 9.2593" fill="none" stroke="black"/>
<path d="M114.483,342.594v 4.62965" fill="none" stroke="black"/>
<path d="M124.031,342.594v 4.62965" fill="none" stroke="black"/>
<path d="M133.579,342.594v 4.62965" fill="none" stroke="black"/>
<path d="M143.127,342.594v 4.62965" fill="none" stroke="black"/>
<path d="M152.676,337.964v 9.2593" fill="none" stroke="black"/>
<path d="M162.224,342.594v 4.62965" fill="none" stroke="black"/>
<path d="M171.772,342.594v 4.62965" fill="none" stroke="black"/>
<path d="M181.321,342.594v 4.62965" fill="none" stroke="black"/>
<path d="M190.869,342.594v 4.62965" fill="none" stroke="black"/>
<path d="M200.417,337.964v 9.2593" fill="none" stroke="black"/>
<path d="M209.965,342.594v 4.62965" fill="none" stroke="black"/>
<path d="M219.514,342.594v 4.62965" fill="none" stroke="black"/>
<path d="M229.062,342.594v 4.62965" fill="none" stroke="black"/>
<path d="M238.61,342.594v 4.62965" fill="none" stroke="black"/>
<path d="M248.159,337.964v 9.2593" fill="none" stroke="black"/>
<path d="M257.707,342.594v 4.62965" fill="none" stroke="black"/>
<path d="M267.255,342.594v 4.62965" fill="none" stroke="black"/>
<path d="M276.803,342.594v 4.62965" fill="none" stroke="black"/>
<path d="M286.352,342.594v 4.62965" fill="none" stroke="black"/>
<path d="M295.9,337.964v 9.2593" fill="none" stroke="black"/>
<path d="M305.448,342.594v 4.62965" fill="none" stroke="black"/>
<path d="M314.996,342.594v 4.62965" fill="none" stroke="black"/>
<path d="M324.545,342.594v 4.62965" fill="none" stroke="black"/>
<path d="M334.093,342.594v 4.62965" fill="none" stroke="black"/>
<path d="M343.641,337.964v 9.2593" fill="none" stroke="black"/>
<path d="M353.19,342.594v 4.62965" fill="none" stroke="black"/>
<path d="M362.738,342.594v 4.62965" fill="none" stroke="black"/>
<path d="M372.286,342.594v 4.62965" fill="none" stroke="black"/>
<path d="M381.834,342.594v 4.62965" fill="none" stroke="black"/>
<path d="M391.383,337.964v 9.2593" fill="none" stroke="black"/>
<path d="M400.931,342.594v 4.62965" fill="none" stroke="black"/>
<path d="M410.479,342.594v 4.62965" fill="none" stroke="black"/>
<path d="M420.028,342.594v 4.62965" fill="none" stroke="black"/>
<path d="M429.576,342.594v 4.62965" fill="none" stroke="black"/>
<path d="M439.124,337.964v 9.2593" fill="none" stroke="black"/>
<path d="M448.672,342.594v 4.62965" fill="none" stroke="black"/>
<path d="M458.221,342.594v 4.62965" fill="none" stroke="black"/>
<path d="M467.769,342.594v 4.62965" fill="none" stroke="black"/>
<path d="M477.317,342.594v 4.62965" fill="none" stroke="black"/>
<path d="M486.866,337.964v 9.2593" fill="none" stroke="black"/>
<path d="M486.866,337.964v 9.2593" fill="none" stroke="black"/>
<path d="M496.414,342.594v 4.62965" fill="none" stroke="black"/>
<path d="M505.962,342.594v 4.62965" fill="none" stroke="black"/>
<text xml:space="preserve" x="45.1721" y="359.813" fill="black" font-size="12.8882" font-family="Helvetica">800</text>
<text xml:space="preserve" x="93.093" y="359.813" fill="black" font-size="12.8882" font-family="Helvetica">900</text>
<text xml:space="preserve" x="137.765" y="359.813" fill="black" font-size="12.8882" font-family="Helvetica">1000</text>
<text xml:space="preserve" x="185.686" y="359.813" fill="black" font-size="12.8882" font-family="Helvetica">1100</text>
<text xml:space="preserve" x="232.795" y="359.813" fill="black" font-size="12.8882" font-family="Helvetica">1200</text>
<text xml:space="preserve" x="280.716" y="359.813" fill="black" font-size="12.8882" font-family="Helvetica">1300</text>
<text xml:space="preserve" x="328.637" y="359.813" fill="black" font-size="12.8882" font-family="Helvetica">1400</text>
<text xml:space="preserve" x="376.558" y="359.813" fill="black" font-size="12.8882" font-family="Helvetica">1500</text>
<text xml:space="preserve" x="424.479" y="359.813" fill="black" font-size="12.8882" font-family="Helvetica">1600</text>
<text xml:space="preserve" x="471.587" y="359.813" fill="black" font-size="12.8882" font-family="Helvetica">1700</text>
<path d="M57.1929,347.224v -308.643" fill="none" stroke="black"/>
<path d="M70.7992,347.224h -13.6063" fill="none" stroke="black"/>
<path d="M63.9961,338.978h -6.80315" fill="none" stroke="black"/>
<path d="M63.9961,330.733h -6.80315" fill="none" stroke="black"/>
<path d="M63.9961,322.488h -6.80315" fill="none" stroke="black"/>
<path d="M63.9961,314.242h -6.80315" fill="none" stroke="black"/>
<path d="M70.7992,305.997h -13.6063" fill="none" stroke="black"/>
<path d="M63.9961,297.752h -6.80315" fill="none" stroke="black"/>
<path d="M63.9961,289.506h -6.80315" fill="none" stroke="black"/>
<path d="M63.9961,281.261h -6.80315" fill="none" stroke="black"/>
<path d="M63.9961,273.016h -6.80315" fill="none" stroke="black"/>
<path d="M70.7992,264.77h -13.6063" fill="none" stroke="black"/>
<path d="M63.9961,256.525h -6.80315" fill="none" stroke="black"/>
<path d="M63.9961,248.28h -6.80315" fill="none" stroke="black"/>
<path d="M63.9961,240.034h -6.80315" fill="none" stroke="black"/>
<path d="M63.9961,231.789h -6.80315" fill="none" stroke="black"/>
<path d="M70.7992,223.544h -13.6063" fill="none" stroke="black"/>
<path d="M63.9961,215.298h -6.80315" fill="none" stroke="black"/>
<path d="M63.9961,207.053h -6.80315" fill="none" stroke="black"/>
<path d="M63.9961,198.808h -6.80315" fill="none" stroke="black"/>
<path d="M63.9961,190.562h -6.80315" fill="none" stroke="black"/>
<path d="M70.7992,182.317h -13.6063" fill="none" stroke="black"/>
<path d="M63.9961,174.072h -6.80315" fill="none" stroke="black"/>
<path d="M63.9961,165.827h -6.80315" fill="none" stroke="black"/>
<path d="M63.9961,157.581h -6.80315" fill="none" stroke="black"/>
<path d="M63.9961,149.336h -6.80315" fill="none" stroke="black"/>
<path d="M70.7992,141.09h -13.6063" fill="none" stroke="black"/>
<path d="M63.9961,132.845h -6.80315" fill="none" stroke="black"/>
<path d="M63.9961,124.6h -6.80315" fill="none" stroke="black"/>
<path d="M63.9961,116.355h -6.80315" fill="none" stroke="black"/>
<path d="M63.9961,108.109h -6.80315" fill="none" stroke="black"/>
<path d="M70.7992,99.8638h -13.6063" fill="none" stroke="black"/>
<path d="M63.9961,91.6185h -6.80315" fill="none" stroke="black"/>
<path d="M63.9961,83.3732h -6.80315" fill="none" stroke="black"/>
<path d="M63.9961,75.1279h -6.80315" fill="none" stroke="black"/>
<path d="M63.9961,66.8825h -6.80315" fill="none" stroke="black"/>
<path d="M70.7992,58.6372h -13.6063" fill="none" stroke="black"/>
<path d="M70.7992,58.6372h -13.6063" fill="none" stroke="black"/>
<path d="M63.9961,50.3919h -6.80315" fill="none" stroke="black"/>
<path d="M63.9961,42.1465h -6.80315" fill="none" stroke="black"/>
<text xml:space="preserve" x="46.7965" y="351.691" fill="black" font-size="12.8882" font-family="Helvetica">0</text>
<text xml:space="preserve" x="32.1766" y="310.268" fill="black" font-size="12.8882" font-family="Helvetica">100</text>
<text xml:space="preserve" x="32.1766" y="268.845" fill="black" font-size="12.8882" font-family="Helvetica">200</text>
<text xml:space="preserve" x="32.1766" y="228.234" fill="black" font-size="12.8882" font-family="Helvetica">300</text>
<text xml:space="preserve" x="32.1766" y="186.81" fill="black" font-size="12.8882" font-family="Helvetica">400</text>
<text xml:space="preserve" x="32.1766" y="145.387" fill="black" font-size="12.8882" font-family="Helvetica">500</text>
<text xml:space="preserve" x="32.1766" y="103.964" fill="black" font-size="12.8882" font-family="Helvetica">600</text>
<text xml:space="preserve" x="32.1766" y="63.3531" fill="black" font-size="12.8882" font-family="Helvetica">700</text>
<rect x="442.705" y="25.0773" width="113.386" height="61.7287" fill="white"/>
<path d="M442.705,86.8059h 113.386" fill="none" stroke="black"/>
<path d="M556.091,86.8059v -61.7287" fill="none" stroke="black"/>
<path d="M556.091,25.0773h -113.386" fill="none" stroke="black"/>
<path d="M442.705,25.0773v 61.7287" fill="none" stroke="black"/>
<text xml:space="preserve" x="454.531" y="37.3621" fill="black" font-size="13.5253" font-family="Helvetica">ADC_HIGH_29</text>
<path d="M442.705,40.5094h 113.386" fill="none" stroke="black"/>
<text xml:space="preserve" x="448.033" y="52.7943" fill="black" font-size="12.7086" font-family="Helvetica">Entries </text>
<text xml:space="preserve" x="508.137" y="52.7943" fill="black" font-size="12.7086" font-family="Helvetica"> 100001</text>
<text xml:space="preserve" x="448.033" y="68.2264" fill="black" font-size="12.7086" font-family="Helvetica">Mean  </text>
<text xml:space="preserve" x="513.01" y="68.2264" fill="black" font-size="12.7086" font-family="Helvetica">   1220</text>
<text xml:space="preserve" x="448.033" y="83.6586" fill="black" font-size="12.7086" font-family="Helvetica">Std Dev   </text>
<text xml:space="preserve" x="513.01" y="83.6586" fill="black" font-size="12.7086" font-family="Helvetica">  141.3</text>
<text xml:space="preserve" x="224.673" y="18.681" fill="black" font-size="17.0471" font-family="Helvetica">led3019.root 29</text></svg>
