<?xml version="1.0" standalone="no"?>
<svg width="567.429" height="386.304" viewBox="0 0 567.429 386.304" xmlns="http://www.w3.org/2000/svg" shape-rendering="crispEdges">
<title>
img/week1/led3007.rootCH29.svg
</title>
<desc>
Creator: ROOT Version 6.22/08
CreationDate: Fri Jun 11 11:49:59 2021</desc>
<defs>
</defs>
<rect x="0.5" y="0" width="566.929" height="385.804" fill="white"/>
<rect x="57.1929" y="38.5804" width="453.543" height="308.643" fill="white"/>
<rect x="57.1929" y="38.5804" width="453.543" height="308.643" fill="none" stroke="black"/>
<rect x="57.1929" y="38.5804" width="453.543" height="308.643" fill="white"/>
<rect x="57.1929" y="38.5804" width="453.543" height="308.643" fill="none" stroke="black"/>
<path d="M57.1929,347.224h 2.51969v -6.53213h 1.00787v 6.53213h 3.52756v -6.53213h 0.503937v 6.53213h 2.51969v -6.53213h 0.503937v 6.53213h 2.01575v -6.53213h 0.503937v 6.53213h 2.51969v -6.53213h 0.503937v 6.53213h 0.503937v -13.0643h 0.503937v
 13.0643h 0.503937v -19.5964h 0.503937v 19.5964h 1.00787v -6.53213h 1.00787v 6.53213h 2.51969v -6.53213h 1.51181v 6.53213h 1.00787v -6.53213h 1.00787v 6.53213h 1.00787v -6.53213h 0.503937v 6.53213h 1.00787v -13.0643h 0.503937v 6.53213h 0.503937v
 6.53213h 1.51181v -6.53213h 0.503937v 6.53213h 0.503937v -6.53213h 0.503937v -6.53213h 0.503937v 13.0643h 1.00787v -6.53213h 0.503937v -6.53213h 1.00787v 13.0643h 1.00787v -13.0643h 0.503937v 6.53213h 1.00787v 6.53213h 0.503937v -6.53213h 0.503937v
 -6.53213h 0.503937v 13.0643h 0.503937v -6.53213h 1.51181v 6.53213h 1.51181v -6.53213h 1.51181v -6.53213h 0.503937v 13.0643h 0.503937v -6.53213h 1.00787v -13.0643h 0.503937v 6.53213h 0.503937v 13.0643h 1.00787v -19.5964h 0.503937v 13.0643h 0.503937v
 -6.53213h 0.503937v -6.53213h 0.503937v 13.0643h 0.503937v -19.5964h 1.00787v 6.53213h 0.503937v 6.53213h 0.503937v 13.0643h 0.503937v -13.0643h 0.503937v 6.53213h 1.00787v 6.53213h 0.503937v -6.53213h 0.503937v 6.53213h 0.503937v -6.53213h
 0.503937v 6.53213h 0.503937v -13.0643h 0.503937v 6.53213h 1.00787v -6.53213h 0.503937v 6.53213h 1.00787v 6.53213h 0.503937v -19.5964h 0.503937v 13.0643h 0.503937v 6.53213h 0.503937v -13.0643h 0.503937v 6.53213h 0.503937v -6.53213h 0.503937v
 -6.53213h 0.503937v -6.53213h 0.503937v -6.53213h 0.503937v 19.5964h 0.503937v 6.53213h 0.503937v -45.7249h 0.503937v 39.1928h 0.503937v -13.0643h 1.00787v -26.1285h 0.503937v 39.1928h 0.503937v -19.5964h 0.503937v 19.5964h 0.503937v -39.1928h
 0.503937v 19.5964h 0.503937v 19.5964h 1.51181v -13.0643h 0.503937v 19.5964h 0.503937v -6.53213h 0.503937v -6.53213h 0.503937v 6.53213h 0.503937v -13.0643h 0.503937v 13.0643h 0.503937v -19.5964h 1.00787v -19.5964h 0.503937v 32.6607h 1.00787v
 -45.7249h 0.503937v 45.7249h 0.503937v -6.53213h 1.00787v -19.5964h 1.00787v 19.5964h 0.503937v -19.5964h 0.503937v -6.53213h 0.503937v 6.53213h 0.503937v -13.0643h 0.503937v 19.5964h 0.503937v -13.0643h 0.503937v -19.5964h 0.503937v 45.7249h
 0.503937v -19.5964h 0.503937v 6.53213h 0.503937v -6.53213h 0.503937v -6.53213h 0.503937v 45.7249h 0.503937v -6.53213h 1.00787v -13.0643h 0.503937v 19.5964h 0.503937v 6.53213h 0.503937v -13.0643h 0.503937v -26.1285h 0.503937v -6.53213h 0.503937v
 19.5964h 0.503937v -6.53213h 0.503937v 13.0643h 0.503937v -26.1285h 0.503937v -13.0643h 0.503937v 6.53213h 0.503937v 13.0643h 0.503937v -65.3214h 0.503937v 45.7249h 0.503937v -19.5964h 1.00787v 32.6607h 1.00787v -26.1285h 0.503937v -6.53213h
 0.503937v 13.0643h 0.503937v 19.5964h 0.503937v -32.6607h 0.503937v -13.0643h 0.503937v 45.7249h 0.503937v -6.53213h 0.503937v -13.0643h 0.503937v -6.53213h 0.503937v 19.5964h 0.503937v 26.1285h 0.503937v 6.53213h 0.503937v -19.5964h 0.503937v
 -6.53213h 0.503937v 13.0643h 1.51181v -19.5964h 0.503937v 39.1928h 0.503937v -65.3214h 0.503937v 45.7249h 0.503937v -26.1285h 0.503937v 13.0643h 0.503937v 13.0643h 0.503937v -52.2571h 0.503937v 6.53213h 1.51181v -32.6607h 0.503937v 26.1285h
 0.503937v 6.53213h 0.503937v -13.0643h 1.00787v 13.0643h 0.503937v -39.1928h 1.00787v 13.0643h 0.503937v -26.1285h 0.503937v 32.6607h 0.503937v 32.6607h 0.503937v -19.5964h 0.503937v -45.7249h 0.503937v 71.8535h 1.00787v -19.5964h 0.503937v 39.1928h
 0.503937v -6.53213h 0.503937v -13.0643h 0.503937v 32.6607h 0.503937v -13.0643h 0.503937v -6.53213h 0.503937v -39.1928h 0.503937v 32.6607h 0.503937v -32.6607h 0.503937v -13.0643h 0.503937v 58.7892h 0.503937v -39.1928h 0.503937v -45.7249h 0.503937v
 -6.53213h 0.503937v 39.1928h 1.00787v -19.5964h 0.503937v -65.3214h 0.503937v 39.1928h 0.503937v -58.7892h 0.503937v 52.2571h 0.503937v 13.0643h 0.503937v 13.0643h 0.503937v 6.53213h 0.503937v -39.1928h 0.503937v 45.7249h 0.503937v -45.7249h
 0.503937v 65.3214h 0.503937v 13.0643h 0.503937v -39.1928h 0.503937v -13.0643h 0.503937v 65.3214h 0.503937v -6.53213h 0.503937v -32.6607h 0.503937v 32.6607h 1.00787v 6.53213h 0.503937v -13.0643h 0.503937v 19.5964h 0.503937v -39.1928h 0.503937v
 6.53213h 0.503937v -6.53213h 1.00787v -13.0643h 0.503937v 6.53213h 0.503937v -45.7249h 0.503937v 26.1285h 2.01575v -13.0643h 0.503937v -39.1928h 0.503937v 6.53213h 0.503937v -32.6607h 0.503937v 58.7892h 0.503937v 6.53213h 0.503937v 32.6607h
 0.503937v -65.3214h 0.503937v -52.2571h 0.503937v 84.9178h 0.503937v -39.1928h 0.503937v 58.7892h 0.503937v -19.5964h 0.503937v 26.1285h 0.503937v 45.7249h 0.503937v -39.1928h 0.503937v -45.7249h 0.503937v 91.4499h 0.503937v -52.2571h 0.503937v
 13.0643h 0.503937v 6.53213h 0.503937v -6.53213h 0.503937v 19.5964h 0.503937v 19.5964h 0.503937v -32.6607h 0.503937v -13.0643h 0.503937v -78.3856h 0.503937v 52.2571h 0.503937v -6.53213h 0.503937v -13.0643h 0.503937v 6.53213h 0.503937v -19.5964h
 0.503937v 6.53213h 0.503937v -58.7892h 0.503937v 19.5964h 0.503937v 39.1928h 0.503937v -13.0643h 0.503937v -58.7892h 0.503937v 13.0643h 0.503937v 65.3214h 0.503937v -26.1285h 0.503937v -52.2571h 0.503937v 32.6607h 0.503937v -13.0643h 0.503937v
 32.6607h 0.503937v -39.1928h 0.503937v 78.3856h 0.503937v 52.2571h 0.503937v -19.5964h 0.503937v -13.0643h 0.503937v 19.5964h 0.503937v -19.5964h 0.503937v 6.53213h 1.00787v 52.2571h 0.503937v -58.7892h 0.503937v 13.0643h 0.503937v -91.4499h
 0.503937v 39.1928h 0.503937v 19.5964h 0.503937v -52.2571h 0.503937v -45.7249h 0.503937v 45.7249h 0.503937v -13.0643h 0.503937v 26.1285h 0.503937v -52.2571h 0.503937v 52.2571h 0.503937v -39.1928h 0.503937v -32.6607h 0.503937v 19.5964h 0.503937v
 -13.0643h 0.503937v 13.0643h 0.503937v 26.1285h 0.503937v -39.1928h 0.503937v 26.1285h 0.503937v 45.7249h 1.00787v -13.0643h 0.503937v 39.1928h 1.00787v -26.1285h 0.503937v -45.7249h 0.503937v 71.8535h 0.503937v 32.6607h 0.503937v -26.1285h
 0.503937v 13.0643h 0.503937v 26.1285h 0.503937v -58.7892h 0.503937v 39.1928h 0.503937v -26.1285h 0.503937v 58.7892h 0.503937v -91.4499h 0.503937v 19.5964h 0.503937v -26.1285h 0.503937v -13.0643h 0.503937v -32.6607h 0.503937v -6.53213h 0.503937v
 6.53213h 0.503937v 45.7249h 0.503937v -91.4499h 1.00787v 65.3214h 0.503937v -13.0643h 0.503937v -39.1928h 0.503937v 19.5964h 0.503937v 58.7892h 0.503937v 45.7249h 0.503937v -58.7892h 0.503937v -19.5964h 0.503937v 19.5964h 0.503937v 65.3214h
 0.503937v -32.6607h 0.503937v 45.7249h 0.503937v -32.6607h 0.503937v 58.7892h 0.503937v -58.7892h 1.00787v 19.5964h 0.503937v -45.7249h 0.503937v 13.0643h 0.503937v 39.1928h 0.503937v -45.7249h 0.503937v 39.1928h 0.503937v -78.3856h 0.503937v
 58.7892h 0.503937v -52.2571h 0.503937v -45.7249h 0.503937v 91.4499h 0.503937v -58.7892h 0.503937v 6.53213h 0.503937v -45.7249h 0.503937v 111.046h 0.503937v -104.514h 0.503937v -52.2571h 0.503937v 32.6607h 0.503937v 6.53213h 0.503937v -19.5964h
 0.503937v 78.3856h 0.503937v -6.53213h 0.503937v -39.1928h 0.503937v 71.8535h 0.503937v -45.7249h 0.503937v 19.5964h 0.503937v 71.8535h 0.503937v -26.1285h 0.503937v -78.3856h 0.503937v 78.3856h 0.503937v -6.53213h 1.00787v 6.53213h 0.503937v
 84.9178h 0.503937v -65.3214h 0.503937v 52.2571h 0.503937v -58.7892h 0.503937v 78.3856h 0.503937v -84.9178h 0.503937v -13.0643h 0.503937v 13.0643h 0.503937v -13.0643h 0.503937v -52.2571h 0.503937v 58.7892h 0.503937v -45.7249h 0.503937v 45.7249h
 0.503937v -58.7892h 0.503937v 13.0643h 0.503937v -91.4499h 0.503937v 124.111h 0.503937v -58.7892h 0.503937v -52.2571h 0.503937v 91.4499h 0.503937v -58.7892h 0.503937v -26.1285h 0.503937v 65.3214h 0.503937v -26.1285h 0.503937v 71.8535h 0.503937v
 -19.5964h 0.503937v -6.53213h 0.503937v 32.6607h 0.503937v 6.53213h 0.503937v -26.1285h 0.503937v 52.2571h 0.503937v -6.53213h 0.503937v 39.1928h 0.503937v 13.0643h 0.503937v -71.8535h 1.00787v -19.5964h 0.503937v 39.1928h 0.503937v 26.1285h
 0.503937v -6.53213h 0.503937v -78.3856h 0.503937v 32.6607h 0.503937v -78.3856h 0.503937v 97.982h 0.503937v -65.3214h 1.00787v -39.1928h 0.503937v 19.5964h 0.503937v 45.7249h 0.503937v -19.5964h 0.503937v 19.5964h 1.00787v -19.5964h 0.503937v
 -13.0643h 1.00787v 19.5964h 1.00787v 26.1285h 0.503937v 6.53213h 0.503937v -39.1928h 0.503937v 117.578h 0.503937v -91.4499h 0.503937v 32.6607h 0.503937v 19.5964h 0.503937v 6.53213h 0.503937v 39.1928h 0.503937v -32.6607h 0.503937v -19.5964h 1.00787v
 -26.1285h 0.503937v 52.2571h 0.503937v -32.6607h 0.503937v -45.7249h 1.00787v 58.7892h 0.503937v -52.2571h 0.503937v 52.2571h 0.503937v -52.2571h 0.503937v -6.53213h 0.503937v -26.1285h 0.503937v 58.7892h 0.503937v -52.2571h 0.503937v -26.1285h
 0.503937v 13.0643h 0.503937v 45.7249h 0.503937v 26.1285h 0.503937v 26.1285h 0.503937v -6.53213h 0.503937v -78.3856h 0.503937v 26.1285h 0.503937v 65.3214h 0.503937v -71.8535h 0.503937v 84.9178h 1.00787v -19.5964h 0.503937v -32.6607h 0.503937v
 13.0643h 0.503937v 6.53213h 0.503937v 39.1928h 0.503937v -26.1285h 0.503937v 32.6607h 0.503937v -39.1928h 0.503937v -6.53213h 0.503937v -19.5964h 0.503937v -6.53213h 0.503937v 71.8535h 0.503937v -78.3856h 0.503937v 13.0643h 0.503937v -6.53213h
 0.503937v 13.0643h 0.503937v -32.6607h 0.503937v -6.53213h 0.503937v 32.6607h 0.503937v -32.6607h 0.503937v 39.1928h 0.503937v 26.1285h 0.503937v -45.7249h 0.503937v 26.1285h 0.503937v 13.0643h 0.503937v -26.1285h 0.503937v 13.0643h 0.503937v
 -65.3214h 0.503937v 111.046h 0.503937v -45.7249h 0.503937v 26.1285h 1.00787v 6.53213h 0.503937v 32.6607h 0.503937v -58.7892h 0.503937v 13.0643h 0.503937v 39.1928h 0.503937v 13.0643h 0.503937v -26.1285h 0.503937v 13.0643h 0.503937v -19.5964h
 0.503937v -6.53213h 0.503937v 6.53213h 0.503937v -13.0643h 0.503937v -26.1285h 0.503937v 32.6607h 1.00787v 13.0643h 0.503937v -71.8535h 0.503937v 78.3856h 0.503937v -65.3214h 0.503937v 26.1285h 0.503937v 6.53213h 0.503937v -13.0643h 0.503937v
 -6.53213h 0.503937v -6.53213h 0.503937v 39.1928h 0.503937v -19.5964h 0.503937v 13.0643h 0.503937v 32.6607h 0.503937v -65.3214h 0.503937v 26.1285h 0.503937v 26.1285h 0.503937v 6.53213h 0.503937v 26.1285h 0.503937v -45.7249h 0.503937v 32.6607h
 0.503937v -45.7249h 0.503937v 26.1285h 0.503937v 13.0643h 0.503937v 19.5964h 0.503937v -52.2571h 0.503937v 45.7249h 0.503937v -45.7249h 0.503937v 32.6607h 0.503937v -19.5964h 0.503937v 19.5964h 0.503937v 39.1928h 0.503937v -65.3214h 0.503937v
 45.7249h 0.503937v -39.1928h 0.503937v -45.7249h 0.503937v 52.2571h 0.503937v 6.53213h 0.503937v 13.0643h 0.503937v 6.53213h 0.503937v -26.1285h 1.00787v -26.1285h 0.503937v 19.5964h 0.503937v -13.0643h 0.503937v 58.7892h 0.503937v -58.7892h
 0.503937v 19.5964h 0.503937v 19.5964h 1.00787v -13.0643h 0.503937v 26.1285h 0.503937v 6.53213h 0.503937v -19.5964h 0.503937v 32.6607h 0.503937v -13.0643h 0.503937v 6.53213h 0.503937v -13.0643h 0.503937v -19.5964h 0.503937v -13.0643h 0.503937v
 19.5964h 0.503937v 19.5964h 0.503937v -39.1928h 0.503937v -6.53213h 0.503937v 6.53213h 0.503937v 39.1928h 0.503937v 13.0643h 0.503937v -65.3214h 0.503937v 6.53213h 0.503937v -45.7249h 0.503937v 97.982h 0.503937v -78.3856h 0.503937v 58.7892h
 0.503937v -32.6607h 0.503937v 6.53213h 0.503937v -19.5964h 0.503937v 39.1928h 0.503937v 13.0643h 0.503937v 6.53213h 1.00787v 13.0643h 1.00787v 6.53213h 0.503937v -13.0643h 0.503937v 13.0643h 0.503937v -45.7249h 0.503937v 26.1285h 0.503937v 6.53213h
 0.503937v -32.6607h 0.503937v 13.0643h 0.503937v 13.0643h 0.503937v 19.5964h 0.503937v -19.5964h 0.503937v 6.53213h 0.503937v -6.53213h 1.00787v 6.53213h 0.503937v 13.0643h 0.503937v -19.5964h 0.503937v -6.53213h 0.503937v -26.1285h 0.503937v
 13.0643h 0.503937v 26.1285h 0.503937v -13.0643h 0.503937v 32.6607h 0.503937v -32.6607h 0.503937v 6.53213h 0.503937v 13.0643h 1.00787v -13.0643h 0.503937v -6.53213h 0.503937v 13.0643h 0.503937v 13.0643h 0.503937v -19.5964h 0.503937v -13.0643h
 0.503937v -19.5964h 0.503937v 39.1928h 0.503937v 26.1285h 0.503937v -6.53213h 0.503937v -19.5964h 0.503937v 19.5964h 0.503937v -19.5964h 0.503937v 6.53213h 0.503937v -13.0643h 0.503937v 13.0643h 0.503937v 6.53213h 0.503937v -39.1928h 1.00787v
 19.5964h 0.503937v 26.1285h 0.503937v -26.1285h 0.503937v -26.1285h 0.503937v 39.1928h 0.503937v 19.5964h 0.503937v -32.6607h 0.503937v 19.5964h 1.51181v -6.53213h 0.503937v 13.0643h 0.503937v 6.53213h 0.503937v -13.0643h 0.503937v 6.53213h
 0.503937v -26.1285h 0.503937v 13.0643h 0.503937v -32.6607h 0.503937v 45.7249h 0.503937v -6.53213h 0.503937v 6.53213h 1.51181v 13.0643h 0.503937v -39.1928h 0.503937v 13.0643h 0.503937v 13.0643h 1.51181v -13.0643h 0.503937v -19.5964h 0.503937v
 32.6607h 0.503937v 6.53213h 0.503937v -19.5964h 0.503937v 26.1285h 0.503937v -19.5964h 0.503937v -6.53213h 0.503937v -6.53213h 0.503937v -6.53213h 0.503937v 13.0643h 0.503937v 19.5964h 0.503937v -32.6607h 0.503937v 32.6607h 1.00787v -19.5964h
 1.00787v 13.0643h 1.00787v -13.0643h 0.503937v 13.0643h 1.00787v 6.53213h 0.503937v -6.53213h 0.503937v 13.0643h 0.503937v -32.6607h 0.503937v 32.6607h 0.503937v -13.0643h 0.503937v 6.53213h 1.00787v -6.53213h 0.503937v -19.5964h 0.503937v 13.0643h
 0.503937v 13.0643h 0.503937v -13.0643h 0.503937v -6.53213h 0.503937v 26.1285h 0.503937v -13.0643h 0.503937v 6.53213h 0.503937v -26.1285h 0.503937v 26.1285h 1.00787v -6.53213h 0.503937v 13.0643h 0.503937v -26.1285h 0.503937v 6.53213h 0.503937v
 6.53213h 0.503937v 6.53213h 0.503937v -6.53213h 0.503937v 13.0643h 1.00787v -26.1285h 0.503937v 19.5964h 0.503937v -13.0643h 0.503937v 6.53213h 0.503937v -6.53213h 0.503937v 19.5964h 1.51181v -13.0643h 0.503937v 6.53213h 1.51181v 6.53213h 0.503937v
 -19.5964h 0.503937v 6.53213h 1.00787v 6.53213h 1.51181v 6.53213h 0.503937v -6.53213h 0.503937v 6.53213h 0.503937v -19.5964h 0.503937v 19.5964h 0.503937v -13.0643h 0.503937v 13.0643h 0.503937v -13.0643h 1.51181v 13.0643h 1.00787v -6.53213h 0.503937v
 6.53213h 0.503937v -19.5964h 0.503937v 19.5964h 0.503937v -13.0643h 1.00787v 6.53213h 0.503937v 6.53213h 1.00787v -13.0643h 0.503937v 13.0643h 0.503937v -6.53213h 1.00787v 6.53213h 1.00787v -6.53213h 1.00787v 6.53213h 1.00787v -6.53213h 0.503937v
 6.53213h 0.503937v -13.0643h 0.503937v 13.0643h 0.503937v -6.53213h 0.503937v 6.53213h 2.51969v -6.53213h 0.503937v 6.53213h 0.503937v -6.53213h 0.503937v 6.53213h 1.51181v -6.53213h 1.00787v 6.53213h 2.01575v -6.53213h 0.503937v 6.53213h 2.51969v
 -6.53213h 0.503937v 6.53213h 1.00787v -13.0643h 0.503937v 13.0643h 1.00787v -6.53213h 0.503937v 6.53213h 1.00787v -6.53213h 0.503937v 6.53213h 1.00787v -6.53213h 3.02362v 6.53213h 1.00787v -6.53213h 0.503937v 6.53213h 0.503937v -6.53213h 0.503937v
 6.53213h 0.503937v -6.53213h 0.503937v 6.53213h 0.503937v -13.0643h 0.503937v 13.0643h 1.00787" fill="none" stroke="#000099"/>
<rect x="442.705" y="25.0773" width="113.386" height="61.7287" fill="white"/>
<path d="M442.705,86.8059h 113.386" fill="none" stroke="black"/>
<path d="M556.091,86.8059v -61.7287" fill="none" stroke="black"/>
<path d="M556.091,25.0773h -113.386" fill="none" stroke="black"/>
<path d="M442.705,25.0773v 61.7287" fill="none" stroke="black"/>
<text xml:space="preserve" x="454.531" y="37.3621" fill="black" font-size="13.5253" font-family="Helvetica">ADC_HIGH_29</text>
<path d="M442.705,40.5094h 113.386" fill="none" stroke="black"/>
<text xml:space="preserve" x="448.033" y="52.7943" fill="black" font-size="13.1417" font-family="Helvetica">Entries </text>
<text xml:space="preserve" x="513.01" y="52.7943" fill="black" font-size="13.1417" font-family="Helvetica"> 10001</text>
<text xml:space="preserve" x="448.033" y="68.2264" fill="black" font-size="13.1417" font-family="Helvetica">Mean  </text>
<text xml:space="preserve" x="510.574" y="68.2264" fill="black" font-size="13.1417" font-family="Helvetica">   1534</text>
<text xml:space="preserve" x="448.033" y="84.4708" fill="black" font-size="13.1417" font-family="Helvetica">Std Dev   </text>
<text xml:space="preserve" x="510.574" y="83.6586" fill="black" font-size="13.1417" font-family="Helvetica">  143.5</text>
<path d="M57.1929,347.224h 453.543" fill="none" stroke="black"/>
<path d="M57.1929,337.964v 9.2593" fill="none" stroke="black"/>
<path d="M67.2717,342.594v 4.62965" fill="none" stroke="black"/>
<path d="M77.3504,342.594v 4.62965" fill="none" stroke="black"/>
<path d="M87.4291,342.594v 4.62965" fill="none" stroke="black"/>
<path d="M97.5079,342.594v 4.62965" fill="none" stroke="black"/>
<path d="M107.587,337.964v 9.2593" fill="none" stroke="black"/>
<path d="M117.665,342.594v 4.62965" fill="none" stroke="black"/>
<path d="M127.744,342.594v 4.62965" fill="none" stroke="black"/>
<path d="M137.823,342.594v 4.62965" fill="none" stroke="black"/>
<path d="M147.902,342.594v 4.62965" fill="none" stroke="black"/>
<path d="M157.98,337.964v 9.2593" fill="none" stroke="black"/>
<path d="M168.059,342.594v 4.62965" fill="none" stroke="black"/>
<path d="M178.138,342.594v 4.62965" fill="none" stroke="black"/>
<path d="M188.217,342.594v 4.62965" fill="none" stroke="black"/>
<path d="M198.295,342.594v 4.62965" fill="none" stroke="black"/>
<path d="M208.374,337.964v 9.2593" fill="none" stroke="black"/>
<path d="M218.453,342.594v 4.62965" fill="none" stroke="black"/>
<path d="M228.531,342.594v 4.62965" fill="none" stroke="black"/>
<path d="M238.61,342.594v 4.62965" fill="none" stroke="black"/>
<path d="M248.689,342.594v 4.62965" fill="none" stroke="black"/>
<path d="M258.768,337.964v 9.2593" fill="none" stroke="black"/>
<path d="M268.846,342.594v 4.62965" fill="none" stroke="black"/>
<path d="M278.925,342.594v 4.62965" fill="none" stroke="black"/>
<path d="M289.004,342.594v 4.62965" fill="none" stroke="black"/>
<path d="M299.083,342.594v 4.62965" fill="none" stroke="black"/>
<path d="M309.161,337.964v 9.2593" fill="none" stroke="black"/>
<path d="M319.24,342.594v 4.62965" fill="none" stroke="black"/>
<path d="M329.319,342.594v 4.62965" fill="none" stroke="black"/>
<path d="M339.398,342.594v 4.62965" fill="none" stroke="black"/>
<path d="M349.476,342.594v 4.62965" fill="none" stroke="black"/>
<path d="M359.555,337.964v 9.2593" fill="none" stroke="black"/>
<path d="M369.634,342.594v 4.62965" fill="none" stroke="black"/>
<path d="M379.713,342.594v 4.62965" fill="none" stroke="black"/>
<path d="M389.791,342.594v 4.62965" fill="none" stroke="black"/>
<path d="M399.87,342.594v 4.62965" fill="none" stroke="black"/>
<path d="M409.949,337.964v 9.2593" fill="none" stroke="black"/>
<path d="M420.028,342.594v 4.62965" fill="none" stroke="black"/>
<path d="M430.106,342.594v 4.62965" fill="none" stroke="black"/>
<path d="M440.185,342.594v 4.62965" fill="none" stroke="black"/>
<path d="M450.264,342.594v 4.62965" fill="none" stroke="black"/>
<path d="M460.343,337.964v 9.2593" fill="none" stroke="black"/>
<path d="M470.421,342.594v 4.62965" fill="none" stroke="black"/>
<path d="M480.5,342.594v 4.62965" fill="none" stroke="black"/>
<path d="M490.579,342.594v 4.62965" fill="none" stroke="black"/>
<path d="M500.657,342.594v 4.62965" fill="none" stroke="black"/>
<path d="M510.736,337.964v 9.2593" fill="none" stroke="black"/>
<text xml:space="preserve" x="41.9232" y="359.813" fill="black" font-size="12.8882" font-family="Helvetica">1100</text>
<text xml:space="preserve" x="92.2808" y="359.813" fill="black" font-size="12.8882" font-family="Helvetica">1200</text>
<text xml:space="preserve" x="142.638" y="359.813" fill="black" font-size="12.8882" font-family="Helvetica">1300</text>
<text xml:space="preserve" x="192.996" y="359.813" fill="black" font-size="12.8882" font-family="Helvetica">1400</text>
<text xml:space="preserve" x="243.354" y="359.813" fill="black" font-size="12.8882" font-family="Helvetica">1500</text>
<text xml:space="preserve" x="294.523" y="359.813" fill="black" font-size="12.8882" font-family="Helvetica">1600</text>
<text xml:space="preserve" x="344.881" y="359.813" fill="black" font-size="12.8882" font-family="Helvetica">1700</text>
<text xml:space="preserve" x="395.239" y="359.813" fill="black" font-size="12.8882" font-family="Helvetica">1800</text>
<text xml:space="preserve" x="445.596" y="359.813" fill="black" font-size="12.8882" font-family="Helvetica">1900</text>
<text xml:space="preserve" x="495.954" y="359.813" fill="black" font-size="12.8882" font-family="Helvetica">2000</text>
<path d="M57.1929,347.224v -308.643" fill="none" stroke="black"/>
<path d="M70.7992,347.224h -13.6063" fill="none" stroke="black"/>
<path d="M63.9961,340.692h -6.80315" fill="none" stroke="black"/>
<path d="M63.9961,334.16h -6.80315" fill="none" stroke="black"/>
<path d="M63.9961,327.627h -6.80315" fill="none" stroke="black"/>
<path d="M63.9961,321.095h -6.80315" fill="none" stroke="black"/>
<path d="M70.7992,314.563h -13.6063" fill="none" stroke="black"/>
<path d="M63.9961,308.031h -6.80315" fill="none" stroke="black"/>
<path d="M63.9961,301.499h -6.80315" fill="none" stroke="black"/>
<path d="M63.9961,294.967h -6.80315" fill="none" stroke="black"/>
<path d="M63.9961,288.435h -6.80315" fill="none" stroke="black"/>
<path d="M70.7992,281.902h -13.6063" fill="none" stroke="black"/>
<path d="M63.9961,275.37h -6.80315" fill="none" stroke="black"/>
<path d="M63.9961,268.838h -6.80315" fill="none" stroke="black"/>
<path d="M63.9961,262.306h -6.80315" fill="none" stroke="black"/>
<path d="M63.9961,255.774h -6.80315" fill="none" stroke="black"/>
<path d="M70.7992,249.242h -13.6063" fill="none" stroke="black"/>
<path d="M63.9961,242.71h -6.80315" fill="none" stroke="black"/>
<path d="M63.9961,236.178h -6.80315" fill="none" stroke="black"/>
<path d="M63.9961,229.645h -6.80315" fill="none" stroke="black"/>
<path d="M63.9961,223.113h -6.80315" fill="none" stroke="black"/>
<path d="M70.7992,216.581h -13.6063" fill="none" stroke="black"/>
<path d="M63.9961,210.049h -6.80315" fill="none" stroke="black"/>
<path d="M63.9961,203.517h -6.80315" fill="none" stroke="black"/>
<path d="M63.9961,196.985h -6.80315" fill="none" stroke="black"/>
<path d="M63.9961,190.453h -6.80315" fill="none" stroke="black"/>
<path d="M70.7992,183.92h -13.6063" fill="none" stroke="black"/>
<path d="M63.9961,177.388h -6.80315" fill="none" stroke="black"/>
<path d="M63.9961,170.856h -6.80315" fill="none" stroke="black"/>
<path d="M63.9961,164.324h -6.80315" fill="none" stroke="black"/>
<path d="M63.9961,157.792h -6.80315" fill="none" stroke="black"/>
<path d="M70.7992,151.26h -13.6063" fill="none" stroke="black"/>
<path d="M63.9961,144.728h -6.80315" fill="none" stroke="black"/>
<path d="M63.9961,138.195h -6.80315" fill="none" stroke="black"/>
<path d="M63.9961,131.663h -6.80315" fill="none" stroke="black"/>
<path d="M63.9961,125.131h -6.80315" fill="none" stroke="black"/>
<path d="M70.7992,118.599h -13.6063" fill="none" stroke="black"/>
<path d="M63.9961,112.067h -6.80315" fill="none" stroke="black"/>
<path d="M63.9961,105.535h -6.80315" fill="none" stroke="black"/>
<path d="M63.9961,99.0027h -6.80315" fill="none" stroke="black"/>
<path d="M63.9961,92.4705h -6.80315" fill="none" stroke="black"/>
<path d="M70.7992,85.9384h -13.6063" fill="none" stroke="black"/>
<path d="M63.9961,79.4063h -6.80315" fill="none" stroke="black"/>
<path d="M63.9961,72.8741h -6.80315" fill="none" stroke="black"/>
<path d="M63.9961,66.342h -6.80315" fill="none" stroke="black"/>
<path d="M63.9961,59.8099h -6.80315" fill="none" stroke="black"/>
<path d="M70.7992,53.2777h -13.6063" fill="none" stroke="black"/>
<path d="M70.7992,53.2777h -13.6063" fill="none" stroke="black"/>
<path d="M63.9961,46.7456h -6.80315" fill="none" stroke="black"/>
<path d="M63.9961,40.2135h -6.80315" fill="none" stroke="black"/>
<text xml:space="preserve" x="46.7965" y="351.691" fill="black" font-size="12.8882" font-family="Helvetica">0</text>
<text xml:space="preserve" x="46.7965" y="319.202" fill="black" font-size="12.8882" font-family="Helvetica">5</text>
<text xml:space="preserve" x="39.4865" y="286.713" fill="black" font-size="12.8882" font-family="Helvetica">10</text>
<text xml:space="preserve" x="39.4865" y="253.412" fill="black" font-size="12.8882" font-family="Helvetica">15</text>
<text xml:space="preserve" x="39.4865" y="220.924" fill="black" font-size="12.8882" font-family="Helvetica">20</text>
<text xml:space="preserve" x="39.4865" y="188.435" fill="black" font-size="12.8882" font-family="Helvetica">25</text>
<text xml:space="preserve" x="39.4865" y="155.946" fill="black" font-size="12.8882" font-family="Helvetica">30</text>
<text xml:space="preserve" x="39.4865" y="123.457" fill="black" font-size="12.8882" font-family="Helvetica">35</text>
<text xml:space="preserve" x="39.4865" y="90.1564" fill="black" font-size="12.8882" font-family="Helvetica">40</text>
<text xml:space="preserve" x="39.4865" y="57.6676" fill="black" font-size="12.8882" font-family="Helvetica">45</text>
<rect x="442.705" y="25.0773" width="113.386" height="61.7287" fill="white"/>
<path d="M442.705,86.8059h 113.386" fill="none" stroke="black"/>
<path d="M556.091,86.8059v -61.7287" fill="none" stroke="black"/>
<path d="M556.091,25.0773h -113.386" fill="none" stroke="black"/>
<path d="M442.705,25.0773v 61.7287" fill="none" stroke="black"/>
<text xml:space="preserve" x="454.531" y="37.3621" fill="black" font-size="13.5253" font-family="Helvetica">ADC_HIGH_29</text>
<path d="M442.705,40.5094h 113.386" fill="none" stroke="black"/>
<text xml:space="preserve" x="448.033" y="52.7943" fill="black" font-size="13.1417" font-family="Helvetica">Entries </text>
<text xml:space="preserve" x="513.01" y="52.7943" fill="black" font-size="13.1417" font-family="Helvetica"> 10001</text>
<text xml:space="preserve" x="448.033" y="68.2264" fill="black" font-size="13.1417" font-family="Helvetica">Mean  </text>
<text xml:space="preserve" x="510.574" y="68.2264" fill="black" font-size="13.1417" font-family="Helvetica">   1534</text>
<text xml:space="preserve" x="448.033" y="84.4708" fill="black" font-size="13.1417" font-family="Helvetica">Std Dev   </text>
<text xml:space="preserve" x="510.574" y="83.6586" fill="black" font-size="13.1417" font-family="Helvetica">  143.5</text>
<text xml:space="preserve" x="230.358" y="17.8688" fill="black" font-size="17.0471" font-family="Helvetica">led3007_ch29</text></svg>
