<?xml version="1.0" standalone="no"?>
<svg width="567.429" height="386.304" viewBox="0 0 567.429 386.304" xmlns="http://www.w3.org/2000/svg" shape-rendering="crispEdges">
<title>
img/week1/led3018.rootCH26.svg
</title>
<desc>
Creator: ROOT Version 6.22/08
CreationDate: Sat Jun 12 13:40:42 2021</desc>
<defs>
</defs>
<rect x="0.5" y="0" width="566.929" height="385.804" fill="white"/>
<rect x="57.1929" y="38.5804" width="453.543" height="308.643" fill="white"/>
<rect x="57.1929" y="38.5804" width="453.543" height="308.643" fill="none" stroke="black"/>
<rect x="57.1929" y="38.5804" width="453.543" height="308.643" fill="white"/>
<rect x="57.1929" y="38.5804" width="453.543" height="308.643" fill="none" stroke="black"/>
<path d="M57.1929,347.224h 3.2985v -0.313042h 1.64925v 0.313042h 1.64925v -0.313042h 0.824624v 0.313042h 0.824624v -0.313042h 0.824624v -1.25217h 0.824624v 1.25217h 1.64925v 0.313042h 0.824624v -0.313042h 1.64925v -0.313042h 1.64925v -0.626083h
 0.824624v -0.626083h 0.824624v 0.626083h 0.824624v -0.626083h 1.64925v -0.626083h 0.824624v 0.626083h 0.824624v -0.313042h 0.824624v 0.313042h 0.824624v -3.13042h 0.824624v 0.626083h 0.824624v -5.63475h 0.824624v 2.50433h 0.824624v -3.7565h
 0.824624v -0.313042h 0.824624v 0.313042h 0.824624v 1.56521h 0.824624v -2.50433h 0.824624v 0.313042h 0.824624v 2.19129h 0.824624v -1.25217h 0.824624v 2.19129h 0.824624v -1.56521h 0.824624v -1.56521h 0.824624v 1.56521h 0.824624v 5.00867h 0.824624v
 0.626083h 0.824624v -1.25217h 0.824624v 1.56521h 0.824624v -0.313042h 0.824624v 2.19129h 0.824624v -2.19129h 0.824624v 1.56521h 0.824624v 1.25217h 0.824624v -1.87825h 0.824624v -0.313042h 0.824624v 0.626083h 0.824624v 0.313042h 0.824624v -1.87825h
 0.824624v -1.25217h 0.824624v 1.25217h 0.824624v -2.50433h 0.824624v -2.81737h 0.824624v -4.06954h 0.824624v 1.25217h 0.824624v -2.19129h 0.824624v -4.69562h 0.824624v -4.69562h 0.824624v -2.81737h 0.824624v -10.9565h 0.824624v 3.44346h 0.824624v
 -5.32171h 0.824624v -0.939125h 0.824624v -0.313042h 0.824624v -7.513h 0.824624v -2.50433h 0.824624v -5.63475h 0.824624v 12.8347h 0.824624v -15.339h 0.824624v 10.6434h 0.824624v 4.69562h 0.824624v -2.50433h 0.824624v 7.513h 0.824624v 5.94779h
 0.824624v 3.7565h 0.824624v 2.19129h 0.824624v 5.63475h 0.824624v 4.06954h 0.824624v 5.94779h 0.824624v -0.939125h 0.824624v 0.626083h 0.824624v -0.939125h 0.824624v 4.06954h 0.824624v -7.19996h 0.824624v 3.7565h 0.824624v -2.50433h 0.824624v
 -0.626083h 0.824624v -7.19996h 1.64925v -6.88692h 0.824624v -0.313042h 0.824624v -11.2695h 0.824624v -1.25217h 0.824624v -10.9565h 0.824624v -4.69562h 0.824624v -9.07821h 0.824624v -5.94779h 0.824624v 2.81737h 0.824624v -15.6521h 0.824624v -20.6607h
 0.824624v -4.38258h 0.824624v -16.2782h 0.824624v 4.06954h 0.824624v -14.0869h 0.824624v 7.82604h 0.824624v -7.82604h 0.824624v 19.0955h 0.824624v -4.06954h 0.824624v 6.57387h 0.824624v 16.9042h 0.824624v 3.7565h 0.824624v 16.5912h 0.824624v
 17.5303h 0.824624v 12.5217h 0.824624v 0.626083h 0.824624v 2.81737h 0.824624v 6.26083h 0.824624v 6.26083h 0.824624v 10.9565h 0.824624v -2.19129h 0.824624v -5.32171h 0.824624v 6.88692h 0.824624v -3.13042h 0.824624v -6.88692h 0.824624v 0.313042h
 0.824624v 1.25217h 0.824624v -6.26083h 0.824624v -15.339h 0.824624v -4.69562h 0.824624v -5.63475h 0.824624v 0.313042h 0.824624v -34.1215h 0.824624v -3.44346h 0.824624v -10.3304h 0.824624v -8.13908h 0.824624v -32.5563h 0.824624v -13.4608h 0.824624v
 -2.19129h 0.824624v -25.0433h 0.824624v -31.3042h 0.824624v -1.56521h 0.824624v 19.0955h 0.824624v -7.19996h 0.824624v -12.2086h 0.824624v 11.5825h 0.824624v 36.9389h 0.824624v 10.0173h 0.824624v -1.87825h 0.824624v 18.4695h 0.824624v 20.0347h
 0.824624v 33.1824h 0.824624v 11.8956h 0.824624v 6.88692h 0.824624v 11.5825h 0.824624v 13.4608h 0.824624v 5.00867h 0.824624v 8.76516h 0.824624v -3.7565h 0.824624v 3.13042h 0.824624v 8.76516h 0.824624v -8.45212h 0.824624v -2.50433h 0.824624v -7.19996h
 0.824624v -1.25217h 0.824624v -6.26083h 0.824624v -13.4608h 0.824624v -4.69562h 0.824624v -18.1564h 0.824624v -3.44346h 0.824624v -25.0433h 0.824624v -16.2782h 0.824624v -27.5477h 0.824624v -11.8956h 0.824624v -19.0955h 0.824624v -29.739h 0.824624v
 -6.26083h 0.824624v -17.5303h 0.824624v -25.6694h 0.824624v 11.5825h 0.824624v -30.365h 0.824624v 26.9216h 0.824624v -5.00867h 0.824624v 30.6781h 0.824624v -33.1824h 0.824624v 50.3997h 0.824624v 40.3824h 0.824624v 12.2086h 0.824624v 8.45212h
 0.824624v 38.8172h 0.824624v 17.5303h 0.824624v 13.7738h 0.824624v 5.94779h 0.824624v 23.4781h 0.824624v 7.82604h 0.824624v 8.13908h 0.824624v -0.626083h 0.824624v 5.00867h 0.824624v -6.26083h 0.824624v -3.13042h 0.824624v 5.32171h 0.824624v
 -9.70429h 0.824624v -6.88692h 0.824624v -2.19129h 0.824624v -7.513h 0.824624v -9.07821h 0.824624v -15.9651h 0.824624v -18.7825h 0.824624v -8.45212h 0.824624v -16.2782h 0.824624v -25.0433h 0.824624v -13.7738h 0.824624v -20.9738h 0.824624v -31.6172h
 0.824624v -8.45212h 0.824624v 1.25217h 0.824624v -52.2779h 0.824624v 15.339h 0.824624v -10.9565h 0.824624v 30.6781h 0.824624v -14.0869h 0.824624v 18.1564h 0.824624v 11.5825h 0.824624v 33.8085h 0.824624v 10.9565h 0.824624v 28.4868h 0.824624v 26.2955h
 0.824624v 22.539h 0.824624v 2.81737h 0.824624v 24.4172h 0.824624v 6.57387h 0.824624v 21.9129h 0.824624v 8.13908h 0.824624v 2.81737h 0.824624v 8.76516h 0.824624v 4.06954h 0.824624v 2.81737h 0.824624v -3.44346h 0.824624v -9.07821h 0.824624v -6.26083h
 0.824624v -0.626083h 0.824624v 0.313042h 0.824624v -12.8347h 0.824624v -1.87825h 0.824624v -20.0347h 0.824624v -12.8347h 0.824624v -18.1564h 0.824624v -11.8956h 0.824624v -9.39125h 0.824624v -4.69562h 0.824624v -26.6085h 0.824624v -8.13908h
 0.824624v -17.5303h 0.824624v -25.9825h 0.824624v -1.87825h 0.824624v 25.0433h 0.824624v -43.1997h 0.824624v 18.4695h 0.824624v 20.9738h 0.824624v 30.052h 0.824624v -12.8347h 0.824624v 19.4086h 0.824624v 8.76516h 0.824624v 33.1824h 0.824624v
 -1.56521h 0.824624v 32.2433h 0.824624v 11.5825h 0.824624v 3.44346h 0.824624v 17.2173h 0.824624v 12.8347h 0.824624v 5.32171h 0.824624v 10.0173h 0.824624v -2.81737h 0.824624v 12.5217h 0.824624v -5.63475h 0.824624v 5.00867h 0.824624v -2.81737h
 0.824624v -2.50433h 0.824624v -11.2695h 0.824624v -9.07821h 0.824624v -11.8956h 0.824624v 5.94779h 0.824624v -14.0869h 0.824624v -17.8434h 0.824624v 0.939125h 0.824624v -4.69562h 0.824624v -5.00867h 0.824624v -24.4172h 0.824624v -1.87825h 0.824624v
 -22.539h 0.824624v -2.81737h 0.824624v -2.50433h 0.824624v -2.19129h 0.824624v -0.626083h 0.824624v -3.13042h 0.824624v 17.8434h 0.824624v -24.1042h 0.824624v 14.3999h 0.824624v 12.5217h 0.824624v 22.852h 0.824624v 6.88692h 0.824624v 10.3304h
 0.824624v 13.7738h 0.824624v 10.9565h 0.824624v 10.9565h 0.824624v 15.6521h 0.824624v 7.19996h 0.824624v 11.5825h 0.824624v -3.13042h 0.824624v 1.56521h 0.824624v 2.50433h 0.824624v 6.26083h 0.824624v -4.69562h 0.824624v 2.19129h 0.824624v -2.19129h
 0.824624v -5.32171h 0.824624v 4.69562h 0.824624v -4.06954h 0.824624v -2.19129h 0.824624v -3.7565h 0.824624v -9.07821h 0.824624v -5.63475h 0.824624v -14.0869h 0.824624v -5.32171h 0.824624v -14.713h 0.824624v 15.339h 0.824624v -18.1564h 0.824624v
 4.69562h 0.824624v -6.26083h 0.824624v -8.13908h 0.824624v 8.45212h 0.824624v -10.0173h 0.824624v -2.81737h 0.824624v 7.82604h 1.64925v 6.57387h 0.824624v 2.50433h 0.824624v 20.3477h 0.824624v -2.19129h 0.824624v 11.8956h 0.824624v 2.19129h
 0.824624v 12.2086h 0.824624v 5.00867h 0.824624v 4.38258h 0.824624v 3.13042h 0.824624v 6.88692h 0.824624v 1.25217h 0.824624v 2.19129h 0.824624v -1.25217h 0.824624v 2.50433h 0.824624v 3.44346h 0.824624v 0.313042h 0.824624v -4.69562h 0.824624v 2.19129h
 0.824624v -1.87825h 0.824624v -5.63475h 0.824624v 0.939125h 0.824624v -4.38258h 0.824624v -0.313042h 0.824624v -2.19129h 0.824624v -6.57387h 0.824624v -3.44346h 0.824624v 5.00867h 0.824624v -3.13042h 0.824624v -8.13908h 0.824624v -6.26083h 0.824624v
 -3.44346h 0.824624v -3.13042h 0.824624v -4.06954h 0.824624v 7.82604h 0.824624v 0.313042h 0.824624v 11.5825h 0.824624v -5.94779h 0.824624v 8.13908h 0.824624v 2.19129h 0.824624v 1.25217h 0.824624v 2.81737h 0.824624v 7.19996h 0.824624v 3.13042h
 1.64925v 7.513h 0.824624v 0.313042h 0.824624v -0.626083h 0.824624v 3.13042h 0.824624v 2.50433h 0.824624v -0.626083h 0.824624v 3.13042h 0.824624v -0.313042h 0.824624v 0.313042h 0.824624v 3.13042h 0.824624v -5.00867h 0.824624v 2.50433h 0.824624v
 -3.44346h 0.824624v 2.19129h 0.824624v -0.626083h 0.824624v -2.50433h 0.824624v -3.7565h 0.824624v 3.44346h 0.824624v -6.88692h 1.64925v -3.44346h 0.824624v 0.939125h 0.824624v -2.19129h 0.824624v -0.626083h 0.824624v 1.56521h 0.824624v -4.06954h
 0.824624v -6.26083h 0.824624v 11.2695h 0.824624v -5.00867h 0.824624v -1.56521h 0.824624v 2.50433h 0.824624v 8.45212h 0.824624v 2.19129h 0.824624v -3.44346h 0.824624v 3.7565h 0.824624v 1.25217h 0.824624v 3.7565h 0.824624v 0.939125h 0.824624v
 0.939125h 0.824624v 0.939125h 0.824624v -0.313042h 0.824624v 2.81737h 1.64925v 0.939125h 0.824624v 1.56521h 0.824624v 1.56521h 0.824624v -0.313042h 0.824624v -2.19129h 0.824624v -0.626083h 0.824624v 0.313042h 2.47387v -0.313042h 1.64925v -1.56521h
 0.824624v 0.313042h 0.824624v -2.50433h 0.824624v -4.69562h 0.824624v 2.19129h 0.824624v 0.313042h 0.824624v -0.939125h 0.824624v -1.25217h 1.64925v 2.81737h 0.824624v -2.81737h 0.824624v 3.44346h 0.824624v -4.38258h 0.824624v 7.82604h 0.824624v
 -0.939125h 0.824624v -2.81737h 0.824624v 0.313042h 0.824624v 5.32171h 0.824624v -3.7565h 0.824624v 1.56521h 0.824624v 2.81737h 0.824624v 1.56521h 0.824624v -2.19129h 0.824624v 0.626083h 0.824624v 2.81737h 0.824624v 1.56521h 0.824624v -1.25217h
 0.824624v -1.25217h 0.824624v 1.56521h 0.824624v -0.313042h 0.824624v -1.56521h 0.824624v 0.939125h 0.824624v -0.313042h 0.824624v 0.939125h 0.824624v -0.626083h 0.824624v -0.313042h 0.824624v -0.939125h 0.824624v 0.313042h 0.824624v 1.56521h
 0.824624v -4.69562h 0.824624v 3.13042h 0.824624v -2.50433h 0.824624v 1.87825h 0.824624v -2.19129h 1.64925v 1.56521h 1.64925v -1.25217h 0.824624v 2.19129h 0.824624v -0.313042h 0.824624v -1.56521h 0.824624v 2.50433h 0.824624v -2.81737h 0.824624v
 0.626083h 0.824624v 0.939125h 1.64925v 2.81737h 2.47387v -1.25217h 0.824624v 0.939125h 0.824624v 0.313042h 1.64925v -0.313042h 0.824624v 0.313042h 1.64925v -0.626083h 0.824624v 0.626083h 0.824624v 0.939125h 1.64925v -2.50433h 0.824624v 0.626083h
 0.824624v 0.939125h 0.824624v 0.313042h 3.2985v -0.626083h 1.64925v -0.313042h 2.47387v -0.313042h 0.824624v 1.25217h 0.824624v -0.626083h 0.824624v -0.313042h 0.824624v -0.626083h 0.824624v 1.56521h 0.824624v -0.626083h 1.64925v 0.313042h 0.824624v
 0.626083h 1.64925v -1.87825h 0.824624v 1.25217h 0.824624v 0.313042h 0.824624v -0.313042h 0.824624v 0.626083h 1.64925v -0.313042h 0.824624v 0.626083h 0.824624v -0.313042h 0.824624v 0.626083h 0.824624v -0.626083h 0.824624v 0.313042h 1.64925v
 -0.313042h 0.824624v 0.626083h 0.824624" fill="none" stroke="#000099"/>
<rect x="442.705" y="25.0773" width="113.386" height="61.7287" fill="white"/>
<path d="M442.705,86.8059h 113.386" fill="none" stroke="black"/>
<path d="M556.091,86.8059v -61.7287" fill="none" stroke="black"/>
<path d="M556.091,25.0773h -113.386" fill="none" stroke="black"/>
<path d="M442.705,25.0773v 61.7287" fill="none" stroke="black"/>
<text xml:space="preserve" x="454.531" y="37.3621" fill="black" font-size="13.5253" font-family="Helvetica">ADC_HIGH_26</text>
<path d="M442.705,40.5094h 113.386" fill="none" stroke="black"/>
<text xml:space="preserve" x="448.033" y="52.7943" fill="black" font-size="12.7086" font-family="Helvetica">Entries </text>
<text xml:space="preserve" x="508.137" y="52.7943" fill="black" font-size="12.7086" font-family="Helvetica"> 100001</text>
<text xml:space="preserve" x="448.033" y="68.2264" fill="black" font-size="12.7086" font-family="Helvetica">Mean  </text>
<text xml:space="preserve" x="513.01" y="68.2264" fill="black" font-size="12.7086" font-family="Helvetica">   1029</text>
<text xml:space="preserve" x="448.033" y="83.6586" fill="black" font-size="12.7086" font-family="Helvetica">Std Dev   </text>
<text xml:space="preserve" x="513.01" y="83.6586" fill="black" font-size="12.7086" font-family="Helvetica">  84.98</text>
<path d="M57.1929,347.224h 453.543" fill="none" stroke="black"/>
<path d="M57.1929,337.964v 9.2593" fill="none" stroke="black"/>
<path d="M73.6854,342.594v 4.62965" fill="none" stroke="black"/>
<path d="M90.1779,342.594v 4.62965" fill="none" stroke="black"/>
<path d="M106.67,342.594v 4.62965" fill="none" stroke="black"/>
<path d="M123.163,342.594v 4.62965" fill="none" stroke="black"/>
<path d="M139.655,337.964v 9.2593" fill="none" stroke="black"/>
<path d="M156.148,342.594v 4.62965" fill="none" stroke="black"/>
<path d="M172.64,342.594v 4.62965" fill="none" stroke="black"/>
<path d="M189.133,342.594v 4.62965" fill="none" stroke="black"/>
<path d="M205.625,342.594v 4.62965" fill="none" stroke="black"/>
<path d="M222.118,337.964v 9.2593" fill="none" stroke="black"/>
<path d="M238.61,342.594v 4.62965" fill="none" stroke="black"/>
<path d="M255.103,342.594v 4.62965" fill="none" stroke="black"/>
<path d="M271.595,342.594v 4.62965" fill="none" stroke="black"/>
<path d="M288.088,342.594v 4.62965" fill="none" stroke="black"/>
<path d="M304.58,337.964v 9.2593" fill="none" stroke="black"/>
<path d="M321.073,342.594v 4.62965" fill="none" stroke="black"/>
<path d="M337.565,342.594v 4.62965" fill="none" stroke="black"/>
<path d="M354.058,342.594v 4.62965" fill="none" stroke="black"/>
<path d="M370.55,342.594v 4.62965" fill="none" stroke="black"/>
<path d="M387.043,337.964v 9.2593" fill="none" stroke="black"/>
<path d="M403.535,342.594v 4.62965" fill="none" stroke="black"/>
<path d="M420.028,342.594v 4.62965" fill="none" stroke="black"/>
<path d="M436.52,342.594v 4.62965" fill="none" stroke="black"/>
<path d="M453.013,342.594v 4.62965" fill="none" stroke="black"/>
<path d="M469.505,337.964v 9.2593" fill="none" stroke="black"/>
<path d="M469.505,337.964v 9.2593" fill="none" stroke="black"/>
<path d="M485.997,342.594v 4.62965" fill="none" stroke="black"/>
<path d="M502.49,342.594v 4.62965" fill="none" stroke="black"/>
<text xml:space="preserve" x="45.1721" y="359.813" fill="black" font-size="12.8882" font-family="Helvetica">800</text>
<text xml:space="preserve" x="128.018" y="359.813" fill="black" font-size="12.8882" font-family="Helvetica">900</text>
<text xml:space="preserve" x="206.804" y="359.813" fill="black" font-size="12.8882" font-family="Helvetica">1000</text>
<text xml:space="preserve" x="289.65" y="359.813" fill="black" font-size="12.8882" font-family="Helvetica">1100</text>
<text xml:space="preserve" x="371.684" y="359.813" fill="black" font-size="12.8882" font-family="Helvetica">1200</text>
<text xml:space="preserve" x="454.531" y="359.813" fill="black" font-size="12.8882" font-family="Helvetica">1300</text>
<path d="M57.1929,347.224v -308.643" fill="none" stroke="black"/>
<path d="M70.7992,347.224h -13.6063" fill="none" stroke="black"/>
<path d="M63.9961,340.963h -6.80315" fill="none" stroke="black"/>
<path d="M63.9961,334.702h -6.80315" fill="none" stroke="black"/>
<path d="M63.9961,328.441h -6.80315" fill="none" stroke="black"/>
<path d="M63.9961,322.18h -6.80315" fill="none" stroke="black"/>
<path d="M70.7992,315.92h -13.6063" fill="none" stroke="black"/>
<path d="M63.9961,309.659h -6.80315" fill="none" stroke="black"/>
<path d="M63.9961,303.398h -6.80315" fill="none" stroke="black"/>
<path d="M63.9961,297.137h -6.80315" fill="none" stroke="black"/>
<path d="M63.9961,290.876h -6.80315" fill="none" stroke="black"/>
<path d="M70.7992,284.615h -13.6063" fill="none" stroke="black"/>
<path d="M63.9961,278.355h -6.80315" fill="none" stroke="black"/>
<path d="M63.9961,272.094h -6.80315" fill="none" stroke="black"/>
<path d="M63.9961,265.833h -6.80315" fill="none" stroke="black"/>
<path d="M63.9961,259.572h -6.80315" fill="none" stroke="black"/>
<path d="M70.7992,253.311h -13.6063" fill="none" stroke="black"/>
<path d="M63.9961,247.05h -6.80315" fill="none" stroke="black"/>
<path d="M63.9961,240.79h -6.80315" fill="none" stroke="black"/>
<path d="M63.9961,234.529h -6.80315" fill="none" stroke="black"/>
<path d="M63.9961,228.268h -6.80315" fill="none" stroke="black"/>
<path d="M70.7992,222.007h -13.6063" fill="none" stroke="black"/>
<path d="M63.9961,215.746h -6.80315" fill="none" stroke="black"/>
<path d="M63.9961,209.485h -6.80315" fill="none" stroke="black"/>
<path d="M63.9961,203.225h -6.80315" fill="none" stroke="black"/>
<path d="M63.9961,196.964h -6.80315" fill="none" stroke="black"/>
<path d="M70.7992,190.703h -13.6063" fill="none" stroke="black"/>
<path d="M63.9961,184.442h -6.80315" fill="none" stroke="black"/>
<path d="M63.9961,178.181h -6.80315" fill="none" stroke="black"/>
<path d="M63.9961,171.92h -6.80315" fill="none" stroke="black"/>
<path d="M63.9961,165.66h -6.80315" fill="none" stroke="black"/>
<path d="M70.7992,159.399h -13.6063" fill="none" stroke="black"/>
<path d="M63.9961,153.138h -6.80315" fill="none" stroke="black"/>
<path d="M63.9961,146.877h -6.80315" fill="none" stroke="black"/>
<path d="M63.9961,140.616h -6.80315" fill="none" stroke="black"/>
<path d="M63.9961,134.355h -6.80315" fill="none" stroke="black"/>
<path d="M70.7992,128.095h -13.6063" fill="none" stroke="black"/>
<path d="M63.9961,121.834h -6.80315" fill="none" stroke="black"/>
<path d="M63.9961,115.573h -6.80315" fill="none" stroke="black"/>
<path d="M63.9961,109.312h -6.80315" fill="none" stroke="black"/>
<path d="M63.9961,103.051h -6.80315" fill="none" stroke="black"/>
<path d="M70.7992,96.7905h -13.6063" fill="none" stroke="black"/>
<path d="M63.9961,90.5297h -6.80315" fill="none" stroke="black"/>
<path d="M63.9961,84.2688h -6.80315" fill="none" stroke="black"/>
<path d="M63.9961,78.008h -6.80315" fill="none" stroke="black"/>
<path d="M63.9961,71.7472h -6.80315" fill="none" stroke="black"/>
<path d="M70.7992,65.4864h -13.6063" fill="none" stroke="black"/>
<path d="M70.7992,65.4864h -13.6063" fill="none" stroke="black"/>
<path d="M63.9961,59.2255h -6.80315" fill="none" stroke="black"/>
<path d="M63.9961,52.9647h -6.80315" fill="none" stroke="black"/>
<path d="M63.9961,46.7039h -6.80315" fill="none" stroke="black"/>
<path d="M63.9961,40.443h -6.80315" fill="none" stroke="black"/>
<text xml:space="preserve" x="46.7965" y="351.691" fill="black" font-size="12.8882" font-family="Helvetica">0</text>
<text xml:space="preserve" x="32.1766" y="320.014" fill="black" font-size="12.8882" font-family="Helvetica">100</text>
<text xml:space="preserve" x="32.1766" y="289.15" fill="black" font-size="12.8882" font-family="Helvetica">200</text>
<text xml:space="preserve" x="32.1766" y="257.474" fill="black" font-size="12.8882" font-family="Helvetica">300</text>
<text xml:space="preserve" x="32.1766" y="226.609" fill="black" font-size="12.8882" font-family="Helvetica">400</text>
<text xml:space="preserve" x="32.1766" y="194.933" fill="black" font-size="12.8882" font-family="Helvetica">500</text>
<text xml:space="preserve" x="32.1766" y="164.068" fill="black" font-size="12.8882" font-family="Helvetica">600</text>
<text xml:space="preserve" x="32.1766" y="132.392" fill="black" font-size="12.8882" font-family="Helvetica">700</text>
<text xml:space="preserve" x="32.1766" y="101.527" fill="black" font-size="12.8882" font-family="Helvetica">800</text>
<text xml:space="preserve" x="32.1766" y="69.8509" fill="black" font-size="12.8882" font-family="Helvetica">900</text>
<rect x="442.705" y="25.0773" width="113.386" height="61.7287" fill="white"/>
<path d="M442.705,86.8059h 113.386" fill="none" stroke="black"/>
<path d="M556.091,86.8059v -61.7287" fill="none" stroke="black"/>
<path d="M556.091,25.0773h -113.386" fill="none" stroke="black"/>
<path d="M442.705,25.0773v 61.7287" fill="none" stroke="black"/>
<text xml:space="preserve" x="454.531" y="37.3621" fill="black" font-size="13.5253" font-family="Helvetica">ADC_HIGH_26</text>
<path d="M442.705,40.5094h 113.386" fill="none" stroke="black"/>
<text xml:space="preserve" x="448.033" y="52.7943" fill="black" font-size="12.7086" font-family="Helvetica">Entries </text>
<text xml:space="preserve" x="508.137" y="52.7943" fill="black" font-size="12.7086" font-family="Helvetica"> 100001</text>
<text xml:space="preserve" x="448.033" y="68.2264" fill="black" font-size="12.7086" font-family="Helvetica">Mean  </text>
<text xml:space="preserve" x="513.01" y="68.2264" fill="black" font-size="12.7086" font-family="Helvetica">   1029</text>
<text xml:space="preserve" x="448.033" y="83.6586" fill="black" font-size="12.7086" font-family="Helvetica">Std Dev   </text>
<text xml:space="preserve" x="513.01" y="83.6586" fill="black" font-size="12.7086" font-family="Helvetica">  84.98</text>
<text xml:space="preserve" x="224.673" y="18.681" fill="black" font-size="17.0471" font-family="Helvetica">led3018.root 26</text></svg>
